M48
; DRILL file {KiCad (5.1.2-1)-1} date Sunday, January 24, 2021 at 02:55:14 PM
; FORMAT={-:-/ absolute / inch / decimal}
; #@! TF.CreationDate,2021-01-24T14:55:14-05:00
; #@! TF.GenerationSoftware,Kicad,Pcbnew,(5.1.2-1)-1
FMAT,2
INCH
T1C0.0157
T2C0.0315
T3C0.0394
T4C0.0394
T5C0.1378
%
G90
G05
T1
X0.68Y-1.38
X1.07Y-0.69
X1.1057Y-1.9557
X1.2825Y-1.6125
X1.39Y-2.265
X1.46Y-0.91
X1.98Y-2.61
X2.27Y-1.13
X2.99Y-2.8
X3.05Y-1.06
X4.18Y-2.91
X4.2475Y-2.055
T2
X3.89Y-1.7131
X3.89Y-1.91
X1.6577Y-1.305
X1.9175Y-1.155
X3.48Y-2.9
X3.78Y-2.9
X1.06Y-1.25
X1.36Y-1.25
X3.53Y-1.04
X3.83Y-1.04
X1.47Y-1.62
X1.77Y-1.62
X2.3766Y-0.8629
X2.4108Y-0.769
X2.445Y-0.675
X1.0181Y-0.9826
X1.3Y-0.88
X3.334Y-1.3866
X3.334Y-1.6866
X3.48Y-2.51
X3.78Y-2.51
X2.4075Y-2.2175
X2.4075Y-2.5175
X2.5425Y-2.1406
X2.5425Y-2.3375
X2.3875Y-1.435
X2.3875Y-1.735
X3.53Y-1.3
X3.83Y-1.3
X3.48Y-3.03
X3.78Y-3.03
X1.1127Y-2.7325
X1.3725Y-2.8825
X1.585Y-1.0175
X1.885Y-1.0175
X3.53Y-1.43
X3.83Y-1.43
X1.14Y-1.41
X1.44Y-1.41
X1.21Y-2.1516
X1.21Y-2.25
X1.1609Y-2.6086
X1.4428Y-2.7113
X1.6377Y-2.775
X1.8975Y-2.925
X3.2725Y-2.325
X3.2725Y-2.625
X1.0234Y-2.8406
X1.2163Y-3.0704
X2.94Y-1.85
X2.94Y-2.15
X3.04Y-1.85
X3.04Y-2.15
X3.14Y-1.85
X3.14Y-2.15
X3.24Y-1.85
X3.24Y-2.15
X3.34Y-1.85
X3.34Y-2.15
X3.44Y-1.85
X3.44Y-2.15
X3.54Y-1.85
X3.54Y-2.15
X3.64Y-1.85
X3.64Y-2.15
X2.7775Y-3.165
X3.0729Y-3.2171
X3.53Y-1.17
X3.83Y-1.17
X2.0775Y-0.7243
X2.1275Y-0.8109
X2.1775Y-0.8975
X2.4925Y-2.9425
X2.5446Y-2.6471
X2.21Y-1.475
X2.21Y-1.775
X1.5825Y-3.2725
X1.8779Y-3.2204
X1.0546Y-1.1221
X1.35Y-1.07
X1.505Y-2.405
X1.805Y-2.405
X2.6754Y-2.9929
X2.7275Y-2.6975
X1.5875Y-0.895
X1.8875Y-0.895
X1.7252Y-2.6047
X1.955Y-2.7975
X1.575Y-3.07
X1.875Y-3.07
X2.5425Y-1.6431
X2.5425Y-1.84
X2.0343Y-3.2211
X2.1109Y-3.1568
X2.1875Y-3.0925
X2.55Y-0.96
X2.55Y-1.26
X1.7627Y-1.4528
X1.9925Y-1.26
X2.2025Y-2.175
X2.2025Y-2.475
X3.48Y-2.3825
X3.78Y-2.3825
X1.2923Y-2.4889
X1.5742Y-2.5915
X1.22Y-1.7016
X1.22Y-1.8
X3.48Y-2.6375
X3.78Y-2.6375
X3.195Y-0.705
X3.4904Y-0.7571
X2.2589Y-2.9093
X2.3232Y-2.9859
X2.3875Y-3.0625
X3.89Y-2.0531
X3.89Y-2.25
X3.53Y-1.56
X3.83Y-1.56
X2.6925Y-1.4225
X2.7446Y-1.1271
X1.46Y-1.84
X1.46Y-2.14
X1.56Y-1.84
X1.56Y-2.14
X1.66Y-1.84
X1.66Y-2.14
X1.76Y-1.84
X1.76Y-2.14
X1.86Y-1.84
X1.86Y-2.14
X1.96Y-1.84
X1.96Y-2.14
X2.06Y-1.84
X2.06Y-2.14
X3.48Y-2.7675
X3.78Y-2.7675
X3.53Y-0.9
X3.83Y-0.9
T3
X3.0218Y-1.6197
X3.035Y-1.4
X3.2055Y-1.4984
X3.22Y-3.1681
X3.22Y-3.365
X3.4169Y-3.2666
X2.9289Y-2.5191
X2.98Y-2.305
X3.1308Y-2.4315
X3.6031Y-0.77
X3.7016Y-0.5731
X3.8Y-0.77
T4
X4.1375Y-2.18
X2.7775Y-2.1625
X0.9315Y-2.6103
X0.95Y-1.38
X4.14Y-2.345
X0.88Y-1.23
X0.8285Y-2.7324
X2.5525Y-2.5
X2.6525Y-3.125
X1.0424Y-2.4884
X0.82Y-1.08
X3.0775Y-0.685
X2.55Y-1.38
X4.1375Y-1.9025
X2.785Y-1.8275
X4.1375Y-1.73
X0.73Y-1.98
X0.88Y-1.98
X0.73Y-2.15
X0.88Y-2.15
X0.72Y-1.69
X0.87Y-1.69
T5
X4.3Y-0.65
X0.65Y-0.65
X4.3Y-3.3
X0.65Y-3.3
T0
M30
