M48
; DRILL file {KiCad (5.1.2-1)-1} date Thursday, December 23, 2021 at 04:10:12 PM
; FORMAT={-:-/ absolute / inch / decimal}
; #@! TF.CreationDate,2021-12-23T16:10:12-05:00
; #@! TF.GenerationSoftware,Kicad,Pcbnew,(5.1.2-1)-1
FMAT,2
INCH
T1C0.0276
T2C0.0315
T3C0.0394
T4C0.0394
T5C0.1378
%
G90
G05
T1
X2.3838Y-1.8635
X2.3899Y-1.7931
X2.4542Y-1.8697
X1.287Y-2.9391
X1.2932Y-2.8686
X1.3574Y-2.9452
X1.123Y-2.645
X1.1873Y-2.7216
X1.1934Y-2.6511
X0.9946Y-3.0065
X1.0008Y-2.9361
X1.0651Y-3.0127
T2
X0.985Y-2.216
X1.2148Y-2.0231
X0.7461Y-2.9499
X0.976Y-2.757
X2.1839Y-1.3689
X2.3339Y-1.6287
X0.8001Y-1.6832
X0.9929Y-1.913
X1.0823Y-0.6937
X1.0823Y-0.9937
X1.6113Y-2.9599
X1.8411Y-2.767
X0.7763Y-1.4569
X0.8283Y-1.1614
X2.0409Y-1.3402
X2.0409Y-1.6402
X1.1417Y-2.4026
X1.3715Y-2.2098
X2.4944Y-2.075
X2.6872Y-1.8452
X1.1902Y-0.7413
X1.4902Y-0.7413
X1.085Y-1.0882
X1.085Y-1.285
X1.0835Y-1.3819
X1.0835Y-1.6819
X1.8922Y-2.126
X2.0187Y-2.2768
X1.6106Y-2.3637
X1.7372Y-2.5145
X1.1103Y-3.1321
X1.3031Y-3.3619
X1.2091Y-0.8665
X1.2091Y-0.9665
X1.2091Y-1.0665
X1.2091Y-1.1665
X1.2091Y-1.2665
X1.2091Y-1.3665
X1.2091Y-1.4665
X1.5091Y-0.8665
X1.5091Y-0.9665
X1.5091Y-1.0665
X1.5091Y-1.1665
X1.5091Y-1.2665
X1.5091Y-1.3665
X1.5091Y-1.4665
X1.6331Y-0.9559
X1.6331Y-1.1528
X1.4839Y-3.1709
X1.6339Y-3.4307
X1.9898Y-0.9461
X2.0419Y-1.2415
X1.7995Y-2.2048
X1.926Y-2.3556
X0.7437Y-1.0531
X0.9365Y-0.8233
X0.7065Y-2.4861
X0.9363Y-2.2933
X1.6142Y-1.2642
X1.9142Y-1.2642
X1.9169Y-1.502
X1.9169Y-1.6988
X1.2035Y-3.0539
X1.3963Y-3.2837
X0.6399Y-2.8771
X0.8697Y-2.6843
X0.9571Y-1.0209
X0.9571Y-1.3209
X1.6894Y-3.0536
X1.9193Y-2.8608
X1.7057Y-2.2835
X1.8322Y-2.4343
X0.6491Y-1.4573
X0.7012Y-1.1618
X1.7732Y-1.1319
X1.8406Y-0.9469
X1.0854Y-1.9736
X1.3152Y-1.7808
X1.0635Y-2.3089
X1.2933Y-2.1161
X1.5114Y-1.6925
X1.8114Y-1.6925
T3
X0.9385Y-2.6193
X1.0917Y-2.4908
X1.6719Y-2.1612
X1.8252Y-2.0326
X1.4246Y-2.7074
X1.5532Y-2.8606
X0.9272Y-3.2612
X1.0404Y-3.2812
X2.1826Y-2.0832
X2.3112Y-2.2364
X1.891Y-1.9311
X2.0196Y-2.0843
X2.3735Y-2.6625
X2.4475Y-2.5744
X2.2785Y-2.0027
X2.4071Y-2.1559
X1.2283Y-2.4764
X1.3568Y-2.6297
X1.521Y-2.6275
X1.6496Y-2.7807
X1.987Y-1.8501
X2.1156Y-2.0033
X2.056Y-3.1195
X2.1135Y-3.0199
X1.946Y-2.4878
X2.0992Y-2.3593
X1.4408Y-2.3567
X1.594Y-2.2282
X1.3261Y-2.3964
X1.4546Y-2.5496
X1.6134Y-1.3894
X1.7118Y-1.5862
X1.8102Y-1.3894
X1.5487Y-1.8607
X1.6568Y-1.9001
X0.8571Y-2.5222
X1.0103Y-2.3937
X2.0834Y-1.7702
X2.212Y-1.9234
X1.7155Y-2.6828
X1.8687Y-2.5543
X2.0854Y-2.1627
X2.214Y-2.3159
T4
X2.2434Y-2.7697
X2.3583Y-2.8661
X1.8126Y-3.2433
X1.9275Y-3.3397
X0.875Y-3.1064
X2.4371Y-2.363
X2.552Y-2.4594
X0.9488Y-1.4378
X0.9476Y-1.5807
X1.2177Y-0.6094
T5
X2.6378Y-0.6299
X2.6378Y-3.3858
X0.6299Y-0.6299
X0.6299Y-3.3858
T0
M30
