M48
; DRILL file {KiCad (5.1.2-1)-1} date Thursday, January 06, 2022 at 01:05:12 PM
; FORMAT={-:-/ absolute / inch / decimal}
; #@! TF.CreationDate,2022-01-06T13:05:12-05:00
; #@! TF.GenerationSoftware,Kicad,Pcbnew,(5.1.2-1)-1
FMAT,2
INCH
T1C0.0197
T2C0.0315
T3C0.0315
T4C0.0394
T5C0.0394
T6C0.1378
%
G90
G05
T1
X1.2906Y-2.448
X1.8409Y-1.2795
X1.337Y-0.6689
X1.6626Y-0.9268
T2
X2.3171Y-2.0066
X2.5469Y-2.1994
X1.5272Y-2.1165
X1.8272Y-2.1165
X0.8917Y-2.5449
X1.1917Y-2.5449
X2.0331Y-2.6666
X2.2259Y-2.4368
X1.524Y-1.1559
X1.524Y-1.4559
X0.9614Y-0.8764
X1.2614Y-0.8764
X2.9172Y-1.6475
X3.1101Y-1.8773
X1.6669Y-2.2209
X1.6669Y-2.5209
X1.7028Y-1.9933
X2.0028Y-1.9933
X2.7692Y-2.0523
X2.962Y-2.2821
X2.3602Y-2.572
X2.5531Y-2.3422
X1.9407Y-2.5886
X2.1336Y-2.3588
X0.9815Y-1.8724
X1.2815Y-1.8724
X1.9728Y-1.2524
X2.022Y-1.1671
X0.7291Y-1.1299
X0.7291Y-1.4299
X2.1726Y-2.2811
X2.2369Y-2.2045
X2.3012Y-2.1279
X1.4114Y-1.9949
X1.6083Y-1.9949
X1.4228Y-2.0988
X1.4228Y-2.3988
X2.0039Y-0.559
X2.1967Y-0.7888
X0.5917Y-2.2264
X0.8917Y-2.2264
X1.5244Y-0.7705
X1.5244Y-1.0705
X0.8535Y-0.7413
X0.8535Y-1.0413
X2.3185Y-2.403
X2.3828Y-2.3264
X2.4471Y-2.2498
X2.2447Y-1.4291
X2.4375Y-1.6589
X0.9778Y-1.0027
X0.9778Y-1.1027
X0.9778Y-1.2027
X0.9778Y-1.3027
X0.9778Y-1.4027
X0.9778Y-1.5027
X0.9778Y-1.6027
X1.2778Y-1.0027
X1.2778Y-1.1027
X1.2778Y-1.2027
X1.2778Y-1.3027
X1.2778Y-1.4027
X1.2778Y-1.5027
X1.2778Y-1.6027
X1.5079Y-1.863
X1.8079Y-1.863
X2.5295Y-1.186
X2.7223Y-1.4158
X0.987Y-2.4236
X1.1839Y-2.4236
X2.1382Y-2.0614
X2.331Y-1.8316
X0.5917Y-1.9799
X0.8917Y-1.9799
X1.5445Y-2.2205
X1.5445Y-2.5205
X0.7331Y-1.5165
X0.7331Y-1.8165
X1.7689Y-2.2882
X1.8689Y-2.2882
X1.9689Y-2.2882
X1.4008Y-0.8563
X1.4008Y-1.1563
X0.8547Y-1.4295
X0.8547Y-1.7295
X2.4539Y-2.652
X2.6468Y-2.4222
X0.5933Y-2.1043
X0.8933Y-2.1043
X0.8541Y-1.1368
X0.8541Y-1.3337
X1.4031Y-1.5441
X1.4031Y-1.8441
X1.985Y-1.3919
X2.0343Y-1.4772
X1.4003Y-1.25
X1.4003Y-1.4468
X3.0197Y-2.3483
X3.2125Y-2.5782
X0.9988Y-1.9988
X0.9988Y-2.0988
X0.9988Y-2.1988
X0.9988Y-2.2988
X1.2988Y-1.9988
X1.2988Y-2.0988
X1.2988Y-2.1988
X1.2988Y-2.2988
X1.7193Y-0.7973
X1.9121Y-1.0272
X2.2522Y-0.8549
X2.445Y-1.0847
T3
X0.6736Y-2.3476
X2.6602Y-2.598
X0.7945Y-2.348
X1.9642Y-2.1169
X0.6102Y-1.5343
X2.322Y-0.7449
T4
X2.2054Y-1.185
X2.334Y-1.3382
X0.7299Y-0.8331
X0.7299Y-1.0331
X2.5926Y-1.6464
X2.7211Y-1.7997
X2.9803Y-2.1079
X3.1089Y-2.2611
X1.9138Y-0.6439
X2.0423Y-0.7971
X2.0118Y-0.9543
X2.1404Y-1.1075
X2.8818Y-1.7969
X3.0103Y-1.9501
X2.0205Y-1.8274
X2.0717Y-1.6134
X2.2224Y-1.7399
X2.3992Y-1.416
X2.5278Y-1.5692
X1.5283Y-1.5516
X1.5283Y-1.7516
X3.1737Y-2.3383
X3.3022Y-2.4916
X2.7864Y-1.8775
X2.915Y-2.0307
X2.301Y-1.1053
X2.4295Y-1.2585
X1.8179Y-0.7238
X1.9465Y-0.877
X2.6882Y-1.5662
X2.8168Y-1.7194
X2.4946Y-1.3361
X2.6231Y-1.4893
X1.7343Y-2.7839
X1.8851Y-2.9104
X1.9362Y-2.6963
X3.269Y-2.2584
X3.3975Y-2.4116
X2.1074Y-0.8746
X2.2359Y-1.0278
X1.6535Y-1.5516
X1.6535Y-1.7516
X3.0756Y-2.028
X3.2042Y-2.1812
X0.6047Y-0.8323
X0.6047Y-1.0323
T5
X1.4126Y-2.5114
X1.7988Y-2.4921
X0.9866Y-1.739
X1.8228Y-1.5421
X1.8228Y-1.6921
X1.2717Y-1.7378
X1.6996Y-1.222
X1.8145Y-1.1256
X1.6555Y-1.0378
X2.2425Y-2.6224
X1.676Y-1.4004
X1.826Y-1.4004
T6
X0.6299Y-0.6299
X3.3465Y-0.6299
X3.3465Y-2.874
X0.6299Y-2.874
T0
M30
