G04 #@! TF.GenerationSoftware,KiCad,Pcbnew,(5.1.2-1)-1*
G04 #@! TF.CreationDate,2022-01-04T14:16:01-05:00*
G04 #@! TF.ProjectId,Wavefolder - Yusynth,57617665-666f-46c6-9465-72202d205975,rev?*
G04 #@! TF.SameCoordinates,Original*
G04 #@! TF.FileFunction,Copper,L1,Top*
G04 #@! TF.FilePolarity,Positive*
%FSLAX46Y46*%
G04 Gerber Fmt 4.6, Leading zero omitted, Abs format (unit mm)*
G04 Created by KiCad (PCBNEW (5.1.2-1)-1) date 2022-01-04 14:16:01*
%MOMM*%
%LPD*%
G04 APERTURE LIST*
%ADD10R,0.850000X0.850000*%
%ADD11C,1.998980*%
%ADD12C,2.499360*%
%ADD13C,0.100000*%
%ADD14R,2.499360X2.499360*%
%ADD15C,1.500000*%
%ADD16R,1.500000X1.500000*%
%ADD17C,1.600000*%
%ADD18O,2.000000X2.000000*%
%ADD19R,2.000000X2.000000*%
%ADD20C,2.000000*%
%ADD21C,2.000000*%
%ADD22O,1.600000X1.600000*%
%ADD23C,1.600000*%
%ADD24C,1.550000*%
%ADD25R,1.600000X1.600000*%
%ADD26C,0.406400*%
G04 APERTURE END LIST*
D10*
X33960000Y-16990000D03*
X32780000Y-62180000D03*
X42230000Y-23540000D03*
X46760000Y-32500000D03*
D11*
X15500000Y-38970000D03*
X58980000Y-18920000D03*
X67570000Y-65990000D03*
X49890000Y-53770000D03*
X17110000Y-59630000D03*
X20180000Y-59640000D03*
D12*
X46088629Y-28590979D03*
X43170000Y-31040000D03*
D13*
G36*
X43015968Y-32800589D02*
G01*
X41409411Y-30885968D01*
X43324032Y-29279411D01*
X44930589Y-31194032D01*
X43015968Y-32800589D01*
X43015968Y-32800589D01*
G37*
D12*
X46380000Y-35570000D03*
D14*
X42570000Y-35570000D03*
D12*
X46300000Y-39170000D03*
D14*
X46300000Y-42980000D03*
D15*
X55184153Y-57939121D03*
D13*
G36*
X56240777Y-57846678D02*
G01*
X55276596Y-58995745D01*
X54127529Y-58031564D01*
X55091710Y-56882497D01*
X56240777Y-57846678D01*
X56240777Y-57846678D01*
G37*
D15*
X58449514Y-54047615D03*
X56816834Y-55993368D03*
X58890575Y-61036125D03*
D13*
G36*
X59947199Y-60943682D02*
G01*
X58983018Y-62092749D01*
X57833951Y-61128568D01*
X58798132Y-59979501D01*
X59947199Y-60943682D01*
X59947199Y-60943682D01*
G37*
D15*
X62155936Y-57144619D03*
X60523256Y-59090372D03*
D16*
X44930000Y-58120000D03*
D15*
X50010000Y-58120000D03*
X47470000Y-58120000D03*
D17*
X51670000Y-37520000D03*
D13*
G36*
X52762820Y-37812820D02*
G01*
X51377180Y-38612820D01*
X50577180Y-37227180D01*
X51962820Y-36427180D01*
X52762820Y-37812820D01*
X52762820Y-37812820D01*
G37*
D17*
X50420000Y-35354936D03*
X51360000Y-29644936D03*
X50110000Y-31810000D03*
D13*
G36*
X50402820Y-32902820D02*
G01*
X49017180Y-32102820D01*
X49817180Y-30717180D01*
X51202820Y-31517180D01*
X50402820Y-32902820D01*
X50402820Y-32902820D01*
G37*
D17*
X35850000Y-50670000D03*
X40850000Y-50670000D03*
X25070000Y-61560000D03*
X30070000Y-61560000D03*
X21694008Y-33875053D03*
X21694008Y-28875053D03*
X35567675Y-31749792D03*
X35567675Y-36749792D03*
D18*
X38820000Y-44490000D03*
D19*
X38820000Y-39410000D03*
D18*
X42000000Y-39410000D03*
D19*
X42000000Y-44490000D03*
D20*
X48609612Y-16355102D03*
D13*
G36*
X47200780Y-16231845D02*
G01*
X48732869Y-14946270D01*
X50018444Y-16478359D01*
X48486355Y-17763934D01*
X47200780Y-16231845D01*
X47200780Y-16231845D01*
G37*
D20*
X51874973Y-20246608D03*
D21*
X51874973Y-20246608D02*
X51874973Y-20246608D01*
D20*
X56792298Y-26106848D03*
D21*
X56792298Y-26106848D02*
X56792298Y-26106848D01*
D20*
X53526937Y-22215342D03*
D13*
G36*
X52118105Y-22092085D02*
G01*
X53650194Y-20806510D01*
X54935769Y-22338599D01*
X53403680Y-23624174D01*
X52118105Y-22092085D01*
X52118105Y-22092085D01*
G37*
D20*
X58444262Y-28075582D03*
D13*
G36*
X57035430Y-27952325D02*
G01*
X58567519Y-26666750D01*
X59853094Y-28198839D01*
X58321005Y-29484414D01*
X57035430Y-27952325D01*
X57035430Y-27952325D01*
G37*
D20*
X61709623Y-31967088D03*
D21*
X61709623Y-31967088D02*
X61709623Y-31967088D01*
D20*
X66626948Y-37827330D03*
D21*
X66626948Y-37827330D02*
X66626948Y-37827330D01*
D20*
X63361587Y-33935824D03*
D13*
G36*
X61952755Y-33812567D02*
G01*
X63484844Y-32526992D01*
X64770419Y-34059081D01*
X63238330Y-35344656D01*
X61952755Y-33812567D01*
X61952755Y-33812567D01*
G37*
D20*
X68280145Y-39781973D03*
D13*
G36*
X66871313Y-39658716D02*
G01*
X68403402Y-38373141D01*
X69688977Y-39905230D01*
X68156888Y-41190805D01*
X66871313Y-39658716D01*
X66871313Y-39658716D01*
G37*
D20*
X71545506Y-43673479D03*
D21*
X71545506Y-43673479D02*
X71545506Y-43673479D01*
D20*
X76462831Y-49533719D03*
D21*
X76462831Y-49533719D02*
X76462831Y-49533719D01*
D20*
X73197470Y-45642213D03*
D13*
G36*
X71788638Y-45518956D02*
G01*
X73320727Y-44233381D01*
X74606302Y-45765470D01*
X73074213Y-47051045D01*
X71788638Y-45518956D01*
X71788638Y-45518956D01*
G37*
D20*
X78121223Y-51510113D03*
D13*
G36*
X76712391Y-51386856D02*
G01*
X78244480Y-50101281D01*
X79530055Y-51633370D01*
X77997966Y-52918945D01*
X76712391Y-51386856D01*
X76712391Y-51386856D01*
G37*
D20*
X81386584Y-55401619D03*
D21*
X81386584Y-55401619D02*
X81386584Y-55401619D01*
D20*
X86297483Y-61254199D03*
D21*
X86297483Y-61254199D02*
X86297483Y-61254199D01*
D20*
X83032122Y-57362693D03*
D13*
G36*
X81623290Y-57239436D02*
G01*
X83155379Y-55953861D01*
X84440954Y-57485950D01*
X82908865Y-58771525D01*
X81623290Y-57239436D01*
X81623290Y-57239436D01*
G37*
D20*
X46174823Y-18385078D03*
D21*
X46174823Y-18385078D02*
X46174823Y-18385078D01*
D20*
X49440184Y-22276584D03*
D13*
G36*
X50849016Y-22399841D02*
G01*
X49316927Y-23685416D01*
X48031352Y-22153327D01*
X49563441Y-20867752D01*
X50849016Y-22399841D01*
X50849016Y-22399841D01*
G37*
D20*
X54365170Y-28130396D03*
D13*
G36*
X55774002Y-28253653D02*
G01*
X54241913Y-29539228D01*
X52956338Y-28007139D01*
X54488427Y-26721564D01*
X55774002Y-28253653D01*
X55774002Y-28253653D01*
G37*
D20*
X51099809Y-24238890D03*
D21*
X51099809Y-24238890D02*
X51099809Y-24238890D01*
D20*
X56017134Y-30099130D03*
D21*
X56017134Y-30099130D02*
X56017134Y-30099130D01*
D20*
X59282495Y-33990636D03*
D13*
G36*
X60691327Y-34113893D02*
G01*
X59159238Y-35399468D01*
X57873663Y-33867379D01*
X59405752Y-32581804D01*
X60691327Y-34113893D01*
X60691327Y-34113893D01*
G37*
D20*
X64206248Y-39858537D03*
D13*
G36*
X65615080Y-39981794D02*
G01*
X64082991Y-41267369D01*
X62797416Y-39735280D01*
X64329505Y-38449705D01*
X65615080Y-39981794D01*
X65615080Y-39981794D01*
G37*
D20*
X60940887Y-35967031D03*
D21*
X60940887Y-35967031D02*
X60940887Y-35967031D01*
D20*
X65851785Y-41819610D03*
D21*
X65851785Y-41819610D02*
X65851785Y-41819610D01*
D20*
X69117146Y-45711116D03*
D13*
G36*
X70525978Y-45834373D02*
G01*
X68993889Y-47119948D01*
X67708314Y-45587859D01*
X69240403Y-44302284D01*
X70525978Y-45834373D01*
X70525978Y-45834373D01*
G37*
D20*
X74040899Y-51579016D03*
D13*
G36*
X75449731Y-51702273D02*
G01*
X73917642Y-52987848D01*
X72632067Y-51455759D01*
X74164156Y-50170184D01*
X75449731Y-51702273D01*
X75449731Y-51702273D01*
G37*
D20*
X70775538Y-47687510D03*
D21*
X70775538Y-47687510D02*
X70775538Y-47687510D01*
D20*
X75700522Y-53541323D03*
D21*
X75700522Y-53541323D02*
X75700522Y-53541323D01*
D20*
X78965883Y-57432829D03*
D13*
G36*
X80374715Y-57556086D02*
G01*
X78842626Y-58841661D01*
X77557051Y-57309572D01*
X79089140Y-56023997D01*
X80374715Y-57556086D01*
X80374715Y-57556086D01*
G37*
D20*
X83876781Y-63285408D03*
D13*
G36*
X85285613Y-63408665D02*
G01*
X83753524Y-64694240D01*
X82467949Y-63162151D01*
X84000038Y-61876576D01*
X85285613Y-63408665D01*
X85285613Y-63408665D01*
G37*
D20*
X80611420Y-59393902D03*
D21*
X80611420Y-59393902D02*
X80611420Y-59393902D01*
D19*
X18540000Y-21160000D03*
D18*
X18540000Y-26240000D03*
D19*
X15360000Y-26220000D03*
D18*
X15360000Y-21140000D03*
D12*
X56960000Y-66610000D03*
X45690000Y-63300000D03*
X42050000Y-26360000D03*
X35880000Y-63790000D03*
X32300000Y-44140000D03*
X25060000Y-44170000D03*
D17*
X42339999Y-56410000D03*
D22*
X42339999Y-64030000D03*
X39229996Y-64020000D03*
D17*
X39229996Y-56400000D03*
D22*
X36140000Y-60930000D03*
D17*
X36140000Y-53310000D03*
X46410000Y-53760000D03*
D22*
X38790000Y-53760000D03*
D17*
X59950000Y-65330000D03*
X64848042Y-59492741D03*
D23*
X64848042Y-59492741D02*
X64848042Y-59492741D01*
D22*
X43250000Y-50630000D03*
D17*
X50870000Y-50630000D03*
X67228042Y-61522741D03*
D23*
X67228042Y-61522741D02*
X67228042Y-61522741D01*
D17*
X62330000Y-67360000D03*
X56538172Y-61894956D03*
X51640130Y-67732215D03*
D23*
X51640130Y-67732215D02*
X51640130Y-67732215D01*
D17*
X58854325Y-50967123D03*
X64691584Y-55865165D03*
D23*
X64691584Y-55865165D02*
X64691584Y-55865165D01*
D17*
X59208042Y-46522741D03*
D23*
X59208042Y-46522741D02*
X59208042Y-46522741D01*
D17*
X54310000Y-52360000D03*
X49294801Y-65751197D03*
D23*
X49294801Y-65751197D02*
X49294801Y-65751197D01*
D17*
X54192843Y-59913938D03*
D22*
X22690000Y-53450000D03*
D17*
X15070000Y-53450000D03*
X15030000Y-56550000D03*
D22*
X22650000Y-56550000D03*
X30270000Y-64640000D03*
D17*
X22650000Y-64640000D03*
X22650000Y-50290000D03*
D22*
X15030000Y-50290000D03*
D17*
X32550000Y-47560000D03*
D22*
X24930000Y-47560000D03*
X35640000Y-39220000D03*
D17*
X35640000Y-46840000D03*
X38300000Y-47320000D03*
D22*
X45920000Y-47320000D03*
X38710000Y-36980000D03*
D17*
X38710000Y-29360000D03*
D22*
X18620000Y-38520000D03*
D17*
X18620000Y-46140000D03*
X50899289Y-14198861D03*
D23*
X50899289Y-14198861D02*
X50899289Y-14198861D01*
D17*
X55797331Y-20036120D03*
X57205036Y-21713757D03*
X62103078Y-27551016D03*
D23*
X62103078Y-27551016D02*
X62103078Y-27551016D01*
D17*
X69146798Y-35960951D03*
D23*
X69146798Y-35960951D02*
X69146798Y-35960951D01*
D17*
X64248756Y-30123692D03*
X74097494Y-41845406D03*
X78995536Y-47682665D03*
D23*
X78995536Y-47682665D02*
X78995536Y-47682665D01*
D17*
X21710000Y-36310000D03*
D22*
X21710000Y-43930000D03*
D17*
X18520000Y-36320000D03*
D22*
X18520000Y-28700000D03*
D17*
X43669062Y-20252687D03*
D23*
X43669062Y-20252687D02*
X43669062Y-20252687D01*
D17*
X48567104Y-26089946D03*
X57015096Y-36297887D03*
X61913138Y-42135146D03*
D23*
X61913138Y-42135146D02*
X61913138Y-42135146D01*
D17*
X75235395Y-57965321D03*
D23*
X75235395Y-57965321D02*
X75235395Y-57965321D01*
D17*
X70337353Y-52128062D03*
X81597495Y-65485148D03*
D23*
X81597495Y-65485148D02*
X81597495Y-65485148D01*
D17*
X76699453Y-59647889D03*
X21680000Y-26450000D03*
D22*
X21680000Y-18830000D03*
X32040000Y-22260000D03*
D17*
X24420000Y-22260000D03*
X35580000Y-29370000D03*
D22*
X35580000Y-21750000D03*
D17*
X38720000Y-19570000D03*
D22*
X38720000Y-27190000D03*
D24*
X56450222Y-44193938D03*
X52620000Y-40980000D03*
D13*
G36*
X51528155Y-41075524D02*
G01*
X52524476Y-39888155D01*
X53711845Y-40884476D01*
X52715524Y-42071845D01*
X51528155Y-41075524D01*
X51528155Y-41075524D01*
G37*
D24*
X51321173Y-46417191D03*
X44050198Y-70710223D03*
X47880420Y-73924161D03*
D13*
G36*
X48972265Y-73828637D02*
G01*
X47975944Y-75016006D01*
X46788575Y-74019685D01*
X47784896Y-72832316D01*
X48972265Y-73828637D01*
X48972265Y-73828637D01*
G37*
D24*
X49179247Y-68486970D03*
D25*
X25370000Y-50770000D03*
D22*
X32990000Y-58390000D03*
X25370000Y-53310000D03*
X32990000Y-55850000D03*
X25370000Y-55850000D03*
X32990000Y-53310000D03*
X25370000Y-58390000D03*
X32990000Y-50770000D03*
D25*
X24835693Y-25468965D03*
D22*
X32455693Y-40708965D03*
X24835693Y-28008965D03*
X32455693Y-38168965D03*
X24835693Y-30548965D03*
X32455693Y-35628965D03*
X24835693Y-33088965D03*
X32455693Y-33088965D03*
X24835693Y-35628965D03*
X32455693Y-30548965D03*
X24835693Y-38168965D03*
X32455693Y-28008965D03*
X24835693Y-40708965D03*
X32455693Y-25468965D03*
D26*
X42230000Y-23620000D02*
X44110000Y-24600000D01*
X44110000Y-24600000D02*
X44200000Y-27140000D01*
X44200000Y-27140000D02*
X43960000Y-28680000D01*
X43960000Y-28680000D02*
X44420000Y-29470000D01*
X44420000Y-29470000D02*
X45010000Y-30190000D01*
X45010000Y-30190000D02*
X46410000Y-31550000D01*
X46410000Y-31550000D02*
X46760000Y-32500000D01*
X32780000Y-62180000D02*
X30940000Y-63040000D01*
X30940000Y-63040000D02*
X27660000Y-63220000D01*
X27660000Y-63220000D02*
X21950000Y-62430000D01*
X21950000Y-62430000D02*
X16340000Y-61320000D01*
X16340000Y-61320000D02*
X15160000Y-60000000D01*
X15160000Y-60000000D02*
X15860000Y-57930000D01*
X15860000Y-57930000D02*
X18600000Y-52480000D01*
X18600000Y-52480000D02*
X17000000Y-47490000D01*
X17000000Y-47490000D02*
X15990000Y-46010000D01*
X15990000Y-46010000D02*
X17320000Y-39950000D01*
X17320000Y-39950000D02*
X16930000Y-36590000D01*
X16930000Y-36590000D02*
X17370000Y-32350000D01*
X17370000Y-32350000D02*
X21410000Y-31370000D01*
X21410000Y-31370000D02*
X23020000Y-30000000D01*
X23020000Y-30000000D02*
X23490000Y-29100000D01*
X23490000Y-29100000D02*
X23140000Y-26310000D01*
X23140000Y-26310000D02*
X22990000Y-24220000D01*
X22990000Y-24220000D02*
X22850000Y-22240000D01*
X22850000Y-22240000D02*
X23140000Y-20270000D01*
X23140000Y-20270000D02*
X30890000Y-18360000D01*
X30890000Y-18360000D02*
X33960000Y-16990000D01*
X20180000Y-59640000D02*
X25030000Y-60010000D01*
X25030000Y-60010000D02*
X29890000Y-59710000D01*
X29890000Y-59710000D02*
X34030000Y-60340000D01*
X34030000Y-60340000D02*
X37280000Y-59290000D01*
X37280000Y-59290000D02*
X47500000Y-60630000D01*
X47500000Y-60630000D02*
X52100000Y-62410000D01*
X52100000Y-62410000D02*
X56538172Y-61894956D01*
X17110000Y-59630000D02*
X19670000Y-56570000D01*
X19670000Y-56570000D02*
X22580000Y-55000000D01*
X22580000Y-55000000D02*
X25130000Y-54650000D01*
X25130000Y-54650000D02*
X26640000Y-54590000D01*
X26640000Y-54590000D02*
X32220000Y-54640000D01*
X32220000Y-54640000D02*
X33950000Y-54620000D01*
X33950000Y-54620000D02*
X37880000Y-55080000D01*
X37880000Y-55080000D02*
X40340000Y-55080000D01*
X40340000Y-55080000D02*
X44640000Y-54850000D01*
X44640000Y-54850000D02*
X46620000Y-55840000D01*
X46620000Y-55840000D02*
X49890000Y-53770000D01*
X55797331Y-20036120D02*
X53170000Y-17560000D01*
X53170000Y-17560000D02*
X47320000Y-20400000D01*
X35130000Y-25590000D02*
X34040000Y-24080000D01*
X34040000Y-24080000D02*
X32050000Y-23660000D01*
X32050000Y-23660000D02*
X30000000Y-24740000D01*
X30000000Y-24740000D02*
X26980000Y-33670000D01*
X26980000Y-33670000D02*
X27290000Y-37480000D01*
X27290000Y-37480000D02*
X24835693Y-38168965D01*
X35130000Y-25590000D02*
X39750000Y-23660000D01*
X39750000Y-23660000D02*
X41630000Y-22370000D01*
X41630000Y-22370000D02*
X43340000Y-22020000D01*
X43340000Y-22020000D02*
X47320000Y-20400000D01*
M02*
