G04 #@! TF.GenerationSoftware,KiCad,Pcbnew,(5.1.2-1)-1*
G04 #@! TF.CreationDate,2021-05-31T13:25:46-04:00*
G04 #@! TF.ProjectId,Smooth and Stepped Generator - CGS,536d6f6f-7468-4206-916e-642053746570,rev?*
G04 #@! TF.SameCoordinates,Original*
G04 #@! TF.FileFunction,Legend,Top*
G04 #@! TF.FilePolarity,Positive*
%FSLAX46Y46*%
G04 Gerber Fmt 4.6, Leading zero omitted, Abs format (unit mm)*
G04 Created by KiCad (PCBNEW (5.1.2-1)-1) date 2021-05-31 13:25:46*
%MOMM*%
%LPD*%
G04 APERTURE LIST*
%ADD10C,0.320000*%
%ADD11C,0.150000*%
%ADD12C,0.120000*%
G04 APERTURE END LIST*
D10*
X45059600Y-26568400D02*
X45262800Y-26009600D01*
X44577000Y-25781000D02*
X45059600Y-26568400D01*
X44094400Y-25501600D02*
X44577000Y-25781000D01*
X43459400Y-25552400D02*
X44094400Y-25501600D01*
X43230800Y-25984200D02*
X43459400Y-25552400D01*
X43357800Y-26695400D02*
X43230800Y-25984200D01*
X44831000Y-27736800D02*
X43357800Y-26695400D01*
X45948600Y-28498800D02*
X44831000Y-27736800D01*
X46405800Y-27101800D02*
X45948600Y-28498800D01*
X46558200Y-26466800D02*
X46405800Y-27101800D01*
X46482000Y-25679400D02*
X46558200Y-26466800D01*
X46228000Y-25349200D02*
X46482000Y-25679400D01*
X45948600Y-25247600D02*
X46228000Y-25349200D01*
X45618400Y-25425400D02*
X45948600Y-25247600D01*
X45262800Y-25958800D02*
X45618400Y-25425400D01*
X122174000Y-43408600D02*
X124079000Y-44450000D01*
X123545600Y-34620200D02*
X122174000Y-43408600D01*
X119253000Y-34239200D02*
X123545600Y-34620200D01*
X120167400Y-26238200D02*
X119253000Y-34239200D01*
X112979200Y-25882600D02*
X120167400Y-26238200D01*
X113157000Y-19786600D02*
X112979200Y-25882600D01*
X90043000Y-73050400D02*
X90424000Y-73787000D01*
X88849200Y-72339200D02*
X90043000Y-73050400D01*
X90119200Y-72136000D02*
X88849200Y-72339200D01*
X90322400Y-71170800D02*
X90119200Y-72136000D01*
X89738200Y-70688200D02*
X90322400Y-71170800D01*
X88595200Y-71069200D02*
X89738200Y-70688200D01*
X88696800Y-73863200D02*
X88595200Y-71069200D01*
X88544400Y-70942200D02*
X88696800Y-73863200D01*
X86766400Y-70993000D02*
X86512400Y-70891400D01*
X87909400Y-72339200D02*
X86766400Y-70993000D01*
X86969600Y-73329800D02*
X87909400Y-72339200D01*
X85928200Y-73152000D02*
X86969600Y-73329800D01*
X85572600Y-72034400D02*
X85928200Y-73152000D01*
X86537800Y-70891400D02*
X85572600Y-72034400D01*
X84201000Y-70967600D02*
X83896200Y-73482200D01*
X85267800Y-70789800D02*
X84201000Y-70967600D01*
X83286600Y-70840600D02*
X85267800Y-70789800D01*
X81407000Y-72466200D02*
X80619600Y-72237600D01*
X82016600Y-73761600D02*
X81407000Y-72466200D01*
X80924400Y-71043800D02*
X82016600Y-73761600D01*
X79984600Y-73329800D02*
X80924400Y-71043800D01*
X77901800Y-72364600D02*
X78536800Y-73431400D01*
X78841600Y-72745600D02*
X77901800Y-72364600D01*
X79095600Y-72034400D02*
X78841600Y-72745600D01*
X78740000Y-71170800D02*
X79095600Y-72034400D01*
X78105000Y-71069200D02*
X78740000Y-71170800D01*
X77520800Y-73355200D02*
X78105000Y-71069200D01*
X75133200Y-73253600D02*
X76708000Y-73228200D01*
X75336400Y-72339200D02*
X76860400Y-72339200D01*
X75158600Y-71374000D02*
X76936600Y-71551800D01*
X73888600Y-73533000D02*
X74549000Y-71297800D01*
X73228200Y-71043800D02*
X73888600Y-73533000D01*
X72542400Y-73533000D02*
X73228200Y-71043800D01*
X69951600Y-73558400D02*
X71755000Y-73279000D01*
X69875400Y-72440800D02*
X71755000Y-72339200D01*
X69697600Y-71348600D02*
X71704200Y-71374000D01*
X68986400Y-72440800D02*
X69113400Y-73456800D01*
X67691000Y-72186800D02*
X68986400Y-72440800D01*
X69088000Y-72440800D02*
X67691000Y-72186800D01*
X68224400Y-73914000D02*
X69088000Y-72440800D01*
X66979800Y-74168000D02*
X68224400Y-73914000D01*
X65938400Y-72237600D02*
X66979800Y-74168000D01*
X65633600Y-70408800D02*
X65938400Y-72237600D01*
X66497200Y-69799200D02*
X65633600Y-70408800D01*
X68529200Y-70383400D02*
X66497200Y-69799200D01*
X61315600Y-69367400D02*
X60198000Y-68732400D01*
X61468000Y-70205600D02*
X61315600Y-69367400D01*
X60731400Y-71805800D02*
X61468000Y-70205600D01*
X60096400Y-68757800D02*
X60731400Y-71805800D01*
X57581800Y-71704200D02*
X59791600Y-71043800D01*
X57454800Y-70662800D02*
X59563000Y-70027800D01*
X57226200Y-69291200D02*
X59385200Y-68783200D01*
X55905400Y-70535800D02*
X55118000Y-70789800D01*
X56565800Y-69596000D02*
X55905400Y-70535800D01*
X56515000Y-68986400D02*
X56565800Y-69596000D01*
X56032400Y-68757800D02*
X56515000Y-68986400D01*
X55016400Y-68935600D02*
X56032400Y-68757800D01*
X55067200Y-72821800D02*
X55016400Y-68935600D01*
X54051200Y-70535800D02*
X52832000Y-70916800D01*
X54076600Y-69291200D02*
X54051200Y-70535800D01*
X53340000Y-69062600D02*
X54076600Y-69291200D01*
X52628800Y-69392800D02*
X53340000Y-69062600D01*
X53111400Y-72796400D02*
X52628800Y-69392800D01*
X50190400Y-72542400D02*
X52197000Y-71856600D01*
X50038000Y-71577200D02*
X52197000Y-70993000D01*
X49733200Y-70612000D02*
X51917600Y-70154800D01*
X47320200Y-70154800D02*
X47726600Y-73355200D01*
X49123600Y-69951600D02*
X47320200Y-70154800D01*
X45948600Y-70408800D02*
X49123600Y-69951600D01*
X42672000Y-73685400D02*
X42595800Y-72517000D01*
X45262800Y-73761600D02*
X42672000Y-73685400D01*
X44627800Y-72186800D02*
X45262800Y-73761600D01*
X43027600Y-71323200D02*
X44627800Y-72186800D01*
X43510200Y-70485000D02*
X43027600Y-71323200D01*
X44907200Y-70535800D02*
X43510200Y-70485000D01*
X50647600Y-65303400D02*
X50495200Y-65252600D01*
X51409600Y-66192400D02*
X50647600Y-65303400D01*
X51460400Y-66700400D02*
X51409600Y-66192400D01*
X50800000Y-67792600D02*
X51460400Y-66700400D01*
X50317400Y-65252600D02*
X50800000Y-67792600D01*
X49733200Y-67919600D02*
X49580800Y-65481200D01*
X48361600Y-65887600D02*
X49733200Y-67919600D01*
X48488600Y-68478400D02*
X48285400Y-65786000D01*
X48285400Y-65786000D02*
X48488600Y-68478400D01*
X47218600Y-67259200D02*
X46507400Y-67767200D01*
X47879000Y-68503800D02*
X47218600Y-67259200D01*
X46507400Y-66141600D02*
X47879000Y-68503800D01*
X46151800Y-68986400D02*
X46507400Y-66141600D01*
X46532800Y-66192400D02*
X46151800Y-68986400D01*
X43129200Y-65709800D02*
X43815000Y-67792600D01*
X43459400Y-66827400D02*
X43129200Y-65709800D01*
X42113200Y-66878200D02*
X43459400Y-66827400D01*
X42545000Y-68453000D02*
X42113200Y-66878200D01*
X41833800Y-65989200D02*
X42545000Y-68453000D01*
X40233600Y-66700400D02*
X41275000Y-68630800D01*
X41376600Y-66344800D02*
X40233600Y-66700400D01*
X39573200Y-66979800D02*
X41376600Y-66344800D01*
X39141400Y-68021200D02*
X37719000Y-67640200D01*
X38201600Y-70383400D02*
X39141400Y-68021200D01*
X37134800Y-69443600D02*
X38201600Y-70383400D01*
X37287200Y-68224400D02*
X37134800Y-69443600D01*
X37846000Y-67640200D02*
X37287200Y-68224400D01*
X35864800Y-68732400D02*
X35737800Y-68656200D01*
X36474400Y-69011800D02*
X35864800Y-68732400D01*
X36347400Y-71145400D02*
X36474400Y-69011800D01*
X35661600Y-71374000D02*
X36347400Y-71145400D01*
X34747200Y-70154800D02*
X35661600Y-71374000D01*
X34798000Y-68935600D02*
X34747200Y-70154800D01*
X35560000Y-68529200D02*
X34798000Y-68935600D01*
X33375600Y-68529200D02*
X33807400Y-72085200D01*
X32639000Y-70434200D02*
X33375600Y-68529200D01*
X31775400Y-68783200D02*
X32639000Y-70434200D01*
X31343600Y-72466200D02*
X31775400Y-68783200D01*
X30022800Y-73126600D02*
X27025600Y-72720200D01*
X30556200Y-72034400D02*
X30022800Y-73126600D01*
X30200600Y-71450200D02*
X30556200Y-72034400D01*
X28625800Y-70942200D02*
X30200600Y-71450200D01*
X28117800Y-69469000D02*
X28625800Y-70942200D01*
X29057600Y-68783200D02*
X28117800Y-69469000D01*
X30657800Y-68783200D02*
X29057600Y-68783200D01*
X39954200Y-64617600D02*
X40792400Y-64287400D01*
X39471600Y-63855600D02*
X40513000Y-63449200D01*
X38912800Y-63068200D02*
X40233600Y-62585600D01*
X39039800Y-64465200D02*
X39166800Y-65303400D01*
X38582600Y-64287400D02*
X39039800Y-64465200D01*
X38989000Y-64693800D02*
X38582600Y-64287400D01*
X38633400Y-65252600D02*
X38989000Y-64693800D01*
X38074600Y-65125600D02*
X38633400Y-65252600D01*
X37744400Y-63881000D02*
X38074600Y-65125600D01*
X38176200Y-63042800D02*
X37744400Y-63881000D01*
X36195000Y-64617600D02*
X36982400Y-65125600D01*
X36931600Y-64033400D02*
X36195000Y-64617600D01*
X36525200Y-63576200D02*
X36931600Y-64033400D01*
X35864800Y-63881000D02*
X36525200Y-63576200D01*
X35991800Y-65506600D02*
X35864800Y-63881000D01*
X35839400Y-63906400D02*
X35991800Y-65506600D01*
X34188400Y-65760600D02*
X35407600Y-65303400D01*
X33782000Y-64363600D02*
X35052000Y-63982600D01*
X33883600Y-64973200D02*
X35356800Y-64617600D01*
X32816800Y-66776600D02*
X31673800Y-67310000D01*
X33147000Y-65938400D02*
X32816800Y-66776600D01*
X32080200Y-65913000D02*
X33147000Y-65938400D01*
X31318200Y-65455800D02*
X32080200Y-65913000D01*
X31648400Y-64262000D02*
X31318200Y-65455800D01*
X32816800Y-63881000D02*
X31648400Y-64262000D01*
D11*
X112838604Y-56347961D02*
X112473821Y-56654050D01*
X111831034Y-55888005D01*
X113093953Y-56133698D02*
X112451165Y-55367654D01*
X113165647Y-55700566D01*
X112961861Y-54939129D01*
X113604649Y-55705173D01*
X113253688Y-54694257D02*
X113764384Y-54265732D01*
X114078867Y-55307257D01*
X114598778Y-54000728D02*
X115027303Y-54511425D01*
X114171515Y-53861946D02*
X114448257Y-54562166D01*
X114922475Y-54164250D01*
X115829826Y-53838028D02*
X115392086Y-54205335D01*
X115610956Y-54021682D02*
X114968168Y-53255637D01*
X114987038Y-53426290D01*
X114975300Y-53560464D01*
X114932952Y-53658161D01*
X84123820Y-62425108D02*
X84152281Y-62486142D01*
X84148168Y-62636671D01*
X84115595Y-62726165D01*
X84021988Y-62844121D01*
X83899920Y-62901042D01*
X83794138Y-62913216D01*
X83598863Y-62892816D01*
X83464621Y-62843956D01*
X83301919Y-62734062D01*
X83228711Y-62656742D01*
X83171790Y-62534674D01*
X83175902Y-62384145D01*
X83208476Y-62294651D01*
X83302083Y-62176696D01*
X83363117Y-62148235D01*
X84075125Y-62001984D02*
X84237991Y-61554511D01*
X84311035Y-62189198D02*
X83485349Y-61533947D01*
X84539048Y-61562736D01*
X83680789Y-60996980D02*
X83892516Y-60415265D01*
X84136487Y-60858790D01*
X84185347Y-60724548D01*
X84262668Y-60651340D01*
X84323702Y-60622879D01*
X84429483Y-60610706D01*
X84653219Y-60692139D01*
X84726427Y-60769460D01*
X84754888Y-60830493D01*
X84767062Y-60936275D01*
X84669342Y-61204758D01*
X84592021Y-61277966D01*
X84530987Y-61306427D01*
X84104243Y-59833551D02*
X84136816Y-59744056D01*
X84214137Y-59670849D01*
X84275171Y-59642388D01*
X84380952Y-59630214D01*
X84576228Y-59650613D01*
X84799964Y-59732047D01*
X84962666Y-59841941D01*
X85035874Y-59919261D01*
X85064335Y-59980295D01*
X85076509Y-60086077D01*
X85043935Y-60175571D01*
X84966615Y-60248779D01*
X84905581Y-60277240D01*
X84799800Y-60289413D01*
X84604524Y-60269014D01*
X84380787Y-60187581D01*
X84218085Y-60077687D01*
X84144877Y-60000366D01*
X84116417Y-59939332D01*
X84104243Y-59833551D01*
X84816415Y-59129933D02*
X84739094Y-59203141D01*
X84678060Y-59231601D01*
X84572279Y-59243775D01*
X84527532Y-59227489D01*
X84454324Y-59150168D01*
X84425863Y-59089134D01*
X84413689Y-58983353D01*
X84478836Y-58804364D01*
X84556157Y-58731156D01*
X84617191Y-58702695D01*
X84722972Y-58690521D01*
X84767719Y-58706808D01*
X84840927Y-58784129D01*
X84869388Y-58845163D01*
X84881562Y-58950944D01*
X84816415Y-59129933D01*
X84828589Y-59235714D01*
X84857049Y-59296748D01*
X84930257Y-59374069D01*
X85109246Y-59439215D01*
X85215028Y-59427041D01*
X85276061Y-59398581D01*
X85353382Y-59325373D01*
X85418529Y-59146384D01*
X85406355Y-59040603D01*
X85377894Y-58979569D01*
X85304686Y-58902248D01*
X85125697Y-58837102D01*
X85019916Y-58849275D01*
X84958882Y-58877736D01*
X84881562Y-58950944D01*
X84755710Y-58043660D02*
X84788283Y-57954166D01*
X84865604Y-57880958D01*
X84926637Y-57852497D01*
X85032419Y-57840323D01*
X85227694Y-57860723D01*
X85451431Y-57942156D01*
X85614133Y-58052050D01*
X85687341Y-58129371D01*
X85715802Y-58190405D01*
X85727976Y-58296186D01*
X85695402Y-58385680D01*
X85618082Y-58458888D01*
X85557048Y-58487349D01*
X85451266Y-58499523D01*
X85255991Y-58479123D01*
X85032254Y-58397690D01*
X84869552Y-58287796D01*
X84796344Y-58210475D01*
X84767884Y-58149441D01*
X84755710Y-58043660D01*
X24916118Y-59686401D02*
X25353857Y-60053709D01*
X24492200Y-60636099D02*
X25134987Y-59870055D01*
X25331201Y-61340105D02*
X24966418Y-61034016D01*
X25609205Y-60267971D01*
X26375250Y-60910759D02*
X26448206Y-60971977D01*
X26490554Y-61069673D01*
X26496424Y-61136760D01*
X26471684Y-61240326D01*
X26385727Y-61416848D01*
X26232682Y-61599239D01*
X26073768Y-61714544D01*
X25976072Y-61756891D01*
X25908984Y-61762761D01*
X25805419Y-61738021D01*
X25732462Y-61676803D01*
X25690115Y-61579107D01*
X25684245Y-61512020D01*
X25708985Y-61408454D01*
X25794942Y-61231932D01*
X25947987Y-61049541D01*
X26106901Y-60934236D01*
X26204597Y-60891889D01*
X26271684Y-60886019D01*
X26375250Y-60910759D01*
X26885946Y-61339284D02*
X27396642Y-61767809D01*
X26425550Y-62258373D01*
X27590773Y-62055028D02*
X27657860Y-62049159D01*
X27761426Y-62073898D01*
X27943817Y-62226943D01*
X27986165Y-62324639D01*
X27992034Y-62391726D01*
X27967295Y-62495292D01*
X27906077Y-62568248D01*
X27777772Y-62647074D01*
X26972725Y-62717507D01*
X27446943Y-63115423D01*
X35382238Y-29412866D02*
X35376369Y-29479954D01*
X35297543Y-29608259D01*
X35224586Y-29669477D01*
X35084543Y-29724825D01*
X34950368Y-29713086D01*
X34852672Y-29670739D01*
X34693758Y-29555434D01*
X34601931Y-29446000D01*
X34515974Y-29269477D01*
X34491234Y-29165912D01*
X34502973Y-29031737D01*
X34581799Y-28903432D01*
X34654755Y-28842214D01*
X34794799Y-28786866D01*
X34861887Y-28792735D01*
X35551629Y-29022082D02*
X35916412Y-28715992D01*
X35662326Y-29302169D02*
X35274887Y-28321863D01*
X36173022Y-28873644D01*
X35712626Y-27954555D02*
X36186844Y-27556639D01*
X36176368Y-28062728D01*
X36285803Y-27970901D01*
X36389368Y-27946162D01*
X36456455Y-27952031D01*
X36554152Y-27994379D01*
X36707196Y-28176770D01*
X36731936Y-28280336D01*
X36726066Y-28347423D01*
X36683719Y-28445119D01*
X36464849Y-28628773D01*
X36361283Y-28653513D01*
X36294196Y-28647643D01*
X36661062Y-27158723D02*
X36734019Y-27097505D01*
X36837585Y-27072766D01*
X36904672Y-27078635D01*
X37002368Y-27120983D01*
X37161282Y-27236287D01*
X37314327Y-27418678D01*
X37400284Y-27595201D01*
X37425024Y-27698766D01*
X37419154Y-27765853D01*
X37376807Y-27863550D01*
X37303850Y-27924767D01*
X37200284Y-27949507D01*
X37133197Y-27943638D01*
X37035501Y-27901290D01*
X36876587Y-27785986D01*
X36723542Y-27603594D01*
X36637585Y-27427072D01*
X36612845Y-27323506D01*
X36618715Y-27256419D01*
X36661062Y-27158723D01*
X37629631Y-26905458D02*
X37526065Y-26930198D01*
X37458978Y-26924328D01*
X37361282Y-26881981D01*
X37330673Y-26845502D01*
X37305933Y-26741937D01*
X37311803Y-26674849D01*
X37354150Y-26577153D01*
X37500063Y-26454718D01*
X37603629Y-26429978D01*
X37670716Y-26435847D01*
X37768412Y-26478195D01*
X37799021Y-26514673D01*
X37823761Y-26618239D01*
X37817892Y-26685326D01*
X37775544Y-26783022D01*
X37629631Y-26905458D01*
X37587283Y-27003154D01*
X37581414Y-27070241D01*
X37606153Y-27173807D01*
X37728589Y-27319720D01*
X37826285Y-27362068D01*
X37893372Y-27367937D01*
X37996938Y-27343198D01*
X38142851Y-27220762D01*
X38185199Y-27123066D01*
X38191068Y-27055979D01*
X38166329Y-26952413D01*
X38043893Y-26806500D01*
X37946197Y-26764152D01*
X37879109Y-26758283D01*
X37775544Y-26783022D01*
X38120195Y-25934366D02*
X38193151Y-25873148D01*
X38296717Y-25848408D01*
X38363804Y-25854278D01*
X38461500Y-25896625D01*
X38620414Y-26011930D01*
X38773459Y-26194321D01*
X38859416Y-26370843D01*
X38884156Y-26474409D01*
X38878287Y-26541496D01*
X38835939Y-26639192D01*
X38762982Y-26700410D01*
X38659417Y-26725150D01*
X38592329Y-26719280D01*
X38494633Y-26676933D01*
X38335719Y-26561628D01*
X38182675Y-26379237D01*
X38096717Y-26202715D01*
X38071978Y-26099149D01*
X38077847Y-26032062D01*
X38120195Y-25934366D01*
X45758860Y-47666024D02*
X46253732Y-47951738D01*
X45506296Y-48674906D02*
X46006296Y-47808881D01*
X46454800Y-49222525D02*
X46042407Y-48984430D01*
X46542407Y-48118405D01*
X47408432Y-48618405D02*
X47490911Y-48666024D01*
X47549580Y-48754882D01*
X47567010Y-48819931D01*
X47560630Y-48926219D01*
X47506631Y-49114986D01*
X47387583Y-49321182D01*
X47251106Y-49462330D01*
X47162248Y-49520999D01*
X47097199Y-49538429D01*
X46990911Y-49532049D01*
X46908432Y-49484430D01*
X46849763Y-49395572D01*
X46832333Y-49330523D01*
X46838713Y-49224235D01*
X46892712Y-49035468D01*
X47011759Y-48829271D01*
X47148237Y-48688124D01*
X47237095Y-48629455D01*
X47302144Y-48612025D01*
X47408432Y-48618405D01*
X47985782Y-48951738D02*
X48563133Y-49285071D01*
X47691979Y-49936811D01*
X48804189Y-49534217D02*
X48869238Y-49516787D01*
X48975526Y-49523167D01*
X49181722Y-49642214D01*
X49240391Y-49731073D01*
X49257821Y-49796121D01*
X49251441Y-49902409D01*
X49203822Y-49984888D01*
X49091154Y-50084796D01*
X48310569Y-50293954D01*
X48846679Y-50603478D01*
X62351240Y-48228978D02*
X62113144Y-48641371D01*
X61247119Y-48141371D01*
X62517906Y-47940303D02*
X61651881Y-47440303D01*
X62437137Y-47508771D01*
X61985214Y-46862953D01*
X62851240Y-47362953D01*
X62175690Y-46533039D02*
X62485214Y-45996928D01*
X62648462Y-46476079D01*
X62719891Y-46352361D01*
X62808749Y-46293692D01*
X62873798Y-46276262D01*
X62980086Y-46282642D01*
X63186282Y-46401689D01*
X63244951Y-46490548D01*
X63262381Y-46555597D01*
X63256001Y-46661885D01*
X63113144Y-46909321D01*
X63024286Y-46967990D01*
X62959237Y-46985419D01*
X63589335Y-46084534D02*
X63684573Y-45919577D01*
X63690953Y-45813289D01*
X63673523Y-45748240D01*
X63597424Y-45594333D01*
X63456276Y-45457856D01*
X63126362Y-45267380D01*
X63020074Y-45261000D01*
X62955025Y-45278430D01*
X62866167Y-45337099D01*
X62770928Y-45502056D01*
X62764549Y-45608344D01*
X62781978Y-45673393D01*
X62840648Y-45762251D01*
X63046844Y-45881299D01*
X63153132Y-45887679D01*
X63218181Y-45870249D01*
X63307039Y-45811580D01*
X63402278Y-45646622D01*
X63408657Y-45540334D01*
X63391227Y-45475286D01*
X63332558Y-45386427D01*
X63270928Y-44636030D02*
X63318547Y-44553552D01*
X63407406Y-44494883D01*
X63472455Y-44477453D01*
X63578743Y-44483833D01*
X63767510Y-44537832D01*
X63973706Y-44656879D01*
X64114854Y-44793357D01*
X64173523Y-44882215D01*
X64190953Y-44947264D01*
X64184573Y-45053552D01*
X64136954Y-45136030D01*
X64048095Y-45194700D01*
X63983047Y-45212129D01*
X63876759Y-45205750D01*
X63687992Y-45151751D01*
X63481795Y-45032703D01*
X63340648Y-44896226D01*
X63281978Y-44807367D01*
X63264549Y-44742319D01*
X63270928Y-44636030D01*
X63747119Y-43811244D02*
X63794738Y-43728766D01*
X63883596Y-43670097D01*
X63948645Y-43652667D01*
X64054933Y-43659047D01*
X64243700Y-43713045D01*
X64449897Y-43832093D01*
X64591044Y-43968570D01*
X64649713Y-44057429D01*
X64667143Y-44122478D01*
X64660763Y-44228766D01*
X64613144Y-44311244D01*
X64524286Y-44369913D01*
X64459237Y-44387343D01*
X64352949Y-44380964D01*
X64164182Y-44326965D01*
X63957986Y-44207917D01*
X63816838Y-44071440D01*
X63758169Y-43982581D01*
X63740739Y-43917533D01*
X63747119Y-43811244D01*
X93728204Y-38235945D02*
X93259248Y-38318635D01*
X93085600Y-37333827D01*
X94056474Y-38178063D02*
X93882826Y-37193255D01*
X94335129Y-37838806D01*
X94539364Y-37077490D01*
X94713012Y-38062297D01*
X94914529Y-37011338D02*
X95524172Y-36903841D01*
X95262054Y-37336889D01*
X95402741Y-37312082D01*
X95504801Y-37342440D01*
X95559966Y-37381066D01*
X95623399Y-37466589D01*
X95664744Y-37701067D01*
X95634386Y-37803127D01*
X95595760Y-37858291D01*
X95510238Y-37921725D01*
X95228864Y-37971339D01*
X95126804Y-37940981D01*
X95071639Y-37902354D01*
X96166776Y-37805960D02*
X96354359Y-37772884D01*
X96439881Y-37709450D01*
X96478507Y-37654286D01*
X96547492Y-37497061D01*
X96561312Y-37301209D01*
X96495160Y-36926045D01*
X96431726Y-36840522D01*
X96376562Y-36801896D01*
X96274502Y-36771538D01*
X96086919Y-36804614D01*
X96001397Y-36868047D01*
X95962770Y-36923212D01*
X95932413Y-37025272D01*
X95973757Y-37259750D01*
X96037191Y-37345272D01*
X96092355Y-37383899D01*
X96194416Y-37414257D01*
X96381998Y-37381181D01*
X96467520Y-37317747D01*
X96506147Y-37262583D01*
X96536505Y-37160523D01*
X97071727Y-36630966D02*
X97165518Y-36614428D01*
X97267578Y-36644785D01*
X97322743Y-36683412D01*
X97386176Y-36768934D01*
X97466148Y-36948248D01*
X97507493Y-37182726D01*
X97493673Y-37378577D01*
X97463315Y-37480637D01*
X97424689Y-37535802D01*
X97339166Y-37599236D01*
X97245375Y-37615773D01*
X97143315Y-37585416D01*
X97088150Y-37546789D01*
X97024717Y-37461267D01*
X96944745Y-37281953D01*
X96903401Y-37047475D01*
X96917220Y-36851624D01*
X96947578Y-36749564D01*
X96986205Y-36694399D01*
X97071727Y-36630966D01*
X98009639Y-36465586D02*
X98103430Y-36449049D01*
X98205490Y-36479406D01*
X98260655Y-36518033D01*
X98324088Y-36603555D01*
X98404060Y-36782869D01*
X98445405Y-37017347D01*
X98431585Y-37213198D01*
X98401227Y-37315258D01*
X98362601Y-37370423D01*
X98277078Y-37433856D01*
X98183287Y-37450394D01*
X98081227Y-37420037D01*
X98026062Y-37381410D01*
X97962629Y-37295888D01*
X97882657Y-37116574D01*
X97841313Y-36882096D01*
X97855132Y-36686245D01*
X97885490Y-36584185D01*
X97924117Y-36529020D01*
X98009639Y-36465586D01*
X48582107Y-20348100D02*
X48761096Y-20282953D01*
X48866877Y-20295127D01*
X48988945Y-20352048D01*
X49098839Y-20514750D01*
X49212845Y-20827981D01*
X49233245Y-21023257D01*
X49176324Y-21145325D01*
X49103116Y-21222645D01*
X48924127Y-21287792D01*
X48818346Y-21275618D01*
X48696278Y-21218697D01*
X48586384Y-21055995D01*
X48472377Y-20742764D01*
X48451978Y-20547488D01*
X48508899Y-20425420D01*
X48582107Y-20348100D01*
X49387557Y-20054939D02*
X49664431Y-20815643D01*
X49741751Y-20888851D01*
X49802785Y-20917311D01*
X49908567Y-20929485D01*
X50087556Y-20864339D01*
X50160764Y-20787018D01*
X50189224Y-20725984D01*
X50201398Y-20620203D01*
X49924525Y-19859499D01*
X50237755Y-19745493D02*
X50774723Y-19550053D01*
X50848259Y-20587465D02*
X50506239Y-19647773D01*
X51238811Y-20546666D02*
X51954767Y-20286080D01*
X52003463Y-19862955D02*
X52450935Y-19700088D01*
X52011688Y-20164012D02*
X51982899Y-19110312D01*
X52638150Y-19935998D01*
X50824142Y-13688961D02*
X50967000Y-13736580D01*
X51205095Y-13736580D01*
X51300333Y-13688961D01*
X51347952Y-13641342D01*
X51395571Y-13546104D01*
X51395571Y-13450866D01*
X51347952Y-13355628D01*
X51300333Y-13308009D01*
X51205095Y-13260390D01*
X51014619Y-13212771D01*
X50919380Y-13165152D01*
X50871761Y-13117533D01*
X50824142Y-13022295D01*
X50824142Y-12927057D01*
X50871761Y-12831819D01*
X50919380Y-12784200D01*
X51014619Y-12736580D01*
X51252714Y-12736580D01*
X51395571Y-12784200D01*
X51776523Y-13450866D02*
X52252714Y-13450866D01*
X51681285Y-13736580D02*
X52014619Y-12736580D01*
X52347952Y-13736580D01*
X52681285Y-13736580D02*
X52681285Y-12736580D01*
X53014619Y-13450866D01*
X53347952Y-12736580D01*
X53347952Y-13736580D01*
X53824142Y-13736580D02*
X53824142Y-12736580D01*
X54205095Y-12736580D01*
X54300333Y-12784200D01*
X54347952Y-12831819D01*
X54395571Y-12927057D01*
X54395571Y-13069914D01*
X54347952Y-13165152D01*
X54300333Y-13212771D01*
X54205095Y-13260390D01*
X53824142Y-13260390D01*
X55300333Y-13736580D02*
X54824142Y-13736580D01*
X54824142Y-12736580D01*
X55633666Y-13212771D02*
X55967000Y-13212771D01*
X56109857Y-13736580D02*
X55633666Y-13736580D01*
X55633666Y-12736580D01*
X56109857Y-12736580D01*
X94315257Y-17476742D02*
X94267638Y-17524361D01*
X94124780Y-17571980D01*
X94029542Y-17571980D01*
X93886685Y-17524361D01*
X93791447Y-17429123D01*
X93743828Y-17333885D01*
X93696209Y-17143409D01*
X93696209Y-17000552D01*
X93743828Y-16810076D01*
X93791447Y-16714838D01*
X93886685Y-16619600D01*
X94029542Y-16571980D01*
X94124780Y-16571980D01*
X94267638Y-16619600D01*
X94315257Y-16667219D01*
X94934304Y-17095790D02*
X94934304Y-17571980D01*
X94600971Y-16571980D02*
X94934304Y-17095790D01*
X95267638Y-16571980D01*
X96172400Y-17476742D02*
X96124780Y-17524361D01*
X95981923Y-17571980D01*
X95886685Y-17571980D01*
X95743828Y-17524361D01*
X95648590Y-17429123D01*
X95600971Y-17333885D01*
X95553352Y-17143409D01*
X95553352Y-17000552D01*
X95600971Y-16810076D01*
X95648590Y-16714838D01*
X95743828Y-16619600D01*
X95886685Y-16571980D01*
X95981923Y-16571980D01*
X96124780Y-16619600D01*
X96172400Y-16667219D01*
X97077161Y-17571980D02*
X96600971Y-17571980D01*
X96600971Y-16571980D01*
X97410495Y-17048171D02*
X97743828Y-17048171D01*
X97886685Y-17571980D02*
X97410495Y-17571980D01*
X97410495Y-16571980D01*
X97886685Y-16571980D01*
X98077161Y-17667219D02*
X98839066Y-17667219D01*
X99410495Y-17048171D02*
X99553352Y-17095790D01*
X99600971Y-17143409D01*
X99648590Y-17238647D01*
X99648590Y-17381504D01*
X99600971Y-17476742D01*
X99553352Y-17524361D01*
X99458114Y-17571980D01*
X99077161Y-17571980D01*
X99077161Y-16571980D01*
X99410495Y-16571980D01*
X99505733Y-16619600D01*
X99553352Y-16667219D01*
X99600971Y-16762457D01*
X99600971Y-16857695D01*
X99553352Y-16952933D01*
X99505733Y-17000552D01*
X99410495Y-17048171D01*
X99077161Y-17048171D01*
X65217895Y-13558828D02*
X65979800Y-13558828D01*
X65598847Y-13939780D02*
X65598847Y-13177876D01*
X66979800Y-13939780D02*
X66408371Y-13939780D01*
X66694085Y-13939780D02*
X66694085Y-12939780D01*
X66598847Y-13082638D01*
X66503609Y-13177876D01*
X66408371Y-13225495D01*
X67360752Y-13035019D02*
X67408371Y-12987400D01*
X67503609Y-12939780D01*
X67741704Y-12939780D01*
X67836942Y-12987400D01*
X67884561Y-13035019D01*
X67932180Y-13130257D01*
X67932180Y-13225495D01*
X67884561Y-13368352D01*
X67313133Y-13939780D01*
X67932180Y-13939780D01*
X68217895Y-12939780D02*
X68551228Y-13939780D01*
X68884561Y-12939780D01*
X91862495Y-15108228D02*
X92624400Y-15108228D01*
X93624400Y-15489180D02*
X93052971Y-15489180D01*
X93338685Y-15489180D02*
X93338685Y-14489180D01*
X93243447Y-14632038D01*
X93148209Y-14727276D01*
X93052971Y-14774895D01*
X94005352Y-14584419D02*
X94052971Y-14536800D01*
X94148209Y-14489180D01*
X94386304Y-14489180D01*
X94481542Y-14536800D01*
X94529161Y-14584419D01*
X94576780Y-14679657D01*
X94576780Y-14774895D01*
X94529161Y-14917752D01*
X93957733Y-15489180D01*
X94576780Y-15489180D01*
X94862495Y-14489180D02*
X95195828Y-15489180D01*
X95529161Y-14489180D01*
X81965895Y-23909400D02*
X81870657Y-23861780D01*
X81727800Y-23861780D01*
X81584942Y-23909400D01*
X81489704Y-24004638D01*
X81442085Y-24099876D01*
X81394466Y-24290352D01*
X81394466Y-24433209D01*
X81442085Y-24623685D01*
X81489704Y-24718923D01*
X81584942Y-24814161D01*
X81727800Y-24861780D01*
X81823038Y-24861780D01*
X81965895Y-24814161D01*
X82013514Y-24766542D01*
X82013514Y-24433209D01*
X81823038Y-24433209D01*
X82442085Y-24861780D02*
X82442085Y-23861780D01*
X83013514Y-24861780D01*
X83013514Y-23861780D01*
X83489704Y-24861780D02*
X83489704Y-23861780D01*
X83727800Y-23861780D01*
X83870657Y-23909400D01*
X83965895Y-24004638D01*
X84013514Y-24099876D01*
X84061133Y-24290352D01*
X84061133Y-24433209D01*
X84013514Y-24623685D01*
X83965895Y-24718923D01*
X83870657Y-24814161D01*
X83727800Y-24861780D01*
X83489704Y-24861780D01*
X74842904Y-32786580D02*
X74509571Y-32310390D01*
X74271476Y-32786580D02*
X74271476Y-31786580D01*
X74652428Y-31786580D01*
X74747666Y-31834200D01*
X74795285Y-31881819D01*
X74842904Y-31977057D01*
X74842904Y-32119914D01*
X74795285Y-32215152D01*
X74747666Y-32262771D01*
X74652428Y-32310390D01*
X74271476Y-32310390D01*
X75700047Y-32786580D02*
X75700047Y-32262771D01*
X75652428Y-32167533D01*
X75557190Y-32119914D01*
X75366714Y-32119914D01*
X75271476Y-32167533D01*
X75700047Y-32738961D02*
X75604809Y-32786580D01*
X75366714Y-32786580D01*
X75271476Y-32738961D01*
X75223857Y-32643723D01*
X75223857Y-32548485D01*
X75271476Y-32453247D01*
X75366714Y-32405628D01*
X75604809Y-32405628D01*
X75700047Y-32358009D01*
X76033380Y-32119914D02*
X76414333Y-32119914D01*
X76176238Y-31786580D02*
X76176238Y-32643723D01*
X76223857Y-32738961D01*
X76319095Y-32786580D01*
X76414333Y-32786580D01*
X77128619Y-32738961D02*
X77033380Y-32786580D01*
X76842904Y-32786580D01*
X76747666Y-32738961D01*
X76700047Y-32643723D01*
X76700047Y-32262771D01*
X76747666Y-32167533D01*
X76842904Y-32119914D01*
X77033380Y-32119914D01*
X77128619Y-32167533D01*
X77176238Y-32262771D01*
X77176238Y-32358009D01*
X76700047Y-32453247D01*
X77366714Y-32881819D02*
X78128619Y-32881819D01*
X78700047Y-32262771D02*
X78842904Y-32310390D01*
X78890523Y-32358009D01*
X78938142Y-32453247D01*
X78938142Y-32596104D01*
X78890523Y-32691342D01*
X78842904Y-32738961D01*
X78747666Y-32786580D01*
X78366714Y-32786580D01*
X78366714Y-31786580D01*
X78700047Y-31786580D01*
X78795285Y-31834200D01*
X78842904Y-31881819D01*
X78890523Y-31977057D01*
X78890523Y-32072295D01*
X78842904Y-32167533D01*
X78795285Y-32215152D01*
X78700047Y-32262771D01*
X78366714Y-32262771D01*
X53224228Y-40736780D02*
X52748038Y-40736780D01*
X52748038Y-39736780D01*
X53509942Y-40451066D02*
X53986133Y-40451066D01*
X53414704Y-40736780D02*
X53748038Y-39736780D01*
X54081371Y-40736780D01*
X54176609Y-40832019D02*
X54938514Y-40832019D01*
X55128990Y-40451066D02*
X55605180Y-40451066D01*
X55033752Y-40736780D02*
X55367085Y-39736780D01*
X55700419Y-40736780D01*
X100037923Y-67997342D02*
X99990304Y-68044961D01*
X99847447Y-68092580D01*
X99752209Y-68092580D01*
X99609352Y-68044961D01*
X99514114Y-67949723D01*
X99466495Y-67854485D01*
X99418876Y-67664009D01*
X99418876Y-67521152D01*
X99466495Y-67330676D01*
X99514114Y-67235438D01*
X99609352Y-67140200D01*
X99752209Y-67092580D01*
X99847447Y-67092580D01*
X99990304Y-67140200D01*
X100037923Y-67187819D01*
X100466495Y-68092580D02*
X100466495Y-67092580D01*
X101037923Y-68092580D02*
X100609352Y-67521152D01*
X101037923Y-67092580D02*
X100466495Y-67664009D01*
X105925952Y-61317142D02*
X105878333Y-61364761D01*
X105735476Y-61412380D01*
X105640238Y-61412380D01*
X105497380Y-61364761D01*
X105402142Y-61269523D01*
X105354523Y-61174285D01*
X105306904Y-60983809D01*
X105306904Y-60840952D01*
X105354523Y-60650476D01*
X105402142Y-60555238D01*
X105497380Y-60460000D01*
X105640238Y-60412380D01*
X105735476Y-60412380D01*
X105878333Y-60460000D01*
X105925952Y-60507619D01*
X106306904Y-61126666D02*
X106783095Y-61126666D01*
X106211666Y-61412380D02*
X106545000Y-60412380D01*
X106878333Y-61412380D01*
X104491066Y-71724780D02*
X104157733Y-71248590D01*
X103919638Y-71724780D02*
X103919638Y-70724780D01*
X104300590Y-70724780D01*
X104395828Y-70772400D01*
X104443447Y-70820019D01*
X104491066Y-70915257D01*
X104491066Y-71058114D01*
X104443447Y-71153352D01*
X104395828Y-71200971D01*
X104300590Y-71248590D01*
X103919638Y-71248590D01*
X104919638Y-71724780D02*
X104919638Y-70724780D01*
X105157733Y-70724780D01*
X105300590Y-70772400D01*
X105395828Y-70867638D01*
X105443447Y-70962876D01*
X105491066Y-71153352D01*
X105491066Y-71296209D01*
X105443447Y-71486685D01*
X105395828Y-71581923D01*
X105300590Y-71677161D01*
X105157733Y-71724780D01*
X104919638Y-71724780D01*
X105681542Y-71820019D02*
X106443447Y-71820019D01*
X106872019Y-70724780D02*
X107062495Y-70724780D01*
X107157733Y-70772400D01*
X107252971Y-70867638D01*
X107300590Y-71058114D01*
X107300590Y-71391447D01*
X107252971Y-71581923D01*
X107157733Y-71677161D01*
X107062495Y-71724780D01*
X106872019Y-71724780D01*
X106776780Y-71677161D01*
X106681542Y-71581923D01*
X106633923Y-71391447D01*
X106633923Y-71058114D01*
X106681542Y-70867638D01*
X106776780Y-70772400D01*
X106872019Y-70724780D01*
X108157733Y-71058114D02*
X108157733Y-71724780D01*
X107729161Y-71058114D02*
X107729161Y-71581923D01*
X107776780Y-71677161D01*
X107872019Y-71724780D01*
X108014876Y-71724780D01*
X108110114Y-71677161D01*
X108157733Y-71629542D01*
X108491066Y-71058114D02*
X108872019Y-71058114D01*
X108633923Y-70724780D02*
X108633923Y-71581923D01*
X108681542Y-71677161D01*
X108776780Y-71724780D01*
X108872019Y-71724780D01*
X111083980Y-42597342D02*
X111036361Y-42644961D01*
X110893504Y-42692580D01*
X110798266Y-42692580D01*
X110655409Y-42644961D01*
X110560171Y-42549723D01*
X110512552Y-42454485D01*
X110464933Y-42264009D01*
X110464933Y-42121152D01*
X110512552Y-41930676D01*
X110560171Y-41835438D01*
X110655409Y-41740200D01*
X110798266Y-41692580D01*
X110893504Y-41692580D01*
X111036361Y-41740200D01*
X111083980Y-41787819D01*
X111655409Y-42692580D02*
X111560171Y-42644961D01*
X111512552Y-42597342D01*
X111464933Y-42502104D01*
X111464933Y-42216390D01*
X111512552Y-42121152D01*
X111560171Y-42073533D01*
X111655409Y-42025914D01*
X111798266Y-42025914D01*
X111893504Y-42073533D01*
X111941123Y-42121152D01*
X111988742Y-42216390D01*
X111988742Y-42502104D01*
X111941123Y-42597342D01*
X111893504Y-42644961D01*
X111798266Y-42692580D01*
X111655409Y-42692580D01*
X112845885Y-42025914D02*
X112845885Y-42692580D01*
X112417314Y-42025914D02*
X112417314Y-42549723D01*
X112464933Y-42644961D01*
X112560171Y-42692580D01*
X112703028Y-42692580D01*
X112798266Y-42644961D01*
X112845885Y-42597342D01*
X113322076Y-42025914D02*
X113322076Y-43025914D01*
X113322076Y-42073533D02*
X113417314Y-42025914D01*
X113607790Y-42025914D01*
X113703028Y-42073533D01*
X113750647Y-42121152D01*
X113798266Y-42216390D01*
X113798266Y-42502104D01*
X113750647Y-42597342D01*
X113703028Y-42644961D01*
X113607790Y-42692580D01*
X113417314Y-42692580D01*
X113322076Y-42644961D01*
X114369695Y-42692580D02*
X114274457Y-42644961D01*
X114226838Y-42549723D01*
X114226838Y-41692580D01*
X115131600Y-42644961D02*
X115036361Y-42692580D01*
X114845885Y-42692580D01*
X114750647Y-42644961D01*
X114703028Y-42549723D01*
X114703028Y-42168771D01*
X114750647Y-42073533D01*
X114845885Y-42025914D01*
X115036361Y-42025914D01*
X115131600Y-42073533D01*
X115179219Y-42168771D01*
X115179219Y-42264009D01*
X114703028Y-42359247D01*
X115607790Y-42692580D02*
X115607790Y-42025914D01*
X115607790Y-42216390D02*
X115655409Y-42121152D01*
X115703028Y-42073533D01*
X115798266Y-42025914D01*
X115893504Y-42025914D01*
X104483114Y-43902380D02*
X104816447Y-44902380D01*
X105149780Y-43902380D01*
X106054542Y-44807142D02*
X106006923Y-44854761D01*
X105864066Y-44902380D01*
X105768828Y-44902380D01*
X105625971Y-44854761D01*
X105530733Y-44759523D01*
X105483114Y-44664285D01*
X105435495Y-44473809D01*
X105435495Y-44330952D01*
X105483114Y-44140476D01*
X105530733Y-44045238D01*
X105625971Y-43950000D01*
X105768828Y-43902380D01*
X105864066Y-43902380D01*
X106006923Y-43950000D01*
X106054542Y-43997619D01*
X106245019Y-44997619D02*
X107006923Y-44997619D01*
X107578352Y-44378571D02*
X107721209Y-44426190D01*
X107768828Y-44473809D01*
X107816447Y-44569047D01*
X107816447Y-44711904D01*
X107768828Y-44807142D01*
X107721209Y-44854761D01*
X107625971Y-44902380D01*
X107245019Y-44902380D01*
X107245019Y-43902380D01*
X107578352Y-43902380D01*
X107673590Y-43950000D01*
X107721209Y-43997619D01*
X107768828Y-44092857D01*
X107768828Y-44188095D01*
X107721209Y-44283333D01*
X107673590Y-44330952D01*
X107578352Y-44378571D01*
X107245019Y-44378571D01*
X94639047Y-45350180D02*
X94829523Y-45350180D01*
X94924761Y-45397800D01*
X95020000Y-45493038D01*
X95067619Y-45683514D01*
X95067619Y-46016847D01*
X95020000Y-46207323D01*
X94924761Y-46302561D01*
X94829523Y-46350180D01*
X94639047Y-46350180D01*
X94543809Y-46302561D01*
X94448571Y-46207323D01*
X94400952Y-46016847D01*
X94400952Y-45683514D01*
X94448571Y-45493038D01*
X94543809Y-45397800D01*
X94639047Y-45350180D01*
X95496190Y-45350180D02*
X95496190Y-46159704D01*
X95543809Y-46254942D01*
X95591428Y-46302561D01*
X95686666Y-46350180D01*
X95877142Y-46350180D01*
X95972380Y-46302561D01*
X96020000Y-46254942D01*
X96067619Y-46159704D01*
X96067619Y-45350180D01*
X96400952Y-45350180D02*
X96972380Y-45350180D01*
X96686666Y-46350180D02*
X96686666Y-45350180D01*
X97067619Y-46445419D02*
X97829523Y-46445419D01*
X98400952Y-45826371D02*
X98543809Y-45873990D01*
X98591428Y-45921609D01*
X98639047Y-46016847D01*
X98639047Y-46159704D01*
X98591428Y-46254942D01*
X98543809Y-46302561D01*
X98448571Y-46350180D01*
X98067619Y-46350180D01*
X98067619Y-45350180D01*
X98400952Y-45350180D01*
X98496190Y-45397800D01*
X98543809Y-45445419D01*
X98591428Y-45540657D01*
X98591428Y-45635895D01*
X98543809Y-45731133D01*
X98496190Y-45778752D01*
X98400952Y-45826371D01*
X98067619Y-45826371D01*
X73457085Y-50979342D02*
X73409466Y-51026961D01*
X73266609Y-51074580D01*
X73171371Y-51074580D01*
X73028514Y-51026961D01*
X72933276Y-50931723D01*
X72885657Y-50836485D01*
X72838038Y-50646009D01*
X72838038Y-50503152D01*
X72885657Y-50312676D01*
X72933276Y-50217438D01*
X73028514Y-50122200D01*
X73171371Y-50074580D01*
X73266609Y-50074580D01*
X73409466Y-50122200D01*
X73457085Y-50169819D01*
X74076133Y-50598390D02*
X74076133Y-51074580D01*
X73742800Y-50074580D02*
X74076133Y-50598390D01*
X74409466Y-50074580D01*
X75314228Y-50979342D02*
X75266609Y-51026961D01*
X75123752Y-51074580D01*
X75028514Y-51074580D01*
X74885657Y-51026961D01*
X74790419Y-50931723D01*
X74742800Y-50836485D01*
X74695180Y-50646009D01*
X74695180Y-50503152D01*
X74742800Y-50312676D01*
X74790419Y-50217438D01*
X74885657Y-50122200D01*
X75028514Y-50074580D01*
X75123752Y-50074580D01*
X75266609Y-50122200D01*
X75314228Y-50169819D01*
X76218990Y-51074580D02*
X75742800Y-51074580D01*
X75742800Y-50074580D01*
X76552323Y-50550771D02*
X76885657Y-50550771D01*
X77028514Y-51074580D02*
X76552323Y-51074580D01*
X76552323Y-50074580D01*
X77028514Y-50074580D01*
X77218990Y-51169819D02*
X77980895Y-51169819D01*
X78171371Y-50788866D02*
X78647561Y-50788866D01*
X78076133Y-51074580D02*
X78409466Y-50074580D01*
X78742800Y-51074580D01*
X72839438Y-69286380D02*
X72839438Y-68286380D01*
X73315628Y-69286380D02*
X73315628Y-68286380D01*
X73887057Y-69286380D01*
X73887057Y-68286380D01*
X74125152Y-69381619D02*
X74887057Y-69381619D01*
X75458485Y-68762571D02*
X75601342Y-68810190D01*
X75648961Y-68857809D01*
X75696580Y-68953047D01*
X75696580Y-69095904D01*
X75648961Y-69191142D01*
X75601342Y-69238761D01*
X75506104Y-69286380D01*
X75125152Y-69286380D01*
X75125152Y-68286380D01*
X75458485Y-68286380D01*
X75553723Y-68334000D01*
X75601342Y-68381619D01*
X75648961Y-68476857D01*
X75648961Y-68572095D01*
X75601342Y-68667333D01*
X75553723Y-68714952D01*
X75458485Y-68762571D01*
X75125152Y-68762571D01*
X65540142Y-64603380D02*
X65873476Y-65603380D01*
X66206809Y-64603380D01*
X67111571Y-65508142D02*
X67063952Y-65555761D01*
X66921095Y-65603380D01*
X66825857Y-65603380D01*
X66683000Y-65555761D01*
X66587761Y-65460523D01*
X66540142Y-65365285D01*
X66492523Y-65174809D01*
X66492523Y-65031952D01*
X66540142Y-64841476D01*
X66587761Y-64746238D01*
X66683000Y-64651000D01*
X66825857Y-64603380D01*
X66921095Y-64603380D01*
X67063952Y-64651000D01*
X67111571Y-64698619D01*
X67302047Y-65698619D02*
X68063952Y-65698619D01*
X68254428Y-65317666D02*
X68730619Y-65317666D01*
X68159190Y-65603380D02*
X68492523Y-64603380D01*
X68825857Y-65603380D01*
X34585400Y-62479180D02*
X34109209Y-62479180D01*
X34109209Y-61479180D01*
X34871114Y-62193466D02*
X35347304Y-62193466D01*
X34775876Y-62479180D02*
X35109209Y-61479180D01*
X35442542Y-62479180D01*
X35537780Y-62574419D02*
X36299685Y-62574419D01*
X36871114Y-61955371D02*
X37013971Y-62002990D01*
X37061590Y-62050609D01*
X37109209Y-62145847D01*
X37109209Y-62288704D01*
X37061590Y-62383942D01*
X37013971Y-62431561D01*
X36918733Y-62479180D01*
X36537780Y-62479180D01*
X36537780Y-61479180D01*
X36871114Y-61479180D01*
X36966352Y-61526800D01*
X37013971Y-61574419D01*
X37061590Y-61669657D01*
X37061590Y-61764895D01*
X37013971Y-61860133D01*
X36966352Y-61907752D01*
X36871114Y-61955371D01*
X36537780Y-61955371D01*
X35449000Y-51379380D02*
X34972809Y-51379380D01*
X34972809Y-50379380D01*
X35782333Y-51379380D02*
X35782333Y-50379380D01*
X36353761Y-51379380D02*
X35925190Y-50807952D01*
X36353761Y-50379380D02*
X35782333Y-50950809D01*
X36544238Y-51474619D02*
X37306142Y-51474619D01*
X37496619Y-51093666D02*
X37972809Y-51093666D01*
X37401380Y-51379380D02*
X37734714Y-50379380D01*
X38068047Y-51379380D01*
X21839371Y-50718980D02*
X21363180Y-50718980D01*
X21363180Y-49718980D01*
X22172704Y-50718980D02*
X22172704Y-49718980D01*
X22744133Y-50718980D02*
X22315561Y-50147552D01*
X22744133Y-49718980D02*
X22172704Y-50290409D01*
X22934609Y-50814219D02*
X23696514Y-50814219D01*
X24267942Y-50195171D02*
X24410800Y-50242790D01*
X24458419Y-50290409D01*
X24506038Y-50385647D01*
X24506038Y-50528504D01*
X24458419Y-50623742D01*
X24410800Y-50671361D01*
X24315561Y-50718980D01*
X23934609Y-50718980D01*
X23934609Y-49718980D01*
X24267942Y-49718980D01*
X24363180Y-49766600D01*
X24410800Y-49814219D01*
X24458419Y-49909457D01*
X24458419Y-50004695D01*
X24410800Y-50099933D01*
X24363180Y-50147552D01*
X24267942Y-50195171D01*
X23934609Y-50195171D01*
X13852733Y-54833780D02*
X13519400Y-54357590D01*
X13281304Y-54833780D02*
X13281304Y-53833780D01*
X13662257Y-53833780D01*
X13757495Y-53881400D01*
X13805114Y-53929019D01*
X13852733Y-54024257D01*
X13852733Y-54167114D01*
X13805114Y-54262352D01*
X13757495Y-54309971D01*
X13662257Y-54357590D01*
X13281304Y-54357590D01*
X14709876Y-54833780D02*
X14709876Y-54309971D01*
X14662257Y-54214733D01*
X14567019Y-54167114D01*
X14376542Y-54167114D01*
X14281304Y-54214733D01*
X14709876Y-54786161D02*
X14614638Y-54833780D01*
X14376542Y-54833780D01*
X14281304Y-54786161D01*
X14233685Y-54690923D01*
X14233685Y-54595685D01*
X14281304Y-54500447D01*
X14376542Y-54452828D01*
X14614638Y-54452828D01*
X14709876Y-54405209D01*
X15043209Y-54167114D02*
X15424161Y-54167114D01*
X15186066Y-53833780D02*
X15186066Y-54690923D01*
X15233685Y-54786161D01*
X15328923Y-54833780D01*
X15424161Y-54833780D01*
X16138447Y-54786161D02*
X16043209Y-54833780D01*
X15852733Y-54833780D01*
X15757495Y-54786161D01*
X15709876Y-54690923D01*
X15709876Y-54309971D01*
X15757495Y-54214733D01*
X15852733Y-54167114D01*
X16043209Y-54167114D01*
X16138447Y-54214733D01*
X16186066Y-54309971D01*
X16186066Y-54405209D01*
X15709876Y-54500447D01*
X16376542Y-54929019D02*
X17138447Y-54929019D01*
X17328923Y-54548066D02*
X17805114Y-54548066D01*
X17233685Y-54833780D02*
X17567019Y-53833780D01*
X17900352Y-54833780D01*
X17150865Y-46529868D02*
X16508077Y-45763823D01*
X16814167Y-46128606D02*
X17251906Y-45761299D01*
X17588604Y-46162561D02*
X16945817Y-45396516D01*
X18062822Y-45764644D02*
X17959257Y-45789384D01*
X17892170Y-45783515D01*
X17794474Y-45741167D01*
X17610820Y-45522297D01*
X17586080Y-45418732D01*
X17591950Y-45351644D01*
X17634297Y-45253948D01*
X17743732Y-45162121D01*
X17847298Y-45137382D01*
X17914385Y-45143251D01*
X18012081Y-45185599D01*
X18195735Y-45404469D01*
X18220474Y-45508034D01*
X18214605Y-45575121D01*
X18172257Y-45672818D01*
X18062822Y-45764644D01*
X18755910Y-45183075D02*
X18652345Y-45207814D01*
X18554649Y-45165467D01*
X18003688Y-44508857D01*
X19376042Y-44662723D02*
X18733254Y-43896678D01*
X19345433Y-44626245D02*
X19303085Y-44723941D01*
X19157172Y-44846376D01*
X19053606Y-44871116D01*
X18986519Y-44865247D01*
X18888823Y-44822899D01*
X18705169Y-44604029D01*
X18680430Y-44500464D01*
X18686299Y-44433376D01*
X18728647Y-44335680D01*
X18874560Y-44213244D01*
X18978125Y-44188505D01*
X19619651Y-44582635D02*
X20203304Y-44092892D01*
X20104346Y-43678630D02*
X20469129Y-43372540D01*
X20215043Y-43958717D02*
X19827603Y-42978410D01*
X20725739Y-43530192D01*
X13627266Y-27731980D02*
X13627266Y-26731980D01*
X14103457Y-27731980D02*
X14103457Y-26731980D01*
X14674885Y-27731980D01*
X14674885Y-26731980D01*
X14912980Y-27827219D02*
X15674885Y-27827219D01*
X15865361Y-27446266D02*
X16341552Y-27446266D01*
X15770123Y-27731980D02*
X16103457Y-26731980D01*
X16436790Y-27731980D01*
D12*
X122294101Y-58946407D02*
X120468584Y-56770841D01*
X122110250Y-59100676D02*
X120284733Y-56925110D01*
X122202175Y-59023542D02*
X120376658Y-56847975D01*
X118201092Y-58673492D02*
X118316794Y-58811380D01*
X120836285Y-56462303D02*
X118201092Y-58673492D01*
X120951987Y-56600191D02*
X120836285Y-56462303D01*
X120026609Y-60849058D02*
X119910907Y-60711170D01*
X122661802Y-58637869D02*
X120026609Y-60849058D01*
X122546100Y-58499981D02*
X122661802Y-58637869D01*
X25606714Y-32849216D02*
X26543849Y-30274458D01*
X32410088Y-35325441D02*
X33347223Y-32750684D01*
X33347223Y-32750684D02*
X26543849Y-30274458D01*
X32410088Y-35325441D02*
X25606714Y-32849216D01*
X93507663Y-69363279D02*
X90809290Y-69839075D01*
X92250451Y-62233271D02*
X89552077Y-62709067D01*
X89552077Y-62709067D02*
X90809290Y-69839075D01*
X92250451Y-62233271D02*
X93507663Y-69363279D01*
X58272541Y-20927173D02*
X56173579Y-22688411D01*
X53618759Y-15381011D02*
X51519797Y-17142249D01*
X51519797Y-17142249D02*
X56173579Y-22688411D01*
X53618759Y-15381011D02*
X58272541Y-20927173D01*
X70523724Y-37507259D02*
X63393716Y-36250046D01*
X70999520Y-34808885D02*
X63869512Y-33551673D01*
X70523724Y-37507259D02*
X70999520Y-34808885D01*
X63393716Y-36250046D02*
X63869512Y-33551673D01*
X30294452Y-57946390D02*
X31551665Y-50816382D01*
X32992826Y-58422186D02*
X34250038Y-51292178D01*
X30294452Y-57946390D02*
X32992826Y-58422186D01*
X31551665Y-50816382D02*
X34250038Y-51292178D01*
X41478285Y-53383507D02*
X47748308Y-57003507D01*
X40108285Y-55756417D02*
X46378308Y-59376417D01*
X41478285Y-53383507D02*
X40108285Y-55756417D01*
X47748308Y-57003507D02*
X46378308Y-59376417D01*
X109666953Y-62850366D02*
X105013171Y-57304204D01*
X111765915Y-61089128D02*
X107112133Y-55542966D01*
X109666953Y-62850366D02*
X111765915Y-61089128D01*
X105013171Y-57304204D02*
X107112133Y-55542966D01*
X77001625Y-19143600D02*
G75*
G03X77001625Y-19143600I-2120000J0D01*
G01*
X75921625Y-17342267D02*
X73841625Y-20944933D01*
X75956266Y-17362267D02*
X73876266Y-20964933D01*
X75990407Y-17383133D02*
X73911407Y-20984067D01*
X76024048Y-17404865D02*
X73947048Y-21002335D01*
X76057189Y-17427463D02*
X73983189Y-21019737D01*
X76090330Y-17450061D02*
X75474830Y-18516139D01*
X74634830Y-19971061D02*
X74019330Y-21037139D01*
X76122972Y-17473525D02*
X75509472Y-18536139D01*
X74669472Y-19991061D02*
X74055972Y-21053675D01*
X76155113Y-17497856D02*
X75544113Y-18556139D01*
X74704113Y-20011061D02*
X74093113Y-21069344D01*
X76186754Y-17523052D02*
X75578754Y-18576139D01*
X74738754Y-20031061D02*
X74130754Y-21084148D01*
X76218395Y-17548248D02*
X75613395Y-18596139D01*
X74773395Y-20051061D02*
X74168395Y-21098952D01*
X76249036Y-17575176D02*
X75648036Y-18616139D01*
X74808036Y-20071061D02*
X74207036Y-21112024D01*
X76279677Y-17602104D02*
X75682677Y-18636139D01*
X74842677Y-20091061D02*
X74245677Y-21125096D01*
X76309818Y-17629899D02*
X75717318Y-18656139D01*
X74877318Y-20111061D02*
X74284818Y-21137301D01*
X76339959Y-17657693D02*
X75751959Y-18676139D01*
X74911959Y-20131061D02*
X74323959Y-21149507D01*
X76369100Y-17687219D02*
X75786600Y-18696139D01*
X74946600Y-20151061D02*
X74364100Y-21159981D01*
X76398241Y-17716745D02*
X75821241Y-18716139D01*
X74981241Y-20171061D02*
X74404241Y-21170455D01*
X76426882Y-17747138D02*
X75855882Y-18736139D01*
X75015882Y-20191061D02*
X74444882Y-21180062D01*
X76454523Y-17779262D02*
X75890523Y-18756139D01*
X75050523Y-20211061D02*
X74486523Y-21187938D01*
X76483030Y-17811886D02*
X75926030Y-18776639D01*
X75086030Y-20231561D02*
X74529030Y-21196314D01*
X76510671Y-17844011D02*
X75960671Y-18796639D01*
X75120671Y-20251561D02*
X74570671Y-21204189D01*
X76537312Y-17877867D02*
X75995312Y-18816639D01*
X75155312Y-20271561D02*
X74613312Y-21210333D01*
X76563453Y-17912590D02*
X76029953Y-18836639D01*
X75189953Y-20291561D02*
X74656453Y-21215610D01*
X76589094Y-17948178D02*
X76064594Y-18856639D01*
X75224594Y-20311561D02*
X74700094Y-21220022D01*
X76614235Y-17984632D02*
X76099235Y-18876639D01*
X75259235Y-20331561D02*
X74744235Y-21223568D01*
X76639376Y-18021087D02*
X76133876Y-18896639D01*
X75293876Y-20351561D02*
X74788376Y-21227113D01*
X76663517Y-18059274D02*
X76168517Y-18916639D01*
X75328517Y-20371561D02*
X74833517Y-21228926D01*
X76687158Y-18098326D02*
X76203158Y-18936639D01*
X75363158Y-20391561D02*
X74879158Y-21229874D01*
X76710299Y-18138245D02*
X76237799Y-18956639D01*
X75397799Y-20411561D02*
X74925299Y-21229955D01*
X76732440Y-18179895D02*
X76272440Y-18976639D01*
X75432440Y-20431561D02*
X74972440Y-21228305D01*
X76754581Y-18221546D02*
X76307081Y-18996639D01*
X75467081Y-20451561D02*
X75019581Y-21226654D01*
X76775722Y-18264929D02*
X76341722Y-19016639D01*
X75501722Y-20471561D02*
X75067722Y-21223271D01*
X76796363Y-18309177D02*
X76376363Y-19036639D01*
X75536363Y-20491561D02*
X75116363Y-21219023D01*
X76816004Y-18355158D02*
X76411004Y-19056639D01*
X75571004Y-20511561D02*
X75166004Y-21213042D01*
X76835145Y-18402005D02*
X76445645Y-19076639D01*
X75605645Y-20531561D02*
X75216145Y-21206195D01*
X76853786Y-18449718D02*
X76480286Y-19096639D01*
X75640286Y-20551561D02*
X75266786Y-21198482D01*
X76870927Y-18500029D02*
X76514927Y-19116639D01*
X75674927Y-20571561D02*
X75318927Y-21188171D01*
X76887568Y-18551205D02*
X76549568Y-19136639D01*
X75709568Y-20591561D02*
X75371568Y-21176995D01*
X76903209Y-18604114D02*
X76584209Y-19156639D01*
X75744209Y-20611561D02*
X75425209Y-21164086D01*
X76917850Y-18658755D02*
X76618850Y-19176639D01*
X75778850Y-20631561D02*
X75479850Y-21149445D01*
X76931491Y-18715129D02*
X76653491Y-19196639D01*
X75813491Y-20651561D02*
X75535491Y-21133071D01*
X76943632Y-18774100D02*
X76688132Y-19216639D01*
X75848132Y-20671561D02*
X75592632Y-21114100D01*
X76954773Y-18834803D02*
X76722773Y-19236639D01*
X75882773Y-20691561D02*
X75650773Y-21093397D01*
X76964414Y-18898104D02*
X76757414Y-19256639D01*
X75917414Y-20711561D02*
X75710414Y-21070096D01*
X76972055Y-18964870D02*
X76792055Y-19276639D01*
X75952055Y-20731561D02*
X75772055Y-21043330D01*
X76977696Y-19035099D02*
X76826696Y-19296639D01*
X75986696Y-20751561D02*
X75835696Y-21013101D01*
X76981337Y-19108793D02*
X76861337Y-19316639D01*
X76021337Y-20771561D02*
X75901337Y-20979407D01*
X76982478Y-19186816D02*
X75969478Y-20941384D01*
X76980619Y-19270036D02*
X76040619Y-20898164D01*
X76974760Y-19360184D02*
X76115760Y-20848016D01*
X76963901Y-19458992D02*
X76195901Y-20789208D01*
X76946542Y-19569059D02*
X76282542Y-20719141D01*
X76917683Y-19699044D02*
X76380683Y-20629156D01*
X76868824Y-19863671D02*
X76498824Y-20504529D01*
X73513420Y-16973799D02*
X73859830Y-17173799D01*
X73786625Y-16900594D02*
X73586625Y-17247004D01*
X80305598Y-16276222D02*
X80442406Y-16652099D01*
X80186063Y-16532565D02*
X80561940Y-16395757D01*
X84556646Y-15819750D02*
X84809740Y-16515122D01*
X84461940Y-15676502D02*
X84829270Y-16685732D01*
X84380916Y-15570842D02*
X84835119Y-16818753D01*
X84307758Y-15486794D02*
X84833101Y-16930162D01*
X84239047Y-15414963D02*
X84826637Y-17029355D01*
X84173756Y-15352529D02*
X84816753Y-17119151D01*
X84111200Y-15297612D02*
X84804133Y-17201429D01*
X84707376Y-17052543D02*
X84789461Y-17278070D01*
X84050697Y-15248334D02*
X84132782Y-15473860D01*
X84669788Y-17066224D02*
X84773078Y-17350011D01*
X83991904Y-15203753D02*
X84095194Y-15487541D01*
X84632201Y-17079905D02*
X84755328Y-17418194D01*
X83934479Y-15162932D02*
X84057607Y-15501221D01*
X84594613Y-17093586D02*
X84736209Y-17482619D01*
X83878423Y-15125869D02*
X84020019Y-15514902D01*
X84557025Y-17107267D02*
X84715722Y-17543284D01*
X83823734Y-15092566D02*
X83982431Y-15528583D01*
X84519437Y-17120947D02*
X84694210Y-17601130D01*
X83770071Y-15062081D02*
X83944844Y-15542264D01*
X84481850Y-17134628D02*
X84672013Y-17657097D01*
X83717093Y-15033476D02*
X83907256Y-15555945D01*
X84444262Y-17148309D02*
X84648790Y-17710245D01*
X83665140Y-15007689D02*
X83869668Y-15569625D01*
X84406674Y-17161990D02*
X84624883Y-17761514D01*
X83613872Y-14983782D02*
X83832080Y-15583306D01*
X84369087Y-17175671D02*
X84600292Y-17810903D01*
X83563287Y-14961755D02*
X83794493Y-15596987D01*
X84331499Y-17189351D02*
X84575017Y-17858413D01*
X83513387Y-14941607D02*
X83756905Y-15610668D01*
X84293911Y-17203032D02*
X84549400Y-17904983D01*
X83463828Y-14922398D02*
X83719317Y-15624349D01*
X84256323Y-17216713D02*
X84522757Y-17948734D01*
X83415296Y-14906009D02*
X83681730Y-15638029D01*
X84218736Y-17230394D02*
X84495772Y-17991545D01*
X83367106Y-14890559D02*
X83644142Y-15651710D01*
X84181148Y-17244075D02*
X84468445Y-18033416D01*
X83319257Y-14876049D02*
X83606554Y-15665391D01*
X84143560Y-17257755D02*
X84440434Y-18073409D01*
X83272093Y-14863419D02*
X83568967Y-15679072D01*
X84105973Y-17271436D02*
X84412081Y-18112461D01*
X83225271Y-14851728D02*
X83531379Y-15692753D01*
X84068385Y-17285117D02*
X84383044Y-18149634D01*
X83179133Y-14841916D02*
X83493791Y-15706433D01*
X84030797Y-17298798D02*
X84354006Y-18186807D01*
X83132994Y-14832105D02*
X83456203Y-15720114D01*
X83993210Y-17312479D02*
X84324285Y-18222101D01*
X83087540Y-14824173D02*
X83418616Y-15733795D01*
X83955622Y-17326159D02*
X84294222Y-18256455D01*
X83042428Y-14817180D02*
X83381028Y-15747476D01*
X83918034Y-17339840D02*
X84263817Y-18289870D01*
X82997658Y-14811127D02*
X83343440Y-15761157D01*
X83880446Y-17353521D02*
X84232727Y-18321405D01*
X82953572Y-14806954D02*
X83305853Y-15774838D01*
X83842859Y-17367202D02*
X84201638Y-18352939D01*
X82909486Y-14802781D02*
X83268265Y-15788518D01*
X83805271Y-17380883D02*
X84170207Y-18383535D01*
X82865742Y-14799547D02*
X83230677Y-15802199D01*
X83767683Y-17394564D02*
X84138433Y-18413190D01*
X82822340Y-14797253D02*
X83193089Y-15815880D01*
X83730096Y-17408244D02*
X84106318Y-18441906D01*
X82779280Y-14795899D02*
X83155502Y-15829561D01*
X83692508Y-17421925D02*
X84073518Y-18468743D01*
X82736904Y-14796424D02*
X83117914Y-15843242D01*
X83653981Y-17435948D02*
X84039779Y-18495921D01*
X82693588Y-14797291D02*
X83079387Y-15857264D01*
X83616393Y-17449629D02*
X84006980Y-18522758D01*
X82651212Y-14797816D02*
X83041799Y-15870945D01*
X83578805Y-17463310D02*
X83973496Y-18547715D01*
X82609520Y-14800221D02*
X83004211Y-15884626D01*
X83541217Y-17476990D02*
X83939671Y-18571732D01*
X82568170Y-14803565D02*
X82966624Y-15898307D01*
X83503630Y-17490671D02*
X83905845Y-18595750D01*
X82526820Y-14806909D02*
X82929036Y-15911988D01*
X83466042Y-17504352D02*
X83871336Y-18617888D01*
X82486154Y-14812133D02*
X82891448Y-15925668D01*
X83428454Y-17518033D02*
X83836826Y-18640026D01*
X82445488Y-14817356D02*
X82853860Y-15939349D01*
X83390867Y-17531714D02*
X83801975Y-18661224D01*
X82405165Y-14823519D02*
X82816273Y-15953030D01*
X83353279Y-17545394D02*
X83767123Y-18682422D01*
X82364841Y-14829683D02*
X82778685Y-15966711D01*
X83315691Y-17559075D02*
X83731588Y-18701741D01*
X82325201Y-14837725D02*
X82741097Y-15980392D01*
X83278103Y-17572756D02*
X83696052Y-18721060D01*
X82285561Y-14845768D02*
X82703510Y-15994072D01*
X83240516Y-17586437D02*
X83660174Y-18739440D01*
X82246263Y-14854750D02*
X82665922Y-16007753D01*
X83202928Y-17600118D02*
X83623955Y-18756879D01*
X82207307Y-14864672D02*
X82628334Y-16021434D01*
X82168694Y-14875534D02*
X83587393Y-18773379D01*
X82130080Y-14886396D02*
X83550832Y-18789879D01*
X82091808Y-14898197D02*
X83513928Y-18805439D01*
X82053878Y-14910938D02*
X83476682Y-18820060D01*
X82016291Y-14924619D02*
X83439095Y-18833741D01*
X84847693Y-16879180D02*
G75*
G03X84847693Y-16879180I-2120000J0D01*
G01*
X32923256Y-21201470D02*
X31097739Y-19025904D01*
X32739405Y-21355739D02*
X30913888Y-19180173D01*
X32831330Y-21278605D02*
X31005813Y-19103038D01*
X28830247Y-20928555D02*
X28945949Y-21066443D01*
X31465440Y-18717366D02*
X28830247Y-20928555D01*
X31581142Y-18855254D02*
X31465440Y-18717366D01*
X30655764Y-23104121D02*
X30540062Y-22966233D01*
X33290957Y-20892932D02*
X30655764Y-23104121D01*
X33175255Y-20755044D02*
X33290957Y-20892932D01*
X79526843Y-56208556D02*
X79695988Y-56270120D01*
X79695988Y-56270120D02*
X78519439Y-59502662D01*
X78519439Y-59502662D02*
X78350294Y-59441099D01*
X77196406Y-55360346D02*
X77027261Y-55298782D01*
X77027261Y-55298782D02*
X75850712Y-58531325D01*
X75850712Y-58531325D02*
X76019856Y-58592889D01*
X79490776Y-56833935D02*
X76822049Y-55862598D01*
X79449734Y-56946698D02*
X76781006Y-55975361D01*
X79531818Y-56721172D02*
X76863091Y-55749835D01*
X26964306Y-17918551D02*
X28789823Y-20094117D01*
X27148157Y-17764282D02*
X28973674Y-19939848D01*
X27056232Y-17841416D02*
X28881749Y-20016983D01*
X31057315Y-18191466D02*
X30941613Y-18053578D01*
X28422122Y-20402655D02*
X31057315Y-18191466D01*
X28306420Y-20264767D02*
X28422122Y-20402655D01*
X29231798Y-16015900D02*
X29347500Y-16153788D01*
X26596605Y-18227089D02*
X29231798Y-16015900D01*
X26712307Y-18364977D02*
X26596605Y-18227089D01*
X72962534Y-57561204D02*
X72793389Y-57499640D01*
X72793389Y-57499640D02*
X73969938Y-54267098D01*
X73969938Y-54267098D02*
X74139083Y-54328661D01*
X75292971Y-58409414D02*
X75462116Y-58470978D01*
X75462116Y-58470978D02*
X76638665Y-55238435D01*
X76638665Y-55238435D02*
X76469521Y-55176871D01*
X72998601Y-56935825D02*
X75667328Y-57907162D01*
X73039643Y-56823062D02*
X75708371Y-57794399D01*
X72957559Y-57048588D02*
X75626286Y-58019925D01*
X59425552Y-17061765D02*
X60845552Y-19521277D01*
X59633398Y-16941765D02*
X61053398Y-19401277D01*
X59529475Y-17001765D02*
X60949475Y-19461277D01*
X63408987Y-18041277D02*
X63318987Y-17885393D01*
X60429860Y-19761277D02*
X63408987Y-18041277D01*
X60339860Y-19605393D02*
X60429860Y-19761277D01*
X61988987Y-15581765D02*
X62078987Y-15737649D01*
X59009860Y-17301765D02*
X61988987Y-15581765D01*
X59099860Y-17457649D02*
X59009860Y-17301765D01*
X56692527Y-23041626D02*
X56602527Y-22885742D01*
X56602527Y-22885742D02*
X59581654Y-21165742D01*
X59581654Y-21165742D02*
X59671654Y-21321626D01*
X57932527Y-25189370D02*
X58022527Y-25345254D01*
X58022527Y-25345254D02*
X61001654Y-23625254D01*
X61001654Y-23625254D02*
X60911654Y-23469370D01*
X57122142Y-22585742D02*
X58542142Y-25045254D01*
X57226065Y-22525742D02*
X58646065Y-24985254D01*
X57018219Y-22645742D02*
X58438219Y-25105254D01*
X68086127Y-29408577D02*
X68176127Y-29252693D01*
X68176127Y-29252693D02*
X71155254Y-30972693D01*
X71155254Y-30972693D02*
X71065254Y-31128577D01*
X66846127Y-31556321D02*
X66756127Y-31712205D01*
X66756127Y-31712205D02*
X69735254Y-33432205D01*
X69735254Y-33432205D02*
X69825254Y-33276321D01*
X68695742Y-29552693D02*
X67275742Y-32012205D01*
X68799665Y-29612693D02*
X67379665Y-32072205D01*
X68591819Y-29492693D02*
X67171819Y-31952205D01*
X26113501Y-42215566D02*
G75*
G03X23532221Y-38163767I-2129795J1491299D01*
G01*
X22492407Y-42854062D02*
G75*
G02X23532221Y-38163767I1491299J2129795D01*
G01*
X22532301Y-42858728D02*
X26077609Y-42233594D01*
X102803197Y-25859505D02*
X99257889Y-26484639D01*
X102843091Y-25864171D02*
G75*
G02X101803277Y-30554466I-1491299J-2129795D01*
G01*
X99221997Y-26502667D02*
G75*
G03X101803277Y-30554466I2129795J-1491299D01*
G01*
X45291100Y-32556874D02*
G75*
G02X45356990Y-33450884I-2502147J-633845D01*
G01*
X43887760Y-30834319D02*
G75*
G03X41117705Y-31199004I-1098807J-2356400D01*
G01*
X40277546Y-33863649D02*
G75*
G02X41117705Y-31199004I2511407J672930D01*
G01*
X41730243Y-35544787D02*
G75*
G03X42599230Y-35764919I1058710J2354068D01*
G01*
X42599230Y-35764919D02*
X45356990Y-33450884D01*
X94947766Y-60999129D02*
X96179039Y-57616235D01*
X94085135Y-61242982D02*
G75*
G03X94947766Y-60999129I-260164J2568037D01*
G01*
X91986493Y-60513422D02*
G75*
G02X91381770Y-57785692I1838478J1838477D01*
G01*
X93598367Y-56084839D02*
G75*
G03X91381770Y-57785692I226604J-2590106D01*
G01*
X95674971Y-56874945D02*
G75*
G02X96179039Y-57616235I-1850000J-1800000D01*
G01*
X17676854Y-32738334D02*
X17511854Y-32452545D01*
X17511854Y-32452545D02*
X23175660Y-29182545D01*
X23175660Y-29182545D02*
X23340660Y-29468334D01*
X18716854Y-34539666D02*
X18881854Y-34825455D01*
X18881854Y-34825455D02*
X24545660Y-31555455D01*
X24545660Y-31555455D02*
X24380660Y-31269666D01*
X88000986Y-69765207D02*
X88058290Y-69440220D01*
X81560343Y-68629548D02*
X88000986Y-69765207D01*
X81617647Y-68304561D02*
X81560343Y-68629548D01*
X88476782Y-67066833D02*
X88419478Y-67391820D01*
X82036139Y-65931174D02*
X88476782Y-67066833D01*
X81978835Y-66256161D02*
X82036139Y-65931174D01*
X19955140Y-26889945D02*
X20120140Y-27175734D01*
X25618946Y-23619945D02*
X19955140Y-26889945D01*
X25783946Y-23905734D02*
X25618946Y-23619945D01*
X21325140Y-29262855D02*
X21160140Y-28977066D01*
X26988946Y-25992855D02*
X21325140Y-29262855D01*
X26823946Y-25707066D02*
X26988946Y-25992855D01*
X73184887Y-60876352D02*
X73349887Y-60590563D01*
X73349887Y-60590563D02*
X79013693Y-63860563D01*
X79013693Y-63860563D02*
X78848693Y-64146352D01*
X72144887Y-62677684D02*
X71979887Y-62963473D01*
X71979887Y-62963473D02*
X77643693Y-66233473D01*
X77643693Y-66233473D02*
X77808693Y-65947684D01*
X16432400Y-37268400D02*
X16762400Y-37268400D01*
X16762400Y-37268400D02*
X16762400Y-43808400D01*
X16762400Y-43808400D02*
X16432400Y-43808400D01*
X14352400Y-37268400D02*
X14022400Y-37268400D01*
X14022400Y-37268400D02*
X14022400Y-43808400D01*
X14022400Y-43808400D02*
X14352400Y-43808400D01*
X108161603Y-27843978D02*
X107836616Y-27901282D01*
X107836616Y-27901282D02*
X106700957Y-21460639D01*
X106700957Y-21460639D02*
X107025944Y-21403335D01*
X110210003Y-27482790D02*
X110534990Y-27425486D01*
X110534990Y-27425486D02*
X109399331Y-20984843D01*
X109399331Y-20984843D02*
X109074344Y-21042147D01*
X60166556Y-65716443D02*
X60109252Y-66041430D01*
X60109252Y-66041430D02*
X53668609Y-64905771D01*
X53668609Y-64905771D02*
X53725913Y-64580784D01*
X60527744Y-63668043D02*
X60585048Y-63343056D01*
X60585048Y-63343056D02*
X54144405Y-62207397D01*
X54144405Y-62207397D02*
X54087101Y-62532384D01*
X109050314Y-38442469D02*
X108725327Y-38499773D01*
X108725327Y-38499773D02*
X107589668Y-32059130D01*
X107589668Y-32059130D02*
X107914655Y-32001826D01*
X111098714Y-38081281D02*
X111423701Y-38023977D01*
X111423701Y-38023977D02*
X110288042Y-31583334D01*
X110288042Y-31583334D02*
X109963055Y-31640638D01*
X19091540Y-46981345D02*
X19256540Y-47267134D01*
X24755346Y-43711345D02*
X19091540Y-46981345D01*
X24920346Y-43997134D02*
X24755346Y-43711345D01*
X20461540Y-49354255D02*
X20296540Y-49068466D01*
X26125346Y-46084255D02*
X20461540Y-49354255D01*
X25960346Y-45798466D02*
X26125346Y-46084255D01*
X83640243Y-27559340D02*
X83697547Y-27884327D01*
X90080886Y-26423681D02*
X83640243Y-27559340D01*
X90138190Y-26748668D02*
X90080886Y-26423681D01*
X84116039Y-30257714D02*
X84058735Y-29932727D01*
X90556682Y-29122055D02*
X84116039Y-30257714D01*
X90499378Y-28797068D02*
X90556682Y-29122055D01*
X26463537Y-37051358D02*
X26406233Y-36726371D01*
X20022894Y-38187017D02*
X26463537Y-37051358D01*
X19965590Y-37862030D02*
X20022894Y-38187017D01*
X25987741Y-34352984D02*
X26045045Y-34677971D01*
X19547098Y-35488643D02*
X25987741Y-34352984D01*
X19604402Y-35813630D02*
X19547098Y-35488643D01*
X104852369Y-28530652D02*
X104527382Y-28587956D01*
X104527382Y-28587956D02*
X103391723Y-22147313D01*
X103391723Y-22147313D02*
X103716710Y-22090009D01*
X106900769Y-28169464D02*
X107225756Y-28112160D01*
X107225756Y-28112160D02*
X106090097Y-21671517D01*
X106090097Y-21671517D02*
X105765110Y-21728821D01*
X61286017Y-60583864D02*
X61571806Y-60748864D01*
X64556017Y-54920058D02*
X61286017Y-60583864D01*
X64841806Y-55085058D02*
X64556017Y-54920058D01*
X63658927Y-61953864D02*
X63373138Y-61788864D01*
X66928927Y-56290058D02*
X63658927Y-61953864D01*
X66643138Y-56125058D02*
X66928927Y-56290058D01*
X105602972Y-39076123D02*
X105927959Y-39018819D01*
X104467313Y-32635480D02*
X105602972Y-39076123D01*
X104792300Y-32578176D02*
X104467313Y-32635480D01*
X108301346Y-38600327D02*
X107976359Y-38657631D01*
X107165687Y-32159684D02*
X108301346Y-38600327D01*
X106840700Y-32216988D02*
X107165687Y-32159684D01*
X28384783Y-41423776D02*
X28637578Y-41635896D01*
X32588614Y-36413845D02*
X28384783Y-41423776D01*
X32841408Y-36625965D02*
X32588614Y-36413845D01*
X30483745Y-43185014D02*
X30230950Y-42972894D01*
X34687576Y-38175083D02*
X30483745Y-43185014D01*
X34434781Y-37962963D02*
X34687576Y-38175083D01*
X37025581Y-40121963D02*
X37278376Y-40334083D01*
X37278376Y-40334083D02*
X33074545Y-45344014D01*
X33074545Y-45344014D02*
X32821750Y-45131894D01*
X35432208Y-38784965D02*
X35179414Y-38572845D01*
X35179414Y-38572845D02*
X30975583Y-43582776D01*
X30975583Y-43582776D02*
X31228378Y-43794896D01*
X95913703Y-30055194D02*
X96238690Y-29997890D01*
X94778044Y-23614551D02*
X95913703Y-30055194D01*
X95103031Y-23557247D02*
X94778044Y-23614551D01*
X98612077Y-29579398D02*
X98287090Y-29636702D01*
X97476418Y-23138755D02*
X98612077Y-29579398D01*
X97151431Y-23196059D02*
X97476418Y-23138755D01*
X91087411Y-32278246D02*
X91030107Y-31953259D01*
X84646768Y-33413905D02*
X91087411Y-32278246D01*
X84589464Y-33088918D02*
X84646768Y-33413905D01*
X90611615Y-29579872D02*
X90668919Y-29904859D01*
X84170972Y-30715531D02*
X90611615Y-29579872D01*
X84228276Y-31040518D02*
X84170972Y-30715531D01*
X36198624Y-15278383D02*
X35986504Y-15531178D01*
X41208555Y-19482214D02*
X36198624Y-15278383D01*
X40996435Y-19735008D02*
X41208555Y-19482214D01*
X34437386Y-17377345D02*
X34649506Y-17124550D01*
X39447317Y-21581176D02*
X34437386Y-17377345D01*
X39659437Y-21328381D02*
X39447317Y-21581176D01*
X90044387Y-55080965D02*
X89931520Y-55391064D01*
X89931520Y-55391064D02*
X83785931Y-53154252D01*
X83785931Y-53154252D02*
X83898797Y-52844154D01*
X90755789Y-53126405D02*
X90868656Y-52816306D01*
X90868656Y-52816306D02*
X84723066Y-50579494D01*
X84723066Y-50579494D02*
X84610199Y-50889593D01*
X38786592Y-35152765D02*
X39039386Y-34940645D01*
X39039386Y-34940645D02*
X43243217Y-39950576D01*
X43243217Y-39950576D02*
X42990422Y-40162696D01*
X37193219Y-36489763D02*
X36940424Y-36701883D01*
X36940424Y-36701883D02*
X41144255Y-41711814D01*
X41144255Y-41711814D02*
X41397050Y-41499694D01*
X94083518Y-23788599D02*
X94408505Y-23731295D01*
X94408505Y-23731295D02*
X95544164Y-30171938D01*
X95544164Y-30171938D02*
X95219177Y-30229242D01*
X92035118Y-24149787D02*
X91710131Y-24207091D01*
X91710131Y-24207091D02*
X92845790Y-30647734D01*
X92845790Y-30647734D02*
X93170777Y-30590430D01*
X50567655Y-35971414D02*
X50820450Y-35759294D01*
X46363824Y-30961483D02*
X50567655Y-35971414D01*
X46616619Y-30749363D02*
X46363824Y-30961483D01*
X52666617Y-34210176D02*
X52413822Y-34422296D01*
X48462786Y-29200245D02*
X52666617Y-34210176D01*
X48209992Y-29412365D02*
X48462786Y-29200245D01*
X98610393Y-59856087D02*
X98920492Y-59968954D01*
X98920492Y-59968954D02*
X96683680Y-66114543D01*
X96683680Y-66114543D02*
X96373582Y-66001677D01*
X96655833Y-59144685D02*
X96345734Y-59031818D01*
X96345734Y-59031818D02*
X94108922Y-65177408D01*
X94108922Y-65177408D02*
X94419021Y-65290275D01*
X47116208Y-24613435D02*
X46863414Y-24825555D01*
X46863414Y-24825555D02*
X42659583Y-19815624D01*
X42659583Y-19815624D02*
X42912378Y-19603504D01*
X48709581Y-23276437D02*
X48962376Y-23064317D01*
X48962376Y-23064317D02*
X44758545Y-18054386D01*
X44758545Y-18054386D02*
X44505750Y-18266506D01*
X95237371Y-50674018D02*
X95025251Y-50926813D01*
X100247302Y-54877849D02*
X95237371Y-50674018D01*
X100035182Y-55130643D02*
X100247302Y-54877849D01*
X93476133Y-52772980D02*
X93688253Y-52520185D01*
X98486064Y-56976811D02*
X93476133Y-52772980D01*
X98698184Y-56724016D02*
X98486064Y-56976811D01*
X42704000Y-13260400D02*
X42704000Y-13590400D01*
X49244000Y-13260400D02*
X42704000Y-13260400D01*
X49244000Y-13590400D02*
X49244000Y-13260400D01*
X42704000Y-16000400D02*
X42704000Y-15670400D01*
X49244000Y-16000400D02*
X42704000Y-16000400D01*
X49244000Y-15670400D02*
X49244000Y-16000400D01*
X91543586Y-49031068D02*
X91656453Y-48720969D01*
X85397996Y-46794256D02*
X91543586Y-49031068D01*
X85510863Y-46484157D02*
X85397996Y-46794256D01*
X92480721Y-46456310D02*
X92367855Y-46766408D01*
X86335132Y-44219498D02*
X92480721Y-46456310D01*
X86222265Y-44529597D02*
X86335132Y-44219498D01*
X73645460Y-27002255D02*
X73810460Y-26716466D01*
X67981654Y-23732255D02*
X73645460Y-27002255D01*
X68146654Y-23446466D02*
X67981654Y-23732255D01*
X75015460Y-24629345D02*
X74850460Y-24915134D01*
X69351654Y-21359345D02*
X75015460Y-24629345D01*
X69186654Y-21645134D02*
X69351654Y-21359345D01*
X56384950Y-31873686D02*
X56099161Y-32038686D01*
X59654950Y-37537492D02*
X56384950Y-31873686D01*
X59369161Y-37702492D02*
X59654950Y-37537492D01*
X54012040Y-33243686D02*
X54297829Y-33078686D01*
X57282040Y-38907492D02*
X54012040Y-33243686D01*
X57567829Y-38742492D02*
X57282040Y-38907492D01*
X84919940Y-47525875D02*
X85032807Y-47215776D01*
X85032807Y-47215776D02*
X91178396Y-49452588D01*
X91178396Y-49452588D02*
X91065530Y-49762686D01*
X84208538Y-49480435D02*
X84095671Y-49790534D01*
X84095671Y-49790534D02*
X90241261Y-52027346D01*
X90241261Y-52027346D02*
X90354128Y-51717247D01*
X62131709Y-26230237D02*
X61821610Y-26117370D01*
X61821610Y-26117370D02*
X64058422Y-19971781D01*
X64058422Y-19971781D02*
X64368520Y-20084647D01*
X64086269Y-26941639D02*
X64396368Y-27054506D01*
X64396368Y-27054506D02*
X66633180Y-20908916D01*
X66633180Y-20908916D02*
X66323081Y-20796049D01*
X60190036Y-34683150D02*
X59879937Y-34796017D01*
X59879937Y-34796017D02*
X57643125Y-28650427D01*
X57643125Y-28650427D02*
X57953224Y-28537560D01*
X62144596Y-33971748D02*
X62454695Y-33858881D01*
X62454695Y-33858881D02*
X60217883Y-27713292D01*
X60217883Y-27713292D02*
X59907785Y-27826158D01*
X72163000Y-42309800D02*
X72493000Y-42309800D01*
X72163000Y-35769800D02*
X72163000Y-42309800D01*
X72493000Y-35769800D02*
X72163000Y-35769800D01*
X74903000Y-42309800D02*
X74573000Y-42309800D01*
X74903000Y-35769800D02*
X74903000Y-42309800D01*
X74573000Y-35769800D02*
X74903000Y-35769800D01*
X23144183Y-54834754D02*
X23396978Y-55046874D01*
X23396978Y-55046874D02*
X19193147Y-60056805D01*
X19193147Y-60056805D02*
X18940352Y-59844685D01*
X21550810Y-53497756D02*
X21298016Y-53285636D01*
X21298016Y-53285636D02*
X17094185Y-58295567D01*
X17094185Y-58295567D02*
X17346980Y-58507687D01*
X53517016Y-22276170D02*
X53187016Y-22276170D01*
X53517016Y-28816170D02*
X53517016Y-22276170D01*
X53187016Y-28816170D02*
X53517016Y-28816170D01*
X50777016Y-22276170D02*
X51107016Y-22276170D01*
X50777016Y-28816170D02*
X50777016Y-22276170D01*
X51107016Y-28816170D02*
X50777016Y-28816170D01*
X72485213Y-29992695D02*
X72320213Y-30278484D01*
X72320213Y-30278484D02*
X66656407Y-27008484D01*
X66656407Y-27008484D02*
X66821407Y-26722695D01*
X73525213Y-28191363D02*
X73690213Y-27905574D01*
X73690213Y-27905574D02*
X68026407Y-24635574D01*
X68026407Y-24635574D02*
X67861407Y-24921363D01*
X78078000Y-35744400D02*
X77748000Y-35744400D01*
X78078000Y-42284400D02*
X78078000Y-35744400D01*
X77748000Y-42284400D02*
X78078000Y-42284400D01*
X75338000Y-35744400D02*
X75668000Y-35744400D01*
X75338000Y-42284400D02*
X75338000Y-35744400D01*
X75668000Y-42284400D02*
X75338000Y-42284400D01*
X32344236Y-49125791D02*
X32091441Y-48913671D01*
X28140405Y-54135722D02*
X32344236Y-49125791D01*
X27887611Y-53923602D02*
X28140405Y-54135722D01*
X30245274Y-47364553D02*
X30498069Y-47576673D01*
X26041443Y-52374484D02*
X30245274Y-47364553D01*
X26294238Y-52586604D02*
X26041443Y-52374484D01*
X49383511Y-40877655D02*
X49548511Y-40591866D01*
X49548511Y-40591866D02*
X55212317Y-43861866D01*
X55212317Y-43861866D02*
X55047317Y-44147655D01*
X48343511Y-42678987D02*
X48178511Y-42964776D01*
X48178511Y-42964776D02*
X53842317Y-46234776D01*
X53842317Y-46234776D02*
X54007317Y-45948987D01*
X44456350Y-61932948D02*
X44621350Y-61647159D01*
X38792544Y-58662948D02*
X44456350Y-61932948D01*
X38957544Y-58377159D02*
X38792544Y-58662948D01*
X45826350Y-59560038D02*
X45661350Y-59845827D01*
X40162544Y-56290038D02*
X45826350Y-59560038D01*
X39997544Y-56575827D02*
X40162544Y-56290038D01*
X113089879Y-30650833D02*
X113414866Y-30593529D01*
X113414866Y-30593529D02*
X114550525Y-37034172D01*
X114550525Y-37034172D02*
X114225538Y-37091476D01*
X111041479Y-31012021D02*
X110716492Y-31069325D01*
X110716492Y-31069325D02*
X111852151Y-37509968D01*
X111852151Y-37509968D02*
X112177138Y-37452664D01*
X49012740Y-59173345D02*
X49177740Y-59459134D01*
X54676546Y-55903345D02*
X49012740Y-59173345D01*
X54841546Y-56189134D02*
X54676546Y-55903345D01*
X50382740Y-61546255D02*
X50217740Y-61260466D01*
X56046546Y-58276255D02*
X50382740Y-61546255D01*
X55881546Y-57990466D02*
X56046546Y-58276255D01*
X74671602Y-45160830D02*
X74614298Y-44835843D01*
X74614298Y-44835843D02*
X81054941Y-43700184D01*
X81054941Y-43700184D02*
X81112245Y-44025171D01*
X75032790Y-47209230D02*
X75090094Y-47534217D01*
X75090094Y-47534217D02*
X81530737Y-46398558D01*
X81530737Y-46398558D02*
X81473433Y-46073571D01*
X112171414Y-47933545D02*
X111959294Y-47680750D01*
X107161483Y-52137376D02*
X112171414Y-47933545D01*
X106949363Y-51884581D02*
X107161483Y-52137376D01*
X110410176Y-45834583D02*
X110622296Y-46087378D01*
X105400245Y-50038414D02*
X110410176Y-45834583D01*
X105612365Y-50291208D02*
X105400245Y-50038414D01*
X103047196Y-56063427D02*
X102835076Y-56316222D01*
X102835076Y-56316222D02*
X97825145Y-52112391D01*
X97825145Y-52112391D02*
X98037265Y-51859596D01*
X104384194Y-54470054D02*
X104596314Y-54217260D01*
X104596314Y-54217260D02*
X99586383Y-50013429D01*
X99586383Y-50013429D02*
X99374263Y-50266224D01*
X87357020Y-23442564D02*
X87642809Y-23607564D01*
X90627020Y-17778758D02*
X87357020Y-23442564D01*
X90912809Y-17943758D02*
X90627020Y-17778758D01*
X89729930Y-24812564D02*
X89444141Y-24647564D01*
X92999930Y-19148758D02*
X89729930Y-24812564D01*
X92714141Y-18983758D02*
X92999930Y-19148758D01*
X71674466Y-56537454D02*
X71960255Y-56702454D01*
X71960255Y-56702454D02*
X68690255Y-62366260D01*
X68690255Y-62366260D02*
X68404466Y-62201260D01*
X69873134Y-55497454D02*
X69587345Y-55332454D01*
X69587345Y-55332454D02*
X66317345Y-60996260D01*
X66317345Y-60996260D02*
X66603134Y-61161260D01*
X104961051Y-16715044D02*
X104961051Y-16385044D01*
X104961051Y-16385044D02*
X111501051Y-16385044D01*
X111501051Y-16385044D02*
X111501051Y-16715044D01*
X104961051Y-18795044D02*
X104961051Y-19125044D01*
X104961051Y-19125044D02*
X111501051Y-19125044D01*
X111501051Y-19125044D02*
X111501051Y-18795044D01*
X109422365Y-66293208D02*
X109210245Y-66040414D01*
X109210245Y-66040414D02*
X114220176Y-61836583D01*
X114220176Y-61836583D02*
X114432296Y-62089378D01*
X110759363Y-67886581D02*
X110971483Y-68139376D01*
X110971483Y-68139376D02*
X115981414Y-63935545D01*
X115981414Y-63935545D02*
X115769294Y-63682750D01*
X102802153Y-58891777D02*
X103112252Y-58778910D01*
X103112252Y-58778910D02*
X105349064Y-64924500D01*
X105349064Y-64924500D02*
X105038965Y-65037367D01*
X100847593Y-59603179D02*
X100537494Y-59716046D01*
X100537494Y-59716046D02*
X102774306Y-65861635D01*
X102774306Y-65861635D02*
X103084404Y-65748769D01*
X72163455Y-47817340D02*
X71877666Y-47652340D01*
X68893455Y-53481146D02*
X72163455Y-47817340D01*
X68607666Y-53316146D02*
X68893455Y-53481146D01*
X69790545Y-46447340D02*
X70076334Y-46612340D01*
X66520545Y-52111146D02*
X69790545Y-46447340D01*
X66806334Y-52276146D02*
X66520545Y-52111146D01*
X98952824Y-23167880D02*
X99277811Y-23225184D01*
X100088483Y-16727237D02*
X98952824Y-23167880D01*
X100413470Y-16784541D02*
X100088483Y-16727237D01*
X101651198Y-23643676D02*
X101326211Y-23586372D01*
X102786857Y-17203033D02*
X101651198Y-23643676D01*
X102461870Y-17145729D02*
X102786857Y-17203033D01*
X117932992Y-46862165D02*
X118185786Y-46650045D01*
X118185786Y-46650045D02*
X122389617Y-51659976D01*
X122389617Y-51659976D02*
X122136822Y-51872096D01*
X116339619Y-48199163D02*
X116086824Y-48411283D01*
X116086824Y-48411283D02*
X120290655Y-53421214D01*
X120290655Y-53421214D02*
X120543450Y-53209094D01*
X118440992Y-42036165D02*
X118693786Y-41824045D01*
X118693786Y-41824045D02*
X122897617Y-46833976D01*
X122897617Y-46833976D02*
X122644822Y-47046096D01*
X116847619Y-43373163D02*
X116594824Y-43585283D01*
X116594824Y-43585283D02*
X120798655Y-48595214D01*
X120798655Y-48595214D02*
X121051450Y-48383094D01*
X33709709Y-45680918D02*
X34153232Y-45152347D01*
X33786313Y-45745197D02*
X33709709Y-45680918D01*
X38780923Y-49936172D02*
X38941620Y-49744661D01*
X38704319Y-49871893D02*
X38780923Y-49936172D01*
X38575761Y-50025102D02*
X38704319Y-49871893D01*
X37616535Y-48959135D02*
X37487978Y-49112343D01*
X37380026Y-41306804D02*
G75*
G02X39225596Y-41145338I1003518J-842052D01*
G01*
X42289774Y-43716488D02*
G75*
G02X42451240Y-45562058I-842052J-1003518D01*
G01*
X39225596Y-41145338D02*
X40367002Y-42103091D01*
X34821731Y-44355661D02*
X37380026Y-41306804D01*
X42451240Y-45562058D02*
X40175772Y-48273855D01*
X41148368Y-42758734D02*
X42289774Y-43716488D01*
X33657756Y-45898405D02*
X33786313Y-45745197D01*
X34745539Y-46811164D02*
X33657756Y-45898405D01*
X34874096Y-46657955D02*
X34745539Y-46811164D01*
X37616535Y-48959135D02*
X34874096Y-46657955D01*
X38575761Y-50025102D02*
X37487978Y-49112343D01*
X34153232Y-45152347D02*
X34821731Y-44355661D01*
X38941620Y-49744661D02*
X40175772Y-48273855D01*
X40367002Y-42103091D02*
X41148368Y-42758734D01*
X81578752Y-34556418D02*
X82583256Y-34379297D01*
X86516316Y-40560230D02*
X86182911Y-38669400D01*
X79920483Y-41276466D02*
X79739889Y-40252266D01*
X86495976Y-41020759D02*
X85097549Y-41267339D01*
X85062820Y-41070378D02*
X81537208Y-41692038D01*
X81537208Y-41692038D02*
X81571938Y-41889000D01*
X81571938Y-41889000D02*
X80173511Y-42135580D01*
X80173511Y-42135580D02*
X80138781Y-41938618D01*
X82583256Y-34379297D02*
X84050619Y-34120561D01*
X85568196Y-35183180D02*
X86182911Y-38669400D01*
X79739889Y-40252266D02*
X79048769Y-36332731D01*
X80111388Y-34815154D02*
X81578752Y-34556418D01*
X84050619Y-34120561D02*
G75*
G02X85568196Y-35183180I227479J-1290098D01*
G01*
X79048769Y-36332731D02*
G75*
G02X80111388Y-34815154I1290098J227479D01*
G01*
X85062820Y-41070378D02*
X85097549Y-41267339D01*
X86495976Y-41020759D02*
X86461247Y-40823797D01*
X86461247Y-40823797D02*
X86559728Y-40806432D01*
X86559728Y-40806432D02*
X86516316Y-40560230D01*
X80138781Y-41938618D02*
X80040300Y-41955983D01*
X80040300Y-41955983D02*
X79920483Y-41276466D01*
X53448100Y-52205495D02*
X62350841Y-57345495D01*
X62458100Y-36599718D02*
X53448100Y-52205495D01*
X71360841Y-41739718D02*
X62458100Y-36599718D01*
X62350841Y-57345495D02*
X71360841Y-41739718D01*
X55634503Y-53398534D02*
X57063445Y-54223534D01*
X64584503Y-37896679D02*
X55634503Y-53398534D01*
X69174438Y-40546679D02*
X64584503Y-37896679D01*
X60224438Y-56048534D02*
X69174438Y-40546679D01*
X58795496Y-55223534D02*
X60224438Y-56048534D01*
X57063444Y-54223534D02*
G75*
G02X58795496Y-55223534I866026J-500000D01*
G01*
X41118448Y-25080167D02*
G75*
G02X39832872Y-23548077I-642788J766045D01*
G01*
X39832872Y-23548077D02*
X38772273Y-22284104D01*
X38772273Y-22284104D02*
X30897336Y-28891961D01*
X30897336Y-28891961D02*
X34304110Y-32951996D01*
X34304110Y-32951996D02*
X42179047Y-26344140D01*
X42179047Y-26344140D02*
X41118448Y-25080166D01*
X37217694Y-20338086D02*
X29250832Y-27023077D01*
X29250832Y-27023077D02*
X35858689Y-34898014D01*
X35858689Y-34898014D02*
X43825551Y-28213023D01*
X43825551Y-28213023D02*
X37217694Y-20338086D01*
X91303738Y-56494325D02*
X81643698Y-52978357D01*
X87746728Y-66267128D02*
X91303738Y-56494325D01*
X78086688Y-62751161D02*
X87746728Y-66267128D01*
X81643698Y-52978357D02*
X78086688Y-62751161D01*
X88943382Y-55699076D02*
X87392889Y-55134743D01*
X85427415Y-65359116D02*
X88943382Y-55699076D01*
X80447044Y-63546409D02*
X85427415Y-65359116D01*
X83963011Y-53886369D02*
X80447044Y-63546409D01*
X85513504Y-54450702D02*
X83963011Y-53886369D01*
X87392890Y-55134744D02*
G75*
G02X85513504Y-54450702I-939693J342021D01*
G01*
X22395205Y-57335347D02*
G75*
G02X21109629Y-58867437I-642788J-766045D01*
G01*
X21109629Y-58867437D02*
X20049030Y-60131410D01*
X20049030Y-60131410D02*
X27923966Y-66739267D01*
X27923966Y-66739267D02*
X31330741Y-62679231D01*
X31330741Y-62679231D02*
X23455804Y-56071374D01*
X23455804Y-56071374D02*
X22395204Y-57335348D01*
X18402526Y-62000293D02*
X26369388Y-68685284D01*
X26369388Y-68685284D02*
X32977245Y-60810348D01*
X32977245Y-60810348D02*
X25010382Y-54125356D01*
X25010382Y-54125356D02*
X18402526Y-62000293D01*
X49749595Y-56319975D02*
X54889595Y-47417234D01*
X40742931Y-51119975D02*
X49749595Y-56319975D01*
X45882931Y-42217234D02*
X40742931Y-51119975D01*
X54889595Y-47417234D02*
X45882931Y-42217234D01*
X50942634Y-54133572D02*
X51767634Y-52704630D01*
X42039893Y-48993572D02*
X50942634Y-54133572D01*
X44689893Y-44403637D02*
X42039893Y-48993572D01*
X53592634Y-49543637D02*
X44689893Y-44403637D01*
X52767634Y-50972579D02*
X53592634Y-49543637D01*
X51767634Y-52704631D02*
G75*
G02X52767634Y-50972579I500000J866026D01*
G01*
X118460634Y-52098683D02*
G75*
G02X117175058Y-50566593I-642788J766045D01*
G01*
X117175058Y-50566593D02*
X116114459Y-49302620D01*
X116114459Y-49302620D02*
X108239522Y-55910477D01*
X108239522Y-55910477D02*
X111646296Y-59970512D01*
X111646296Y-59970512D02*
X119521233Y-53362656D01*
X119521233Y-53362656D02*
X118460634Y-52098682D01*
X114559880Y-47356602D02*
X106593018Y-54041593D01*
X106593018Y-54041593D02*
X113200875Y-61916530D01*
X113200875Y-61916530D02*
X121167737Y-55231539D01*
X121167737Y-55231539D02*
X114559880Y-47356602D01*
X104718951Y-36798019D02*
G75*
G02X104371655Y-34828405I-173648J984807D01*
G01*
X104371655Y-34828405D02*
X104085135Y-33203472D01*
X104085135Y-33203472D02*
X86457076Y-36311774D01*
X86457076Y-36311774D02*
X87377412Y-41531255D01*
X87377412Y-41531255D02*
X105005471Y-38422953D01*
X105005471Y-38422953D02*
X104718951Y-36798020D01*
X103711840Y-30740882D02*
X85965604Y-33870022D01*
X85965604Y-33870022D02*
X87750707Y-43993846D01*
X87750707Y-43993846D02*
X105496943Y-40864705D01*
X105496943Y-40864705D02*
X103711840Y-30740882D01*
D11*
X120045171Y-59571182D02*
X119402383Y-58805137D01*
X119584775Y-58652093D01*
X119724818Y-58596744D01*
X119858993Y-58608483D01*
X119956689Y-58650831D01*
X120115603Y-58766135D01*
X120207430Y-58875570D01*
X120293387Y-59052092D01*
X120318127Y-59155658D01*
X120306388Y-59289832D01*
X120227562Y-59418137D01*
X120045171Y-59571182D01*
X120553343Y-58398828D02*
X120449777Y-58423567D01*
X120382690Y-58417698D01*
X120284994Y-58375350D01*
X120254385Y-58338872D01*
X120229645Y-58235306D01*
X120235515Y-58168219D01*
X120277862Y-58070523D01*
X120423776Y-57948087D01*
X120527341Y-57923348D01*
X120594428Y-57929217D01*
X120692125Y-57971565D01*
X120722733Y-58008043D01*
X120747473Y-58111609D01*
X120741604Y-58178696D01*
X120699256Y-58276392D01*
X120553343Y-58398828D01*
X120510995Y-58496524D01*
X120505126Y-58563611D01*
X120529865Y-58667177D01*
X120652301Y-58813090D01*
X120749997Y-58855438D01*
X120817084Y-58861307D01*
X120920650Y-58836567D01*
X121066563Y-58714132D01*
X121108911Y-58616436D01*
X121114780Y-58549348D01*
X121090041Y-58445783D01*
X120967605Y-58299870D01*
X120869909Y-58257522D01*
X120802822Y-58251652D01*
X120699256Y-58276392D01*
X29032834Y-33120801D02*
X28971800Y-33149261D01*
X28821272Y-33145148D01*
X28731777Y-33112575D01*
X28613822Y-33018968D01*
X28556901Y-32896900D01*
X28544727Y-32791119D01*
X28565126Y-32595843D01*
X28613986Y-32461601D01*
X28723880Y-32298899D01*
X28801201Y-32225691D01*
X28923269Y-32168770D01*
X29073797Y-32172883D01*
X29163292Y-32205456D01*
X29281247Y-32299063D01*
X29309707Y-32360097D01*
X29895206Y-33536029D02*
X29358239Y-33340589D01*
X29626722Y-33438309D02*
X29968743Y-32498616D01*
X29830388Y-32600284D01*
X29708320Y-32657206D01*
X29602539Y-32669380D01*
X91160941Y-65683882D02*
X91105777Y-65645255D01*
X91034074Y-65512838D01*
X91017536Y-65419046D01*
X91039625Y-65270091D01*
X91116878Y-65159761D01*
X91202400Y-65096328D01*
X91381714Y-65016356D01*
X91522401Y-64991550D01*
X91718252Y-65005369D01*
X91820312Y-65035727D01*
X91930641Y-65112980D01*
X92002344Y-65245398D01*
X92018882Y-65339189D01*
X91996793Y-65488145D01*
X91958166Y-65543310D01*
X92024318Y-65918475D02*
X92079483Y-65957101D01*
X92142916Y-66042624D01*
X92184261Y-66277102D01*
X92153903Y-66379162D01*
X92115277Y-66434326D01*
X92029754Y-66497760D01*
X91935963Y-66514298D01*
X91787007Y-66492209D01*
X91125033Y-66028689D01*
X91232529Y-66638332D01*
X54584881Y-19151892D02*
X54517794Y-19146023D01*
X54389489Y-19067197D01*
X54328271Y-18994240D01*
X54272922Y-18854197D01*
X54284661Y-18720022D01*
X54327009Y-18622326D01*
X54442313Y-18463412D01*
X54551748Y-18371585D01*
X54728270Y-18285628D01*
X54831836Y-18260888D01*
X54966010Y-18272627D01*
X55094315Y-18351453D01*
X55155533Y-18424409D01*
X55210882Y-18564453D01*
X55205012Y-18631541D01*
X55492231Y-18825671D02*
X55890147Y-19299889D01*
X55384058Y-19289412D01*
X55475885Y-19398847D01*
X55500625Y-19502413D01*
X55494755Y-19569500D01*
X55452408Y-19667196D01*
X55270016Y-19820241D01*
X55166451Y-19844980D01*
X55099363Y-19839111D01*
X55001667Y-19796763D01*
X54818014Y-19577893D01*
X54793274Y-19474328D01*
X54799143Y-19407241D01*
X66982248Y-35958975D02*
X66927083Y-35997602D01*
X66778127Y-36019691D01*
X66684336Y-36003153D01*
X66551918Y-35931450D01*
X66474665Y-35821121D01*
X66444307Y-35719061D01*
X66430487Y-35523209D01*
X66455294Y-35382523D01*
X66535266Y-35203209D01*
X66598699Y-35117687D01*
X66709028Y-35040434D01*
X66857984Y-35018345D01*
X66951775Y-35034883D01*
X67084193Y-35106585D01*
X67122820Y-35161750D01*
X67925596Y-35545069D02*
X67809831Y-36201608D01*
X67757270Y-35128560D02*
X67398757Y-35790649D01*
X68008400Y-35898145D01*
X32631575Y-54607551D02*
X32670202Y-54662716D01*
X32692291Y-54811672D01*
X32675753Y-54905463D01*
X32604050Y-55037881D01*
X32493721Y-55115134D01*
X32391661Y-55145492D01*
X32195809Y-55159312D01*
X32055123Y-55134505D01*
X31875809Y-55054533D01*
X31790287Y-54991100D01*
X31713034Y-54880771D01*
X31690945Y-54731815D01*
X31707483Y-54638024D01*
X31779185Y-54505606D01*
X31834350Y-54466979D01*
X31897669Y-53559425D02*
X31814979Y-54028381D01*
X32275666Y-54157966D01*
X32237040Y-54102801D01*
X32206682Y-54000741D01*
X32248027Y-53766263D01*
X32311460Y-53680741D01*
X32366625Y-53642114D01*
X32468685Y-53611756D01*
X32703163Y-53653101D01*
X32788685Y-53716535D01*
X32827312Y-53771699D01*
X32857670Y-53873760D01*
X32816325Y-54108238D01*
X32752891Y-54193760D01*
X32697727Y-54232386D01*
X43669891Y-56563161D02*
X43604842Y-56580591D01*
X43457314Y-56550401D01*
X43374836Y-56502782D01*
X43274927Y-56390115D01*
X43240068Y-56260017D01*
X43246447Y-56153729D01*
X43300446Y-55964962D01*
X43371875Y-55841244D01*
X43508352Y-55700096D01*
X43597211Y-55641427D01*
X43727308Y-55606568D01*
X43874836Y-55636757D01*
X43957314Y-55684376D01*
X44057223Y-55797044D01*
X44074652Y-55862093D01*
X44864579Y-56208186D02*
X44699622Y-56112947D01*
X44593334Y-56106568D01*
X44528285Y-56123998D01*
X44374378Y-56200096D01*
X44237900Y-56341244D01*
X44047424Y-56671159D01*
X44041044Y-56777447D01*
X44058474Y-56842495D01*
X44117143Y-56931354D01*
X44282100Y-57026592D01*
X44388388Y-57032972D01*
X44453437Y-57015542D01*
X44542296Y-56956873D01*
X44661343Y-56750676D01*
X44667723Y-56644388D01*
X44650293Y-56579339D01*
X44591624Y-56490481D01*
X44426667Y-56395243D01*
X44320379Y-56388863D01*
X44255330Y-56406293D01*
X44166472Y-56464962D01*
X108001081Y-59334692D02*
X107933994Y-59328823D01*
X107805689Y-59249997D01*
X107744471Y-59177040D01*
X107689122Y-59036997D01*
X107700861Y-58902822D01*
X107743209Y-58805126D01*
X107858513Y-58646212D01*
X107967948Y-58554385D01*
X108144470Y-58468428D01*
X108248036Y-58443688D01*
X108382210Y-58455427D01*
X108510515Y-58534253D01*
X108571733Y-58607209D01*
X108627082Y-58747253D01*
X108621212Y-58814341D01*
X108908431Y-59008471D02*
X109336956Y-59519167D01*
X108295432Y-59833650D01*
X76183716Y-16554978D02*
X76118667Y-16572408D01*
X75971139Y-16542218D01*
X75888661Y-16494599D01*
X75788752Y-16381932D01*
X75753893Y-16251834D01*
X75760272Y-16145546D01*
X75814271Y-15956779D01*
X75885700Y-15833061D01*
X76022177Y-15691913D01*
X76111036Y-15633244D01*
X76241133Y-15598385D01*
X76388661Y-15628574D01*
X76471139Y-15676193D01*
X76571048Y-15788861D01*
X76588477Y-15853910D01*
X76916682Y-16428299D02*
X76858013Y-16339441D01*
X76840584Y-16274392D01*
X76846963Y-16168104D01*
X76870773Y-16126865D01*
X76959631Y-16068195D01*
X77024680Y-16050766D01*
X77130968Y-16057145D01*
X77295925Y-16152384D01*
X77354594Y-16241242D01*
X77372024Y-16306291D01*
X77365644Y-16412579D01*
X77341835Y-16453818D01*
X77252977Y-16512487D01*
X77187928Y-16529917D01*
X77081640Y-16523537D01*
X76916682Y-16428299D01*
X76810394Y-16421919D01*
X76745345Y-16439349D01*
X76656487Y-16498018D01*
X76561249Y-16662976D01*
X76554869Y-16769264D01*
X76572299Y-16834312D01*
X76630968Y-16923171D01*
X76795925Y-17018409D01*
X76902213Y-17024789D01*
X76967262Y-17007359D01*
X77056121Y-16948690D01*
X77151359Y-16783733D01*
X77157738Y-16677444D01*
X77140309Y-16612396D01*
X77081640Y-16523537D01*
X81581661Y-14217786D02*
X81553201Y-14278820D01*
X81435245Y-14372428D01*
X81345751Y-14405001D01*
X81195222Y-14409114D01*
X81073154Y-14352193D01*
X80995834Y-14278985D01*
X80885940Y-14116282D01*
X80837080Y-13982040D01*
X80816680Y-13786765D01*
X80828854Y-13680983D01*
X80885776Y-13558916D01*
X81003731Y-13465308D01*
X81093225Y-13432735D01*
X81243754Y-13428622D01*
X81304788Y-13457083D01*
X82061707Y-14144414D02*
X82240696Y-14079267D01*
X82313904Y-14001947D01*
X82342365Y-13940913D01*
X82382999Y-13774098D01*
X82362600Y-13578822D01*
X82232306Y-13220844D01*
X82154986Y-13147636D01*
X82093952Y-13119175D01*
X81988171Y-13107002D01*
X81809182Y-13172148D01*
X81735974Y-13249469D01*
X81707513Y-13310503D01*
X81695339Y-13416284D01*
X81776773Y-13640020D01*
X81854093Y-13713228D01*
X81915127Y-13741689D01*
X82020908Y-13753863D01*
X82199897Y-13688716D01*
X82273105Y-13611395D01*
X82301566Y-13550361D01*
X82313740Y-13444580D01*
X30814971Y-21852181D02*
X30172183Y-21086136D01*
X30354575Y-20933092D01*
X30494618Y-20877743D01*
X30628793Y-20889482D01*
X30726489Y-20931830D01*
X30885403Y-21047134D01*
X30977230Y-21156569D01*
X31063187Y-21333091D01*
X31087927Y-21436657D01*
X31076188Y-21570831D01*
X30997362Y-21699136D01*
X30814971Y-21852181D01*
X31982276Y-20872695D02*
X31544537Y-21240002D01*
X31763407Y-21056349D02*
X31120619Y-20290304D01*
X31139489Y-20460957D01*
X31127750Y-20595131D01*
X31085403Y-20692828D01*
X77922054Y-58404706D02*
X76982361Y-58062685D01*
X77063795Y-57838949D01*
X77157402Y-57720994D01*
X77279470Y-57664073D01*
X77385251Y-57651899D01*
X77580527Y-57672298D01*
X77714769Y-57721158D01*
X77877471Y-57831052D01*
X77950679Y-57908373D01*
X78007600Y-58030441D01*
X78003487Y-58180969D01*
X77922054Y-58404706D01*
X77397589Y-57200313D02*
X77369129Y-57139279D01*
X77356955Y-57033498D01*
X77438388Y-56809762D01*
X77515709Y-56736554D01*
X77576743Y-56708093D01*
X77682524Y-56695920D01*
X77772019Y-56728493D01*
X77889974Y-56822100D01*
X78231501Y-57554507D01*
X78443228Y-56972793D01*
X28681371Y-18880382D02*
X28038583Y-18114337D01*
X28220975Y-17961293D01*
X28361018Y-17905944D01*
X28495193Y-17917683D01*
X28592889Y-17960031D01*
X28751803Y-18075335D01*
X28843630Y-18184770D01*
X28929587Y-18361292D01*
X28954327Y-18464858D01*
X28942588Y-18599032D01*
X28863762Y-18727337D01*
X28681371Y-18880382D01*
X28731671Y-17532768D02*
X29205889Y-17134852D01*
X29195412Y-17640941D01*
X29304847Y-17549114D01*
X29408413Y-17524374D01*
X29475500Y-17530244D01*
X29573196Y-17572591D01*
X29726241Y-17754983D01*
X29750980Y-17858548D01*
X29745111Y-17925636D01*
X29702763Y-18023332D01*
X29483893Y-18206985D01*
X29380328Y-18231725D01*
X29313241Y-18225856D01*
X74950256Y-56956906D02*
X74010563Y-56614885D01*
X74091997Y-56391149D01*
X74185604Y-56273194D01*
X74307672Y-56216273D01*
X74413453Y-56204099D01*
X74608729Y-56224498D01*
X74742971Y-56273358D01*
X74905673Y-56383252D01*
X74978881Y-56460573D01*
X75035802Y-56582641D01*
X75031689Y-56733169D01*
X74950256Y-56956906D01*
X74812395Y-55386474D02*
X75438856Y-55614488D01*
X74372983Y-55479917D02*
X74962759Y-55947953D01*
X75174485Y-55366239D01*
X61054981Y-18312221D02*
X60554981Y-17446195D01*
X60761177Y-17327147D01*
X60908705Y-17296958D01*
X61038802Y-17331818D01*
X61127661Y-17390487D01*
X61264138Y-17531635D01*
X61335567Y-17655352D01*
X61389565Y-17844119D01*
X61395945Y-17950407D01*
X61361086Y-18080505D01*
X61261177Y-18193173D01*
X61054981Y-18312221D01*
X61833399Y-16708100D02*
X61421006Y-16946195D01*
X61617862Y-17382398D01*
X61635292Y-17317349D01*
X61693961Y-17228491D01*
X61900157Y-17109443D01*
X62006446Y-17103063D01*
X62071494Y-17120493D01*
X62160353Y-17179162D01*
X62279400Y-17385359D01*
X62285780Y-17491647D01*
X62268350Y-17556695D01*
X62209681Y-17645554D01*
X62003485Y-17764601D01*
X61897197Y-17770981D01*
X61832148Y-17753551D01*
X58540381Y-23798621D02*
X58040381Y-22932595D01*
X58246577Y-22813547D01*
X58394105Y-22783358D01*
X58524202Y-22818218D01*
X58613061Y-22876887D01*
X58749538Y-23018035D01*
X58820967Y-23141752D01*
X58874965Y-23330519D01*
X58881345Y-23436807D01*
X58846486Y-23566905D01*
X58746577Y-23679573D01*
X58540381Y-23798621D01*
X59277560Y-22218309D02*
X59112603Y-22313547D01*
X59053934Y-22402406D01*
X59036504Y-22467455D01*
X59025454Y-22638792D01*
X59079453Y-22827558D01*
X59269929Y-23157473D01*
X59358787Y-23216142D01*
X59423836Y-23233572D01*
X59530124Y-23227192D01*
X59695081Y-23131954D01*
X59753750Y-23043095D01*
X59771180Y-22978047D01*
X59764800Y-22871759D01*
X59645753Y-22665562D01*
X59556894Y-22606893D01*
X59491846Y-22589463D01*
X59385557Y-22595843D01*
X59220600Y-22691081D01*
X59161931Y-22779939D01*
X59144501Y-22844988D01*
X59150881Y-22951276D01*
X68146400Y-31442525D02*
X68646400Y-30576500D01*
X68852596Y-30695547D01*
X68952505Y-30808215D01*
X68987364Y-30938313D01*
X68980985Y-31044601D01*
X68926986Y-31233368D01*
X68855557Y-31357086D01*
X68719080Y-31498234D01*
X68630221Y-31556903D01*
X68500124Y-31591762D01*
X68352596Y-31561573D01*
X68146400Y-31442525D01*
X69429947Y-31028881D02*
X70007297Y-31362214D01*
X69136143Y-32013954D01*
X27336761Y-39333419D02*
X27241523Y-39285800D01*
X27146285Y-39190561D01*
X27003428Y-39047704D01*
X26908190Y-39000085D01*
X26812952Y-39000085D01*
X26860571Y-39238180D02*
X26765333Y-39190561D01*
X26670095Y-39095323D01*
X26622476Y-38904847D01*
X26622476Y-38571514D01*
X26670095Y-38381038D01*
X26765333Y-38285800D01*
X26860571Y-38238180D01*
X27051047Y-38238180D01*
X27146285Y-38285800D01*
X27241523Y-38381038D01*
X27289142Y-38571514D01*
X27289142Y-38904847D01*
X27241523Y-39095323D01*
X27146285Y-39190561D01*
X27051047Y-39238180D01*
X26860571Y-39238180D01*
X28241523Y-39238180D02*
X27670095Y-39238180D01*
X27955809Y-39238180D02*
X27955809Y-38238180D01*
X27860571Y-38381038D01*
X27765333Y-38476276D01*
X27670095Y-38523895D01*
X101971281Y-32055719D02*
X101869221Y-32025361D01*
X101758892Y-31948108D01*
X101593398Y-31832228D01*
X101491338Y-31801870D01*
X101397547Y-31818408D01*
X101485787Y-32044617D02*
X101383727Y-32014260D01*
X101273398Y-31937006D01*
X101193427Y-31757693D01*
X101135544Y-31429424D01*
X101149364Y-31233572D01*
X101226617Y-31123243D01*
X101312139Y-31059810D01*
X101499722Y-31026734D01*
X101601782Y-31057091D01*
X101712111Y-31134345D01*
X101792082Y-31313658D01*
X101849965Y-31641927D01*
X101836145Y-31837779D01*
X101758892Y-31948108D01*
X101673370Y-32011541D01*
X101485787Y-32044617D01*
X102125902Y-31013028D02*
X102164529Y-30957864D01*
X102250051Y-30894430D01*
X102484529Y-30853086D01*
X102586590Y-30883443D01*
X102641754Y-30922070D01*
X102705188Y-31007592D01*
X102721726Y-31101383D01*
X102699637Y-31250339D01*
X102236117Y-31912314D01*
X102845760Y-31804817D01*
X45116762Y-35853619D02*
X45021524Y-35806000D01*
X44926286Y-35710761D01*
X44783429Y-35567904D01*
X44688191Y-35520285D01*
X44592953Y-35520285D01*
X44640572Y-35758380D02*
X44545334Y-35710761D01*
X44450096Y-35615523D01*
X44402477Y-35425047D01*
X44402477Y-35091714D01*
X44450096Y-34901238D01*
X44545334Y-34806000D01*
X44640572Y-34758380D01*
X44831048Y-34758380D01*
X44926286Y-34806000D01*
X45021524Y-34901238D01*
X45069143Y-35091714D01*
X45069143Y-35425047D01*
X45021524Y-35615523D01*
X44926286Y-35710761D01*
X44831048Y-35758380D01*
X44640572Y-35758380D01*
X45402477Y-34758380D02*
X46021524Y-34758380D01*
X45688191Y-35139333D01*
X45831048Y-35139333D01*
X45926286Y-35186952D01*
X45973905Y-35234571D01*
X46021524Y-35329809D01*
X46021524Y-35567904D01*
X45973905Y-35663142D01*
X45926286Y-35710761D01*
X45831048Y-35758380D01*
X45545334Y-35758380D01*
X45450096Y-35710761D01*
X45402477Y-35663142D01*
X92690961Y-55843419D02*
X92595723Y-55795800D01*
X92500485Y-55700561D01*
X92357628Y-55557704D01*
X92262390Y-55510085D01*
X92167152Y-55510085D01*
X92214771Y-55748180D02*
X92119533Y-55700561D01*
X92024295Y-55605323D01*
X91976676Y-55414847D01*
X91976676Y-55081514D01*
X92024295Y-54891038D01*
X92119533Y-54795800D01*
X92214771Y-54748180D01*
X92405247Y-54748180D01*
X92500485Y-54795800D01*
X92595723Y-54891038D01*
X92643342Y-55081514D01*
X92643342Y-55414847D01*
X92595723Y-55605323D01*
X92500485Y-55700561D01*
X92405247Y-55748180D01*
X92214771Y-55748180D01*
X93500485Y-55081514D02*
X93500485Y-55748180D01*
X93262390Y-54700561D02*
X93024295Y-55414847D01*
X93643342Y-55414847D01*
X21443251Y-32301306D02*
X20916481Y-32055580D01*
X20948380Y-32587021D02*
X20448380Y-31720995D01*
X20778294Y-31530519D01*
X20884582Y-31524139D01*
X20949631Y-31541569D01*
X21038490Y-31600238D01*
X21109918Y-31723956D01*
X21116298Y-31830244D01*
X21098868Y-31895293D01*
X21040199Y-31984151D01*
X20710285Y-32174627D01*
X22268038Y-31825116D02*
X21773166Y-32110830D01*
X22020602Y-31967973D02*
X21520602Y-31101947D01*
X21509552Y-31273284D01*
X21474692Y-31403382D01*
X21416023Y-31492240D01*
X84745710Y-68158366D02*
X84500130Y-67631528D01*
X84182962Y-68059139D02*
X84356611Y-67074331D01*
X84731775Y-67140483D01*
X84817298Y-67203916D01*
X84855924Y-67259081D01*
X84886282Y-67361141D01*
X84861475Y-67501828D01*
X84798042Y-67587350D01*
X84742877Y-67625977D01*
X84640817Y-67656334D01*
X84265652Y-67590183D01*
X85277985Y-67333502D02*
X85333149Y-67294875D01*
X85435210Y-67264517D01*
X85669688Y-67305862D01*
X85755210Y-67369296D01*
X85793837Y-67424460D01*
X85824194Y-67526520D01*
X85807656Y-67620312D01*
X85735954Y-67752729D01*
X85073979Y-68216249D01*
X85683622Y-68323746D01*
X23780052Y-26916505D02*
X23253282Y-26670779D01*
X23285181Y-27202220D02*
X22785181Y-26336194D01*
X23115095Y-26145718D01*
X23221383Y-26139338D01*
X23286432Y-26156768D01*
X23375291Y-26215437D01*
X23446719Y-26339155D01*
X23453099Y-26445443D01*
X23435669Y-26510492D01*
X23377000Y-26599350D01*
X23047086Y-26789826D01*
X23568728Y-25883813D02*
X24104839Y-25574289D01*
X24006640Y-26070870D01*
X24130357Y-25999442D01*
X24236646Y-25993062D01*
X24301694Y-26010492D01*
X24390553Y-26069161D01*
X24509600Y-26275358D01*
X24515980Y-26381646D01*
X24498550Y-26446694D01*
X24439881Y-26535553D01*
X24192445Y-26678410D01*
X24086157Y-26684790D01*
X24021108Y-26667360D01*
X74940471Y-63732239D02*
X74889892Y-63153179D01*
X74445600Y-63446524D02*
X74945600Y-62580499D01*
X75275514Y-62770975D01*
X75334183Y-62859833D01*
X75351613Y-62924882D01*
X75345233Y-63031170D01*
X75273805Y-63154888D01*
X75184946Y-63213557D01*
X75119898Y-63230987D01*
X75013609Y-63224607D01*
X74683695Y-63034131D01*
X76016112Y-63583460D02*
X75682779Y-64160810D01*
X76000392Y-63134498D02*
X75437053Y-63634040D01*
X75973164Y-63943563D01*
X15870180Y-40451066D02*
X15393990Y-40784400D01*
X15870180Y-41022495D02*
X14870180Y-41022495D01*
X14870180Y-40641542D01*
X14917800Y-40546304D01*
X14965419Y-40498685D01*
X15060657Y-40451066D01*
X15203514Y-40451066D01*
X15298752Y-40498685D01*
X15346371Y-40546304D01*
X15393990Y-40641542D01*
X15393990Y-41022495D01*
X14870180Y-39546304D02*
X14870180Y-40022495D01*
X15346371Y-40070114D01*
X15298752Y-40022495D01*
X15251133Y-39927257D01*
X15251133Y-39689161D01*
X15298752Y-39593923D01*
X15346371Y-39546304D01*
X15441609Y-39498685D01*
X15679704Y-39498685D01*
X15774942Y-39546304D01*
X15822561Y-39593923D01*
X15870180Y-39689161D01*
X15870180Y-39927257D01*
X15822561Y-40022495D01*
X15774942Y-40070114D01*
X108110550Y-24222220D02*
X108521623Y-23811261D01*
X108011322Y-23659473D02*
X108996130Y-23485825D01*
X109062282Y-23860989D01*
X109031924Y-23963050D01*
X108993297Y-24018214D01*
X108907775Y-24081648D01*
X108767088Y-24106455D01*
X108665028Y-24076097D01*
X108609864Y-24037470D01*
X108546430Y-23951948D01*
X108480278Y-23576783D01*
X109244199Y-24892693D02*
X109211123Y-24705110D01*
X109147690Y-24619588D01*
X109092525Y-24580961D01*
X108935300Y-24511977D01*
X108739449Y-24498157D01*
X108364284Y-24564309D01*
X108278762Y-24627743D01*
X108240135Y-24682907D01*
X108209777Y-24784967D01*
X108242853Y-24972550D01*
X108306287Y-25058072D01*
X108361451Y-25096699D01*
X108463512Y-25127056D01*
X108697990Y-25085712D01*
X108783512Y-25022278D01*
X108822138Y-24967113D01*
X108852496Y-24865053D01*
X108819420Y-24677471D01*
X108755987Y-24591949D01*
X108700822Y-24553322D01*
X108598762Y-24522964D01*
X56856510Y-64678566D02*
X56610930Y-64151728D01*
X56293762Y-64579339D02*
X56467411Y-63594531D01*
X56842575Y-63660683D01*
X56928098Y-63724116D01*
X56966724Y-63779281D01*
X56997082Y-63881341D01*
X56972275Y-64022028D01*
X56908842Y-64107550D01*
X56853677Y-64146177D01*
X56751617Y-64176534D01*
X56376452Y-64110383D01*
X57358427Y-63751641D02*
X58014966Y-63867407D01*
X57419257Y-64777794D01*
X108974150Y-34610820D02*
X109385223Y-34199861D01*
X108874922Y-34048073D02*
X109859730Y-33874425D01*
X109925882Y-34249589D01*
X109895524Y-34351650D01*
X109856897Y-34406814D01*
X109771375Y-34470248D01*
X109630688Y-34495055D01*
X109528628Y-34464697D01*
X109473464Y-34426070D01*
X109410030Y-34340548D01*
X109343878Y-33965383D01*
X109636125Y-35074340D02*
X109666482Y-34972280D01*
X109705109Y-34917115D01*
X109790631Y-34853681D01*
X109837527Y-34845413D01*
X109939587Y-34875770D01*
X109994752Y-34914397D01*
X110058185Y-34999919D01*
X110091261Y-35187502D01*
X110060903Y-35289562D01*
X110022277Y-35344726D01*
X109936754Y-35408160D01*
X109889859Y-35416429D01*
X109787799Y-35386071D01*
X109732634Y-35347444D01*
X109669201Y-35261922D01*
X109636125Y-35074340D01*
X109572691Y-34988818D01*
X109517527Y-34950191D01*
X109415466Y-34919833D01*
X109227884Y-34952909D01*
X109142362Y-35016343D01*
X109103735Y-35071507D01*
X109073377Y-35173567D01*
X109106453Y-35361150D01*
X109169887Y-35446672D01*
X109225051Y-35485299D01*
X109327112Y-35515656D01*
X109514694Y-35482580D01*
X109600216Y-35419147D01*
X109638843Y-35363982D01*
X109669201Y-35261922D01*
X22789452Y-47033306D02*
X22262682Y-46787580D01*
X22294581Y-47319021D02*
X21794581Y-46452995D01*
X22124495Y-46262519D01*
X22230783Y-46256139D01*
X22295832Y-46273569D01*
X22384691Y-46332238D01*
X22456119Y-46455956D01*
X22462499Y-46562244D01*
X22445069Y-46627293D01*
X22386400Y-46716151D01*
X22056486Y-46906627D01*
X23201845Y-46795211D02*
X23366803Y-46699973D01*
X23425472Y-46611115D01*
X23442902Y-46546066D01*
X23453952Y-46374729D01*
X23399953Y-46185962D01*
X23209477Y-45856048D01*
X23120618Y-45797378D01*
X23055569Y-45779949D01*
X22949281Y-45786328D01*
X22784324Y-45881567D01*
X22725655Y-45970425D01*
X22708225Y-46035474D01*
X22714605Y-46141762D01*
X22833653Y-46347958D01*
X22922511Y-46406627D01*
X22987560Y-46424057D01*
X23093848Y-46417678D01*
X23258805Y-46322439D01*
X23317474Y-46233581D01*
X23334904Y-46168532D01*
X23328524Y-46062244D01*
X86440464Y-28954339D02*
X86029505Y-28543265D01*
X85877717Y-29053566D02*
X85704068Y-28068759D01*
X86079233Y-28002607D01*
X86181293Y-28032965D01*
X86236458Y-28071591D01*
X86299892Y-28157113D01*
X86324698Y-28297800D01*
X86294341Y-28399860D01*
X86255714Y-28455025D01*
X86170192Y-28518459D01*
X85795027Y-28584610D01*
X87378376Y-28788960D02*
X86815629Y-28888187D01*
X87097002Y-28838573D02*
X86923354Y-27853766D01*
X86854370Y-28010990D01*
X86777117Y-28121319D01*
X86691594Y-28184753D01*
X87814371Y-27696655D02*
X87908162Y-27680117D01*
X88010222Y-27710475D01*
X88065387Y-27749102D01*
X88128820Y-27834624D01*
X88208792Y-28013937D01*
X88250137Y-28248415D01*
X88236317Y-28444267D01*
X88205959Y-28546327D01*
X88167332Y-28601492D01*
X88081810Y-28664925D01*
X87988019Y-28681463D01*
X87885959Y-28651105D01*
X87830794Y-28612479D01*
X87767361Y-28526956D01*
X87687389Y-28347643D01*
X87646044Y-28113165D01*
X87659864Y-27917314D01*
X87690222Y-27815253D01*
X87728849Y-27760089D01*
X87814371Y-27696655D01*
X22610264Y-36726739D02*
X22199305Y-36315665D01*
X22047517Y-36825966D02*
X21873868Y-35841159D01*
X22249033Y-35775007D01*
X22351093Y-35805365D01*
X22406258Y-35843991D01*
X22469692Y-35929513D01*
X22494498Y-36070200D01*
X22464141Y-36172260D01*
X22425514Y-36227425D01*
X22339992Y-36290859D01*
X21964827Y-36357010D01*
X23548176Y-36561360D02*
X22985429Y-36660587D01*
X23266802Y-36610973D02*
X23093154Y-35626166D01*
X23024170Y-35783390D01*
X22946917Y-35893719D01*
X22861394Y-35957153D01*
X24486088Y-36395980D02*
X23923341Y-36495208D01*
X24204715Y-36445594D02*
X24031066Y-35460786D01*
X23962082Y-35618011D01*
X23884829Y-35728340D01*
X23799307Y-35791774D01*
X104548060Y-24566064D02*
X104959134Y-24155105D01*
X104448833Y-24003317D02*
X105433640Y-23829668D01*
X105499792Y-24204833D01*
X105469434Y-24306893D01*
X105430808Y-24362058D01*
X105345286Y-24425492D01*
X105204599Y-24450298D01*
X105102539Y-24419941D01*
X105047374Y-24381314D01*
X104983940Y-24295792D01*
X104917789Y-23920627D01*
X104713439Y-25503976D02*
X104614212Y-24941229D01*
X104663826Y-25222602D02*
X105648633Y-25048954D01*
X105491409Y-24979970D01*
X105381080Y-24902717D01*
X105317646Y-24817194D01*
X105670608Y-25722031D02*
X105725772Y-25760657D01*
X105789206Y-25846180D01*
X105830551Y-26080658D01*
X105800193Y-26182718D01*
X105761566Y-26237882D01*
X105676044Y-26301316D01*
X105582253Y-26317854D01*
X105433297Y-26295765D01*
X104771322Y-25832245D01*
X104878819Y-26441888D01*
X64332344Y-59228321D02*
X63753285Y-59278900D01*
X64046630Y-59723192D02*
X63180605Y-59223192D01*
X63371081Y-58893278D01*
X63459939Y-58834609D01*
X63524988Y-58817179D01*
X63631276Y-58823559D01*
X63754994Y-58894987D01*
X63813663Y-58983846D01*
X63831093Y-59048894D01*
X63824713Y-59155183D01*
X63634237Y-59485097D01*
X64808535Y-58403534D02*
X64522821Y-58898406D01*
X64665678Y-58650970D02*
X63799652Y-58150970D01*
X63875751Y-58304878D01*
X63910611Y-58434975D01*
X63904231Y-58541263D01*
X64109176Y-57614859D02*
X64418700Y-57078748D01*
X64581948Y-57557900D01*
X64653376Y-57434182D01*
X64742235Y-57375513D01*
X64807283Y-57358083D01*
X64913572Y-57364463D01*
X65119768Y-57483510D01*
X65178437Y-57572369D01*
X65195867Y-57637417D01*
X65189487Y-57743706D01*
X65046630Y-57991141D01*
X64957772Y-58049811D01*
X64892723Y-58067240D01*
X105945060Y-35030864D02*
X106356134Y-34619905D01*
X105845833Y-34468117D02*
X106830640Y-34294468D01*
X106896792Y-34669633D01*
X106866434Y-34771693D01*
X106827808Y-34826858D01*
X106742286Y-34890292D01*
X106601599Y-34915098D01*
X106499539Y-34884741D01*
X106444374Y-34846114D01*
X106380940Y-34760592D01*
X106314789Y-34385427D01*
X106110439Y-35968776D02*
X106011212Y-35406029D01*
X106060826Y-35687402D02*
X107045633Y-35513754D01*
X106888409Y-35444770D01*
X106778080Y-35367517D01*
X106714646Y-35281994D01*
X106915819Y-36697132D02*
X106259281Y-36812897D01*
X107249639Y-36396502D02*
X106504860Y-36286058D01*
X106612357Y-36895701D01*
X31632523Y-40458042D02*
X31053477Y-40407300D01*
X31265216Y-40895781D02*
X30499171Y-40252994D01*
X30744043Y-39961167D01*
X30841739Y-39918819D01*
X30908826Y-39912950D01*
X31012392Y-39937690D01*
X31121827Y-40029516D01*
X31164174Y-40127213D01*
X31170044Y-40194300D01*
X31145304Y-40297865D01*
X30900433Y-40589692D01*
X32244701Y-39728475D02*
X31877394Y-40166215D01*
X32061048Y-39947345D02*
X31295003Y-39304558D01*
X31343220Y-39469341D01*
X31354959Y-39603516D01*
X31330220Y-39707081D01*
X32060227Y-38392600D02*
X31754137Y-38757383D01*
X32088312Y-39099951D01*
X32082442Y-39032863D01*
X32107182Y-38929298D01*
X32260226Y-38746906D01*
X32357923Y-38704559D01*
X32425010Y-38698689D01*
X32528575Y-38723429D01*
X32710967Y-38876474D01*
X32753315Y-38974170D01*
X32759184Y-39041257D01*
X32734444Y-39144822D01*
X32581400Y-39327214D01*
X32483704Y-39369562D01*
X32416616Y-39375431D01*
X34350323Y-42718642D02*
X33771277Y-42667900D01*
X33983016Y-43156381D02*
X33216971Y-42513594D01*
X33461843Y-42221767D01*
X33559539Y-42179419D01*
X33626626Y-42173550D01*
X33730192Y-42198290D01*
X33839627Y-42290116D01*
X33881974Y-42387813D01*
X33887844Y-42454900D01*
X33863104Y-42558465D01*
X33618233Y-42850292D01*
X34962501Y-41989075D02*
X34595194Y-42426815D01*
X34778848Y-42207945D02*
X34012803Y-41565158D01*
X34061020Y-41729941D01*
X34072759Y-41864116D01*
X34048020Y-41967681D01*
X34747418Y-40689678D02*
X34624982Y-40835591D01*
X34600243Y-40939157D01*
X34606112Y-41006244D01*
X34654329Y-41171028D01*
X34769633Y-41329942D01*
X35061460Y-41574813D01*
X35165025Y-41599553D01*
X35232113Y-41593683D01*
X35329809Y-41551336D01*
X35452244Y-41405422D01*
X35476984Y-41301857D01*
X35471115Y-41234770D01*
X35428767Y-41137074D01*
X35246375Y-40984029D01*
X35142810Y-40959289D01*
X35075723Y-40965159D01*
X34978026Y-41007506D01*
X34855591Y-41153420D01*
X34830851Y-41256985D01*
X34836721Y-41324072D01*
X34879068Y-41421769D01*
X96039060Y-25937664D02*
X96450134Y-25526705D01*
X95939833Y-25374917D02*
X96924640Y-25201268D01*
X96990792Y-25576433D01*
X96960434Y-25678493D01*
X96921808Y-25733658D01*
X96836286Y-25797092D01*
X96695599Y-25821898D01*
X96593539Y-25791541D01*
X96538374Y-25752914D01*
X96474940Y-25667392D01*
X96408789Y-25292227D01*
X96204439Y-26875576D02*
X96105212Y-26312829D01*
X96154826Y-26594202D02*
X97139633Y-26420554D01*
X96982409Y-26351570D01*
X96872080Y-26274317D01*
X96808646Y-26188794D01*
X97247130Y-27030197D02*
X97362895Y-27686736D01*
X96303667Y-27438323D01*
X87126264Y-31976939D02*
X86715305Y-31565865D01*
X86563517Y-32076166D02*
X86389868Y-31091359D01*
X86765033Y-31025207D01*
X86867093Y-31055565D01*
X86922258Y-31094191D01*
X86985692Y-31179713D01*
X87010498Y-31320400D01*
X86980141Y-31422460D01*
X86941514Y-31477625D01*
X86855992Y-31541059D01*
X86480827Y-31607210D01*
X88064176Y-31811560D02*
X87501429Y-31910787D01*
X87782802Y-31861173D02*
X87609154Y-30876366D01*
X87540170Y-31033590D01*
X87462917Y-31143919D01*
X87377394Y-31207353D01*
X88527696Y-31149585D02*
X88425636Y-31119227D01*
X88370471Y-31080600D01*
X88307038Y-30995078D01*
X88298769Y-30948183D01*
X88329126Y-30846122D01*
X88367753Y-30790958D01*
X88453275Y-30727524D01*
X88640858Y-30694448D01*
X88742918Y-30724806D01*
X88798082Y-30763433D01*
X88861516Y-30848955D01*
X88869785Y-30895851D01*
X88839427Y-30997911D01*
X88800801Y-31053075D01*
X88715278Y-31116509D01*
X88527696Y-31149585D01*
X88442174Y-31213018D01*
X88403547Y-31268183D01*
X88373189Y-31370243D01*
X88406265Y-31557825D01*
X88469699Y-31643348D01*
X88524863Y-31681974D01*
X88626923Y-31712332D01*
X88814506Y-31679256D01*
X88900028Y-31615823D01*
X88938655Y-31560658D01*
X88969012Y-31458598D01*
X88935937Y-31271015D01*
X88872503Y-31185493D01*
X88817338Y-31146867D01*
X88715278Y-31116509D01*
X36961157Y-18373723D02*
X37011899Y-17794677D01*
X36523418Y-18006416D02*
X37166205Y-17240371D01*
X37458032Y-17485243D01*
X37500380Y-17582939D01*
X37506249Y-17650026D01*
X37481509Y-17753592D01*
X37389683Y-17863027D01*
X37291986Y-17905374D01*
X37224899Y-17911244D01*
X37121334Y-17886504D01*
X36829507Y-17641633D01*
X37690724Y-18985901D02*
X37252984Y-18618594D01*
X37471854Y-18802248D02*
X38114641Y-18036203D01*
X37949858Y-18084420D01*
X37815683Y-18096159D01*
X37712118Y-18071420D01*
X38055507Y-19291991D02*
X38201420Y-19414427D01*
X38304985Y-19439166D01*
X38372073Y-19433297D01*
X38536856Y-19385080D01*
X38695770Y-19269775D01*
X38940642Y-18977949D01*
X38965381Y-18874383D01*
X38959512Y-18807296D01*
X38917164Y-18709600D01*
X38771251Y-18587164D01*
X38667685Y-18562425D01*
X38600598Y-18568294D01*
X38502902Y-18610642D01*
X38349857Y-18793033D01*
X38325118Y-18896599D01*
X38330987Y-18963686D01*
X38373335Y-19061382D01*
X38519248Y-19183818D01*
X38622814Y-19208558D01*
X38689901Y-19202688D01*
X38787597Y-19160340D01*
X86439388Y-53392828D02*
X86289024Y-52831349D01*
X85902421Y-53197388D02*
X86244441Y-52257696D01*
X86602419Y-52387989D01*
X86675627Y-52465310D01*
X86704088Y-52526344D01*
X86716261Y-52632125D01*
X86667401Y-52766367D01*
X86590081Y-52839575D01*
X86529047Y-52868035D01*
X86423266Y-52880209D01*
X86065288Y-52749916D01*
X87106813Y-52672924D02*
X87167847Y-52644463D01*
X87273628Y-52632289D01*
X87497364Y-52713723D01*
X87570572Y-52791043D01*
X87599033Y-52852077D01*
X87611207Y-52957858D01*
X87578633Y-53047353D01*
X87485026Y-53165308D01*
X86752619Y-53506835D01*
X87334333Y-53718562D01*
X88258068Y-52990596D02*
X88347562Y-53023169D01*
X88420770Y-53100490D01*
X88449231Y-53161524D01*
X88461405Y-53267305D01*
X88441005Y-53462581D01*
X88359572Y-53686317D01*
X88249678Y-53849020D01*
X88172358Y-53922228D01*
X88111324Y-53950688D01*
X88005542Y-53962862D01*
X87916048Y-53930289D01*
X87842840Y-53852968D01*
X87814379Y-53791934D01*
X87802205Y-53686153D01*
X87822605Y-53490877D01*
X87904038Y-53267141D01*
X88013932Y-53104438D01*
X88091253Y-53031231D01*
X88152287Y-53002770D01*
X88258068Y-52990596D01*
X39346835Y-38126927D02*
X39497356Y-37565490D01*
X38979528Y-37689188D02*
X39745572Y-37046400D01*
X39990444Y-37338226D01*
X40015183Y-37441792D01*
X40009314Y-37508879D01*
X39966966Y-37606575D01*
X39857531Y-37698402D01*
X39753966Y-37723142D01*
X39686878Y-37717272D01*
X39589182Y-37674925D01*
X39344311Y-37383098D01*
X40284794Y-37837184D02*
X40351882Y-37843053D01*
X40449578Y-37885401D01*
X40602622Y-38067793D01*
X40627362Y-38171358D01*
X40621493Y-38238445D01*
X40579145Y-38336141D01*
X40506188Y-38397359D01*
X40366144Y-38452708D01*
X39561098Y-38382275D01*
X39959014Y-38856493D01*
X40571192Y-39586060D02*
X40203885Y-39148320D01*
X40387539Y-39367190D02*
X41153583Y-38724402D01*
X40982930Y-38743272D01*
X40848756Y-38731533D01*
X40751060Y-38689186D01*
X93092660Y-26496464D02*
X93503734Y-26085505D01*
X92993433Y-25933717D02*
X93978240Y-25760068D01*
X94044392Y-26135233D01*
X94014034Y-26237293D01*
X93975408Y-26292458D01*
X93889886Y-26355892D01*
X93749199Y-26380698D01*
X93647139Y-26350341D01*
X93591974Y-26311714D01*
X93528540Y-26226192D01*
X93462389Y-25851027D01*
X94049828Y-26714519D02*
X94104993Y-26753145D01*
X94168427Y-26838667D01*
X94209771Y-27073145D01*
X94179414Y-27175206D01*
X94140787Y-27230370D01*
X94055265Y-27293804D01*
X93961474Y-27310342D01*
X93812518Y-27288253D01*
X93150543Y-26824733D01*
X93258039Y-27434376D01*
X94215208Y-27652431D02*
X94270372Y-27691057D01*
X94333806Y-27776580D01*
X94375151Y-28011058D01*
X94344793Y-28113118D01*
X94306166Y-28168282D01*
X94220644Y-28231716D01*
X94126853Y-28248254D01*
X93977897Y-28226165D01*
X93315922Y-27762645D01*
X93423419Y-28372288D01*
X48795635Y-32132527D02*
X48946156Y-31571090D01*
X48428328Y-31694788D02*
X49194372Y-31052000D01*
X49439244Y-31343826D01*
X49463983Y-31447392D01*
X49458114Y-31514479D01*
X49415766Y-31612175D01*
X49306331Y-31704002D01*
X49202766Y-31728742D01*
X49135678Y-31722872D01*
X49037982Y-31680525D01*
X48793111Y-31388698D01*
X49733594Y-31842784D02*
X49800682Y-31848653D01*
X49898378Y-31891001D01*
X50051422Y-32073393D01*
X50076162Y-32176958D01*
X50070293Y-32244045D01*
X50027945Y-32341741D01*
X49954988Y-32402959D01*
X49814944Y-32458308D01*
X49009898Y-32387875D01*
X49407814Y-32862093D01*
X50388121Y-32474654D02*
X50786037Y-32948872D01*
X50279948Y-32938395D01*
X50371775Y-33047830D01*
X50396514Y-33151396D01*
X50390645Y-33218483D01*
X50348297Y-33316179D01*
X50165906Y-33469224D01*
X50062340Y-33493963D01*
X49995253Y-33488094D01*
X49897557Y-33445746D01*
X49713903Y-33226876D01*
X49689163Y-33123311D01*
X49695033Y-33056224D01*
X96852229Y-63217411D02*
X96290750Y-63367775D01*
X96656789Y-63754378D02*
X95717097Y-63412358D01*
X95847390Y-63054380D01*
X95924711Y-62981172D01*
X95985745Y-62952711D01*
X96091526Y-62940538D01*
X96225768Y-62989398D01*
X96298976Y-63066718D01*
X96327436Y-63127752D01*
X96339610Y-63233533D01*
X96209317Y-63591511D01*
X96132325Y-62549986D02*
X96103864Y-62488952D01*
X96091690Y-62383171D01*
X96173124Y-62159435D01*
X96250444Y-62086227D01*
X96311478Y-62057766D01*
X96417259Y-62045592D01*
X96506754Y-62078166D01*
X96624709Y-62171773D01*
X96966236Y-62904180D01*
X97177963Y-62322466D01*
X96844661Y-61289001D02*
X97471123Y-61517015D01*
X96405250Y-61382444D02*
X96995025Y-61850481D01*
X97206752Y-61268766D01*
X45087235Y-21413727D02*
X45237756Y-20852290D01*
X44719928Y-20975988D02*
X45485972Y-20333200D01*
X45730844Y-20625026D01*
X45755583Y-20728592D01*
X45749714Y-20795679D01*
X45707366Y-20893375D01*
X45597931Y-20985202D01*
X45494366Y-21009942D01*
X45427278Y-21004072D01*
X45329582Y-20961725D01*
X45084711Y-20669898D01*
X46025194Y-21123984D02*
X46092282Y-21129853D01*
X46189978Y-21172201D01*
X46343022Y-21354593D01*
X46367762Y-21458158D01*
X46361893Y-21525245D01*
X46319545Y-21622941D01*
X46246588Y-21684159D01*
X46106544Y-21739508D01*
X45301498Y-21669075D01*
X45699414Y-22143293D01*
X47047028Y-22193594D02*
X46740939Y-21828811D01*
X46345547Y-22098422D01*
X46412634Y-22104291D01*
X46510330Y-22146639D01*
X46663375Y-22329030D01*
X46688114Y-22432596D01*
X46682245Y-22499683D01*
X46639897Y-22597379D01*
X46457506Y-22750424D01*
X46353940Y-22775163D01*
X46286853Y-22769294D01*
X46189157Y-22726946D01*
X46036112Y-22544555D01*
X46011372Y-22440989D01*
X46017242Y-22373902D01*
X96092357Y-53755923D02*
X96143099Y-53176877D01*
X95654618Y-53388616D02*
X96297405Y-52622571D01*
X96589232Y-52867443D01*
X96631580Y-52965139D01*
X96637449Y-53032226D01*
X96612709Y-53135792D01*
X96520883Y-53245227D01*
X96423186Y-53287574D01*
X96356099Y-53293444D01*
X96252534Y-53268704D01*
X95960707Y-53023833D01*
X96965754Y-53307706D02*
X97032841Y-53301837D01*
X97136406Y-53326577D01*
X97318798Y-53479621D01*
X97361146Y-53577317D01*
X97367015Y-53644405D01*
X97342275Y-53747970D01*
X97281058Y-53820927D01*
X97152753Y-53899753D01*
X96347706Y-53970185D01*
X96821924Y-54368101D01*
X98121321Y-54153018D02*
X97975408Y-54030582D01*
X97871842Y-54005843D01*
X97804755Y-54011712D01*
X97639971Y-54059929D01*
X97481057Y-54175233D01*
X97236186Y-54467060D01*
X97211446Y-54570625D01*
X97217316Y-54637713D01*
X97259663Y-54735409D01*
X97405577Y-54857844D01*
X97509142Y-54882584D01*
X97576229Y-54876715D01*
X97673925Y-54834367D01*
X97826970Y-54651975D01*
X97851710Y-54548410D01*
X97845840Y-54481323D01*
X97803493Y-54383626D01*
X97657579Y-54261191D01*
X97554014Y-54236451D01*
X97486927Y-54242321D01*
X97389230Y-54284668D01*
X45305742Y-15209780D02*
X44972409Y-14733590D01*
X44734314Y-15209780D02*
X44734314Y-14209780D01*
X45115266Y-14209780D01*
X45210504Y-14257400D01*
X45258123Y-14305019D01*
X45305742Y-14400257D01*
X45305742Y-14543114D01*
X45258123Y-14638352D01*
X45210504Y-14685971D01*
X45115266Y-14733590D01*
X44734314Y-14733590D01*
X45686695Y-14305019D02*
X45734314Y-14257400D01*
X45829552Y-14209780D01*
X46067647Y-14209780D01*
X46162885Y-14257400D01*
X46210504Y-14305019D01*
X46258123Y-14400257D01*
X46258123Y-14495495D01*
X46210504Y-14638352D01*
X45639076Y-15209780D01*
X46258123Y-15209780D01*
X46591457Y-14209780D02*
X47258123Y-14209780D01*
X46829552Y-15209780D01*
X88217388Y-46763428D02*
X88067024Y-46201949D01*
X87680421Y-46567988D02*
X88022441Y-45628296D01*
X88380419Y-45758589D01*
X88453627Y-45835910D01*
X88482088Y-45896944D01*
X88494261Y-46002725D01*
X88445401Y-46136967D01*
X88368081Y-46210175D01*
X88307047Y-46238635D01*
X88201266Y-46250809D01*
X87843288Y-46120516D01*
X88884813Y-46043524D02*
X88945847Y-46015063D01*
X89051628Y-46002889D01*
X89275364Y-46084323D01*
X89348572Y-46161643D01*
X89377033Y-46222677D01*
X89389207Y-46328458D01*
X89356633Y-46417953D01*
X89263026Y-46535908D01*
X88530619Y-46877435D01*
X89112333Y-47089162D01*
X89844741Y-46747635D02*
X89771533Y-46670314D01*
X89743072Y-46609280D01*
X89730898Y-46503499D01*
X89747185Y-46458752D01*
X89824506Y-46385544D01*
X89885539Y-46357083D01*
X89991321Y-46344909D01*
X90170310Y-46410056D01*
X90243518Y-46487377D01*
X90271978Y-46548411D01*
X90284152Y-46654192D01*
X90267865Y-46698939D01*
X90190545Y-46772147D01*
X90129511Y-46800608D01*
X90023730Y-46812781D01*
X89844741Y-46747635D01*
X89738959Y-46759809D01*
X89677925Y-46788269D01*
X89600605Y-46861477D01*
X89535458Y-47040466D01*
X89547632Y-47146247D01*
X89576093Y-47207281D01*
X89649301Y-47284602D01*
X89828290Y-47349749D01*
X89934071Y-47337575D01*
X89995105Y-47309114D01*
X90072425Y-47235906D01*
X90137572Y-47056917D01*
X90125398Y-46951136D01*
X90096938Y-46890102D01*
X90023730Y-46812781D01*
X70565678Y-24327345D02*
X70515099Y-23748286D01*
X70070807Y-24041631D02*
X70570807Y-23175606D01*
X70900721Y-23366082D01*
X70959390Y-23454940D01*
X70976820Y-23519989D01*
X70970440Y-23626277D01*
X70899012Y-23749995D01*
X70810153Y-23808664D01*
X70745105Y-23826094D01*
X70638816Y-23819714D01*
X70308902Y-23629238D01*
X71347974Y-23734275D02*
X71413023Y-23716845D01*
X71519311Y-23723225D01*
X71725507Y-23842272D01*
X71784176Y-23931131D01*
X71801606Y-23996179D01*
X71795226Y-24102468D01*
X71747607Y-24184946D01*
X71634939Y-24284855D01*
X70854354Y-24494012D01*
X71390465Y-24803536D01*
X71802858Y-25041631D02*
X71967815Y-25136869D01*
X72074103Y-25143249D01*
X72139152Y-25125819D01*
X72293059Y-25049720D01*
X72429536Y-24908573D01*
X72620013Y-24578658D01*
X72626392Y-24472370D01*
X72608962Y-24407321D01*
X72550293Y-24318463D01*
X72385336Y-24223225D01*
X72279048Y-24216845D01*
X72213999Y-24234275D01*
X72125141Y-24292944D01*
X72006093Y-24499140D01*
X71999713Y-24605428D01*
X72017143Y-24670477D01*
X72075812Y-24759336D01*
X72240770Y-24854574D01*
X72347058Y-24860953D01*
X72412107Y-24843524D01*
X72500965Y-24784855D01*
X56081198Y-34975459D02*
X56326924Y-34448689D01*
X55795483Y-34480588D02*
X56661509Y-33980588D01*
X56851985Y-34310502D01*
X56858365Y-34416790D01*
X56840935Y-34481839D01*
X56782266Y-34570697D01*
X56658548Y-34642126D01*
X56552260Y-34648506D01*
X56487211Y-34631076D01*
X56398352Y-34572407D01*
X56207876Y-34242492D01*
X57113890Y-34764134D02*
X57423413Y-35300245D01*
X56926832Y-35202047D01*
X56998261Y-35325764D01*
X57004641Y-35432053D01*
X56987211Y-35497101D01*
X56928542Y-35585960D01*
X56722345Y-35705007D01*
X56616057Y-35711387D01*
X56551008Y-35693957D01*
X56462150Y-35635288D01*
X56319293Y-35387852D01*
X56312913Y-35281564D01*
X56330343Y-35216515D01*
X57732937Y-35836356D02*
X57780556Y-35918835D01*
X57786936Y-36025123D01*
X57769506Y-36090172D01*
X57710837Y-36179030D01*
X57569689Y-36315508D01*
X57363493Y-36434555D01*
X57174726Y-36488554D01*
X57068438Y-36494934D01*
X57003389Y-36477504D01*
X56914531Y-36418835D01*
X56866912Y-36336356D01*
X56860532Y-36230068D01*
X56877962Y-36165019D01*
X56936631Y-36076161D01*
X57077779Y-35939684D01*
X57283975Y-35820636D01*
X57472742Y-35766637D01*
X57579030Y-35760258D01*
X57644079Y-35777687D01*
X57732937Y-35836356D01*
X87099788Y-49862228D02*
X86949424Y-49300749D01*
X86562821Y-49666788D02*
X86904841Y-48727096D01*
X87262819Y-48857389D01*
X87336027Y-48934710D01*
X87364488Y-48995744D01*
X87376661Y-49101525D01*
X87327801Y-49235767D01*
X87250481Y-49308975D01*
X87189447Y-49337435D01*
X87083666Y-49349609D01*
X86725688Y-49219316D01*
X87755039Y-49036543D02*
X88336753Y-49248269D01*
X87893229Y-49492241D01*
X88027471Y-49541101D01*
X88100679Y-49618421D01*
X88129139Y-49679455D01*
X88141313Y-49785237D01*
X88059880Y-50008973D01*
X87982559Y-50082181D01*
X87921525Y-50110641D01*
X87815744Y-50122815D01*
X87547261Y-50025095D01*
X87474053Y-49947775D01*
X87445592Y-49886741D01*
X88889679Y-50513695D02*
X88352711Y-50318255D01*
X88621195Y-50415975D02*
X88963215Y-49476283D01*
X88824861Y-49577951D01*
X88702793Y-49634872D01*
X88597012Y-49647046D01*
X64416427Y-24076011D02*
X63854948Y-24226375D01*
X64220987Y-24612978D02*
X63281295Y-24270958D01*
X63411588Y-23912980D01*
X63488909Y-23839772D01*
X63549943Y-23811311D01*
X63655724Y-23799138D01*
X63789966Y-23847998D01*
X63863174Y-23925318D01*
X63891634Y-23986352D01*
X63903808Y-24092133D01*
X63773515Y-24450111D01*
X63590742Y-23420760D02*
X63802468Y-22839046D01*
X64046440Y-23282570D01*
X64095300Y-23148328D01*
X64172620Y-23075120D01*
X64233654Y-23046660D01*
X64339436Y-23034486D01*
X64563172Y-23115919D01*
X64636380Y-23193240D01*
X64664840Y-23254274D01*
X64677014Y-23360055D01*
X64579294Y-23628538D01*
X64501974Y-23701746D01*
X64440940Y-23730207D01*
X64022256Y-22513641D02*
X63993796Y-22452607D01*
X63981622Y-22346826D01*
X64063055Y-22123089D01*
X64140376Y-22049881D01*
X64201410Y-22021421D01*
X64307191Y-22009247D01*
X64396685Y-22041820D01*
X64514641Y-22135427D01*
X64856168Y-22867835D01*
X65067894Y-22286120D01*
X59197430Y-30691035D02*
X59530896Y-30214937D01*
X59001990Y-30154068D02*
X59941683Y-29812047D01*
X60071976Y-30170026D01*
X60059802Y-30275807D01*
X60031342Y-30336841D01*
X59958134Y-30414161D01*
X59823892Y-30463021D01*
X59718111Y-30450847D01*
X59657077Y-30422387D01*
X59579756Y-30349179D01*
X59449463Y-29991201D01*
X60251130Y-30662246D02*
X60462856Y-31243960D01*
X59990872Y-31061023D01*
X60039732Y-31195264D01*
X60027558Y-31301046D01*
X59999097Y-31362079D01*
X59925889Y-31439400D01*
X59702153Y-31520833D01*
X59596372Y-31508660D01*
X59535338Y-31480199D01*
X59458017Y-31406991D01*
X59360297Y-31138507D01*
X59372471Y-31032726D01*
X59400932Y-30971692D01*
X60576863Y-31557191D02*
X60788590Y-32138905D01*
X60316605Y-31955968D01*
X60365465Y-32090210D01*
X60353291Y-32195991D01*
X60324831Y-32257025D01*
X60251623Y-32334345D01*
X60027886Y-32415779D01*
X59922105Y-32403605D01*
X59861071Y-32375144D01*
X59783751Y-32301936D01*
X59686031Y-32033453D01*
X59698204Y-31927672D01*
X59726665Y-31866638D01*
X74213980Y-39479457D02*
X73737790Y-39812790D01*
X74213980Y-40050885D02*
X73213980Y-40050885D01*
X73213980Y-39669933D01*
X73261600Y-39574695D01*
X73309219Y-39527076D01*
X73404457Y-39479457D01*
X73547314Y-39479457D01*
X73642552Y-39527076D01*
X73690171Y-39574695D01*
X73737790Y-39669933D01*
X73737790Y-40050885D01*
X73213980Y-39146123D02*
X73213980Y-38527076D01*
X73594933Y-38860409D01*
X73594933Y-38717552D01*
X73642552Y-38622314D01*
X73690171Y-38574695D01*
X73785409Y-38527076D01*
X74023504Y-38527076D01*
X74118742Y-38574695D01*
X74166361Y-38622314D01*
X74213980Y-38717552D01*
X74213980Y-39003266D01*
X74166361Y-39098504D01*
X74118742Y-39146123D01*
X73547314Y-37669933D02*
X74213980Y-37669933D01*
X73166361Y-37908028D02*
X73880647Y-38146123D01*
X73880647Y-37527076D01*
X20405723Y-57349042D02*
X19826677Y-57298300D01*
X20038416Y-57786781D02*
X19272371Y-57143994D01*
X19517243Y-56852167D01*
X19614939Y-56809819D01*
X19682026Y-56803950D01*
X19785592Y-56828690D01*
X19895027Y-56920516D01*
X19937374Y-57018213D01*
X19943244Y-57085300D01*
X19918504Y-57188865D01*
X19673633Y-57480692D01*
X19853941Y-56450906D02*
X20251857Y-55976688D01*
X20329421Y-56476907D01*
X20421248Y-56367472D01*
X20518944Y-56325125D01*
X20586031Y-56319255D01*
X20689597Y-56343995D01*
X20871988Y-56497040D01*
X20914336Y-56594736D01*
X20920205Y-56661823D01*
X20895466Y-56765389D01*
X20711812Y-56984258D01*
X20614116Y-57026606D01*
X20547029Y-57032475D01*
X20833427Y-55283600D02*
X20527337Y-55648383D01*
X20861512Y-55990951D01*
X20855642Y-55923863D01*
X20880382Y-55820298D01*
X21033426Y-55637906D01*
X21131123Y-55595559D01*
X21198210Y-55589689D01*
X21301775Y-55614429D01*
X21484167Y-55767474D01*
X21526515Y-55865170D01*
X21532384Y-55932257D01*
X21507644Y-56035822D01*
X21354600Y-56218214D01*
X21256904Y-56260562D01*
X21189816Y-56266431D01*
X52750980Y-26169857D02*
X52274790Y-26503190D01*
X52750980Y-26741285D02*
X51750980Y-26741285D01*
X51750980Y-26360333D01*
X51798600Y-26265095D01*
X51846219Y-26217476D01*
X51941457Y-26169857D01*
X52084314Y-26169857D01*
X52179552Y-26217476D01*
X52227171Y-26265095D01*
X52274790Y-26360333D01*
X52274790Y-26741285D01*
X51750980Y-25836523D02*
X51750980Y-25217476D01*
X52131933Y-25550809D01*
X52131933Y-25407952D01*
X52179552Y-25312714D01*
X52227171Y-25265095D01*
X52322409Y-25217476D01*
X52560504Y-25217476D01*
X52655742Y-25265095D01*
X52703361Y-25312714D01*
X52750980Y-25407952D01*
X52750980Y-25693666D01*
X52703361Y-25788904D01*
X52655742Y-25836523D01*
X51750980Y-24360333D02*
X51750980Y-24550809D01*
X51798600Y-24646047D01*
X51846219Y-24693666D01*
X51989076Y-24788904D01*
X52179552Y-24836523D01*
X52560504Y-24836523D01*
X52655742Y-24788904D01*
X52703361Y-24741285D01*
X52750980Y-24646047D01*
X52750980Y-24455571D01*
X52703361Y-24360333D01*
X52655742Y-24312714D01*
X52560504Y-24265095D01*
X52322409Y-24265095D01*
X52227171Y-24312714D01*
X52179552Y-24360333D01*
X52131933Y-24455571D01*
X52131933Y-24646047D01*
X52179552Y-24741285D01*
X52227171Y-24788904D01*
X52322409Y-24836523D01*
X69117878Y-27553144D02*
X69067299Y-26974085D01*
X68623007Y-27267430D02*
X69123007Y-26401405D01*
X69452921Y-26591881D01*
X69511590Y-26680739D01*
X69529020Y-26745788D01*
X69522640Y-26852076D01*
X69451212Y-26975794D01*
X69362353Y-27034463D01*
X69297305Y-27051893D01*
X69191016Y-27045513D01*
X68861102Y-26855037D01*
X69906554Y-26853786D02*
X70442665Y-27163309D01*
X69963513Y-27326557D01*
X70087231Y-27397986D01*
X70145900Y-27486844D01*
X70163330Y-27551893D01*
X70156950Y-27658181D01*
X70037903Y-27864378D01*
X69949044Y-27923047D01*
X69883995Y-27940476D01*
X69777707Y-27934097D01*
X69530271Y-27791240D01*
X69471602Y-27702381D01*
X69454173Y-27637332D01*
X70731340Y-27329976D02*
X71308690Y-27663309D01*
X70437536Y-28315049D01*
X77058780Y-39352457D02*
X76582590Y-39685790D01*
X77058780Y-39923885D02*
X76058780Y-39923885D01*
X76058780Y-39542933D01*
X76106400Y-39447695D01*
X76154019Y-39400076D01*
X76249257Y-39352457D01*
X76392114Y-39352457D01*
X76487352Y-39400076D01*
X76534971Y-39447695D01*
X76582590Y-39542933D01*
X76582590Y-39923885D01*
X76058780Y-39019123D02*
X76058780Y-38400076D01*
X76439733Y-38733409D01*
X76439733Y-38590552D01*
X76487352Y-38495314D01*
X76534971Y-38447695D01*
X76630209Y-38400076D01*
X76868304Y-38400076D01*
X76963542Y-38447695D01*
X77011161Y-38495314D01*
X77058780Y-38590552D01*
X77058780Y-38876266D01*
X77011161Y-38971504D01*
X76963542Y-39019123D01*
X76487352Y-37828647D02*
X76439733Y-37923885D01*
X76392114Y-37971504D01*
X76296876Y-38019123D01*
X76249257Y-38019123D01*
X76154019Y-37971504D01*
X76106400Y-37923885D01*
X76058780Y-37828647D01*
X76058780Y-37638171D01*
X76106400Y-37542933D01*
X76154019Y-37495314D01*
X76249257Y-37447695D01*
X76296876Y-37447695D01*
X76392114Y-37495314D01*
X76439733Y-37542933D01*
X76487352Y-37638171D01*
X76487352Y-37828647D01*
X76534971Y-37923885D01*
X76582590Y-37971504D01*
X76677828Y-38019123D01*
X76868304Y-38019123D01*
X76963542Y-37971504D01*
X77011161Y-37923885D01*
X77058780Y-37828647D01*
X77058780Y-37638171D01*
X77011161Y-37542933D01*
X76963542Y-37495314D01*
X76868304Y-37447695D01*
X76677828Y-37447695D01*
X76582590Y-37495314D01*
X76534971Y-37542933D01*
X76487352Y-37638171D01*
X29448123Y-51253042D02*
X28869077Y-51202300D01*
X29080816Y-51690781D02*
X28314771Y-51047994D01*
X28559643Y-50756167D01*
X28657339Y-50713819D01*
X28724426Y-50707950D01*
X28827992Y-50732690D01*
X28937427Y-50824516D01*
X28979774Y-50922213D01*
X28985644Y-50989300D01*
X28960904Y-51092865D01*
X28716033Y-51384692D01*
X28896341Y-50354906D02*
X29294257Y-49880688D01*
X29371821Y-50380907D01*
X29463648Y-50271472D01*
X29561344Y-50229125D01*
X29628431Y-50223255D01*
X29731997Y-50247995D01*
X29914388Y-50401040D01*
X29956736Y-50498736D01*
X29962605Y-50565823D01*
X29937866Y-50669389D01*
X29754212Y-50888258D01*
X29656516Y-50930606D01*
X29589429Y-50936475D01*
X30366391Y-50158692D02*
X30488827Y-50012779D01*
X30513566Y-49909214D01*
X30507697Y-49842126D01*
X30459480Y-49677343D01*
X30344175Y-49518429D01*
X30052349Y-49273557D01*
X29948783Y-49248818D01*
X29881696Y-49254687D01*
X29784000Y-49297035D01*
X29661564Y-49442948D01*
X29636825Y-49546514D01*
X29642694Y-49613601D01*
X29685042Y-49711297D01*
X29867433Y-49864342D01*
X29970999Y-49889081D01*
X30038086Y-49883212D01*
X30135782Y-49840864D01*
X30258218Y-49694951D01*
X30282958Y-49591385D01*
X30277088Y-49524298D01*
X30234740Y-49426602D01*
X50855278Y-43224944D02*
X50804699Y-42645885D01*
X50360407Y-42939230D02*
X50860407Y-42073205D01*
X51190321Y-42263681D01*
X51248990Y-42352539D01*
X51266420Y-42417588D01*
X51260040Y-42523876D01*
X51188612Y-42647594D01*
X51099753Y-42706263D01*
X51034705Y-42723693D01*
X50928416Y-42717313D01*
X50598502Y-42526837D01*
X51930919Y-43076165D02*
X51597586Y-43653516D01*
X51915199Y-42627203D02*
X51351860Y-43126745D01*
X51887970Y-43436269D01*
X52716175Y-43144633D02*
X52798654Y-43192252D01*
X52857323Y-43281111D01*
X52874753Y-43346159D01*
X52868373Y-43452448D01*
X52814374Y-43641214D01*
X52695327Y-43847411D01*
X52558849Y-43988559D01*
X52469991Y-44047228D01*
X52404942Y-44064657D01*
X52298654Y-44058278D01*
X52216175Y-44010659D01*
X52157506Y-43921800D01*
X52140077Y-43856751D01*
X52146456Y-43750463D01*
X52200455Y-43561697D01*
X52319503Y-43355500D01*
X52455980Y-43214352D01*
X52544839Y-43155683D01*
X52609887Y-43138253D01*
X52716175Y-43144633D01*
X41558878Y-59226944D02*
X41508299Y-58647885D01*
X41064007Y-58941230D02*
X41564007Y-58075205D01*
X41893921Y-58265681D01*
X41952590Y-58354539D01*
X41970020Y-58419588D01*
X41963640Y-58525876D01*
X41892212Y-58649594D01*
X41803353Y-58708263D01*
X41738305Y-58725693D01*
X41632016Y-58719313D01*
X41302102Y-58528837D01*
X42634519Y-59078165D02*
X42301186Y-59655516D01*
X42618799Y-58629203D02*
X42055460Y-59128745D01*
X42591570Y-59438269D01*
X43208451Y-60179325D02*
X42713579Y-59893611D01*
X42961015Y-60036468D02*
X43461015Y-59170443D01*
X43307108Y-59246542D01*
X43177010Y-59281401D01*
X43070722Y-59275021D01*
X112066460Y-33532264D02*
X112477534Y-33121305D01*
X111967233Y-32969517D02*
X112952040Y-32795868D01*
X113018192Y-33171033D01*
X112987834Y-33273093D01*
X112949208Y-33328258D01*
X112863686Y-33391692D01*
X112722999Y-33416498D01*
X112620939Y-33386141D01*
X112565774Y-33347514D01*
X112502340Y-33261992D01*
X112436189Y-32886827D01*
X112871840Y-34260619D02*
X112215302Y-34376385D01*
X113205660Y-33959990D02*
X112460881Y-33849546D01*
X112568378Y-34459189D01*
X113189008Y-34688231D02*
X113244172Y-34726857D01*
X113307606Y-34812380D01*
X113348951Y-35046858D01*
X113318593Y-35148918D01*
X113279966Y-35204082D01*
X113194444Y-35267516D01*
X113100653Y-35284054D01*
X112951697Y-35261965D01*
X112289722Y-34798445D01*
X112397219Y-35408088D01*
X52069659Y-59615801D02*
X51542889Y-59370075D01*
X51574788Y-59901516D02*
X51074788Y-59035490D01*
X51404702Y-58845014D01*
X51510990Y-58838634D01*
X51576039Y-58856064D01*
X51664897Y-58914733D01*
X51736326Y-59038451D01*
X51742706Y-59144739D01*
X51725276Y-59209788D01*
X51666607Y-59298647D01*
X51336692Y-59489123D01*
X52478634Y-58609880D02*
X52811967Y-59187230D01*
X52081961Y-58399013D02*
X52232907Y-59136650D01*
X52769018Y-58827126D01*
X52683121Y-58106919D02*
X53219232Y-57797395D01*
X53121033Y-58293976D01*
X53244751Y-58222548D01*
X53351039Y-58216168D01*
X53416087Y-58233598D01*
X53504946Y-58292267D01*
X53623993Y-58498463D01*
X53630373Y-58604751D01*
X53612943Y-58669800D01*
X53554274Y-58758659D01*
X53306839Y-58901516D01*
X53200550Y-58907895D01*
X53135502Y-58890466D01*
X77601264Y-46150139D02*
X77190305Y-45739065D01*
X77038517Y-46249366D02*
X76864868Y-45264559D01*
X77240033Y-45198407D01*
X77342093Y-45228765D01*
X77397258Y-45267391D01*
X77460692Y-45352913D01*
X77485498Y-45493600D01*
X77455141Y-45595660D01*
X77416514Y-45650825D01*
X77330992Y-45714259D01*
X76955827Y-45780410D01*
X78329619Y-45344759D02*
X78445385Y-46001297D01*
X78028990Y-45010939D02*
X77918546Y-45755718D01*
X78528189Y-45648221D01*
X79267532Y-45179380D02*
X79383297Y-45835918D01*
X78966902Y-44845560D02*
X78856458Y-45590339D01*
X79466101Y-45482842D01*
X108865927Y-49426164D02*
X108304490Y-49275643D01*
X108428188Y-49793471D02*
X107785400Y-49027427D01*
X108077226Y-48782555D01*
X108180792Y-48757816D01*
X108247879Y-48763685D01*
X108345575Y-48806033D01*
X108437402Y-48915468D01*
X108462142Y-49019033D01*
X108456272Y-49086121D01*
X108413925Y-49183817D01*
X108122098Y-49428688D01*
X109094012Y-48364507D02*
X109522537Y-48875203D01*
X108666749Y-48225725D02*
X108943491Y-48925944D01*
X109417709Y-48528028D01*
X109645794Y-47466371D02*
X109281011Y-47772460D01*
X109550622Y-48167852D01*
X109556491Y-48100765D01*
X109598839Y-48003069D01*
X109781230Y-47850024D01*
X109884796Y-47825285D01*
X109951883Y-47831154D01*
X110049579Y-47873502D01*
X110202624Y-48055893D01*
X110227363Y-48159459D01*
X110221494Y-48226546D01*
X110179146Y-48324242D01*
X109996755Y-48477287D01*
X109893189Y-48502027D01*
X109826102Y-48496157D01*
X100257958Y-53044723D02*
X100308700Y-52465677D01*
X99820219Y-52677416D02*
X100463006Y-51911371D01*
X100754833Y-52156243D01*
X100797181Y-52253939D01*
X100803050Y-52321026D01*
X100778310Y-52424592D01*
X100686484Y-52534027D01*
X100588787Y-52576374D01*
X100521700Y-52582244D01*
X100418135Y-52557504D01*
X100126308Y-52312633D01*
X101343093Y-53084987D02*
X100914568Y-53595684D01*
X101405573Y-52640116D02*
X100764047Y-53034246D01*
X101238265Y-53432162D01*
X102286922Y-53441818D02*
X102141009Y-53319382D01*
X102037443Y-53294643D01*
X101970356Y-53300512D01*
X101805572Y-53348729D01*
X101646658Y-53464033D01*
X101401787Y-53755860D01*
X101377047Y-53859425D01*
X101382917Y-53926513D01*
X101425264Y-54024209D01*
X101571178Y-54146644D01*
X101674743Y-54171384D01*
X101741830Y-54165515D01*
X101839526Y-54123167D01*
X101992571Y-53940775D01*
X102017311Y-53837210D01*
X102011441Y-53770123D01*
X101969094Y-53672426D01*
X101823180Y-53549991D01*
X101719615Y-53525251D01*
X101652528Y-53531121D01*
X101554831Y-53573468D01*
X90595944Y-21890321D02*
X90016885Y-21940900D01*
X90310230Y-22385192D02*
X89444205Y-21885192D01*
X89634681Y-21555278D01*
X89723539Y-21496609D01*
X89788588Y-21479179D01*
X89894876Y-21485559D01*
X90018594Y-21556987D01*
X90077263Y-21645846D01*
X90094693Y-21710894D01*
X90088313Y-21817183D01*
X89897837Y-22147097D01*
X90447165Y-20814680D02*
X91024516Y-21148013D01*
X89998203Y-20830400D02*
X90497745Y-21393739D01*
X90807269Y-20857629D01*
X90372776Y-20276859D02*
X90706109Y-19699509D01*
X91357849Y-20570663D01*
X69310744Y-59431522D02*
X68731685Y-59482101D01*
X69025030Y-59926393D02*
X68159005Y-59426393D01*
X68349481Y-59096479D01*
X68438339Y-59037810D01*
X68503388Y-59020380D01*
X68609676Y-59026760D01*
X68733394Y-59098188D01*
X68792063Y-59187047D01*
X68809493Y-59252095D01*
X68803113Y-59358384D01*
X68612637Y-59688298D01*
X69161965Y-58355881D02*
X69739316Y-58689214D01*
X68713003Y-58371601D02*
X69212545Y-58934940D01*
X69522069Y-58398830D01*
X69577777Y-57826150D02*
X69488919Y-57884819D01*
X69423870Y-57902248D01*
X69317582Y-57895869D01*
X69276343Y-57872059D01*
X69217674Y-57783201D01*
X69200244Y-57718152D01*
X69206624Y-57611864D01*
X69301862Y-57446907D01*
X69390720Y-57388238D01*
X69455769Y-57370808D01*
X69562057Y-57377187D01*
X69603296Y-57400997D01*
X69661965Y-57489855D01*
X69679395Y-57554904D01*
X69673016Y-57661192D01*
X69577777Y-57826150D01*
X69571398Y-57932438D01*
X69588827Y-57997487D01*
X69647497Y-58086345D01*
X69812454Y-58181583D01*
X69918742Y-58187963D01*
X69983791Y-58170533D01*
X70072649Y-58111864D01*
X70167887Y-57946907D01*
X70174267Y-57840618D01*
X70156837Y-57775570D01*
X70098168Y-57686711D01*
X69933211Y-57591473D01*
X69826923Y-57585093D01*
X69761874Y-57602523D01*
X69673016Y-57661192D01*
X107611942Y-18181580D02*
X107278609Y-17705390D01*
X107040514Y-18181580D02*
X107040514Y-17181580D01*
X107421466Y-17181580D01*
X107516704Y-17229200D01*
X107564323Y-17276819D01*
X107611942Y-17372057D01*
X107611942Y-17514914D01*
X107564323Y-17610152D01*
X107516704Y-17657771D01*
X107421466Y-17705390D01*
X107040514Y-17705390D01*
X108469085Y-17514914D02*
X108469085Y-18181580D01*
X108230990Y-17133961D02*
X107992895Y-17848247D01*
X108611942Y-17848247D01*
X109040514Y-18181580D02*
X109230990Y-18181580D01*
X109326228Y-18133961D01*
X109373847Y-18086342D01*
X109469085Y-17943485D01*
X109516704Y-17753009D01*
X109516704Y-17372057D01*
X109469085Y-17276819D01*
X109421466Y-17229200D01*
X109326228Y-17181580D01*
X109135752Y-17181580D01*
X109040514Y-17229200D01*
X108992895Y-17276819D01*
X108945276Y-17372057D01*
X108945276Y-17610152D01*
X108992895Y-17705390D01*
X109040514Y-17753009D01*
X109135752Y-17800628D01*
X109326228Y-17800628D01*
X109421466Y-17753009D01*
X109469085Y-17705390D01*
X109516704Y-17610152D01*
X112523527Y-65732963D02*
X111962090Y-65582442D01*
X112085788Y-66100270D02*
X111443000Y-65334226D01*
X111734826Y-65089354D01*
X111838392Y-65064615D01*
X111905479Y-65070484D01*
X112003175Y-65112832D01*
X112095002Y-65222267D01*
X112119742Y-65325832D01*
X112113872Y-65392920D01*
X112071525Y-65490616D01*
X111779698Y-65735487D01*
X112573827Y-64385349D02*
X112209044Y-64691438D01*
X112478655Y-65086830D01*
X112484525Y-65019743D01*
X112526872Y-64922047D01*
X112709264Y-64769002D01*
X112812830Y-64744263D01*
X112879917Y-64750132D01*
X112977613Y-64792480D01*
X113130658Y-64974871D01*
X113155397Y-65078437D01*
X113149528Y-65145524D01*
X113107180Y-65243220D01*
X112924789Y-65396265D01*
X112821223Y-65421004D01*
X112754136Y-65415135D01*
X113084524Y-63956824D02*
X113157480Y-63895606D01*
X113261046Y-63870866D01*
X113328133Y-63876736D01*
X113425829Y-63919083D01*
X113584743Y-64034388D01*
X113737788Y-64216779D01*
X113823745Y-64393301D01*
X113848485Y-64496867D01*
X113842616Y-64563954D01*
X113800268Y-64661650D01*
X113727311Y-64722868D01*
X113623746Y-64747608D01*
X113556659Y-64741738D01*
X113458962Y-64699391D01*
X113300048Y-64584086D01*
X113147004Y-64401695D01*
X113061046Y-64225173D01*
X113036307Y-64121607D01*
X113042176Y-64054520D01*
X113084524Y-63956824D01*
X102275829Y-61831435D02*
X102609295Y-61355337D01*
X102080389Y-61294468D02*
X103020082Y-60952447D01*
X103150375Y-61310426D01*
X103138201Y-61416207D01*
X103109741Y-61477241D01*
X103036533Y-61554561D01*
X102902291Y-61603421D01*
X102796510Y-61591247D01*
X102735476Y-61562787D01*
X102658155Y-61489579D01*
X102527862Y-61131601D01*
X103524969Y-62339613D02*
X103362102Y-61892140D01*
X102898343Y-62010260D01*
X102959377Y-62038720D01*
X103036697Y-62111928D01*
X103118131Y-62335664D01*
X103105957Y-62441446D01*
X103077496Y-62502479D01*
X103004288Y-62579800D01*
X102780552Y-62661233D01*
X102674771Y-62649060D01*
X102613737Y-62620599D01*
X102536416Y-62547391D01*
X102454983Y-62323655D01*
X102467157Y-62217874D01*
X102495617Y-62156840D01*
X102927296Y-63621325D02*
X102731856Y-63084358D01*
X102829576Y-63352842D02*
X103769269Y-63010822D01*
X103602454Y-62970187D01*
X103480386Y-62913266D01*
X103403065Y-62840058D01*
X69539344Y-50541521D02*
X68960285Y-50592100D01*
X69253630Y-51036392D02*
X68387605Y-50536392D01*
X68578081Y-50206478D01*
X68666939Y-50147809D01*
X68731988Y-50130379D01*
X68838276Y-50136759D01*
X68961994Y-50208187D01*
X69020663Y-50297046D01*
X69038093Y-50362094D01*
X69031713Y-50468383D01*
X68841237Y-50798297D01*
X69125700Y-49257974D02*
X68887605Y-49670367D01*
X69276188Y-49949701D01*
X69258758Y-49884653D01*
X69265138Y-49778364D01*
X69384186Y-49572168D01*
X69473044Y-49513499D01*
X69538093Y-49496069D01*
X69644381Y-49502449D01*
X69850578Y-49621496D01*
X69909247Y-49710355D01*
X69926676Y-49775404D01*
X69920297Y-49881692D01*
X69801249Y-50087888D01*
X69712391Y-50146557D01*
X69647342Y-50163987D01*
X69422464Y-48934439D02*
X69405034Y-48869390D01*
X69411414Y-48763102D01*
X69530462Y-48556906D01*
X69619320Y-48498237D01*
X69684369Y-48480807D01*
X69790657Y-48487186D01*
X69873136Y-48534806D01*
X69973044Y-48647473D01*
X70182201Y-49428059D01*
X70491725Y-48891948D01*
X101273477Y-20752246D02*
X100746638Y-20997826D01*
X101174249Y-21314994D02*
X100189442Y-21141345D01*
X100255593Y-20766181D01*
X100319027Y-20680658D01*
X100374191Y-20642032D01*
X100476251Y-20611674D01*
X100616938Y-20636481D01*
X100702461Y-20699914D01*
X100741087Y-20755079D01*
X100771445Y-20857139D01*
X100705293Y-21232304D01*
X100445779Y-19687582D02*
X100363090Y-20156538D01*
X100823777Y-20286123D01*
X100785150Y-20230958D01*
X100754792Y-20128898D01*
X100796137Y-19894420D01*
X100859571Y-19808898D01*
X100914735Y-19770271D01*
X101016796Y-19739914D01*
X101251274Y-19781258D01*
X101336796Y-19844692D01*
X101375422Y-19899856D01*
X101405780Y-20001917D01*
X101364435Y-20236395D01*
X101301002Y-20321917D01*
X101245837Y-20360544D01*
X100511931Y-19312417D02*
X100619427Y-18702774D01*
X100936710Y-19097195D01*
X100961516Y-18956508D01*
X101024950Y-18870986D01*
X101080115Y-18832359D01*
X101182175Y-18802001D01*
X101416653Y-18843346D01*
X101502175Y-18906780D01*
X101540802Y-18961944D01*
X101571159Y-19064004D01*
X101521546Y-19345378D01*
X101458112Y-19430900D01*
X101402948Y-19469527D01*
X118518635Y-49861727D02*
X118669156Y-49300290D01*
X118151328Y-49423988D02*
X118917372Y-48781200D01*
X119162244Y-49073026D01*
X119186983Y-49176592D01*
X119181114Y-49243679D01*
X119138766Y-49341375D01*
X119029331Y-49433202D01*
X118925766Y-49457942D01*
X118858678Y-49452072D01*
X118760982Y-49409725D01*
X118516111Y-49117898D01*
X119866249Y-49912027D02*
X119560160Y-49547244D01*
X119164768Y-49816855D01*
X119231855Y-49822725D01*
X119329551Y-49865072D01*
X119482596Y-50047464D01*
X119507335Y-50151030D01*
X119501466Y-50218117D01*
X119459118Y-50315813D01*
X119276727Y-50468858D01*
X119173161Y-50493597D01*
X119106074Y-50487728D01*
X119008378Y-50445380D01*
X118855333Y-50262989D01*
X118830594Y-50159423D01*
X118836463Y-50092336D01*
X120192471Y-50819378D02*
X119681774Y-51247903D01*
X120331253Y-50392115D02*
X119631033Y-50668857D01*
X120028949Y-51143075D01*
X118925035Y-45035727D02*
X119075556Y-44474290D01*
X118557728Y-44597988D02*
X119323772Y-43955200D01*
X119568644Y-44247026D01*
X119593383Y-44350592D01*
X119587514Y-44417679D01*
X119545166Y-44515375D01*
X119435731Y-44607202D01*
X119332166Y-44631942D01*
X119265078Y-44626072D01*
X119167382Y-44583725D01*
X118922511Y-44291898D01*
X120272649Y-45086027D02*
X119966560Y-44721244D01*
X119571168Y-44990855D01*
X119638255Y-44996725D01*
X119735951Y-45039072D01*
X119888996Y-45221464D01*
X119913735Y-45325030D01*
X119907866Y-45392117D01*
X119865518Y-45489813D01*
X119683127Y-45642858D01*
X119579561Y-45667597D01*
X119512474Y-45661728D01*
X119414778Y-45619380D01*
X119261733Y-45436989D01*
X119236994Y-45333423D01*
X119242863Y-45266336D01*
X120884828Y-45815594D02*
X120578739Y-45450811D01*
X120183347Y-45720422D01*
X120250434Y-45726291D01*
X120348130Y-45768639D01*
X120501175Y-45951030D01*
X120525914Y-46054596D01*
X120520045Y-46121683D01*
X120477697Y-46219379D01*
X120295306Y-46372424D01*
X120191740Y-46397163D01*
X120124653Y-46391294D01*
X120026957Y-46348946D01*
X119873912Y-46166555D01*
X119849172Y-46062989D01*
X119855042Y-45995902D01*
X37556436Y-44947332D02*
X37607177Y-44368286D01*
X37118696Y-44580025D02*
X37761484Y-43813980D01*
X38053310Y-44058852D01*
X38095658Y-44156548D01*
X38101527Y-44223635D01*
X38076788Y-44327201D01*
X37984961Y-44436635D01*
X37887265Y-44478983D01*
X37820177Y-44484852D01*
X37716612Y-44460113D01*
X37424785Y-44215241D01*
X38418093Y-44364941D02*
X38030654Y-45345248D01*
X38928790Y-44793466D01*
X39548921Y-45313818D02*
X39184138Y-45007729D01*
X38841570Y-45341903D01*
X38908657Y-45336033D01*
X39012223Y-45360773D01*
X39194614Y-45513818D01*
X39236962Y-45611514D01*
X39242831Y-45678601D01*
X39218092Y-45782166D01*
X39065047Y-45964558D01*
X38967351Y-46006906D01*
X38900264Y-46012775D01*
X38796698Y-45988035D01*
X38614307Y-45834991D01*
X38571959Y-45737295D01*
X38566090Y-45670207D01*
X81991560Y-38648870D02*
X81580601Y-38237796D01*
X81428812Y-38748097D02*
X81255164Y-37763290D01*
X81630329Y-37697138D01*
X81732389Y-37727496D01*
X81787554Y-37766122D01*
X81850987Y-37851644D01*
X81875794Y-37992331D01*
X81845436Y-38094391D01*
X81806810Y-38149556D01*
X81721287Y-38212990D01*
X81346123Y-38279141D01*
X82099285Y-37614448D02*
X82601202Y-38541373D01*
X82755824Y-37498683D01*
X83506153Y-37366379D02*
X83318571Y-37399455D01*
X83233049Y-37462889D01*
X83194422Y-37518053D01*
X83125438Y-37675278D01*
X83111618Y-37871130D01*
X83177769Y-38246294D01*
X83241203Y-38331817D01*
X83296368Y-38370443D01*
X83398428Y-38400801D01*
X83586010Y-38367725D01*
X83671532Y-38304292D01*
X83710159Y-38249127D01*
X83740517Y-38147067D01*
X83699172Y-37912589D01*
X83635738Y-37827067D01*
X83580574Y-37788440D01*
X83478514Y-37758082D01*
X83290931Y-37791158D01*
X83205409Y-37854592D01*
X83166782Y-37909756D01*
X83136425Y-38011816D01*
X58516580Y-52078395D02*
X58111818Y-52779463D01*
X58105438Y-52885751D01*
X58122868Y-52950800D01*
X58181537Y-53039659D01*
X58346495Y-53134897D01*
X58452783Y-53141276D01*
X58517832Y-53123847D01*
X58606690Y-53065178D01*
X59011452Y-52364109D01*
X59377477Y-53730135D02*
X58882606Y-53444421D01*
X59130041Y-53587278D02*
X59630041Y-52721252D01*
X59476134Y-52797351D01*
X59346037Y-52832211D01*
X59239748Y-52825831D01*
X41171461Y-22735678D02*
X40551330Y-23256030D01*
X40508982Y-23353726D01*
X40503113Y-23420813D01*
X40527852Y-23524379D01*
X40650288Y-23670292D01*
X40747984Y-23712640D01*
X40815072Y-23718509D01*
X40918637Y-23693769D01*
X41538768Y-23173418D01*
X41741292Y-23562940D02*
X41808379Y-23568810D01*
X41906075Y-23611157D01*
X42059120Y-23793549D01*
X42083860Y-23897114D01*
X42077990Y-23964202D01*
X42035643Y-24061898D01*
X41962686Y-24123116D01*
X41822642Y-24178464D01*
X41017595Y-24108032D01*
X41415511Y-24582250D01*
X85145540Y-55816019D02*
X84868667Y-56576723D01*
X84880840Y-56682504D01*
X84909301Y-56743538D01*
X84982509Y-56820858D01*
X85161498Y-56886005D01*
X85267279Y-56873831D01*
X85328313Y-56845371D01*
X85405634Y-56772163D01*
X85682507Y-56011459D01*
X86040485Y-56141753D02*
X86622200Y-56353479D01*
X86178676Y-56597451D01*
X86312917Y-56646311D01*
X86386125Y-56723631D01*
X86414586Y-56784665D01*
X86426760Y-56890447D01*
X86345326Y-57114183D01*
X86268006Y-57187391D01*
X86206972Y-57215851D01*
X86101191Y-57228025D01*
X85832707Y-57130305D01*
X85759499Y-57052985D01*
X85731039Y-56991951D01*
X22509556Y-59464450D02*
X23129687Y-59984802D01*
X23233253Y-60009541D01*
X23300340Y-60003672D01*
X23398036Y-59961324D01*
X23520472Y-59815411D01*
X23545212Y-59711845D01*
X23539342Y-59644758D01*
X23496994Y-59547062D01*
X22876863Y-59026710D01*
X23713781Y-58547885D02*
X24224477Y-58976410D01*
X23268910Y-58485405D02*
X23663040Y-59126930D01*
X24060956Y-58652712D01*
X49665395Y-51262219D02*
X50366463Y-51666981D01*
X50472751Y-51673361D01*
X50537800Y-51655931D01*
X50626659Y-51597262D01*
X50721897Y-51432304D01*
X50728276Y-51326016D01*
X50710847Y-51260967D01*
X50652178Y-51172109D01*
X49951109Y-50767347D01*
X50427300Y-49942561D02*
X50189205Y-50354954D01*
X50577788Y-50634289D01*
X50560358Y-50569240D01*
X50566738Y-50462952D01*
X50685786Y-50256755D01*
X50774644Y-50198086D01*
X50839693Y-50180656D01*
X50945981Y-50187036D01*
X51152178Y-50306084D01*
X51210847Y-50394942D01*
X51228276Y-50459991D01*
X51221897Y-50566279D01*
X51102849Y-50772476D01*
X51013991Y-50831145D01*
X50948942Y-50848574D01*
X116210957Y-51693144D02*
X115590826Y-52213496D01*
X115548478Y-52311192D01*
X115542609Y-52378279D01*
X115567348Y-52481845D01*
X115689784Y-52627758D01*
X115787480Y-52670106D01*
X115854568Y-52675975D01*
X115958133Y-52651235D01*
X116578264Y-52130884D01*
X116823136Y-52422710D02*
X117251661Y-52933406D01*
X116210136Y-53247889D01*
X102946797Y-35425777D02*
X102149571Y-35566349D01*
X102064049Y-35629783D01*
X102025422Y-35684947D01*
X101995065Y-35787007D01*
X102028141Y-35974590D01*
X102091574Y-36060112D01*
X102146739Y-36098739D01*
X102248799Y-36129096D01*
X103046024Y-35988524D01*
X102731460Y-36672588D02*
X102761818Y-36570527D01*
X102800444Y-36515363D01*
X102885967Y-36451929D01*
X102932862Y-36443660D01*
X103034923Y-36474018D01*
X103090087Y-36512645D01*
X103153521Y-36598167D01*
X103186596Y-36785749D01*
X103156239Y-36887810D01*
X103117612Y-36942974D01*
X103032090Y-37006408D01*
X102985194Y-37014677D01*
X102883134Y-36984319D01*
X102827970Y-36945692D01*
X102764536Y-36860170D01*
X102731460Y-36672588D01*
X102668027Y-36587065D01*
X102612862Y-36548439D01*
X102510802Y-36518081D01*
X102323219Y-36551157D01*
X102237697Y-36614590D01*
X102199071Y-36669755D01*
X102168713Y-36771815D01*
X102201789Y-36959398D01*
X102265222Y-37044920D01*
X102320387Y-37083546D01*
X102422447Y-37113904D01*
X102610029Y-37080828D01*
X102695552Y-37017395D01*
X102734178Y-36962230D01*
X102764536Y-36860170D01*
M02*
