G04 #@! TF.GenerationSoftware,KiCad,Pcbnew,(5.1.2-1)-1*
G04 #@! TF.CreationDate,2021-04-04T19:34:17-04:00*
G04 #@! TF.ProjectId,Dual Universal Slope Generator - CGS,4475616c-2055-46e6-9976-657273616c20,rev?*
G04 #@! TF.SameCoordinates,Original*
G04 #@! TF.FileFunction,Copper,L1,Top*
G04 #@! TF.FilePolarity,Positive*
%FSLAX46Y46*%
G04 Gerber Fmt 4.6, Leading zero omitted, Abs format (unit mm)*
G04 Created by KiCad (PCBNEW (5.1.2-1)-1) date 2021-04-04 19:34:17*
%MOMM*%
%LPD*%
G04 APERTURE LIST*
%ADD10C,2.499360*%
%ADD11R,2.499360X2.499360*%
%ADD12C,1.600000*%
%ADD13R,1.600000X1.600000*%
%ADD14C,1.600000*%
%ADD15C,0.100000*%
%ADD16C,2.000000*%
%ADD17C,2.000000*%
%ADD18C,1.050000*%
%ADD19C,1.050000*%
%ADD20O,1.600000X1.600000*%
%ADD21C,1.550000*%
%ADD22C,0.800000*%
%ADD23C,0.250000*%
%ADD24C,0.500000*%
%ADD25C,1.000000*%
G04 APERTURE END LIST*
D10*
X55626000Y-114376200D03*
D11*
X51816000Y-114376200D03*
D10*
X55651400Y-110439200D03*
D11*
X51841400Y-110439200D03*
D10*
X55600600Y-106527600D03*
D11*
X51790600Y-106527600D03*
D12*
X17272000Y-61436000D03*
D13*
X17272000Y-59436000D03*
D12*
X20070886Y-66548000D03*
D14*
X20070886Y-66548000D02*
X20070886Y-66548000D01*
D12*
X26670000Y-70358000D03*
X26670000Y-33528000D03*
X22339873Y-31028000D03*
X40033961Y-52684241D03*
X44958000Y-51816000D03*
X59123730Y-39518989D03*
X60833831Y-34820526D03*
X48954101Y-76834463D03*
X47244000Y-72136000D03*
X107716222Y-103543938D03*
X103886000Y-100330000D03*
X88900000Y-79248000D03*
X93900000Y-79248000D03*
X70358000Y-93218000D03*
X72858000Y-88887873D03*
X90170000Y-58674000D03*
X89301759Y-53749961D03*
X118364000Y-76200000D03*
D15*
G36*
X118842138Y-77225370D02*
G01*
X117338630Y-76678138D01*
X117885862Y-75174630D01*
X119389370Y-75721862D01*
X118842138Y-77225370D01*
X118842138Y-77225370D01*
G37*
D12*
X119048040Y-74320615D03*
D16*
X33528000Y-16764000D03*
D15*
G36*
X33404743Y-15355168D02*
G01*
X34936832Y-16640743D01*
X33651257Y-18172832D01*
X32119168Y-16887257D01*
X33404743Y-15355168D01*
X33404743Y-15355168D01*
G37*
D16*
X30262639Y-20655506D03*
D17*
X30262639Y-20655506D02*
X30262639Y-20655506D01*
D16*
X30532361Y-25186538D03*
D17*
X30532361Y-25186538D02*
X30532361Y-25186538D01*
D16*
X35306000Y-26924000D03*
D15*
G36*
X36587713Y-26326328D02*
G01*
X35903672Y-28205713D01*
X34024287Y-27521672D01*
X34708328Y-25642287D01*
X36587713Y-26326328D01*
X36587713Y-26326328D01*
G37*
D16*
X61446079Y-49462373D03*
D15*
G36*
X60164366Y-48864701D02*
G01*
X62043751Y-48180660D01*
X62727792Y-50060045D01*
X60848407Y-50744086D01*
X60164366Y-48864701D01*
X60164366Y-48864701D01*
G37*
D16*
X63183541Y-54236012D03*
D17*
X63183541Y-54236012D02*
X63183541Y-54236012D01*
D16*
X28702000Y-43180000D03*
D15*
G36*
X29299672Y-41898287D02*
G01*
X29983713Y-43777672D01*
X28104328Y-44461713D01*
X27420287Y-42582328D01*
X29299672Y-41898287D01*
X29299672Y-41898287D01*
G37*
D16*
X23928361Y-44917462D03*
D17*
X23928361Y-44917462D02*
X23928361Y-44917462D01*
D16*
X98633506Y-108421361D03*
D17*
X98633506Y-108421361D02*
X98633506Y-108421361D01*
D16*
X94742000Y-105156000D03*
D15*
G36*
X93333168Y-105279257D02*
G01*
X94618743Y-103747168D01*
X96150832Y-105032743D01*
X94865257Y-106564832D01*
X93333168Y-105279257D01*
X93333168Y-105279257D01*
G37*
D16*
X94488000Y-115824000D03*
D15*
G36*
X94364743Y-117232832D02*
G01*
X93079168Y-115700743D01*
X94611257Y-114415168D01*
X95896832Y-115947257D01*
X94364743Y-117232832D01*
X94364743Y-117232832D01*
G37*
D16*
X98379506Y-112558639D03*
D17*
X98379506Y-112558639D02*
X98379506Y-112558639D01*
D16*
X71507867Y-73483177D03*
D17*
X71507867Y-73483177D02*
X71507867Y-73483177D01*
D16*
X72390000Y-78486000D03*
D15*
G36*
X73548456Y-79297160D02*
G01*
X71578840Y-79644456D01*
X71231544Y-77674840D01*
X73201160Y-77327544D01*
X73548456Y-79297160D01*
X73548456Y-79297160D01*
G37*
D16*
X108634823Y-89541867D03*
D17*
X108634823Y-89541867D02*
X108634823Y-89541867D01*
D16*
X103632000Y-90424000D03*
D15*
G36*
X102820840Y-91582456D02*
G01*
X102473544Y-89612840D01*
X104443160Y-89265544D01*
X104790456Y-91235160D01*
X102820840Y-91582456D01*
X102820840Y-91582456D01*
G37*
D10*
X50038000Y-92964000D03*
X17272000Y-30734000D03*
X29718000Y-46990000D03*
X17031350Y-83619400D03*
X18542000Y-55372000D03*
X16002000Y-66294000D03*
X33528000Y-45720000D03*
X19678133Y-91870823D03*
X91186000Y-37338000D03*
X112776000Y-104394000D03*
X103378000Y-86614000D03*
X122174000Y-52324000D03*
X115824000Y-80264000D03*
X120396000Y-69850000D03*
X99314000Y-87122000D03*
X121158000Y-43942000D03*
X40386000Y-106680000D03*
X40640000Y-77724000D03*
X54864000Y-94488000D03*
X65092431Y-68679136D03*
X66239204Y-75182807D03*
X103378000Y-25146000D03*
X97536000Y-54102000D03*
X86868000Y-35052000D03*
X71628000Y-58928000D03*
X71882000Y-52324000D03*
D18*
X32554493Y-71464526D03*
D15*
G36*
X33384156Y-71077507D02*
G01*
X32634156Y-72376545D01*
X31724830Y-71851545D01*
X32474830Y-70552507D01*
X33384156Y-71077507D01*
X33384156Y-71077507D01*
G37*
D18*
X30354788Y-70194526D03*
D19*
X30242288Y-70389382D02*
X30467288Y-69999670D01*
D18*
X31454641Y-70829526D03*
D19*
X31342141Y-71024382D02*
X31567141Y-70634670D01*
D18*
X28152641Y-76548759D03*
D19*
X28040141Y-76743615D02*
X28265141Y-76353903D01*
D18*
X27052788Y-75913759D03*
D19*
X26940288Y-76108615D02*
X27165288Y-75718903D01*
D18*
X29252493Y-77183759D03*
D15*
G36*
X30082156Y-76796740D02*
G01*
X29332156Y-78095778D01*
X28422830Y-77570778D01*
X29172830Y-76271740D01*
X30082156Y-76796740D01*
X30082156Y-76796740D01*
G37*
D18*
X62166196Y-44658884D03*
D19*
X62243151Y-44870315D02*
X62089241Y-44447453D01*
D18*
X60972787Y-45093249D03*
D19*
X61049742Y-45304680D02*
X60895832Y-44881818D01*
D18*
X63359606Y-44224518D03*
D15*
G36*
X63596430Y-43340188D02*
G01*
X64109460Y-44749727D01*
X63122782Y-45108848D01*
X62609752Y-43699309D01*
X63596430Y-43340188D01*
X63596430Y-43340188D01*
G37*
D18*
X35253079Y-73902439D03*
D15*
G36*
X34423416Y-74289458D02*
G01*
X35173416Y-72990420D01*
X36082742Y-73515420D01*
X35332742Y-74814458D01*
X34423416Y-74289458D01*
X34423416Y-74289458D01*
G37*
D18*
X37452784Y-75172439D03*
D19*
X37565284Y-74977583D02*
X37340284Y-75367295D01*
D18*
X36352931Y-74537439D03*
D19*
X36465431Y-74342583D02*
X36240431Y-74732295D01*
D18*
X33177931Y-80036700D03*
D19*
X33290431Y-79841844D02*
X33065431Y-80231556D01*
D18*
X34277784Y-80671700D03*
D19*
X34390284Y-80476844D02*
X34165284Y-80866556D01*
D18*
X32078079Y-79401700D03*
D15*
G36*
X31248416Y-79788719D02*
G01*
X31998416Y-78489681D01*
X32907742Y-79014681D01*
X32157742Y-80313719D01*
X31248416Y-79788719D01*
X31248416Y-79788719D01*
G37*
D18*
X105620876Y-62538340D03*
D19*
X105765503Y-62365980D02*
X105476249Y-62710700D01*
D18*
X106593753Y-63354681D03*
D19*
X106738380Y-63182321D02*
X106449126Y-63527041D01*
D18*
X104648000Y-61722000D03*
D15*
G36*
X103763736Y-61959070D02*
G01*
X104727917Y-60810003D01*
X105532264Y-61484930D01*
X104568083Y-62633997D01*
X103763736Y-61959070D01*
X103763736Y-61959070D01*
G37*
D18*
X108966000Y-56896000D03*
D15*
G36*
X108081736Y-57133070D02*
G01*
X109045917Y-55984003D01*
X109850264Y-56658930D01*
X108886083Y-57807997D01*
X108081736Y-57133070D01*
X108081736Y-57133070D01*
G37*
D18*
X110911753Y-58528681D03*
D19*
X111056380Y-58356321D02*
X110767126Y-58701041D01*
D18*
X109938876Y-57712340D03*
D19*
X110083503Y-57539980D02*
X109794249Y-57884700D01*
D18*
X69850000Y-83312000D03*
D15*
G36*
X69463212Y-84141771D02*
G01*
X69202740Y-82664559D01*
X70236788Y-82482229D01*
X70497260Y-83959441D01*
X69463212Y-84141771D01*
X69463212Y-84141771D01*
G37*
D18*
X72351412Y-82870934D03*
D19*
X72312341Y-82649352D02*
X72390483Y-83092516D01*
D18*
X71100706Y-83091467D03*
D19*
X71061635Y-82869885D02*
X71139777Y-83313049D01*
D18*
X101389124Y-58111660D03*
D19*
X101244497Y-58284020D02*
X101533751Y-57939300D01*
D18*
X100416247Y-57295319D03*
D19*
X100271620Y-57467679D02*
X100560874Y-57122959D01*
D18*
X102362000Y-58928000D03*
D15*
G36*
X103246264Y-58690930D02*
G01*
X102282083Y-59839997D01*
X101477736Y-59165070D01*
X102441917Y-58016003D01*
X103246264Y-58690930D01*
X103246264Y-58690930D01*
G37*
D18*
X106426000Y-54102000D03*
D15*
G36*
X107310264Y-53864930D02*
G01*
X106346083Y-55013997D01*
X105541736Y-54339070D01*
X106505917Y-53190003D01*
X107310264Y-53864930D01*
X107310264Y-53864930D01*
G37*
D18*
X104480247Y-52469319D03*
D19*
X104335620Y-52641679D02*
X104624874Y-52296959D01*
D18*
X105453124Y-53285660D03*
D19*
X105308497Y-53458020D02*
X105597751Y-53113300D01*
D12*
X26670000Y-51816000D03*
X20070886Y-48006000D03*
D14*
X20070886Y-48006000D02*
X20070886Y-48006000D01*
D12*
X21041752Y-33568245D03*
X17231752Y-40167359D03*
D14*
X17231752Y-40167359D02*
X17231752Y-40167359D01*
D12*
X37222235Y-51869199D03*
D14*
X37222235Y-51869199D02*
X37222235Y-51869199D01*
D12*
X29718000Y-50546000D03*
X48059199Y-99175765D03*
D14*
X48059199Y-99175765D02*
X48059199Y-99175765D01*
D12*
X46736000Y-106680000D03*
X47811154Y-90521070D03*
X44001154Y-83921956D03*
D14*
X44001154Y-83921956D02*
X44001154Y-83921956D01*
D12*
X39624000Y-103378000D03*
X32119765Y-104701199D03*
D14*
X32119765Y-104701199D02*
X32119765Y-104701199D01*
D12*
X45720000Y-78486000D03*
X41910000Y-71886886D03*
D14*
X41910000Y-71886886D02*
X41910000Y-71886886D01*
D12*
X21082000Y-42413114D03*
D14*
X21082000Y-42413114D02*
X21082000Y-42413114D01*
D12*
X24892000Y-35814000D03*
X47280653Y-96288815D03*
X43470653Y-89689701D03*
D14*
X43470653Y-89689701D02*
X43470653Y-89689701D01*
D12*
X26670000Y-25908000D03*
X30480000Y-32507114D03*
D14*
X30480000Y-32507114D02*
X30480000Y-32507114D01*
D12*
X47498000Y-54356000D03*
X41660741Y-59254042D03*
D14*
X41660741Y-59254042D02*
X41660741Y-59254042D01*
D12*
X42926000Y-62738000D03*
X39116000Y-69337114D03*
D14*
X39116000Y-69337114D02*
X39116000Y-69337114D01*
D12*
X55159888Y-73783450D03*
X62664123Y-72460251D03*
D14*
X62664123Y-72460251D02*
X62664123Y-72460251D01*
D12*
X63237510Y-75712087D03*
D14*
X63237510Y-75712087D02*
X63237510Y-75712087D01*
D12*
X55733275Y-77035286D03*
X54657163Y-91410543D03*
X53333964Y-83906308D03*
D14*
X53333964Y-83906308D02*
X53333964Y-83906308D01*
D12*
X57908998Y-90837157D03*
D14*
X57908998Y-90837157D02*
X57908998Y-90837157D01*
D12*
X56585799Y-83332922D03*
X54586502Y-70531615D03*
D14*
X54586502Y-70531615D02*
X54586502Y-70531615D01*
D12*
X62090737Y-69208416D03*
X63855003Y-79214063D03*
X56350768Y-80537262D03*
D14*
X56350768Y-80537262D02*
X56350768Y-80537262D01*
D12*
X63357773Y-57378677D03*
D14*
X63357773Y-57378677D02*
X63357773Y-57378677D01*
D12*
X55853538Y-58701876D03*
X52778130Y-60275827D03*
D14*
X52778130Y-60275827D02*
X52778130Y-60275827D01*
D12*
X54101329Y-67780062D03*
D20*
X53340000Y-42672000D03*
D12*
X45720000Y-42672000D03*
X45720000Y-45974000D03*
D20*
X53340000Y-45974000D03*
X64889429Y-39595931D03*
D12*
X64889429Y-31975931D03*
X55397973Y-54655511D03*
X58004166Y-47495053D03*
D14*
X58004166Y-47495053D02*
X58004166Y-47495053D01*
D12*
X57752905Y-32888257D03*
X55146712Y-40048715D03*
D14*
X55146712Y-40048715D02*
X55146712Y-40048715D01*
D12*
X23353995Y-78764257D03*
X15849760Y-80087456D03*
D14*
X15849760Y-80087456D02*
X15849760Y-80087456D01*
D12*
X23940251Y-73828916D03*
D14*
X23940251Y-73828916D02*
X23940251Y-73828916D01*
D12*
X16779793Y-76435109D03*
D20*
X59096636Y-28312055D03*
D12*
X66716636Y-28312055D03*
X38287807Y-14429542D03*
D14*
X38287807Y-14429542D02*
X38287807Y-14429542D01*
D12*
X40894000Y-21590000D03*
X22025958Y-62479259D03*
D14*
X22025958Y-62479259D02*
X22025958Y-62479259D01*
D12*
X26924000Y-56642000D03*
X44704000Y-18034000D03*
X51864458Y-15427807D03*
D14*
X51864458Y-15427807D02*
X51864458Y-15427807D01*
D12*
X23870706Y-98095355D03*
X29707965Y-102993397D03*
D14*
X29707965Y-102993397D02*
X29707965Y-102993397D01*
D12*
X17532554Y-97670246D03*
D14*
X17532554Y-97670246D02*
X17532554Y-97670246D01*
D12*
X23369813Y-102568288D03*
X38608000Y-25146000D03*
X45768458Y-22539807D03*
D14*
X45768458Y-22539807D02*
X45768458Y-22539807D01*
D12*
X39188042Y-36317259D03*
D14*
X39188042Y-36317259D02*
X39188042Y-36317259D01*
D12*
X34290000Y-30480000D03*
X25974310Y-95398206D03*
D14*
X25974310Y-95398206D02*
X25974310Y-95398206D01*
D12*
X28580503Y-88237748D03*
X27686000Y-39116000D03*
X33523259Y-34217958D03*
D14*
X33523259Y-34217958D02*
X33523259Y-34217958D01*
D20*
X31750000Y-42418000D03*
D12*
X39370000Y-42418000D03*
X22958965Y-94387344D03*
X25565158Y-87226886D03*
D14*
X25565158Y-87226886D02*
X25565158Y-87226886D01*
D12*
X113025259Y-87194042D03*
D14*
X113025259Y-87194042D02*
X113025259Y-87194042D01*
D12*
X107188000Y-82296000D03*
X114372042Y-95000741D03*
D14*
X114372042Y-95000741D02*
X114372042Y-95000741D01*
D12*
X109474000Y-100838000D03*
X103886000Y-82804000D03*
X96725542Y-80197807D03*
D14*
X96725542Y-80197807D02*
X96725542Y-80197807D01*
D12*
X94167807Y-31798458D03*
D14*
X94167807Y-31798458D02*
X94167807Y-31798458D01*
D12*
X96774000Y-24638000D03*
X92964000Y-40640000D03*
X95570193Y-47800458D03*
D14*
X95570193Y-47800458D02*
X95570193Y-47800458D01*
D12*
X103124000Y-29210000D03*
D20*
X110744000Y-29210000D03*
D12*
X95316193Y-59992458D03*
D14*
X95316193Y-59992458D02*
X95316193Y-59992458D01*
D12*
X92710000Y-52832000D03*
X106426000Y-98044000D03*
X111324042Y-92206741D03*
D14*
X111324042Y-92206741D02*
X111324042Y-92206741D01*
D12*
X94488000Y-35052000D03*
X97094193Y-42212458D03*
D14*
X97094193Y-42212458D02*
X97094193Y-42212458D01*
D12*
X99755807Y-100535542D03*
D14*
X99755807Y-100535542D02*
X99755807Y-100535542D01*
D12*
X102362000Y-107696000D03*
X93721114Y-71882000D03*
D14*
X93721114Y-71882000D02*
X93721114Y-71882000D01*
D12*
X87122000Y-75692000D03*
X97608042Y-62488741D03*
D14*
X97608042Y-62488741D02*
X97608042Y-62488741D01*
D12*
X92710000Y-68326000D03*
D20*
X75184000Y-55626000D03*
D12*
X82804000Y-55626000D03*
X82804000Y-52324000D03*
D20*
X75184000Y-52324000D03*
D12*
X86360000Y-38354000D03*
D20*
X86360000Y-45974000D03*
X83058000Y-38354000D03*
D12*
X83058000Y-45974000D03*
X75184000Y-58928000D03*
D20*
X82804000Y-58928000D03*
X82804000Y-48768000D03*
D12*
X75184000Y-48768000D03*
X79502000Y-70358000D03*
D20*
X71882000Y-70358000D03*
D12*
X82804000Y-61722000D03*
D20*
X82804000Y-69342000D03*
D12*
X86614000Y-88138000D03*
X79109765Y-86814801D03*
D14*
X79109765Y-86814801D02*
X79109765Y-86814801D01*
D12*
X79871765Y-83258801D03*
D14*
X79871765Y-83258801D02*
X79871765Y-83258801D01*
D12*
X87376000Y-84582000D03*
X65786000Y-94996000D03*
X67109199Y-87491765D03*
D14*
X67109199Y-87491765D02*
X67109199Y-87491765D01*
D12*
X75438000Y-81275114D03*
D14*
X75438000Y-81275114D02*
X75438000Y-81275114D01*
D12*
X79248000Y-74676000D03*
X73152000Y-95758000D03*
X76962000Y-89158886D03*
D14*
X76962000Y-89158886D02*
X76962000Y-89158886D01*
D20*
X122682000Y-56134000D03*
D12*
X115062000Y-56134000D03*
X121158000Y-59944000D03*
X113653765Y-61267199D03*
D14*
X113653765Y-61267199D02*
X113653765Y-61267199D01*
D12*
X71258235Y-99875199D03*
D14*
X71258235Y-99875199D02*
X71258235Y-99875199D01*
D12*
X63754000Y-98552000D03*
X89207199Y-117232235D03*
D14*
X89207199Y-117232235D02*
X89207199Y-117232235D01*
D12*
X87884000Y-109728000D03*
X113533259Y-72317958D03*
D14*
X113533259Y-72317958D02*
X113533259Y-72317958D01*
D12*
X107696000Y-77216000D03*
X75807765Y-113591199D03*
D14*
X75807765Y-113591199D02*
X75807765Y-113591199D01*
D12*
X83312000Y-112268000D03*
X110998000Y-63246000D03*
X115896042Y-69083259D03*
D14*
X115896042Y-69083259D02*
X115896042Y-69083259D01*
D12*
X112957958Y-31246741D03*
D14*
X112957958Y-31246741D02*
X112957958Y-31246741D01*
D12*
X117856000Y-37084000D03*
X124024042Y-38857259D03*
D14*
X124024042Y-38857259D02*
X124024042Y-38857259D01*
D12*
X119126000Y-33020000D03*
X90678000Y-106426000D03*
X83173765Y-107749199D03*
D14*
X83173765Y-107749199D02*
X83173765Y-107749199D01*
D12*
X96012000Y-101854000D03*
X92202000Y-95254886D03*
D14*
X92202000Y-95254886D02*
X92202000Y-95254886D01*
D12*
X111506000Y-45974000D03*
X115316000Y-39374886D03*
D14*
X115316000Y-39374886D02*
X115316000Y-39374886D01*
D12*
X97286886Y-98552000D03*
D14*
X97286886Y-98552000D02*
X97286886Y-98552000D01*
D12*
X103886000Y-94742000D03*
X92710000Y-89408000D03*
X100214235Y-90731199D03*
D14*
X100214235Y-90731199D02*
X100214235Y-90731199D01*
D12*
X114300000Y-47747114D03*
D14*
X114300000Y-47747114D02*
X114300000Y-47747114D01*
D12*
X118110000Y-41148000D03*
D21*
X63665938Y-15727778D03*
X60452000Y-19558000D03*
D15*
G36*
X60547524Y-20649845D02*
G01*
X59360155Y-19653524D01*
X60356476Y-18466155D01*
X61543845Y-19462476D01*
X60547524Y-20649845D01*
X60547524Y-20649845D01*
G37*
D21*
X65889191Y-20856827D03*
X63196951Y-105980747D03*
X68326000Y-108204000D03*
D15*
G36*
X68421524Y-107112155D02*
G01*
X69417845Y-108299524D01*
X68230476Y-109295845D01*
X67234155Y-108108476D01*
X68421524Y-107112155D01*
X68421524Y-107112155D01*
G37*
D21*
X64495778Y-111417938D03*
D12*
X30988000Y-54864000D03*
D15*
G36*
X30061235Y-55512928D02*
G01*
X30339072Y-53937235D01*
X31914765Y-54215072D01*
X31636928Y-55790765D01*
X30061235Y-55512928D01*
X30061235Y-55512928D01*
G37*
D12*
X37169036Y-63691434D03*
D14*
X37169036Y-63691434D02*
X37169036Y-63691434D01*
D12*
X30546934Y-57365412D03*
D14*
X30546934Y-57365412D02*
X30546934Y-57365412D01*
D12*
X37610102Y-61190022D03*
D14*
X37610102Y-61190022D02*
X37610102Y-61190022D01*
D12*
X30105867Y-59866823D03*
D14*
X30105867Y-59866823D02*
X30105867Y-59866823D01*
D12*
X38051169Y-58688611D03*
D14*
X38051169Y-58688611D02*
X38051169Y-58688611D01*
D12*
X29664801Y-62368235D03*
D14*
X29664801Y-62368235D02*
X29664801Y-62368235D01*
D12*
X38492235Y-56187199D03*
D14*
X38492235Y-56187199D02*
X38492235Y-56187199D01*
D12*
X31169517Y-92681684D03*
D15*
G36*
X30520589Y-93608449D02*
G01*
X30242752Y-92032756D01*
X31818445Y-91754919D01*
X32096282Y-93330612D01*
X30520589Y-93608449D01*
X30520589Y-93608449D01*
G37*
D12*
X39996951Y-98862720D03*
D14*
X39996951Y-98862720D02*
X39996951Y-98862720D01*
D12*
X31610583Y-95183096D03*
D14*
X31610583Y-95183096D02*
X31610583Y-95183096D01*
D12*
X39555885Y-96361308D03*
D14*
X39555885Y-96361308D02*
X39555885Y-96361308D01*
D12*
X32051650Y-97684507D03*
D14*
X32051650Y-97684507D02*
X32051650Y-97684507D01*
D12*
X39114818Y-93859897D03*
D14*
X39114818Y-93859897D02*
X39114818Y-93859897D01*
D12*
X32492716Y-100185919D03*
D14*
X32492716Y-100185919D02*
X32492716Y-100185919D01*
D12*
X38673752Y-91358485D03*
D14*
X38673752Y-91358485D02*
X38673752Y-91358485D01*
D12*
X50226524Y-20147735D03*
D15*
G36*
X49201154Y-20625873D02*
G01*
X49748386Y-19122365D01*
X51251894Y-19669597D01*
X50704662Y-21173105D01*
X49201154Y-20625873D01*
X49201154Y-20625873D01*
G37*
D12*
X52174595Y-37074844D03*
D14*
X52174595Y-37074844D02*
X52174595Y-37074844D01*
D12*
X49357793Y-22534554D03*
D14*
X49357793Y-22534554D02*
X49357793Y-22534554D01*
D12*
X53043326Y-34688025D03*
D14*
X53043326Y-34688025D02*
X53043326Y-34688025D01*
D12*
X48489062Y-24921374D03*
D14*
X48489062Y-24921374D02*
X48489062Y-24921374D01*
D12*
X53912057Y-32301206D03*
D14*
X53912057Y-32301206D02*
X53912057Y-32301206D01*
D12*
X47620331Y-27308193D03*
D14*
X47620331Y-27308193D02*
X47620331Y-27308193D01*
D12*
X54780788Y-29914386D03*
D14*
X54780788Y-29914386D02*
X54780788Y-29914386D01*
D12*
X46751599Y-29695012D03*
D14*
X46751599Y-29695012D02*
X46751599Y-29695012D01*
D12*
X55649519Y-27527567D03*
D14*
X55649519Y-27527567D02*
X55649519Y-27527567D01*
D12*
X45882868Y-32081831D03*
D14*
X45882868Y-32081831D02*
X45882868Y-32081831D01*
D12*
X56518251Y-25140748D03*
D14*
X56518251Y-25140748D02*
X56518251Y-25140748D01*
D12*
X45014137Y-34468651D03*
D14*
X45014137Y-34468651D02*
X45014137Y-34468651D01*
D12*
X57386982Y-22753928D03*
D14*
X57386982Y-22753928D02*
X57386982Y-22753928D01*
D12*
X96217542Y-75625807D03*
D14*
X96217542Y-75625807D02*
X96217542Y-75625807D01*
D12*
X105984193Y-71071542D03*
D14*
X105984193Y-71071542D02*
X105984193Y-71071542D01*
D12*
X97086273Y-73238987D03*
D14*
X97086273Y-73238987D02*
X97086273Y-73238987D01*
D12*
X105115462Y-73458361D03*
D14*
X105115462Y-73458361D02*
X105115462Y-73458361D01*
D12*
X97955005Y-70852168D03*
D14*
X97955005Y-70852168D02*
X97955005Y-70852168D01*
D12*
X104246731Y-75845181D03*
D14*
X104246731Y-75845181D02*
X104246731Y-75845181D01*
D12*
X98823736Y-68465349D03*
D14*
X98823736Y-68465349D02*
X98823736Y-68465349D01*
D12*
X103378000Y-78232000D03*
D15*
G36*
X104403370Y-77753862D02*
G01*
X103856138Y-79257370D01*
X102352630Y-78710138D01*
X102899862Y-77206630D01*
X104403370Y-77753862D01*
X104403370Y-77753862D01*
G37*
D20*
X102108000Y-41402000D03*
X109728000Y-33782000D03*
X102108000Y-38862000D03*
X109728000Y-36322000D03*
X102108000Y-36322000D03*
X109728000Y-38862000D03*
X102108000Y-33782000D03*
D13*
X109728000Y-41402000D03*
D12*
X71632886Y-105410000D03*
D14*
X71632886Y-105410000D02*
X71632886Y-105410000D01*
D12*
X85852000Y-96021773D03*
D14*
X85852000Y-96021773D02*
X85852000Y-96021773D01*
D12*
X72902886Y-103210295D03*
D14*
X72902886Y-103210295D02*
X72902886Y-103210295D01*
D12*
X84582000Y-98221477D03*
D14*
X84582000Y-98221477D02*
X84582000Y-98221477D01*
D12*
X74172886Y-101010591D03*
D14*
X74172886Y-101010591D02*
X74172886Y-101010591D01*
D12*
X83312000Y-100421182D03*
D14*
X83312000Y-100421182D02*
X83312000Y-100421182D01*
D12*
X75442886Y-98810886D03*
D14*
X75442886Y-98810886D02*
X75442886Y-98810886D01*
D12*
X82042000Y-102620886D03*
D14*
X82042000Y-102620886D02*
X82042000Y-102620886D01*
D12*
X76712886Y-96611182D03*
D14*
X76712886Y-96611182D02*
X76712886Y-96611182D01*
D12*
X80772000Y-104820591D03*
D14*
X80772000Y-104820591D02*
X80772000Y-104820591D01*
D12*
X77982886Y-94411477D03*
D14*
X77982886Y-94411477D02*
X77982886Y-94411477D01*
D12*
X79502000Y-107020295D03*
D14*
X79502000Y-107020295D02*
X79502000Y-107020295D01*
D12*
X79252886Y-92211773D03*
D14*
X79252886Y-92211773D02*
X79252886Y-92211773D01*
D12*
X78232000Y-109220000D03*
D15*
G36*
X79324820Y-108927180D02*
G01*
X78524820Y-110312820D01*
X77139180Y-109512820D01*
X77939180Y-108127180D01*
X79324820Y-108927180D01*
X79324820Y-108927180D01*
G37*
D22*
X37084000Y-67564000D03*
X99492997Y-64896422D03*
D23*
X30546934Y-57365412D02*
X33782000Y-60706000D01*
X33782000Y-60706000D02*
X33782000Y-66294000D01*
X33782000Y-66294000D02*
X34798000Y-70866000D01*
X34798000Y-70866000D02*
X36576000Y-72390000D01*
X36576000Y-72390000D02*
X37846000Y-72898000D01*
X37846000Y-72898000D02*
X38100000Y-74168000D01*
X38100000Y-74168000D02*
X37452784Y-75172439D01*
X99668814Y-59511137D02*
X99639203Y-58216323D01*
X102524299Y-66720515D02*
X102317652Y-62041547D01*
X104159782Y-76075219D02*
X101553953Y-72223619D01*
X99639203Y-58216323D02*
X100451004Y-57339534D01*
X100831304Y-60231953D02*
X99668814Y-59511137D01*
X102317652Y-62041547D02*
X100831304Y-60231953D01*
X101553953Y-72223619D02*
X102524299Y-66720515D01*
X63357773Y-57378677D02*
X57150000Y-62230000D01*
X57150000Y-62230000D02*
X51562000Y-63500000D01*
X51562000Y-63500000D02*
X44196000Y-64516000D01*
X44196000Y-64516000D02*
X39624000Y-64262000D01*
X39624000Y-64262000D02*
X37169036Y-63691434D01*
X91959764Y-66663129D02*
X96418197Y-67707190D01*
X84529242Y-66384601D02*
X91959764Y-66663129D01*
X71849718Y-70364612D02*
X78805606Y-66664963D01*
X96418197Y-67707190D02*
X98736789Y-68695388D01*
X78805606Y-66664963D02*
X84529242Y-66384601D01*
X37084000Y-67564000D02*
X41402000Y-66040000D01*
X41402000Y-66040000D02*
X47244000Y-68072000D01*
X47244000Y-68072000D02*
X50038000Y-70866000D01*
X50038000Y-70866000D02*
X52070000Y-75946000D01*
X52070000Y-75946000D02*
X52634445Y-77780445D01*
X53632275Y-79463725D02*
X52634445Y-77780445D01*
X53632275Y-79463725D02*
X56350768Y-80537262D01*
D24*
X96130594Y-75855845D02*
X89356862Y-77036739D01*
X66080454Y-83249217D02*
X69563718Y-83318612D01*
X98008482Y-76240989D02*
X96130594Y-75855845D01*
X70156427Y-84999593D02*
X69563718Y-83318612D01*
X45720000Y-86868000D02*
X38547895Y-85791895D01*
X38547895Y-85791895D02*
X38354000Y-77216000D01*
X38673752Y-91358485D02*
X38547895Y-85791895D01*
D25*
X96217542Y-75625807D02*
X89356862Y-77036739D01*
X89356862Y-77036739D02*
X85752174Y-78464486D01*
X85752174Y-78464486D02*
X79871765Y-83258801D01*
X79871765Y-83258801D02*
X72157558Y-85352446D01*
X70156427Y-84999593D02*
X72157558Y-85352446D01*
X69850000Y-83312000D02*
X70156427Y-84999593D01*
X69850000Y-83312000D02*
X66080454Y-83249217D01*
X66080454Y-83249217D02*
X60843210Y-89547462D01*
X60843210Y-89547462D02*
X59917581Y-99185145D01*
X59917581Y-99185145D02*
X71632886Y-105410000D01*
X75807765Y-113591199D02*
X71632886Y-105410000D01*
X96217542Y-75625807D02*
X98008482Y-76240989D01*
X98008482Y-76240989D02*
X99822000Y-74930000D01*
X99822000Y-74930000D02*
X100711118Y-67944882D01*
D24*
X100711118Y-67944882D02*
X100714704Y-68206861D01*
D25*
X100640376Y-62777471D02*
X100711118Y-67944882D01*
X98285787Y-60041027D02*
X100640376Y-62777471D01*
X98226572Y-57451404D02*
X98285787Y-60041027D01*
X98226572Y-57451404D02*
X99918339Y-55170524D01*
X99918339Y-55170524D02*
X102108000Y-41402000D01*
X63359606Y-44224518D02*
X66802000Y-43688000D01*
X66802000Y-43688000D02*
X70866000Y-36576000D01*
X70866000Y-36576000D02*
X70104000Y-26924000D01*
X70104000Y-26924000D02*
X57386982Y-22753928D01*
X57386982Y-22753928D02*
X51864458Y-15427807D01*
X63359606Y-44224518D02*
X62992000Y-42418000D01*
X62992000Y-42418000D02*
X60452000Y-42672000D01*
X60452000Y-42672000D02*
X53340000Y-45974000D01*
X53340000Y-45974000D02*
X48260000Y-51816000D01*
X48260000Y-51816000D02*
X44958000Y-53848000D01*
X44958000Y-53848000D02*
X38492235Y-56187199D01*
X38492235Y-56187199D02*
X36576000Y-56134000D01*
X36576000Y-56134000D02*
X35346640Y-64729360D01*
X35346640Y-64729360D02*
X36322000Y-69850000D01*
X36322000Y-69850000D02*
X39179500Y-72453500D01*
X39179500Y-72453500D02*
X39624000Y-74676000D01*
X39624000Y-74676000D02*
X38354000Y-77216000D01*
X38544938Y-85661062D02*
X45720000Y-86868000D01*
X38354000Y-77216000D02*
X38544938Y-85661062D01*
X38544938Y-85661062D02*
X38673752Y-91358485D01*
X45720000Y-86868000D02*
X55880000Y-87122000D01*
X55880000Y-87122000D02*
X60843210Y-89547462D01*
X51790600Y-106527600D02*
X55600600Y-106527600D01*
X55600600Y-106527600D02*
X59917581Y-99185145D01*
D23*
X89575563Y-62631874D02*
X87309180Y-59395148D01*
X99492997Y-64896422D02*
X94975956Y-65647454D01*
X87309180Y-59395148D02*
X86190189Y-54039473D01*
X94975956Y-65647454D02*
X89575563Y-62631874D01*
X85262492Y-50303903D02*
X82771717Y-48774616D01*
X86190189Y-54039473D02*
X85952863Y-52134883D01*
X85262492Y-50303903D02*
X85952863Y-52134883D01*
D24*
X112909222Y-31286112D02*
X109679264Y-33567371D01*
X108123951Y-65866049D02*
X108041902Y-66145905D01*
D25*
X105984193Y-71071542D02*
X108123951Y-65866049D01*
X108123951Y-65866049D02*
X109336104Y-61731578D01*
X111852012Y-60627690D02*
X109336104Y-61731578D01*
X111852012Y-60627690D02*
X112587329Y-57920244D01*
X112587329Y-57920244D02*
X107195908Y-48760092D01*
X107195908Y-48760092D02*
X107167737Y-35793737D01*
D24*
X109679264Y-33567371D02*
X107167737Y-35793737D01*
D25*
X107167737Y-35793737D02*
X109728000Y-33782000D01*
X112957958Y-31246741D02*
X109728000Y-33782000D01*
X79248000Y-74676000D02*
X71374000Y-75692000D01*
X71374000Y-75692000D02*
X69088000Y-74676000D01*
X69088000Y-74676000D02*
X68072000Y-62992000D01*
X68072000Y-62992000D02*
X65716728Y-56203272D01*
X65716728Y-56203272D02*
X65786000Y-55372000D01*
X65532000Y-52070000D02*
X65786000Y-55372000D01*
X65532000Y-52070000D02*
X64008000Y-51562000D01*
X64008000Y-51562000D02*
X61976000Y-52070000D01*
X61976000Y-52070000D02*
X58420000Y-53594000D01*
X58420000Y-53594000D02*
X55397973Y-54655511D01*
X29664801Y-62368235D02*
X28448000Y-67818000D01*
X28448000Y-67818000D02*
X28194000Y-72644000D01*
X25754724Y-77115276D02*
X32258000Y-84582000D01*
X25754724Y-77115276D02*
X24638000Y-75946000D01*
X24638000Y-75946000D02*
X26927135Y-73409135D01*
X28194000Y-72644000D02*
X26927135Y-73409135D01*
X32258000Y-84582000D02*
X34685595Y-97423595D01*
X34685595Y-97423595D02*
X32492716Y-100185919D01*
X32492716Y-100185919D02*
X29707965Y-102993397D01*
X55626000Y-114376200D02*
X51816000Y-114376200D01*
X51816000Y-114376200D02*
X37769800Y-109778800D01*
X37769800Y-109778800D02*
X35229800Y-102666800D01*
X35229800Y-102666800D02*
X32492716Y-100185919D01*
M02*
