G04 #@! TF.GenerationSoftware,KiCad,Pcbnew,(5.1.2-1)-1*
G04 #@! TF.CreationDate,2021-05-20T21:43:52-04:00*
G04 #@! TF.ProjectId,B_Format_Mic_Encoder,425f466f-726d-4617-945f-4d69635f456e,rev?*
G04 #@! TF.SameCoordinates,Original*
G04 #@! TF.FileFunction,Copper,L2,Bot*
G04 #@! TF.FilePolarity,Positive*
%FSLAX46Y46*%
G04 Gerber Fmt 4.6, Leading zero omitted, Abs format (unit mm)*
G04 Created by KiCad (PCBNEW (5.1.2-1)-1) date 2021-05-20 21:43:52*
%MOMM*%
%LPD*%
G04 APERTURE LIST*
%ADD10C,7.000000*%
%ADD11C,1.600000*%
%ADD12C,1.600000*%
%ADD13C,0.100000*%
%ADD14R,1.600000X1.600000*%
%ADD15C,1.700000*%
%ADD16O,1.700000X1.950000*%
%ADD17C,1.700000*%
%ADD18C,1.500000*%
%ADD19R,1.500000X1.500000*%
%ADD20O,1.600000X1.600000*%
%ADD21C,1.550000*%
%ADD22C,0.800000*%
%ADD23C,0.812800*%
%ADD24C,0.406400*%
G04 APERTURE END LIST*
D10*
X17780000Y-131572000D03*
X100838000Y-131572000D03*
X100838000Y-17780000D03*
X17780000Y-17780000D03*
D11*
X74803000Y-99822000D03*
X79701042Y-105659259D03*
D12*
X79701042Y-105659259D02*
X79701042Y-105659259D01*
D11*
X45357631Y-16969789D03*
X46964600Y-18884900D03*
D13*
G36*
X48091666Y-18983505D02*
G01*
X46865995Y-20011966D01*
X45837534Y-18786295D01*
X47063205Y-17757834D01*
X48091666Y-18983505D01*
X48091666Y-18983505D01*
G37*
D11*
X16312731Y-30025389D03*
X17919700Y-31940500D03*
D13*
G36*
X19046766Y-32039105D02*
G01*
X17821095Y-33067566D01*
X16792634Y-31841895D01*
X18018305Y-30813434D01*
X19046766Y-32039105D01*
X19046766Y-32039105D01*
G37*
D11*
X90869433Y-82854518D03*
D14*
X88369433Y-82854518D03*
D11*
X20937003Y-39422494D03*
D13*
G36*
X21035608Y-38295428D02*
G01*
X22064069Y-39521099D01*
X20838398Y-40549560D01*
X19809937Y-39323889D01*
X21035608Y-38295428D01*
X21035608Y-38295428D01*
G37*
D11*
X19021892Y-41029463D03*
X19472082Y-72912827D03*
D13*
G36*
X19179262Y-71820007D02*
G01*
X20564902Y-72620007D01*
X19764902Y-74005647D01*
X18379262Y-73205647D01*
X19179262Y-71820007D01*
X19179262Y-71820007D01*
G37*
D11*
X18222082Y-75077891D03*
X99576817Y-42972418D03*
D13*
G36*
X99869637Y-44065238D02*
G01*
X98483997Y-43265238D01*
X99283997Y-41879598D01*
X100669637Y-42679598D01*
X99869637Y-44065238D01*
X99869637Y-44065238D01*
G37*
D11*
X100826817Y-40807354D03*
X82238191Y-72716905D03*
X80631222Y-74632016D03*
D13*
G36*
X80729827Y-75759082D02*
G01*
X79504156Y-74730621D01*
X80532617Y-73504950D01*
X81758288Y-74533411D01*
X80729827Y-75759082D01*
X80729827Y-75759082D01*
G37*
D14*
X31245078Y-40265781D03*
D11*
X31245078Y-42765781D03*
X29905422Y-71121259D03*
D13*
G36*
X28880052Y-70643121D02*
G01*
X30383560Y-70095889D01*
X30930792Y-71599397D01*
X29427284Y-72146629D01*
X28880052Y-70643121D01*
X28880052Y-70643121D01*
G37*
D11*
X30760472Y-73470491D03*
X89351921Y-42354340D03*
D14*
X89351921Y-44854340D03*
D11*
X66814700Y-71678800D03*
D13*
G36*
X67941766Y-71777405D02*
G01*
X66716095Y-72805866D01*
X65687634Y-71580195D01*
X66913305Y-70551734D01*
X67941766Y-71777405D01*
X67941766Y-71777405D01*
G37*
D11*
X65207731Y-69763689D03*
X54334750Y-46443632D03*
X53479700Y-44094400D03*
D13*
G36*
X52454330Y-43616262D02*
G01*
X53957838Y-43069030D01*
X54505070Y-44572538D01*
X53001562Y-45119770D01*
X52454330Y-43616262D01*
X52454330Y-43616262D01*
G37*
D11*
X54353411Y-69894031D03*
X52438300Y-71501000D03*
D13*
G36*
X52339695Y-72628066D02*
G01*
X51311234Y-71402395D01*
X52536905Y-70373934D01*
X53565366Y-71599605D01*
X52339695Y-72628066D01*
X52339695Y-72628066D01*
G37*
D11*
X64345500Y-46386464D03*
X65595500Y-44221400D03*
D13*
G36*
X65302680Y-43128580D02*
G01*
X66688320Y-43928580D01*
X65888320Y-45314220D01*
X64502680Y-44514220D01*
X65302680Y-43128580D01*
X65302680Y-43128580D01*
G37*
D11*
X50672162Y-106103322D03*
X53886100Y-102273100D03*
X53200300Y-127977900D03*
X52332059Y-123053861D03*
X74426798Y-124837659D03*
X71926798Y-129167786D03*
X71628000Y-100838000D03*
X74128000Y-105168127D03*
D13*
G36*
X59717604Y-26458204D02*
G01*
X59741873Y-26461804D01*
X59765671Y-26467765D01*
X59788771Y-26476030D01*
X59810949Y-26486520D01*
X59831993Y-26499133D01*
X59851698Y-26513747D01*
X59869877Y-26530223D01*
X59886353Y-26548402D01*
X59900967Y-26568107D01*
X59913580Y-26589151D01*
X59924070Y-26611329D01*
X59932335Y-26634429D01*
X59938296Y-26658227D01*
X59941896Y-26682496D01*
X59943100Y-26707000D01*
X59943100Y-28157000D01*
X59941896Y-28181504D01*
X59938296Y-28205773D01*
X59932335Y-28229571D01*
X59924070Y-28252671D01*
X59913580Y-28274849D01*
X59900967Y-28295893D01*
X59886353Y-28315598D01*
X59869877Y-28333777D01*
X59851698Y-28350253D01*
X59831993Y-28364867D01*
X59810949Y-28377480D01*
X59788771Y-28387970D01*
X59765671Y-28396235D01*
X59741873Y-28402196D01*
X59717604Y-28405796D01*
X59693100Y-28407000D01*
X58493100Y-28407000D01*
X58468596Y-28405796D01*
X58444327Y-28402196D01*
X58420529Y-28396235D01*
X58397429Y-28387970D01*
X58375251Y-28377480D01*
X58354207Y-28364867D01*
X58334502Y-28350253D01*
X58316323Y-28333777D01*
X58299847Y-28315598D01*
X58285233Y-28295893D01*
X58272620Y-28274849D01*
X58262130Y-28252671D01*
X58253865Y-28229571D01*
X58247904Y-28205773D01*
X58244304Y-28181504D01*
X58243100Y-28157000D01*
X58243100Y-26707000D01*
X58244304Y-26682496D01*
X58247904Y-26658227D01*
X58253865Y-26634429D01*
X58262130Y-26611329D01*
X58272620Y-26589151D01*
X58285233Y-26568107D01*
X58299847Y-26548402D01*
X58316323Y-26530223D01*
X58334502Y-26513747D01*
X58354207Y-26499133D01*
X58375251Y-26486520D01*
X58397429Y-26476030D01*
X58420529Y-26467765D01*
X58444327Y-26461804D01*
X58468596Y-26458204D01*
X58493100Y-26457000D01*
X59693100Y-26457000D01*
X59717604Y-26458204D01*
X59717604Y-26458204D01*
G37*
D15*
X59093100Y-27432000D03*
D16*
X56593100Y-27432000D03*
X54093100Y-27432000D03*
X51593100Y-27432000D03*
X49093100Y-27432000D03*
X95331300Y-108585000D03*
X92831300Y-108585000D03*
X90331300Y-108585000D03*
X87831300Y-108585000D03*
D13*
G36*
X85955804Y-107611204D02*
G01*
X85980073Y-107614804D01*
X86003871Y-107620765D01*
X86026971Y-107629030D01*
X86049149Y-107639520D01*
X86070193Y-107652133D01*
X86089898Y-107666747D01*
X86108077Y-107683223D01*
X86124553Y-107701402D01*
X86139167Y-107721107D01*
X86151780Y-107742151D01*
X86162270Y-107764329D01*
X86170535Y-107787429D01*
X86176496Y-107811227D01*
X86180096Y-107835496D01*
X86181300Y-107860000D01*
X86181300Y-109310000D01*
X86180096Y-109334504D01*
X86176496Y-109358773D01*
X86170535Y-109382571D01*
X86162270Y-109405671D01*
X86151780Y-109427849D01*
X86139167Y-109448893D01*
X86124553Y-109468598D01*
X86108077Y-109486777D01*
X86089898Y-109503253D01*
X86070193Y-109517867D01*
X86049149Y-109530480D01*
X86026971Y-109540970D01*
X86003871Y-109549235D01*
X85980073Y-109555196D01*
X85955804Y-109558796D01*
X85931300Y-109560000D01*
X84731300Y-109560000D01*
X84706796Y-109558796D01*
X84682527Y-109555196D01*
X84658729Y-109549235D01*
X84635629Y-109540970D01*
X84613451Y-109530480D01*
X84592407Y-109517867D01*
X84572702Y-109503253D01*
X84554523Y-109486777D01*
X84538047Y-109468598D01*
X84523433Y-109448893D01*
X84510820Y-109427849D01*
X84500330Y-109405671D01*
X84492065Y-109382571D01*
X84486104Y-109358773D01*
X84482504Y-109334504D01*
X84481300Y-109310000D01*
X84481300Y-107860000D01*
X84482504Y-107835496D01*
X84486104Y-107811227D01*
X84492065Y-107787429D01*
X84500330Y-107764329D01*
X84510820Y-107742151D01*
X84523433Y-107721107D01*
X84538047Y-107701402D01*
X84554523Y-107683223D01*
X84572702Y-107666747D01*
X84592407Y-107652133D01*
X84613451Y-107639520D01*
X84635629Y-107629030D01*
X84658729Y-107620765D01*
X84682527Y-107614804D01*
X84706796Y-107611204D01*
X84731300Y-107610000D01*
X85931300Y-107610000D01*
X85955804Y-107611204D01*
X85955804Y-107611204D01*
G37*
D15*
X85331300Y-108585000D03*
D13*
G36*
X32107804Y-108182704D02*
G01*
X32132073Y-108186304D01*
X32155871Y-108192265D01*
X32178971Y-108200530D01*
X32201149Y-108211020D01*
X32222193Y-108223633D01*
X32241898Y-108238247D01*
X32260077Y-108254723D01*
X32276553Y-108272902D01*
X32291167Y-108292607D01*
X32303780Y-108313651D01*
X32314270Y-108335829D01*
X32322535Y-108358929D01*
X32328496Y-108382727D01*
X32332096Y-108406996D01*
X32333300Y-108431500D01*
X32333300Y-109881500D01*
X32332096Y-109906004D01*
X32328496Y-109930273D01*
X32322535Y-109954071D01*
X32314270Y-109977171D01*
X32303780Y-109999349D01*
X32291167Y-110020393D01*
X32276553Y-110040098D01*
X32260077Y-110058277D01*
X32241898Y-110074753D01*
X32222193Y-110089367D01*
X32201149Y-110101980D01*
X32178971Y-110112470D01*
X32155871Y-110120735D01*
X32132073Y-110126696D01*
X32107804Y-110130296D01*
X32083300Y-110131500D01*
X30883300Y-110131500D01*
X30858796Y-110130296D01*
X30834527Y-110126696D01*
X30810729Y-110120735D01*
X30787629Y-110112470D01*
X30765451Y-110101980D01*
X30744407Y-110089367D01*
X30724702Y-110074753D01*
X30706523Y-110058277D01*
X30690047Y-110040098D01*
X30675433Y-110020393D01*
X30662820Y-109999349D01*
X30652330Y-109977171D01*
X30644065Y-109954071D01*
X30638104Y-109930273D01*
X30634504Y-109906004D01*
X30633300Y-109881500D01*
X30633300Y-108431500D01*
X30634504Y-108406996D01*
X30638104Y-108382727D01*
X30644065Y-108358929D01*
X30652330Y-108335829D01*
X30662820Y-108313651D01*
X30675433Y-108292607D01*
X30690047Y-108272902D01*
X30706523Y-108254723D01*
X30724702Y-108238247D01*
X30744407Y-108223633D01*
X30765451Y-108211020D01*
X30787629Y-108200530D01*
X30810729Y-108192265D01*
X30834527Y-108186304D01*
X30858796Y-108182704D01*
X30883300Y-108181500D01*
X32083300Y-108181500D01*
X32107804Y-108182704D01*
X32107804Y-108182704D01*
G37*
D15*
X31483300Y-109156500D03*
D16*
X33983300Y-109156500D03*
X36483300Y-109156500D03*
X38983300Y-109156500D03*
X41483300Y-109156500D03*
D13*
G36*
X24265284Y-25891620D02*
G01*
X24289372Y-25896275D01*
X24312888Y-25903269D01*
X24335606Y-25912534D01*
X24357305Y-25923981D01*
X24377778Y-25937500D01*
X24396828Y-25952960D01*
X24414270Y-25970213D01*
X24429938Y-25989093D01*
X24443679Y-26009418D01*
X24455362Y-26030991D01*
X24464874Y-26053606D01*
X24960803Y-27416160D01*
X24968053Y-27439598D01*
X24972970Y-27463634D01*
X24975508Y-27488036D01*
X24975642Y-27512570D01*
X24973371Y-27536998D01*
X24968716Y-27561086D01*
X24961722Y-27584602D01*
X24952457Y-27607320D01*
X24941010Y-27629019D01*
X24927491Y-27649492D01*
X24912031Y-27668542D01*
X24894778Y-27685984D01*
X24875898Y-27701652D01*
X24855573Y-27715393D01*
X24834000Y-27727076D01*
X24811385Y-27736588D01*
X23683754Y-28147012D01*
X23660316Y-28154262D01*
X23636280Y-28159179D01*
X23611878Y-28161717D01*
X23587344Y-28161851D01*
X23562916Y-28159580D01*
X23538828Y-28154925D01*
X23515312Y-28147931D01*
X23492594Y-28138666D01*
X23470895Y-28127219D01*
X23450422Y-28113700D01*
X23431372Y-28098240D01*
X23413930Y-28080987D01*
X23398262Y-28062107D01*
X23384521Y-28041782D01*
X23372838Y-28020209D01*
X23363326Y-27997594D01*
X22867397Y-26635040D01*
X22860147Y-26611602D01*
X22855230Y-26587566D01*
X22852692Y-26563164D01*
X22852558Y-26538630D01*
X22854829Y-26514202D01*
X22859484Y-26490114D01*
X22866478Y-26466598D01*
X22875743Y-26443880D01*
X22887190Y-26422181D01*
X22900709Y-26401708D01*
X22916169Y-26382658D01*
X22933422Y-26365216D01*
X22952302Y-26349548D01*
X22972627Y-26335807D01*
X22994200Y-26324124D01*
X23016815Y-26314612D01*
X24144446Y-25904188D01*
X24167884Y-25896938D01*
X24191920Y-25892021D01*
X24216322Y-25889483D01*
X24240856Y-25889349D01*
X24265284Y-25891620D01*
X24265284Y-25891620D01*
G37*
D15*
X23914100Y-27025600D03*
X26263332Y-26170550D03*
D17*
X26220579Y-26053088D02*
X26306085Y-26288012D01*
D15*
X28612563Y-25315499D03*
D17*
X28569810Y-25198037D02*
X28655316Y-25432961D01*
D15*
X40245763Y-21759499D03*
D17*
X40203010Y-21642037D02*
X40288516Y-21876961D01*
D15*
X37896532Y-22614550D03*
D17*
X37853779Y-22497088D02*
X37939285Y-22732012D01*
D13*
G36*
X35898484Y-22335620D02*
G01*
X35922572Y-22340275D01*
X35946088Y-22347269D01*
X35968806Y-22356534D01*
X35990505Y-22367981D01*
X36010978Y-22381500D01*
X36030028Y-22396960D01*
X36047470Y-22414213D01*
X36063138Y-22433093D01*
X36076879Y-22453418D01*
X36088562Y-22474991D01*
X36098074Y-22497606D01*
X36594003Y-23860160D01*
X36601253Y-23883598D01*
X36606170Y-23907634D01*
X36608708Y-23932036D01*
X36608842Y-23956570D01*
X36606571Y-23980998D01*
X36601916Y-24005086D01*
X36594922Y-24028602D01*
X36585657Y-24051320D01*
X36574210Y-24073019D01*
X36560691Y-24093492D01*
X36545231Y-24112542D01*
X36527978Y-24129984D01*
X36509098Y-24145652D01*
X36488773Y-24159393D01*
X36467200Y-24171076D01*
X36444585Y-24180588D01*
X35316954Y-24591012D01*
X35293516Y-24598262D01*
X35269480Y-24603179D01*
X35245078Y-24605717D01*
X35220544Y-24605851D01*
X35196116Y-24603580D01*
X35172028Y-24598925D01*
X35148512Y-24591931D01*
X35125794Y-24582666D01*
X35104095Y-24571219D01*
X35083622Y-24557700D01*
X35064572Y-24542240D01*
X35047130Y-24524987D01*
X35031462Y-24506107D01*
X35017721Y-24485782D01*
X35006038Y-24464209D01*
X34996526Y-24441594D01*
X34500597Y-23079040D01*
X34493347Y-23055602D01*
X34488430Y-23031566D01*
X34485892Y-23007164D01*
X34485758Y-22982630D01*
X34488029Y-22958202D01*
X34492684Y-22934114D01*
X34499678Y-22910598D01*
X34508943Y-22887880D01*
X34520390Y-22866181D01*
X34533909Y-22845708D01*
X34549369Y-22826658D01*
X34566622Y-22809216D01*
X34585502Y-22793548D01*
X34605827Y-22779807D01*
X34627400Y-22768124D01*
X34650015Y-22758612D01*
X35777646Y-22348188D01*
X35801084Y-22340938D01*
X35825120Y-22336021D01*
X35849522Y-22333483D01*
X35874056Y-22333349D01*
X35898484Y-22335620D01*
X35898484Y-22335620D01*
G37*
D15*
X35547300Y-23469600D03*
D18*
X85618949Y-66067837D03*
D13*
G36*
X84750107Y-65459467D02*
G01*
X86227319Y-65198995D01*
X86487791Y-66676207D01*
X85010579Y-66936679D01*
X84750107Y-65459467D01*
X84750107Y-65459467D01*
G37*
D18*
X80616126Y-66949970D03*
X83117537Y-66508903D03*
X34932081Y-47228647D03*
X36564761Y-45282894D03*
X33299400Y-49174400D03*
D13*
G36*
X34356024Y-49081957D02*
G01*
X33391843Y-50231024D01*
X32242776Y-49266843D01*
X33206957Y-48117776D01*
X34356024Y-49081957D01*
X34356024Y-49081957D01*
G37*
D18*
X35710233Y-76197647D03*
X36578964Y-73810827D03*
X34841502Y-78584466D03*
D13*
G36*
X35802787Y-78136212D02*
G01*
X35289756Y-79545751D01*
X33880217Y-79032720D01*
X34393248Y-77623181D01*
X35802787Y-78136212D01*
X35802787Y-78136212D01*
G37*
D18*
X84264985Y-38751234D03*
X82994985Y-40950938D03*
X85534985Y-36551529D03*
D13*
G36*
X84510466Y-36826048D02*
G01*
X85260466Y-35527010D01*
X86559504Y-36277010D01*
X85809504Y-37576048D01*
X84510466Y-36826048D01*
X84510466Y-36826048D01*
G37*
D18*
X80117726Y-60946402D03*
X77918022Y-62216402D03*
X82317431Y-59676402D03*
D13*
G36*
X81292912Y-59401883D02*
G01*
X82591950Y-58651883D01*
X83341950Y-59950921D01*
X82042912Y-60700921D01*
X81292912Y-59401883D01*
X81292912Y-59401883D01*
G37*
D18*
X40406247Y-52068253D03*
D13*
G36*
X41430766Y-51793734D02*
G01*
X40680766Y-53092772D01*
X39381728Y-52342772D01*
X40131728Y-51043734D01*
X41430766Y-51793734D01*
X41430766Y-51793734D01*
G37*
D18*
X42946247Y-47668844D03*
X41676247Y-49868548D03*
D19*
X41640525Y-79179304D03*
D18*
X41640525Y-74099304D03*
X41640525Y-76639304D03*
X78612719Y-35098544D03*
D13*
G36*
X77743877Y-35706914D02*
G01*
X78004349Y-34229702D01*
X79481561Y-34490174D01*
X79221089Y-35967386D01*
X77743877Y-35706914D01*
X77743877Y-35706914D01*
G37*
D18*
X77730586Y-40101367D03*
X78171653Y-37599956D03*
D11*
X93066813Y-74243764D03*
D12*
X93066813Y-74243764D02*
X93066813Y-74243764D01*
D11*
X86467699Y-78053764D03*
X23149201Y-49424321D03*
D12*
X23149201Y-49424321D02*
X23149201Y-49424321D01*
D11*
X25755394Y-42263863D03*
X24356660Y-74782502D03*
D20*
X24356660Y-82402502D03*
D11*
X94659147Y-41893129D03*
D20*
X94659147Y-34273129D03*
D11*
X84739448Y-81019737D03*
D12*
X84739448Y-81019737D02*
X84739448Y-81019737D01*
D11*
X77578990Y-78413544D03*
X24929660Y-38509887D03*
D12*
X24929660Y-38509887D02*
X24929660Y-38509887D01*
D11*
X32090118Y-35903694D03*
X29238886Y-66375373D03*
X23401627Y-71273415D03*
D12*
X23401627Y-71273415D02*
X23401627Y-71273415D01*
D11*
X89931909Y-49971263D03*
X95769168Y-45073221D03*
D12*
X95769168Y-45073221D02*
X95769168Y-45073221D01*
D11*
X93276361Y-70103335D03*
D12*
X93276361Y-70103335D02*
X93276361Y-70103335D01*
D11*
X86677247Y-73913335D03*
X28186964Y-45973963D03*
X25580771Y-53134421D03*
D12*
X25580771Y-53134421D02*
X25580771Y-53134421D01*
D11*
X28136400Y-76916098D03*
D20*
X28136400Y-84536098D03*
D11*
X91259605Y-38711048D03*
D20*
X91259605Y-31091048D03*
D11*
X89469552Y-68085988D03*
D12*
X89469552Y-68085988D02*
X89469552Y-68085988D01*
D11*
X86863359Y-60925530D03*
X77419017Y-68975872D03*
D12*
X77419017Y-68975872D02*
X77419017Y-68975872D01*
D11*
X74812824Y-76136330D03*
X29796542Y-51368807D03*
D12*
X29796542Y-51368807D02*
X29796542Y-51368807D01*
D11*
X36957000Y-53975000D03*
X37560494Y-42021675D03*
D12*
X37560494Y-42021675D02*
X37560494Y-42021675D01*
D11*
X34954301Y-34861217D03*
X31828952Y-82107017D03*
D20*
X39448952Y-82107017D03*
D11*
X31086005Y-64427569D03*
X35984047Y-70264828D03*
D12*
X35984047Y-70264828D02*
X35984047Y-70264828D01*
D11*
X80636066Y-32372873D03*
X88140301Y-33696072D03*
D12*
X88140301Y-33696072D02*
X88140301Y-33696072D01*
D11*
X87068959Y-51577787D03*
X83258959Y-44978673D03*
D12*
X83258959Y-44978673D02*
X83258959Y-44978673D01*
D11*
X96476247Y-69181638D03*
D12*
X96476247Y-69181638D02*
X96476247Y-69181638D01*
D11*
X91578205Y-63344379D03*
X23593418Y-56779503D03*
D12*
X23593418Y-56779503D02*
X23593418Y-56779503D01*
D11*
X31097653Y-55456304D03*
X33141827Y-85647411D03*
X26542713Y-89457411D03*
D12*
X26542713Y-89457411D02*
X26542713Y-89457411D01*
D11*
X84183600Y-29329826D03*
X91687835Y-28006627D03*
D12*
X91687835Y-28006627D02*
X91687835Y-28006627D01*
D11*
X83811475Y-56165668D03*
X90971933Y-58771861D03*
D12*
X90971933Y-58771861D02*
X90971933Y-58771861D01*
D11*
X75284918Y-64739266D03*
X72678725Y-71899724D03*
D12*
X72678725Y-71899724D02*
X72678725Y-71899724D01*
D11*
X41318853Y-56060910D03*
X34158395Y-58667103D03*
D12*
X34158395Y-58667103D02*
X34158395Y-58667103D01*
D11*
X41445219Y-43040462D03*
X38839026Y-35880004D03*
D12*
X38839026Y-35880004D02*
X38839026Y-35880004D01*
D11*
X38176477Y-87656420D03*
D12*
X38176477Y-87656420D02*
X38176477Y-87656420D01*
D11*
X44013736Y-82758378D03*
X35180398Y-64407170D03*
D12*
X35180398Y-64407170D02*
X35180398Y-64407170D01*
D11*
X40078440Y-70244429D03*
X82521246Y-26185283D03*
D12*
X82521246Y-26185283D02*
X82521246Y-26185283D01*
D11*
X75922132Y-29995283D03*
X82457929Y-50156394D03*
D12*
X82457929Y-50156394D02*
X82457929Y-50156394D01*
D11*
X78647929Y-43557280D03*
X74352654Y-58475310D03*
D12*
X74352654Y-58475310D02*
X74352654Y-58475310D01*
D11*
X80951768Y-54665310D03*
X48469524Y-45272579D03*
D12*
X48469524Y-45272579D02*
X48469524Y-45272579D01*
D11*
X44659524Y-51871693D03*
X45750136Y-79809284D03*
X47073335Y-72305049D03*
D12*
X47073335Y-72305049D02*
X47073335Y-72305049D01*
D11*
X74533508Y-32884657D03*
X71927315Y-40045115D03*
D12*
X71927315Y-40045115D02*
X71927315Y-40045115D01*
D11*
X78984397Y-51678714D03*
X72385283Y-55488714D03*
D12*
X72385283Y-55488714D02*
X72385283Y-55488714D01*
D11*
X44878021Y-56927888D03*
X49776063Y-51090629D03*
D12*
X49776063Y-51090629D02*
X49776063Y-51090629D01*
D11*
X50947814Y-75381599D03*
D12*
X50947814Y-75381599D02*
X50947814Y-75381599D01*
D11*
X48341621Y-82542057D03*
X68537502Y-36443917D03*
D12*
X68537502Y-36443917D02*
X68537502Y-36443917D01*
D11*
X72347502Y-29844803D03*
X28624300Y-97278334D03*
X33522342Y-91441075D03*
D12*
X33522342Y-91441075D02*
X33522342Y-91441075D01*
D11*
X49612653Y-89231856D03*
D12*
X49612653Y-89231856D02*
X49612653Y-89231856D01*
D11*
X48289454Y-96736091D03*
X65080095Y-88362215D03*
D20*
X65080095Y-80742215D03*
X79497280Y-84289212D03*
D11*
X79497280Y-91909212D03*
X53060600Y-92951300D03*
D20*
X53060600Y-85331300D03*
X68426760Y-80777798D03*
D11*
X68426760Y-88397798D03*
X46135256Y-87636457D03*
D12*
X46135256Y-87636457D02*
X46135256Y-87636457D01*
D11*
X43529063Y-94796915D03*
D20*
X83009898Y-86743509D03*
D11*
X83009898Y-94363509D03*
D20*
X71782459Y-82298006D03*
D11*
X71782459Y-89918006D03*
X87887608Y-96409152D03*
X86564409Y-88904917D03*
D12*
X86564409Y-88904917D02*
X86564409Y-88904917D01*
D11*
X42288398Y-89033932D03*
D12*
X42288398Y-89033932D02*
X42288398Y-89033932D01*
D11*
X39682205Y-96194390D03*
X57073800Y-88925400D03*
X55750601Y-81421165D03*
D12*
X55750601Y-81421165D02*
X55750601Y-81421165D01*
D11*
X59817000Y-85128100D03*
X58493801Y-77623865D03*
D12*
X58493801Y-77623865D02*
X58493801Y-77623865D01*
D11*
X92809107Y-97146257D03*
X90202914Y-89985799D03*
D12*
X90202914Y-89985799D02*
X90202914Y-89985799D01*
D11*
X37686793Y-91212435D03*
D12*
X37686793Y-91212435D02*
X37686793Y-91212435D01*
D11*
X33876793Y-97811549D03*
D20*
X75034294Y-82871391D03*
D11*
X75034294Y-90491391D03*
X48793400Y-120154700D03*
X55953858Y-117548507D03*
D12*
X55953858Y-117548507D02*
X55953858Y-117548507D01*
D11*
X71480341Y-117529958D03*
D12*
X71480341Y-117529958D02*
X71480341Y-117529958D01*
D11*
X77317600Y-122428000D03*
X77050900Y-109042200D03*
X69890442Y-111648393D03*
D12*
X69890442Y-111648393D02*
X69890442Y-111648393D01*
D11*
X57086500Y-103339900D03*
X52188458Y-109177159D03*
D12*
X52188458Y-109177159D02*
X52188458Y-109177159D01*
D11*
X55255301Y-120829265D03*
D12*
X55255301Y-120829265D02*
X55255301Y-120829265D01*
D11*
X56578500Y-128333500D03*
X71692257Y-121700024D03*
D12*
X71692257Y-121700024D02*
X71692257Y-121700024D01*
D11*
X67882257Y-128299138D03*
X71932362Y-107704988D03*
D12*
X71932362Y-107704988D02*
X71932362Y-107704988D01*
D11*
X68122362Y-101105874D03*
X51460400Y-100126800D03*
X45623141Y-105024842D03*
D12*
X45623141Y-105024842D02*
X45623141Y-105024842D01*
D11*
X49199800Y-126987300D03*
X45389800Y-120388186D03*
D12*
X45389800Y-120388186D02*
X45389800Y-120388186D01*
D11*
X79751842Y-124871141D03*
D12*
X79751842Y-124871141D02*
X79751842Y-124871141D01*
D11*
X74853800Y-130708400D03*
D21*
X68992096Y-65499224D03*
X68352965Y-59945711D03*
D13*
G36*
X67359638Y-60408907D02*
G01*
X67889769Y-58952384D01*
X69346292Y-59482515D01*
X68816161Y-60939038D01*
X67359638Y-60408907D01*
X67359638Y-60408907D01*
G37*
D21*
X73051428Y-61655812D03*
X44645196Y-42686669D03*
X49343659Y-40976568D03*
D13*
G36*
X49806855Y-39983241D02*
G01*
X50336986Y-41439764D01*
X48880463Y-41969895D01*
X48350332Y-40513372D01*
X49806855Y-39983241D01*
X49806855Y-39983241D01*
G37*
D21*
X45284327Y-37133155D03*
X42343551Y-64832747D03*
X47472600Y-67056000D03*
D13*
G36*
X47568124Y-65964155D02*
G01*
X48564445Y-67151524D01*
X47377076Y-68147845D01*
X46380755Y-66960476D01*
X47568124Y-65964155D01*
X47568124Y-65964155D01*
G37*
D21*
X43642378Y-70269938D03*
X74812325Y-43101322D03*
X70482198Y-45601322D03*
D13*
G36*
X70198528Y-46659992D02*
G01*
X69423528Y-45317652D01*
X70765868Y-44542652D01*
X71540868Y-45884992D01*
X70198528Y-46659992D01*
X70198528Y-46659992D01*
G37*
D21*
X75147262Y-48681449D03*
D20*
X63360300Y-50419000D03*
X55740300Y-65659000D03*
X63360300Y-52959000D03*
X55740300Y-63119000D03*
X63360300Y-55499000D03*
X55740300Y-60579000D03*
X63360300Y-58039000D03*
X55740300Y-58039000D03*
X63360300Y-60579000D03*
X55740300Y-55499000D03*
X63360300Y-63119000D03*
X55740300Y-52959000D03*
X63360300Y-65659000D03*
D14*
X55740300Y-50419000D03*
X59093100Y-106972100D03*
D20*
X66713100Y-122212100D03*
X59093100Y-109512100D03*
X66713100Y-119672100D03*
X59093100Y-112052100D03*
X66713100Y-117132100D03*
X59093100Y-114592100D03*
X66713100Y-114592100D03*
X59093100Y-117132100D03*
X66713100Y-112052100D03*
X59093100Y-119672100D03*
X66713100Y-109512100D03*
X59093100Y-122212100D03*
X66713100Y-106972100D03*
D22*
X37299900Y-120561100D03*
X37071300Y-117208300D03*
X69989700Y-57937400D03*
D23*
X31086005Y-64427569D02*
X25361900Y-61633100D01*
X25361900Y-61633100D02*
X21018500Y-58788300D01*
X21018500Y-58788300D02*
X20447000Y-54013100D01*
X20447000Y-54013100D02*
X20091400Y-46901100D01*
X20091400Y-46901100D02*
X19672300Y-43624500D01*
X19672300Y-43624500D02*
X19021892Y-41029463D01*
D24*
X86467699Y-78053764D02*
X84739448Y-81019737D01*
X88369433Y-82854518D02*
X84739448Y-81019737D01*
X25755394Y-42263863D02*
X24929660Y-38509887D01*
X20937003Y-39422494D02*
X24929660Y-38509887D01*
X19472082Y-72912827D02*
X23401627Y-71273415D01*
X23401627Y-71273415D02*
X24356660Y-74782502D01*
X99576817Y-42972418D02*
X95769168Y-45073221D01*
X95769168Y-45073221D02*
X94659147Y-41893129D01*
X83117537Y-66508903D02*
X82238191Y-72716905D01*
X86677247Y-73913335D02*
X82238191Y-72716905D01*
X77578990Y-78413544D02*
X80631222Y-74632016D01*
X54093100Y-27432000D02*
X55994300Y-23914100D01*
X55994300Y-23914100D02*
X60388500Y-23190200D01*
X60388500Y-23190200D02*
X69900800Y-23914100D01*
X69900800Y-23914100D02*
X77520800Y-22606000D01*
X77520800Y-22606000D02*
X83375500Y-22606000D01*
X97726500Y-32410400D02*
X100660200Y-37096700D01*
X100660200Y-37096700D02*
X104165400Y-42367200D01*
X104165400Y-42367200D02*
X101384100Y-50126900D01*
X101384100Y-50126900D02*
X96850200Y-61836300D01*
X96850200Y-61836300D02*
X92392500Y-68237100D01*
X92392500Y-68237100D02*
X90627200Y-71107300D01*
X90627200Y-71107300D02*
X89166700Y-75006200D01*
X89166700Y-75006200D02*
X86842600Y-75984100D01*
X86842600Y-75984100D02*
X83312000Y-76047600D01*
X83312000Y-76047600D02*
X80631222Y-74632016D01*
X97726500Y-32410400D02*
X94322900Y-30822900D01*
X94322900Y-30822900D02*
X92316300Y-29718000D01*
X92316300Y-29718000D02*
X90792300Y-29298900D01*
X90792300Y-29298900D02*
X89966800Y-28194000D01*
X89966800Y-28194000D02*
X89192100Y-26746200D01*
X89192100Y-26746200D02*
X87604600Y-24612600D01*
X87604600Y-24612600D02*
X86385400Y-23406100D01*
X86385400Y-23406100D02*
X84937600Y-22821900D01*
X84937600Y-22821900D02*
X83375500Y-22606000D01*
X32090118Y-35903694D02*
X31245078Y-40265781D01*
X49093100Y-27432000D02*
X37909500Y-30962600D01*
X37909500Y-30962600D02*
X33515300Y-32905700D01*
X33515300Y-32905700D02*
X32613600Y-34556700D01*
X32613600Y-34556700D02*
X32090118Y-35903694D01*
X28186964Y-45973963D02*
X31245078Y-42765781D01*
X31245078Y-42765781D02*
X34811782Y-47346944D01*
X29905422Y-71121259D02*
X29238886Y-66375373D01*
X51593100Y-27432000D02*
X51142900Y-25946100D01*
X51142900Y-25946100D02*
X46253400Y-25361900D01*
X46253400Y-25361900D02*
X38849300Y-27876500D01*
X38849300Y-27876500D02*
X26682700Y-30695900D01*
X26682700Y-30695900D02*
X19126200Y-34696400D01*
X17945100Y-61087000D02*
X24612600Y-64935100D01*
X24612600Y-64935100D02*
X29238886Y-66375373D01*
X15857416Y-37650616D02*
X16675639Y-58051161D01*
X19126200Y-34696400D02*
X15857416Y-37650616D01*
X16675639Y-58051161D02*
X17945100Y-61087000D01*
X30760472Y-73470491D02*
X28136400Y-76916098D01*
X35710233Y-76197647D02*
X30760472Y-73470491D01*
X91259605Y-38711048D02*
X89351921Y-42354340D01*
X89351921Y-42354340D02*
X84264985Y-38751234D01*
X89931909Y-49971263D02*
X89351921Y-44854340D01*
X56593100Y-27432000D02*
X58115200Y-24765000D01*
X58115200Y-24765000D02*
X63754000Y-24765000D01*
X63754000Y-24765000D02*
X71602600Y-25806400D01*
X71602600Y-25806400D02*
X77381100Y-23876000D01*
X77381100Y-23876000D02*
X85394800Y-24168100D01*
X85394800Y-24168100D02*
X88671400Y-27851100D01*
X88671400Y-27851100D02*
X89471500Y-31800800D01*
X89471500Y-31800800D02*
X90525600Y-34175700D01*
X90525600Y-34175700D02*
X91846400Y-36093400D01*
X91846400Y-36093400D02*
X93497400Y-38468300D01*
X93497400Y-38468300D02*
X92633800Y-41567100D01*
X92633800Y-41567100D02*
X91249500Y-43815000D01*
X91249500Y-43815000D02*
X89351921Y-44854340D01*
X75034294Y-82871391D02*
X71782459Y-82298006D01*
X71782459Y-82298006D02*
X68426760Y-80777798D01*
X68426760Y-80777798D02*
X65080095Y-80742215D01*
X65207731Y-69763689D02*
X63360300Y-65659000D01*
X63360300Y-65659000D02*
X66776600Y-63792100D01*
X66776600Y-63792100D02*
X68541900Y-62890400D01*
X68541900Y-62890400D02*
X69875400Y-61569600D01*
X69875400Y-61569600D02*
X71031100Y-59499500D01*
X71031100Y-59499500D02*
X71196200Y-58216800D01*
X71196200Y-58216800D02*
X72385283Y-55488714D01*
X49776063Y-51090629D02*
X55740300Y-50419000D01*
X55740300Y-50419000D02*
X54334750Y-46443632D01*
X33522342Y-91441075D02*
X37686793Y-91212435D01*
X37686793Y-91212435D02*
X42288398Y-89033932D01*
X46135256Y-87636457D02*
X42288398Y-89033932D01*
X46135256Y-87636457D02*
X51485800Y-84010500D01*
X51485800Y-84010500D02*
X53467000Y-79921100D01*
X53467000Y-79921100D02*
X56857900Y-76733400D01*
X56857900Y-76733400D02*
X58318400Y-74371200D01*
X58318400Y-74371200D02*
X58635900Y-68287900D01*
X58635900Y-68287900D02*
X58521600Y-63080900D01*
X58521600Y-63080900D02*
X57810400Y-58762900D01*
X57810400Y-58762900D02*
X57886600Y-52730400D01*
X57886600Y-52730400D02*
X57886600Y-47282100D01*
X57886600Y-47282100D02*
X56603900Y-45148500D01*
X56603900Y-45148500D02*
X53479700Y-44094400D01*
X55740300Y-65659000D02*
X54353411Y-69894031D01*
X54353411Y-69894031D02*
X54673500Y-72263000D01*
X54673500Y-72263000D02*
X53721000Y-74828400D01*
X53721000Y-74828400D02*
X50947814Y-75381599D01*
X49612653Y-89231856D02*
X53060600Y-85331300D01*
X53060600Y-85331300D02*
X55750601Y-81421165D01*
X55750601Y-81421165D02*
X58493801Y-77623865D01*
X63360300Y-50419000D02*
X64345500Y-46386464D01*
X64345500Y-46386464D02*
X67183000Y-46139100D01*
X67183000Y-46139100D02*
X68249800Y-44056300D01*
X68249800Y-44056300D02*
X68884800Y-41160700D01*
X68884800Y-41160700D02*
X68999100Y-38735000D01*
X68999100Y-38735000D02*
X68537502Y-36443917D01*
X79497280Y-84289212D02*
X83009898Y-86743509D01*
X83009898Y-86743509D02*
X86564409Y-88904917D01*
X90202914Y-89985799D02*
X86564409Y-88904917D01*
X79497280Y-84289212D02*
X76796900Y-81356200D01*
X76796900Y-81356200D02*
X71843900Y-79870300D01*
X71843900Y-79870300D02*
X67310000Y-78028800D01*
X67310000Y-78028800D02*
X62484000Y-76822300D01*
X62484000Y-76822300D02*
X60896500Y-75387200D01*
X60896500Y-75387200D02*
X59944000Y-72898000D01*
X59944000Y-72898000D02*
X59855100Y-70510400D01*
X59855100Y-70510400D02*
X60096400Y-65049400D01*
X60096400Y-65049400D02*
X60833000Y-62230000D01*
X60833000Y-62230000D02*
X61201300Y-57391300D01*
X61201300Y-57391300D02*
X61087000Y-50647600D01*
X61087000Y-50647600D02*
X61506100Y-45567600D01*
X61506100Y-45567600D02*
X63182500Y-44437300D01*
X63182500Y-44437300D02*
X65595500Y-44221400D01*
X59093100Y-109512100D02*
X55206900Y-108915200D01*
X55206900Y-108915200D02*
X52188458Y-109177159D01*
X50672162Y-106103322D02*
X52188458Y-109177159D01*
X59093100Y-106972100D02*
X57086500Y-103339900D01*
X57086500Y-103339900D02*
X53886100Y-102273100D01*
X59093100Y-122212100D02*
X56984900Y-125666500D01*
X56984900Y-125666500D02*
X56578500Y-128333500D01*
X56578500Y-128333500D02*
X53200300Y-127977900D01*
X49199800Y-126987300D02*
X53200300Y-127977900D01*
X52332059Y-123053861D02*
X55255301Y-120829265D01*
X55255301Y-120829265D02*
X59093100Y-119672100D01*
X55255301Y-120829265D02*
X52184300Y-115735100D01*
X44932600Y-99377500D02*
X44221400Y-96405700D01*
X44221400Y-96405700D02*
X43529063Y-94796915D01*
X83009898Y-94363509D02*
X81419700Y-89776300D01*
X81419700Y-89776300D02*
X77368400Y-86995000D01*
X77368400Y-86995000D02*
X70256400Y-84797900D01*
X70256400Y-84797900D02*
X66332100Y-83794600D01*
X66332100Y-83794600D02*
X61887100Y-82067400D01*
X61887100Y-82067400D02*
X58229500Y-82334100D01*
X58229500Y-82334100D02*
X55702200Y-85191600D01*
X55702200Y-85191600D02*
X53251100Y-88379300D01*
X53251100Y-88379300D02*
X50520600Y-90639900D01*
X50520600Y-90639900D02*
X48272700Y-92240100D01*
X48272700Y-92240100D02*
X44805600Y-93040200D01*
X44805600Y-93040200D02*
X43529063Y-94796915D01*
X44932600Y-99377500D02*
X46901100Y-102425500D01*
X46901100Y-102425500D02*
X47777400Y-104990900D01*
X47777400Y-104990900D02*
X48488600Y-107632500D01*
X48488600Y-107632500D02*
X49898300Y-111086900D01*
X52184300Y-115735100D02*
X49898300Y-111086900D01*
X74426798Y-124837659D02*
X71692257Y-121700024D01*
X66713100Y-119672100D02*
X71692257Y-121700024D01*
X57073800Y-88925400D02*
X59969400Y-90576400D01*
X59969400Y-90576400D02*
X61391800Y-93675200D01*
X61391800Y-93675200D02*
X61849000Y-96659700D01*
X61849000Y-96659700D02*
X62230000Y-100291900D01*
X62230000Y-100291900D02*
X62941200Y-102819200D01*
X62941200Y-102819200D02*
X63982600Y-105867200D01*
X63982600Y-105867200D02*
X63792100Y-111112300D01*
X63792100Y-111112300D02*
X63982600Y-112928400D01*
X63982600Y-112928400D02*
X64630300Y-114871500D01*
X64630300Y-114871500D02*
X64884300Y-117335300D01*
X64884300Y-117335300D02*
X65087500Y-119011700D01*
X65087500Y-119011700D02*
X66713100Y-119672100D01*
X71926798Y-129167786D02*
X67882257Y-128299138D01*
X67882257Y-128299138D02*
X67335400Y-123977400D01*
X67335400Y-123977400D02*
X66713100Y-122212100D01*
X66713100Y-106972100D02*
X68122362Y-101105874D01*
X68122362Y-101105874D02*
X71628000Y-100838000D01*
X71628000Y-100838000D02*
X74803000Y-99822000D01*
X74128000Y-105168127D02*
X71932362Y-107704988D01*
X71932362Y-107704988D02*
X66713100Y-109512100D01*
X75272900Y-96418400D02*
X75272900Y-93218000D01*
X75272900Y-93218000D02*
X75034294Y-90491391D01*
X75272900Y-96418400D02*
X76619100Y-98755200D01*
X76619100Y-98755200D02*
X76149200Y-101257100D01*
X76149200Y-101257100D02*
X74764900Y-103136700D01*
X74764900Y-103136700D02*
X74128000Y-105168127D01*
D23*
X23914100Y-27025600D02*
X25869900Y-28702000D01*
X25869900Y-28702000D02*
X29781500Y-28194000D01*
X29781500Y-28194000D02*
X33693100Y-26263600D01*
X33693100Y-26263600D02*
X35547300Y-23469600D01*
X91687835Y-28006627D02*
X90131900Y-24663400D01*
X90131900Y-24663400D02*
X87071200Y-21780500D01*
X87071200Y-21780500D02*
X81241900Y-20726400D01*
X81241900Y-20726400D02*
X76250800Y-21018500D01*
X76250800Y-21018500D02*
X69837300Y-21602700D01*
X69837300Y-21602700D02*
X65608200Y-21082000D01*
X65608200Y-21082000D02*
X59016900Y-20256500D01*
X59016900Y-20256500D02*
X50076100Y-20840700D01*
X50076100Y-20840700D02*
X45554900Y-22720300D01*
X45554900Y-22720300D02*
X41960800Y-24142700D01*
X41960800Y-24142700D02*
X38201600Y-25196800D01*
X38201600Y-25196800D02*
X36842700Y-25196800D01*
X36842700Y-25196800D02*
X35547300Y-23469600D01*
X75147262Y-48681449D02*
X76136500Y-54317900D01*
X76136500Y-54317900D02*
X76860400Y-58242200D01*
X76860400Y-58242200D02*
X75311000Y-62052200D01*
X75311000Y-62052200D02*
X73825100Y-63601600D01*
X73825100Y-63601600D02*
X71780400Y-65087500D01*
X71780400Y-65087500D02*
X68992096Y-65499224D01*
X25580771Y-53134421D02*
X28854400Y-56413400D01*
X28854400Y-56413400D02*
X30962600Y-59690000D01*
X30962600Y-59690000D02*
X32258000Y-61201300D01*
X32258000Y-61201300D02*
X35572700Y-61658500D01*
X35572700Y-61658500D02*
X39014400Y-62750700D01*
X39014400Y-62750700D02*
X42074684Y-65092823D01*
X48793400Y-120154700D02*
X47244000Y-114465100D01*
X47244000Y-114465100D02*
X44831000Y-111861600D01*
X44831000Y-111861600D02*
X43345100Y-110375700D01*
X43345100Y-110375700D02*
X41483300Y-109156500D01*
X26263332Y-26170550D02*
X26174700Y-24549100D01*
X26174700Y-24549100D02*
X27622500Y-22885400D01*
X27622500Y-22885400D02*
X31076900Y-21996400D01*
X31076900Y-21996400D02*
X34874200Y-20497800D01*
X34874200Y-20497800D02*
X36626800Y-20637500D01*
X36626800Y-20637500D02*
X37820600Y-21551900D01*
X37820600Y-21551900D02*
X37896532Y-22614550D01*
X59093100Y-27432000D02*
X57543700Y-30797500D01*
X57543700Y-30797500D02*
X55308500Y-33324800D01*
X55308500Y-33324800D02*
X52222400Y-35077400D01*
X51102502Y-36167302D02*
X47188529Y-37304571D01*
X45284327Y-37133155D02*
X47188529Y-37304571D01*
X52222400Y-35077400D02*
X51102502Y-36167302D01*
X41483300Y-109156500D02*
X41389300Y-106045000D01*
X41389300Y-106045000D02*
X35369500Y-103797100D01*
X35369500Y-103797100D02*
X28397200Y-102565200D01*
X28397200Y-102565200D02*
X23228300Y-98806000D01*
X23228300Y-98806000D02*
X23228300Y-92214700D01*
X23228300Y-92214700D02*
X23876000Y-86944200D01*
X23876000Y-86944200D02*
X28136400Y-84536098D01*
D24*
X92831300Y-108585000D02*
X91338400Y-106629200D01*
X91338400Y-106629200D02*
X86779100Y-105943400D01*
X86779100Y-105943400D02*
X83235800Y-105943400D01*
X83235800Y-105943400D02*
X79701042Y-105659259D01*
X92831300Y-108585000D02*
X87160100Y-118668800D01*
X87160100Y-118668800D02*
X82473800Y-127800100D01*
X82473800Y-127800100D02*
X77800200Y-134086600D01*
X77800200Y-134086600D02*
X70853300Y-135839200D01*
X70853300Y-135839200D02*
X61569600Y-135699500D01*
X61569600Y-135699500D02*
X51181000Y-133426200D01*
X51181000Y-133426200D02*
X43802300Y-130505200D01*
X43802300Y-130505200D02*
X40436800Y-125095000D01*
X40436800Y-125095000D02*
X37299900Y-120561100D01*
X37299900Y-120561100D02*
X37299900Y-120561100D01*
X79751842Y-124871141D02*
X84391500Y-119519700D01*
X84391500Y-119519700D02*
X88290400Y-113258600D01*
X88290400Y-113258600D02*
X90331300Y-108585000D01*
X79751842Y-124871141D02*
X78752700Y-129705100D01*
X78752700Y-129705100D02*
X74942700Y-133426200D01*
X74942700Y-133426200D02*
X65366900Y-133870700D01*
X65366900Y-133870700D02*
X52133500Y-130657600D01*
X52133500Y-130657600D02*
X45707300Y-129197100D01*
X45707300Y-129197100D02*
X42633900Y-123494800D01*
X42633900Y-123494800D02*
X37071300Y-117208300D01*
X37071300Y-117208300D02*
X37071300Y-117208300D01*
X42252900Y-117157500D02*
X45389800Y-120388186D01*
X38442900Y-114274600D02*
X42252900Y-117157500D01*
X35255200Y-111315500D02*
X38442900Y-114274600D01*
X33983300Y-109156500D02*
X35255200Y-111315500D01*
X89469552Y-68085988D02*
X85618949Y-66067837D01*
X77419017Y-68975872D02*
X80616126Y-66949970D01*
X63360300Y-63119000D02*
X62090300Y-64325500D01*
X62090300Y-64325500D02*
X61137800Y-65862200D01*
X61137800Y-65862200D02*
X60985400Y-69430900D01*
X60985400Y-69430900D02*
X60909200Y-72199500D01*
X60909200Y-72199500D02*
X61671200Y-74549000D01*
X61671200Y-74549000D02*
X63588900Y-75971400D01*
X63588900Y-75971400D02*
X65747900Y-76200000D01*
X65747900Y-76200000D02*
X70243700Y-76047600D01*
X70243700Y-76047600D02*
X73901300Y-74041000D01*
X73901300Y-74041000D02*
X76085700Y-71589900D01*
X76085700Y-71589900D02*
X77419017Y-68975872D01*
X36444462Y-45401191D02*
X37560494Y-42021675D01*
X55740300Y-52959000D02*
X50444400Y-53479700D01*
X50444400Y-53479700D02*
X47879000Y-51727100D01*
X47879000Y-51727100D02*
X46418500Y-48628300D01*
X46418500Y-48628300D02*
X44310300Y-44818300D01*
X44310300Y-44818300D02*
X43497500Y-43992800D01*
X43497500Y-43992800D02*
X43014900Y-43053000D01*
X43014900Y-43053000D02*
X42659300Y-41884600D01*
X42659300Y-41884600D02*
X41529000Y-41148000D01*
X41529000Y-41148000D02*
X39903400Y-41262300D01*
X39903400Y-41262300D02*
X38989000Y-41732200D01*
X38989000Y-41732200D02*
X37560494Y-42021675D01*
X33179101Y-49292697D02*
X29839307Y-51242520D01*
X36578964Y-73810827D02*
X35984047Y-70264828D01*
X55740300Y-63119000D02*
X51904900Y-63995300D01*
X51904900Y-63995300D02*
X49136300Y-64439800D01*
X49136300Y-64439800D02*
X46367700Y-65328800D01*
X46367700Y-65328800D02*
X44488100Y-66484500D01*
X44488100Y-66484500D02*
X42189400Y-67310000D01*
X42189400Y-67310000D02*
X39700200Y-67792600D01*
X39700200Y-67792600D02*
X38227000Y-68707000D01*
X38227000Y-68707000D02*
X35984047Y-70264828D01*
X34841502Y-78584466D02*
X39448952Y-82107017D01*
X83258959Y-44978673D02*
X82994985Y-40950938D01*
X63360300Y-52959000D02*
X70993000Y-47891700D01*
X70993000Y-47891700D02*
X75133200Y-45161200D01*
X75133200Y-45161200D02*
X76555600Y-43649900D01*
X76555600Y-43649900D02*
X76606400Y-41541700D01*
X76606400Y-41541700D02*
X75526900Y-39979600D01*
X75526900Y-39979600D02*
X75857100Y-39128700D01*
X75857100Y-39128700D02*
X76987400Y-38633400D01*
X76987400Y-38633400D02*
X77863700Y-38823900D01*
X77863700Y-38823900D02*
X79654400Y-39319200D01*
X79654400Y-39319200D02*
X81216500Y-39954200D01*
X81216500Y-39954200D02*
X82994985Y-40950938D01*
X85534985Y-36551529D02*
X88140301Y-33696072D01*
X80951768Y-54665310D02*
X78984397Y-51678714D01*
X80117726Y-60946402D02*
X80951768Y-54665310D01*
X75284918Y-64739266D02*
X77918022Y-62216402D01*
X69989700Y-57937400D02*
X68008500Y-57899300D01*
X68008500Y-57899300D02*
X66624200Y-58610500D01*
X66624200Y-58610500D02*
X65862200Y-59944000D01*
X65862200Y-59944000D02*
X63360300Y-60579000D01*
X82317431Y-59676402D02*
X83811475Y-56165668D01*
X40406247Y-52068253D02*
X41318853Y-56060910D01*
X42946247Y-47668844D02*
X41445219Y-43040462D01*
X55740300Y-55499000D02*
X51168300Y-55346600D01*
X51168300Y-55346600D02*
X48298100Y-53949600D01*
X48298100Y-53949600D02*
X46685200Y-52400200D01*
X46685200Y-52400200D02*
X45681900Y-50279300D01*
X45681900Y-50279300D02*
X44627800Y-48641000D01*
X44627800Y-48641000D02*
X42946247Y-47668844D01*
X44659524Y-51871693D02*
X41676247Y-49868548D01*
X44878021Y-56927888D02*
X44659524Y-51871693D01*
X44013736Y-82758378D02*
X41640525Y-79179304D01*
X41640525Y-74099304D02*
X40078440Y-70244429D01*
X55740300Y-60579000D02*
X57086500Y-61696600D01*
X57086500Y-61696600D02*
X57619900Y-64401700D01*
X57619900Y-64401700D02*
X57619900Y-67284600D01*
X57619900Y-67284600D02*
X57264300Y-72580500D01*
X57264300Y-72580500D02*
X55283100Y-76669900D01*
X55283100Y-76669900D02*
X51003200Y-77508100D01*
X51003200Y-77508100D02*
X48425100Y-77089000D01*
X48425100Y-77089000D02*
X45593000Y-75285600D01*
X45593000Y-75285600D02*
X43675300Y-74866500D01*
X43675300Y-74866500D02*
X41640525Y-74099304D01*
X48341621Y-82542057D02*
X45750136Y-79809284D01*
X45750136Y-79809284D02*
X41640525Y-76639304D01*
X78612719Y-35098544D02*
X75922132Y-29995283D01*
X77730586Y-40101367D02*
X78647929Y-43557280D01*
X63360300Y-55499000D02*
X71526400Y-50380900D01*
X71526400Y-50380900D02*
X72212200Y-48818800D01*
X72212200Y-48818800D02*
X74256900Y-47307500D01*
X74256900Y-47307500D02*
X76898500Y-46088300D01*
X76898500Y-46088300D02*
X77482700Y-45110400D01*
X77482700Y-45110400D02*
X78647929Y-43557280D01*
X78171653Y-37599956D02*
X75869800Y-35610800D01*
X75869800Y-35610800D02*
X74533508Y-32884657D01*
X74533508Y-32884657D02*
X72347502Y-29844803D01*
X90971933Y-58771861D02*
X86863359Y-60925530D01*
X91578205Y-63344379D02*
X90971933Y-58771861D01*
X31097653Y-55456304D02*
X34158395Y-58667103D01*
X34158395Y-58667103D02*
X36999765Y-53848713D01*
X38176477Y-87656420D02*
X33141827Y-85647411D01*
X31828952Y-82107017D02*
X33141827Y-85647411D01*
X80636066Y-32372873D02*
X84183600Y-29329826D01*
X84183600Y-29329826D02*
X82521246Y-26185283D01*
X74352654Y-58475310D02*
X73051428Y-61655812D01*
X44645196Y-42686669D02*
X48469524Y-45272579D01*
X47073335Y-72305049D02*
X43373511Y-70530014D01*
X74812325Y-43101322D02*
X71927315Y-40045115D01*
X53860700Y-90081100D02*
X55651400Y-87782400D01*
X55651400Y-87782400D02*
X57315100Y-86855300D01*
X57315100Y-86855300D02*
X58064400Y-84785200D01*
X58064400Y-84785200D02*
X59220100Y-83337400D01*
X59220100Y-83337400D02*
X61290200Y-83286600D01*
X61290200Y-83286600D02*
X63144400Y-84543900D01*
X63144400Y-84543900D02*
X65328800Y-86741000D01*
X65328800Y-86741000D02*
X65080095Y-88362215D01*
X65328800Y-86741000D02*
X68668900Y-86271100D01*
X68668900Y-86271100D02*
X71958200Y-87261700D01*
X71958200Y-87261700D02*
X76568300Y-88696800D01*
X76568300Y-88696800D02*
X78359000Y-89738200D01*
X78359000Y-89738200D02*
X79497280Y-91909212D01*
X48289454Y-96736091D02*
X50585843Y-91987843D01*
X50585843Y-91987843D02*
X53860700Y-90081100D01*
X59093100Y-117132100D02*
X55953858Y-117548507D01*
X61137800Y-116446300D02*
X59093100Y-117132100D01*
X61137800Y-107315000D02*
X61137800Y-116446300D01*
X58051700Y-99555300D02*
X60540900Y-103936800D01*
X53060600Y-92951300D02*
X55740300Y-96240600D01*
X60540900Y-103936800D02*
X61137800Y-107315000D01*
X55740300Y-96240600D02*
X58051700Y-99555300D01*
X71480341Y-117529958D02*
X66713100Y-117132100D01*
X66713100Y-112052100D02*
X69890442Y-111648393D01*
X59817000Y-85128100D02*
X62445900Y-93573600D01*
X62445900Y-93573600D02*
X63563500Y-101092000D01*
X63563500Y-101092000D02*
X65049400Y-105003600D01*
X65049400Y-105003600D02*
X64871600Y-108026200D01*
X64871600Y-108026200D02*
X64871600Y-111226600D01*
X64871600Y-111226600D02*
X66713100Y-112052100D01*
X92809107Y-97146257D02*
X83794600Y-101295200D01*
X74993500Y-108331000D02*
X72390000Y-110477300D01*
X72390000Y-110477300D02*
X69890442Y-111648393D01*
X83794600Y-101295200D02*
X79209900Y-103543100D01*
X79209900Y-103543100D02*
X76962000Y-105816400D01*
X76962000Y-105816400D02*
X74993500Y-108331000D01*
M02*
