G04 #@! TF.GenerationSoftware,KiCad,Pcbnew,(5.1.2-1)-1*
G04 #@! TF.CreationDate,2021-05-20T21:43:52-04:00*
G04 #@! TF.ProjectId,B_Format_Mic_Encoder,425f466f-726d-4617-945f-4d69635f456e,rev?*
G04 #@! TF.SameCoordinates,Original*
G04 #@! TF.FileFunction,Copper,L1,Top*
G04 #@! TF.FilePolarity,Positive*
%FSLAX46Y46*%
G04 Gerber Fmt 4.6, Leading zero omitted, Abs format (unit mm)*
G04 Created by KiCad (PCBNEW (5.1.2-1)-1) date 2021-05-20 21:43:52*
%MOMM*%
%LPD*%
G04 APERTURE LIST*
%ADD10C,7.000000*%
%ADD11C,1.600000*%
%ADD12C,1.600000*%
%ADD13C,0.100000*%
%ADD14R,1.600000X1.600000*%
%ADD15C,1.700000*%
%ADD16O,1.700000X1.950000*%
%ADD17C,1.700000*%
%ADD18C,1.500000*%
%ADD19R,1.500000X1.500000*%
%ADD20O,1.600000X1.600000*%
%ADD21C,1.550000*%
%ADD22C,0.800000*%
%ADD23C,0.812800*%
%ADD24C,0.406400*%
G04 APERTURE END LIST*
D10*
X17780000Y-131572000D03*
X100838000Y-131572000D03*
X100838000Y-17780000D03*
X17780000Y-17780000D03*
D11*
X74803000Y-99822000D03*
X79701042Y-105659259D03*
D12*
X79701042Y-105659259D02*
X79701042Y-105659259D01*
D11*
X45357631Y-16969789D03*
X46964600Y-18884900D03*
D13*
G36*
X48091666Y-18983505D02*
G01*
X46865995Y-20011966D01*
X45837534Y-18786295D01*
X47063205Y-17757834D01*
X48091666Y-18983505D01*
X48091666Y-18983505D01*
G37*
D11*
X16312731Y-30025389D03*
X17919700Y-31940500D03*
D13*
G36*
X19046766Y-32039105D02*
G01*
X17821095Y-33067566D01*
X16792634Y-31841895D01*
X18018305Y-30813434D01*
X19046766Y-32039105D01*
X19046766Y-32039105D01*
G37*
D11*
X90869433Y-82854518D03*
D14*
X88369433Y-82854518D03*
D11*
X20937003Y-39422494D03*
D13*
G36*
X21035608Y-38295428D02*
G01*
X22064069Y-39521099D01*
X20838398Y-40549560D01*
X19809937Y-39323889D01*
X21035608Y-38295428D01*
X21035608Y-38295428D01*
G37*
D11*
X19021892Y-41029463D03*
X19472082Y-72912827D03*
D13*
G36*
X19179262Y-71820007D02*
G01*
X20564902Y-72620007D01*
X19764902Y-74005647D01*
X18379262Y-73205647D01*
X19179262Y-71820007D01*
X19179262Y-71820007D01*
G37*
D11*
X18222082Y-75077891D03*
X99576817Y-42972418D03*
D13*
G36*
X99869637Y-44065238D02*
G01*
X98483997Y-43265238D01*
X99283997Y-41879598D01*
X100669637Y-42679598D01*
X99869637Y-44065238D01*
X99869637Y-44065238D01*
G37*
D11*
X100826817Y-40807354D03*
X82238191Y-72716905D03*
X80631222Y-74632016D03*
D13*
G36*
X80729827Y-75759082D02*
G01*
X79504156Y-74730621D01*
X80532617Y-73504950D01*
X81758288Y-74533411D01*
X80729827Y-75759082D01*
X80729827Y-75759082D01*
G37*
D14*
X31245078Y-40265781D03*
D11*
X31245078Y-42765781D03*
X29905422Y-71121259D03*
D13*
G36*
X28880052Y-70643121D02*
G01*
X30383560Y-70095889D01*
X30930792Y-71599397D01*
X29427284Y-72146629D01*
X28880052Y-70643121D01*
X28880052Y-70643121D01*
G37*
D11*
X30760472Y-73470491D03*
X89351921Y-42354340D03*
D14*
X89351921Y-44854340D03*
D11*
X66814700Y-71678800D03*
D13*
G36*
X67941766Y-71777405D02*
G01*
X66716095Y-72805866D01*
X65687634Y-71580195D01*
X66913305Y-70551734D01*
X67941766Y-71777405D01*
X67941766Y-71777405D01*
G37*
D11*
X65207731Y-69763689D03*
X54334750Y-46443632D03*
X53479700Y-44094400D03*
D13*
G36*
X52454330Y-43616262D02*
G01*
X53957838Y-43069030D01*
X54505070Y-44572538D01*
X53001562Y-45119770D01*
X52454330Y-43616262D01*
X52454330Y-43616262D01*
G37*
D11*
X54353411Y-69894031D03*
X52438300Y-71501000D03*
D13*
G36*
X52339695Y-72628066D02*
G01*
X51311234Y-71402395D01*
X52536905Y-70373934D01*
X53565366Y-71599605D01*
X52339695Y-72628066D01*
X52339695Y-72628066D01*
G37*
D11*
X64345500Y-46386464D03*
X65595500Y-44221400D03*
D13*
G36*
X65302680Y-43128580D02*
G01*
X66688320Y-43928580D01*
X65888320Y-45314220D01*
X64502680Y-44514220D01*
X65302680Y-43128580D01*
X65302680Y-43128580D01*
G37*
D11*
X50672162Y-106103322D03*
X53886100Y-102273100D03*
X53200300Y-127977900D03*
X52332059Y-123053861D03*
X74426798Y-124837659D03*
X71926798Y-129167786D03*
X71628000Y-100838000D03*
X74128000Y-105168127D03*
D13*
G36*
X59717604Y-26458204D02*
G01*
X59741873Y-26461804D01*
X59765671Y-26467765D01*
X59788771Y-26476030D01*
X59810949Y-26486520D01*
X59831993Y-26499133D01*
X59851698Y-26513747D01*
X59869877Y-26530223D01*
X59886353Y-26548402D01*
X59900967Y-26568107D01*
X59913580Y-26589151D01*
X59924070Y-26611329D01*
X59932335Y-26634429D01*
X59938296Y-26658227D01*
X59941896Y-26682496D01*
X59943100Y-26707000D01*
X59943100Y-28157000D01*
X59941896Y-28181504D01*
X59938296Y-28205773D01*
X59932335Y-28229571D01*
X59924070Y-28252671D01*
X59913580Y-28274849D01*
X59900967Y-28295893D01*
X59886353Y-28315598D01*
X59869877Y-28333777D01*
X59851698Y-28350253D01*
X59831993Y-28364867D01*
X59810949Y-28377480D01*
X59788771Y-28387970D01*
X59765671Y-28396235D01*
X59741873Y-28402196D01*
X59717604Y-28405796D01*
X59693100Y-28407000D01*
X58493100Y-28407000D01*
X58468596Y-28405796D01*
X58444327Y-28402196D01*
X58420529Y-28396235D01*
X58397429Y-28387970D01*
X58375251Y-28377480D01*
X58354207Y-28364867D01*
X58334502Y-28350253D01*
X58316323Y-28333777D01*
X58299847Y-28315598D01*
X58285233Y-28295893D01*
X58272620Y-28274849D01*
X58262130Y-28252671D01*
X58253865Y-28229571D01*
X58247904Y-28205773D01*
X58244304Y-28181504D01*
X58243100Y-28157000D01*
X58243100Y-26707000D01*
X58244304Y-26682496D01*
X58247904Y-26658227D01*
X58253865Y-26634429D01*
X58262130Y-26611329D01*
X58272620Y-26589151D01*
X58285233Y-26568107D01*
X58299847Y-26548402D01*
X58316323Y-26530223D01*
X58334502Y-26513747D01*
X58354207Y-26499133D01*
X58375251Y-26486520D01*
X58397429Y-26476030D01*
X58420529Y-26467765D01*
X58444327Y-26461804D01*
X58468596Y-26458204D01*
X58493100Y-26457000D01*
X59693100Y-26457000D01*
X59717604Y-26458204D01*
X59717604Y-26458204D01*
G37*
D15*
X59093100Y-27432000D03*
D16*
X56593100Y-27432000D03*
X54093100Y-27432000D03*
X51593100Y-27432000D03*
X49093100Y-27432000D03*
X95331300Y-108585000D03*
X92831300Y-108585000D03*
X90331300Y-108585000D03*
X87831300Y-108585000D03*
D13*
G36*
X85955804Y-107611204D02*
G01*
X85980073Y-107614804D01*
X86003871Y-107620765D01*
X86026971Y-107629030D01*
X86049149Y-107639520D01*
X86070193Y-107652133D01*
X86089898Y-107666747D01*
X86108077Y-107683223D01*
X86124553Y-107701402D01*
X86139167Y-107721107D01*
X86151780Y-107742151D01*
X86162270Y-107764329D01*
X86170535Y-107787429D01*
X86176496Y-107811227D01*
X86180096Y-107835496D01*
X86181300Y-107860000D01*
X86181300Y-109310000D01*
X86180096Y-109334504D01*
X86176496Y-109358773D01*
X86170535Y-109382571D01*
X86162270Y-109405671D01*
X86151780Y-109427849D01*
X86139167Y-109448893D01*
X86124553Y-109468598D01*
X86108077Y-109486777D01*
X86089898Y-109503253D01*
X86070193Y-109517867D01*
X86049149Y-109530480D01*
X86026971Y-109540970D01*
X86003871Y-109549235D01*
X85980073Y-109555196D01*
X85955804Y-109558796D01*
X85931300Y-109560000D01*
X84731300Y-109560000D01*
X84706796Y-109558796D01*
X84682527Y-109555196D01*
X84658729Y-109549235D01*
X84635629Y-109540970D01*
X84613451Y-109530480D01*
X84592407Y-109517867D01*
X84572702Y-109503253D01*
X84554523Y-109486777D01*
X84538047Y-109468598D01*
X84523433Y-109448893D01*
X84510820Y-109427849D01*
X84500330Y-109405671D01*
X84492065Y-109382571D01*
X84486104Y-109358773D01*
X84482504Y-109334504D01*
X84481300Y-109310000D01*
X84481300Y-107860000D01*
X84482504Y-107835496D01*
X84486104Y-107811227D01*
X84492065Y-107787429D01*
X84500330Y-107764329D01*
X84510820Y-107742151D01*
X84523433Y-107721107D01*
X84538047Y-107701402D01*
X84554523Y-107683223D01*
X84572702Y-107666747D01*
X84592407Y-107652133D01*
X84613451Y-107639520D01*
X84635629Y-107629030D01*
X84658729Y-107620765D01*
X84682527Y-107614804D01*
X84706796Y-107611204D01*
X84731300Y-107610000D01*
X85931300Y-107610000D01*
X85955804Y-107611204D01*
X85955804Y-107611204D01*
G37*
D15*
X85331300Y-108585000D03*
D13*
G36*
X32107804Y-108182704D02*
G01*
X32132073Y-108186304D01*
X32155871Y-108192265D01*
X32178971Y-108200530D01*
X32201149Y-108211020D01*
X32222193Y-108223633D01*
X32241898Y-108238247D01*
X32260077Y-108254723D01*
X32276553Y-108272902D01*
X32291167Y-108292607D01*
X32303780Y-108313651D01*
X32314270Y-108335829D01*
X32322535Y-108358929D01*
X32328496Y-108382727D01*
X32332096Y-108406996D01*
X32333300Y-108431500D01*
X32333300Y-109881500D01*
X32332096Y-109906004D01*
X32328496Y-109930273D01*
X32322535Y-109954071D01*
X32314270Y-109977171D01*
X32303780Y-109999349D01*
X32291167Y-110020393D01*
X32276553Y-110040098D01*
X32260077Y-110058277D01*
X32241898Y-110074753D01*
X32222193Y-110089367D01*
X32201149Y-110101980D01*
X32178971Y-110112470D01*
X32155871Y-110120735D01*
X32132073Y-110126696D01*
X32107804Y-110130296D01*
X32083300Y-110131500D01*
X30883300Y-110131500D01*
X30858796Y-110130296D01*
X30834527Y-110126696D01*
X30810729Y-110120735D01*
X30787629Y-110112470D01*
X30765451Y-110101980D01*
X30744407Y-110089367D01*
X30724702Y-110074753D01*
X30706523Y-110058277D01*
X30690047Y-110040098D01*
X30675433Y-110020393D01*
X30662820Y-109999349D01*
X30652330Y-109977171D01*
X30644065Y-109954071D01*
X30638104Y-109930273D01*
X30634504Y-109906004D01*
X30633300Y-109881500D01*
X30633300Y-108431500D01*
X30634504Y-108406996D01*
X30638104Y-108382727D01*
X30644065Y-108358929D01*
X30652330Y-108335829D01*
X30662820Y-108313651D01*
X30675433Y-108292607D01*
X30690047Y-108272902D01*
X30706523Y-108254723D01*
X30724702Y-108238247D01*
X30744407Y-108223633D01*
X30765451Y-108211020D01*
X30787629Y-108200530D01*
X30810729Y-108192265D01*
X30834527Y-108186304D01*
X30858796Y-108182704D01*
X30883300Y-108181500D01*
X32083300Y-108181500D01*
X32107804Y-108182704D01*
X32107804Y-108182704D01*
G37*
D15*
X31483300Y-109156500D03*
D16*
X33983300Y-109156500D03*
X36483300Y-109156500D03*
X38983300Y-109156500D03*
X41483300Y-109156500D03*
D13*
G36*
X24265284Y-25891620D02*
G01*
X24289372Y-25896275D01*
X24312888Y-25903269D01*
X24335606Y-25912534D01*
X24357305Y-25923981D01*
X24377778Y-25937500D01*
X24396828Y-25952960D01*
X24414270Y-25970213D01*
X24429938Y-25989093D01*
X24443679Y-26009418D01*
X24455362Y-26030991D01*
X24464874Y-26053606D01*
X24960803Y-27416160D01*
X24968053Y-27439598D01*
X24972970Y-27463634D01*
X24975508Y-27488036D01*
X24975642Y-27512570D01*
X24973371Y-27536998D01*
X24968716Y-27561086D01*
X24961722Y-27584602D01*
X24952457Y-27607320D01*
X24941010Y-27629019D01*
X24927491Y-27649492D01*
X24912031Y-27668542D01*
X24894778Y-27685984D01*
X24875898Y-27701652D01*
X24855573Y-27715393D01*
X24834000Y-27727076D01*
X24811385Y-27736588D01*
X23683754Y-28147012D01*
X23660316Y-28154262D01*
X23636280Y-28159179D01*
X23611878Y-28161717D01*
X23587344Y-28161851D01*
X23562916Y-28159580D01*
X23538828Y-28154925D01*
X23515312Y-28147931D01*
X23492594Y-28138666D01*
X23470895Y-28127219D01*
X23450422Y-28113700D01*
X23431372Y-28098240D01*
X23413930Y-28080987D01*
X23398262Y-28062107D01*
X23384521Y-28041782D01*
X23372838Y-28020209D01*
X23363326Y-27997594D01*
X22867397Y-26635040D01*
X22860147Y-26611602D01*
X22855230Y-26587566D01*
X22852692Y-26563164D01*
X22852558Y-26538630D01*
X22854829Y-26514202D01*
X22859484Y-26490114D01*
X22866478Y-26466598D01*
X22875743Y-26443880D01*
X22887190Y-26422181D01*
X22900709Y-26401708D01*
X22916169Y-26382658D01*
X22933422Y-26365216D01*
X22952302Y-26349548D01*
X22972627Y-26335807D01*
X22994200Y-26324124D01*
X23016815Y-26314612D01*
X24144446Y-25904188D01*
X24167884Y-25896938D01*
X24191920Y-25892021D01*
X24216322Y-25889483D01*
X24240856Y-25889349D01*
X24265284Y-25891620D01*
X24265284Y-25891620D01*
G37*
D15*
X23914100Y-27025600D03*
X26263332Y-26170550D03*
D17*
X26220579Y-26053088D02*
X26306085Y-26288012D01*
D15*
X28612563Y-25315499D03*
D17*
X28569810Y-25198037D02*
X28655316Y-25432961D01*
D15*
X40245763Y-21759499D03*
D17*
X40203010Y-21642037D02*
X40288516Y-21876961D01*
D15*
X37896532Y-22614550D03*
D17*
X37853779Y-22497088D02*
X37939285Y-22732012D01*
D13*
G36*
X35898484Y-22335620D02*
G01*
X35922572Y-22340275D01*
X35946088Y-22347269D01*
X35968806Y-22356534D01*
X35990505Y-22367981D01*
X36010978Y-22381500D01*
X36030028Y-22396960D01*
X36047470Y-22414213D01*
X36063138Y-22433093D01*
X36076879Y-22453418D01*
X36088562Y-22474991D01*
X36098074Y-22497606D01*
X36594003Y-23860160D01*
X36601253Y-23883598D01*
X36606170Y-23907634D01*
X36608708Y-23932036D01*
X36608842Y-23956570D01*
X36606571Y-23980998D01*
X36601916Y-24005086D01*
X36594922Y-24028602D01*
X36585657Y-24051320D01*
X36574210Y-24073019D01*
X36560691Y-24093492D01*
X36545231Y-24112542D01*
X36527978Y-24129984D01*
X36509098Y-24145652D01*
X36488773Y-24159393D01*
X36467200Y-24171076D01*
X36444585Y-24180588D01*
X35316954Y-24591012D01*
X35293516Y-24598262D01*
X35269480Y-24603179D01*
X35245078Y-24605717D01*
X35220544Y-24605851D01*
X35196116Y-24603580D01*
X35172028Y-24598925D01*
X35148512Y-24591931D01*
X35125794Y-24582666D01*
X35104095Y-24571219D01*
X35083622Y-24557700D01*
X35064572Y-24542240D01*
X35047130Y-24524987D01*
X35031462Y-24506107D01*
X35017721Y-24485782D01*
X35006038Y-24464209D01*
X34996526Y-24441594D01*
X34500597Y-23079040D01*
X34493347Y-23055602D01*
X34488430Y-23031566D01*
X34485892Y-23007164D01*
X34485758Y-22982630D01*
X34488029Y-22958202D01*
X34492684Y-22934114D01*
X34499678Y-22910598D01*
X34508943Y-22887880D01*
X34520390Y-22866181D01*
X34533909Y-22845708D01*
X34549369Y-22826658D01*
X34566622Y-22809216D01*
X34585502Y-22793548D01*
X34605827Y-22779807D01*
X34627400Y-22768124D01*
X34650015Y-22758612D01*
X35777646Y-22348188D01*
X35801084Y-22340938D01*
X35825120Y-22336021D01*
X35849522Y-22333483D01*
X35874056Y-22333349D01*
X35898484Y-22335620D01*
X35898484Y-22335620D01*
G37*
D15*
X35547300Y-23469600D03*
D18*
X85618949Y-66067837D03*
D13*
G36*
X84750107Y-65459467D02*
G01*
X86227319Y-65198995D01*
X86487791Y-66676207D01*
X85010579Y-66936679D01*
X84750107Y-65459467D01*
X84750107Y-65459467D01*
G37*
D18*
X80616126Y-66949970D03*
X83117537Y-66508903D03*
X34932081Y-47228647D03*
X36564761Y-45282894D03*
X33299400Y-49174400D03*
D13*
G36*
X34356024Y-49081957D02*
G01*
X33391843Y-50231024D01*
X32242776Y-49266843D01*
X33206957Y-48117776D01*
X34356024Y-49081957D01*
X34356024Y-49081957D01*
G37*
D18*
X35710233Y-76197647D03*
X36578964Y-73810827D03*
X34841502Y-78584466D03*
D13*
G36*
X35802787Y-78136212D02*
G01*
X35289756Y-79545751D01*
X33880217Y-79032720D01*
X34393248Y-77623181D01*
X35802787Y-78136212D01*
X35802787Y-78136212D01*
G37*
D18*
X84264985Y-38751234D03*
X82994985Y-40950938D03*
X85534985Y-36551529D03*
D13*
G36*
X84510466Y-36826048D02*
G01*
X85260466Y-35527010D01*
X86559504Y-36277010D01*
X85809504Y-37576048D01*
X84510466Y-36826048D01*
X84510466Y-36826048D01*
G37*
D18*
X80117726Y-60946402D03*
X77918022Y-62216402D03*
X82317431Y-59676402D03*
D13*
G36*
X81292912Y-59401883D02*
G01*
X82591950Y-58651883D01*
X83341950Y-59950921D01*
X82042912Y-60700921D01*
X81292912Y-59401883D01*
X81292912Y-59401883D01*
G37*
D18*
X40406247Y-52068253D03*
D13*
G36*
X41430766Y-51793734D02*
G01*
X40680766Y-53092772D01*
X39381728Y-52342772D01*
X40131728Y-51043734D01*
X41430766Y-51793734D01*
X41430766Y-51793734D01*
G37*
D18*
X42946247Y-47668844D03*
X41676247Y-49868548D03*
D19*
X41640525Y-79179304D03*
D18*
X41640525Y-74099304D03*
X41640525Y-76639304D03*
X78612719Y-35098544D03*
D13*
G36*
X77743877Y-35706914D02*
G01*
X78004349Y-34229702D01*
X79481561Y-34490174D01*
X79221089Y-35967386D01*
X77743877Y-35706914D01*
X77743877Y-35706914D01*
G37*
D18*
X77730586Y-40101367D03*
X78171653Y-37599956D03*
D11*
X93066813Y-74243764D03*
D12*
X93066813Y-74243764D02*
X93066813Y-74243764D01*
D11*
X86467699Y-78053764D03*
X23149201Y-49424321D03*
D12*
X23149201Y-49424321D02*
X23149201Y-49424321D01*
D11*
X25755394Y-42263863D03*
X24356660Y-74782502D03*
D20*
X24356660Y-82402502D03*
D11*
X94659147Y-41893129D03*
D20*
X94659147Y-34273129D03*
D11*
X84739448Y-81019737D03*
D12*
X84739448Y-81019737D02*
X84739448Y-81019737D01*
D11*
X77578990Y-78413544D03*
X24929660Y-38509887D03*
D12*
X24929660Y-38509887D02*
X24929660Y-38509887D01*
D11*
X32090118Y-35903694D03*
X29238886Y-66375373D03*
X23401627Y-71273415D03*
D12*
X23401627Y-71273415D02*
X23401627Y-71273415D01*
D11*
X89931909Y-49971263D03*
X95769168Y-45073221D03*
D12*
X95769168Y-45073221D02*
X95769168Y-45073221D01*
D11*
X93276361Y-70103335D03*
D12*
X93276361Y-70103335D02*
X93276361Y-70103335D01*
D11*
X86677247Y-73913335D03*
X28186964Y-45973963D03*
X25580771Y-53134421D03*
D12*
X25580771Y-53134421D02*
X25580771Y-53134421D01*
D11*
X28136400Y-76916098D03*
D20*
X28136400Y-84536098D03*
D11*
X91259605Y-38711048D03*
D20*
X91259605Y-31091048D03*
D11*
X89469552Y-68085988D03*
D12*
X89469552Y-68085988D02*
X89469552Y-68085988D01*
D11*
X86863359Y-60925530D03*
X77419017Y-68975872D03*
D12*
X77419017Y-68975872D02*
X77419017Y-68975872D01*
D11*
X74812824Y-76136330D03*
X29796542Y-51368807D03*
D12*
X29796542Y-51368807D02*
X29796542Y-51368807D01*
D11*
X36957000Y-53975000D03*
X37560494Y-42021675D03*
D12*
X37560494Y-42021675D02*
X37560494Y-42021675D01*
D11*
X34954301Y-34861217D03*
X31828952Y-82107017D03*
D20*
X39448952Y-82107017D03*
D11*
X31086005Y-64427569D03*
X35984047Y-70264828D03*
D12*
X35984047Y-70264828D02*
X35984047Y-70264828D01*
D11*
X80636066Y-32372873D03*
X88140301Y-33696072D03*
D12*
X88140301Y-33696072D02*
X88140301Y-33696072D01*
D11*
X87068959Y-51577787D03*
X83258959Y-44978673D03*
D12*
X83258959Y-44978673D02*
X83258959Y-44978673D01*
D11*
X96476247Y-69181638D03*
D12*
X96476247Y-69181638D02*
X96476247Y-69181638D01*
D11*
X91578205Y-63344379D03*
X23593418Y-56779503D03*
D12*
X23593418Y-56779503D02*
X23593418Y-56779503D01*
D11*
X31097653Y-55456304D03*
X33141827Y-85647411D03*
X26542713Y-89457411D03*
D12*
X26542713Y-89457411D02*
X26542713Y-89457411D01*
D11*
X84183600Y-29329826D03*
X91687835Y-28006627D03*
D12*
X91687835Y-28006627D02*
X91687835Y-28006627D01*
D11*
X83811475Y-56165668D03*
X90971933Y-58771861D03*
D12*
X90971933Y-58771861D02*
X90971933Y-58771861D01*
D11*
X75284918Y-64739266D03*
X72678725Y-71899724D03*
D12*
X72678725Y-71899724D02*
X72678725Y-71899724D01*
D11*
X41318853Y-56060910D03*
X34158395Y-58667103D03*
D12*
X34158395Y-58667103D02*
X34158395Y-58667103D01*
D11*
X41445219Y-43040462D03*
X38839026Y-35880004D03*
D12*
X38839026Y-35880004D02*
X38839026Y-35880004D01*
D11*
X38176477Y-87656420D03*
D12*
X38176477Y-87656420D02*
X38176477Y-87656420D01*
D11*
X44013736Y-82758378D03*
X35180398Y-64407170D03*
D12*
X35180398Y-64407170D02*
X35180398Y-64407170D01*
D11*
X40078440Y-70244429D03*
X82521246Y-26185283D03*
D12*
X82521246Y-26185283D02*
X82521246Y-26185283D01*
D11*
X75922132Y-29995283D03*
X82457929Y-50156394D03*
D12*
X82457929Y-50156394D02*
X82457929Y-50156394D01*
D11*
X78647929Y-43557280D03*
X74352654Y-58475310D03*
D12*
X74352654Y-58475310D02*
X74352654Y-58475310D01*
D11*
X80951768Y-54665310D03*
X48469524Y-45272579D03*
D12*
X48469524Y-45272579D02*
X48469524Y-45272579D01*
D11*
X44659524Y-51871693D03*
X45750136Y-79809284D03*
X47073335Y-72305049D03*
D12*
X47073335Y-72305049D02*
X47073335Y-72305049D01*
D11*
X74533508Y-32884657D03*
X71927315Y-40045115D03*
D12*
X71927315Y-40045115D02*
X71927315Y-40045115D01*
D11*
X78984397Y-51678714D03*
X72385283Y-55488714D03*
D12*
X72385283Y-55488714D02*
X72385283Y-55488714D01*
D11*
X44878021Y-56927888D03*
X49776063Y-51090629D03*
D12*
X49776063Y-51090629D02*
X49776063Y-51090629D01*
D11*
X50947814Y-75381599D03*
D12*
X50947814Y-75381599D02*
X50947814Y-75381599D01*
D11*
X48341621Y-82542057D03*
X68537502Y-36443917D03*
D12*
X68537502Y-36443917D02*
X68537502Y-36443917D01*
D11*
X72347502Y-29844803D03*
X28624300Y-97278334D03*
X33522342Y-91441075D03*
D12*
X33522342Y-91441075D02*
X33522342Y-91441075D01*
D11*
X49612653Y-89231856D03*
D12*
X49612653Y-89231856D02*
X49612653Y-89231856D01*
D11*
X48289454Y-96736091D03*
X65080095Y-88362215D03*
D20*
X65080095Y-80742215D03*
X79497280Y-84289212D03*
D11*
X79497280Y-91909212D03*
X53060600Y-92951300D03*
D20*
X53060600Y-85331300D03*
X68426760Y-80777798D03*
D11*
X68426760Y-88397798D03*
X46135256Y-87636457D03*
D12*
X46135256Y-87636457D02*
X46135256Y-87636457D01*
D11*
X43529063Y-94796915D03*
D20*
X83009898Y-86743509D03*
D11*
X83009898Y-94363509D03*
D20*
X71782459Y-82298006D03*
D11*
X71782459Y-89918006D03*
X87887608Y-96409152D03*
X86564409Y-88904917D03*
D12*
X86564409Y-88904917D02*
X86564409Y-88904917D01*
D11*
X42288398Y-89033932D03*
D12*
X42288398Y-89033932D02*
X42288398Y-89033932D01*
D11*
X39682205Y-96194390D03*
X57073800Y-88925400D03*
X55750601Y-81421165D03*
D12*
X55750601Y-81421165D02*
X55750601Y-81421165D01*
D11*
X59817000Y-85128100D03*
X58493801Y-77623865D03*
D12*
X58493801Y-77623865D02*
X58493801Y-77623865D01*
D11*
X92809107Y-97146257D03*
X90202914Y-89985799D03*
D12*
X90202914Y-89985799D02*
X90202914Y-89985799D01*
D11*
X37686793Y-91212435D03*
D12*
X37686793Y-91212435D02*
X37686793Y-91212435D01*
D11*
X33876793Y-97811549D03*
D20*
X75034294Y-82871391D03*
D11*
X75034294Y-90491391D03*
X48793400Y-120154700D03*
X55953858Y-117548507D03*
D12*
X55953858Y-117548507D02*
X55953858Y-117548507D01*
D11*
X71480341Y-117529958D03*
D12*
X71480341Y-117529958D02*
X71480341Y-117529958D01*
D11*
X77317600Y-122428000D03*
X77050900Y-109042200D03*
X69890442Y-111648393D03*
D12*
X69890442Y-111648393D02*
X69890442Y-111648393D01*
D11*
X57086500Y-103339900D03*
X52188458Y-109177159D03*
D12*
X52188458Y-109177159D02*
X52188458Y-109177159D01*
D11*
X55255301Y-120829265D03*
D12*
X55255301Y-120829265D02*
X55255301Y-120829265D01*
D11*
X56578500Y-128333500D03*
X71692257Y-121700024D03*
D12*
X71692257Y-121700024D02*
X71692257Y-121700024D01*
D11*
X67882257Y-128299138D03*
X71932362Y-107704988D03*
D12*
X71932362Y-107704988D02*
X71932362Y-107704988D01*
D11*
X68122362Y-101105874D03*
X51460400Y-100126800D03*
X45623141Y-105024842D03*
D12*
X45623141Y-105024842D02*
X45623141Y-105024842D01*
D11*
X49199800Y-126987300D03*
X45389800Y-120388186D03*
D12*
X45389800Y-120388186D02*
X45389800Y-120388186D01*
D11*
X79751842Y-124871141D03*
D12*
X79751842Y-124871141D02*
X79751842Y-124871141D01*
D11*
X74853800Y-130708400D03*
D21*
X68992096Y-65499224D03*
X68352965Y-59945711D03*
D13*
G36*
X67359638Y-60408907D02*
G01*
X67889769Y-58952384D01*
X69346292Y-59482515D01*
X68816161Y-60939038D01*
X67359638Y-60408907D01*
X67359638Y-60408907D01*
G37*
D21*
X73051428Y-61655812D03*
X44645196Y-42686669D03*
X49343659Y-40976568D03*
D13*
G36*
X49806855Y-39983241D02*
G01*
X50336986Y-41439764D01*
X48880463Y-41969895D01*
X48350332Y-40513372D01*
X49806855Y-39983241D01*
X49806855Y-39983241D01*
G37*
D21*
X45284327Y-37133155D03*
X42343551Y-64832747D03*
X47472600Y-67056000D03*
D13*
G36*
X47568124Y-65964155D02*
G01*
X48564445Y-67151524D01*
X47377076Y-68147845D01*
X46380755Y-66960476D01*
X47568124Y-65964155D01*
X47568124Y-65964155D01*
G37*
D21*
X43642378Y-70269938D03*
X74812325Y-43101322D03*
X70482198Y-45601322D03*
D13*
G36*
X70198528Y-46659992D02*
G01*
X69423528Y-45317652D01*
X70765868Y-44542652D01*
X71540868Y-45884992D01*
X70198528Y-46659992D01*
X70198528Y-46659992D01*
G37*
D21*
X75147262Y-48681449D03*
D20*
X63360300Y-50419000D03*
X55740300Y-65659000D03*
X63360300Y-52959000D03*
X55740300Y-63119000D03*
X63360300Y-55499000D03*
X55740300Y-60579000D03*
X63360300Y-58039000D03*
X55740300Y-58039000D03*
X63360300Y-60579000D03*
X55740300Y-55499000D03*
X63360300Y-63119000D03*
X55740300Y-52959000D03*
X63360300Y-65659000D03*
D14*
X55740300Y-50419000D03*
X59093100Y-106972100D03*
D20*
X66713100Y-122212100D03*
X59093100Y-109512100D03*
X66713100Y-119672100D03*
X59093100Y-112052100D03*
X66713100Y-117132100D03*
X59093100Y-114592100D03*
X66713100Y-114592100D03*
X59093100Y-117132100D03*
X66713100Y-112052100D03*
X59093100Y-119672100D03*
X66713100Y-109512100D03*
X59093100Y-122212100D03*
X66713100Y-106972100D03*
D22*
X37299900Y-120561100D03*
X37071300Y-117208300D03*
X69989700Y-57937400D03*
D23*
X38839026Y-35880004D02*
X34954301Y-34861217D01*
X34954301Y-34861217D02*
X32067500Y-33896300D01*
X32067500Y-33896300D02*
X28371800Y-34378900D01*
X28371800Y-34378900D02*
X24536400Y-35788600D01*
X24536400Y-35788600D02*
X21069300Y-36842700D01*
X21069300Y-36842700D02*
X18694400Y-37731700D01*
X18694400Y-37731700D02*
X18072100Y-39700200D01*
X18072100Y-39700200D02*
X19021892Y-41029463D01*
X18222082Y-75077891D02*
X17043400Y-74142600D01*
X17043400Y-74142600D02*
X17068800Y-71437500D01*
X17068800Y-71437500D02*
X19126200Y-69240400D01*
X19126200Y-69240400D02*
X21983700Y-67437000D01*
X21983700Y-67437000D02*
X24282400Y-66878200D01*
X24282400Y-66878200D02*
X26238200Y-64973200D01*
X26238200Y-64973200D02*
X28511500Y-64160400D01*
X28511500Y-64160400D02*
X31086005Y-64427569D01*
X35180398Y-64407170D02*
X31086005Y-64427569D01*
X72678725Y-71899724D02*
X73926700Y-74079100D01*
X73926700Y-74079100D02*
X74812824Y-76136330D01*
X90869433Y-82854518D02*
X90309700Y-84912200D01*
X90309700Y-84912200D02*
X87045800Y-85674200D01*
X87045800Y-85674200D02*
X82765900Y-84061300D01*
X82765900Y-84061300D02*
X78994000Y-82194400D01*
X78994000Y-82194400D02*
X75514200Y-79629000D01*
X75514200Y-79629000D02*
X75120500Y-78028800D01*
X75120500Y-78028800D02*
X74812824Y-76136330D01*
X100826817Y-40807354D02*
X101854000Y-41998900D01*
X101854000Y-41998900D02*
X101981000Y-43929300D01*
X101981000Y-43929300D02*
X100139500Y-46367700D01*
X100139500Y-46367700D02*
X96583500Y-47574200D01*
X96583500Y-47574200D02*
X93256100Y-49822100D01*
X93256100Y-49822100D02*
X91948000Y-51981100D01*
X91948000Y-51981100D02*
X89115900Y-52705000D01*
X89115900Y-52705000D02*
X87068959Y-51577787D01*
X87068959Y-51577787D02*
X82457929Y-50156394D01*
X63360300Y-58039000D02*
X65735200Y-59334400D01*
X65735200Y-59334400D02*
X66484500Y-62699900D01*
X66484500Y-62699900D02*
X66814700Y-65874900D01*
X66814700Y-65874900D02*
X67322700Y-67779900D01*
X67322700Y-67779900D02*
X69481700Y-70040500D01*
X69481700Y-70040500D02*
X72678725Y-71899724D01*
X82457929Y-50156394D02*
X78994000Y-49695100D01*
X78994000Y-49695100D02*
X76034900Y-50939700D01*
X76034900Y-50939700D02*
X73329800Y-52438300D01*
X73329800Y-52438300D02*
X70535800Y-54063900D01*
X70535800Y-54063900D02*
X68745100Y-56680100D01*
X68745100Y-56680100D02*
X66852800Y-58013600D01*
X66852800Y-58013600D02*
X65735200Y-59334400D01*
X38839026Y-35880004D02*
X46037500Y-34632900D01*
X46037500Y-34632900D02*
X53987700Y-33655000D01*
X53987700Y-33655000D02*
X63334900Y-37426900D01*
X63334900Y-37426900D02*
X68643500Y-42037000D01*
X68643500Y-42037000D02*
X68249800Y-45618400D01*
X68249800Y-45618400D02*
X68249800Y-49784000D01*
X68249800Y-49784000D02*
X69570600Y-52565300D01*
X69570600Y-52565300D02*
X70535800Y-54063900D01*
X28612563Y-25315499D02*
X31470600Y-23304500D01*
X31470600Y-23304500D02*
X33401000Y-21856700D01*
X33401000Y-21856700D02*
X36118800Y-20955000D01*
X36118800Y-20955000D02*
X38290500Y-20193000D01*
X38290500Y-20193000D02*
X39763700Y-20447000D01*
X39763700Y-20447000D02*
X40245763Y-21759499D01*
X39763700Y-20447000D02*
X41744900Y-19050000D01*
X41744900Y-19050000D02*
X44119800Y-17907000D01*
X44119800Y-17907000D02*
X45357631Y-16969789D01*
X28371800Y-34378900D02*
X28651200Y-29387800D01*
X28651200Y-29387800D02*
X28612563Y-25315499D01*
X66713100Y-114592100D02*
X72250300Y-114071400D01*
X72250300Y-114071400D02*
X74129900Y-109753400D01*
X74129900Y-109753400D02*
X76047600Y-106464100D01*
X76047600Y-106464100D02*
X78206600Y-103327200D01*
X78206600Y-103327200D02*
X81597500Y-100685600D01*
X81597500Y-100685600D02*
X89217500Y-99631500D01*
X89217500Y-99631500D02*
X90728800Y-95935800D01*
X90728800Y-95935800D02*
X92608400Y-91706700D01*
X92608400Y-91706700D02*
X92837000Y-88925400D01*
X92837000Y-88925400D02*
X92163900Y-84848700D01*
X92163900Y-84848700D02*
X90869433Y-82854518D01*
D24*
X68426760Y-80777798D02*
X68681600Y-76136500D01*
X68681600Y-76136500D02*
X66814700Y-71678800D01*
X58493801Y-77623865D02*
X55308500Y-74853800D01*
X55308500Y-74853800D02*
X52438300Y-71501000D01*
X39682205Y-96194390D02*
X40919400Y-94602300D01*
X40919400Y-94602300D02*
X42570400Y-93306900D01*
X42570400Y-93306900D02*
X44513500Y-92722700D01*
X44513500Y-92722700D02*
X47510700Y-92900500D01*
X47510700Y-92900500D02*
X49631600Y-92544900D01*
X49631600Y-92544900D02*
X51396900Y-91782900D01*
X51396900Y-91782900D02*
X53289200Y-90538300D01*
X53289200Y-90538300D02*
X55232300Y-89484200D01*
X55232300Y-89484200D02*
X57073800Y-88925400D01*
X33876793Y-97811549D02*
X37973000Y-94665800D01*
X37973000Y-94665800D02*
X40208200Y-93129100D01*
X40208200Y-93129100D02*
X42976800Y-91833700D01*
X42976800Y-91833700D02*
X46037500Y-90716100D01*
X46037500Y-90716100D02*
X49047400Y-90779600D01*
X49047400Y-90779600D02*
X51066700Y-90487500D01*
X51066700Y-90487500D02*
X52412900Y-89052400D01*
X52412900Y-89052400D02*
X54825900Y-87223600D01*
X54825900Y-87223600D02*
X56273700Y-84937600D01*
X56273700Y-84937600D02*
X58559700Y-82943700D01*
X58559700Y-82943700D02*
X62153800Y-82943700D01*
X62153800Y-82943700D02*
X64833500Y-84048600D01*
X64833500Y-84048600D02*
X67233800Y-84404200D01*
X67233800Y-84404200D02*
X69405500Y-85471000D01*
X69405500Y-85471000D02*
X73748900Y-87249000D01*
X73748900Y-87249000D02*
X74574400Y-88658700D01*
X74574400Y-88658700D02*
X75034294Y-90491391D01*
D23*
X23593418Y-56779503D02*
X22834600Y-52895500D01*
X22834600Y-52895500D02*
X23149201Y-49424321D01*
X26542713Y-89457411D02*
X24356660Y-82402502D01*
X94659147Y-34273129D02*
X94526100Y-31191200D01*
X94526100Y-31191200D02*
X93675200Y-29387800D01*
X93675200Y-29387800D02*
X91687835Y-28006627D01*
X55740300Y-58039000D02*
X49364900Y-59131200D01*
X49364900Y-59131200D02*
X42633900Y-59131200D01*
X42633900Y-59131200D02*
X35890200Y-60477400D01*
X35890200Y-60477400D02*
X32677100Y-60426600D01*
X32677100Y-60426600D02*
X28994100Y-58712100D01*
X28994100Y-58712100D02*
X27190700Y-57111900D01*
X27190700Y-57111900D02*
X23593418Y-56779503D01*
X24356660Y-82402502D02*
X18364200Y-79438500D01*
X18364200Y-79438500D02*
X15786100Y-77470000D01*
X15786100Y-77470000D02*
X14274800Y-74269600D01*
X14274800Y-74269600D02*
X14541500Y-68922900D01*
X14541500Y-68922900D02*
X18364200Y-64300100D01*
X18364200Y-64300100D02*
X21399500Y-59220100D01*
X21399500Y-59220100D02*
X23593418Y-56779503D01*
X93066813Y-74243764D02*
X95859600Y-71767700D01*
X95859600Y-71767700D02*
X96476247Y-69181638D01*
X96476247Y-69181638D02*
X98552000Y-60947300D01*
X98552000Y-60947300D02*
X101892100Y-50203100D01*
X101892100Y-50203100D02*
X104114600Y-45161200D01*
X104114600Y-45161200D02*
X104584500Y-42557700D01*
X104584500Y-42557700D02*
X102717600Y-38379400D01*
X102717600Y-38379400D02*
X98628200Y-36334700D01*
X98628200Y-36334700D02*
X95097600Y-36423600D01*
X95097600Y-36423600D02*
X94659147Y-34273129D01*
X23914100Y-27025600D02*
X20637500Y-30086300D01*
X20637500Y-30086300D02*
X17919700Y-31940500D01*
X23149201Y-49424321D02*
X19685000Y-46355000D01*
X19685000Y-46355000D02*
X17233900Y-45453300D01*
X17233900Y-45453300D02*
X14681200Y-42672000D01*
X14681200Y-42672000D02*
X14681200Y-37795200D01*
X14681200Y-37795200D02*
X15938500Y-34442400D01*
X15938500Y-34442400D02*
X17919700Y-31940500D01*
X59093100Y-114592100D02*
X52781200Y-113626900D01*
X52781200Y-113626900D02*
X49060100Y-109804200D01*
X49060100Y-109804200D02*
X48285400Y-106375200D01*
X48285400Y-106375200D02*
X48069500Y-104152700D01*
X48069500Y-104152700D02*
X46240700Y-102666800D01*
X46240700Y-102666800D02*
X41643300Y-101993700D01*
X41643300Y-101993700D02*
X37985700Y-101892100D01*
X37985700Y-101892100D02*
X35826700Y-101498400D01*
X35826700Y-101498400D02*
X30568900Y-101257100D01*
X30568900Y-101257100D02*
X26835100Y-99682300D01*
X26835100Y-99682300D02*
X25565100Y-96342200D01*
X25565100Y-96342200D02*
X25755600Y-93091000D01*
X25755600Y-93091000D02*
X26542713Y-89457411D01*
X25580771Y-53134421D02*
X27317700Y-50431700D01*
X27317700Y-50431700D02*
X30378400Y-47713900D01*
X30378400Y-47713900D02*
X33223200Y-45847000D01*
X33223200Y-45847000D02*
X34544000Y-43497500D01*
X34544000Y-43497500D02*
X36080700Y-39954200D01*
X36080700Y-39954200D02*
X40030400Y-39560500D01*
X40030400Y-39560500D02*
X44323000Y-39217600D01*
X44323000Y-39217600D02*
X45284327Y-37133155D01*
X29819600Y-80251300D02*
X32702500Y-76098400D01*
X32702500Y-76098400D02*
X33261300Y-73990200D01*
X33261300Y-73990200D02*
X33261300Y-70980300D01*
X33261300Y-70980300D02*
X34036000Y-67881500D01*
X34036000Y-67881500D02*
X37553900Y-66903600D01*
X37553900Y-66903600D02*
X40081200Y-66548000D01*
X40081200Y-66548000D02*
X42074684Y-65092823D01*
X68992096Y-65499224D02*
X73837800Y-67106800D01*
X73837800Y-67106800D02*
X75285600Y-69303900D01*
X75285600Y-69303900D02*
X76530200Y-71793100D01*
X76530200Y-71793100D02*
X79794100Y-71348600D01*
X79794100Y-71348600D02*
X83058000Y-69875400D01*
X83058000Y-69875400D02*
X85229700Y-70472300D01*
X85229700Y-70472300D02*
X86969600Y-70396100D01*
X86969600Y-70396100D02*
X90004900Y-70396100D01*
X90004900Y-70396100D02*
X93276361Y-70103335D01*
X91259605Y-31091048D02*
X90398600Y-34518600D01*
X90398600Y-34518600D02*
X88366600Y-37782500D01*
X88366600Y-37782500D02*
X86321900Y-41503600D01*
X86321900Y-41503600D02*
X85661500Y-44729400D01*
X85661500Y-44729400D02*
X84836000Y-47269400D01*
X84836000Y-47269400D02*
X81470500Y-47523400D01*
X81470500Y-47523400D02*
X78054200Y-48247300D01*
X78054200Y-48247300D02*
X75147262Y-48681449D01*
X75147262Y-48681449D02*
X72745600Y-44323000D01*
X72745600Y-44323000D02*
X71475600Y-42849800D01*
X71475600Y-42849800D02*
X70065900Y-40881300D01*
X70065900Y-40881300D02*
X68846700Y-39649400D01*
X68846700Y-39649400D02*
X66344800Y-37744400D01*
X66344800Y-37744400D02*
X63423800Y-35001200D01*
X63423800Y-35001200D02*
X60083700Y-33312100D01*
X60083700Y-33312100D02*
X60083700Y-33312100D01*
X77317600Y-122428000D02*
X77876400Y-114604800D01*
X77876400Y-114604800D02*
X77050900Y-109042200D01*
X77050900Y-109042200D02*
X82321400Y-107645200D01*
X82321400Y-107645200D02*
X85140800Y-105791000D01*
X85140800Y-105791000D02*
X90970100Y-105791000D01*
X90970100Y-105791000D02*
X94602300Y-105702100D01*
X94602300Y-105702100D02*
X95331300Y-108585000D01*
X48793400Y-120154700D02*
X52755800Y-121069100D01*
X52755800Y-121069100D02*
X53911500Y-121932700D01*
X53911500Y-121932700D02*
X55079900Y-123240800D01*
X55079900Y-123240800D02*
X58381900Y-124942600D01*
X58381900Y-124942600D02*
X64693800Y-124777500D01*
X64693800Y-124777500D02*
X67551300Y-124688600D01*
X67551300Y-124688600D02*
X71704200Y-124117100D01*
X71704200Y-124117100D02*
X73494900Y-122910600D01*
X73494900Y-122910600D02*
X74650600Y-122377200D01*
X74650600Y-122377200D02*
X75895200Y-122250200D01*
X75895200Y-122250200D02*
X77317600Y-122428000D01*
X28136400Y-84536098D02*
X29819600Y-80251300D01*
X37896532Y-22614550D02*
X39154100Y-23812500D01*
X39154100Y-23812500D02*
X41046400Y-24091900D01*
X41046400Y-24091900D02*
X42926000Y-23037800D01*
X42926000Y-23037800D02*
X45618400Y-21412200D01*
X45618400Y-21412200D02*
X46964600Y-18884900D01*
X16312731Y-30025389D02*
X19202400Y-26682700D01*
X19202400Y-26682700D02*
X23190200Y-24714200D01*
X23190200Y-24714200D02*
X24790400Y-24663400D01*
X24790400Y-24663400D02*
X26263332Y-26170550D01*
X60083700Y-33312100D02*
X59093100Y-27432000D01*
X59093100Y-27432000D02*
X58928000Y-25044400D01*
X58928000Y-25044400D02*
X56261000Y-22948900D01*
X56261000Y-22948900D02*
X53314600Y-20955000D01*
X53314600Y-20955000D02*
X50457100Y-20434300D01*
X50457100Y-20434300D02*
X46964600Y-18884900D01*
D24*
X37299900Y-120561100D02*
X38531800Y-117309900D01*
X38531800Y-117309900D02*
X38646100Y-113576100D01*
X38646100Y-113576100D02*
X38709600Y-111010700D01*
X38709600Y-111010700D02*
X38983300Y-109156500D01*
X37071300Y-117208300D02*
X36626800Y-110756700D01*
X36626800Y-110756700D02*
X36483300Y-109156500D01*
X45389800Y-120388186D02*
X45935900Y-125615700D01*
X45935900Y-125615700D02*
X49834800Y-131305300D01*
X49834800Y-131305300D02*
X60134500Y-135293100D01*
X60134500Y-135293100D02*
X72466200Y-135445500D01*
X72466200Y-135445500D02*
X79870300Y-132943600D01*
X79870300Y-132943600D02*
X84556600Y-125844300D01*
X84556600Y-125844300D02*
X86893400Y-116408200D01*
X86893400Y-116408200D02*
X87680800Y-110718600D01*
X87680800Y-110718600D02*
X87831300Y-108585000D01*
X85331300Y-108585000D02*
X84264500Y-118732300D01*
X84264500Y-118732300D02*
X81495900Y-128168400D01*
X81495900Y-128168400D02*
X78676500Y-131470400D01*
X78676500Y-131470400D02*
X75692000Y-133210300D01*
X75692000Y-133210300D02*
X72313800Y-133705600D01*
X72313800Y-133705600D02*
X64287400Y-133134100D01*
X64287400Y-133134100D02*
X58140600Y-131724400D01*
X58140600Y-131724400D02*
X53098700Y-130784600D01*
X53098700Y-130784600D02*
X51003200Y-128485900D01*
X51003200Y-128485900D02*
X51041300Y-127482600D01*
X51041300Y-127482600D02*
X50063400Y-124917200D01*
X50063400Y-124917200D02*
X48564800Y-123405900D01*
X48564800Y-123405900D02*
X47396400Y-122072400D01*
X47396400Y-122072400D02*
X47104300Y-120535700D01*
X47104300Y-120535700D02*
X46939200Y-118033800D01*
X46939200Y-118033800D02*
X46812200Y-115100100D01*
X46812200Y-115100100D02*
X46494700Y-111048800D01*
X46494700Y-111048800D02*
X46088300Y-107213400D01*
X46088300Y-107213400D02*
X45623141Y-105024842D01*
X31483300Y-109156500D02*
X32969200Y-107035600D01*
X32969200Y-107035600D02*
X35166300Y-106426000D01*
X35166300Y-106426000D02*
X38074600Y-106260900D01*
X38074600Y-106260900D02*
X42202100Y-106032300D01*
X42202100Y-106032300D02*
X44094400Y-105867200D01*
X44094400Y-105867200D02*
X45623141Y-105024842D01*
X75284918Y-64739266D02*
X71920100Y-63931800D01*
X71920100Y-63931800D02*
X71081900Y-62992000D01*
X71081900Y-62992000D02*
X70739000Y-60540900D01*
X70739000Y-60540900D02*
X69989700Y-57937400D01*
X69989700Y-57937400D02*
X69989700Y-57937400D01*
X51955700Y-104533700D02*
X54444900Y-108559600D01*
X54444900Y-108559600D02*
X56756300Y-110223300D01*
X56756300Y-110223300D02*
X59093100Y-112052100D01*
X48289454Y-96736091D02*
X43078400Y-98005900D01*
X43078400Y-98005900D02*
X39497000Y-99707700D01*
X39497000Y-99707700D02*
X34290000Y-100101400D01*
X34290000Y-100101400D02*
X30772100Y-99542600D01*
X30772100Y-99542600D02*
X28624300Y-97278334D01*
X51955700Y-104533700D02*
X49733200Y-101041200D01*
X49733200Y-101041200D02*
X48882300Y-98806000D01*
X48882300Y-98806000D02*
X48289454Y-96736091D01*
X68426760Y-88397798D02*
X66611500Y-86766400D01*
X66611500Y-86766400D02*
X64719200Y-86410800D01*
X64719200Y-86410800D02*
X61633100Y-87198200D01*
X61633100Y-87198200D02*
X59867800Y-89649300D01*
X59867800Y-89649300D02*
X57772300Y-91262200D01*
X57772300Y-91262200D02*
X55524400Y-91859100D01*
X55524400Y-91859100D02*
X53060600Y-92951300D01*
X71782459Y-89918006D02*
X73126600Y-91262200D01*
X73126600Y-91262200D02*
X74803000Y-92240100D01*
X74803000Y-92240100D02*
X77177900Y-91478100D01*
X77177900Y-91478100D02*
X78854300Y-90297000D01*
X78854300Y-90297000D02*
X80797400Y-90347800D01*
X80797400Y-90347800D02*
X83820000Y-91592400D01*
X83820000Y-91592400D02*
X85598000Y-92938600D01*
X85598000Y-92938600D02*
X87887608Y-96409152D01*
X71782459Y-89918006D02*
X65938400Y-98285300D01*
X65938400Y-98285300D02*
X63957200Y-105232200D01*
X63957200Y-105232200D02*
X64147700Y-110210600D01*
X64147700Y-110210600D02*
X64287400Y-113728500D01*
X64287400Y-113728500D02*
X64998600Y-116598700D01*
X64998600Y-116598700D02*
X66713100Y-117132100D01*
M02*
