G04 #@! TF.GenerationSoftware,KiCad,Pcbnew,(5.1.2-1)-1*
G04 #@! TF.CreationDate,2021-12-22T14:11:33-05:00*
G04 #@! TF.ProjectId,VCO - MFOS_SMD,56434f20-2d20-44d4-964f-535f534d442e,rev?*
G04 #@! TF.SameCoordinates,Original*
G04 #@! TF.FileFunction,Legend,Top*
G04 #@! TF.FilePolarity,Positive*
%FSLAX46Y46*%
G04 Gerber Fmt 4.6, Leading zero omitted, Abs format (unit mm)*
G04 Created by KiCad (PCBNEW (5.1.2-1)-1) date 2021-12-22 14:11:33*
%MOMM*%
%LPD*%
G04 APERTURE LIST*
%ADD10C,0.160000*%
%ADD11C,0.300000*%
%ADD12C,0.120000*%
%ADD13C,0.150000*%
G04 APERTURE END LIST*
D10*
X78170258Y-74288281D02*
X78313115Y-74335900D01*
X78551210Y-74335900D01*
X78646448Y-74288281D01*
X78694067Y-74240662D01*
X78741686Y-74145424D01*
X78741686Y-74050186D01*
X78694067Y-73954948D01*
X78646448Y-73907329D01*
X78551210Y-73859710D01*
X78360734Y-73812091D01*
X78265496Y-73764472D01*
X78217877Y-73716853D01*
X78170258Y-73621615D01*
X78170258Y-73526377D01*
X78217877Y-73431139D01*
X78265496Y-73383520D01*
X78360734Y-73335900D01*
X78598829Y-73335900D01*
X78741686Y-73383520D01*
X79170258Y-74335900D02*
X79170258Y-73335900D01*
X79503591Y-74050186D01*
X79836924Y-73335900D01*
X79836924Y-74335900D01*
X80313115Y-74335900D02*
X80313115Y-73335900D01*
X80551210Y-73335900D01*
X80694067Y-73383520D01*
X80789305Y-73478758D01*
X80836924Y-73573996D01*
X80884543Y-73764472D01*
X80884543Y-73907329D01*
X80836924Y-74097805D01*
X80789305Y-74193043D01*
X80694067Y-74288281D01*
X80551210Y-74335900D01*
X80313115Y-74335900D01*
X82646448Y-74335900D02*
X82313115Y-73859710D01*
X82075020Y-74335900D02*
X82075020Y-73335900D01*
X82455972Y-73335900D01*
X82551210Y-73383520D01*
X82598829Y-73431139D01*
X82646448Y-73526377D01*
X82646448Y-73669234D01*
X82598829Y-73764472D01*
X82551210Y-73812091D01*
X82455972Y-73859710D01*
X82075020Y-73859710D01*
X83455972Y-74288281D02*
X83360734Y-74335900D01*
X83170258Y-74335900D01*
X83075020Y-74288281D01*
X83027400Y-74193043D01*
X83027400Y-73812091D01*
X83075020Y-73716853D01*
X83170258Y-73669234D01*
X83360734Y-73669234D01*
X83455972Y-73716853D01*
X83503591Y-73812091D01*
X83503591Y-73907329D01*
X83027400Y-74002567D01*
X83836924Y-73669234D02*
X84075020Y-74335900D01*
X84313115Y-73669234D01*
X85979781Y-74335900D02*
X85408353Y-74335900D01*
X85694067Y-74335900D02*
X85694067Y-73335900D01*
X85598829Y-73478758D01*
X85503591Y-73573996D01*
X85408353Y-73621615D01*
D11*
X81879440Y-71282560D02*
X81145380Y-71333360D01*
X81879440Y-71038720D02*
X81879440Y-71282560D01*
X81831180Y-70744080D02*
X81879440Y-71038720D01*
X81536540Y-70645020D02*
X81831180Y-70744080D01*
X81292700Y-69860160D02*
X81536540Y-70645020D01*
X82026760Y-69664580D02*
X81292700Y-69860160D01*
X80655160Y-70401180D02*
X80164940Y-70058280D01*
X80655160Y-70939660D02*
X80655160Y-70401180D01*
X80114140Y-71381620D02*
X80655160Y-70939660D01*
X79623920Y-71086980D02*
X80114140Y-71381620D01*
X80114140Y-70007480D02*
X79623920Y-71086980D01*
X78348840Y-71038720D02*
X78938120Y-70987920D01*
X78300580Y-70154800D02*
X78300580Y-71577200D01*
X79133700Y-70154800D02*
X78300580Y-70154800D01*
X77711300Y-70449440D02*
X77762100Y-72067420D01*
X77124560Y-71381620D02*
X77711300Y-70449440D01*
X76631800Y-70497700D02*
X77124560Y-71381620D01*
X75946000Y-72362060D02*
X76631800Y-70497700D01*
X78221840Y-67119500D02*
X78470760Y-65712340D01*
X77891640Y-68196460D02*
X78221840Y-67119500D01*
X77561440Y-68610480D02*
X77891640Y-68196460D01*
X76565760Y-68196460D02*
X77561440Y-68610480D01*
X76565760Y-65712340D02*
X76565760Y-68196460D01*
X78635860Y-65712340D02*
X76565760Y-65712340D01*
X74165460Y-68610480D02*
X76151740Y-68694300D01*
X74165460Y-66624200D02*
X74165460Y-68610480D01*
X75821540Y-65796160D02*
X74165460Y-66624200D01*
X72425560Y-69189600D02*
X73832720Y-63972440D01*
X70769480Y-63807340D02*
X72425560Y-69189600D01*
D10*
X50228666Y-72164841D02*
X50371523Y-72212460D01*
X50609619Y-72212460D01*
X50704857Y-72164841D01*
X50752476Y-72117222D01*
X50800095Y-72021984D01*
X50800095Y-71926746D01*
X50752476Y-71831508D01*
X50704857Y-71783889D01*
X50609619Y-71736270D01*
X50419142Y-71688651D01*
X50323904Y-71641032D01*
X50276285Y-71593413D01*
X50228666Y-71498175D01*
X50228666Y-71402937D01*
X50276285Y-71307699D01*
X50323904Y-71260080D01*
X50419142Y-71212460D01*
X50657238Y-71212460D01*
X50800095Y-71260080D01*
X51895333Y-72307699D02*
X51800095Y-72260080D01*
X51704857Y-72164841D01*
X51562000Y-72021984D01*
X51466761Y-71974365D01*
X51371523Y-71974365D01*
X51419142Y-72212460D02*
X51323904Y-72164841D01*
X51228666Y-72069603D01*
X51181047Y-71879127D01*
X51181047Y-71545794D01*
X51228666Y-71355318D01*
X51323904Y-71260080D01*
X51419142Y-71212460D01*
X51609619Y-71212460D01*
X51704857Y-71260080D01*
X51800095Y-71355318D01*
X51847714Y-71545794D01*
X51847714Y-71879127D01*
X51800095Y-72069603D01*
X51704857Y-72164841D01*
X51609619Y-72212460D01*
X51419142Y-72212460D01*
X52276285Y-71212460D02*
X52276285Y-72021984D01*
X52323904Y-72117222D01*
X52371523Y-72164841D01*
X52466761Y-72212460D01*
X52657238Y-72212460D01*
X52752476Y-72164841D01*
X52800095Y-72117222D01*
X52847714Y-72021984D01*
X52847714Y-71212460D01*
X64151403Y-66421260D02*
X64151403Y-65421260D01*
X64532356Y-65421260D01*
X64627594Y-65468880D01*
X64675213Y-65516499D01*
X64722832Y-65611737D01*
X64722832Y-65754594D01*
X64675213Y-65849832D01*
X64627594Y-65897451D01*
X64532356Y-65945070D01*
X64151403Y-65945070D01*
X65056165Y-65421260D02*
X65294260Y-66421260D01*
X65484737Y-65706975D01*
X65675213Y-66421260D01*
X65913308Y-65421260D01*
X66056165Y-66516499D02*
X66818070Y-66516499D01*
X67008546Y-65516499D02*
X67056165Y-65468880D01*
X67151403Y-65421260D01*
X67389499Y-65421260D01*
X67484737Y-65468880D01*
X67532356Y-65516499D01*
X67579975Y-65611737D01*
X67579975Y-65706975D01*
X67532356Y-65849832D01*
X66960927Y-66421260D01*
X67579975Y-66421260D01*
X64585482Y-59913780D02*
X64585482Y-58913780D01*
X64966435Y-58913780D01*
X65061673Y-58961400D01*
X65109292Y-59009019D01*
X65156911Y-59104257D01*
X65156911Y-59247114D01*
X65109292Y-59342352D01*
X65061673Y-59389971D01*
X64966435Y-59437590D01*
X64585482Y-59437590D01*
X65490244Y-58913780D02*
X65728340Y-59913780D01*
X65918816Y-59199495D01*
X66109292Y-59913780D01*
X66347387Y-58913780D01*
X66490244Y-60009019D02*
X67252149Y-60009019D01*
X68061673Y-59818542D02*
X68014054Y-59866161D01*
X67871197Y-59913780D01*
X67775959Y-59913780D01*
X67633101Y-59866161D01*
X67537863Y-59770923D01*
X67490244Y-59675685D01*
X67442625Y-59485209D01*
X67442625Y-59342352D01*
X67490244Y-59151876D01*
X67537863Y-59056638D01*
X67633101Y-58961400D01*
X67775959Y-58913780D01*
X67871197Y-58913780D01*
X68014054Y-58961400D01*
X68061673Y-59009019D01*
X68347387Y-58913780D02*
X68680720Y-59913780D01*
X69014054Y-58913780D01*
X67516953Y-55065142D02*
X67656997Y-55009793D01*
X67839388Y-54856748D01*
X67881736Y-54759052D01*
X67887605Y-54691965D01*
X67862866Y-54588400D01*
X67801648Y-54515443D01*
X67703952Y-54473095D01*
X67636864Y-54467226D01*
X67533299Y-54491965D01*
X67356777Y-54577923D01*
X67253211Y-54602662D01*
X67186124Y-54596793D01*
X67088428Y-54554445D01*
X67027210Y-54481489D01*
X67002470Y-54377923D01*
X67008340Y-54310836D01*
X67050687Y-54213140D01*
X67233079Y-54060095D01*
X67373123Y-54004747D01*
X68313606Y-54458832D02*
X67670818Y-53692788D01*
X68678389Y-54152743D02*
X68035602Y-53386699D01*
X69116129Y-53785436D01*
X68473341Y-53019391D01*
X69481795Y-46172380D02*
X69148461Y-45696190D01*
X68910366Y-46172380D02*
X68910366Y-45172380D01*
X69291319Y-45172380D01*
X69386557Y-45220000D01*
X69434176Y-45267619D01*
X69481795Y-45362857D01*
X69481795Y-45505714D01*
X69434176Y-45600952D01*
X69386557Y-45648571D01*
X69291319Y-45696190D01*
X68910366Y-45696190D01*
X69910366Y-46172380D02*
X69910366Y-45172380D01*
X70243700Y-45886666D01*
X70577033Y-45172380D01*
X70577033Y-46172380D01*
X71053223Y-46172380D02*
X71053223Y-45172380D01*
X71434176Y-45172380D01*
X71529414Y-45220000D01*
X71577033Y-45267619D01*
X71624652Y-45362857D01*
X71624652Y-45505714D01*
X71577033Y-45600952D01*
X71529414Y-45648571D01*
X71434176Y-45696190D01*
X71053223Y-45696190D01*
X62933390Y-34082740D02*
X63504819Y-34082740D01*
X63219104Y-35082740D02*
X63219104Y-34082740D01*
X64409580Y-35082740D02*
X64076247Y-34606550D01*
X63838152Y-35082740D02*
X63838152Y-34082740D01*
X64219104Y-34082740D01*
X64314342Y-34130360D01*
X64361961Y-34177979D01*
X64409580Y-34273217D01*
X64409580Y-34416074D01*
X64361961Y-34511312D01*
X64314342Y-34558931D01*
X64219104Y-34606550D01*
X63838152Y-34606550D01*
X64838152Y-35082740D02*
X64838152Y-34082740D01*
X56486324Y-17946001D02*
X56629181Y-17993620D01*
X56867277Y-17993620D01*
X56962515Y-17946001D01*
X57010134Y-17898382D01*
X57057753Y-17803144D01*
X57057753Y-17707906D01*
X57010134Y-17612668D01*
X56962515Y-17565049D01*
X56867277Y-17517430D01*
X56676800Y-17469811D01*
X56581562Y-17422192D01*
X56533943Y-17374573D01*
X56486324Y-17279335D01*
X56486324Y-17184097D01*
X56533943Y-17088859D01*
X56581562Y-17041240D01*
X56676800Y-16993620D01*
X56914896Y-16993620D01*
X57057753Y-17041240D01*
X57676800Y-17517430D02*
X57676800Y-17993620D01*
X57343467Y-16993620D02*
X57676800Y-17517430D01*
X58010134Y-16993620D01*
X58343467Y-17993620D02*
X58343467Y-16993620D01*
X58914896Y-17993620D01*
X58914896Y-16993620D01*
X59962515Y-17898382D02*
X59914896Y-17946001D01*
X59772039Y-17993620D01*
X59676800Y-17993620D01*
X59533943Y-17946001D01*
X59438705Y-17850763D01*
X59391086Y-17755525D01*
X59343467Y-17565049D01*
X59343467Y-17422192D01*
X59391086Y-17231716D01*
X59438705Y-17136478D01*
X59533943Y-17041240D01*
X59676800Y-16993620D01*
X59772039Y-16993620D01*
X59914896Y-17041240D01*
X59962515Y-17088859D01*
X53202246Y-18295311D02*
X52868913Y-18295311D01*
X52868913Y-18819120D02*
X52868913Y-17819120D01*
X53345103Y-17819120D01*
X53630818Y-17819120D02*
X54249865Y-17819120D01*
X53916532Y-18200073D01*
X54059389Y-18200073D01*
X54154627Y-18247692D01*
X54202246Y-18295311D01*
X54249865Y-18390549D01*
X54249865Y-18628644D01*
X54202246Y-18723882D01*
X54154627Y-18771501D01*
X54059389Y-18819120D01*
X53773675Y-18819120D01*
X53678437Y-18771501D01*
X53630818Y-18723882D01*
X49617333Y-18647682D02*
X49569714Y-18695301D01*
X49426857Y-18742920D01*
X49331619Y-18742920D01*
X49188761Y-18695301D01*
X49093523Y-18600063D01*
X49045904Y-18504825D01*
X48998285Y-18314349D01*
X48998285Y-18171492D01*
X49045904Y-17981016D01*
X49093523Y-17885778D01*
X49188761Y-17790540D01*
X49331619Y-17742920D01*
X49426857Y-17742920D01*
X49569714Y-17790540D01*
X49617333Y-17838159D01*
X49950666Y-17742920D02*
X50569714Y-17742920D01*
X50236380Y-18123873D01*
X50379238Y-18123873D01*
X50474476Y-18171492D01*
X50522095Y-18219111D01*
X50569714Y-18314349D01*
X50569714Y-18552444D01*
X50522095Y-18647682D01*
X50474476Y-18695301D01*
X50379238Y-18742920D01*
X50093523Y-18742920D01*
X49998285Y-18695301D01*
X49950666Y-18647682D01*
X45926713Y-18551162D02*
X45879094Y-18598781D01*
X45736237Y-18646400D01*
X45640999Y-18646400D01*
X45498141Y-18598781D01*
X45402903Y-18503543D01*
X45355284Y-18408305D01*
X45307665Y-18217829D01*
X45307665Y-18074972D01*
X45355284Y-17884496D01*
X45402903Y-17789258D01*
X45498141Y-17694020D01*
X45640999Y-17646400D01*
X45736237Y-17646400D01*
X45879094Y-17694020D01*
X45926713Y-17741639D01*
X46879094Y-18646400D02*
X46307665Y-18646400D01*
X46593380Y-18646400D02*
X46593380Y-17646400D01*
X46498141Y-17789258D01*
X46402903Y-17884496D01*
X46307665Y-17932115D01*
X42369146Y-18168311D02*
X42035813Y-18168311D01*
X42035813Y-18692120D02*
X42035813Y-17692120D01*
X42512003Y-17692120D01*
X43416765Y-18692120D02*
X42845337Y-18692120D01*
X43131051Y-18692120D02*
X43131051Y-17692120D01*
X43035813Y-17834978D01*
X42940575Y-17930216D01*
X42845337Y-17977835D01*
X17745295Y-71310808D02*
X18507200Y-71310808D01*
X19507200Y-71691760D02*
X18935771Y-71691760D01*
X19221485Y-71691760D02*
X19221485Y-70691760D01*
X19126247Y-70834618D01*
X19031009Y-70929856D01*
X18935771Y-70977475D01*
X19888152Y-70786999D02*
X19935771Y-70739380D01*
X20031009Y-70691760D01*
X20269104Y-70691760D01*
X20364342Y-70739380D01*
X20411961Y-70786999D01*
X20459580Y-70882237D01*
X20459580Y-70977475D01*
X20411961Y-71120332D01*
X19840533Y-71691760D01*
X20459580Y-71691760D01*
X20745295Y-70691760D02*
X21078628Y-71691760D01*
X21411961Y-70691760D01*
X19227895Y-65631440D02*
X19132657Y-65583820D01*
X18989800Y-65583820D01*
X18846942Y-65631440D01*
X18751704Y-65726678D01*
X18704085Y-65821916D01*
X18656466Y-66012392D01*
X18656466Y-66155249D01*
X18704085Y-66345725D01*
X18751704Y-66440963D01*
X18846942Y-66536201D01*
X18989800Y-66583820D01*
X19085038Y-66583820D01*
X19227895Y-66536201D01*
X19275514Y-66488582D01*
X19275514Y-66155249D01*
X19085038Y-66155249D01*
X19704085Y-66583820D02*
X19704085Y-65583820D01*
X20275514Y-66583820D01*
X20275514Y-65583820D01*
X20751704Y-66583820D02*
X20751704Y-65583820D01*
X20989800Y-65583820D01*
X21132657Y-65631440D01*
X21227895Y-65726678D01*
X21275514Y-65821916D01*
X21323133Y-66012392D01*
X21323133Y-66155249D01*
X21275514Y-66345725D01*
X21227895Y-66440963D01*
X21132657Y-66536201D01*
X20989800Y-66583820D01*
X20751704Y-66583820D01*
X17925635Y-60975548D02*
X18687540Y-60975548D01*
X18306587Y-61356500D02*
X18306587Y-60594596D01*
X19687540Y-61356500D02*
X19116111Y-61356500D01*
X19401825Y-61356500D02*
X19401825Y-60356500D01*
X19306587Y-60499358D01*
X19211349Y-60594596D01*
X19116111Y-60642215D01*
X20068492Y-60451739D02*
X20116111Y-60404120D01*
X20211349Y-60356500D01*
X20449444Y-60356500D01*
X20544682Y-60404120D01*
X20592301Y-60451739D01*
X20639920Y-60546977D01*
X20639920Y-60642215D01*
X20592301Y-60785072D01*
X20020873Y-61356500D01*
X20639920Y-61356500D01*
X20925635Y-60356500D02*
X21258968Y-61356500D01*
X21592301Y-60356500D01*
X39213636Y-46263820D02*
X39213636Y-45263820D01*
X39594588Y-45263820D01*
X39689826Y-45311440D01*
X39737445Y-45359059D01*
X39785064Y-45454297D01*
X39785064Y-45597154D01*
X39737445Y-45692392D01*
X39689826Y-45740011D01*
X39594588Y-45787630D01*
X39213636Y-45787630D01*
X40118398Y-45263820D02*
X40356493Y-46263820D01*
X40546969Y-45549535D01*
X40737445Y-46263820D01*
X40975540Y-45263820D01*
X41880302Y-46263820D02*
X41308874Y-46263820D01*
X41594588Y-46263820D02*
X41594588Y-45263820D01*
X41499350Y-45406678D01*
X41404112Y-45501916D01*
X41308874Y-45549535D01*
X36046256Y-54122580D02*
X36046256Y-53122580D01*
X36427208Y-53122580D01*
X36522446Y-53170200D01*
X36570065Y-53217819D01*
X36617684Y-53313057D01*
X36617684Y-53455914D01*
X36570065Y-53551152D01*
X36522446Y-53598771D01*
X36427208Y-53646390D01*
X36046256Y-53646390D01*
X36951018Y-53122580D02*
X37189113Y-54122580D01*
X37379589Y-53408295D01*
X37570065Y-54122580D01*
X37808160Y-53122580D01*
X38093875Y-53122580D02*
X38712922Y-53122580D01*
X38379589Y-53503533D01*
X38522446Y-53503533D01*
X38617684Y-53551152D01*
X38665303Y-53598771D01*
X38712922Y-53694009D01*
X38712922Y-53932104D01*
X38665303Y-54027342D01*
X38617684Y-54074961D01*
X38522446Y-54122580D01*
X38236732Y-54122580D01*
X38141494Y-54074961D01*
X38093875Y-54027342D01*
X28483855Y-54959435D02*
X28072896Y-54548361D01*
X27921108Y-55058662D02*
X27747460Y-54073854D01*
X28122625Y-54007703D01*
X28224685Y-54038060D01*
X28279849Y-54076687D01*
X28343283Y-54162209D01*
X28368090Y-54302896D01*
X28337732Y-54404956D01*
X28299105Y-54460121D01*
X28213583Y-54523554D01*
X27838418Y-54589706D01*
X29421767Y-54794055D02*
X28859020Y-54893283D01*
X29140394Y-54843669D02*
X28966746Y-53858861D01*
X28897761Y-54016086D01*
X28820508Y-54126415D01*
X28734986Y-54189849D01*
X30359679Y-54628676D02*
X29796932Y-54727904D01*
X30078306Y-54678290D02*
X29904658Y-53693482D01*
X29835673Y-53850707D01*
X29758420Y-53961036D01*
X29672898Y-54024470D01*
X30563800Y-54689391D02*
X31314130Y-54557088D01*
X31769380Y-53848218D02*
X31918336Y-53870306D01*
X31973501Y-53908933D01*
X32036934Y-53994455D01*
X32061741Y-54135142D01*
X32031383Y-54237202D01*
X31992757Y-54292367D01*
X31907235Y-54355800D01*
X31532070Y-54421952D01*
X31358421Y-53437144D01*
X31686691Y-53379262D01*
X31788751Y-53409619D01*
X31843915Y-53448246D01*
X31907349Y-53533768D01*
X31923887Y-53627559D01*
X31893529Y-53729620D01*
X31854903Y-53784784D01*
X31769380Y-53848218D01*
X31441111Y-53906100D01*
X21731759Y-38172871D02*
X21320800Y-37761798D01*
X21169011Y-38272099D02*
X20995363Y-37287291D01*
X21370528Y-37221139D01*
X21472588Y-37251497D01*
X21527753Y-37290123D01*
X21591186Y-37375646D01*
X21615993Y-37516333D01*
X21585635Y-37618393D01*
X21547009Y-37673557D01*
X21461487Y-37736991D01*
X21086322Y-37803143D01*
X22669671Y-38007492D02*
X22106923Y-38106719D01*
X22388297Y-38057106D02*
X22214649Y-37072298D01*
X22145665Y-37229523D01*
X22068411Y-37339852D01*
X21982889Y-37403285D01*
X23607583Y-37842113D02*
X23044836Y-37941340D01*
X23326209Y-37891726D02*
X23152561Y-36906919D01*
X23083577Y-37064143D01*
X23006323Y-37174473D01*
X22920801Y-37237906D01*
X23811703Y-37902828D02*
X24562033Y-37770525D01*
X24683464Y-37362284D02*
X25152420Y-37279594D01*
X24639286Y-37660196D02*
X24793907Y-36617505D01*
X25295825Y-37544430D01*
X19674887Y-54076860D02*
X19198697Y-54076860D01*
X19198697Y-53076860D01*
X20008220Y-54076860D02*
X20008220Y-53410194D01*
X20008220Y-53076860D02*
X19960601Y-53124480D01*
X20008220Y-53172099D01*
X20055840Y-53124480D01*
X20008220Y-53076860D01*
X20008220Y-53172099D01*
X20484411Y-53410194D02*
X20484411Y-54076860D01*
X20484411Y-53505432D02*
X20532030Y-53457813D01*
X20627268Y-53410194D01*
X20770125Y-53410194D01*
X20865363Y-53457813D01*
X20912982Y-53553051D01*
X20912982Y-54076860D01*
X20595293Y-32630382D02*
X20547674Y-32678001D01*
X20404817Y-32725620D01*
X20309579Y-32725620D01*
X20166721Y-32678001D01*
X20071483Y-32582763D01*
X20023864Y-32487525D01*
X19976245Y-32297049D01*
X19976245Y-32154192D01*
X20023864Y-31963716D01*
X20071483Y-31868478D01*
X20166721Y-31773240D01*
X20309579Y-31725620D01*
X20404817Y-31725620D01*
X20547674Y-31773240D01*
X20595293Y-31820859D01*
X20976245Y-31820859D02*
X21023864Y-31773240D01*
X21119102Y-31725620D01*
X21357198Y-31725620D01*
X21452436Y-31773240D01*
X21500055Y-31820859D01*
X21547674Y-31916097D01*
X21547674Y-32011335D01*
X21500055Y-32154192D01*
X20928626Y-32725620D01*
X21547674Y-32725620D01*
X20354966Y-28320691D02*
X20021633Y-28320691D01*
X20021633Y-28844500D02*
X20021633Y-27844500D01*
X20497823Y-27844500D01*
X20831157Y-27939739D02*
X20878776Y-27892120D01*
X20974014Y-27844500D01*
X21212109Y-27844500D01*
X21307347Y-27892120D01*
X21354966Y-27939739D01*
X21402585Y-28034977D01*
X21402585Y-28130215D01*
X21354966Y-28273072D01*
X20783538Y-28844500D01*
X21402585Y-28844500D01*
X32965781Y-18327642D02*
X32918162Y-18375261D01*
X32775305Y-18422880D01*
X32680067Y-18422880D01*
X32537210Y-18375261D01*
X32441972Y-18280023D01*
X32394353Y-18184785D01*
X32346734Y-17994309D01*
X32346734Y-17851452D01*
X32394353Y-17660976D01*
X32441972Y-17565738D01*
X32537210Y-17470500D01*
X32680067Y-17422880D01*
X32775305Y-17422880D01*
X32918162Y-17470500D01*
X32965781Y-17518119D01*
X33251496Y-17422880D02*
X33584829Y-18422880D01*
X33918162Y-17422880D01*
X34680067Y-17756214D02*
X34680067Y-18422880D01*
X34441972Y-17375261D02*
X34203877Y-18089547D01*
X34822924Y-18089547D01*
X29427561Y-18380982D02*
X29379942Y-18428601D01*
X29237085Y-18476220D01*
X29141847Y-18476220D01*
X28998990Y-18428601D01*
X28903752Y-18333363D01*
X28856133Y-18238125D01*
X28808514Y-18047649D01*
X28808514Y-17904792D01*
X28856133Y-17714316D01*
X28903752Y-17619078D01*
X28998990Y-17523840D01*
X29141847Y-17476220D01*
X29237085Y-17476220D01*
X29379942Y-17523840D01*
X29427561Y-17571459D01*
X29713276Y-17476220D02*
X30046609Y-18476220D01*
X30379942Y-17476220D01*
X30618038Y-17476220D02*
X31237085Y-17476220D01*
X30903752Y-17857173D01*
X31046609Y-17857173D01*
X31141847Y-17904792D01*
X31189466Y-17952411D01*
X31237085Y-18047649D01*
X31237085Y-18285744D01*
X31189466Y-18380982D01*
X31141847Y-18428601D01*
X31046609Y-18476220D01*
X30760895Y-18476220D01*
X30665657Y-18428601D01*
X30618038Y-18380982D01*
X25833461Y-18299702D02*
X25785842Y-18347321D01*
X25642985Y-18394940D01*
X25547747Y-18394940D01*
X25404890Y-18347321D01*
X25309652Y-18252083D01*
X25262033Y-18156845D01*
X25214414Y-17966369D01*
X25214414Y-17823512D01*
X25262033Y-17633036D01*
X25309652Y-17537798D01*
X25404890Y-17442560D01*
X25547747Y-17394940D01*
X25642985Y-17394940D01*
X25785842Y-17442560D01*
X25833461Y-17490179D01*
X26119176Y-17394940D02*
X26452509Y-18394940D01*
X26785842Y-17394940D01*
X27071557Y-17490179D02*
X27119176Y-17442560D01*
X27214414Y-17394940D01*
X27452509Y-17394940D01*
X27547747Y-17442560D01*
X27595366Y-17490179D01*
X27642985Y-17585417D01*
X27642985Y-17680655D01*
X27595366Y-17823512D01*
X27023938Y-18394940D01*
X27642985Y-18394940D01*
X22186021Y-18190482D02*
X22138402Y-18238101D01*
X21995545Y-18285720D01*
X21900307Y-18285720D01*
X21757450Y-18238101D01*
X21662212Y-18142863D01*
X21614593Y-18047625D01*
X21566974Y-17857149D01*
X21566974Y-17714292D01*
X21614593Y-17523816D01*
X21662212Y-17428578D01*
X21757450Y-17333340D01*
X21900307Y-17285720D01*
X21995545Y-17285720D01*
X22138402Y-17333340D01*
X22186021Y-17380959D01*
X22471736Y-17285720D02*
X22805069Y-18285720D01*
X23138402Y-17285720D01*
X23995545Y-18285720D02*
X23424117Y-18285720D01*
X23709831Y-18285720D02*
X23709831Y-17285720D01*
X23614593Y-17428578D01*
X23519355Y-17523816D01*
X23424117Y-17571435D01*
D12*
X48932615Y-65549080D02*
X48646826Y-65384080D01*
X45662615Y-71212886D02*
X48932615Y-65549080D01*
X45376826Y-71047886D02*
X45662615Y-71212886D01*
X46559705Y-64179080D02*
X46845494Y-64344080D01*
X43289705Y-69842886D02*
X46559705Y-64179080D01*
X43575494Y-70007886D02*
X43289705Y-69842886D01*
X31851540Y-76948600D02*
X29311540Y-76948600D01*
X31851540Y-76948600D02*
X31851540Y-74408600D01*
X31601540Y-76698600D02*
X22251540Y-76698600D01*
X31601540Y-55838600D02*
X31601540Y-76698600D01*
X22251540Y-55838600D02*
X31601540Y-55838600D01*
X22251540Y-76698600D02*
X22251540Y-55838600D01*
X61110834Y-33515211D02*
X60993680Y-33837088D01*
X62069320Y-33864072D02*
X61952166Y-34185949D01*
X34326797Y-43003521D02*
X34386277Y-43340851D01*
X35331301Y-42826399D02*
X35390781Y-43163729D01*
X32550687Y-37800979D02*
X22426864Y-39586082D01*
X34356628Y-48042980D02*
X32550687Y-37800979D01*
X24232805Y-49828083D02*
X34356628Y-48042980D01*
X22426864Y-39586082D02*
X24232805Y-49828083D01*
X30108935Y-38292451D02*
X28484002Y-38578971D01*
X31894038Y-48416275D02*
X30108935Y-38292451D01*
X26674557Y-49336611D02*
X31894038Y-48416275D01*
X24889454Y-39212787D02*
X26674557Y-49336611D01*
X26514387Y-38926267D02*
X24889454Y-39212787D01*
X28484001Y-38578971D02*
G75*
G02X26514387Y-38926267I-984807J-173648D01*
G01*
X37901900Y-36935712D02*
X38785245Y-36425712D01*
X44595117Y-40888704D02*
X43635117Y-39225936D01*
X38642028Y-43817653D02*
X38122028Y-42916987D01*
X44733514Y-41328416D02*
X43503758Y-42038416D01*
X43403758Y-41865211D02*
X40303387Y-43655211D01*
X40303387Y-43655211D02*
X40403387Y-43828416D01*
X40403387Y-43828416D02*
X39173631Y-44538416D01*
X39173631Y-44538416D02*
X39073631Y-44365211D01*
X38785245Y-36425712D02*
X40075623Y-35680712D01*
X41865117Y-36160206D02*
X43635117Y-39225936D01*
X38122028Y-42916987D02*
X36132028Y-39470206D01*
X36611522Y-37680712D02*
X37901900Y-36935712D01*
X40075623Y-35680712D02*
G75*
G02X41865117Y-36160206I655000J-1134494D01*
G01*
X36132028Y-39470206D02*
G75*
G02X36611522Y-37680712I1134494J655000D01*
G01*
X43403758Y-41865211D02*
X43503758Y-42038416D01*
X44733514Y-41328416D02*
X44633514Y-41155211D01*
X44633514Y-41155211D02*
X44720117Y-41105211D01*
X44720117Y-41105211D02*
X44595117Y-40888704D01*
X39073631Y-44365211D02*
X38987028Y-44415211D01*
X38987028Y-44415211D02*
X38642028Y-43817653D01*
X37727868Y-35039951D02*
X37906575Y-34548958D01*
X36393505Y-34554282D02*
X36572212Y-34063289D01*
X60380751Y-64311674D02*
X60380751Y-60861674D01*
X60380751Y-64311674D02*
X60380751Y-66261674D01*
X55260751Y-64311674D02*
X55260751Y-62361674D01*
X55260751Y-64311674D02*
X55260751Y-66261674D01*
X39845300Y-51003200D02*
X39845300Y-54453200D01*
X39845300Y-51003200D02*
X39845300Y-49053200D01*
X44965300Y-51003200D02*
X44965300Y-52953200D01*
X44965300Y-51003200D02*
X44965300Y-49053200D01*
X55405675Y-30795241D02*
X53188058Y-33438094D01*
X55405675Y-30795241D02*
X56659111Y-29301454D01*
X59327823Y-34086313D02*
X58074387Y-35580100D01*
X59327823Y-34086313D02*
X60581259Y-32592527D01*
X33138652Y-30141947D02*
X29896712Y-28961977D01*
X33138652Y-30141947D02*
X34971052Y-30808886D01*
X31387508Y-34953173D02*
X29555108Y-34286234D01*
X31387508Y-34953173D02*
X33219909Y-35620112D01*
X57748295Y-69714622D02*
X57748295Y-70237126D01*
X59168295Y-69714622D02*
X59168295Y-70237126D01*
X56468277Y-58921425D02*
X56468277Y-58398921D01*
X55048277Y-58921425D02*
X55048277Y-58398921D01*
X53820793Y-64198828D02*
X53820793Y-64541362D01*
X54840793Y-64198828D02*
X54840793Y-64541362D01*
X66120707Y-38054409D02*
X65783377Y-38113889D01*
X66297829Y-39058913D02*
X65960499Y-39118393D01*
X65500095Y-31874598D02*
X65238843Y-31422096D01*
X64270339Y-32584598D02*
X64009087Y-32132096D01*
X57461812Y-48041325D02*
X57461812Y-48563829D01*
X58881812Y-48041325D02*
X58881812Y-48563829D01*
X55912324Y-26498754D02*
X55733617Y-26007761D01*
X54577961Y-26984423D02*
X54399254Y-26493430D01*
X49418559Y-29181778D02*
X49818820Y-29517637D01*
X50331318Y-28093995D02*
X50731579Y-28429854D01*
X60143573Y-23667180D02*
X60486107Y-23667180D01*
X60143573Y-22647180D02*
X60486107Y-22647180D01*
X31462612Y-26719460D02*
X30940108Y-26719460D01*
X31462612Y-28139460D02*
X30940108Y-28139460D01*
X53795398Y-69281364D02*
X53795398Y-69623898D01*
X54815398Y-69281364D02*
X54815398Y-69623898D01*
X53496222Y-66428030D02*
X53153688Y-66428030D01*
X53496222Y-67448030D02*
X53153688Y-67448030D01*
X60881993Y-62174444D02*
X60881993Y-62516978D01*
X61901993Y-62174444D02*
X61901993Y-62516978D01*
X53316795Y-64533740D02*
X53316795Y-64191206D01*
X52296795Y-64533740D02*
X52296795Y-64191206D01*
X59145551Y-60300474D02*
X59488085Y-60300474D01*
X59145551Y-59280474D02*
X59488085Y-59280474D01*
X59477923Y-57703133D02*
X59135389Y-57703133D01*
X59477923Y-58723133D02*
X59135389Y-58723133D01*
X53207029Y-62390896D02*
X53549563Y-62390896D01*
X53207029Y-61370896D02*
X53549563Y-61370896D01*
X72312195Y-52641807D02*
X72140928Y-52938451D01*
X73195540Y-53151807D02*
X73024273Y-53448451D01*
X69895019Y-55611099D02*
X70191663Y-55782366D01*
X70405019Y-54727754D02*
X70701663Y-54899021D01*
X73927661Y-48145155D02*
X73987141Y-48482485D01*
X74932165Y-47968033D02*
X74991645Y-48305363D01*
X62902787Y-36860092D02*
X62902787Y-37202626D01*
X63922787Y-36860092D02*
X63922787Y-37202626D01*
X72770591Y-50777783D02*
X73067235Y-50949050D01*
X73280591Y-49894438D02*
X73577235Y-50065705D01*
X69608298Y-33779757D02*
X69270968Y-33839237D01*
X69785420Y-34784261D02*
X69448090Y-34843741D01*
X82837833Y-37692549D02*
X82666566Y-37989193D01*
X83721178Y-38202549D02*
X83549911Y-38499193D01*
X65964005Y-40726898D02*
X66301335Y-40667418D01*
X65786883Y-39722394D02*
X66124213Y-39662914D01*
X69866598Y-35288105D02*
X69529268Y-35347585D01*
X70043720Y-36292609D02*
X69706390Y-36352089D01*
X70888612Y-24384790D02*
X71059879Y-24681434D01*
X71771957Y-23874790D02*
X71943224Y-24171434D01*
X79830621Y-39543314D02*
X79659354Y-39839958D01*
X80713966Y-40053314D02*
X80542699Y-40349958D01*
X66112237Y-44663144D02*
X65774907Y-44722624D01*
X66289359Y-45667648D02*
X65952029Y-45727128D01*
X76409462Y-45560369D02*
X76238195Y-45857013D01*
X77292807Y-46070369D02*
X77121540Y-46367013D01*
X78099202Y-42491419D02*
X77927935Y-42788063D01*
X78982547Y-43001419D02*
X78811280Y-43298063D01*
X64446232Y-46601554D02*
X64108902Y-46661034D01*
X64623354Y-47606058D02*
X64286024Y-47665538D01*
X60873101Y-48015993D02*
X61210431Y-47956513D01*
X60695979Y-47011489D02*
X61033309Y-46952009D01*
X55214128Y-47716993D02*
X55556662Y-47716993D01*
X55214128Y-46696993D02*
X55556662Y-46696993D01*
X49640315Y-53500812D02*
X49640315Y-53158278D01*
X48620315Y-53500812D02*
X48620315Y-53158278D01*
X59018094Y-36737840D02*
X59238271Y-36475444D01*
X58236729Y-36082196D02*
X58456906Y-35819800D01*
X60634414Y-29260066D02*
X60896810Y-29480243D01*
X61290058Y-28478701D02*
X61552454Y-28698878D01*
X53005244Y-23420427D02*
X52708600Y-23591694D01*
X53515244Y-24303772D02*
X53218600Y-24475039D01*
X52680208Y-27609512D02*
X52797362Y-27931389D01*
X53638694Y-27260651D02*
X53755848Y-27582528D01*
X60816307Y-24374380D02*
X60473773Y-24374380D01*
X60816307Y-25394380D02*
X60473773Y-25394380D01*
X57054567Y-22626860D02*
X56712033Y-22626860D01*
X57054567Y-23646860D02*
X56712033Y-23646860D01*
X47853609Y-30744232D02*
X48116005Y-30964409D01*
X48509253Y-29962867D02*
X48771649Y-30183044D01*
X46258264Y-32397170D02*
X46478441Y-32659566D01*
X47039629Y-31741526D02*
X47259806Y-32003922D01*
X38574891Y-32137646D02*
X38896768Y-32254800D01*
X38923752Y-31179160D02*
X39245629Y-31296314D01*
X43395360Y-31839987D02*
X43395360Y-31497453D01*
X42375360Y-31839987D02*
X42375360Y-31497453D01*
X22004560Y-50041993D02*
X22004560Y-50384527D01*
X23024560Y-50041993D02*
X23024560Y-50384527D01*
X26679721Y-51872418D02*
X26508454Y-52169062D01*
X27563066Y-52382418D02*
X27391799Y-52679062D01*
X37387713Y-22287960D02*
X37730247Y-22287960D01*
X37387713Y-21267960D02*
X37730247Y-21267960D01*
X47675260Y-24174267D02*
X47675260Y-23831733D01*
X46655260Y-24174267D02*
X46655260Y-23831733D01*
X49666620Y-24141247D02*
X49666620Y-23798713D01*
X48646620Y-24141247D02*
X48646620Y-23798713D01*
X32449694Y-24695700D02*
X32669871Y-24433304D01*
X31668329Y-24040056D02*
X31888506Y-23777660D01*
X30228000Y-24359687D02*
X30228000Y-24017153D01*
X29208000Y-24359687D02*
X29208000Y-24017153D01*
X27301446Y-24099522D02*
X27130179Y-23802878D01*
X26418101Y-24609522D02*
X26246834Y-24312878D01*
X25049871Y-24057836D02*
X24829694Y-23795440D01*
X24268506Y-24713480D02*
X24048329Y-24451084D01*
X26520680Y-31820033D02*
X26520680Y-32162567D01*
X27540680Y-31820033D02*
X27540680Y-32162567D01*
X27713400Y-28558307D02*
X27713400Y-28215773D01*
X26693400Y-28558307D02*
X26693400Y-28215773D01*
X44783279Y-23836813D02*
X44783279Y-24179347D01*
X45803279Y-23836813D02*
X45803279Y-24179347D01*
X42779219Y-23877452D02*
X42779219Y-24219986D01*
X43799219Y-23877452D02*
X43799219Y-24219986D01*
X90586728Y-44730303D02*
X81683987Y-39590303D01*
X80306728Y-62535785D02*
X90586728Y-44730303D01*
X71403987Y-57395785D02*
X80306728Y-62535785D01*
X81683987Y-39590303D02*
X71403987Y-57395785D01*
X88400325Y-43537264D02*
X86971383Y-42712264D01*
X78180325Y-61238823D02*
X88400325Y-43537264D01*
X73590390Y-58588823D02*
X78180325Y-61238823D01*
X83810390Y-40887264D02*
X73590390Y-58588823D01*
X85239332Y-41712264D02*
X83810390Y-40887264D01*
X86971384Y-42712264D02*
G75*
G02X85239332Y-41712264I-866026J500000D01*
G01*
X55191782Y-42635311D02*
X55191782Y-46085311D01*
X55191782Y-42635311D02*
X55191782Y-40685311D01*
X64061782Y-42635311D02*
X64061782Y-44585311D01*
X64061782Y-42635311D02*
X64061782Y-40685311D01*
X90696528Y-35400090D02*
X90186528Y-36283435D01*
X82923536Y-35323307D02*
X84586304Y-36283307D01*
X86614587Y-29810218D02*
X87515253Y-30330218D01*
X82583824Y-35011704D02*
X83293824Y-33781948D01*
X83467029Y-33881948D02*
X85257029Y-30781577D01*
X85257029Y-30781577D02*
X85083824Y-30681577D01*
X85083824Y-30681577D02*
X85793824Y-29451821D01*
X85793824Y-29451821D02*
X85967029Y-29551821D01*
X90186528Y-36283435D02*
X89441528Y-37573813D01*
X87652034Y-38053307D02*
X84586304Y-36283307D01*
X87515253Y-30330218D02*
X90962034Y-32320218D01*
X91441528Y-34109712D02*
X90696528Y-35400090D01*
X89441528Y-37573813D02*
G75*
G02X87652034Y-38053307I-1134494J655000D01*
G01*
X90962034Y-32320218D02*
G75*
G02X91441528Y-34109712I-655000J-1134494D01*
G01*
X83467029Y-33881948D02*
X83293824Y-33781948D01*
X82583824Y-35011704D02*
X82757029Y-35111704D01*
X82757029Y-35111704D02*
X82707029Y-35198307D01*
X82707029Y-35198307D02*
X82923536Y-35323307D01*
X85967029Y-29551821D02*
X86017029Y-29465218D01*
X86017029Y-29465218D02*
X86614587Y-29810218D01*
X81522713Y-35221563D02*
X81012713Y-36104908D01*
X73749721Y-35144780D02*
X75412489Y-36104780D01*
X77440772Y-29631691D02*
X78341438Y-30151691D01*
X73410009Y-34833177D02*
X74120009Y-33603421D01*
X74293214Y-33703421D02*
X76083214Y-30603050D01*
X76083214Y-30603050D02*
X75910009Y-30503050D01*
X75910009Y-30503050D02*
X76620009Y-29273294D01*
X76620009Y-29273294D02*
X76793214Y-29373294D01*
X81012713Y-36104908D02*
X80267713Y-37395286D01*
X78478219Y-37874780D02*
X75412489Y-36104780D01*
X78341438Y-30151691D02*
X81788219Y-32141691D01*
X82267713Y-33931185D02*
X81522713Y-35221563D01*
X80267713Y-37395286D02*
G75*
G02X78478219Y-37874780I-1134494J655000D01*
G01*
X81788219Y-32141691D02*
G75*
G02X82267713Y-33931185I-655000J-1134494D01*
G01*
X74293214Y-33703421D02*
X74120009Y-33603421D01*
X73410009Y-34833177D02*
X73583214Y-34933177D01*
X73583214Y-34933177D02*
X73533214Y-35019780D01*
X73533214Y-35019780D02*
X73749721Y-35144780D01*
X76793214Y-29373294D02*
X76843214Y-29286691D01*
X76843214Y-29286691D02*
X77440772Y-29631691D01*
X70927425Y-31183898D02*
X70044080Y-31693898D01*
X64234208Y-27230906D02*
X65194208Y-28893674D01*
X70187297Y-24301957D02*
X70707297Y-25202623D01*
X64095811Y-26791194D02*
X65325567Y-26081194D01*
X65425567Y-26254399D02*
X68525938Y-24464399D01*
X68525938Y-24464399D02*
X68425938Y-24291194D01*
X68425938Y-24291194D02*
X69655694Y-23581194D01*
X69655694Y-23581194D02*
X69755694Y-23754399D01*
X70044080Y-31693898D02*
X68753702Y-32438898D01*
X66964208Y-31959404D02*
X65194208Y-28893674D01*
X70707297Y-25202623D02*
X72697297Y-28649404D01*
X72217803Y-30438898D02*
X70927425Y-31183898D01*
X68753702Y-32438898D02*
G75*
G02X66964208Y-31959404I-655000J1134494D01*
G01*
X72697297Y-28649404D02*
G75*
G02X72217803Y-30438898I-1134494J-655000D01*
G01*
X65425567Y-26254399D02*
X65325567Y-26081194D01*
X64095811Y-26791194D02*
X64195811Y-26964399D01*
X64195811Y-26964399D02*
X64109208Y-27014399D01*
X64109208Y-27014399D02*
X64234208Y-27230906D01*
X69755694Y-23754399D02*
X69842297Y-23704399D01*
X69842297Y-23704399D02*
X70187297Y-24301957D01*
X77878260Y-41716817D02*
X77368260Y-42600162D01*
X70105268Y-41640034D02*
X71768036Y-42600034D01*
X73796319Y-36126945D02*
X74696985Y-36646945D01*
X69765556Y-41328431D02*
X70475556Y-40098675D01*
X70648761Y-40198675D02*
X72438761Y-37098304D01*
X72438761Y-37098304D02*
X72265556Y-36998304D01*
X72265556Y-36998304D02*
X72975556Y-35768548D01*
X72975556Y-35768548D02*
X73148761Y-35868548D01*
X77368260Y-42600162D02*
X76623260Y-43890540D01*
X74833766Y-44370034D02*
X71768036Y-42600034D01*
X74696985Y-36646945D02*
X78143766Y-38636945D01*
X78623260Y-40426439D02*
X77878260Y-41716817D01*
X76623260Y-43890540D02*
G75*
G02X74833766Y-44370034I-1134494J655000D01*
G01*
X78143766Y-38636945D02*
G75*
G02X78623260Y-40426439I-655000J-1134494D01*
G01*
X70648761Y-40198675D02*
X70475556Y-40098675D01*
X69765556Y-41328431D02*
X69938761Y-41428431D01*
X69938761Y-41428431D02*
X69888761Y-41515034D01*
X69888761Y-41515034D02*
X70105268Y-41640034D01*
X73148761Y-35868548D02*
X73198761Y-35781945D01*
X73198761Y-35781945D02*
X73796319Y-36126945D01*
X52984314Y-48381489D02*
X54004314Y-48381489D01*
X56804314Y-55151489D02*
X56804314Y-53231489D01*
X50184314Y-54711489D02*
X50184314Y-53671489D01*
X56704314Y-55601489D02*
X55284314Y-55601489D01*
X55284314Y-55401489D02*
X51704314Y-55401489D01*
X51704314Y-55401489D02*
X51704314Y-55601489D01*
X51704314Y-55601489D02*
X50284314Y-55601489D01*
X50284314Y-55601489D02*
X50284314Y-55401489D01*
X54004314Y-48381489D02*
X55494314Y-48381489D01*
X56804314Y-49691489D02*
X56804314Y-53231489D01*
X50184314Y-53671489D02*
X50184314Y-49691489D01*
X51494314Y-48381489D02*
X52984314Y-48381489D01*
X55494314Y-48381489D02*
G75*
G02X56804314Y-49691489I0J-1310000D01*
G01*
X50184314Y-49691489D02*
G75*
G02X51494314Y-48381489I1310000J0D01*
G01*
X55284314Y-55401489D02*
X55284314Y-55601489D01*
X56704314Y-55601489D02*
X56704314Y-55401489D01*
X56704314Y-55401489D02*
X56804314Y-55401489D01*
X56804314Y-55401489D02*
X56804314Y-55151489D01*
X50284314Y-55401489D02*
X50184314Y-55401489D01*
X50184314Y-55401489D02*
X50184314Y-54711489D01*
X41230300Y-25648820D02*
X41230300Y-26668820D01*
X34460300Y-29468820D02*
X36380300Y-29468820D01*
X34900300Y-22848820D02*
X35940300Y-22848820D01*
X34010300Y-29368820D02*
X34010300Y-27948820D01*
X34210300Y-27948820D02*
X34210300Y-24368820D01*
X34210300Y-24368820D02*
X34010300Y-24368820D01*
X34010300Y-24368820D02*
X34010300Y-22948820D01*
X34010300Y-22948820D02*
X34210300Y-22948820D01*
X41230300Y-26668820D02*
X41230300Y-28158820D01*
X39920300Y-29468820D02*
X36380300Y-29468820D01*
X35940300Y-22848820D02*
X39920300Y-22848820D01*
X41230300Y-24158820D02*
X41230300Y-25648820D01*
X41230300Y-28158820D02*
G75*
G02X39920300Y-29468820I-1310000J0D01*
G01*
X39920300Y-22848820D02*
G75*
G02X41230300Y-24158820I0J-1310000D01*
G01*
X34210300Y-27948820D02*
X34010300Y-27948820D01*
X34010300Y-29368820D02*
X34210300Y-29368820D01*
X34210300Y-29368820D02*
X34210300Y-29468820D01*
X34210300Y-29468820D02*
X34460300Y-29468820D01*
X34210300Y-22948820D02*
X34210300Y-22848820D01*
X34210300Y-22848820D02*
X34900300Y-22848820D01*
X50235098Y-33284042D02*
G75*
G02X50913470Y-33086029I1048778J-2331986D01*
G01*
X48772469Y-34943099D02*
G75*
G03X49612628Y-37607744I2511407J-672929D01*
G01*
X52382684Y-37972428D02*
G75*
G02X49612628Y-37607744I-1098808J2356400D01*
G01*
X53784351Y-36249451D02*
G75*
G03X53862741Y-35560761I-2500475J633423D01*
G01*
X53862741Y-35560761D02*
X50913470Y-33086029D01*
X67042513Y-53619434D02*
X64531253Y-54062237D01*
X66747311Y-51945261D02*
X64236051Y-52388064D01*
X67042513Y-53619434D02*
X66747311Y-51945261D01*
X63422047Y-50393566D02*
X65933307Y-49950763D01*
X63717249Y-52067739D02*
X66228509Y-51624936D01*
X63422047Y-50393566D02*
X63717249Y-52067739D01*
X68104254Y-40839942D02*
X68547057Y-43351202D01*
X66430081Y-41135144D02*
X66872884Y-43646404D01*
X68104254Y-40839942D02*
X66430081Y-41135144D01*
X66298293Y-49527494D02*
X63787033Y-49970297D01*
X66003091Y-47853321D02*
X63491831Y-48296124D01*
X66298293Y-49527494D02*
X66003091Y-47853321D01*
X66122233Y-41176762D02*
X66565036Y-43688022D01*
X64448060Y-41471964D02*
X64890863Y-43983224D01*
X66122233Y-41176762D02*
X64448060Y-41471964D01*
X70983062Y-38589942D02*
X69708062Y-40798307D01*
X69510818Y-37739942D02*
X68235818Y-39948307D01*
X70983062Y-38589942D02*
X69510818Y-37739942D01*
X57527244Y-24814486D02*
X59480657Y-26453594D01*
X56434505Y-26116761D02*
X58387918Y-27755870D01*
X57527244Y-24814486D02*
X56434505Y-26116761D01*
X42032820Y-29379040D02*
X42032820Y-26829040D01*
X43732820Y-29379040D02*
X43732820Y-26829040D01*
X42032820Y-29379040D02*
X43732820Y-29379040D01*
X50976780Y-56396440D02*
X50476780Y-56396440D01*
X50726780Y-56146440D02*
X50726780Y-56646440D01*
X47971217Y-56886440D02*
X46906780Y-57950877D01*
X50362343Y-56886440D02*
X51426780Y-57950877D01*
X50362343Y-56886440D02*
X50226780Y-56886440D01*
X47971217Y-56886440D02*
X48106780Y-56886440D01*
X46906780Y-57950877D02*
X46906780Y-61406440D01*
X51426780Y-57950877D02*
X51426780Y-61406440D01*
X51426780Y-61406440D02*
X50226780Y-61406440D01*
X46906780Y-61406440D02*
X48106780Y-61406440D01*
X45868840Y-55532840D02*
X45368840Y-55532840D01*
X45618840Y-55282840D02*
X45618840Y-55782840D01*
X42863277Y-56022840D02*
X41798840Y-57087277D01*
X45254403Y-56022840D02*
X46318840Y-57087277D01*
X45254403Y-56022840D02*
X45118840Y-56022840D01*
X42863277Y-56022840D02*
X42998840Y-56022840D01*
X41798840Y-57087277D02*
X41798840Y-60542840D01*
X46318840Y-57087277D02*
X46318840Y-60542840D01*
X46318840Y-60542840D02*
X45118840Y-60542840D01*
X41798840Y-60542840D02*
X42998840Y-60542840D01*
X40661380Y-66402880D02*
X40036380Y-66402880D01*
X40348880Y-66090380D02*
X40348880Y-66715380D01*
X36968317Y-66955380D02*
X35903880Y-68019817D01*
X40359443Y-66955380D02*
X41423880Y-68019817D01*
X40359443Y-66955380D02*
X39723880Y-66955380D01*
X36968317Y-66955380D02*
X37603880Y-66955380D01*
X35903880Y-68019817D02*
X35903880Y-72475380D01*
X41423880Y-68019817D02*
X41423880Y-72475380D01*
X41423880Y-72475380D02*
X39723880Y-72475380D01*
X35903880Y-72475380D02*
X37603880Y-72475380D01*
X40661380Y-58277420D02*
X40036380Y-58277420D01*
X40348880Y-57964920D02*
X40348880Y-58589920D01*
X36968317Y-58829920D02*
X35903880Y-59894357D01*
X40359443Y-58829920D02*
X41423880Y-59894357D01*
X40359443Y-58829920D02*
X39723880Y-58829920D01*
X36968317Y-58829920D02*
X37603880Y-58829920D01*
X35903880Y-59894357D02*
X35903880Y-64349920D01*
X41423880Y-59894357D02*
X41423880Y-64349920D01*
X41423880Y-64349920D02*
X39723880Y-64349920D01*
X35903880Y-64349920D02*
X37603880Y-64349920D01*
X53278618Y-43415878D02*
G75*
G03X53278618Y-43415878I-4120000J0D01*
G01*
D13*
X42548713Y-68031083D02*
X42596332Y-67948604D01*
X42685191Y-67889935D01*
X42750239Y-67872505D01*
X42856528Y-67878885D01*
X43045294Y-67932884D01*
X43251491Y-68051931D01*
X43392639Y-68188409D01*
X43451308Y-68277267D01*
X43468737Y-68342316D01*
X43462358Y-68448604D01*
X43414739Y-68531083D01*
X43325880Y-68589752D01*
X43260831Y-68607182D01*
X43154543Y-68600802D01*
X42965777Y-68546803D01*
X42759580Y-68427755D01*
X42618432Y-68291278D01*
X42559763Y-68202420D01*
X42542333Y-68137371D01*
X42548713Y-68031083D01*
X43759122Y-68125069D02*
X44140074Y-67465241D01*
X43405856Y-66546468D02*
X43501094Y-66381511D01*
X43589953Y-66322841D01*
X43720050Y-66287982D01*
X43908817Y-66341981D01*
X44197492Y-66508647D01*
X44338640Y-66645125D01*
X44373499Y-66775222D01*
X44367120Y-66881511D01*
X44271881Y-67046468D01*
X44183023Y-67105137D01*
X44052925Y-67139996D01*
X43864159Y-67085998D01*
X43575484Y-66919331D01*
X43434336Y-66782854D01*
X43399476Y-66652756D01*
X43405856Y-66546468D01*
X44700453Y-66304160D02*
X43834427Y-65804160D01*
X44914739Y-65933007D02*
X44461106Y-65671102D01*
X44354818Y-65664722D01*
X44265960Y-65723391D01*
X44194531Y-65847109D01*
X44188151Y-65953397D01*
X44205581Y-66018446D01*
X45152834Y-65520613D02*
X44575484Y-65187280D01*
X44657962Y-65234899D02*
X44640532Y-65169850D01*
X44646912Y-65063562D01*
X44718341Y-64939844D01*
X44807199Y-64881175D01*
X44913487Y-64887555D01*
X45367120Y-65149460D01*
X44913487Y-64887555D02*
X44854818Y-64798697D01*
X44861198Y-64692408D01*
X44932626Y-64568691D01*
X45021485Y-64510021D01*
X45127773Y-64516401D01*
X45581405Y-64778306D01*
X29541501Y-38117357D02*
X29439441Y-38086999D01*
X29329112Y-38009746D01*
X29163618Y-37893866D01*
X29061558Y-37863508D01*
X28967767Y-37880046D01*
X29056007Y-38106255D02*
X28953947Y-38075898D01*
X28843618Y-37998644D01*
X28763647Y-37819331D01*
X28705764Y-37491062D01*
X28719584Y-37295210D01*
X28796837Y-37184881D01*
X28882359Y-37121448D01*
X29069942Y-37088372D01*
X29172002Y-37118729D01*
X29282331Y-37195983D01*
X29362302Y-37375296D01*
X29420185Y-37703565D01*
X29406365Y-37899417D01*
X29329112Y-38009746D01*
X29243590Y-38073179D01*
X29056007Y-38106255D01*
X30415980Y-37866455D02*
X29853233Y-37965683D01*
X30134606Y-37916069D02*
X29960958Y-36931261D01*
X29891974Y-37088486D01*
X29814721Y-37198815D01*
X29729198Y-37262249D01*
X40845999Y-42446992D02*
X40319228Y-42201266D01*
X40351127Y-42732706D02*
X39851127Y-41866681D01*
X40181041Y-41676205D01*
X40287330Y-41669825D01*
X40352378Y-41687255D01*
X40441237Y-41745924D01*
X40512665Y-41869642D01*
X40519045Y-41975930D01*
X40501615Y-42040979D01*
X40442946Y-42129837D01*
X40113032Y-42320313D01*
X40593434Y-41438109D02*
X41382110Y-42137468D01*
X41170785Y-41104776D01*
X41997280Y-41012499D02*
X42330614Y-41589849D01*
X41600608Y-40801632D02*
X41751554Y-41539269D01*
X42287665Y-41229745D01*
X60673131Y-65073578D02*
X61482655Y-65073578D01*
X61577893Y-65025959D01*
X61625512Y-64978340D01*
X61673131Y-64883102D01*
X61673131Y-64692626D01*
X61625512Y-64597388D01*
X61577893Y-64549769D01*
X61482655Y-64502150D01*
X60673131Y-64502150D01*
X60673131Y-63597388D02*
X60673131Y-63787864D01*
X60720751Y-63883102D01*
X60768370Y-63930721D01*
X60911227Y-64025959D01*
X61101703Y-64073578D01*
X61482655Y-64073578D01*
X61577893Y-64025959D01*
X61625512Y-63978340D01*
X61673131Y-63883102D01*
X61673131Y-63692626D01*
X61625512Y-63597388D01*
X61577893Y-63549769D01*
X61482655Y-63502150D01*
X61244560Y-63502150D01*
X61149322Y-63549769D01*
X61101703Y-63597388D01*
X61054084Y-63692626D01*
X61054084Y-63883102D01*
X61101703Y-63978340D01*
X61149322Y-64025959D01*
X61244560Y-64073578D01*
X45312080Y-51620324D02*
X46121604Y-51620324D01*
X46216842Y-51572705D01*
X46264461Y-51525086D01*
X46312080Y-51429848D01*
X46312080Y-51239372D01*
X46264461Y-51144134D01*
X46216842Y-51096515D01*
X46121604Y-51048896D01*
X45312080Y-51048896D01*
X45312080Y-50096515D02*
X45312080Y-50572705D01*
X45788271Y-50620324D01*
X45740652Y-50572705D01*
X45693033Y-50477467D01*
X45693033Y-50239372D01*
X45740652Y-50144134D01*
X45788271Y-50096515D01*
X45883509Y-50048896D01*
X46121604Y-50048896D01*
X46216842Y-50096515D01*
X46264461Y-50144134D01*
X46312080Y-50239372D01*
X46312080Y-50477467D01*
X46264461Y-50572705D01*
X46216842Y-50620324D01*
X53852954Y-30486949D02*
X54473085Y-31007301D01*
X54576651Y-31032040D01*
X54643738Y-31026171D01*
X54741434Y-30983823D01*
X54863870Y-30837910D01*
X54888610Y-30734344D01*
X54882740Y-30667257D01*
X54840392Y-30569561D01*
X54220261Y-30049209D01*
X54568698Y-29782122D02*
X54562829Y-29715035D01*
X54587568Y-29611469D01*
X54740613Y-29429078D01*
X54838309Y-29386730D01*
X54905397Y-29380861D01*
X55008962Y-29405600D01*
X55081919Y-29466818D01*
X55160745Y-29595123D01*
X55231177Y-30400170D01*
X55629093Y-29925952D01*
X32493880Y-28574519D02*
X32217007Y-29335223D01*
X32229180Y-29441004D01*
X32257641Y-29502038D01*
X32330849Y-29579358D01*
X32509838Y-29644505D01*
X32615619Y-29632331D01*
X32676653Y-29603871D01*
X32753974Y-29530663D01*
X33030847Y-28769959D01*
X33628520Y-30051672D02*
X33091552Y-29856232D01*
X33360036Y-29953952D02*
X33702056Y-29014259D01*
X33563702Y-29115928D01*
X33441634Y-29172849D01*
X33335853Y-29185023D01*
X86219338Y-40491034D02*
X85814576Y-41192102D01*
X85808196Y-41298390D01*
X85825626Y-41363439D01*
X85884295Y-41452298D01*
X86049253Y-41547536D01*
X86155541Y-41553915D01*
X86220590Y-41536486D01*
X86309448Y-41477817D01*
X86714210Y-40776748D01*
X87331090Y-41517804D02*
X86997757Y-42095155D01*
X87315370Y-41068842D02*
X86752030Y-41568384D01*
X87288141Y-41877908D01*
X53799162Y-43397215D02*
X54608686Y-43397215D01*
X54703924Y-43349596D01*
X54751543Y-43301977D01*
X54799162Y-43206739D01*
X54799162Y-43016263D01*
X54751543Y-42921025D01*
X54703924Y-42873406D01*
X54608686Y-42825787D01*
X53799162Y-42825787D01*
X53799162Y-42444834D02*
X53799162Y-41825787D01*
X54180115Y-42159120D01*
X54180115Y-42016263D01*
X54227734Y-41921025D01*
X54275353Y-41873406D01*
X54370591Y-41825787D01*
X54608686Y-41825787D01*
X54703924Y-41873406D01*
X54751543Y-41921025D01*
X54799162Y-42016263D01*
X54799162Y-42301977D01*
X54751543Y-42397215D01*
X54703924Y-42444834D01*
X87678434Y-34922461D02*
X87099374Y-34973041D01*
X87392720Y-35417333D02*
X86526694Y-34917333D01*
X86717170Y-34587419D01*
X86806029Y-34528749D01*
X86871078Y-34511320D01*
X86977366Y-34517699D01*
X87101084Y-34589128D01*
X87159753Y-34677986D01*
X87177182Y-34743035D01*
X87170803Y-34849323D01*
X86980327Y-35179238D01*
X86955266Y-34175025D02*
X87987958Y-34386350D01*
X87288599Y-33597675D01*
X88345101Y-33767761D02*
X88440339Y-33602804D01*
X88446718Y-33496515D01*
X88429289Y-33431467D01*
X88353190Y-33277559D01*
X88212042Y-33141082D01*
X87882128Y-32950606D01*
X87775839Y-32944226D01*
X87710791Y-32961656D01*
X87621932Y-33020325D01*
X87526694Y-33185282D01*
X87520314Y-33291570D01*
X87537744Y-33356619D01*
X87596413Y-33445477D01*
X87802610Y-33564525D01*
X87908898Y-33570905D01*
X87973947Y-33553475D01*
X88062805Y-33494806D01*
X88158043Y-33329849D01*
X88164423Y-33223561D01*
X88146993Y-33158512D01*
X88088324Y-33069653D01*
X78514114Y-34714181D02*
X77935054Y-34764761D01*
X78228400Y-35209053D02*
X77362374Y-34709053D01*
X77552850Y-34379139D01*
X77641709Y-34320469D01*
X77706758Y-34303040D01*
X77813046Y-34309419D01*
X77936764Y-34380848D01*
X77995433Y-34469706D01*
X78012862Y-34534755D01*
X78006483Y-34641043D01*
X77816007Y-34970958D01*
X77790946Y-33966745D02*
X78823638Y-34178070D01*
X78124279Y-33389395D01*
X78733528Y-33191288D02*
X78644670Y-33249957D01*
X78579621Y-33267387D01*
X78473333Y-33261007D01*
X78432093Y-33237197D01*
X78373424Y-33148339D01*
X78355994Y-33083290D01*
X78362374Y-32977002D01*
X78457612Y-32812045D01*
X78546471Y-32753376D01*
X78611519Y-32735946D01*
X78717808Y-32742326D01*
X78759047Y-32766135D01*
X78817716Y-32854994D01*
X78835146Y-32920043D01*
X78828766Y-33026331D01*
X78733528Y-33191288D01*
X78727148Y-33297576D01*
X78744578Y-33362625D01*
X78803247Y-33451483D01*
X78968204Y-33546721D01*
X79074492Y-33553101D01*
X79139541Y-33535671D01*
X79228400Y-33477002D01*
X79323638Y-33312045D01*
X79330017Y-33205757D01*
X79312588Y-33140708D01*
X79253919Y-33051850D01*
X79088961Y-32956612D01*
X78982673Y-32950232D01*
X78917624Y-32967662D01*
X78828766Y-33026331D01*
X68532000Y-29282172D02*
X68005229Y-29036446D01*
X68037128Y-29567886D02*
X67537128Y-28701861D01*
X67867042Y-28511385D01*
X67973331Y-28505005D01*
X68038379Y-28522435D01*
X68127238Y-28581104D01*
X68198666Y-28704822D01*
X68205046Y-28811110D01*
X68187616Y-28876159D01*
X68128947Y-28965017D01*
X67799033Y-29155493D01*
X68279435Y-28273289D02*
X69068111Y-28972648D01*
X68856786Y-27939956D01*
X69062982Y-27820908D02*
X69640333Y-27487575D01*
X69769179Y-28567886D01*
X74889534Y-41226741D02*
X74310474Y-41277321D01*
X74603820Y-41721613D02*
X73737794Y-41221613D01*
X73928270Y-40891699D01*
X74017129Y-40833029D01*
X74082178Y-40815600D01*
X74188466Y-40821979D01*
X74312184Y-40893408D01*
X74370853Y-40982266D01*
X74388282Y-41047315D01*
X74381903Y-41153603D01*
X74191427Y-41483518D01*
X74166366Y-40479305D02*
X75199058Y-40690630D01*
X74499699Y-39901955D01*
X74880651Y-39242126D02*
X74785413Y-39407084D01*
X74779033Y-39513372D01*
X74796463Y-39578420D01*
X74872562Y-39732328D01*
X75013710Y-39868805D01*
X75343624Y-40059281D01*
X75449912Y-40065661D01*
X75514961Y-40048231D01*
X75603820Y-39989562D01*
X75699058Y-39824605D01*
X75705437Y-39718317D01*
X75688008Y-39653268D01*
X75629339Y-39564410D01*
X75423142Y-39445362D01*
X75316854Y-39438982D01*
X75251805Y-39456412D01*
X75162947Y-39515081D01*
X75067709Y-39680038D01*
X75061329Y-39786326D01*
X75078759Y-39851375D01*
X75137428Y-39940234D01*
X52805721Y-52326800D02*
X52472388Y-51850610D01*
X52234293Y-52326800D02*
X52234293Y-51326800D01*
X52615245Y-51326800D01*
X52710483Y-51374420D01*
X52758102Y-51422039D01*
X52805721Y-51517277D01*
X52805721Y-51660134D01*
X52758102Y-51755372D01*
X52710483Y-51802991D01*
X52615245Y-51850610D01*
X52234293Y-51850610D01*
X53091436Y-51326800D02*
X53424769Y-52326800D01*
X53758102Y-51326800D01*
X54567626Y-51326800D02*
X54091436Y-51326800D01*
X54043817Y-51802991D01*
X54091436Y-51755372D01*
X54186674Y-51707753D01*
X54424769Y-51707753D01*
X54520007Y-51755372D01*
X54567626Y-51802991D01*
X54615245Y-51898229D01*
X54615245Y-52136324D01*
X54567626Y-52231562D01*
X54520007Y-52279181D01*
X54424769Y-52326800D01*
X54186674Y-52326800D01*
X54091436Y-52279181D01*
X54043817Y-52231562D01*
X37780220Y-26767398D02*
X37304030Y-27100731D01*
X37780220Y-27338826D02*
X36780220Y-27338826D01*
X36780220Y-26957874D01*
X36827840Y-26862636D01*
X36875459Y-26815017D01*
X36970697Y-26767398D01*
X37113554Y-26767398D01*
X37208792Y-26815017D01*
X37256411Y-26862636D01*
X37304030Y-26957874D01*
X37304030Y-27338826D01*
X36780220Y-26481683D02*
X37780220Y-26148350D01*
X36780220Y-25815017D01*
X36780220Y-25576921D02*
X36780220Y-24957874D01*
X37161173Y-25291207D01*
X37161173Y-25148350D01*
X37208792Y-25053112D01*
X37256411Y-25005493D01*
X37351649Y-24957874D01*
X37589744Y-24957874D01*
X37684982Y-25005493D01*
X37732601Y-25053112D01*
X37780220Y-25148350D01*
X37780220Y-25434064D01*
X37732601Y-25529302D01*
X37684982Y-25576921D01*
X47062401Y-34771579D02*
X46967163Y-34723960D01*
X46871925Y-34628721D01*
X46729068Y-34485864D01*
X46633830Y-34438245D01*
X46538592Y-34438245D01*
X46586211Y-34676340D02*
X46490973Y-34628721D01*
X46395735Y-34533483D01*
X46348116Y-34343007D01*
X46348116Y-34009674D01*
X46395735Y-33819198D01*
X46490973Y-33723960D01*
X46586211Y-33676340D01*
X46776687Y-33676340D01*
X46871925Y-33723960D01*
X46967163Y-33819198D01*
X47014782Y-34009674D01*
X47014782Y-34343007D01*
X46967163Y-34533483D01*
X46871925Y-34628721D01*
X46776687Y-34676340D01*
X46586211Y-34676340D01*
X47395735Y-33771579D02*
X47443354Y-33723960D01*
X47538592Y-33676340D01*
X47776687Y-33676340D01*
X47871925Y-33723960D01*
X47919544Y-33771579D01*
X47967163Y-33866817D01*
X47967163Y-33962055D01*
X47919544Y-34104912D01*
X47348116Y-34676340D01*
X47967163Y-34676340D01*
X48559482Y-62808122D02*
X48511863Y-62855741D01*
X48369006Y-62903360D01*
X48273768Y-62903360D01*
X48130911Y-62855741D01*
X48035673Y-62760503D01*
X47988054Y-62665265D01*
X47940435Y-62474789D01*
X47940435Y-62331932D01*
X47988054Y-62141456D01*
X48035673Y-62046218D01*
X48130911Y-61950980D01*
X48273768Y-61903360D01*
X48369006Y-61903360D01*
X48511863Y-61950980D01*
X48559482Y-61998599D01*
X49511863Y-62903360D02*
X48940435Y-62903360D01*
X49226149Y-62903360D02*
X49226149Y-61903360D01*
X49130911Y-62046218D01*
X49035673Y-62141456D01*
X48940435Y-62189075D01*
X50369006Y-62236694D02*
X50369006Y-62903360D01*
X50130911Y-61855741D02*
X49892816Y-62570027D01*
X50511863Y-62570027D01*
X43415982Y-62025802D02*
X43368363Y-62073421D01*
X43225506Y-62121040D01*
X43130268Y-62121040D01*
X42987411Y-62073421D01*
X42892173Y-61978183D01*
X42844554Y-61882945D01*
X42796935Y-61692469D01*
X42796935Y-61549612D01*
X42844554Y-61359136D01*
X42892173Y-61263898D01*
X42987411Y-61168660D01*
X43130268Y-61121040D01*
X43225506Y-61121040D01*
X43368363Y-61168660D01*
X43415982Y-61216279D01*
X44368363Y-62121040D02*
X43796935Y-62121040D01*
X44082649Y-62121040D02*
X44082649Y-61121040D01*
X43987411Y-61263898D01*
X43892173Y-61359136D01*
X43796935Y-61406755D01*
X44701697Y-61121040D02*
X45320744Y-61121040D01*
X44987411Y-61501993D01*
X45130268Y-61501993D01*
X45225506Y-61549612D01*
X45273125Y-61597231D01*
X45320744Y-61692469D01*
X45320744Y-61930564D01*
X45273125Y-62025802D01*
X45225506Y-62073421D01*
X45130268Y-62121040D01*
X44844554Y-62121040D01*
X44749316Y-62073421D01*
X44701697Y-62025802D01*
X38598813Y-73915542D02*
X38551194Y-73963161D01*
X38408337Y-74010780D01*
X38313099Y-74010780D01*
X38170241Y-73963161D01*
X38075003Y-73867923D01*
X38027384Y-73772685D01*
X37979765Y-73582209D01*
X37979765Y-73439352D01*
X38027384Y-73248876D01*
X38075003Y-73153638D01*
X38170241Y-73058400D01*
X38313099Y-73010780D01*
X38408337Y-73010780D01*
X38551194Y-73058400D01*
X38598813Y-73106019D01*
X39075003Y-74010780D02*
X39265480Y-74010780D01*
X39360718Y-73963161D01*
X39408337Y-73915542D01*
X39503575Y-73772685D01*
X39551194Y-73582209D01*
X39551194Y-73201257D01*
X39503575Y-73106019D01*
X39455956Y-73058400D01*
X39360718Y-73010780D01*
X39170241Y-73010780D01*
X39075003Y-73058400D01*
X39027384Y-73106019D01*
X38979765Y-73201257D01*
X38979765Y-73439352D01*
X39027384Y-73534590D01*
X39075003Y-73582209D01*
X39170241Y-73629828D01*
X39360718Y-73629828D01*
X39455956Y-73582209D01*
X39503575Y-73534590D01*
X39551194Y-73439352D01*
X38598813Y-57857662D02*
X38551194Y-57905281D01*
X38408337Y-57952900D01*
X38313099Y-57952900D01*
X38170241Y-57905281D01*
X38075003Y-57810043D01*
X38027384Y-57714805D01*
X37979765Y-57524329D01*
X37979765Y-57381472D01*
X38027384Y-57190996D01*
X38075003Y-57095758D01*
X38170241Y-57000520D01*
X38313099Y-56952900D01*
X38408337Y-56952900D01*
X38551194Y-57000520D01*
X38598813Y-57048139D01*
X39170241Y-57381472D02*
X39075003Y-57333853D01*
X39027384Y-57286234D01*
X38979765Y-57190996D01*
X38979765Y-57143377D01*
X39027384Y-57048139D01*
X39075003Y-57000520D01*
X39170241Y-56952900D01*
X39360718Y-56952900D01*
X39455956Y-57000520D01*
X39503575Y-57048139D01*
X39551194Y-57143377D01*
X39551194Y-57190996D01*
X39503575Y-57286234D01*
X39455956Y-57333853D01*
X39360718Y-57381472D01*
X39170241Y-57381472D01*
X39075003Y-57429091D01*
X39027384Y-57476710D01*
X38979765Y-57571948D01*
X38979765Y-57762424D01*
X39027384Y-57857662D01*
X39075003Y-57905281D01*
X39170241Y-57952900D01*
X39360718Y-57952900D01*
X39455956Y-57905281D01*
X39503575Y-57857662D01*
X39551194Y-57762424D01*
X39551194Y-57571948D01*
X39503575Y-57476710D01*
X39455956Y-57429091D01*
X39360718Y-57381472D01*
X52736453Y-40258002D02*
X52688834Y-40305621D01*
X52545977Y-40353240D01*
X52450739Y-40353240D01*
X52307881Y-40305621D01*
X52212643Y-40210383D01*
X52165024Y-40115145D01*
X52117405Y-39924669D01*
X52117405Y-39781812D01*
X52165024Y-39591336D01*
X52212643Y-39496098D01*
X52307881Y-39400860D01*
X52450739Y-39353240D01*
X52545977Y-39353240D01*
X52688834Y-39400860D01*
X52736453Y-39448479D01*
X53069786Y-39353240D02*
X53688834Y-39353240D01*
X53355500Y-39734193D01*
X53498358Y-39734193D01*
X53593596Y-39781812D01*
X53641215Y-39829431D01*
X53688834Y-39924669D01*
X53688834Y-40162764D01*
X53641215Y-40258002D01*
X53593596Y-40305621D01*
X53498358Y-40353240D01*
X53212643Y-40353240D01*
X53117405Y-40305621D01*
X53069786Y-40258002D01*
M02*
