G04 EAGLE Gerber RS-274X export*
G75*
%MOMM*%
%FSLAX34Y34*%
%LPD*%
%IN*%
%IPPOS*%
%AMOC8*
5,1,8,0,0,1.08239X$1,22.5*%
G01*
%ADD10C,0.254000*%


D10*
X0Y0D02*
X1600000Y0D01*
X1600000Y1000000D01*
X0Y1000000D01*
X0Y0D01*
X0Y120000D02*
X860000Y120000D01*
X860000Y1000000D01*
X0Y1000000D01*
X0Y120000D01*
X78000Y939411D02*
X77923Y938235D01*
X77769Y937066D01*
X77539Y935910D01*
X77234Y934772D01*
X76855Y933656D01*
X76404Y932567D01*
X75883Y931510D01*
X75294Y930490D01*
X74639Y929510D01*
X73922Y928575D01*
X73145Y927689D01*
X72311Y926855D01*
X71425Y926078D01*
X70490Y925361D01*
X69510Y924706D01*
X68490Y924117D01*
X67433Y923596D01*
X66344Y923145D01*
X65228Y922766D01*
X64090Y922461D01*
X62934Y922231D01*
X61765Y922077D01*
X60589Y922000D01*
X59411Y922000D01*
X58235Y922077D01*
X57066Y922231D01*
X55910Y922461D01*
X54772Y922766D01*
X53656Y923145D01*
X52567Y923596D01*
X51510Y924117D01*
X50490Y924706D01*
X49510Y925361D01*
X48575Y926078D01*
X47689Y926855D01*
X46855Y927689D01*
X46078Y928575D01*
X45361Y929510D01*
X44706Y930490D01*
X44117Y931510D01*
X43596Y932567D01*
X43145Y933656D01*
X42766Y934772D01*
X42461Y935910D01*
X42231Y937066D01*
X42077Y938235D01*
X42000Y939411D01*
X42000Y940589D01*
X42077Y941765D01*
X42231Y942934D01*
X42461Y944090D01*
X42766Y945228D01*
X43145Y946344D01*
X43596Y947433D01*
X44117Y948490D01*
X44706Y949510D01*
X45361Y950490D01*
X46078Y951425D01*
X46855Y952311D01*
X47689Y953145D01*
X48575Y953922D01*
X49510Y954639D01*
X50490Y955294D01*
X51510Y955883D01*
X52567Y956404D01*
X53656Y956855D01*
X54772Y957234D01*
X55910Y957539D01*
X57066Y957769D01*
X58235Y957923D01*
X59411Y958000D01*
X60589Y958000D01*
X61765Y957923D01*
X62934Y957769D01*
X64090Y957539D01*
X65228Y957234D01*
X66344Y956855D01*
X67433Y956404D01*
X68490Y955883D01*
X69510Y955294D01*
X70490Y954639D01*
X71425Y953922D01*
X72311Y953145D01*
X73145Y952311D01*
X73922Y951425D01*
X74639Y950490D01*
X75294Y949510D01*
X75883Y948490D01*
X76404Y947433D01*
X76855Y946344D01*
X77234Y945228D01*
X77539Y944090D01*
X77769Y942934D01*
X77923Y941765D01*
X78000Y940589D01*
X78000Y939411D01*
X78000Y179411D02*
X77923Y178235D01*
X77769Y177066D01*
X77539Y175910D01*
X77234Y174772D01*
X76855Y173656D01*
X76404Y172567D01*
X75883Y171510D01*
X75294Y170490D01*
X74639Y169510D01*
X73922Y168575D01*
X73145Y167689D01*
X72311Y166855D01*
X71425Y166078D01*
X70490Y165361D01*
X69510Y164706D01*
X68490Y164117D01*
X67433Y163596D01*
X66344Y163145D01*
X65228Y162766D01*
X64090Y162461D01*
X62934Y162231D01*
X61765Y162077D01*
X60589Y162000D01*
X59411Y162000D01*
X58235Y162077D01*
X57066Y162231D01*
X55910Y162461D01*
X54772Y162766D01*
X53656Y163145D01*
X52567Y163596D01*
X51510Y164117D01*
X50490Y164706D01*
X49510Y165361D01*
X48575Y166078D01*
X47689Y166855D01*
X46855Y167689D01*
X46078Y168575D01*
X45361Y169510D01*
X44706Y170490D01*
X44117Y171510D01*
X43596Y172567D01*
X43145Y173656D01*
X42766Y174772D01*
X42461Y175910D01*
X42231Y177066D01*
X42077Y178235D01*
X42000Y179411D01*
X42000Y180589D01*
X42077Y181765D01*
X42231Y182934D01*
X42461Y184090D01*
X42766Y185228D01*
X43145Y186344D01*
X43596Y187433D01*
X44117Y188490D01*
X44706Y189510D01*
X45361Y190490D01*
X46078Y191425D01*
X46855Y192311D01*
X47689Y193145D01*
X48575Y193922D01*
X49510Y194639D01*
X50490Y195294D01*
X51510Y195883D01*
X52567Y196404D01*
X53656Y196855D01*
X54772Y197234D01*
X55910Y197539D01*
X57066Y197769D01*
X58235Y197923D01*
X59411Y198000D01*
X60589Y198000D01*
X61765Y197923D01*
X62934Y197769D01*
X64090Y197539D01*
X65228Y197234D01*
X66344Y196855D01*
X67433Y196404D01*
X68490Y195883D01*
X69510Y195294D01*
X70490Y194639D01*
X71425Y193922D01*
X72311Y193145D01*
X73145Y192311D01*
X73922Y191425D01*
X74639Y190490D01*
X75294Y189510D01*
X75883Y188490D01*
X76404Y187433D01*
X76855Y186344D01*
X77234Y185228D01*
X77539Y184090D01*
X77769Y182934D01*
X77923Y181765D01*
X78000Y180589D01*
X78000Y179411D01*
X818000Y179411D02*
X817923Y178235D01*
X817769Y177066D01*
X817539Y175910D01*
X817234Y174772D01*
X816855Y173656D01*
X816404Y172567D01*
X815883Y171510D01*
X815294Y170490D01*
X814639Y169510D01*
X813922Y168575D01*
X813145Y167689D01*
X812311Y166855D01*
X811425Y166078D01*
X810490Y165361D01*
X809510Y164706D01*
X808490Y164117D01*
X807433Y163596D01*
X806344Y163145D01*
X805228Y162766D01*
X804090Y162461D01*
X802934Y162231D01*
X801765Y162077D01*
X800589Y162000D01*
X799411Y162000D01*
X798235Y162077D01*
X797066Y162231D01*
X795910Y162461D01*
X794772Y162766D01*
X793656Y163145D01*
X792567Y163596D01*
X791510Y164117D01*
X790490Y164706D01*
X789510Y165361D01*
X788575Y166078D01*
X787689Y166855D01*
X786855Y167689D01*
X786078Y168575D01*
X785361Y169510D01*
X784706Y170490D01*
X784117Y171510D01*
X783596Y172567D01*
X783145Y173656D01*
X782766Y174772D01*
X782461Y175910D01*
X782231Y177066D01*
X782077Y178235D01*
X782000Y179411D01*
X782000Y180589D01*
X782077Y181765D01*
X782231Y182934D01*
X782461Y184090D01*
X782766Y185228D01*
X783145Y186344D01*
X783596Y187433D01*
X784117Y188490D01*
X784706Y189510D01*
X785361Y190490D01*
X786078Y191425D01*
X786855Y192311D01*
X787689Y193145D01*
X788575Y193922D01*
X789510Y194639D01*
X790490Y195294D01*
X791510Y195883D01*
X792567Y196404D01*
X793656Y196855D01*
X794772Y197234D01*
X795910Y197539D01*
X797066Y197769D01*
X798235Y197923D01*
X799411Y198000D01*
X800589Y198000D01*
X801765Y197923D01*
X802934Y197769D01*
X804090Y197539D01*
X805228Y197234D01*
X806344Y196855D01*
X807433Y196404D01*
X808490Y195883D01*
X809510Y195294D01*
X810490Y194639D01*
X811425Y193922D01*
X812311Y193145D01*
X813145Y192311D01*
X813922Y191425D01*
X814639Y190490D01*
X815294Y189510D01*
X815883Y188490D01*
X816404Y187433D01*
X816855Y186344D01*
X817234Y185228D01*
X817539Y184090D01*
X817769Y182934D01*
X817923Y181765D01*
X818000Y180589D01*
X818000Y179411D01*
X818000Y939411D02*
X817923Y938235D01*
X817769Y937066D01*
X817539Y935910D01*
X817234Y934772D01*
X816855Y933656D01*
X816404Y932567D01*
X815883Y931510D01*
X815294Y930490D01*
X814639Y929510D01*
X813922Y928575D01*
X813145Y927689D01*
X812311Y926855D01*
X811425Y926078D01*
X810490Y925361D01*
X809510Y924706D01*
X808490Y924117D01*
X807433Y923596D01*
X806344Y923145D01*
X805228Y922766D01*
X804090Y922461D01*
X802934Y922231D01*
X801765Y922077D01*
X800589Y922000D01*
X799411Y922000D01*
X798235Y922077D01*
X797066Y922231D01*
X795910Y922461D01*
X794772Y922766D01*
X793656Y923145D01*
X792567Y923596D01*
X791510Y924117D01*
X790490Y924706D01*
X789510Y925361D01*
X788575Y926078D01*
X787689Y926855D01*
X786855Y927689D01*
X786078Y928575D01*
X785361Y929510D01*
X784706Y930490D01*
X784117Y931510D01*
X783596Y932567D01*
X783145Y933656D01*
X782766Y934772D01*
X782461Y935910D01*
X782231Y937066D01*
X782077Y938235D01*
X782000Y939411D01*
X782000Y940589D01*
X782077Y941765D01*
X782231Y942934D01*
X782461Y944090D01*
X782766Y945228D01*
X783145Y946344D01*
X783596Y947433D01*
X784117Y948490D01*
X784706Y949510D01*
X785361Y950490D01*
X786078Y951425D01*
X786855Y952311D01*
X787689Y953145D01*
X788575Y953922D01*
X789510Y954639D01*
X790490Y955294D01*
X791510Y955883D01*
X792567Y956404D01*
X793656Y956855D01*
X794772Y957234D01*
X795910Y957539D01*
X797066Y957769D01*
X798235Y957923D01*
X799411Y958000D01*
X800589Y958000D01*
X801765Y957923D01*
X802934Y957769D01*
X804090Y957539D01*
X805228Y957234D01*
X806344Y956855D01*
X807433Y956404D01*
X808490Y955883D01*
X809510Y955294D01*
X810490Y954639D01*
X811425Y953922D01*
X812311Y953145D01*
X813145Y952311D01*
X813922Y951425D01*
X814639Y950490D01*
X815294Y949510D01*
X815883Y948490D01*
X816404Y947433D01*
X816855Y946344D01*
X817234Y945228D01*
X817539Y944090D01*
X817769Y942934D01*
X817923Y941765D01*
X818000Y940589D01*
X818000Y939411D01*
M02*
