M48
; DRILL file {KiCad (5.1.2-1)-1} date Wednesday, July 21, 2021 at 04:43:48 PM
; FORMAT={-:-/ absolute / inch / decimal}
; #@! TF.CreationDate,2021-07-21T16:43:48-04:00
; #@! TF.GenerationSoftware,Kicad,Pcbnew,(5.1.2-1)-1
FMAT,2
INCH
T1C0.0315
T2C0.0394
T3C0.0394
T4C0.1378
%
G90
G05
T1
X0.91Y-0.71
X1.1698Y-0.56
X1.522Y-1.519
X1.6925Y-1.4206
X2.5Y-0.76
X2.7819Y-0.8626
X3.032Y-1.3486
X3.032Y-1.447
X0.58Y-1.13
X0.58Y-1.43
X1.7082Y-0.8975
X1.8582Y-1.1573
X1.577Y-1.7
X1.877Y-1.7
X1.76Y-1.578
X2.06Y-1.578
X0.99Y-1.0602
X1.14Y-1.32
X2.48Y-1.1
X2.78Y-1.1
X1.941Y-1.2451
X1.941Y-1.442
X1.54Y-0.86
X1.6908Y-0.7335
X1.0Y-0.8
X1.05Y-0.8866
X1.1Y-0.9732
X1.15Y-1.0598
X1.2Y-1.1464
X1.25Y-1.233
X1.2598Y-0.65
X1.3Y-1.3196
X1.3098Y-0.7366
X1.3598Y-0.8232
X1.4098Y-0.9098
X1.4598Y-0.9964
X1.5098Y-1.083
X1.5598Y-1.1696
X2.07Y-0.73
X2.07Y-0.83
X2.07Y-0.93
X2.07Y-1.03
X2.07Y-1.13
X2.07Y-1.23
X2.07Y-1.33
X2.07Y-1.43
X2.37Y-0.73
X2.37Y-0.83
X2.37Y-0.93
X2.37Y-1.03
X2.37Y-1.13
X2.37Y-1.23
X2.37Y-1.33
X2.37Y-1.43
X1.606Y-0.579
X1.9014Y-0.6311
X1.3659Y-1.4646
X1.6257Y-1.3146
X2.5Y-1.55
X2.7819Y-1.4474
X1.5956Y-0.9625
X1.7456Y-1.2223
X0.855Y-0.893
X0.855Y-1.193
X0.9502Y-1.55
X1.21Y-1.4
X0.712Y-0.99
X0.712Y-1.1869
X3.054Y-0.8526
X3.054Y-0.951
X2.48Y-1.23
X2.78Y-1.23
T2
X0.7738Y-1.608
X0.947Y-1.708
X0.72Y-1.31
X0.92Y-1.31
X1.094Y-1.776
X1.291Y-1.8107
X1.096Y-1.614
X1.2692Y-1.514
X0.536Y-0.866
X0.736Y-0.866
X1.933Y-0.789
X1.933Y-0.989
T3
X2.927Y-1.132
X3.077Y-1.132
X2.36Y-1.57
X2.949Y-0.653
X3.099Y-0.653
X2.934Y-1.652
X3.084Y-1.652
X2.51Y-1.38
X2.51Y-0.96
X0.592Y-1.556
X1.418Y-1.59
X2.145Y-1.714
X2.58Y-0.64
X0.74Y-1.45
X1.417Y-1.809
X0.58Y-1.01
T4
X0.63Y-0.63
X0.64Y-1.8
T0
M30
