G04 #@! TF.GenerationSoftware,KiCad,Pcbnew,(5.1.2-1)-1*
G04 #@! TF.CreationDate,2021-07-21T16:43:49-04:00*
G04 #@! TF.ProjectId,Four_Step_Sequencer,466f7572-5f53-4746-9570-5f5365717565,rev?*
G04 #@! TF.SameCoordinates,Original*
G04 #@! TF.FileFunction,Copper,L2,Bot*
G04 #@! TF.FilePolarity,Positive*
%FSLAX46Y46*%
G04 Gerber Fmt 4.6, Leading zero omitted, Abs format (unit mm)*
G04 Created by KiCad (PCBNEW (5.1.2-1)-1) date 2021-07-21 16:43:49*
%MOMM*%
%LPD*%
G04 APERTURE LIST*
%ADD10C,1.600000*%
%ADD11C,1.600000*%
%ADD12C,0.100000*%
%ADD13R,1.600000X1.600000*%
%ADD14O,1.600000X1.600000*%
%ADD15C,2.499360*%
%ADD16R,2.000000X2.000000*%
%ADD17O,2.000000X2.000000*%
%ADD18C,2.000000*%
%ADD19C,2.000000*%
%ADD20R,2.499360X2.499360*%
%ADD21C,0.406400*%
%ADD22C,0.812800*%
G04 APERTURE END LIST*
D10*
X31999114Y-16510000D03*
D11*
X31999114Y-16510000D02*
X31999114Y-16510000D01*
D10*
X33020000Y-33518227D03*
D11*
X33020000Y-33518227D02*
X33020000Y-33518227D01*
D10*
X33269114Y-18709705D03*
D11*
X33269114Y-18709705D02*
X33269114Y-18709705D01*
D10*
X31750000Y-31318523D03*
D11*
X31750000Y-31318523D02*
X31750000Y-31318523D01*
D10*
X34539114Y-20909409D03*
D11*
X34539114Y-20909409D02*
X34539114Y-20909409D01*
D10*
X30480000Y-29118818D03*
D11*
X30480000Y-29118818D02*
X30480000Y-29118818D01*
D10*
X35809114Y-23109114D03*
D11*
X35809114Y-23109114D02*
X35809114Y-23109114D01*
D10*
X29210000Y-26919114D03*
D11*
X29210000Y-26919114D02*
X29210000Y-26919114D01*
D10*
X37079114Y-25308818D03*
D11*
X37079114Y-25308818D02*
X37079114Y-25308818D01*
D10*
X27940000Y-24719409D03*
D11*
X27940000Y-24719409D02*
X27940000Y-24719409D01*
D10*
X38349114Y-27508523D03*
D11*
X38349114Y-27508523D02*
X38349114Y-27508523D01*
D10*
X26670000Y-22519705D03*
D11*
X26670000Y-22519705D02*
X26670000Y-22519705D01*
D10*
X39619114Y-29708227D03*
D11*
X39619114Y-29708227D02*
X39619114Y-29708227D01*
D10*
X25400000Y-20320000D03*
D12*
G36*
X25107180Y-21412820D02*
G01*
X24307180Y-20027180D01*
X25692820Y-19227180D01*
X26492820Y-20612820D01*
X25107180Y-21412820D01*
X25107180Y-21412820D01*
G37*
D10*
X30734000Y-35560000D03*
X24134886Y-39370000D03*
D11*
X24134886Y-39370000D02*
X24134886Y-39370000D01*
D13*
X60198000Y-36322000D03*
D14*
X52578000Y-18542000D03*
X60198000Y-33782000D03*
X52578000Y-21082000D03*
X60198000Y-31242000D03*
X52578000Y-23622000D03*
X60198000Y-28702000D03*
X52578000Y-26162000D03*
X60198000Y-26162000D03*
X52578000Y-28702000D03*
X60198000Y-23622000D03*
X52578000Y-31242000D03*
X60198000Y-21082000D03*
X52578000Y-33782000D03*
X60198000Y-18542000D03*
X52578000Y-36322000D03*
D15*
X35991800Y-45948600D03*
X36017200Y-40386000D03*
X18796000Y-36830000D03*
X15036800Y-39522400D03*
X65532000Y-16256000D03*
X63754000Y-24384000D03*
X59944000Y-39878000D03*
X63754000Y-35052000D03*
D10*
X18084800Y-25146000D03*
X18084800Y-30146000D03*
D13*
X77012800Y-36753800D03*
D10*
X77012800Y-34253800D03*
X77571600Y-21655400D03*
D13*
X77571600Y-24155400D03*
D10*
X49301400Y-31626800D03*
X49301400Y-36626800D03*
X39116000Y-21844000D03*
X42946222Y-18630062D03*
X38658800Y-38582600D03*
X42988927Y-36082600D03*
D16*
X13614400Y-21996400D03*
D17*
X18694400Y-21996400D03*
X49098200Y-20040600D03*
D16*
X49098200Y-25120600D03*
D18*
X24053800Y-43383200D03*
D12*
G36*
X25419825Y-43017175D02*
G01*
X24419825Y-44749225D01*
X22687775Y-43749225D01*
X23687775Y-42017175D01*
X25419825Y-43017175D01*
X25419825Y-43017175D01*
G37*
D18*
X19654391Y-40843200D03*
D19*
X19654391Y-40843200D02*
X19654391Y-40843200D01*
D17*
X18288000Y-33274000D03*
D16*
X23368000Y-33274000D03*
D18*
X27838400Y-40995600D03*
D12*
G36*
X27472375Y-42361625D02*
G01*
X26472375Y-40629575D01*
X28204425Y-39629575D01*
X29204425Y-41361625D01*
X27472375Y-42361625D01*
X27472375Y-42361625D01*
G37*
D18*
X32237809Y-38455600D03*
D19*
X32237809Y-38455600D02*
X32237809Y-38455600D01*
D18*
X32790423Y-45992533D03*
D19*
X32790423Y-45992533D02*
X32790423Y-45992533D01*
D18*
X27787600Y-45110400D03*
D12*
G36*
X26629144Y-45921560D02*
G01*
X26976440Y-43951944D01*
X28946056Y-44299240D01*
X28598760Y-46268856D01*
X26629144Y-45921560D01*
X26629144Y-45921560D01*
G37*
D15*
X14732000Y-25654000D03*
X54483000Y-43535600D03*
D20*
X74523600Y-41960800D03*
D15*
X78333600Y-41960800D03*
X78155800Y-28752800D03*
D20*
X74345800Y-28752800D03*
X74904600Y-16586200D03*
D15*
X78714600Y-16586200D03*
D10*
X14732000Y-36322000D03*
D14*
X14732000Y-28702000D03*
X21717000Y-30302200D03*
D10*
X21717000Y-22682200D03*
X28956000Y-33528000D03*
X25146000Y-26928886D03*
D11*
X25146000Y-26928886D02*
X25146000Y-26928886D01*
D10*
X29713114Y-14224000D03*
D11*
X29713114Y-14224000D02*
X29713114Y-14224000D01*
D10*
X23114000Y-18034000D03*
X40792400Y-14706600D03*
X48296635Y-16029799D03*
D11*
X48296635Y-16029799D02*
X48296635Y-16029799D01*
D10*
X40055800Y-43180000D03*
D14*
X47675800Y-43180000D03*
X70612000Y-31242000D03*
D10*
X62992000Y-31242000D03*
X63500000Y-39370000D03*
X70660458Y-36763807D03*
D11*
X70660458Y-36763807D02*
X70660458Y-36763807D01*
D10*
X62992000Y-27940000D03*
D14*
X70612000Y-27940000D03*
D10*
X70660458Y-21910193D03*
D11*
X70660458Y-21910193D02*
X70660458Y-21910193D01*
D10*
X63500000Y-19304000D03*
X34693468Y-37201882D03*
D11*
X34693468Y-37201882D02*
X34693468Y-37201882D01*
D10*
X41292582Y-33391882D03*
X47197754Y-29395941D03*
D11*
X47197754Y-29395941D02*
X47197754Y-29395941D01*
D10*
X43387754Y-22796827D03*
X44338139Y-31046940D03*
X40528139Y-24447826D03*
D11*
X40528139Y-24447826D02*
X40528139Y-24447826D01*
D14*
X44704000Y-40081200D03*
D10*
X52324000Y-40081200D03*
D21*
X18288000Y-25146000D02*
X20675600Y-24028400D01*
X20675600Y-24028400D02*
X21590000Y-22352000D01*
X13614400Y-21996400D02*
X15875000Y-22225000D01*
X15875000Y-22225000D02*
X18288000Y-25146000D01*
X14732000Y-25654000D02*
X14732000Y-28702000D01*
X18288000Y-30146000D02*
X14732000Y-28702000D01*
D22*
X28956000Y-33528000D02*
X28473400Y-35356800D01*
X28473400Y-35356800D02*
X28956000Y-37871400D01*
X28956000Y-37871400D02*
X30022800Y-39674800D01*
X30022800Y-39674800D02*
X31343600Y-41783000D01*
X52578000Y-36322000D02*
X49301400Y-36626800D01*
X77012800Y-36753800D02*
X78333600Y-41960800D01*
X78333600Y-41960800D02*
X74523600Y-41960800D01*
X74523600Y-41960800D02*
X69189600Y-44246800D01*
X69189600Y-44246800D02*
X58750200Y-46024800D01*
X58750200Y-46024800D02*
X50495200Y-46405800D01*
X50495200Y-46405800D02*
X44119800Y-46278800D01*
X44119800Y-46278800D02*
X43408600Y-43713400D01*
X49301400Y-36626800D02*
X47701200Y-38328600D01*
X47701200Y-38328600D02*
X47294800Y-39700200D01*
X47294800Y-39700200D02*
X46837600Y-40767000D01*
X46837600Y-40767000D02*
X45948600Y-41605200D01*
X45948600Y-41605200D02*
X44754800Y-42595800D01*
X44754800Y-42595800D02*
X43408600Y-43713400D01*
X37261800Y-43180000D02*
X35763200Y-43154600D01*
X35763200Y-43154600D02*
X33858200Y-42799000D01*
X33858200Y-42799000D02*
X32181800Y-42291000D01*
X32181800Y-42291000D02*
X31343600Y-41783000D01*
X29210000Y-26919114D02*
X28194000Y-28702000D01*
X28194000Y-28702000D02*
X28194000Y-30480000D01*
X28194000Y-30480000D02*
X28956000Y-33528000D01*
X37261800Y-43180000D02*
X38430200Y-41605200D01*
X38430200Y-41605200D02*
X39293800Y-40386000D01*
X39293800Y-40386000D02*
X38658800Y-38582600D01*
X44754800Y-42595800D02*
X41630600Y-41122600D01*
X41630600Y-41122600D02*
X39293800Y-40386000D01*
X70612000Y-27940000D02*
X70660458Y-21910193D01*
X78155800Y-28752800D02*
X74345800Y-28752800D01*
X70612000Y-31242000D02*
X70612000Y-27940000D01*
X70612000Y-27940000D02*
X74345800Y-28752800D01*
X70660458Y-36763807D02*
X70612000Y-31242000D01*
X60198000Y-18542000D02*
X58445400Y-19253200D01*
X58445400Y-19253200D02*
X56692800Y-20878800D01*
X56692800Y-20878800D02*
X56184800Y-25095200D01*
X56184800Y-25095200D02*
X55676800Y-27787600D01*
X55676800Y-27787600D02*
X52578000Y-28702000D01*
X42988927Y-36082600D02*
X46024800Y-34391600D01*
X46024800Y-34391600D02*
X49301400Y-31626800D01*
X78155800Y-28752800D02*
X77571600Y-24155400D01*
X77012800Y-34253800D02*
X78155800Y-28752800D01*
X49301400Y-31626800D02*
X50749200Y-29565600D01*
X50749200Y-29565600D02*
X52578000Y-28702000D01*
X50749200Y-29565600D02*
X48742600Y-27660600D01*
X48742600Y-27660600D02*
X46583600Y-26746200D01*
X46583600Y-26746200D02*
X46126400Y-24231600D01*
X46126400Y-24231600D02*
X46126400Y-22606000D01*
X70660458Y-36763807D02*
X69011800Y-39166800D01*
X69011800Y-39166800D02*
X65303400Y-41884600D01*
X65303400Y-41884600D02*
X59334400Y-42926000D01*
X59334400Y-42926000D02*
X58369200Y-42214800D01*
X58369200Y-42214800D02*
X57023000Y-39776400D01*
X57023000Y-39776400D02*
X56388000Y-37719000D01*
X56388000Y-37719000D02*
X56413400Y-33629600D01*
X56413400Y-33629600D02*
X56311800Y-29946600D01*
X56311800Y-29946600D02*
X55676800Y-27787600D01*
X18694400Y-21996400D02*
X19761200Y-20015200D01*
X19761200Y-20015200D02*
X20574000Y-17780000D01*
X30480000Y-29118818D02*
X37079114Y-25308818D01*
X39116000Y-21844000D02*
X38354000Y-23622000D01*
X38354000Y-23622000D02*
X37079114Y-25308818D01*
X39116000Y-21844000D02*
X36830000Y-21082000D01*
X36830000Y-21082000D02*
X34539114Y-20909409D01*
X20574000Y-17780000D02*
X21666200Y-15671800D01*
X21666200Y-15671800D02*
X24765000Y-14605000D01*
X24765000Y-14605000D02*
X27508200Y-14478000D01*
X27508200Y-14478000D02*
X29713114Y-14224000D01*
X29713114Y-14224000D02*
X29692600Y-17322800D01*
X29692600Y-17322800D02*
X31064200Y-19888200D01*
X31064200Y-19888200D02*
X32181800Y-21412200D01*
X32181800Y-21412200D02*
X34539114Y-20909409D01*
X46126400Y-22606000D02*
X46172657Y-21229857D01*
X40894000Y-21107400D02*
X39116000Y-21844000D01*
X48296635Y-16029799D02*
X46812200Y-18059400D01*
X46373048Y-20236448D02*
X44653200Y-20243800D01*
X46812200Y-18059400D02*
X46373048Y-20236448D01*
X46373048Y-20236448D02*
X46172657Y-21229857D01*
X44653200Y-20243800D02*
X43535600Y-20523200D01*
X43535600Y-20523200D02*
X42291000Y-20726400D01*
X42291000Y-20726400D02*
X40894000Y-21107400D01*
X74904600Y-16586200D02*
X78714600Y-16586200D01*
X78714600Y-16586200D02*
X77571600Y-21655400D01*
X74904600Y-16586200D02*
X70637400Y-14681200D01*
X70637400Y-14681200D02*
X67716400Y-13843000D01*
X67716400Y-13843000D02*
X65557400Y-13512800D01*
X65557400Y-13512800D02*
X63017400Y-13563600D01*
X56239818Y-13610182D02*
X49784000Y-13157200D01*
X63017400Y-13563600D02*
X56239818Y-13610182D01*
X56239818Y-13610182D02*
X55626000Y-13614400D01*
X49784000Y-13157200D02*
X45262800Y-13030200D01*
X45262800Y-13030200D02*
X44221400Y-15621000D01*
X44221400Y-15621000D02*
X42946222Y-18630062D01*
D21*
X52578000Y-21082000D02*
X49098200Y-20040600D01*
X24053800Y-43383200D02*
X27787600Y-45110400D01*
X27838400Y-40995600D02*
X27787600Y-45110400D01*
X27838400Y-40995600D02*
X24134886Y-39370000D01*
X24134886Y-39370000D02*
X23368000Y-33274000D01*
X19654391Y-40843200D02*
X15036800Y-39522400D01*
X18796000Y-36830000D02*
X18288000Y-33274000D01*
X36017200Y-40386000D02*
X33756600Y-40030400D01*
X33756600Y-40030400D02*
X32237809Y-38455600D01*
X35991800Y-45948600D02*
X32790423Y-45992533D01*
X54483000Y-43535600D02*
X52324000Y-40081200D01*
X21590000Y-29972000D02*
X25628600Y-29260800D01*
X25628600Y-29260800D02*
X26924000Y-27940000D01*
X26924000Y-27940000D02*
X27178000Y-26670000D01*
X27178000Y-26670000D02*
X27940000Y-24719409D01*
X26924000Y-18034000D02*
X28448000Y-21082000D01*
X25400000Y-17526000D02*
X26924000Y-18034000D01*
X28448000Y-21082000D02*
X26670000Y-22519705D01*
X23114000Y-18034000D02*
X25400000Y-17526000D01*
X26670000Y-22519705D02*
X25654000Y-24638000D01*
X25654000Y-24638000D02*
X25146000Y-26928886D01*
X23926800Y-47726600D02*
X21640800Y-45237400D01*
X21640800Y-45237400D02*
X21132800Y-44094400D01*
X21132800Y-44094400D02*
X21640800Y-42265600D01*
X21640800Y-42265600D02*
X22021800Y-41097200D01*
X22021800Y-41097200D02*
X21844000Y-39395400D01*
X21844000Y-39395400D02*
X21818600Y-37896800D01*
X21818600Y-37896800D02*
X21488400Y-35509200D01*
X21488400Y-35509200D02*
X20269200Y-32943800D01*
X20269200Y-32943800D02*
X19989800Y-30556200D01*
X19989800Y-30556200D02*
X19837400Y-28930600D01*
X19837400Y-28930600D02*
X20320000Y-27432000D01*
X20320000Y-27432000D02*
X22936200Y-25730200D01*
X22936200Y-25730200D02*
X24434800Y-24333200D01*
X23926800Y-47726600D02*
X27940000Y-48310800D01*
X27940000Y-48310800D02*
X35585400Y-48590200D01*
X35585400Y-48590200D02*
X41122600Y-48539400D01*
X41122600Y-48539400D02*
X41605200Y-46583600D01*
X41605200Y-46583600D02*
X40767000Y-44297600D01*
X40767000Y-44297600D02*
X40055800Y-43180000D01*
X25400000Y-20320000D02*
X24384000Y-21844000D01*
X24384000Y-21844000D02*
X24434800Y-24333200D01*
X48996600Y-41148000D02*
X47675800Y-43180000D01*
X48996600Y-41148000D02*
X49733200Y-39878000D01*
X49733200Y-39878000D02*
X50368200Y-38709600D01*
X50368200Y-38709600D02*
X51384200Y-38176200D01*
X51384200Y-38176200D02*
X52324000Y-38176200D01*
X52324000Y-38176200D02*
X52959000Y-38227000D01*
X52959000Y-38227000D02*
X53441600Y-38354000D01*
X53441600Y-38354000D02*
X54076600Y-38430200D01*
X54076600Y-38430200D02*
X54559200Y-37744400D01*
X54559200Y-37744400D02*
X54584600Y-36042600D01*
X54584600Y-36042600D02*
X54660800Y-34925000D01*
X54660800Y-34925000D02*
X54660800Y-33274000D01*
X54660800Y-33274000D02*
X54457600Y-32181800D01*
X54457600Y-32181800D02*
X54229000Y-31546800D01*
X54229000Y-31546800D02*
X52578000Y-31242000D01*
X30734000Y-35560000D02*
X30911800Y-33528000D01*
X30911800Y-33528000D02*
X31750000Y-31318523D01*
X34693468Y-37201882D02*
X33070800Y-35941000D01*
X33070800Y-35941000D02*
X30734000Y-35560000D01*
X46583600Y-31673800D02*
X47040800Y-31064200D01*
X47040800Y-31064200D02*
X47197754Y-29395941D01*
X46583600Y-31673800D02*
X45415200Y-32613600D01*
X45415200Y-32613600D02*
X43916600Y-33401000D01*
X43916600Y-33401000D02*
X41292582Y-33391882D01*
X33020000Y-33518227D02*
X41292582Y-33391882D01*
X38349114Y-27508523D02*
X40055800Y-26263600D01*
X40055800Y-26263600D02*
X40528139Y-24447826D01*
X40528139Y-24447826D02*
X43387754Y-22796827D01*
X44338139Y-31046940D02*
X43459400Y-29489400D01*
X43459400Y-29489400D02*
X39619114Y-29708227D01*
X63754000Y-35052000D02*
X62992000Y-31242000D01*
X62992000Y-31242000D02*
X60198000Y-31242000D01*
X63500000Y-39370000D02*
X59944000Y-39878000D01*
X59944000Y-39878000D02*
X58242200Y-38023800D01*
X58242200Y-38023800D02*
X58293000Y-35788600D01*
X58293000Y-35788600D02*
X58420000Y-34696400D01*
X58420000Y-34696400D02*
X60198000Y-33782000D01*
X60198000Y-28702000D02*
X62992000Y-27940000D01*
X62992000Y-27940000D02*
X63754000Y-24384000D01*
X60198000Y-21082000D02*
X63500000Y-19304000D01*
X63500000Y-19304000D02*
X65532000Y-16256000D01*
X33269114Y-18709705D02*
X31999114Y-16510000D01*
M02*
