G04 #@! TF.GenerationSoftware,KiCad,Pcbnew,(5.1.2-1)-1*
G04 #@! TF.CreationDate,2021-07-21T16:43:49-04:00*
G04 #@! TF.ProjectId,Four_Step_Sequencer,466f7572-5f53-4746-9570-5f5365717565,rev?*
G04 #@! TF.SameCoordinates,Original*
G04 #@! TF.FileFunction,Soldermask,Top*
G04 #@! TF.FilePolarity,Negative*
%FSLAX46Y46*%
G04 Gerber Fmt 4.6, Leading zero omitted, Abs format (unit mm)*
G04 Created by KiCad (PCBNEW (5.1.2-1)-1) date 2021-07-21 16:43:49*
%MOMM*%
%LPD*%
G04 APERTURE LIST*
%ADD10C,0.100000*%
G04 APERTURE END LIST*
D10*
G36*
X16781331Y-43988211D02*
G01*
X17109092Y-44123974D01*
X17404070Y-44321072D01*
X17654928Y-44571930D01*
X17852026Y-44866908D01*
X17987789Y-45194669D01*
X18057000Y-45542616D01*
X18057000Y-45897384D01*
X17987789Y-46245331D01*
X17852026Y-46573092D01*
X17654928Y-46868070D01*
X17404070Y-47118928D01*
X17109092Y-47316026D01*
X16781331Y-47451789D01*
X16433384Y-47521000D01*
X16078616Y-47521000D01*
X15730669Y-47451789D01*
X15402908Y-47316026D01*
X15107930Y-47118928D01*
X14857072Y-46868070D01*
X14659974Y-46573092D01*
X14524211Y-46245331D01*
X14455000Y-45897384D01*
X14455000Y-45542616D01*
X14524211Y-45194669D01*
X14659974Y-44866908D01*
X14857072Y-44571930D01*
X15107930Y-44321072D01*
X15402908Y-44123974D01*
X15730669Y-43988211D01*
X16078616Y-43919000D01*
X16433384Y-43919000D01*
X16781331Y-43988211D01*
X16781331Y-43988211D01*
G37*
G36*
X36371193Y-44697904D02*
G01*
X36584587Y-44786295D01*
X36607903Y-44795953D01*
X36820935Y-44938296D01*
X37002104Y-45119465D01*
X37144447Y-45332497D01*
X37144448Y-45332499D01*
X37242496Y-45569207D01*
X37292480Y-45820493D01*
X37292480Y-46076707D01*
X37242496Y-46327993D01*
X37214045Y-46396679D01*
X37144447Y-46564703D01*
X37002104Y-46777735D01*
X36820935Y-46958904D01*
X36607903Y-47101247D01*
X36607902Y-47101248D01*
X36607901Y-47101248D01*
X36371193Y-47199296D01*
X36119907Y-47249280D01*
X35863693Y-47249280D01*
X35612407Y-47199296D01*
X35375699Y-47101248D01*
X35375698Y-47101248D01*
X35375697Y-47101247D01*
X35162665Y-46958904D01*
X34981496Y-46777735D01*
X34839153Y-46564703D01*
X34769555Y-46396679D01*
X34741104Y-46327993D01*
X34691120Y-46076707D01*
X34691120Y-45820493D01*
X34741104Y-45569207D01*
X34839152Y-45332499D01*
X34839153Y-45332497D01*
X34981496Y-45119465D01*
X35162665Y-44938296D01*
X35375697Y-44795953D01*
X35399013Y-44786295D01*
X35612407Y-44697904D01*
X35863693Y-44647920D01*
X36119907Y-44647920D01*
X36371193Y-44697904D01*
X36371193Y-44697904D01*
G37*
G36*
X32893520Y-44946602D02*
G01*
X32996455Y-44956740D01*
X33194569Y-45016838D01*
X33194572Y-45016839D01*
X33291398Y-45068594D01*
X33377152Y-45114430D01*
X33537188Y-45245768D01*
X33668526Y-45405804D01*
X33714362Y-45491558D01*
X33766117Y-45588384D01*
X33766118Y-45588387D01*
X33826216Y-45786501D01*
X33846508Y-45992533D01*
X33826216Y-46198565D01*
X33766118Y-46396679D01*
X33766117Y-46396682D01*
X33714362Y-46493508D01*
X33668526Y-46579262D01*
X33537188Y-46739298D01*
X33377152Y-46870636D01*
X33291398Y-46916472D01*
X33194572Y-46968227D01*
X33194569Y-46968228D01*
X32996455Y-47028326D01*
X32893520Y-47038464D01*
X32842054Y-47043533D01*
X32738792Y-47043533D01*
X32687326Y-47038464D01*
X32584391Y-47028326D01*
X32386277Y-46968228D01*
X32386274Y-46968227D01*
X32289448Y-46916472D01*
X32203694Y-46870636D01*
X32043658Y-46739298D01*
X31912320Y-46579262D01*
X31866484Y-46493508D01*
X31814729Y-46396682D01*
X31814728Y-46396679D01*
X31754630Y-46198565D01*
X31734338Y-45992533D01*
X31754630Y-45786501D01*
X31814728Y-45588387D01*
X31814729Y-45588384D01*
X31866484Y-45491558D01*
X31912320Y-45405804D01*
X32043658Y-45245768D01*
X32203694Y-45114430D01*
X32289448Y-45068594D01*
X32386274Y-45016839D01*
X32386277Y-45016838D01*
X32584391Y-44956740D01*
X32687326Y-44946602D01*
X32738792Y-44941533D01*
X32842054Y-44941533D01*
X32893520Y-44946602D01*
X32893520Y-44946602D01*
G37*
G36*
X29005137Y-44257871D02*
G01*
X28640129Y-46327937D01*
X26570063Y-45962929D01*
X26935071Y-43892863D01*
X29005137Y-44257871D01*
X29005137Y-44257871D01*
G37*
G36*
X54862393Y-42284904D02*
G01*
X55047806Y-42361705D01*
X55099103Y-42382953D01*
X55312135Y-42525296D01*
X55493304Y-42706465D01*
X55635647Y-42919497D01*
X55635648Y-42919499D01*
X55733696Y-43156207D01*
X55783680Y-43407493D01*
X55783680Y-43663707D01*
X55733696Y-43914993D01*
X55635648Y-44151701D01*
X55635647Y-44151703D01*
X55493304Y-44364735D01*
X55312135Y-44545904D01*
X55099103Y-44688247D01*
X55099102Y-44688248D01*
X55099101Y-44688248D01*
X54862393Y-44786296D01*
X54611107Y-44836280D01*
X54354893Y-44836280D01*
X54103607Y-44786296D01*
X53866899Y-44688248D01*
X53866898Y-44688248D01*
X53866897Y-44688247D01*
X53653865Y-44545904D01*
X53472696Y-44364735D01*
X53330353Y-44151703D01*
X53330352Y-44151701D01*
X53232304Y-43914993D01*
X53182320Y-43663707D01*
X53182320Y-43407493D01*
X53232304Y-43156207D01*
X53330352Y-42919499D01*
X53330353Y-42919497D01*
X53472696Y-42706465D01*
X53653865Y-42525296D01*
X53866897Y-42382953D01*
X53918194Y-42361705D01*
X54103607Y-42284904D01*
X54354893Y-42234920D01*
X54611107Y-42234920D01*
X54862393Y-42284904D01*
X54862393Y-42284904D01*
G37*
G36*
X25489494Y-42998507D02*
G01*
X24438493Y-44818894D01*
X22618106Y-43767893D01*
X23669107Y-41947506D01*
X25489494Y-42998507D01*
X25489494Y-42998507D01*
G37*
G36*
X47842623Y-42341313D02*
G01*
X47973180Y-42380917D01*
X47979891Y-42382953D01*
X48003042Y-42389976D01*
X48080342Y-42431294D01*
X48150878Y-42468996D01*
X48280459Y-42575341D01*
X48386804Y-42704922D01*
X48386805Y-42704924D01*
X48465824Y-42852758D01*
X48514487Y-43013177D01*
X48530917Y-43180000D01*
X48514487Y-43346823D01*
X48465824Y-43507242D01*
X48425277Y-43583100D01*
X48386804Y-43655078D01*
X48280459Y-43784659D01*
X48150878Y-43891004D01*
X48150876Y-43891005D01*
X48003042Y-43970024D01*
X47842623Y-44018687D01*
X47717604Y-44031000D01*
X47633996Y-44031000D01*
X47508977Y-44018687D01*
X47348558Y-43970024D01*
X47200724Y-43891005D01*
X47200722Y-43891004D01*
X47071141Y-43784659D01*
X46964796Y-43655078D01*
X46926323Y-43583100D01*
X46885776Y-43507242D01*
X46837113Y-43346823D01*
X46820683Y-43180000D01*
X46837113Y-43013177D01*
X46885776Y-42852758D01*
X46964795Y-42704924D01*
X46964796Y-42704922D01*
X47071141Y-42575341D01*
X47200722Y-42468996D01*
X47271258Y-42431294D01*
X47348558Y-42389976D01*
X47371710Y-42382953D01*
X47378420Y-42380917D01*
X47508977Y-42341313D01*
X47633996Y-42329000D01*
X47717604Y-42329000D01*
X47842623Y-42341313D01*
X47842623Y-42341313D01*
G37*
G36*
X40304028Y-42361703D02*
G01*
X40458900Y-42425853D01*
X40598281Y-42518985D01*
X40716815Y-42637519D01*
X40809947Y-42776900D01*
X40874097Y-42931772D01*
X40906800Y-43096184D01*
X40906800Y-43263816D01*
X40874097Y-43428228D01*
X40809947Y-43583100D01*
X40716815Y-43722481D01*
X40598281Y-43841015D01*
X40458900Y-43934147D01*
X40304028Y-43998297D01*
X40139616Y-44031000D01*
X39971984Y-44031000D01*
X39807572Y-43998297D01*
X39652700Y-43934147D01*
X39513319Y-43841015D01*
X39394785Y-43722481D01*
X39301653Y-43583100D01*
X39237503Y-43428228D01*
X39204800Y-43263816D01*
X39204800Y-43096184D01*
X39237503Y-42931772D01*
X39301653Y-42776900D01*
X39394785Y-42637519D01*
X39513319Y-42518985D01*
X39652700Y-42425853D01*
X39807572Y-42361703D01*
X39971984Y-42329000D01*
X40139616Y-42329000D01*
X40304028Y-42361703D01*
X40304028Y-42361703D01*
G37*
G36*
X78712993Y-40710104D02*
G01*
X78949701Y-40808152D01*
X78949703Y-40808153D01*
X79162735Y-40950496D01*
X79343904Y-41131665D01*
X79421199Y-41247346D01*
X79486248Y-41344699D01*
X79584296Y-41581407D01*
X79634280Y-41832693D01*
X79634280Y-42088907D01*
X79584296Y-42340193D01*
X79486894Y-42575341D01*
X79486247Y-42576903D01*
X79343904Y-42789935D01*
X79162735Y-42971104D01*
X78949703Y-43113447D01*
X78949702Y-43113448D01*
X78949701Y-43113448D01*
X78712993Y-43211496D01*
X78461707Y-43261480D01*
X78205493Y-43261480D01*
X77954207Y-43211496D01*
X77717499Y-43113448D01*
X77717498Y-43113448D01*
X77717497Y-43113447D01*
X77504465Y-42971104D01*
X77323296Y-42789935D01*
X77180953Y-42576903D01*
X77180306Y-42575341D01*
X77082904Y-42340193D01*
X77032920Y-42088907D01*
X77032920Y-41832693D01*
X77082904Y-41581407D01*
X77180952Y-41344699D01*
X77246001Y-41247346D01*
X77323296Y-41131665D01*
X77504465Y-40950496D01*
X77717497Y-40808153D01*
X77717499Y-40808152D01*
X77954207Y-40710104D01*
X78205493Y-40660120D01*
X78461707Y-40660120D01*
X78712993Y-40710104D01*
X78712993Y-40710104D01*
G37*
G36*
X75824280Y-43261480D02*
G01*
X73222920Y-43261480D01*
X73222920Y-40660120D01*
X75824280Y-40660120D01*
X75824280Y-43261480D01*
X75824280Y-43261480D01*
G37*
G36*
X29274094Y-41380293D02*
G01*
X27453707Y-42431294D01*
X26402706Y-40610907D01*
X28223093Y-39559906D01*
X29274094Y-41380293D01*
X29274094Y-41380293D01*
G37*
G36*
X19757488Y-39797269D02*
G01*
X19860423Y-39807407D01*
X20058537Y-39867505D01*
X20058540Y-39867506D01*
X20122686Y-39901793D01*
X20241120Y-39965097D01*
X20401156Y-40096435D01*
X20532494Y-40256471D01*
X20571490Y-40329428D01*
X20630085Y-40439051D01*
X20630086Y-40439054D01*
X20690184Y-40637168D01*
X20710476Y-40843200D01*
X20690184Y-41049232D01*
X20639857Y-41215135D01*
X20630085Y-41247349D01*
X20578330Y-41344175D01*
X20532494Y-41429929D01*
X20401156Y-41589965D01*
X20241120Y-41721303D01*
X20155366Y-41767139D01*
X20058540Y-41818894D01*
X20058537Y-41818895D01*
X19860423Y-41878993D01*
X19757488Y-41889131D01*
X19706022Y-41894200D01*
X19602760Y-41894200D01*
X19551294Y-41889131D01*
X19448359Y-41878993D01*
X19250245Y-41818895D01*
X19250242Y-41818894D01*
X19153416Y-41767139D01*
X19067662Y-41721303D01*
X18907626Y-41589965D01*
X18776288Y-41429929D01*
X18730452Y-41344175D01*
X18678697Y-41247349D01*
X18668925Y-41215135D01*
X18618598Y-41049232D01*
X18598306Y-40843200D01*
X18618598Y-40637168D01*
X18678696Y-40439054D01*
X18678697Y-40439051D01*
X18737292Y-40329428D01*
X18776288Y-40256471D01*
X18907626Y-40096435D01*
X19067662Y-39965097D01*
X19186096Y-39901793D01*
X19250242Y-39867506D01*
X19250245Y-39867505D01*
X19448359Y-39807407D01*
X19551294Y-39797269D01*
X19602760Y-39792200D01*
X19706022Y-39792200D01*
X19757488Y-39797269D01*
X19757488Y-39797269D01*
G37*
G36*
X36396593Y-39135304D02*
G01*
X36560452Y-39203177D01*
X36633303Y-39233353D01*
X36846335Y-39375696D01*
X37027504Y-39556865D01*
X37156481Y-39749894D01*
X37169848Y-39769899D01*
X37267896Y-40006607D01*
X37317880Y-40257893D01*
X37317880Y-40514107D01*
X37267896Y-40765393D01*
X37169848Y-41002101D01*
X37169847Y-41002103D01*
X37027504Y-41215135D01*
X36846335Y-41396304D01*
X36633303Y-41538647D01*
X36633302Y-41538648D01*
X36633301Y-41538648D01*
X36396593Y-41636696D01*
X36145307Y-41686680D01*
X35889093Y-41686680D01*
X35637807Y-41636696D01*
X35401099Y-41538648D01*
X35401098Y-41538648D01*
X35401097Y-41538647D01*
X35188065Y-41396304D01*
X35006896Y-41215135D01*
X34864553Y-41002103D01*
X34864552Y-41002101D01*
X34766504Y-40765393D01*
X34716520Y-40514107D01*
X34716520Y-40257893D01*
X34766504Y-40006607D01*
X34864552Y-39769899D01*
X34877919Y-39749894D01*
X35006896Y-39556865D01*
X35188065Y-39375696D01*
X35401097Y-39233353D01*
X35473948Y-39203177D01*
X35637807Y-39135304D01*
X35889093Y-39085320D01*
X36145307Y-39085320D01*
X36396593Y-39135304D01*
X36396593Y-39135304D01*
G37*
G36*
X60323393Y-38627304D02*
G01*
X60560101Y-38725352D01*
X60560103Y-38725353D01*
X60773135Y-38867696D01*
X60954304Y-39048865D01*
X61084431Y-39243615D01*
X61096648Y-39261899D01*
X61194696Y-39498607D01*
X61244680Y-39749893D01*
X61244680Y-40006107D01*
X61194696Y-40257393D01*
X61119449Y-40439054D01*
X61096647Y-40494103D01*
X60954304Y-40707135D01*
X60773135Y-40888304D01*
X60560103Y-41030647D01*
X60560102Y-41030648D01*
X60560101Y-41030648D01*
X60323393Y-41128696D01*
X60072107Y-41178680D01*
X59815893Y-41178680D01*
X59564607Y-41128696D01*
X59327899Y-41030648D01*
X59327898Y-41030648D01*
X59327897Y-41030647D01*
X59114865Y-40888304D01*
X58933696Y-40707135D01*
X58791353Y-40494103D01*
X58768551Y-40439054D01*
X58693304Y-40257393D01*
X58643320Y-40006107D01*
X58643320Y-39749893D01*
X58693304Y-39498607D01*
X58791352Y-39261899D01*
X58803569Y-39243615D01*
X58933696Y-39048865D01*
X59114865Y-38867696D01*
X59327897Y-38725353D01*
X59327899Y-38725352D01*
X59564607Y-38627304D01*
X59815893Y-38577320D01*
X60072107Y-38577320D01*
X60323393Y-38627304D01*
X60323393Y-38627304D01*
G37*
G36*
X52572228Y-39262903D02*
G01*
X52727100Y-39327053D01*
X52866481Y-39420185D01*
X52985015Y-39538719D01*
X53078147Y-39678100D01*
X53142297Y-39832972D01*
X53175000Y-39997384D01*
X53175000Y-40165016D01*
X53142297Y-40329428D01*
X53078147Y-40484300D01*
X52985015Y-40623681D01*
X52866481Y-40742215D01*
X52727100Y-40835347D01*
X52572228Y-40899497D01*
X52407816Y-40932200D01*
X52240184Y-40932200D01*
X52075772Y-40899497D01*
X51920900Y-40835347D01*
X51781519Y-40742215D01*
X51662985Y-40623681D01*
X51569853Y-40484300D01*
X51505703Y-40329428D01*
X51473000Y-40165016D01*
X51473000Y-39997384D01*
X51505703Y-39832972D01*
X51569853Y-39678100D01*
X51662985Y-39538719D01*
X51781519Y-39420185D01*
X51920900Y-39327053D01*
X52075772Y-39262903D01*
X52240184Y-39230200D01*
X52407816Y-39230200D01*
X52572228Y-39262903D01*
X52572228Y-39262903D01*
G37*
G36*
X44870823Y-39242513D02*
G01*
X45031242Y-39291176D01*
X45098361Y-39327052D01*
X45179078Y-39370196D01*
X45308659Y-39476541D01*
X45415004Y-39606122D01*
X45415005Y-39606124D01*
X45494024Y-39753958D01*
X45542687Y-39914377D01*
X45559117Y-40081200D01*
X45542687Y-40248023D01*
X45494024Y-40408442D01*
X45423114Y-40541106D01*
X45415004Y-40556278D01*
X45308659Y-40685859D01*
X45179078Y-40792204D01*
X45179076Y-40792205D01*
X45031242Y-40871224D01*
X44870823Y-40919887D01*
X44745804Y-40932200D01*
X44662196Y-40932200D01*
X44537177Y-40919887D01*
X44376758Y-40871224D01*
X44228924Y-40792205D01*
X44228922Y-40792204D01*
X44099341Y-40685859D01*
X43992996Y-40556278D01*
X43984886Y-40541106D01*
X43913976Y-40408442D01*
X43865313Y-40248023D01*
X43848883Y-40081200D01*
X43865313Y-39914377D01*
X43913976Y-39753958D01*
X43992995Y-39606124D01*
X43992996Y-39606122D01*
X44099341Y-39476541D01*
X44228922Y-39370196D01*
X44309639Y-39327052D01*
X44376758Y-39291176D01*
X44537177Y-39242513D01*
X44662196Y-39230200D01*
X44745804Y-39230200D01*
X44870823Y-39242513D01*
X44870823Y-39242513D01*
G37*
G36*
X15416193Y-38271704D02*
G01*
X15567486Y-38334372D01*
X15652903Y-38369753D01*
X15865935Y-38512096D01*
X16047104Y-38693265D01*
X16181846Y-38894922D01*
X16189448Y-38906299D01*
X16287496Y-39143007D01*
X16337480Y-39394293D01*
X16337480Y-39650507D01*
X16287496Y-39901793D01*
X16195393Y-40124148D01*
X16189447Y-40138503D01*
X16047104Y-40351535D01*
X15865935Y-40532704D01*
X15652903Y-40675047D01*
X15652902Y-40675048D01*
X15652901Y-40675048D01*
X15416193Y-40773096D01*
X15164907Y-40823080D01*
X14908693Y-40823080D01*
X14657407Y-40773096D01*
X14420699Y-40675048D01*
X14420698Y-40675048D01*
X14420697Y-40675047D01*
X14207665Y-40532704D01*
X14026496Y-40351535D01*
X13884153Y-40138503D01*
X13878207Y-40124148D01*
X13786104Y-39901793D01*
X13736120Y-39650507D01*
X13736120Y-39394293D01*
X13786104Y-39143007D01*
X13884152Y-38906299D01*
X13891754Y-38894922D01*
X14026496Y-38693265D01*
X14207665Y-38512096D01*
X14420697Y-38369753D01*
X14506114Y-38334372D01*
X14657407Y-38271704D01*
X14908693Y-38221720D01*
X15164907Y-38221720D01*
X15416193Y-38271704D01*
X15416193Y-38271704D01*
G37*
G36*
X63748228Y-38551703D02*
G01*
X63903100Y-38615853D01*
X64042481Y-38708985D01*
X64161015Y-38827519D01*
X64254147Y-38966900D01*
X64318297Y-39121772D01*
X64351000Y-39286184D01*
X64351000Y-39453816D01*
X64318297Y-39618228D01*
X64254147Y-39773100D01*
X64161015Y-39912481D01*
X64042481Y-40031015D01*
X63903100Y-40124147D01*
X63748228Y-40188297D01*
X63583816Y-40221000D01*
X63416184Y-40221000D01*
X63251772Y-40188297D01*
X63096900Y-40124147D01*
X62957519Y-40031015D01*
X62838985Y-39912481D01*
X62745853Y-39773100D01*
X62681703Y-39618228D01*
X62649000Y-39453816D01*
X62649000Y-39286184D01*
X62681703Y-39121772D01*
X62745853Y-38966900D01*
X62838985Y-38827519D01*
X62957519Y-38708985D01*
X63096900Y-38615853D01*
X63251772Y-38551703D01*
X63416184Y-38519000D01*
X63583816Y-38519000D01*
X63748228Y-38551703D01*
X63748228Y-38551703D01*
G37*
G36*
X24301709Y-38531313D02*
G01*
X24432266Y-38570917D01*
X24453373Y-38577320D01*
X24462128Y-38579976D01*
X24529247Y-38615852D01*
X24609964Y-38658996D01*
X24739545Y-38765341D01*
X24845891Y-38894923D01*
X24924910Y-39042758D01*
X24973573Y-39203177D01*
X24990003Y-39370000D01*
X24973573Y-39536823D01*
X24924910Y-39697242D01*
X24854000Y-39829906D01*
X24845890Y-39845078D01*
X24739545Y-39974659D01*
X24609964Y-40081004D01*
X24609962Y-40081005D01*
X24462128Y-40160024D01*
X24301709Y-40208687D01*
X24176690Y-40221000D01*
X24093082Y-40221000D01*
X23968063Y-40208687D01*
X23807644Y-40160024D01*
X23659810Y-40081005D01*
X23659808Y-40081004D01*
X23530227Y-39974659D01*
X23423882Y-39845078D01*
X23415772Y-39829906D01*
X23344862Y-39697242D01*
X23296199Y-39536823D01*
X23279769Y-39370000D01*
X23296199Y-39203177D01*
X23344862Y-39042758D01*
X23423881Y-38894923D01*
X23530227Y-38765341D01*
X23659808Y-38658996D01*
X23740525Y-38615852D01*
X23807644Y-38579976D01*
X23816400Y-38577320D01*
X23837506Y-38570917D01*
X23968063Y-38531313D01*
X24093082Y-38519000D01*
X24176690Y-38519000D01*
X24301709Y-38531313D01*
X24301709Y-38531313D01*
G37*
G36*
X32340906Y-37409669D02*
G01*
X32443841Y-37419807D01*
X32641955Y-37479905D01*
X32641958Y-37479906D01*
X32734032Y-37529121D01*
X32824538Y-37577497D01*
X32984574Y-37708835D01*
X33115912Y-37868871D01*
X33139438Y-37912886D01*
X33213503Y-38051451D01*
X33213504Y-38051454D01*
X33273602Y-38249568D01*
X33293894Y-38455600D01*
X33273602Y-38661632D01*
X33223280Y-38827519D01*
X33213503Y-38859749D01*
X33194702Y-38894923D01*
X33115912Y-39042329D01*
X32984574Y-39202365D01*
X32824538Y-39333703D01*
X32756266Y-39370195D01*
X32641958Y-39431294D01*
X32641955Y-39431295D01*
X32443841Y-39491393D01*
X32340906Y-39501531D01*
X32289440Y-39506600D01*
X32186178Y-39506600D01*
X32134712Y-39501531D01*
X32031777Y-39491393D01*
X31833663Y-39431295D01*
X31833660Y-39431294D01*
X31719352Y-39370195D01*
X31651080Y-39333703D01*
X31491044Y-39202365D01*
X31359706Y-39042329D01*
X31280916Y-38894923D01*
X31262115Y-38859749D01*
X31252338Y-38827519D01*
X31202016Y-38661632D01*
X31181724Y-38455600D01*
X31202016Y-38249568D01*
X31262114Y-38051454D01*
X31262115Y-38051451D01*
X31336180Y-37912886D01*
X31359706Y-37868871D01*
X31491044Y-37708835D01*
X31651080Y-37577497D01*
X31741586Y-37529121D01*
X31833660Y-37479906D01*
X31833663Y-37479905D01*
X32031777Y-37419807D01*
X32134712Y-37409669D01*
X32186178Y-37404600D01*
X32289440Y-37404600D01*
X32340906Y-37409669D01*
X32340906Y-37409669D01*
G37*
G36*
X38907028Y-37764303D02*
G01*
X39061900Y-37828453D01*
X39201281Y-37921585D01*
X39319815Y-38040119D01*
X39412947Y-38179500D01*
X39477097Y-38334372D01*
X39509800Y-38498784D01*
X39509800Y-38666416D01*
X39477097Y-38830828D01*
X39412947Y-38985700D01*
X39319815Y-39125081D01*
X39201281Y-39243615D01*
X39061900Y-39336747D01*
X38907028Y-39400897D01*
X38742616Y-39433600D01*
X38574984Y-39433600D01*
X38410572Y-39400897D01*
X38255700Y-39336747D01*
X38116319Y-39243615D01*
X37997785Y-39125081D01*
X37904653Y-38985700D01*
X37840503Y-38830828D01*
X37807800Y-38666416D01*
X37807800Y-38498784D01*
X37840503Y-38334372D01*
X37904653Y-38179500D01*
X37997785Y-38040119D01*
X38116319Y-37921585D01*
X38255700Y-37828453D01*
X38410572Y-37764303D01*
X38574984Y-37731600D01*
X38742616Y-37731600D01*
X38907028Y-37764303D01*
X38907028Y-37764303D01*
G37*
G36*
X19175393Y-35579304D02*
G01*
X19389767Y-35668101D01*
X19412103Y-35677353D01*
X19625135Y-35819696D01*
X19806304Y-36000865D01*
X19916921Y-36166416D01*
X19948648Y-36213899D01*
X20046696Y-36450607D01*
X20096680Y-36701893D01*
X20096680Y-36958107D01*
X20046696Y-37209393D01*
X19975635Y-37380948D01*
X19948647Y-37446103D01*
X19806304Y-37659135D01*
X19625135Y-37840304D01*
X19412103Y-37982647D01*
X19412102Y-37982648D01*
X19412101Y-37982648D01*
X19175393Y-38080696D01*
X18924107Y-38130680D01*
X18667893Y-38130680D01*
X18416607Y-38080696D01*
X18179899Y-37982648D01*
X18179898Y-37982648D01*
X18179897Y-37982647D01*
X17966865Y-37840304D01*
X17785696Y-37659135D01*
X17643353Y-37446103D01*
X17616365Y-37380948D01*
X17545304Y-37209393D01*
X17495320Y-36958107D01*
X17495320Y-36701893D01*
X17545304Y-36450607D01*
X17643352Y-36213899D01*
X17675079Y-36166416D01*
X17785696Y-36000865D01*
X17966865Y-35819696D01*
X18179897Y-35677353D01*
X18202233Y-35668101D01*
X18416607Y-35579304D01*
X18667893Y-35529320D01*
X18924107Y-35529320D01*
X19175393Y-35579304D01*
X19175393Y-35579304D01*
G37*
G36*
X34860291Y-36363195D02*
G01*
X35020710Y-36411858D01*
X35093202Y-36450606D01*
X35168546Y-36490878D01*
X35298127Y-36597223D01*
X35404472Y-36726804D01*
X35404473Y-36726806D01*
X35483492Y-36874640D01*
X35532155Y-37035059D01*
X35548585Y-37201882D01*
X35532155Y-37368705D01*
X35483492Y-37529124D01*
X35470285Y-37553832D01*
X35404472Y-37676960D01*
X35298127Y-37806541D01*
X35168546Y-37912886D01*
X35168544Y-37912887D01*
X35020710Y-37991906D01*
X34860291Y-38040569D01*
X34735272Y-38052882D01*
X34651664Y-38052882D01*
X34526645Y-38040569D01*
X34366226Y-37991906D01*
X34218392Y-37912887D01*
X34218390Y-37912886D01*
X34088809Y-37806541D01*
X33982464Y-37676960D01*
X33916651Y-37553832D01*
X33903444Y-37529124D01*
X33854781Y-37368705D01*
X33838351Y-37201882D01*
X33854781Y-37035059D01*
X33903444Y-36874640D01*
X33982463Y-36726806D01*
X33982464Y-36726804D01*
X34088809Y-36597223D01*
X34218390Y-36490878D01*
X34293734Y-36450606D01*
X34366226Y-36411858D01*
X34526645Y-36363195D01*
X34651664Y-36350882D01*
X34735272Y-36350882D01*
X34860291Y-36363195D01*
X34860291Y-36363195D01*
G37*
G36*
X70827281Y-35925120D02*
G01*
X70987700Y-35973783D01*
X71120364Y-36044693D01*
X71135536Y-36052803D01*
X71265117Y-36159148D01*
X71371462Y-36288729D01*
X71371463Y-36288731D01*
X71450482Y-36436565D01*
X71499145Y-36596984D01*
X71515575Y-36763807D01*
X71499145Y-36930630D01*
X71450482Y-37091049D01*
X71408666Y-37169281D01*
X71371462Y-37238885D01*
X71265117Y-37368466D01*
X71135536Y-37474811D01*
X71135534Y-37474812D01*
X70987700Y-37553831D01*
X70827281Y-37602494D01*
X70702262Y-37614807D01*
X70618654Y-37614807D01*
X70493635Y-37602494D01*
X70333216Y-37553831D01*
X70185382Y-37474812D01*
X70185380Y-37474811D01*
X70055799Y-37368466D01*
X69949454Y-37238885D01*
X69912250Y-37169281D01*
X69870434Y-37091049D01*
X69821771Y-36930630D01*
X69805341Y-36763807D01*
X69821771Y-36596984D01*
X69870434Y-36436565D01*
X69949453Y-36288731D01*
X69949454Y-36288729D01*
X70055799Y-36159148D01*
X70185380Y-36052803D01*
X70200552Y-36044693D01*
X70333216Y-35973783D01*
X70493635Y-35925120D01*
X70618654Y-35912807D01*
X70702262Y-35912807D01*
X70827281Y-35925120D01*
X70827281Y-35925120D01*
G37*
G36*
X77863800Y-37604800D02*
G01*
X76161800Y-37604800D01*
X76161800Y-35902800D01*
X77863800Y-35902800D01*
X77863800Y-37604800D01*
X77863800Y-37604800D01*
G37*
G36*
X49549628Y-35808503D02*
G01*
X49704500Y-35872653D01*
X49843881Y-35965785D01*
X49962415Y-36084319D01*
X50055547Y-36223700D01*
X50119697Y-36378572D01*
X50152400Y-36542984D01*
X50152400Y-36710616D01*
X50119697Y-36875028D01*
X50055547Y-37029900D01*
X49962415Y-37169281D01*
X49843881Y-37287815D01*
X49704500Y-37380947D01*
X49549628Y-37445097D01*
X49385216Y-37477800D01*
X49217584Y-37477800D01*
X49053172Y-37445097D01*
X48898300Y-37380947D01*
X48758919Y-37287815D01*
X48640385Y-37169281D01*
X48547253Y-37029900D01*
X48483103Y-36875028D01*
X48450400Y-36710616D01*
X48450400Y-36542984D01*
X48483103Y-36378572D01*
X48547253Y-36223700D01*
X48640385Y-36084319D01*
X48758919Y-35965785D01*
X48898300Y-35872653D01*
X49053172Y-35808503D01*
X49217584Y-35775800D01*
X49385216Y-35775800D01*
X49549628Y-35808503D01*
X49549628Y-35808503D01*
G37*
G36*
X14980228Y-35503703D02*
G01*
X15135100Y-35567853D01*
X15274481Y-35660985D01*
X15393015Y-35779519D01*
X15486147Y-35918900D01*
X15550297Y-36073772D01*
X15583000Y-36238184D01*
X15583000Y-36405816D01*
X15550297Y-36570228D01*
X15486147Y-36725100D01*
X15393015Y-36864481D01*
X15274481Y-36983015D01*
X15135100Y-37076147D01*
X14980228Y-37140297D01*
X14815816Y-37173000D01*
X14648184Y-37173000D01*
X14483772Y-37140297D01*
X14328900Y-37076147D01*
X14189519Y-36983015D01*
X14070985Y-36864481D01*
X13977853Y-36725100D01*
X13913703Y-36570228D01*
X13881000Y-36405816D01*
X13881000Y-36238184D01*
X13913703Y-36073772D01*
X13977853Y-35918900D01*
X14070985Y-35779519D01*
X14189519Y-35660985D01*
X14328900Y-35567853D01*
X14483772Y-35503703D01*
X14648184Y-35471000D01*
X14815816Y-35471000D01*
X14980228Y-35503703D01*
X14980228Y-35503703D01*
G37*
G36*
X61049000Y-37173000D02*
G01*
X59347000Y-37173000D01*
X59347000Y-35471000D01*
X61049000Y-35471000D01*
X61049000Y-37173000D01*
X61049000Y-37173000D01*
G37*
G36*
X52744823Y-35483313D02*
G01*
X52875380Y-35522917D01*
X52896487Y-35529320D01*
X52905242Y-35531976D01*
X52972361Y-35567852D01*
X53053078Y-35610996D01*
X53182659Y-35717341D01*
X53289004Y-35846922D01*
X53289005Y-35846924D01*
X53368024Y-35994758D01*
X53416687Y-36155177D01*
X53433117Y-36322000D01*
X53416687Y-36488823D01*
X53368024Y-36649242D01*
X53306788Y-36763807D01*
X53289004Y-36797078D01*
X53182659Y-36926659D01*
X53053078Y-37033004D01*
X53053076Y-37033005D01*
X52905242Y-37112024D01*
X52744823Y-37160687D01*
X52619804Y-37173000D01*
X52536196Y-37173000D01*
X52411177Y-37160687D01*
X52250758Y-37112024D01*
X52102924Y-37033005D01*
X52102922Y-37033004D01*
X51973341Y-36926659D01*
X51866996Y-36797078D01*
X51849212Y-36763807D01*
X51787976Y-36649242D01*
X51739313Y-36488823D01*
X51722883Y-36322000D01*
X51739313Y-36155177D01*
X51787976Y-35994758D01*
X51866995Y-35846924D01*
X51866996Y-35846922D01*
X51973341Y-35717341D01*
X52102922Y-35610996D01*
X52183639Y-35567852D01*
X52250758Y-35531976D01*
X52259514Y-35529320D01*
X52280620Y-35522917D01*
X52411177Y-35483313D01*
X52536196Y-35471000D01*
X52619804Y-35471000D01*
X52744823Y-35483313D01*
X52744823Y-35483313D01*
G37*
G36*
X43237155Y-35264303D02*
G01*
X43392027Y-35328453D01*
X43531408Y-35421585D01*
X43649942Y-35540119D01*
X43743074Y-35679500D01*
X43807224Y-35834372D01*
X43839927Y-35998784D01*
X43839927Y-36166416D01*
X43807224Y-36330828D01*
X43743074Y-36485700D01*
X43649942Y-36625081D01*
X43531408Y-36743615D01*
X43392027Y-36836747D01*
X43237155Y-36900897D01*
X43072743Y-36933600D01*
X42905111Y-36933600D01*
X42740699Y-36900897D01*
X42585827Y-36836747D01*
X42446446Y-36743615D01*
X42327912Y-36625081D01*
X42234780Y-36485700D01*
X42170630Y-36330828D01*
X42137927Y-36166416D01*
X42137927Y-35998784D01*
X42170630Y-35834372D01*
X42234780Y-35679500D01*
X42327912Y-35540119D01*
X42446446Y-35421585D01*
X42585827Y-35328453D01*
X42740699Y-35264303D01*
X42905111Y-35231600D01*
X43072743Y-35231600D01*
X43237155Y-35264303D01*
X43237155Y-35264303D01*
G37*
G36*
X30982228Y-34741703D02*
G01*
X31137100Y-34805853D01*
X31276481Y-34898985D01*
X31395015Y-35017519D01*
X31488147Y-35156900D01*
X31552297Y-35311772D01*
X31585000Y-35476184D01*
X31585000Y-35643816D01*
X31552297Y-35808228D01*
X31488147Y-35963100D01*
X31395015Y-36102481D01*
X31276481Y-36221015D01*
X31137100Y-36314147D01*
X30982228Y-36378297D01*
X30817816Y-36411000D01*
X30650184Y-36411000D01*
X30485772Y-36378297D01*
X30330900Y-36314147D01*
X30191519Y-36221015D01*
X30072985Y-36102481D01*
X29979853Y-35963100D01*
X29915703Y-35808228D01*
X29883000Y-35643816D01*
X29883000Y-35476184D01*
X29915703Y-35311772D01*
X29979853Y-35156900D01*
X30072985Y-35017519D01*
X30191519Y-34898985D01*
X30330900Y-34805853D01*
X30485772Y-34741703D01*
X30650184Y-34709000D01*
X30817816Y-34709000D01*
X30982228Y-34741703D01*
X30982228Y-34741703D01*
G37*
G36*
X64133393Y-33801304D02*
G01*
X64370101Y-33899352D01*
X64370103Y-33899353D01*
X64583135Y-34041696D01*
X64764304Y-34222865D01*
X64873747Y-34386659D01*
X64906648Y-34435899D01*
X65004696Y-34672607D01*
X65054680Y-34923893D01*
X65054680Y-35180107D01*
X65004696Y-35431393D01*
X64906648Y-35668101D01*
X64906647Y-35668103D01*
X64764304Y-35881135D01*
X64583135Y-36062304D01*
X64370103Y-36204647D01*
X64370102Y-36204648D01*
X64370101Y-36204648D01*
X64133393Y-36302696D01*
X63882107Y-36352680D01*
X63625893Y-36352680D01*
X63374607Y-36302696D01*
X63137899Y-36204648D01*
X63137898Y-36204648D01*
X63137897Y-36204647D01*
X62924865Y-36062304D01*
X62743696Y-35881135D01*
X62601353Y-35668103D01*
X62601352Y-35668101D01*
X62503304Y-35431393D01*
X62453320Y-35180107D01*
X62453320Y-34923893D01*
X62503304Y-34672607D01*
X62601352Y-34435899D01*
X62634253Y-34386659D01*
X62743696Y-34222865D01*
X62924865Y-34041696D01*
X63137897Y-33899353D01*
X63137899Y-33899352D01*
X63374607Y-33801304D01*
X63625893Y-33751320D01*
X63882107Y-33751320D01*
X64133393Y-33801304D01*
X64133393Y-33801304D01*
G37*
G36*
X77261028Y-33435503D02*
G01*
X77415900Y-33499653D01*
X77555281Y-33592785D01*
X77673815Y-33711319D01*
X77766947Y-33850700D01*
X77831097Y-34005572D01*
X77863800Y-34169984D01*
X77863800Y-34337616D01*
X77831097Y-34502028D01*
X77766947Y-34656900D01*
X77673815Y-34796281D01*
X77555281Y-34914815D01*
X77415900Y-35007947D01*
X77261028Y-35072097D01*
X77096616Y-35104800D01*
X76928984Y-35104800D01*
X76764572Y-35072097D01*
X76609700Y-35007947D01*
X76470319Y-34914815D01*
X76351785Y-34796281D01*
X76258653Y-34656900D01*
X76194503Y-34502028D01*
X76161800Y-34337616D01*
X76161800Y-34169984D01*
X76194503Y-34005572D01*
X76258653Y-33850700D01*
X76351785Y-33711319D01*
X76470319Y-33592785D01*
X76609700Y-33499653D01*
X76764572Y-33435503D01*
X76928984Y-33402800D01*
X77096616Y-33402800D01*
X77261028Y-33435503D01*
X77261028Y-33435503D01*
G37*
G36*
X60364823Y-32943313D02*
G01*
X60525242Y-32991976D01*
X60657906Y-33062886D01*
X60673078Y-33070996D01*
X60802659Y-33177341D01*
X60909004Y-33306922D01*
X60909005Y-33306924D01*
X60988024Y-33454758D01*
X61036687Y-33615177D01*
X61053117Y-33782000D01*
X61036687Y-33948823D01*
X60988024Y-34109242D01*
X60955556Y-34169985D01*
X60909004Y-34257078D01*
X60802659Y-34386659D01*
X60673078Y-34493004D01*
X60673076Y-34493005D01*
X60525242Y-34572024D01*
X60364823Y-34620687D01*
X60239804Y-34633000D01*
X60156196Y-34633000D01*
X60031177Y-34620687D01*
X59870758Y-34572024D01*
X59722924Y-34493005D01*
X59722922Y-34493004D01*
X59593341Y-34386659D01*
X59486996Y-34257078D01*
X59440444Y-34169985D01*
X59407976Y-34109242D01*
X59359313Y-33948823D01*
X59342883Y-33782000D01*
X59359313Y-33615177D01*
X59407976Y-33454758D01*
X59486995Y-33306924D01*
X59486996Y-33306922D01*
X59593341Y-33177341D01*
X59722922Y-33070996D01*
X59738094Y-33062886D01*
X59870758Y-32991976D01*
X60031177Y-32943313D01*
X60156196Y-32931000D01*
X60239804Y-32931000D01*
X60364823Y-32943313D01*
X60364823Y-32943313D01*
G37*
G36*
X52744823Y-32943313D02*
G01*
X52905242Y-32991976D01*
X53037906Y-33062886D01*
X53053078Y-33070996D01*
X53182659Y-33177341D01*
X53289004Y-33306922D01*
X53289005Y-33306924D01*
X53368024Y-33454758D01*
X53416687Y-33615177D01*
X53433117Y-33782000D01*
X53416687Y-33948823D01*
X53368024Y-34109242D01*
X53335556Y-34169985D01*
X53289004Y-34257078D01*
X53182659Y-34386659D01*
X53053078Y-34493004D01*
X53053076Y-34493005D01*
X52905242Y-34572024D01*
X52744823Y-34620687D01*
X52619804Y-34633000D01*
X52536196Y-34633000D01*
X52411177Y-34620687D01*
X52250758Y-34572024D01*
X52102924Y-34493005D01*
X52102922Y-34493004D01*
X51973341Y-34386659D01*
X51866996Y-34257078D01*
X51820444Y-34169985D01*
X51787976Y-34109242D01*
X51739313Y-33948823D01*
X51722883Y-33782000D01*
X51739313Y-33615177D01*
X51787976Y-33454758D01*
X51866995Y-33306924D01*
X51866996Y-33306922D01*
X51973341Y-33177341D01*
X52102922Y-33070996D01*
X52118094Y-33062886D01*
X52250758Y-32991976D01*
X52411177Y-32943313D01*
X52536196Y-32931000D01*
X52619804Y-32931000D01*
X52744823Y-32943313D01*
X52744823Y-32943313D01*
G37*
G36*
X29204228Y-32709703D02*
G01*
X29359100Y-32773853D01*
X29498481Y-32866985D01*
X29617015Y-32985519D01*
X29710147Y-33124900D01*
X29774297Y-33279772D01*
X29807000Y-33444184D01*
X29807000Y-33611816D01*
X29774297Y-33776228D01*
X29710147Y-33931100D01*
X29617015Y-34070481D01*
X29498481Y-34189015D01*
X29359100Y-34282147D01*
X29204228Y-34346297D01*
X29039816Y-34379000D01*
X28872184Y-34379000D01*
X28707772Y-34346297D01*
X28552900Y-34282147D01*
X28413519Y-34189015D01*
X28294985Y-34070481D01*
X28201853Y-33931100D01*
X28137703Y-33776228D01*
X28105000Y-33611816D01*
X28105000Y-33444184D01*
X28137703Y-33279772D01*
X28201853Y-33124900D01*
X28294985Y-32985519D01*
X28413519Y-32866985D01*
X28552900Y-32773853D01*
X28707772Y-32709703D01*
X28872184Y-32677000D01*
X29039816Y-32677000D01*
X29204228Y-32709703D01*
X29204228Y-32709703D01*
G37*
G36*
X33186823Y-32679540D02*
G01*
X33347242Y-32728203D01*
X33432645Y-32773852D01*
X33495078Y-32807223D01*
X33624659Y-32913568D01*
X33731004Y-33043149D01*
X33731005Y-33043151D01*
X33810024Y-33190985D01*
X33858687Y-33351404D01*
X33875117Y-33518227D01*
X33858687Y-33685050D01*
X33810024Y-33845469D01*
X33762509Y-33934363D01*
X33731004Y-33993305D01*
X33624659Y-34122886D01*
X33495078Y-34229231D01*
X33495076Y-34229232D01*
X33347242Y-34308251D01*
X33186823Y-34356914D01*
X33061804Y-34369227D01*
X32978196Y-34369227D01*
X32853177Y-34356914D01*
X32692758Y-34308251D01*
X32544924Y-34229232D01*
X32544922Y-34229231D01*
X32415341Y-34122886D01*
X32308996Y-33993305D01*
X32277491Y-33934363D01*
X32229976Y-33845469D01*
X32181313Y-33685050D01*
X32164883Y-33518227D01*
X32181313Y-33351404D01*
X32229976Y-33190985D01*
X32308995Y-33043151D01*
X32308996Y-33043149D01*
X32415341Y-32913568D01*
X32544922Y-32807223D01*
X32607355Y-32773852D01*
X32692758Y-32728203D01*
X32853177Y-32679540D01*
X32978196Y-32667227D01*
X33061804Y-32667227D01*
X33186823Y-32679540D01*
X33186823Y-32679540D01*
G37*
G36*
X24419000Y-34325000D02*
G01*
X22317000Y-34325000D01*
X22317000Y-32223000D01*
X24419000Y-32223000D01*
X24419000Y-34325000D01*
X24419000Y-34325000D01*
G37*
G36*
X18391097Y-32228069D02*
G01*
X18494032Y-32238207D01*
X18692146Y-32298305D01*
X18692149Y-32298306D01*
X18788975Y-32350061D01*
X18874729Y-32395897D01*
X19034765Y-32527235D01*
X19166103Y-32687271D01*
X19178093Y-32709703D01*
X19263694Y-32869851D01*
X19263695Y-32869854D01*
X19323793Y-33067968D01*
X19344085Y-33274000D01*
X19323793Y-33480032D01*
X19275233Y-33640110D01*
X19263694Y-33678149D01*
X19224583Y-33751320D01*
X19166103Y-33860729D01*
X19034765Y-34020765D01*
X18874729Y-34152103D01*
X18805671Y-34189015D01*
X18692149Y-34249694D01*
X18692146Y-34249695D01*
X18494032Y-34309793D01*
X18391097Y-34319931D01*
X18339631Y-34325000D01*
X18236369Y-34325000D01*
X18184903Y-34319931D01*
X18081968Y-34309793D01*
X17883854Y-34249695D01*
X17883851Y-34249694D01*
X17770329Y-34189015D01*
X17701271Y-34152103D01*
X17541235Y-34020765D01*
X17409897Y-33860729D01*
X17351417Y-33751320D01*
X17312306Y-33678149D01*
X17300767Y-33640110D01*
X17252207Y-33480032D01*
X17231915Y-33274000D01*
X17252207Y-33067968D01*
X17312305Y-32869854D01*
X17312306Y-32869851D01*
X17397907Y-32709703D01*
X17409897Y-32687271D01*
X17541235Y-32527235D01*
X17701271Y-32395897D01*
X17787025Y-32350061D01*
X17883851Y-32298306D01*
X17883854Y-32298305D01*
X18081968Y-32238207D01*
X18184903Y-32228069D01*
X18236369Y-32223000D01*
X18339631Y-32223000D01*
X18391097Y-32228069D01*
X18391097Y-32228069D01*
G37*
G36*
X41540810Y-32573585D02*
G01*
X41695682Y-32637735D01*
X41835063Y-32730867D01*
X41953597Y-32849401D01*
X42046729Y-32988782D01*
X42110879Y-33143654D01*
X42143582Y-33308066D01*
X42143582Y-33475698D01*
X42110879Y-33640110D01*
X42046729Y-33794982D01*
X41953597Y-33934363D01*
X41835063Y-34052897D01*
X41695682Y-34146029D01*
X41540810Y-34210179D01*
X41376398Y-34242882D01*
X41208766Y-34242882D01*
X41044354Y-34210179D01*
X40889482Y-34146029D01*
X40750101Y-34052897D01*
X40631567Y-33934363D01*
X40538435Y-33794982D01*
X40474285Y-33640110D01*
X40441582Y-33475698D01*
X40441582Y-33308066D01*
X40474285Y-33143654D01*
X40538435Y-32988782D01*
X40631567Y-32849401D01*
X40750101Y-32730867D01*
X40889482Y-32637735D01*
X41044354Y-32573585D01*
X41208766Y-32540882D01*
X41376398Y-32540882D01*
X41540810Y-32573585D01*
X41540810Y-32573585D01*
G37*
G36*
X49549628Y-30808503D02*
G01*
X49704500Y-30872653D01*
X49843881Y-30965785D01*
X49962415Y-31084319D01*
X50055547Y-31223700D01*
X50119697Y-31378572D01*
X50152400Y-31542984D01*
X50152400Y-31710616D01*
X50119697Y-31875028D01*
X50055547Y-32029900D01*
X49962415Y-32169281D01*
X49843881Y-32287815D01*
X49704500Y-32380947D01*
X49549628Y-32445097D01*
X49385216Y-32477800D01*
X49217584Y-32477800D01*
X49053172Y-32445097D01*
X48898300Y-32380947D01*
X48758919Y-32287815D01*
X48640385Y-32169281D01*
X48547253Y-32029900D01*
X48483103Y-31875028D01*
X48450400Y-31710616D01*
X48450400Y-31542984D01*
X48483103Y-31378572D01*
X48547253Y-31223700D01*
X48640385Y-31084319D01*
X48758919Y-30965785D01*
X48898300Y-30872653D01*
X49053172Y-30808503D01*
X49217584Y-30775800D01*
X49385216Y-30775800D01*
X49549628Y-30808503D01*
X49549628Y-30808503D01*
G37*
G36*
X31916823Y-30479836D02*
G01*
X32077242Y-30528499D01*
X32175436Y-30580985D01*
X32225078Y-30607519D01*
X32354659Y-30713864D01*
X32461004Y-30843445D01*
X32461005Y-30843447D01*
X32540024Y-30991281D01*
X32588687Y-31151700D01*
X32605117Y-31318523D01*
X32588687Y-31485346D01*
X32540024Y-31645765D01*
X32505361Y-31710615D01*
X32461004Y-31793601D01*
X32354659Y-31923182D01*
X32225078Y-32029527D01*
X32209906Y-32037637D01*
X32077242Y-32108547D01*
X31916823Y-32157210D01*
X31791804Y-32169523D01*
X31708196Y-32169523D01*
X31583177Y-32157210D01*
X31422758Y-32108547D01*
X31290094Y-32037637D01*
X31274922Y-32029527D01*
X31145341Y-31923182D01*
X31038996Y-31793601D01*
X30994639Y-31710615D01*
X30959976Y-31645765D01*
X30911313Y-31485346D01*
X30894883Y-31318523D01*
X30911313Y-31151700D01*
X30959976Y-30991281D01*
X31038995Y-30843447D01*
X31038996Y-30843445D01*
X31145341Y-30713864D01*
X31274922Y-30607519D01*
X31324564Y-30580985D01*
X31422758Y-30528499D01*
X31583177Y-30479836D01*
X31708196Y-30467523D01*
X31791804Y-30467523D01*
X31916823Y-30479836D01*
X31916823Y-30479836D01*
G37*
G36*
X60364823Y-30403313D02*
G01*
X60525242Y-30451976D01*
X60657906Y-30522886D01*
X60673078Y-30530996D01*
X60802659Y-30637341D01*
X60909004Y-30766922D01*
X60909005Y-30766924D01*
X60988024Y-30914758D01*
X61036687Y-31075177D01*
X61053117Y-31242000D01*
X61036687Y-31408823D01*
X60988024Y-31569242D01*
X60917114Y-31701906D01*
X60909004Y-31717078D01*
X60802659Y-31846659D01*
X60673078Y-31953004D01*
X60673076Y-31953005D01*
X60525242Y-32032024D01*
X60364823Y-32080687D01*
X60239804Y-32093000D01*
X60156196Y-32093000D01*
X60031177Y-32080687D01*
X59870758Y-32032024D01*
X59722924Y-31953005D01*
X59722922Y-31953004D01*
X59593341Y-31846659D01*
X59486996Y-31717078D01*
X59478886Y-31701906D01*
X59407976Y-31569242D01*
X59359313Y-31408823D01*
X59342883Y-31242000D01*
X59359313Y-31075177D01*
X59407976Y-30914758D01*
X59486995Y-30766924D01*
X59486996Y-30766922D01*
X59593341Y-30637341D01*
X59722922Y-30530996D01*
X59738094Y-30522886D01*
X59870758Y-30451976D01*
X60031177Y-30403313D01*
X60156196Y-30391000D01*
X60239804Y-30391000D01*
X60364823Y-30403313D01*
X60364823Y-30403313D01*
G37*
G36*
X63240228Y-30423703D02*
G01*
X63395100Y-30487853D01*
X63534481Y-30580985D01*
X63653015Y-30699519D01*
X63746147Y-30838900D01*
X63810297Y-30993772D01*
X63843000Y-31158184D01*
X63843000Y-31325816D01*
X63810297Y-31490228D01*
X63746147Y-31645100D01*
X63653015Y-31784481D01*
X63534481Y-31903015D01*
X63395100Y-31996147D01*
X63240228Y-32060297D01*
X63075816Y-32093000D01*
X62908184Y-32093000D01*
X62743772Y-32060297D01*
X62588900Y-31996147D01*
X62449519Y-31903015D01*
X62330985Y-31784481D01*
X62237853Y-31645100D01*
X62173703Y-31490228D01*
X62141000Y-31325816D01*
X62141000Y-31158184D01*
X62173703Y-30993772D01*
X62237853Y-30838900D01*
X62330985Y-30699519D01*
X62449519Y-30580985D01*
X62588900Y-30487853D01*
X62743772Y-30423703D01*
X62908184Y-30391000D01*
X63075816Y-30391000D01*
X63240228Y-30423703D01*
X63240228Y-30423703D01*
G37*
G36*
X52744823Y-30403313D02*
G01*
X52905242Y-30451976D01*
X53037906Y-30522886D01*
X53053078Y-30530996D01*
X53182659Y-30637341D01*
X53289004Y-30766922D01*
X53289005Y-30766924D01*
X53368024Y-30914758D01*
X53416687Y-31075177D01*
X53433117Y-31242000D01*
X53416687Y-31408823D01*
X53368024Y-31569242D01*
X53297114Y-31701906D01*
X53289004Y-31717078D01*
X53182659Y-31846659D01*
X53053078Y-31953004D01*
X53053076Y-31953005D01*
X52905242Y-32032024D01*
X52744823Y-32080687D01*
X52619804Y-32093000D01*
X52536196Y-32093000D01*
X52411177Y-32080687D01*
X52250758Y-32032024D01*
X52102924Y-31953005D01*
X52102922Y-31953004D01*
X51973341Y-31846659D01*
X51866996Y-31717078D01*
X51858886Y-31701906D01*
X51787976Y-31569242D01*
X51739313Y-31408823D01*
X51722883Y-31242000D01*
X51739313Y-31075177D01*
X51787976Y-30914758D01*
X51866995Y-30766924D01*
X51866996Y-30766922D01*
X51973341Y-30637341D01*
X52102922Y-30530996D01*
X52118094Y-30522886D01*
X52250758Y-30451976D01*
X52411177Y-30403313D01*
X52536196Y-30391000D01*
X52619804Y-30391000D01*
X52744823Y-30403313D01*
X52744823Y-30403313D01*
G37*
G36*
X70778823Y-30403313D02*
G01*
X70939242Y-30451976D01*
X71071906Y-30522886D01*
X71087078Y-30530996D01*
X71216659Y-30637341D01*
X71323004Y-30766922D01*
X71323005Y-30766924D01*
X71402024Y-30914758D01*
X71450687Y-31075177D01*
X71467117Y-31242000D01*
X71450687Y-31408823D01*
X71402024Y-31569242D01*
X71331114Y-31701906D01*
X71323004Y-31717078D01*
X71216659Y-31846659D01*
X71087078Y-31953004D01*
X71087076Y-31953005D01*
X70939242Y-32032024D01*
X70778823Y-32080687D01*
X70653804Y-32093000D01*
X70570196Y-32093000D01*
X70445177Y-32080687D01*
X70284758Y-32032024D01*
X70136924Y-31953005D01*
X70136922Y-31953004D01*
X70007341Y-31846659D01*
X69900996Y-31717078D01*
X69892886Y-31701906D01*
X69821976Y-31569242D01*
X69773313Y-31408823D01*
X69756883Y-31242000D01*
X69773313Y-31075177D01*
X69821976Y-30914758D01*
X69900995Y-30766924D01*
X69900996Y-30766922D01*
X70007341Y-30637341D01*
X70136922Y-30530996D01*
X70152094Y-30522886D01*
X70284758Y-30451976D01*
X70445177Y-30403313D01*
X70570196Y-30391000D01*
X70653804Y-30391000D01*
X70778823Y-30403313D01*
X70778823Y-30403313D01*
G37*
G36*
X44586367Y-30228643D02*
G01*
X44741239Y-30292793D01*
X44880620Y-30385925D01*
X44999154Y-30504459D01*
X45092286Y-30643840D01*
X45156436Y-30798712D01*
X45189139Y-30963124D01*
X45189139Y-31130756D01*
X45156436Y-31295168D01*
X45092286Y-31450040D01*
X44999154Y-31589421D01*
X44880620Y-31707955D01*
X44741239Y-31801087D01*
X44586367Y-31865237D01*
X44421955Y-31897940D01*
X44254323Y-31897940D01*
X44089911Y-31865237D01*
X43935039Y-31801087D01*
X43795658Y-31707955D01*
X43677124Y-31589421D01*
X43583992Y-31450040D01*
X43519842Y-31295168D01*
X43487139Y-31130756D01*
X43487139Y-30963124D01*
X43519842Y-30798712D01*
X43583992Y-30643840D01*
X43677124Y-30504459D01*
X43795658Y-30385925D01*
X43935039Y-30292793D01*
X44089911Y-30228643D01*
X44254323Y-30195940D01*
X44421955Y-30195940D01*
X44586367Y-30228643D01*
X44586367Y-30228643D01*
G37*
G36*
X21883823Y-29463513D02*
G01*
X22044242Y-29512176D01*
X22120618Y-29553000D01*
X22192078Y-29591196D01*
X22321659Y-29697541D01*
X22428004Y-29827122D01*
X22428005Y-29827124D01*
X22507024Y-29974958D01*
X22555687Y-30135377D01*
X22572117Y-30302200D01*
X22555687Y-30469023D01*
X22507024Y-30629442D01*
X22499328Y-30643840D01*
X22428004Y-30777278D01*
X22321659Y-30906859D01*
X22192078Y-31013204D01*
X22192076Y-31013205D01*
X22044242Y-31092224D01*
X21883823Y-31140887D01*
X21758804Y-31153200D01*
X21675196Y-31153200D01*
X21550177Y-31140887D01*
X21389758Y-31092224D01*
X21241924Y-31013205D01*
X21241922Y-31013204D01*
X21112341Y-30906859D01*
X21005996Y-30777278D01*
X20934672Y-30643840D01*
X20926976Y-30629442D01*
X20878313Y-30469023D01*
X20861883Y-30302200D01*
X20878313Y-30135377D01*
X20926976Y-29974958D01*
X21005995Y-29827124D01*
X21005996Y-29827122D01*
X21112341Y-29697541D01*
X21241922Y-29591196D01*
X21313382Y-29553000D01*
X21389758Y-29512176D01*
X21550177Y-29463513D01*
X21675196Y-29451200D01*
X21758804Y-29451200D01*
X21883823Y-29463513D01*
X21883823Y-29463513D01*
G37*
G36*
X18333028Y-29327703D02*
G01*
X18487900Y-29391853D01*
X18627281Y-29484985D01*
X18745815Y-29603519D01*
X18838947Y-29742900D01*
X18903097Y-29897772D01*
X18935800Y-30062184D01*
X18935800Y-30229816D01*
X18903097Y-30394228D01*
X18838947Y-30549100D01*
X18745815Y-30688481D01*
X18627281Y-30807015D01*
X18487900Y-30900147D01*
X18333028Y-30964297D01*
X18168616Y-30997000D01*
X18000984Y-30997000D01*
X17836572Y-30964297D01*
X17681700Y-30900147D01*
X17542319Y-30807015D01*
X17423785Y-30688481D01*
X17330653Y-30549100D01*
X17266503Y-30394228D01*
X17233800Y-30229816D01*
X17233800Y-30062184D01*
X17266503Y-29897772D01*
X17330653Y-29742900D01*
X17423785Y-29603519D01*
X17542319Y-29484985D01*
X17681700Y-29391853D01*
X17836572Y-29327703D01*
X18000984Y-29295000D01*
X18168616Y-29295000D01*
X18333028Y-29327703D01*
X18333028Y-29327703D01*
G37*
G36*
X39785937Y-28869540D02*
G01*
X39946356Y-28918203D01*
X40009576Y-28951995D01*
X40094192Y-28997223D01*
X40223773Y-29103568D01*
X40330118Y-29233149D01*
X40330119Y-29233151D01*
X40409138Y-29380985D01*
X40409139Y-29380988D01*
X40412435Y-29391853D01*
X40457801Y-29541404D01*
X40474231Y-29708227D01*
X40457801Y-29875050D01*
X40409138Y-30035469D01*
X40355737Y-30135375D01*
X40330118Y-30183305D01*
X40223773Y-30312886D01*
X40094192Y-30419231D01*
X40094190Y-30419232D01*
X39946356Y-30498251D01*
X39785937Y-30546914D01*
X39660918Y-30559227D01*
X39577310Y-30559227D01*
X39452291Y-30546914D01*
X39291872Y-30498251D01*
X39144038Y-30419232D01*
X39144036Y-30419231D01*
X39014455Y-30312886D01*
X38908110Y-30183305D01*
X38882491Y-30135375D01*
X38829090Y-30035469D01*
X38780427Y-29875050D01*
X38763997Y-29708227D01*
X38780427Y-29541404D01*
X38825793Y-29391853D01*
X38829089Y-29380988D01*
X38829090Y-29380985D01*
X38908109Y-29233151D01*
X38908110Y-29233149D01*
X39014455Y-29103568D01*
X39144036Y-28997223D01*
X39228652Y-28951995D01*
X39291872Y-28918203D01*
X39452291Y-28869540D01*
X39577310Y-28857227D01*
X39660918Y-28857227D01*
X39785937Y-28869540D01*
X39785937Y-28869540D01*
G37*
G36*
X47364577Y-28557254D02*
G01*
X47495134Y-28596858D01*
X47508837Y-28601015D01*
X47524996Y-28605917D01*
X47657660Y-28676827D01*
X47672832Y-28684937D01*
X47802413Y-28791282D01*
X47908758Y-28920863D01*
X47908759Y-28920865D01*
X47987778Y-29068699D01*
X48036441Y-29229118D01*
X48052871Y-29395941D01*
X48036441Y-29562764D01*
X47987778Y-29723183D01*
X47932221Y-29827122D01*
X47908758Y-29871019D01*
X47802413Y-30000600D01*
X47672832Y-30106945D01*
X47672830Y-30106946D01*
X47524996Y-30185965D01*
X47364577Y-30234628D01*
X47239558Y-30246941D01*
X47155950Y-30246941D01*
X47030931Y-30234628D01*
X46870512Y-30185965D01*
X46722678Y-30106946D01*
X46722676Y-30106945D01*
X46593095Y-30000600D01*
X46486750Y-29871019D01*
X46463287Y-29827122D01*
X46407730Y-29723183D01*
X46359067Y-29562764D01*
X46342637Y-29395941D01*
X46359067Y-29229118D01*
X46407730Y-29068699D01*
X46486749Y-28920865D01*
X46486750Y-28920863D01*
X46593095Y-28791282D01*
X46722676Y-28684937D01*
X46737848Y-28676827D01*
X46870512Y-28605917D01*
X46886672Y-28601015D01*
X46900374Y-28596858D01*
X47030931Y-28557254D01*
X47155950Y-28544941D01*
X47239558Y-28544941D01*
X47364577Y-28557254D01*
X47364577Y-28557254D01*
G37*
G36*
X75646480Y-30053480D02*
G01*
X73045120Y-30053480D01*
X73045120Y-27452120D01*
X75646480Y-27452120D01*
X75646480Y-30053480D01*
X75646480Y-30053480D01*
G37*
G36*
X78535193Y-27502104D02*
G01*
X78771901Y-27600152D01*
X78771903Y-27600153D01*
X78984935Y-27742496D01*
X79166104Y-27923665D01*
X79308447Y-28136697D01*
X79308448Y-28136699D01*
X79406496Y-28373407D01*
X79456480Y-28624693D01*
X79456480Y-28880907D01*
X79406496Y-29132193D01*
X79325513Y-29327703D01*
X79308447Y-29368903D01*
X79166104Y-29581935D01*
X78984935Y-29763104D01*
X78771903Y-29905447D01*
X78771902Y-29905448D01*
X78771901Y-29905448D01*
X78535193Y-30003496D01*
X78283907Y-30053480D01*
X78027693Y-30053480D01*
X77776407Y-30003496D01*
X77539699Y-29905448D01*
X77539698Y-29905448D01*
X77539697Y-29905447D01*
X77326665Y-29763104D01*
X77145496Y-29581935D01*
X77003153Y-29368903D01*
X76986087Y-29327703D01*
X76905104Y-29132193D01*
X76855120Y-28880907D01*
X76855120Y-28624693D01*
X76905104Y-28373407D01*
X77003152Y-28136699D01*
X77003153Y-28136697D01*
X77145496Y-27923665D01*
X77326665Y-27742496D01*
X77539697Y-27600153D01*
X77539699Y-27600152D01*
X77776407Y-27502104D01*
X78027693Y-27452120D01*
X78283907Y-27452120D01*
X78535193Y-27502104D01*
X78535193Y-27502104D01*
G37*
G36*
X30646823Y-28280131D02*
G01*
X30807242Y-28328794D01*
X30893240Y-28374761D01*
X30955078Y-28407814D01*
X31084659Y-28514159D01*
X31191004Y-28643740D01*
X31191005Y-28643742D01*
X31270024Y-28791576D01*
X31318687Y-28951995D01*
X31335117Y-29118818D01*
X31318687Y-29285641D01*
X31270024Y-29446060D01*
X31212863Y-29553000D01*
X31191004Y-29593896D01*
X31084659Y-29723477D01*
X30955078Y-29829822D01*
X30955076Y-29829823D01*
X30807242Y-29908842D01*
X30646823Y-29957505D01*
X30521804Y-29969818D01*
X30438196Y-29969818D01*
X30313177Y-29957505D01*
X30152758Y-29908842D01*
X30004924Y-29829823D01*
X30004922Y-29829822D01*
X29875341Y-29723477D01*
X29768996Y-29593896D01*
X29747137Y-29553000D01*
X29689976Y-29446060D01*
X29641313Y-29285641D01*
X29624883Y-29118818D01*
X29641313Y-28951995D01*
X29689976Y-28791576D01*
X29768995Y-28643742D01*
X29768996Y-28643740D01*
X29875341Y-28514159D01*
X30004922Y-28407814D01*
X30066760Y-28374761D01*
X30152758Y-28328794D01*
X30313177Y-28280131D01*
X30438196Y-28267818D01*
X30521804Y-28267818D01*
X30646823Y-28280131D01*
X30646823Y-28280131D01*
G37*
G36*
X60364823Y-27863313D02*
G01*
X60525242Y-27911976D01*
X60657906Y-27982886D01*
X60673078Y-27990996D01*
X60802659Y-28097341D01*
X60909004Y-28226922D01*
X60909005Y-28226924D01*
X60988024Y-28374758D01*
X61036687Y-28535177D01*
X61053117Y-28702000D01*
X61036687Y-28868823D01*
X60988024Y-29029242D01*
X60932995Y-29132193D01*
X60909004Y-29177078D01*
X60802659Y-29306659D01*
X60673078Y-29413004D01*
X60673076Y-29413005D01*
X60525242Y-29492024D01*
X60364823Y-29540687D01*
X60239804Y-29553000D01*
X60156196Y-29553000D01*
X60031177Y-29540687D01*
X59870758Y-29492024D01*
X59722924Y-29413005D01*
X59722922Y-29413004D01*
X59593341Y-29306659D01*
X59486996Y-29177078D01*
X59463005Y-29132193D01*
X59407976Y-29029242D01*
X59359313Y-28868823D01*
X59342883Y-28702000D01*
X59359313Y-28535177D01*
X59407976Y-28374758D01*
X59486995Y-28226924D01*
X59486996Y-28226922D01*
X59593341Y-28097341D01*
X59722922Y-27990996D01*
X59738094Y-27982886D01*
X59870758Y-27911976D01*
X60031177Y-27863313D01*
X60156196Y-27851000D01*
X60239804Y-27851000D01*
X60364823Y-27863313D01*
X60364823Y-27863313D01*
G37*
G36*
X52744823Y-27863313D02*
G01*
X52905242Y-27911976D01*
X53037906Y-27982886D01*
X53053078Y-27990996D01*
X53182659Y-28097341D01*
X53289004Y-28226922D01*
X53289005Y-28226924D01*
X53368024Y-28374758D01*
X53416687Y-28535177D01*
X53433117Y-28702000D01*
X53416687Y-28868823D01*
X53368024Y-29029242D01*
X53312995Y-29132193D01*
X53289004Y-29177078D01*
X53182659Y-29306659D01*
X53053078Y-29413004D01*
X53053076Y-29413005D01*
X52905242Y-29492024D01*
X52744823Y-29540687D01*
X52619804Y-29553000D01*
X52536196Y-29553000D01*
X52411177Y-29540687D01*
X52250758Y-29492024D01*
X52102924Y-29413005D01*
X52102922Y-29413004D01*
X51973341Y-29306659D01*
X51866996Y-29177078D01*
X51843005Y-29132193D01*
X51787976Y-29029242D01*
X51739313Y-28868823D01*
X51722883Y-28702000D01*
X51739313Y-28535177D01*
X51787976Y-28374758D01*
X51866995Y-28226924D01*
X51866996Y-28226922D01*
X51973341Y-28097341D01*
X52102922Y-27990996D01*
X52118094Y-27982886D01*
X52250758Y-27911976D01*
X52411177Y-27863313D01*
X52536196Y-27851000D01*
X52619804Y-27851000D01*
X52744823Y-27863313D01*
X52744823Y-27863313D01*
G37*
G36*
X14898823Y-27863313D02*
G01*
X15059242Y-27911976D01*
X15191906Y-27982886D01*
X15207078Y-27990996D01*
X15336659Y-28097341D01*
X15443004Y-28226922D01*
X15443005Y-28226924D01*
X15522024Y-28374758D01*
X15570687Y-28535177D01*
X15587117Y-28702000D01*
X15570687Y-28868823D01*
X15522024Y-29029242D01*
X15466995Y-29132193D01*
X15443004Y-29177078D01*
X15336659Y-29306659D01*
X15207078Y-29413004D01*
X15207076Y-29413005D01*
X15059242Y-29492024D01*
X14898823Y-29540687D01*
X14773804Y-29553000D01*
X14690196Y-29553000D01*
X14565177Y-29540687D01*
X14404758Y-29492024D01*
X14256924Y-29413005D01*
X14256922Y-29413004D01*
X14127341Y-29306659D01*
X14020996Y-29177078D01*
X13997005Y-29132193D01*
X13941976Y-29029242D01*
X13893313Y-28868823D01*
X13876883Y-28702000D01*
X13893313Y-28535177D01*
X13941976Y-28374758D01*
X14020995Y-28226924D01*
X14020996Y-28226922D01*
X14127341Y-28097341D01*
X14256922Y-27990996D01*
X14272094Y-27982886D01*
X14404758Y-27911976D01*
X14565177Y-27863313D01*
X14690196Y-27851000D01*
X14773804Y-27851000D01*
X14898823Y-27863313D01*
X14898823Y-27863313D01*
G37*
G36*
X70778823Y-27101313D02*
G01*
X70939242Y-27149976D01*
X71006361Y-27185852D01*
X71087078Y-27228996D01*
X71216659Y-27335341D01*
X71323004Y-27464922D01*
X71323005Y-27464924D01*
X71402024Y-27612758D01*
X71450687Y-27773177D01*
X71467117Y-27940000D01*
X71450687Y-28106823D01*
X71402024Y-28267242D01*
X71344555Y-28374758D01*
X71323004Y-28415078D01*
X71216659Y-28544659D01*
X71087078Y-28651004D01*
X71087076Y-28651005D01*
X70939242Y-28730024D01*
X70778823Y-28778687D01*
X70653804Y-28791000D01*
X70570196Y-28791000D01*
X70445177Y-28778687D01*
X70284758Y-28730024D01*
X70136924Y-28651005D01*
X70136922Y-28651004D01*
X70007341Y-28544659D01*
X69900996Y-28415078D01*
X69879445Y-28374758D01*
X69821976Y-28267242D01*
X69773313Y-28106823D01*
X69756883Y-27940000D01*
X69773313Y-27773177D01*
X69821976Y-27612758D01*
X69900995Y-27464924D01*
X69900996Y-27464922D01*
X70007341Y-27335341D01*
X70136922Y-27228996D01*
X70217639Y-27185852D01*
X70284758Y-27149976D01*
X70445177Y-27101313D01*
X70570196Y-27089000D01*
X70653804Y-27089000D01*
X70778823Y-27101313D01*
X70778823Y-27101313D01*
G37*
G36*
X63240228Y-27121703D02*
G01*
X63395100Y-27185853D01*
X63534481Y-27278985D01*
X63653015Y-27397519D01*
X63746147Y-27536900D01*
X63810297Y-27691772D01*
X63843000Y-27856184D01*
X63843000Y-28023816D01*
X63810297Y-28188228D01*
X63746147Y-28343100D01*
X63653015Y-28482481D01*
X63534481Y-28601015D01*
X63395100Y-28694147D01*
X63240228Y-28758297D01*
X63075816Y-28791000D01*
X62908184Y-28791000D01*
X62743772Y-28758297D01*
X62588900Y-28694147D01*
X62449519Y-28601015D01*
X62330985Y-28482481D01*
X62237853Y-28343100D01*
X62173703Y-28188228D01*
X62141000Y-28023816D01*
X62141000Y-27856184D01*
X62173703Y-27691772D01*
X62237853Y-27536900D01*
X62330985Y-27397519D01*
X62449519Y-27278985D01*
X62588900Y-27185853D01*
X62743772Y-27121703D01*
X62908184Y-27089000D01*
X63075816Y-27089000D01*
X63240228Y-27121703D01*
X63240228Y-27121703D01*
G37*
G36*
X38515937Y-26669836D02*
G01*
X38676356Y-26718499D01*
X38757858Y-26762063D01*
X38824192Y-26797519D01*
X38953773Y-26903864D01*
X39060118Y-27033445D01*
X39060119Y-27033447D01*
X39139138Y-27181281D01*
X39187801Y-27341700D01*
X39204231Y-27508523D01*
X39187801Y-27675346D01*
X39139138Y-27835765D01*
X39098403Y-27911975D01*
X39060118Y-27983601D01*
X38953773Y-28113182D01*
X38824192Y-28219527D01*
X38824190Y-28219528D01*
X38676356Y-28298547D01*
X38515937Y-28347210D01*
X38390918Y-28359523D01*
X38307310Y-28359523D01*
X38182291Y-28347210D01*
X38021872Y-28298547D01*
X37874038Y-28219528D01*
X37874036Y-28219527D01*
X37744455Y-28113182D01*
X37638110Y-27983601D01*
X37599825Y-27911975D01*
X37559090Y-27835765D01*
X37510427Y-27675346D01*
X37493997Y-27508523D01*
X37510427Y-27341700D01*
X37559090Y-27181281D01*
X37638109Y-27033447D01*
X37638110Y-27033445D01*
X37744455Y-26903864D01*
X37874036Y-26797519D01*
X37940370Y-26762063D01*
X38021872Y-26718499D01*
X38182291Y-26669836D01*
X38307310Y-26657523D01*
X38390918Y-26657523D01*
X38515937Y-26669836D01*
X38515937Y-26669836D01*
G37*
G36*
X25312823Y-26090199D02*
G01*
X25473242Y-26138862D01*
X25534490Y-26171600D01*
X25621078Y-26217882D01*
X25750659Y-26324227D01*
X25857004Y-26453808D01*
X25857005Y-26453810D01*
X25936024Y-26601644D01*
X25984687Y-26762063D01*
X26001117Y-26928886D01*
X25984687Y-27095709D01*
X25936024Y-27256128D01*
X25890286Y-27341698D01*
X25857004Y-27403964D01*
X25750659Y-27533545D01*
X25621078Y-27639890D01*
X25621076Y-27639891D01*
X25473242Y-27718910D01*
X25312823Y-27767573D01*
X25187804Y-27779886D01*
X25104196Y-27779886D01*
X24979177Y-27767573D01*
X24818758Y-27718910D01*
X24670924Y-27639891D01*
X24670922Y-27639890D01*
X24541341Y-27533545D01*
X24434996Y-27403964D01*
X24401714Y-27341698D01*
X24355976Y-27256128D01*
X24307313Y-27095709D01*
X24290883Y-26928886D01*
X24307313Y-26762063D01*
X24355976Y-26601644D01*
X24434995Y-26453810D01*
X24434996Y-26453808D01*
X24541341Y-26324227D01*
X24670922Y-26217882D01*
X24757510Y-26171600D01*
X24818758Y-26138862D01*
X24979177Y-26090199D01*
X25104196Y-26077886D01*
X25187804Y-26077886D01*
X25312823Y-26090199D01*
X25312823Y-26090199D01*
G37*
G36*
X29376823Y-26080427D02*
G01*
X29537242Y-26129090D01*
X29669906Y-26200000D01*
X29685078Y-26208110D01*
X29814659Y-26314455D01*
X29921004Y-26444036D01*
X29921005Y-26444038D01*
X30000024Y-26591872D01*
X30048687Y-26752291D01*
X30065117Y-26919114D01*
X30048687Y-27085937D01*
X30000024Y-27246356D01*
X29929114Y-27379020D01*
X29921004Y-27394192D01*
X29814659Y-27523773D01*
X29685078Y-27630118D01*
X29685076Y-27630119D01*
X29537242Y-27709138D01*
X29376823Y-27757801D01*
X29251804Y-27770114D01*
X29168196Y-27770114D01*
X29043177Y-27757801D01*
X28882758Y-27709138D01*
X28734924Y-27630119D01*
X28734922Y-27630118D01*
X28605341Y-27523773D01*
X28498996Y-27394192D01*
X28490886Y-27379020D01*
X28419976Y-27246356D01*
X28371313Y-27085937D01*
X28354883Y-26919114D01*
X28371313Y-26752291D01*
X28419976Y-26591872D01*
X28498995Y-26444038D01*
X28498996Y-26444036D01*
X28605341Y-26314455D01*
X28734922Y-26208110D01*
X28750094Y-26200000D01*
X28882758Y-26129090D01*
X29043177Y-26080427D01*
X29168196Y-26068114D01*
X29251804Y-26068114D01*
X29376823Y-26080427D01*
X29376823Y-26080427D01*
G37*
G36*
X60364823Y-25323313D02*
G01*
X60525242Y-25371976D01*
X60657906Y-25442886D01*
X60673078Y-25450996D01*
X60802659Y-25557341D01*
X60909004Y-25686922D01*
X60909005Y-25686924D01*
X60988024Y-25834758D01*
X61036687Y-25995177D01*
X61053117Y-26162000D01*
X61036687Y-26328823D01*
X60988024Y-26489242D01*
X60933167Y-26591872D01*
X60909004Y-26637078D01*
X60802659Y-26766659D01*
X60673078Y-26873004D01*
X60673076Y-26873005D01*
X60525242Y-26952024D01*
X60525239Y-26952025D01*
X60495380Y-26961083D01*
X60364823Y-27000687D01*
X60239804Y-27013000D01*
X60156196Y-27013000D01*
X60031177Y-27000687D01*
X59900620Y-26961083D01*
X59870761Y-26952025D01*
X59870758Y-26952024D01*
X59722924Y-26873005D01*
X59722922Y-26873004D01*
X59593341Y-26766659D01*
X59486996Y-26637078D01*
X59462833Y-26591872D01*
X59407976Y-26489242D01*
X59359313Y-26328823D01*
X59342883Y-26162000D01*
X59359313Y-25995177D01*
X59407976Y-25834758D01*
X59486995Y-25686924D01*
X59486996Y-25686922D01*
X59593341Y-25557341D01*
X59722922Y-25450996D01*
X59738094Y-25442886D01*
X59870758Y-25371976D01*
X60031177Y-25323313D01*
X60156196Y-25311000D01*
X60239804Y-25311000D01*
X60364823Y-25323313D01*
X60364823Y-25323313D01*
G37*
G36*
X52744823Y-25323313D02*
G01*
X52905242Y-25371976D01*
X53037906Y-25442886D01*
X53053078Y-25450996D01*
X53182659Y-25557341D01*
X53289004Y-25686922D01*
X53289005Y-25686924D01*
X53368024Y-25834758D01*
X53416687Y-25995177D01*
X53433117Y-26162000D01*
X53416687Y-26328823D01*
X53368024Y-26489242D01*
X53313167Y-26591872D01*
X53289004Y-26637078D01*
X53182659Y-26766659D01*
X53053078Y-26873004D01*
X53053076Y-26873005D01*
X52905242Y-26952024D01*
X52905239Y-26952025D01*
X52875380Y-26961083D01*
X52744823Y-27000687D01*
X52619804Y-27013000D01*
X52536196Y-27013000D01*
X52411177Y-27000687D01*
X52280620Y-26961083D01*
X52250761Y-26952025D01*
X52250758Y-26952024D01*
X52102924Y-26873005D01*
X52102922Y-26873004D01*
X51973341Y-26766659D01*
X51866996Y-26637078D01*
X51842833Y-26591872D01*
X51787976Y-26489242D01*
X51739313Y-26328823D01*
X51722883Y-26162000D01*
X51739313Y-25995177D01*
X51787976Y-25834758D01*
X51866995Y-25686924D01*
X51866996Y-25686922D01*
X51973341Y-25557341D01*
X52102922Y-25450996D01*
X52118094Y-25442886D01*
X52250758Y-25371976D01*
X52411177Y-25323313D01*
X52536196Y-25311000D01*
X52619804Y-25311000D01*
X52744823Y-25323313D01*
X52744823Y-25323313D01*
G37*
G36*
X15111393Y-24403304D02*
G01*
X15348101Y-24501352D01*
X15348103Y-24501353D01*
X15561135Y-24643696D01*
X15742304Y-24824865D01*
X15859394Y-25000103D01*
X15884648Y-25037899D01*
X15982696Y-25274607D01*
X16032680Y-25525893D01*
X16032680Y-25782107D01*
X15982696Y-26033393D01*
X15906278Y-26217881D01*
X15884647Y-26270103D01*
X15742304Y-26483135D01*
X15561135Y-26664304D01*
X15348103Y-26806647D01*
X15348102Y-26806648D01*
X15348101Y-26806648D01*
X15111393Y-26904696D01*
X14860107Y-26954680D01*
X14603893Y-26954680D01*
X14352607Y-26904696D01*
X14115899Y-26806648D01*
X14115898Y-26806648D01*
X14115897Y-26806647D01*
X13902865Y-26664304D01*
X13721696Y-26483135D01*
X13579353Y-26270103D01*
X13557722Y-26217881D01*
X13481304Y-26033393D01*
X13431320Y-25782107D01*
X13431320Y-25525893D01*
X13481304Y-25274607D01*
X13579352Y-25037899D01*
X13604606Y-25000103D01*
X13721696Y-24824865D01*
X13902865Y-24643696D01*
X14115897Y-24501353D01*
X14115899Y-24501352D01*
X14352607Y-24403304D01*
X14603893Y-24353320D01*
X14860107Y-24353320D01*
X15111393Y-24403304D01*
X15111393Y-24403304D01*
G37*
G36*
X50149200Y-26171600D02*
G01*
X48047200Y-26171600D01*
X48047200Y-24069600D01*
X50149200Y-24069600D01*
X50149200Y-26171600D01*
X50149200Y-26171600D01*
G37*
G36*
X37245937Y-24470131D02*
G01*
X37406356Y-24518794D01*
X37469576Y-24552586D01*
X37554192Y-24597814D01*
X37683773Y-24704159D01*
X37790118Y-24833740D01*
X37790119Y-24833742D01*
X37869138Y-24981576D01*
X37917801Y-25141995D01*
X37934231Y-25308818D01*
X37917801Y-25475641D01*
X37869138Y-25636060D01*
X37841119Y-25688480D01*
X37790118Y-25783896D01*
X37683773Y-25913477D01*
X37554192Y-26019822D01*
X37554190Y-26019823D01*
X37406356Y-26098842D01*
X37245937Y-26147505D01*
X37120918Y-26159818D01*
X37037310Y-26159818D01*
X36912291Y-26147505D01*
X36751872Y-26098842D01*
X36604038Y-26019823D01*
X36604036Y-26019822D01*
X36474455Y-25913477D01*
X36368110Y-25783896D01*
X36317109Y-25688480D01*
X36289090Y-25636060D01*
X36240427Y-25475641D01*
X36223997Y-25308818D01*
X36240427Y-25141995D01*
X36289090Y-24981576D01*
X36368109Y-24833742D01*
X36368110Y-24833740D01*
X36474455Y-24704159D01*
X36604036Y-24597814D01*
X36688652Y-24552586D01*
X36751872Y-24518794D01*
X36912291Y-24470131D01*
X37037310Y-24457818D01*
X37120918Y-24457818D01*
X37245937Y-24470131D01*
X37245937Y-24470131D01*
G37*
G36*
X18333028Y-24327703D02*
G01*
X18487900Y-24391853D01*
X18627281Y-24484985D01*
X18745815Y-24603519D01*
X18838947Y-24742900D01*
X18903097Y-24897772D01*
X18935800Y-25062184D01*
X18935800Y-25229816D01*
X18903097Y-25394228D01*
X18838947Y-25549100D01*
X18745815Y-25688481D01*
X18627281Y-25807015D01*
X18487900Y-25900147D01*
X18333028Y-25964297D01*
X18168616Y-25997000D01*
X18000984Y-25997000D01*
X17836572Y-25964297D01*
X17681700Y-25900147D01*
X17542319Y-25807015D01*
X17423785Y-25688481D01*
X17330653Y-25549100D01*
X17266503Y-25394228D01*
X17233800Y-25229816D01*
X17233800Y-25062184D01*
X17266503Y-24897772D01*
X17330653Y-24742900D01*
X17423785Y-24603519D01*
X17542319Y-24484985D01*
X17681700Y-24391853D01*
X17836572Y-24327703D01*
X18000984Y-24295000D01*
X18168616Y-24295000D01*
X18333028Y-24327703D01*
X18333028Y-24327703D01*
G37*
G36*
X64133393Y-23133304D02*
G01*
X64368551Y-23230710D01*
X64370103Y-23231353D01*
X64583135Y-23373696D01*
X64764304Y-23554865D01*
X64885883Y-23736822D01*
X64906648Y-23767899D01*
X65004696Y-24004607D01*
X65054680Y-24255893D01*
X65054680Y-24512107D01*
X65004696Y-24763393D01*
X64949034Y-24897772D01*
X64906647Y-25000103D01*
X64764304Y-25213135D01*
X64583135Y-25394304D01*
X64370103Y-25536647D01*
X64370102Y-25536648D01*
X64370101Y-25536648D01*
X64133393Y-25634696D01*
X63882107Y-25684680D01*
X63625893Y-25684680D01*
X63374607Y-25634696D01*
X63137899Y-25536648D01*
X63137898Y-25536648D01*
X63137897Y-25536647D01*
X62924865Y-25394304D01*
X62743696Y-25213135D01*
X62601353Y-25000103D01*
X62558966Y-24897772D01*
X62503304Y-24763393D01*
X62453320Y-24512107D01*
X62453320Y-24255893D01*
X62503304Y-24004607D01*
X62601352Y-23767899D01*
X62622117Y-23736822D01*
X62743696Y-23554865D01*
X62924865Y-23373696D01*
X63137897Y-23231353D01*
X63139449Y-23230710D01*
X63374607Y-23133304D01*
X63625893Y-23083320D01*
X63882107Y-23083320D01*
X64133393Y-23133304D01*
X64133393Y-23133304D01*
G37*
G36*
X28106823Y-23880722D02*
G01*
X28267242Y-23929385D01*
X28348368Y-23972748D01*
X28415078Y-24008405D01*
X28544659Y-24114750D01*
X28651004Y-24244331D01*
X28659114Y-24259503D01*
X28730024Y-24392167D01*
X28778687Y-24552586D01*
X28795117Y-24719409D01*
X28778687Y-24886232D01*
X28730024Y-25046651D01*
X28670063Y-25158830D01*
X28651004Y-25194487D01*
X28544659Y-25324068D01*
X28415078Y-25430413D01*
X28415076Y-25430414D01*
X28267242Y-25509433D01*
X28106823Y-25558096D01*
X27981804Y-25570409D01*
X27898196Y-25570409D01*
X27773177Y-25558096D01*
X27612758Y-25509433D01*
X27464924Y-25430414D01*
X27464922Y-25430413D01*
X27335341Y-25324068D01*
X27228996Y-25194487D01*
X27209937Y-25158830D01*
X27149976Y-25046651D01*
X27101313Y-24886232D01*
X27084883Y-24719409D01*
X27101313Y-24552586D01*
X27149976Y-24392167D01*
X27220886Y-24259503D01*
X27228996Y-24244331D01*
X27335341Y-24114750D01*
X27464922Y-24008405D01*
X27531632Y-23972748D01*
X27612758Y-23929385D01*
X27773177Y-23880722D01*
X27898196Y-23868409D01*
X27981804Y-23868409D01*
X28106823Y-23880722D01*
X28106823Y-23880722D01*
G37*
G36*
X40694962Y-23609139D02*
G01*
X40855381Y-23657802D01*
X40960095Y-23713773D01*
X41003217Y-23736822D01*
X41132798Y-23843167D01*
X41239143Y-23972748D01*
X41239144Y-23972750D01*
X41318163Y-24120584D01*
X41366826Y-24281003D01*
X41383256Y-24447826D01*
X41366826Y-24614649D01*
X41318163Y-24775068D01*
X41258743Y-24886234D01*
X41239143Y-24922904D01*
X41132798Y-25052485D01*
X41003217Y-25158830D01*
X41003215Y-25158831D01*
X40855381Y-25237850D01*
X40694962Y-25286513D01*
X40569943Y-25298826D01*
X40486335Y-25298826D01*
X40361316Y-25286513D01*
X40200897Y-25237850D01*
X40053063Y-25158831D01*
X40053061Y-25158830D01*
X39923480Y-25052485D01*
X39817135Y-24922904D01*
X39797535Y-24886234D01*
X39738115Y-24775068D01*
X39689452Y-24614649D01*
X39673022Y-24447826D01*
X39689452Y-24281003D01*
X39738115Y-24120584D01*
X39817134Y-23972750D01*
X39817135Y-23972748D01*
X39923480Y-23843167D01*
X40053061Y-23736822D01*
X40096183Y-23713773D01*
X40200897Y-23657802D01*
X40361316Y-23609139D01*
X40486335Y-23596826D01*
X40569943Y-23596826D01*
X40694962Y-23609139D01*
X40694962Y-23609139D01*
G37*
G36*
X78422600Y-25006400D02*
G01*
X76720600Y-25006400D01*
X76720600Y-23304400D01*
X78422600Y-23304400D01*
X78422600Y-25006400D01*
X78422600Y-25006400D01*
G37*
G36*
X52744823Y-22783313D02*
G01*
X52905242Y-22831976D01*
X52996291Y-22880643D01*
X53053078Y-22910996D01*
X53182659Y-23017341D01*
X53289004Y-23146922D01*
X53289005Y-23146924D01*
X53368024Y-23294758D01*
X53416687Y-23455177D01*
X53433117Y-23622000D01*
X53416687Y-23788823D01*
X53388809Y-23880722D01*
X53368462Y-23947800D01*
X53368024Y-23949242D01*
X53303691Y-24069600D01*
X53289004Y-24097078D01*
X53182659Y-24226659D01*
X53053078Y-24333004D01*
X53053076Y-24333005D01*
X52905242Y-24412024D01*
X52744823Y-24460687D01*
X52619804Y-24473000D01*
X52536196Y-24473000D01*
X52411177Y-24460687D01*
X52250758Y-24412024D01*
X52102924Y-24333005D01*
X52102922Y-24333004D01*
X51973341Y-24226659D01*
X51866996Y-24097078D01*
X51852309Y-24069600D01*
X51787976Y-23949242D01*
X51787539Y-23947800D01*
X51767191Y-23880722D01*
X51739313Y-23788823D01*
X51722883Y-23622000D01*
X51739313Y-23455177D01*
X51787976Y-23294758D01*
X51866995Y-23146924D01*
X51866996Y-23146922D01*
X51973341Y-23017341D01*
X52102922Y-22910996D01*
X52159709Y-22880643D01*
X52250758Y-22831976D01*
X52411177Y-22783313D01*
X52536196Y-22771000D01*
X52619804Y-22771000D01*
X52744823Y-22783313D01*
X52744823Y-22783313D01*
G37*
G36*
X60364823Y-22783313D02*
G01*
X60525242Y-22831976D01*
X60616291Y-22880643D01*
X60673078Y-22910996D01*
X60802659Y-23017341D01*
X60909004Y-23146922D01*
X60909005Y-23146924D01*
X60988024Y-23294758D01*
X61036687Y-23455177D01*
X61053117Y-23622000D01*
X61036687Y-23788823D01*
X61008809Y-23880722D01*
X60988462Y-23947800D01*
X60988024Y-23949242D01*
X60923691Y-24069600D01*
X60909004Y-24097078D01*
X60802659Y-24226659D01*
X60673078Y-24333004D01*
X60673076Y-24333005D01*
X60525242Y-24412024D01*
X60364823Y-24460687D01*
X60239804Y-24473000D01*
X60156196Y-24473000D01*
X60031177Y-24460687D01*
X59870758Y-24412024D01*
X59722924Y-24333005D01*
X59722922Y-24333004D01*
X59593341Y-24226659D01*
X59486996Y-24097078D01*
X59472309Y-24069600D01*
X59407976Y-23949242D01*
X59407539Y-23947800D01*
X59387191Y-23880722D01*
X59359313Y-23788823D01*
X59342883Y-23622000D01*
X59359313Y-23455177D01*
X59407976Y-23294758D01*
X59486995Y-23146924D01*
X59486996Y-23146922D01*
X59593341Y-23017341D01*
X59722922Y-22910996D01*
X59779709Y-22880643D01*
X59870758Y-22831976D01*
X60031177Y-22783313D01*
X60156196Y-22771000D01*
X60239804Y-22771000D01*
X60364823Y-22783313D01*
X60364823Y-22783313D01*
G37*
G36*
X35975937Y-22270427D02*
G01*
X36136356Y-22319090D01*
X36199576Y-22352882D01*
X36284192Y-22398110D01*
X36413773Y-22504455D01*
X36520118Y-22634036D01*
X36520119Y-22634038D01*
X36599138Y-22781872D01*
X36599139Y-22781875D01*
X36608197Y-22811734D01*
X36647801Y-22942291D01*
X36664231Y-23109114D01*
X36647801Y-23275937D01*
X36622788Y-23358392D01*
X36599141Y-23436348D01*
X36599138Y-23436356D01*
X36535793Y-23554866D01*
X36520118Y-23584192D01*
X36413773Y-23713773D01*
X36284192Y-23820118D01*
X36284190Y-23820119D01*
X36136356Y-23899138D01*
X35975937Y-23947801D01*
X35850918Y-23960114D01*
X35767310Y-23960114D01*
X35642291Y-23947801D01*
X35481872Y-23899138D01*
X35334038Y-23820119D01*
X35334036Y-23820118D01*
X35204455Y-23713773D01*
X35098110Y-23584192D01*
X35082435Y-23554866D01*
X35019090Y-23436356D01*
X35019088Y-23436348D01*
X34995440Y-23358392D01*
X34970427Y-23275937D01*
X34953997Y-23109114D01*
X34970427Y-22942291D01*
X35010031Y-22811734D01*
X35019089Y-22781875D01*
X35019090Y-22781872D01*
X35098109Y-22634038D01*
X35098110Y-22634036D01*
X35204455Y-22504455D01*
X35334036Y-22398110D01*
X35418652Y-22352882D01*
X35481872Y-22319090D01*
X35642291Y-22270427D01*
X35767310Y-22258114D01*
X35850918Y-22258114D01*
X35975937Y-22270427D01*
X35975937Y-22270427D01*
G37*
G36*
X43635982Y-21978530D02*
G01*
X43790854Y-22042680D01*
X43930235Y-22135812D01*
X44048769Y-22254346D01*
X44141901Y-22393727D01*
X44206051Y-22548599D01*
X44238754Y-22713011D01*
X44238754Y-22880643D01*
X44206051Y-23045055D01*
X44141901Y-23199927D01*
X44048769Y-23339308D01*
X43930235Y-23457842D01*
X43790854Y-23550974D01*
X43635982Y-23615124D01*
X43471570Y-23647827D01*
X43303938Y-23647827D01*
X43139526Y-23615124D01*
X42984654Y-23550974D01*
X42845273Y-23457842D01*
X42726739Y-23339308D01*
X42633607Y-23199927D01*
X42569457Y-23045055D01*
X42536754Y-22880643D01*
X42536754Y-22713011D01*
X42569457Y-22548599D01*
X42633607Y-22393727D01*
X42726739Y-22254346D01*
X42845273Y-22135812D01*
X42984654Y-22042680D01*
X43139526Y-21978530D01*
X43303938Y-21945827D01*
X43471570Y-21945827D01*
X43635982Y-21978530D01*
X43635982Y-21978530D01*
G37*
G36*
X21965228Y-21863903D02*
G01*
X22120100Y-21928053D01*
X22259481Y-22021185D01*
X22378015Y-22139719D01*
X22471147Y-22279100D01*
X22535297Y-22433972D01*
X22568000Y-22598384D01*
X22568000Y-22766016D01*
X22535297Y-22930428D01*
X22471147Y-23085300D01*
X22378015Y-23224681D01*
X22259481Y-23343215D01*
X22120100Y-23436347D01*
X21965228Y-23500497D01*
X21800816Y-23533200D01*
X21633184Y-23533200D01*
X21468772Y-23500497D01*
X21313900Y-23436347D01*
X21174519Y-23343215D01*
X21055985Y-23224681D01*
X20962853Y-23085300D01*
X20898703Y-22930428D01*
X20866000Y-22766016D01*
X20866000Y-22598384D01*
X20898703Y-22433972D01*
X20962853Y-22279100D01*
X21055985Y-22139719D01*
X21174519Y-22021185D01*
X21313900Y-21928053D01*
X21468772Y-21863903D01*
X21633184Y-21831200D01*
X21800816Y-21831200D01*
X21965228Y-21863903D01*
X21965228Y-21863903D01*
G37*
G36*
X26836823Y-21681018D02*
G01*
X26997242Y-21729681D01*
X27110779Y-21790368D01*
X27145078Y-21808701D01*
X27274659Y-21915046D01*
X27381004Y-22044627D01*
X27381005Y-22044629D01*
X27460024Y-22192463D01*
X27460025Y-22192466D01*
X27463048Y-22202432D01*
X27508687Y-22352882D01*
X27525117Y-22519705D01*
X27508687Y-22686528D01*
X27460024Y-22846947D01*
X27393131Y-22972094D01*
X27381004Y-22994783D01*
X27274659Y-23124364D01*
X27145078Y-23230709D01*
X27145076Y-23230710D01*
X26997242Y-23309729D01*
X26836823Y-23358392D01*
X26711804Y-23370705D01*
X26628196Y-23370705D01*
X26503177Y-23358392D01*
X26342758Y-23309729D01*
X26194924Y-23230710D01*
X26194922Y-23230709D01*
X26065341Y-23124364D01*
X25958996Y-22994783D01*
X25946869Y-22972094D01*
X25879976Y-22846947D01*
X25831313Y-22686528D01*
X25814883Y-22519705D01*
X25831313Y-22352882D01*
X25876952Y-22202432D01*
X25879975Y-22192466D01*
X25879976Y-22192463D01*
X25958995Y-22044629D01*
X25958996Y-22044627D01*
X26065341Y-21915046D01*
X26194922Y-21808701D01*
X26229221Y-21790368D01*
X26342758Y-21729681D01*
X26503177Y-21681018D01*
X26628196Y-21668705D01*
X26711804Y-21668705D01*
X26836823Y-21681018D01*
X26836823Y-21681018D01*
G37*
G36*
X14665400Y-23047400D02*
G01*
X12563400Y-23047400D01*
X12563400Y-20945400D01*
X14665400Y-20945400D01*
X14665400Y-23047400D01*
X14665400Y-23047400D01*
G37*
G36*
X18797497Y-20950469D02*
G01*
X18900432Y-20960607D01*
X19084005Y-21016294D01*
X19098549Y-21020706D01*
X19195375Y-21072461D01*
X19281129Y-21118297D01*
X19441165Y-21249635D01*
X19572503Y-21409671D01*
X19611424Y-21482487D01*
X19670094Y-21592251D01*
X19670095Y-21592254D01*
X19730193Y-21790368D01*
X19750485Y-21996400D01*
X19730193Y-22202432D01*
X19672163Y-22393730D01*
X19670094Y-22400549D01*
X19652229Y-22433971D01*
X19572503Y-22583129D01*
X19441165Y-22743165D01*
X19281129Y-22874503D01*
X19212857Y-22910995D01*
X19098549Y-22972094D01*
X19098546Y-22972095D01*
X18900432Y-23032193D01*
X18797497Y-23042331D01*
X18746031Y-23047400D01*
X18642769Y-23047400D01*
X18591303Y-23042331D01*
X18488368Y-23032193D01*
X18290254Y-22972095D01*
X18290251Y-22972094D01*
X18175943Y-22910995D01*
X18107671Y-22874503D01*
X17947635Y-22743165D01*
X17816297Y-22583129D01*
X17736571Y-22433971D01*
X17718706Y-22400549D01*
X17716637Y-22393730D01*
X17658607Y-22202432D01*
X17638315Y-21996400D01*
X17658607Y-21790368D01*
X17718705Y-21592254D01*
X17718706Y-21592251D01*
X17777376Y-21482487D01*
X17816297Y-21409671D01*
X17947635Y-21249635D01*
X18107671Y-21118297D01*
X18193425Y-21072461D01*
X18290251Y-21020706D01*
X18304795Y-21016294D01*
X18488368Y-20960607D01*
X18591303Y-20950469D01*
X18642769Y-20945400D01*
X18746031Y-20945400D01*
X18797497Y-20950469D01*
X18797497Y-20950469D01*
G37*
G36*
X70827281Y-21071506D02*
G01*
X70887762Y-21089853D01*
X70963804Y-21112920D01*
X70987700Y-21120169D01*
X71105220Y-21182985D01*
X71135536Y-21199189D01*
X71265117Y-21305534D01*
X71371462Y-21435115D01*
X71371463Y-21435117D01*
X71450482Y-21582951D01*
X71499145Y-21743370D01*
X71515575Y-21910193D01*
X71499145Y-22077016D01*
X71450482Y-22237435D01*
X71428210Y-22279103D01*
X71371462Y-22385271D01*
X71265117Y-22514852D01*
X71135536Y-22621197D01*
X71135534Y-22621198D01*
X70987700Y-22700217D01*
X70827281Y-22748880D01*
X70702262Y-22761193D01*
X70618654Y-22761193D01*
X70493635Y-22748880D01*
X70333216Y-22700217D01*
X70185382Y-22621198D01*
X70185380Y-22621197D01*
X70055799Y-22514852D01*
X69949454Y-22385271D01*
X69892706Y-22279103D01*
X69870434Y-22237435D01*
X69821771Y-22077016D01*
X69805341Y-21910193D01*
X69821771Y-21743370D01*
X69870434Y-21582951D01*
X69949453Y-21435117D01*
X69949454Y-21435115D01*
X70055799Y-21305534D01*
X70185380Y-21199189D01*
X70215696Y-21182985D01*
X70333216Y-21120169D01*
X70357113Y-21112920D01*
X70433154Y-21089853D01*
X70493635Y-21071506D01*
X70618654Y-21059193D01*
X70702262Y-21059193D01*
X70827281Y-21071506D01*
X70827281Y-21071506D01*
G37*
G36*
X39364228Y-21025703D02*
G01*
X39519100Y-21089853D01*
X39658481Y-21182985D01*
X39777015Y-21301519D01*
X39870147Y-21440900D01*
X39934297Y-21595772D01*
X39967000Y-21760184D01*
X39967000Y-21927816D01*
X39934297Y-22092228D01*
X39870147Y-22247100D01*
X39777015Y-22386481D01*
X39658481Y-22505015D01*
X39519100Y-22598147D01*
X39364228Y-22662297D01*
X39199816Y-22695000D01*
X39032184Y-22695000D01*
X38867772Y-22662297D01*
X38712900Y-22598147D01*
X38573519Y-22505015D01*
X38454985Y-22386481D01*
X38361853Y-22247100D01*
X38297703Y-22092228D01*
X38265000Y-21927816D01*
X38265000Y-21760184D01*
X38297703Y-21595772D01*
X38361853Y-21440900D01*
X38454985Y-21301519D01*
X38573519Y-21182985D01*
X38712900Y-21089853D01*
X38867772Y-21025703D01*
X39032184Y-20993000D01*
X39199816Y-20993000D01*
X39364228Y-21025703D01*
X39364228Y-21025703D01*
G37*
G36*
X77819828Y-20837103D02*
G01*
X77974700Y-20901253D01*
X78114081Y-20994385D01*
X78232615Y-21112919D01*
X78325747Y-21252300D01*
X78389897Y-21407172D01*
X78422600Y-21571584D01*
X78422600Y-21739216D01*
X78389897Y-21903628D01*
X78325747Y-22058500D01*
X78232615Y-22197881D01*
X78114081Y-22316415D01*
X77974700Y-22409547D01*
X77819828Y-22473697D01*
X77655416Y-22506400D01*
X77487784Y-22506400D01*
X77323372Y-22473697D01*
X77168500Y-22409547D01*
X77029119Y-22316415D01*
X76910585Y-22197881D01*
X76817453Y-22058500D01*
X76753303Y-21903628D01*
X76720600Y-21739216D01*
X76720600Y-21571584D01*
X76753303Y-21407172D01*
X76817453Y-21252300D01*
X76910585Y-21112919D01*
X77029119Y-20994385D01*
X77168500Y-20901253D01*
X77323372Y-20837103D01*
X77487784Y-20804400D01*
X77655416Y-20804400D01*
X77819828Y-20837103D01*
X77819828Y-20837103D01*
G37*
G36*
X60364823Y-20243313D02*
G01*
X60525242Y-20291976D01*
X60549140Y-20304750D01*
X60673078Y-20370996D01*
X60802659Y-20477341D01*
X60909004Y-20606922D01*
X60909005Y-20606924D01*
X60988024Y-20754758D01*
X61036687Y-20915177D01*
X61053117Y-21082000D01*
X61036687Y-21248823D01*
X60988024Y-21409242D01*
X60948873Y-21482488D01*
X60909004Y-21557078D01*
X60802659Y-21686659D01*
X60673078Y-21793004D01*
X60673076Y-21793005D01*
X60525242Y-21872024D01*
X60364823Y-21920687D01*
X60239804Y-21933000D01*
X60156196Y-21933000D01*
X60031177Y-21920687D01*
X59870758Y-21872024D01*
X59722924Y-21793005D01*
X59722922Y-21793004D01*
X59593341Y-21686659D01*
X59486996Y-21557078D01*
X59447127Y-21482488D01*
X59407976Y-21409242D01*
X59359313Y-21248823D01*
X59342883Y-21082000D01*
X59359313Y-20915177D01*
X59407976Y-20754758D01*
X59486995Y-20606924D01*
X59486996Y-20606922D01*
X59593341Y-20477341D01*
X59722922Y-20370996D01*
X59846860Y-20304750D01*
X59870758Y-20291976D01*
X60031177Y-20243313D01*
X60156196Y-20231000D01*
X60239804Y-20231000D01*
X60364823Y-20243313D01*
X60364823Y-20243313D01*
G37*
G36*
X52744823Y-20243313D02*
G01*
X52905242Y-20291976D01*
X52929140Y-20304750D01*
X53053078Y-20370996D01*
X53182659Y-20477341D01*
X53289004Y-20606922D01*
X53289005Y-20606924D01*
X53368024Y-20754758D01*
X53416687Y-20915177D01*
X53433117Y-21082000D01*
X53416687Y-21248823D01*
X53368024Y-21409242D01*
X53328873Y-21482488D01*
X53289004Y-21557078D01*
X53182659Y-21686659D01*
X53053078Y-21793004D01*
X53053076Y-21793005D01*
X52905242Y-21872024D01*
X52744823Y-21920687D01*
X52619804Y-21933000D01*
X52536196Y-21933000D01*
X52411177Y-21920687D01*
X52250758Y-21872024D01*
X52102924Y-21793005D01*
X52102922Y-21793004D01*
X51973341Y-21686659D01*
X51866996Y-21557078D01*
X51827127Y-21482488D01*
X51787976Y-21409242D01*
X51739313Y-21248823D01*
X51722883Y-21082000D01*
X51739313Y-20915177D01*
X51787976Y-20754758D01*
X51866995Y-20606924D01*
X51866996Y-20606922D01*
X51973341Y-20477341D01*
X52102922Y-20370996D01*
X52226860Y-20304750D01*
X52250758Y-20291976D01*
X52411177Y-20243313D01*
X52536196Y-20231000D01*
X52619804Y-20231000D01*
X52744823Y-20243313D01*
X52744823Y-20243313D01*
G37*
G36*
X34705937Y-20070722D02*
G01*
X34866356Y-20119385D01*
X34999020Y-20190295D01*
X35014192Y-20198405D01*
X35143773Y-20304750D01*
X35250118Y-20434331D01*
X35250119Y-20434333D01*
X35329138Y-20582167D01*
X35377801Y-20742586D01*
X35394231Y-20909409D01*
X35377801Y-21076232D01*
X35329138Y-21236651D01*
X35292319Y-21305534D01*
X35250118Y-21384487D01*
X35143773Y-21514068D01*
X35014192Y-21620413D01*
X35014190Y-21620414D01*
X34866356Y-21699433D01*
X34705937Y-21748096D01*
X34580918Y-21760409D01*
X34497310Y-21760409D01*
X34372291Y-21748096D01*
X34211872Y-21699433D01*
X34064038Y-21620414D01*
X34064036Y-21620413D01*
X33934455Y-21514068D01*
X33828110Y-21384487D01*
X33785909Y-21305534D01*
X33749090Y-21236651D01*
X33700427Y-21076232D01*
X33683997Y-20909409D01*
X33700427Y-20742586D01*
X33749090Y-20582167D01*
X33828109Y-20434333D01*
X33828110Y-20434331D01*
X33934455Y-20304750D01*
X34064036Y-20198405D01*
X34079208Y-20190295D01*
X34211872Y-20119385D01*
X34372291Y-20070722D01*
X34497310Y-20058409D01*
X34580918Y-20058409D01*
X34705937Y-20070722D01*
X34705937Y-20070722D01*
G37*
G36*
X26562488Y-20631488D02*
G01*
X25088512Y-21482488D01*
X24237512Y-20008512D01*
X25711488Y-19157512D01*
X26562488Y-20631488D01*
X26562488Y-20631488D01*
G37*
G36*
X49201297Y-18994669D02*
G01*
X49304232Y-19004807D01*
X49502346Y-19064905D01*
X49502349Y-19064906D01*
X49599175Y-19116661D01*
X49684929Y-19162497D01*
X49844965Y-19293835D01*
X49976303Y-19453871D01*
X50000814Y-19499729D01*
X50073894Y-19636451D01*
X50073895Y-19636454D01*
X50133993Y-19834568D01*
X50154285Y-20040600D01*
X50133993Y-20246632D01*
X50096267Y-20370995D01*
X50073894Y-20444749D01*
X50056473Y-20477341D01*
X49976303Y-20627329D01*
X49844965Y-20787365D01*
X49684929Y-20918703D01*
X49634982Y-20945400D01*
X49502349Y-21016294D01*
X49502346Y-21016295D01*
X49304232Y-21076393D01*
X49201297Y-21086531D01*
X49149831Y-21091600D01*
X49046569Y-21091600D01*
X48995103Y-21086531D01*
X48892168Y-21076393D01*
X48694054Y-21016295D01*
X48694051Y-21016294D01*
X48561418Y-20945400D01*
X48511471Y-20918703D01*
X48351435Y-20787365D01*
X48220097Y-20627329D01*
X48139927Y-20477341D01*
X48122506Y-20444749D01*
X48100133Y-20370995D01*
X48062407Y-20246632D01*
X48042115Y-20040600D01*
X48062407Y-19834568D01*
X48122505Y-19636454D01*
X48122506Y-19636451D01*
X48195586Y-19499729D01*
X48220097Y-19453871D01*
X48351435Y-19293835D01*
X48511471Y-19162497D01*
X48597225Y-19116661D01*
X48694051Y-19064906D01*
X48694054Y-19064905D01*
X48892168Y-19004807D01*
X48995103Y-18994669D01*
X49046569Y-18989600D01*
X49149831Y-18989600D01*
X49201297Y-18994669D01*
X49201297Y-18994669D01*
G37*
G36*
X63748228Y-18485703D02*
G01*
X63903100Y-18549853D01*
X64042481Y-18642985D01*
X64161015Y-18761519D01*
X64254147Y-18900900D01*
X64318297Y-19055772D01*
X64351000Y-19220184D01*
X64351000Y-19387816D01*
X64318297Y-19552228D01*
X64254147Y-19707100D01*
X64161015Y-19846481D01*
X64042481Y-19965015D01*
X63903100Y-20058147D01*
X63748228Y-20122297D01*
X63583816Y-20155000D01*
X63416184Y-20155000D01*
X63251772Y-20122297D01*
X63096900Y-20058147D01*
X62957519Y-19965015D01*
X62838985Y-19846481D01*
X62745853Y-19707100D01*
X62681703Y-19552228D01*
X62649000Y-19387816D01*
X62649000Y-19220184D01*
X62681703Y-19055772D01*
X62745853Y-18900900D01*
X62838985Y-18761519D01*
X62957519Y-18642985D01*
X63096900Y-18549853D01*
X63251772Y-18485703D01*
X63416184Y-18453000D01*
X63583816Y-18453000D01*
X63748228Y-18485703D01*
X63748228Y-18485703D01*
G37*
G36*
X33435937Y-17871018D02*
G01*
X33596356Y-17919681D01*
X33688713Y-17969047D01*
X33744192Y-17998701D01*
X33873773Y-18105046D01*
X33980118Y-18234627D01*
X33980119Y-18234629D01*
X34059138Y-18382463D01*
X34107801Y-18542882D01*
X34124231Y-18709705D01*
X34107801Y-18876528D01*
X34059138Y-19036947D01*
X34000496Y-19146659D01*
X33980118Y-19184783D01*
X33873773Y-19314364D01*
X33744192Y-19420709D01*
X33744190Y-19420710D01*
X33596356Y-19499729D01*
X33435937Y-19548392D01*
X33310918Y-19560705D01*
X33227310Y-19560705D01*
X33102291Y-19548392D01*
X32941872Y-19499729D01*
X32794038Y-19420710D01*
X32794036Y-19420709D01*
X32664455Y-19314364D01*
X32558110Y-19184783D01*
X32537732Y-19146659D01*
X32479090Y-19036947D01*
X32430427Y-18876528D01*
X32413997Y-18709705D01*
X32430427Y-18542882D01*
X32479090Y-18382463D01*
X32558109Y-18234629D01*
X32558110Y-18234627D01*
X32664455Y-18105046D01*
X32794036Y-17998701D01*
X32849515Y-17969047D01*
X32941872Y-17919681D01*
X33102291Y-17871018D01*
X33227310Y-17858705D01*
X33310918Y-17858705D01*
X33435937Y-17871018D01*
X33435937Y-17871018D01*
G37*
G36*
X43194450Y-17811765D02*
G01*
X43349322Y-17875915D01*
X43488703Y-17969047D01*
X43607237Y-18087581D01*
X43700369Y-18226962D01*
X43764519Y-18381834D01*
X43797222Y-18546246D01*
X43797222Y-18713878D01*
X43764519Y-18878290D01*
X43700369Y-19033162D01*
X43607237Y-19172543D01*
X43488703Y-19291077D01*
X43349322Y-19384209D01*
X43194450Y-19448359D01*
X43030038Y-19481062D01*
X42862406Y-19481062D01*
X42697994Y-19448359D01*
X42543122Y-19384209D01*
X42403741Y-19291077D01*
X42285207Y-19172543D01*
X42192075Y-19033162D01*
X42127925Y-18878290D01*
X42095222Y-18713878D01*
X42095222Y-18546246D01*
X42127925Y-18381834D01*
X42192075Y-18226962D01*
X42285207Y-18087581D01*
X42403741Y-17969047D01*
X42543122Y-17875915D01*
X42697994Y-17811765D01*
X42862406Y-17779062D01*
X43030038Y-17779062D01*
X43194450Y-17811765D01*
X43194450Y-17811765D01*
G37*
G36*
X60364823Y-17703313D02*
G01*
X60525242Y-17751976D01*
X60620701Y-17803000D01*
X60673078Y-17830996D01*
X60802659Y-17937341D01*
X60909004Y-18066922D01*
X60909005Y-18066924D01*
X60988024Y-18214758D01*
X61036687Y-18375177D01*
X61053117Y-18542000D01*
X61036687Y-18708823D01*
X60988024Y-18869242D01*
X60923691Y-18989600D01*
X60909004Y-19017078D01*
X60802659Y-19146659D01*
X60673078Y-19253004D01*
X60673076Y-19253005D01*
X60525242Y-19332024D01*
X60364823Y-19380687D01*
X60239804Y-19393000D01*
X60156196Y-19393000D01*
X60031177Y-19380687D01*
X59870758Y-19332024D01*
X59722924Y-19253005D01*
X59722922Y-19253004D01*
X59593341Y-19146659D01*
X59486996Y-19017078D01*
X59472309Y-18989600D01*
X59407976Y-18869242D01*
X59359313Y-18708823D01*
X59342883Y-18542000D01*
X59359313Y-18375177D01*
X59407976Y-18214758D01*
X59486995Y-18066924D01*
X59486996Y-18066922D01*
X59593341Y-17937341D01*
X59722922Y-17830996D01*
X59775299Y-17803000D01*
X59870758Y-17751976D01*
X60031177Y-17703313D01*
X60156196Y-17691000D01*
X60239804Y-17691000D01*
X60364823Y-17703313D01*
X60364823Y-17703313D01*
G37*
G36*
X52744823Y-17703313D02*
G01*
X52905242Y-17751976D01*
X53000701Y-17803000D01*
X53053078Y-17830996D01*
X53182659Y-17937341D01*
X53289004Y-18066922D01*
X53289005Y-18066924D01*
X53368024Y-18214758D01*
X53416687Y-18375177D01*
X53433117Y-18542000D01*
X53416687Y-18708823D01*
X53368024Y-18869242D01*
X53303691Y-18989600D01*
X53289004Y-19017078D01*
X53182659Y-19146659D01*
X53053078Y-19253004D01*
X53053076Y-19253005D01*
X52905242Y-19332024D01*
X52744823Y-19380687D01*
X52619804Y-19393000D01*
X52536196Y-19393000D01*
X52411177Y-19380687D01*
X52250758Y-19332024D01*
X52102924Y-19253005D01*
X52102922Y-19253004D01*
X51973341Y-19146659D01*
X51866996Y-19017078D01*
X51852309Y-18989600D01*
X51787976Y-18869242D01*
X51739313Y-18708823D01*
X51722883Y-18542000D01*
X51739313Y-18375177D01*
X51787976Y-18214758D01*
X51866995Y-18066924D01*
X51866996Y-18066922D01*
X51973341Y-17937341D01*
X52102922Y-17830996D01*
X52155299Y-17803000D01*
X52250758Y-17751976D01*
X52411177Y-17703313D01*
X52536196Y-17691000D01*
X52619804Y-17691000D01*
X52744823Y-17703313D01*
X52744823Y-17703313D01*
G37*
G36*
X23362228Y-17215703D02*
G01*
X23517100Y-17279853D01*
X23656481Y-17372985D01*
X23775015Y-17491519D01*
X23868147Y-17630900D01*
X23932297Y-17785772D01*
X23965000Y-17950184D01*
X23965000Y-18117816D01*
X23932297Y-18282228D01*
X23868147Y-18437100D01*
X23775015Y-18576481D01*
X23656481Y-18695015D01*
X23517100Y-18788147D01*
X23362228Y-18852297D01*
X23197816Y-18885000D01*
X23030184Y-18885000D01*
X22865772Y-18852297D01*
X22710900Y-18788147D01*
X22571519Y-18695015D01*
X22452985Y-18576481D01*
X22359853Y-18437100D01*
X22295703Y-18282228D01*
X22263000Y-18117816D01*
X22263000Y-17950184D01*
X22295703Y-17785772D01*
X22359853Y-17630900D01*
X22452985Y-17491519D01*
X22571519Y-17372985D01*
X22710900Y-17279853D01*
X22865772Y-17215703D01*
X23030184Y-17183000D01*
X23197816Y-17183000D01*
X23362228Y-17215703D01*
X23362228Y-17215703D01*
G37*
G36*
X79093993Y-15335504D02*
G01*
X79330701Y-15433552D01*
X79330703Y-15433553D01*
X79543735Y-15575896D01*
X79724904Y-15757065D01*
X79867247Y-15970097D01*
X79867248Y-15970099D01*
X79965296Y-16206807D01*
X80015280Y-16458093D01*
X80015280Y-16714307D01*
X79965296Y-16965593D01*
X79888883Y-17150070D01*
X79867247Y-17202303D01*
X79724904Y-17415335D01*
X79543735Y-17596504D01*
X79330703Y-17738847D01*
X79330702Y-17738848D01*
X79330701Y-17738848D01*
X79093993Y-17836896D01*
X78842707Y-17886880D01*
X78586493Y-17886880D01*
X78335207Y-17836896D01*
X78098499Y-17738848D01*
X78098498Y-17738848D01*
X78098497Y-17738847D01*
X77885465Y-17596504D01*
X77704296Y-17415335D01*
X77561953Y-17202303D01*
X77540317Y-17150070D01*
X77463904Y-16965593D01*
X77413920Y-16714307D01*
X77413920Y-16458093D01*
X77463904Y-16206807D01*
X77561952Y-15970099D01*
X77561953Y-15970097D01*
X77704296Y-15757065D01*
X77885465Y-15575896D01*
X78098497Y-15433553D01*
X78098499Y-15433552D01*
X78335207Y-15335504D01*
X78586493Y-15285520D01*
X78842707Y-15285520D01*
X79093993Y-15335504D01*
X79093993Y-15335504D01*
G37*
G36*
X76205280Y-17886880D02*
G01*
X73603920Y-17886880D01*
X73603920Y-15285520D01*
X76205280Y-15285520D01*
X76205280Y-17886880D01*
X76205280Y-17886880D01*
G37*
G36*
X16527331Y-14270211D02*
G01*
X16855092Y-14405974D01*
X17150070Y-14603072D01*
X17400928Y-14853930D01*
X17598026Y-15148908D01*
X17733789Y-15476669D01*
X17803000Y-15824616D01*
X17803000Y-16179384D01*
X17733789Y-16527331D01*
X17598026Y-16855092D01*
X17400928Y-17150070D01*
X17150070Y-17400928D01*
X16855092Y-17598026D01*
X16527331Y-17733789D01*
X16179384Y-17803000D01*
X15824616Y-17803000D01*
X15476669Y-17733789D01*
X15148908Y-17598026D01*
X14853930Y-17400928D01*
X14603072Y-17150070D01*
X14405974Y-16855092D01*
X14270211Y-16527331D01*
X14201000Y-16179384D01*
X14201000Y-15824616D01*
X14270211Y-15476669D01*
X14405974Y-15148908D01*
X14603072Y-14853930D01*
X14853930Y-14603072D01*
X15148908Y-14405974D01*
X15476669Y-14270211D01*
X15824616Y-14201000D01*
X16179384Y-14201000D01*
X16527331Y-14270211D01*
X16527331Y-14270211D01*
G37*
G36*
X65911393Y-15005304D02*
G01*
X66049927Y-15062687D01*
X66148103Y-15103353D01*
X66361135Y-15245696D01*
X66542304Y-15426865D01*
X66629658Y-15557600D01*
X66684648Y-15639899D01*
X66782696Y-15876607D01*
X66832680Y-16127893D01*
X66832680Y-16384107D01*
X66782696Y-16635393D01*
X66739033Y-16740804D01*
X66684647Y-16872103D01*
X66542304Y-17085135D01*
X66361135Y-17266304D01*
X66148103Y-17408647D01*
X66148102Y-17408648D01*
X66148101Y-17408648D01*
X65911393Y-17506696D01*
X65660107Y-17556680D01*
X65403893Y-17556680D01*
X65152607Y-17506696D01*
X64915899Y-17408648D01*
X64915898Y-17408648D01*
X64915897Y-17408647D01*
X64702865Y-17266304D01*
X64521696Y-17085135D01*
X64379353Y-16872103D01*
X64324967Y-16740804D01*
X64281304Y-16635393D01*
X64231320Y-16384107D01*
X64231320Y-16127893D01*
X64281304Y-15876607D01*
X64379352Y-15639899D01*
X64434342Y-15557600D01*
X64521696Y-15426865D01*
X64702865Y-15245696D01*
X64915897Y-15103353D01*
X65014073Y-15062687D01*
X65152607Y-15005304D01*
X65403893Y-14955320D01*
X65660107Y-14955320D01*
X65911393Y-15005304D01*
X65911393Y-15005304D01*
G37*
G36*
X32165937Y-15671313D02*
G01*
X32326356Y-15719976D01*
X32395746Y-15757066D01*
X32474192Y-15798996D01*
X32603773Y-15905341D01*
X32710118Y-16034922D01*
X32710119Y-16034924D01*
X32789138Y-16182758D01*
X32837801Y-16343177D01*
X32854231Y-16510000D01*
X32837801Y-16676823D01*
X32789138Y-16837242D01*
X32770505Y-16872101D01*
X32710118Y-16985078D01*
X32603773Y-17114659D01*
X32474192Y-17221004D01*
X32474190Y-17221005D01*
X32326356Y-17300024D01*
X32165937Y-17348687D01*
X32040918Y-17361000D01*
X31957310Y-17361000D01*
X31832291Y-17348687D01*
X31671872Y-17300024D01*
X31524038Y-17221005D01*
X31524036Y-17221004D01*
X31394455Y-17114659D01*
X31288110Y-16985078D01*
X31227723Y-16872101D01*
X31209090Y-16837242D01*
X31160427Y-16676823D01*
X31143997Y-16510000D01*
X31160427Y-16343177D01*
X31209090Y-16182758D01*
X31288109Y-16034924D01*
X31288110Y-16034922D01*
X31394455Y-15905341D01*
X31524036Y-15798996D01*
X31602482Y-15757066D01*
X31671872Y-15719976D01*
X31832291Y-15671313D01*
X31957310Y-15659000D01*
X32040918Y-15659000D01*
X32165937Y-15671313D01*
X32165937Y-15671313D01*
G37*
G36*
X48463458Y-15191112D02*
G01*
X48623877Y-15239775D01*
X48756541Y-15310685D01*
X48771713Y-15318795D01*
X48901294Y-15425140D01*
X49007639Y-15554721D01*
X49007640Y-15554723D01*
X49086659Y-15702557D01*
X49135322Y-15862976D01*
X49151752Y-16029799D01*
X49135322Y-16196622D01*
X49086659Y-16357041D01*
X49032645Y-16458094D01*
X49007639Y-16504877D01*
X48901294Y-16634458D01*
X48771713Y-16740803D01*
X48771711Y-16740804D01*
X48623877Y-16819823D01*
X48463458Y-16868486D01*
X48338439Y-16880799D01*
X48254831Y-16880799D01*
X48129812Y-16868486D01*
X47969393Y-16819823D01*
X47821559Y-16740804D01*
X47821557Y-16740803D01*
X47691976Y-16634458D01*
X47585631Y-16504877D01*
X47560625Y-16458094D01*
X47506611Y-16357041D01*
X47457948Y-16196622D01*
X47441518Y-16029799D01*
X47457948Y-15862976D01*
X47506611Y-15702557D01*
X47585630Y-15554723D01*
X47585631Y-15554721D01*
X47691976Y-15425140D01*
X47821557Y-15318795D01*
X47836729Y-15310685D01*
X47969393Y-15239775D01*
X48129812Y-15191112D01*
X48254831Y-15178799D01*
X48338439Y-15178799D01*
X48463458Y-15191112D01*
X48463458Y-15191112D01*
G37*
G36*
X41040628Y-13888303D02*
G01*
X41195500Y-13952453D01*
X41334881Y-14045585D01*
X41453415Y-14164119D01*
X41546547Y-14303500D01*
X41610697Y-14458372D01*
X41643400Y-14622784D01*
X41643400Y-14790416D01*
X41610697Y-14954828D01*
X41546547Y-15109700D01*
X41453415Y-15249081D01*
X41334881Y-15367615D01*
X41195500Y-15460747D01*
X41040628Y-15524897D01*
X40876216Y-15557600D01*
X40708584Y-15557600D01*
X40544172Y-15524897D01*
X40389300Y-15460747D01*
X40249919Y-15367615D01*
X40131385Y-15249081D01*
X40038253Y-15109700D01*
X39974103Y-14954828D01*
X39941400Y-14790416D01*
X39941400Y-14622784D01*
X39974103Y-14458372D01*
X40038253Y-14303500D01*
X40131385Y-14164119D01*
X40249919Y-14045585D01*
X40389300Y-13952453D01*
X40544172Y-13888303D01*
X40708584Y-13855600D01*
X40876216Y-13855600D01*
X41040628Y-13888303D01*
X41040628Y-13888303D01*
G37*
G36*
X29879937Y-13385313D02*
G01*
X30040356Y-13433976D01*
X30173020Y-13504886D01*
X30188192Y-13512996D01*
X30317773Y-13619341D01*
X30424118Y-13748922D01*
X30424119Y-13748924D01*
X30503138Y-13896758D01*
X30551801Y-14057177D01*
X30568231Y-14224000D01*
X30551801Y-14390823D01*
X30503138Y-14551242D01*
X30475434Y-14603072D01*
X30424118Y-14699078D01*
X30317773Y-14828659D01*
X30188192Y-14935004D01*
X30188190Y-14935005D01*
X30040356Y-15014024D01*
X29879937Y-15062687D01*
X29754918Y-15075000D01*
X29671310Y-15075000D01*
X29546291Y-15062687D01*
X29385872Y-15014024D01*
X29238038Y-14935005D01*
X29238036Y-14935004D01*
X29108455Y-14828659D01*
X29002110Y-14699078D01*
X28950794Y-14603072D01*
X28923090Y-14551242D01*
X28874427Y-14390823D01*
X28857997Y-14224000D01*
X28874427Y-14057177D01*
X28923090Y-13896758D01*
X29002109Y-13748924D01*
X29002110Y-13748922D01*
X29108455Y-13619341D01*
X29238036Y-13512996D01*
X29253208Y-13504886D01*
X29385872Y-13433976D01*
X29546291Y-13385313D01*
X29671310Y-13373000D01*
X29754918Y-13373000D01*
X29879937Y-13385313D01*
X29879937Y-13385313D01*
G37*
M02*
