M48
; DRILL file {KiCad (5.1.2-1)-1} date Thursday, January 06, 2022 at 11:32:01 AM
; FORMAT={-:-/ absolute / inch / decimal}
; #@! TF.CreationDate,2022-01-06T11:32:01-05:00
; #@! TF.GenerationSoftware,Kicad,Pcbnew,(5.1.2-1)-1
FMAT,2
INCH
T1C0.0315
T2C0.0394
T3C0.0394
T4C0.1378
%
G90
G05
T1
X1.5083Y-1.0831
X1.5083Y-1.3831
X1.5985Y-1.9057
X1.6969Y-1.8883
X1.7954Y-1.871
X1.3276Y-1.6902
X1.3797Y-1.9856
X1.4406Y-1.6083
X1.4926Y-1.9037
X1.7618Y-1.3386
X1.8644Y-1.0567
X1.0835Y-0.9949
X1.0835Y-1.0949
X1.0835Y-1.1949
X1.0835Y-1.2949
X1.3835Y-0.9949
X1.3835Y-1.0949
X1.3835Y-1.1949
X1.3835Y-1.2949
X1.7098Y-0.6921
X1.7098Y-0.7921
X1.7098Y-0.8921
X1.2524Y-0.8315
X1.5524Y-0.8315
X0.6764Y-1.0965
X0.9764Y-1.0965
X1.6462Y-1.2969
X1.7488Y-1.015
X1.5678Y-1.7088
X1.6662Y-1.6914
X1.7647Y-1.6741
X0.8463Y-0.8081
X1.1417Y-0.8602
X1.252Y-0.7098
X1.552Y-0.7098
X1.8399Y-2.0186
X2.1218Y-1.916
X0.9583Y-1.9417
X1.2537Y-1.8896
X0.6752Y-0.9736
X0.9752Y-0.9736
X1.3516Y-1.4913
X1.6516Y-1.4913
X0.6732Y-1.2295
X0.9732Y-1.2295
X1.7517Y-1.4985
X2.0517Y-1.4985
X1.852Y-0.6283
X1.852Y-0.9283
T2
X1.1373Y-1.6621
X1.1373Y-1.7771
X1.0582Y-1.5315
X1.1157Y-1.4319
X1.1552Y-2.1057
X1.2632Y-2.0663
X1.9339Y-1.7335
X2.1106Y-1.6024
X2.1448Y-1.7962
T3
X1.4102Y-2.1098
X0.5614Y-0.9543
X0.7516Y-1.3646
X0.9016Y-1.3646
X0.7398Y-1.5291
X0.8898Y-1.5291
X1.5228Y-0.965
X0.7429Y-1.6866
X0.8929Y-1.6866
X0.5618Y-1.0961
X1.1307Y-0.7071
T4
X0.6921Y-2.0374
X0.6921Y-0.6374
X2.0921Y-0.6374
T0
M30
