G04 #@! TF.GenerationSoftware,KiCad,Pcbnew,(5.1.2-1)-1*
G04 #@! TF.CreationDate,2022-01-06T11:32:03-05:00*
G04 #@! TF.ProjectId,Basic VCA,42617369-6320-4564-9341-2e6b69636164,rev?*
G04 #@! TF.SameCoordinates,Original*
G04 #@! TF.FileFunction,Soldermask,Bot*
G04 #@! TF.FilePolarity,Negative*
%FSLAX46Y46*%
G04 Gerber Fmt 4.6, Leading zero omitted, Abs format (unit mm)*
G04 Created by KiCad (PCBNEW (5.1.2-1)-1) date 2022-01-06 11:32:03*
%MOMM*%
%LPD*%
G04 APERTURE LIST*
%ADD10C,0.100000*%
G04 APERTURE END LIST*
D10*
G36*
X30944656Y-54232018D02*
G01*
X28593545Y-55087753D01*
X27737810Y-52736642D01*
X30088921Y-51880907D01*
X30944656Y-54232018D01*
X30944656Y-54232018D01*
G37*
G36*
X36199393Y-52339304D02*
G01*
X36436101Y-52437352D01*
X36436103Y-52437353D01*
X36649135Y-52579696D01*
X36830304Y-52760865D01*
X36889990Y-52850192D01*
X36972648Y-52973899D01*
X37070696Y-53210607D01*
X37120680Y-53461893D01*
X37120680Y-53718107D01*
X37070696Y-53969393D01*
X36972648Y-54206101D01*
X36972647Y-54206103D01*
X36830304Y-54419135D01*
X36649135Y-54600304D01*
X36436103Y-54742647D01*
X36436102Y-54742648D01*
X36436101Y-54742648D01*
X36199393Y-54840696D01*
X35948107Y-54890680D01*
X35691893Y-54890680D01*
X35440607Y-54840696D01*
X35203899Y-54742648D01*
X35203898Y-54742648D01*
X35203897Y-54742647D01*
X34990865Y-54600304D01*
X34809696Y-54419135D01*
X34667353Y-54206103D01*
X34667352Y-54206101D01*
X34569304Y-53969393D01*
X34519320Y-53718107D01*
X34519320Y-53461893D01*
X34569304Y-53210607D01*
X34667352Y-52973899D01*
X34750010Y-52850192D01*
X34809696Y-52760865D01*
X34990865Y-52579696D01*
X35203897Y-52437353D01*
X35203899Y-52437352D01*
X35440607Y-52339304D01*
X35691893Y-52289320D01*
X35948107Y-52289320D01*
X36199393Y-52339304D01*
X36199393Y-52339304D01*
G37*
G36*
X32403505Y-51272921D02*
G01*
X32450978Y-51282364D01*
X32678646Y-51376667D01*
X32883541Y-51513574D01*
X33057790Y-51687823D01*
X33194697Y-51892718D01*
X33194698Y-51892720D01*
X33289000Y-52120386D01*
X33337075Y-52362075D01*
X33337075Y-52608503D01*
X33306768Y-52760865D01*
X33289000Y-52850192D01*
X33194697Y-53077860D01*
X33057790Y-53282755D01*
X32883541Y-53457004D01*
X32678646Y-53593911D01*
X32678645Y-53593912D01*
X32678644Y-53593912D01*
X32450978Y-53688214D01*
X32209289Y-53736289D01*
X31962861Y-53736289D01*
X31721172Y-53688214D01*
X31493506Y-53593912D01*
X31493505Y-53593912D01*
X31493504Y-53593911D01*
X31288609Y-53457004D01*
X31114360Y-53282755D01*
X30977453Y-53077860D01*
X30883150Y-52850192D01*
X30865382Y-52760865D01*
X30835075Y-52608503D01*
X30835075Y-52362075D01*
X30883150Y-52120386D01*
X30977452Y-51892720D01*
X30977453Y-51892718D01*
X31114360Y-51687823D01*
X31288609Y-51513574D01*
X31493504Y-51376667D01*
X31721172Y-51282364D01*
X31768645Y-51272921D01*
X31962861Y-51234289D01*
X32209289Y-51234289D01*
X32403505Y-51272921D01*
X32403505Y-51272921D01*
G37*
G36*
X18105331Y-50018211D02*
G01*
X18433092Y-50153974D01*
X18728070Y-50351072D01*
X18978928Y-50601930D01*
X19176026Y-50896908D01*
X19311789Y-51224669D01*
X19381000Y-51572616D01*
X19381000Y-51927384D01*
X19311789Y-52275331D01*
X19176026Y-52603092D01*
X18978928Y-52898070D01*
X18728070Y-53148928D01*
X18433092Y-53346026D01*
X18105331Y-53481789D01*
X17757384Y-53551000D01*
X17402616Y-53551000D01*
X17054669Y-53481789D01*
X16726908Y-53346026D01*
X16431930Y-53148928D01*
X16181072Y-52898070D01*
X15983974Y-52603092D01*
X15848211Y-52275331D01*
X15779000Y-51927384D01*
X15779000Y-51572616D01*
X15848211Y-51224669D01*
X15983974Y-50896908D01*
X16181072Y-50601930D01*
X16431930Y-50351072D01*
X16726908Y-50153974D01*
X17054669Y-50018211D01*
X17402616Y-49949000D01*
X17757384Y-49949000D01*
X18105331Y-50018211D01*
X18105331Y-50018211D01*
G37*
G36*
X46980593Y-50454859D02*
G01*
X47135465Y-50519009D01*
X47274846Y-50612141D01*
X47393380Y-50730675D01*
X47486512Y-50870056D01*
X47550662Y-51024928D01*
X47583365Y-51189340D01*
X47583365Y-51356972D01*
X47550662Y-51521384D01*
X47486512Y-51676256D01*
X47393380Y-51815637D01*
X47274846Y-51934171D01*
X47135465Y-52027303D01*
X46980593Y-52091453D01*
X46816181Y-52124156D01*
X46648549Y-52124156D01*
X46484137Y-52091453D01*
X46329265Y-52027303D01*
X46189884Y-51934171D01*
X46071350Y-51815637D01*
X45978218Y-51676256D01*
X45914068Y-51521384D01*
X45881365Y-51356972D01*
X45881365Y-51189340D01*
X45914068Y-51024928D01*
X45978218Y-50870056D01*
X46071350Y-50730675D01*
X46189884Y-50612141D01*
X46329265Y-50519009D01*
X46484137Y-50454859D01*
X46648549Y-50422156D01*
X46816181Y-50422156D01*
X46980593Y-50454859D01*
X46980593Y-50454859D01*
G37*
G36*
X35210022Y-49595548D02*
G01*
X35370441Y-49644211D01*
X35503105Y-49715121D01*
X35518277Y-49723231D01*
X35647858Y-49829576D01*
X35754203Y-49959157D01*
X35754204Y-49959159D01*
X35833223Y-50106993D01*
X35881886Y-50267412D01*
X35898316Y-50434235D01*
X35881886Y-50601058D01*
X35833223Y-50761477D01*
X35775186Y-50870056D01*
X35754203Y-50909313D01*
X35647858Y-51038894D01*
X35518277Y-51145239D01*
X35518275Y-51145240D01*
X35370441Y-51224259D01*
X35370438Y-51224260D01*
X35340579Y-51233318D01*
X35210022Y-51272922D01*
X35085003Y-51285235D01*
X35001395Y-51285235D01*
X34876376Y-51272922D01*
X34745819Y-51233318D01*
X34715960Y-51224260D01*
X34715957Y-51224259D01*
X34568123Y-51145240D01*
X34568121Y-51145239D01*
X34438540Y-51038894D01*
X34332195Y-50909313D01*
X34311212Y-50870056D01*
X34253175Y-50761477D01*
X34204512Y-50601058D01*
X34188082Y-50434235D01*
X34204512Y-50267412D01*
X34253175Y-50106993D01*
X34332194Y-49959159D01*
X34332195Y-49959157D01*
X34438540Y-49829576D01*
X34568121Y-49723231D01*
X34583293Y-49715121D01*
X34715957Y-49644211D01*
X34876376Y-49595548D01*
X35001395Y-49583235D01*
X35085003Y-49583235D01*
X35210022Y-49595548D01*
X35210022Y-49595548D01*
G37*
G36*
X24588228Y-48501703D02*
G01*
X24743100Y-48565853D01*
X24882481Y-48658985D01*
X25001015Y-48777519D01*
X25094147Y-48916900D01*
X25158297Y-49071772D01*
X25191000Y-49236184D01*
X25191000Y-49403816D01*
X25158297Y-49568228D01*
X25094147Y-49723100D01*
X25001015Y-49862481D01*
X24882481Y-49981015D01*
X24743100Y-50074147D01*
X24588228Y-50138297D01*
X24423816Y-50171000D01*
X24256184Y-50171000D01*
X24091772Y-50138297D01*
X23936900Y-50074147D01*
X23797519Y-49981015D01*
X23678985Y-49862481D01*
X23585853Y-49723100D01*
X23521703Y-49568228D01*
X23489000Y-49403816D01*
X23489000Y-49236184D01*
X23521703Y-49071772D01*
X23585853Y-48916900D01*
X23678985Y-48777519D01*
X23797519Y-48658985D01*
X23936900Y-48565853D01*
X24091772Y-48501703D01*
X24256184Y-48469000D01*
X24423816Y-48469000D01*
X24588228Y-48501703D01*
X24588228Y-48501703D01*
G37*
G36*
X54059646Y-47828276D02*
G01*
X54220065Y-47876939D01*
X54352729Y-47947849D01*
X54367901Y-47955959D01*
X54497482Y-48062304D01*
X54603827Y-48191885D01*
X54603828Y-48191887D01*
X54682847Y-48339721D01*
X54731510Y-48500140D01*
X54747940Y-48666963D01*
X54731510Y-48833786D01*
X54682847Y-48994205D01*
X54611937Y-49126869D01*
X54603827Y-49142041D01*
X54497482Y-49271622D01*
X54367901Y-49377967D01*
X54367899Y-49377968D01*
X54220065Y-49456987D01*
X54059646Y-49505650D01*
X53934627Y-49517963D01*
X53851019Y-49517963D01*
X53726000Y-49505650D01*
X53565581Y-49456987D01*
X53417747Y-49377968D01*
X53417745Y-49377967D01*
X53288164Y-49271622D01*
X53181819Y-49142041D01*
X53173709Y-49126869D01*
X53102799Y-48994205D01*
X53054136Y-48833786D01*
X53037706Y-48666963D01*
X53054136Y-48500140D01*
X53102799Y-48339721D01*
X53181818Y-48191887D01*
X53181819Y-48191885D01*
X53288164Y-48062304D01*
X53417745Y-47955959D01*
X53432917Y-47947849D01*
X53565581Y-47876939D01*
X53726000Y-47828276D01*
X53851019Y-47815963D01*
X53934627Y-47815963D01*
X54059646Y-47828276D01*
X54059646Y-47828276D01*
G37*
G36*
X41528963Y-49054004D02*
G01*
X39951301Y-49332188D01*
X39673117Y-47754526D01*
X41250779Y-47476342D01*
X41528963Y-49054004D01*
X41528963Y-49054004D01*
G37*
G36*
X38080022Y-47515548D02*
G01*
X38240441Y-47564211D01*
X38277061Y-47583785D01*
X38388277Y-47643231D01*
X38517858Y-47749576D01*
X38624203Y-47879157D01*
X38624204Y-47879159D01*
X38703223Y-48026993D01*
X38751886Y-48187412D01*
X38768316Y-48354235D01*
X38751886Y-48521058D01*
X38703223Y-48681477D01*
X38675460Y-48733417D01*
X38624203Y-48829313D01*
X38517858Y-48958894D01*
X38388277Y-49065239D01*
X38388275Y-49065240D01*
X38240441Y-49144259D01*
X38080022Y-49192922D01*
X37955003Y-49205235D01*
X37871395Y-49205235D01*
X37746376Y-49192922D01*
X37585957Y-49144259D01*
X37438123Y-49065240D01*
X37438121Y-49065239D01*
X37308540Y-48958894D01*
X37202195Y-48829313D01*
X37150938Y-48733417D01*
X37123175Y-48681477D01*
X37074512Y-48521058D01*
X37058082Y-48354235D01*
X37074512Y-48187412D01*
X37123175Y-48026993D01*
X37202194Y-47879159D01*
X37202195Y-47879157D01*
X37308540Y-47749576D01*
X37438121Y-47643231D01*
X37549337Y-47583785D01*
X37585957Y-47564211D01*
X37746376Y-47515548D01*
X37871395Y-47503235D01*
X37955003Y-47503235D01*
X38080022Y-47515548D01*
X38080022Y-47515548D01*
G37*
G36*
X32011058Y-47158114D02*
G01*
X32171477Y-47206777D01*
X32258629Y-47253361D01*
X32319313Y-47285797D01*
X32448894Y-47392142D01*
X32555239Y-47521723D01*
X32555240Y-47521725D01*
X32634259Y-47669559D01*
X32682922Y-47829978D01*
X32699352Y-47996801D01*
X32682922Y-48163624D01*
X32634259Y-48324043D01*
X32625877Y-48339724D01*
X32555239Y-48471879D01*
X32448894Y-48601460D01*
X32319313Y-48707805D01*
X32319311Y-48707806D01*
X32171477Y-48786825D01*
X32011058Y-48835488D01*
X31886039Y-48847801D01*
X31802431Y-48847801D01*
X31677412Y-48835488D01*
X31516993Y-48786825D01*
X31369159Y-48707806D01*
X31369157Y-48707805D01*
X31239576Y-48601460D01*
X31133231Y-48471879D01*
X31062593Y-48339724D01*
X31054211Y-48324043D01*
X31005548Y-48163624D01*
X30989118Y-47996801D01*
X31005548Y-47829978D01*
X31054211Y-47669559D01*
X31133230Y-47521725D01*
X31133231Y-47521723D01*
X31239576Y-47392142D01*
X31369157Y-47285797D01*
X31429841Y-47253361D01*
X31516993Y-47206777D01*
X31677412Y-47158114D01*
X31802431Y-47145801D01*
X31886039Y-47145801D01*
X32011058Y-47158114D01*
X32011058Y-47158114D01*
G37*
G36*
X43336094Y-47192980D02*
G01*
X43481866Y-47253361D01*
X43481868Y-47253362D01*
X43613060Y-47341021D01*
X43724630Y-47452591D01*
X43812289Y-47583783D01*
X43812290Y-47583785D01*
X43872671Y-47729557D01*
X43903452Y-47884306D01*
X43903452Y-48042092D01*
X43872671Y-48196841D01*
X43812290Y-48342613D01*
X43812289Y-48342615D01*
X43724630Y-48473807D01*
X43613060Y-48585377D01*
X43481868Y-48673036D01*
X43481867Y-48673037D01*
X43481866Y-48673037D01*
X43336094Y-48733418D01*
X43181345Y-48764199D01*
X43023559Y-48764199D01*
X42868810Y-48733418D01*
X42723038Y-48673037D01*
X42723037Y-48673037D01*
X42723036Y-48673036D01*
X42591844Y-48585377D01*
X42480274Y-48473807D01*
X42392615Y-48342615D01*
X42392614Y-48342613D01*
X42332233Y-48196841D01*
X42301452Y-48042092D01*
X42301452Y-47884306D01*
X42332233Y-47729557D01*
X42392614Y-47583785D01*
X42392615Y-47583783D01*
X42480274Y-47452591D01*
X42591844Y-47341021D01*
X42723036Y-47253362D01*
X42723038Y-47253361D01*
X42868810Y-47192980D01*
X43023559Y-47162199D01*
X43181345Y-47162199D01*
X43336094Y-47192980D01*
X43336094Y-47192980D01*
G37*
G36*
X45837505Y-46751913D02*
G01*
X45983277Y-46812294D01*
X45983279Y-46812295D01*
X46114471Y-46899954D01*
X46226041Y-47011524D01*
X46313700Y-47142716D01*
X46313701Y-47142718D01*
X46374082Y-47288490D01*
X46404863Y-47443239D01*
X46404863Y-47601025D01*
X46374082Y-47755774D01*
X46313701Y-47901546D01*
X46313700Y-47901548D01*
X46226041Y-48032740D01*
X46114471Y-48144310D01*
X45983279Y-48231969D01*
X45983278Y-48231970D01*
X45983277Y-48231970D01*
X45837505Y-48292351D01*
X45682756Y-48323132D01*
X45524970Y-48323132D01*
X45370221Y-48292351D01*
X45224449Y-48231970D01*
X45224448Y-48231970D01*
X45224447Y-48231969D01*
X45093255Y-48144310D01*
X44981685Y-48032740D01*
X44894026Y-47901548D01*
X44894025Y-47901546D01*
X44833644Y-47755774D01*
X44802863Y-47601025D01*
X44802863Y-47443239D01*
X44833644Y-47288490D01*
X44894025Y-47142718D01*
X44894026Y-47142716D01*
X44981685Y-47011524D01*
X45093255Y-46899954D01*
X45224447Y-46812295D01*
X45224449Y-46812294D01*
X45370221Y-46751913D01*
X45524970Y-46721132D01*
X45682756Y-46721132D01*
X45837505Y-46751913D01*
X45837505Y-46751913D01*
G37*
G36*
X54719176Y-44829781D02*
G01*
X54869499Y-44892047D01*
X55004786Y-44982443D01*
X55119837Y-45097494D01*
X55210233Y-45232781D01*
X55272499Y-45383104D01*
X55304241Y-45542685D01*
X55304241Y-45705393D01*
X55272499Y-45864974D01*
X55210233Y-46015297D01*
X55119837Y-46150584D01*
X55004786Y-46265635D01*
X54869499Y-46356031D01*
X54719176Y-46418297D01*
X54559595Y-46450039D01*
X54396887Y-46450039D01*
X54237306Y-46418297D01*
X54086983Y-46356031D01*
X53951696Y-46265635D01*
X53836645Y-46150584D01*
X53746249Y-46015297D01*
X53683983Y-45864974D01*
X53652241Y-45705393D01*
X53652241Y-45542685D01*
X53683983Y-45383104D01*
X53746249Y-45232781D01*
X53836645Y-45097494D01*
X53951696Y-44982443D01*
X54086983Y-44892047D01*
X54237306Y-44829781D01*
X54396887Y-44798039D01*
X54559595Y-44798039D01*
X54719176Y-44829781D01*
X54719176Y-44829781D01*
G37*
G36*
X30138200Y-46389000D02*
G01*
X27636200Y-46389000D01*
X27636200Y-43887000D01*
X30138200Y-43887000D01*
X30138200Y-46389000D01*
X30138200Y-46389000D01*
G37*
G36*
X49361017Y-43236002D02*
G01*
X49511340Y-43298268D01*
X49646627Y-43388664D01*
X49761678Y-43503715D01*
X49852074Y-43639002D01*
X49914340Y-43789325D01*
X49946082Y-43948906D01*
X49946082Y-44111614D01*
X49914340Y-44271195D01*
X49852074Y-44421518D01*
X49761678Y-44556805D01*
X49646627Y-44671856D01*
X49511340Y-44762252D01*
X49361017Y-44824518D01*
X49201436Y-44856260D01*
X49038728Y-44856260D01*
X48879147Y-44824518D01*
X48728824Y-44762252D01*
X48593537Y-44671856D01*
X48478486Y-44556805D01*
X48388090Y-44421518D01*
X48325824Y-44271195D01*
X48294082Y-44111614D01*
X48294082Y-43948906D01*
X48325824Y-43789325D01*
X48388090Y-43639002D01*
X48478486Y-43503715D01*
X48593537Y-43388664D01*
X48728824Y-43298268D01*
X48879147Y-43236002D01*
X49038728Y-43204260D01*
X49201436Y-43204260D01*
X49361017Y-43236002D01*
X49361017Y-43236002D01*
G37*
G36*
X40748783Y-44053512D02*
G01*
X39171121Y-44331696D01*
X38892937Y-42754034D01*
X40470599Y-42475850D01*
X40748783Y-44053512D01*
X40748783Y-44053512D01*
G37*
G36*
X20170680Y-44140680D02*
G01*
X17569320Y-44140680D01*
X17569320Y-41539320D01*
X20170680Y-41539320D01*
X20170680Y-44140680D01*
X20170680Y-44140680D01*
G37*
G36*
X23059393Y-41589304D02*
G01*
X23222547Y-41656885D01*
X23296103Y-41687353D01*
X23509135Y-41829696D01*
X23690304Y-42010865D01*
X23778075Y-42142224D01*
X23832648Y-42223899D01*
X23930696Y-42460607D01*
X23980680Y-42711893D01*
X23980680Y-42968107D01*
X23930696Y-43219393D01*
X23832648Y-43456101D01*
X23832647Y-43456103D01*
X23690304Y-43669135D01*
X23509135Y-43850304D01*
X23296103Y-43992647D01*
X23296102Y-43992648D01*
X23296101Y-43992648D01*
X23059393Y-44090696D01*
X22808107Y-44140680D01*
X22551893Y-44140680D01*
X22300607Y-44090696D01*
X22063899Y-43992648D01*
X22063898Y-43992648D01*
X22063897Y-43992647D01*
X21850865Y-43850304D01*
X21669696Y-43669135D01*
X21527353Y-43456103D01*
X21527352Y-43456101D01*
X21429304Y-43219393D01*
X21379320Y-42968107D01*
X21379320Y-42711893D01*
X21429304Y-42460607D01*
X21527352Y-42223899D01*
X21581925Y-42142224D01*
X21669696Y-42010865D01*
X21850865Y-41829696D01*
X22063897Y-41687353D01*
X22137453Y-41656885D01*
X22300607Y-41589304D01*
X22551893Y-41539320D01*
X22808107Y-41539320D01*
X23059393Y-41589304D01*
X23059393Y-41589304D01*
G37*
G36*
X33968228Y-42111703D02*
G01*
X34123100Y-42175853D01*
X34262481Y-42268985D01*
X34381015Y-42387519D01*
X34474147Y-42526900D01*
X34538297Y-42681772D01*
X34571000Y-42846184D01*
X34571000Y-43013816D01*
X34538297Y-43178228D01*
X34474147Y-43333100D01*
X34381015Y-43472481D01*
X34262481Y-43591015D01*
X34123100Y-43684147D01*
X33968228Y-43748297D01*
X33803816Y-43781000D01*
X33636184Y-43781000D01*
X33471772Y-43748297D01*
X33316900Y-43684147D01*
X33177519Y-43591015D01*
X33058985Y-43472481D01*
X32965853Y-43333100D01*
X32901703Y-43178228D01*
X32869000Y-43013816D01*
X32869000Y-42846184D01*
X32901703Y-42681772D01*
X32965853Y-42526900D01*
X33058985Y-42387519D01*
X33177519Y-42268985D01*
X33316900Y-42175853D01*
X33471772Y-42111703D01*
X33636184Y-42079000D01*
X33803816Y-42079000D01*
X33968228Y-42111703D01*
X33968228Y-42111703D01*
G37*
G36*
X42555914Y-42192488D02*
G01*
X42701686Y-42252869D01*
X42701688Y-42252870D01*
X42832880Y-42340529D01*
X42944450Y-42452099D01*
X43032109Y-42583291D01*
X43032110Y-42583293D01*
X43092491Y-42729065D01*
X43123272Y-42883814D01*
X43123272Y-43041600D01*
X43092491Y-43196349D01*
X43032110Y-43342121D01*
X43032109Y-43342123D01*
X42944450Y-43473315D01*
X42832880Y-43584885D01*
X42701688Y-43672544D01*
X42701687Y-43672545D01*
X42701686Y-43672545D01*
X42555914Y-43732926D01*
X42401165Y-43763707D01*
X42243379Y-43763707D01*
X42088630Y-43732926D01*
X41942858Y-43672545D01*
X41942857Y-43672545D01*
X41942856Y-43672544D01*
X41811664Y-43584885D01*
X41700094Y-43473315D01*
X41612435Y-43342123D01*
X41612434Y-43342121D01*
X41552053Y-43196349D01*
X41521272Y-43041600D01*
X41521272Y-42883814D01*
X41552053Y-42729065D01*
X41612434Y-42583293D01*
X41612435Y-42583291D01*
X41700094Y-42452099D01*
X41811664Y-42340529D01*
X41942856Y-42252870D01*
X41942858Y-42252869D01*
X42088630Y-42192488D01*
X42243379Y-42161707D01*
X42401165Y-42161707D01*
X42555914Y-42192488D01*
X42555914Y-42192488D01*
G37*
G36*
X29252103Y-41014075D02*
G01*
X29479771Y-41108378D01*
X29684666Y-41245285D01*
X29858915Y-41419534D01*
X29995822Y-41624429D01*
X29995823Y-41624431D01*
X30090125Y-41852097D01*
X30138200Y-42093786D01*
X30138200Y-42340214D01*
X30090125Y-42581903D01*
X30036282Y-42711893D01*
X29995822Y-42809571D01*
X29858915Y-43014466D01*
X29684666Y-43188715D01*
X29479771Y-43325622D01*
X29479770Y-43325623D01*
X29479769Y-43325623D01*
X29252103Y-43419925D01*
X29010414Y-43468000D01*
X28763986Y-43468000D01*
X28522297Y-43419925D01*
X28294631Y-43325623D01*
X28294630Y-43325623D01*
X28294629Y-43325622D01*
X28089734Y-43188715D01*
X27915485Y-43014466D01*
X27778578Y-42809571D01*
X27738119Y-42711893D01*
X27684275Y-42581903D01*
X27636200Y-42340214D01*
X27636200Y-42093786D01*
X27684275Y-41852097D01*
X27778577Y-41624431D01*
X27778578Y-41624429D01*
X27915485Y-41419534D01*
X28089734Y-41245285D01*
X28294629Y-41108378D01*
X28522297Y-41014075D01*
X28763986Y-40966000D01*
X29010414Y-40966000D01*
X29252103Y-41014075D01*
X29252103Y-41014075D01*
G37*
G36*
X45057325Y-41751421D02*
G01*
X45203097Y-41811802D01*
X45203099Y-41811803D01*
X45334291Y-41899462D01*
X45445861Y-42011032D01*
X45513128Y-42111705D01*
X45533521Y-42142226D01*
X45593902Y-42287998D01*
X45624683Y-42442747D01*
X45624683Y-42600533D01*
X45593902Y-42755282D01*
X45533521Y-42901054D01*
X45533520Y-42901056D01*
X45445861Y-43032248D01*
X45334291Y-43143818D01*
X45203099Y-43231477D01*
X45203098Y-43231478D01*
X45203097Y-43231478D01*
X45057325Y-43291859D01*
X44902576Y-43322640D01*
X44744790Y-43322640D01*
X44590041Y-43291859D01*
X44444269Y-43231478D01*
X44444268Y-43231478D01*
X44444267Y-43231477D01*
X44313075Y-43143818D01*
X44201505Y-43032248D01*
X44113846Y-42901056D01*
X44113845Y-42901054D01*
X44053464Y-42755282D01*
X44022683Y-42600533D01*
X44022683Y-42442747D01*
X44053464Y-42287998D01*
X44113845Y-42142226D01*
X44134238Y-42111705D01*
X44201505Y-42011032D01*
X44313075Y-41899462D01*
X44444267Y-41811803D01*
X44444269Y-41811802D01*
X44590041Y-41751421D01*
X44744790Y-41720640D01*
X44902576Y-41720640D01*
X45057325Y-41751421D01*
X45057325Y-41751421D01*
G37*
G36*
X36838228Y-40031703D02*
G01*
X36993100Y-40095853D01*
X37132481Y-40188985D01*
X37251015Y-40307519D01*
X37344147Y-40446900D01*
X37408297Y-40601772D01*
X37441000Y-40766184D01*
X37441000Y-40933816D01*
X37408297Y-41098228D01*
X37344147Y-41253100D01*
X37251015Y-41392481D01*
X37132481Y-41511015D01*
X36993100Y-41604147D01*
X36838228Y-41668297D01*
X36673816Y-41701000D01*
X36506184Y-41701000D01*
X36341772Y-41668297D01*
X36186900Y-41604147D01*
X36047519Y-41511015D01*
X35928985Y-41392481D01*
X35835853Y-41253100D01*
X35771703Y-41098228D01*
X35739000Y-40933816D01*
X35739000Y-40766184D01*
X35771703Y-40601772D01*
X35835853Y-40446900D01*
X35928985Y-40307519D01*
X36047519Y-40188985D01*
X36186900Y-40095853D01*
X36341772Y-40031703D01*
X36506184Y-39999000D01*
X36673816Y-39999000D01*
X36838228Y-40031703D01*
X36838228Y-40031703D01*
G37*
G36*
X54566885Y-41370018D02*
G01*
X52939982Y-41656885D01*
X52653115Y-40029982D01*
X54280018Y-39743115D01*
X54566885Y-41370018D01*
X54566885Y-41370018D01*
G37*
G36*
X28588400Y-38441763D02*
G01*
X27337399Y-40608560D01*
X25170602Y-39357559D01*
X26421603Y-37190762D01*
X28588400Y-38441763D01*
X28588400Y-38441763D01*
G37*
G36*
X20090680Y-40140680D02*
G01*
X17489320Y-40140680D01*
X17489320Y-37539320D01*
X20090680Y-37539320D01*
X20090680Y-40140680D01*
X20090680Y-40140680D01*
G37*
G36*
X22979393Y-37589304D02*
G01*
X23216101Y-37687352D01*
X23216103Y-37687353D01*
X23429135Y-37829696D01*
X23610304Y-38010865D01*
X23752647Y-38223897D01*
X23752648Y-38223899D01*
X23850696Y-38460607D01*
X23900680Y-38711893D01*
X23900680Y-38968107D01*
X23850696Y-39219393D01*
X23752648Y-39456101D01*
X23752647Y-39456103D01*
X23610304Y-39669135D01*
X23429135Y-39850304D01*
X23216103Y-39992647D01*
X23216102Y-39992648D01*
X23216101Y-39992648D01*
X22979393Y-40090696D01*
X22728107Y-40140680D01*
X22471893Y-40140680D01*
X22220607Y-40090696D01*
X21983899Y-39992648D01*
X21983898Y-39992648D01*
X21983897Y-39992647D01*
X21770865Y-39850304D01*
X21589696Y-39669135D01*
X21447353Y-39456103D01*
X21447352Y-39456101D01*
X21349304Y-39219393D01*
X21299320Y-38968107D01*
X21299320Y-38711893D01*
X21349304Y-38460607D01*
X21447352Y-38223899D01*
X21447353Y-38223897D01*
X21589696Y-38010865D01*
X21770865Y-37829696D01*
X21983897Y-37687353D01*
X21983899Y-37687352D01*
X22220607Y-37589304D01*
X22471893Y-37539320D01*
X22728107Y-37539320D01*
X22979393Y-37589304D01*
X22979393Y-37589304D01*
G37*
G36*
X44742342Y-37242807D02*
G01*
X44897214Y-37306957D01*
X45036595Y-37400089D01*
X45155129Y-37518623D01*
X45248261Y-37658004D01*
X45312411Y-37812876D01*
X45345114Y-37977288D01*
X45345114Y-38144920D01*
X45312411Y-38309332D01*
X45248261Y-38464204D01*
X45155129Y-38603585D01*
X45036595Y-38722119D01*
X44897214Y-38815251D01*
X44742342Y-38879401D01*
X44577930Y-38912104D01*
X44410298Y-38912104D01*
X44245886Y-38879401D01*
X44091014Y-38815251D01*
X43951633Y-38722119D01*
X43833099Y-38603585D01*
X43739967Y-38464204D01*
X43675817Y-38309332D01*
X43643114Y-38144920D01*
X43643114Y-37977288D01*
X43675817Y-37812876D01*
X43739967Y-37658004D01*
X43833099Y-37518623D01*
X43951633Y-37400089D01*
X44091014Y-37306957D01*
X44245886Y-37242807D01*
X44410298Y-37210104D01*
X44577930Y-37210104D01*
X44742342Y-37242807D01*
X44742342Y-37242807D01*
G37*
G36*
X52280937Y-37222417D02*
G01*
X52441356Y-37271080D01*
X52508475Y-37306956D01*
X52589192Y-37350100D01*
X52718773Y-37456445D01*
X52825118Y-37586026D01*
X52825119Y-37586028D01*
X52904138Y-37733862D01*
X52952801Y-37894281D01*
X52969231Y-38061104D01*
X52952801Y-38227927D01*
X52904138Y-38388346D01*
X52833228Y-38521010D01*
X52825118Y-38536182D01*
X52718773Y-38665763D01*
X52589192Y-38772108D01*
X52589190Y-38772109D01*
X52441356Y-38851128D01*
X52280937Y-38899791D01*
X52155918Y-38912104D01*
X52072310Y-38912104D01*
X51947291Y-38899791D01*
X51786872Y-38851128D01*
X51639038Y-38772109D01*
X51639036Y-38772108D01*
X51509455Y-38665763D01*
X51403110Y-38536182D01*
X51395000Y-38521010D01*
X51324090Y-38388346D01*
X51275427Y-38227927D01*
X51258997Y-38061104D01*
X51275427Y-37894281D01*
X51324090Y-37733862D01*
X51403109Y-37586028D01*
X51403110Y-37586026D01*
X51509455Y-37456445D01*
X51639036Y-37350100D01*
X51719753Y-37306956D01*
X51786872Y-37271080D01*
X51947291Y-37222417D01*
X52072310Y-37210104D01*
X52155918Y-37210104D01*
X52280937Y-37222417D01*
X52280937Y-37222417D01*
G37*
G36*
X34578228Y-37061703D02*
G01*
X34733100Y-37125853D01*
X34872481Y-37218985D01*
X34991015Y-37337519D01*
X35084147Y-37476900D01*
X35148297Y-37631772D01*
X35181000Y-37796184D01*
X35181000Y-37963816D01*
X35148297Y-38128228D01*
X35084147Y-38283100D01*
X34991015Y-38422481D01*
X34872481Y-38541015D01*
X34733100Y-38634147D01*
X34578228Y-38698297D01*
X34413816Y-38731000D01*
X34246184Y-38731000D01*
X34081772Y-38698297D01*
X33926900Y-38634147D01*
X33787519Y-38541015D01*
X33668985Y-38422481D01*
X33575853Y-38283100D01*
X33511703Y-38128228D01*
X33479000Y-37963816D01*
X33479000Y-37796184D01*
X33511703Y-37631772D01*
X33575853Y-37476900D01*
X33668985Y-37337519D01*
X33787519Y-37218985D01*
X33926900Y-37125853D01*
X34081772Y-37061703D01*
X34246184Y-37029000D01*
X34413816Y-37029000D01*
X34578228Y-37061703D01*
X34578228Y-37061703D01*
G37*
G36*
X42116823Y-37041313D02*
G01*
X42277242Y-37089976D01*
X42344361Y-37125852D01*
X42425078Y-37168996D01*
X42554659Y-37275341D01*
X42661004Y-37404922D01*
X42661005Y-37404924D01*
X42740024Y-37552758D01*
X42788687Y-37713177D01*
X42805117Y-37880000D01*
X42788687Y-38046823D01*
X42740024Y-38207242D01*
X42699477Y-38283100D01*
X42661004Y-38355078D01*
X42554659Y-38484659D01*
X42425078Y-38591004D01*
X42425076Y-38591005D01*
X42277242Y-38670024D01*
X42116823Y-38718687D01*
X41991804Y-38731000D01*
X41908196Y-38731000D01*
X41783177Y-38718687D01*
X41622758Y-38670024D01*
X41474924Y-38591005D01*
X41474922Y-38591004D01*
X41345341Y-38484659D01*
X41238996Y-38355078D01*
X41200523Y-38283100D01*
X41159976Y-38207242D01*
X41111313Y-38046823D01*
X41094883Y-37880000D01*
X41111313Y-37713177D01*
X41159976Y-37552758D01*
X41238995Y-37404924D01*
X41238996Y-37404922D01*
X41345341Y-37275341D01*
X41474922Y-37168996D01*
X41555639Y-37125852D01*
X41622758Y-37089976D01*
X41783177Y-37041313D01*
X41908196Y-37029000D01*
X41991804Y-37029000D01*
X42116823Y-37041313D01*
X42116823Y-37041313D01*
G37*
G36*
X28704904Y-35167076D02*
G01*
X28932572Y-35261379D01*
X29137467Y-35398286D01*
X29311716Y-35572535D01*
X29377043Y-35670304D01*
X29448624Y-35777432D01*
X29527844Y-35968686D01*
X29542926Y-36005098D01*
X29591001Y-36246788D01*
X29591001Y-36493214D01*
X29542926Y-36734904D01*
X29448623Y-36962572D01*
X29311716Y-37167467D01*
X29137467Y-37341716D01*
X28932572Y-37478623D01*
X28932571Y-37478624D01*
X28932570Y-37478624D01*
X28704904Y-37572926D01*
X28463215Y-37621001D01*
X28216787Y-37621001D01*
X27975098Y-37572926D01*
X27747432Y-37478624D01*
X27747431Y-37478624D01*
X27747430Y-37478623D01*
X27542535Y-37341716D01*
X27368286Y-37167467D01*
X27231379Y-36962572D01*
X27137076Y-36734904D01*
X27089001Y-36493214D01*
X27089001Y-36246788D01*
X27137076Y-36005098D01*
X27152158Y-35968686D01*
X27231378Y-35777432D01*
X27302959Y-35670304D01*
X27368286Y-35572535D01*
X27542535Y-35398286D01*
X27747430Y-35261379D01*
X27975098Y-35167076D01*
X28216787Y-35119001D01*
X28463215Y-35119001D01*
X28704904Y-35167076D01*
X28704904Y-35167076D01*
G37*
G36*
X38476823Y-34291313D02*
G01*
X38637242Y-34339976D01*
X38769906Y-34410886D01*
X38785078Y-34418996D01*
X38914659Y-34525341D01*
X39021004Y-34654922D01*
X39021005Y-34654924D01*
X39100024Y-34802758D01*
X39148687Y-34963177D01*
X39165117Y-35130000D01*
X39148687Y-35296823D01*
X39100024Y-35457242D01*
X39038397Y-35572537D01*
X39021004Y-35605078D01*
X38914659Y-35734659D01*
X38785078Y-35841004D01*
X38785076Y-35841005D01*
X38637242Y-35920024D01*
X38476823Y-35968687D01*
X38351804Y-35981000D01*
X38268196Y-35981000D01*
X38143177Y-35968687D01*
X37982758Y-35920024D01*
X37834924Y-35841005D01*
X37834922Y-35841004D01*
X37705341Y-35734659D01*
X37598996Y-35605078D01*
X37581603Y-35572537D01*
X37519976Y-35457242D01*
X37471313Y-35296823D01*
X37454883Y-35130000D01*
X37471313Y-34963177D01*
X37519976Y-34802758D01*
X37598995Y-34654924D01*
X37598996Y-34654922D01*
X37705341Y-34525341D01*
X37834922Y-34418996D01*
X37850094Y-34410886D01*
X37982758Y-34339976D01*
X38143177Y-34291313D01*
X38268196Y-34279000D01*
X38351804Y-34279000D01*
X38476823Y-34291313D01*
X38476823Y-34291313D01*
G37*
G36*
X23279393Y-33409304D02*
G01*
X23485457Y-33494659D01*
X23516103Y-33507353D01*
X23729135Y-33649696D01*
X23910304Y-33830865D01*
X24052647Y-34043897D01*
X24052648Y-34043899D01*
X24150696Y-34280607D01*
X24200680Y-34531893D01*
X24200680Y-34788107D01*
X24150696Y-35039393D01*
X24058746Y-35261378D01*
X24052647Y-35276103D01*
X23910304Y-35489135D01*
X23729135Y-35670304D01*
X23516103Y-35812647D01*
X23516102Y-35812648D01*
X23516101Y-35812648D01*
X23279393Y-35910696D01*
X23028107Y-35960680D01*
X22771893Y-35960680D01*
X22520607Y-35910696D01*
X22283899Y-35812648D01*
X22283898Y-35812648D01*
X22283897Y-35812647D01*
X22070865Y-35670304D01*
X21889696Y-35489135D01*
X21747353Y-35276103D01*
X21741254Y-35261378D01*
X21649304Y-35039393D01*
X21599320Y-34788107D01*
X21599320Y-34531893D01*
X21649304Y-34280607D01*
X21747352Y-34043899D01*
X21747353Y-34043897D01*
X21889696Y-33830865D01*
X22070865Y-33649696D01*
X22283897Y-33507353D01*
X22314543Y-33494659D01*
X22520607Y-33409304D01*
X22771893Y-33359320D01*
X23028107Y-33359320D01*
X23279393Y-33409304D01*
X23279393Y-33409304D01*
G37*
G36*
X20390680Y-35960680D02*
G01*
X17789320Y-35960680D01*
X17789320Y-33359320D01*
X20390680Y-33359320D01*
X20390680Y-35960680D01*
X20390680Y-35960680D01*
G37*
G36*
X44998228Y-33181703D02*
G01*
X45153100Y-33245853D01*
X45292481Y-33338985D01*
X45411015Y-33457519D01*
X45504147Y-33596900D01*
X45568297Y-33751772D01*
X45601000Y-33916184D01*
X45601000Y-34083816D01*
X45568297Y-34248228D01*
X45504147Y-34403100D01*
X45411015Y-34542481D01*
X45292481Y-34661015D01*
X45153100Y-34754147D01*
X44998228Y-34818297D01*
X44833816Y-34851000D01*
X44666184Y-34851000D01*
X44501772Y-34818297D01*
X44346900Y-34754147D01*
X44207519Y-34661015D01*
X44088985Y-34542481D01*
X43995853Y-34403100D01*
X43931703Y-34248228D01*
X43899000Y-34083816D01*
X43899000Y-33916184D01*
X43931703Y-33751772D01*
X43995853Y-33596900D01*
X44088985Y-33457519D01*
X44207519Y-33338985D01*
X44346900Y-33245853D01*
X44501772Y-33181703D01*
X44666184Y-33149000D01*
X44833816Y-33149000D01*
X44998228Y-33181703D01*
X44998228Y-33181703D01*
G37*
G36*
X41980630Y-32101771D02*
G01*
X42141049Y-32150434D01*
X42273713Y-32221344D01*
X42288885Y-32229454D01*
X42418466Y-32335799D01*
X42524811Y-32465380D01*
X42524812Y-32465382D01*
X42603831Y-32613216D01*
X42652494Y-32773635D01*
X42668924Y-32940458D01*
X42652494Y-33107281D01*
X42603831Y-33267700D01*
X42565728Y-33338985D01*
X42524811Y-33415536D01*
X42418466Y-33545117D01*
X42288885Y-33651462D01*
X42288883Y-33651463D01*
X42141049Y-33730482D01*
X41980630Y-33779145D01*
X41855611Y-33791458D01*
X41772003Y-33791458D01*
X41646984Y-33779145D01*
X41486565Y-33730482D01*
X41338731Y-33651463D01*
X41338729Y-33651462D01*
X41209148Y-33545117D01*
X41102803Y-33415536D01*
X41061886Y-33338985D01*
X41023783Y-33267700D01*
X40975120Y-33107281D01*
X40958690Y-32940458D01*
X40975120Y-32773635D01*
X41023783Y-32613216D01*
X41102802Y-32465382D01*
X41102803Y-32465380D01*
X41209148Y-32335799D01*
X41338729Y-32229454D01*
X41353901Y-32221344D01*
X41486565Y-32150434D01*
X41646984Y-32101771D01*
X41772003Y-32089458D01*
X41855611Y-32089458D01*
X41980630Y-32101771D01*
X41980630Y-32101771D01*
G37*
G36*
X27686823Y-32051313D02*
G01*
X27847242Y-32099976D01*
X27941640Y-32150433D01*
X27995078Y-32178996D01*
X28124659Y-32285341D01*
X28231004Y-32414922D01*
X28231005Y-32414924D01*
X28310024Y-32562758D01*
X28358687Y-32723177D01*
X28375117Y-32890000D01*
X28358687Y-33056823D01*
X28310024Y-33217242D01*
X28244951Y-33338985D01*
X28231004Y-33365078D01*
X28124659Y-33494659D01*
X27995078Y-33601004D01*
X27995076Y-33601005D01*
X27847242Y-33680024D01*
X27686823Y-33728687D01*
X27561804Y-33741000D01*
X27478196Y-33741000D01*
X27353177Y-33728687D01*
X27192758Y-33680024D01*
X27044924Y-33601005D01*
X27044922Y-33601004D01*
X26915341Y-33494659D01*
X26808996Y-33365078D01*
X26795049Y-33338985D01*
X26729976Y-33217242D01*
X26681313Y-33056823D01*
X26664883Y-32890000D01*
X26681313Y-32723177D01*
X26729976Y-32562758D01*
X26808995Y-32414924D01*
X26808996Y-32414922D01*
X26915341Y-32285341D01*
X27044922Y-32178996D01*
X27098360Y-32150433D01*
X27192758Y-32099976D01*
X27353177Y-32051313D01*
X27478196Y-32039000D01*
X27561804Y-32039000D01*
X27686823Y-32051313D01*
X27686823Y-32051313D01*
G37*
G36*
X35306823Y-32051313D02*
G01*
X35467242Y-32099976D01*
X35561640Y-32150433D01*
X35615078Y-32178996D01*
X35744659Y-32285341D01*
X35851004Y-32414922D01*
X35851005Y-32414924D01*
X35930024Y-32562758D01*
X35978687Y-32723177D01*
X35995117Y-32890000D01*
X35978687Y-33056823D01*
X35930024Y-33217242D01*
X35864951Y-33338985D01*
X35851004Y-33365078D01*
X35744659Y-33494659D01*
X35615078Y-33601004D01*
X35615076Y-33601005D01*
X35467242Y-33680024D01*
X35306823Y-33728687D01*
X35181804Y-33741000D01*
X35098196Y-33741000D01*
X34973177Y-33728687D01*
X34812758Y-33680024D01*
X34664924Y-33601005D01*
X34664922Y-33601004D01*
X34535341Y-33494659D01*
X34428996Y-33365078D01*
X34415049Y-33338985D01*
X34349976Y-33217242D01*
X34301313Y-33056823D01*
X34284883Y-32890000D01*
X34301313Y-32723177D01*
X34349976Y-32562758D01*
X34428995Y-32414924D01*
X34428996Y-32414922D01*
X34535341Y-32285341D01*
X34664922Y-32178996D01*
X34718360Y-32150433D01*
X34812758Y-32099976D01*
X34973177Y-32051313D01*
X35098196Y-32039000D01*
X35181804Y-32039000D01*
X35306823Y-32051313D01*
X35306823Y-32051313D01*
G37*
G36*
X17348228Y-30411703D02*
G01*
X17503100Y-30475853D01*
X17642481Y-30568985D01*
X17761015Y-30687519D01*
X17854147Y-30826900D01*
X17918297Y-30981772D01*
X17951000Y-31146184D01*
X17951000Y-31313816D01*
X17918297Y-31478228D01*
X17854147Y-31633100D01*
X17761015Y-31772481D01*
X17642481Y-31891015D01*
X17503100Y-31984147D01*
X17348228Y-32048297D01*
X17183816Y-32081000D01*
X17016184Y-32081000D01*
X16851772Y-32048297D01*
X16696900Y-31984147D01*
X16557519Y-31891015D01*
X16438985Y-31772481D01*
X16345853Y-31633100D01*
X16281703Y-31478228D01*
X16249000Y-31313816D01*
X16249000Y-31146184D01*
X16281703Y-30981772D01*
X16345853Y-30826900D01*
X16438985Y-30687519D01*
X16557519Y-30568985D01*
X16696900Y-30475853D01*
X16851772Y-30411703D01*
X17016184Y-30379000D01*
X17183816Y-30379000D01*
X17348228Y-30411703D01*
X17348228Y-30411703D01*
G37*
G36*
X24886823Y-30391313D02*
G01*
X25047242Y-30439976D01*
X25114361Y-30475852D01*
X25195078Y-30518996D01*
X25324659Y-30625341D01*
X25431004Y-30754922D01*
X25431005Y-30754924D01*
X25510024Y-30902758D01*
X25558687Y-31063177D01*
X25575117Y-31230000D01*
X25558687Y-31396823D01*
X25510024Y-31557242D01*
X25469477Y-31633100D01*
X25431004Y-31705078D01*
X25324659Y-31834659D01*
X25195078Y-31941004D01*
X25195076Y-31941005D01*
X25047242Y-32020024D01*
X24886823Y-32068687D01*
X24761804Y-32081000D01*
X24678196Y-32081000D01*
X24553177Y-32068687D01*
X24392758Y-32020024D01*
X24244924Y-31941005D01*
X24244922Y-31941004D01*
X24115341Y-31834659D01*
X24008996Y-31705078D01*
X23970523Y-31633100D01*
X23929976Y-31557242D01*
X23881313Y-31396823D01*
X23864883Y-31230000D01*
X23881313Y-31063177D01*
X23929976Y-30902758D01*
X24008995Y-30754924D01*
X24008996Y-30754922D01*
X24115341Y-30625341D01*
X24244922Y-30518996D01*
X24325639Y-30475852D01*
X24392758Y-30439976D01*
X24553177Y-30391313D01*
X24678196Y-30379000D01*
X24761804Y-30379000D01*
X24886823Y-30391313D01*
X24886823Y-30391313D01*
G37*
G36*
X35306823Y-29511313D02*
G01*
X35467242Y-29559976D01*
X35599906Y-29630886D01*
X35615078Y-29638996D01*
X35744659Y-29745341D01*
X35851004Y-29874922D01*
X35851005Y-29874924D01*
X35930024Y-30022758D01*
X35978687Y-30183177D01*
X35995117Y-30350000D01*
X35978687Y-30516823D01*
X35930024Y-30677242D01*
X35924530Y-30687520D01*
X35851004Y-30825078D01*
X35744659Y-30954659D01*
X35615078Y-31061004D01*
X35599906Y-31069114D01*
X35467242Y-31140024D01*
X35306823Y-31188687D01*
X35181804Y-31201000D01*
X35098196Y-31201000D01*
X34973177Y-31188687D01*
X34812758Y-31140024D01*
X34680094Y-31069114D01*
X34664922Y-31061004D01*
X34535341Y-30954659D01*
X34428996Y-30825078D01*
X34355470Y-30687520D01*
X34349976Y-30677242D01*
X34301313Y-30516823D01*
X34284883Y-30350000D01*
X34301313Y-30183177D01*
X34349976Y-30022758D01*
X34428995Y-29874924D01*
X34428996Y-29874922D01*
X34535341Y-29745341D01*
X34664922Y-29638996D01*
X34680094Y-29630886D01*
X34812758Y-29559976D01*
X34973177Y-29511313D01*
X35098196Y-29499000D01*
X35181804Y-29499000D01*
X35306823Y-29511313D01*
X35306823Y-29511313D01*
G37*
G36*
X27686823Y-29511313D02*
G01*
X27847242Y-29559976D01*
X27979906Y-29630886D01*
X27995078Y-29638996D01*
X28124659Y-29745341D01*
X28231004Y-29874922D01*
X28231005Y-29874924D01*
X28310024Y-30022758D01*
X28358687Y-30183177D01*
X28375117Y-30350000D01*
X28358687Y-30516823D01*
X28310024Y-30677242D01*
X28304530Y-30687520D01*
X28231004Y-30825078D01*
X28124659Y-30954659D01*
X27995078Y-31061004D01*
X27979906Y-31069114D01*
X27847242Y-31140024D01*
X27686823Y-31188687D01*
X27561804Y-31201000D01*
X27478196Y-31201000D01*
X27353177Y-31188687D01*
X27192758Y-31140024D01*
X27060094Y-31069114D01*
X27044922Y-31061004D01*
X26915341Y-30954659D01*
X26808996Y-30825078D01*
X26735470Y-30687520D01*
X26729976Y-30677242D01*
X26681313Y-30516823D01*
X26664883Y-30350000D01*
X26681313Y-30183177D01*
X26729976Y-30022758D01*
X26808995Y-29874924D01*
X26808996Y-29874922D01*
X26915341Y-29745341D01*
X27044922Y-29638996D01*
X27060094Y-29630886D01*
X27192758Y-29559976D01*
X27353177Y-29511313D01*
X27478196Y-29499000D01*
X27561804Y-29499000D01*
X27686823Y-29511313D01*
X27686823Y-29511313D01*
G37*
G36*
X14649393Y-26589304D02*
G01*
X14886101Y-26687352D01*
X14886103Y-26687353D01*
X15099135Y-26829696D01*
X15280304Y-27010865D01*
X15410248Y-27205341D01*
X15422648Y-27223899D01*
X15520696Y-27460607D01*
X15570680Y-27711893D01*
X15570680Y-27968107D01*
X15520696Y-28219393D01*
X15449000Y-28392481D01*
X15422647Y-28456103D01*
X15280304Y-28669135D01*
X15099135Y-28850304D01*
X14886103Y-28992647D01*
X14886102Y-28992648D01*
X14886101Y-28992648D01*
X14649393Y-29090696D01*
X14398107Y-29140680D01*
X14141893Y-29140680D01*
X13890607Y-29090696D01*
X13653899Y-28992648D01*
X13653898Y-28992648D01*
X13653897Y-28992647D01*
X13440865Y-28850304D01*
X13259696Y-28669135D01*
X13117353Y-28456103D01*
X13091000Y-28392481D01*
X13019304Y-28219393D01*
X12969320Y-27968107D01*
X12969320Y-27711893D01*
X13019304Y-27460607D01*
X13117352Y-27223899D01*
X13129752Y-27205341D01*
X13259696Y-27010865D01*
X13440865Y-26829696D01*
X13653897Y-26687353D01*
X13653899Y-26687352D01*
X13890607Y-26589304D01*
X14141893Y-26539320D01*
X14398107Y-26539320D01*
X14649393Y-26589304D01*
X14649393Y-26589304D01*
G37*
G36*
X17346823Y-27011313D02*
G01*
X17507242Y-27059976D01*
X17595036Y-27106903D01*
X17655078Y-27138996D01*
X17784659Y-27245341D01*
X17891004Y-27374922D01*
X17891005Y-27374924D01*
X17970024Y-27522758D01*
X18018687Y-27683177D01*
X18035117Y-27850000D01*
X18018687Y-28016823D01*
X17970024Y-28177242D01*
X17929477Y-28253100D01*
X17891004Y-28325078D01*
X17784659Y-28454659D01*
X17655078Y-28561004D01*
X17655076Y-28561005D01*
X17507242Y-28640024D01*
X17346823Y-28688687D01*
X17221804Y-28701000D01*
X17138196Y-28701000D01*
X17013177Y-28688687D01*
X16852758Y-28640024D01*
X16704924Y-28561005D01*
X16704922Y-28561004D01*
X16575341Y-28454659D01*
X16468996Y-28325078D01*
X16430523Y-28253100D01*
X16389976Y-28177242D01*
X16341313Y-28016823D01*
X16324883Y-27850000D01*
X16341313Y-27683177D01*
X16389976Y-27522758D01*
X16468995Y-27374924D01*
X16468996Y-27374922D01*
X16575341Y-27245341D01*
X16704922Y-27138996D01*
X16764964Y-27106903D01*
X16852758Y-27059976D01*
X17013177Y-27011313D01*
X17138196Y-26999000D01*
X17221804Y-26999000D01*
X17346823Y-27011313D01*
X17346823Y-27011313D01*
G37*
G36*
X25048228Y-27031703D02*
G01*
X25203100Y-27095853D01*
X25342481Y-27188985D01*
X25461015Y-27307519D01*
X25554147Y-27446900D01*
X25618297Y-27601772D01*
X25651000Y-27766184D01*
X25651000Y-27933816D01*
X25618297Y-28098228D01*
X25554147Y-28253100D01*
X25461015Y-28392481D01*
X25342481Y-28511015D01*
X25203100Y-28604147D01*
X25048228Y-28668297D01*
X24883816Y-28701000D01*
X24716184Y-28701000D01*
X24551772Y-28668297D01*
X24396900Y-28604147D01*
X24257519Y-28511015D01*
X24138985Y-28392481D01*
X24045853Y-28253100D01*
X23981703Y-28098228D01*
X23949000Y-27933816D01*
X23949000Y-27766184D01*
X23981703Y-27601772D01*
X24045853Y-27446900D01*
X24138985Y-27307519D01*
X24257519Y-27188985D01*
X24396900Y-27095853D01*
X24551772Y-27031703D01*
X24716184Y-26999000D01*
X24883816Y-26999000D01*
X25048228Y-27031703D01*
X25048228Y-27031703D01*
G37*
G36*
X27686823Y-26971313D02*
G01*
X27847242Y-27019976D01*
X27979906Y-27090886D01*
X27995078Y-27098996D01*
X28124659Y-27205341D01*
X28231004Y-27334922D01*
X28231005Y-27334924D01*
X28310024Y-27482758D01*
X28358687Y-27643177D01*
X28375117Y-27810000D01*
X28358687Y-27976823D01*
X28310024Y-28137242D01*
X28242192Y-28264147D01*
X28231004Y-28285078D01*
X28124659Y-28414659D01*
X27995078Y-28521004D01*
X27995076Y-28521005D01*
X27847242Y-28600024D01*
X27847239Y-28600025D01*
X27833647Y-28604148D01*
X27686823Y-28648687D01*
X27561804Y-28661000D01*
X27478196Y-28661000D01*
X27353177Y-28648687D01*
X27206353Y-28604148D01*
X27192761Y-28600025D01*
X27192758Y-28600024D01*
X27044924Y-28521005D01*
X27044922Y-28521004D01*
X26915341Y-28414659D01*
X26808996Y-28285078D01*
X26797808Y-28264147D01*
X26729976Y-28137242D01*
X26681313Y-27976823D01*
X26664883Y-27810000D01*
X26681313Y-27643177D01*
X26729976Y-27482758D01*
X26808995Y-27334924D01*
X26808996Y-27334922D01*
X26915341Y-27205341D01*
X27044922Y-27098996D01*
X27060094Y-27090886D01*
X27192758Y-27019976D01*
X27353177Y-26971313D01*
X27478196Y-26959000D01*
X27561804Y-26959000D01*
X27686823Y-26971313D01*
X27686823Y-26971313D01*
G37*
G36*
X35306823Y-26971313D02*
G01*
X35467242Y-27019976D01*
X35599906Y-27090886D01*
X35615078Y-27098996D01*
X35744659Y-27205341D01*
X35851004Y-27334922D01*
X35851005Y-27334924D01*
X35930024Y-27482758D01*
X35978687Y-27643177D01*
X35995117Y-27810000D01*
X35978687Y-27976823D01*
X35930024Y-28137242D01*
X35862192Y-28264147D01*
X35851004Y-28285078D01*
X35744659Y-28414659D01*
X35615078Y-28521004D01*
X35615076Y-28521005D01*
X35467242Y-28600024D01*
X35467239Y-28600025D01*
X35453647Y-28604148D01*
X35306823Y-28648687D01*
X35181804Y-28661000D01*
X35098196Y-28661000D01*
X34973177Y-28648687D01*
X34826353Y-28604148D01*
X34812761Y-28600025D01*
X34812758Y-28600024D01*
X34664924Y-28521005D01*
X34664922Y-28521004D01*
X34535341Y-28414659D01*
X34428996Y-28285078D01*
X34417808Y-28264147D01*
X34349976Y-28137242D01*
X34301313Y-27976823D01*
X34284883Y-27810000D01*
X34301313Y-27643177D01*
X34349976Y-27482758D01*
X34428995Y-27334924D01*
X34428996Y-27334922D01*
X34535341Y-27205341D01*
X34664922Y-27098996D01*
X34680094Y-27090886D01*
X34812758Y-27019976D01*
X34973177Y-26971313D01*
X35098196Y-26959000D01*
X35181804Y-26959000D01*
X35306823Y-26971313D01*
X35306823Y-26971313D01*
G37*
G36*
X38558228Y-26691703D02*
G01*
X38713100Y-26755853D01*
X38852481Y-26848985D01*
X38971015Y-26967519D01*
X39064147Y-27106900D01*
X39128297Y-27261772D01*
X39161000Y-27426184D01*
X39161000Y-27593816D01*
X39128297Y-27758228D01*
X39064147Y-27913100D01*
X38971015Y-28052481D01*
X38852481Y-28171015D01*
X38713100Y-28264147D01*
X38558228Y-28328297D01*
X38393816Y-28361000D01*
X38226184Y-28361000D01*
X38061772Y-28328297D01*
X37906900Y-28264147D01*
X37767519Y-28171015D01*
X37648985Y-28052481D01*
X37555853Y-27913100D01*
X37491703Y-27758228D01*
X37459000Y-27593816D01*
X37459000Y-27426184D01*
X37491703Y-27261772D01*
X37555853Y-27106900D01*
X37648985Y-26967519D01*
X37767519Y-26848985D01*
X37906900Y-26755853D01*
X38061772Y-26691703D01*
X38226184Y-26659000D01*
X38393816Y-26659000D01*
X38558228Y-26691703D01*
X38558228Y-26691703D01*
G37*
G36*
X47523016Y-26000855D02*
G01*
X47683435Y-26049518D01*
X47794130Y-26108686D01*
X47831271Y-26128538D01*
X47960852Y-26234883D01*
X48067197Y-26364464D01*
X48067198Y-26364466D01*
X48146217Y-26512300D01*
X48146218Y-26512303D01*
X48155276Y-26542162D01*
X48194880Y-26672719D01*
X48211310Y-26839542D01*
X48194880Y-27006365D01*
X48146217Y-27166784D01*
X48115689Y-27223897D01*
X48067197Y-27314620D01*
X47960852Y-27444201D01*
X47831271Y-27550546D01*
X47831269Y-27550547D01*
X47683435Y-27629566D01*
X47523016Y-27678229D01*
X47397997Y-27690542D01*
X47314389Y-27690542D01*
X47189370Y-27678229D01*
X47028951Y-27629566D01*
X46881117Y-27550547D01*
X46881115Y-27550546D01*
X46751534Y-27444201D01*
X46645189Y-27314620D01*
X46596697Y-27223897D01*
X46566169Y-27166784D01*
X46517506Y-27006365D01*
X46501076Y-26839542D01*
X46517506Y-26672719D01*
X46557110Y-26542162D01*
X46566168Y-26512303D01*
X46566169Y-26512300D01*
X46645188Y-26364466D01*
X46645189Y-26364464D01*
X46751534Y-26234883D01*
X46881115Y-26128538D01*
X46918256Y-26108686D01*
X47028951Y-26049518D01*
X47189370Y-26000855D01*
X47314389Y-25988542D01*
X47397997Y-25988542D01*
X47523016Y-26000855D01*
X47523016Y-26000855D01*
G37*
G36*
X44668228Y-24961703D02*
G01*
X44823100Y-25025853D01*
X44962481Y-25118985D01*
X45081015Y-25237519D01*
X45174147Y-25376900D01*
X45238297Y-25531772D01*
X45271000Y-25696184D01*
X45271000Y-25863816D01*
X45238297Y-26028228D01*
X45174147Y-26183100D01*
X45081015Y-26322481D01*
X44962481Y-26441015D01*
X44823100Y-26534147D01*
X44668228Y-26598297D01*
X44503816Y-26631000D01*
X44336184Y-26631000D01*
X44171772Y-26598297D01*
X44016900Y-26534147D01*
X43877519Y-26441015D01*
X43758985Y-26322481D01*
X43665853Y-26183100D01*
X43601703Y-26028228D01*
X43569000Y-25863816D01*
X43569000Y-25696184D01*
X43601703Y-25531772D01*
X43665853Y-25376900D01*
X43758985Y-25237519D01*
X43877519Y-25118985D01*
X44016900Y-25025853D01*
X44171772Y-24961703D01*
X44336184Y-24929000D01*
X44503816Y-24929000D01*
X44668228Y-24961703D01*
X44668228Y-24961703D01*
G37*
G36*
X35306823Y-24431313D02*
G01*
X35467242Y-24479976D01*
X35599906Y-24550886D01*
X35615078Y-24558996D01*
X35744659Y-24665341D01*
X35851004Y-24794922D01*
X35851005Y-24794924D01*
X35930024Y-24942758D01*
X35978687Y-25103177D01*
X35995117Y-25270000D01*
X35978687Y-25436823D01*
X35930024Y-25597242D01*
X35877138Y-25696184D01*
X35851004Y-25745078D01*
X35744659Y-25874659D01*
X35615078Y-25981004D01*
X35615076Y-25981005D01*
X35467242Y-26060024D01*
X35306823Y-26108687D01*
X35181804Y-26121000D01*
X35098196Y-26121000D01*
X34973177Y-26108687D01*
X34812758Y-26060024D01*
X34664924Y-25981005D01*
X34664922Y-25981004D01*
X34535341Y-25874659D01*
X34428996Y-25745078D01*
X34402862Y-25696184D01*
X34349976Y-25597242D01*
X34301313Y-25436823D01*
X34284883Y-25270000D01*
X34301313Y-25103177D01*
X34349976Y-24942758D01*
X34428995Y-24794924D01*
X34428996Y-24794922D01*
X34535341Y-24665341D01*
X34664922Y-24558996D01*
X34680094Y-24550886D01*
X34812758Y-24479976D01*
X34973177Y-24431313D01*
X35098196Y-24419000D01*
X35181804Y-24419000D01*
X35306823Y-24431313D01*
X35306823Y-24431313D01*
G37*
G36*
X28371000Y-26121000D02*
G01*
X26669000Y-26121000D01*
X26669000Y-24419000D01*
X28371000Y-24419000D01*
X28371000Y-26121000D01*
X28371000Y-26121000D01*
G37*
G36*
X39059393Y-23259304D02*
G01*
X39296101Y-23357352D01*
X39296103Y-23357353D01*
X39509135Y-23499696D01*
X39690304Y-23680865D01*
X39810403Y-23860607D01*
X39832648Y-23893899D01*
X39930696Y-24130607D01*
X39980680Y-24381893D01*
X39980680Y-24638107D01*
X39930696Y-24889393D01*
X39832648Y-25126101D01*
X39832647Y-25126103D01*
X39690304Y-25339135D01*
X39509135Y-25520304D01*
X39296103Y-25662647D01*
X39296102Y-25662648D01*
X39296101Y-25662648D01*
X39059393Y-25760696D01*
X38808107Y-25810680D01*
X38551893Y-25810680D01*
X38300607Y-25760696D01*
X38063899Y-25662648D01*
X38063898Y-25662648D01*
X38063897Y-25662647D01*
X37850865Y-25520304D01*
X37669696Y-25339135D01*
X37527353Y-25126103D01*
X37527352Y-25126101D01*
X37429304Y-24889393D01*
X37379320Y-24638107D01*
X37379320Y-24381893D01*
X37429304Y-24130607D01*
X37527352Y-23893899D01*
X37549597Y-23860607D01*
X37669696Y-23680865D01*
X37850865Y-23499696D01*
X38063897Y-23357353D01*
X38063899Y-23357352D01*
X38300607Y-23259304D01*
X38551893Y-23209320D01*
X38808107Y-23209320D01*
X39059393Y-23259304D01*
X39059393Y-23259304D01*
G37*
G36*
X17316823Y-23891313D02*
G01*
X17477242Y-23939976D01*
X17557921Y-23983100D01*
X17625078Y-24018996D01*
X17754659Y-24125341D01*
X17861004Y-24254922D01*
X17861005Y-24254924D01*
X17940024Y-24402758D01*
X17988687Y-24563177D01*
X18005117Y-24730000D01*
X17988687Y-24896823D01*
X17940024Y-25057242D01*
X17899477Y-25133100D01*
X17861004Y-25205078D01*
X17754659Y-25334659D01*
X17625078Y-25441004D01*
X17625076Y-25441005D01*
X17477242Y-25520024D01*
X17316823Y-25568687D01*
X17191804Y-25581000D01*
X17108196Y-25581000D01*
X16983177Y-25568687D01*
X16822758Y-25520024D01*
X16674924Y-25441005D01*
X16674922Y-25441004D01*
X16545341Y-25334659D01*
X16438996Y-25205078D01*
X16400523Y-25133100D01*
X16359976Y-25057242D01*
X16311313Y-24896823D01*
X16294883Y-24730000D01*
X16311313Y-24563177D01*
X16359976Y-24402758D01*
X16438995Y-24254924D01*
X16438996Y-24254922D01*
X16545341Y-24125341D01*
X16674922Y-24018996D01*
X16742079Y-23983100D01*
X16822758Y-23939976D01*
X16983177Y-23891313D01*
X17108196Y-23879000D01*
X17191804Y-23879000D01*
X17316823Y-23891313D01*
X17316823Y-23891313D01*
G37*
G36*
X25018228Y-23911703D02*
G01*
X25173100Y-23975853D01*
X25312481Y-24068985D01*
X25431015Y-24187519D01*
X25524147Y-24326900D01*
X25588297Y-24481772D01*
X25621000Y-24646184D01*
X25621000Y-24813816D01*
X25588297Y-24978228D01*
X25524147Y-25133100D01*
X25431015Y-25272481D01*
X25312481Y-25391015D01*
X25173100Y-25484147D01*
X25018228Y-25548297D01*
X24853816Y-25581000D01*
X24686184Y-25581000D01*
X24521772Y-25548297D01*
X24366900Y-25484147D01*
X24227519Y-25391015D01*
X24108985Y-25272481D01*
X24015853Y-25133100D01*
X23951703Y-24978228D01*
X23919000Y-24813816D01*
X23919000Y-24646184D01*
X23951703Y-24481772D01*
X24015853Y-24326900D01*
X24108985Y-24187519D01*
X24227519Y-24068985D01*
X24366900Y-23975853D01*
X24521772Y-23911703D01*
X24686184Y-23879000D01*
X24853816Y-23879000D01*
X25018228Y-23911703D01*
X25018228Y-23911703D01*
G37*
G36*
X14639393Y-22989304D02*
G01*
X14876101Y-23087352D01*
X14876103Y-23087353D01*
X15089135Y-23229696D01*
X15270304Y-23410865D01*
X15412647Y-23623897D01*
X15412648Y-23623899D01*
X15510696Y-23860607D01*
X15560680Y-24111893D01*
X15560680Y-24368107D01*
X15510696Y-24619393D01*
X15464881Y-24730000D01*
X15412647Y-24856103D01*
X15270304Y-25069135D01*
X15089135Y-25250304D01*
X14876103Y-25392647D01*
X14876102Y-25392648D01*
X14876101Y-25392648D01*
X14639393Y-25490696D01*
X14388107Y-25540680D01*
X14131893Y-25540680D01*
X13880607Y-25490696D01*
X13643899Y-25392648D01*
X13643898Y-25392648D01*
X13643897Y-25392647D01*
X13430865Y-25250304D01*
X13249696Y-25069135D01*
X13107353Y-24856103D01*
X13055119Y-24730000D01*
X13009304Y-24619393D01*
X12959320Y-24368107D01*
X12959320Y-24111893D01*
X13009304Y-23860607D01*
X13107352Y-23623899D01*
X13107353Y-23623897D01*
X13249696Y-23410865D01*
X13430865Y-23229696D01*
X13643897Y-23087353D01*
X13643899Y-23087352D01*
X13880607Y-22989304D01*
X14131893Y-22939320D01*
X14388107Y-22939320D01*
X14639393Y-22989304D01*
X14639393Y-22989304D01*
G37*
G36*
X47288228Y-22761703D02*
G01*
X47443100Y-22825853D01*
X47582481Y-22918985D01*
X47701015Y-23037519D01*
X47794147Y-23176900D01*
X47858297Y-23331772D01*
X47891000Y-23496184D01*
X47891000Y-23663816D01*
X47858297Y-23828228D01*
X47794147Y-23983100D01*
X47701015Y-24122481D01*
X47582481Y-24241015D01*
X47443100Y-24334147D01*
X47288228Y-24398297D01*
X47123816Y-24431000D01*
X46956184Y-24431000D01*
X46791772Y-24398297D01*
X46636900Y-24334147D01*
X46497519Y-24241015D01*
X46378985Y-24122481D01*
X46285853Y-23983100D01*
X46221703Y-23828228D01*
X46189000Y-23663816D01*
X46189000Y-23496184D01*
X46221703Y-23331772D01*
X46285853Y-23176900D01*
X46378985Y-23037519D01*
X46497519Y-22918985D01*
X46636900Y-22825853D01*
X46791772Y-22761703D01*
X46956184Y-22729000D01*
X47123816Y-22729000D01*
X47288228Y-22761703D01*
X47288228Y-22761703D01*
G37*
G36*
X44231000Y-23461000D02*
G01*
X42629000Y-23461000D01*
X42629000Y-21859000D01*
X44231000Y-21859000D01*
X44231000Y-23461000D01*
X44231000Y-23461000D01*
G37*
G36*
X29248228Y-21031703D02*
G01*
X29403100Y-21095853D01*
X29542481Y-21188985D01*
X29661015Y-21307519D01*
X29754147Y-21446900D01*
X29818297Y-21601772D01*
X29851000Y-21766184D01*
X29851000Y-21933816D01*
X29818297Y-22098228D01*
X29754147Y-22253100D01*
X29661015Y-22392481D01*
X29542481Y-22511015D01*
X29403100Y-22604147D01*
X29248228Y-22668297D01*
X29083816Y-22701000D01*
X28916184Y-22701000D01*
X28751772Y-22668297D01*
X28596900Y-22604147D01*
X28457519Y-22511015D01*
X28338985Y-22392481D01*
X28245853Y-22253100D01*
X28181703Y-22098228D01*
X28149000Y-21933816D01*
X28149000Y-21766184D01*
X28181703Y-21601772D01*
X28245853Y-21446900D01*
X28338985Y-21307519D01*
X28457519Y-21188985D01*
X28596900Y-21095853D01*
X28751772Y-21031703D01*
X28916184Y-20999000D01*
X29083816Y-20999000D01*
X29248228Y-21031703D01*
X29248228Y-21031703D01*
G37*
G36*
X39678228Y-20301703D02*
G01*
X39833100Y-20365853D01*
X39972481Y-20458985D01*
X40091015Y-20577519D01*
X40184147Y-20716900D01*
X40248297Y-20871772D01*
X40281000Y-21036184D01*
X40281000Y-21203816D01*
X40248297Y-21368228D01*
X40184147Y-21523100D01*
X40091015Y-21662481D01*
X39972481Y-21781015D01*
X39833100Y-21874147D01*
X39678228Y-21938297D01*
X39513816Y-21971000D01*
X39346184Y-21971000D01*
X39181772Y-21938297D01*
X39026900Y-21874147D01*
X38887519Y-21781015D01*
X38768985Y-21662481D01*
X38675853Y-21523100D01*
X38611703Y-21368228D01*
X38579000Y-21203816D01*
X38579000Y-21036184D01*
X38611703Y-20871772D01*
X38675853Y-20716900D01*
X38768985Y-20577519D01*
X38887519Y-20458985D01*
X39026900Y-20365853D01*
X39181772Y-20301703D01*
X39346184Y-20269000D01*
X39513816Y-20269000D01*
X39678228Y-20301703D01*
X39678228Y-20301703D01*
G37*
G36*
X31976823Y-20281313D02*
G01*
X32137242Y-20329976D01*
X32204361Y-20365852D01*
X32285078Y-20408996D01*
X32414659Y-20515341D01*
X32521004Y-20644922D01*
X32521005Y-20644924D01*
X32600024Y-20792758D01*
X32648687Y-20953177D01*
X32665117Y-21120000D01*
X32648687Y-21286823D01*
X32600024Y-21447242D01*
X32559477Y-21523100D01*
X32521004Y-21595078D01*
X32414659Y-21724659D01*
X32285078Y-21831004D01*
X32285076Y-21831005D01*
X32137242Y-21910024D01*
X31976823Y-21958687D01*
X31851804Y-21971000D01*
X31768196Y-21971000D01*
X31643177Y-21958687D01*
X31482758Y-21910024D01*
X31334924Y-21831005D01*
X31334922Y-21831004D01*
X31205341Y-21724659D01*
X31098996Y-21595078D01*
X31060523Y-21523100D01*
X31019976Y-21447242D01*
X30971313Y-21286823D01*
X30954883Y-21120000D01*
X30971313Y-20953177D01*
X31019976Y-20792758D01*
X31098995Y-20644924D01*
X31098996Y-20644922D01*
X31205341Y-20515341D01*
X31334922Y-20408996D01*
X31415639Y-20365852D01*
X31482758Y-20329976D01*
X31643177Y-20281313D01*
X31768196Y-20269000D01*
X31851804Y-20269000D01*
X31976823Y-20281313D01*
X31976823Y-20281313D01*
G37*
G36*
X21662588Y-19688114D02*
G01*
X21823007Y-19736777D01*
X21955671Y-19807687D01*
X21970843Y-19815797D01*
X22100424Y-19922142D01*
X22206769Y-20051723D01*
X22206770Y-20051725D01*
X22285789Y-20199559D01*
X22334452Y-20359978D01*
X22350882Y-20526801D01*
X22334452Y-20693624D01*
X22285789Y-20854043D01*
X22232802Y-20953175D01*
X22206769Y-21001879D01*
X22100424Y-21131460D01*
X21970843Y-21237805D01*
X21970841Y-21237806D01*
X21823007Y-21316825D01*
X21662588Y-21365488D01*
X21537569Y-21377801D01*
X21453961Y-21377801D01*
X21328942Y-21365488D01*
X21168523Y-21316825D01*
X21020689Y-21237806D01*
X21020687Y-21237805D01*
X20891106Y-21131460D01*
X20784761Y-21001879D01*
X20758728Y-20953175D01*
X20705741Y-20854043D01*
X20657078Y-20693624D01*
X20640648Y-20526801D01*
X20657078Y-20359978D01*
X20705741Y-20199559D01*
X20784760Y-20051725D01*
X20784761Y-20051723D01*
X20891106Y-19922142D01*
X21020687Y-19815797D01*
X21035859Y-19807687D01*
X21168523Y-19736777D01*
X21328942Y-19688114D01*
X21453961Y-19675801D01*
X21537569Y-19675801D01*
X21662588Y-19688114D01*
X21662588Y-19688114D01*
G37*
G36*
X43663642Y-19349781D02*
G01*
X43809414Y-19410162D01*
X43809416Y-19410163D01*
X43940608Y-19497822D01*
X44052178Y-19609392D01*
X44137293Y-19736777D01*
X44139838Y-19740586D01*
X44200219Y-19886358D01*
X44231000Y-20041107D01*
X44231000Y-20198893D01*
X44200219Y-20353642D01*
X44156584Y-20458985D01*
X44139837Y-20499416D01*
X44052178Y-20630608D01*
X43940608Y-20742178D01*
X43809416Y-20829837D01*
X43809415Y-20829838D01*
X43809414Y-20829838D01*
X43663642Y-20890219D01*
X43508893Y-20921000D01*
X43351107Y-20921000D01*
X43196358Y-20890219D01*
X43050586Y-20829838D01*
X43050585Y-20829838D01*
X43050584Y-20829837D01*
X42919392Y-20742178D01*
X42807822Y-20630608D01*
X42720163Y-20499416D01*
X42703416Y-20458985D01*
X42659781Y-20353642D01*
X42629000Y-20198893D01*
X42629000Y-20041107D01*
X42659781Y-19886358D01*
X42720162Y-19740586D01*
X42722707Y-19736777D01*
X42807822Y-19609392D01*
X42919392Y-19497822D01*
X43050584Y-19410163D01*
X43050586Y-19410162D01*
X43196358Y-19349781D01*
X43351107Y-19319000D01*
X43508893Y-19319000D01*
X43663642Y-19349781D01*
X43663642Y-19349781D01*
G37*
G36*
X29099393Y-16709304D02*
G01*
X29336101Y-16807352D01*
X29336103Y-16807353D01*
X29549135Y-16949696D01*
X29730304Y-17130865D01*
X29872647Y-17343897D01*
X29872648Y-17343899D01*
X29970696Y-17580607D01*
X30020680Y-17831893D01*
X30020680Y-18088107D01*
X29970696Y-18339393D01*
X29874148Y-18572480D01*
X29872647Y-18576103D01*
X29730304Y-18789135D01*
X29549135Y-18970304D01*
X29336103Y-19112647D01*
X29336102Y-19112648D01*
X29336101Y-19112648D01*
X29099393Y-19210696D01*
X28848107Y-19260680D01*
X28591893Y-19260680D01*
X28340607Y-19210696D01*
X28103899Y-19112648D01*
X28103898Y-19112648D01*
X28103897Y-19112647D01*
X27890865Y-18970304D01*
X27709696Y-18789135D01*
X27567353Y-18576103D01*
X27565852Y-18572480D01*
X27469304Y-18339393D01*
X27419320Y-18088107D01*
X27419320Y-17831893D01*
X27469304Y-17580607D01*
X27567352Y-17343899D01*
X27567353Y-17343897D01*
X27709696Y-17130865D01*
X27890865Y-16949696D01*
X28103897Y-16807353D01*
X28103899Y-16807352D01*
X28340607Y-16709304D01*
X28591893Y-16659320D01*
X28848107Y-16659320D01*
X29099393Y-16709304D01*
X29099393Y-16709304D01*
G37*
G36*
X39586823Y-17191313D02*
G01*
X39747242Y-17239976D01*
X39814361Y-17275852D01*
X39895078Y-17318996D01*
X40024659Y-17425341D01*
X40131004Y-17554922D01*
X40131005Y-17554924D01*
X40210024Y-17702758D01*
X40258687Y-17863177D01*
X40275117Y-18030000D01*
X40258687Y-18196823D01*
X40230471Y-18289837D01*
X40215439Y-18339393D01*
X40210024Y-18357242D01*
X40169477Y-18433100D01*
X40131004Y-18505078D01*
X40024659Y-18634659D01*
X39895078Y-18741004D01*
X39895076Y-18741005D01*
X39747242Y-18820024D01*
X39586823Y-18868687D01*
X39461804Y-18881000D01*
X39378196Y-18881000D01*
X39253177Y-18868687D01*
X39092758Y-18820024D01*
X38944924Y-18741005D01*
X38944922Y-18741004D01*
X38815341Y-18634659D01*
X38708996Y-18505078D01*
X38670523Y-18433100D01*
X38629976Y-18357242D01*
X38624562Y-18339393D01*
X38609529Y-18289837D01*
X38581313Y-18196823D01*
X38564883Y-18030000D01*
X38581313Y-17863177D01*
X38629976Y-17702758D01*
X38708995Y-17554924D01*
X38708996Y-17554922D01*
X38815341Y-17425341D01*
X38944922Y-17318996D01*
X39025639Y-17275852D01*
X39092758Y-17239976D01*
X39253177Y-17191313D01*
X39378196Y-17179000D01*
X39461804Y-17179000D01*
X39586823Y-17191313D01*
X39586823Y-17191313D01*
G37*
G36*
X32048228Y-17211703D02*
G01*
X32203100Y-17275853D01*
X32342481Y-17368985D01*
X32461015Y-17487519D01*
X32554147Y-17626900D01*
X32618297Y-17781772D01*
X32651000Y-17946184D01*
X32651000Y-18113816D01*
X32618297Y-18278228D01*
X32554147Y-18433100D01*
X32461015Y-18572481D01*
X32342481Y-18691015D01*
X32203100Y-18784147D01*
X32048228Y-18848297D01*
X31883816Y-18881000D01*
X31716184Y-18881000D01*
X31551772Y-18848297D01*
X31396900Y-18784147D01*
X31257519Y-18691015D01*
X31138985Y-18572481D01*
X31045853Y-18433100D01*
X30981703Y-18278228D01*
X30949000Y-18113816D01*
X30949000Y-17946184D01*
X30981703Y-17781772D01*
X31045853Y-17626900D01*
X31138985Y-17487519D01*
X31257519Y-17368985D01*
X31396900Y-17275853D01*
X31551772Y-17211703D01*
X31716184Y-17179000D01*
X31883816Y-17179000D01*
X32048228Y-17211703D01*
X32048228Y-17211703D01*
G37*
G36*
X43663642Y-16809781D02*
G01*
X43809414Y-16870162D01*
X43809416Y-16870163D01*
X43940608Y-16957822D01*
X44052178Y-17069392D01*
X44093253Y-17130866D01*
X44139838Y-17200586D01*
X44200219Y-17346358D01*
X44231000Y-17501107D01*
X44231000Y-17658893D01*
X44200219Y-17813642D01*
X44139838Y-17959414D01*
X44139837Y-17959416D01*
X44052178Y-18090608D01*
X43940608Y-18202178D01*
X43809416Y-18289837D01*
X43809415Y-18289838D01*
X43809414Y-18289838D01*
X43663642Y-18350219D01*
X43508893Y-18381000D01*
X43351107Y-18381000D01*
X43196358Y-18350219D01*
X43050586Y-18289838D01*
X43050585Y-18289838D01*
X43050584Y-18289837D01*
X42919392Y-18202178D01*
X42807822Y-18090608D01*
X42720163Y-17959416D01*
X42720162Y-17959414D01*
X42659781Y-17813642D01*
X42629000Y-17658893D01*
X42629000Y-17501107D01*
X42659781Y-17346358D01*
X42720162Y-17200586D01*
X42766747Y-17130866D01*
X42807822Y-17069392D01*
X42919392Y-16957822D01*
X43050584Y-16870163D01*
X43050586Y-16870162D01*
X43196358Y-16809781D01*
X43351107Y-16779000D01*
X43508893Y-16779000D01*
X43663642Y-16809781D01*
X43663642Y-16809781D01*
G37*
G36*
X53665331Y-14458211D02*
G01*
X53993092Y-14593974D01*
X54288070Y-14791072D01*
X54538928Y-15041930D01*
X54736026Y-15336908D01*
X54871789Y-15664669D01*
X54941000Y-16012616D01*
X54941000Y-16367384D01*
X54871789Y-16715331D01*
X54736026Y-17043092D01*
X54538928Y-17338070D01*
X54288070Y-17588928D01*
X53993092Y-17786026D01*
X53665331Y-17921789D01*
X53317384Y-17991000D01*
X52962616Y-17991000D01*
X52614669Y-17921789D01*
X52286908Y-17786026D01*
X51991930Y-17588928D01*
X51741072Y-17338070D01*
X51543974Y-17043092D01*
X51408211Y-16715331D01*
X51339000Y-16367384D01*
X51339000Y-16012616D01*
X51408211Y-15664669D01*
X51543974Y-15336908D01*
X51741072Y-15041930D01*
X51991930Y-14791072D01*
X52286908Y-14593974D01*
X52614669Y-14458211D01*
X52962616Y-14389000D01*
X53317384Y-14389000D01*
X53665331Y-14458211D01*
X53665331Y-14458211D01*
G37*
G36*
X18105331Y-14458211D02*
G01*
X18433092Y-14593974D01*
X18728070Y-14791072D01*
X18978928Y-15041930D01*
X19176026Y-15336908D01*
X19311789Y-15664669D01*
X19381000Y-16012616D01*
X19381000Y-16367384D01*
X19311789Y-16715331D01*
X19176026Y-17043092D01*
X18978928Y-17338070D01*
X18728070Y-17588928D01*
X18433092Y-17786026D01*
X18105331Y-17921789D01*
X17757384Y-17991000D01*
X17402616Y-17991000D01*
X17054669Y-17921789D01*
X16726908Y-17786026D01*
X16431930Y-17588928D01*
X16181072Y-17338070D01*
X15983974Y-17043092D01*
X15848211Y-16715331D01*
X15779000Y-16367384D01*
X15779000Y-16012616D01*
X15848211Y-15664669D01*
X15983974Y-15336908D01*
X16181072Y-15041930D01*
X16431930Y-14791072D01*
X16726908Y-14593974D01*
X17054669Y-14458211D01*
X17402616Y-14389000D01*
X17757384Y-14389000D01*
X18105331Y-14458211D01*
X18105331Y-14458211D01*
G37*
G36*
X47206823Y-15121313D02*
G01*
X47367242Y-15169976D01*
X47499906Y-15240886D01*
X47515078Y-15248996D01*
X47644659Y-15355341D01*
X47751004Y-15484922D01*
X47751005Y-15484924D01*
X47830024Y-15632758D01*
X47878687Y-15793177D01*
X47895117Y-15960000D01*
X47878687Y-16126823D01*
X47830024Y-16287242D01*
X47787187Y-16367384D01*
X47751004Y-16435078D01*
X47644659Y-16564659D01*
X47515078Y-16671004D01*
X47515076Y-16671005D01*
X47367242Y-16750024D01*
X47206823Y-16798687D01*
X47081804Y-16811000D01*
X46998196Y-16811000D01*
X46873177Y-16798687D01*
X46712758Y-16750024D01*
X46564924Y-16671005D01*
X46564922Y-16671004D01*
X46435341Y-16564659D01*
X46328996Y-16435078D01*
X46292813Y-16367384D01*
X46249976Y-16287242D01*
X46201313Y-16126823D01*
X46184883Y-15960000D01*
X46201313Y-15793177D01*
X46249976Y-15632758D01*
X46328995Y-15484924D01*
X46328996Y-15484922D01*
X46435341Y-15355341D01*
X46564922Y-15248996D01*
X46580094Y-15240886D01*
X46712758Y-15169976D01*
X46873177Y-15121313D01*
X46998196Y-15109000D01*
X47081804Y-15109000D01*
X47206823Y-15121313D01*
X47206823Y-15121313D01*
G37*
M02*
