G04 #@! TF.GenerationSoftware,KiCad,Pcbnew,(5.1.2-1)-1*
G04 #@! TF.CreationDate,2022-01-06T11:32:03-05:00*
G04 #@! TF.ProjectId,Basic VCA,42617369-6320-4564-9341-2e6b69636164,rev?*
G04 #@! TF.SameCoordinates,Original*
G04 #@! TF.FileFunction,Copper,L2,Bot*
G04 #@! TF.FilePolarity,Positive*
%FSLAX46Y46*%
G04 Gerber Fmt 4.6, Leading zero omitted, Abs format (unit mm)*
G04 Created by KiCad (PCBNEW (5.1.2-1)-1) date 2022-01-06 11:32:03*
%MOMM*%
%LPD*%
G04 APERTURE LIST*
%ADD10C,2.499360*%
%ADD11R,2.499360X2.499360*%
%ADD12C,1.500000*%
%ADD13C,0.100000*%
%ADD14R,1.500000X1.500000*%
%ADD15C,2.400000*%
%ADD16R,2.400000X2.400000*%
%ADD17O,1.600000X1.600000*%
%ADD18C,1.600000*%
%ADD19C,1.600000*%
%ADD20C,1.550000*%
%ADD21R,1.600000X1.600000*%
%ADD22C,0.812800*%
G04 APERTURE END LIST*
D10*
X22900000Y-34660000D03*
D11*
X19090000Y-34660000D03*
D12*
X40601040Y-48404265D03*
D13*
G36*
X41469882Y-49012635D02*
G01*
X39992670Y-49273107D01*
X39732198Y-47795895D01*
X41209410Y-47535423D01*
X41469882Y-49012635D01*
X41469882Y-49012635D01*
G37*
D12*
X45603863Y-47522132D03*
X43102452Y-47963199D03*
D14*
X43430000Y-22660000D03*
D12*
X43430000Y-17580000D03*
X43430000Y-20120000D03*
X39820860Y-43403773D03*
D13*
G36*
X40689702Y-44012143D02*
G01*
X39212490Y-44272615D01*
X38952018Y-42795403D01*
X40429230Y-42534931D01*
X40689702Y-44012143D01*
X40689702Y-44012143D01*
G37*
D12*
X44823683Y-42521640D03*
X42322272Y-42962707D03*
D10*
X28720000Y-17960000D03*
X22600000Y-38840000D03*
D11*
X18790000Y-38840000D03*
D10*
X22680000Y-42840000D03*
D11*
X18870000Y-42840000D03*
D15*
X29341233Y-53484330D03*
D13*
G36*
X28624026Y-55022385D02*
G01*
X27803178Y-52767123D01*
X30058440Y-51946275D01*
X30879288Y-54201537D01*
X28624026Y-55022385D01*
X28624026Y-55022385D01*
G37*
D15*
X32086075Y-52485289D03*
X28887200Y-42217000D03*
D16*
X28887200Y-45138000D03*
D15*
X26879501Y-38899661D03*
D13*
G36*
X27318731Y-40538891D02*
G01*
X25240271Y-39338891D01*
X26440271Y-37260431D01*
X28518731Y-38460431D01*
X27318731Y-40538891D01*
X27318731Y-40538891D01*
G37*
D15*
X28340001Y-36370001D03*
D10*
X14260000Y-24240000D03*
X14270000Y-27840000D03*
X35820000Y-53590000D03*
X38680000Y-24510000D03*
D17*
X17150000Y-24730000D03*
D18*
X24770000Y-24730000D03*
X24800000Y-27850000D03*
D17*
X17180000Y-27850000D03*
X24720000Y-31230000D03*
D18*
X17100000Y-31230000D03*
X29000000Y-21850000D03*
X21495765Y-20526801D03*
D19*
X21495765Y-20526801D02*
X21495765Y-20526801D01*
D18*
X35043199Y-50434235D03*
D19*
X35043199Y-50434235D02*
X35043199Y-50434235D01*
D18*
X33720000Y-42930000D03*
X24340000Y-49320000D03*
X31844235Y-47996801D03*
D19*
X31844235Y-47996801D02*
X31844235Y-47996801D01*
D18*
X39430000Y-21120000D03*
D17*
X31810000Y-21120000D03*
D18*
X44494114Y-38061104D03*
D17*
X52114114Y-38061104D03*
X39420000Y-18030000D03*
D18*
X31800000Y-18030000D03*
X37913199Y-48354235D03*
D19*
X37913199Y-48354235D02*
X37913199Y-48354235D01*
D18*
X36590000Y-40850000D03*
X47040000Y-23580000D03*
D17*
X47040000Y-15960000D03*
D18*
X53892823Y-48666963D03*
D19*
X53892823Y-48666963D02*
X53892823Y-48666963D01*
D18*
X46732365Y-51273156D03*
X44750000Y-34000000D03*
X47356193Y-26839542D03*
D19*
X47356193Y-26839542D02*
X47356193Y-26839542D01*
D17*
X41950000Y-37880000D03*
D18*
X34330000Y-37880000D03*
X41813807Y-32940458D03*
D19*
X41813807Y-32940458D02*
X41813807Y-32940458D01*
D18*
X44420000Y-25780000D03*
X38310000Y-27510000D03*
D17*
X38310000Y-35130000D03*
D20*
X54478241Y-45624039D03*
X53610000Y-40700000D03*
D13*
G36*
X52712197Y-40071351D02*
G01*
X54238649Y-39802197D01*
X54507803Y-41328649D01*
X52981351Y-41597803D01*
X52712197Y-40071351D01*
X52712197Y-40071351D01*
G37*
D20*
X49120082Y-44030260D03*
D21*
X27520000Y-25270000D03*
D17*
X35140000Y-32890000D03*
X27520000Y-27810000D03*
X35140000Y-30350000D03*
X27520000Y-30350000D03*
X35140000Y-27810000D03*
X27520000Y-32890000D03*
X35140000Y-25270000D03*
D22*
X29341233Y-53484330D02*
X31390000Y-55360000D01*
X31390000Y-55360000D02*
X33630000Y-54930000D01*
X33630000Y-54930000D02*
X35820000Y-53590000D01*
X35043199Y-50434235D02*
X32086075Y-52485289D01*
X22680000Y-42840000D02*
X25800000Y-45040000D01*
X25800000Y-45040000D02*
X28887200Y-45138000D01*
X18870000Y-42840000D02*
X22680000Y-42840000D01*
X28887200Y-45138000D02*
X31390000Y-43330000D01*
X31390000Y-43330000D02*
X31730000Y-38790000D01*
X31730000Y-38790000D02*
X31730000Y-34030000D01*
X31730000Y-34030000D02*
X32110000Y-32600000D01*
X32110000Y-32600000D02*
X32730000Y-28770000D01*
X32730000Y-28770000D02*
X33490000Y-26640000D01*
X33490000Y-26640000D02*
X35140000Y-25270000D01*
X28887200Y-45138000D02*
X27660000Y-49180000D01*
X27660000Y-49180000D02*
X26890000Y-51030000D01*
X26890000Y-51030000D02*
X26660000Y-53290000D01*
X26660000Y-53290000D02*
X27570000Y-56130000D01*
X27570000Y-56130000D02*
X31620000Y-56940000D01*
X31620000Y-56940000D02*
X39250000Y-55950000D01*
X39250000Y-55950000D02*
X47820000Y-53510000D01*
X47820000Y-53510000D02*
X49530000Y-51480000D01*
X49530000Y-51480000D02*
X49170000Y-47780000D01*
X49170000Y-47780000D02*
X49120082Y-44030260D01*
X26879501Y-38899661D02*
X22600000Y-38840000D01*
X22600000Y-38840000D02*
X18790000Y-38840000D01*
X18790000Y-38840000D02*
X16370000Y-37740000D01*
X16370000Y-37740000D02*
X16210000Y-31780000D01*
X16210000Y-31780000D02*
X17100000Y-31230000D01*
X49090000Y-24240000D02*
X49000000Y-22080000D01*
X49000000Y-22080000D02*
X47840000Y-19790000D01*
X47840000Y-19790000D02*
X45340000Y-18650000D01*
X45340000Y-18650000D02*
X43430000Y-17580000D01*
X18790000Y-38840000D02*
X16610000Y-39940000D01*
X16610000Y-39940000D02*
X16290000Y-43500000D01*
X16290000Y-43500000D02*
X17370000Y-46840000D01*
X17370000Y-46840000D02*
X20260000Y-48010000D01*
X20260000Y-48010000D02*
X24340000Y-49320000D01*
X43430000Y-17580000D02*
X41410000Y-16350000D01*
X41410000Y-16350000D02*
X39340000Y-16080000D01*
X39340000Y-16080000D02*
X36580000Y-16830000D01*
X36580000Y-16830000D02*
X34720000Y-22970000D01*
X34720000Y-22970000D02*
X32990000Y-24510000D01*
X32990000Y-24510000D02*
X31720000Y-26210000D01*
X31720000Y-26210000D02*
X30770000Y-31800000D01*
X30770000Y-31800000D02*
X30440000Y-35830000D01*
X30440000Y-35830000D02*
X30440000Y-38520000D01*
X30440000Y-38520000D02*
X28184340Y-41055660D01*
X28184340Y-41055660D02*
X28887200Y-42217000D01*
X26879501Y-38899661D02*
X28184340Y-41055660D01*
X49090000Y-24240000D02*
X47890000Y-25150000D01*
X47890000Y-25150000D02*
X45970000Y-25270000D01*
X45970000Y-25270000D02*
X44420000Y-25780000D01*
X43102452Y-47963199D02*
X44970000Y-44380000D01*
X44970000Y-44380000D02*
X46420000Y-43340000D01*
X46420000Y-43340000D02*
X46420000Y-40800000D01*
X46420000Y-40800000D02*
X47640000Y-36580000D01*
X47640000Y-36580000D02*
X48010000Y-35040000D01*
X48010000Y-35040000D02*
X48100000Y-32000000D01*
X48100000Y-32000000D02*
X46150000Y-30320000D01*
X46150000Y-30320000D02*
X44360000Y-28560000D01*
X44360000Y-28560000D02*
X44360000Y-27190000D01*
X44360000Y-27190000D02*
X44420000Y-25780000D01*
X28340001Y-36370001D02*
X27520000Y-32890000D01*
X27520000Y-32890000D02*
X22900000Y-34660000D01*
X22900000Y-34660000D02*
X19090000Y-34660000D01*
X27520000Y-32890000D02*
X29350000Y-31370000D01*
X29350000Y-31370000D02*
X30040000Y-25170000D01*
X30040000Y-25170000D02*
X32240000Y-23100000D01*
X32240000Y-23100000D02*
X33620000Y-21930000D01*
X33620000Y-21930000D02*
X34030000Y-15180000D01*
X34030000Y-15180000D02*
X46020000Y-14150000D01*
X46020000Y-14150000D02*
X47040000Y-15960000D01*
X17150000Y-24730000D02*
X14260000Y-24240000D01*
X17180000Y-27850000D02*
X14270000Y-27840000D01*
X38680000Y-24510000D02*
X38310000Y-27510000D01*
X35140000Y-27810000D02*
X38310000Y-27510000D01*
X31844235Y-47996801D02*
X32990000Y-45390000D01*
X32990000Y-45390000D02*
X33720000Y-42930000D01*
X33720000Y-42930000D02*
X37260000Y-42910000D01*
X37260000Y-42910000D02*
X39020000Y-41740000D01*
X39020000Y-41740000D02*
X41540000Y-41740000D01*
X41540000Y-41740000D02*
X42322272Y-42962707D01*
X44494114Y-38061104D02*
X41950000Y-37880000D01*
X44494114Y-38061104D02*
X44823683Y-42521640D01*
X39820860Y-43403773D02*
X40601040Y-48404265D01*
X37913199Y-48354235D02*
X40601040Y-48404265D01*
X39420000Y-18030000D02*
X39430000Y-21120000D01*
X39430000Y-21120000D02*
X41110000Y-20210000D01*
X41110000Y-20210000D02*
X43430000Y-20120000D01*
X36590000Y-40850000D02*
X39570000Y-36990000D01*
X39570000Y-36990000D02*
X41330000Y-35940000D01*
X41330000Y-35940000D02*
X44630000Y-35940000D01*
X44630000Y-35940000D02*
X46790000Y-35490000D01*
X44906209Y-23036209D02*
X43430000Y-22660000D01*
X47040000Y-23580000D02*
X44906209Y-23036209D01*
X46790000Y-35490000D02*
X46970000Y-32820000D01*
X46970000Y-32820000D02*
X44220000Y-30940000D01*
X44220000Y-30940000D02*
X42570000Y-29470000D01*
X42570000Y-29470000D02*
X41690000Y-26970000D01*
X41690000Y-26970000D02*
X41850000Y-25230000D01*
X41850000Y-25230000D02*
X43430000Y-22660000D01*
X46732365Y-51273156D02*
X45603863Y-47522132D01*
X47356193Y-26839542D02*
X47090000Y-28960000D01*
X47090000Y-28960000D02*
X49420000Y-31290000D01*
X49420000Y-31290000D02*
X49420000Y-33960000D01*
X49420000Y-33960000D02*
X48910000Y-37090000D01*
X48910000Y-37090000D02*
X48000000Y-40440000D01*
X48000000Y-40440000D02*
X47600000Y-43570000D01*
X47600000Y-43570000D02*
X46970000Y-46070000D01*
X46970000Y-46070000D02*
X45603863Y-47522132D01*
X27520000Y-27810000D02*
X24800000Y-27850000D01*
X24800000Y-27850000D02*
X24770000Y-24730000D01*
X24770000Y-24730000D02*
X21495765Y-20526801D01*
X27520000Y-30350000D02*
X24720000Y-31230000D01*
X27520000Y-25270000D02*
X29000000Y-21850000D01*
X29000000Y-21850000D02*
X31810000Y-21120000D01*
X52114114Y-38061104D02*
X53610000Y-40700000D01*
X54478241Y-45624039D02*
X53892823Y-48666963D01*
X44750000Y-34000000D02*
X41813807Y-32940458D01*
X41813807Y-32940458D02*
X35140000Y-30350000D01*
X38310000Y-35130000D02*
X35140000Y-32890000D01*
X38310000Y-35130000D02*
X36090000Y-35990000D01*
X36090000Y-35990000D02*
X34330000Y-37880000D01*
X31800000Y-18030000D02*
X28720000Y-17960000D01*
M02*
