G04 #@! TF.GenerationSoftware,KiCad,Pcbnew,(5.1.2-1)-1*
G04 #@! TF.CreationDate,2022-01-06T11:32:03-05:00*
G04 #@! TF.ProjectId,Basic VCA,42617369-6320-4564-9341-2e6b69636164,rev?*
G04 #@! TF.SameCoordinates,Original*
G04 #@! TF.FileFunction,Legend,Top*
G04 #@! TF.FilePolarity,Positive*
%FSLAX46Y46*%
G04 Gerber Fmt 4.6, Leading zero omitted, Abs format (unit mm)*
G04 Created by KiCad (PCBNEW (5.1.2-1)-1) date 2022-01-06 11:32:03*
%MOMM*%
%LPD*%
G04 APERTURE LIST*
%ADD10C,0.120000*%
%ADD11C,0.150000*%
G04 APERTURE END LIST*
D10*
X45586297Y-48665345D02*
G75*
G02X45196355Y-49472526I-2483845J702146D01*
G01*
X45232248Y-46471899D02*
G75*
G03X42650966Y-45402698I-2129796J-1491300D01*
G01*
X40591044Y-47290270D02*
G75*
G02X42650966Y-45402698I2511408J-672929D01*
G01*
X41008549Y-49472527D02*
G75*
G03X41651047Y-50097660I2093903J1509328D01*
G01*
X41651047Y-50097660D02*
X45196355Y-49472526D01*
X44552795Y-17795816D02*
G75*
G02X45280000Y-18320000I-1122795J-2324184D01*
G01*
X42331193Y-17763600D02*
G75*
G03X40830000Y-20120000I1098807J-2356400D01*
G01*
X42331193Y-22476400D02*
G75*
G02X40830000Y-20120000I1098807J2356400D01*
G01*
X44552795Y-22444184D02*
G75*
G03X45280000Y-21920000I-1122795J2324184D01*
G01*
X45280000Y-21920000D02*
X45280000Y-18320000D01*
X44806117Y-43664853D02*
G75*
G02X44416175Y-44472034I-2483845J702146D01*
G01*
X44452068Y-41471407D02*
G75*
G03X41870786Y-40402206I-2129796J-1491300D01*
G01*
X39810864Y-42289778D02*
G75*
G02X41870786Y-40402206I2511408J-672929D01*
G01*
X40228369Y-44472035D02*
G75*
G03X40870867Y-45097168I2093903J1509328D01*
G01*
X40870867Y-45097168D02*
X44416175Y-44472034D01*
X33598619Y-52990282D02*
G75*
G03X33598619Y-52990282I-2900000J0D01*
G01*
X30955449Y-50418333D02*
X31396313Y-51629597D01*
X32070127Y-53597838D02*
X32517490Y-54826956D01*
X30911363Y-50414160D02*
X31358725Y-51643277D01*
X32032540Y-53611519D02*
X32485716Y-54856612D01*
X30867961Y-50411866D02*
X31321138Y-51656958D01*
X31994952Y-53625200D02*
X32453943Y-54886267D01*
X30824559Y-50409572D02*
X31283550Y-51670639D01*
X31957364Y-53638881D02*
X32421827Y-54914983D01*
X30781499Y-50408217D02*
X31245962Y-51684320D01*
X31919776Y-53652561D02*
X32389712Y-54943699D01*
X30738439Y-50406863D02*
X31208374Y-51698001D01*
X31882189Y-53666242D02*
X32356913Y-54970535D01*
X30696063Y-50407388D02*
X31170787Y-51711681D01*
X31844601Y-53679923D02*
X32324113Y-54997372D01*
X30653687Y-50407913D02*
X31133199Y-51725362D01*
X31807013Y-53693604D02*
X32290972Y-55023269D01*
X30611653Y-50409378D02*
X31095611Y-51739043D01*
X31769426Y-53707285D02*
X32257830Y-55049166D01*
X30569619Y-50410843D02*
X31058024Y-51752724D01*
X31731838Y-53720965D02*
X32224347Y-55074123D01*
X30527927Y-50413247D02*
X31020436Y-51766405D01*
X31693310Y-53734988D02*
X32189582Y-55098482D01*
X29816207Y-50565875D02*
X30342918Y-52013001D01*
X31091907Y-53953881D02*
X31618618Y-55401008D01*
X27306471Y-52254065D02*
X27477481Y-52723911D01*
X27157053Y-52574493D02*
X27626899Y-52403483D01*
X33045625Y-51833814D02*
X33239893Y-52367560D01*
X32928005Y-51627607D02*
X33282338Y-52601129D01*
X32836036Y-51491877D02*
X33299131Y-52764221D01*
X32754670Y-51385277D02*
X33305322Y-52898182D01*
X32679460Y-51295592D02*
X33305357Y-53015229D01*
X32609038Y-51219062D02*
X33300603Y-53119120D01*
X32541695Y-51150989D02*
X33292771Y-53214554D01*
X32476745Y-51089495D02*
X33282545Y-53303411D01*
X32414190Y-51034578D02*
X33269925Y-53385689D01*
X32353345Y-50984360D02*
X33255594Y-53463269D01*
X32293868Y-50937900D02*
X33239896Y-53537090D01*
X32235759Y-50895200D02*
X33222829Y-53607152D01*
X32178676Y-50855318D02*
X33204737Y-53674396D01*
X32122620Y-50818255D02*
X33185618Y-53738820D01*
X32067589Y-50784012D02*
X33165474Y-53800425D01*
X32934644Y-53283180D02*
X33144303Y-53859211D01*
X32013584Y-50752587D02*
X32223243Y-51328619D01*
X32897057Y-53296860D02*
X33122448Y-53916118D01*
X31960264Y-50723042D02*
X32185655Y-51342300D01*
X32859469Y-53310541D02*
X33099909Y-53971145D01*
X31907627Y-50695377D02*
X32148067Y-51355981D01*
X32821881Y-53324222D02*
X33076686Y-54024293D01*
X31855674Y-50669590D02*
X32110479Y-51369661D01*
X32784294Y-53337903D02*
X33053121Y-54076501D01*
X31804064Y-50644744D02*
X32072892Y-51383342D01*
X32746706Y-53351584D02*
X33028530Y-54125890D01*
X31753479Y-50622716D02*
X32035304Y-51397023D01*
X32709118Y-53365264D02*
X33003598Y-54174340D01*
X31703237Y-50601628D02*
X31997716Y-51410704D01*
X32671530Y-53378945D02*
X32978323Y-54221849D01*
X31653337Y-50581480D02*
X31960129Y-51424385D01*
X32633943Y-53392626D02*
X32952364Y-54267480D01*
X31604120Y-50563212D02*
X31922541Y-51438065D01*
X32596355Y-53406307D02*
X32926062Y-54312171D01*
X31555246Y-50545882D02*
X31884953Y-51451746D01*
X30485637Y-50416934D02*
X30981909Y-51780428D01*
X31655723Y-53748669D02*
X32155414Y-55121560D01*
X30444629Y-50421217D02*
X30944321Y-51794108D01*
X31618135Y-53762350D02*
X32121247Y-55144638D01*
X30403622Y-50425501D02*
X30906733Y-51807789D01*
X31580547Y-53776031D02*
X32086737Y-55166776D01*
X30362956Y-50430725D02*
X30869145Y-51821470D01*
X31542960Y-53789711D02*
X32051886Y-55187974D01*
X31054319Y-53967562D02*
X31581031Y-55414689D01*
X32558767Y-53419988D02*
X32899077Y-54354982D01*
X31507055Y-50530433D02*
X31847365Y-51465427D01*
X32521180Y-53433668D02*
X32871750Y-54396853D01*
X31459207Y-50515923D02*
X31809778Y-51479108D01*
X32483592Y-53447349D02*
X32844423Y-54438725D01*
X31411359Y-50501413D02*
X31772190Y-51492789D01*
X32446004Y-53461030D02*
X32816070Y-54477777D01*
X31364537Y-50489722D02*
X31734602Y-51506469D01*
X32408417Y-53474711D02*
X32787717Y-54516830D01*
X31129495Y-53940200D02*
X31655864Y-55386387D01*
X29891724Y-50539453D02*
X30418093Y-51985640D01*
X29853794Y-50552194D02*
X30380505Y-51999320D01*
X31317714Y-50478031D02*
X31697015Y-51520150D01*
X32370829Y-53488392D02*
X32759022Y-54554943D01*
X31271234Y-50467280D02*
X31659427Y-51533831D01*
X32333241Y-53502072D02*
X32729985Y-54592116D01*
X31225096Y-50457468D02*
X31621839Y-51547512D01*
X32295653Y-53515753D02*
X32700605Y-54628349D01*
X31179300Y-50448597D02*
X31584252Y-51561193D01*
X32258066Y-53529434D02*
X32670884Y-54663643D01*
X31133846Y-50440664D02*
X31546664Y-51574873D01*
X32220478Y-53543115D02*
X32640479Y-54697057D01*
X31089075Y-50434612D02*
X31509076Y-51588554D01*
X32182890Y-53556796D02*
X32610416Y-54731411D01*
X31043963Y-50427619D02*
X31471488Y-51602235D01*
X32145303Y-53570476D02*
X32579668Y-54763886D01*
X30999535Y-50422506D02*
X31433901Y-51615916D01*
X32107715Y-53584157D02*
X32548579Y-54795421D01*
X30322632Y-50436888D02*
X30831558Y-51835151D01*
X31505372Y-53803392D02*
X32017034Y-55209172D01*
X30282308Y-50443051D02*
X30793970Y-51848832D01*
X31467784Y-53817073D02*
X31981841Y-55229431D01*
X30242326Y-50450154D02*
X30756382Y-51862512D01*
X31430197Y-53830754D02*
X31946647Y-55249690D01*
X30202344Y-50457257D02*
X30718795Y-51876193D01*
X31392609Y-53844435D02*
X31911111Y-55269009D01*
X30162704Y-50465300D02*
X30681207Y-51889874D01*
X31355021Y-53858115D02*
X31875234Y-55287388D01*
X30123407Y-50474282D02*
X30643619Y-51903555D01*
X31317433Y-53871796D02*
X31839014Y-55304827D01*
X30084451Y-50484204D02*
X30606032Y-51917236D01*
X31279846Y-53885477D02*
X31802795Y-55322267D01*
X30045495Y-50494126D02*
X30568444Y-51930916D01*
X31242258Y-53899158D02*
X31766575Y-55339707D01*
X30006539Y-50504048D02*
X30530856Y-51944597D01*
X31204670Y-53912839D02*
X31730013Y-55356207D01*
X29967925Y-50514910D02*
X30493268Y-51958278D01*
X31167083Y-53926519D02*
X31693110Y-55371767D01*
X29929654Y-50526712D02*
X30455681Y-51971959D01*
X26309200Y-43573500D02*
X27847200Y-43573500D01*
X29927200Y-43573500D02*
X31465200Y-43573500D01*
X26311200Y-43533500D02*
X27847200Y-43533500D01*
X29927200Y-43533500D02*
X31463200Y-43533500D01*
X26314200Y-43493500D02*
X27847200Y-43493500D01*
X29927200Y-43493500D02*
X31460200Y-43493500D01*
X26318200Y-43453500D02*
X27847200Y-43453500D01*
X29927200Y-43453500D02*
X31456200Y-43453500D01*
X26322200Y-43413500D02*
X27847200Y-43413500D01*
X29927200Y-43413500D02*
X31452200Y-43413500D01*
X26326200Y-43373500D02*
X27847200Y-43373500D01*
X29927200Y-43373500D02*
X31448200Y-43373500D01*
X26331200Y-43333500D02*
X27847200Y-43333500D01*
X29927200Y-43333500D02*
X31443200Y-43333500D01*
X26337200Y-43293500D02*
X27847200Y-43293500D01*
X29927200Y-43293500D02*
X31437200Y-43293500D01*
X26344200Y-43253500D02*
X27847200Y-43253500D01*
X29927200Y-43253500D02*
X31430200Y-43253500D01*
X26351200Y-43213500D02*
X27847200Y-43213500D01*
X29927200Y-43213500D02*
X31423200Y-43213500D01*
X26359200Y-43173500D02*
X27847200Y-43173500D01*
X29927200Y-42572500D02*
X31216200Y-42572500D01*
X26577200Y-42532500D02*
X27847200Y-42532500D01*
X29927200Y-42532500D02*
X31197200Y-42532500D01*
X26597200Y-42492500D02*
X27847200Y-42492500D01*
X29927200Y-42492500D02*
X31177200Y-42492500D01*
X26619200Y-42452500D02*
X27847200Y-42452500D01*
X29927200Y-42452500D02*
X31155200Y-42452500D01*
X26640200Y-42412500D02*
X27847200Y-42412500D01*
X29927200Y-42412500D02*
X31134200Y-42412500D01*
X26663200Y-42372500D02*
X27847200Y-42372500D01*
X29927200Y-42372500D02*
X31111200Y-42372500D01*
X26687200Y-42332500D02*
X27847200Y-42332500D01*
X29927200Y-42332500D02*
X31087200Y-42332500D01*
X26712200Y-42292500D02*
X27847200Y-42292500D01*
X29927200Y-42292500D02*
X31062200Y-42292500D01*
X26738200Y-42252500D02*
X27847200Y-42252500D01*
X26307200Y-43653500D02*
X27847200Y-43653500D01*
X26308200Y-43613500D02*
X27847200Y-43613500D01*
X29927200Y-43613500D02*
X31466200Y-43613500D01*
X29927200Y-42252500D02*
X31036200Y-42252500D01*
X26765200Y-42212500D02*
X27847200Y-42212500D01*
X29927200Y-42212500D02*
X31009200Y-42212500D01*
X26792200Y-42172500D02*
X27847200Y-42172500D01*
X29927200Y-42172500D02*
X30982200Y-42172500D01*
X26822200Y-42132500D02*
X27847200Y-42132500D01*
X29927200Y-42132500D02*
X30952200Y-42132500D01*
X26852200Y-42092500D02*
X27847200Y-42092500D01*
X29927200Y-42092500D02*
X30922200Y-42092500D01*
X29927200Y-43693500D02*
X31467200Y-43693500D01*
X29927200Y-43173500D02*
X31415200Y-43173500D01*
X26367200Y-43133500D02*
X27847200Y-43133500D01*
X29927200Y-43133500D02*
X31407200Y-43133500D01*
X26376200Y-43093500D02*
X27847200Y-43093500D01*
X29927200Y-43093500D02*
X31398200Y-43093500D01*
X26386200Y-43053500D02*
X27847200Y-43053500D01*
X29927200Y-43053500D02*
X31388200Y-43053500D01*
X26396200Y-43013500D02*
X27847200Y-43013500D01*
X26883200Y-42052500D02*
X27847200Y-42052500D01*
X29927200Y-42052500D02*
X30891200Y-42052500D01*
X26916200Y-42012500D02*
X27847200Y-42012500D01*
X29927200Y-42012500D02*
X30858200Y-42012500D01*
X26950200Y-41972500D02*
X27847200Y-41972500D01*
X29927200Y-41972500D02*
X30824200Y-41972500D01*
X26986200Y-41932500D02*
X27847200Y-41932500D01*
X29927200Y-41932500D02*
X30788200Y-41932500D01*
X27023200Y-41892500D02*
X27847200Y-41892500D01*
X29927200Y-41892500D02*
X30751200Y-41892500D01*
X27061200Y-41852500D02*
X27847200Y-41852500D01*
X29927200Y-41852500D02*
X30713200Y-41852500D01*
X27102200Y-41812500D02*
X27847200Y-41812500D01*
X29927200Y-41812500D02*
X30672200Y-41812500D01*
X27144200Y-41772500D02*
X27847200Y-41772500D01*
X29927200Y-41772500D02*
X30630200Y-41772500D01*
X27188200Y-41732500D02*
X27847200Y-41732500D01*
X29927200Y-41732500D02*
X30586200Y-41732500D01*
X27234200Y-41692500D02*
X27847200Y-41692500D01*
X29927200Y-41692500D02*
X30540200Y-41692500D01*
X27282200Y-41652500D02*
X30492200Y-41652500D01*
X27333200Y-41612500D02*
X30441200Y-41612500D01*
X27387200Y-41572500D02*
X30387200Y-41572500D01*
X27444200Y-41532500D02*
X30330200Y-41532500D01*
X27504200Y-41492500D02*
X30270200Y-41492500D01*
X27568200Y-41452500D02*
X30206200Y-41452500D01*
X27636200Y-41412500D02*
X30138200Y-41412500D01*
X27709200Y-41372500D02*
X30065200Y-41372500D01*
X27789200Y-41332500D02*
X29985200Y-41332500D01*
X27876200Y-41292500D02*
X29898200Y-41292500D01*
X27972200Y-41252500D02*
X29802200Y-41252500D01*
X28082200Y-41212500D02*
X29692200Y-41212500D01*
X28210200Y-41172500D02*
X29564200Y-41172500D01*
X28369200Y-41132500D02*
X29405200Y-41132500D01*
X28603200Y-41092500D02*
X29171200Y-41092500D01*
X27285200Y-46879275D02*
X27285200Y-46379275D01*
X27035200Y-46629275D02*
X27535200Y-46629275D01*
X29927200Y-43653500D02*
X31467200Y-43653500D01*
X26307200Y-43693500D02*
X27847200Y-43693500D01*
X29927200Y-43013500D02*
X31378200Y-43013500D01*
X26407200Y-42972500D02*
X27847200Y-42972500D01*
X29927200Y-42972500D02*
X31367200Y-42972500D01*
X26419200Y-42932500D02*
X27847200Y-42932500D01*
X29927200Y-42932500D02*
X31355200Y-42932500D01*
X26432200Y-42892500D02*
X27847200Y-42892500D01*
X29927200Y-42892500D02*
X31342200Y-42892500D01*
X26445200Y-42852500D02*
X27847200Y-42852500D01*
X29927200Y-42852500D02*
X31329200Y-42852500D01*
X26459200Y-42812500D02*
X27847200Y-42812500D01*
X29927200Y-42812500D02*
X31315200Y-42812500D01*
X26473200Y-42772500D02*
X27847200Y-42772500D01*
X29927200Y-42772500D02*
X31301200Y-42772500D01*
X26489200Y-42732500D02*
X27847200Y-42732500D01*
X29927200Y-42732500D02*
X31285200Y-42732500D01*
X26505200Y-42692500D02*
X27847200Y-42692500D01*
X29927200Y-42692500D02*
X31269200Y-42692500D01*
X26522200Y-42652500D02*
X27847200Y-42652500D01*
X29927200Y-42652500D02*
X31252200Y-42652500D01*
X26539200Y-42612500D02*
X27847200Y-42612500D01*
X29927200Y-42612500D02*
X31235200Y-42612500D01*
X26558200Y-42572500D02*
X27847200Y-42572500D01*
X31787200Y-43693500D02*
G75*
G03X31787200Y-43693500I-2900000J0D01*
G01*
X30501750Y-37648687D02*
G75*
G03X30501750Y-37648687I-2899999J0D01*
G01*
X26145277Y-35513373D02*
X27261584Y-36157873D01*
X29042917Y-37232514D02*
X30175678Y-37886514D01*
X26108823Y-35538514D02*
X27241584Y-36192514D01*
X29022917Y-37267155D02*
X30170401Y-37929655D01*
X26074100Y-35564655D02*
X27221584Y-36227155D01*
X29002917Y-37301796D02*
X30165123Y-37972796D01*
X26039378Y-35590796D02*
X27201584Y-36261796D01*
X28982917Y-37336437D02*
X30158979Y-38015437D01*
X26005522Y-35617437D02*
X27181584Y-36296437D01*
X28962917Y-37371078D02*
X30152836Y-38058078D01*
X25971665Y-35644078D02*
X27161584Y-36331078D01*
X28942917Y-37405719D02*
X30144960Y-38099719D01*
X25939541Y-35671719D02*
X27141584Y-36365719D01*
X28922917Y-37440360D02*
X30137085Y-38141360D01*
X25907417Y-35699360D02*
X27121584Y-36400360D01*
X28902917Y-37475001D02*
X30128343Y-38182501D01*
X25876158Y-35727501D02*
X27101584Y-36435001D01*
X28882917Y-37509642D02*
X30119601Y-38223642D01*
X25844900Y-35755642D02*
X27081584Y-36469642D01*
X28862917Y-37544283D02*
X30109994Y-38264283D01*
X25814508Y-35784283D02*
X27061584Y-36504283D01*
X28842417Y-37579790D02*
X30099020Y-38305290D01*
X25367405Y-36358687D02*
X26701084Y-37128687D01*
X28522417Y-38134046D02*
X29856096Y-38904046D01*
X24529984Y-39265143D02*
X24962997Y-39515143D01*
X24621490Y-39606650D02*
X24871490Y-39173637D01*
X28656299Y-35254155D02*
X29148202Y-35538155D01*
X28433649Y-35171796D02*
X29330852Y-35689796D01*
X28275951Y-35126937D02*
X29448550Y-35803937D01*
X28145100Y-35097578D02*
X29539401Y-35902578D01*
X28029837Y-35077219D02*
X29614664Y-35992219D01*
X27926699Y-35063860D02*
X29677802Y-36074860D01*
X27831355Y-35055001D02*
X29733146Y-36153001D01*
X27742073Y-35049643D02*
X29782428Y-36227643D01*
X27658853Y-35047784D02*
X29825648Y-36298784D01*
X27579963Y-35048425D02*
X29864538Y-36367425D01*
X27504537Y-35051066D02*
X29899964Y-36434066D01*
X27432576Y-35055707D02*
X29931925Y-36498707D01*
X27363212Y-35061848D02*
X29961289Y-36561848D01*
X27296447Y-35069489D02*
X29988054Y-36623489D01*
X27232280Y-35078630D02*
X30012221Y-36683630D01*
X29502917Y-36435771D02*
X30033791Y-36742271D01*
X27170711Y-35089271D02*
X27701584Y-35395771D01*
X29482917Y-36470412D02*
X30053628Y-36799912D01*
X27110873Y-35100912D02*
X27681584Y-35430412D01*
X29462917Y-36505053D02*
X30071733Y-36856553D01*
X27052768Y-35113553D02*
X27661584Y-35465053D01*
X29442917Y-36539694D02*
X30088106Y-36912194D01*
X26996395Y-35127194D02*
X27641584Y-35499694D01*
X29422917Y-36574335D02*
X30103613Y-36967335D01*
X26940888Y-35141335D02*
X27621584Y-35534335D01*
X29402917Y-36608976D02*
X30116522Y-37020976D01*
X26887979Y-35156976D02*
X27601584Y-35568976D01*
X29382917Y-36643617D02*
X30128565Y-37074117D01*
X26835936Y-35173117D02*
X27581584Y-35603617D01*
X29362917Y-36678258D02*
X30139742Y-37126758D01*
X26784759Y-35189758D02*
X27561584Y-35638258D01*
X29342917Y-36712899D02*
X30149187Y-37178399D01*
X26735314Y-35207399D02*
X27541584Y-35672899D01*
X29322917Y-36747540D02*
X30157765Y-37229540D01*
X26686736Y-35225540D02*
X27521584Y-35707540D01*
X25784481Y-35814290D02*
X27041084Y-36539790D01*
X28822417Y-37614431D02*
X30087680Y-38344931D01*
X25755821Y-35843931D02*
X27021084Y-36574431D01*
X28802417Y-37649072D02*
X30076340Y-38384572D01*
X25727161Y-35873572D02*
X27001084Y-36609072D01*
X28782417Y-37683713D02*
X30064135Y-38423713D01*
X25699367Y-35903713D02*
X26981084Y-36643713D01*
X28762417Y-37718354D02*
X30051063Y-38462354D01*
X28502417Y-38168687D02*
X29836096Y-38938687D01*
X29302917Y-36782181D02*
X30164612Y-37279681D01*
X26639889Y-35244681D02*
X27501584Y-35742181D01*
X29282917Y-36816822D02*
X30170593Y-37329322D01*
X26593908Y-35264322D02*
X27481584Y-35776822D01*
X29262917Y-36851463D02*
X30176574Y-37378963D01*
X26547927Y-35283963D02*
X27461584Y-35811463D01*
X29242917Y-36886104D02*
X30179956Y-37427104D01*
X26504545Y-35305104D02*
X27441584Y-35846104D01*
X29222917Y-36920745D02*
X30183339Y-37475245D01*
X28542417Y-38099405D02*
X29875230Y-38868905D01*
X25408271Y-36289905D02*
X26741084Y-37059405D01*
X25387405Y-36324046D02*
X26721084Y-37094046D01*
X26461162Y-35326245D02*
X27421584Y-35880745D01*
X29202917Y-36955386D02*
X30185856Y-37522886D01*
X26418645Y-35347886D02*
X27401584Y-35915386D01*
X29182917Y-36990027D02*
X30187506Y-37570027D01*
X26376995Y-35370027D02*
X27381584Y-35950027D01*
X29162917Y-37024668D02*
X30188291Y-37616668D01*
X26336210Y-35392668D02*
X27361584Y-35984668D01*
X29142917Y-37059309D02*
X30188210Y-37662809D01*
X26296291Y-35415809D02*
X27341584Y-36019309D01*
X29122917Y-37093950D02*
X30186396Y-37707950D01*
X26258105Y-35439950D02*
X27321584Y-36053950D01*
X29102917Y-37128591D02*
X30185449Y-37753591D01*
X26219052Y-35463591D02*
X27301584Y-36088591D01*
X29082917Y-37163232D02*
X30182769Y-37798232D01*
X26181732Y-35488232D02*
X27281584Y-36123232D01*
X29062917Y-37197873D02*
X30179224Y-37842373D01*
X25672438Y-35934354D02*
X26961084Y-36678354D01*
X28742417Y-37752995D02*
X30037991Y-38500995D01*
X25645510Y-35964995D02*
X26941084Y-36712995D01*
X28722417Y-37787636D02*
X30024053Y-38539136D01*
X25619448Y-35996136D02*
X26921084Y-36747636D01*
X28702417Y-37822277D02*
X30010115Y-38577277D01*
X25593386Y-36027277D02*
X26901084Y-36782277D01*
X28682417Y-37856918D02*
X29995311Y-38614918D01*
X25568190Y-36058918D02*
X26881084Y-36816918D01*
X28662417Y-37891559D02*
X29979642Y-38652059D01*
X25543859Y-36091059D02*
X26861084Y-36851559D01*
X28642417Y-37926200D02*
X29963106Y-38688700D01*
X25520395Y-36123700D02*
X26841084Y-36886200D01*
X28622417Y-37960841D02*
X29946570Y-38725341D01*
X25496931Y-36156341D02*
X26821084Y-36920841D01*
X28602417Y-37995482D02*
X29930034Y-38761982D01*
X25473467Y-36188982D02*
X26801084Y-36955482D01*
X28582417Y-38030123D02*
X29912632Y-38798123D01*
X25450869Y-36222123D02*
X26781084Y-36990123D01*
X28562417Y-38064764D02*
X29894364Y-38833764D01*
X25429137Y-36255764D02*
X26761084Y-37024764D01*
X17690000Y-23360000D02*
X17690000Y-23690000D01*
X24230000Y-23360000D02*
X17690000Y-23360000D01*
X24230000Y-23690000D02*
X24230000Y-23360000D01*
X17690000Y-26100000D02*
X17690000Y-25770000D01*
X24230000Y-26100000D02*
X17690000Y-26100000D01*
X24230000Y-25770000D02*
X24230000Y-26100000D01*
X24260000Y-28890000D02*
X24260000Y-29220000D01*
X24260000Y-29220000D02*
X17720000Y-29220000D01*
X17720000Y-29220000D02*
X17720000Y-28890000D01*
X24260000Y-26810000D02*
X24260000Y-26480000D01*
X24260000Y-26480000D02*
X17720000Y-26480000D01*
X17720000Y-26480000D02*
X17720000Y-26810000D01*
X24180000Y-32600000D02*
X24180000Y-32270000D01*
X17640000Y-32600000D02*
X24180000Y-32600000D01*
X17640000Y-32270000D02*
X17640000Y-32600000D01*
X24180000Y-29860000D02*
X24180000Y-30190000D01*
X17640000Y-29860000D02*
X24180000Y-29860000D01*
X17640000Y-30190000D02*
X17640000Y-29860000D01*
X28287610Y-22780430D02*
X28230306Y-23105417D01*
X28230306Y-23105417D02*
X21789663Y-21969758D01*
X21789663Y-21969758D02*
X21846967Y-21644771D01*
X28648798Y-20732030D02*
X28706102Y-20407043D01*
X28706102Y-20407043D02*
X22265459Y-19271384D01*
X22265459Y-19271384D02*
X22208155Y-19596371D01*
X33600242Y-50140337D02*
X33925229Y-50083033D01*
X32464583Y-43699694D02*
X33600242Y-50140337D01*
X32789570Y-43642390D02*
X32464583Y-43699694D01*
X36298616Y-49664541D02*
X35973629Y-49721845D01*
X35162957Y-43223898D02*
X36298616Y-49664541D01*
X34837970Y-43281202D02*
X35162957Y-43223898D01*
X24691202Y-48202030D02*
X24633898Y-47877043D01*
X24633898Y-47877043D02*
X31074541Y-46741384D01*
X31074541Y-46741384D02*
X31131845Y-47066371D01*
X25052390Y-50250430D02*
X25109694Y-50575417D01*
X25109694Y-50575417D02*
X31550337Y-49439758D01*
X31550337Y-49439758D02*
X31493033Y-49114771D01*
X38890000Y-22160000D02*
X38890000Y-22490000D01*
X38890000Y-22490000D02*
X32350000Y-22490000D01*
X32350000Y-22490000D02*
X32350000Y-22160000D01*
X38890000Y-20080000D02*
X38890000Y-19750000D01*
X38890000Y-19750000D02*
X32350000Y-19750000D01*
X32350000Y-19750000D02*
X32350000Y-20080000D01*
X45034114Y-37021104D02*
X45034114Y-36691104D01*
X45034114Y-36691104D02*
X51574114Y-36691104D01*
X51574114Y-36691104D02*
X51574114Y-37021104D01*
X45034114Y-39101104D02*
X45034114Y-39431104D01*
X45034114Y-39431104D02*
X51574114Y-39431104D01*
X51574114Y-39431104D02*
X51574114Y-39101104D01*
X38880000Y-19400000D02*
X38880000Y-19070000D01*
X32340000Y-19400000D02*
X38880000Y-19400000D01*
X32340000Y-19070000D02*
X32340000Y-19400000D01*
X38880000Y-16660000D02*
X38880000Y-16990000D01*
X32340000Y-16660000D02*
X38880000Y-16660000D01*
X32340000Y-16990000D02*
X32340000Y-16660000D01*
X36470242Y-48060337D02*
X36795229Y-48003033D01*
X35334583Y-41619694D02*
X36470242Y-48060337D01*
X35659570Y-41562390D02*
X35334583Y-41619694D01*
X39168616Y-47584541D02*
X38843629Y-47641845D01*
X38032957Y-41143898D02*
X39168616Y-47584541D01*
X37707970Y-41201202D02*
X38032957Y-41143898D01*
X46000000Y-23040000D02*
X45670000Y-23040000D01*
X45670000Y-23040000D02*
X45670000Y-16500000D01*
X45670000Y-16500000D02*
X46000000Y-16500000D01*
X48080000Y-23040000D02*
X48410000Y-23040000D01*
X48410000Y-23040000D02*
X48410000Y-16500000D01*
X48410000Y-16500000D02*
X48080000Y-16500000D01*
X53853956Y-50139032D02*
X53741090Y-49828934D01*
X47708367Y-52375844D02*
X53853956Y-50139032D01*
X47595500Y-52065745D02*
X47708367Y-52375844D01*
X52916821Y-47564274D02*
X53029688Y-47874373D01*
X46771231Y-49801086D02*
X52916821Y-47564274D01*
X46884098Y-50111185D02*
X46771231Y-49801086D01*
X43957411Y-33136865D02*
X43647312Y-33023998D01*
X43647312Y-33023998D02*
X45884124Y-26878409D01*
X45884124Y-26878409D02*
X46194222Y-26991275D01*
X45911971Y-33848267D02*
X46222070Y-33961134D01*
X46222070Y-33961134D02*
X48458882Y-27815544D01*
X48458882Y-27815544D02*
X48148783Y-27702677D01*
X41410000Y-39250000D02*
X41410000Y-38920000D01*
X34870000Y-39250000D02*
X41410000Y-39250000D01*
X34870000Y-38920000D02*
X34870000Y-39250000D01*
X41410000Y-36510000D02*
X41410000Y-36840000D01*
X34870000Y-36510000D02*
X41410000Y-36510000D01*
X34870000Y-36840000D02*
X34870000Y-36510000D01*
X40711118Y-31964456D02*
X41021217Y-32077323D01*
X42947930Y-25818866D02*
X40711118Y-31964456D01*
X43258029Y-25931733D02*
X42947930Y-25818866D01*
X43285876Y-32901591D02*
X42975778Y-32788725D01*
X45522688Y-26756002D02*
X43285876Y-32901591D01*
X45212589Y-26643135D02*
X45522688Y-26756002D01*
X39350000Y-28050000D02*
X39680000Y-28050000D01*
X39680000Y-28050000D02*
X39680000Y-34590000D01*
X39680000Y-34590000D02*
X39350000Y-34590000D01*
X37270000Y-28050000D02*
X36940000Y-28050000D01*
X36940000Y-28050000D02*
X36940000Y-34590000D01*
X36940000Y-34590000D02*
X37270000Y-34590000D01*
X55810513Y-46211619D02*
X55130996Y-46331436D01*
X55793148Y-46113138D02*
X55810513Y-46211619D01*
X54660962Y-39692191D02*
X54414760Y-39735603D01*
X54678327Y-39790672D02*
X54660962Y-39692191D01*
X54875289Y-39755943D02*
X54678327Y-39790672D01*
X54924908Y-41189099D02*
X55121869Y-41154370D01*
X50187261Y-47203150D02*
G75*
G02X48669684Y-46140531I-227479J1290098D01*
G01*
X47975091Y-42201300D02*
G75*
G02X49037710Y-40683723I1290098J227479D01*
G01*
X48669684Y-46140531D02*
X48410948Y-44673167D01*
X54106796Y-46512030D02*
X50187261Y-47203150D01*
X49037710Y-40683723D02*
X52523930Y-40069008D01*
X48233827Y-43668663D02*
X47975091Y-42201300D01*
X55990110Y-46078408D02*
X55793148Y-46113138D01*
X55743530Y-44679981D02*
X55990110Y-46078408D01*
X55546568Y-44714711D02*
X55743530Y-44679981D01*
X54924908Y-41189099D02*
X55546568Y-44714711D01*
X54875289Y-39755943D02*
X55121869Y-41154370D01*
X55130996Y-46331436D02*
X54106796Y-46512030D01*
X54414760Y-39735603D02*
X52523930Y-40069008D01*
X48410948Y-44673167D02*
X48233827Y-43668663D01*
X32330000Y-23940000D02*
G75*
G02X30330000Y-23940000I-1000000J0D01*
G01*
X30330000Y-23940000D02*
X28680000Y-23940000D01*
X28680000Y-23940000D02*
X28680000Y-34220000D01*
X28680000Y-34220000D02*
X33980000Y-34220000D01*
X33980000Y-34220000D02*
X33980000Y-23940000D01*
X33980000Y-23940000D02*
X32330000Y-23940000D01*
X26190000Y-23880000D02*
X26190000Y-34280000D01*
X26190000Y-34280000D02*
X36470000Y-34280000D01*
X36470000Y-34280000D02*
X36470000Y-23880000D01*
X36470000Y-23880000D02*
X26190000Y-23880000D01*
D11*
X51806666Y-12142380D02*
X51473333Y-11666190D01*
X51235238Y-12142380D02*
X51235238Y-11142380D01*
X51616190Y-11142380D01*
X51711428Y-11190000D01*
X51759047Y-11237619D01*
X51806666Y-11332857D01*
X51806666Y-11475714D01*
X51759047Y-11570952D01*
X51711428Y-11618571D01*
X51616190Y-11666190D01*
X51235238Y-11666190D01*
X52235238Y-11618571D02*
X52568571Y-11618571D01*
X52711428Y-12142380D02*
X52235238Y-12142380D01*
X52235238Y-11142380D01*
X52711428Y-11142380D01*
X53473333Y-11618571D02*
X53140000Y-11618571D01*
X53140000Y-12142380D02*
X53140000Y-11142380D01*
X53616190Y-11142380D01*
X54140000Y-11142380D02*
X54140000Y-11380476D01*
X53901904Y-11285238D02*
X54140000Y-11380476D01*
X54378095Y-11285238D01*
X53997142Y-11570952D02*
X54140000Y-11380476D01*
X54282857Y-11570952D01*
X54901904Y-11142380D02*
X54901904Y-11380476D01*
X54663809Y-11285238D02*
X54901904Y-11380476D01*
X55140000Y-11285238D01*
X54759047Y-11570952D02*
X54901904Y-11380476D01*
X55044761Y-11570952D01*
X16246666Y-12142380D02*
X15913333Y-11666190D01*
X15675238Y-12142380D02*
X15675238Y-11142380D01*
X16056190Y-11142380D01*
X16151428Y-11190000D01*
X16199047Y-11237619D01*
X16246666Y-11332857D01*
X16246666Y-11475714D01*
X16199047Y-11570952D01*
X16151428Y-11618571D01*
X16056190Y-11666190D01*
X15675238Y-11666190D01*
X16675238Y-11618571D02*
X17008571Y-11618571D01*
X17151428Y-12142380D02*
X16675238Y-12142380D01*
X16675238Y-11142380D01*
X17151428Y-11142380D01*
X17913333Y-11618571D02*
X17580000Y-11618571D01*
X17580000Y-12142380D02*
X17580000Y-11142380D01*
X18056190Y-11142380D01*
X18580000Y-11142380D02*
X18580000Y-11380476D01*
X18341904Y-11285238D02*
X18580000Y-11380476D01*
X18818095Y-11285238D01*
X18437142Y-11570952D02*
X18580000Y-11380476D01*
X18722857Y-11570952D01*
X19341904Y-11142380D02*
X19341904Y-11380476D01*
X19103809Y-11285238D02*
X19341904Y-11380476D01*
X19580000Y-11285238D01*
X19199047Y-11570952D02*
X19341904Y-11380476D01*
X19484761Y-11570952D01*
X16246666Y-47702380D02*
X15913333Y-47226190D01*
X15675238Y-47702380D02*
X15675238Y-46702380D01*
X16056190Y-46702380D01*
X16151428Y-46750000D01*
X16199047Y-46797619D01*
X16246666Y-46892857D01*
X16246666Y-47035714D01*
X16199047Y-47130952D01*
X16151428Y-47178571D01*
X16056190Y-47226190D01*
X15675238Y-47226190D01*
X16675238Y-47178571D02*
X17008571Y-47178571D01*
X17151428Y-47702380D02*
X16675238Y-47702380D01*
X16675238Y-46702380D01*
X17151428Y-46702380D01*
X17913333Y-47178571D02*
X17580000Y-47178571D01*
X17580000Y-47702380D02*
X17580000Y-46702380D01*
X18056190Y-46702380D01*
X18580000Y-46702380D02*
X18580000Y-46940476D01*
X18341904Y-46845238D02*
X18580000Y-46940476D01*
X18818095Y-46845238D01*
X18437142Y-47130952D02*
X18580000Y-46940476D01*
X18722857Y-47130952D01*
X19341904Y-46702380D02*
X19341904Y-46940476D01*
X19103809Y-46845238D02*
X19341904Y-46940476D01*
X19580000Y-46845238D01*
X19199047Y-47130952D02*
X19341904Y-46940476D01*
X19484761Y-47130952D01*
X20661666Y-30302380D02*
X20661666Y-31016666D01*
X20614047Y-31159523D01*
X20518809Y-31254761D01*
X20375952Y-31302380D01*
X20280714Y-31302380D01*
X21042619Y-30302380D02*
X21709285Y-30302380D01*
X21280714Y-31302380D01*
X42485565Y-45013120D02*
X42383505Y-44982762D01*
X42273176Y-44905509D01*
X42107682Y-44789629D01*
X42005622Y-44759271D01*
X41911831Y-44775809D01*
X42000071Y-45002018D02*
X41898011Y-44971661D01*
X41787682Y-44894407D01*
X41707711Y-44715094D01*
X41649828Y-44386825D01*
X41663648Y-44190973D01*
X41740901Y-44080644D01*
X41826423Y-44017211D01*
X42014006Y-43984135D01*
X42116066Y-44014492D01*
X42226395Y-44091746D01*
X42306366Y-44271059D01*
X42364249Y-44599328D01*
X42350429Y-44795180D01*
X42273176Y-44905509D01*
X42187654Y-44968942D01*
X42000071Y-45002018D01*
X42576753Y-43884907D02*
X43186396Y-43777411D01*
X42924278Y-44210458D01*
X43064965Y-44185651D01*
X43167025Y-44216009D01*
X43222190Y-44254636D01*
X43285623Y-44340158D01*
X43326968Y-44574636D01*
X43296610Y-44676696D01*
X43257984Y-44731861D01*
X43172462Y-44795294D01*
X42891088Y-44844908D01*
X42789028Y-44814550D01*
X42733863Y-44775924D01*
X40417619Y-20215238D02*
X40370000Y-20310476D01*
X40274761Y-20405714D01*
X40131904Y-20548571D01*
X40084285Y-20643809D01*
X40084285Y-20739047D01*
X40322380Y-20691428D02*
X40274761Y-20786666D01*
X40179523Y-20881904D01*
X39989047Y-20929523D01*
X39655714Y-20929523D01*
X39465238Y-20881904D01*
X39370000Y-20786666D01*
X39322380Y-20691428D01*
X39322380Y-20500952D01*
X39370000Y-20405714D01*
X39465238Y-20310476D01*
X39655714Y-20262857D01*
X39989047Y-20262857D01*
X40179523Y-20310476D01*
X40274761Y-20405714D01*
X40322380Y-20500952D01*
X40322380Y-20691428D01*
X39417619Y-19881904D02*
X39370000Y-19834285D01*
X39322380Y-19739047D01*
X39322380Y-19500952D01*
X39370000Y-19405714D01*
X39417619Y-19358095D01*
X39512857Y-19310476D01*
X39608095Y-19310476D01*
X39750952Y-19358095D01*
X40322380Y-19929523D01*
X40322380Y-19310476D01*
X41705385Y-40012628D02*
X41603325Y-39982270D01*
X41492996Y-39905017D01*
X41327502Y-39789137D01*
X41225442Y-39758779D01*
X41131651Y-39775317D01*
X41219891Y-40001526D02*
X41117831Y-39971169D01*
X41007502Y-39893915D01*
X40927531Y-39714602D01*
X40869648Y-39386333D01*
X40883468Y-39190481D01*
X40960721Y-39080152D01*
X41046243Y-39016719D01*
X41233826Y-38983643D01*
X41335886Y-39014000D01*
X41446215Y-39091254D01*
X41526186Y-39270567D01*
X41584069Y-39598836D01*
X41570249Y-39794688D01*
X41492996Y-39905017D01*
X41407474Y-39968450D01*
X41219891Y-40001526D01*
X42579864Y-39761726D02*
X42017117Y-39860954D01*
X42298490Y-39811340D02*
X42124842Y-38826532D01*
X42055858Y-38983757D01*
X41978605Y-39094086D01*
X41893082Y-39157520D01*
X28386666Y-13602380D02*
X28386666Y-14316666D01*
X28339047Y-14459523D01*
X28243809Y-14554761D01*
X28100952Y-14602380D01*
X28005714Y-14602380D01*
X29005714Y-14030952D02*
X28910476Y-13983333D01*
X28862857Y-13935714D01*
X28815238Y-13840476D01*
X28815238Y-13792857D01*
X28862857Y-13697619D01*
X28910476Y-13650000D01*
X29005714Y-13602380D01*
X29196190Y-13602380D01*
X29291428Y-13650000D01*
X29339047Y-13697619D01*
X29386666Y-13792857D01*
X29386666Y-13840476D01*
X29339047Y-13935714D01*
X29291428Y-13983333D01*
X29196190Y-14030952D01*
X29005714Y-14030952D01*
X28910476Y-14078571D01*
X28862857Y-14126190D01*
X28815238Y-14221428D01*
X28815238Y-14411904D01*
X28862857Y-14507142D01*
X28910476Y-14554761D01*
X29005714Y-14602380D01*
X29196190Y-14602380D01*
X29291428Y-14554761D01*
X29339047Y-14507142D01*
X29386666Y-14411904D01*
X29386666Y-14221428D01*
X29339047Y-14126190D01*
X29291428Y-14078571D01*
X29196190Y-14030952D01*
X20361666Y-34482380D02*
X20361666Y-35196666D01*
X20314047Y-35339523D01*
X20218809Y-35434761D01*
X20075952Y-35482380D01*
X19980714Y-35482380D01*
X21266428Y-34482380D02*
X21075952Y-34482380D01*
X20980714Y-34530000D01*
X20933095Y-34577619D01*
X20837857Y-34720476D01*
X20790238Y-34910952D01*
X20790238Y-35291904D01*
X20837857Y-35387142D01*
X20885476Y-35434761D01*
X20980714Y-35482380D01*
X21171190Y-35482380D01*
X21266428Y-35434761D01*
X21314047Y-35387142D01*
X21361666Y-35291904D01*
X21361666Y-35053809D01*
X21314047Y-34958571D01*
X21266428Y-34910952D01*
X21171190Y-34863333D01*
X20980714Y-34863333D01*
X20885476Y-34910952D01*
X20837857Y-34958571D01*
X20790238Y-35053809D01*
X20441666Y-38482380D02*
X20441666Y-39196666D01*
X20394047Y-39339523D01*
X20298809Y-39434761D01*
X20155952Y-39482380D01*
X20060714Y-39482380D01*
X21394047Y-38482380D02*
X20917857Y-38482380D01*
X20870238Y-38958571D01*
X20917857Y-38910952D01*
X21013095Y-38863333D01*
X21251190Y-38863333D01*
X21346428Y-38910952D01*
X21394047Y-38958571D01*
X21441666Y-39053809D01*
X21441666Y-39291904D01*
X21394047Y-39387142D01*
X21346428Y-39434761D01*
X21251190Y-39482380D01*
X21013095Y-39482380D01*
X20917857Y-39434761D01*
X20870238Y-39387142D01*
X32302224Y-56462775D02*
X32273764Y-56523809D01*
X32155808Y-56617417D01*
X32066314Y-56649990D01*
X31915785Y-56654103D01*
X31793717Y-56597182D01*
X31716397Y-56523974D01*
X31606503Y-56361271D01*
X31557643Y-56227029D01*
X31537243Y-56031754D01*
X31549417Y-55925972D01*
X31606339Y-55803905D01*
X31724294Y-55710297D01*
X31813788Y-55677724D01*
X31964317Y-55673611D01*
X32025351Y-55702072D01*
X33229743Y-56226536D02*
X32692776Y-56421977D01*
X32961259Y-56324256D02*
X32619239Y-55384564D01*
X32578605Y-55551379D01*
X32521683Y-55673447D01*
X32448476Y-55750767D01*
X32698742Y-43374266D02*
X32746361Y-43421885D01*
X32793980Y-43564742D01*
X32793980Y-43659980D01*
X32746361Y-43802838D01*
X32651123Y-43898076D01*
X32555885Y-43945695D01*
X32365409Y-43993314D01*
X32222552Y-43993314D01*
X32032076Y-43945695D01*
X31936838Y-43898076D01*
X31841600Y-43802838D01*
X31793980Y-43659980D01*
X31793980Y-43564742D01*
X31841600Y-43421885D01*
X31889219Y-43374266D01*
X32127314Y-42517123D02*
X32793980Y-42517123D01*
X31746361Y-42755219D02*
X32460647Y-42993314D01*
X32460647Y-42374266D01*
X31062260Y-39277994D02*
X31079690Y-39343043D01*
X31049500Y-39490571D01*
X31001881Y-39573049D01*
X30889214Y-39672958D01*
X30759116Y-39707817D01*
X30652828Y-39701438D01*
X30464061Y-39647439D01*
X30340343Y-39576010D01*
X30199195Y-39439533D01*
X30140526Y-39350674D01*
X30105667Y-39220577D01*
X30135856Y-39073049D01*
X30183475Y-38990571D01*
X30296143Y-38890662D01*
X30361192Y-38873233D01*
X30731094Y-38042067D02*
X30492999Y-38454460D01*
X30881582Y-38733794D01*
X30864153Y-38668746D01*
X30870532Y-38562457D01*
X30989580Y-38356261D01*
X31078438Y-38297592D01*
X31143487Y-38280162D01*
X31249775Y-38286542D01*
X31455972Y-38405589D01*
X31514641Y-38494448D01*
X31532071Y-38559497D01*
X31525691Y-38665785D01*
X31406643Y-38871981D01*
X31317785Y-38930650D01*
X31252736Y-38948080D01*
X13926666Y-19882380D02*
X13926666Y-20596666D01*
X13879047Y-20739523D01*
X13783809Y-20834761D01*
X13640952Y-20882380D01*
X13545714Y-20882380D01*
X14926666Y-20882380D02*
X14355238Y-20882380D01*
X14640952Y-20882380D02*
X14640952Y-19882380D01*
X14545714Y-20025238D01*
X14450476Y-20120476D01*
X14355238Y-20168095D01*
X13936666Y-23482380D02*
X13936666Y-24196666D01*
X13889047Y-24339523D01*
X13793809Y-24434761D01*
X13650952Y-24482380D01*
X13555714Y-24482380D01*
X14365238Y-23577619D02*
X14412857Y-23530000D01*
X14508095Y-23482380D01*
X14746190Y-23482380D01*
X14841428Y-23530000D01*
X14889047Y-23577619D01*
X14936666Y-23672857D01*
X14936666Y-23768095D01*
X14889047Y-23910952D01*
X14317619Y-24482380D01*
X14936666Y-24482380D01*
X34735037Y-49356465D02*
X34859072Y-50059899D01*
X34836983Y-50208855D01*
X34759730Y-50319184D01*
X34627312Y-50390886D01*
X34533521Y-50407424D01*
X35110202Y-49290313D02*
X35719845Y-49182817D01*
X35457727Y-49615864D01*
X35598414Y-49591057D01*
X35700474Y-49621415D01*
X35755639Y-49660042D01*
X35819072Y-49745564D01*
X35860417Y-49980042D01*
X35830060Y-50082102D01*
X35791433Y-50137267D01*
X35705911Y-50200700D01*
X35424537Y-50250314D01*
X35322477Y-50219956D01*
X35267312Y-50181330D01*
X38346666Y-20152380D02*
X38346666Y-20866666D01*
X38299047Y-21009523D01*
X38203809Y-21104761D01*
X38060952Y-21152380D01*
X37965714Y-21152380D01*
X39251428Y-20485714D02*
X39251428Y-21152380D01*
X39013333Y-20104761D02*
X38775238Y-20819047D01*
X39394285Y-20819047D01*
X20793333Y-27552380D02*
X20460000Y-27076190D01*
X20221904Y-27552380D02*
X20221904Y-26552380D01*
X20602857Y-26552380D01*
X20698095Y-26600000D01*
X20745714Y-26647619D01*
X20793333Y-26742857D01*
X20793333Y-26885714D01*
X20745714Y-26980952D01*
X20698095Y-27028571D01*
X20602857Y-27076190D01*
X20221904Y-27076190D01*
X21745714Y-27552380D02*
X21174285Y-27552380D01*
X21460000Y-27552380D02*
X21460000Y-26552380D01*
X21364761Y-26695238D01*
X21269523Y-26790476D01*
X21174285Y-26838095D01*
X20823333Y-30672380D02*
X20490000Y-30196190D01*
X20251904Y-30672380D02*
X20251904Y-29672380D01*
X20632857Y-29672380D01*
X20728095Y-29720000D01*
X20775714Y-29767619D01*
X20823333Y-29862857D01*
X20823333Y-30005714D01*
X20775714Y-30100952D01*
X20728095Y-30148571D01*
X20632857Y-30196190D01*
X20251904Y-30196190D01*
X21204285Y-29767619D02*
X21251904Y-29720000D01*
X21347142Y-29672380D01*
X21585238Y-29672380D01*
X21680476Y-29720000D01*
X21728095Y-29767619D01*
X21775714Y-29862857D01*
X21775714Y-29958095D01*
X21728095Y-30100952D01*
X21156666Y-30672380D01*
X21775714Y-30672380D01*
X20743333Y-29312380D02*
X20410000Y-28836190D01*
X20171904Y-29312380D02*
X20171904Y-28312380D01*
X20552857Y-28312380D01*
X20648095Y-28360000D01*
X20695714Y-28407619D01*
X20743333Y-28502857D01*
X20743333Y-28645714D01*
X20695714Y-28740952D01*
X20648095Y-28788571D01*
X20552857Y-28836190D01*
X20171904Y-28836190D01*
X21076666Y-28312380D02*
X21695714Y-28312380D01*
X21362380Y-28693333D01*
X21505238Y-28693333D01*
X21600476Y-28740952D01*
X21648095Y-28788571D01*
X21695714Y-28883809D01*
X21695714Y-29121904D01*
X21648095Y-29217142D01*
X21600476Y-29264761D01*
X21505238Y-29312380D01*
X21219523Y-29312380D01*
X21124285Y-29264761D01*
X21076666Y-29217142D01*
X24593646Y-23938961D02*
X24348066Y-23412123D01*
X24030898Y-23839734D02*
X24204547Y-22854926D01*
X24579711Y-22921078D01*
X24665234Y-22984511D01*
X24703860Y-23039676D01*
X24734218Y-23141736D01*
X24709411Y-23282423D01*
X24645978Y-23367945D01*
X24590813Y-23406572D01*
X24488753Y-23436929D01*
X24113588Y-23370778D01*
X25553532Y-23431264D02*
X25437767Y-24087803D01*
X25385206Y-23014755D02*
X25026693Y-23676844D01*
X25636336Y-23784340D01*
X36241144Y-46184991D02*
X36652217Y-45774032D01*
X36141916Y-45622244D02*
X37126724Y-45448596D01*
X37192876Y-45823760D01*
X37162518Y-45925821D01*
X37123891Y-45980985D01*
X37038369Y-46044419D01*
X36897682Y-46069226D01*
X36795622Y-46038868D01*
X36740458Y-46000241D01*
X36677024Y-45914719D01*
X36610872Y-45539554D01*
X37383062Y-46902359D02*
X37300372Y-46433403D01*
X36823147Y-46469197D01*
X36878312Y-46507824D01*
X36941745Y-46593346D01*
X36983090Y-46827824D01*
X36952732Y-46929884D01*
X36914106Y-46985049D01*
X36828584Y-47048483D01*
X36594106Y-47089827D01*
X36492045Y-47059470D01*
X36436881Y-47020843D01*
X36373447Y-46935321D01*
X36332102Y-46700843D01*
X36362460Y-46598783D01*
X36401087Y-46543618D01*
X27594991Y-46798855D02*
X27184032Y-46387782D01*
X27032244Y-46898083D02*
X26858596Y-45913275D01*
X27233760Y-45847123D01*
X27335821Y-45877481D01*
X27390985Y-45916108D01*
X27454419Y-46001630D01*
X27479226Y-46142317D01*
X27448868Y-46244377D01*
X27410241Y-46299541D01*
X27324719Y-46362975D01*
X26949554Y-46429127D01*
X28265464Y-45665206D02*
X28077881Y-45698282D01*
X27992359Y-45761715D01*
X27953732Y-45816880D01*
X27884748Y-45974105D01*
X27870928Y-46169956D01*
X27937080Y-46545121D01*
X28000514Y-46630643D01*
X28055678Y-46669270D01*
X28157738Y-46699628D01*
X28345321Y-46666552D01*
X28430843Y-46603118D01*
X28469470Y-46547954D01*
X28499827Y-46445893D01*
X28458483Y-46211415D01*
X28395049Y-46125893D01*
X28339884Y-46087267D01*
X28237824Y-46056909D01*
X28050242Y-46089985D01*
X27964720Y-46153418D01*
X27926093Y-46208583D01*
X27895735Y-46310643D01*
X35453333Y-23942380D02*
X35120000Y-23466190D01*
X34881904Y-23942380D02*
X34881904Y-22942380D01*
X35262857Y-22942380D01*
X35358095Y-22990000D01*
X35405714Y-23037619D01*
X35453333Y-23132857D01*
X35453333Y-23275714D01*
X35405714Y-23370952D01*
X35358095Y-23418571D01*
X35262857Y-23466190D01*
X34881904Y-23466190D01*
X35786666Y-22942380D02*
X36453333Y-22942380D01*
X36024761Y-23942380D01*
X48137447Y-36143484D02*
X47804114Y-35667294D01*
X47566018Y-36143484D02*
X47566018Y-35143484D01*
X47946971Y-35143484D01*
X48042209Y-35191104D01*
X48089828Y-35238723D01*
X48137447Y-35333961D01*
X48137447Y-35476818D01*
X48089828Y-35572056D01*
X48042209Y-35619675D01*
X47946971Y-35667294D01*
X47566018Y-35667294D01*
X48708875Y-35572056D02*
X48613637Y-35524437D01*
X48566018Y-35476818D01*
X48518399Y-35381580D01*
X48518399Y-35333961D01*
X48566018Y-35238723D01*
X48613637Y-35191104D01*
X48708875Y-35143484D01*
X48899352Y-35143484D01*
X48994590Y-35191104D01*
X49042209Y-35238723D01*
X49089828Y-35333961D01*
X49089828Y-35381580D01*
X49042209Y-35476818D01*
X48994590Y-35524437D01*
X48899352Y-35572056D01*
X48708875Y-35572056D01*
X48613637Y-35619675D01*
X48566018Y-35667294D01*
X48518399Y-35762532D01*
X48518399Y-35953008D01*
X48566018Y-36048246D01*
X48613637Y-36095865D01*
X48708875Y-36143484D01*
X48899352Y-36143484D01*
X48994590Y-36095865D01*
X49042209Y-36048246D01*
X49089828Y-35953008D01*
X49089828Y-35762532D01*
X49042209Y-35667294D01*
X48994590Y-35619675D01*
X48899352Y-35572056D01*
X35443333Y-16112380D02*
X35110000Y-15636190D01*
X34871904Y-16112380D02*
X34871904Y-15112380D01*
X35252857Y-15112380D01*
X35348095Y-15160000D01*
X35395714Y-15207619D01*
X35443333Y-15302857D01*
X35443333Y-15445714D01*
X35395714Y-15540952D01*
X35348095Y-15588571D01*
X35252857Y-15636190D01*
X34871904Y-15636190D01*
X35919523Y-16112380D02*
X36110000Y-16112380D01*
X36205238Y-16064761D01*
X36252857Y-16017142D01*
X36348095Y-15874285D01*
X36395714Y-15683809D01*
X36395714Y-15302857D01*
X36348095Y-15207619D01*
X36300476Y-15160000D01*
X36205238Y-15112380D01*
X36014761Y-15112380D01*
X35919523Y-15160000D01*
X35871904Y-15207619D01*
X35824285Y-15302857D01*
X35824285Y-15540952D01*
X35871904Y-15636190D01*
X35919523Y-15683809D01*
X36014761Y-15731428D01*
X36205238Y-15731428D01*
X36300476Y-15683809D01*
X36348095Y-15636190D01*
X36395714Y-15540952D01*
X39028454Y-43636035D02*
X39439528Y-43225076D01*
X38929227Y-43073288D02*
X39914034Y-42899639D01*
X39980186Y-43274804D01*
X39949828Y-43376864D01*
X39911202Y-43432029D01*
X39825680Y-43495463D01*
X39684993Y-43520269D01*
X39582933Y-43489912D01*
X39527768Y-43451285D01*
X39464334Y-43365763D01*
X39398183Y-42990598D01*
X39193833Y-44573947D02*
X39094606Y-44011200D01*
X39144220Y-44292573D02*
X40129027Y-44118925D01*
X39971803Y-44049941D01*
X39861474Y-43972688D01*
X39798040Y-43887165D01*
X40286138Y-45009942D02*
X40302676Y-45103733D01*
X40272318Y-45205793D01*
X40233691Y-45260958D01*
X40148169Y-45324391D01*
X39968856Y-45404363D01*
X39734378Y-45445708D01*
X39538526Y-45431888D01*
X39436466Y-45401530D01*
X39381301Y-45362903D01*
X39317868Y-45277381D01*
X39301330Y-45183590D01*
X39331688Y-45081530D01*
X39370314Y-45026365D01*
X39455837Y-44962932D01*
X39635150Y-44882960D01*
X39869628Y-44841615D01*
X40065479Y-44855435D01*
X40167540Y-44885793D01*
X40222704Y-44924420D01*
X40286138Y-45009942D01*
X45122380Y-20412857D02*
X44646190Y-20746190D01*
X45122380Y-20984285D02*
X44122380Y-20984285D01*
X44122380Y-20603333D01*
X44170000Y-20508095D01*
X44217619Y-20460476D01*
X44312857Y-20412857D01*
X44455714Y-20412857D01*
X44550952Y-20460476D01*
X44598571Y-20508095D01*
X44646190Y-20603333D01*
X44646190Y-20984285D01*
X45122380Y-19460476D02*
X45122380Y-20031904D01*
X45122380Y-19746190D02*
X44122380Y-19746190D01*
X44265238Y-19841428D01*
X44360476Y-19936666D01*
X44408095Y-20031904D01*
X45122380Y-18508095D02*
X45122380Y-19079523D01*
X45122380Y-18793809D02*
X44122380Y-18793809D01*
X44265238Y-18889047D01*
X44360476Y-18984285D01*
X44408095Y-19079523D01*
X49052641Y-48387957D02*
X48576543Y-48054491D01*
X48515674Y-48583397D02*
X48173653Y-47643704D01*
X48531632Y-47513411D01*
X48637413Y-47525585D01*
X48698447Y-47554045D01*
X48775767Y-47627253D01*
X48824627Y-47761495D01*
X48812453Y-47867276D01*
X48783993Y-47928310D01*
X48710785Y-48005631D01*
X48352807Y-48135924D01*
X49947586Y-48062223D02*
X49410619Y-48257663D01*
X49679103Y-48159943D02*
X49337082Y-47220251D01*
X49296448Y-47387066D01*
X49239527Y-47509134D01*
X49166319Y-47586454D01*
X49996117Y-47081732D02*
X50024578Y-47020698D01*
X50097786Y-46943377D01*
X50321522Y-46861944D01*
X50427303Y-46874118D01*
X50488337Y-46902578D01*
X50565658Y-46975786D01*
X50598231Y-47065281D01*
X50602344Y-47215809D01*
X50260817Y-47948216D01*
X50842531Y-47736490D01*
X44031253Y-30367994D02*
X43469774Y-30518358D01*
X43835813Y-30904961D02*
X42896121Y-30562941D01*
X43026414Y-30204963D01*
X43103735Y-30131755D01*
X43164769Y-30103294D01*
X43270550Y-30091121D01*
X43404792Y-30139981D01*
X43478000Y-30217301D01*
X43506460Y-30278335D01*
X43518634Y-30384116D01*
X43388341Y-30742094D01*
X44356987Y-29473049D02*
X44161547Y-30010016D01*
X44259267Y-29741532D02*
X43319574Y-29399512D01*
X43421243Y-29537867D01*
X43478164Y-29659935D01*
X43490338Y-29765716D01*
X43531301Y-28817798D02*
X43743028Y-28236083D01*
X43986999Y-28679607D01*
X44035859Y-28545366D01*
X44113180Y-28472158D01*
X44174214Y-28443697D01*
X44279995Y-28431523D01*
X44503731Y-28512957D01*
X44576939Y-28590277D01*
X44605400Y-28651311D01*
X44617574Y-28757092D01*
X44519854Y-29025576D01*
X44442533Y-29098784D01*
X44381499Y-29127244D01*
X37497142Y-35962380D02*
X37163809Y-35486190D01*
X36925714Y-35962380D02*
X36925714Y-34962380D01*
X37306666Y-34962380D01*
X37401904Y-35010000D01*
X37449523Y-35057619D01*
X37497142Y-35152857D01*
X37497142Y-35295714D01*
X37449523Y-35390952D01*
X37401904Y-35438571D01*
X37306666Y-35486190D01*
X36925714Y-35486190D01*
X38449523Y-35962380D02*
X37878095Y-35962380D01*
X38163809Y-35962380D02*
X38163809Y-34962380D01*
X38068571Y-35105238D01*
X37973333Y-35200476D01*
X37878095Y-35248095D01*
X39306666Y-35295714D02*
X39306666Y-35962380D01*
X39068571Y-34914761D02*
X38830476Y-35629047D01*
X39449523Y-35629047D01*
X45549203Y-30929628D02*
X44987724Y-31079992D01*
X45353763Y-31466595D02*
X44414071Y-31124575D01*
X44544364Y-30766597D01*
X44621685Y-30693389D01*
X44682719Y-30664928D01*
X44788500Y-30652755D01*
X44922742Y-30701615D01*
X44995950Y-30778935D01*
X45024410Y-30839969D01*
X45036584Y-30945750D01*
X44906291Y-31303728D01*
X45874937Y-30034683D02*
X45679497Y-30571650D01*
X45777217Y-30303166D02*
X44837524Y-29961146D01*
X44939193Y-30099501D01*
X44996114Y-30221569D01*
X45008288Y-30327350D01*
X45244691Y-28842464D02*
X45081824Y-29289937D01*
X45513010Y-29497551D01*
X45484550Y-29436517D01*
X45472376Y-29330736D01*
X45553809Y-29107000D01*
X45631130Y-29033792D01*
X45692164Y-29005331D01*
X45797945Y-28993157D01*
X46021681Y-29074591D01*
X46094889Y-29151911D01*
X46123350Y-29212945D01*
X46135524Y-29318726D01*
X46054090Y-29542463D01*
X45976770Y-29615671D01*
X45915736Y-29644131D01*
X41132380Y-31962857D02*
X40656190Y-32296190D01*
X41132380Y-32534285D02*
X40132380Y-32534285D01*
X40132380Y-32153333D01*
X40180000Y-32058095D01*
X40227619Y-32010476D01*
X40322857Y-31962857D01*
X40465714Y-31962857D01*
X40560952Y-32010476D01*
X40608571Y-32058095D01*
X40656190Y-32153333D01*
X40656190Y-32534285D01*
X41132380Y-31010476D02*
X41132380Y-31581904D01*
X41132380Y-31296190D02*
X40132380Y-31296190D01*
X40275238Y-31391428D01*
X40370476Y-31486666D01*
X40418095Y-31581904D01*
X40132380Y-30153333D02*
X40132380Y-30343809D01*
X40180000Y-30439047D01*
X40227619Y-30486666D01*
X40370476Y-30581904D01*
X40560952Y-30629523D01*
X40941904Y-30629523D01*
X41037142Y-30581904D01*
X41084761Y-30534285D01*
X41132380Y-30439047D01*
X41132380Y-30248571D01*
X41084761Y-30153333D01*
X41037142Y-30105714D01*
X40941904Y-30058095D01*
X40703809Y-30058095D01*
X40608571Y-30105714D01*
X40560952Y-30153333D01*
X40513333Y-30248571D01*
X40513333Y-30439047D01*
X40560952Y-30534285D01*
X40608571Y-30581904D01*
X40703809Y-30629523D01*
X55974634Y-42318740D02*
X56385708Y-41907781D01*
X55875407Y-41755992D02*
X56860214Y-41582344D01*
X56926366Y-41957509D01*
X56896008Y-42059569D01*
X56857382Y-42114734D01*
X56771860Y-42178167D01*
X56631173Y-42202974D01*
X56529113Y-42172616D01*
X56473948Y-42133990D01*
X56410514Y-42048467D01*
X56344363Y-41673303D01*
X57009056Y-42426465D02*
X56082131Y-42928382D01*
X57124821Y-43083004D01*
X56288855Y-44100773D02*
X56189627Y-43538025D01*
X56239241Y-43819399D02*
X57224049Y-43645751D01*
X57066824Y-43576766D01*
X56956495Y-43499513D01*
X56893061Y-43413991D01*
X30568095Y-22392380D02*
X30568095Y-23201904D01*
X30615714Y-23297142D01*
X30663333Y-23344761D01*
X30758571Y-23392380D01*
X30949047Y-23392380D01*
X31044285Y-23344761D01*
X31091904Y-23297142D01*
X31139523Y-23201904D01*
X31139523Y-22392380D01*
X32139523Y-23392380D02*
X31568095Y-23392380D01*
X31853809Y-23392380D02*
X31853809Y-22392380D01*
X31758571Y-22535238D01*
X31663333Y-22630476D01*
X31568095Y-22678095D01*
M02*
