%TF.GenerationSoftware,KiCad,Pcbnew,(5.1.2-1)-1*%
%TF.CreationDate,2021-01-24T21:42:30-05:00*%
%TF.ProjectId,VCF - MFOS,56434620-2d20-44d4-964f-532e6b696361,rev?*%
%TF.SameCoordinates,Original*%
%TF.FileFunction,Legend,Top*%
%TF.FilePolarity,Positive*%
%FSLAX46Y46*%
G04 Gerber Fmt 4.6, Leading zero omitted, Abs format (unit mm)*
G04 Created by KiCad (PCBNEW (5.1.2-1)-1) date 2021-01-24 21:42:30*
%MOMM*%
%LPD*%
G04 APERTURE LIST*
%ADD10C,0.120000*%
%ADD11C,0.150000*%
G04 APERTURE END LIST*
D10*
X123190000Y-53340000D02*
X123190000Y-52070000D01*
X121920000Y-54610000D02*
X123190000Y-53340000D01*
X119380000Y-54610000D02*
X121920000Y-54610000D01*
X120650000Y-49530000D02*
X121920000Y-52070000D01*
X120650000Y-53340000D02*
X119380000Y-49530000D01*
X119380000Y-49530000D02*
X120650000Y-53340000D01*
X132080000Y-97790000D02*
X129540000Y-99060000D01*
X134620000Y-93980000D02*
X132080000Y-97790000D01*
X132080000Y-91440000D02*
X134620000Y-93980000D01*
X127000000Y-92710000D02*
X129540000Y-92710000D01*
X129540000Y-96520000D02*
X125730000Y-95250000D01*
X125730000Y-95250000D02*
X129540000Y-96520000D01*
X109220000Y-55880000D02*
X109220000Y-57150000D01*
X110490000Y-57150000D02*
X109220000Y-55880000D01*
X109220000Y-57150000D02*
X110490000Y-57150000D01*
X111760000Y-52070000D02*
X110490000Y-55880000D01*
X107950000Y-53340000D02*
X109220000Y-54610000D01*
X86360000Y-58420000D02*
X88900000Y-55880000D01*
X88900000Y-58420000D02*
X90170000Y-59690000D01*
X86360000Y-55880000D02*
X88900000Y-58420000D01*
X87630000Y-60960000D02*
X85090000Y-58420000D01*
X86360000Y-62230000D02*
X87630000Y-60960000D01*
X83820000Y-60960000D02*
X86360000Y-62230000D01*
X82550000Y-60960000D02*
X80010000Y-62230000D01*
X83820000Y-62230000D02*
X82550000Y-60960000D01*
X82550000Y-64770000D02*
X83820000Y-62230000D01*
X80010000Y-62230000D02*
X82550000Y-64770000D01*
D11*
X79994285Y-53268571D02*
X79660952Y-53268571D01*
X79660952Y-53792380D02*
X79660952Y-52792380D01*
X80137142Y-52792380D01*
X80708571Y-52792380D02*
X80899047Y-52792380D01*
X80994285Y-52840000D01*
X81089523Y-52935238D01*
X81137142Y-53125714D01*
X81137142Y-53459047D01*
X81089523Y-53649523D01*
X80994285Y-53744761D01*
X80899047Y-53792380D01*
X80708571Y-53792380D01*
X80613333Y-53744761D01*
X80518095Y-53649523D01*
X80470476Y-53459047D01*
X80470476Y-53125714D01*
X80518095Y-52935238D01*
X80613333Y-52840000D01*
X80708571Y-52792380D01*
X81565714Y-52792380D02*
X81565714Y-53601904D01*
X81613333Y-53697142D01*
X81660952Y-53744761D01*
X81756190Y-53792380D01*
X81946666Y-53792380D01*
X82041904Y-53744761D01*
X82089523Y-53697142D01*
X82137142Y-53601904D01*
X82137142Y-52792380D01*
X82470476Y-52792380D02*
X83041904Y-52792380D01*
X82756190Y-53792380D02*
X82756190Y-52792380D01*
X67484761Y-43632380D02*
X67151428Y-43156190D01*
X66913333Y-43632380D02*
X66913333Y-42632380D01*
X67294285Y-42632380D01*
X67389523Y-42680000D01*
X67437142Y-42727619D01*
X67484761Y-42822857D01*
X67484761Y-42965714D01*
X67437142Y-43060952D01*
X67389523Y-43108571D01*
X67294285Y-43156190D01*
X66913333Y-43156190D01*
X67913333Y-43108571D02*
X68246666Y-43108571D01*
X68389523Y-43632380D02*
X67913333Y-43632380D01*
X67913333Y-42632380D01*
X68389523Y-42632380D01*
X68770476Y-43584761D02*
X68913333Y-43632380D01*
X69151428Y-43632380D01*
X69246666Y-43584761D01*
X69294285Y-43537142D01*
X69341904Y-43441904D01*
X69341904Y-43346666D01*
X69294285Y-43251428D01*
X69246666Y-43203809D01*
X69151428Y-43156190D01*
X68960952Y-43108571D01*
X68865714Y-43060952D01*
X68818095Y-43013333D01*
X68770476Y-42918095D01*
X68770476Y-42822857D01*
X68818095Y-42727619D01*
X68865714Y-42680000D01*
X68960952Y-42632380D01*
X69199047Y-42632380D01*
X69341904Y-42680000D01*
X70294285Y-43632380D02*
X69722857Y-43632380D01*
X70008571Y-43632380D02*
X70008571Y-42632380D01*
X69913333Y-42775238D01*
X69818095Y-42870476D01*
X69722857Y-42918095D01*
X67484761Y-37282380D02*
X67151428Y-36806190D01*
X66913333Y-37282380D02*
X66913333Y-36282380D01*
X67294285Y-36282380D01*
X67389523Y-36330000D01*
X67437142Y-36377619D01*
X67484761Y-36472857D01*
X67484761Y-36615714D01*
X67437142Y-36710952D01*
X67389523Y-36758571D01*
X67294285Y-36806190D01*
X66913333Y-36806190D01*
X67913333Y-36758571D02*
X68246666Y-36758571D01*
X68389523Y-37282380D02*
X67913333Y-37282380D01*
X67913333Y-36282380D01*
X68389523Y-36282380D01*
X68770476Y-37234761D02*
X68913333Y-37282380D01*
X69151428Y-37282380D01*
X69246666Y-37234761D01*
X69294285Y-37187142D01*
X69341904Y-37091904D01*
X69341904Y-36996666D01*
X69294285Y-36901428D01*
X69246666Y-36853809D01*
X69151428Y-36806190D01*
X68960952Y-36758571D01*
X68865714Y-36710952D01*
X68818095Y-36663333D01*
X68770476Y-36568095D01*
X68770476Y-36472857D01*
X68818095Y-36377619D01*
X68865714Y-36330000D01*
X68960952Y-36282380D01*
X69199047Y-36282380D01*
X69341904Y-36330000D01*
X69722857Y-36377619D02*
X69770476Y-36330000D01*
X69865714Y-36282380D01*
X70103809Y-36282380D01*
X70199047Y-36330000D01*
X70246666Y-36377619D01*
X70294285Y-36472857D01*
X70294285Y-36568095D01*
X70246666Y-36710952D01*
X69675238Y-37282380D01*
X70294285Y-37282380D01*
X67484761Y-32202380D02*
X67151428Y-31726190D01*
X66913333Y-32202380D02*
X66913333Y-31202380D01*
X67294285Y-31202380D01*
X67389523Y-31250000D01*
X67437142Y-31297619D01*
X67484761Y-31392857D01*
X67484761Y-31535714D01*
X67437142Y-31630952D01*
X67389523Y-31678571D01*
X67294285Y-31726190D01*
X66913333Y-31726190D01*
X67913333Y-31678571D02*
X68246666Y-31678571D01*
X68389523Y-32202380D02*
X67913333Y-32202380D01*
X67913333Y-31202380D01*
X68389523Y-31202380D01*
X68770476Y-32154761D02*
X68913333Y-32202380D01*
X69151428Y-32202380D01*
X69246666Y-32154761D01*
X69294285Y-32107142D01*
X69341904Y-32011904D01*
X69341904Y-31916666D01*
X69294285Y-31821428D01*
X69246666Y-31773809D01*
X69151428Y-31726190D01*
X68960952Y-31678571D01*
X68865714Y-31630952D01*
X68818095Y-31583333D01*
X68770476Y-31488095D01*
X68770476Y-31392857D01*
X68818095Y-31297619D01*
X68865714Y-31250000D01*
X68960952Y-31202380D01*
X69199047Y-31202380D01*
X69341904Y-31250000D01*
X69675238Y-31202380D02*
X70294285Y-31202380D01*
X69960952Y-31583333D01*
X70103809Y-31583333D01*
X70199047Y-31630952D01*
X70246666Y-31678571D01*
X70294285Y-31773809D01*
X70294285Y-32011904D01*
X70246666Y-32107142D01*
X70199047Y-32154761D01*
X70103809Y-32202380D01*
X69818095Y-32202380D01*
X69722857Y-32154761D01*
X69675238Y-32107142D01*
D10*
X43180000Y-67310000D02*
X41910000Y-69850000D01*
X40640000Y-68580000D02*
X41910000Y-67310000D01*
X40640000Y-72390000D02*
X43180000Y-71120000D01*
X39370000Y-69850000D02*
X40640000Y-72390000D01*
X39370000Y-68580000D02*
X39370000Y-69850000D01*
X107950000Y-53340000D02*
X111760000Y-50800000D01*
X109220000Y-48260000D02*
X109220000Y-50800000D01*
X106680000Y-52070000D02*
X109220000Y-48260000D01*
X109220000Y-50800000D02*
X106680000Y-52070000D01*
X107950000Y-49530000D02*
X106680000Y-45720000D01*
X104140000Y-49530000D02*
X107950000Y-49530000D01*
X106680000Y-45720000D02*
X104140000Y-49530000D01*
X104140000Y-43180000D02*
X105410000Y-44450000D01*
X101600000Y-45720000D02*
X102870000Y-48260000D01*
X104140000Y-43180000D02*
X101600000Y-45720000D01*
X66040000Y-90170000D02*
X64770000Y-85090000D01*
X60960000Y-87630000D02*
X66040000Y-90170000D01*
X59690000Y-96520000D02*
X62230000Y-92710000D01*
X55880000Y-93980000D02*
X59690000Y-96520000D01*
X59690000Y-90170000D02*
X55880000Y-93980000D01*
X36830000Y-97790000D02*
X34290000Y-96520000D01*
X36830000Y-95250000D02*
X36830000Y-97790000D01*
X34290000Y-96520000D02*
X36830000Y-95250000D01*
X30480000Y-100330000D02*
X34290000Y-99060000D01*
X29210000Y-96520000D02*
X30480000Y-100330000D01*
X31750000Y-95250000D02*
X29210000Y-96520000D01*
X86360000Y-35560000D02*
X83820000Y-36830000D01*
X83820000Y-34290000D02*
X86360000Y-35560000D01*
X86360000Y-33020000D02*
X83820000Y-34290000D01*
X81280000Y-33020000D02*
X83820000Y-33020000D01*
X81280000Y-35560000D02*
X83820000Y-35560000D01*
X81280000Y-38100000D02*
X83820000Y-38100000D01*
X81280000Y-33020000D02*
X81280000Y-38100000D01*
X77470000Y-35560000D02*
X78740000Y-38100000D01*
X80010000Y-35560000D02*
X77470000Y-35560000D01*
X78740000Y-33020000D02*
X80010000Y-35560000D01*
X77470000Y-38100000D02*
X78740000Y-33020000D01*
X19050000Y-33020000D02*
X20320000Y-33020000D01*
X20320000Y-34290000D02*
X19050000Y-33020000D01*
X20320000Y-33020000D02*
X20320000Y-34290000D01*
X15240000Y-35560000D02*
X19050000Y-34290000D01*
X20320000Y-39370000D02*
X20320000Y-36830000D01*
X15240000Y-38100000D02*
X20320000Y-39370000D01*
X20320000Y-40640000D02*
X16510000Y-41910000D01*
X21590000Y-44450000D02*
X20320000Y-40640000D01*
X16510000Y-45720000D02*
X21590000Y-44450000D01*
X16510000Y-41910000D02*
X16510000Y-45720000D01*
X16510000Y-48260000D02*
X15240000Y-52070000D01*
X21590000Y-48260000D02*
X16510000Y-48260000D01*
X21590000Y-52070000D02*
X21590000Y-48260000D01*
X15240000Y-52070000D02*
X21590000Y-52070000D01*
X22860000Y-58420000D02*
X22860000Y-54610000D01*
X15240000Y-59690000D02*
X22860000Y-58420000D01*
X13970000Y-54610000D02*
X15240000Y-59690000D01*
X99060000Y-53340000D02*
X99060000Y-52070000D01*
X100330000Y-52070000D02*
X99060000Y-53340000D01*
X99060000Y-52070000D02*
X100330000Y-52070000D01*
X97790000Y-46990000D02*
X99060000Y-50800000D01*
X92710000Y-50800000D02*
X95250000Y-50800000D01*
X92710000Y-46990000D02*
X92710000Y-50800000D01*
X90170000Y-46990000D02*
X88900000Y-46990000D01*
X91440000Y-49530000D02*
X90170000Y-46990000D01*
X88900000Y-50800000D02*
X91440000Y-49530000D01*
X88900000Y-46990000D02*
X88900000Y-50800000D01*
X87630000Y-49530000D02*
X86360000Y-46990000D01*
X86360000Y-50800000D02*
X87630000Y-49530000D01*
X85090000Y-48260000D02*
X86360000Y-50800000D01*
X86360000Y-46990000D02*
X85090000Y-48260000D01*
X81280000Y-52070000D02*
X83820000Y-50800000D01*
X81280000Y-46990000D02*
X81280000Y-52070000D01*
X83820000Y-46990000D02*
X81280000Y-46990000D01*
X67310000Y-46990000D02*
X66040000Y-46990000D01*
X67310000Y-48260000D02*
X67310000Y-46990000D01*
X66040000Y-48260000D02*
X67310000Y-48260000D01*
X66040000Y-46990000D02*
X66040000Y-48260000D01*
X62230000Y-43180000D02*
X64770000Y-45720000D01*
X59690000Y-49530000D02*
X62230000Y-46990000D01*
X57150000Y-44450000D02*
X59690000Y-49530000D01*
X57150000Y-50800000D02*
X54610000Y-49530000D01*
X58420000Y-49530000D02*
X57150000Y-50800000D01*
X55880000Y-46990000D02*
X58420000Y-49530000D01*
X54610000Y-49530000D02*
X55880000Y-46990000D01*
X53340000Y-50800000D02*
X50800000Y-50800000D01*
X55880000Y-52070000D02*
X53340000Y-50800000D01*
X53340000Y-54610000D02*
X55880000Y-52070000D01*
X50800000Y-50800000D02*
X53340000Y-54610000D01*
X49530000Y-57150000D02*
X52070000Y-54610000D01*
X46990000Y-54610000D02*
X49530000Y-57150000D01*
X48260000Y-52070000D02*
X46990000Y-54610000D01*
X22860000Y-19050000D02*
X20320000Y-13970000D01*
X16510000Y-15240000D02*
X22860000Y-19050000D01*
X20320000Y-20320000D02*
X16510000Y-15240000D01*
X13970000Y-17780000D02*
X13970000Y-20320000D01*
X16510000Y-24130000D02*
X19050000Y-21590000D01*
X13970000Y-19050000D02*
X17780000Y-22860000D01*
D11*
X66818095Y-19121428D02*
X67580000Y-19121428D01*
X67199047Y-19502380D02*
X67199047Y-18740476D01*
X68580000Y-19502380D02*
X68008571Y-19502380D01*
X68294285Y-19502380D02*
X68294285Y-18502380D01*
X68199047Y-18645238D01*
X68103809Y-18740476D01*
X68008571Y-18788095D01*
X68960952Y-18597619D02*
X69008571Y-18550000D01*
X69103809Y-18502380D01*
X69341904Y-18502380D01*
X69437142Y-18550000D01*
X69484761Y-18597619D01*
X69532380Y-18692857D01*
X69532380Y-18788095D01*
X69484761Y-18930952D01*
X68913333Y-19502380D01*
X69532380Y-19502380D01*
X69818095Y-18502380D02*
X70151428Y-19502380D01*
X70484761Y-18502380D01*
X55435714Y-20248571D02*
X55769047Y-20248571D01*
X55911904Y-20772380D02*
X55435714Y-20772380D01*
X55435714Y-19772380D01*
X55911904Y-19772380D01*
X56769047Y-20772380D02*
X56769047Y-20248571D01*
X56721428Y-20153333D01*
X56626190Y-20105714D01*
X56435714Y-20105714D01*
X56340476Y-20153333D01*
X56769047Y-20724761D02*
X56673809Y-20772380D01*
X56435714Y-20772380D01*
X56340476Y-20724761D01*
X56292857Y-20629523D01*
X56292857Y-20534285D01*
X56340476Y-20439047D01*
X56435714Y-20391428D01*
X56673809Y-20391428D01*
X56769047Y-20343809D01*
X57245238Y-20772380D02*
X57245238Y-20105714D01*
X57245238Y-20296190D02*
X57292857Y-20200952D01*
X57340476Y-20153333D01*
X57435714Y-20105714D01*
X57530952Y-20105714D01*
X57721428Y-20105714D02*
X58102380Y-20105714D01*
X57864285Y-19772380D02*
X57864285Y-20629523D01*
X57911904Y-20724761D01*
X58007142Y-20772380D01*
X58102380Y-20772380D01*
X58435714Y-20772380D02*
X58435714Y-19772380D01*
X58864285Y-20772380D02*
X58864285Y-20248571D01*
X58816666Y-20153333D01*
X58721428Y-20105714D01*
X58578571Y-20105714D01*
X58483333Y-20153333D01*
X58435714Y-20200952D01*
X42688095Y-20391428D02*
X43450000Y-20391428D01*
X44450000Y-20772380D02*
X43878571Y-20772380D01*
X44164285Y-20772380D02*
X44164285Y-19772380D01*
X44069047Y-19915238D01*
X43973809Y-20010476D01*
X43878571Y-20058095D01*
X44830952Y-19867619D02*
X44878571Y-19820000D01*
X44973809Y-19772380D01*
X45211904Y-19772380D01*
X45307142Y-19820000D01*
X45354761Y-19867619D01*
X45402380Y-19962857D01*
X45402380Y-20058095D01*
X45354761Y-20200952D01*
X44783333Y-20772380D01*
X45402380Y-20772380D01*
X45688095Y-19772380D02*
X46021428Y-20772380D01*
X46354761Y-19772380D01*
D10*
X93980000Y-45720000D02*
X91440000Y-41910000D01*
X93980000Y-45720000D02*
X96520000Y-41910000D01*
X95250000Y-40640000D02*
X96520000Y-41910000D01*
X93980000Y-41910000D02*
X95250000Y-40640000D01*
X92710000Y-40640000D02*
X93980000Y-41910000D01*
X91440000Y-41910000D02*
X92710000Y-40640000D01*
X125730000Y-110490000D02*
X128270000Y-106680000D01*
X119380000Y-110490000D02*
X125730000Y-110490000D01*
X115570000Y-106680000D02*
X119380000Y-110490000D01*
X124460000Y-100330000D02*
X124460000Y-104140000D01*
X120650000Y-101600000D02*
X120650000Y-100330000D01*
X120650000Y-104140000D02*
X120650000Y-101600000D01*
X120650000Y-100330000D02*
X120650000Y-104140000D01*
X67310000Y-110490000D02*
X67310000Y-109220000D01*
X67310000Y-110490000D02*
X69850000Y-109220000D01*
X67310000Y-113030000D02*
X67310000Y-110490000D01*
X66040000Y-110490000D02*
X63500000Y-110490000D01*
X66040000Y-109220000D02*
X66040000Y-110490000D01*
X63500000Y-109220000D02*
X66040000Y-109220000D01*
X63500000Y-113030000D02*
X63500000Y-109220000D01*
X66040000Y-113030000D02*
X63500000Y-113030000D01*
X59690000Y-109220000D02*
X62230000Y-109220000D01*
X60960000Y-113030000D02*
X60960000Y-107950000D01*
X57150000Y-113030000D02*
X58420000Y-107950000D01*
X55880000Y-113030000D02*
X55880000Y-110490000D01*
X50800000Y-110490000D02*
X53340000Y-109220000D01*
X50800000Y-106680000D02*
X54610000Y-107950000D01*
X50800000Y-113030000D02*
X50800000Y-106680000D01*
X78740000Y-101600000D02*
X78740000Y-105410000D01*
X78740000Y-105410000D02*
X77470000Y-104140000D01*
X77470000Y-106680000D02*
X78740000Y-105410000D01*
X77470000Y-104140000D02*
X77470000Y-106680000D01*
X72390000Y-104140000D02*
X74930000Y-104140000D01*
X74930000Y-101600000D02*
X72390000Y-101600000D01*
X74930000Y-102870000D02*
X74930000Y-101600000D01*
X72390000Y-102870000D02*
X74930000Y-102870000D01*
X72390000Y-104140000D02*
X72390000Y-101600000D01*
X72390000Y-101600000D02*
X72390000Y-104140000D01*
X71120000Y-101600000D02*
X71120000Y-105410000D01*
X69850000Y-101600000D02*
X69850000Y-105410000D01*
X68580000Y-102870000D02*
X66040000Y-102870000D01*
X68580000Y-105410000D02*
X68580000Y-102870000D01*
X66040000Y-105410000D02*
X68580000Y-105410000D01*
X66040000Y-102870000D02*
X66040000Y-105410000D01*
X63500000Y-101600000D02*
X64770000Y-101600000D01*
X62230000Y-102870000D02*
X63500000Y-101600000D01*
X62230000Y-101600000D02*
X62230000Y-102870000D01*
X62230000Y-105410000D02*
X62230000Y-101600000D01*
X58420000Y-102870000D02*
X60960000Y-102870000D01*
X59690000Y-105410000D02*
X59690000Y-101600000D01*
X57150000Y-105410000D02*
X57150000Y-101600000D01*
X55880000Y-101600000D02*
X57150000Y-105410000D01*
X55880000Y-105410000D02*
X55880000Y-101600000D01*
X53340000Y-102870000D02*
X50800000Y-102870000D01*
X53340000Y-105410000D02*
X53340000Y-102870000D01*
X50800000Y-105410000D02*
X53340000Y-105410000D01*
X50800000Y-102870000D02*
X50800000Y-105410000D01*
X45720000Y-106680000D02*
X49530000Y-105410000D01*
X46990000Y-97790000D02*
X45720000Y-106680000D01*
X50800000Y-97790000D02*
X46990000Y-97790000D01*
X40640000Y-107950000D02*
X43180000Y-107950000D01*
X40640000Y-105410000D02*
X40640000Y-107950000D01*
X43180000Y-105410000D02*
X40640000Y-105410000D01*
X43180000Y-106680000D02*
X43180000Y-105410000D01*
X40640000Y-106680000D02*
X43180000Y-106680000D01*
X36830000Y-109220000D02*
X36830000Y-107950000D01*
X38100000Y-109220000D02*
X36830000Y-109220000D01*
X38100000Y-106680000D02*
X38100000Y-109220000D01*
X38100000Y-106680000D02*
X38100000Y-104140000D01*
X36830000Y-105410000D02*
X38100000Y-106680000D01*
X38100000Y-104140000D02*
X36830000Y-105410000D01*
X34290000Y-109220000D02*
X34290000Y-107950000D01*
X34290000Y-107950000D02*
X34290000Y-104140000D01*
X33020000Y-106680000D02*
X34290000Y-107950000D01*
X34290000Y-104140000D02*
X33020000Y-106680000D01*
X30480000Y-104140000D02*
X33020000Y-104140000D01*
X31750000Y-106680000D02*
X31750000Y-102870000D01*
X29210000Y-101600000D02*
X29210000Y-106680000D01*
X27940000Y-104140000D02*
X26670000Y-102870000D01*
X27940000Y-105410000D02*
X27940000Y-104140000D01*
X27940000Y-106680000D02*
X27940000Y-105410000D01*
X26670000Y-107950000D02*
X27940000Y-106680000D01*
X25400000Y-106680000D02*
X26670000Y-107950000D01*
X25400000Y-104140000D02*
X25400000Y-106680000D01*
X26670000Y-102870000D02*
X25400000Y-104140000D01*
X20320000Y-109220000D02*
X24130000Y-91440000D01*
X16510000Y-90170000D02*
X20320000Y-109220000D01*
D11*
X70628095Y-24852380D02*
X71294761Y-25852380D01*
X71294761Y-24852380D02*
X70628095Y-25852380D01*
X72247142Y-25852380D02*
X71913809Y-25376190D01*
X71675714Y-25852380D02*
X71675714Y-24852380D01*
X72056666Y-24852380D01*
X72151904Y-24900000D01*
X72199523Y-24947619D01*
X72247142Y-25042857D01*
X72247142Y-25185714D01*
X72199523Y-25280952D01*
X72151904Y-25328571D01*
X72056666Y-25376190D01*
X71675714Y-25376190D01*
X72675714Y-25328571D02*
X73009047Y-25328571D01*
X73151904Y-25852380D02*
X72675714Y-25852380D01*
X72675714Y-24852380D01*
X73151904Y-24852380D01*
X73532857Y-25804761D02*
X73675714Y-25852380D01*
X73913809Y-25852380D01*
X74009047Y-25804761D01*
X74056666Y-25757142D01*
X74104285Y-25661904D01*
X74104285Y-25566666D01*
X74056666Y-25471428D01*
X74009047Y-25423809D01*
X73913809Y-25376190D01*
X73723333Y-25328571D01*
X73628095Y-25280952D01*
X73580476Y-25233333D01*
X73532857Y-25138095D01*
X73532857Y-25042857D01*
X73580476Y-24947619D01*
X73628095Y-24900000D01*
X73723333Y-24852380D01*
X73961428Y-24852380D01*
X74104285Y-24900000D01*
X63331641Y-83223435D02*
X63331641Y-83290778D01*
X63264297Y-83425465D01*
X63196954Y-83492809D01*
X63062267Y-83560152D01*
X62927580Y-83560152D01*
X62826564Y-83526480D01*
X62658206Y-83425465D01*
X62557190Y-83324450D01*
X62456175Y-83156091D01*
X62422503Y-83055076D01*
X62422503Y-82920389D01*
X62489847Y-82785702D01*
X62557190Y-82718358D01*
X62691877Y-82651015D01*
X62759221Y-82651015D01*
X62893908Y-82381641D02*
X63836717Y-82853045D01*
X63365312Y-81910236D01*
X63533671Y-81741877D02*
X63971404Y-81304145D01*
X64005076Y-81809221D01*
X64106091Y-81708206D01*
X64207106Y-81674534D01*
X64274450Y-81674534D01*
X64375465Y-81708206D01*
X64543824Y-81876564D01*
X64577496Y-81977580D01*
X64577496Y-82044923D01*
X64543824Y-82145938D01*
X64341793Y-82347969D01*
X64240778Y-82381641D01*
X64173435Y-82381641D01*
X58251641Y-88303435D02*
X58251641Y-88370778D01*
X58184297Y-88505465D01*
X58116954Y-88572809D01*
X57982267Y-88640152D01*
X57847580Y-88640152D01*
X57746564Y-88606480D01*
X57578206Y-88505465D01*
X57477190Y-88404450D01*
X57376175Y-88236091D01*
X57342503Y-88135076D01*
X57342503Y-88000389D01*
X57409847Y-87865702D01*
X57477190Y-87798358D01*
X57611877Y-87731015D01*
X57679221Y-87731015D01*
X57813908Y-87461641D02*
X58756717Y-87933045D01*
X58285312Y-86990236D01*
X58554687Y-86855549D02*
X58554687Y-86788206D01*
X58588358Y-86687190D01*
X58756717Y-86518832D01*
X58857732Y-86485160D01*
X58925076Y-86485160D01*
X59026091Y-86518832D01*
X59093435Y-86586175D01*
X59160778Y-86720862D01*
X59160778Y-87528984D01*
X59598511Y-87091251D01*
X54441641Y-92113435D02*
X54441641Y-92180778D01*
X54374297Y-92315465D01*
X54306954Y-92382809D01*
X54172267Y-92450152D01*
X54037580Y-92450152D01*
X53936564Y-92416480D01*
X53768206Y-92315465D01*
X53667190Y-92214450D01*
X53566175Y-92046091D01*
X53532503Y-91945076D01*
X53532503Y-91810389D01*
X53599847Y-91675702D01*
X53667190Y-91608358D01*
X53801877Y-91541015D01*
X53869221Y-91541015D01*
X54003908Y-91271641D02*
X54946717Y-91743045D01*
X54475312Y-90800236D01*
X55788511Y-90901251D02*
X55384450Y-91305312D01*
X55586480Y-91103282D02*
X54879374Y-90396175D01*
X54913045Y-90564534D01*
X54913045Y-90699221D01*
X54879374Y-90800236D01*
X23894297Y-80750778D02*
X23894297Y-80818122D01*
X23826954Y-80952809D01*
X23759610Y-81020152D01*
X23624923Y-81087496D01*
X23490236Y-81087496D01*
X23389221Y-81053824D01*
X23220862Y-80952809D01*
X23119847Y-80851793D01*
X23018832Y-80683435D01*
X22985160Y-80582419D01*
X22985160Y-80447732D01*
X23052503Y-80313045D01*
X23119847Y-80245702D01*
X23254534Y-80178358D01*
X23321877Y-80178358D01*
X23692267Y-79673282D02*
X23826954Y-79538595D01*
X23927969Y-79504923D01*
X24062656Y-79504923D01*
X24231015Y-79605938D01*
X24466717Y-79841641D01*
X24567732Y-80010000D01*
X24567732Y-80144687D01*
X24534061Y-80245702D01*
X24399374Y-80380389D01*
X24298358Y-80414061D01*
X24163671Y-80414061D01*
X23995312Y-80313045D01*
X23759610Y-80077343D01*
X23658595Y-79908984D01*
X23658595Y-79774297D01*
X23692267Y-79673282D01*
X24231015Y-79134534D02*
X24668748Y-78696801D01*
X24702419Y-79201877D01*
X24803435Y-79100862D01*
X24904450Y-79067190D01*
X24971793Y-79067190D01*
X25072809Y-79100862D01*
X25241167Y-79269221D01*
X25274839Y-79370236D01*
X25274839Y-79437580D01*
X25241167Y-79538595D01*
X25039137Y-79740625D01*
X24938122Y-79774297D01*
X24870778Y-79774297D01*
X27704297Y-85830778D02*
X27704297Y-85898122D01*
X27636954Y-86032809D01*
X27569610Y-86100152D01*
X27434923Y-86167496D01*
X27300236Y-86167496D01*
X27199221Y-86133824D01*
X27030862Y-86032809D01*
X26929847Y-85931793D01*
X26828832Y-85763435D01*
X26795160Y-85662419D01*
X26795160Y-85527732D01*
X26862503Y-85393045D01*
X26929847Y-85325702D01*
X27064534Y-85258358D01*
X27131877Y-85258358D01*
X27502267Y-84753282D02*
X27636954Y-84618595D01*
X27737969Y-84584923D01*
X27872656Y-84584923D01*
X28041015Y-84685938D01*
X28276717Y-84921641D01*
X28377732Y-85090000D01*
X28377732Y-85224687D01*
X28344061Y-85325702D01*
X28209374Y-85460389D01*
X28108358Y-85494061D01*
X27973671Y-85494061D01*
X27805312Y-85393045D01*
X27569610Y-85157343D01*
X27468595Y-84988984D01*
X27468595Y-84854297D01*
X27502267Y-84753282D01*
X28142030Y-84248206D02*
X28142030Y-84180862D01*
X28175702Y-84079847D01*
X28344061Y-83911488D01*
X28445076Y-83877816D01*
X28512419Y-83877816D01*
X28613435Y-83911488D01*
X28680778Y-83978832D01*
X28748122Y-84113519D01*
X28748122Y-84921641D01*
X29185854Y-84483908D01*
X32784297Y-89640778D02*
X32784297Y-89708122D01*
X32716954Y-89842809D01*
X32649610Y-89910152D01*
X32514923Y-89977496D01*
X32380236Y-89977496D01*
X32279221Y-89943824D01*
X32110862Y-89842809D01*
X32009847Y-89741793D01*
X31908832Y-89573435D01*
X31875160Y-89472419D01*
X31875160Y-89337732D01*
X31942503Y-89203045D01*
X32009847Y-89135702D01*
X32144534Y-89068358D01*
X32211877Y-89068358D01*
X32582267Y-88563282D02*
X32716954Y-88428595D01*
X32817969Y-88394923D01*
X32952656Y-88394923D01*
X33121015Y-88495938D01*
X33356717Y-88731641D01*
X33457732Y-88900000D01*
X33457732Y-89034687D01*
X33424061Y-89135702D01*
X33289374Y-89270389D01*
X33188358Y-89304061D01*
X33053671Y-89304061D01*
X32885312Y-89203045D01*
X32649610Y-88967343D01*
X32548595Y-88798984D01*
X32548595Y-88664297D01*
X32582267Y-88563282D01*
X34265854Y-88293908D02*
X33861793Y-88697969D01*
X34063824Y-88495938D02*
X33356717Y-87788832D01*
X33390389Y-87957190D01*
X33390389Y-88091877D01*
X33356717Y-88192893D01*
X16854026Y-26561675D02*
X17190744Y-26224957D01*
X16988713Y-26831049D02*
X16517309Y-25888240D01*
X17460118Y-26359644D01*
X17695820Y-26123942D02*
X16988713Y-25416835D01*
X18032538Y-25787225D02*
X17325431Y-25080118D01*
X18436599Y-25383164D01*
X17729492Y-24676057D01*
X17998866Y-24406683D02*
X18436599Y-23968950D01*
X18470270Y-24474026D01*
X18571286Y-24373011D01*
X18672301Y-24339339D01*
X18739644Y-24339339D01*
X18840660Y-24373011D01*
X19009018Y-24541370D01*
X19042690Y-24642385D01*
X19042690Y-24709729D01*
X19009018Y-24810744D01*
X18806988Y-25012774D01*
X18705973Y-25046446D01*
X18638629Y-25046446D01*
X21934026Y-21481675D02*
X22270744Y-21144957D01*
X22068713Y-21751049D02*
X21597309Y-20808240D01*
X22540118Y-21279644D01*
X22775820Y-21043942D02*
X22068713Y-20336835D01*
X23112538Y-20707225D02*
X22405431Y-20000118D01*
X23516599Y-20303164D01*
X22809492Y-19596057D01*
X23179881Y-19360355D02*
X23179881Y-19293011D01*
X23213553Y-19191996D01*
X23381912Y-19023637D01*
X23482927Y-18989965D01*
X23550270Y-18989965D01*
X23651286Y-19023637D01*
X23718629Y-19090981D01*
X23785973Y-19225668D01*
X23785973Y-20033790D01*
X24223705Y-19596057D01*
X27014026Y-16401675D02*
X27350744Y-16064957D01*
X27148713Y-16671049D02*
X26677309Y-15728240D01*
X27620118Y-16199644D01*
X27855820Y-15963942D02*
X27148713Y-15256835D01*
X28192538Y-15627225D02*
X27485431Y-14920118D01*
X28596599Y-15223164D01*
X27889492Y-14516057D01*
X29303705Y-14516057D02*
X28899644Y-14920118D01*
X29101675Y-14718087D02*
X28394568Y-14010981D01*
X28428240Y-14179339D01*
X28428240Y-14314026D01*
X28394568Y-14415042D01*
D10*
%TO.C,C1*%
X36371504Y-25481336D02*
X31252051Y-20361883D01*
X38308977Y-23543863D02*
X33189524Y-18424410D01*
X36371504Y-25481336D02*
X38308977Y-23543863D01*
X31252051Y-20361883D02*
X33189524Y-18424410D01*
%TO.C,C2*%
X30983351Y-30869491D02*
X25863898Y-25750038D01*
X32920824Y-28932018D02*
X27801371Y-23812565D01*
X30983351Y-30869491D02*
X32920824Y-28932018D01*
X25863898Y-25750038D02*
X27801371Y-23812565D01*
%TO.C,C3*%
X20475744Y-31138191D02*
X22413217Y-29200718D01*
X25595197Y-36257644D02*
X27532670Y-34320171D01*
X27532670Y-34320171D02*
X22413217Y-29200718D01*
X25595197Y-36257644D02*
X20475744Y-31138191D01*
%TO.C,C4*%
X80047116Y-93907905D02*
X74500954Y-98561687D01*
X78285878Y-91808943D02*
X72739716Y-96462725D01*
X80047116Y-93907905D02*
X78285878Y-91808943D01*
X74500954Y-98561687D02*
X72739716Y-96462725D01*
%TO.C,C5*%
X84297028Y-110236206D02*
X82535790Y-108137244D01*
X89843190Y-105582424D02*
X88081952Y-103483462D01*
X88081952Y-103483462D02*
X82535790Y-108137244D01*
X89843190Y-105582424D02*
X84297028Y-110236206D01*
%TO.C,C6*%
X23940568Y-63410545D02*
X18821115Y-68529998D01*
X22003095Y-61473072D02*
X16883642Y-66592525D01*
X23940568Y-63410545D02*
X22003095Y-61473072D01*
X18821115Y-68529998D02*
X16883642Y-66592525D01*
%TO.C,C7*%
X76924079Y-53178709D02*
X74986606Y-55116182D01*
X71804626Y-48059256D02*
X69867153Y-49996729D01*
X69867153Y-49996729D02*
X74986606Y-55116182D01*
X71804626Y-48059256D02*
X76924079Y-53178709D01*
%TO.C,C8*%
X129172584Y-69004332D02*
X134718746Y-64350550D01*
X130933822Y-71103294D02*
X136479984Y-66449512D01*
X129172584Y-69004332D02*
X130933822Y-71103294D01*
X134718746Y-64350550D02*
X136479984Y-66449512D01*
%TO.C,C9*%
X124193773Y-84653140D02*
X122094811Y-86414378D01*
X119539991Y-79106978D02*
X117441029Y-80868216D01*
X117441029Y-80868216D02*
X122094811Y-86414378D01*
X119539991Y-79106978D02*
X124193773Y-84653140D01*
%TO.C,C10*%
X66872537Y-23132944D02*
X59642460Y-23511857D01*
X66729137Y-20396699D02*
X59499059Y-20775612D01*
X66872537Y-23132944D02*
X66729137Y-20396699D01*
X59642460Y-23511857D02*
X59499059Y-20775612D01*
%TO.C,C11*%
X46959864Y-24176523D02*
X46816463Y-21440278D01*
X54189941Y-23797610D02*
X54046541Y-21061365D01*
X54046541Y-21061365D02*
X46816463Y-21440278D01*
X54189941Y-23797610D02*
X46959864Y-24176523D01*
%TO.C,C12*%
X59841859Y-27316635D02*
X59698458Y-24580390D01*
X67071936Y-26937722D02*
X66928536Y-24201477D01*
X66928536Y-24201477D02*
X59698458Y-24580390D01*
X67071936Y-26937722D02*
X59841859Y-27316635D01*
%TO.C,C13*%
X47159264Y-27981301D02*
X47015863Y-25245056D01*
X54389341Y-27602388D02*
X54245941Y-24866143D01*
X54245941Y-24866143D02*
X47015863Y-25245056D01*
X54389341Y-27602388D02*
X47159264Y-27981301D01*
%TO.C,C14*%
X67271336Y-30742501D02*
X60041259Y-31121414D01*
X67127936Y-28006256D02*
X59897858Y-28385169D01*
X67271336Y-30742501D02*
X67127936Y-28006256D01*
X60041259Y-31121414D02*
X59897858Y-28385169D01*
%TO.C,C15*%
X54588741Y-31407167D02*
X47358664Y-31786080D01*
X54445341Y-28670922D02*
X47215263Y-29049835D01*
X54588741Y-31407167D02*
X54445341Y-28670922D01*
X47358664Y-31786080D02*
X47215263Y-29049835D01*
%TO.C,C16*%
X63351369Y-38152336D02*
G75*
G03X63351369Y-38152336I-2119999J0D01*
G01*
X61340229Y-40229485D02*
X61122512Y-36075187D01*
X61300284Y-40231579D02*
X61082566Y-36077280D01*
X61260287Y-40232674D02*
X61042674Y-36080372D01*
X61220237Y-40232770D02*
X61002833Y-36084463D01*
X61180135Y-40231867D02*
X60963045Y-36089552D01*
X61140032Y-40230965D02*
X61075607Y-39001652D01*
X60987682Y-37323954D02*
X60923257Y-36094641D01*
X61099878Y-40229064D02*
X61035662Y-39003745D01*
X60947737Y-37326048D02*
X60883521Y-36100729D01*
X61059671Y-40226164D02*
X60995716Y-39005839D01*
X60907792Y-37328141D02*
X60843837Y-36107816D01*
X61019412Y-40222266D02*
X60955771Y-39007932D01*
X60867847Y-37330235D02*
X60804206Y-36115901D01*
X60979153Y-40218367D02*
X60915826Y-39010026D01*
X60827902Y-37332328D02*
X60764575Y-36123986D01*
X60938789Y-40212472D02*
X60875881Y-39012119D01*
X60787956Y-37334422D02*
X60725049Y-36134069D01*
X60898425Y-40206576D02*
X60835936Y-39014213D01*
X60748011Y-37336515D02*
X60685522Y-36144151D01*
X60858009Y-40199682D02*
X60795990Y-39016306D01*
X60708066Y-37338608D02*
X60646048Y-36155232D01*
X60817592Y-40192788D02*
X60756045Y-39018399D01*
X60668121Y-37340702D02*
X60606574Y-36166314D01*
X60777072Y-40183896D02*
X60716100Y-39020493D01*
X60628176Y-37342795D02*
X60567204Y-36179392D01*
X60736551Y-40175005D02*
X60676155Y-39022586D01*
X60588231Y-37344889D02*
X60527835Y-36192470D01*
X60695977Y-40165115D02*
X60636210Y-39024680D01*
X60548285Y-37346982D02*
X60488518Y-36206547D01*
X60655300Y-40153227D02*
X60596265Y-39026773D01*
X60508340Y-37349076D02*
X60449305Y-36222621D01*
X60613623Y-40141392D02*
X60555321Y-39028919D01*
X60467396Y-37351221D02*
X60409094Y-36238748D01*
X60572945Y-40129505D02*
X60515376Y-39031012D01*
X60427451Y-37353315D02*
X60369882Y-36254822D01*
X60532163Y-40115620D02*
X60475430Y-39033106D01*
X60387506Y-37355408D02*
X60330774Y-36272894D01*
X60491328Y-40100737D02*
X60435485Y-39035199D01*
X60347561Y-37357502D02*
X60291718Y-36291964D01*
X60450440Y-40084855D02*
X60395540Y-39037293D01*
X60307616Y-37359595D02*
X60252715Y-36312033D01*
X60409501Y-40067975D02*
X60355595Y-39039386D01*
X60267670Y-37361689D02*
X60213764Y-36333100D01*
X60368561Y-40051094D02*
X60315650Y-39041480D01*
X60227725Y-37363782D02*
X60174814Y-36354168D01*
X60327517Y-40032216D02*
X60275705Y-39043573D01*
X60187780Y-37365875D02*
X60135968Y-36377232D01*
X60286421Y-40012340D02*
X60235759Y-39045666D01*
X60147835Y-37367969D02*
X60097174Y-36401295D01*
X60245272Y-39991465D02*
X60195814Y-39047760D01*
X60107890Y-37370062D02*
X60058432Y-36426357D01*
X60204018Y-39968593D02*
X60155869Y-39049853D01*
X60067945Y-37372156D02*
X60019795Y-36453417D01*
X60162764Y-39945720D02*
X60115924Y-39051947D01*
X60027999Y-37374249D02*
X59981159Y-36480476D01*
X60121406Y-39920851D02*
X60075979Y-39054040D01*
X59988054Y-37376343D02*
X59942627Y-36509532D01*
X60079996Y-39894982D02*
X60036033Y-39056134D01*
X59948109Y-37378436D02*
X59904147Y-36539587D01*
X60038480Y-39867117D02*
X59996088Y-39058227D01*
X59908164Y-37380530D02*
X59865772Y-36571640D01*
X59996913Y-39838253D02*
X59956143Y-39060321D01*
X59868219Y-37382623D02*
X59827449Y-36604691D01*
X59955293Y-39808390D02*
X59916198Y-39062414D01*
X59828273Y-37384716D02*
X59789179Y-36638740D01*
X59913516Y-39775532D02*
X59876253Y-39064507D01*
X59788328Y-37386810D02*
X59751065Y-36675786D01*
X59871687Y-39741674D02*
X59836308Y-39066601D01*
X59748383Y-37388903D02*
X59713004Y-36713830D01*
X59829753Y-39705820D02*
X59796362Y-39068694D01*
X59708438Y-37390997D02*
X59675048Y-36753871D01*
X59787714Y-39667968D02*
X59756417Y-39070788D01*
X59668493Y-37393090D02*
X59637196Y-36795910D01*
X59745571Y-39628119D02*
X59716472Y-39072881D01*
X59628548Y-37395184D02*
X59599449Y-36839946D01*
X59703270Y-39585274D02*
X59676527Y-39074975D01*
X59588602Y-37397277D02*
X59561859Y-36886977D01*
X59660865Y-39540432D02*
X59636582Y-39077068D01*
X59548657Y-37399370D02*
X59524373Y-36936006D01*
X59618304Y-39492594D02*
X59596636Y-39079162D01*
X59508712Y-37401464D02*
X59487045Y-36988031D01*
X59575532Y-39440762D02*
X59556691Y-39081255D01*
X59468767Y-37403557D02*
X59449926Y-37044051D01*
X59532552Y-39384935D02*
X59516746Y-39083348D01*
X59428822Y-37405651D02*
X59413016Y-37104065D01*
X59489362Y-39325113D02*
X59476801Y-39085442D01*
X59388876Y-37407744D02*
X59376316Y-37168073D01*
X59445910Y-39260298D02*
X59339877Y-37237075D01*
X59402144Y-39189492D02*
X59303753Y-37312068D01*
X59357960Y-39110696D02*
X59268047Y-37395051D01*
X59313252Y-39021914D02*
X59232864Y-37488019D01*
X59267864Y-38920150D02*
X59198362Y-37593970D01*
X59221272Y-38795418D02*
X59165063Y-37722890D01*
X59172587Y-38630740D02*
X59133858Y-37891754D01*
X63560602Y-39226906D02*
X63161150Y-39247840D01*
X63371344Y-39437099D02*
X63350409Y-39037647D01*
%TO.C,C17*%
X58291344Y-40707099D02*
X58270409Y-40307647D01*
X58480602Y-40496906D02*
X58081150Y-40517840D01*
X54092587Y-39900740D02*
X54053858Y-39161754D01*
X54141272Y-40065418D02*
X54085063Y-38992890D01*
X54187864Y-40190150D02*
X54118362Y-38863970D01*
X54233252Y-40291914D02*
X54152864Y-38758019D01*
X54277960Y-40380696D02*
X54188047Y-38665051D01*
X54322144Y-40459492D02*
X54223753Y-38582068D01*
X54365910Y-40530298D02*
X54259877Y-38507075D01*
X54308876Y-38677744D02*
X54296316Y-38438073D01*
X54409362Y-40595113D02*
X54396801Y-40355442D01*
X54348822Y-38675651D02*
X54333016Y-38374065D01*
X54452552Y-40654935D02*
X54436746Y-40353348D01*
X54388767Y-38673557D02*
X54369926Y-38314051D01*
X54495532Y-40710762D02*
X54476691Y-40351255D01*
X54428712Y-38671464D02*
X54407045Y-38258031D01*
X54538304Y-40762594D02*
X54516636Y-40349162D01*
X54468657Y-38669370D02*
X54444373Y-38206006D01*
X54580865Y-40810432D02*
X54556582Y-40347068D01*
X54508602Y-38667277D02*
X54481859Y-38156977D01*
X54623270Y-40855274D02*
X54596527Y-40344975D01*
X54548548Y-38665184D02*
X54519449Y-38109946D01*
X54665571Y-40898119D02*
X54636472Y-40342881D01*
X54588493Y-38663090D02*
X54557196Y-38065910D01*
X54707714Y-40937968D02*
X54676417Y-40340788D01*
X54628438Y-38660997D02*
X54595048Y-38023871D01*
X54749753Y-40975820D02*
X54716362Y-40338694D01*
X54668383Y-38658903D02*
X54633004Y-37983830D01*
X54791687Y-41011674D02*
X54756308Y-40336601D01*
X54708328Y-38656810D02*
X54671065Y-37945786D01*
X54833516Y-41045532D02*
X54796253Y-40334507D01*
X54748273Y-38654716D02*
X54709179Y-37908740D01*
X54875293Y-41078390D02*
X54836198Y-40332414D01*
X54788219Y-38652623D02*
X54747449Y-37874691D01*
X54916913Y-41108253D02*
X54876143Y-40330321D01*
X54828164Y-38650530D02*
X54785772Y-37841640D01*
X54958480Y-41137117D02*
X54916088Y-40328227D01*
X54868109Y-38648436D02*
X54824147Y-37809587D01*
X54999996Y-41164982D02*
X54956033Y-40326134D01*
X54908054Y-38646343D02*
X54862627Y-37779532D01*
X55041406Y-41190851D02*
X54995979Y-40324040D01*
X54947999Y-38644249D02*
X54901159Y-37750476D01*
X55082764Y-41215720D02*
X55035924Y-40321947D01*
X54987945Y-38642156D02*
X54939795Y-37723417D01*
X55124018Y-41238593D02*
X55075869Y-40319853D01*
X55027890Y-38640062D02*
X54978432Y-37696357D01*
X55165272Y-41261465D02*
X55115814Y-40317760D01*
X55067835Y-38637969D02*
X55017174Y-37671295D01*
X55206421Y-41282340D02*
X55155759Y-40315666D01*
X55107780Y-38635875D02*
X55055968Y-37647232D01*
X55247517Y-41302216D02*
X55195705Y-40313573D01*
X55147725Y-38633782D02*
X55094814Y-37624168D01*
X55288561Y-41321094D02*
X55235650Y-40311480D01*
X55187670Y-38631689D02*
X55133764Y-37603100D01*
X55329501Y-41337975D02*
X55275595Y-40309386D01*
X55227616Y-38629595D02*
X55172715Y-37582033D01*
X55370440Y-41354855D02*
X55315540Y-40307293D01*
X55267561Y-38627502D02*
X55211718Y-37561964D01*
X55411328Y-41370737D02*
X55355485Y-40305199D01*
X55307506Y-38625408D02*
X55250774Y-37542894D01*
X55452163Y-41385620D02*
X55395430Y-40303106D01*
X55347451Y-38623315D02*
X55289882Y-37524822D01*
X55492945Y-41399505D02*
X55435376Y-40301012D01*
X55387396Y-38621221D02*
X55329094Y-37508748D01*
X55533623Y-41411392D02*
X55475321Y-40298919D01*
X55428340Y-38619076D02*
X55369305Y-37492621D01*
X55575300Y-41423227D02*
X55516265Y-40296773D01*
X55468285Y-38616982D02*
X55408518Y-37476547D01*
X55615977Y-41435115D02*
X55556210Y-40294680D01*
X55508231Y-38614889D02*
X55447835Y-37462470D01*
X55656551Y-41445005D02*
X55596155Y-40292586D01*
X55548176Y-38612795D02*
X55487204Y-37449392D01*
X55697072Y-41453896D02*
X55636100Y-40290493D01*
X55588121Y-38610702D02*
X55526574Y-37436314D01*
X55737592Y-41462788D02*
X55676045Y-40288399D01*
X55628066Y-38608608D02*
X55566048Y-37425232D01*
X55778009Y-41469682D02*
X55715990Y-40286306D01*
X55668011Y-38606515D02*
X55605522Y-37414151D01*
X55818425Y-41476576D02*
X55755936Y-40284213D01*
X55707956Y-38604422D02*
X55645049Y-37404069D01*
X55858789Y-41482472D02*
X55795881Y-40282119D01*
X55747902Y-38602328D02*
X55684575Y-37393986D01*
X55899153Y-41488367D02*
X55835826Y-40280026D01*
X55787847Y-38600235D02*
X55724206Y-37385901D01*
X55939412Y-41492266D02*
X55875771Y-40277932D01*
X55827792Y-38598141D02*
X55763837Y-37377816D01*
X55979671Y-41496164D02*
X55915716Y-40275839D01*
X55867737Y-38596048D02*
X55803521Y-37370729D01*
X56019878Y-41499064D02*
X55955662Y-40273745D01*
X55907682Y-38593954D02*
X55843257Y-37364641D01*
X56060032Y-41500965D02*
X55995607Y-40271652D01*
X56100135Y-41501867D02*
X55883045Y-37359552D01*
X56140237Y-41502770D02*
X55922833Y-37354463D01*
X56180287Y-41502674D02*
X55962674Y-37350372D01*
X56220284Y-41501579D02*
X56002566Y-37347280D01*
X56260229Y-41499485D02*
X56042512Y-37345187D01*
X58271369Y-39422336D02*
G75*
G03X58271369Y-39422336I-2119999J0D01*
G01*
%TO.C,D1*%
X34045123Y-59146690D02*
X32461204Y-60730609D01*
X32461204Y-60730609D02*
X35459337Y-63728742D01*
X35459337Y-63728742D02*
X37043256Y-62144823D01*
X37043256Y-62144823D02*
X34045123Y-59146690D01*
X32793544Y-59479030D02*
X33253163Y-59938649D01*
X36710916Y-63396402D02*
X36251296Y-62936782D01*
X34554240Y-59655807D02*
X32970321Y-61239726D01*
X34639093Y-59740660D02*
X33055174Y-61324579D01*
X34469387Y-59570954D02*
X32885468Y-61154873D01*
%TO.C,Q1*%
X82384199Y-70545775D02*
G75*
G03X82164067Y-71414762I2354068J-1058710D01*
G01*
X84065337Y-69093078D02*
G75*
G02X86729982Y-69933237I672930J-2511407D01*
G01*
X87094667Y-72703292D02*
G75*
G03X86729982Y-69933237I-2356400J1098807D01*
G01*
X85372112Y-74106632D02*
G75*
G02X84478102Y-74172522I-633845J2502147D01*
G01*
X82164067Y-71414762D02*
X84478102Y-74172522D01*
%TO.C,Q2*%
X80507730Y-78188331D02*
G75*
G02X79613720Y-78254221I-633845J2502147D01*
G01*
X82230285Y-76784991D02*
G75*
G03X81865600Y-74014936I-2356400J1098807D01*
G01*
X79200955Y-73174777D02*
G75*
G02X81865600Y-74014936I672930J-2511407D01*
G01*
X77519817Y-74627474D02*
G75*
G03X77299685Y-75496461I2354068J-1058710D01*
G01*
X77299685Y-75496461D02*
X79613720Y-78254221D01*
%TO.C,Q3*%
X100868855Y-55035304D02*
G75*
G03X100648723Y-55904291I2354068J-1058710D01*
G01*
X102549993Y-53582607D02*
G75*
G02X105214638Y-54422766I672930J-2511407D01*
G01*
X105579323Y-57192821D02*
G75*
G03X105214638Y-54422766I-2356400J1098807D01*
G01*
X103856768Y-58596161D02*
G75*
G02X102962758Y-58662051I-633845J2502147D01*
G01*
X100648723Y-55904291D02*
X102962758Y-58662051D01*
%TO.C,Q4*%
X34639094Y-65892489D02*
X32093509Y-63346905D01*
X34495537Y-66777355D02*
G75*
G03X34639094Y-65892489I-2437383J849510D01*
G01*
X32947406Y-68371046D02*
G75*
G02X30219676Y-67766322I-889252J2443201D01*
G01*
X29614953Y-65038592D02*
G75*
G03X30219676Y-67766322I2443201J-889253D01*
G01*
X31208643Y-63490463D02*
G75*
G02X32093509Y-63346905I849511J-2437382D01*
G01*
%TO.C,Q5*%
X27603381Y-47854195D02*
X30148965Y-45308610D01*
X26718515Y-47710638D02*
G75*
G03X27603381Y-47854195I849510J2437383D01*
G01*
X25124824Y-46162507D02*
G75*
G02X25729548Y-43434777I2443201J889252D01*
G01*
X28457278Y-42830054D02*
G75*
G03X25729548Y-43434777I-889253J-2443201D01*
G01*
X30005407Y-44423744D02*
G75*
G02X30148965Y-45308610I-2437382J-849511D01*
G01*
%TO.C,Q6*%
X96004470Y-59117008D02*
G75*
G03X95784338Y-59985995I2354068J-1058710D01*
G01*
X97685608Y-57664311D02*
G75*
G02X100350253Y-58504470I672930J-2511407D01*
G01*
X100714938Y-61274525D02*
G75*
G03X100350253Y-58504470I-2356400J1098807D01*
G01*
X98992383Y-62677865D02*
G75*
G02X98098373Y-62743755I-633845J2502147D01*
G01*
X95784338Y-59985995D02*
X98098373Y-62743755D01*
%TO.C,R1*%
X73843775Y-79218719D02*
X73631655Y-78965924D01*
X68833844Y-83422550D02*
X73843775Y-79218719D01*
X68621724Y-83169755D02*
X68833844Y-83422550D01*
X72082537Y-77119757D02*
X72294657Y-77372552D01*
X67072606Y-81323588D02*
X72082537Y-77119757D01*
X67284726Y-81576382D02*
X67072606Y-81323588D01*
%TO.C,R2*%
X80213678Y-91310533D02*
X79960884Y-91522653D01*
X79960884Y-91522653D02*
X75757053Y-86512722D01*
X75757053Y-86512722D02*
X76009848Y-86300602D01*
X81807051Y-89973535D02*
X82059846Y-89761415D01*
X82059846Y-89761415D02*
X77856015Y-84751484D01*
X77856015Y-84751484D02*
X77603220Y-84963604D01*
%TO.C,R3*%
X52493539Y-46524834D02*
X52260194Y-46758180D01*
X52260194Y-46758180D02*
X47635716Y-42133701D01*
X47635716Y-42133701D02*
X47869061Y-41900356D01*
X53964321Y-45054052D02*
X54197667Y-44820707D01*
X54197667Y-44820707D02*
X49573188Y-40196229D01*
X49573188Y-40196229D02*
X49339843Y-40429574D01*
%TO.C,R4*%
X76310388Y-82158307D02*
X76098268Y-81905512D01*
X71300457Y-86362138D02*
X76310388Y-82158307D01*
X71088337Y-86109343D02*
X71300457Y-86362138D01*
X74549150Y-80059345D02*
X74761270Y-80312140D01*
X69539219Y-84263176D02*
X74549150Y-80059345D01*
X69751339Y-84515970D02*
X69539219Y-84263176D01*
%TO.C,R5*%
X88550210Y-64137198D02*
X88297415Y-64349318D01*
X92754041Y-69147129D02*
X88550210Y-64137198D01*
X92501246Y-69359249D02*
X92754041Y-69147129D01*
X86451248Y-65898436D02*
X86704043Y-65686316D01*
X90655079Y-70908367D02*
X86451248Y-65898436D01*
X90907873Y-70696247D02*
X90655079Y-70908367D01*
%TO.C,R6*%
X42381913Y-31491743D02*
X42615258Y-31258398D01*
X37757434Y-26867265D02*
X42381913Y-31491743D01*
X37990780Y-26633920D02*
X37757434Y-26867265D01*
X44319385Y-29554271D02*
X44086040Y-29787616D01*
X39694907Y-24929792D02*
X44319385Y-29554271D01*
X39461562Y-25163138D02*
X39694907Y-24929792D01*
%TO.C,R7*%
X36993759Y-36879897D02*
X37227104Y-36646552D01*
X32369280Y-32255419D02*
X36993759Y-36879897D01*
X32602626Y-32022074D02*
X32369280Y-32255419D01*
X38931231Y-34942425D02*
X38697886Y-35175770D01*
X34306753Y-30317946D02*
X38931231Y-34942425D01*
X34073408Y-30551292D02*
X34306753Y-30317946D01*
%TO.C,R8*%
X31605605Y-42268051D02*
X31838950Y-42034706D01*
X26981126Y-37643573D02*
X31605605Y-42268051D01*
X27214472Y-37410228D02*
X26981126Y-37643573D01*
X33543077Y-40330579D02*
X33309732Y-40563924D01*
X28918599Y-35706100D02*
X33543077Y-40330579D01*
X28685254Y-35939446D02*
X28918599Y-35706100D01*
%TO.C,R9*%
X45083060Y-80607381D02*
X44849715Y-80840726D01*
X49707539Y-85231859D02*
X45083060Y-80607381D01*
X49474193Y-85465204D02*
X49707539Y-85231859D01*
X43145588Y-82544853D02*
X43378933Y-82311508D01*
X47770066Y-87169332D02*
X43145588Y-82544853D01*
X48003411Y-86935986D02*
X47770066Y-87169332D01*
%TO.C,R10*%
X49339843Y-76350598D02*
X49573188Y-76117252D01*
X49573188Y-76117252D02*
X54197666Y-80741731D01*
X54197666Y-80741731D02*
X53964321Y-80975076D01*
X47869061Y-77821380D02*
X47635715Y-78054725D01*
X47635715Y-78054725D02*
X52260194Y-82679203D01*
X52260194Y-82679203D02*
X52493539Y-82445858D01*
%TO.C,R11*%
X56750322Y-78189075D02*
X56983667Y-77955730D01*
X52125843Y-73564597D02*
X56750322Y-78189075D01*
X52359189Y-73331252D02*
X52125843Y-73564597D01*
X58687794Y-76251603D02*
X58454449Y-76484948D01*
X54063316Y-71627124D02*
X58687794Y-76251603D01*
X53829971Y-71860470D02*
X54063316Y-71627124D01*
%TO.C,R12*%
X89400216Y-75029033D02*
X89147421Y-75241153D01*
X93604047Y-80038964D02*
X89400216Y-75029033D01*
X93351252Y-80251084D02*
X93604047Y-80038964D01*
X87301254Y-76790271D02*
X87554049Y-76578151D01*
X91505085Y-81800202D02*
X87301254Y-76790271D01*
X91757879Y-81588082D02*
X91505085Y-81800202D01*
%TO.C,R13*%
X35063358Y-82537782D02*
X35296703Y-82771127D01*
X39687836Y-77913303D02*
X35063358Y-82537782D01*
X39921181Y-78146649D02*
X39687836Y-77913303D01*
X37000830Y-84475254D02*
X36767485Y-84241909D01*
X41625309Y-79850776D02*
X37000830Y-84475254D01*
X41391963Y-79617431D02*
X41625309Y-79850776D01*
%TO.C,R14*%
X29908549Y-77382974D02*
X29675203Y-77149629D01*
X29675203Y-77149629D02*
X34299682Y-72525151D01*
X34299682Y-72525151D02*
X34533027Y-72758496D01*
X31379331Y-78853756D02*
X31612676Y-79087102D01*
X31612676Y-79087102D02*
X36237154Y-74462623D01*
X36237154Y-74462623D02*
X36003809Y-74229278D01*
%TO.C,R15*%
X44276959Y-37869847D02*
X44043613Y-37636502D01*
X44043613Y-37636502D02*
X48668092Y-33012024D01*
X48668092Y-33012024D02*
X48901437Y-33245369D01*
X45747741Y-39340629D02*
X45981086Y-39573975D01*
X45981086Y-39573975D02*
X50605564Y-34949496D01*
X50605564Y-34949496D02*
X50372219Y-34716151D01*
%TO.C,R16*%
X38697886Y-76923354D02*
X38931232Y-77156699D01*
X38931232Y-77156699D02*
X34306753Y-81781177D01*
X34306753Y-81781177D02*
X34073408Y-81547832D01*
X37227104Y-75452572D02*
X36993759Y-75219226D01*
X36993759Y-75219226D02*
X32369281Y-79843705D01*
X32369281Y-79843705D02*
X32602626Y-80077050D01*
%TO.C,R17*%
X101605213Y-103202516D02*
X101352419Y-103414636D01*
X101352419Y-103414636D02*
X97148588Y-98404705D01*
X97148588Y-98404705D02*
X97401383Y-98192585D01*
X103198586Y-101865518D02*
X103451381Y-101653398D01*
X103451381Y-101653398D02*
X99247550Y-96643467D01*
X99247550Y-96643467D02*
X98994755Y-96855587D01*
%TO.C,R18*%
X49566119Y-71004870D02*
X49799464Y-70771525D01*
X44941640Y-66380392D02*
X49566119Y-71004870D01*
X45174986Y-66147047D02*
X44941640Y-66380392D01*
X51503591Y-69067398D02*
X51270246Y-69300743D01*
X46879113Y-64442919D02*
X51503591Y-69067398D01*
X46645768Y-64676265D02*
X46879113Y-64442919D01*
%TO.C,R19*%
X93270220Y-101659043D02*
X93523014Y-101446923D01*
X93523014Y-101446923D02*
X97726845Y-106456854D01*
X97726845Y-106456854D02*
X97474050Y-106668974D01*
X91676847Y-102996041D02*
X91424052Y-103208161D01*
X91424052Y-103208161D02*
X95627883Y-108218092D01*
X95627883Y-108218092D02*
X95880678Y-108005972D01*
%TO.C,R20*%
X115728752Y-96325063D02*
X115475958Y-96537183D01*
X115475958Y-96537183D02*
X111272127Y-91527252D01*
X111272127Y-91527252D02*
X111524922Y-91315132D01*
X117322125Y-94988065D02*
X117574920Y-94775945D01*
X117574920Y-94775945D02*
X113371089Y-89766014D01*
X113371089Y-89766014D02*
X113118294Y-89978134D01*
%TO.C,R21*%
X96328918Y-99092490D02*
X96076123Y-99304610D01*
X100532749Y-104102421D02*
X96328918Y-99092490D01*
X100279954Y-104314541D02*
X100532749Y-104102421D01*
X94229956Y-100853728D02*
X94482751Y-100641608D01*
X98433787Y-105863659D02*
X94229956Y-100853728D01*
X98686581Y-105651539D02*
X98433787Y-105863659D01*
%TO.C,R22*%
X112670052Y-98891614D02*
X112922847Y-98679494D01*
X108466221Y-93881683D02*
X112670052Y-98891614D01*
X108719016Y-93669563D02*
X108466221Y-93881683D01*
X114769014Y-97130376D02*
X114516219Y-97342496D01*
X110565183Y-92120445D02*
X114769014Y-97130376D01*
X110312389Y-92332565D02*
X110565183Y-92120445D01*
%TO.C,R23*%
X84535829Y-79110738D02*
X84283034Y-79322858D01*
X88739660Y-84120669D02*
X84535829Y-79110738D01*
X88486865Y-84332789D02*
X88739660Y-84120669D01*
X82436867Y-80871976D02*
X82689662Y-80659856D01*
X86640698Y-85881907D02*
X82436867Y-80871976D01*
X86893492Y-85669787D02*
X86640698Y-85881907D01*
%TO.C,R24*%
X37227104Y-58199166D02*
X36993759Y-58432512D01*
X36993759Y-58432512D02*
X32369281Y-53808033D01*
X32369281Y-53808033D02*
X32602626Y-53574688D01*
X38697886Y-56728384D02*
X38931232Y-56495039D01*
X38931232Y-56495039D02*
X34306753Y-51870561D01*
X34306753Y-51870561D02*
X34073408Y-52103906D01*
%TO.C,R25*%
X67300356Y-51205882D02*
X67533701Y-50972536D01*
X67533701Y-50972536D02*
X72158179Y-55597015D01*
X72158179Y-55597015D02*
X71924834Y-55830360D01*
X65829574Y-52676664D02*
X65596228Y-52910009D01*
X65596228Y-52910009D02*
X70220707Y-57534487D01*
X70220707Y-57534487D02*
X70454052Y-57301142D01*
%TO.C,R26*%
X67759974Y-59995218D02*
X67526629Y-60228564D01*
X67526629Y-60228564D02*
X62902151Y-55604085D01*
X62902151Y-55604085D02*
X63135496Y-55370740D01*
X69230756Y-58524436D02*
X69464102Y-58291091D01*
X69464102Y-58291091D02*
X64839623Y-53666613D01*
X64839623Y-53666613D02*
X64606278Y-53899958D01*
%TO.C,R27*%
X127985603Y-81066742D02*
X127732809Y-81278862D01*
X127732809Y-81278862D02*
X123528978Y-76268931D01*
X123528978Y-76268931D02*
X123781773Y-76056811D01*
X129578976Y-79729744D02*
X129831771Y-79517624D01*
X129831771Y-79517624D02*
X125627940Y-74507693D01*
X125627940Y-74507693D02*
X125375145Y-74719813D01*
%TO.C,R28*%
X65596228Y-71761475D02*
X65829573Y-71994820D01*
X70220706Y-67136996D02*
X65596228Y-71761475D01*
X70454051Y-67370342D02*
X70220706Y-67136996D01*
X67533700Y-73698947D02*
X67300355Y-73465602D01*
X72158179Y-69074469D02*
X67533700Y-73698947D01*
X71924833Y-68841124D02*
X72158179Y-69074469D01*
%TO.C,R29*%
X131624309Y-78013502D02*
X131877104Y-77801382D01*
X127420478Y-73003571D02*
X131624309Y-78013502D01*
X127673273Y-72791451D02*
X127420478Y-73003571D01*
X133723271Y-76252264D02*
X133470476Y-76464384D01*
X129519440Y-71242333D02*
X133723271Y-76252264D01*
X129266646Y-71454453D02*
X129519440Y-71242333D01*
%TO.C,R30*%
X25991177Y-51205881D02*
X26224522Y-50972535D01*
X26224522Y-50972535D02*
X30849000Y-55597014D01*
X30849000Y-55597014D02*
X30615655Y-55830359D01*
X24520395Y-52676663D02*
X24287049Y-52910008D01*
X24287049Y-52910008D02*
X28911528Y-57534486D01*
X28911528Y-57534486D02*
X29144873Y-57301141D01*
%TO.C,R31*%
X106699891Y-93670217D02*
X106447096Y-93882337D01*
X110903722Y-98680148D02*
X106699891Y-93670217D01*
X110650927Y-98892268D02*
X110903722Y-98680148D01*
X104600929Y-95431455D02*
X104853724Y-95219335D01*
X108804760Y-100441386D02*
X104600929Y-95431455D01*
X109057554Y-100229266D02*
X108804760Y-100441386D01*
%TO.C,R32*%
X122596579Y-77051310D02*
X122343784Y-77263430D01*
X126800410Y-82061241D02*
X122596579Y-77051310D01*
X126547615Y-82273361D02*
X126800410Y-82061241D01*
X120497617Y-78812548D02*
X120750412Y-78600428D01*
X124701448Y-83822479D02*
X120497617Y-78812548D01*
X124954242Y-83610359D02*
X124701448Y-83822479D01*
%TO.C,R33*%
X120479279Y-90645304D02*
X120732074Y-90433184D01*
X116275448Y-85635373D02*
X120479279Y-90645304D01*
X116528243Y-85423253D02*
X116275448Y-85635373D01*
X122578241Y-88884066D02*
X122325446Y-89096186D01*
X118374410Y-83874135D02*
X122578241Y-88884066D01*
X118121616Y-84086255D02*
X118374410Y-83874135D01*
%TO.C,R34*%
X79109038Y-61656919D02*
X79342384Y-61890264D01*
X79342384Y-61890264D02*
X74717905Y-66514742D01*
X74717905Y-66514742D02*
X74484560Y-66281397D01*
X77638256Y-60186137D02*
X77404911Y-59952791D01*
X77404911Y-59952791D02*
X72780433Y-64577270D01*
X72780433Y-64577270D02*
X73013778Y-64810615D01*
%TO.C,R35*%
X26224522Y-65340946D02*
X25991177Y-65574291D01*
X30849001Y-69965424D02*
X26224522Y-65340946D01*
X30615655Y-70198769D02*
X30849001Y-69965424D01*
X24287050Y-67278418D02*
X24520395Y-67045073D01*
X28911528Y-71902897D02*
X24287050Y-67278418D01*
X29144873Y-71669551D02*
X28911528Y-71902897D01*
%TO.C,R36*%
X26897580Y-77095052D02*
X27130925Y-76861707D01*
X22273101Y-72470574D02*
X26897580Y-77095052D01*
X22506447Y-72237229D02*
X22273101Y-72470574D01*
X28835052Y-75157580D02*
X28601707Y-75390925D01*
X24210574Y-70533101D02*
X28835052Y-75157580D01*
X23977229Y-70766447D02*
X24210574Y-70533101D01*
%TO.C,R37*%
X110242529Y-66077614D02*
X109989735Y-66289734D01*
X109989735Y-66289734D02*
X105785904Y-61279803D01*
X105785904Y-61279803D02*
X106038699Y-61067683D01*
X111835902Y-64740616D02*
X112088697Y-64528496D01*
X112088697Y-64528496D02*
X107884866Y-59518565D01*
X107884866Y-59518565D02*
X107632071Y-59730685D01*
%TO.C,R38*%
X133347360Y-57042238D02*
X133559480Y-57295032D01*
X133559480Y-57295032D02*
X128549549Y-61498863D01*
X128549549Y-61498863D02*
X128337429Y-61246068D01*
X132010362Y-55448865D02*
X131798242Y-55196070D01*
X131798242Y-55196070D02*
X126788311Y-59399901D01*
X126788311Y-59399901D02*
X127000431Y-59652696D01*
%TO.C,R39*%
X114712586Y-53825146D02*
X114459791Y-54037266D01*
X118916417Y-58835077D02*
X114712586Y-53825146D01*
X118663622Y-59047197D02*
X118916417Y-58835077D01*
X112613624Y-55586384D02*
X112866419Y-55374264D01*
X116817455Y-60596315D02*
X112613624Y-55586384D01*
X117070249Y-60384195D02*
X116817455Y-60596315D01*
%TO.C,R40*%
X118647373Y-93876048D02*
X118394579Y-94088168D01*
X118394579Y-94088168D02*
X114190748Y-89078237D01*
X114190748Y-89078237D02*
X114443543Y-88866117D01*
X120240746Y-92539050D02*
X120493541Y-92326930D01*
X120493541Y-92326930D02*
X116289710Y-87316999D01*
X116289710Y-87316999D02*
X116036915Y-87529119D01*
%TO.C,R41*%
X135796383Y-59960867D02*
X136008503Y-60213661D01*
X136008503Y-60213661D02*
X130998572Y-64417492D01*
X130998572Y-64417492D02*
X130786452Y-64164697D01*
X134459385Y-58367494D02*
X134247265Y-58114699D01*
X134247265Y-58114699D02*
X129237334Y-62318530D01*
X129237334Y-62318530D02*
X129449454Y-62571325D01*
%TO.C,R42*%
X92441729Y-60871842D02*
X92188934Y-61083962D01*
X96645560Y-65881773D02*
X92441729Y-60871842D01*
X96392765Y-66093893D02*
X96645560Y-65881773D01*
X90342767Y-62633080D02*
X90595562Y-62420960D01*
X94546598Y-67643011D02*
X90342767Y-62633080D01*
X94799392Y-67430891D02*
X94546598Y-67643011D01*
%TO.C,R43*%
X105378146Y-70159314D02*
X105125352Y-70371434D01*
X105125352Y-70371434D02*
X100921521Y-65361503D01*
X100921521Y-65361503D02*
X101174316Y-65149383D01*
X106971519Y-68822316D02*
X107224314Y-68610196D01*
X107224314Y-68610196D02*
X103020483Y-63600265D01*
X103020483Y-63600265D02*
X102767688Y-63812385D01*
%TO.C,R44*%
X76962995Y-21376495D02*
X76962995Y-21046495D01*
X76962995Y-21046495D02*
X83502995Y-21046495D01*
X83502995Y-21046495D02*
X83502995Y-21376495D01*
X76962995Y-23456495D02*
X76962995Y-23786495D01*
X76962995Y-23786495D02*
X83502995Y-23786495D01*
X83502995Y-23786495D02*
X83502995Y-23456495D01*
%TO.C,R45*%
X83502992Y-31406494D02*
X83502992Y-31076494D01*
X76962992Y-31406494D02*
X83502992Y-31406494D01*
X76962992Y-31076494D02*
X76962992Y-31406494D01*
X83502992Y-28666494D02*
X83502992Y-28996494D01*
X76962992Y-28666494D02*
X83502992Y-28666494D01*
X76962992Y-28996494D02*
X76962992Y-28666494D01*
%TO.C,R46*%
X87122993Y-21046495D02*
X87122993Y-21376495D01*
X93662993Y-21046495D02*
X87122993Y-21046495D01*
X93662993Y-21376495D02*
X93662993Y-21046495D01*
X87122993Y-23786495D02*
X87122993Y-23456495D01*
X93662993Y-23786495D02*
X87122993Y-23786495D01*
X93662993Y-23456495D02*
X93662993Y-23786495D01*
%TO.C,R47*%
X76962993Y-42966491D02*
X76962993Y-42636491D01*
X76962993Y-42636491D02*
X83502993Y-42636491D01*
X83502993Y-42636491D02*
X83502993Y-42966491D01*
X76962993Y-45046491D02*
X76962993Y-45376491D01*
X76962993Y-45376491D02*
X83502993Y-45376491D01*
X83502993Y-45376491D02*
X83502993Y-45046491D01*
%TO.C,R48*%
X93662994Y-19976494D02*
X93662994Y-19646494D01*
X87122994Y-19976494D02*
X93662994Y-19976494D01*
X87122994Y-19646494D02*
X87122994Y-19976494D01*
X93662994Y-17236494D02*
X93662994Y-17566494D01*
X87122994Y-17236494D02*
X93662994Y-17236494D01*
X87122994Y-17566494D02*
X87122994Y-17236494D01*
%TO.C,R49*%
X103822993Y-19976497D02*
X103822993Y-19646497D01*
X97282993Y-19976497D02*
X103822993Y-19976497D01*
X97282993Y-19646497D02*
X97282993Y-19976497D01*
X103822993Y-17236497D02*
X103822993Y-17566497D01*
X97282993Y-17236497D02*
X103822993Y-17236497D01*
X97282993Y-17566497D02*
X97282993Y-17236497D01*
%TO.C,R50*%
X89662994Y-34076496D02*
X89662994Y-33746496D01*
X89662994Y-33746496D02*
X96202994Y-33746496D01*
X96202994Y-33746496D02*
X96202994Y-34076496D01*
X89662994Y-36156496D02*
X89662994Y-36486496D01*
X89662994Y-36486496D02*
X96202994Y-36486496D01*
X96202994Y-36486496D02*
X96202994Y-36156496D01*
%TO.C,R51*%
X99822995Y-34076497D02*
X99822995Y-33746497D01*
X99822995Y-33746497D02*
X106362995Y-33746497D01*
X106362995Y-33746497D02*
X106362995Y-34076497D01*
X99822995Y-36156497D02*
X99822995Y-36486497D01*
X99822995Y-36486497D02*
X106362995Y-36486497D01*
X106362995Y-36486497D02*
X106362995Y-36156497D01*
%TO.C,R52*%
X107442991Y-17566496D02*
X107442991Y-17236496D01*
X107442991Y-17236496D02*
X113982991Y-17236496D01*
X113982991Y-17236496D02*
X113982991Y-17566496D01*
X107442991Y-19646496D02*
X107442991Y-19976496D01*
X107442991Y-19976496D02*
X113982991Y-19976496D01*
X113982991Y-19976496D02*
X113982991Y-19646496D01*
%TO.C,R53*%
X117602993Y-21820000D02*
X117602993Y-21490000D01*
X117602993Y-21490000D02*
X124142993Y-21490000D01*
X124142993Y-21490000D02*
X124142993Y-21820000D01*
X117602993Y-23900000D02*
X117602993Y-24230000D01*
X117602993Y-24230000D02*
X124142993Y-24230000D01*
X124142993Y-24230000D02*
X124142993Y-23900000D01*
%TO.C,R54*%
X124142993Y-19976496D02*
X124142993Y-19646496D01*
X117602993Y-19976496D02*
X124142993Y-19976496D01*
X117602993Y-19646496D02*
X117602993Y-19976496D01*
X124142993Y-17236496D02*
X124142993Y-17566496D01*
X117602993Y-17236496D02*
X124142993Y-17236496D01*
X117602993Y-17566496D02*
X117602993Y-17236496D01*
%TO.C,R55*%
X125722996Y-26766496D02*
X126052996Y-26766496D01*
X126052996Y-26766496D02*
X126052996Y-33306496D01*
X126052996Y-33306496D02*
X125722996Y-33306496D01*
X123642996Y-26766496D02*
X123312996Y-26766496D01*
X123312996Y-26766496D02*
X123312996Y-33306496D01*
X123312996Y-33306496D02*
X123642996Y-33306496D01*
%TO.C,R56*%
X105371214Y-37618092D02*
X105371214Y-37288092D01*
X105371214Y-37288092D02*
X111911214Y-37288092D01*
X111911214Y-37288092D02*
X111911214Y-37618092D01*
X105371214Y-39698092D02*
X105371214Y-40028092D01*
X105371214Y-40028092D02*
X111911214Y-40028092D01*
X111911214Y-40028092D02*
X111911214Y-39698092D01*
%TO.C,R57*%
X116022996Y-33306496D02*
X115692996Y-33306496D01*
X115692996Y-33306496D02*
X115692996Y-26766496D01*
X115692996Y-26766496D02*
X116022996Y-26766496D01*
X118102996Y-33306496D02*
X118432996Y-33306496D01*
X118432996Y-33306496D02*
X118432996Y-26766496D01*
X118432996Y-26766496D02*
X118102996Y-26766496D01*
%TO.C,R58*%
X135790000Y-48971036D02*
X136120000Y-48971036D01*
X135790000Y-42431036D02*
X135790000Y-48971036D01*
X136120000Y-42431036D02*
X135790000Y-42431036D01*
X138530000Y-48971036D02*
X138200000Y-48971036D01*
X138530000Y-42431036D02*
X138530000Y-48971036D01*
X138200000Y-42431036D02*
X138530000Y-42431036D01*
%TO.C,R59*%
X130080000Y-37761560D02*
X130080000Y-37431560D01*
X130080000Y-37431560D02*
X136620000Y-37431560D01*
X136620000Y-37431560D02*
X136620000Y-37761560D01*
X130080000Y-39841560D02*
X130080000Y-40171560D01*
X130080000Y-40171560D02*
X136620000Y-40171560D01*
X136620000Y-40171560D02*
X136620000Y-39841560D01*
%TO.C,R60*%
X130910000Y-42450000D02*
X130580000Y-42450000D01*
X130910000Y-48990000D02*
X130910000Y-42450000D01*
X130580000Y-48990000D02*
X130910000Y-48990000D01*
X128170000Y-42450000D02*
X128500000Y-42450000D01*
X128170000Y-48990000D02*
X128170000Y-42450000D01*
X128500000Y-48990000D02*
X128170000Y-48990000D01*
%TO.C,RV2*%
X38768596Y-59981076D02*
X39256500Y-59493172D01*
X38839307Y-60051786D02*
X38768596Y-59981076D01*
X43449643Y-64662123D02*
X43626420Y-64485346D01*
X43378933Y-64591412D02*
X43449643Y-64662123D01*
X43237511Y-64732833D02*
X43378933Y-64591412D01*
X42374841Y-63587320D02*
X42233420Y-63728742D01*
X44658796Y-55943496D02*
X45712385Y-56997085D01*
X39991891Y-58757781D02*
X42806176Y-55943496D01*
X47487223Y-60624543D02*
X44984065Y-63127701D01*
X46433634Y-57718334D02*
X47487223Y-58771923D01*
X38697886Y-60193208D02*
X38839307Y-60051786D01*
X39701977Y-61197299D02*
X38697886Y-60193208D01*
X39843399Y-61055878D02*
X39701977Y-61197299D01*
X42374841Y-63587320D02*
X39843399Y-61055878D01*
X43237511Y-64732833D02*
X42233420Y-63728742D01*
X42806176Y-55943496D02*
G75*
G02X44658796Y-55943496I926310J-926310D01*
G01*
X47487223Y-58771923D02*
G75*
G02X47487223Y-60624543I-926310J-926310D01*
G01*
%TO.C,U1*%
X99622946Y-73957241D02*
G75*
G02X98090856Y-75242817I-766045J-642788D01*
G01*
X102755802Y-71250138D02*
X94880865Y-77857995D01*
X114338835Y-85054259D02*
X102755802Y-71250138D01*
X106463898Y-91662116D02*
X114338835Y-85054259D01*
X94880865Y-77857995D02*
X106463898Y-91662116D01*
X100886919Y-72896642D02*
X99622945Y-73957241D01*
X112392817Y-86608837D02*
X100886919Y-72896642D01*
X108332781Y-90015612D02*
X112392817Y-86608837D01*
X96826883Y-76303416D02*
X108332781Y-90015612D01*
X98090856Y-75242817D02*
X96826883Y-76303416D01*
%TO.C,U2*%
X82517816Y-98688137D02*
G75*
G02X83803392Y-100220227I642788J-766045D01*
G01*
X83803392Y-100220227D02*
X84863991Y-101484200D01*
X84863991Y-101484200D02*
X100521940Y-88345621D01*
X100521940Y-88345621D02*
X97115165Y-84285586D01*
X97115165Y-84285586D02*
X81457217Y-97424164D01*
X81457217Y-97424164D02*
X82517816Y-98688138D01*
X86418570Y-103430218D02*
X102168443Y-90214505D01*
X102168443Y-90214505D02*
X95560587Y-82339568D01*
X95560587Y-82339568D02*
X79810713Y-95555281D01*
X79810713Y-95555281D02*
X86418570Y-103430218D01*
%TO.C,U3*%
X44837422Y-41829646D02*
X43670696Y-40662920D01*
X43670696Y-40662920D02*
X36401638Y-47931978D01*
X36401638Y-47931978D02*
X40149304Y-51679643D01*
X40149304Y-51679643D02*
X47418362Y-44410586D01*
X47418362Y-44410586D02*
X46251636Y-43243860D01*
X41952426Y-38859798D02*
X34598516Y-46213708D01*
X34598516Y-46213708D02*
X41867574Y-53482766D01*
X41867574Y-53482766D02*
X49221484Y-46128855D01*
X49221484Y-46128855D02*
X41952426Y-38859798D01*
X46251636Y-43243860D02*
G75*
G02X44837422Y-41829646I-707107J707107D01*
G01*
%TO.C,U4*%
X67208431Y-63191340D02*
X59939373Y-55922283D01*
X59854521Y-70545251D02*
X67208431Y-63191340D01*
X52585463Y-63276193D02*
X59854521Y-70545251D01*
X59939373Y-55922283D02*
X52585463Y-63276193D01*
X65405309Y-61473071D02*
X64238583Y-60306345D01*
X58136251Y-68742128D02*
X65405309Y-61473071D01*
X54388585Y-64994463D02*
X58136251Y-68742128D01*
X61657643Y-57725405D02*
X54388585Y-64994463D01*
X62824369Y-58892131D02*
X61657643Y-57725405D01*
X64238583Y-60306345D02*
G75*
G02X62824369Y-58892131I-707107J707107D01*
G01*
%TO.C,U5*%
X126701884Y-64224115D02*
G75*
G02X125416308Y-62692025I-642788J766045D01*
G01*
X129408987Y-67356971D02*
X122801130Y-59482034D01*
X113659113Y-80572684D02*
X129408987Y-67356971D01*
X107051257Y-72697747D02*
X113659113Y-80572684D01*
X122801130Y-59482034D02*
X107051257Y-72697747D01*
X127762483Y-65488088D02*
X126701884Y-64224114D01*
X112104535Y-78626666D02*
X127762483Y-65488088D01*
X108697760Y-74566631D02*
X112104535Y-78626666D01*
X124355709Y-61428052D02*
X108697760Y-74566631D01*
X125416308Y-62692025D02*
X124355709Y-61428052D01*
%TO.C,U6*%
X106962997Y-28496495D02*
G75*
G02X106962997Y-26496495I0J1000000D01*
G01*
X107022997Y-32636495D02*
X107022997Y-22356495D01*
X96622997Y-32636495D02*
X107022997Y-32636495D01*
X96622997Y-22356495D02*
X96622997Y-32636495D01*
X107022997Y-22356495D02*
X96622997Y-22356495D01*
X106962997Y-30146495D02*
X106962997Y-28496495D01*
X96682997Y-30146495D02*
X106962997Y-30146495D01*
X96682997Y-24846495D02*
X96682997Y-30146495D01*
X106962997Y-24846495D02*
X96682997Y-24846495D01*
X106962997Y-26496495D02*
X106962997Y-24846495D01*
%TO.C,U7*%
X134284220Y-16325540D02*
G75*
G02X132284220Y-16325540I-1000000J0D01*
G01*
X138424220Y-16265540D02*
X128144220Y-16265540D01*
X138424220Y-36825540D02*
X138424220Y-16265540D01*
X128144220Y-36825540D02*
X138424220Y-36825540D01*
X128144220Y-16265540D02*
X128144220Y-36825540D01*
X135934220Y-16325540D02*
X134284220Y-16325540D01*
X135934220Y-36765540D02*
X135934220Y-16325540D01*
X130634220Y-36765540D02*
X135934220Y-36765540D01*
X130634220Y-16325540D02*
X130634220Y-36765540D01*
X132284220Y-16325540D02*
X130634220Y-16325540D01*
%TO.C,U8*%
X121650000Y-36384573D02*
G75*
G02X119650000Y-36384573I-1000000J0D01*
G01*
X119650000Y-36384573D02*
X118000000Y-36384573D01*
X118000000Y-36384573D02*
X118000000Y-46664573D01*
X118000000Y-46664573D02*
X123300000Y-46664573D01*
X123300000Y-46664573D02*
X123300000Y-36384573D01*
X123300000Y-36384573D02*
X121650000Y-36384573D01*
X115510000Y-36324573D02*
X115510000Y-46724573D01*
X115510000Y-46724573D02*
X125790000Y-46724573D01*
X125790000Y-46724573D02*
X125790000Y-36324573D01*
X125790000Y-36324573D02*
X115510000Y-36324573D01*
%TO.C,C1*%
D11*
X32642357Y-23855327D02*
X32575014Y-23855327D01*
X32440327Y-23787983D01*
X32372983Y-23720639D01*
X32305640Y-23585952D01*
X32305640Y-23451265D01*
X32339311Y-23350250D01*
X32440327Y-23181891D01*
X32541342Y-23080876D01*
X32709701Y-22979861D01*
X32810716Y-22946189D01*
X32945403Y-22946189D01*
X33080090Y-23013533D01*
X33147434Y-23080876D01*
X33214777Y-23215563D01*
X33214777Y-23282907D01*
X33248449Y-24596105D02*
X32844388Y-24192044D01*
X33046418Y-24394075D02*
X33753525Y-23686968D01*
X33585166Y-23720640D01*
X33450479Y-23720640D01*
X33349464Y-23686968D01*
%TO.C,C2*%
X27254204Y-29243482D02*
X27186861Y-29243482D01*
X27052174Y-29176138D01*
X26984830Y-29108794D01*
X26917487Y-28974107D01*
X26917487Y-28839420D01*
X26951158Y-28738405D01*
X27052174Y-28570046D01*
X27153189Y-28469031D01*
X27321548Y-28368016D01*
X27422563Y-28334344D01*
X27557250Y-28334344D01*
X27691937Y-28401688D01*
X27759281Y-28469031D01*
X27826624Y-28603718D01*
X27826624Y-28671062D01*
X28095998Y-28940436D02*
X28163342Y-28940436D01*
X28264357Y-28974107D01*
X28432716Y-29142466D01*
X28466387Y-29243482D01*
X28466387Y-29310825D01*
X28432716Y-29411840D01*
X28365372Y-29479184D01*
X28230685Y-29546527D01*
X27422563Y-29546527D01*
X27860296Y-29984260D01*
%TO.C,C3*%
X21866050Y-34631635D02*
X21798707Y-34631635D01*
X21664020Y-34564291D01*
X21596676Y-34496948D01*
X21529333Y-34362260D01*
X21529333Y-34227573D01*
X21563004Y-34126558D01*
X21664020Y-33958199D01*
X21765035Y-33857184D01*
X21933394Y-33756169D01*
X22034409Y-33722497D01*
X22169096Y-33722497D01*
X22303783Y-33789841D01*
X22371127Y-33857184D01*
X22438470Y-33991871D01*
X22438470Y-34059215D01*
X22741516Y-34227573D02*
X23179249Y-34665306D01*
X22674172Y-34698978D01*
X22775188Y-34799993D01*
X22808859Y-34901009D01*
X22808859Y-34968352D01*
X22775188Y-35069367D01*
X22606829Y-35237726D01*
X22505814Y-35271398D01*
X22438470Y-35271398D01*
X22337455Y-35237726D01*
X22135424Y-35035696D01*
X22101752Y-34934680D01*
X22101752Y-34867337D01*
%TO.C,C4*%
X78102277Y-97481144D02*
X78096408Y-97548231D01*
X78017582Y-97676536D01*
X77944625Y-97737754D01*
X77804582Y-97793103D01*
X77670407Y-97781364D01*
X77572711Y-97739016D01*
X77413797Y-97623712D01*
X77321970Y-97514277D01*
X77236013Y-97337755D01*
X77211273Y-97234189D01*
X77223012Y-97100015D01*
X77301838Y-96971710D01*
X77374794Y-96910492D01*
X77514838Y-96855143D01*
X77581926Y-96861013D01*
X78391580Y-96492444D02*
X78820105Y-97003140D01*
X77964317Y-96353662D02*
X78241059Y-97053881D01*
X78715277Y-96655965D01*
%TO.C,C5*%
X87898351Y-109155663D02*
X87892482Y-109222750D01*
X87813656Y-109351055D01*
X87740699Y-109412273D01*
X87600656Y-109467622D01*
X87466481Y-109455883D01*
X87368785Y-109413535D01*
X87209871Y-109298231D01*
X87118044Y-109188796D01*
X87032087Y-109012274D01*
X87007347Y-108908708D01*
X87019086Y-108774534D01*
X87097912Y-108646229D01*
X87170868Y-108585011D01*
X87310912Y-108529662D01*
X87378000Y-108535532D01*
X88009870Y-107881005D02*
X87645086Y-108187095D01*
X87914697Y-108582487D01*
X87920567Y-108515400D01*
X87962915Y-108417703D01*
X88145306Y-108264659D01*
X88248872Y-108239919D01*
X88315959Y-108245789D01*
X88413655Y-108288136D01*
X88566700Y-108470528D01*
X88591439Y-108574093D01*
X88585570Y-108641181D01*
X88543222Y-108738877D01*
X88360831Y-108891921D01*
X88257265Y-108916661D01*
X88190178Y-108910792D01*
%TO.C,C6*%
X22314559Y-67139691D02*
X22314559Y-67207034D01*
X22247215Y-67341721D01*
X22179872Y-67409065D01*
X22045184Y-67476408D01*
X21910497Y-67476408D01*
X21809482Y-67442737D01*
X21641123Y-67341721D01*
X21540108Y-67240706D01*
X21439093Y-67072347D01*
X21405421Y-66971332D01*
X21405421Y-66836645D01*
X21472765Y-66701958D01*
X21540108Y-66634614D01*
X21674795Y-66567271D01*
X21742139Y-66567271D01*
X22280887Y-65893836D02*
X22146200Y-66028523D01*
X22112528Y-66129538D01*
X22112528Y-66196882D01*
X22146200Y-66365240D01*
X22247215Y-66533599D01*
X22516589Y-66802973D01*
X22617604Y-66836645D01*
X22684948Y-66836645D01*
X22785963Y-66802973D01*
X22920650Y-66668286D01*
X22954322Y-66567271D01*
X22954322Y-66499927D01*
X22920650Y-66398912D01*
X22752291Y-66230553D01*
X22651276Y-66196882D01*
X22583933Y-66196882D01*
X22482917Y-66230553D01*
X22348230Y-66365240D01*
X22314559Y-66466256D01*
X22314559Y-66533599D01*
X22348230Y-66634614D01*
%TO.C,C7*%
X74792993Y-49954639D02*
X74725650Y-49954639D01*
X74590963Y-49887295D01*
X74523619Y-49819952D01*
X74456276Y-49685264D01*
X74456276Y-49550577D01*
X74489947Y-49449562D01*
X74590963Y-49281203D01*
X74691978Y-49180188D01*
X74860337Y-49079173D01*
X74961352Y-49045501D01*
X75096039Y-49045501D01*
X75230726Y-49112845D01*
X75298070Y-49180188D01*
X75365413Y-49314875D01*
X75365413Y-49382219D01*
X75668459Y-49550577D02*
X76139863Y-50021982D01*
X75129711Y-50426043D01*
%TO.C,C8*%
X131321207Y-66192529D02*
X131315338Y-66259616D01*
X131236512Y-66387921D01*
X131163555Y-66449139D01*
X131023512Y-66504488D01*
X130889337Y-66492749D01*
X130791641Y-66450401D01*
X130632727Y-66335097D01*
X130540900Y-66225662D01*
X130454943Y-66049140D01*
X130430203Y-65945574D01*
X130441942Y-65811400D01*
X130520768Y-65683095D01*
X130593724Y-65621877D01*
X130733768Y-65566528D01*
X130800856Y-65572398D01*
X131452858Y-65460439D02*
X131349292Y-65485178D01*
X131282205Y-65479309D01*
X131184509Y-65436961D01*
X131153900Y-65400483D01*
X131129160Y-65296917D01*
X131135030Y-65229830D01*
X131177377Y-65132134D01*
X131323291Y-65009698D01*
X131426856Y-64984959D01*
X131493943Y-64990828D01*
X131591640Y-65033176D01*
X131622248Y-65069654D01*
X131646988Y-65173220D01*
X131641119Y-65240307D01*
X131598771Y-65338003D01*
X131452858Y-65460439D01*
X131410510Y-65558135D01*
X131404641Y-65625222D01*
X131429380Y-65728788D01*
X131551816Y-65874701D01*
X131649512Y-65917049D01*
X131716599Y-65922918D01*
X131820165Y-65898178D01*
X131966078Y-65775743D01*
X132008426Y-65678047D01*
X132014295Y-65610959D01*
X131989556Y-65507394D01*
X131867120Y-65361481D01*
X131769424Y-65319133D01*
X131702337Y-65313263D01*
X131598771Y-65338003D01*
%TO.C,C9*%
X120269281Y-82651892D02*
X120202194Y-82646023D01*
X120073889Y-82567197D01*
X120012671Y-82494240D01*
X119957322Y-82354197D01*
X119969061Y-82220022D01*
X120011409Y-82122326D01*
X120126713Y-81963412D01*
X120236148Y-81871585D01*
X120412670Y-81785628D01*
X120516236Y-81760888D01*
X120650410Y-81772627D01*
X120778715Y-81851453D01*
X120839933Y-81924409D01*
X120895282Y-82064453D01*
X120889412Y-82131541D01*
X120502414Y-83077893D02*
X120624849Y-83223807D01*
X120722546Y-83266154D01*
X120789633Y-83272024D01*
X120960286Y-83253153D01*
X121136808Y-83167196D01*
X121428634Y-82922325D01*
X121470982Y-82824628D01*
X121476851Y-82757541D01*
X121452112Y-82653976D01*
X121329676Y-82508062D01*
X121231980Y-82465715D01*
X121164893Y-82459845D01*
X121061327Y-82484585D01*
X120878935Y-82637630D01*
X120836588Y-82735326D01*
X120830718Y-82802413D01*
X120855458Y-82905979D01*
X120977894Y-83051892D01*
X121075590Y-83094239D01*
X121142677Y-83100109D01*
X121246243Y-83075369D01*
%TO.C,C10*%
X62693353Y-24841149D02*
X62648291Y-24891195D01*
X62508122Y-24946226D01*
X62413014Y-24951210D01*
X62267861Y-24911133D01*
X62167769Y-24821010D01*
X62115231Y-24728394D01*
X62057708Y-24540671D01*
X62050232Y-24398010D01*
X62087817Y-24205303D01*
X62130386Y-24107703D01*
X62220509Y-24007611D01*
X62360678Y-23952581D01*
X62455786Y-23947596D01*
X62600940Y-23987673D01*
X62650986Y-24032735D01*
X63649413Y-24886413D02*
X63078767Y-24916320D01*
X63364090Y-24901366D02*
X63311754Y-23902737D01*
X63224123Y-24050383D01*
X63134000Y-24150475D01*
X63041385Y-24203013D01*
X64215276Y-23855385D02*
X64310384Y-23850401D01*
X64407984Y-23892970D01*
X64458030Y-23938032D01*
X64510568Y-24030647D01*
X64568090Y-24218370D01*
X64580551Y-24456139D01*
X64542966Y-24648847D01*
X64500397Y-24746446D01*
X64455335Y-24796492D01*
X64362720Y-24849030D01*
X64267612Y-24854015D01*
X64170012Y-24811445D01*
X64119966Y-24766384D01*
X64067428Y-24673768D01*
X64009906Y-24486045D01*
X63997445Y-24248277D01*
X64035030Y-24055569D01*
X64077599Y-23957969D01*
X64122661Y-23907923D01*
X64215276Y-23855385D01*
%TO.C,C11*%
X50010757Y-23250297D02*
X49965695Y-23300343D01*
X49825526Y-23355374D01*
X49730418Y-23360358D01*
X49585265Y-23320281D01*
X49485173Y-23230158D01*
X49432635Y-23137542D01*
X49375112Y-22949819D01*
X49367636Y-22807158D01*
X49405221Y-22614451D01*
X49447790Y-22516851D01*
X49537913Y-22416759D01*
X49678082Y-22361729D01*
X49773190Y-22356744D01*
X49918344Y-22396821D01*
X49968390Y-22441883D01*
X50966817Y-23295561D02*
X50396171Y-23325468D01*
X50681494Y-23310514D02*
X50629158Y-22311885D01*
X50541527Y-22459531D01*
X50451404Y-22559623D01*
X50358789Y-22612161D01*
X51917893Y-23245717D02*
X51347247Y-23275624D01*
X51632570Y-23260671D02*
X51580234Y-22262041D01*
X51492603Y-22409687D01*
X51402480Y-22509779D01*
X51309864Y-22562317D01*
%TO.C,C12*%
X62892752Y-28645927D02*
X62847690Y-28695973D01*
X62707521Y-28751004D01*
X62612413Y-28755988D01*
X62467260Y-28715911D01*
X62367168Y-28625788D01*
X62314630Y-28533172D01*
X62257107Y-28345449D01*
X62249631Y-28202788D01*
X62287216Y-28010081D01*
X62329785Y-27912481D01*
X62419908Y-27812389D01*
X62560077Y-27757359D01*
X62655185Y-27752374D01*
X62800339Y-27792451D01*
X62850385Y-27837513D01*
X63848812Y-28691191D02*
X63278166Y-28721098D01*
X63563489Y-28706144D02*
X63511153Y-27707515D01*
X63423522Y-27855161D01*
X63333399Y-27955253D01*
X63240784Y-28007791D01*
X64181891Y-27767732D02*
X64226952Y-27717686D01*
X64319568Y-27665148D01*
X64557337Y-27652687D01*
X64654936Y-27695256D01*
X64704982Y-27740318D01*
X64757520Y-27832933D01*
X64762505Y-27928041D01*
X64722428Y-28073194D01*
X64181688Y-28673746D01*
X64799888Y-28641347D01*
%TO.C,C13*%
X50176715Y-27060297D02*
X50131653Y-27110343D01*
X49991484Y-27165374D01*
X49896376Y-27170358D01*
X49751223Y-27130281D01*
X49651131Y-27040158D01*
X49598593Y-26947542D01*
X49541070Y-26759819D01*
X49533594Y-26617158D01*
X49571179Y-26424451D01*
X49613748Y-26326851D01*
X49703871Y-26226759D01*
X49844040Y-26171729D01*
X49939148Y-26166744D01*
X50084302Y-26206821D01*
X50134348Y-26251883D01*
X51132775Y-27105561D02*
X50562129Y-27135468D01*
X50847452Y-27120514D02*
X50795116Y-26121885D01*
X50707485Y-26269531D01*
X50617362Y-26369623D01*
X50524747Y-26422161D01*
X51413315Y-26089486D02*
X52031515Y-26057088D01*
X51718576Y-26454964D01*
X51861237Y-26447487D01*
X51958837Y-26490056D01*
X52008883Y-26535118D01*
X52061421Y-26627733D01*
X52073882Y-26865502D01*
X52031312Y-26963102D01*
X51986251Y-27013148D01*
X51893636Y-27065686D01*
X51608313Y-27080639D01*
X51510713Y-27038070D01*
X51460667Y-26993008D01*
%TO.C,C14*%
X63092152Y-32450706D02*
X63047090Y-32500752D01*
X62906921Y-32555783D01*
X62811813Y-32560767D01*
X62666660Y-32520690D01*
X62566568Y-32430567D01*
X62514030Y-32337951D01*
X62456507Y-32150228D01*
X62449031Y-32007567D01*
X62486616Y-31814860D01*
X62529185Y-31717260D01*
X62619308Y-31617168D01*
X62759477Y-31562138D01*
X62854585Y-31557153D01*
X62999739Y-31597230D01*
X63049785Y-31642292D01*
X64048212Y-32495970D02*
X63477566Y-32525877D01*
X63762889Y-32510923D02*
X63710553Y-31512294D01*
X63622922Y-31659940D01*
X63532799Y-31760032D01*
X63440184Y-31812570D01*
X64869289Y-31785358D02*
X64904180Y-32451111D01*
X64611583Y-31417388D02*
X64411197Y-32143156D01*
X65029396Y-32110758D01*
%TO.C,C15*%
X50176715Y-30870297D02*
X50131653Y-30920343D01*
X49991484Y-30975374D01*
X49896376Y-30980358D01*
X49751223Y-30940281D01*
X49651131Y-30850158D01*
X49598593Y-30757542D01*
X49541070Y-30569819D01*
X49533594Y-30427158D01*
X49571179Y-30234451D01*
X49613748Y-30136851D01*
X49703871Y-30036759D01*
X49844040Y-29981729D01*
X49939148Y-29976744D01*
X50084302Y-30016821D01*
X50134348Y-30061883D01*
X51132775Y-30915561D02*
X50562129Y-30945468D01*
X50847452Y-30930514D02*
X50795116Y-29931885D01*
X50707485Y-30079531D01*
X50617362Y-30179623D01*
X50524747Y-30232161D01*
X51983961Y-29869580D02*
X51508423Y-29894502D01*
X51485791Y-30372532D01*
X51530853Y-30322486D01*
X51623468Y-30269948D01*
X51861237Y-30257487D01*
X51958837Y-30300056D01*
X52008883Y-30345118D01*
X52061421Y-30437733D01*
X52073882Y-30675502D01*
X52031312Y-30773102D01*
X51986251Y-30823148D01*
X51893636Y-30875686D01*
X51655867Y-30888147D01*
X51558267Y-30845578D01*
X51508221Y-30800516D01*
%TO.C,C16*%
X60778177Y-41788179D02*
X60733115Y-41838225D01*
X60592946Y-41893256D01*
X60497838Y-41898240D01*
X60352685Y-41858163D01*
X60252593Y-41768040D01*
X60200055Y-41675424D01*
X60142532Y-41487701D01*
X60135056Y-41345040D01*
X60172641Y-41152333D01*
X60215210Y-41054733D01*
X60305333Y-40954641D01*
X60445502Y-40899611D01*
X60540610Y-40894626D01*
X60685764Y-40934703D01*
X60735810Y-40979765D01*
X61734237Y-41833443D02*
X61163591Y-41863350D01*
X61448914Y-41848396D02*
X61396578Y-40849767D01*
X61308947Y-40997413D01*
X61218824Y-41097505D01*
X61126209Y-41150043D01*
X62537869Y-40789954D02*
X62347654Y-40799923D01*
X62255039Y-40852461D01*
X62209977Y-40902507D01*
X62122346Y-41050153D01*
X62084761Y-41242860D01*
X62104698Y-41623291D01*
X62157237Y-41715906D01*
X62207283Y-41760968D01*
X62304882Y-41803537D01*
X62495098Y-41793568D01*
X62587713Y-41741030D01*
X62632774Y-41690984D01*
X62675344Y-41593384D01*
X62662883Y-41355615D01*
X62610345Y-41263000D01*
X62560299Y-41217938D01*
X62462699Y-41175369D01*
X62272484Y-41185338D01*
X62179869Y-41237876D01*
X62134807Y-41287922D01*
X62092238Y-41385522D01*
%TO.C,C17*%
X55698177Y-43058179D02*
X55653115Y-43108225D01*
X55512946Y-43163256D01*
X55417838Y-43168240D01*
X55272685Y-43128163D01*
X55172593Y-43038040D01*
X55120055Y-42945424D01*
X55062532Y-42757701D01*
X55055056Y-42615040D01*
X55092641Y-42422333D01*
X55135210Y-42324733D01*
X55225333Y-42224641D01*
X55365502Y-42169611D01*
X55460610Y-42164626D01*
X55605764Y-42204703D01*
X55655810Y-42249765D01*
X56654237Y-43103443D02*
X56083591Y-43133350D01*
X56368914Y-43118396D02*
X56316578Y-42119767D01*
X56228947Y-42267413D01*
X56138824Y-42367505D01*
X56046209Y-42420043D01*
X56934777Y-42087368D02*
X57600530Y-42052478D01*
X57224882Y-43073537D01*
%TO.C,D1*%
X35409502Y-59736618D02*
X36116608Y-59029511D01*
X36284967Y-59197870D01*
X36352311Y-59332557D01*
X36352311Y-59467244D01*
X36318639Y-59568259D01*
X36217624Y-59736618D01*
X36116608Y-59837633D01*
X35948250Y-59938649D01*
X35847234Y-59972320D01*
X35712547Y-59972320D01*
X35577860Y-59904977D01*
X35409502Y-59736618D01*
X36486998Y-60814114D02*
X36082937Y-60410053D01*
X36284967Y-60612084D02*
X36992074Y-59904977D01*
X36823715Y-59938649D01*
X36689028Y-59938649D01*
X36588013Y-59904977D01*
X31244923Y-58554687D02*
X31952030Y-57847580D01*
X31648984Y-58958748D02*
X31750000Y-58251641D01*
X32356091Y-58251641D02*
X31547969Y-58251641D01*
%TO.C,J1*%
X32499589Y-14725568D02*
X31994513Y-15230644D01*
X31859826Y-15297988D01*
X31725139Y-15297988D01*
X31590452Y-15230644D01*
X31523109Y-15163301D01*
X32499589Y-16139782D02*
X32095528Y-15735721D01*
X32297559Y-15937751D02*
X33004666Y-15230644D01*
X32836307Y-15264316D01*
X32701620Y-15264316D01*
X32600605Y-15230644D01*
%TO.C,J2*%
X27111435Y-20113722D02*
X26606359Y-20618798D01*
X26471672Y-20686142D01*
X26336985Y-20686142D01*
X26202298Y-20618798D01*
X26134955Y-20551455D01*
X27347138Y-20484111D02*
X27414481Y-20484111D01*
X27515496Y-20517783D01*
X27683855Y-20686142D01*
X27717527Y-20787157D01*
X27717527Y-20854501D01*
X27683855Y-20955516D01*
X27616512Y-21022859D01*
X27481825Y-21090203D01*
X26673703Y-21090203D01*
X27111435Y-21527936D01*
%TO.C,J3*%
X21723282Y-25501875D02*
X21218206Y-26006951D01*
X21083519Y-26074295D01*
X20948832Y-26074295D01*
X20814145Y-26006951D01*
X20746802Y-25939608D01*
X21992656Y-25771249D02*
X22430389Y-26208982D01*
X21925313Y-26242654D01*
X22026328Y-26343669D01*
X22060000Y-26444684D01*
X22060000Y-26512028D01*
X22026328Y-26613043D01*
X21857969Y-26781402D01*
X21756954Y-26815073D01*
X21689611Y-26815073D01*
X21588595Y-26781402D01*
X21386565Y-26579371D01*
X21352893Y-26478356D01*
X21352893Y-26411012D01*
%TO.C,J4*%
X49880274Y-90739548D02*
X49375198Y-91244624D01*
X49240511Y-91311968D01*
X49105824Y-91311968D01*
X48971137Y-91244624D01*
X48903794Y-91177281D01*
X50284335Y-91615014D02*
X49812931Y-92086418D01*
X50385351Y-91177281D02*
X49711916Y-91513998D01*
X50149648Y-91951731D01*
%TO.C,J5*%
X54370403Y-86249420D02*
X53865327Y-86754496D01*
X53730640Y-86821840D01*
X53595953Y-86821840D01*
X53461266Y-86754496D01*
X53393923Y-86687153D01*
X55043838Y-86922855D02*
X54707121Y-86586138D01*
X54336732Y-86889183D01*
X54404075Y-86889183D01*
X54505090Y-86922855D01*
X54673449Y-87091214D01*
X54707121Y-87192229D01*
X54707121Y-87259573D01*
X54673449Y-87360588D01*
X54505090Y-87528947D01*
X54404075Y-87562618D01*
X54336732Y-87562618D01*
X54235716Y-87528947D01*
X54067358Y-87360588D01*
X54033686Y-87259573D01*
X54033686Y-87192229D01*
%TO.C,J6*%
X58860531Y-81759290D02*
X58355455Y-82264366D01*
X58220768Y-82331710D01*
X58086081Y-82331710D01*
X57951394Y-82264366D01*
X57884051Y-82197023D01*
X59500295Y-82399053D02*
X59365608Y-82264366D01*
X59264592Y-82230695D01*
X59197249Y-82230695D01*
X59028890Y-82264366D01*
X58860531Y-82365382D01*
X58591157Y-82634756D01*
X58557486Y-82735771D01*
X58557486Y-82803114D01*
X58591157Y-82904130D01*
X58725844Y-83038817D01*
X58826860Y-83072488D01*
X58894203Y-83072488D01*
X58995218Y-83038817D01*
X59163577Y-82870458D01*
X59197249Y-82769443D01*
X59197249Y-82702099D01*
X59163577Y-82601084D01*
X59028890Y-82466397D01*
X58927875Y-82432725D01*
X58860531Y-82432725D01*
X58759516Y-82466397D01*
%TO.C,J7*%
X24735557Y-83555343D02*
X24230481Y-84060419D01*
X24095794Y-84127763D01*
X23961107Y-84127763D01*
X23826420Y-84060419D01*
X23759077Y-83993076D01*
X25004931Y-83824717D02*
X25476336Y-84296122D01*
X24466183Y-84700183D01*
%TO.C,J8*%
X29225685Y-88045471D02*
X28720609Y-88550547D01*
X28585922Y-88617891D01*
X28451235Y-88617891D01*
X28316548Y-88550547D01*
X28249205Y-88483204D01*
X29360372Y-88786250D02*
X29326701Y-88685234D01*
X29326701Y-88617891D01*
X29360372Y-88516876D01*
X29394044Y-88483204D01*
X29495059Y-88449532D01*
X29562403Y-88449532D01*
X29663418Y-88483204D01*
X29798105Y-88617891D01*
X29831777Y-88718906D01*
X29831777Y-88786250D01*
X29798105Y-88887265D01*
X29764433Y-88920937D01*
X29663418Y-88954608D01*
X29596075Y-88954608D01*
X29495059Y-88920937D01*
X29360372Y-88786250D01*
X29259357Y-88752578D01*
X29192014Y-88752578D01*
X29090998Y-88786250D01*
X28956311Y-88920937D01*
X28922640Y-89021952D01*
X28922640Y-89089295D01*
X28956311Y-89190311D01*
X29090998Y-89324998D01*
X29192014Y-89358669D01*
X29259357Y-89358669D01*
X29360372Y-89324998D01*
X29495059Y-89190311D01*
X29528731Y-89089295D01*
X29528731Y-89021952D01*
X29495059Y-88920937D01*
%TO.C,J9*%
X33715813Y-92535599D02*
X33210737Y-93040675D01*
X33076050Y-93108019D01*
X32941363Y-93108019D01*
X32806676Y-93040675D01*
X32739333Y-92973332D01*
X33379096Y-93613095D02*
X33513783Y-93747782D01*
X33614798Y-93781454D01*
X33682142Y-93781454D01*
X33850500Y-93747782D01*
X34018859Y-93646767D01*
X34288233Y-93377393D01*
X34321905Y-93276378D01*
X34321905Y-93209034D01*
X34288233Y-93108019D01*
X34153546Y-92973332D01*
X34052531Y-92939660D01*
X33985187Y-92939660D01*
X33884172Y-92973332D01*
X33715813Y-93141691D01*
X33682142Y-93242706D01*
X33682142Y-93310049D01*
X33715813Y-93411065D01*
X33850500Y-93545752D01*
X33951516Y-93579423D01*
X34018859Y-93579423D01*
X34119874Y-93545752D01*
%TO.C,J10*%
X80076428Y-58073909D02*
X79571352Y-58578985D01*
X79436665Y-58646328D01*
X79301978Y-58646328D01*
X79167291Y-58578985D01*
X79099947Y-58511641D01*
X80076428Y-59488122D02*
X79672367Y-59084061D01*
X79874397Y-59286092D02*
X80581504Y-58578985D01*
X80413145Y-58612657D01*
X80278458Y-58612657D01*
X80177443Y-58578985D01*
X81221267Y-59218748D02*
X81288611Y-59286092D01*
X81322283Y-59387107D01*
X81322283Y-59454450D01*
X81288611Y-59555466D01*
X81187596Y-59723824D01*
X81019237Y-59892183D01*
X80850878Y-59993198D01*
X80749863Y-60026870D01*
X80682519Y-60026870D01*
X80581504Y-59993198D01*
X80514161Y-59925855D01*
X80480489Y-59824840D01*
X80480489Y-59757496D01*
X80514161Y-59656481D01*
X80615176Y-59488122D01*
X80783535Y-59319763D01*
X80951893Y-59218748D01*
X81052909Y-59185076D01*
X81120252Y-59185076D01*
X81221267Y-59218748D01*
%TO.C,J11*%
X71803470Y-18918874D02*
X71803470Y-19633160D01*
X71755851Y-19776017D01*
X71660613Y-19871255D01*
X71517755Y-19918874D01*
X71422517Y-19918874D01*
X72803470Y-19918874D02*
X72232041Y-19918874D01*
X72517755Y-19918874D02*
X72517755Y-18918874D01*
X72422517Y-19061732D01*
X72327279Y-19156970D01*
X72232041Y-19204589D01*
X73755851Y-19918874D02*
X73184422Y-19918874D01*
X73470136Y-19918874D02*
X73470136Y-18918874D01*
X73374898Y-19061732D01*
X73279660Y-19156970D01*
X73184422Y-19204589D01*
%TO.C,J12*%
X68539391Y-13084316D02*
X68576774Y-13797623D01*
X68536697Y-13942777D01*
X68446573Y-14042868D01*
X68306404Y-14097899D01*
X68211297Y-14102883D01*
X69590356Y-14030610D02*
X69019711Y-14060516D01*
X69305034Y-14045563D02*
X69252698Y-13046933D01*
X69165067Y-13194579D01*
X69074944Y-13294671D01*
X68982328Y-13347209D01*
X69923435Y-13107150D02*
X69968497Y-13057104D01*
X70061112Y-13004566D01*
X70298881Y-12992105D01*
X70396481Y-13034675D01*
X70446527Y-13079736D01*
X70499065Y-13172352D01*
X70504049Y-13267459D01*
X70463972Y-13412613D01*
X69923233Y-14013164D01*
X70541432Y-13980766D01*
%TO.C,J13*%
X55891749Y-13747150D02*
X55929132Y-14460457D01*
X55889055Y-14605611D01*
X55798931Y-14705702D01*
X55658762Y-14760733D01*
X55563655Y-14765717D01*
X56942714Y-14693444D02*
X56372069Y-14723350D01*
X56657392Y-14708397D02*
X56605056Y-13709767D01*
X56517425Y-13857413D01*
X56427302Y-13957505D01*
X56334686Y-14010043D01*
X57223255Y-13677369D02*
X57841454Y-13644970D01*
X57528515Y-14042846D01*
X57671177Y-14035369D01*
X57768776Y-14077939D01*
X57818822Y-14123000D01*
X57871360Y-14215616D01*
X57883821Y-14453385D01*
X57841252Y-14550985D01*
X57796190Y-14601031D01*
X57703575Y-14653569D01*
X57418252Y-14668522D01*
X57320653Y-14625952D01*
X57270607Y-14580891D01*
%TO.C,J14*%
X43174201Y-14413649D02*
X43211584Y-15126956D01*
X43171507Y-15272110D01*
X43081383Y-15372201D01*
X42941214Y-15427232D01*
X42846107Y-15432216D01*
X44225166Y-15359943D02*
X43654521Y-15389849D01*
X43939844Y-15374896D02*
X43887508Y-14376266D01*
X43799877Y-14523912D01*
X43709754Y-14624004D01*
X43617138Y-14676542D01*
X45046244Y-14649330D02*
X45081135Y-15315083D01*
X44788538Y-14281361D02*
X44588151Y-15007129D01*
X45206351Y-14974730D01*
%TO.C,Q1*%
X80799281Y-68859045D02*
X80774542Y-68755479D01*
X80786280Y-68621305D01*
X80803888Y-68420043D01*
X80779149Y-68316477D01*
X80717931Y-68243521D01*
X80566148Y-68433044D02*
X80541409Y-68329478D01*
X80553148Y-68195304D01*
X80668452Y-68036390D01*
X80923800Y-67822127D01*
X81100322Y-67736170D01*
X81234497Y-67747908D01*
X81332193Y-67790256D01*
X81454629Y-67936169D01*
X81479368Y-68039735D01*
X81467629Y-68173909D01*
X81352325Y-68332823D01*
X81096977Y-68547086D01*
X80920455Y-68633043D01*
X80786280Y-68621305D01*
X80688584Y-68578957D01*
X80566148Y-68433044D01*
X81453807Y-69490915D02*
X81086500Y-69053175D01*
X81270154Y-69272045D02*
X82036198Y-68629257D01*
X81865546Y-68648127D01*
X81731371Y-68636389D01*
X81633675Y-68594041D01*
%TO.C,Q2*%
X75719281Y-72669046D02*
X75694542Y-72565480D01*
X75706280Y-72431306D01*
X75723888Y-72230044D01*
X75699149Y-72126478D01*
X75637931Y-72053522D01*
X75486148Y-72243045D02*
X75461409Y-72139479D01*
X75473148Y-72005305D01*
X75588452Y-71846391D01*
X75843800Y-71632128D01*
X76020322Y-71546171D01*
X76154497Y-71557909D01*
X76252193Y-71600257D01*
X76374629Y-71746170D01*
X76399368Y-71849736D01*
X76387629Y-71983910D01*
X76272325Y-72142824D01*
X76016977Y-72357087D01*
X75840455Y-72443044D01*
X75706280Y-72431306D01*
X75608584Y-72388958D01*
X75486148Y-72243045D01*
X76699588Y-72281606D02*
X76766675Y-72287476D01*
X76864371Y-72329823D01*
X77017416Y-72512215D01*
X77042156Y-72615780D01*
X77036286Y-72682868D01*
X76993939Y-72780564D01*
X76920982Y-72841782D01*
X76780938Y-72897130D01*
X75975891Y-72826698D01*
X76373807Y-73300916D01*
%TO.C,Q3*%
X105469322Y-54084736D02*
X105444583Y-53981170D01*
X105456321Y-53846996D01*
X105473929Y-53645734D01*
X105449190Y-53542168D01*
X105387972Y-53469212D01*
X105236189Y-53658735D02*
X105211450Y-53555169D01*
X105223189Y-53420995D01*
X105338493Y-53262081D01*
X105593841Y-53047818D01*
X105770363Y-52961861D01*
X105904538Y-52973599D01*
X106002234Y-53015947D01*
X106124670Y-53161860D01*
X106149409Y-53265426D01*
X106137670Y-53399600D01*
X106022366Y-53558514D01*
X105767018Y-53772777D01*
X105590496Y-53858734D01*
X105456321Y-53846996D01*
X105358625Y-53804648D01*
X105236189Y-53658735D01*
X106491977Y-53599600D02*
X106889893Y-54073818D01*
X106383804Y-54063341D01*
X106475631Y-54172776D01*
X106500370Y-54276342D01*
X106494501Y-54343429D01*
X106452153Y-54441125D01*
X106269762Y-54594170D01*
X106166196Y-54618909D01*
X106099109Y-54613040D01*
X106001413Y-54570692D01*
X105817759Y-54351823D01*
X105793020Y-54248257D01*
X105798889Y-54181170D01*
%TO.C,Q4*%
X35105431Y-70169881D02*
X35071759Y-70068866D01*
X35071759Y-69934179D01*
X35071759Y-69732148D01*
X35038087Y-69631133D01*
X34970744Y-69563790D01*
X34836057Y-69765820D02*
X34802385Y-69664805D01*
X34802385Y-69530118D01*
X34903400Y-69361759D01*
X35139103Y-69126057D01*
X35307461Y-69025042D01*
X35442148Y-69025042D01*
X35543164Y-69058713D01*
X35677851Y-69193400D01*
X35711522Y-69294416D01*
X35711522Y-69429103D01*
X35610507Y-69597461D01*
X35374805Y-69833164D01*
X35206446Y-69934179D01*
X35071759Y-69934179D01*
X34970744Y-69900507D01*
X34836057Y-69765820D01*
X36216599Y-70203553D02*
X35745194Y-70674957D01*
X36317614Y-69765820D02*
X35644179Y-70102538D01*
X36081912Y-70540270D01*
%TO.C,Q5*%
X25370606Y-43210523D02*
X25269591Y-43244195D01*
X25134904Y-43244195D01*
X24932873Y-43244195D01*
X24831858Y-43277867D01*
X24764515Y-43345210D01*
X24966545Y-43479897D02*
X24865530Y-43513569D01*
X24730843Y-43513569D01*
X24562484Y-43412554D01*
X24326782Y-43176851D01*
X24225767Y-43008493D01*
X24225767Y-42873806D01*
X24259438Y-42772790D01*
X24394125Y-42638103D01*
X24495141Y-42604432D01*
X24629828Y-42604432D01*
X24798186Y-42705447D01*
X25033889Y-42941149D01*
X25134904Y-43109508D01*
X25134904Y-43244195D01*
X25101232Y-43345210D01*
X24966545Y-43479897D01*
X25202247Y-41829981D02*
X24865530Y-42166699D01*
X25168576Y-42537088D01*
X25168576Y-42469745D01*
X25202247Y-42368729D01*
X25370606Y-42200371D01*
X25471621Y-42166699D01*
X25538965Y-42166699D01*
X25639980Y-42200371D01*
X25808339Y-42368729D01*
X25842011Y-42469745D01*
X25842011Y-42537088D01*
X25808339Y-42638103D01*
X25639980Y-42806462D01*
X25538965Y-42840134D01*
X25471621Y-42840134D01*
%TO.C,Q6*%
X100604937Y-58166440D02*
X100580198Y-58062874D01*
X100591936Y-57928700D01*
X100609544Y-57727438D01*
X100584805Y-57623872D01*
X100523587Y-57550916D01*
X100371804Y-57740439D02*
X100347065Y-57636873D01*
X100358804Y-57502699D01*
X100474108Y-57343785D01*
X100729456Y-57129522D01*
X100905978Y-57043565D01*
X101040153Y-57055303D01*
X101137849Y-57097651D01*
X101260285Y-57243564D01*
X101285024Y-57347130D01*
X101273285Y-57481304D01*
X101157981Y-57640218D01*
X100902633Y-57854481D01*
X100726111Y-57940438D01*
X100591936Y-57928700D01*
X100494240Y-57886352D01*
X100371804Y-57740439D01*
X101964290Y-58082565D02*
X101841854Y-57936652D01*
X101744158Y-57894304D01*
X101677071Y-57888435D01*
X101506418Y-57907305D01*
X101329896Y-57993263D01*
X101038069Y-58238134D01*
X100995722Y-58335830D01*
X100989852Y-58402918D01*
X101014592Y-58506483D01*
X101137028Y-58652396D01*
X101234724Y-58694744D01*
X101301811Y-58700613D01*
X101405377Y-58675874D01*
X101587768Y-58522829D01*
X101630116Y-58425133D01*
X101635985Y-58358046D01*
X101611246Y-58254480D01*
X101488810Y-58108567D01*
X101391114Y-58066219D01*
X101324027Y-58060350D01*
X101220461Y-58085090D01*
%TO.C,R1*%
X69097894Y-78909303D02*
X68536457Y-78758782D01*
X68660155Y-79276610D02*
X68017367Y-78510565D01*
X68309193Y-78265694D01*
X68412759Y-78240954D01*
X68479846Y-78246824D01*
X68577542Y-78289171D01*
X68669369Y-78398606D01*
X68694109Y-78502172D01*
X68688239Y-78569259D01*
X68645892Y-78666955D01*
X68354065Y-78911827D01*
X69827460Y-78297124D02*
X69389721Y-78664431D01*
X69608591Y-78480778D02*
X68965803Y-77714733D01*
X68984673Y-77885386D01*
X68972934Y-78019560D01*
X68930587Y-78117257D01*
%TO.C,R2*%
X76639248Y-89823585D02*
X76789769Y-89262148D01*
X76271941Y-89385846D02*
X77037986Y-88743058D01*
X77282857Y-89034884D01*
X77307597Y-89138450D01*
X77301727Y-89205537D01*
X77259380Y-89303233D01*
X77149945Y-89395060D01*
X77046379Y-89419800D01*
X76979292Y-89413930D01*
X76881596Y-89371583D01*
X76636724Y-89079756D01*
X77577208Y-89533842D02*
X77644295Y-89539711D01*
X77741991Y-89582059D01*
X77895036Y-89764451D01*
X77919775Y-89868016D01*
X77913906Y-89935103D01*
X77871558Y-90032800D01*
X77798602Y-90094017D01*
X77658558Y-90149366D01*
X76853511Y-90078933D01*
X77251427Y-90553151D01*
%TO.C,R3*%
X48803115Y-45355077D02*
X48904130Y-44782657D01*
X48399054Y-44951016D02*
X49106160Y-44243909D01*
X49375535Y-44513283D01*
X49409206Y-44614298D01*
X49409206Y-44681642D01*
X49375535Y-44782657D01*
X49274519Y-44883672D01*
X49173504Y-44917344D01*
X49106160Y-44917344D01*
X49005145Y-44883672D01*
X48735771Y-44614298D01*
X49745924Y-44883672D02*
X50183657Y-45321405D01*
X49678580Y-45355077D01*
X49779596Y-45456092D01*
X49813267Y-45557108D01*
X49813267Y-45624451D01*
X49779596Y-45725466D01*
X49611237Y-45893825D01*
X49510222Y-45927497D01*
X49442878Y-45927497D01*
X49341863Y-45893825D01*
X49139832Y-45691795D01*
X49106160Y-45590779D01*
X49106160Y-45523436D01*
%TO.C,R4*%
X73823110Y-83003675D02*
X73261673Y-82853154D01*
X73385371Y-83370982D02*
X72742583Y-82604937D01*
X73034409Y-82360066D01*
X73137975Y-82335326D01*
X73205062Y-82341196D01*
X73302758Y-82383543D01*
X73394585Y-82492978D01*
X73419325Y-82596544D01*
X73413455Y-82663631D01*
X73371108Y-82761327D01*
X73079281Y-83006199D01*
X74051195Y-81942018D02*
X74479720Y-82452714D01*
X73623932Y-81803236D02*
X73900674Y-82503455D01*
X74374892Y-82105539D01*
%TO.C,R5*%
X87333443Y-69209299D02*
X87483964Y-68647862D01*
X86966136Y-68771560D02*
X87732181Y-68128772D01*
X87977052Y-68420598D01*
X88001792Y-68524164D01*
X87995922Y-68591251D01*
X87953575Y-68688947D01*
X87844140Y-68780774D01*
X87740574Y-68805514D01*
X87673487Y-68799644D01*
X87575791Y-68757297D01*
X87330919Y-68465470D01*
X88681058Y-69259600D02*
X88374968Y-68894816D01*
X87979576Y-69164427D01*
X88046663Y-69170297D01*
X88144360Y-69212645D01*
X88297404Y-69395036D01*
X88322144Y-69498602D01*
X88316274Y-69565689D01*
X88273927Y-69663385D01*
X88091535Y-69816430D01*
X87987970Y-69841169D01*
X87920882Y-69835300D01*
X87823186Y-69792952D01*
X87670142Y-69610561D01*
X87645402Y-69506995D01*
X87651271Y-69439908D01*
%TO.C,R6*%
X42276520Y-26736955D02*
X42377535Y-26164535D01*
X41872459Y-26332894D02*
X42579565Y-25625787D01*
X42848940Y-25895161D01*
X42882611Y-25996176D01*
X42882611Y-26063520D01*
X42848940Y-26164535D01*
X42747924Y-26265550D01*
X42646909Y-26299222D01*
X42579565Y-26299222D01*
X42478550Y-26265550D01*
X42209176Y-25996176D01*
X43589718Y-26635940D02*
X43455031Y-26501253D01*
X43354016Y-26467581D01*
X43286672Y-26467581D01*
X43118314Y-26501253D01*
X42949955Y-26602268D01*
X42680581Y-26871642D01*
X42646909Y-26972657D01*
X42646909Y-27040001D01*
X42680581Y-27141016D01*
X42815268Y-27275703D01*
X42916283Y-27309375D01*
X42983627Y-27309375D01*
X43084642Y-27275703D01*
X43253001Y-27107344D01*
X43286672Y-27006329D01*
X43286672Y-26938986D01*
X43253001Y-26837970D01*
X43118314Y-26703283D01*
X43017298Y-26669612D01*
X42949955Y-26669612D01*
X42848940Y-26703283D01*
%TO.C,R7*%
X36888366Y-32125109D02*
X36989381Y-31552689D01*
X36484305Y-31721048D02*
X37191411Y-31013941D01*
X37460786Y-31283315D01*
X37494457Y-31384330D01*
X37494457Y-31451674D01*
X37460786Y-31552689D01*
X37359770Y-31653704D01*
X37258755Y-31687376D01*
X37191411Y-31687376D01*
X37090396Y-31653704D01*
X36821022Y-31384330D01*
X37831175Y-31653704D02*
X38302579Y-32125109D01*
X37292427Y-32529170D01*
%TO.C,R8*%
X31500212Y-37513263D02*
X31601227Y-36940843D01*
X31096151Y-37109202D02*
X31803257Y-36402095D01*
X32072632Y-36671469D01*
X32106303Y-36772484D01*
X32106303Y-36839828D01*
X32072632Y-36940843D01*
X31971616Y-37041858D01*
X31870601Y-37075530D01*
X31803257Y-37075530D01*
X31702242Y-37041858D01*
X31432868Y-36772484D01*
X32308334Y-37513263D02*
X32274662Y-37412248D01*
X32274662Y-37344904D01*
X32308334Y-37243889D01*
X32342006Y-37210217D01*
X32443021Y-37176545D01*
X32510364Y-37176545D01*
X32611380Y-37210217D01*
X32746067Y-37344904D01*
X32779738Y-37445920D01*
X32779738Y-37513263D01*
X32746067Y-37614278D01*
X32712395Y-37647950D01*
X32611380Y-37681622D01*
X32544036Y-37681622D01*
X32443021Y-37647950D01*
X32308334Y-37513263D01*
X32207319Y-37479591D01*
X32139975Y-37479591D01*
X32038960Y-37513263D01*
X31904273Y-37647950D01*
X31870601Y-37748965D01*
X31870601Y-37816309D01*
X31904273Y-37917324D01*
X32038960Y-38052011D01*
X32139975Y-38085683D01*
X32207319Y-38085683D01*
X32308334Y-38052011D01*
X32443021Y-37917324D01*
X32476693Y-37816309D01*
X32476693Y-37748965D01*
X32443021Y-37647950D01*
%TO.C,R9*%
X44312987Y-85766229D02*
X44414002Y-85193809D01*
X43908926Y-85362168D02*
X44616032Y-84655061D01*
X44885407Y-84924435D01*
X44919078Y-85025450D01*
X44919078Y-85092794D01*
X44885407Y-85193809D01*
X44784391Y-85294824D01*
X44683376Y-85328496D01*
X44616032Y-85328496D01*
X44515017Y-85294824D01*
X44245643Y-85025450D01*
X44649704Y-86102947D02*
X44784391Y-86237634D01*
X44885407Y-86271305D01*
X44952750Y-86271305D01*
X45121109Y-86237634D01*
X45289468Y-86136618D01*
X45558842Y-85867244D01*
X45592513Y-85766229D01*
X45592513Y-85698886D01*
X45558842Y-85597870D01*
X45424155Y-85463183D01*
X45323139Y-85429511D01*
X45255796Y-85429511D01*
X45154781Y-85463183D01*
X44986422Y-85631542D01*
X44952750Y-85732557D01*
X44952750Y-85799901D01*
X44986422Y-85900916D01*
X45121109Y-86035603D01*
X45222124Y-86069275D01*
X45289468Y-86069275D01*
X45390483Y-86035603D01*
%TO.C,R10*%
X51818083Y-77587697D02*
X51919098Y-77015278D01*
X51414022Y-77183636D02*
X52121129Y-76476530D01*
X52390503Y-76745904D01*
X52424175Y-76846919D01*
X52424175Y-76914262D01*
X52390503Y-77015278D01*
X52289488Y-77116293D01*
X52188472Y-77149965D01*
X52121129Y-77149965D01*
X52020114Y-77116293D01*
X51750740Y-76846919D01*
X52491518Y-78261133D02*
X52087457Y-77857072D01*
X52289488Y-78059102D02*
X52996595Y-77351995D01*
X52828236Y-77385667D01*
X52693549Y-77385667D01*
X52592534Y-77351995D01*
X53636358Y-77991759D02*
X53703701Y-78059102D01*
X53737373Y-78160117D01*
X53737373Y-78227461D01*
X53703701Y-78328476D01*
X53602686Y-78496835D01*
X53434327Y-78665194D01*
X53265969Y-78766209D01*
X53164953Y-78799881D01*
X53097610Y-78799881D01*
X52996595Y-78766209D01*
X52929251Y-78698865D01*
X52895579Y-78597850D01*
X52895579Y-78530507D01*
X52929251Y-78429491D01*
X53030266Y-78261133D01*
X53198625Y-78092774D01*
X53366984Y-77991759D01*
X53467999Y-77958087D01*
X53535343Y-77958087D01*
X53636358Y-77991759D01*
%TO.C,R11*%
X56308211Y-73097569D02*
X56409226Y-72525150D01*
X55904150Y-72693508D02*
X56611257Y-71986402D01*
X56880631Y-72255776D01*
X56914303Y-72356791D01*
X56914303Y-72424134D01*
X56880631Y-72525150D01*
X56779616Y-72626165D01*
X56678600Y-72659837D01*
X56611257Y-72659837D01*
X56510242Y-72626165D01*
X56240868Y-72356791D01*
X56981646Y-73771005D02*
X56577585Y-73366944D01*
X56779616Y-73568974D02*
X57486723Y-72861867D01*
X57318364Y-72895539D01*
X57183677Y-72895539D01*
X57082662Y-72861867D01*
X57655081Y-74444440D02*
X57251020Y-74040379D01*
X57453051Y-74242409D02*
X58160158Y-73535302D01*
X57991799Y-73568974D01*
X57857112Y-73568974D01*
X57756097Y-73535302D01*
%TO.C,R12*%
X87877360Y-79736351D02*
X88027881Y-79174914D01*
X87510053Y-79298612D02*
X88276097Y-78655824D01*
X88520969Y-78947650D01*
X88545708Y-79051216D01*
X88539839Y-79118303D01*
X88497491Y-79215999D01*
X88388056Y-79307826D01*
X88284491Y-79332566D01*
X88217403Y-79326696D01*
X88119707Y-79284349D01*
X87874836Y-78992522D01*
X88489539Y-80465917D02*
X88122231Y-80028178D01*
X88305885Y-80247048D02*
X89071929Y-79604260D01*
X88901277Y-79623130D01*
X88767102Y-79611391D01*
X88669406Y-79569044D01*
X89427498Y-80176174D02*
X89494585Y-80182043D01*
X89592281Y-80224391D01*
X89745326Y-80406783D01*
X89770066Y-80510348D01*
X89764196Y-80577435D01*
X89721849Y-80675132D01*
X89648892Y-80736349D01*
X89508848Y-80791698D01*
X88703801Y-80721266D01*
X89101717Y-81195484D01*
%TO.C,R13*%
X37965311Y-82054450D02*
X37392892Y-81953435D01*
X37561250Y-82458511D02*
X36854144Y-81751404D01*
X37123518Y-81482030D01*
X37224533Y-81448358D01*
X37291876Y-81448358D01*
X37392892Y-81482030D01*
X37493907Y-81583045D01*
X37527579Y-81684061D01*
X37527579Y-81751404D01*
X37493907Y-81852419D01*
X37224533Y-82121793D01*
X38638747Y-81381015D02*
X38234686Y-81785076D01*
X38436716Y-81583045D02*
X37729609Y-80875938D01*
X37763281Y-81044297D01*
X37763281Y-81178984D01*
X37729609Y-81280000D01*
X38167342Y-80438206D02*
X38605075Y-80000473D01*
X38638747Y-80505549D01*
X38739762Y-80404534D01*
X38840777Y-80370862D01*
X38908121Y-80370862D01*
X39009136Y-80404534D01*
X39177495Y-80572893D01*
X39211166Y-80673908D01*
X39211166Y-80741251D01*
X39177495Y-80842267D01*
X38975464Y-81044297D01*
X38874449Y-81077969D01*
X38807105Y-81077969D01*
%TO.C,R14*%
X32885312Y-76974449D02*
X32312893Y-76873434D01*
X32481251Y-77378510D02*
X31774145Y-76671403D01*
X32043519Y-76402029D01*
X32144534Y-76368357D01*
X32211877Y-76368357D01*
X32312893Y-76402029D01*
X32413908Y-76503044D01*
X32447580Y-76604060D01*
X32447580Y-76671403D01*
X32413908Y-76772418D01*
X32144534Y-77041792D01*
X33558748Y-76301014D02*
X33154687Y-76705075D01*
X33356717Y-76503044D02*
X32649610Y-75795937D01*
X32683282Y-75964296D01*
X32683282Y-76098983D01*
X32649610Y-76199999D01*
X33693435Y-75223518D02*
X34164839Y-75694922D01*
X33255702Y-75122502D02*
X33592419Y-75795937D01*
X34030152Y-75358205D01*
%TO.C,R15*%
X45514058Y-35391606D02*
X44941639Y-35290591D01*
X45109997Y-35795667D02*
X44402891Y-35088560D01*
X44672265Y-34819186D01*
X44773280Y-34785514D01*
X44840623Y-34785514D01*
X44941639Y-34819186D01*
X45042654Y-34920201D01*
X45076326Y-35021217D01*
X45076326Y-35088560D01*
X45042654Y-35189575D01*
X44773280Y-35458949D01*
X46187494Y-34718171D02*
X45783433Y-35122232D01*
X45985463Y-34920201D02*
X45278356Y-34213094D01*
X45312028Y-34381453D01*
X45312028Y-34516140D01*
X45278356Y-34617156D01*
X46120150Y-33371301D02*
X45783433Y-33708018D01*
X46086478Y-34078407D01*
X46086478Y-34011064D01*
X46120150Y-33910049D01*
X46288509Y-33741690D01*
X46389524Y-33708018D01*
X46456868Y-33708018D01*
X46557883Y-33741690D01*
X46726242Y-33910049D01*
X46759913Y-34011064D01*
X46759913Y-34078407D01*
X46726242Y-34179423D01*
X46557883Y-34347781D01*
X46456868Y-34381453D01*
X46389524Y-34381453D01*
%TO.C,R16*%
X35425312Y-79514450D02*
X34852893Y-79413435D01*
X35021251Y-79918511D02*
X34314145Y-79211404D01*
X34583519Y-78942030D01*
X34684534Y-78908358D01*
X34751877Y-78908358D01*
X34852893Y-78942030D01*
X34953908Y-79043045D01*
X34987580Y-79144061D01*
X34987580Y-79211404D01*
X34953908Y-79312419D01*
X34684534Y-79581793D01*
X36098748Y-78841015D02*
X35694687Y-79245076D01*
X35896717Y-79043045D02*
X35189610Y-78335938D01*
X35223282Y-78504297D01*
X35223282Y-78638984D01*
X35189610Y-78740000D01*
X35997732Y-77527816D02*
X35863045Y-77662503D01*
X35829374Y-77763519D01*
X35829374Y-77830862D01*
X35863045Y-77999221D01*
X35964061Y-78167580D01*
X36233435Y-78436954D01*
X36334450Y-78470625D01*
X36401793Y-78470625D01*
X36502809Y-78436954D01*
X36637496Y-78302267D01*
X36671167Y-78201251D01*
X36671167Y-78133908D01*
X36637496Y-78032893D01*
X36469137Y-77864534D01*
X36368122Y-77830862D01*
X36300778Y-77830862D01*
X36199763Y-77864534D01*
X36065076Y-77999221D01*
X36031404Y-78100236D01*
X36031404Y-78167580D01*
X36065076Y-78268595D01*
%TO.C,R17*%
X102110235Y-98858327D02*
X102260756Y-98296890D01*
X101742928Y-98420588D02*
X102508972Y-97777800D01*
X102753844Y-98069626D01*
X102778583Y-98173192D01*
X102772714Y-98240279D01*
X102730366Y-98337975D01*
X102620931Y-98429802D01*
X102517366Y-98454542D01*
X102450278Y-98448672D01*
X102352582Y-98406325D01*
X102107711Y-98114498D01*
X102722414Y-99587893D02*
X102355106Y-99150154D01*
X102538760Y-99369024D02*
X103304804Y-98726236D01*
X103134152Y-98745106D01*
X102999977Y-98733367D01*
X102902281Y-98691020D01*
X103702721Y-99200454D02*
X104131246Y-99711150D01*
X103089721Y-100025633D01*
%TO.C,R18*%
X49124008Y-65913364D02*
X49225023Y-65340945D01*
X48719947Y-65509303D02*
X49427054Y-64802197D01*
X49696428Y-65071571D01*
X49730100Y-65172586D01*
X49730100Y-65239929D01*
X49696428Y-65340945D01*
X49595413Y-65441960D01*
X49494397Y-65475632D01*
X49427054Y-65475632D01*
X49326039Y-65441960D01*
X49056665Y-65172586D01*
X49797443Y-66586800D02*
X49393382Y-66182739D01*
X49595413Y-66384769D02*
X50302520Y-65677662D01*
X50134161Y-65711334D01*
X49999474Y-65711334D01*
X49898459Y-65677662D01*
X50605565Y-66586800D02*
X50571894Y-66485784D01*
X50571894Y-66418441D01*
X50605565Y-66317426D01*
X50639237Y-66283754D01*
X50740252Y-66250082D01*
X50807596Y-66250082D01*
X50908611Y-66283754D01*
X51043298Y-66418441D01*
X51076970Y-66519456D01*
X51076970Y-66586800D01*
X51043298Y-66687815D01*
X51009626Y-66721487D01*
X50908611Y-66755158D01*
X50841268Y-66755158D01*
X50740252Y-66721487D01*
X50605565Y-66586800D01*
X50504550Y-66553128D01*
X50437207Y-66553128D01*
X50336191Y-66586800D01*
X50201504Y-66721487D01*
X50167833Y-66822502D01*
X50167833Y-66889845D01*
X50201504Y-66990861D01*
X50336191Y-67125548D01*
X50437207Y-67159219D01*
X50504550Y-67159219D01*
X50605565Y-67125548D01*
X50740252Y-66990861D01*
X50773924Y-66889845D01*
X50773924Y-66822502D01*
X50740252Y-66721487D01*
%TO.C,R19*%
X91950235Y-106478327D02*
X92100756Y-105916890D01*
X91582928Y-106040588D02*
X92348972Y-105397800D01*
X92593844Y-105689626D01*
X92618583Y-105793192D01*
X92612714Y-105860279D01*
X92570366Y-105957975D01*
X92460931Y-106049802D01*
X92357366Y-106074542D01*
X92290278Y-106068672D01*
X92192582Y-106026325D01*
X91947711Y-105734498D01*
X92562414Y-107207893D02*
X92195106Y-106770154D01*
X92378760Y-106989024D02*
X93144804Y-106346236D01*
X92974152Y-106365106D01*
X92839977Y-106353367D01*
X92742281Y-106311020D01*
X92868503Y-107572676D02*
X92990939Y-107718590D01*
X93088635Y-107760937D01*
X93155722Y-107766807D01*
X93326375Y-107747937D01*
X93502897Y-107661979D01*
X93794724Y-107417108D01*
X93837071Y-107319411D01*
X93842941Y-107252324D01*
X93818201Y-107148759D01*
X93695765Y-107002845D01*
X93598069Y-106960498D01*
X93530982Y-106954628D01*
X93427416Y-106979368D01*
X93245025Y-107132413D01*
X93202677Y-107230109D01*
X93196808Y-107297196D01*
X93221547Y-107400762D01*
X93343983Y-107546675D01*
X93441679Y-107589022D01*
X93508766Y-107594892D01*
X93612332Y-107570152D01*
%TO.C,R20*%
X113540235Y-92508327D02*
X113690756Y-91946890D01*
X113172928Y-92070588D02*
X113938972Y-91427800D01*
X114183844Y-91719626D01*
X114208583Y-91823192D01*
X114202714Y-91890279D01*
X114160366Y-91987975D01*
X114050931Y-92079802D01*
X113947366Y-92104542D01*
X113880278Y-92098672D01*
X113782582Y-92056325D01*
X113537711Y-91764498D01*
X114478194Y-92218584D02*
X114545282Y-92224453D01*
X114642978Y-92266801D01*
X114796022Y-92449193D01*
X114820762Y-92552758D01*
X114814893Y-92619845D01*
X114772545Y-92717541D01*
X114699588Y-92778759D01*
X114559544Y-92834108D01*
X113754498Y-92763675D01*
X114152414Y-93237893D01*
X115316374Y-93069324D02*
X115377592Y-93142280D01*
X115402332Y-93245846D01*
X115396462Y-93312933D01*
X115354115Y-93410629D01*
X115238810Y-93569543D01*
X115056419Y-93722588D01*
X114879897Y-93808545D01*
X114776331Y-93833285D01*
X114709244Y-93827416D01*
X114611548Y-93785068D01*
X114550330Y-93712111D01*
X114525590Y-93608546D01*
X114531460Y-93541459D01*
X114573807Y-93443762D01*
X114689112Y-93284848D01*
X114871503Y-93131804D01*
X115048025Y-93045846D01*
X115151591Y-93021107D01*
X115218678Y-93026976D01*
X115316374Y-93069324D01*
%TO.C,R21*%
X97030235Y-102668327D02*
X97180756Y-102106890D01*
X96662928Y-102230588D02*
X97428972Y-101587800D01*
X97673844Y-101879626D01*
X97698583Y-101983192D01*
X97692714Y-102050279D01*
X97650366Y-102147975D01*
X97540931Y-102239802D01*
X97437366Y-102264542D01*
X97370278Y-102258672D01*
X97272582Y-102216325D01*
X97027711Y-101924498D01*
X97968194Y-102378584D02*
X98035282Y-102384453D01*
X98132978Y-102426801D01*
X98286022Y-102609193D01*
X98310762Y-102712758D01*
X98304893Y-102779845D01*
X98262545Y-102877541D01*
X98189588Y-102938759D01*
X98049544Y-102994108D01*
X97244498Y-102923675D01*
X97642414Y-103397893D01*
X98254592Y-104127460D02*
X97887285Y-103689720D01*
X98070939Y-103908590D02*
X98836983Y-103265802D01*
X98666330Y-103284672D01*
X98532156Y-103272933D01*
X98434460Y-103230586D01*
%TO.C,R22*%
X111000236Y-95048327D02*
X111150757Y-94486890D01*
X110632929Y-94610588D02*
X111398973Y-93967800D01*
X111643845Y-94259626D01*
X111668584Y-94363192D01*
X111662715Y-94430279D01*
X111620367Y-94527975D01*
X111510932Y-94619802D01*
X111407367Y-94644542D01*
X111340279Y-94638672D01*
X111242583Y-94596325D01*
X110997712Y-94304498D01*
X111938195Y-94758584D02*
X112005283Y-94764453D01*
X112102979Y-94806801D01*
X112256023Y-94989193D01*
X112280763Y-95092758D01*
X112274894Y-95159845D01*
X112232546Y-95257541D01*
X112159589Y-95318759D01*
X112019545Y-95374108D01*
X111214499Y-95303675D01*
X111612415Y-95777893D01*
X112550374Y-95488150D02*
X112617461Y-95494019D01*
X112715157Y-95536367D01*
X112868202Y-95718759D01*
X112892942Y-95822324D01*
X112887072Y-95889411D01*
X112844725Y-95987108D01*
X112771768Y-96048325D01*
X112631724Y-96103674D01*
X111826677Y-96033242D01*
X112224593Y-96507460D01*
%TO.C,R23*%
X83012973Y-83818056D02*
X83163494Y-83256619D01*
X82645666Y-83380317D02*
X83411710Y-82737529D01*
X83656582Y-83029355D01*
X83681321Y-83132921D01*
X83675452Y-83200008D01*
X83633104Y-83297704D01*
X83523669Y-83389531D01*
X83420104Y-83414271D01*
X83353016Y-83408401D01*
X83255320Y-83366054D01*
X83010449Y-83074227D01*
X83950932Y-83528313D02*
X84018020Y-83534182D01*
X84115716Y-83576530D01*
X84268760Y-83758922D01*
X84293500Y-83862487D01*
X84287631Y-83929574D01*
X84245283Y-84027270D01*
X84172326Y-84088488D01*
X84032282Y-84143837D01*
X83227236Y-84073404D01*
X83625152Y-84547622D01*
X84605459Y-84160183D02*
X85003375Y-84634401D01*
X84497286Y-84623924D01*
X84589113Y-84733359D01*
X84613852Y-84836925D01*
X84607983Y-84904012D01*
X84565635Y-85001708D01*
X84383244Y-85154753D01*
X84279678Y-85179492D01*
X84212591Y-85173623D01*
X84114895Y-85131275D01*
X83931241Y-84912405D01*
X83906501Y-84808840D01*
X83912371Y-84741753D01*
%TO.C,R24*%
X33199962Y-56692691D02*
X33300977Y-56120272D01*
X32795901Y-56288630D02*
X33503008Y-55581524D01*
X33772382Y-55850898D01*
X33806054Y-55951913D01*
X33806054Y-56019256D01*
X33772382Y-56120272D01*
X33671367Y-56221287D01*
X33570351Y-56254959D01*
X33503008Y-56254959D01*
X33401993Y-56221287D01*
X33132619Y-55951913D01*
X34109100Y-56322302D02*
X34176443Y-56322302D01*
X34277458Y-56355974D01*
X34445817Y-56524333D01*
X34479489Y-56625348D01*
X34479489Y-56692691D01*
X34445817Y-56793707D01*
X34378474Y-56861050D01*
X34243787Y-56928394D01*
X33435664Y-56928394D01*
X33873397Y-57366127D01*
X34950893Y-57500814D02*
X34479489Y-57972218D01*
X35051909Y-57063081D02*
X34378474Y-57399798D01*
X34816206Y-57837531D01*
%TO.C,R25*%
X69778596Y-52442981D02*
X69879611Y-51870562D01*
X69374535Y-52038920D02*
X70081642Y-51331814D01*
X70351016Y-51601188D01*
X70384688Y-51702203D01*
X70384688Y-51769546D01*
X70351016Y-51870562D01*
X70250001Y-51971577D01*
X70148985Y-52005249D01*
X70081642Y-52005249D01*
X69980627Y-51971577D01*
X69711253Y-51702203D01*
X70687734Y-52072592D02*
X70755077Y-52072592D01*
X70856092Y-52106264D01*
X71024451Y-52274623D01*
X71058123Y-52375638D01*
X71058123Y-52442981D01*
X71024451Y-52543997D01*
X70957108Y-52611340D01*
X70822421Y-52678684D01*
X70014298Y-52678684D01*
X70452031Y-53116417D01*
X71798901Y-53049073D02*
X71462184Y-52712356D01*
X71091795Y-53015401D01*
X71159138Y-53015401D01*
X71260153Y-53049073D01*
X71428512Y-53217432D01*
X71462184Y-53318447D01*
X71462184Y-53385791D01*
X71428512Y-53486806D01*
X71260153Y-53655165D01*
X71159138Y-53688836D01*
X71091795Y-53688836D01*
X70990779Y-53655165D01*
X70822421Y-53486806D01*
X70788749Y-53385791D01*
X70788749Y-53318447D01*
%TO.C,R26*%
X65265549Y-57015312D02*
X65366564Y-56442893D01*
X64861488Y-56611251D02*
X65568595Y-55904145D01*
X65837969Y-56173519D01*
X65871641Y-56274534D01*
X65871641Y-56341877D01*
X65837969Y-56442893D01*
X65736954Y-56543908D01*
X65635938Y-56577580D01*
X65568595Y-56577580D01*
X65467580Y-56543908D01*
X65198206Y-56274534D01*
X66174687Y-56644923D02*
X66242030Y-56644923D01*
X66343045Y-56678595D01*
X66511404Y-56846954D01*
X66545076Y-56947969D01*
X66545076Y-57015312D01*
X66511404Y-57116328D01*
X66444061Y-57183671D01*
X66309374Y-57251015D01*
X65501251Y-57251015D01*
X65938984Y-57688748D01*
X67252183Y-57587732D02*
X67117496Y-57453045D01*
X67016480Y-57419374D01*
X66949137Y-57419374D01*
X66780778Y-57453045D01*
X66612419Y-57554061D01*
X66343045Y-57823435D01*
X66309374Y-57924450D01*
X66309374Y-57991793D01*
X66343045Y-58092809D01*
X66477732Y-58227496D01*
X66578748Y-58261167D01*
X66646091Y-58261167D01*
X66747106Y-58227496D01*
X66915465Y-58059137D01*
X66949137Y-57958122D01*
X66949137Y-57890778D01*
X66915465Y-57789763D01*
X66780778Y-57655076D01*
X66679763Y-57621404D01*
X66612419Y-57621404D01*
X66511404Y-57655076D01*
%TO.C,R27*%
X126240235Y-77268327D02*
X126390756Y-76706890D01*
X125872928Y-76830588D02*
X126638972Y-76187800D01*
X126883844Y-76479626D01*
X126908583Y-76583192D01*
X126902714Y-76650279D01*
X126860366Y-76747975D01*
X126750931Y-76839802D01*
X126647366Y-76864542D01*
X126580278Y-76858672D01*
X126482582Y-76816325D01*
X126237711Y-76524498D01*
X127178194Y-76978584D02*
X127245282Y-76984453D01*
X127342978Y-77026801D01*
X127496022Y-77209193D01*
X127520762Y-77312758D01*
X127514893Y-77379845D01*
X127472545Y-77477541D01*
X127399588Y-77538759D01*
X127259544Y-77594108D01*
X126454498Y-77523675D01*
X126852414Y-77997893D01*
X127832721Y-77610454D02*
X128261246Y-78121150D01*
X127219721Y-78435633D01*
%TO.C,R28*%
X70418358Y-72868265D02*
X69845939Y-72767250D01*
X70014297Y-73272326D02*
X69307191Y-72565219D01*
X69576565Y-72295845D01*
X69677580Y-72262173D01*
X69744923Y-72262173D01*
X69845939Y-72295845D01*
X69946954Y-72396860D01*
X69980626Y-72497876D01*
X69980626Y-72565219D01*
X69946954Y-72666234D01*
X69677580Y-72935608D01*
X70047969Y-71959127D02*
X70047969Y-71891784D01*
X70081641Y-71790769D01*
X70250000Y-71622410D01*
X70351015Y-71588738D01*
X70418358Y-71588738D01*
X70519374Y-71622410D01*
X70586717Y-71689753D01*
X70654061Y-71824440D01*
X70654061Y-72632563D01*
X71091794Y-72194830D01*
X71091794Y-71386708D02*
X70990778Y-71420379D01*
X70923435Y-71420379D01*
X70822420Y-71386708D01*
X70788748Y-71353036D01*
X70755076Y-71252021D01*
X70755076Y-71184677D01*
X70788748Y-71083662D01*
X70923435Y-70948975D01*
X71024450Y-70915303D01*
X71091794Y-70915303D01*
X71192809Y-70948975D01*
X71226481Y-70982647D01*
X71260152Y-71083662D01*
X71260152Y-71151005D01*
X71226481Y-71252021D01*
X71091794Y-71386708D01*
X71058122Y-71487723D01*
X71058122Y-71555066D01*
X71091794Y-71656082D01*
X71226481Y-71790769D01*
X71327496Y-71824440D01*
X71394839Y-71824440D01*
X71495855Y-71790769D01*
X71630542Y-71656082D01*
X71664213Y-71555066D01*
X71664213Y-71487723D01*
X71630542Y-71386708D01*
X71495855Y-71252021D01*
X71394839Y-71218349D01*
X71327496Y-71218349D01*
X71226481Y-71252021D01*
%TO.C,R29*%
X131627635Y-72902838D02*
X131778156Y-72341401D01*
X131260328Y-72465099D02*
X132026372Y-71822311D01*
X132271244Y-72114137D01*
X132295983Y-72217703D01*
X132290114Y-72284790D01*
X132247766Y-72382486D01*
X132138331Y-72474313D01*
X132034766Y-72499053D01*
X131967678Y-72493183D01*
X131869982Y-72450836D01*
X131625111Y-72159009D01*
X132565594Y-72613095D02*
X132632682Y-72618964D01*
X132730378Y-72661312D01*
X132883422Y-72843704D01*
X132908162Y-72947269D01*
X132902293Y-73014356D01*
X132859945Y-73112052D01*
X132786988Y-73173270D01*
X132646944Y-73228619D01*
X131841898Y-73158186D01*
X132239814Y-73632404D01*
X132545903Y-73997187D02*
X132668339Y-74143101D01*
X132766035Y-74185448D01*
X132833122Y-74191318D01*
X133003775Y-74172448D01*
X133180297Y-74086490D01*
X133472124Y-73841619D01*
X133514471Y-73743922D01*
X133520341Y-73676835D01*
X133495601Y-73573270D01*
X133373165Y-73427356D01*
X133275469Y-73385009D01*
X133208382Y-73379139D01*
X133104816Y-73403879D01*
X132922425Y-73556924D01*
X132880077Y-73654620D01*
X132874208Y-73721707D01*
X132898947Y-73825273D01*
X133021383Y-73971186D01*
X133119079Y-74013533D01*
X133186166Y-74019403D01*
X133289732Y-73994663D01*
%TO.C,R30*%
X28469417Y-52442980D02*
X28570432Y-51870561D01*
X28065356Y-52038919D02*
X28772463Y-51331813D01*
X29041837Y-51601187D01*
X29075509Y-51702202D01*
X29075509Y-51769545D01*
X29041837Y-51870561D01*
X28940822Y-51971576D01*
X28839806Y-52005248D01*
X28772463Y-52005248D01*
X28671448Y-51971576D01*
X28402074Y-51702202D01*
X29412226Y-51971576D02*
X29849959Y-52409309D01*
X29344883Y-52442980D01*
X29445898Y-52543996D01*
X29479570Y-52645011D01*
X29479570Y-52712355D01*
X29445898Y-52813370D01*
X29277539Y-52981729D01*
X29176524Y-53015400D01*
X29109180Y-53015400D01*
X29008165Y-52981729D01*
X28806135Y-52779698D01*
X28772463Y-52678683D01*
X28772463Y-52611339D01*
X30287692Y-52847042D02*
X30355035Y-52914385D01*
X30388707Y-53015400D01*
X30388707Y-53082744D01*
X30355035Y-53183759D01*
X30254020Y-53352118D01*
X30085661Y-53520477D01*
X29917303Y-53621492D01*
X29816287Y-53655164D01*
X29748944Y-53655164D01*
X29647929Y-53621492D01*
X29580585Y-53554148D01*
X29546913Y-53453133D01*
X29546913Y-53385790D01*
X29580585Y-53284774D01*
X29681600Y-53116416D01*
X29849959Y-52948057D01*
X30018318Y-52847042D01*
X30119333Y-52813370D01*
X30186677Y-52813370D01*
X30287692Y-52847042D01*
%TO.C,R31*%
X105177035Y-98377535D02*
X105327556Y-97816098D01*
X104809728Y-97939796D02*
X105575772Y-97297008D01*
X105820644Y-97588834D01*
X105845383Y-97692400D01*
X105839514Y-97759487D01*
X105797166Y-97857183D01*
X105687731Y-97949010D01*
X105584166Y-97973750D01*
X105517078Y-97967880D01*
X105419382Y-97925533D01*
X105174511Y-97633706D01*
X106157342Y-97990096D02*
X106555258Y-98464314D01*
X106049169Y-98453837D01*
X106140996Y-98563272D01*
X106165735Y-98666838D01*
X106159866Y-98733925D01*
X106117518Y-98831621D01*
X105935127Y-98984666D01*
X105831561Y-99009405D01*
X105764474Y-99003536D01*
X105666778Y-98961188D01*
X105483124Y-98742318D01*
X105458385Y-98638753D01*
X105464254Y-98571666D01*
X106401392Y-99836668D02*
X106034085Y-99398928D01*
X106217739Y-99617798D02*
X106983783Y-98975010D01*
X106813130Y-98993880D01*
X106678956Y-98982141D01*
X106581260Y-98939794D01*
%TO.C,R32*%
X123700235Y-81078327D02*
X123850756Y-80516890D01*
X123332928Y-80640588D02*
X124098972Y-79997800D01*
X124343844Y-80289626D01*
X124368583Y-80393192D01*
X124362714Y-80460279D01*
X124320366Y-80557975D01*
X124210931Y-80649802D01*
X124107366Y-80674542D01*
X124040278Y-80668672D01*
X123942582Y-80626325D01*
X123697711Y-80334498D01*
X124680542Y-80690888D02*
X125078458Y-81165106D01*
X124572369Y-81154629D01*
X124664196Y-81264064D01*
X124688935Y-81367630D01*
X124683066Y-81434717D01*
X124640718Y-81532413D01*
X124458327Y-81685458D01*
X124354761Y-81710197D01*
X124287674Y-81704328D01*
X124189978Y-81661980D01*
X124006324Y-81443110D01*
X123981585Y-81339545D01*
X123987454Y-81272458D01*
X125250373Y-81518150D02*
X125317460Y-81524019D01*
X125415156Y-81566367D01*
X125568201Y-81748759D01*
X125592941Y-81852324D01*
X125587071Y-81919411D01*
X125544724Y-82017108D01*
X125471767Y-82078325D01*
X125331723Y-82133674D01*
X124526676Y-82063242D01*
X124924592Y-82537460D01*
%TO.C,R33*%
X118620235Y-87428327D02*
X118770756Y-86866890D01*
X118252928Y-86990588D02*
X119018972Y-86347800D01*
X119263844Y-86639626D01*
X119288583Y-86743192D01*
X119282714Y-86810279D01*
X119240366Y-86907975D01*
X119130931Y-86999802D01*
X119027366Y-87024542D01*
X118960278Y-87018672D01*
X118862582Y-86976325D01*
X118617711Y-86684498D01*
X119600542Y-87040888D02*
X119998458Y-87515106D01*
X119492369Y-87504629D01*
X119584196Y-87614064D01*
X119608935Y-87717630D01*
X119603066Y-87784717D01*
X119560718Y-87882413D01*
X119378327Y-88035458D01*
X119274761Y-88060197D01*
X119207674Y-88054328D01*
X119109978Y-88011980D01*
X118926324Y-87793110D01*
X118901585Y-87689545D01*
X118907454Y-87622458D01*
X120212721Y-87770454D02*
X120610637Y-88244672D01*
X120104548Y-88234195D01*
X120196375Y-88343630D01*
X120221114Y-88447196D01*
X120215245Y-88514283D01*
X120172897Y-88611979D01*
X119990506Y-88765024D01*
X119886940Y-88789763D01*
X119819853Y-88783894D01*
X119722157Y-88741546D01*
X119538503Y-88522676D01*
X119513763Y-88419111D01*
X119519633Y-88352024D01*
%TO.C,R34*%
X77602563Y-65684060D02*
X77030144Y-65583045D01*
X77198502Y-66088121D02*
X76491396Y-65381014D01*
X76760770Y-65111640D01*
X76861785Y-65077968D01*
X76929128Y-65077968D01*
X77030144Y-65111640D01*
X77131159Y-65212655D01*
X77164831Y-65313671D01*
X77164831Y-65381014D01*
X77131159Y-65482029D01*
X76861785Y-65751403D01*
X77131159Y-64741251D02*
X77568892Y-64303518D01*
X77602563Y-64808594D01*
X77703579Y-64707579D01*
X77804594Y-64673907D01*
X77871938Y-64673907D01*
X77972953Y-64707579D01*
X78141312Y-64875938D01*
X78174983Y-64976953D01*
X78174983Y-65044297D01*
X78141312Y-65145312D01*
X77939281Y-65347342D01*
X77838266Y-65381014D01*
X77770922Y-65381014D01*
X78410686Y-63933129D02*
X78882090Y-64404533D01*
X77972953Y-63832113D02*
X78309670Y-64505548D01*
X78747403Y-64067816D01*
%TO.C,R35*%
X27165549Y-68445312D02*
X27266564Y-67872893D01*
X26761488Y-68041251D02*
X27468595Y-67334145D01*
X27737969Y-67603519D01*
X27771641Y-67704534D01*
X27771641Y-67771877D01*
X27737969Y-67872893D01*
X27636954Y-67973908D01*
X27535938Y-68007580D01*
X27468595Y-68007580D01*
X27367580Y-67973908D01*
X27098206Y-67704534D01*
X28108358Y-67973908D02*
X28546091Y-68411641D01*
X28041015Y-68445312D01*
X28142030Y-68546328D01*
X28175702Y-68647343D01*
X28175702Y-68714687D01*
X28142030Y-68815702D01*
X27973671Y-68984061D01*
X27872656Y-69017732D01*
X27805312Y-69017732D01*
X27704297Y-68984061D01*
X27502267Y-68782030D01*
X27468595Y-68681015D01*
X27468595Y-68613671D01*
X29185854Y-69051404D02*
X28849137Y-68714687D01*
X28478748Y-69017732D01*
X28546091Y-69017732D01*
X28647106Y-69051404D01*
X28815465Y-69219763D01*
X28849137Y-69320778D01*
X28849137Y-69388122D01*
X28815465Y-69489137D01*
X28647106Y-69657496D01*
X28546091Y-69691167D01*
X28478748Y-69691167D01*
X28377732Y-69657496D01*
X28209374Y-69489137D01*
X28175702Y-69388122D01*
X28175702Y-69320778D01*
%TO.C,R36*%
X24625549Y-73525312D02*
X24726564Y-72952893D01*
X24221488Y-73121251D02*
X24928595Y-72414145D01*
X25197969Y-72683519D01*
X25231641Y-72784534D01*
X25231641Y-72851877D01*
X25197969Y-72952893D01*
X25096954Y-73053908D01*
X24995938Y-73087580D01*
X24928595Y-73087580D01*
X24827580Y-73053908D01*
X24558206Y-72784534D01*
X25568358Y-73053908D02*
X26006091Y-73491641D01*
X25501015Y-73525312D01*
X25602030Y-73626328D01*
X25635702Y-73727343D01*
X25635702Y-73794687D01*
X25602030Y-73895702D01*
X25433671Y-74064061D01*
X25332656Y-74097732D01*
X25265312Y-74097732D01*
X25164297Y-74064061D01*
X24962267Y-73862030D01*
X24928595Y-73761015D01*
X24928595Y-73693671D01*
X26612183Y-74097732D02*
X26477496Y-73963045D01*
X26376480Y-73929374D01*
X26309137Y-73929374D01*
X26140778Y-73963045D01*
X25972419Y-74064061D01*
X25703045Y-74333435D01*
X25669374Y-74434450D01*
X25669374Y-74501793D01*
X25703045Y-74602809D01*
X25837732Y-74737496D01*
X25938748Y-74771167D01*
X26006091Y-74771167D01*
X26107106Y-74737496D01*
X26275465Y-74569137D01*
X26309137Y-74468122D01*
X26309137Y-74400778D01*
X26275465Y-74299763D01*
X26140778Y-74165076D01*
X26039763Y-74131404D01*
X25972419Y-74131404D01*
X25871404Y-74165076D01*
%TO.C,R37*%
X106362010Y-64225883D02*
X106512531Y-63664446D01*
X105994703Y-63788144D02*
X106760747Y-63145356D01*
X107005619Y-63437182D01*
X107030358Y-63540748D01*
X107024489Y-63607835D01*
X106982141Y-63705531D01*
X106872706Y-63797358D01*
X106769141Y-63822098D01*
X106702053Y-63816228D01*
X106604357Y-63773881D01*
X106359486Y-63482054D01*
X107342317Y-63838444D02*
X107740233Y-64312662D01*
X107234144Y-64302185D01*
X107325971Y-64411620D01*
X107350710Y-64515186D01*
X107344841Y-64582273D01*
X107302493Y-64679969D01*
X107120102Y-64833014D01*
X107016536Y-64857753D01*
X106949449Y-64851884D01*
X106851753Y-64809536D01*
X106668099Y-64590666D01*
X106643360Y-64487101D01*
X106649229Y-64420014D01*
X107954496Y-64568010D02*
X108383021Y-65078706D01*
X107341496Y-65393189D01*
%TO.C,R38*%
X128068327Y-57909764D02*
X127506890Y-57759243D01*
X127630588Y-58277071D02*
X126987800Y-57511027D01*
X127279626Y-57266155D01*
X127383192Y-57241416D01*
X127450279Y-57247285D01*
X127547975Y-57289633D01*
X127639802Y-57399068D01*
X127664542Y-57502633D01*
X127658672Y-57569721D01*
X127616325Y-57667417D01*
X127324498Y-57912288D01*
X127680888Y-56929457D02*
X128155106Y-56531541D01*
X128144629Y-57037630D01*
X128254064Y-56945803D01*
X128357630Y-56921064D01*
X128424717Y-56926933D01*
X128522413Y-56969281D01*
X128675458Y-57151672D01*
X128700197Y-57255238D01*
X128694328Y-57322325D01*
X128651980Y-57420021D01*
X128433110Y-57603675D01*
X128329545Y-57628414D01*
X128262458Y-57622545D01*
X128868326Y-56492538D02*
X128764760Y-56517278D01*
X128697673Y-56511409D01*
X128599977Y-56469061D01*
X128569368Y-56432583D01*
X128544628Y-56329017D01*
X128550498Y-56261930D01*
X128592845Y-56164234D01*
X128738759Y-56041798D01*
X128842324Y-56017058D01*
X128909411Y-56022928D01*
X129007108Y-56065275D01*
X129037717Y-56101754D01*
X129062456Y-56205319D01*
X129056587Y-56272407D01*
X129014239Y-56370103D01*
X128868326Y-56492538D01*
X128825978Y-56590235D01*
X128820109Y-56657322D01*
X128844848Y-56760887D01*
X128967284Y-56906801D01*
X129064980Y-56949148D01*
X129132067Y-56955018D01*
X129235633Y-56930278D01*
X129381546Y-56807842D01*
X129423894Y-56710146D01*
X129429763Y-56643059D01*
X129405024Y-56539493D01*
X129282588Y-56393580D01*
X129184892Y-56351233D01*
X129117805Y-56345363D01*
X129014239Y-56370103D01*
%TO.C,R39*%
X113189730Y-58532464D02*
X113340251Y-57971027D01*
X112822423Y-58094725D02*
X113588467Y-57451937D01*
X113833339Y-57743763D01*
X113858078Y-57847329D01*
X113852209Y-57914416D01*
X113809861Y-58012112D01*
X113700426Y-58103939D01*
X113596861Y-58128679D01*
X113529773Y-58122809D01*
X113432077Y-58080462D01*
X113187206Y-57788635D01*
X114170037Y-58145025D02*
X114567953Y-58619243D01*
X114061864Y-58608766D01*
X114153691Y-58718201D01*
X114178430Y-58821767D01*
X114172561Y-58888854D01*
X114130213Y-58986550D01*
X113947822Y-59139595D01*
X113844256Y-59164334D01*
X113777169Y-59158465D01*
X113679473Y-59116117D01*
X113495819Y-58897247D01*
X113471080Y-58793682D01*
X113476949Y-58726595D01*
X114107998Y-59626813D02*
X114230434Y-59772727D01*
X114328130Y-59815074D01*
X114395217Y-59820944D01*
X114565870Y-59802074D01*
X114742392Y-59716116D01*
X115034219Y-59471245D01*
X115076566Y-59373548D01*
X115082436Y-59306461D01*
X115057696Y-59202896D01*
X114935260Y-59056982D01*
X114837564Y-59014635D01*
X114770477Y-59008765D01*
X114666911Y-59033505D01*
X114484520Y-59186550D01*
X114442172Y-59284246D01*
X114436303Y-59351333D01*
X114461042Y-59454899D01*
X114583478Y-59600812D01*
X114681174Y-59643159D01*
X114748261Y-59649029D01*
X114851827Y-59624289D01*
%TO.C,R40*%
X116080235Y-89968327D02*
X116230756Y-89406890D01*
X115712928Y-89530588D02*
X116478972Y-88887800D01*
X116723844Y-89179626D01*
X116748583Y-89283192D01*
X116742714Y-89350279D01*
X116700366Y-89447975D01*
X116590931Y-89539802D01*
X116487366Y-89564542D01*
X116420278Y-89558672D01*
X116322582Y-89516325D01*
X116077711Y-89224498D01*
X117141892Y-90196412D02*
X116631196Y-90624937D01*
X117280674Y-89769149D02*
X116580455Y-90045891D01*
X116978371Y-90520109D01*
X117856374Y-90529324D02*
X117917592Y-90602280D01*
X117942332Y-90705846D01*
X117936462Y-90772933D01*
X117894115Y-90870629D01*
X117778810Y-91029543D01*
X117596419Y-91182588D01*
X117419897Y-91268545D01*
X117316331Y-91293285D01*
X117249244Y-91287416D01*
X117151548Y-91245068D01*
X117090330Y-91172111D01*
X117065590Y-91068546D01*
X117071460Y-91001459D01*
X117113807Y-90903762D01*
X117229112Y-90744848D01*
X117411503Y-90591804D01*
X117588025Y-90505846D01*
X117691591Y-90481107D01*
X117758678Y-90486976D01*
X117856374Y-90529324D01*
%TO.C,R41*%
X133944652Y-63841385D02*
X133383215Y-63690864D01*
X133506913Y-64208692D02*
X132864125Y-63442648D01*
X133155951Y-63197776D01*
X133259517Y-63173037D01*
X133326604Y-63178906D01*
X133424300Y-63221254D01*
X133516127Y-63330689D01*
X133540867Y-63434254D01*
X133534997Y-63501342D01*
X133492650Y-63599038D01*
X133200823Y-63843909D01*
X134172737Y-62779728D02*
X134601262Y-63290424D01*
X133745474Y-62640946D02*
X134022216Y-63341165D01*
X134496434Y-62943249D01*
X135403785Y-62617028D02*
X134966045Y-62984335D01*
X135184915Y-62800681D02*
X134542127Y-62034637D01*
X134560997Y-62205290D01*
X134549258Y-62339464D01*
X134506911Y-62437160D01*
%TO.C,R42*%
X90918873Y-65579160D02*
X91069394Y-65017723D01*
X90551566Y-65141421D02*
X91317610Y-64498633D01*
X91562482Y-64790459D01*
X91587221Y-64894025D01*
X91581352Y-64961112D01*
X91539004Y-65058808D01*
X91429569Y-65150635D01*
X91326004Y-65175375D01*
X91258916Y-65169505D01*
X91161220Y-65127158D01*
X90916349Y-64835331D01*
X91980530Y-65807245D02*
X91469834Y-66235770D01*
X92119312Y-65379982D02*
X91419093Y-65656724D01*
X91817009Y-66130942D01*
X92469011Y-66018983D02*
X92536098Y-66024852D01*
X92633794Y-66067200D01*
X92786839Y-66249592D01*
X92811579Y-66353157D01*
X92805709Y-66420244D01*
X92763362Y-66517941D01*
X92690405Y-66579158D01*
X92550361Y-66634507D01*
X91745314Y-66564075D01*
X92143230Y-67038293D01*
%TO.C,R43*%
X101497627Y-68307583D02*
X101648148Y-67746146D01*
X101130320Y-67869844D02*
X101896364Y-67227056D01*
X102141236Y-67518882D01*
X102165975Y-67622448D01*
X102160106Y-67689535D01*
X102117758Y-67787231D01*
X102008323Y-67879058D01*
X101904758Y-67903798D01*
X101837670Y-67897928D01*
X101739974Y-67855581D01*
X101495103Y-67563754D01*
X102559284Y-68535668D02*
X102048588Y-68964193D01*
X102698066Y-68108405D02*
X101997847Y-68385147D01*
X102395763Y-68859365D01*
X103090113Y-68649710D02*
X103488029Y-69123928D01*
X102981940Y-69113451D01*
X103073767Y-69222886D01*
X103098506Y-69326452D01*
X103092637Y-69393539D01*
X103050289Y-69491235D01*
X102867898Y-69644280D01*
X102764332Y-69669019D01*
X102697245Y-69663150D01*
X102599549Y-69620802D01*
X102415895Y-69401932D01*
X102391155Y-69298367D01*
X102397025Y-69231280D01*
%TO.C,R44*%
X79590137Y-20498875D02*
X79256804Y-20022685D01*
X79018709Y-20498875D02*
X79018709Y-19498875D01*
X79399661Y-19498875D01*
X79494899Y-19546495D01*
X79542518Y-19594114D01*
X79590137Y-19689352D01*
X79590137Y-19832209D01*
X79542518Y-19927447D01*
X79494899Y-19975066D01*
X79399661Y-20022685D01*
X79018709Y-20022685D01*
X80447280Y-19832209D02*
X80447280Y-20498875D01*
X80209185Y-19451256D02*
X79971090Y-20165542D01*
X80590137Y-20165542D01*
X81399661Y-19832209D02*
X81399661Y-20498875D01*
X81161566Y-19451256D02*
X80923471Y-20165542D01*
X81542518Y-20165542D01*
%TO.C,R45*%
X79590134Y-28118874D02*
X79256801Y-27642684D01*
X79018706Y-28118874D02*
X79018706Y-27118874D01*
X79399658Y-27118874D01*
X79494896Y-27166494D01*
X79542515Y-27214113D01*
X79590134Y-27309351D01*
X79590134Y-27452208D01*
X79542515Y-27547446D01*
X79494896Y-27595065D01*
X79399658Y-27642684D01*
X79018706Y-27642684D01*
X80447277Y-27452208D02*
X80447277Y-28118874D01*
X80209182Y-27071255D02*
X79971087Y-27785541D01*
X80590134Y-27785541D01*
X81447277Y-27118874D02*
X80971087Y-27118874D01*
X80923468Y-27595065D01*
X80971087Y-27547446D01*
X81066325Y-27499827D01*
X81304420Y-27499827D01*
X81399658Y-27547446D01*
X81447277Y-27595065D01*
X81494896Y-27690303D01*
X81494896Y-27928398D01*
X81447277Y-28023636D01*
X81399658Y-28071255D01*
X81304420Y-28118874D01*
X81066325Y-28118874D01*
X80971087Y-28071255D01*
X80923468Y-28023636D01*
%TO.C,R46*%
X89750135Y-25238875D02*
X89416802Y-24762685D01*
X89178707Y-25238875D02*
X89178707Y-24238875D01*
X89559659Y-24238875D01*
X89654897Y-24286495D01*
X89702516Y-24334114D01*
X89750135Y-24429352D01*
X89750135Y-24572209D01*
X89702516Y-24667447D01*
X89654897Y-24715066D01*
X89559659Y-24762685D01*
X89178707Y-24762685D01*
X90607278Y-24572209D02*
X90607278Y-25238875D01*
X90369183Y-24191256D02*
X90131088Y-24905542D01*
X90750135Y-24905542D01*
X91559659Y-24238875D02*
X91369183Y-24238875D01*
X91273945Y-24286495D01*
X91226326Y-24334114D01*
X91131088Y-24476971D01*
X91083469Y-24667447D01*
X91083469Y-25048399D01*
X91131088Y-25143637D01*
X91178707Y-25191256D01*
X91273945Y-25238875D01*
X91464421Y-25238875D01*
X91559659Y-25191256D01*
X91607278Y-25143637D01*
X91654897Y-25048399D01*
X91654897Y-24810304D01*
X91607278Y-24715066D01*
X91559659Y-24667447D01*
X91464421Y-24619828D01*
X91273945Y-24619828D01*
X91178707Y-24667447D01*
X91131088Y-24715066D01*
X91083469Y-24810304D01*
%TO.C,R47*%
X79590135Y-42088871D02*
X79256802Y-41612681D01*
X79018707Y-42088871D02*
X79018707Y-41088871D01*
X79399659Y-41088871D01*
X79494897Y-41136491D01*
X79542516Y-41184110D01*
X79590135Y-41279348D01*
X79590135Y-41422205D01*
X79542516Y-41517443D01*
X79494897Y-41565062D01*
X79399659Y-41612681D01*
X79018707Y-41612681D01*
X80447278Y-41422205D02*
X80447278Y-42088871D01*
X80209183Y-41041252D02*
X79971088Y-41755538D01*
X80590135Y-41755538D01*
X80875850Y-41088871D02*
X81542516Y-41088871D01*
X81113945Y-42088871D01*
%TO.C,R48*%
X89750136Y-16688874D02*
X89416803Y-16212684D01*
X89178708Y-16688874D02*
X89178708Y-15688874D01*
X89559660Y-15688874D01*
X89654898Y-15736494D01*
X89702517Y-15784113D01*
X89750136Y-15879351D01*
X89750136Y-16022208D01*
X89702517Y-16117446D01*
X89654898Y-16165065D01*
X89559660Y-16212684D01*
X89178708Y-16212684D01*
X90607279Y-16022208D02*
X90607279Y-16688874D01*
X90369184Y-15641255D02*
X90131089Y-16355541D01*
X90750136Y-16355541D01*
X91273946Y-16117446D02*
X91178708Y-16069827D01*
X91131089Y-16022208D01*
X91083470Y-15926970D01*
X91083470Y-15879351D01*
X91131089Y-15784113D01*
X91178708Y-15736494D01*
X91273946Y-15688874D01*
X91464422Y-15688874D01*
X91559660Y-15736494D01*
X91607279Y-15784113D01*
X91654898Y-15879351D01*
X91654898Y-15926970D01*
X91607279Y-16022208D01*
X91559660Y-16069827D01*
X91464422Y-16117446D01*
X91273946Y-16117446D01*
X91178708Y-16165065D01*
X91131089Y-16212684D01*
X91083470Y-16307922D01*
X91083470Y-16498398D01*
X91131089Y-16593636D01*
X91178708Y-16641255D01*
X91273946Y-16688874D01*
X91464422Y-16688874D01*
X91559660Y-16641255D01*
X91607279Y-16593636D01*
X91654898Y-16498398D01*
X91654898Y-16307922D01*
X91607279Y-16212684D01*
X91559660Y-16165065D01*
X91464422Y-16117446D01*
%TO.C,R49*%
X99910135Y-16688877D02*
X99576802Y-16212687D01*
X99338707Y-16688877D02*
X99338707Y-15688877D01*
X99719659Y-15688877D01*
X99814897Y-15736497D01*
X99862516Y-15784116D01*
X99910135Y-15879354D01*
X99910135Y-16022211D01*
X99862516Y-16117449D01*
X99814897Y-16165068D01*
X99719659Y-16212687D01*
X99338707Y-16212687D01*
X100767278Y-16022211D02*
X100767278Y-16688877D01*
X100529183Y-15641258D02*
X100291088Y-16355544D01*
X100910135Y-16355544D01*
X101338707Y-16688877D02*
X101529183Y-16688877D01*
X101624421Y-16641258D01*
X101672040Y-16593639D01*
X101767278Y-16450782D01*
X101814897Y-16260306D01*
X101814897Y-15879354D01*
X101767278Y-15784116D01*
X101719659Y-15736497D01*
X101624421Y-15688877D01*
X101433945Y-15688877D01*
X101338707Y-15736497D01*
X101291088Y-15784116D01*
X101243469Y-15879354D01*
X101243469Y-16117449D01*
X101291088Y-16212687D01*
X101338707Y-16260306D01*
X101433945Y-16307925D01*
X101624421Y-16307925D01*
X101719659Y-16260306D01*
X101767278Y-16212687D01*
X101814897Y-16117449D01*
%TO.C,R50*%
X92290136Y-33198876D02*
X91956803Y-32722686D01*
X91718708Y-33198876D02*
X91718708Y-32198876D01*
X92099660Y-32198876D01*
X92194898Y-32246496D01*
X92242517Y-32294115D01*
X92290136Y-32389353D01*
X92290136Y-32532210D01*
X92242517Y-32627448D01*
X92194898Y-32675067D01*
X92099660Y-32722686D01*
X91718708Y-32722686D01*
X93194898Y-32198876D02*
X92718708Y-32198876D01*
X92671089Y-32675067D01*
X92718708Y-32627448D01*
X92813946Y-32579829D01*
X93052041Y-32579829D01*
X93147279Y-32627448D01*
X93194898Y-32675067D01*
X93242517Y-32770305D01*
X93242517Y-33008400D01*
X93194898Y-33103638D01*
X93147279Y-33151257D01*
X93052041Y-33198876D01*
X92813946Y-33198876D01*
X92718708Y-33151257D01*
X92671089Y-33103638D01*
X93861565Y-32198876D02*
X93956803Y-32198876D01*
X94052041Y-32246496D01*
X94099660Y-32294115D01*
X94147279Y-32389353D01*
X94194898Y-32579829D01*
X94194898Y-32817924D01*
X94147279Y-33008400D01*
X94099660Y-33103638D01*
X94052041Y-33151257D01*
X93956803Y-33198876D01*
X93861565Y-33198876D01*
X93766327Y-33151257D01*
X93718708Y-33103638D01*
X93671089Y-33008400D01*
X93623470Y-32817924D01*
X93623470Y-32579829D01*
X93671089Y-32389353D01*
X93718708Y-32294115D01*
X93766327Y-32246496D01*
X93861565Y-32198876D01*
%TO.C,R51*%
X102450137Y-36012380D02*
X102116804Y-35536190D01*
X101878709Y-36012380D02*
X101878709Y-35012380D01*
X102259661Y-35012380D01*
X102354899Y-35060000D01*
X102402518Y-35107619D01*
X102450137Y-35202857D01*
X102450137Y-35345714D01*
X102402518Y-35440952D01*
X102354899Y-35488571D01*
X102259661Y-35536190D01*
X101878709Y-35536190D01*
X103354899Y-35012380D02*
X102878709Y-35012380D01*
X102831090Y-35488571D01*
X102878709Y-35440952D01*
X102973947Y-35393333D01*
X103212042Y-35393333D01*
X103307280Y-35440952D01*
X103354899Y-35488571D01*
X103402518Y-35583809D01*
X103402518Y-35821904D01*
X103354899Y-35917142D01*
X103307280Y-35964761D01*
X103212042Y-36012380D01*
X102973947Y-36012380D01*
X102878709Y-35964761D01*
X102831090Y-35917142D01*
X104354899Y-36012380D02*
X103783471Y-36012380D01*
X104069185Y-36012380D02*
X104069185Y-35012380D01*
X103973947Y-35155238D01*
X103878709Y-35250476D01*
X103783471Y-35298095D01*
%TO.C,R52*%
X110070133Y-16688876D02*
X109736800Y-16212686D01*
X109498705Y-16688876D02*
X109498705Y-15688876D01*
X109879657Y-15688876D01*
X109974895Y-15736496D01*
X110022514Y-15784115D01*
X110070133Y-15879353D01*
X110070133Y-16022210D01*
X110022514Y-16117448D01*
X109974895Y-16165067D01*
X109879657Y-16212686D01*
X109498705Y-16212686D01*
X110974895Y-15688876D02*
X110498705Y-15688876D01*
X110451086Y-16165067D01*
X110498705Y-16117448D01*
X110593943Y-16069829D01*
X110832038Y-16069829D01*
X110927276Y-16117448D01*
X110974895Y-16165067D01*
X111022514Y-16260305D01*
X111022514Y-16498400D01*
X110974895Y-16593638D01*
X110927276Y-16641257D01*
X110832038Y-16688876D01*
X110593943Y-16688876D01*
X110498705Y-16641257D01*
X110451086Y-16593638D01*
X111403467Y-15784115D02*
X111451086Y-15736496D01*
X111546324Y-15688876D01*
X111784419Y-15688876D01*
X111879657Y-15736496D01*
X111927276Y-15784115D01*
X111974895Y-15879353D01*
X111974895Y-15974591D01*
X111927276Y-16117448D01*
X111355848Y-16688876D01*
X111974895Y-16688876D01*
%TO.C,R53*%
X120230135Y-25852380D02*
X119896802Y-25376190D01*
X119658707Y-25852380D02*
X119658707Y-24852380D01*
X120039659Y-24852380D01*
X120134897Y-24900000D01*
X120182516Y-24947619D01*
X120230135Y-25042857D01*
X120230135Y-25185714D01*
X120182516Y-25280952D01*
X120134897Y-25328571D01*
X120039659Y-25376190D01*
X119658707Y-25376190D01*
X121134897Y-24852380D02*
X120658707Y-24852380D01*
X120611088Y-25328571D01*
X120658707Y-25280952D01*
X120753945Y-25233333D01*
X120992040Y-25233333D01*
X121087278Y-25280952D01*
X121134897Y-25328571D01*
X121182516Y-25423809D01*
X121182516Y-25661904D01*
X121134897Y-25757142D01*
X121087278Y-25804761D01*
X120992040Y-25852380D01*
X120753945Y-25852380D01*
X120658707Y-25804761D01*
X120611088Y-25757142D01*
X121515850Y-24852380D02*
X122134897Y-24852380D01*
X121801564Y-25233333D01*
X121944421Y-25233333D01*
X122039659Y-25280952D01*
X122087278Y-25328571D01*
X122134897Y-25423809D01*
X122134897Y-25661904D01*
X122087278Y-25757142D01*
X122039659Y-25804761D01*
X121944421Y-25852380D01*
X121658707Y-25852380D01*
X121563469Y-25804761D01*
X121515850Y-25757142D01*
%TO.C,R54*%
X120230135Y-16688876D02*
X119896802Y-16212686D01*
X119658707Y-16688876D02*
X119658707Y-15688876D01*
X120039659Y-15688876D01*
X120134897Y-15736496D01*
X120182516Y-15784115D01*
X120230135Y-15879353D01*
X120230135Y-16022210D01*
X120182516Y-16117448D01*
X120134897Y-16165067D01*
X120039659Y-16212686D01*
X119658707Y-16212686D01*
X121134897Y-15688876D02*
X120658707Y-15688876D01*
X120611088Y-16165067D01*
X120658707Y-16117448D01*
X120753945Y-16069829D01*
X120992040Y-16069829D01*
X121087278Y-16117448D01*
X121134897Y-16165067D01*
X121182516Y-16260305D01*
X121182516Y-16498400D01*
X121134897Y-16593638D01*
X121087278Y-16641257D01*
X120992040Y-16688876D01*
X120753945Y-16688876D01*
X120658707Y-16641257D01*
X120611088Y-16593638D01*
X122039659Y-16022210D02*
X122039659Y-16688876D01*
X121801564Y-15641257D02*
X121563469Y-16355543D01*
X122182516Y-16355543D01*
%TO.C,R55*%
X127505376Y-30679353D02*
X127029186Y-31012686D01*
X127505376Y-31250781D02*
X126505376Y-31250781D01*
X126505376Y-30869829D01*
X126552996Y-30774591D01*
X126600615Y-30726972D01*
X126695853Y-30679353D01*
X126838710Y-30679353D01*
X126933948Y-30726972D01*
X126981567Y-30774591D01*
X127029186Y-30869829D01*
X127029186Y-31250781D01*
X126505376Y-29774591D02*
X126505376Y-30250781D01*
X126981567Y-30298400D01*
X126933948Y-30250781D01*
X126886329Y-30155543D01*
X126886329Y-29917448D01*
X126933948Y-29822210D01*
X126981567Y-29774591D01*
X127076805Y-29726972D01*
X127314900Y-29726972D01*
X127410138Y-29774591D01*
X127457757Y-29822210D01*
X127505376Y-29917448D01*
X127505376Y-30155543D01*
X127457757Y-30250781D01*
X127410138Y-30298400D01*
X126505376Y-28822210D02*
X126505376Y-29298400D01*
X126981567Y-29346019D01*
X126933948Y-29298400D01*
X126886329Y-29203162D01*
X126886329Y-28965067D01*
X126933948Y-28869829D01*
X126981567Y-28822210D01*
X127076805Y-28774591D01*
X127314900Y-28774591D01*
X127410138Y-28822210D01*
X127457757Y-28869829D01*
X127505376Y-28965067D01*
X127505376Y-29203162D01*
X127457757Y-29298400D01*
X127410138Y-29346019D01*
%TO.C,R56*%
X107998356Y-36740472D02*
X107665023Y-36264282D01*
X107426928Y-36740472D02*
X107426928Y-35740472D01*
X107807880Y-35740472D01*
X107903118Y-35788092D01*
X107950737Y-35835711D01*
X107998356Y-35930949D01*
X107998356Y-36073806D01*
X107950737Y-36169044D01*
X107903118Y-36216663D01*
X107807880Y-36264282D01*
X107426928Y-36264282D01*
X108903118Y-35740472D02*
X108426928Y-35740472D01*
X108379309Y-36216663D01*
X108426928Y-36169044D01*
X108522166Y-36121425D01*
X108760261Y-36121425D01*
X108855499Y-36169044D01*
X108903118Y-36216663D01*
X108950737Y-36311901D01*
X108950737Y-36549996D01*
X108903118Y-36645234D01*
X108855499Y-36692853D01*
X108760261Y-36740472D01*
X108522166Y-36740472D01*
X108426928Y-36692853D01*
X108379309Y-36645234D01*
X109807880Y-35740472D02*
X109617404Y-35740472D01*
X109522166Y-35788092D01*
X109474547Y-35835711D01*
X109379309Y-35978568D01*
X109331690Y-36169044D01*
X109331690Y-36549996D01*
X109379309Y-36645234D01*
X109426928Y-36692853D01*
X109522166Y-36740472D01*
X109712642Y-36740472D01*
X109807880Y-36692853D01*
X109855499Y-36645234D01*
X109903118Y-36549996D01*
X109903118Y-36311901D01*
X109855499Y-36216663D01*
X109807880Y-36169044D01*
X109712642Y-36121425D01*
X109522166Y-36121425D01*
X109426928Y-36169044D01*
X109379309Y-36216663D01*
X109331690Y-36311901D01*
%TO.C,R57*%
X115145376Y-30679353D02*
X114669186Y-31012686D01*
X115145376Y-31250781D02*
X114145376Y-31250781D01*
X114145376Y-30869829D01*
X114192996Y-30774591D01*
X114240615Y-30726972D01*
X114335853Y-30679353D01*
X114478710Y-30679353D01*
X114573948Y-30726972D01*
X114621567Y-30774591D01*
X114669186Y-30869829D01*
X114669186Y-31250781D01*
X114145376Y-29774591D02*
X114145376Y-30250781D01*
X114621567Y-30298400D01*
X114573948Y-30250781D01*
X114526329Y-30155543D01*
X114526329Y-29917448D01*
X114573948Y-29822210D01*
X114621567Y-29774591D01*
X114716805Y-29726972D01*
X114954900Y-29726972D01*
X115050138Y-29774591D01*
X115097757Y-29822210D01*
X115145376Y-29917448D01*
X115145376Y-30155543D01*
X115097757Y-30250781D01*
X115050138Y-30298400D01*
X114145376Y-29393638D02*
X114145376Y-28726972D01*
X115145376Y-29155543D01*
%TO.C,R58*%
X135072380Y-46362857D02*
X134596190Y-46696190D01*
X135072380Y-46934285D02*
X134072380Y-46934285D01*
X134072380Y-46553333D01*
X134120000Y-46458095D01*
X134167619Y-46410476D01*
X134262857Y-46362857D01*
X134405714Y-46362857D01*
X134500952Y-46410476D01*
X134548571Y-46458095D01*
X134596190Y-46553333D01*
X134596190Y-46934285D01*
X134072380Y-45458095D02*
X134072380Y-45934285D01*
X134548571Y-45981904D01*
X134500952Y-45934285D01*
X134453333Y-45839047D01*
X134453333Y-45600952D01*
X134500952Y-45505714D01*
X134548571Y-45458095D01*
X134643809Y-45410476D01*
X134881904Y-45410476D01*
X134977142Y-45458095D01*
X135024761Y-45505714D01*
X135072380Y-45600952D01*
X135072380Y-45839047D01*
X135024761Y-45934285D01*
X134977142Y-45981904D01*
X134500952Y-44839047D02*
X134453333Y-44934285D01*
X134405714Y-44981904D01*
X134310476Y-45029523D01*
X134262857Y-45029523D01*
X134167619Y-44981904D01*
X134120000Y-44934285D01*
X134072380Y-44839047D01*
X134072380Y-44648571D01*
X134120000Y-44553333D01*
X134167619Y-44505714D01*
X134262857Y-44458095D01*
X134310476Y-44458095D01*
X134405714Y-44505714D01*
X134453333Y-44553333D01*
X134500952Y-44648571D01*
X134500952Y-44839047D01*
X134548571Y-44934285D01*
X134596190Y-44981904D01*
X134691428Y-45029523D01*
X134881904Y-45029523D01*
X134977142Y-44981904D01*
X135024761Y-44934285D01*
X135072380Y-44839047D01*
X135072380Y-44648571D01*
X135024761Y-44553333D01*
X134977142Y-44505714D01*
X134881904Y-44458095D01*
X134691428Y-44458095D01*
X134596190Y-44505714D01*
X134548571Y-44553333D01*
X134500952Y-44648571D01*
%TO.C,R59*%
X132707142Y-36883940D02*
X132373809Y-36407750D01*
X132135714Y-36883940D02*
X132135714Y-35883940D01*
X132516666Y-35883940D01*
X132611904Y-35931560D01*
X132659523Y-35979179D01*
X132707142Y-36074417D01*
X132707142Y-36217274D01*
X132659523Y-36312512D01*
X132611904Y-36360131D01*
X132516666Y-36407750D01*
X132135714Y-36407750D01*
X133611904Y-35883940D02*
X133135714Y-35883940D01*
X133088095Y-36360131D01*
X133135714Y-36312512D01*
X133230952Y-36264893D01*
X133469047Y-36264893D01*
X133564285Y-36312512D01*
X133611904Y-36360131D01*
X133659523Y-36455369D01*
X133659523Y-36693464D01*
X133611904Y-36788702D01*
X133564285Y-36836321D01*
X133469047Y-36883940D01*
X133230952Y-36883940D01*
X133135714Y-36836321D01*
X133088095Y-36788702D01*
X134135714Y-36883940D02*
X134326190Y-36883940D01*
X134421428Y-36836321D01*
X134469047Y-36788702D01*
X134564285Y-36645845D01*
X134611904Y-36455369D01*
X134611904Y-36074417D01*
X134564285Y-35979179D01*
X134516666Y-35931560D01*
X134421428Y-35883940D01*
X134230952Y-35883940D01*
X134135714Y-35931560D01*
X134088095Y-35979179D01*
X134040476Y-36074417D01*
X134040476Y-36312512D01*
X134088095Y-36407750D01*
X134135714Y-36455369D01*
X134230952Y-36502988D01*
X134421428Y-36502988D01*
X134516666Y-36455369D01*
X134564285Y-36407750D01*
X134611904Y-36312512D01*
%TO.C,R60*%
X127622380Y-46362857D02*
X127146190Y-46696190D01*
X127622380Y-46934285D02*
X126622380Y-46934285D01*
X126622380Y-46553333D01*
X126670000Y-46458095D01*
X126717619Y-46410476D01*
X126812857Y-46362857D01*
X126955714Y-46362857D01*
X127050952Y-46410476D01*
X127098571Y-46458095D01*
X127146190Y-46553333D01*
X127146190Y-46934285D01*
X126622380Y-45505714D02*
X126622380Y-45696190D01*
X126670000Y-45791428D01*
X126717619Y-45839047D01*
X126860476Y-45934285D01*
X127050952Y-45981904D01*
X127431904Y-45981904D01*
X127527142Y-45934285D01*
X127574761Y-45886666D01*
X127622380Y-45791428D01*
X127622380Y-45600952D01*
X127574761Y-45505714D01*
X127527142Y-45458095D01*
X127431904Y-45410476D01*
X127193809Y-45410476D01*
X127098571Y-45458095D01*
X127050952Y-45505714D01*
X127003333Y-45600952D01*
X127003333Y-45791428D01*
X127050952Y-45886666D01*
X127098571Y-45934285D01*
X127193809Y-45981904D01*
X126622380Y-44791428D02*
X126622380Y-44696190D01*
X126670000Y-44600952D01*
X126717619Y-44553333D01*
X126812857Y-44505714D01*
X127003333Y-44458095D01*
X127241428Y-44458095D01*
X127431904Y-44505714D01*
X127527142Y-44553333D01*
X127574761Y-44600952D01*
X127622380Y-44696190D01*
X127622380Y-44791428D01*
X127574761Y-44886666D01*
X127527142Y-44934285D01*
X127431904Y-44981904D01*
X127241428Y-45029523D01*
X127003333Y-45029523D01*
X126812857Y-44981904D01*
X126717619Y-44934285D01*
X126670000Y-44886666D01*
X126622380Y-44791428D01*
%TO.C,RV2*%
X42439221Y-59588984D02*
X42540236Y-59016564D01*
X42035160Y-59184923D02*
X42742267Y-58477816D01*
X43011641Y-58747190D01*
X43045312Y-58848206D01*
X43045312Y-58915549D01*
X43011641Y-59016564D01*
X42910625Y-59117580D01*
X42809610Y-59151251D01*
X42742267Y-59151251D01*
X42641251Y-59117580D01*
X42371877Y-58848206D01*
X43348358Y-59083908D02*
X42876954Y-60026717D01*
X43819763Y-59555312D01*
X43954450Y-59824687D02*
X44021793Y-59824687D01*
X44122809Y-59858358D01*
X44291167Y-60026717D01*
X44324839Y-60127732D01*
X44324839Y-60195076D01*
X44291167Y-60296091D01*
X44223824Y-60363435D01*
X44089137Y-60430778D01*
X43281015Y-60430778D01*
X43718748Y-60868511D01*
%TO.C,RV3*%
X76652380Y-37601733D02*
X76176190Y-37935066D01*
X76652380Y-38173161D02*
X75652380Y-38173161D01*
X75652380Y-37792209D01*
X75700000Y-37696971D01*
X75747619Y-37649352D01*
X75842857Y-37601733D01*
X75985714Y-37601733D01*
X76080952Y-37649352D01*
X76128571Y-37696971D01*
X76176190Y-37792209D01*
X76176190Y-38173161D01*
X75652380Y-37316018D02*
X76652380Y-36982685D01*
X75652380Y-36649352D01*
X75652380Y-36411256D02*
X75652380Y-35792209D01*
X76033333Y-36125542D01*
X76033333Y-35982685D01*
X76080952Y-35887447D01*
X76128571Y-35839828D01*
X76223809Y-35792209D01*
X76461904Y-35792209D01*
X76557142Y-35839828D01*
X76604761Y-35887447D01*
X76652380Y-35982685D01*
X76652380Y-36268399D01*
X76604761Y-36363637D01*
X76557142Y-36411256D01*
%TO.C,U1*%
X97278457Y-73904227D02*
X97798809Y-74524358D01*
X97896505Y-74566706D01*
X97963592Y-74572575D01*
X98067158Y-74547836D01*
X98213071Y-74425400D01*
X98255419Y-74327704D01*
X98261288Y-74260616D01*
X98236548Y-74157051D01*
X97716197Y-73536920D01*
X99125029Y-73660177D02*
X98687289Y-74027484D01*
X98906159Y-73843830D02*
X98263371Y-73077786D01*
X98282241Y-73248438D01*
X98270503Y-73382613D01*
X98228155Y-73480309D01*
%TO.C,U2*%
X82324317Y-99161314D02*
X81704186Y-99681666D01*
X81661838Y-99779362D01*
X81655969Y-99846449D01*
X81680708Y-99950015D01*
X81803144Y-100095928D01*
X81900840Y-100138276D01*
X81967928Y-100144145D01*
X82071493Y-100119405D01*
X82691624Y-99599054D01*
X82894148Y-99988576D02*
X82961235Y-99994446D01*
X83058931Y-100036793D01*
X83211976Y-100219185D01*
X83236716Y-100322750D01*
X83230846Y-100389838D01*
X83188499Y-100487534D01*
X83115542Y-100548752D01*
X82975498Y-100604100D01*
X82170451Y-100533668D01*
X82568367Y-101007886D01*
%TO.C,U3*%
X36678477Y-49874027D02*
X36106057Y-50446447D01*
X36072385Y-50547462D01*
X36072385Y-50614806D01*
X36106057Y-50715821D01*
X36240744Y-50850508D01*
X36341759Y-50884180D01*
X36409103Y-50884180D01*
X36510118Y-50850508D01*
X37082538Y-50278088D01*
X37351912Y-50547462D02*
X37789644Y-50985195D01*
X37284568Y-51018867D01*
X37385583Y-51119882D01*
X37419255Y-51220897D01*
X37419255Y-51288241D01*
X37385583Y-51389256D01*
X37217225Y-51557615D01*
X37116209Y-51591287D01*
X37048866Y-51591287D01*
X36947851Y-51557615D01*
X36745820Y-51355584D01*
X36712148Y-51254569D01*
X36712148Y-51187226D01*
%TO.C,U4*%
X64087060Y-57966157D02*
X63514640Y-58538577D01*
X63480968Y-58639592D01*
X63480968Y-58706936D01*
X63514640Y-58807951D01*
X63649327Y-58942638D01*
X63750342Y-58976310D01*
X63817686Y-58976310D01*
X63918701Y-58942638D01*
X64491121Y-58370218D01*
X64895182Y-59245684D02*
X64423777Y-59717088D01*
X64996197Y-58807951D02*
X64322762Y-59144669D01*
X64760495Y-59582401D01*
%TO.C,U5*%
X126754897Y-61879626D02*
X126134766Y-62399978D01*
X126092418Y-62497674D01*
X126086549Y-62564761D01*
X126111288Y-62668327D01*
X126233724Y-62814240D01*
X126331420Y-62856588D01*
X126398508Y-62862457D01*
X126502073Y-62837717D01*
X127122204Y-62317366D01*
X127734383Y-63046932D02*
X127428294Y-62682149D01*
X127032902Y-62951760D01*
X127099989Y-62957629D01*
X127197685Y-62999977D01*
X127350730Y-63182368D01*
X127375469Y-63285934D01*
X127369600Y-63353021D01*
X127327252Y-63450717D01*
X127144861Y-63603762D01*
X127041295Y-63628501D01*
X126974208Y-63622632D01*
X126876512Y-63580284D01*
X126723467Y-63397893D01*
X126698727Y-63294327D01*
X126704597Y-63227240D01*
%TO.C,U6*%
X107415377Y-28258399D02*
X108224901Y-28258399D01*
X108320139Y-28210780D01*
X108367758Y-28163161D01*
X108415377Y-28067923D01*
X108415377Y-27877447D01*
X108367758Y-27782209D01*
X108320139Y-27734590D01*
X108224901Y-27686971D01*
X107415377Y-27686971D01*
X107415377Y-26782209D02*
X107415377Y-26972685D01*
X107462997Y-27067923D01*
X107510616Y-27115542D01*
X107653473Y-27210780D01*
X107843949Y-27258399D01*
X108224901Y-27258399D01*
X108320139Y-27210780D01*
X108367758Y-27163161D01*
X108415377Y-27067923D01*
X108415377Y-26877447D01*
X108367758Y-26782209D01*
X108320139Y-26734590D01*
X108224901Y-26686971D01*
X107986806Y-26686971D01*
X107891568Y-26734590D01*
X107843949Y-26782209D01*
X107796330Y-26877447D01*
X107796330Y-27067923D01*
X107843949Y-27163161D01*
X107891568Y-27210780D01*
X107986806Y-27258399D01*
%TO.C,U7*%
X132522315Y-14777920D02*
X132522315Y-15587444D01*
X132569934Y-15682682D01*
X132617553Y-15730301D01*
X132712791Y-15777920D01*
X132903267Y-15777920D01*
X132998505Y-15730301D01*
X133046124Y-15682682D01*
X133093743Y-15587444D01*
X133093743Y-14777920D01*
X133474696Y-14777920D02*
X134141362Y-14777920D01*
X133712791Y-15777920D01*
%TO.C,U8*%
X119888095Y-34836953D02*
X119888095Y-35646477D01*
X119935714Y-35741715D01*
X119983333Y-35789334D01*
X120078571Y-35836953D01*
X120269047Y-35836953D01*
X120364285Y-35789334D01*
X120411904Y-35741715D01*
X120459523Y-35646477D01*
X120459523Y-34836953D01*
X121078571Y-35265525D02*
X120983333Y-35217906D01*
X120935714Y-35170287D01*
X120888095Y-35075049D01*
X120888095Y-35027430D01*
X120935714Y-34932192D01*
X120983333Y-34884573D01*
X121078571Y-34836953D01*
X121269047Y-34836953D01*
X121364285Y-34884573D01*
X121411904Y-34932192D01*
X121459523Y-35027430D01*
X121459523Y-35075049D01*
X121411904Y-35170287D01*
X121364285Y-35217906D01*
X121269047Y-35265525D01*
X121078571Y-35265525D01*
X120983333Y-35313144D01*
X120935714Y-35360763D01*
X120888095Y-35456001D01*
X120888095Y-35646477D01*
X120935714Y-35741715D01*
X120983333Y-35789334D01*
X121078571Y-35836953D01*
X121269047Y-35836953D01*
X121364285Y-35789334D01*
X121411904Y-35741715D01*
X121459523Y-35646477D01*
X121459523Y-35456001D01*
X121411904Y-35360763D01*
X121364285Y-35313144D01*
X121269047Y-35265525D01*
%TD*%
M02*
