M48
; DRILL file {KiCad (5.1.2-1)-1} date Monday, February 01, 2021 at 01:45:39 PM
; FORMAT={-:-/ absolute / inch / decimal}
; #@! TF.CreationDate,2021-02-01T13:45:39-05:00
; #@! TF.GenerationSoftware,Kicad,Pcbnew,(5.1.2-1)-1
FMAT,2
INCH
T1C0.0315
T2C0.0394
T3C0.0394
T4C0.1378
%
G90
G05
T1
X0.82Y-1.38
X0.92Y-1.38
X1.02Y-1.38
X1.15Y-1.22
X1.3Y-1.4798
X4.01Y-1.51
X4.195Y-1.4427
X4.9344Y-1.6914
X5.04Y-1.78
X4.44Y-1.81
X4.5384Y-1.81
X3.54Y-1.39
X3.7998Y-1.24
X5.18Y-3.43
X5.2784Y-3.43
X2.24Y-4.1
X2.4698Y-4.2928
X1.58Y-2.3502
X1.73Y-2.61
X3.87Y-3.48
X4.0998Y-3.2872
X2.84Y-3.73
X2.84Y-4.03
X0.82Y-2.1
X0.92Y-2.1
X1.02Y-2.1
X2.3931Y-4.04
X2.59Y-4.04
X4.3272Y-1.3902
X4.52Y-1.62
X2.089Y-3.619
X2.089Y-3.919
X2.189Y-3.619
X2.189Y-3.919
X2.289Y-3.619
X2.289Y-3.919
X2.389Y-3.619
X2.389Y-3.919
X1.3576Y-2.8513
X1.5084Y-2.7248
X4.73Y-3.58
X4.9898Y-3.43
X4.66Y-1.28
X4.7584Y-1.28
X2.8931Y-4.2171
X2.99Y-4.2
X3.5416Y-2.34
X3.64Y-2.34
X2.7Y-1.13
X2.8928Y-1.3598
X1.58Y-1.32
X1.73Y-1.0602
X3.4Y-2.18
X3.4Y-2.48
X4.749Y-2.673
X4.749Y-2.973
X3.2929Y-3.5531
X3.31Y-3.65
X1.3554Y-3.443
X1.5062Y-3.3165
X4.8Y-3.71
X5.0598Y-3.56
X2.44Y-1.65
X2.44Y-1.95
X2.54Y-1.65
X2.54Y-1.95
X2.64Y-1.65
X2.64Y-1.95
X2.74Y-1.65
X2.74Y-1.95
X2.84Y-1.65
X2.84Y-1.95
X2.94Y-1.65
X2.94Y-1.95
X3.04Y-1.65
X3.04Y-1.95
X3.14Y-1.65
X3.14Y-1.95
X1.65Y-1.6831
X1.65Y-1.88
X2.6072Y-1.2502
X2.8Y-1.48
X2.4Y-3.17
X2.4Y-3.47
X1.5202Y-2.26
X1.78Y-2.11
X2.1Y-3.47
X2.2508Y-3.3435
X4.5367Y-3.0346
X4.6Y-3.11
X1.56Y-3.13
X1.8198Y-2.98
X2.1672Y-3.2398
X2.36Y-3.01
X2.41Y-1.1902
X2.56Y-1.45
X4.37Y-2.13
X4.37Y-2.2284
X3.27Y-3.8802
X3.3566Y-3.8302
X3.42Y-4.14
X3.4432Y-3.7802
X3.5066Y-4.09
X3.5298Y-3.7302
X3.5932Y-4.04
X3.6798Y-3.99
X1.1046Y-2.4921
X1.4Y-2.44
X3.63Y-3.67
X3.8005Y-3.5716
X2.81Y-2.4
X2.9805Y-2.3016
X3.04Y-1.24
X3.04Y-1.54
X1.82Y-2.21
X1.97Y-2.4698
X3.8755Y-1.1007
X3.9097Y-1.1947
X3.9439Y-1.2886
X3.9781Y-1.3826
X4.1574Y-0.9981
X4.1916Y-1.0921
X4.2258Y-1.186
X4.26Y-1.28
X5.18Y-2.58
X5.18Y-2.88
X1.24Y-2.06
X1.3384Y-2.2305
X4.3572Y-1.1402
X4.55Y-1.37
X4.153Y-1.801
X4.153Y-2.101
X1.2083Y-3.6987
X1.3788Y-3.7971
X0.92Y-1.62
X0.92Y-1.92
X1.02Y-1.62
X1.02Y-1.92
X1.12Y-1.62
X1.12Y-1.92
X1.22Y-1.62
X1.22Y-1.92
X1.32Y-1.62
X1.32Y-1.92
X1.42Y-1.62
X1.42Y-1.92
X1.52Y-1.62
X1.52Y-1.92
X4.4675Y-0.7463
X4.56Y-0.78
X0.9273Y-2.8207
X1.1571Y-2.6279
X3.27Y-1.65
X3.27Y-1.95
X2.79Y-2.26
X3.0498Y-2.11
X1.243Y-3.3723
X1.4728Y-3.1795
X4.66Y-3.7731
X4.66Y-3.97
X2.71Y-3.73
X2.71Y-4.03
X3.3846Y-1.5433
X3.46Y-1.48
X2.8261Y-1.0458
X3.02Y-1.08
X1.5102Y-1.43
X1.77Y-1.58
X0.972Y-3.0404
X1.0362Y-3.117
X1.1005Y-3.1936
X1.1648Y-3.2702
X1.2018Y-2.8476
X1.266Y-2.9242
X1.3303Y-3.0008
X1.3946Y-3.0774
X4.2092Y-0.8335
X4.36Y-0.96
X3.27Y-2.04
X3.27Y-2.34
X2.53Y-3.23
X2.53Y-3.4269
X4.84Y-2.2816
X4.84Y-2.38
X1.82Y-1.4698
X1.97Y-1.21
X3.65Y-1.88
X3.65Y-2.18
X4.81Y-3.88
X5.0698Y-3.73
X2.5472Y-2.3198
X2.74Y-2.09
X1.4361Y-3.5383
X1.5387Y-3.8202
X1.078Y-3.3965
X1.1453Y-3.5815
T2
X5.174Y-2.982
X5.174Y-3.182
X1.95Y-3.7
X1.95Y-3.9
X4.62Y-2.68
X4.62Y-2.88
X0.793Y-1.1247
X0.99Y-1.09
X0.9121Y-2.3484
X1.1Y-2.28
T3
X0.8354Y-2.8979
X4.86Y-2.55
X5.08Y-1.07
X5.23Y-1.07
X5.03Y-2.94
X5.08Y-1.45
X5.23Y-1.45
X4.37Y-2.39
X2.03Y-1.11
X5.08Y-1.26
X5.23Y-1.26
X2.44Y-2.91
X2.63Y-4.26
X1.79Y-2.72
X1.79Y-0.96
X2.03Y-2.57
X4.58Y-1.1
T4
X0.72Y-4.2
X0.72Y-0.71
T0
M30
