G04 #@! TF.GenerationSoftware,KiCad,Pcbnew,(5.1.2-1)-1*
G04 #@! TF.CreationDate,2021-02-01T13:45:36-05:00*
G04 #@! TF.ProjectId,MFOS - Voltage Controlled Reverb,4d464f53-202d-4205-966f-6c7461676520,rev?*
G04 #@! TF.SameCoordinates,Original*
G04 #@! TF.FileFunction,Copper,L1,Top*
G04 #@! TF.FilePolarity,Positive*
%FSLAX46Y46*%
G04 Gerber Fmt 4.6, Leading zero omitted, Abs format (unit mm)*
G04 Created by KiCad (PCBNEW (5.1.2-1)-1) date 2021-02-01 13:45:36*
%MOMM*%
%LPD*%
G04 APERTURE LIST*
%ADD10C,7.000000*%
%ADD11C,1.600000*%
%ADD12C,0.100000*%
%ADD13R,1.600000X1.600000*%
%ADD14R,1.500000X1.500000*%
%ADD15C,1.500000*%
%ADD16C,2.000000*%
%ADD17C,2.000000*%
%ADD18R,2.000000X2.000000*%
%ADD19O,2.000000X2.000000*%
%ADD20C,2.499360*%
%ADD21R,2.499360X2.499360*%
%ADD22C,1.600000*%
%ADD23O,1.600000X1.600000*%
%ADD24C,0.500000*%
%ADD25C,0.400000*%
G04 APERTURE END LIST*
D10*
X18288000Y-106680000D03*
X18288000Y-18034000D03*
D11*
X113474768Y-18956950D03*
X115824000Y-19812000D03*
D12*
G36*
X116849370Y-19333862D02*
G01*
X116302138Y-20837370D01*
X114798630Y-20290138D01*
X115345862Y-18786630D01*
X116849370Y-19333862D01*
X116849370Y-19333862D01*
G37*
D11*
X110998000Y-56602000D03*
D13*
X110998000Y-54102000D03*
D11*
X83639880Y-90247981D03*
X84074000Y-92710000D03*
D12*
G36*
X85000765Y-93358928D02*
G01*
X83425072Y-93636765D01*
X83147235Y-92061072D01*
X84722928Y-91783235D01*
X85000765Y-93358928D01*
X85000765Y-93358928D01*
G37*
D11*
X134072000Y-87122000D03*
D13*
X131572000Y-87122000D03*
D11*
X122936000Y-57952000D03*
D13*
X122936000Y-60452000D03*
D11*
X73483981Y-107114120D03*
X75946000Y-106680000D03*
D12*
G36*
X76594928Y-105753235D02*
G01*
X76872765Y-107328928D01*
X75297072Y-107606765D01*
X75019235Y-106031072D01*
X76594928Y-105753235D01*
X76594928Y-105753235D01*
G37*
D11*
X120864000Y-32512000D03*
D13*
X118364000Y-32512000D03*
D11*
X85968889Y-39198969D03*
X87884000Y-37592000D03*
D12*
G36*
X87982605Y-36464934D02*
G01*
X89011066Y-37690605D01*
X87785395Y-38719066D01*
X86756934Y-37493395D01*
X87982605Y-36464934D01*
X87982605Y-36464934D01*
G37*
D11*
X115276000Y-45974000D03*
D13*
X112776000Y-45974000D03*
D11*
X89956000Y-59436000D03*
D13*
X92456000Y-59436000D03*
D11*
X115233031Y-77078889D03*
X116840000Y-78994000D03*
D12*
G36*
X117967066Y-79092605D02*
G01*
X116741395Y-80121066D01*
X115712934Y-78895395D01*
X116938605Y-77866934D01*
X117967066Y-79092605D01*
X117967066Y-79092605D01*
G37*
D14*
X25908000Y-35052000D03*
D15*
X20828000Y-35052000D03*
X23368000Y-35052000D03*
D14*
X25908000Y-53340000D03*
D15*
X20828000Y-53340000D03*
X23368000Y-53340000D03*
D11*
X38258061Y-84237861D03*
X34427839Y-87451799D03*
X96532127Y-90718000D03*
X92202000Y-93218000D03*
X35021677Y-96447442D03*
X30691550Y-93947442D03*
X64262000Y-87042000D03*
X64262000Y-82042000D03*
X106552463Y-36643899D03*
X101854000Y-38354000D03*
X34483068Y-72422786D03*
X38313290Y-69208848D03*
X57170222Y-84924062D03*
X53340000Y-88138000D03*
X31496000Y-52324000D03*
X33996000Y-56654127D03*
X71783961Y-26563759D03*
X76708000Y-27432000D03*
X128016000Y-45212000D03*
D12*
G36*
X129143066Y-45113395D02*
G01*
X128114605Y-46339066D01*
X126888934Y-45310605D01*
X127917395Y-44084934D01*
X129143066Y-45113395D01*
X129143066Y-45113395D01*
G37*
D11*
X125334844Y-42962243D03*
X110744000Y-24384000D03*
X106913778Y-21170062D03*
X27381492Y-86272186D03*
X29091593Y-90970649D03*
X65786000Y-102616000D03*
X60786000Y-102616000D03*
X41910000Y-42752000D03*
X41910000Y-47752000D03*
X71374000Y-60960000D03*
X75704127Y-58460000D03*
X118364000Y-95838000D03*
X118364000Y-100838000D03*
D16*
X23166361Y-59649462D03*
D17*
X23166361Y-59649462D02*
X23166361Y-59649462D01*
D16*
X27940000Y-57912000D03*
D12*
G36*
X28537672Y-56630287D02*
G01*
X29221713Y-58509672D01*
X27342328Y-59193713D01*
X26658287Y-57314328D01*
X28537672Y-56630287D01*
X28537672Y-56630287D01*
G37*
D16*
X25146000Y-27686000D03*
D12*
G36*
X25957160Y-26527544D02*
G01*
X26304456Y-28497160D01*
X24334840Y-28844456D01*
X23987544Y-26874840D01*
X25957160Y-26527544D01*
X25957160Y-26527544D01*
G37*
D16*
X20143177Y-28568133D03*
D17*
X20143177Y-28568133D02*
X20143177Y-28568133D01*
D18*
X49530000Y-93980000D03*
D19*
X49530000Y-99060000D03*
X131419600Y-80822800D03*
D18*
X131419600Y-75742800D03*
D20*
X51562000Y-65278000D03*
X116332000Y-27940000D03*
X45466000Y-24384000D03*
X45466000Y-69088000D03*
X51562000Y-28194000D03*
X61976000Y-73914000D03*
X66802000Y-108204000D03*
X21218287Y-73606053D03*
X123444000Y-64770000D03*
X110998000Y-60706000D03*
D21*
X129032000Y-32004000D03*
D20*
X132842000Y-32004000D03*
X132842000Y-36830000D03*
D21*
X129032000Y-36830000D03*
X129032000Y-27178000D03*
D20*
X132842000Y-27178000D03*
X127762000Y-74676000D03*
D11*
X29390451Y-66748795D03*
X23553192Y-71646837D03*
D22*
X23553192Y-71646837D02*
X23553192Y-71646837D01*
D11*
X36477041Y-89872162D03*
D22*
X36477041Y-89872162D02*
X36477041Y-89872162D01*
D11*
X39083234Y-97032620D03*
X31572652Y-85657329D03*
X37409911Y-80759287D03*
D22*
X37409911Y-80759287D02*
X37409911Y-80759287D01*
D11*
X120624600Y-75514200D03*
D23*
X120624600Y-67894200D03*
X131572000Y-73152000D03*
D11*
X131572000Y-65532000D03*
X98298000Y-88392000D03*
X104135259Y-83493958D03*
D22*
X104135259Y-83493958D02*
X104135259Y-83493958D01*
D11*
X35560000Y-61976000D03*
X28055765Y-63299199D03*
D22*
X28055765Y-63299199D02*
X28055765Y-63299199D01*
D11*
X39624000Y-79502000D03*
X46223114Y-75692000D03*
D22*
X46223114Y-75692000D02*
X46223114Y-75692000D01*
D11*
X120142000Y-90932000D03*
X126741114Y-87122000D03*
D22*
X126741114Y-87122000D02*
X126741114Y-87122000D01*
D11*
X83058000Y-59436000D03*
D23*
X83058000Y-51816000D03*
D11*
X45212000Y-53594000D03*
X38612886Y-57404000D03*
D22*
X38612886Y-57404000D02*
X38612886Y-57404000D01*
D11*
X64697958Y-58923259D03*
D22*
X64697958Y-58923259D02*
X64697958Y-58923259D01*
D11*
X69596000Y-53086000D03*
X50038000Y-62733114D03*
D22*
X50038000Y-62733114D02*
X50038000Y-62733114D01*
D11*
X46228000Y-56134000D03*
X43942000Y-66294000D03*
X40132000Y-59694886D03*
D22*
X40132000Y-59694886D02*
X40132000Y-59694886D01*
D11*
X77465114Y-53594000D03*
D22*
X77465114Y-53594000D02*
X77465114Y-53594000D01*
D11*
X70866000Y-57404000D03*
X86360000Y-62992000D03*
D23*
X86360000Y-55372000D03*
X92710000Y-47752000D03*
D11*
X92710000Y-55372000D03*
X61214000Y-30230886D03*
D22*
X61214000Y-30230886D02*
X61214000Y-30230886D01*
D11*
X65024000Y-36830000D03*
X89916000Y-35306000D03*
X96515114Y-31496000D03*
D22*
X96515114Y-31496000D02*
X96515114Y-31496000D01*
D23*
X105486200Y-45745400D03*
D11*
X105486200Y-53365400D03*
X33020000Y-37587114D03*
D22*
X33020000Y-37587114D02*
X33020000Y-37587114D01*
D11*
X29210000Y-30988000D03*
X110671958Y-28960741D03*
D22*
X110671958Y-28960741D02*
X110671958Y-28960741D01*
D11*
X115570000Y-34798000D03*
X109909958Y-35310741D03*
D22*
X109909958Y-35310741D02*
X109909958Y-35310741D01*
D11*
X114808000Y-41148000D03*
X44958000Y-40132000D03*
X38358886Y-36322000D03*
D22*
X38358886Y-36322000D02*
X38358886Y-36322000D01*
D11*
X71120000Y-37592000D03*
X66221958Y-31754741D03*
D22*
X66221958Y-31754741D02*
X66221958Y-31754741D01*
D23*
X83058000Y-49530000D03*
D11*
X83058000Y-41910000D03*
X43942000Y-26928886D03*
D22*
X43942000Y-26928886D02*
X43942000Y-26928886D01*
D11*
X40132000Y-33528000D03*
X50038000Y-30734000D03*
X46228000Y-37333114D03*
D22*
X46228000Y-37333114D02*
X46228000Y-37333114D01*
D11*
X73478042Y-34539259D03*
D22*
X73478042Y-34539259D02*
X73478042Y-34539259D01*
D11*
X68580000Y-28702000D03*
X77216000Y-39116000D03*
D23*
X77216000Y-31496000D03*
D11*
X60960000Y-80518000D03*
D23*
X60960000Y-88138000D03*
D11*
X56896000Y-104140000D03*
X62733259Y-109038042D03*
D22*
X62733259Y-109038042D02*
X62733259Y-109038042D01*
D11*
X55045958Y-82291259D03*
D22*
X55045958Y-82291259D02*
X55045958Y-82291259D01*
D11*
X59944000Y-76454000D03*
X72136000Y-94742000D03*
D23*
X72136000Y-102362000D03*
X68834000Y-94742000D03*
D11*
X68834000Y-102362000D03*
X128519114Y-90424000D03*
D22*
X128519114Y-90424000D02*
X128519114Y-90424000D01*
D11*
X121920000Y-94234000D03*
X128773114Y-94742000D03*
D22*
X128773114Y-94742000D02*
X128773114Y-94742000D01*
D11*
X122174000Y-98552000D03*
X86868000Y-105156000D03*
D12*
G36*
X87960820Y-105448820D02*
G01*
X86575180Y-106248820D01*
X85775180Y-104863180D01*
X87160820Y-104063180D01*
X87960820Y-105448820D01*
X87960820Y-105448820D01*
G37*
D11*
X89657114Y-94746886D03*
D22*
X89657114Y-94746886D02*
X89657114Y-94746886D01*
D11*
X89067705Y-103886000D03*
D22*
X89067705Y-103886000D02*
X89067705Y-103886000D01*
D11*
X87457409Y-96016886D03*
D22*
X87457409Y-96016886D02*
X87457409Y-96016886D01*
D11*
X91267409Y-102616000D03*
D22*
X91267409Y-102616000D02*
X91267409Y-102616000D01*
D11*
X85257705Y-97286886D03*
D22*
X85257705Y-97286886D02*
X85257705Y-97286886D01*
D11*
X93467114Y-101346000D03*
D22*
X93467114Y-101346000D02*
X93467114Y-101346000D01*
D11*
X83058000Y-98556886D03*
D22*
X83058000Y-98556886D02*
X83058000Y-98556886D01*
D11*
X30524875Y-72328897D03*
D22*
X30524875Y-72328897D02*
X30524875Y-72328897D01*
D11*
X29585658Y-83064198D03*
D22*
X29585658Y-83064198D02*
X29585658Y-83064198D01*
D11*
X32157555Y-74274650D03*
D22*
X32157555Y-74274650D02*
X32157555Y-74274650D01*
D11*
X27952977Y-81118445D03*
D22*
X27952977Y-81118445D02*
X27952977Y-81118445D01*
D11*
X33790236Y-76220403D03*
D22*
X33790236Y-76220403D02*
X33790236Y-76220403D01*
D11*
X26320297Y-79172692D03*
D22*
X26320297Y-79172692D02*
X26320297Y-79172692D01*
D11*
X35422916Y-78166156D03*
D22*
X35422916Y-78166156D02*
X35422916Y-78166156D01*
D11*
X24687616Y-77226939D03*
D12*
G36*
X24589011Y-78354005D02*
G01*
X23560550Y-77128334D01*
X24786221Y-76099873D01*
X25814682Y-77325544D01*
X24589011Y-78354005D01*
X24589011Y-78354005D01*
G37*
D13*
X23368000Y-48768000D03*
D23*
X38608000Y-41148000D03*
X25908000Y-48768000D03*
X36068000Y-41148000D03*
X28448000Y-48768000D03*
X33528000Y-41148000D03*
X30988000Y-48768000D03*
X30988000Y-41148000D03*
X33528000Y-48768000D03*
X28448000Y-41148000D03*
X36068000Y-48768000D03*
X25908000Y-41148000D03*
X38608000Y-48768000D03*
X23368000Y-41148000D03*
D13*
X61976000Y-49530000D03*
D23*
X79756000Y-41910000D03*
X64516000Y-49530000D03*
X77216000Y-41910000D03*
X67056000Y-49530000D03*
X74676000Y-41910000D03*
X69596000Y-49530000D03*
X72136000Y-41910000D03*
X72136000Y-49530000D03*
X69596000Y-41910000D03*
X74676000Y-49530000D03*
X67056000Y-41910000D03*
X77216000Y-49530000D03*
X64516000Y-41910000D03*
X79756000Y-49530000D03*
X61976000Y-41910000D03*
D11*
X101043542Y-35118193D03*
D22*
X101043542Y-35118193D02*
X101043542Y-35118193D01*
D11*
X105597807Y-25351542D03*
D22*
X105597807Y-25351542D02*
X105597807Y-25351542D01*
D11*
X100174811Y-32731374D03*
D22*
X100174811Y-32731374D02*
X100174811Y-32731374D01*
D11*
X106466538Y-27738361D03*
D22*
X106466538Y-27738361D02*
X106466538Y-27738361D01*
D11*
X99306080Y-30344555D03*
D22*
X99306080Y-30344555D02*
X99306080Y-30344555D01*
D11*
X107335269Y-30125181D03*
D22*
X107335269Y-30125181D02*
X107335269Y-30125181D01*
D11*
X98437349Y-27957736D03*
D22*
X98437349Y-27957736D02*
X98437349Y-27957736D01*
D11*
X108204000Y-32512000D03*
D12*
G36*
X108682138Y-31486630D02*
G01*
X109229370Y-32990138D01*
X107725862Y-33537370D01*
X107178630Y-32033862D01*
X108682138Y-31486630D01*
X108682138Y-31486630D01*
G37*
D13*
X53060600Y-99542600D03*
D23*
X60680600Y-91922600D03*
X55600600Y-99542600D03*
X58140600Y-91922600D03*
X58140600Y-99542600D03*
X55600600Y-91922600D03*
X60680600Y-99542600D03*
X53060600Y-91922600D03*
D18*
X117348000Y-68072000D03*
D19*
X117348000Y-73152000D03*
D24*
X31496000Y-49276000D02*
X30988000Y-48768000D01*
X31496000Y-52324000D02*
X31496000Y-49276000D01*
X33203223Y-71119343D02*
X33203223Y-68255223D01*
X34003222Y-71919342D02*
X33203223Y-71119343D01*
X31496000Y-66548000D02*
X31496000Y-52324000D01*
X33203223Y-68255223D02*
X31496000Y-66548000D01*
X32996804Y-72821029D02*
X32157556Y-74274649D01*
X34483068Y-72422786D02*
X32996804Y-72821029D01*
X76708000Y-30988000D02*
X77216000Y-31496000D01*
X76708000Y-27432000D02*
X76708000Y-30988000D01*
X132842000Y-36830000D02*
X129032000Y-36830000D01*
X53340000Y-91643200D02*
X53060600Y-91922600D01*
X53340000Y-88138000D02*
X53340000Y-91643200D01*
X129032000Y-44196000D02*
X129032000Y-36830000D01*
X128016000Y-45212000D02*
X129032000Y-44196000D01*
X101854000Y-35928651D02*
X101043542Y-35118193D01*
X101854000Y-38354000D02*
X101854000Y-35928651D01*
X119824601Y-76314199D02*
X120624600Y-75514200D01*
X117783356Y-78355444D02*
X119824601Y-76314199D01*
X117478556Y-78355444D02*
X117783356Y-78355444D01*
X116840000Y-78994000D02*
X117478556Y-78355444D01*
X86360000Y-55372000D02*
X86360000Y-45720000D01*
X86360000Y-45720000D02*
X85344000Y-44704000D01*
X77470000Y-44704000D02*
X74676000Y-41910000D01*
X85344000Y-44704000D02*
X77470000Y-44704000D01*
X70866000Y-103632000D02*
X72136000Y-102362000D01*
X59436000Y-108712000D02*
X62992000Y-105156000D01*
X101601957Y-110488043D02*
X100838000Y-111252000D01*
X117857957Y-110488043D02*
X101601957Y-110488043D01*
X125222000Y-88900000D02*
X125222000Y-103124000D01*
X125222000Y-103124000D02*
X117857957Y-110488043D01*
X116840000Y-80518000D02*
X125222000Y-88900000D01*
X116840000Y-78994000D02*
X116840000Y-80518000D01*
X70866000Y-103886000D02*
X69596000Y-105156000D01*
X70866000Y-103632000D02*
X70866000Y-103886000D01*
X62992000Y-105156000D02*
X69596000Y-105156000D01*
X59436000Y-109982000D02*
X60706000Y-111252000D01*
X100838000Y-111252000D02*
X60706000Y-111252000D01*
X59436000Y-109982000D02*
X59436000Y-108712000D01*
X59436000Y-108712000D02*
X51054000Y-108712000D01*
X51054000Y-108712000D02*
X45974000Y-103632000D01*
X45974000Y-103632000D02*
X45974000Y-91948000D01*
X45999400Y-91922600D02*
X45999400Y-91414600D01*
X45974000Y-91948000D02*
X45999400Y-91922600D01*
X45999400Y-91414600D02*
X48006000Y-89408000D01*
X52070000Y-89408000D02*
X53340000Y-88138000D01*
X48006000Y-89408000D02*
X52070000Y-89408000D01*
X48006000Y-89408000D02*
X48006000Y-84074000D01*
X36354786Y-72422786D02*
X34483068Y-72422786D01*
X48006000Y-84074000D02*
X36354786Y-72422786D01*
X82550000Y-101600000D02*
X79248000Y-101600000D01*
X88430261Y-97243739D02*
X85344000Y-100330000D01*
X83820000Y-100330000D02*
X82550000Y-101600000D01*
X88430261Y-96989739D02*
X88430261Y-97243739D01*
X78486000Y-102362000D02*
X72136000Y-102362000D01*
X85344000Y-100330000D02*
X83820000Y-100330000D01*
X79248000Y-101600000D02*
X78486000Y-102362000D01*
X87457409Y-96016886D02*
X88430261Y-96989739D01*
X33020000Y-37587114D02*
X33020000Y-38100000D01*
X33528000Y-38608000D02*
X33528000Y-41148000D01*
X33020000Y-38100000D02*
X33528000Y-38608000D01*
X41656000Y-46228000D02*
X33528000Y-46228000D01*
X41910000Y-46482000D02*
X41656000Y-46228000D01*
X33528000Y-46228000D02*
X33528000Y-48768000D01*
X41910000Y-47752000D02*
X41910000Y-46482000D01*
X33996000Y-56654127D02*
X33996000Y-54650000D01*
X33528000Y-54182000D02*
X33528000Y-48768000D01*
X33996000Y-54650000D02*
X33528000Y-54182000D01*
X35560000Y-58218127D02*
X33996000Y-56654127D01*
X35560000Y-61976000D02*
X35560000Y-58218127D01*
X69596000Y-39116000D02*
X71120000Y-37592000D01*
X69596000Y-41910000D02*
X69596000Y-39116000D01*
X68580000Y-35052000D02*
X68580000Y-28702000D01*
X71120000Y-37592000D02*
X68580000Y-35052000D01*
X69645720Y-28702000D02*
X71783961Y-26563759D01*
X68580000Y-28702000D02*
X69645720Y-28702000D01*
X109820899Y-24384000D02*
X110744000Y-24384000D01*
X106466538Y-27738361D02*
X109820899Y-24384000D01*
X110744000Y-24384000D02*
X113030000Y-22098000D01*
X113030000Y-22098000D02*
X114554000Y-22098000D01*
X114554000Y-22098000D02*
X115062000Y-21590000D01*
X115062000Y-20574000D02*
X115824000Y-19812000D01*
X115062000Y-21590000D02*
X115062000Y-20574000D01*
X98656724Y-27738361D02*
X98437349Y-27957736D01*
X132842000Y-32004000D02*
X129032000Y-32004000D01*
X115824000Y-20545680D02*
X115824000Y-19812000D01*
X129032000Y-32004000D02*
X127282320Y-32004000D01*
X29742386Y-93399443D02*
X29091593Y-90970649D01*
X30691550Y-93947442D02*
X29742386Y-93399443D01*
X35713323Y-62129323D02*
X35560000Y-61976000D01*
X35713323Y-65431323D02*
X35713323Y-62129323D01*
X36059765Y-65777765D02*
X35713323Y-65431323D01*
X36059765Y-66955323D02*
X36059765Y-65777765D01*
X38313290Y-69208848D02*
X36059765Y-66955323D01*
X69596000Y-53086000D02*
X69596000Y-50546000D01*
X69596000Y-50546000D02*
X69596000Y-49530000D01*
X70866000Y-54356000D02*
X69596000Y-53086000D01*
X70866000Y-57404000D02*
X70866000Y-54356000D01*
X70866000Y-60452000D02*
X71374000Y-60960000D01*
X70866000Y-57404000D02*
X70866000Y-60452000D01*
X62484000Y-82042000D02*
X60960000Y-80518000D01*
X64262000Y-82042000D02*
X62484000Y-82042000D01*
X60960000Y-81134284D02*
X60960000Y-80518000D01*
X57170222Y-84924062D02*
X60960000Y-81134284D01*
X72583960Y-25763760D02*
X72583960Y-25714040D01*
X71783961Y-26563759D02*
X72583960Y-25763760D01*
X72583960Y-25714040D02*
X73660000Y-24638000D01*
X95117613Y-24638000D02*
X98437349Y-27957736D01*
X73660000Y-24638000D02*
X95117613Y-24638000D01*
X68580000Y-102616000D02*
X68834000Y-102362000D01*
X65786000Y-102616000D02*
X68580000Y-102616000D01*
X125334844Y-42962243D02*
X125334844Y-33415156D01*
X127014160Y-31735840D02*
X115824000Y-20545680D01*
X125334844Y-33415156D02*
X127014160Y-31735840D01*
X127282320Y-32004000D02*
X127014160Y-31735840D01*
X106552463Y-36643899D02*
X106552463Y-33908463D01*
X105208361Y-32564361D02*
X105208361Y-27738361D01*
X106552463Y-33908463D02*
X105208361Y-32564361D01*
X105208361Y-27738361D02*
X98656724Y-27738361D01*
X106466538Y-27738361D02*
X105208361Y-27738361D01*
X71374000Y-70104000D02*
X71374000Y-60960000D01*
X60960000Y-80518000D02*
X71374000Y-70104000D01*
X117348000Y-73152000D02*
X123190000Y-73152000D01*
X123190000Y-73152000D02*
X123190000Y-74168000D01*
X123190000Y-74168000D02*
X124968000Y-75946000D01*
X124968000Y-75946000D02*
X124968000Y-78486000D01*
X127304800Y-80822800D02*
X131419600Y-80822800D01*
X124968000Y-78486000D02*
X127304800Y-80822800D01*
X115233031Y-75266969D02*
X117348000Y-73152000D01*
X115233031Y-77078889D02*
X115233031Y-75266969D01*
X122936000Y-45361087D02*
X125334844Y-42962243D01*
X122936000Y-57952000D02*
X122936000Y-45361087D01*
X131572000Y-80975200D02*
X131419600Y-80822800D01*
X131572000Y-87122000D02*
X131572000Y-80975200D01*
X128519114Y-90174886D02*
X131572000Y-87122000D01*
X128519114Y-90424000D02*
X128519114Y-90174886D01*
X110627111Y-77078889D02*
X107772783Y-79933217D01*
X107696000Y-79933217D02*
X104135259Y-83493958D01*
X107772783Y-79933217D02*
X107696000Y-79933217D01*
X115233031Y-77078889D02*
X110627111Y-77078889D01*
X128773114Y-90678000D02*
X128519114Y-90424000D01*
X128773114Y-94742000D02*
X128773114Y-90678000D01*
X80948019Y-90247981D02*
X83639880Y-90247981D01*
X68834000Y-102362000D02*
X80948019Y-90247981D01*
X93467114Y-101346000D02*
X107442000Y-87371114D01*
X107442000Y-86800699D02*
X104135259Y-83493958D01*
X107442000Y-87371114D02*
X107442000Y-86800699D01*
X103003889Y-83493958D02*
X101661847Y-84836000D01*
X104135259Y-83493958D02*
X103003889Y-83493958D01*
X89051861Y-84836000D02*
X83639880Y-90247981D01*
X101661847Y-84836000D02*
X89051861Y-84836000D01*
X22151205Y-66748795D02*
X29390451Y-66748795D01*
X29091593Y-90970649D02*
X28291594Y-90170650D01*
X16510000Y-72390000D02*
X22151205Y-66748795D01*
X16510000Y-83058000D02*
X16510000Y-72390000D01*
X23622650Y-90170650D02*
X16510000Y-83058000D01*
X28291594Y-90170650D02*
X23622650Y-90170650D01*
X59828630Y-80518000D02*
X58558630Y-79248000D01*
X60960000Y-80518000D02*
X59828630Y-80518000D01*
X58558630Y-79248000D02*
X46482000Y-79248000D01*
X38313290Y-71079290D02*
X38313290Y-69208848D01*
X46482000Y-79248000D02*
X38313290Y-71079290D01*
X92834557Y-100713443D02*
X93467114Y-101346000D01*
X92456000Y-100330000D02*
X92456000Y-100334886D01*
X90932000Y-100838000D02*
X91440000Y-100330000D01*
X92456000Y-100334886D02*
X92834557Y-100713443D01*
X91440000Y-100330000D02*
X92456000Y-100330000D01*
X89067705Y-103886000D02*
X89067705Y-101686295D01*
X89916000Y-100838000D02*
X90932000Y-100838000D01*
X89067705Y-101686295D02*
X89916000Y-100838000D01*
X32834520Y-77875751D02*
X33790236Y-76220404D01*
X36301732Y-81043239D02*
X35593505Y-81233009D01*
X37409911Y-80759287D02*
X36317091Y-81052107D01*
X33393799Y-79963009D02*
X32834520Y-77875751D01*
X35593505Y-81233009D02*
X33393799Y-79963009D01*
X36317091Y-81052107D02*
X36301732Y-81043239D01*
X38315387Y-84138570D02*
X37409911Y-80759287D01*
X38258061Y-84237861D02*
X38315387Y-84138570D01*
X38366713Y-80759287D02*
X39624000Y-79502000D01*
X37409911Y-80759287D02*
X38366713Y-80759287D01*
X31618941Y-85830081D02*
X31572652Y-85657329D01*
X34427839Y-87451799D02*
X31618941Y-85830081D01*
X34820032Y-88915488D02*
X34427839Y-87451799D01*
X36477039Y-89872162D02*
X34820032Y-88915488D01*
X25420154Y-87677767D02*
X24148951Y-82933572D01*
X24148951Y-82933572D02*
X26320296Y-79172691D01*
X27179918Y-88693768D02*
X25420154Y-87677767D01*
X28914770Y-88228915D02*
X27179918Y-88693768D01*
X29619085Y-87009006D02*
X28914770Y-88228915D01*
X31006966Y-86637124D02*
X29619085Y-87009006D01*
X31572652Y-85657329D02*
X31006966Y-86637124D01*
X91440000Y-96529772D02*
X89657114Y-94746886D01*
X86868000Y-101600000D02*
X89154000Y-99314000D01*
X86614000Y-101600000D02*
X86868000Y-101600000D01*
X75946000Y-106680000D02*
X76707284Y-105918716D01*
X82677000Y-103505000D02*
X84709000Y-103505000D01*
X91440000Y-98298000D02*
X91440000Y-96529772D01*
X90424000Y-99314000D02*
X91440000Y-98298000D01*
X89154000Y-99314000D02*
X90424000Y-99314000D01*
X84709000Y-103505000D02*
X86614000Y-101600000D01*
X80263284Y-105918716D02*
X82677000Y-103505000D01*
X76707284Y-105918716D02*
X80263284Y-105918716D01*
X90673114Y-94746886D02*
X92202000Y-93218000D01*
X89657114Y-94746886D02*
X90673114Y-94746886D01*
X65967958Y-109038042D02*
X66802000Y-108204000D01*
X62733259Y-109038042D02*
X65967958Y-109038042D01*
X72394101Y-108204000D02*
X73483981Y-107114120D01*
X66802000Y-108204000D02*
X72394101Y-108204000D01*
X98298000Y-88952127D02*
X96532127Y-90718000D01*
X98298000Y-88392000D02*
X98298000Y-88952127D01*
X37001410Y-97590442D02*
X39083234Y-97032620D01*
X35021677Y-96447442D02*
X37001410Y-97590442D01*
X120624600Y-67894200D02*
X122097800Y-67894200D01*
X122097800Y-67894200D02*
X123444000Y-66548000D01*
X123444000Y-66548000D02*
X123444000Y-64770000D01*
X120446800Y-68072000D02*
X120624600Y-67894200D01*
X117348000Y-68072000D02*
X120446800Y-68072000D01*
X123444000Y-60960000D02*
X122936000Y-60452000D01*
X123444000Y-64770000D02*
X123444000Y-60960000D01*
X130352800Y-74676000D02*
X131419600Y-75742800D01*
X127762000Y-74676000D02*
X130352800Y-74676000D01*
X131419600Y-73304400D02*
X131572000Y-73152000D01*
X131419600Y-75742800D02*
X131419600Y-73304400D01*
X131419600Y-77242800D02*
X131419600Y-75742800D01*
X134871999Y-80695199D02*
X131419600Y-77242800D01*
X134871999Y-86322001D02*
X134871999Y-80695199D01*
X134072000Y-87122000D02*
X134871999Y-86322001D01*
X85257705Y-93893705D02*
X84074000Y-92710000D01*
X85257705Y-97286886D02*
X85257705Y-93893705D01*
X104686201Y-44945401D02*
X104635401Y-44945401D01*
X105486200Y-45745400D02*
X104686201Y-44945401D01*
X104635401Y-44945401D02*
X98298000Y-38608000D01*
X98298000Y-34608185D02*
X100174811Y-32731374D01*
X98298000Y-38608000D02*
X98298000Y-34608185D01*
X110998000Y-51257200D02*
X105486200Y-45745400D01*
X110998000Y-54102000D02*
X110998000Y-51257200D01*
X110998000Y-60706000D02*
X110998000Y-56602000D01*
X92710000Y-59182000D02*
X92456000Y-59436000D01*
X92710000Y-55372000D02*
X92710000Y-59182000D01*
X83058000Y-59436000D02*
X89956000Y-59436000D01*
X79756000Y-52070000D02*
X79756000Y-49530000D01*
X83058000Y-59436000D02*
X82804000Y-59436000D01*
X79756000Y-56388000D02*
X79756000Y-52070000D01*
X82804000Y-59436000D02*
X79756000Y-56388000D01*
X109909958Y-34217958D02*
X108204000Y-32512000D01*
X109909958Y-35310741D02*
X109909958Y-34217958D01*
X109909958Y-36442111D02*
X109909958Y-35310741D01*
X112776000Y-44674000D02*
X109909958Y-41807958D01*
X109909958Y-41807958D02*
X109909958Y-36442111D01*
X112776000Y-45974000D02*
X112776000Y-44674000D01*
X83058000Y-41910000D02*
X79756000Y-41910000D01*
X85769031Y-39198969D02*
X83058000Y-41910000D01*
X85968889Y-39198969D02*
X85769031Y-39198969D01*
X89916000Y-35560000D02*
X87884000Y-37592000D01*
X89916000Y-35306000D02*
X89916000Y-35560000D01*
X117423370Y-27940000D02*
X116332000Y-27940000D01*
X120864000Y-31380630D02*
X117423370Y-27940000D01*
X120864000Y-32512000D02*
X120864000Y-31380630D01*
X117856000Y-32512000D02*
X115570000Y-34798000D01*
X118364000Y-32512000D02*
X117856000Y-32512000D01*
X60960000Y-91643200D02*
X60680600Y-91922600D01*
X60960000Y-88138000D02*
X60960000Y-91643200D01*
X63166000Y-88138000D02*
X64262000Y-87042000D01*
X60960000Y-88138000D02*
X63166000Y-88138000D01*
X74676000Y-48006000D02*
X74676000Y-49530000D01*
X75692000Y-46990000D02*
X74676000Y-48006000D01*
X83058000Y-48006000D02*
X82042000Y-46990000D01*
X82042000Y-46990000D02*
X75692000Y-46990000D01*
X83058000Y-49530000D02*
X83058000Y-48006000D01*
X105597807Y-22486033D02*
X106913778Y-21170062D01*
X105597807Y-25351542D02*
X105597807Y-22486033D01*
X109126890Y-18956950D02*
X113474768Y-18956950D01*
X106913778Y-21170062D02*
X109126890Y-18956950D01*
X129032000Y-27178000D02*
X132842000Y-27178000D01*
X127282320Y-27178000D02*
X117122320Y-17018000D01*
X129032000Y-27178000D02*
X127282320Y-27178000D01*
X117122320Y-17018000D02*
X114046000Y-17018000D01*
X113474768Y-17589232D02*
X113474768Y-18956950D01*
X114046000Y-17018000D02*
X113474768Y-17589232D01*
X29169199Y-83175786D02*
X29585659Y-83064196D01*
X27381493Y-86272185D02*
X29169199Y-83175786D01*
X83058000Y-49530000D02*
X83058000Y-51816000D01*
X60786000Y-99648000D02*
X60680600Y-99542600D01*
X60786000Y-102616000D02*
X60786000Y-99648000D01*
X131572000Y-65532000D02*
X136144000Y-60960000D01*
X136144000Y-60960000D02*
X136144000Y-27432000D01*
X135890000Y-27178000D02*
X132842000Y-27178000D01*
X136144000Y-27432000D02*
X135890000Y-27178000D01*
X30988000Y-41148000D02*
X30988000Y-43434000D01*
X84836000Y-57912000D02*
X84328000Y-57404000D01*
X87884000Y-57912000D02*
X84836000Y-57912000D01*
X88646000Y-54610000D02*
X88646000Y-57150000D01*
X131572000Y-65532000D02*
X127762000Y-69342000D01*
X88646000Y-57150000D02*
X87884000Y-57912000D01*
X94234000Y-52070000D02*
X91186000Y-52070000D01*
X84328000Y-53086000D02*
X83058000Y-51816000D01*
X110236000Y-69596000D02*
X110236000Y-68072000D01*
X84328000Y-57404000D02*
X84328000Y-53086000D01*
X126238000Y-69342000D02*
X124968000Y-70612000D01*
X124968000Y-70612000D02*
X111252000Y-70612000D01*
X127762000Y-69342000D02*
X126238000Y-69342000D01*
X111252000Y-70612000D02*
X110236000Y-69596000D01*
X91186000Y-52070000D02*
X88646000Y-54610000D01*
X74904128Y-59259999D02*
X74904128Y-60426128D01*
X75704127Y-58460000D02*
X74904128Y-59259999D01*
X79629000Y-65151000D02*
X107315000Y-65151000D01*
X74904128Y-60426128D02*
X79629000Y-65151000D01*
X107315000Y-65151000D02*
X94234000Y-52070000D01*
X110236000Y-68072000D02*
X107315000Y-65151000D01*
X74422000Y-45720000D02*
X75692000Y-46990000D01*
X56134000Y-45720000D02*
X74422000Y-45720000D01*
X40778630Y-42752000D02*
X40386000Y-43144630D01*
X41910000Y-42752000D02*
X40778630Y-42752000D01*
X40386000Y-43144630D02*
X40167370Y-43144630D01*
X39878000Y-43434000D02*
X30988000Y-43434000D01*
X40167370Y-43144630D02*
X39878000Y-43434000D01*
X41910000Y-42752000D02*
X53420000Y-42752000D01*
X54229000Y-43561000D02*
X54229000Y-43815000D01*
X53420000Y-42752000D02*
X54229000Y-43561000D01*
X54229000Y-43815000D02*
X56134000Y-45720000D01*
X53965999Y-43551999D02*
X54229000Y-43815000D01*
X121920000Y-92710000D02*
X120142000Y-90932000D01*
X121920000Y-94234000D02*
X121920000Y-92710000D01*
X120316000Y-95838000D02*
X121920000Y-94234000D01*
X118364000Y-95838000D02*
X120316000Y-95838000D01*
X120650000Y-98552000D02*
X118364000Y-100838000D01*
X122174000Y-98552000D02*
X120650000Y-98552000D01*
X91267409Y-102616000D02*
X92791409Y-104140000D01*
X117564001Y-101637999D02*
X118364000Y-100838000D01*
X115062000Y-104140000D02*
X117564001Y-101637999D01*
X92791409Y-104140000D02*
X115062000Y-104140000D01*
X23166361Y-53541639D02*
X23368000Y-53340000D01*
X23166361Y-59649462D02*
X23166361Y-53541639D01*
X23368000Y-53340000D02*
X23368000Y-48768000D01*
X25908000Y-55880000D02*
X27940000Y-57912000D01*
X25908000Y-53340000D02*
X25908000Y-55880000D01*
X25908000Y-53340000D02*
X25908000Y-48768000D01*
X27940000Y-63183434D02*
X28055765Y-63299199D01*
X27940000Y-57912000D02*
X27940000Y-63183434D01*
D25*
X28822000Y-30988000D02*
X29210000Y-30988000D01*
D24*
X25908000Y-36202000D02*
X25908000Y-41148000D01*
X25908000Y-36202000D02*
X25908000Y-35052000D01*
X28722000Y-30988000D02*
X29210000Y-30988000D01*
X25908000Y-33802000D02*
X28722000Y-30988000D01*
X25908000Y-35052000D02*
X25908000Y-33802000D01*
X25908000Y-27686000D02*
X25146000Y-27686000D01*
X29210000Y-30988000D02*
X25908000Y-27686000D01*
X23368000Y-31792956D02*
X20143177Y-28568133D01*
X23368000Y-35052000D02*
X23368000Y-31792956D01*
X23368000Y-35052000D02*
X23368000Y-41148000D01*
X52578000Y-99060000D02*
X53060600Y-99542600D01*
X49530000Y-99060000D02*
X52578000Y-99060000D01*
X51562000Y-64257114D02*
X50038000Y-62733114D01*
X51562000Y-65278000D02*
X51562000Y-64257114D01*
X43942000Y-25908000D02*
X45466000Y-24384000D01*
X43942000Y-26928886D02*
X43942000Y-25908000D01*
X45466000Y-67818000D02*
X43942000Y-66294000D01*
X45466000Y-69088000D02*
X45466000Y-67818000D01*
X50038000Y-29718000D02*
X51562000Y-28194000D01*
X50038000Y-30734000D02*
X50038000Y-29718000D01*
X59944000Y-75946000D02*
X61976000Y-73914000D01*
X59944000Y-76454000D02*
X59944000Y-75946000D01*
X22642340Y-73224479D02*
X21218287Y-73606053D01*
X23553192Y-71646837D02*
X22642340Y-73224479D01*
X28518663Y-80138650D02*
X28451378Y-79887536D01*
X27952978Y-81118444D02*
X28518663Y-80138650D01*
X28451378Y-79887536D02*
X29019302Y-78903860D01*
X29019302Y-78903860D02*
X28275538Y-76128099D01*
X24109445Y-73722802D02*
X23553192Y-71646837D01*
X28275538Y-76128099D02*
X24109445Y-73722802D01*
X20828000Y-53340000D02*
X20828000Y-52070000D01*
X20828000Y-52070000D02*
X19812000Y-51054000D01*
X19812000Y-51054000D02*
X19812000Y-46228000D01*
X21197990Y-44842010D02*
X51446010Y-44842010D01*
X19812000Y-46228000D02*
X21197990Y-44842010D01*
X56134000Y-49530000D02*
X61976000Y-49530000D01*
X51446010Y-44842010D02*
X56134000Y-49530000D01*
X17272000Y-31496000D02*
X20828000Y-35052000D01*
X17272000Y-26416000D02*
X17272000Y-31496000D01*
X23622000Y-20066000D02*
X17272000Y-26416000D01*
X50800000Y-20066000D02*
X23622000Y-20066000D01*
X61976000Y-41910000D02*
X55626000Y-35560000D01*
X55626000Y-24892000D02*
X50800000Y-20066000D01*
X55626000Y-35560000D02*
X55626000Y-24892000D01*
X65497957Y-58123260D02*
X65497957Y-54136043D01*
X64697958Y-58923259D02*
X65497957Y-58123260D01*
X67056000Y-52578000D02*
X67056000Y-49530000D01*
X65497957Y-54136043D02*
X67056000Y-52578000D01*
X62991855Y-58923259D02*
X64697958Y-58923259D01*
X46223114Y-75692000D02*
X62991855Y-58923259D01*
X38608000Y-49530000D02*
X38608000Y-48768000D01*
X42672000Y-53594000D02*
X38608000Y-49530000D01*
X45212000Y-53594000D02*
X42672000Y-53594000D01*
X38612886Y-56272630D02*
X37592000Y-55251744D01*
X38612886Y-57404000D02*
X38612886Y-56272630D01*
X37592000Y-55251744D02*
X37592000Y-52578000D01*
X36068000Y-51054000D02*
X36068000Y-48768000D01*
X37592000Y-52578000D02*
X36068000Y-51054000D01*
X38612886Y-58175772D02*
X40132000Y-59694886D01*
X38612886Y-57404000D02*
X38612886Y-58175772D01*
X43692886Y-56134000D02*
X46228000Y-56134000D01*
X40132000Y-59694886D02*
X43692886Y-56134000D01*
X72136000Y-50661370D02*
X73290630Y-51816000D01*
X72136000Y-49530000D02*
X72136000Y-50661370D01*
X73290630Y-51816000D02*
X76454000Y-51816000D01*
X77216000Y-51054000D02*
X77216000Y-49530000D01*
X76454000Y-51816000D02*
X77216000Y-51054000D01*
X86360000Y-62992000D02*
X83312000Y-62992000D01*
X77465114Y-57145114D02*
X77465114Y-53594000D01*
X83312000Y-62992000D02*
X77465114Y-57145114D01*
X76818484Y-51816000D02*
X76454000Y-51816000D01*
X77465114Y-52462630D02*
X76818484Y-51816000D01*
X77465114Y-53594000D02*
X77465114Y-52462630D01*
X97666559Y-30344555D02*
X96515114Y-31496000D01*
X99306080Y-30344555D02*
X97666559Y-30344555D01*
X92710000Y-35301114D02*
X96515114Y-31496000D01*
X92710000Y-47752000D02*
X92710000Y-35301114D01*
X99872800Y-47752000D02*
X92710000Y-47752000D01*
X105486200Y-53365400D02*
X99872800Y-47752000D01*
X67056000Y-38862000D02*
X65024000Y-36830000D01*
X67056000Y-41910000D02*
X67056000Y-38862000D01*
X66221958Y-35632042D02*
X66221958Y-31754741D01*
X65024000Y-36830000D02*
X66221958Y-35632042D01*
X109507518Y-30125181D02*
X110671958Y-28960741D01*
X107335269Y-30125181D02*
X109507518Y-30125181D01*
X110671958Y-28960741D02*
X110671958Y-31423958D01*
X110671958Y-31423958D02*
X112522000Y-33274000D01*
X112522000Y-38862000D02*
X114808000Y-41148000D01*
X112522000Y-33274000D02*
X112522000Y-38862000D01*
X39624000Y-40132000D02*
X38608000Y-41148000D01*
X44958000Y-40132000D02*
X39624000Y-40132000D01*
X36068000Y-38612886D02*
X38358886Y-36322000D01*
X36068000Y-41148000D02*
X36068000Y-38612886D01*
X38358886Y-35301114D02*
X40132000Y-33528000D01*
X38358886Y-36322000D02*
X38358886Y-35301114D01*
X41263370Y-33528000D02*
X41517370Y-33782000D01*
X40132000Y-33528000D02*
X41263370Y-33528000D01*
X42676886Y-33782000D02*
X46228000Y-37333114D01*
X41517370Y-33782000D02*
X42676886Y-33782000D01*
X75768783Y-36830000D02*
X73478042Y-34539259D01*
X75768783Y-36906783D02*
X77216000Y-38354000D01*
X75768783Y-36830000D02*
X75768783Y-36906783D01*
X77216000Y-39116000D02*
X77216000Y-38354000D01*
X77216000Y-39116000D02*
X77216000Y-41910000D01*
X72136000Y-39624000D02*
X72136000Y-41910000D01*
X72644000Y-39116000D02*
X72136000Y-39624000D01*
X77216000Y-39116000D02*
X72644000Y-39116000D01*
X56896000Y-104140000D02*
X56896000Y-102616000D01*
X56896000Y-102616000D02*
X58166000Y-101346000D01*
X58140600Y-101320600D02*
X58140600Y-99542600D01*
X58166000Y-101346000D02*
X58140600Y-101320600D01*
X55045958Y-82291259D02*
X55045958Y-86287958D01*
X55600600Y-86842600D02*
X55600600Y-91922600D01*
X55045958Y-86287958D02*
X55600600Y-86842600D01*
X68834000Y-94742000D02*
X72136000Y-94742000D01*
X68834000Y-94742000D02*
X60960000Y-94742000D01*
X55600600Y-98411230D02*
X59777830Y-94234000D01*
X60325000Y-94107000D02*
X58140600Y-91922600D01*
X60198000Y-94234000D02*
X60325000Y-94107000D01*
X59777830Y-94234000D02*
X60198000Y-94234000D01*
X55600600Y-99542600D02*
X55600600Y-98411230D01*
X60960000Y-94742000D02*
X60325000Y-94107000D01*
M02*
