G04 #@! TF.GenerationSoftware,KiCad,Pcbnew,(5.1.2-1)-1*
G04 #@! TF.CreationDate,2021-02-01T13:45:36-05:00*
G04 #@! TF.ProjectId,MFOS - Voltage Controlled Reverb,4d464f53-202d-4205-966f-6c7461676520,rev?*
G04 #@! TF.SameCoordinates,Original*
G04 #@! TF.FileFunction,Legend,Top*
G04 #@! TF.FilePolarity,Positive*
%FSLAX46Y46*%
G04 Gerber Fmt 4.6, Leading zero omitted, Abs format (unit mm)*
G04 Created by KiCad (PCBNEW (5.1.2-1)-1) date 2021-02-01 13:45:36*
%MOMM*%
%LPD*%
G04 APERTURE LIST*
%ADD10C,0.120000*%
%ADD11C,0.150000*%
G04 APERTURE END LIST*
D10*
X116905820Y-22497989D02*
X117121293Y-21905983D01*
X117309560Y-22309722D02*
X116717553Y-22094250D01*
X111466348Y-18653744D02*
X111741333Y-17898231D01*
X111424929Y-18884494D02*
X111857927Y-17694843D01*
X111404716Y-19056983D02*
X111953316Y-17549716D01*
X111395105Y-19200341D02*
X112038102Y-17433719D01*
X111391992Y-19325845D02*
X112116391Y-17335576D01*
X111393325Y-19439133D02*
X112190232Y-17249650D01*
X111397737Y-19543964D02*
X112260996Y-17172180D01*
X111405227Y-19640338D02*
X112328682Y-17103168D01*
X111414769Y-19731074D02*
X112394315Y-17039794D01*
X111426021Y-19817111D02*
X112458238Y-16981119D01*
X111438984Y-19898450D02*
X112520451Y-16927142D01*
X111452972Y-19976969D02*
X112581638Y-16875984D01*
X111468670Y-20050790D02*
X112641115Y-16829524D01*
X111485053Y-20122732D02*
X112699908Y-16784944D01*
X111502803Y-20190915D02*
X112757333Y-16744123D01*
X111521238Y-20257219D02*
X112814074Y-16705181D01*
X111540357Y-20321643D02*
X112870131Y-16668118D01*
X111560501Y-20383248D02*
X112925162Y-16633874D01*
X111581330Y-20442974D02*
X112979508Y-16601510D01*
X111602501Y-20501760D02*
X113033513Y-16570086D01*
X111624697Y-20557727D02*
X113086492Y-16541481D01*
X111646894Y-20613694D02*
X113139470Y-16512875D01*
X111670117Y-20666842D02*
X113191423Y-16487089D01*
X111693682Y-20719050D02*
X113243033Y-16462242D01*
X112861646Y-17627047D02*
X113294302Y-16438335D01*
X111717589Y-20770318D02*
X112150244Y-19581607D01*
X112899234Y-17640727D02*
X113344886Y-16416308D01*
X111742180Y-20819707D02*
X112187832Y-19595288D01*
X112936822Y-17654408D02*
X113395129Y-16395220D01*
X111767113Y-20868157D02*
X112225420Y-19608969D01*
X112974409Y-17668089D02*
X113445029Y-16375072D01*
X111792388Y-20915667D02*
X112263008Y-19622650D01*
X113011997Y-17681770D02*
X113494246Y-16356803D01*
X111818347Y-20961297D02*
X112300595Y-19636330D01*
X113049585Y-17695451D02*
X113543462Y-16338534D01*
X111844306Y-21006927D02*
X112338183Y-19650011D01*
X113087173Y-17709131D02*
X113591994Y-16322145D01*
X111870949Y-21050678D02*
X112375771Y-19663692D01*
X113124760Y-17722812D02*
X113640527Y-16305756D01*
X111897592Y-21094429D02*
X112413358Y-19677373D01*
X113162348Y-17736493D02*
X113688375Y-16291246D01*
X111924919Y-21136301D02*
X112450946Y-19691054D01*
X113199936Y-17750174D02*
X113735881Y-16277675D01*
X111952588Y-21177233D02*
X112488534Y-19704734D01*
X113237523Y-17763855D02*
X113783388Y-16264105D01*
X111980257Y-21218165D02*
X112526121Y-19718415D01*
X113275111Y-17777535D02*
X113830552Y-16251475D01*
X112008268Y-21258157D02*
X112563709Y-19732096D01*
X113312699Y-17791216D02*
X113877032Y-16240723D01*
X112036964Y-21296270D02*
X112601297Y-19745777D01*
X113350286Y-17804897D02*
X113923512Y-16229972D01*
X112065659Y-21334383D02*
X112638885Y-19759458D01*
X113387874Y-17818578D02*
X113969992Y-16219221D01*
X112094354Y-21372495D02*
X112676472Y-19773138D01*
X113425462Y-17832259D02*
X114015789Y-16210349D01*
X112123733Y-21408729D02*
X112714060Y-19786819D01*
X113463050Y-17845939D02*
X114061585Y-16201477D01*
X112153112Y-21444962D02*
X112751648Y-19800500D01*
X113500637Y-17859620D02*
X114106697Y-16194485D01*
X112183176Y-21479316D02*
X112789235Y-19814181D01*
X113538225Y-17873301D02*
X114151809Y-16187492D01*
X112213239Y-21513670D02*
X112826823Y-19827862D01*
X113575813Y-17886982D02*
X114196921Y-16180500D01*
X112243302Y-21548024D02*
X112864411Y-19841543D01*
X113613400Y-17900663D02*
X114241349Y-16175387D01*
X112274050Y-21580499D02*
X112901999Y-19855223D01*
X113650988Y-17914343D02*
X114285777Y-16170274D01*
X112304797Y-21612974D02*
X112939586Y-19868904D01*
X113688576Y-17928024D02*
X114330206Y-16165161D01*
X112335544Y-21645448D02*
X112977174Y-19882585D01*
X113726164Y-17941705D02*
X114373950Y-16161927D01*
X112366975Y-21676044D02*
X113014762Y-19896266D01*
X113763751Y-17955386D02*
X114417694Y-16158694D01*
X112398407Y-21706639D02*
X113052349Y-19909947D01*
X113801339Y-17969067D02*
X114461438Y-16155460D01*
X112429838Y-21737234D02*
X113089937Y-19923627D01*
X113838927Y-17982747D02*
X114504498Y-16154106D01*
X112461954Y-21765950D02*
X113127525Y-19937308D01*
X113876514Y-17996428D02*
X114547558Y-16152751D01*
X112494069Y-21794666D02*
X113165112Y-19950989D01*
X113914102Y-18010109D02*
X114590618Y-16151397D01*
X112526184Y-21823382D02*
X113202700Y-19964670D01*
X113951690Y-18023790D02*
X114633336Y-16150983D01*
X112558642Y-21851158D02*
X113240288Y-19978351D01*
X113989277Y-18037471D02*
X114675712Y-16151508D01*
X112591441Y-21877994D02*
X113277876Y-19992031D01*
X114026865Y-18051152D02*
X114718088Y-16152033D01*
X112624241Y-21904831D02*
X113315463Y-20005712D01*
X114064453Y-18064832D02*
X114760122Y-16153498D01*
X112657382Y-21930728D02*
X113353051Y-20019393D01*
X114102041Y-18078513D02*
X114801814Y-16155902D01*
X112690865Y-21955685D02*
X113390639Y-20033074D01*
X114139628Y-18092194D02*
X114843506Y-16158307D01*
X112724349Y-21980642D02*
X113428226Y-20046755D01*
X114177216Y-18105875D02*
X114885198Y-16160711D01*
X112757832Y-22005599D02*
X113465814Y-20060435D01*
X114214804Y-18119556D02*
X114926548Y-16164055D01*
X112791658Y-22029617D02*
X113503402Y-20074116D01*
X114252391Y-18133236D02*
X114967556Y-16168339D01*
X112825825Y-22052694D02*
X113540989Y-20087797D01*
X114289979Y-18146917D02*
X115008563Y-16172623D01*
X112859993Y-22075772D02*
X113578577Y-20101478D01*
X114327567Y-18160598D02*
X115049229Y-16177847D01*
X112894502Y-22097910D02*
X113616165Y-20115159D01*
X114366094Y-18174621D02*
X115090835Y-16183412D01*
X112929952Y-22120390D02*
X113654692Y-20129181D01*
X114403682Y-18188302D02*
X115131159Y-16189575D01*
X112964803Y-22141588D02*
X113692280Y-20142862D01*
X114441270Y-18201982D02*
X115171483Y-16195739D01*
X112999655Y-22162787D02*
X113729868Y-20156543D01*
X114478857Y-18215663D02*
X115211464Y-16202842D01*
X113034848Y-22183045D02*
X113767455Y-20170224D01*
X114516445Y-18229344D02*
X115251446Y-16209945D01*
X113070042Y-22203304D02*
X113805043Y-20183905D01*
X114554033Y-18243025D02*
X115291086Y-16217987D01*
X113105577Y-22222623D02*
X113842631Y-20197585D01*
X114591620Y-18256706D02*
X115330726Y-16226030D01*
X113141113Y-22241942D02*
X113880219Y-20211266D01*
X114629208Y-18270386D02*
X115370024Y-16235012D01*
X113176991Y-22260321D02*
X113917806Y-20224947D01*
X114666796Y-18284067D02*
X115409322Y-16243995D01*
X113212868Y-22278701D02*
X113955394Y-20238628D01*
X114704384Y-18297748D02*
X115448277Y-16253917D01*
X113249088Y-22296140D02*
X113992982Y-20252309D01*
X114741971Y-18311429D02*
X115486891Y-16264778D01*
X113285649Y-22312640D02*
X114030569Y-20265990D01*
X114779559Y-18325110D02*
X115525847Y-16274700D01*
X113321869Y-22330080D02*
X114068157Y-20279670D01*
X113358773Y-22345640D02*
X115564119Y-16286502D01*
X113395334Y-22362140D02*
X115602732Y-16297364D01*
X113432580Y-22376760D02*
X115640662Y-16310105D01*
X113469484Y-22392320D02*
X115678934Y-16321906D01*
X113507071Y-22406001D02*
X115716522Y-16335587D01*
X113544659Y-22419682D02*
X115754109Y-16349268D01*
X117919384Y-19384475D02*
G75*
G03X117919384Y-19384475I-3270000J0D01*
G01*
X113152000Y-52166759D02*
X112522000Y-52166759D01*
X112837000Y-51851759D02*
X112837000Y-52481759D01*
X111400000Y-58593000D02*
X110596000Y-58593000D01*
X111631000Y-58553000D02*
X110365000Y-58553000D01*
X111800000Y-58513000D02*
X110196000Y-58513000D01*
X111938000Y-58473000D02*
X110058000Y-58473000D01*
X112057000Y-58433000D02*
X109939000Y-58433000D01*
X112163000Y-58393000D02*
X109833000Y-58393000D01*
X112260000Y-58353000D02*
X109736000Y-58353000D01*
X112348000Y-58313000D02*
X109648000Y-58313000D01*
X112430000Y-58273000D02*
X109566000Y-58273000D01*
X112507000Y-58233000D02*
X109489000Y-58233000D01*
X112579000Y-58193000D02*
X109417000Y-58193000D01*
X112648000Y-58153000D02*
X109348000Y-58153000D01*
X112712000Y-58113000D02*
X109284000Y-58113000D01*
X112774000Y-58073000D02*
X109222000Y-58073000D01*
X112832000Y-58033000D02*
X109164000Y-58033000D01*
X112888000Y-57993000D02*
X109108000Y-57993000D01*
X112942000Y-57953000D02*
X109054000Y-57953000D01*
X112993000Y-57913000D02*
X109003000Y-57913000D01*
X113042000Y-57873000D02*
X108954000Y-57873000D01*
X113090000Y-57833000D02*
X108906000Y-57833000D01*
X113135000Y-57793000D02*
X108861000Y-57793000D01*
X113180000Y-57753000D02*
X108816000Y-57753000D01*
X113222000Y-57713000D02*
X108774000Y-57713000D01*
X113263000Y-57673000D02*
X108733000Y-57673000D01*
X109958000Y-57633000D02*
X108693000Y-57633000D01*
X113303000Y-57633000D02*
X112038000Y-57633000D01*
X109958000Y-57593000D02*
X108655000Y-57593000D01*
X113341000Y-57593000D02*
X112038000Y-57593000D01*
X109958000Y-57553000D02*
X108618000Y-57553000D01*
X113378000Y-57553000D02*
X112038000Y-57553000D01*
X109958000Y-57513000D02*
X108582000Y-57513000D01*
X113414000Y-57513000D02*
X112038000Y-57513000D01*
X109958000Y-57473000D02*
X108548000Y-57473000D01*
X113448000Y-57473000D02*
X112038000Y-57473000D01*
X109958000Y-57433000D02*
X108514000Y-57433000D01*
X113482000Y-57433000D02*
X112038000Y-57433000D01*
X109958000Y-57393000D02*
X108482000Y-57393000D01*
X113514000Y-57393000D02*
X112038000Y-57393000D01*
X109958000Y-57353000D02*
X108450000Y-57353000D01*
X113546000Y-57353000D02*
X112038000Y-57353000D01*
X109958000Y-57313000D02*
X108420000Y-57313000D01*
X113576000Y-57313000D02*
X112038000Y-57313000D01*
X109958000Y-57273000D02*
X108391000Y-57273000D01*
X113605000Y-57273000D02*
X112038000Y-57273000D01*
X109958000Y-57233000D02*
X108362000Y-57233000D01*
X113634000Y-57233000D02*
X112038000Y-57233000D01*
X109958000Y-57193000D02*
X108334000Y-57193000D01*
X113662000Y-57193000D02*
X112038000Y-57193000D01*
X109958000Y-57153000D02*
X108308000Y-57153000D01*
X113688000Y-57153000D02*
X112038000Y-57153000D01*
X109958000Y-57113000D02*
X108282000Y-57113000D01*
X113714000Y-57113000D02*
X112038000Y-57113000D01*
X109958000Y-57073000D02*
X108256000Y-57073000D01*
X113740000Y-57073000D02*
X112038000Y-57073000D01*
X109958000Y-57033000D02*
X108232000Y-57033000D01*
X113764000Y-57033000D02*
X112038000Y-57033000D01*
X109958000Y-56993000D02*
X108208000Y-56993000D01*
X113788000Y-56993000D02*
X112038000Y-56993000D01*
X109958000Y-56953000D02*
X108186000Y-56953000D01*
X113810000Y-56953000D02*
X112038000Y-56953000D01*
X109958000Y-56913000D02*
X108164000Y-56913000D01*
X113832000Y-56913000D02*
X112038000Y-56913000D01*
X109958000Y-56873000D02*
X108142000Y-56873000D01*
X113854000Y-56873000D02*
X112038000Y-56873000D01*
X109958000Y-56833000D02*
X108122000Y-56833000D01*
X113874000Y-56833000D02*
X112038000Y-56833000D01*
X109958000Y-56793000D02*
X108102000Y-56793000D01*
X113894000Y-56793000D02*
X112038000Y-56793000D01*
X109958000Y-56753000D02*
X108082000Y-56753000D01*
X113914000Y-56753000D02*
X112038000Y-56753000D01*
X109958000Y-56713000D02*
X108064000Y-56713000D01*
X113932000Y-56713000D02*
X112038000Y-56713000D01*
X109958000Y-56673000D02*
X108046000Y-56673000D01*
X113950000Y-56673000D02*
X112038000Y-56673000D01*
X109958000Y-56633000D02*
X108028000Y-56633000D01*
X113968000Y-56633000D02*
X112038000Y-56633000D01*
X109958000Y-56593000D02*
X108012000Y-56593000D01*
X113984000Y-56593000D02*
X112038000Y-56593000D01*
X109958000Y-56553000D02*
X107996000Y-56553000D01*
X114000000Y-56553000D02*
X112038000Y-56553000D01*
X109958000Y-56513000D02*
X107980000Y-56513000D01*
X114016000Y-56513000D02*
X112038000Y-56513000D01*
X109958000Y-56473000D02*
X107965000Y-56473000D01*
X114031000Y-56473000D02*
X112038000Y-56473000D01*
X109958000Y-56433000D02*
X107951000Y-56433000D01*
X114045000Y-56433000D02*
X112038000Y-56433000D01*
X109958000Y-56393000D02*
X107937000Y-56393000D01*
X114059000Y-56393000D02*
X112038000Y-56393000D01*
X109958000Y-56353000D02*
X107924000Y-56353000D01*
X114072000Y-56353000D02*
X112038000Y-56353000D01*
X109958000Y-56313000D02*
X107912000Y-56313000D01*
X114084000Y-56313000D02*
X112038000Y-56313000D01*
X109958000Y-56273000D02*
X107900000Y-56273000D01*
X114096000Y-56273000D02*
X112038000Y-56273000D01*
X109958000Y-56233000D02*
X107888000Y-56233000D01*
X114108000Y-56233000D02*
X112038000Y-56233000D01*
X109958000Y-56193000D02*
X107877000Y-56193000D01*
X114119000Y-56193000D02*
X112038000Y-56193000D01*
X109958000Y-56153000D02*
X107867000Y-56153000D01*
X114129000Y-56153000D02*
X112038000Y-56153000D01*
X109958000Y-56113000D02*
X107857000Y-56113000D01*
X114139000Y-56113000D02*
X112038000Y-56113000D01*
X109958000Y-56073000D02*
X107848000Y-56073000D01*
X114148000Y-56073000D02*
X112038000Y-56073000D01*
X109958000Y-56032000D02*
X107839000Y-56032000D01*
X114157000Y-56032000D02*
X112038000Y-56032000D01*
X109958000Y-55992000D02*
X107831000Y-55992000D01*
X114165000Y-55992000D02*
X112038000Y-55992000D01*
X109958000Y-55952000D02*
X107823000Y-55952000D01*
X114173000Y-55952000D02*
X112038000Y-55952000D01*
X109958000Y-55912000D02*
X107816000Y-55912000D01*
X114180000Y-55912000D02*
X112038000Y-55912000D01*
X109958000Y-55872000D02*
X107809000Y-55872000D01*
X114187000Y-55872000D02*
X112038000Y-55872000D01*
X109958000Y-55832000D02*
X107803000Y-55832000D01*
X114193000Y-55832000D02*
X112038000Y-55832000D01*
X109958000Y-55792000D02*
X107797000Y-55792000D01*
X114199000Y-55792000D02*
X112038000Y-55792000D01*
X109958000Y-55752000D02*
X107792000Y-55752000D01*
X114204000Y-55752000D02*
X112038000Y-55752000D01*
X109958000Y-55712000D02*
X107787000Y-55712000D01*
X114209000Y-55712000D02*
X112038000Y-55712000D01*
X109958000Y-55672000D02*
X107783000Y-55672000D01*
X114213000Y-55672000D02*
X112038000Y-55672000D01*
X109958000Y-55632000D02*
X107780000Y-55632000D01*
X114216000Y-55632000D02*
X112038000Y-55632000D01*
X109958000Y-55592000D02*
X107776000Y-55592000D01*
X114220000Y-55592000D02*
X112038000Y-55592000D01*
X114222000Y-55552000D02*
X107774000Y-55552000D01*
X114225000Y-55512000D02*
X107771000Y-55512000D01*
X114226000Y-55472000D02*
X107770000Y-55472000D01*
X114228000Y-55432000D02*
X107768000Y-55432000D01*
X114228000Y-55392000D02*
X107768000Y-55392000D01*
X114228000Y-55352000D02*
X107768000Y-55352000D01*
X114268000Y-55352000D02*
G75*
G03X114268000Y-55352000I-3270000J0D01*
G01*
X82288775Y-94989879D02*
X82909204Y-94880480D01*
X82653689Y-95245394D02*
X82544290Y-94624965D01*
X82898253Y-88357035D02*
X83690039Y-88217422D01*
X82677709Y-88436540D02*
X83924475Y-88216701D01*
X82518222Y-88505279D02*
X84097854Y-88226747D01*
X82389265Y-88568635D02*
X84240703Y-88242176D01*
X82279018Y-88628691D02*
X84364841Y-88260904D01*
X82181575Y-88686490D02*
X84476177Y-88281890D01*
X82092994Y-88742726D02*
X84578649Y-88304438D01*
X82013277Y-88797400D02*
X84672258Y-88328550D01*
X81939469Y-88851031D02*
X84759958Y-88353703D01*
X81870584Y-88903794D02*
X84842734Y-88379724D01*
X81806624Y-88955689D02*
X84920586Y-88406614D01*
X81745618Y-89007063D02*
X84995484Y-88434024D01*
X81689537Y-89057569D02*
X85065458Y-88462303D01*
X81635425Y-89107728D02*
X85133462Y-88490929D01*
X81585252Y-89157191D02*
X85197526Y-88520250D01*
X81537048Y-89206308D02*
X85259622Y-88549918D01*
X81490815Y-89255077D02*
X85319747Y-88579933D01*
X81447535Y-89303326D02*
X85376918Y-88610470D01*
X81406226Y-89351227D02*
X85432120Y-88641353D01*
X81365901Y-89398954D02*
X85486336Y-88672410D01*
X81328530Y-89446161D02*
X85537599Y-88703988D01*
X81291160Y-89493367D02*
X85588861Y-88735567D01*
X81256744Y-89540053D02*
X85637169Y-88767666D01*
X81223313Y-89586565D02*
X85684492Y-88799938D01*
X84485048Y-89052050D02*
X85730830Y-88832385D01*
X81190866Y-89632903D02*
X82436648Y-89413238D01*
X84491994Y-89091442D02*
X85775199Y-88865178D01*
X81160390Y-89678894D02*
X82443594Y-89452630D01*
X84498940Y-89130834D02*
X85818583Y-88898146D01*
X81130898Y-89724711D02*
X82450540Y-89492023D01*
X84505886Y-89170227D02*
X85860982Y-88931287D01*
X81102391Y-89770355D02*
X82457486Y-89531415D01*
X84512832Y-89209619D02*
X85901411Y-88964775D01*
X81075853Y-89815651D02*
X82464432Y-89570807D01*
X84519778Y-89249011D02*
X85941840Y-88998263D01*
X81049315Y-89860947D02*
X82471378Y-89610199D01*
X84526724Y-89288404D02*
X85980300Y-89032099D01*
X81024748Y-89905896D02*
X82478324Y-89649592D01*
X84533670Y-89327796D02*
X86018760Y-89065934D01*
X81000180Y-89950846D02*
X82485270Y-89688984D01*
X84540616Y-89367188D02*
X86055250Y-89100117D01*
X80977581Y-89995447D02*
X82492216Y-89728376D01*
X84547562Y-89406581D02*
X86090755Y-89134474D01*
X80955968Y-90039875D02*
X82499162Y-89767769D01*
X84554508Y-89445973D02*
X86126261Y-89168830D01*
X80934354Y-90084304D02*
X82506107Y-89807161D01*
X84561454Y-89485365D02*
X86160781Y-89203360D01*
X80913726Y-90128558D02*
X82513053Y-89846553D01*
X84568399Y-89524757D02*
X86193332Y-89238238D01*
X80895067Y-90172465D02*
X82519999Y-89885946D01*
X84575345Y-89564150D02*
X86225883Y-89273115D01*
X80876407Y-90216372D02*
X82526945Y-89925338D01*
X84582291Y-89603542D02*
X86258434Y-89307993D01*
X80857748Y-90260279D02*
X82533891Y-89964730D01*
X84589237Y-89642934D02*
X86289015Y-89343218D01*
X80841059Y-90303839D02*
X82540837Y-90004123D01*
X84596183Y-89682327D02*
X86319597Y-89378442D01*
X80824369Y-90347399D02*
X82547783Y-90043515D01*
X84603129Y-89721719D02*
X86348208Y-89414014D01*
X80809650Y-90390612D02*
X82554729Y-90082907D01*
X84610075Y-89761111D02*
X86376820Y-89449586D01*
X80794930Y-90433824D02*
X82561675Y-90122300D01*
X84617021Y-89800504D02*
X86405432Y-89485159D01*
X80780210Y-90477037D02*
X82568621Y-90161692D01*
X84623967Y-89839896D02*
X86432074Y-89521078D01*
X80767460Y-90519902D02*
X82575567Y-90201084D01*
X84630913Y-89879288D02*
X86458716Y-89556997D01*
X80754710Y-90562767D02*
X82582513Y-90240476D01*
X84637859Y-89918681D02*
X86485358Y-89592917D01*
X80741959Y-90605633D02*
X82589459Y-90279869D01*
X84644805Y-89958073D02*
X86510031Y-89629183D01*
X80731179Y-90648151D02*
X82596405Y-90319261D01*
X84651751Y-89997465D02*
X86534703Y-89665450D01*
X80720398Y-90690669D02*
X82603350Y-90358653D01*
X84658697Y-90036857D02*
X86559375Y-89701716D01*
X80709617Y-90733187D02*
X82610296Y-90398046D01*
X84665642Y-90076250D02*
X86582078Y-89738330D01*
X80700806Y-90775357D02*
X82617242Y-90437438D01*
X84672588Y-90115642D02*
X86604781Y-89774944D01*
X80691995Y-90817528D02*
X82624188Y-90476830D01*
X84679534Y-90155034D02*
X86627484Y-89811558D01*
X80683184Y-90859699D02*
X82631134Y-90516223D01*
X84686480Y-90194427D02*
X86649202Y-89848346D01*
X80675358Y-90901696D02*
X82638080Y-90555615D01*
X84693426Y-90233819D02*
X86669935Y-89885307D01*
X80668517Y-90943519D02*
X82645026Y-90595007D01*
X84700372Y-90273211D02*
X86690669Y-89922268D01*
X80661675Y-90985343D02*
X82651972Y-90634400D01*
X84707318Y-90312604D02*
X86710417Y-89959403D01*
X80655819Y-91026992D02*
X82658918Y-90673792D01*
X84714264Y-90351996D02*
X86729181Y-89996712D01*
X80650947Y-91068468D02*
X82665864Y-90713184D01*
X84721210Y-90391388D02*
X86747944Y-90034020D01*
X80646075Y-91109944D02*
X82672810Y-90752576D01*
X84728156Y-90430781D02*
X86766708Y-90071329D01*
X80641204Y-91151421D02*
X82679756Y-90791969D01*
X84735102Y-90470173D02*
X86784487Y-90108811D01*
X80637317Y-91192723D02*
X82686702Y-90831361D01*
X84742048Y-90509565D02*
X86801281Y-90146467D01*
X80634415Y-91233852D02*
X82693648Y-90870753D01*
X84748994Y-90548958D02*
X86818075Y-90184123D01*
X80631512Y-91274981D02*
X82700593Y-90910146D01*
X84755940Y-90588350D02*
X86833884Y-90221952D01*
X80629595Y-91315936D02*
X82707539Y-90949538D01*
X84763059Y-90628727D02*
X86849867Y-90260766D01*
X80627851Y-91357876D02*
X82714659Y-90989915D01*
X84770005Y-90668119D02*
X86864691Y-90298770D01*
X80626919Y-91398657D02*
X82721605Y-91029307D01*
X84776951Y-90707512D02*
X86879515Y-90336773D01*
X80625986Y-91439439D02*
X82728551Y-91068700D01*
X84783897Y-90746904D02*
X86893355Y-90374949D01*
X80626039Y-91480046D02*
X82735497Y-91108092D01*
X84790843Y-90786296D02*
X86907195Y-90413126D01*
X80626091Y-91520654D02*
X82742443Y-91147484D01*
X84797789Y-90825688D02*
X86920049Y-90451477D01*
X80627128Y-91561089D02*
X82749389Y-91186877D01*
X84804735Y-90865081D02*
X86932904Y-90489827D01*
X80628165Y-91601523D02*
X82756335Y-91226269D01*
X84811681Y-90904473D02*
X86944774Y-90528351D01*
X80630187Y-91641783D02*
X82763280Y-91265661D01*
X84818626Y-90943865D02*
X86956644Y-90566875D01*
X80632209Y-91682044D02*
X82770226Y-91305054D01*
X84825572Y-90983258D02*
X86967529Y-90605573D01*
X80635215Y-91722131D02*
X82777172Y-91344446D01*
X84832518Y-91022650D02*
X86977430Y-90644444D01*
X80639207Y-91762044D02*
X82784118Y-91383838D01*
X84839464Y-91062042D02*
X86988315Y-90683142D01*
X80642214Y-91802131D02*
X82791064Y-91423231D01*
X80647190Y-91841870D02*
X86997230Y-90722187D01*
X80651181Y-91881784D02*
X87007131Y-90761058D01*
X80657143Y-91921350D02*
X87015061Y-90800277D01*
X80662119Y-91961089D02*
X87023977Y-90839322D01*
X80669065Y-92000482D02*
X87030923Y-90878714D01*
X80676011Y-92039874D02*
X87037869Y-90918107D01*
X87126940Y-91478990D02*
G75*
G03X87126940Y-91478990I-3270000J0D01*
G01*
X129636759Y-84968000D02*
X129636759Y-85598000D01*
X129321759Y-85283000D02*
X129951759Y-85283000D01*
X136063000Y-86720000D02*
X136063000Y-87524000D01*
X136023000Y-86489000D02*
X136023000Y-87755000D01*
X135983000Y-86320000D02*
X135983000Y-87924000D01*
X135943000Y-86182000D02*
X135943000Y-88062000D01*
X135903000Y-86063000D02*
X135903000Y-88181000D01*
X135863000Y-85957000D02*
X135863000Y-88287000D01*
X135823000Y-85860000D02*
X135823000Y-88384000D01*
X135783000Y-85772000D02*
X135783000Y-88472000D01*
X135743000Y-85690000D02*
X135743000Y-88554000D01*
X135703000Y-85613000D02*
X135703000Y-88631000D01*
X135663000Y-85541000D02*
X135663000Y-88703000D01*
X135623000Y-85472000D02*
X135623000Y-88772000D01*
X135583000Y-85408000D02*
X135583000Y-88836000D01*
X135543000Y-85346000D02*
X135543000Y-88898000D01*
X135503000Y-85288000D02*
X135503000Y-88956000D01*
X135463000Y-85232000D02*
X135463000Y-89012000D01*
X135423000Y-85178000D02*
X135423000Y-89066000D01*
X135383000Y-85127000D02*
X135383000Y-89117000D01*
X135343000Y-85078000D02*
X135343000Y-89166000D01*
X135303000Y-85030000D02*
X135303000Y-89214000D01*
X135263000Y-84985000D02*
X135263000Y-89259000D01*
X135223000Y-84940000D02*
X135223000Y-89304000D01*
X135183000Y-84898000D02*
X135183000Y-89346000D01*
X135143000Y-84857000D02*
X135143000Y-89387000D01*
X135103000Y-88162000D02*
X135103000Y-89427000D01*
X135103000Y-84817000D02*
X135103000Y-86082000D01*
X135063000Y-88162000D02*
X135063000Y-89465000D01*
X135063000Y-84779000D02*
X135063000Y-86082000D01*
X135023000Y-88162000D02*
X135023000Y-89502000D01*
X135023000Y-84742000D02*
X135023000Y-86082000D01*
X134983000Y-88162000D02*
X134983000Y-89538000D01*
X134983000Y-84706000D02*
X134983000Y-86082000D01*
X134943000Y-88162000D02*
X134943000Y-89572000D01*
X134943000Y-84672000D02*
X134943000Y-86082000D01*
X134903000Y-88162000D02*
X134903000Y-89606000D01*
X134903000Y-84638000D02*
X134903000Y-86082000D01*
X134863000Y-88162000D02*
X134863000Y-89638000D01*
X134863000Y-84606000D02*
X134863000Y-86082000D01*
X134823000Y-88162000D02*
X134823000Y-89670000D01*
X134823000Y-84574000D02*
X134823000Y-86082000D01*
X134783000Y-88162000D02*
X134783000Y-89700000D01*
X134783000Y-84544000D02*
X134783000Y-86082000D01*
X134743000Y-88162000D02*
X134743000Y-89729000D01*
X134743000Y-84515000D02*
X134743000Y-86082000D01*
X134703000Y-88162000D02*
X134703000Y-89758000D01*
X134703000Y-84486000D02*
X134703000Y-86082000D01*
X134663000Y-88162000D02*
X134663000Y-89786000D01*
X134663000Y-84458000D02*
X134663000Y-86082000D01*
X134623000Y-88162000D02*
X134623000Y-89812000D01*
X134623000Y-84432000D02*
X134623000Y-86082000D01*
X134583000Y-88162000D02*
X134583000Y-89838000D01*
X134583000Y-84406000D02*
X134583000Y-86082000D01*
X134543000Y-88162000D02*
X134543000Y-89864000D01*
X134543000Y-84380000D02*
X134543000Y-86082000D01*
X134503000Y-88162000D02*
X134503000Y-89888000D01*
X134503000Y-84356000D02*
X134503000Y-86082000D01*
X134463000Y-88162000D02*
X134463000Y-89912000D01*
X134463000Y-84332000D02*
X134463000Y-86082000D01*
X134423000Y-88162000D02*
X134423000Y-89934000D01*
X134423000Y-84310000D02*
X134423000Y-86082000D01*
X134383000Y-88162000D02*
X134383000Y-89956000D01*
X134383000Y-84288000D02*
X134383000Y-86082000D01*
X134343000Y-88162000D02*
X134343000Y-89978000D01*
X134343000Y-84266000D02*
X134343000Y-86082000D01*
X134303000Y-88162000D02*
X134303000Y-89998000D01*
X134303000Y-84246000D02*
X134303000Y-86082000D01*
X134263000Y-88162000D02*
X134263000Y-90018000D01*
X134263000Y-84226000D02*
X134263000Y-86082000D01*
X134223000Y-88162000D02*
X134223000Y-90038000D01*
X134223000Y-84206000D02*
X134223000Y-86082000D01*
X134183000Y-88162000D02*
X134183000Y-90056000D01*
X134183000Y-84188000D02*
X134183000Y-86082000D01*
X134143000Y-88162000D02*
X134143000Y-90074000D01*
X134143000Y-84170000D02*
X134143000Y-86082000D01*
X134103000Y-88162000D02*
X134103000Y-90092000D01*
X134103000Y-84152000D02*
X134103000Y-86082000D01*
X134063000Y-88162000D02*
X134063000Y-90108000D01*
X134063000Y-84136000D02*
X134063000Y-86082000D01*
X134023000Y-88162000D02*
X134023000Y-90124000D01*
X134023000Y-84120000D02*
X134023000Y-86082000D01*
X133983000Y-88162000D02*
X133983000Y-90140000D01*
X133983000Y-84104000D02*
X133983000Y-86082000D01*
X133943000Y-88162000D02*
X133943000Y-90155000D01*
X133943000Y-84089000D02*
X133943000Y-86082000D01*
X133903000Y-88162000D02*
X133903000Y-90169000D01*
X133903000Y-84075000D02*
X133903000Y-86082000D01*
X133863000Y-88162000D02*
X133863000Y-90183000D01*
X133863000Y-84061000D02*
X133863000Y-86082000D01*
X133823000Y-88162000D02*
X133823000Y-90196000D01*
X133823000Y-84048000D02*
X133823000Y-86082000D01*
X133783000Y-88162000D02*
X133783000Y-90208000D01*
X133783000Y-84036000D02*
X133783000Y-86082000D01*
X133743000Y-88162000D02*
X133743000Y-90220000D01*
X133743000Y-84024000D02*
X133743000Y-86082000D01*
X133703000Y-88162000D02*
X133703000Y-90232000D01*
X133703000Y-84012000D02*
X133703000Y-86082000D01*
X133663000Y-88162000D02*
X133663000Y-90243000D01*
X133663000Y-84001000D02*
X133663000Y-86082000D01*
X133623000Y-88162000D02*
X133623000Y-90253000D01*
X133623000Y-83991000D02*
X133623000Y-86082000D01*
X133583000Y-88162000D02*
X133583000Y-90263000D01*
X133583000Y-83981000D02*
X133583000Y-86082000D01*
X133543000Y-88162000D02*
X133543000Y-90272000D01*
X133543000Y-83972000D02*
X133543000Y-86082000D01*
X133502000Y-88162000D02*
X133502000Y-90281000D01*
X133502000Y-83963000D02*
X133502000Y-86082000D01*
X133462000Y-88162000D02*
X133462000Y-90289000D01*
X133462000Y-83955000D02*
X133462000Y-86082000D01*
X133422000Y-88162000D02*
X133422000Y-90297000D01*
X133422000Y-83947000D02*
X133422000Y-86082000D01*
X133382000Y-88162000D02*
X133382000Y-90304000D01*
X133382000Y-83940000D02*
X133382000Y-86082000D01*
X133342000Y-88162000D02*
X133342000Y-90311000D01*
X133342000Y-83933000D02*
X133342000Y-86082000D01*
X133302000Y-88162000D02*
X133302000Y-90317000D01*
X133302000Y-83927000D02*
X133302000Y-86082000D01*
X133262000Y-88162000D02*
X133262000Y-90323000D01*
X133262000Y-83921000D02*
X133262000Y-86082000D01*
X133222000Y-88162000D02*
X133222000Y-90328000D01*
X133222000Y-83916000D02*
X133222000Y-86082000D01*
X133182000Y-88162000D02*
X133182000Y-90333000D01*
X133182000Y-83911000D02*
X133182000Y-86082000D01*
X133142000Y-88162000D02*
X133142000Y-90337000D01*
X133142000Y-83907000D02*
X133142000Y-86082000D01*
X133102000Y-88162000D02*
X133102000Y-90340000D01*
X133102000Y-83904000D02*
X133102000Y-86082000D01*
X133062000Y-88162000D02*
X133062000Y-90344000D01*
X133062000Y-83900000D02*
X133062000Y-86082000D01*
X133022000Y-83898000D02*
X133022000Y-90346000D01*
X132982000Y-83895000D02*
X132982000Y-90349000D01*
X132942000Y-83894000D02*
X132942000Y-90350000D01*
X132902000Y-83892000D02*
X132902000Y-90352000D01*
X132862000Y-83892000D02*
X132862000Y-90352000D01*
X132822000Y-83892000D02*
X132822000Y-90352000D01*
X136092000Y-87122000D02*
G75*
G03X136092000Y-87122000I-3270000J0D01*
G01*
X120782000Y-62387241D02*
X121412000Y-62387241D01*
X121097000Y-62702241D02*
X121097000Y-62072241D01*
X122534000Y-55961000D02*
X123338000Y-55961000D01*
X122303000Y-56001000D02*
X123569000Y-56001000D01*
X122134000Y-56041000D02*
X123738000Y-56041000D01*
X121996000Y-56081000D02*
X123876000Y-56081000D01*
X121877000Y-56121000D02*
X123995000Y-56121000D01*
X121771000Y-56161000D02*
X124101000Y-56161000D01*
X121674000Y-56201000D02*
X124198000Y-56201000D01*
X121586000Y-56241000D02*
X124286000Y-56241000D01*
X121504000Y-56281000D02*
X124368000Y-56281000D01*
X121427000Y-56321000D02*
X124445000Y-56321000D01*
X121355000Y-56361000D02*
X124517000Y-56361000D01*
X121286000Y-56401000D02*
X124586000Y-56401000D01*
X121222000Y-56441000D02*
X124650000Y-56441000D01*
X121160000Y-56481000D02*
X124712000Y-56481000D01*
X121102000Y-56521000D02*
X124770000Y-56521000D01*
X121046000Y-56561000D02*
X124826000Y-56561000D01*
X120992000Y-56601000D02*
X124880000Y-56601000D01*
X120941000Y-56641000D02*
X124931000Y-56641000D01*
X120892000Y-56681000D02*
X124980000Y-56681000D01*
X120844000Y-56721000D02*
X125028000Y-56721000D01*
X120799000Y-56761000D02*
X125073000Y-56761000D01*
X120754000Y-56801000D02*
X125118000Y-56801000D01*
X120712000Y-56841000D02*
X125160000Y-56841000D01*
X120671000Y-56881000D02*
X125201000Y-56881000D01*
X123976000Y-56921000D02*
X125241000Y-56921000D01*
X120631000Y-56921000D02*
X121896000Y-56921000D01*
X123976000Y-56961000D02*
X125279000Y-56961000D01*
X120593000Y-56961000D02*
X121896000Y-56961000D01*
X123976000Y-57001000D02*
X125316000Y-57001000D01*
X120556000Y-57001000D02*
X121896000Y-57001000D01*
X123976000Y-57041000D02*
X125352000Y-57041000D01*
X120520000Y-57041000D02*
X121896000Y-57041000D01*
X123976000Y-57081000D02*
X125386000Y-57081000D01*
X120486000Y-57081000D02*
X121896000Y-57081000D01*
X123976000Y-57121000D02*
X125420000Y-57121000D01*
X120452000Y-57121000D02*
X121896000Y-57121000D01*
X123976000Y-57161000D02*
X125452000Y-57161000D01*
X120420000Y-57161000D02*
X121896000Y-57161000D01*
X123976000Y-57201000D02*
X125484000Y-57201000D01*
X120388000Y-57201000D02*
X121896000Y-57201000D01*
X123976000Y-57241000D02*
X125514000Y-57241000D01*
X120358000Y-57241000D02*
X121896000Y-57241000D01*
X123976000Y-57281000D02*
X125543000Y-57281000D01*
X120329000Y-57281000D02*
X121896000Y-57281000D01*
X123976000Y-57321000D02*
X125572000Y-57321000D01*
X120300000Y-57321000D02*
X121896000Y-57321000D01*
X123976000Y-57361000D02*
X125600000Y-57361000D01*
X120272000Y-57361000D02*
X121896000Y-57361000D01*
X123976000Y-57401000D02*
X125626000Y-57401000D01*
X120246000Y-57401000D02*
X121896000Y-57401000D01*
X123976000Y-57441000D02*
X125652000Y-57441000D01*
X120220000Y-57441000D02*
X121896000Y-57441000D01*
X123976000Y-57481000D02*
X125678000Y-57481000D01*
X120194000Y-57481000D02*
X121896000Y-57481000D01*
X123976000Y-57521000D02*
X125702000Y-57521000D01*
X120170000Y-57521000D02*
X121896000Y-57521000D01*
X123976000Y-57561000D02*
X125726000Y-57561000D01*
X120146000Y-57561000D02*
X121896000Y-57561000D01*
X123976000Y-57601000D02*
X125748000Y-57601000D01*
X120124000Y-57601000D02*
X121896000Y-57601000D01*
X123976000Y-57641000D02*
X125770000Y-57641000D01*
X120102000Y-57641000D02*
X121896000Y-57641000D01*
X123976000Y-57681000D02*
X125792000Y-57681000D01*
X120080000Y-57681000D02*
X121896000Y-57681000D01*
X123976000Y-57721000D02*
X125812000Y-57721000D01*
X120060000Y-57721000D02*
X121896000Y-57721000D01*
X123976000Y-57761000D02*
X125832000Y-57761000D01*
X120040000Y-57761000D02*
X121896000Y-57761000D01*
X123976000Y-57801000D02*
X125852000Y-57801000D01*
X120020000Y-57801000D02*
X121896000Y-57801000D01*
X123976000Y-57841000D02*
X125870000Y-57841000D01*
X120002000Y-57841000D02*
X121896000Y-57841000D01*
X123976000Y-57881000D02*
X125888000Y-57881000D01*
X119984000Y-57881000D02*
X121896000Y-57881000D01*
X123976000Y-57921000D02*
X125906000Y-57921000D01*
X119966000Y-57921000D02*
X121896000Y-57921000D01*
X123976000Y-57961000D02*
X125922000Y-57961000D01*
X119950000Y-57961000D02*
X121896000Y-57961000D01*
X123976000Y-58001000D02*
X125938000Y-58001000D01*
X119934000Y-58001000D02*
X121896000Y-58001000D01*
X123976000Y-58041000D02*
X125954000Y-58041000D01*
X119918000Y-58041000D02*
X121896000Y-58041000D01*
X123976000Y-58081000D02*
X125969000Y-58081000D01*
X119903000Y-58081000D02*
X121896000Y-58081000D01*
X123976000Y-58121000D02*
X125983000Y-58121000D01*
X119889000Y-58121000D02*
X121896000Y-58121000D01*
X123976000Y-58161000D02*
X125997000Y-58161000D01*
X119875000Y-58161000D02*
X121896000Y-58161000D01*
X123976000Y-58201000D02*
X126010000Y-58201000D01*
X119862000Y-58201000D02*
X121896000Y-58201000D01*
X123976000Y-58241000D02*
X126022000Y-58241000D01*
X119850000Y-58241000D02*
X121896000Y-58241000D01*
X123976000Y-58281000D02*
X126034000Y-58281000D01*
X119838000Y-58281000D02*
X121896000Y-58281000D01*
X123976000Y-58321000D02*
X126046000Y-58321000D01*
X119826000Y-58321000D02*
X121896000Y-58321000D01*
X123976000Y-58361000D02*
X126057000Y-58361000D01*
X119815000Y-58361000D02*
X121896000Y-58361000D01*
X123976000Y-58401000D02*
X126067000Y-58401000D01*
X119805000Y-58401000D02*
X121896000Y-58401000D01*
X123976000Y-58441000D02*
X126077000Y-58441000D01*
X119795000Y-58441000D02*
X121896000Y-58441000D01*
X123976000Y-58481000D02*
X126086000Y-58481000D01*
X119786000Y-58481000D02*
X121896000Y-58481000D01*
X123976000Y-58522000D02*
X126095000Y-58522000D01*
X119777000Y-58522000D02*
X121896000Y-58522000D01*
X123976000Y-58562000D02*
X126103000Y-58562000D01*
X119769000Y-58562000D02*
X121896000Y-58562000D01*
X123976000Y-58602000D02*
X126111000Y-58602000D01*
X119761000Y-58602000D02*
X121896000Y-58602000D01*
X123976000Y-58642000D02*
X126118000Y-58642000D01*
X119754000Y-58642000D02*
X121896000Y-58642000D01*
X123976000Y-58682000D02*
X126125000Y-58682000D01*
X119747000Y-58682000D02*
X121896000Y-58682000D01*
X123976000Y-58722000D02*
X126131000Y-58722000D01*
X119741000Y-58722000D02*
X121896000Y-58722000D01*
X123976000Y-58762000D02*
X126137000Y-58762000D01*
X119735000Y-58762000D02*
X121896000Y-58762000D01*
X123976000Y-58802000D02*
X126142000Y-58802000D01*
X119730000Y-58802000D02*
X121896000Y-58802000D01*
X123976000Y-58842000D02*
X126147000Y-58842000D01*
X119725000Y-58842000D02*
X121896000Y-58842000D01*
X123976000Y-58882000D02*
X126151000Y-58882000D01*
X119721000Y-58882000D02*
X121896000Y-58882000D01*
X123976000Y-58922000D02*
X126154000Y-58922000D01*
X119718000Y-58922000D02*
X121896000Y-58922000D01*
X123976000Y-58962000D02*
X126158000Y-58962000D01*
X119714000Y-58962000D02*
X121896000Y-58962000D01*
X119712000Y-59002000D02*
X126160000Y-59002000D01*
X119709000Y-59042000D02*
X126163000Y-59042000D01*
X119708000Y-59082000D02*
X126164000Y-59082000D01*
X119706000Y-59122000D02*
X126166000Y-59122000D01*
X119706000Y-59162000D02*
X126166000Y-59162000D01*
X119706000Y-59202000D02*
X126166000Y-59202000D01*
X126206000Y-59202000D02*
G75*
G03X126206000Y-59202000I-3270000J0D01*
G01*
X78225879Y-108465225D02*
X78116480Y-107844796D01*
X78481394Y-108100311D02*
X77860965Y-108209710D01*
X71593035Y-107855747D02*
X71453422Y-107063961D01*
X71672540Y-108076291D02*
X71452701Y-106829525D01*
X71741279Y-108235778D02*
X71462747Y-106656146D01*
X71804635Y-108364735D02*
X71478176Y-106513297D01*
X71864691Y-108474982D02*
X71496904Y-106389159D01*
X71922490Y-108572425D02*
X71517890Y-106277823D01*
X71978726Y-108661006D02*
X71540438Y-106175351D01*
X72033400Y-108740723D02*
X71564550Y-106081742D01*
X72087031Y-108814531D02*
X71589703Y-105994042D01*
X72139794Y-108883416D02*
X71615724Y-105911266D01*
X72191689Y-108947376D02*
X71642614Y-105833414D01*
X72243063Y-109008382D02*
X71670024Y-105758516D01*
X72293569Y-109064463D02*
X71698303Y-105688542D01*
X72343728Y-109118575D02*
X71726929Y-105620538D01*
X72393191Y-109168748D02*
X71756250Y-105556474D01*
X72442308Y-109216952D02*
X71785918Y-105494378D01*
X72491077Y-109263185D02*
X71815933Y-105434253D01*
X72539326Y-109306465D02*
X71846470Y-105377082D01*
X72587227Y-109347774D02*
X71877353Y-105321880D01*
X72634954Y-109388099D02*
X71908410Y-105267664D01*
X72682161Y-109425470D02*
X71939988Y-105216401D01*
X72729367Y-109462840D02*
X71971567Y-105165139D01*
X72776053Y-109497256D02*
X72003666Y-105116831D01*
X72822565Y-109530687D02*
X72035938Y-105069508D01*
X72288050Y-106268952D02*
X72068385Y-105023170D01*
X72868903Y-109563134D02*
X72649238Y-108317352D01*
X72327442Y-106262006D02*
X72101178Y-104978801D01*
X72914894Y-109593610D02*
X72688630Y-108310406D01*
X72366834Y-106255060D02*
X72134146Y-104935417D01*
X72960711Y-109623102D02*
X72728023Y-108303460D01*
X72406227Y-106248114D02*
X72167287Y-104893018D01*
X73006355Y-109651609D02*
X72767415Y-108296514D01*
X72445619Y-106241168D02*
X72200775Y-104852589D01*
X73051651Y-109678147D02*
X72806807Y-108289568D01*
X72485011Y-106234222D02*
X72234263Y-104812160D01*
X73096947Y-109704685D02*
X72846199Y-108282622D01*
X72524404Y-106227276D02*
X72268099Y-104773700D01*
X73141896Y-109729252D02*
X72885592Y-108275676D01*
X72563796Y-106220330D02*
X72301934Y-104735240D01*
X73186846Y-109753820D02*
X72924984Y-108268730D01*
X72603188Y-106213384D02*
X72336117Y-104698750D01*
X73231447Y-109776419D02*
X72964376Y-108261784D01*
X72642581Y-106206438D02*
X72370474Y-104663245D01*
X73275875Y-109798032D02*
X73003769Y-108254838D01*
X72681973Y-106199492D02*
X72404830Y-104627739D01*
X73320304Y-109819646D02*
X73043161Y-108247893D01*
X72721365Y-106192546D02*
X72439360Y-104593219D01*
X73364558Y-109840274D02*
X73082553Y-108240947D01*
X72760757Y-106185601D02*
X72474238Y-104560668D01*
X73408465Y-109858933D02*
X73121946Y-108234001D01*
X72800150Y-106178655D02*
X72509115Y-104528117D01*
X73452372Y-109877593D02*
X73161338Y-108227055D01*
X72839542Y-106171709D02*
X72543993Y-104495566D01*
X73496279Y-109896252D02*
X73200730Y-108220109D01*
X72878934Y-106164763D02*
X72579218Y-104464985D01*
X73539839Y-109912941D02*
X73240123Y-108213163D01*
X72918327Y-106157817D02*
X72614442Y-104434403D01*
X73583399Y-109929631D02*
X73279515Y-108206217D01*
X72957719Y-106150871D02*
X72650014Y-104405792D01*
X73626612Y-109944350D02*
X73318907Y-108199271D01*
X72997111Y-106143925D02*
X72685586Y-104377180D01*
X73669824Y-109959070D02*
X73358300Y-108192325D01*
X73036504Y-106136979D02*
X72721159Y-104348568D01*
X73713037Y-109973790D02*
X73397692Y-108185379D01*
X73075896Y-106130033D02*
X72757078Y-104321926D01*
X73755902Y-109986540D02*
X73437084Y-108178433D01*
X73115288Y-106123087D02*
X72792997Y-104295284D01*
X73798767Y-109999290D02*
X73476476Y-108171487D01*
X73154681Y-106116141D02*
X72828917Y-104268642D01*
X73841633Y-110012041D02*
X73515869Y-108164541D01*
X73194073Y-106109195D02*
X72865183Y-104243969D01*
X73884151Y-110022821D02*
X73555261Y-108157595D01*
X73233465Y-106102249D02*
X72901450Y-104219297D01*
X73926669Y-110033602D02*
X73594653Y-108150650D01*
X73272857Y-106095303D02*
X72937716Y-104194625D01*
X73969187Y-110044383D02*
X73634046Y-108143704D01*
X73312250Y-106088358D02*
X72974330Y-104171922D01*
X74011357Y-110053194D02*
X73673438Y-108136758D01*
X73351642Y-106081412D02*
X73010944Y-104149219D01*
X74053528Y-110062005D02*
X73712830Y-108129812D01*
X73391034Y-106074466D02*
X73047558Y-104126516D01*
X74095699Y-110070816D02*
X73752223Y-108122866D01*
X73430427Y-106067520D02*
X73084346Y-104104798D01*
X74137696Y-110078642D02*
X73791615Y-108115920D01*
X73469819Y-106060574D02*
X73121307Y-104084065D01*
X74179519Y-110085483D02*
X73831007Y-108108974D01*
X73509211Y-106053628D02*
X73158268Y-104063331D01*
X74221343Y-110092325D02*
X73870400Y-108102028D01*
X73548604Y-106046682D02*
X73195403Y-104043583D01*
X74262992Y-110098181D02*
X73909792Y-108095082D01*
X73587996Y-106039736D02*
X73232712Y-104024819D01*
X74304468Y-110103053D02*
X73949184Y-108088136D01*
X73627388Y-106032790D02*
X73270020Y-104006056D01*
X74345944Y-110107925D02*
X73988576Y-108081190D01*
X73666781Y-106025844D02*
X73307329Y-103987292D01*
X74387421Y-110112796D02*
X74027969Y-108074244D01*
X73706173Y-106018898D02*
X73344811Y-103969513D01*
X74428723Y-110116683D02*
X74067361Y-108067298D01*
X73745565Y-106011952D02*
X73382467Y-103952719D01*
X74469852Y-110119585D02*
X74106753Y-108060352D01*
X73784958Y-106005006D02*
X73420123Y-103935925D01*
X74510981Y-110122488D02*
X74146146Y-108053407D01*
X73824350Y-105998060D02*
X73457952Y-103920116D01*
X74551936Y-110124405D02*
X74185538Y-108046461D01*
X73864727Y-105990941D02*
X73496766Y-103904133D01*
X74593876Y-110126149D02*
X74225915Y-108039341D01*
X73904119Y-105983995D02*
X73534770Y-103889309D01*
X74634657Y-110127081D02*
X74265307Y-108032395D01*
X73943512Y-105977049D02*
X73572773Y-103874485D01*
X74675439Y-110128014D02*
X74304700Y-108025449D01*
X73982904Y-105970103D02*
X73610949Y-103860645D01*
X74716046Y-110127961D02*
X74344092Y-108018503D01*
X74022296Y-105963157D02*
X73649126Y-103846805D01*
X74756654Y-110127909D02*
X74383484Y-108011557D01*
X74061688Y-105956211D02*
X73687477Y-103833951D01*
X74797089Y-110126872D02*
X74422877Y-108004611D01*
X74101081Y-105949265D02*
X73725827Y-103821096D01*
X74837523Y-110125835D02*
X74462269Y-107997665D01*
X74140473Y-105942319D02*
X73764351Y-103809226D01*
X74877783Y-110123813D02*
X74501661Y-107990720D01*
X74179865Y-105935374D02*
X73802875Y-103797356D01*
X74918044Y-110121791D02*
X74541054Y-107983774D01*
X74219258Y-105928428D02*
X73841573Y-103786471D01*
X74958131Y-110118785D02*
X74580446Y-107976828D01*
X74258650Y-105921482D02*
X73880444Y-103776570D01*
X74998044Y-110114793D02*
X74619838Y-107969882D01*
X74298042Y-105914536D02*
X73919142Y-103765685D01*
X75038131Y-110111786D02*
X74659231Y-107962936D01*
X75077870Y-110106810D02*
X73958187Y-103756770D01*
X75117784Y-110102819D02*
X73997058Y-103746869D01*
X75157350Y-110096857D02*
X74036277Y-103738939D01*
X75197089Y-110091881D02*
X74075322Y-103730023D01*
X75236482Y-110084935D02*
X74114714Y-103723077D01*
X75275874Y-110077989D02*
X74154107Y-103716131D01*
X77984990Y-106897060D02*
G75*
G03X77984990Y-106897060I-3270000J0D01*
G01*
X117059225Y-30787000D02*
X117059225Y-31287000D01*
X116809225Y-31037000D02*
X117309225Y-31037000D01*
X122215000Y-32228000D02*
X122215000Y-32796000D01*
X122175000Y-31994000D02*
X122175000Y-33030000D01*
X122135000Y-31835000D02*
X122135000Y-33189000D01*
X122095000Y-31707000D02*
X122095000Y-33317000D01*
X122055000Y-31597000D02*
X122055000Y-33427000D01*
X122015000Y-31501000D02*
X122015000Y-33523000D01*
X121975000Y-31414000D02*
X121975000Y-33610000D01*
X121935000Y-31334000D02*
X121935000Y-33690000D01*
X121895000Y-33552000D02*
X121895000Y-33763000D01*
X121895000Y-31261000D02*
X121895000Y-31472000D01*
X121855000Y-33552000D02*
X121855000Y-33831000D01*
X121855000Y-31193000D02*
X121855000Y-31472000D01*
X121815000Y-33552000D02*
X121815000Y-33895000D01*
X121815000Y-31129000D02*
X121815000Y-31472000D01*
X121775000Y-33552000D02*
X121775000Y-33955000D01*
X121775000Y-31069000D02*
X121775000Y-31472000D01*
X121735000Y-33552000D02*
X121735000Y-34012000D01*
X121735000Y-31012000D02*
X121735000Y-31472000D01*
X121695000Y-33552000D02*
X121695000Y-34066000D01*
X121695000Y-30958000D02*
X121695000Y-31472000D01*
X121655000Y-33552000D02*
X121655000Y-34117000D01*
X121655000Y-30907000D02*
X121655000Y-31472000D01*
X121615000Y-33552000D02*
X121615000Y-34165000D01*
X121615000Y-30859000D02*
X121615000Y-31472000D01*
X121575000Y-33552000D02*
X121575000Y-34211000D01*
X121575000Y-30813000D02*
X121575000Y-31472000D01*
X121535000Y-33552000D02*
X121535000Y-34255000D01*
X121535000Y-30769000D02*
X121535000Y-31472000D01*
X121495000Y-33552000D02*
X121495000Y-34297000D01*
X121495000Y-30727000D02*
X121495000Y-31472000D01*
X121455000Y-33552000D02*
X121455000Y-34338000D01*
X121455000Y-30686000D02*
X121455000Y-31472000D01*
X121415000Y-33552000D02*
X121415000Y-34376000D01*
X121415000Y-30648000D02*
X121415000Y-31472000D01*
X121375000Y-33552000D02*
X121375000Y-34413000D01*
X121375000Y-30611000D02*
X121375000Y-31472000D01*
X121335000Y-33552000D02*
X121335000Y-34449000D01*
X121335000Y-30575000D02*
X121335000Y-31472000D01*
X121295000Y-33552000D02*
X121295000Y-34483000D01*
X121295000Y-30541000D02*
X121295000Y-31472000D01*
X121255000Y-33552000D02*
X121255000Y-34516000D01*
X121255000Y-30508000D02*
X121255000Y-31472000D01*
X121215000Y-33552000D02*
X121215000Y-34547000D01*
X121215000Y-30477000D02*
X121215000Y-31472000D01*
X121175000Y-33552000D02*
X121175000Y-34577000D01*
X121175000Y-30447000D02*
X121175000Y-31472000D01*
X121135000Y-33552000D02*
X121135000Y-34607000D01*
X121135000Y-30417000D02*
X121135000Y-31472000D01*
X121095000Y-33552000D02*
X121095000Y-34634000D01*
X121095000Y-30390000D02*
X121095000Y-31472000D01*
X121055000Y-33552000D02*
X121055000Y-34661000D01*
X121055000Y-30363000D02*
X121055000Y-31472000D01*
X121015000Y-33552000D02*
X121015000Y-34687000D01*
X121015000Y-30337000D02*
X121015000Y-31472000D01*
X120975000Y-33552000D02*
X120975000Y-34712000D01*
X120975000Y-30312000D02*
X120975000Y-31472000D01*
X120935000Y-33552000D02*
X120935000Y-34736000D01*
X120935000Y-30288000D02*
X120935000Y-31472000D01*
X120895000Y-33552000D02*
X120895000Y-34759000D01*
X120895000Y-30265000D02*
X120895000Y-31472000D01*
X120855000Y-33552000D02*
X120855000Y-34780000D01*
X120855000Y-30244000D02*
X120855000Y-31472000D01*
X120815000Y-33552000D02*
X120815000Y-34802000D01*
X120815000Y-30222000D02*
X120815000Y-31472000D01*
X120775000Y-33552000D02*
X120775000Y-34822000D01*
X120775000Y-30202000D02*
X120775000Y-31472000D01*
X120735000Y-33552000D02*
X120735000Y-34841000D01*
X120735000Y-30183000D02*
X120735000Y-31472000D01*
X120695000Y-33552000D02*
X120695000Y-34860000D01*
X120695000Y-30164000D02*
X120695000Y-31472000D01*
X120655000Y-33552000D02*
X120655000Y-34877000D01*
X120655000Y-30147000D02*
X120655000Y-31472000D01*
X120615000Y-33552000D02*
X120615000Y-34894000D01*
X120615000Y-30130000D02*
X120615000Y-31472000D01*
X120575000Y-33552000D02*
X120575000Y-34910000D01*
X120575000Y-30114000D02*
X120575000Y-31472000D01*
X120535000Y-33552000D02*
X120535000Y-34926000D01*
X120535000Y-30098000D02*
X120535000Y-31472000D01*
X120495000Y-33552000D02*
X120495000Y-34940000D01*
X120495000Y-30084000D02*
X120495000Y-31472000D01*
X120455000Y-33552000D02*
X120455000Y-34954000D01*
X120455000Y-30070000D02*
X120455000Y-31472000D01*
X120415000Y-33552000D02*
X120415000Y-34967000D01*
X120415000Y-30057000D02*
X120415000Y-31472000D01*
X120375000Y-33552000D02*
X120375000Y-34980000D01*
X120375000Y-30044000D02*
X120375000Y-31472000D01*
X120335000Y-33552000D02*
X120335000Y-34992000D01*
X120335000Y-30032000D02*
X120335000Y-31472000D01*
X120294000Y-33552000D02*
X120294000Y-35003000D01*
X120294000Y-30021000D02*
X120294000Y-31472000D01*
X120254000Y-33552000D02*
X120254000Y-35013000D01*
X120254000Y-30011000D02*
X120254000Y-31472000D01*
X120214000Y-33552000D02*
X120214000Y-35023000D01*
X120214000Y-30001000D02*
X120214000Y-31472000D01*
X120174000Y-33552000D02*
X120174000Y-35032000D01*
X120174000Y-29992000D02*
X120174000Y-31472000D01*
X120134000Y-33552000D02*
X120134000Y-35040000D01*
X120134000Y-29984000D02*
X120134000Y-31472000D01*
X120094000Y-33552000D02*
X120094000Y-35048000D01*
X120094000Y-29976000D02*
X120094000Y-31472000D01*
X120054000Y-33552000D02*
X120054000Y-35055000D01*
X120054000Y-29969000D02*
X120054000Y-31472000D01*
X120014000Y-33552000D02*
X120014000Y-35062000D01*
X120014000Y-29962000D02*
X120014000Y-31472000D01*
X119974000Y-33552000D02*
X119974000Y-35068000D01*
X119974000Y-29956000D02*
X119974000Y-31472000D01*
X119934000Y-33552000D02*
X119934000Y-35073000D01*
X119934000Y-29951000D02*
X119934000Y-31472000D01*
X119894000Y-33552000D02*
X119894000Y-35077000D01*
X119894000Y-29947000D02*
X119894000Y-31472000D01*
X119854000Y-33552000D02*
X119854000Y-35081000D01*
X119854000Y-29943000D02*
X119854000Y-31472000D01*
X119814000Y-29939000D02*
X119814000Y-35085000D01*
X119774000Y-29936000D02*
X119774000Y-35088000D01*
X119734000Y-29934000D02*
X119734000Y-35090000D01*
X119694000Y-29933000D02*
X119694000Y-35091000D01*
X119654000Y-29932000D02*
X119654000Y-35092000D01*
X119614000Y-29932000D02*
X119614000Y-35092000D01*
X122234000Y-32512000D02*
G75*
G03X122234000Y-32512000I-2620000J0D01*
G01*
X89992324Y-38074733D02*
X89670930Y-37691711D01*
X90023138Y-37722525D02*
X89640116Y-38043919D01*
X85116515Y-40284932D02*
X84751411Y-39849818D01*
X85297569Y-40438475D02*
X84631641Y-39644853D01*
X85430414Y-40534564D02*
X84560079Y-39497340D01*
X85543332Y-40606906D02*
X84508444Y-39373575D01*
X85644681Y-40665460D02*
X84468379Y-39263598D01*
X85737030Y-40713288D02*
X84437313Y-39164347D01*
X85823594Y-40754223D02*
X84412033Y-39071989D01*
X85905659Y-40789795D02*
X84391251Y-38984994D01*
X84510598Y-39064997D02*
X84374970Y-38903361D01*
X85983224Y-40820005D02*
X85847596Y-40658369D01*
X84541240Y-39039285D02*
X84361902Y-38825559D01*
X86057576Y-40846384D02*
X85878238Y-40632658D01*
X84571882Y-39013574D02*
X84351405Y-38750821D01*
X86129356Y-40869700D02*
X85908880Y-40606946D01*
X84602523Y-38987862D02*
X84343480Y-38679146D01*
X86198565Y-40889951D02*
X85939522Y-40581235D01*
X84633165Y-38962151D02*
X84337483Y-38609770D01*
X86265846Y-40907904D02*
X85970163Y-40555523D01*
X84663807Y-38936439D02*
X84333414Y-38542692D01*
X86331198Y-40923559D02*
X86000805Y-40529812D01*
X84694449Y-38910728D02*
X84331274Y-38477913D01*
X86394622Y-40936915D02*
X86031447Y-40504100D01*
X84725090Y-38885016D02*
X84331062Y-38415431D01*
X86456117Y-40947974D02*
X86062089Y-40478389D01*
X84755732Y-38859305D02*
X84332135Y-38354482D01*
X86516327Y-40957501D02*
X86092730Y-40452677D01*
X84786374Y-38833593D02*
X84334494Y-38295064D01*
X86575252Y-40965495D02*
X86123372Y-40426966D01*
X84817016Y-38807882D02*
X84338139Y-38237179D01*
X86632891Y-40971957D02*
X86154014Y-40401254D01*
X84847658Y-38782170D02*
X84342426Y-38180059D01*
X86689887Y-40977654D02*
X86184656Y-40375543D01*
X84878299Y-38756459D02*
X84348642Y-38125238D01*
X86744955Y-40981052D02*
X86215298Y-40349831D01*
X84908941Y-38730747D02*
X84355501Y-38071183D01*
X86799379Y-40983684D02*
X86245939Y-40324120D01*
X84939583Y-38705036D02*
X84363002Y-38017894D01*
X86853162Y-40985550D02*
X86276581Y-40298408D01*
X84970225Y-38679324D02*
X84371789Y-37966137D01*
X86905658Y-40985884D02*
X86307223Y-40272697D01*
X85000866Y-38653613D02*
X84381219Y-37915146D01*
X86957512Y-40985452D02*
X86337865Y-40246985D01*
X85031508Y-38627901D02*
X84391935Y-37865687D01*
X87008080Y-40983488D02*
X86368506Y-40221274D01*
X85062150Y-38602190D02*
X84403293Y-37816994D01*
X87058005Y-40980758D02*
X86399148Y-40195562D01*
X85092792Y-38576478D02*
X84414651Y-37768301D01*
X87107931Y-40978028D02*
X86429790Y-40169851D01*
X85123434Y-38550767D02*
X84427937Y-37721907D01*
X87155928Y-40972999D02*
X86460432Y-40144139D01*
X85154075Y-38525055D02*
X84441224Y-37675512D01*
X87203925Y-40967971D02*
X86491074Y-40118428D01*
X85184717Y-38499344D02*
X84455153Y-37629883D01*
X87251279Y-40962177D02*
X86521715Y-40092716D01*
X85215359Y-38473632D02*
X84469725Y-37585021D01*
X87297991Y-40955616D02*
X86552357Y-40067005D01*
X85246001Y-38447921D02*
X84484940Y-37540924D01*
X87344059Y-40948290D02*
X86582999Y-40041293D01*
X85276642Y-38422209D02*
X84500798Y-37497594D01*
X87389485Y-40940197D02*
X86613641Y-40015582D01*
X85307284Y-38396498D02*
X84517941Y-37455795D01*
X87433626Y-40930573D02*
X86644282Y-39989870D01*
X85337926Y-38370786D02*
X84534441Y-37413231D01*
X87478409Y-40921714D02*
X86674924Y-39964159D01*
X85368568Y-38345075D02*
X84552227Y-37372198D01*
X87521906Y-40911324D02*
X86705566Y-39938447D01*
X85399210Y-38319363D02*
X84570656Y-37331932D01*
X87564761Y-40900167D02*
X86736208Y-39912736D01*
X85429851Y-38293652D02*
X84589085Y-37291666D01*
X87607616Y-40889010D02*
X86766850Y-39887024D01*
X85460493Y-38267940D02*
X84608799Y-37252931D01*
X87649185Y-40876322D02*
X86797491Y-39861313D01*
X85491135Y-38242229D02*
X84628514Y-37214197D01*
X87690754Y-40863633D02*
X86828133Y-39835601D01*
X85521777Y-38216517D02*
X84648871Y-37176229D01*
X87731680Y-40850178D02*
X86858775Y-39809890D01*
X85552418Y-38190806D02*
X84669228Y-37138261D01*
X87772607Y-40836723D02*
X86889417Y-39784178D01*
X85583060Y-38165094D02*
X84690871Y-37101824D01*
X87812248Y-40821736D02*
X86920058Y-39758467D01*
X85613702Y-38139383D02*
X84712514Y-37065388D01*
X87851888Y-40806749D02*
X86950700Y-39732755D01*
X85644344Y-38113671D02*
X84734799Y-37029718D01*
X87890886Y-40790996D02*
X86981342Y-39707044D01*
X85674986Y-38087960D02*
X84757085Y-36994048D01*
X87929884Y-40775244D02*
X87011984Y-39681332D01*
X85705627Y-38062248D02*
X84780013Y-36959144D01*
X87968240Y-40758725D02*
X87042626Y-39655621D01*
X85737035Y-38035894D02*
X84804350Y-36924363D01*
X88006718Y-40740797D02*
X87074033Y-39629266D01*
X85767677Y-38010182D02*
X84828564Y-36890991D01*
X88043788Y-40722746D02*
X87104675Y-39603555D01*
X85798319Y-37984471D02*
X84852778Y-36857619D01*
X88080857Y-40704695D02*
X87135317Y-39577843D01*
X85828960Y-37958759D02*
X84877635Y-36825014D01*
X88117284Y-40685878D02*
X87165959Y-39552132D01*
X85859602Y-37933048D02*
X84903134Y-36793174D01*
X88153068Y-40666294D02*
X87196600Y-39526420D01*
X85890244Y-37907336D02*
X84928634Y-36761334D01*
X88188852Y-40646711D02*
X87227242Y-39500709D01*
X85920886Y-37881625D02*
X84954776Y-36730260D01*
X88223994Y-40626362D02*
X87257884Y-39474997D01*
X85951528Y-37855913D02*
X84980918Y-36699186D01*
X88259135Y-40606013D02*
X87288526Y-39449286D01*
X85982169Y-37830202D02*
X85007703Y-36668878D01*
X88293634Y-40584898D02*
X87319168Y-39423574D01*
X86012811Y-37804490D02*
X85035131Y-36639337D01*
X88327489Y-40563016D02*
X87349809Y-39397863D01*
X86043453Y-37778779D02*
X85063202Y-36610561D01*
X88360702Y-40540369D02*
X87380451Y-39372151D01*
X86074095Y-37753067D02*
X85091272Y-36581785D01*
X88393915Y-40517722D02*
X87411093Y-39346440D01*
X88427128Y-40495074D02*
X85119343Y-36553010D01*
X88459698Y-40471661D02*
X85148056Y-36525000D01*
X88491626Y-40447482D02*
X85177413Y-36497756D01*
X88522910Y-40422536D02*
X85207412Y-36471279D01*
X88554195Y-40397591D02*
X85237411Y-36444801D01*
X88584836Y-40371879D02*
X85268052Y-36419090D01*
X89546443Y-38395485D02*
G75*
G03X89546443Y-38395485I-2619999J0D01*
G01*
X111471225Y-44249000D02*
X111471225Y-44749000D01*
X111221225Y-44499000D02*
X111721225Y-44499000D01*
X116627000Y-45690000D02*
X116627000Y-46258000D01*
X116587000Y-45456000D02*
X116587000Y-46492000D01*
X116547000Y-45297000D02*
X116547000Y-46651000D01*
X116507000Y-45169000D02*
X116507000Y-46779000D01*
X116467000Y-45059000D02*
X116467000Y-46889000D01*
X116427000Y-44963000D02*
X116427000Y-46985000D01*
X116387000Y-44876000D02*
X116387000Y-47072000D01*
X116347000Y-44796000D02*
X116347000Y-47152000D01*
X116307000Y-47014000D02*
X116307000Y-47225000D01*
X116307000Y-44723000D02*
X116307000Y-44934000D01*
X116267000Y-47014000D02*
X116267000Y-47293000D01*
X116267000Y-44655000D02*
X116267000Y-44934000D01*
X116227000Y-47014000D02*
X116227000Y-47357000D01*
X116227000Y-44591000D02*
X116227000Y-44934000D01*
X116187000Y-47014000D02*
X116187000Y-47417000D01*
X116187000Y-44531000D02*
X116187000Y-44934000D01*
X116147000Y-47014000D02*
X116147000Y-47474000D01*
X116147000Y-44474000D02*
X116147000Y-44934000D01*
X116107000Y-47014000D02*
X116107000Y-47528000D01*
X116107000Y-44420000D02*
X116107000Y-44934000D01*
X116067000Y-47014000D02*
X116067000Y-47579000D01*
X116067000Y-44369000D02*
X116067000Y-44934000D01*
X116027000Y-47014000D02*
X116027000Y-47627000D01*
X116027000Y-44321000D02*
X116027000Y-44934000D01*
X115987000Y-47014000D02*
X115987000Y-47673000D01*
X115987000Y-44275000D02*
X115987000Y-44934000D01*
X115947000Y-47014000D02*
X115947000Y-47717000D01*
X115947000Y-44231000D02*
X115947000Y-44934000D01*
X115907000Y-47014000D02*
X115907000Y-47759000D01*
X115907000Y-44189000D02*
X115907000Y-44934000D01*
X115867000Y-47014000D02*
X115867000Y-47800000D01*
X115867000Y-44148000D02*
X115867000Y-44934000D01*
X115827000Y-47014000D02*
X115827000Y-47838000D01*
X115827000Y-44110000D02*
X115827000Y-44934000D01*
X115787000Y-47014000D02*
X115787000Y-47875000D01*
X115787000Y-44073000D02*
X115787000Y-44934000D01*
X115747000Y-47014000D02*
X115747000Y-47911000D01*
X115747000Y-44037000D02*
X115747000Y-44934000D01*
X115707000Y-47014000D02*
X115707000Y-47945000D01*
X115707000Y-44003000D02*
X115707000Y-44934000D01*
X115667000Y-47014000D02*
X115667000Y-47978000D01*
X115667000Y-43970000D02*
X115667000Y-44934000D01*
X115627000Y-47014000D02*
X115627000Y-48009000D01*
X115627000Y-43939000D02*
X115627000Y-44934000D01*
X115587000Y-47014000D02*
X115587000Y-48039000D01*
X115587000Y-43909000D02*
X115587000Y-44934000D01*
X115547000Y-47014000D02*
X115547000Y-48069000D01*
X115547000Y-43879000D02*
X115547000Y-44934000D01*
X115507000Y-47014000D02*
X115507000Y-48096000D01*
X115507000Y-43852000D02*
X115507000Y-44934000D01*
X115467000Y-47014000D02*
X115467000Y-48123000D01*
X115467000Y-43825000D02*
X115467000Y-44934000D01*
X115427000Y-47014000D02*
X115427000Y-48149000D01*
X115427000Y-43799000D02*
X115427000Y-44934000D01*
X115387000Y-47014000D02*
X115387000Y-48174000D01*
X115387000Y-43774000D02*
X115387000Y-44934000D01*
X115347000Y-47014000D02*
X115347000Y-48198000D01*
X115347000Y-43750000D02*
X115347000Y-44934000D01*
X115307000Y-47014000D02*
X115307000Y-48221000D01*
X115307000Y-43727000D02*
X115307000Y-44934000D01*
X115267000Y-47014000D02*
X115267000Y-48242000D01*
X115267000Y-43706000D02*
X115267000Y-44934000D01*
X115227000Y-47014000D02*
X115227000Y-48264000D01*
X115227000Y-43684000D02*
X115227000Y-44934000D01*
X115187000Y-47014000D02*
X115187000Y-48284000D01*
X115187000Y-43664000D02*
X115187000Y-44934000D01*
X115147000Y-47014000D02*
X115147000Y-48303000D01*
X115147000Y-43645000D02*
X115147000Y-44934000D01*
X115107000Y-47014000D02*
X115107000Y-48322000D01*
X115107000Y-43626000D02*
X115107000Y-44934000D01*
X115067000Y-47014000D02*
X115067000Y-48339000D01*
X115067000Y-43609000D02*
X115067000Y-44934000D01*
X115027000Y-47014000D02*
X115027000Y-48356000D01*
X115027000Y-43592000D02*
X115027000Y-44934000D01*
X114987000Y-47014000D02*
X114987000Y-48372000D01*
X114987000Y-43576000D02*
X114987000Y-44934000D01*
X114947000Y-47014000D02*
X114947000Y-48388000D01*
X114947000Y-43560000D02*
X114947000Y-44934000D01*
X114907000Y-47014000D02*
X114907000Y-48402000D01*
X114907000Y-43546000D02*
X114907000Y-44934000D01*
X114867000Y-47014000D02*
X114867000Y-48416000D01*
X114867000Y-43532000D02*
X114867000Y-44934000D01*
X114827000Y-47014000D02*
X114827000Y-48429000D01*
X114827000Y-43519000D02*
X114827000Y-44934000D01*
X114787000Y-47014000D02*
X114787000Y-48442000D01*
X114787000Y-43506000D02*
X114787000Y-44934000D01*
X114747000Y-47014000D02*
X114747000Y-48454000D01*
X114747000Y-43494000D02*
X114747000Y-44934000D01*
X114706000Y-47014000D02*
X114706000Y-48465000D01*
X114706000Y-43483000D02*
X114706000Y-44934000D01*
X114666000Y-47014000D02*
X114666000Y-48475000D01*
X114666000Y-43473000D02*
X114666000Y-44934000D01*
X114626000Y-47014000D02*
X114626000Y-48485000D01*
X114626000Y-43463000D02*
X114626000Y-44934000D01*
X114586000Y-47014000D02*
X114586000Y-48494000D01*
X114586000Y-43454000D02*
X114586000Y-44934000D01*
X114546000Y-47014000D02*
X114546000Y-48502000D01*
X114546000Y-43446000D02*
X114546000Y-44934000D01*
X114506000Y-47014000D02*
X114506000Y-48510000D01*
X114506000Y-43438000D02*
X114506000Y-44934000D01*
X114466000Y-47014000D02*
X114466000Y-48517000D01*
X114466000Y-43431000D02*
X114466000Y-44934000D01*
X114426000Y-47014000D02*
X114426000Y-48524000D01*
X114426000Y-43424000D02*
X114426000Y-44934000D01*
X114386000Y-47014000D02*
X114386000Y-48530000D01*
X114386000Y-43418000D02*
X114386000Y-44934000D01*
X114346000Y-47014000D02*
X114346000Y-48535000D01*
X114346000Y-43413000D02*
X114346000Y-44934000D01*
X114306000Y-47014000D02*
X114306000Y-48539000D01*
X114306000Y-43409000D02*
X114306000Y-44934000D01*
X114266000Y-47014000D02*
X114266000Y-48543000D01*
X114266000Y-43405000D02*
X114266000Y-44934000D01*
X114226000Y-43401000D02*
X114226000Y-48547000D01*
X114186000Y-43398000D02*
X114186000Y-48550000D01*
X114146000Y-43396000D02*
X114146000Y-48552000D01*
X114106000Y-43395000D02*
X114106000Y-48553000D01*
X114066000Y-43394000D02*
X114066000Y-48554000D01*
X114026000Y-43394000D02*
X114026000Y-48554000D01*
X116646000Y-45974000D02*
G75*
G03X116646000Y-45974000I-2620000J0D01*
G01*
X93760775Y-61161000D02*
X93760775Y-60661000D01*
X94010775Y-60911000D02*
X93510775Y-60911000D01*
X88605000Y-59720000D02*
X88605000Y-59152000D01*
X88645000Y-59954000D02*
X88645000Y-58918000D01*
X88685000Y-60113000D02*
X88685000Y-58759000D01*
X88725000Y-60241000D02*
X88725000Y-58631000D01*
X88765000Y-60351000D02*
X88765000Y-58521000D01*
X88805000Y-60447000D02*
X88805000Y-58425000D01*
X88845000Y-60534000D02*
X88845000Y-58338000D01*
X88885000Y-60614000D02*
X88885000Y-58258000D01*
X88925000Y-58396000D02*
X88925000Y-58185000D01*
X88925000Y-60687000D02*
X88925000Y-60476000D01*
X88965000Y-58396000D02*
X88965000Y-58117000D01*
X88965000Y-60755000D02*
X88965000Y-60476000D01*
X89005000Y-58396000D02*
X89005000Y-58053000D01*
X89005000Y-60819000D02*
X89005000Y-60476000D01*
X89045000Y-58396000D02*
X89045000Y-57993000D01*
X89045000Y-60879000D02*
X89045000Y-60476000D01*
X89085000Y-58396000D02*
X89085000Y-57936000D01*
X89085000Y-60936000D02*
X89085000Y-60476000D01*
X89125000Y-58396000D02*
X89125000Y-57882000D01*
X89125000Y-60990000D02*
X89125000Y-60476000D01*
X89165000Y-58396000D02*
X89165000Y-57831000D01*
X89165000Y-61041000D02*
X89165000Y-60476000D01*
X89205000Y-58396000D02*
X89205000Y-57783000D01*
X89205000Y-61089000D02*
X89205000Y-60476000D01*
X89245000Y-58396000D02*
X89245000Y-57737000D01*
X89245000Y-61135000D02*
X89245000Y-60476000D01*
X89285000Y-58396000D02*
X89285000Y-57693000D01*
X89285000Y-61179000D02*
X89285000Y-60476000D01*
X89325000Y-58396000D02*
X89325000Y-57651000D01*
X89325000Y-61221000D02*
X89325000Y-60476000D01*
X89365000Y-58396000D02*
X89365000Y-57610000D01*
X89365000Y-61262000D02*
X89365000Y-60476000D01*
X89405000Y-58396000D02*
X89405000Y-57572000D01*
X89405000Y-61300000D02*
X89405000Y-60476000D01*
X89445000Y-58396000D02*
X89445000Y-57535000D01*
X89445000Y-61337000D02*
X89445000Y-60476000D01*
X89485000Y-58396000D02*
X89485000Y-57499000D01*
X89485000Y-61373000D02*
X89485000Y-60476000D01*
X89525000Y-58396000D02*
X89525000Y-57465000D01*
X89525000Y-61407000D02*
X89525000Y-60476000D01*
X89565000Y-58396000D02*
X89565000Y-57432000D01*
X89565000Y-61440000D02*
X89565000Y-60476000D01*
X89605000Y-58396000D02*
X89605000Y-57401000D01*
X89605000Y-61471000D02*
X89605000Y-60476000D01*
X89645000Y-58396000D02*
X89645000Y-57371000D01*
X89645000Y-61501000D02*
X89645000Y-60476000D01*
X89685000Y-58396000D02*
X89685000Y-57341000D01*
X89685000Y-61531000D02*
X89685000Y-60476000D01*
X89725000Y-58396000D02*
X89725000Y-57314000D01*
X89725000Y-61558000D02*
X89725000Y-60476000D01*
X89765000Y-58396000D02*
X89765000Y-57287000D01*
X89765000Y-61585000D02*
X89765000Y-60476000D01*
X89805000Y-58396000D02*
X89805000Y-57261000D01*
X89805000Y-61611000D02*
X89805000Y-60476000D01*
X89845000Y-58396000D02*
X89845000Y-57236000D01*
X89845000Y-61636000D02*
X89845000Y-60476000D01*
X89885000Y-58396000D02*
X89885000Y-57212000D01*
X89885000Y-61660000D02*
X89885000Y-60476000D01*
X89925000Y-58396000D02*
X89925000Y-57189000D01*
X89925000Y-61683000D02*
X89925000Y-60476000D01*
X89965000Y-58396000D02*
X89965000Y-57168000D01*
X89965000Y-61704000D02*
X89965000Y-60476000D01*
X90005000Y-58396000D02*
X90005000Y-57146000D01*
X90005000Y-61726000D02*
X90005000Y-60476000D01*
X90045000Y-58396000D02*
X90045000Y-57126000D01*
X90045000Y-61746000D02*
X90045000Y-60476000D01*
X90085000Y-58396000D02*
X90085000Y-57107000D01*
X90085000Y-61765000D02*
X90085000Y-60476000D01*
X90125000Y-58396000D02*
X90125000Y-57088000D01*
X90125000Y-61784000D02*
X90125000Y-60476000D01*
X90165000Y-58396000D02*
X90165000Y-57071000D01*
X90165000Y-61801000D02*
X90165000Y-60476000D01*
X90205000Y-58396000D02*
X90205000Y-57054000D01*
X90205000Y-61818000D02*
X90205000Y-60476000D01*
X90245000Y-58396000D02*
X90245000Y-57038000D01*
X90245000Y-61834000D02*
X90245000Y-60476000D01*
X90285000Y-58396000D02*
X90285000Y-57022000D01*
X90285000Y-61850000D02*
X90285000Y-60476000D01*
X90325000Y-58396000D02*
X90325000Y-57008000D01*
X90325000Y-61864000D02*
X90325000Y-60476000D01*
X90365000Y-58396000D02*
X90365000Y-56994000D01*
X90365000Y-61878000D02*
X90365000Y-60476000D01*
X90405000Y-58396000D02*
X90405000Y-56981000D01*
X90405000Y-61891000D02*
X90405000Y-60476000D01*
X90445000Y-58396000D02*
X90445000Y-56968000D01*
X90445000Y-61904000D02*
X90445000Y-60476000D01*
X90485000Y-58396000D02*
X90485000Y-56956000D01*
X90485000Y-61916000D02*
X90485000Y-60476000D01*
X90526000Y-58396000D02*
X90526000Y-56945000D01*
X90526000Y-61927000D02*
X90526000Y-60476000D01*
X90566000Y-58396000D02*
X90566000Y-56935000D01*
X90566000Y-61937000D02*
X90566000Y-60476000D01*
X90606000Y-58396000D02*
X90606000Y-56925000D01*
X90606000Y-61947000D02*
X90606000Y-60476000D01*
X90646000Y-58396000D02*
X90646000Y-56916000D01*
X90646000Y-61956000D02*
X90646000Y-60476000D01*
X90686000Y-58396000D02*
X90686000Y-56908000D01*
X90686000Y-61964000D02*
X90686000Y-60476000D01*
X90726000Y-58396000D02*
X90726000Y-56900000D01*
X90726000Y-61972000D02*
X90726000Y-60476000D01*
X90766000Y-58396000D02*
X90766000Y-56893000D01*
X90766000Y-61979000D02*
X90766000Y-60476000D01*
X90806000Y-58396000D02*
X90806000Y-56886000D01*
X90806000Y-61986000D02*
X90806000Y-60476000D01*
X90846000Y-58396000D02*
X90846000Y-56880000D01*
X90846000Y-61992000D02*
X90846000Y-60476000D01*
X90886000Y-58396000D02*
X90886000Y-56875000D01*
X90886000Y-61997000D02*
X90886000Y-60476000D01*
X90926000Y-58396000D02*
X90926000Y-56871000D01*
X90926000Y-62001000D02*
X90926000Y-60476000D01*
X90966000Y-58396000D02*
X90966000Y-56867000D01*
X90966000Y-62005000D02*
X90966000Y-60476000D01*
X91006000Y-62009000D02*
X91006000Y-56863000D01*
X91046000Y-62012000D02*
X91046000Y-56860000D01*
X91086000Y-62014000D02*
X91086000Y-56858000D01*
X91126000Y-62015000D02*
X91126000Y-56857000D01*
X91166000Y-62016000D02*
X91166000Y-56856000D01*
X91206000Y-62016000D02*
X91206000Y-56856000D01*
X93826000Y-59436000D02*
G75*
G03X93826000Y-59436000I-2620000J0D01*
G01*
X116357267Y-81102324D02*
X116740289Y-80780930D01*
X116709475Y-81133138D02*
X116388081Y-80750116D01*
X114147068Y-76226515D02*
X114582182Y-75861411D01*
X113993525Y-76407569D02*
X114787147Y-75741641D01*
X113897436Y-76540414D02*
X114934660Y-75670079D01*
X113825094Y-76653332D02*
X115058425Y-75618444D01*
X113766540Y-76754681D02*
X115168402Y-75578379D01*
X113718712Y-76847030D02*
X115267653Y-75547313D01*
X113677777Y-76933594D02*
X115360011Y-75522033D01*
X113642205Y-77015659D02*
X115447006Y-75501251D01*
X115367003Y-75620598D02*
X115528639Y-75484970D01*
X113611995Y-77093224D02*
X113773631Y-76957596D01*
X115392715Y-75651240D02*
X115606441Y-75471902D01*
X113585616Y-77167576D02*
X113799342Y-76988238D01*
X115418426Y-75681882D02*
X115681179Y-75461405D01*
X113562300Y-77239356D02*
X113825054Y-77018880D01*
X115444138Y-75712523D02*
X115752854Y-75453480D01*
X113542049Y-77308565D02*
X113850765Y-77049522D01*
X115469849Y-75743165D02*
X115822230Y-75447483D01*
X113524096Y-77375846D02*
X113876477Y-77080163D01*
X115495561Y-75773807D02*
X115889308Y-75443414D01*
X113508441Y-77441198D02*
X113902188Y-77110805D01*
X115521272Y-75804449D02*
X115954087Y-75441274D01*
X113495085Y-77504622D02*
X113927900Y-77141447D01*
X115546984Y-75835090D02*
X116016569Y-75441062D01*
X113484026Y-77566117D02*
X113953611Y-77172089D01*
X115572695Y-75865732D02*
X116077518Y-75442135D01*
X113474499Y-77626327D02*
X113979323Y-77202730D01*
X115598407Y-75896374D02*
X116136936Y-75444494D01*
X113466505Y-77685252D02*
X114005034Y-77233372D01*
X115624118Y-75927016D02*
X116194821Y-75448139D01*
X113460043Y-77742891D02*
X114030746Y-77264014D01*
X115649830Y-75957658D02*
X116251941Y-75452426D01*
X113454346Y-77799887D02*
X114056457Y-77294656D01*
X115675541Y-75988299D02*
X116306762Y-75458642D01*
X113450948Y-77854955D02*
X114082169Y-77325298D01*
X115701253Y-76018941D02*
X116360817Y-75465501D01*
X113448316Y-77909379D02*
X114107880Y-77355939D01*
X115726964Y-76049583D02*
X116414106Y-75473002D01*
X113446450Y-77963162D02*
X114133592Y-77386581D01*
X115752676Y-76080225D02*
X116465863Y-75481789D01*
X113446116Y-78015658D02*
X114159303Y-77417223D01*
X115778387Y-76110866D02*
X116516854Y-75491219D01*
X113446548Y-78067512D02*
X114185015Y-77447865D01*
X115804099Y-76141508D02*
X116566313Y-75501935D01*
X113448512Y-78118080D02*
X114210726Y-77478506D01*
X115829810Y-76172150D02*
X116615006Y-75513293D01*
X113451242Y-78168005D02*
X114236438Y-77509148D01*
X115855522Y-76202792D02*
X116663699Y-75524651D01*
X113453972Y-78217931D02*
X114262149Y-77539790D01*
X115881233Y-76233434D02*
X116710093Y-75537937D01*
X113459001Y-78265928D02*
X114287861Y-77570432D01*
X115906945Y-76264075D02*
X116756488Y-75551224D01*
X113464029Y-78313925D02*
X114313572Y-77601074D01*
X115932656Y-76294717D02*
X116802117Y-75565153D01*
X113469823Y-78361279D02*
X114339284Y-77631715D01*
X115958368Y-76325359D02*
X116846979Y-75579725D01*
X113476384Y-78407991D02*
X114364995Y-77662357D01*
X115984079Y-76356001D02*
X116891076Y-75594940D01*
X113483710Y-78454059D02*
X114390707Y-77692999D01*
X116009791Y-76386642D02*
X116934406Y-75610798D01*
X113491803Y-78499485D02*
X114416418Y-77723641D01*
X116035502Y-76417284D02*
X116976205Y-75627941D01*
X113501427Y-78543626D02*
X114442130Y-77754282D01*
X116061214Y-76447926D02*
X117018769Y-75644441D01*
X113510286Y-78588409D02*
X114467841Y-77784924D01*
X116086925Y-76478568D02*
X117059802Y-75662227D01*
X113520676Y-78631906D02*
X114493553Y-77815566D01*
X116112637Y-76509210D02*
X117100068Y-75680656D01*
X113531833Y-78674761D02*
X114519264Y-77846208D01*
X116138348Y-76539851D02*
X117140334Y-75699085D01*
X113542990Y-78717616D02*
X114544976Y-77876850D01*
X116164060Y-76570493D02*
X117179069Y-75718799D01*
X113555678Y-78759185D02*
X114570687Y-77907491D01*
X116189771Y-76601135D02*
X117217803Y-75738514D01*
X113568367Y-78800754D02*
X114596399Y-77938133D01*
X116215483Y-76631777D02*
X117255771Y-75758871D01*
X113581822Y-78841680D02*
X114622110Y-77968775D01*
X116241194Y-76662418D02*
X117293739Y-75779228D01*
X113595277Y-78882607D02*
X114647822Y-77999417D01*
X116266906Y-76693060D02*
X117330176Y-75800871D01*
X113610264Y-78922248D02*
X114673533Y-78030058D01*
X116292617Y-76723702D02*
X117366612Y-75822514D01*
X113625251Y-78961888D02*
X114699245Y-78060700D01*
X116318329Y-76754344D02*
X117402282Y-75844799D01*
X113641004Y-79000886D02*
X114724956Y-78091342D01*
X116344040Y-76784986D02*
X117437952Y-75867085D01*
X113656756Y-79039884D02*
X114750668Y-78121984D01*
X116369752Y-76815627D02*
X117472856Y-75890013D01*
X113673275Y-79078240D02*
X114776379Y-78152626D01*
X116396106Y-76847035D02*
X117507637Y-75914350D01*
X113691203Y-79116718D02*
X114802734Y-78184033D01*
X116421818Y-76877677D02*
X117541009Y-75938564D01*
X113709254Y-79153788D02*
X114828445Y-78214675D01*
X116447529Y-76908319D02*
X117574381Y-75962778D01*
X113727305Y-79190857D02*
X114854157Y-78245317D01*
X116473241Y-76938960D02*
X117606986Y-75987635D01*
X113746122Y-79227284D02*
X114879868Y-78275959D01*
X116498952Y-76969602D02*
X117638826Y-76013134D01*
X113765706Y-79263068D02*
X114905580Y-78306600D01*
X116524664Y-77000244D02*
X117670666Y-76038634D01*
X113785289Y-79298852D02*
X114931291Y-78337242D01*
X116550375Y-77030886D02*
X117701740Y-76064776D01*
X113805638Y-79333994D02*
X114957003Y-78367884D01*
X116576087Y-77061528D02*
X117732814Y-76090918D01*
X113825987Y-79369135D02*
X114982714Y-78398526D01*
X116601798Y-77092169D02*
X117763122Y-76117703D01*
X113847102Y-79403634D02*
X115008426Y-78429168D01*
X116627510Y-77122811D02*
X117792663Y-76145131D01*
X113868984Y-79437489D02*
X115034137Y-78459809D01*
X116653221Y-77153453D02*
X117821439Y-76173202D01*
X113891631Y-79470702D02*
X115059849Y-78490451D01*
X116678933Y-77184095D02*
X117850215Y-76201272D01*
X113914278Y-79503915D02*
X115085560Y-78521093D01*
X113936926Y-79537128D02*
X117878990Y-76229343D01*
X113960339Y-79569698D02*
X117907000Y-76258056D01*
X113984518Y-79601626D02*
X117934244Y-76287413D01*
X114009464Y-79632910D02*
X117960721Y-76317412D01*
X114034409Y-79664195D02*
X117987199Y-76347411D01*
X114060121Y-79694836D02*
X118012910Y-76378052D01*
X118656514Y-78036444D02*
G75*
G03X118656514Y-78036444I-2619999J0D01*
G01*
X21043816Y-33929205D02*
G75*
G02X21568000Y-33202000I2324184J-1122795D01*
G01*
X21011600Y-36150807D02*
G75*
G03X23368000Y-37652000I2356400J1098807D01*
G01*
X25724400Y-36150807D02*
G75*
G02X23368000Y-37652000I-2356400J1098807D01*
G01*
X25692184Y-33929205D02*
G75*
G03X25168000Y-33202000I-2324184J-1122795D01*
G01*
X25168000Y-33202000D02*
X21568000Y-33202000D01*
X21043816Y-52217205D02*
G75*
G02X21568000Y-51490000I2324184J-1122795D01*
G01*
X21011600Y-54438807D02*
G75*
G03X23368000Y-55940000I2356400J1098807D01*
G01*
X25724400Y-54438807D02*
G75*
G02X23368000Y-55940000I-2356400J1098807D01*
G01*
X25692184Y-52217205D02*
G75*
G03X25168000Y-51490000I-2324184J-1122795D01*
G01*
X25168000Y-51490000D02*
X21568000Y-51490000D01*
X39996650Y-84567420D02*
X34450488Y-89221202D01*
X38235412Y-82468458D02*
X32689250Y-87122240D01*
X39996650Y-84567420D02*
X38235412Y-82468458D01*
X34450488Y-89221202D02*
X32689250Y-87122240D01*
X96817075Y-88971545D02*
X98187075Y-91344455D01*
X90547052Y-92591545D02*
X91917052Y-94964455D01*
X91917052Y-94964455D02*
X98187075Y-91344455D01*
X90547052Y-92591545D02*
X96817075Y-88971545D01*
X35306625Y-98193897D02*
X29036602Y-94573897D01*
X36676625Y-95820987D02*
X30406602Y-92200987D01*
X35306625Y-98193897D02*
X36676625Y-95820987D01*
X29036602Y-94573897D02*
X30406602Y-92200987D01*
X65632000Y-88162000D02*
X62892000Y-88162000D01*
X65632000Y-80922000D02*
X62892000Y-80922000D01*
X62892000Y-80922000D02*
X62892000Y-88162000D01*
X65632000Y-80922000D02*
X65632000Y-88162000D01*
X107136351Y-34973458D02*
X108073486Y-37548216D01*
X100332977Y-37449684D02*
X101270112Y-40024441D01*
X101270112Y-40024441D02*
X108073486Y-37548216D01*
X100332977Y-37449684D02*
X107136351Y-34973458D01*
X32744479Y-72093227D02*
X38290641Y-67439445D01*
X34505717Y-74192189D02*
X40051879Y-69538407D01*
X32744479Y-72093227D02*
X34505717Y-74192189D01*
X38290641Y-67439445D02*
X40051879Y-69538407D01*
X57147573Y-83154659D02*
X58908811Y-85253621D01*
X51601411Y-87808441D02*
X53362649Y-89907403D01*
X53362649Y-89907403D02*
X58908811Y-85253621D01*
X51601411Y-87808441D02*
X57147573Y-83154659D01*
X32122455Y-50669052D02*
X35742455Y-56939075D01*
X29749545Y-52039052D02*
X33369545Y-58309075D01*
X32122455Y-50669052D02*
X29749545Y-52039052D01*
X35742455Y-56939075D02*
X33369545Y-58309075D01*
X70443079Y-27718460D02*
X70918875Y-25020087D01*
X77573087Y-28975673D02*
X78048883Y-26277299D01*
X78048883Y-26277299D02*
X70918875Y-25020087D01*
X77573087Y-28975673D02*
X70443079Y-27718460D01*
X130795422Y-44087122D02*
G75*
G03X130795422Y-44087122I-4120000J0D01*
G01*
X124052849Y-47212583D02*
X129297996Y-40961660D01*
X124022207Y-47186872D02*
X129267354Y-40935949D01*
X123991565Y-47161160D02*
X129236712Y-40910237D01*
X123961566Y-47134682D02*
X129205428Y-40885292D01*
X123932210Y-47107439D02*
X129173500Y-40861112D01*
X123902211Y-47080961D02*
X129142216Y-40836167D01*
X123872855Y-47053718D02*
X129110288Y-40811988D01*
X123844141Y-47025708D02*
X129077718Y-40788574D01*
X123815428Y-46997698D02*
X129045148Y-40765161D01*
X123786715Y-46969689D02*
X129012578Y-40741747D01*
X123758644Y-46940913D02*
X128979365Y-40719100D01*
X123730573Y-46912137D02*
X128946152Y-40696453D01*
X123703145Y-46882596D02*
X128912296Y-40674572D01*
X123675075Y-46853820D02*
X128879083Y-40651924D01*
X123648290Y-46823512D02*
X128844585Y-40630809D01*
X123620862Y-46793971D02*
X128810729Y-40608928D01*
X123594720Y-46762897D02*
X128775588Y-40588579D01*
X123567935Y-46732589D02*
X128741089Y-40567463D01*
X123541026Y-46700872D02*
X125454605Y-44420358D01*
X126791603Y-42826986D02*
X128705182Y-40546471D01*
X123514884Y-46669799D02*
X125423963Y-44394647D01*
X126760962Y-42801274D02*
X128670041Y-40526122D01*
X123489385Y-46637959D02*
X125393322Y-44368935D01*
X126730320Y-42775563D02*
X128634257Y-40506539D01*
X123463885Y-46606119D02*
X125362680Y-44343224D01*
X126699678Y-42749851D02*
X128598473Y-40486956D01*
X123439028Y-46573513D02*
X125332038Y-44317512D01*
X126669036Y-42724140D02*
X128562046Y-40468139D01*
X123414172Y-46540907D02*
X125301396Y-44291801D01*
X126638394Y-42698428D02*
X128525619Y-40449322D01*
X123389315Y-46508301D02*
X125270754Y-44266089D01*
X126607753Y-42672717D02*
X128489192Y-40430504D01*
X123365101Y-46474929D02*
X125240113Y-44240378D01*
X126577111Y-42647005D02*
X128452122Y-40412453D01*
X123340887Y-46441557D02*
X125209471Y-44214666D01*
X126546469Y-42621294D02*
X128415053Y-40394402D01*
X123317316Y-46407419D02*
X125178829Y-44188954D01*
X126515827Y-42595582D02*
X128377340Y-40377117D01*
X123293745Y-46373281D02*
X125148187Y-44163243D01*
X126485186Y-42569871D02*
X128339628Y-40359832D01*
X123270174Y-46339143D02*
X125117546Y-44137531D01*
X126454544Y-42544159D02*
X128301915Y-40342547D01*
X123247246Y-46304239D02*
X125086904Y-44111820D01*
X126423902Y-42518448D02*
X128263560Y-40326028D01*
X123224960Y-46268569D02*
X125056262Y-44086108D01*
X126393260Y-42492736D02*
X128224562Y-40310275D01*
X123202032Y-46233665D02*
X125025620Y-44060397D01*
X126362618Y-42467025D02*
X128186207Y-40293756D01*
X123180389Y-46197229D02*
X124994978Y-44034685D01*
X126331977Y-42441313D02*
X128146566Y-40278770D01*
X123158103Y-46161559D02*
X124964337Y-44008974D01*
X126301335Y-42415602D02*
X128107568Y-40263017D01*
X123137103Y-46124357D02*
X124933695Y-43983262D01*
X126270693Y-42389890D02*
X128067284Y-40248796D01*
X123115461Y-46087921D02*
X124903053Y-43957551D01*
X126240051Y-42364179D02*
X128027644Y-40233809D01*
X123095104Y-46049952D02*
X124872411Y-43931839D01*
X126209410Y-42338467D02*
X127986717Y-40220354D01*
X123074104Y-46012750D02*
X124841770Y-43906128D01*
X126178768Y-42312756D02*
X127946434Y-40206133D01*
X123053746Y-45974782D02*
X124811128Y-43880416D01*
X126148126Y-42287044D02*
X127905507Y-40192678D01*
X123034032Y-45936048D02*
X124780486Y-43854705D01*
X126117484Y-42261332D02*
X127863938Y-40179990D01*
X123014318Y-45897313D02*
X124749844Y-43828993D01*
X126086842Y-42235621D02*
X127822369Y-40167301D01*
X122995246Y-45857813D02*
X124719202Y-43803282D01*
X126056201Y-42209909D02*
X127780157Y-40155378D01*
X122976174Y-45818313D02*
X124688561Y-43777570D01*
X126025559Y-42184198D02*
X127737945Y-40143456D01*
X122957103Y-45778813D02*
X124657919Y-43751859D01*
X125994917Y-42158486D02*
X127695733Y-40131533D01*
X122939317Y-45737780D02*
X124627277Y-43726147D01*
X125964275Y-42132775D02*
X127652236Y-40121142D01*
X122920888Y-45697514D02*
X124596635Y-43700436D01*
X125933634Y-42107063D02*
X127609381Y-40109986D01*
X122903102Y-45656481D02*
X124565994Y-43674724D01*
X125902992Y-42081352D02*
X127565883Y-40099595D01*
X122885959Y-45614683D02*
X124535352Y-43649013D01*
X125872350Y-42055640D02*
X127521743Y-40089970D01*
X122869458Y-45572118D02*
X124504710Y-43623301D01*
X125841708Y-42029929D02*
X127476960Y-40081112D01*
X122852958Y-45529554D02*
X124474068Y-43597590D01*
X125811066Y-42004217D02*
X127432177Y-40072253D01*
X122836457Y-45486990D02*
X124443426Y-43571878D01*
X125780425Y-41978506D02*
X127387394Y-40063395D01*
X122820600Y-45443659D02*
X124412785Y-43546167D01*
X125749783Y-41952794D02*
X127341968Y-40055302D01*
X122805385Y-45399562D02*
X124382143Y-43520455D01*
X125719141Y-41927083D02*
X127295899Y-40047976D01*
X122790170Y-45355466D02*
X124351501Y-43494744D01*
X125688499Y-41901371D02*
X127249830Y-40040649D01*
X122775598Y-45310603D02*
X124320859Y-43469032D01*
X125657858Y-41875660D02*
X127203119Y-40034089D01*
X122761669Y-45264975D02*
X124290218Y-43443321D01*
X125627216Y-41849948D02*
X127155765Y-40028295D01*
X122747739Y-45219346D02*
X124259576Y-43417609D01*
X125596574Y-41824237D02*
X127108410Y-40022500D01*
X122734453Y-45172951D02*
X124228934Y-43391898D01*
X125565932Y-41798525D02*
X127060413Y-40017472D01*
X122721166Y-45126556D02*
X124198292Y-43366186D01*
X125535290Y-41772814D02*
X127012416Y-40012444D01*
X122709165Y-45078630D02*
X124167650Y-43340475D01*
X125504649Y-41747102D02*
X126963134Y-40008948D01*
X122697164Y-45030703D02*
X124137009Y-43314763D01*
X125474007Y-41721391D02*
X126913851Y-40005451D01*
X122685806Y-44982010D02*
X124106367Y-43289052D01*
X125443365Y-41695679D02*
X126863926Y-40002721D01*
X122674448Y-44933317D02*
X124075725Y-43263340D01*
X125412723Y-41669968D02*
X126814000Y-39999991D01*
X122663733Y-44883858D02*
X124045083Y-43237629D01*
X125382082Y-41644256D02*
X126763432Y-39998027D01*
X122654303Y-44832867D02*
X124014442Y-43211917D01*
X125351440Y-41618545D02*
X126711578Y-39997595D01*
X122644230Y-44782642D02*
X123983800Y-43186206D01*
X125320798Y-41592833D02*
X126660367Y-39996397D01*
X122635443Y-44730885D02*
X123953158Y-43160494D01*
X125290156Y-41567122D02*
X126607871Y-39996731D01*
X122627299Y-44678362D02*
X123922516Y-43134783D01*
X125259514Y-41541410D02*
X126554731Y-39997831D01*
X122619798Y-44625073D02*
X123891874Y-43109071D01*
X125228873Y-41515699D02*
X126500949Y-39999697D01*
X122612296Y-44571784D02*
X126447167Y-40001563D01*
X122606080Y-44516963D02*
X126392099Y-40004961D01*
X122599865Y-44462142D02*
X126337032Y-40008359D01*
X122594934Y-44405788D02*
X126280678Y-40013290D01*
X122590647Y-44348669D02*
X126223682Y-40018986D01*
X122587002Y-44290784D02*
X126166044Y-40025448D01*
X122584000Y-44232132D02*
X126107762Y-40032677D01*
X122581641Y-44172715D02*
X126048837Y-40040671D01*
X122580568Y-44111765D02*
X125988627Y-40050198D01*
X122580137Y-44050050D02*
X125927775Y-40060490D01*
X122580349Y-43987568D02*
X125866279Y-40071549D01*
X122582489Y-43922788D02*
X125802855Y-40084906D01*
X122584630Y-43858009D02*
X125739431Y-40098262D01*
X122588698Y-43790931D02*
X125674079Y-40113917D01*
X122593410Y-43723087D02*
X125608084Y-40130338D01*
X122600050Y-43652945D02*
X125540160Y-40149057D01*
X122607333Y-43582037D02*
X125471594Y-40168542D01*
X122616544Y-43508830D02*
X125401099Y-40190326D01*
X122627040Y-43434092D02*
X125329319Y-40213641D01*
X122640108Y-43356289D02*
X125254968Y-40240021D01*
X122654461Y-43276955D02*
X125179331Y-40267932D01*
X122671386Y-43194556D02*
X125101123Y-40298908D01*
X122690239Y-43109859D02*
X125020987Y-40332182D01*
X122712305Y-43021332D02*
X124937636Y-40369286D01*
X122736943Y-42929741D02*
X124851715Y-40409454D01*
X122766081Y-42832787D02*
X124761294Y-40454985D01*
X122799075Y-42731237D02*
X124667016Y-40505112D01*
X122837212Y-42623559D02*
X124567596Y-40561367D01*
X122881776Y-42508220D02*
X124461748Y-40625283D01*
X122935339Y-42382157D02*
X124346901Y-40699923D01*
X123001116Y-42241539D02*
X124219841Y-40789118D01*
X123086176Y-42077939D02*
X124073498Y-40901295D01*
X123206589Y-41872207D02*
X123891801Y-41055604D01*
X128565394Y-48695014D02*
X127952558Y-48180784D01*
X128001861Y-48744317D02*
X128516091Y-48131481D01*
X110721351Y-26153403D02*
X105175189Y-21499621D01*
X112482589Y-24054441D02*
X106936427Y-19400659D01*
X110721351Y-26153403D02*
X112482589Y-24054441D01*
X105175189Y-21499621D02*
X106936427Y-19400659D01*
X25711051Y-85688298D02*
X28285809Y-84751163D01*
X28187277Y-92491672D02*
X30762034Y-91554537D01*
X30762034Y-91554537D02*
X28285809Y-84751163D01*
X28187277Y-92491672D02*
X25711051Y-85688298D01*
X66906000Y-103986000D02*
X59666000Y-103986000D01*
X66906000Y-101246000D02*
X59666000Y-101246000D01*
X66906000Y-103986000D02*
X66906000Y-101246000D01*
X59666000Y-103986000D02*
X59666000Y-101246000D01*
X40540000Y-41632000D02*
X43280000Y-41632000D01*
X40540000Y-48872000D02*
X43280000Y-48872000D01*
X43280000Y-48872000D02*
X43280000Y-41632000D01*
X40540000Y-48872000D02*
X40540000Y-41632000D01*
X69719052Y-60333545D02*
X75989075Y-56713545D01*
X71089052Y-62706455D02*
X77359075Y-59086455D01*
X69719052Y-60333545D02*
X71089052Y-62706455D01*
X75989075Y-56713545D02*
X77359075Y-59086455D01*
X116994000Y-94718000D02*
X119734000Y-94718000D01*
X116994000Y-101958000D02*
X119734000Y-101958000D01*
X119734000Y-101958000D02*
X119734000Y-94718000D01*
X116994000Y-101958000D02*
X116994000Y-94718000D01*
X27204068Y-59690990D02*
X26232731Y-57022263D01*
X26978542Y-59773075D02*
X26007205Y-57104347D01*
X27091305Y-59732032D02*
X26119968Y-57063305D01*
X23451241Y-58034642D02*
X23512804Y-58203787D01*
X26683783Y-56858093D02*
X23451241Y-58034642D01*
X26745347Y-57027238D02*
X26683783Y-56858093D01*
X24422578Y-60703369D02*
X24361014Y-60534225D01*
X27655121Y-59526820D02*
X24422578Y-60703369D01*
X27593557Y-59357675D02*
X27655121Y-59526820D01*
X24553781Y-29049553D02*
X24585038Y-29226819D01*
X24585038Y-29226819D02*
X21197299Y-29824168D01*
X21197299Y-29824168D02*
X21166043Y-29646903D01*
X24123134Y-26607230D02*
X24091877Y-26429964D01*
X24091877Y-26429964D02*
X20704139Y-27027314D01*
X20704139Y-27027314D02*
X20735395Y-27204580D01*
X23994153Y-29331007D02*
X23500993Y-26534153D01*
X23875976Y-29351845D02*
X23382816Y-26554991D01*
X24112330Y-29310170D02*
X23619170Y-26513316D01*
X50770000Y-94800000D02*
X50950000Y-94800000D01*
X50950000Y-94800000D02*
X50950000Y-98240000D01*
X50950000Y-98240000D02*
X50770000Y-98240000D01*
X48290000Y-94800000D02*
X48110000Y-94800000D01*
X48110000Y-94800000D02*
X48110000Y-98240000D01*
X48110000Y-98240000D02*
X48290000Y-98240000D01*
X50950000Y-95400000D02*
X48110000Y-95400000D01*
X50950000Y-95520000D02*
X48110000Y-95520000D01*
X50950000Y-95280000D02*
X48110000Y-95280000D01*
X132839600Y-77042800D02*
X129999600Y-77042800D01*
X132839600Y-77282800D02*
X129999600Y-77282800D01*
X132839600Y-77162800D02*
X129999600Y-77162800D01*
X129999600Y-80002800D02*
X130179600Y-80002800D01*
X129999600Y-76562800D02*
X129999600Y-80002800D01*
X130179600Y-76562800D02*
X129999600Y-76562800D01*
X132839600Y-80002800D02*
X132659600Y-80002800D01*
X132839600Y-76562800D02*
X132839600Y-80002800D01*
X132659600Y-76562800D02*
X132839600Y-76562800D01*
X29645286Y-67892587D02*
X29857406Y-68145381D01*
X29857406Y-68145381D02*
X24847475Y-72349212D01*
X24847475Y-72349212D02*
X24635355Y-72096417D01*
X28308288Y-66299214D02*
X28096168Y-66046419D01*
X28096168Y-66046419D02*
X23086237Y-70250250D01*
X23086237Y-70250250D02*
X23298357Y-70503045D01*
X37949110Y-89911029D02*
X37639012Y-90023895D01*
X40185922Y-96056618D02*
X37949110Y-89911029D01*
X39875823Y-96169485D02*
X40185922Y-96056618D01*
X35374352Y-90848164D02*
X35684451Y-90735297D01*
X37611164Y-96993754D02*
X35374352Y-90848164D01*
X37921263Y-96880887D02*
X37611164Y-96993754D01*
X31317817Y-84513537D02*
X31105697Y-84260743D01*
X31105697Y-84260743D02*
X36115628Y-80056912D01*
X36115628Y-80056912D02*
X36327748Y-80309707D01*
X32654815Y-86106910D02*
X32866935Y-86359705D01*
X32866935Y-86359705D02*
X37876866Y-82155874D01*
X37876866Y-82155874D02*
X37664746Y-81903079D01*
X119584600Y-74974200D02*
X119254600Y-74974200D01*
X119254600Y-74974200D02*
X119254600Y-68434200D01*
X119254600Y-68434200D02*
X119584600Y-68434200D01*
X121664600Y-74974200D02*
X121994600Y-74974200D01*
X121994600Y-74974200D02*
X121994600Y-68434200D01*
X121994600Y-68434200D02*
X121664600Y-68434200D01*
X130202000Y-72612000D02*
X130532000Y-72612000D01*
X130202000Y-66072000D02*
X130202000Y-72612000D01*
X130532000Y-66072000D02*
X130202000Y-66072000D01*
X132942000Y-72612000D02*
X132612000Y-72612000D01*
X132942000Y-66072000D02*
X132942000Y-72612000D01*
X132612000Y-66072000D02*
X132942000Y-66072000D01*
X98043165Y-87248208D02*
X97831045Y-86995414D01*
X97831045Y-86995414D02*
X102840976Y-82791583D01*
X102840976Y-82791583D02*
X103053096Y-83044378D01*
X99380163Y-88841581D02*
X99592283Y-89094376D01*
X99592283Y-89094376D02*
X104602214Y-84890545D01*
X104602214Y-84890545D02*
X104390094Y-84637750D01*
X35208798Y-63093970D02*
X35266102Y-63418957D01*
X35266102Y-63418957D02*
X28825459Y-64554616D01*
X28825459Y-64554616D02*
X28768155Y-64229629D01*
X34847610Y-61045570D02*
X34790306Y-60720583D01*
X34790306Y-60720583D02*
X28349663Y-61856242D01*
X28349663Y-61856242D02*
X28406967Y-62181229D01*
X39571654Y-78331334D02*
X39406654Y-78045545D01*
X39406654Y-78045545D02*
X45070460Y-74775545D01*
X45070460Y-74775545D02*
X45235460Y-75061334D01*
X40611654Y-80132666D02*
X40776654Y-80418455D01*
X40776654Y-80418455D02*
X46440460Y-77148455D01*
X46440460Y-77148455D02*
X46275460Y-76862666D01*
X120089654Y-89761334D02*
X119924654Y-89475545D01*
X119924654Y-89475545D02*
X125588460Y-86205545D01*
X125588460Y-86205545D02*
X125753460Y-86491334D01*
X121129654Y-91562666D02*
X121294654Y-91848455D01*
X121294654Y-91848455D02*
X126958460Y-88578455D01*
X126958460Y-88578455D02*
X126793460Y-88292666D01*
X82018000Y-58896000D02*
X81688000Y-58896000D01*
X81688000Y-58896000D02*
X81688000Y-52356000D01*
X81688000Y-52356000D02*
X82018000Y-52356000D01*
X84098000Y-58896000D02*
X84428000Y-58896000D01*
X84428000Y-58896000D02*
X84428000Y-52356000D01*
X84428000Y-52356000D02*
X84098000Y-52356000D01*
X45264346Y-54764666D02*
X45429346Y-55050455D01*
X45429346Y-55050455D02*
X39765540Y-58320455D01*
X39765540Y-58320455D02*
X39600540Y-58034666D01*
X44224346Y-52963334D02*
X44059346Y-52677545D01*
X44059346Y-52677545D02*
X38395540Y-55947545D01*
X38395540Y-55947545D02*
X38560540Y-56233334D01*
X63995583Y-57628976D02*
X64248378Y-57841096D01*
X68199414Y-52619045D02*
X63995583Y-57628976D01*
X68452208Y-52831165D02*
X68199414Y-52619045D01*
X66094545Y-59390214D02*
X65841750Y-59178094D01*
X70298376Y-54380283D02*
X66094545Y-59390214D01*
X70045581Y-54168163D02*
X70298376Y-54380283D01*
X48581545Y-62950460D02*
X48867334Y-62785460D01*
X45311545Y-57286654D02*
X48581545Y-62950460D01*
X45597334Y-57121654D02*
X45311545Y-57286654D01*
X50954455Y-61580460D02*
X50668666Y-61745460D01*
X47684455Y-55916654D02*
X50954455Y-61580460D01*
X47398666Y-56081654D02*
X47684455Y-55916654D01*
X42771334Y-66346346D02*
X42485545Y-66511346D01*
X42485545Y-66511346D02*
X39215545Y-60847540D01*
X39215545Y-60847540D02*
X39501334Y-60682540D01*
X44572666Y-65306346D02*
X44858455Y-65141346D01*
X44858455Y-65141346D02*
X41588455Y-59477540D01*
X41588455Y-59477540D02*
X41302666Y-59642540D01*
X77682460Y-55050455D02*
X77517460Y-54764666D01*
X72018654Y-58320455D02*
X77682460Y-55050455D01*
X71853654Y-58034666D02*
X72018654Y-58320455D01*
X76312460Y-52677545D02*
X76477460Y-52963334D01*
X70648654Y-55947545D02*
X76312460Y-52677545D01*
X70813654Y-56233334D02*
X70648654Y-55947545D01*
X85320000Y-62452000D02*
X84990000Y-62452000D01*
X84990000Y-62452000D02*
X84990000Y-55912000D01*
X84990000Y-55912000D02*
X85320000Y-55912000D01*
X87400000Y-62452000D02*
X87730000Y-62452000D01*
X87730000Y-62452000D02*
X87730000Y-55912000D01*
X87730000Y-55912000D02*
X87400000Y-55912000D01*
X94080000Y-48292000D02*
X93750000Y-48292000D01*
X94080000Y-54832000D02*
X94080000Y-48292000D01*
X93750000Y-54832000D02*
X94080000Y-54832000D01*
X91340000Y-48292000D02*
X91670000Y-48292000D01*
X91340000Y-54832000D02*
X91340000Y-48292000D01*
X91670000Y-54832000D02*
X91340000Y-54832000D01*
X62670455Y-30013540D02*
X62384666Y-30178540D01*
X65940455Y-35677346D02*
X62670455Y-30013540D01*
X65654666Y-35842346D02*
X65940455Y-35677346D01*
X60297545Y-31383540D02*
X60583334Y-31218540D01*
X63567545Y-37047346D02*
X60297545Y-31383540D01*
X63853334Y-36882346D02*
X63567545Y-37047346D01*
X89863654Y-34135334D02*
X89698654Y-33849545D01*
X89698654Y-33849545D02*
X95362460Y-30579545D01*
X95362460Y-30579545D02*
X95527460Y-30865334D01*
X90903654Y-35936666D02*
X91068654Y-36222455D01*
X91068654Y-36222455D02*
X96732460Y-32952455D01*
X96732460Y-32952455D02*
X96567460Y-32666666D01*
X106856200Y-46285400D02*
X106526200Y-46285400D01*
X106856200Y-52825400D02*
X106856200Y-46285400D01*
X106526200Y-52825400D02*
X106856200Y-52825400D01*
X104116200Y-46285400D02*
X104446200Y-46285400D01*
X104116200Y-52825400D02*
X104116200Y-46285400D01*
X104446200Y-52825400D02*
X104116200Y-52825400D01*
X31563545Y-37804460D02*
X31849334Y-37639460D01*
X28293545Y-32140654D02*
X31563545Y-37804460D01*
X28579334Y-31975654D02*
X28293545Y-32140654D01*
X33936455Y-36434460D02*
X33650666Y-36599460D01*
X30666455Y-30770654D02*
X33936455Y-36434460D01*
X30380666Y-30935654D02*
X30666455Y-30770654D01*
X112068545Y-28493786D02*
X111815750Y-28705906D01*
X116272376Y-33503717D02*
X112068545Y-28493786D01*
X116019581Y-33715837D02*
X116272376Y-33503717D01*
X109969583Y-30255024D02*
X110222378Y-30042904D01*
X114173414Y-35264955D02*
X109969583Y-30255024D01*
X114426208Y-35052835D02*
X114173414Y-35264955D01*
X111306545Y-34843786D02*
X111053750Y-35055906D01*
X115510376Y-39853717D02*
X111306545Y-34843786D01*
X115257581Y-40065837D02*
X115510376Y-39853717D01*
X109207583Y-36605024D02*
X109460378Y-36392904D01*
X113411414Y-41614955D02*
X109207583Y-36605024D01*
X113664208Y-41402835D02*
X113411414Y-41614955D01*
X43970346Y-40762666D02*
X43805346Y-41048455D01*
X43805346Y-41048455D02*
X38141540Y-37778455D01*
X38141540Y-37778455D02*
X38306540Y-37492666D01*
X45010346Y-38961334D02*
X45175346Y-38675545D01*
X45175346Y-38675545D02*
X39511540Y-35405545D01*
X39511540Y-35405545D02*
X39346540Y-35691334D01*
X69976208Y-37846835D02*
X69723414Y-38058955D01*
X69723414Y-38058955D02*
X65519583Y-33049024D01*
X65519583Y-33049024D02*
X65772378Y-32836904D01*
X71569581Y-36509837D02*
X71822376Y-36297717D01*
X71822376Y-36297717D02*
X67618545Y-31287786D01*
X67618545Y-31287786D02*
X67365750Y-31499906D01*
X81688000Y-48990000D02*
X82018000Y-48990000D01*
X81688000Y-42450000D02*
X81688000Y-48990000D01*
X82018000Y-42450000D02*
X81688000Y-42450000D01*
X84428000Y-48990000D02*
X84098000Y-48990000D01*
X84428000Y-42450000D02*
X84428000Y-48990000D01*
X84098000Y-42450000D02*
X84428000Y-42450000D01*
X44858455Y-28081540D02*
X44572666Y-27916540D01*
X41588455Y-33745346D02*
X44858455Y-28081540D01*
X41302666Y-33580346D02*
X41588455Y-33745346D01*
X42485545Y-26711540D02*
X42771334Y-26876540D01*
X39215545Y-32375346D02*
X42485545Y-26711540D01*
X39501334Y-32540346D02*
X39215545Y-32375346D01*
X50668666Y-31721654D02*
X50954455Y-31886654D01*
X50954455Y-31886654D02*
X47684455Y-37550460D01*
X47684455Y-37550460D02*
X47398666Y-37385460D01*
X48867334Y-30681654D02*
X48581545Y-30516654D01*
X48581545Y-30516654D02*
X45311545Y-36180460D01*
X45311545Y-36180460D02*
X45597334Y-36345460D01*
X72081455Y-35006214D02*
X72334250Y-34794094D01*
X67877624Y-29996283D02*
X72081455Y-35006214D01*
X68130419Y-29784163D02*
X67877624Y-29996283D01*
X74180417Y-33244976D02*
X73927622Y-33457096D01*
X69976586Y-28235045D02*
X74180417Y-33244976D01*
X69723792Y-28447165D02*
X69976586Y-28235045D01*
X76176000Y-38576000D02*
X75846000Y-38576000D01*
X75846000Y-38576000D02*
X75846000Y-32036000D01*
X75846000Y-32036000D02*
X76176000Y-32036000D01*
X78256000Y-38576000D02*
X78586000Y-38576000D01*
X78586000Y-38576000D02*
X78586000Y-32036000D01*
X78586000Y-32036000D02*
X78256000Y-32036000D01*
X62000000Y-81058000D02*
X62330000Y-81058000D01*
X62330000Y-81058000D02*
X62330000Y-87598000D01*
X62330000Y-87598000D02*
X62000000Y-87598000D01*
X59920000Y-81058000D02*
X59590000Y-81058000D01*
X59590000Y-81058000D02*
X59590000Y-87598000D01*
X59590000Y-87598000D02*
X59920000Y-87598000D01*
X57978163Y-103690419D02*
X58190283Y-103437624D01*
X58190283Y-103437624D02*
X63200214Y-107641455D01*
X63200214Y-107641455D02*
X62988094Y-107894250D01*
X56641165Y-105283792D02*
X56429045Y-105536586D01*
X56429045Y-105536586D02*
X61438976Y-109740417D01*
X61438976Y-109740417D02*
X61651096Y-109487622D01*
X54343583Y-80996976D02*
X54596378Y-81209096D01*
X58547414Y-75987045D02*
X54343583Y-80996976D01*
X58800208Y-76199165D02*
X58547414Y-75987045D01*
X56442545Y-82758214D02*
X56189750Y-82546094D01*
X60646376Y-77748283D02*
X56442545Y-82758214D01*
X60393581Y-77536163D02*
X60646376Y-77748283D01*
X73176000Y-95282000D02*
X73506000Y-95282000D01*
X73506000Y-95282000D02*
X73506000Y-101822000D01*
X73506000Y-101822000D02*
X73176000Y-101822000D01*
X71096000Y-95282000D02*
X70766000Y-95282000D01*
X70766000Y-95282000D02*
X70766000Y-101822000D01*
X70766000Y-101822000D02*
X71096000Y-101822000D01*
X70204000Y-95282000D02*
X69874000Y-95282000D01*
X70204000Y-101822000D02*
X70204000Y-95282000D01*
X69874000Y-101822000D02*
X70204000Y-101822000D01*
X67464000Y-95282000D02*
X67794000Y-95282000D01*
X67464000Y-101822000D02*
X67464000Y-95282000D01*
X67794000Y-101822000D02*
X67464000Y-101822000D01*
X128736460Y-91880455D02*
X128571460Y-91594666D01*
X123072654Y-95150455D02*
X128736460Y-91880455D01*
X122907654Y-94864666D02*
X123072654Y-95150455D01*
X127366460Y-89507545D02*
X127531460Y-89793334D01*
X121702654Y-92777545D02*
X127366460Y-89507545D01*
X121867654Y-93063334D02*
X121702654Y-92777545D01*
X128990460Y-96198455D02*
X128825460Y-95912666D01*
X123326654Y-99468455D02*
X128990460Y-96198455D01*
X123161654Y-99182666D02*
X123326654Y-99468455D01*
X127620460Y-93825545D02*
X127785460Y-94111334D01*
X121956654Y-97095545D02*
X127620460Y-93825545D01*
X122121654Y-97381334D02*
X121956654Y-97095545D01*
X83311186Y-101655417D02*
G75*
G02X84311186Y-103387469I500000J-866026D01*
G01*
X84311186Y-103387469D02*
X85136186Y-104816411D01*
X85136186Y-104816411D02*
X94038927Y-99676411D01*
X94038927Y-99676411D02*
X91388927Y-95086476D01*
X91388927Y-95086476D02*
X82486186Y-100226476D01*
X82486186Y-100226476D02*
X83311186Y-101655418D01*
X86329225Y-107002814D02*
X95335889Y-101802814D01*
X95335889Y-101802814D02*
X90195889Y-92900073D01*
X90195889Y-92900073D02*
X81189225Y-98100073D01*
X81189225Y-98100073D02*
X86329225Y-107002814D01*
X30650239Y-70409188D02*
X22775302Y-77017045D01*
X37335230Y-78376050D02*
X30650239Y-70409188D01*
X29460293Y-84983907D02*
X37335230Y-78376050D01*
X22775302Y-77017045D02*
X29460293Y-84983907D01*
X28781356Y-72055692D02*
X27517382Y-73116291D01*
X35389212Y-79930629D02*
X28781356Y-72055692D01*
X31329177Y-83337403D02*
X35389212Y-79930629D01*
X24721320Y-75462466D02*
X31329177Y-83337403D01*
X25985293Y-74401867D02*
X24721320Y-75462466D01*
X27517383Y-73116291D02*
G75*
G02X25985293Y-74401867I-766045J-642788D01*
G01*
X22038000Y-43958000D02*
G75*
G02X22038000Y-45958000I0J-1000000D01*
G01*
X22038000Y-45958000D02*
X22038000Y-47608000D01*
X22038000Y-47608000D02*
X39938000Y-47608000D01*
X39938000Y-47608000D02*
X39938000Y-42308000D01*
X39938000Y-42308000D02*
X22038000Y-42308000D01*
X22038000Y-42308000D02*
X22038000Y-43958000D01*
X21978000Y-50098000D02*
X39998000Y-50098000D01*
X39998000Y-50098000D02*
X39998000Y-39818000D01*
X39998000Y-39818000D02*
X21978000Y-39818000D01*
X21978000Y-39818000D02*
X21978000Y-50098000D01*
X60646000Y-44720000D02*
G75*
G02X60646000Y-46720000I0J-1000000D01*
G01*
X60646000Y-46720000D02*
X60646000Y-48370000D01*
X60646000Y-48370000D02*
X81086000Y-48370000D01*
X81086000Y-48370000D02*
X81086000Y-43070000D01*
X81086000Y-43070000D02*
X60646000Y-43070000D01*
X60646000Y-43070000D02*
X60646000Y-44720000D01*
X60586000Y-50860000D02*
X81146000Y-50860000D01*
X81146000Y-50860000D02*
X81146000Y-40580000D01*
X81146000Y-40580000D02*
X60586000Y-40580000D01*
X60586000Y-40580000D02*
X60586000Y-50860000D01*
X100269159Y-36879253D02*
X109929199Y-33363286D01*
X96712150Y-27106450D02*
X100269159Y-36879253D01*
X106372190Y-23590483D02*
X96712150Y-27106450D01*
X109929199Y-33363286D02*
X106372190Y-23590483D01*
X102588472Y-35971241D02*
X104138965Y-35406908D01*
X99072505Y-26311201D02*
X102588472Y-35971241D01*
X104052876Y-24498494D02*
X99072505Y-26311201D01*
X107568843Y-34158535D02*
X104052876Y-24498494D01*
X106018351Y-34722868D02*
X107568843Y-34158535D01*
X104138965Y-35406908D02*
G75*
G02X106018351Y-34722868I939693J342020D01*
G01*
X51730600Y-94732600D02*
G75*
G02X51730600Y-96732600I0J-1000000D01*
G01*
X51730600Y-96732600D02*
X51730600Y-98382600D01*
X51730600Y-98382600D02*
X62010600Y-98382600D01*
X62010600Y-98382600D02*
X62010600Y-93082600D01*
X62010600Y-93082600D02*
X51730600Y-93082600D01*
X51730600Y-93082600D02*
X51730600Y-94732600D01*
X51670600Y-100872600D02*
X62070600Y-100872600D01*
X62070600Y-100872600D02*
X62070600Y-90592600D01*
X62070600Y-90592600D02*
X51670600Y-90592600D01*
X51670600Y-90592600D02*
X51670600Y-100872600D01*
X118588000Y-68892000D02*
X118768000Y-68892000D01*
X118768000Y-68892000D02*
X118768000Y-72332000D01*
X118768000Y-72332000D02*
X118588000Y-72332000D01*
X116108000Y-68892000D02*
X115928000Y-68892000D01*
X115928000Y-68892000D02*
X115928000Y-72332000D01*
X115928000Y-72332000D02*
X116108000Y-72332000D01*
X118768000Y-69492000D02*
X115928000Y-69492000D01*
X118768000Y-69612000D02*
X115928000Y-69612000D01*
X118768000Y-69372000D02*
X115928000Y-69372000D01*
D11*
X112418257Y-23634856D02*
X112357223Y-23663317D01*
X112206695Y-23659204D01*
X112117200Y-23626630D01*
X111999245Y-23533023D01*
X111942324Y-23410955D01*
X111930150Y-23305174D01*
X111950550Y-23109898D01*
X111999410Y-22975656D01*
X112109304Y-22812954D01*
X112186624Y-22739746D01*
X112308692Y-22682825D01*
X112459221Y-22686938D01*
X112548715Y-22719511D01*
X112666670Y-22813118D01*
X112695131Y-22874152D01*
X113053109Y-23004446D02*
X113114143Y-22975985D01*
X113219924Y-22963811D01*
X113443660Y-23045245D01*
X113516868Y-23122565D01*
X113545329Y-23183599D01*
X113557503Y-23289380D01*
X113524929Y-23378875D01*
X113431322Y-23496830D01*
X112698915Y-23838357D01*
X113280629Y-24050084D01*
X114428100Y-23403551D02*
X114249111Y-23338405D01*
X114143330Y-23350579D01*
X114082296Y-23379039D01*
X113943942Y-23480708D01*
X113834048Y-23643410D01*
X113703754Y-24001388D01*
X113715928Y-24107169D01*
X113744389Y-24168203D01*
X113817597Y-24245524D01*
X113996586Y-24310671D01*
X114102367Y-24298497D01*
X114163401Y-24270036D01*
X114240721Y-24196828D01*
X114322155Y-23973092D01*
X114309981Y-23867311D01*
X114281520Y-23806277D01*
X114208312Y-23728956D01*
X114029323Y-23663810D01*
X113923542Y-23675983D01*
X113862508Y-23704444D01*
X113785188Y-23777652D01*
X115755142Y-55518666D02*
X115802761Y-55566285D01*
X115850380Y-55709142D01*
X115850380Y-55804380D01*
X115802761Y-55947238D01*
X115707523Y-56042476D01*
X115612285Y-56090095D01*
X115421809Y-56137714D01*
X115278952Y-56137714D01*
X115088476Y-56090095D01*
X114993238Y-56042476D01*
X114898000Y-55947238D01*
X114850380Y-55804380D01*
X114850380Y-55709142D01*
X114898000Y-55566285D01*
X114945619Y-55518666D01*
X115850380Y-55042476D02*
X115850380Y-54852000D01*
X115802761Y-54756761D01*
X115755142Y-54709142D01*
X115612285Y-54613904D01*
X115421809Y-54566285D01*
X115040857Y-54566285D01*
X114945619Y-54613904D01*
X114898000Y-54661523D01*
X114850380Y-54756761D01*
X114850380Y-54947238D01*
X114898000Y-55042476D01*
X114945619Y-55090095D01*
X115040857Y-55137714D01*
X115278952Y-55137714D01*
X115374190Y-55090095D01*
X115421809Y-55042476D01*
X115469428Y-54947238D01*
X115469428Y-54756761D01*
X115421809Y-54661523D01*
X115374190Y-54613904D01*
X115278952Y-54566285D01*
X79143127Y-92140924D02*
X79087963Y-92102297D01*
X79016260Y-91969880D01*
X78999722Y-91876088D01*
X79021811Y-91727133D01*
X79099064Y-91616803D01*
X79184586Y-91553370D01*
X79363900Y-91473398D01*
X79504587Y-91448592D01*
X79700438Y-91462411D01*
X79802498Y-91492769D01*
X79912827Y-91570022D01*
X79984530Y-91702440D01*
X80001068Y-91796231D01*
X79978979Y-91945187D01*
X79940352Y-92000352D01*
X79711311Y-92620982D02*
X79741668Y-92518922D01*
X79780295Y-92463757D01*
X79865817Y-92400323D01*
X79912713Y-92392055D01*
X80014773Y-92422412D01*
X80069938Y-92461039D01*
X80133371Y-92546561D01*
X80166447Y-92734144D01*
X80136089Y-92836204D01*
X80097463Y-92891368D01*
X80011940Y-92954802D01*
X79965045Y-92963071D01*
X79862985Y-92932713D01*
X79807820Y-92894086D01*
X79744387Y-92808564D01*
X79711311Y-92620982D01*
X79647877Y-92535460D01*
X79592713Y-92496833D01*
X79490652Y-92466475D01*
X79303070Y-92499551D01*
X79217548Y-92562985D01*
X79178921Y-92618149D01*
X79148563Y-92720209D01*
X79181639Y-92907792D01*
X79245073Y-92993314D01*
X79300237Y-93031941D01*
X79402298Y-93062298D01*
X79589880Y-93029222D01*
X79675402Y-92965789D01*
X79714029Y-92910624D01*
X79744387Y-92808564D01*
X132655333Y-83079142D02*
X132607714Y-83126761D01*
X132464857Y-83174380D01*
X132369619Y-83174380D01*
X132226761Y-83126761D01*
X132131523Y-83031523D01*
X132083904Y-82936285D01*
X132036285Y-82745809D01*
X132036285Y-82602952D01*
X132083904Y-82412476D01*
X132131523Y-82317238D01*
X132226761Y-82222000D01*
X132369619Y-82174380D01*
X132464857Y-82174380D01*
X132607714Y-82222000D01*
X132655333Y-82269619D01*
X132988666Y-82174380D02*
X133655333Y-82174380D01*
X133226761Y-83174380D01*
X118893142Y-59368666D02*
X118940761Y-59416285D01*
X118988380Y-59559142D01*
X118988380Y-59654380D01*
X118940761Y-59797238D01*
X118845523Y-59892476D01*
X118750285Y-59940095D01*
X118559809Y-59987714D01*
X118416952Y-59987714D01*
X118226476Y-59940095D01*
X118131238Y-59892476D01*
X118036000Y-59797238D01*
X117988380Y-59654380D01*
X117988380Y-59559142D01*
X118036000Y-59416285D01*
X118083619Y-59368666D01*
X117988380Y-58511523D02*
X117988380Y-58702000D01*
X118036000Y-58797238D01*
X118083619Y-58844857D01*
X118226476Y-58940095D01*
X118416952Y-58987714D01*
X118797904Y-58987714D01*
X118893142Y-58940095D01*
X118940761Y-58892476D01*
X118988380Y-58797238D01*
X118988380Y-58606761D01*
X118940761Y-58511523D01*
X118893142Y-58463904D01*
X118797904Y-58416285D01*
X118559809Y-58416285D01*
X118464571Y-58463904D01*
X118416952Y-58511523D01*
X118369333Y-58606761D01*
X118369333Y-58797238D01*
X118416952Y-58892476D01*
X118464571Y-58940095D01*
X118559809Y-58987714D01*
X75376924Y-111610872D02*
X75338297Y-111666036D01*
X75205880Y-111737739D01*
X75112088Y-111754277D01*
X74963133Y-111732188D01*
X74852803Y-111654935D01*
X74789370Y-111569413D01*
X74709398Y-111390099D01*
X74684592Y-111249412D01*
X74698411Y-111053561D01*
X74728769Y-110951501D01*
X74806022Y-110841172D01*
X74938440Y-110769469D01*
X75032231Y-110752931D01*
X75181187Y-110775020D01*
X75236352Y-110813647D01*
X75548083Y-110661973D02*
X76157726Y-110554476D01*
X75895608Y-110987524D01*
X76036295Y-110962717D01*
X76138355Y-110993075D01*
X76193520Y-111031701D01*
X76256954Y-111117223D01*
X76298298Y-111351701D01*
X76267941Y-111453762D01*
X76229314Y-111508926D01*
X76143792Y-111572360D01*
X75862418Y-111621974D01*
X75760358Y-111591616D01*
X75705193Y-111552989D01*
X118971142Y-29119142D02*
X118923523Y-29166761D01*
X118780666Y-29214380D01*
X118685428Y-29214380D01*
X118542571Y-29166761D01*
X118447333Y-29071523D01*
X118399714Y-28976285D01*
X118352095Y-28785809D01*
X118352095Y-28642952D01*
X118399714Y-28452476D01*
X118447333Y-28357238D01*
X118542571Y-28262000D01*
X118685428Y-28214380D01*
X118780666Y-28214380D01*
X118923523Y-28262000D01*
X118971142Y-28309619D01*
X119923523Y-29214380D02*
X119352095Y-29214380D01*
X119637809Y-29214380D02*
X119637809Y-28214380D01*
X119542571Y-28357238D01*
X119447333Y-28452476D01*
X119352095Y-28500095D01*
X120256857Y-28214380D02*
X120875904Y-28214380D01*
X120542571Y-28595333D01*
X120685428Y-28595333D01*
X120780666Y-28642952D01*
X120828285Y-28690571D01*
X120875904Y-28785809D01*
X120875904Y-29023904D01*
X120828285Y-29119142D01*
X120780666Y-29166761D01*
X120685428Y-29214380D01*
X120399714Y-29214380D01*
X120304476Y-29166761D01*
X120256857Y-29119142D01*
X89074007Y-41954958D02*
X89068138Y-42022046D01*
X88989312Y-42150351D01*
X88916355Y-42211569D01*
X88776312Y-42266917D01*
X88642137Y-42255178D01*
X88544441Y-42212831D01*
X88385527Y-42097526D01*
X88293700Y-41988091D01*
X88207743Y-41811569D01*
X88183003Y-41708004D01*
X88194742Y-41573829D01*
X88273568Y-41445524D01*
X88346524Y-41384306D01*
X88486568Y-41328958D01*
X88553655Y-41334827D01*
X89864791Y-41415736D02*
X89427052Y-41783044D01*
X89645922Y-41599390D02*
X89003134Y-40833346D01*
X89022004Y-41003998D01*
X89010265Y-41138173D01*
X88967918Y-41235869D01*
X89575048Y-40477777D02*
X89580917Y-40410690D01*
X89623265Y-40312994D01*
X89805657Y-40159949D01*
X89909222Y-40135209D01*
X89976309Y-40141079D01*
X90074006Y-40183426D01*
X90135223Y-40256383D01*
X90190572Y-40396427D01*
X90120140Y-41201474D01*
X90594358Y-40803558D01*
X113383142Y-42581142D02*
X113335523Y-42628761D01*
X113192666Y-42676380D01*
X113097428Y-42676380D01*
X112954571Y-42628761D01*
X112859333Y-42533523D01*
X112811714Y-42438285D01*
X112764095Y-42247809D01*
X112764095Y-42104952D01*
X112811714Y-41914476D01*
X112859333Y-41819238D01*
X112954571Y-41724000D01*
X113097428Y-41676380D01*
X113192666Y-41676380D01*
X113335523Y-41724000D01*
X113383142Y-41771619D01*
X114335523Y-42676380D02*
X113764095Y-42676380D01*
X114049809Y-42676380D02*
X114049809Y-41676380D01*
X113954571Y-41819238D01*
X113859333Y-41914476D01*
X113764095Y-41962095D01*
X115287904Y-42676380D02*
X114716476Y-42676380D01*
X115002190Y-42676380D02*
X115002190Y-41676380D01*
X114906952Y-41819238D01*
X114811714Y-41914476D01*
X114716476Y-41962095D01*
X90563142Y-63543142D02*
X90515523Y-63590761D01*
X90372666Y-63638380D01*
X90277428Y-63638380D01*
X90134571Y-63590761D01*
X90039333Y-63495523D01*
X89991714Y-63400285D01*
X89944095Y-63209809D01*
X89944095Y-63066952D01*
X89991714Y-62876476D01*
X90039333Y-62781238D01*
X90134571Y-62686000D01*
X90277428Y-62638380D01*
X90372666Y-62638380D01*
X90515523Y-62686000D01*
X90563142Y-62733619D01*
X91515523Y-63638380D02*
X90944095Y-63638380D01*
X91229809Y-63638380D02*
X91229809Y-62638380D01*
X91134571Y-62781238D01*
X91039333Y-62876476D01*
X90944095Y-62924095D01*
X92134571Y-62638380D02*
X92229809Y-62638380D01*
X92325047Y-62686000D01*
X92372666Y-62733619D01*
X92420285Y-62828857D01*
X92467904Y-63019333D01*
X92467904Y-63257428D01*
X92420285Y-63447904D01*
X92372666Y-63543142D01*
X92325047Y-63590761D01*
X92229809Y-63638380D01*
X92134571Y-63638380D01*
X92039333Y-63590761D01*
X91991714Y-63543142D01*
X91944095Y-63447904D01*
X91896476Y-63257428D01*
X91896476Y-63019333D01*
X91944095Y-62828857D01*
X91991714Y-62733619D01*
X92039333Y-62686000D01*
X92134571Y-62638380D01*
X112783130Y-80548790D02*
X112716043Y-80542921D01*
X112587738Y-80464095D01*
X112526520Y-80391138D01*
X112471171Y-80251095D01*
X112482910Y-80116920D01*
X112525258Y-80019224D01*
X112640562Y-79860310D01*
X112749997Y-79768483D01*
X112926519Y-79682526D01*
X113030085Y-79657786D01*
X113164259Y-79669525D01*
X113292564Y-79748351D01*
X113353782Y-79821307D01*
X113409131Y-79961351D01*
X113403261Y-80028439D01*
X113322352Y-81339574D02*
X112955045Y-80901835D01*
X113138698Y-81120705D02*
X113904743Y-80477917D01*
X113734090Y-80496787D01*
X113599916Y-80485048D01*
X113502219Y-80442701D01*
X23272761Y-39159619D02*
X23177523Y-39112000D01*
X23082285Y-39016761D01*
X22939428Y-38873904D01*
X22844190Y-38826285D01*
X22748952Y-38826285D01*
X22796571Y-39064380D02*
X22701333Y-39016761D01*
X22606095Y-38921523D01*
X22558476Y-38731047D01*
X22558476Y-38397714D01*
X22606095Y-38207238D01*
X22701333Y-38112000D01*
X22796571Y-38064380D01*
X22987047Y-38064380D01*
X23082285Y-38112000D01*
X23177523Y-38207238D01*
X23225142Y-38397714D01*
X23225142Y-38731047D01*
X23177523Y-38921523D01*
X23082285Y-39016761D01*
X22987047Y-39064380D01*
X22796571Y-39064380D01*
X23606095Y-38159619D02*
X23653714Y-38112000D01*
X23748952Y-38064380D01*
X23987047Y-38064380D01*
X24082285Y-38112000D01*
X24129904Y-38159619D01*
X24177523Y-38254857D01*
X24177523Y-38350095D01*
X24129904Y-38492952D01*
X23558476Y-39064380D01*
X24177523Y-39064380D01*
X23272761Y-57447619D02*
X23177523Y-57400000D01*
X23082285Y-57304761D01*
X22939428Y-57161904D01*
X22844190Y-57114285D01*
X22748952Y-57114285D01*
X22796571Y-57352380D02*
X22701333Y-57304761D01*
X22606095Y-57209523D01*
X22558476Y-57019047D01*
X22558476Y-56685714D01*
X22606095Y-56495238D01*
X22701333Y-56400000D01*
X22796571Y-56352380D01*
X22987047Y-56352380D01*
X23082285Y-56400000D01*
X23177523Y-56495238D01*
X23225142Y-56685714D01*
X23225142Y-57019047D01*
X23177523Y-57209523D01*
X23082285Y-57304761D01*
X22987047Y-57352380D01*
X22796571Y-57352380D01*
X24177523Y-57352380D02*
X23606095Y-57352380D01*
X23891809Y-57352380D02*
X23891809Y-56352380D01*
X23796571Y-56495238D01*
X23701333Y-56590476D01*
X23606095Y-56638095D01*
X38051811Y-88140659D02*
X38045942Y-88207746D01*
X37967116Y-88336051D01*
X37894159Y-88397269D01*
X37754116Y-88452618D01*
X37619941Y-88440879D01*
X37522245Y-88398531D01*
X37363331Y-88283227D01*
X37271504Y-88173792D01*
X37185547Y-87997270D01*
X37160807Y-87893704D01*
X37172546Y-87759530D01*
X37251372Y-87631225D01*
X37324328Y-87570007D01*
X37464372Y-87514658D01*
X37531460Y-87520528D01*
X37823286Y-87275656D02*
X37829155Y-87208569D01*
X37871503Y-87110873D01*
X38053895Y-86957828D01*
X38157460Y-86933089D01*
X38224547Y-86938958D01*
X38322244Y-86981306D01*
X38383461Y-87054262D01*
X38438810Y-87194306D01*
X38368377Y-87999353D01*
X38842595Y-87601437D01*
X93151297Y-90195564D02*
X93133868Y-90260612D01*
X93033959Y-90373280D01*
X92951481Y-90420899D01*
X92803953Y-90451089D01*
X92673855Y-90416229D01*
X92584997Y-90357560D01*
X92448520Y-90216412D01*
X92377091Y-90092694D01*
X92323092Y-89903928D01*
X92316713Y-89797640D01*
X92351572Y-89667542D01*
X92451481Y-89554874D01*
X92533959Y-89507255D01*
X92681487Y-89477066D01*
X92746535Y-89494495D01*
X93607891Y-89272121D02*
X93941224Y-89849471D01*
X93211218Y-89061254D02*
X93362164Y-89798891D01*
X93898275Y-89489367D01*
X31283704Y-97588467D02*
X31218655Y-97605897D01*
X31071127Y-97575707D01*
X30988649Y-97528088D01*
X30888740Y-97415421D01*
X30853881Y-97285323D01*
X30860260Y-97179035D01*
X30914259Y-96990268D01*
X30985688Y-96866550D01*
X31122165Y-96725402D01*
X31211024Y-96666733D01*
X31341121Y-96631874D01*
X31488649Y-96662063D01*
X31571127Y-96709682D01*
X31671036Y-96822350D01*
X31688465Y-96887399D01*
X32519631Y-97257301D02*
X32107238Y-97019206D01*
X31827904Y-97407789D01*
X31892952Y-97390360D01*
X31999241Y-97396739D01*
X32205437Y-97515787D01*
X32264106Y-97604645D01*
X32281536Y-97669694D01*
X32275156Y-97775982D01*
X32156109Y-97982179D01*
X32067250Y-98040848D01*
X32002201Y-98058278D01*
X31895913Y-98051898D01*
X31689717Y-97932850D01*
X31631048Y-97843992D01*
X31613618Y-97778943D01*
X67119142Y-85184857D02*
X67166761Y-85232476D01*
X67214380Y-85375333D01*
X67214380Y-85470571D01*
X67166761Y-85613428D01*
X67071523Y-85708666D01*
X66976285Y-85756285D01*
X66785809Y-85803904D01*
X66642952Y-85803904D01*
X66452476Y-85756285D01*
X66357238Y-85708666D01*
X66262000Y-85613428D01*
X66214380Y-85470571D01*
X66214380Y-85375333D01*
X66262000Y-85232476D01*
X66309619Y-85184857D01*
X67214380Y-84232476D02*
X67214380Y-84803904D01*
X67214380Y-84518190D02*
X66214380Y-84518190D01*
X66357238Y-84613428D01*
X66452476Y-84708666D01*
X66500095Y-84803904D01*
X66547714Y-83375333D02*
X67214380Y-83375333D01*
X66166761Y-83613428D02*
X66881047Y-83851523D01*
X66881047Y-83232476D01*
X102866242Y-35705192D02*
X102837782Y-35766226D01*
X102719827Y-35859833D01*
X102630332Y-35892407D01*
X102479804Y-35896519D01*
X102357736Y-35839598D01*
X102280415Y-35766390D01*
X102170521Y-35603688D01*
X102121661Y-35469446D01*
X102101262Y-35274170D01*
X102113436Y-35168389D01*
X102170357Y-35046321D01*
X102288312Y-34952714D01*
X102377807Y-34920141D01*
X102528335Y-34916028D01*
X102589369Y-34944489D01*
X103793761Y-35468953D02*
X103256794Y-35664393D01*
X103525278Y-35566673D02*
X103183257Y-34626981D01*
X103142623Y-34793796D01*
X103085702Y-34915864D01*
X103012494Y-34993184D01*
X104301939Y-34219814D02*
X103854466Y-34382680D01*
X103972586Y-34846440D01*
X104001046Y-34785406D01*
X104074254Y-34708085D01*
X104297991Y-34626652D01*
X104403772Y-34638826D01*
X104464806Y-34667286D01*
X104542126Y-34740494D01*
X104623560Y-34964231D01*
X104611386Y-35070012D01*
X104582925Y-35131046D01*
X104509717Y-35208366D01*
X104285981Y-35289800D01*
X104180200Y-35277626D01*
X104119166Y-35249165D01*
X34528319Y-69587513D02*
X34522450Y-69654601D01*
X34443624Y-69782906D01*
X34370667Y-69844124D01*
X34230624Y-69899472D01*
X34096449Y-69887733D01*
X33998753Y-69845386D01*
X33839839Y-69730081D01*
X33748012Y-69620646D01*
X33662055Y-69444124D01*
X33637315Y-69340559D01*
X33649054Y-69206384D01*
X33727880Y-69078079D01*
X33800836Y-69016861D01*
X33940880Y-68961513D01*
X34007967Y-68967382D01*
X35319103Y-69048291D02*
X34881364Y-69415599D01*
X35100234Y-69231945D02*
X34457446Y-68465901D01*
X34476316Y-68636553D01*
X34464577Y-68770728D01*
X34422230Y-68868424D01*
X35332925Y-67731286D02*
X35187012Y-67853722D01*
X35144664Y-67951418D01*
X35138795Y-68018505D01*
X35157665Y-68189158D01*
X35243623Y-68365680D01*
X35488494Y-68657507D01*
X35586190Y-68699854D01*
X35653277Y-68705724D01*
X35756843Y-68680984D01*
X35902756Y-68558548D01*
X35945104Y-68460852D01*
X35950973Y-68393765D01*
X35926234Y-68290199D01*
X35773189Y-68107808D01*
X35675493Y-68065460D01*
X35608406Y-68059591D01*
X35504840Y-68084330D01*
X35358927Y-68206766D01*
X35316579Y-68304462D01*
X35310710Y-68371550D01*
X35335449Y-68475115D01*
X53385251Y-85302727D02*
X53379382Y-85369815D01*
X53300556Y-85498120D01*
X53227599Y-85559338D01*
X53087556Y-85614686D01*
X52953381Y-85602947D01*
X52855685Y-85560600D01*
X52696771Y-85445295D01*
X52604944Y-85335860D01*
X52518987Y-85159338D01*
X52494247Y-85055773D01*
X52505986Y-84921598D01*
X52584812Y-84793293D01*
X52657768Y-84732075D01*
X52797812Y-84676727D01*
X52864899Y-84682596D01*
X54176035Y-84763505D02*
X53738296Y-85130813D01*
X53957166Y-84947159D02*
X53314378Y-84181115D01*
X53333248Y-84351767D01*
X53321509Y-84485942D01*
X53279162Y-84583638D01*
X53788596Y-83783198D02*
X54299292Y-83354673D01*
X54613775Y-84396198D01*
X34280340Y-52860904D02*
X34215291Y-52843475D01*
X34102623Y-52743566D01*
X34055004Y-52661088D01*
X34024815Y-52513560D01*
X34059675Y-52383462D01*
X34118344Y-52294604D01*
X34259491Y-52158127D01*
X34383209Y-52086698D01*
X34571976Y-52032699D01*
X34678264Y-52026320D01*
X34808362Y-52061179D01*
X34921030Y-52161088D01*
X34968649Y-52243566D01*
X34998838Y-52391094D01*
X34981408Y-52456142D01*
X34674052Y-53733309D02*
X34388338Y-53238438D01*
X34531195Y-53485874D02*
X35397220Y-52985874D01*
X35225883Y-52974824D01*
X35095786Y-52939964D01*
X35006927Y-52881295D01*
X35454638Y-53942467D02*
X35448258Y-53836179D01*
X35465688Y-53771130D01*
X35524357Y-53682272D01*
X35565596Y-53658462D01*
X35671885Y-53652082D01*
X35736933Y-53669512D01*
X35825792Y-53728181D01*
X35921030Y-53893138D01*
X35927410Y-53999426D01*
X35909980Y-54064475D01*
X35851311Y-54153334D01*
X35810071Y-54177143D01*
X35703783Y-54183523D01*
X35638734Y-54166093D01*
X35549876Y-54107424D01*
X35454638Y-53942467D01*
X35365780Y-53883798D01*
X35300731Y-53866368D01*
X35194443Y-53872748D01*
X35029485Y-53967986D01*
X34970816Y-54056844D01*
X34953387Y-54121893D01*
X34959766Y-54228181D01*
X35055004Y-54393138D01*
X35143863Y-54451807D01*
X35208912Y-54469237D01*
X35315200Y-54462857D01*
X35480157Y-54367619D01*
X35538826Y-54278761D01*
X35556256Y-54213712D01*
X35549876Y-54107424D01*
X73116752Y-29699985D02*
X73061587Y-29738611D01*
X72912631Y-29760700D01*
X72818840Y-29744162D01*
X72686422Y-29672460D01*
X72609169Y-29562130D01*
X72578811Y-29460070D01*
X72564991Y-29264219D01*
X72589798Y-29123532D01*
X72669770Y-28944219D01*
X72733203Y-28858696D01*
X72843532Y-28781443D01*
X72992488Y-28759354D01*
X73086279Y-28775892D01*
X73218697Y-28847595D01*
X73257324Y-28902759D01*
X74038126Y-29959155D02*
X73475379Y-29859927D01*
X73756752Y-29909541D02*
X73930400Y-28924733D01*
X73811802Y-29048882D01*
X73701473Y-29126136D01*
X73599413Y-29156493D01*
X74507082Y-30041845D02*
X74694664Y-30074920D01*
X74796724Y-30044563D01*
X74851889Y-30005936D01*
X74970487Y-29881787D01*
X75050459Y-29702474D01*
X75116610Y-29327309D01*
X75086253Y-29225249D01*
X75047626Y-29170084D01*
X74962104Y-29106651D01*
X74774521Y-29073575D01*
X74672461Y-29103932D01*
X74617297Y-29142559D01*
X74553863Y-29228081D01*
X74512518Y-29462559D01*
X74542876Y-29564620D01*
X74581503Y-29619784D01*
X74667025Y-29683218D01*
X74854607Y-29716294D01*
X74956667Y-29685936D01*
X75011832Y-29647309D01*
X75075265Y-29561787D01*
X122578762Y-47969221D02*
X122511675Y-47975091D01*
X122371631Y-47919742D01*
X122298675Y-47858524D01*
X122219849Y-47730219D01*
X122208110Y-47596045D01*
X122232849Y-47492479D01*
X122318807Y-47315957D01*
X122410634Y-47206522D01*
X122569548Y-47091218D01*
X122667244Y-47048870D01*
X122801418Y-47037131D01*
X122941462Y-47092480D01*
X123014419Y-47153698D01*
X123093245Y-47282003D01*
X123099114Y-47349090D01*
X123390941Y-47593961D02*
X123458028Y-47588092D01*
X123561593Y-47612832D01*
X123743985Y-47765876D01*
X123786333Y-47863572D01*
X123792202Y-47930660D01*
X123767462Y-48034225D01*
X123706245Y-48107182D01*
X123577940Y-48186008D01*
X122772893Y-48256440D01*
X123247111Y-48654356D01*
X124364116Y-48286228D02*
X124437073Y-48347446D01*
X124479421Y-48445142D01*
X124485290Y-48512229D01*
X124460550Y-48615795D01*
X124374593Y-48792317D01*
X124221548Y-48974709D01*
X124062634Y-49090013D01*
X123964938Y-49132361D01*
X123897851Y-49138230D01*
X123794285Y-49113490D01*
X123721329Y-49052273D01*
X123678981Y-48954576D01*
X123673112Y-48887489D01*
X123697851Y-48783924D01*
X123783809Y-48607402D01*
X123936853Y-48425010D01*
X124095767Y-48309706D01*
X124193463Y-48267358D01*
X124260551Y-48261489D01*
X124364116Y-48286228D01*
X106499895Y-24552508D02*
X106432808Y-24558378D01*
X106292764Y-24503029D01*
X106219808Y-24441811D01*
X106140982Y-24313506D01*
X106129243Y-24179332D01*
X106153982Y-24075766D01*
X106239940Y-23899244D01*
X106331767Y-23789809D01*
X106490681Y-23674505D01*
X106588377Y-23632157D01*
X106722551Y-23620418D01*
X106862595Y-23675767D01*
X106935552Y-23736985D01*
X107014378Y-23865290D01*
X107020247Y-23932377D01*
X107312074Y-24177248D02*
X107379161Y-24171379D01*
X107482726Y-24196119D01*
X107665118Y-24349163D01*
X107707466Y-24446859D01*
X107713335Y-24513947D01*
X107688595Y-24617512D01*
X107627378Y-24690469D01*
X107499073Y-24769295D01*
X106694026Y-24839727D01*
X107168244Y-25237643D01*
X107897810Y-25849822D02*
X107460070Y-25482515D01*
X107678940Y-25666169D02*
X108321728Y-24900124D01*
X108156944Y-24948341D01*
X108022770Y-24960080D01*
X107919204Y-24935340D01*
X25331836Y-88994529D02*
X25270802Y-88966069D01*
X25177195Y-88848114D01*
X25144621Y-88758619D01*
X25140509Y-88608091D01*
X25197430Y-88486023D01*
X25270638Y-88408702D01*
X25433340Y-88298808D01*
X25567582Y-88249948D01*
X25762858Y-88229549D01*
X25868639Y-88241723D01*
X25990707Y-88298644D01*
X26084314Y-88416599D01*
X26116887Y-88506094D01*
X26121000Y-88656622D01*
X26092539Y-88717656D01*
X26222833Y-89075634D02*
X26283867Y-89104095D01*
X26361187Y-89177303D01*
X26442621Y-89401039D01*
X26430447Y-89506820D01*
X26401986Y-89567854D01*
X26328778Y-89645175D01*
X26239284Y-89677748D01*
X26088755Y-89681861D01*
X25356348Y-89340334D01*
X25568075Y-89922048D01*
X26548566Y-89970579D02*
X26609600Y-89999040D01*
X26686921Y-90072248D01*
X26768354Y-90295984D01*
X26756180Y-90401765D01*
X26727720Y-90462799D01*
X26654512Y-90540120D01*
X26565017Y-90572693D01*
X26414489Y-90576806D01*
X25682082Y-90235279D01*
X25893808Y-90816993D01*
X62643142Y-105473142D02*
X62595523Y-105520761D01*
X62452666Y-105568380D01*
X62357428Y-105568380D01*
X62214571Y-105520761D01*
X62119333Y-105425523D01*
X62071714Y-105330285D01*
X62024095Y-105139809D01*
X62024095Y-104996952D01*
X62071714Y-104806476D01*
X62119333Y-104711238D01*
X62214571Y-104616000D01*
X62357428Y-104568380D01*
X62452666Y-104568380D01*
X62595523Y-104616000D01*
X62643142Y-104663619D01*
X63024095Y-104663619D02*
X63071714Y-104616000D01*
X63166952Y-104568380D01*
X63405047Y-104568380D01*
X63500285Y-104616000D01*
X63547904Y-104663619D01*
X63595523Y-104758857D01*
X63595523Y-104854095D01*
X63547904Y-104996952D01*
X62976476Y-105568380D01*
X63595523Y-105568380D01*
X63928857Y-104568380D02*
X64547904Y-104568380D01*
X64214571Y-104949333D01*
X64357428Y-104949333D01*
X64452666Y-104996952D01*
X64500285Y-105044571D01*
X64547904Y-105139809D01*
X64547904Y-105377904D01*
X64500285Y-105473142D01*
X64452666Y-105520761D01*
X64357428Y-105568380D01*
X64071714Y-105568380D01*
X63976476Y-105520761D01*
X63928857Y-105473142D01*
X39767142Y-45894857D02*
X39814761Y-45942476D01*
X39862380Y-46085333D01*
X39862380Y-46180571D01*
X39814761Y-46323428D01*
X39719523Y-46418666D01*
X39624285Y-46466285D01*
X39433809Y-46513904D01*
X39290952Y-46513904D01*
X39100476Y-46466285D01*
X39005238Y-46418666D01*
X38910000Y-46323428D01*
X38862380Y-46180571D01*
X38862380Y-46085333D01*
X38910000Y-45942476D01*
X38957619Y-45894857D01*
X38957619Y-45513904D02*
X38910000Y-45466285D01*
X38862380Y-45371047D01*
X38862380Y-45132952D01*
X38910000Y-45037714D01*
X38957619Y-44990095D01*
X39052857Y-44942476D01*
X39148095Y-44942476D01*
X39290952Y-44990095D01*
X39862380Y-45561523D01*
X39862380Y-44942476D01*
X39195714Y-44085333D02*
X39862380Y-44085333D01*
X38814761Y-44323428D02*
X39529047Y-44561523D01*
X39529047Y-43942476D01*
X71910904Y-58175659D02*
X71893475Y-58240708D01*
X71793566Y-58353376D01*
X71711088Y-58400995D01*
X71563560Y-58431184D01*
X71433462Y-58396324D01*
X71344604Y-58337655D01*
X71208127Y-58196508D01*
X71136698Y-58072790D01*
X71082699Y-57884023D01*
X71076320Y-57777735D01*
X71111179Y-57647637D01*
X71211088Y-57534969D01*
X71293566Y-57487350D01*
X71441094Y-57457161D01*
X71506142Y-57474591D01*
X71836057Y-57284114D02*
X71853487Y-57219066D01*
X71912156Y-57130207D01*
X72118352Y-57011160D01*
X72224640Y-57004780D01*
X72289689Y-57022210D01*
X72378548Y-57080879D01*
X72426167Y-57163357D01*
X72456356Y-57310885D01*
X72247198Y-58091471D01*
X72783309Y-57781947D01*
X73066856Y-56463541D02*
X72654463Y-56701636D01*
X72851319Y-57137838D01*
X72868749Y-57072790D01*
X72927418Y-56983931D01*
X73133615Y-56864884D01*
X73239903Y-56858504D01*
X73304951Y-56875934D01*
X73393810Y-56934603D01*
X73512857Y-57140799D01*
X73519237Y-57247087D01*
X73501807Y-57312136D01*
X73443138Y-57400995D01*
X73236942Y-57520042D01*
X73130654Y-57526422D01*
X73065605Y-57508992D01*
X116221142Y-98980857D02*
X116268761Y-99028476D01*
X116316380Y-99171333D01*
X116316380Y-99266571D01*
X116268761Y-99409428D01*
X116173523Y-99504666D01*
X116078285Y-99552285D01*
X115887809Y-99599904D01*
X115744952Y-99599904D01*
X115554476Y-99552285D01*
X115459238Y-99504666D01*
X115364000Y-99409428D01*
X115316380Y-99266571D01*
X115316380Y-99171333D01*
X115364000Y-99028476D01*
X115411619Y-98980857D01*
X115411619Y-98599904D02*
X115364000Y-98552285D01*
X115316380Y-98457047D01*
X115316380Y-98218952D01*
X115364000Y-98123714D01*
X115411619Y-98076095D01*
X115506857Y-98028476D01*
X115602095Y-98028476D01*
X115744952Y-98076095D01*
X116316380Y-98647523D01*
X116316380Y-98028476D01*
X115316380Y-97695142D02*
X115316380Y-97028476D01*
X116316380Y-97457047D01*
X25842009Y-61732329D02*
X25499989Y-60792636D01*
X25723725Y-60711203D01*
X25874254Y-60707090D01*
X25996322Y-60764011D01*
X26073642Y-60837219D01*
X26183536Y-60999922D01*
X26232396Y-61134163D01*
X26252796Y-61329439D01*
X26240622Y-61435220D01*
X26183701Y-61557288D01*
X26065746Y-61650896D01*
X25842009Y-61732329D01*
X27273922Y-61211155D02*
X26736955Y-61406596D01*
X27005438Y-61308875D02*
X26663418Y-60369183D01*
X26622784Y-60535998D01*
X26565862Y-60658066D01*
X26492655Y-60735386D01*
X28532653Y-60306060D02*
X28190633Y-59366368D01*
X29069620Y-60110620D02*
X28471455Y-59720233D01*
X28727600Y-59170928D02*
X28386073Y-59903335D01*
X22416490Y-31083978D02*
X22242842Y-30099170D01*
X22477320Y-30057825D01*
X22626275Y-30079914D01*
X22736604Y-30157167D01*
X22800038Y-30242689D01*
X22880009Y-30422003D01*
X22904816Y-30562690D01*
X22890997Y-30758541D01*
X22860639Y-30860601D01*
X22783386Y-30970930D01*
X22650968Y-31042633D01*
X22416490Y-31083978D01*
X23197292Y-30027582D02*
X23235918Y-29972417D01*
X23321441Y-29908984D01*
X23555919Y-29867639D01*
X23657979Y-29897997D01*
X23713143Y-29936623D01*
X23776577Y-30022146D01*
X23793115Y-30115937D01*
X23771026Y-30264893D01*
X23307506Y-30926867D01*
X23917149Y-30819371D01*
X25313925Y-30146603D02*
X25140277Y-29161795D01*
X25876672Y-30047376D02*
X25355384Y-29559049D01*
X25703024Y-29062568D02*
X25239504Y-29724543D01*
X52402380Y-97258095D02*
X51402380Y-97258095D01*
X51402380Y-97020000D01*
X51450000Y-96877142D01*
X51545238Y-96781904D01*
X51640476Y-96734285D01*
X51830952Y-96686666D01*
X51973809Y-96686666D01*
X52164285Y-96734285D01*
X52259523Y-96781904D01*
X52354761Y-96877142D01*
X52402380Y-97020000D01*
X52402380Y-97258095D01*
X51402380Y-96353333D02*
X51402380Y-95734285D01*
X51783333Y-96067619D01*
X51783333Y-95924761D01*
X51830952Y-95829523D01*
X51878571Y-95781904D01*
X51973809Y-95734285D01*
X52211904Y-95734285D01*
X52307142Y-95781904D01*
X52354761Y-95829523D01*
X52402380Y-95924761D01*
X52402380Y-96210476D01*
X52354761Y-96305714D01*
X52307142Y-96353333D01*
X51982380Y-94241904D02*
X50982380Y-94241904D01*
X51982380Y-93670476D02*
X51410952Y-94099047D01*
X50982380Y-93670476D02*
X51553809Y-94241904D01*
X134291980Y-79020895D02*
X133291980Y-79020895D01*
X133291980Y-78782800D01*
X133339600Y-78639942D01*
X133434838Y-78544704D01*
X133530076Y-78497085D01*
X133720552Y-78449466D01*
X133863409Y-78449466D01*
X134053885Y-78497085D01*
X134149123Y-78544704D01*
X134244361Y-78639942D01*
X134291980Y-78782800D01*
X134291980Y-79020895D01*
X133625314Y-77592323D02*
X134291980Y-77592323D01*
X133244361Y-77830419D02*
X133958647Y-78068514D01*
X133958647Y-77449466D01*
X133871980Y-76004704D02*
X132871980Y-76004704D01*
X133871980Y-75433276D02*
X133300552Y-75861847D01*
X132871980Y-75433276D02*
X133443409Y-76004704D01*
X49094515Y-61670857D02*
X49451658Y-62289447D01*
X49481847Y-62436974D01*
X49446987Y-62567072D01*
X49347079Y-62679740D01*
X49264600Y-62727359D01*
X50460540Y-62036883D02*
X49965669Y-62322597D01*
X50213104Y-62179740D02*
X49713104Y-61313714D01*
X49702054Y-61485051D01*
X49667195Y-61615149D01*
X49608526Y-61704007D01*
X112779607Y-25394324D02*
X113326782Y-25853458D01*
X113405608Y-25981763D01*
X113417347Y-26115938D01*
X113361998Y-26255981D01*
X113300780Y-26328938D01*
X113128044Y-25127237D02*
X113122175Y-25060150D01*
X113146915Y-24956584D01*
X113299959Y-24774193D01*
X113397655Y-24731845D01*
X113464743Y-24725976D01*
X113568308Y-24750715D01*
X113641265Y-24811933D01*
X113720091Y-24940238D01*
X113790523Y-25745285D01*
X114188439Y-25271067D01*
X41525524Y-22493865D02*
X42144113Y-22851008D01*
X42244022Y-22963676D01*
X42278881Y-23093774D01*
X42248692Y-23241301D01*
X42201073Y-23323780D01*
X41716000Y-22163951D02*
X42025524Y-21627840D01*
X42188772Y-22106991D01*
X42260200Y-21983273D01*
X42349059Y-21924604D01*
X42414107Y-21907174D01*
X42520395Y-21913554D01*
X42726592Y-22032602D01*
X42785261Y-22121460D01*
X42802691Y-22186509D01*
X42796311Y-22292797D01*
X42653454Y-22540233D01*
X42564596Y-22598902D01*
X42499547Y-22616332D01*
X42998515Y-65480857D02*
X43355658Y-66099447D01*
X43385847Y-66246974D01*
X43350987Y-66377072D01*
X43251079Y-66489740D01*
X43168600Y-66537359D01*
X43948728Y-65317151D02*
X44282062Y-65894502D01*
X43552056Y-65106285D02*
X43703002Y-65843922D01*
X44239113Y-65534398D01*
X47621524Y-26303865D02*
X48240113Y-26661008D01*
X48340022Y-26773676D01*
X48374881Y-26903774D01*
X48344692Y-27051301D01*
X48297073Y-27133780D01*
X48097714Y-25479079D02*
X47859619Y-25891472D01*
X48248203Y-26170807D01*
X48230773Y-26105758D01*
X48237153Y-25999470D01*
X48356200Y-25793273D01*
X48445059Y-25734604D01*
X48510107Y-25717174D01*
X48616395Y-25723554D01*
X48822592Y-25842602D01*
X48881261Y-25931460D01*
X48898691Y-25996509D01*
X48892311Y-26102797D01*
X48773264Y-26308993D01*
X48684405Y-26367663D01*
X48619356Y-26385092D01*
X58423607Y-71368324D02*
X58970782Y-71827458D01*
X59049608Y-71955763D01*
X59061347Y-72089938D01*
X59005998Y-72229981D01*
X58944780Y-72302938D01*
X59005177Y-70675236D02*
X58882741Y-70821149D01*
X58858002Y-70924715D01*
X58863871Y-70991802D01*
X58912088Y-71156586D01*
X59027393Y-71315500D01*
X59319219Y-71560371D01*
X59422785Y-71585111D01*
X59489872Y-71579241D01*
X59587568Y-71536894D01*
X59710004Y-71390980D01*
X59734743Y-71287415D01*
X59728874Y-71220328D01*
X59686526Y-71122631D01*
X59504135Y-70969587D01*
X59400569Y-70944847D01*
X59333482Y-70950716D01*
X59235786Y-70993064D01*
X59113350Y-71138977D01*
X59088610Y-71242543D01*
X59094480Y-71309630D01*
X59136828Y-71407326D01*
X66468666Y-103846380D02*
X66468666Y-104560666D01*
X66421047Y-104703523D01*
X66325809Y-104798761D01*
X66182952Y-104846380D01*
X66087714Y-104846380D01*
X66849619Y-103846380D02*
X67516285Y-103846380D01*
X67087714Y-104846380D01*
X24342153Y-70549681D02*
X23794979Y-71008815D01*
X23654935Y-71064163D01*
X23520761Y-71052424D01*
X23392455Y-70973598D01*
X23331238Y-70900642D01*
X24411765Y-71299379D02*
X24387025Y-71195813D01*
X24392895Y-71128726D01*
X24435242Y-71031030D01*
X24471721Y-71000421D01*
X24575286Y-70975682D01*
X24642373Y-70981551D01*
X24740070Y-71023899D01*
X24862505Y-71169812D01*
X24887245Y-71273377D01*
X24881376Y-71340465D01*
X24839028Y-71438161D01*
X24802550Y-71468770D01*
X24698984Y-71493509D01*
X24631897Y-71487640D01*
X24534201Y-71445292D01*
X24411765Y-71299379D01*
X24314069Y-71257031D01*
X24246981Y-71251162D01*
X24143416Y-71275902D01*
X23997503Y-71398337D01*
X23955155Y-71496033D01*
X23949286Y-71563121D01*
X23974025Y-71666686D01*
X24096461Y-71812599D01*
X24194157Y-71854947D01*
X24261244Y-71860816D01*
X24364810Y-71836077D01*
X24510723Y-71713641D01*
X24553071Y-71615945D01*
X24558940Y-71548858D01*
X24534201Y-71445292D01*
X123110666Y-60412380D02*
X123110666Y-61126666D01*
X123063047Y-61269523D01*
X122967809Y-61364761D01*
X122824952Y-61412380D01*
X122729714Y-61412380D01*
X123634476Y-61412380D02*
X123824952Y-61412380D01*
X123920190Y-61364761D01*
X123967809Y-61317142D01*
X124063047Y-61174285D01*
X124110666Y-60983809D01*
X124110666Y-60602857D01*
X124063047Y-60507619D01*
X124015428Y-60460000D01*
X123920190Y-60412380D01*
X123729714Y-60412380D01*
X123634476Y-60460000D01*
X123586857Y-60507619D01*
X123539238Y-60602857D01*
X123539238Y-60840952D01*
X123586857Y-60936190D01*
X123634476Y-60983809D01*
X123729714Y-61031428D01*
X123920190Y-61031428D01*
X124015428Y-60983809D01*
X124063047Y-60936190D01*
X124110666Y-60840952D01*
X110188476Y-56348380D02*
X110188476Y-57062666D01*
X110140857Y-57205523D01*
X110045619Y-57300761D01*
X109902761Y-57348380D01*
X109807523Y-57348380D01*
X111188476Y-57348380D02*
X110617047Y-57348380D01*
X110902761Y-57348380D02*
X110902761Y-56348380D01*
X110807523Y-56491238D01*
X110712285Y-56586476D01*
X110617047Y-56634095D01*
X111807523Y-56348380D02*
X111902761Y-56348380D01*
X111998000Y-56396000D01*
X112045619Y-56443619D01*
X112093238Y-56538857D01*
X112140857Y-56729333D01*
X112140857Y-56967428D01*
X112093238Y-57157904D01*
X112045619Y-57253142D01*
X111998000Y-57300761D01*
X111902761Y-57348380D01*
X111807523Y-57348380D01*
X111712285Y-57300761D01*
X111664666Y-57253142D01*
X111617047Y-57157904D01*
X111569428Y-56967428D01*
X111569428Y-56729333D01*
X111617047Y-56538857D01*
X111664666Y-56443619D01*
X111712285Y-56396000D01*
X111807523Y-56348380D01*
X130127476Y-27646380D02*
X130127476Y-28360666D01*
X130079857Y-28503523D01*
X129984619Y-28598761D01*
X129841761Y-28646380D01*
X129746523Y-28646380D01*
X131127476Y-28646380D02*
X130556047Y-28646380D01*
X130841761Y-28646380D02*
X130841761Y-27646380D01*
X130746523Y-27789238D01*
X130651285Y-27884476D01*
X130556047Y-27932095D01*
X132079857Y-28646380D02*
X131508428Y-28646380D01*
X131794142Y-28646380D02*
X131794142Y-27646380D01*
X131698904Y-27789238D01*
X131603666Y-27884476D01*
X131508428Y-27932095D01*
X130127476Y-32472380D02*
X130127476Y-33186666D01*
X130079857Y-33329523D01*
X129984619Y-33424761D01*
X129841761Y-33472380D01*
X129746523Y-33472380D01*
X131127476Y-33472380D02*
X130556047Y-33472380D01*
X130841761Y-33472380D02*
X130841761Y-32472380D01*
X130746523Y-32615238D01*
X130651285Y-32710476D01*
X130556047Y-32758095D01*
X131508428Y-32567619D02*
X131556047Y-32520000D01*
X131651285Y-32472380D01*
X131889380Y-32472380D01*
X131984619Y-32520000D01*
X132032238Y-32567619D01*
X132079857Y-32662857D01*
X132079857Y-32758095D01*
X132032238Y-32900952D01*
X131460809Y-33472380D01*
X132079857Y-33472380D01*
X130127476Y-22820380D02*
X130127476Y-23534666D01*
X130079857Y-23677523D01*
X129984619Y-23772761D01*
X129841761Y-23820380D01*
X129746523Y-23820380D01*
X131127476Y-23820380D02*
X130556047Y-23820380D01*
X130841761Y-23820380D02*
X130841761Y-22820380D01*
X130746523Y-22963238D01*
X130651285Y-23058476D01*
X130556047Y-23106095D01*
X131460809Y-22820380D02*
X132079857Y-22820380D01*
X131746523Y-23201333D01*
X131889380Y-23201333D01*
X131984619Y-23248952D01*
X132032238Y-23296571D01*
X132079857Y-23391809D01*
X132079857Y-23629904D01*
X132032238Y-23725142D01*
X131984619Y-23772761D01*
X131889380Y-23820380D01*
X131603666Y-23820380D01*
X131508428Y-23772761D01*
X131460809Y-23725142D01*
X126952476Y-70318380D02*
X126952476Y-71032666D01*
X126904857Y-71175523D01*
X126809619Y-71270761D01*
X126666761Y-71318380D01*
X126571523Y-71318380D01*
X127952476Y-71318380D02*
X127381047Y-71318380D01*
X127666761Y-71318380D02*
X127666761Y-70318380D01*
X127571523Y-70461238D01*
X127476285Y-70556476D01*
X127381047Y-70604095D01*
X128809619Y-70651714D02*
X128809619Y-71318380D01*
X128571523Y-70270761D02*
X128333428Y-70985047D01*
X128952476Y-70985047D01*
X28158338Y-71467016D02*
X27596901Y-71316495D01*
X27720599Y-71834323D02*
X27077811Y-71068278D01*
X27369637Y-70823407D01*
X27473203Y-70798667D01*
X27540290Y-70804537D01*
X27637986Y-70846884D01*
X27729813Y-70956319D01*
X27754553Y-71059885D01*
X27748683Y-71126972D01*
X27706336Y-71224668D01*
X27414509Y-71469540D01*
X28887904Y-70854837D02*
X28450165Y-71222144D01*
X28669035Y-71038491D02*
X28026247Y-70272446D01*
X28045117Y-70443099D01*
X28033378Y-70577273D01*
X27991031Y-70674970D01*
X35070963Y-94261086D02*
X35404429Y-93784989D01*
X34875523Y-93724119D02*
X35815216Y-93382099D01*
X35945509Y-93740077D01*
X35933335Y-93845858D01*
X35904875Y-93906892D01*
X35831667Y-93984213D01*
X35697425Y-94033073D01*
X35591644Y-94020899D01*
X35530610Y-93992439D01*
X35453289Y-93919231D01*
X35322996Y-93561253D01*
X36051455Y-94309618D02*
X36112489Y-94338078D01*
X36189809Y-94411286D01*
X36271242Y-94635023D01*
X36259069Y-94740804D01*
X36230608Y-94801838D01*
X36157400Y-94879158D01*
X36067906Y-94911732D01*
X35917377Y-94915844D01*
X35184970Y-94574317D01*
X35396697Y-95156032D01*
X33130985Y-81846458D02*
X32569548Y-81695937D01*
X32693246Y-82213765D02*
X32050458Y-81447720D01*
X32342284Y-81202849D01*
X32445850Y-81178109D01*
X32512937Y-81183979D01*
X32610633Y-81226326D01*
X32702460Y-81335761D01*
X32727200Y-81439327D01*
X32721330Y-81506414D01*
X32678983Y-81604110D01*
X32387156Y-81848982D01*
X32743546Y-80866151D02*
X33217764Y-80468235D01*
X33207287Y-80974324D01*
X33316722Y-80882497D01*
X33420288Y-80857757D01*
X33487375Y-80863627D01*
X33585071Y-80905974D01*
X33738116Y-81088366D01*
X33762855Y-81191931D01*
X33756986Y-81259019D01*
X33714638Y-81356715D01*
X33495768Y-81540368D01*
X33392203Y-81565108D01*
X33325116Y-81559239D01*
X118706980Y-71870866D02*
X118230790Y-72204200D01*
X118706980Y-72442295D02*
X117706980Y-72442295D01*
X117706980Y-72061342D01*
X117754600Y-71966104D01*
X117802219Y-71918485D01*
X117897457Y-71870866D01*
X118040314Y-71870866D01*
X118135552Y-71918485D01*
X118183171Y-71966104D01*
X118230790Y-72061342D01*
X118230790Y-72442295D01*
X118040314Y-71013723D02*
X118706980Y-71013723D01*
X117659361Y-71251819D02*
X118373647Y-71489914D01*
X118373647Y-70870866D01*
X134394380Y-69508666D02*
X133918190Y-69842000D01*
X134394380Y-70080095D02*
X133394380Y-70080095D01*
X133394380Y-69699142D01*
X133442000Y-69603904D01*
X133489619Y-69556285D01*
X133584857Y-69508666D01*
X133727714Y-69508666D01*
X133822952Y-69556285D01*
X133870571Y-69603904D01*
X133918190Y-69699142D01*
X133918190Y-70080095D01*
X133394380Y-68603904D02*
X133394380Y-69080095D01*
X133870571Y-69127714D01*
X133822952Y-69080095D01*
X133775333Y-68984857D01*
X133775333Y-68746761D01*
X133822952Y-68651523D01*
X133870571Y-68603904D01*
X133965809Y-68556285D01*
X134203904Y-68556285D01*
X134299142Y-68603904D01*
X134346761Y-68651523D01*
X134394380Y-68746761D01*
X134394380Y-68984857D01*
X134346761Y-69080095D01*
X134299142Y-69127714D01*
X99856333Y-84581129D02*
X99294896Y-84430608D01*
X99418594Y-84948436D02*
X98775806Y-84182391D01*
X99067632Y-83937520D01*
X99171198Y-83912780D01*
X99238285Y-83918650D01*
X99335981Y-83960997D01*
X99427808Y-84070432D01*
X99452548Y-84173998D01*
X99446678Y-84241085D01*
X99404331Y-84338781D01*
X99112504Y-84583653D01*
X99870155Y-83264123D02*
X99724242Y-83386559D01*
X99681894Y-83484255D01*
X99676025Y-83551343D01*
X99694895Y-83721995D01*
X99780853Y-83898518D01*
X100025724Y-84190344D01*
X100123420Y-84232692D01*
X100190507Y-84238561D01*
X100294073Y-84213821D01*
X100439986Y-84091386D01*
X100482334Y-83993690D01*
X100488203Y-83926602D01*
X100463464Y-83823037D01*
X100310419Y-83640645D01*
X100212723Y-83598298D01*
X100145636Y-83592428D01*
X100042070Y-83617168D01*
X99896157Y-83739603D01*
X99853809Y-83837300D01*
X99847940Y-83904387D01*
X99872679Y-84007952D01*
X32133849Y-65446043D02*
X31722890Y-65034970D01*
X31571102Y-65545271D02*
X31397454Y-64560463D01*
X31772618Y-64494311D01*
X31874679Y-64524669D01*
X31929843Y-64563296D01*
X31993277Y-64648818D01*
X32018084Y-64789505D01*
X31987726Y-64891565D01*
X31949099Y-64946729D01*
X31863577Y-65010163D01*
X31488412Y-65076315D01*
X32288470Y-64403353D02*
X32945009Y-64287587D01*
X32696596Y-65346816D01*
X41820409Y-76019626D02*
X41293639Y-75773900D01*
X41325538Y-76305341D02*
X40825538Y-75439315D01*
X41155452Y-75248839D01*
X41261740Y-75242459D01*
X41326789Y-75259889D01*
X41415648Y-75318558D01*
X41487076Y-75442276D01*
X41493456Y-75548564D01*
X41476026Y-75613613D01*
X41417357Y-75702471D01*
X41087443Y-75892947D01*
X42029567Y-75239040D02*
X41923279Y-75245420D01*
X41858230Y-75227990D01*
X41769371Y-75169321D01*
X41745562Y-75128082D01*
X41739182Y-75021794D01*
X41756612Y-74956745D01*
X41815281Y-74867887D01*
X41980238Y-74772648D01*
X42086526Y-74766269D01*
X42151575Y-74783698D01*
X42240434Y-74842368D01*
X42264243Y-74883607D01*
X42270623Y-74989895D01*
X42253193Y-75054944D01*
X42194524Y-75143802D01*
X42029567Y-75239040D01*
X41970898Y-75327899D01*
X41953468Y-75392947D01*
X41959848Y-75499236D01*
X42055086Y-75664193D01*
X42143944Y-75722862D01*
X42208993Y-75740292D01*
X42315281Y-75733912D01*
X42480238Y-75638674D01*
X42538907Y-75549815D01*
X42556337Y-75484767D01*
X42549957Y-75378479D01*
X42454719Y-75213521D01*
X42365861Y-75154852D01*
X42300812Y-75137422D01*
X42194524Y-75143802D01*
X122338409Y-87449626D02*
X121811639Y-87203900D01*
X121843538Y-87735341D02*
X121343538Y-86869315D01*
X121673452Y-86678839D01*
X121779740Y-86672459D01*
X121844789Y-86689889D01*
X121933648Y-86748558D01*
X122005076Y-86872276D01*
X122011456Y-86978564D01*
X121994026Y-87043613D01*
X121935357Y-87132471D01*
X121605443Y-87322947D01*
X122750802Y-87211531D02*
X122915760Y-87116293D01*
X122974429Y-87027435D01*
X122991859Y-86962386D01*
X123002909Y-86791049D01*
X122948910Y-86602282D01*
X122758434Y-86272368D01*
X122669575Y-86213698D01*
X122604526Y-86196269D01*
X122498238Y-86202648D01*
X122333281Y-86297887D01*
X122274612Y-86386745D01*
X122257182Y-86451794D01*
X122263562Y-86558082D01*
X122382610Y-86764278D01*
X122471468Y-86822947D01*
X122536517Y-86840377D01*
X122642805Y-86833998D01*
X122807762Y-86738759D01*
X122866431Y-86649901D01*
X122883861Y-86584852D01*
X122877481Y-86478564D01*
X81140380Y-56268857D02*
X80664190Y-56602190D01*
X81140380Y-56840285D02*
X80140380Y-56840285D01*
X80140380Y-56459333D01*
X80188000Y-56364095D01*
X80235619Y-56316476D01*
X80330857Y-56268857D01*
X80473714Y-56268857D01*
X80568952Y-56316476D01*
X80616571Y-56364095D01*
X80664190Y-56459333D01*
X80664190Y-56840285D01*
X81140380Y-55316476D02*
X81140380Y-55887904D01*
X81140380Y-55602190D02*
X80140380Y-55602190D01*
X80283238Y-55697428D01*
X80378476Y-55792666D01*
X80426095Y-55887904D01*
X80140380Y-54697428D02*
X80140380Y-54602190D01*
X80188000Y-54506952D01*
X80235619Y-54459333D01*
X80330857Y-54411714D01*
X80521333Y-54364095D01*
X80759428Y-54364095D01*
X80949904Y-54411714D01*
X81045142Y-54459333D01*
X81092761Y-54506952D01*
X81140380Y-54602190D01*
X81140380Y-54697428D01*
X81092761Y-54792666D01*
X81045142Y-54840285D01*
X80949904Y-54887904D01*
X80759428Y-54935523D01*
X80521333Y-54935523D01*
X80330857Y-54887904D01*
X80235619Y-54840285D01*
X80188000Y-54792666D01*
X80140380Y-54697428D01*
X42766902Y-58264681D02*
X42240132Y-58018955D01*
X42272031Y-58550396D02*
X41772031Y-57684370D01*
X42101945Y-57493894D01*
X42208233Y-57487514D01*
X42273282Y-57504944D01*
X42362140Y-57563613D01*
X42433569Y-57687331D01*
X42439949Y-57793619D01*
X42422519Y-57858668D01*
X42363850Y-57947527D01*
X42033935Y-58138003D01*
X43591688Y-57788491D02*
X43096817Y-58074205D01*
X43344253Y-57931348D02*
X42844253Y-57065323D01*
X42833203Y-57236660D01*
X42798343Y-57366757D01*
X42739674Y-57455616D01*
X44416475Y-57312301D02*
X43921603Y-57598015D01*
X44169039Y-57455158D02*
X43669039Y-56589132D01*
X43657989Y-56760469D01*
X43623129Y-56890567D01*
X43564460Y-56979425D01*
X68895828Y-58311278D02*
X68316782Y-58260536D01*
X68528521Y-58749017D02*
X67762476Y-58106230D01*
X68007348Y-57814403D01*
X68105044Y-57772055D01*
X68172131Y-57766186D01*
X68275697Y-57790926D01*
X68385132Y-57882752D01*
X68427479Y-57980449D01*
X68433349Y-58047536D01*
X68408609Y-58151101D01*
X68163738Y-58442928D01*
X69508006Y-57581711D02*
X69140699Y-58019451D01*
X69324353Y-57800581D02*
X68558308Y-57157794D01*
X68606525Y-57322577D01*
X68618264Y-57456752D01*
X68593525Y-57560317D01*
X69059790Y-56708315D02*
X69053921Y-56641228D01*
X69078660Y-56537662D01*
X69231705Y-56355271D01*
X69329401Y-56312923D01*
X69396488Y-56307054D01*
X69500054Y-56331793D01*
X69573011Y-56393011D01*
X69651837Y-56521316D01*
X69722269Y-57326363D01*
X70120185Y-56852145D01*
X49472278Y-57918016D02*
X49718004Y-57391246D01*
X49186563Y-57423145D02*
X50052589Y-56923145D01*
X50243065Y-57253059D01*
X50249445Y-57359347D01*
X50232015Y-57424396D01*
X50173346Y-57513254D01*
X50049628Y-57584683D01*
X49943340Y-57591063D01*
X49878291Y-57573633D01*
X49789432Y-57514964D01*
X49598956Y-57185049D01*
X49948468Y-58742802D02*
X49662754Y-58247931D01*
X49805611Y-58495367D02*
X50671636Y-57995367D01*
X50500299Y-57984317D01*
X50370202Y-57949457D01*
X50281343Y-57890788D01*
X50981160Y-58531478D02*
X51290684Y-59067589D01*
X50794103Y-58969390D01*
X50865531Y-59093108D01*
X50871911Y-59199396D01*
X50854481Y-59264444D01*
X50795812Y-59353303D01*
X50589616Y-59472350D01*
X50483328Y-59478730D01*
X50418279Y-59461300D01*
X50329420Y-59402631D01*
X50186563Y-59155196D01*
X50180184Y-59048907D01*
X50197613Y-58983859D01*
X39271318Y-63848902D02*
X39517044Y-63322132D01*
X38985603Y-63354031D02*
X39851629Y-62854031D01*
X40042105Y-63183945D01*
X40048485Y-63290233D01*
X40031055Y-63355282D01*
X39972386Y-63444140D01*
X39848668Y-63515569D01*
X39742380Y-63521949D01*
X39677331Y-63504519D01*
X39588472Y-63445850D01*
X39397996Y-63115935D01*
X39747508Y-64673688D02*
X39461794Y-64178817D01*
X39604651Y-64426253D02*
X40470676Y-63926253D01*
X40299339Y-63915203D01*
X40169242Y-63880343D01*
X40080383Y-63821674D01*
X40753430Y-65082663D02*
X40176079Y-65415996D01*
X40964297Y-64685990D02*
X40226659Y-64836936D01*
X40536183Y-65373047D01*
X72650016Y-54159721D02*
X72123246Y-53913995D01*
X72155145Y-54445436D02*
X71655145Y-53579410D01*
X71985059Y-53388934D01*
X72091347Y-53382554D01*
X72156396Y-53399984D01*
X72245254Y-53458653D01*
X72316683Y-53582371D01*
X72323063Y-53688659D01*
X72305633Y-53753708D01*
X72246964Y-53842567D01*
X71917049Y-54033043D01*
X73474802Y-53683531D02*
X72979931Y-53969245D01*
X73227367Y-53826388D02*
X72727367Y-52960363D01*
X72716317Y-53131700D01*
X72681457Y-53261797D01*
X72622788Y-53350656D01*
X73717110Y-52388934D02*
X73552153Y-52484172D01*
X73493484Y-52573031D01*
X73476054Y-52638079D01*
X73465004Y-52809416D01*
X73519003Y-52998183D01*
X73709479Y-53328098D01*
X73798337Y-53386767D01*
X73863386Y-53404196D01*
X73969674Y-53397817D01*
X74134631Y-53302579D01*
X74193300Y-53213720D01*
X74210730Y-53148671D01*
X74204350Y-53042383D01*
X74085303Y-52836187D01*
X73996444Y-52777518D01*
X73931396Y-52760088D01*
X73825108Y-52766468D01*
X73660150Y-52861706D01*
X73601481Y-52950564D01*
X73584051Y-53015613D01*
X73590431Y-53121901D01*
X84442380Y-59824857D02*
X83966190Y-60158190D01*
X84442380Y-60396285D02*
X83442380Y-60396285D01*
X83442380Y-60015333D01*
X83490000Y-59920095D01*
X83537619Y-59872476D01*
X83632857Y-59824857D01*
X83775714Y-59824857D01*
X83870952Y-59872476D01*
X83918571Y-59920095D01*
X83966190Y-60015333D01*
X83966190Y-60396285D01*
X84442380Y-58872476D02*
X84442380Y-59443904D01*
X84442380Y-59158190D02*
X83442380Y-59158190D01*
X83585238Y-59253428D01*
X83680476Y-59348666D01*
X83728095Y-59443904D01*
X83442380Y-58539142D02*
X83442380Y-57872476D01*
X84442380Y-58301047D01*
X90792380Y-52204857D02*
X90316190Y-52538190D01*
X90792380Y-52776285D02*
X89792380Y-52776285D01*
X89792380Y-52395333D01*
X89840000Y-52300095D01*
X89887619Y-52252476D01*
X89982857Y-52204857D01*
X90125714Y-52204857D01*
X90220952Y-52252476D01*
X90268571Y-52300095D01*
X90316190Y-52395333D01*
X90316190Y-52776285D01*
X90792380Y-51252476D02*
X90792380Y-51823904D01*
X90792380Y-51538190D02*
X89792380Y-51538190D01*
X89935238Y-51633428D01*
X90030476Y-51728666D01*
X90078095Y-51823904D01*
X90220952Y-50681047D02*
X90173333Y-50776285D01*
X90125714Y-50823904D01*
X90030476Y-50871523D01*
X89982857Y-50871523D01*
X89887619Y-50823904D01*
X89840000Y-50776285D01*
X89792380Y-50681047D01*
X89792380Y-50490571D01*
X89840000Y-50395333D01*
X89887619Y-50347714D01*
X89982857Y-50300095D01*
X90030476Y-50300095D01*
X90125714Y-50347714D01*
X90173333Y-50395333D01*
X90220952Y-50490571D01*
X90220952Y-50681047D01*
X90268571Y-50776285D01*
X90316190Y-50823904D01*
X90411428Y-50871523D01*
X90601904Y-50871523D01*
X90697142Y-50823904D01*
X90744761Y-50776285D01*
X90792380Y-50681047D01*
X90792380Y-50490571D01*
X90744761Y-50395333D01*
X90697142Y-50347714D01*
X90601904Y-50300095D01*
X90411428Y-50300095D01*
X90316190Y-50347714D01*
X90268571Y-50395333D01*
X90220952Y-50490571D01*
X60353318Y-34384902D02*
X60599044Y-33858132D01*
X60067603Y-33890031D02*
X60933629Y-33390031D01*
X61124105Y-33719945D01*
X61130485Y-33826233D01*
X61113055Y-33891282D01*
X61054386Y-33980140D01*
X60930668Y-34051569D01*
X60824380Y-34057949D01*
X60759331Y-34040519D01*
X60670472Y-33981850D01*
X60479996Y-33651935D01*
X60829508Y-35209688D02*
X60543794Y-34714817D01*
X60686651Y-34962253D02*
X61552676Y-34462253D01*
X61381339Y-34451203D01*
X61251242Y-34416343D01*
X61162383Y-34357674D01*
X61067603Y-35622082D02*
X61162841Y-35787039D01*
X61251700Y-35845708D01*
X61316749Y-35863138D01*
X61488085Y-35874188D01*
X61676852Y-35820189D01*
X62006767Y-35629713D01*
X62065436Y-35540854D01*
X62082866Y-35475805D01*
X62076486Y-35369517D01*
X61981248Y-35204560D01*
X61892389Y-35145891D01*
X61827341Y-35128461D01*
X61721052Y-35134841D01*
X61514856Y-35253889D01*
X61456187Y-35342747D01*
X61438757Y-35407796D01*
X61445137Y-35514084D01*
X61540375Y-35679041D01*
X61629233Y-35737710D01*
X61694282Y-35755140D01*
X61800570Y-35748760D01*
X91700016Y-32061721D02*
X91173246Y-31815995D01*
X91205145Y-32347436D02*
X90705145Y-31481410D01*
X91035059Y-31290934D01*
X91141347Y-31284554D01*
X91206396Y-31301984D01*
X91295254Y-31360653D01*
X91366683Y-31484371D01*
X91373063Y-31590659D01*
X91355633Y-31655708D01*
X91296964Y-31744567D01*
X90967049Y-31935043D01*
X91577550Y-31087698D02*
X91594980Y-31022650D01*
X91653649Y-30933791D01*
X91859845Y-30814744D01*
X91966133Y-30808364D01*
X92031182Y-30825794D01*
X92120041Y-30884463D01*
X92167660Y-30966941D01*
X92197849Y-31114469D01*
X91988691Y-31895055D01*
X92524802Y-31585531D01*
X92560913Y-30409982D02*
X92643392Y-30362363D01*
X92749680Y-30355983D01*
X92814729Y-30373413D01*
X92903587Y-30432082D01*
X93040065Y-30573230D01*
X93159112Y-30779426D01*
X93213111Y-30968193D01*
X93219491Y-31074481D01*
X93202061Y-31139530D01*
X93143392Y-31228388D01*
X93060913Y-31276007D01*
X92954625Y-31282387D01*
X92889576Y-31264957D01*
X92800718Y-31206288D01*
X92664241Y-31065140D01*
X92545193Y-30858944D01*
X92491194Y-30670177D01*
X92484815Y-30563889D01*
X92502244Y-30498840D01*
X92560913Y-30409982D01*
X103568580Y-50198257D02*
X103092390Y-50531590D01*
X103568580Y-50769685D02*
X102568580Y-50769685D01*
X102568580Y-50388733D01*
X102616200Y-50293495D01*
X102663819Y-50245876D01*
X102759057Y-50198257D01*
X102901914Y-50198257D01*
X102997152Y-50245876D01*
X103044771Y-50293495D01*
X103092390Y-50388733D01*
X103092390Y-50769685D01*
X102663819Y-49817304D02*
X102616200Y-49769685D01*
X102568580Y-49674447D01*
X102568580Y-49436352D01*
X102616200Y-49341114D01*
X102663819Y-49293495D01*
X102759057Y-49245876D01*
X102854295Y-49245876D01*
X102997152Y-49293495D01*
X103568580Y-49864923D01*
X103568580Y-49245876D01*
X103568580Y-48293495D02*
X103568580Y-48864923D01*
X103568580Y-48579209D02*
X102568580Y-48579209D01*
X102711438Y-48674447D01*
X102806676Y-48769685D01*
X102854295Y-48864923D01*
X32454278Y-32772016D02*
X32700004Y-32245246D01*
X32168563Y-32277145D02*
X33034589Y-31777145D01*
X33225065Y-32107059D01*
X33231445Y-32213347D01*
X33214015Y-32278396D01*
X33155346Y-32367254D01*
X33031628Y-32438683D01*
X32925340Y-32445063D01*
X32860291Y-32427633D01*
X32771432Y-32368964D01*
X32580956Y-32039049D01*
X33428301Y-32649550D02*
X33493349Y-32666980D01*
X33582208Y-32725649D01*
X33701255Y-32931845D01*
X33707635Y-33038133D01*
X33690205Y-33103182D01*
X33631536Y-33192041D01*
X33549058Y-33239660D01*
X33401530Y-33269849D01*
X32620944Y-33060691D01*
X32930468Y-33596802D01*
X33904491Y-33474336D02*
X33969540Y-33491766D01*
X34058398Y-33550435D01*
X34177446Y-33756631D01*
X34183826Y-33862919D01*
X34166396Y-33927968D01*
X34107727Y-34016827D01*
X34025248Y-34064446D01*
X33877721Y-34094635D01*
X33097135Y-33885478D01*
X33406658Y-34421589D01*
X110545689Y-33201104D02*
X110696210Y-32639667D01*
X110178382Y-32763365D02*
X110944426Y-32120577D01*
X111189298Y-32412403D01*
X111214037Y-32515969D01*
X111208168Y-32583056D01*
X111165820Y-32680752D01*
X111056385Y-32772579D01*
X110952820Y-32797319D01*
X110885732Y-32791449D01*
X110788036Y-32749102D01*
X110543165Y-32457275D01*
X111483648Y-32911361D02*
X111550736Y-32917230D01*
X111648432Y-32959578D01*
X111801476Y-33141970D01*
X111826216Y-33245535D01*
X111820347Y-33312622D01*
X111777999Y-33410318D01*
X111705042Y-33471536D01*
X111564998Y-33526885D01*
X110759952Y-33456452D01*
X111157868Y-33930670D01*
X112138175Y-33543231D02*
X112536091Y-34017449D01*
X112030002Y-34006972D01*
X112121829Y-34116407D01*
X112146568Y-34219973D01*
X112140699Y-34287060D01*
X112098351Y-34384756D01*
X111915960Y-34537801D01*
X111812394Y-34562540D01*
X111745307Y-34556671D01*
X111647611Y-34514323D01*
X111463957Y-34295453D01*
X111439217Y-34191888D01*
X111445087Y-34124801D01*
X109783689Y-39551104D02*
X109934210Y-38989667D01*
X109416382Y-39113365D02*
X110182426Y-38470577D01*
X110427298Y-38762403D01*
X110452037Y-38865969D01*
X110446168Y-38933056D01*
X110403820Y-39030752D01*
X110294385Y-39122579D01*
X110190820Y-39147319D01*
X110123732Y-39141449D01*
X110026036Y-39099102D01*
X109781165Y-38807275D01*
X110721648Y-39261361D02*
X110788736Y-39267230D01*
X110886432Y-39309578D01*
X111039476Y-39491970D01*
X111064216Y-39595535D01*
X111058347Y-39662622D01*
X111015999Y-39760318D01*
X110943042Y-39821536D01*
X110802998Y-39876885D01*
X109997952Y-39806452D01*
X110395868Y-40280670D01*
X111457525Y-40508755D02*
X110946828Y-40937280D01*
X111596307Y-40081492D02*
X110896087Y-40358234D01*
X111294003Y-40832452D01*
X39690521Y-40349824D02*
X39639942Y-39770765D01*
X39195650Y-40064110D02*
X39695650Y-39198085D01*
X40025564Y-39388561D01*
X40084233Y-39477419D01*
X40101663Y-39542468D01*
X40095283Y-39648756D01*
X40023855Y-39772474D01*
X39934996Y-39831143D01*
X39869948Y-39848573D01*
X39763659Y-39842193D01*
X39433745Y-39651717D01*
X40472817Y-39756754D02*
X40537866Y-39739324D01*
X40644154Y-39745704D01*
X40850350Y-39864751D01*
X40909019Y-39953610D01*
X40926449Y-40018658D01*
X40920069Y-40124947D01*
X40872450Y-40207425D01*
X40759782Y-40307334D01*
X39979197Y-40516491D01*
X40515308Y-40826015D01*
X41798854Y-40412370D02*
X41386461Y-40174275D01*
X41107127Y-40562859D01*
X41172176Y-40545429D01*
X41278464Y-40551809D01*
X41484660Y-40670856D01*
X41543329Y-40759715D01*
X41560759Y-40824763D01*
X41554379Y-40931052D01*
X41435332Y-41137248D01*
X41346473Y-41195917D01*
X41281425Y-41213347D01*
X41175136Y-41206967D01*
X40968940Y-41087920D01*
X40910271Y-40999061D01*
X40892841Y-40934012D01*
X66095689Y-35995104D02*
X66246210Y-35433667D01*
X65728382Y-35557365D02*
X66494426Y-34914577D01*
X66739298Y-35206403D01*
X66764037Y-35309969D01*
X66758168Y-35377056D01*
X66715820Y-35474752D01*
X66606385Y-35566579D01*
X66502820Y-35591319D01*
X66435732Y-35585449D01*
X66338036Y-35543102D01*
X66093165Y-35251275D01*
X67033648Y-35705361D02*
X67100736Y-35711230D01*
X67198432Y-35753578D01*
X67351476Y-35935970D01*
X67376216Y-36039535D01*
X67370347Y-36106622D01*
X67327999Y-36204318D01*
X67255042Y-36265536D01*
X67114998Y-36320885D01*
X66309952Y-36250452D01*
X66707868Y-36724670D01*
X68024873Y-36738492D02*
X67902437Y-36592579D01*
X67804741Y-36550231D01*
X67737654Y-36544362D01*
X67567001Y-36563232D01*
X67390479Y-36649190D01*
X67098652Y-36894061D01*
X67056305Y-36991757D01*
X67050435Y-37058844D01*
X67075175Y-37162410D01*
X67197611Y-37308323D01*
X67295307Y-37350671D01*
X67362394Y-37356540D01*
X67465960Y-37331801D01*
X67648351Y-37178756D01*
X67690699Y-37081060D01*
X67696568Y-37013973D01*
X67671829Y-36910407D01*
X67549393Y-36764494D01*
X67451697Y-36722146D01*
X67384609Y-36716277D01*
X67281044Y-36741016D01*
X85880380Y-46362857D02*
X85404190Y-46696190D01*
X85880380Y-46934285D02*
X84880380Y-46934285D01*
X84880380Y-46553333D01*
X84928000Y-46458095D01*
X84975619Y-46410476D01*
X85070857Y-46362857D01*
X85213714Y-46362857D01*
X85308952Y-46410476D01*
X85356571Y-46458095D01*
X85404190Y-46553333D01*
X85404190Y-46934285D01*
X84975619Y-45981904D02*
X84928000Y-45934285D01*
X84880380Y-45839047D01*
X84880380Y-45600952D01*
X84928000Y-45505714D01*
X84975619Y-45458095D01*
X85070857Y-45410476D01*
X85166095Y-45410476D01*
X85308952Y-45458095D01*
X85880380Y-46029523D01*
X85880380Y-45410476D01*
X84880380Y-45077142D02*
X84880380Y-44410476D01*
X85880380Y-44839047D01*
X40054864Y-29826364D02*
X39475805Y-29876943D01*
X39769150Y-30321235D02*
X38903125Y-29821235D01*
X39093601Y-29491321D01*
X39182459Y-29432652D01*
X39247508Y-29415222D01*
X39353796Y-29421602D01*
X39477514Y-29493030D01*
X39536183Y-29581889D01*
X39553613Y-29646937D01*
X39547233Y-29753226D01*
X39356757Y-30083140D01*
X39461794Y-29044068D02*
X39444364Y-28979019D01*
X39450744Y-28872731D01*
X39569791Y-28666535D01*
X39658650Y-28607866D01*
X39723698Y-28590436D01*
X39829987Y-28596816D01*
X39912465Y-28644435D01*
X40012374Y-28757103D01*
X40221531Y-29537688D01*
X40531055Y-29001577D01*
X40769150Y-28589184D02*
X40864388Y-28424227D01*
X40870768Y-28317939D01*
X40853338Y-28252890D01*
X40777239Y-28098983D01*
X40636092Y-27962506D01*
X40306177Y-27772029D01*
X40199889Y-27765650D01*
X40134840Y-27783080D01*
X40045982Y-27841749D01*
X39950744Y-28006706D01*
X39944364Y-28112994D01*
X39961794Y-28178043D01*
X40020463Y-28266901D01*
X40226659Y-28385949D01*
X40332947Y-28392329D01*
X40397996Y-28374899D01*
X40486855Y-28316230D01*
X40582093Y-28151272D01*
X40588472Y-28044984D01*
X40571043Y-27979935D01*
X40512374Y-27891077D01*
X50255824Y-36001478D02*
X49676765Y-36052057D01*
X49970110Y-36496349D02*
X49104085Y-35996349D01*
X49294561Y-35666435D01*
X49383419Y-35607766D01*
X49448468Y-35590336D01*
X49554756Y-35596716D01*
X49678474Y-35668144D01*
X49737143Y-35757003D01*
X49754573Y-35822051D01*
X49748193Y-35928340D01*
X49557717Y-36258254D01*
X49556466Y-35212802D02*
X49865989Y-34676691D01*
X50029237Y-35155843D01*
X50100666Y-35032125D01*
X50189524Y-34973456D01*
X50254573Y-34956026D01*
X50360861Y-34962406D01*
X50567058Y-35081453D01*
X50625727Y-35170312D01*
X50643156Y-35235361D01*
X50636777Y-35341649D01*
X50493920Y-35589085D01*
X50405061Y-35647754D01*
X50340012Y-35665183D01*
X50175513Y-34140581D02*
X50223132Y-34058102D01*
X50311991Y-33999433D01*
X50377039Y-33982003D01*
X50483328Y-33988383D01*
X50672094Y-34042382D01*
X50878291Y-34161429D01*
X51019439Y-34297907D01*
X51078108Y-34386765D01*
X51095537Y-34451814D01*
X51089158Y-34558102D01*
X51041539Y-34640581D01*
X50952680Y-34699250D01*
X50887631Y-34716679D01*
X50781343Y-34710300D01*
X50592577Y-34656301D01*
X50386380Y-34537253D01*
X50245232Y-34400776D01*
X50186563Y-34311917D01*
X50169133Y-34246869D01*
X50175513Y-34140581D01*
X72084781Y-29895550D02*
X72235302Y-29334113D01*
X71717474Y-29457811D02*
X72483518Y-28815023D01*
X72728390Y-29106849D01*
X72753129Y-29210415D01*
X72747260Y-29277502D01*
X72704912Y-29375198D01*
X72595477Y-29467025D01*
X72491912Y-29491765D01*
X72424824Y-29485895D01*
X72327128Y-29443548D01*
X72082257Y-29151721D01*
X73065088Y-29508111D02*
X73463004Y-29982329D01*
X72956915Y-29971852D01*
X73048742Y-30081287D01*
X73073481Y-30184853D01*
X73067612Y-30251940D01*
X73025264Y-30349636D01*
X72842873Y-30502681D01*
X72739307Y-30527420D01*
X72672220Y-30521551D01*
X72574524Y-30479203D01*
X72390870Y-30260333D01*
X72366131Y-30156768D01*
X72372000Y-30089681D01*
X73634919Y-30335373D02*
X73702006Y-30341242D01*
X73799702Y-30383590D01*
X73952747Y-30565982D01*
X73977487Y-30669547D01*
X73971617Y-30736634D01*
X73929270Y-30834331D01*
X73856313Y-30895548D01*
X73716269Y-30950897D01*
X72911222Y-30880465D01*
X73309138Y-31354683D01*
X75298380Y-35948857D02*
X74822190Y-36282190D01*
X75298380Y-36520285D02*
X74298380Y-36520285D01*
X74298380Y-36139333D01*
X74346000Y-36044095D01*
X74393619Y-35996476D01*
X74488857Y-35948857D01*
X74631714Y-35948857D01*
X74726952Y-35996476D01*
X74774571Y-36044095D01*
X74822190Y-36139333D01*
X74822190Y-36520285D01*
X74298380Y-35615523D02*
X74298380Y-34996476D01*
X74679333Y-35329809D01*
X74679333Y-35186952D01*
X74726952Y-35091714D01*
X74774571Y-35044095D01*
X74869809Y-34996476D01*
X75107904Y-34996476D01*
X75203142Y-35044095D01*
X75250761Y-35091714D01*
X75298380Y-35186952D01*
X75298380Y-35472666D01*
X75250761Y-35567904D01*
X75203142Y-35615523D01*
X74298380Y-34663142D02*
X74298380Y-34044095D01*
X74679333Y-34377428D01*
X74679333Y-34234571D01*
X74726952Y-34139333D01*
X74774571Y-34091714D01*
X74869809Y-34044095D01*
X75107904Y-34044095D01*
X75203142Y-34091714D01*
X75250761Y-34139333D01*
X75298380Y-34234571D01*
X75298380Y-34520285D01*
X75250761Y-34615523D01*
X75203142Y-34663142D01*
X63782380Y-84970857D02*
X63306190Y-85304190D01*
X63782380Y-85542285D02*
X62782380Y-85542285D01*
X62782380Y-85161333D01*
X62830000Y-85066095D01*
X62877619Y-85018476D01*
X62972857Y-84970857D01*
X63115714Y-84970857D01*
X63210952Y-85018476D01*
X63258571Y-85066095D01*
X63306190Y-85161333D01*
X63306190Y-85542285D01*
X62782380Y-84637523D02*
X62782380Y-84018476D01*
X63163333Y-84351809D01*
X63163333Y-84208952D01*
X63210952Y-84113714D01*
X63258571Y-84066095D01*
X63353809Y-84018476D01*
X63591904Y-84018476D01*
X63687142Y-84066095D01*
X63734761Y-84113714D01*
X63782380Y-84208952D01*
X63782380Y-84494666D01*
X63734761Y-84589904D01*
X63687142Y-84637523D01*
X63115714Y-83161333D02*
X63782380Y-83161333D01*
X62734761Y-83399428D02*
X63449047Y-83637523D01*
X63449047Y-83018476D01*
X60554793Y-104706818D02*
X60605535Y-104127772D01*
X60117054Y-104339511D02*
X60759841Y-103573466D01*
X61051668Y-103818338D01*
X61094016Y-103916034D01*
X61099885Y-103983121D01*
X61075145Y-104086687D01*
X60983319Y-104196122D01*
X60885622Y-104238469D01*
X60818535Y-104244339D01*
X60714970Y-104219599D01*
X60423143Y-103974728D01*
X61452929Y-104155036D02*
X61927147Y-104552952D01*
X61426928Y-104630516D01*
X61536363Y-104722343D01*
X61578710Y-104820039D01*
X61584580Y-104887126D01*
X61559840Y-104990692D01*
X61406795Y-105173083D01*
X61309099Y-105215431D01*
X61242012Y-105221300D01*
X61138446Y-105196561D01*
X60919577Y-105012907D01*
X60877229Y-104915211D01*
X60871360Y-104848124D01*
X62620235Y-105134522D02*
X62255452Y-104828432D01*
X61912884Y-105162607D01*
X61979972Y-105156737D01*
X62083537Y-105181477D01*
X62265929Y-105334521D01*
X62308276Y-105432218D01*
X62314146Y-105499305D01*
X62289406Y-105602870D01*
X62136361Y-105785262D01*
X62038665Y-105827610D01*
X61971578Y-105833479D01*
X61868013Y-105808739D01*
X61685621Y-105655695D01*
X61643273Y-105557999D01*
X61637404Y-105490911D01*
X59243828Y-81679278D02*
X58664782Y-81628536D01*
X58876521Y-82117017D02*
X58110476Y-81474230D01*
X58355348Y-81182403D01*
X58453044Y-81140055D01*
X58520131Y-81134186D01*
X58623697Y-81158926D01*
X58733132Y-81250752D01*
X58775479Y-81348449D01*
X58781349Y-81415536D01*
X58756609Y-81519101D01*
X58511738Y-81810928D01*
X58692046Y-80781142D02*
X59089962Y-80306924D01*
X59167526Y-80807143D01*
X59259353Y-80697708D01*
X59357049Y-80655361D01*
X59424136Y-80649491D01*
X59527702Y-80674231D01*
X59710093Y-80827276D01*
X59752441Y-80924972D01*
X59758310Y-80992059D01*
X59733571Y-81095625D01*
X59549917Y-81314494D01*
X59452221Y-81356842D01*
X59385134Y-81362711D01*
X59640923Y-79650314D02*
X59518487Y-79796227D01*
X59493748Y-79899793D01*
X59499617Y-79966880D01*
X59547834Y-80131664D01*
X59663138Y-80290578D01*
X59954965Y-80535449D01*
X60058530Y-80560189D01*
X60125618Y-80554319D01*
X60223314Y-80511972D01*
X60345749Y-80366058D01*
X60370489Y-80262493D01*
X60364620Y-80195406D01*
X60322272Y-80097710D01*
X60139880Y-79944665D01*
X60036315Y-79919925D01*
X59969228Y-79925795D01*
X59871531Y-79968142D01*
X59749096Y-80114056D01*
X59724356Y-80217621D01*
X59730226Y-80284708D01*
X59772573Y-80382405D01*
X74958380Y-99194857D02*
X74482190Y-99528190D01*
X74958380Y-99766285D02*
X73958380Y-99766285D01*
X73958380Y-99385333D01*
X74006000Y-99290095D01*
X74053619Y-99242476D01*
X74148857Y-99194857D01*
X74291714Y-99194857D01*
X74386952Y-99242476D01*
X74434571Y-99290095D01*
X74482190Y-99385333D01*
X74482190Y-99766285D01*
X73958380Y-98861523D02*
X73958380Y-98242476D01*
X74339333Y-98575809D01*
X74339333Y-98432952D01*
X74386952Y-98337714D01*
X74434571Y-98290095D01*
X74529809Y-98242476D01*
X74767904Y-98242476D01*
X74863142Y-98290095D01*
X74910761Y-98337714D01*
X74958380Y-98432952D01*
X74958380Y-98718666D01*
X74910761Y-98813904D01*
X74863142Y-98861523D01*
X73958380Y-97909142D02*
X73958380Y-97242476D01*
X74958380Y-97671047D01*
X66916380Y-99194857D02*
X66440190Y-99528190D01*
X66916380Y-99766285D02*
X65916380Y-99766285D01*
X65916380Y-99385333D01*
X65964000Y-99290095D01*
X66011619Y-99242476D01*
X66106857Y-99194857D01*
X66249714Y-99194857D01*
X66344952Y-99242476D01*
X66392571Y-99290095D01*
X66440190Y-99385333D01*
X66440190Y-99766285D01*
X65916380Y-98861523D02*
X65916380Y-98242476D01*
X66297333Y-98575809D01*
X66297333Y-98432952D01*
X66344952Y-98337714D01*
X66392571Y-98290095D01*
X66487809Y-98242476D01*
X66725904Y-98242476D01*
X66821142Y-98290095D01*
X66868761Y-98337714D01*
X66916380Y-98432952D01*
X66916380Y-98718666D01*
X66868761Y-98813904D01*
X66821142Y-98861523D01*
X66344952Y-97671047D02*
X66297333Y-97766285D01*
X66249714Y-97813904D01*
X66154476Y-97861523D01*
X66106857Y-97861523D01*
X66011619Y-97813904D01*
X65964000Y-97766285D01*
X65916380Y-97671047D01*
X65916380Y-97480571D01*
X65964000Y-97385333D01*
X66011619Y-97337714D01*
X66106857Y-97290095D01*
X66154476Y-97290095D01*
X66249714Y-97337714D01*
X66297333Y-97385333D01*
X66344952Y-97480571D01*
X66344952Y-97671047D01*
X66392571Y-97766285D01*
X66440190Y-97813904D01*
X66535428Y-97861523D01*
X66725904Y-97861523D01*
X66821142Y-97813904D01*
X66868761Y-97766285D01*
X66916380Y-97671047D01*
X66916380Y-97480571D01*
X66868761Y-97385333D01*
X66821142Y-97337714D01*
X66725904Y-97290095D01*
X66535428Y-97290095D01*
X66440190Y-97337714D01*
X66392571Y-97385333D01*
X66344952Y-97480571D01*
X123704016Y-90989721D02*
X123177246Y-90743995D01*
X123209145Y-91275436D02*
X122709145Y-90409410D01*
X123039059Y-90218934D01*
X123145347Y-90212554D01*
X123210396Y-90229984D01*
X123299254Y-90288653D01*
X123370683Y-90412371D01*
X123377063Y-90518659D01*
X123359633Y-90583708D01*
X123300964Y-90672567D01*
X122971049Y-90863043D01*
X123492691Y-89957029D02*
X124028802Y-89647506D01*
X123930604Y-90144087D01*
X124054321Y-90072658D01*
X124160610Y-90066278D01*
X124225658Y-90083708D01*
X124314517Y-90142377D01*
X124433564Y-90348574D01*
X124439944Y-90454862D01*
X124422514Y-90519911D01*
X124363845Y-90608769D01*
X124116409Y-90751626D01*
X124010121Y-90758006D01*
X123945072Y-90740576D01*
X124941196Y-90275436D02*
X125106153Y-90180198D01*
X125164822Y-90091339D01*
X125182252Y-90026290D01*
X125193302Y-89854954D01*
X125139303Y-89666187D01*
X124948827Y-89336272D01*
X124859968Y-89277603D01*
X124794919Y-89260173D01*
X124688631Y-89266553D01*
X124523674Y-89361791D01*
X124465005Y-89450650D01*
X124447575Y-89515698D01*
X124453955Y-89621987D01*
X124573003Y-89828183D01*
X124661861Y-89886852D01*
X124726910Y-89904282D01*
X124833198Y-89897902D01*
X124998155Y-89802664D01*
X125056824Y-89713806D01*
X125074254Y-89648757D01*
X125067874Y-89542469D01*
X123958016Y-95307721D02*
X123431246Y-95061995D01*
X123463145Y-95593436D02*
X122963145Y-94727410D01*
X123293059Y-94536934D01*
X123399347Y-94530554D01*
X123464396Y-94547984D01*
X123553254Y-94606653D01*
X123624683Y-94730371D01*
X123631063Y-94836659D01*
X123613633Y-94901708D01*
X123554964Y-94990567D01*
X123225049Y-95181043D01*
X124366991Y-94301800D02*
X124700324Y-94879150D01*
X123970318Y-94090933D02*
X124121264Y-94828570D01*
X124657375Y-94519046D01*
X124818913Y-93655982D02*
X124901392Y-93608363D01*
X125007680Y-93601983D01*
X125072729Y-93619413D01*
X125161587Y-93678082D01*
X125298065Y-93819230D01*
X125417112Y-94025426D01*
X125471111Y-94214193D01*
X125477491Y-94320481D01*
X125460061Y-94385530D01*
X125401392Y-94474388D01*
X125318913Y-94522007D01*
X125212625Y-94528387D01*
X125147576Y-94510957D01*
X125058718Y-94452288D01*
X124922241Y-94311140D01*
X124803193Y-94104944D01*
X124749194Y-93916177D01*
X124742815Y-93809889D01*
X124760244Y-93744840D01*
X124818913Y-93655982D01*
X83038460Y-102087804D02*
X82337392Y-102492566D01*
X82278723Y-102581424D01*
X82261293Y-102646473D01*
X82267673Y-102752761D01*
X82362911Y-102917719D01*
X82451769Y-102976388D01*
X82516818Y-102993817D01*
X82623106Y-102987438D01*
X83324174Y-102582676D01*
X82958149Y-103948701D02*
X82672435Y-103453830D01*
X82815292Y-103701265D02*
X83681317Y-103201265D01*
X83509980Y-103190215D01*
X83379883Y-103155356D01*
X83291024Y-103096687D01*
X25172894Y-73063277D02*
X25693246Y-73683408D01*
X25790942Y-73725756D01*
X25858029Y-73731625D01*
X25961595Y-73706886D01*
X26107508Y-73584450D01*
X26149856Y-73486754D01*
X26155725Y-73419666D01*
X26130985Y-73316101D01*
X25610634Y-72695970D01*
X26000156Y-72493446D02*
X26006026Y-72426359D01*
X26048373Y-72328663D01*
X26230765Y-72175618D01*
X26334330Y-72150878D01*
X26401418Y-72156748D01*
X26499114Y-72199095D01*
X26560332Y-72272052D01*
X26615680Y-72412096D01*
X26545248Y-73217143D01*
X27019466Y-72819227D01*
X20490380Y-45719904D02*
X21299904Y-45719904D01*
X21395142Y-45672285D01*
X21442761Y-45624666D01*
X21490380Y-45529428D01*
X21490380Y-45338952D01*
X21442761Y-45243714D01*
X21395142Y-45196095D01*
X21299904Y-45148476D01*
X20490380Y-45148476D01*
X20490380Y-44767523D02*
X20490380Y-44148476D01*
X20871333Y-44481809D01*
X20871333Y-44338952D01*
X20918952Y-44243714D01*
X20966571Y-44196095D01*
X21061809Y-44148476D01*
X21299904Y-44148476D01*
X21395142Y-44196095D01*
X21442761Y-44243714D01*
X21490380Y-44338952D01*
X21490380Y-44624666D01*
X21442761Y-44719904D01*
X21395142Y-44767523D01*
X59098380Y-46481904D02*
X59907904Y-46481904D01*
X60003142Y-46434285D01*
X60050761Y-46386666D01*
X60098380Y-46291428D01*
X60098380Y-46100952D01*
X60050761Y-46005714D01*
X60003142Y-45958095D01*
X59907904Y-45910476D01*
X59098380Y-45910476D01*
X59431714Y-45005714D02*
X60098380Y-45005714D01*
X59050761Y-45243809D02*
X59765047Y-45481904D01*
X59765047Y-44862857D01*
X104517424Y-35750574D02*
X104794298Y-36511277D01*
X104871619Y-36584485D01*
X104932652Y-36612946D01*
X105038434Y-36625120D01*
X105217423Y-36559973D01*
X105290631Y-36482652D01*
X105319091Y-36421618D01*
X105331265Y-36315837D01*
X105054392Y-35555134D01*
X105949337Y-35229400D02*
X105501864Y-35392267D01*
X105619984Y-35856026D01*
X105648444Y-35794992D01*
X105721652Y-35717672D01*
X105945389Y-35636238D01*
X106051170Y-35648412D01*
X106112204Y-35676873D01*
X106189524Y-35750081D01*
X106270958Y-35973817D01*
X106258784Y-36079598D01*
X106230323Y-36140632D01*
X106157115Y-36217953D01*
X105933379Y-36299386D01*
X105827598Y-36287212D01*
X105766564Y-36258752D01*
X50182980Y-96494504D02*
X50992504Y-96494504D01*
X51087742Y-96446885D01*
X51135361Y-96399266D01*
X51182980Y-96304028D01*
X51182980Y-96113552D01*
X51135361Y-96018314D01*
X51087742Y-95970695D01*
X50992504Y-95923076D01*
X50182980Y-95923076D01*
X50182980Y-95018314D02*
X50182980Y-95208790D01*
X50230600Y-95304028D01*
X50278219Y-95351647D01*
X50421076Y-95446885D01*
X50611552Y-95494504D01*
X50992504Y-95494504D01*
X51087742Y-95446885D01*
X51135361Y-95399266D01*
X51182980Y-95304028D01*
X51182980Y-95113552D01*
X51135361Y-95018314D01*
X51087742Y-94970695D01*
X50992504Y-94923076D01*
X50754409Y-94923076D01*
X50659171Y-94970695D01*
X50611552Y-95018314D01*
X50563933Y-95113552D01*
X50563933Y-95304028D01*
X50611552Y-95399266D01*
X50659171Y-95446885D01*
X50754409Y-95494504D01*
X119220380Y-71421523D02*
X119220380Y-70754857D01*
X120220380Y-71421523D01*
X120220380Y-70754857D01*
X120220380Y-69850095D02*
X120220380Y-70421523D01*
X120220380Y-70135809D02*
X119220380Y-70135809D01*
X119363238Y-70231047D01*
X119458476Y-70326285D01*
X119506095Y-70421523D01*
X119800380Y-68333904D02*
X118800380Y-68333904D01*
X119800380Y-67762476D02*
X119228952Y-68191047D01*
X118800380Y-67762476D02*
X119371809Y-68333904D01*
M02*
