M48
; DRILL file {KiCad (5.1.2-1)-1} date Sunday, January 24, 2021 at 05:17:35 PM
; FORMAT={-:-/ absolute / inch / decimal}
; #@! TF.CreationDate,2021-01-24T17:17:35-05:00
; #@! TF.GenerationSoftware,Kicad,Pcbnew,(5.1.2-1)-1
FMAT,2
INCH
T1C0.0157
T2C0.0236
T3C0.0315
T4C0.0394
T5C0.0394
T6C0.0984
%
G90
G05
T1
X0.82Y-3.94
X0.83Y-2.38
X0.93Y-0.65
X1.19Y-1.53
X1.855Y-1.055
X2.06Y-1.12
X2.13Y-2.67
X2.3595Y-1.39
X2.605Y-3.5485
X2.8205Y-2.507
X2.913Y-2.6715
X2.913Y-2.7605
X3.0765Y-3.056
X3.1465Y-2.5805
X3.151Y-2.658
X3.38Y-3.88
X3.396Y-1.3275
X3.5Y-0.65
X3.65Y-2.86
X3.85Y-2.6
X3.96Y-4.22
X4.44Y-0.99
T2
X4.212Y-3.414
X4.2907Y-3.414
X4.2133Y-3.192
X4.292Y-3.192
T3
X3.43Y-3.371
X3.58Y-3.6308
X4.373Y-3.7233
X4.523Y-3.4635
X1.7945Y-3.754
X2.0945Y-3.754
X1.539Y-1.5573
X1.724Y-1.49
X3.936Y-0.835
X4.0386Y-1.1169
X0.931Y-3.1815
X0.9484Y-3.083
X0.9657Y-2.9845
X2.26Y-1.7
X2.56Y-1.7
X1.726Y-2.732
X1.876Y-2.9918
X1.6235Y-3.9795
X1.6756Y-3.6841
X3.0335Y-2.4559
X3.2303Y-2.4559
X0.6901Y-1.2744
X0.972Y-1.377
X3.26Y-1.32
X3.3626Y-1.0381
X3.9351Y-1.6924
X4.217Y-1.795
X1.8325Y-3.336
X1.8325Y-3.636
X3.671Y-3.7105
X3.9308Y-3.8605
X3.513Y-0.853
X3.813Y-0.853
X0.7382Y-1.822
X0.998Y-1.672
X0.7135Y-2.953
X0.7477Y-2.859
X0.7819Y-2.7651
X1.374Y-3.3287
X1.674Y-3.3287
X2.518Y-3.3505
X2.8134Y-3.2984
X2.7059Y-3.1884
X2.758Y-2.893
X3.034Y-2.3335
X3.2309Y-2.3335
X2.7375Y-3.8203
X2.8875Y-3.5605
X3.421Y-3.0405
X3.4552Y-3.2344
X1.0115Y-2.8455
X1.2043Y-2.6157
X3.071Y-2.203
X3.371Y-2.203
X1.3361Y-1.1346
X1.4301Y-1.1004
X1.4387Y-1.4165
X1.524Y-1.0662
X1.5327Y-1.3823
X1.618Y-1.032
X1.6266Y-1.3481
X1.7206Y-1.3139
X2.41Y-0.78
X2.41Y-1.08
X2.09Y-0.856
X2.1242Y-0.6621
X1.3334Y-2.0532
X1.3977Y-1.9766
X1.462Y-1.9
X1.826Y-0.668
X1.8933Y-0.853
X1.4215Y-3.5615
X1.7034Y-3.4589
X1.0974Y-2.1309
X1.2Y-1.849
X0.6919Y-3.1046
X0.744Y-3.4
X1.42Y-3.0955
X1.7019Y-3.1981
X3.875Y-1.53
X3.9734Y-1.3595
X1.96Y-3.33
X1.96Y-3.63
X2.06Y-3.33
X2.06Y-3.63
X2.16Y-3.33
X2.16Y-3.63
X2.26Y-3.33
X2.26Y-3.63
X2.29Y-0.78
X2.29Y-1.08
X1.859Y-1.757
X2.009Y-1.4972
X4.482Y-2.298
X4.4994Y-2.3965
X4.5167Y-2.495
X1.7935Y-3.8765
X2.0935Y-3.8765
X2.387Y-3.323
X2.387Y-3.5199
X2.7379Y-0.7746
X2.79Y-1.07
X4.139Y-1.218
X4.4209Y-1.3206
X3.0079Y-1.0754
X3.06Y-0.78
X3.546Y-1.459
X3.7429Y-1.459
X2.902Y-2.932
X3.1974Y-2.8799
X3.631Y-1.882
X3.781Y-1.6222
X3.503Y-1.029
X3.503Y-1.329
X3.603Y-1.029
X3.603Y-1.329
X3.703Y-1.029
X3.703Y-1.329
X3.803Y-1.029
X3.803Y-1.329
X1.539Y-2.89
X1.7688Y-3.0828
X3.12Y-1.19
X3.12Y-1.49
X1.341Y-0.823
X1.6364Y-0.7709
X0.6576Y-1.5741
X0.953Y-1.522
X4.554Y-3.02
X4.554Y-3.32
X2.912Y-1.735
X2.912Y-2.035
X2.9991Y-3.4736
X3.2945Y-3.4215
X1.4314Y-2.3572
X1.4957Y-2.2806
X1.56Y-2.204
X1.97Y-3.14
X2.27Y-3.14
X2.29Y-1.19
X2.29Y-1.49
X2.39Y-1.19
X2.39Y-1.49
X2.49Y-1.19
X2.49Y-1.49
X2.59Y-1.19
X2.59Y-1.49
X2.69Y-1.19
X2.69Y-1.49
X2.79Y-1.19
X2.79Y-1.49
X2.89Y-1.19
X2.89Y-1.49
X2.99Y-1.19
X2.99Y-1.49
X2.321Y-2.142
X2.621Y-2.142
X2.2729Y-3.7476
X2.325Y-4.043
X2.2376Y-2.2649
X2.533Y-2.317
X2.692Y-1.594
X2.692Y-1.894
X3.071Y-1.713
X3.071Y-2.013
X3.171Y-1.713
X3.171Y-2.013
X3.271Y-1.713
X3.271Y-2.013
X3.371Y-1.713
X3.371Y-2.013
X3.381Y-1.492
X3.5738Y-1.7218
X1.551Y-1.806
X1.7808Y-1.6132
X3.022Y-3.6
X3.022Y-3.9
X2.5479Y-1.0754
X2.6Y-0.78
X2.9185Y-3.056
X2.9359Y-3.1545
X2.9532Y-3.253
X2.9706Y-3.3514
X3.2139Y-3.0039
X3.2313Y-3.1024
X3.2487Y-3.2009
X3.266Y-3.2993
X0.8862Y-2.0098
X1.079Y-1.78
X0.8217Y-3.5072
X1.0145Y-3.737
X1.7307Y-2.3163
X1.9235Y-2.0865
X2.5848Y-3.1219
X2.619Y-2.928
X0.8615Y-2.6605
X1.1213Y-2.5105
X1.0692Y-3.5835
X1.329Y-3.7335
X1.631Y-2.064
X1.6953Y-1.9874
X1.7596Y-1.9108
X1.0411Y-1.1773
X1.2709Y-0.9844
T4
X2.0255Y-1.9222
X2.152Y-2.073
X2.2395Y-1.8711
X2.722Y-2.141
X2.922Y-2.141
X1.1846Y-3.9759
X1.3815Y-3.8775
X1.3815Y-4.0744
X2.7239Y-2.329
X2.9239Y-2.329
T5
X0.632Y-1.884
X0.9588Y-1.0636
X0.808Y-2.105
X0.608Y-1.431
X0.709Y-1.132
X4.537Y-1.459
X1.5985Y-4.16
X1.666Y-2.634
X3.21Y-0.7
X2.664Y-3.945
X3.022Y-4.017
X4.18Y-3.01
X4.33Y-3.01
X4.18Y-2.87
X4.33Y-2.87
X4.5Y-2.099
X4.297Y-3.84
X2.3405Y-4.168
X1.056Y-2.244
X4.18Y-2.73
X4.33Y-2.73
X4.0635Y-3.9305
T6
X4.56Y-0.61
X4.56Y-4.35
X0.61Y-4.35
X0.61Y-0.61
T0
M30
