G04 #@! TF.GenerationSoftware,KiCad,Pcbnew,(5.1.2-1)-1*
G04 #@! TF.CreationDate,2021-12-22T14:11:33-05:00*
G04 #@! TF.ProjectId,VCO - MFOS_SMD,56434f20-2d20-44d4-964f-535f534d442e,rev?*
G04 #@! TF.SameCoordinates,Original*
G04 #@! TF.FileFunction,Copper,L2,Bot*
G04 #@! TF.FilePolarity,Positive*
%FSLAX46Y46*%
G04 Gerber Fmt 4.6, Leading zero omitted, Abs format (unit mm)*
G04 Created by KiCad (PCBNEW (5.1.2-1)-1) date 2021-12-22 14:11:33*
%MOMM*%
%LPD*%
G04 APERTURE LIST*
%ADD10C,1.600000*%
%ADD11C,1.600000*%
%ADD12O,1.727200X1.727200*%
%ADD13R,1.727200X1.727200*%
%ADD14C,0.100000*%
%ADD15C,2.499360*%
%ADD16C,1.550000*%
%ADD17R,1.550000X1.550000*%
%ADD18C,1.500000*%
%ADD19R,2.499360X2.499360*%
%ADD20C,0.800000*%
%ADD21C,0.406400*%
%ADD22C,0.254000*%
G04 APERTURE END LIST*
D10*
X48016160Y-64396426D03*
D11*
X48016160Y-64396426D02*
X48016160Y-64396426D01*
D10*
X44206160Y-70995540D03*
D12*
X25656540Y-61188600D03*
X28196540Y-61188600D03*
X25656540Y-63728600D03*
X28196540Y-63728600D03*
X25656540Y-66268600D03*
X28196540Y-66268600D03*
X25656540Y-68808600D03*
X28196540Y-68808600D03*
X25656540Y-71348600D03*
D13*
X28196540Y-71348600D03*
D10*
X31482264Y-39400814D03*
D11*
X31482264Y-39400814D02*
X31482264Y-39400814D01*
D10*
X25301228Y-48228248D03*
D11*
X25301228Y-48228248D02*
X25301228Y-48228248D01*
D10*
X31923330Y-41902226D03*
D11*
X31923330Y-41902226D02*
X31923330Y-41902226D01*
D10*
X24860162Y-45726836D03*
D11*
X24860162Y-45726836D02*
X24860162Y-45726836D01*
D10*
X32364397Y-44403637D03*
D11*
X32364397Y-44403637D02*
X32364397Y-44403637D01*
D10*
X24419095Y-43225425D03*
D11*
X24419095Y-43225425D02*
X24419095Y-43225425D01*
D10*
X32805463Y-46905049D03*
D11*
X32805463Y-46905049D02*
X32805463Y-46905049D01*
D10*
X23978029Y-40724013D03*
D14*
G36*
X23329101Y-41650778D02*
G01*
X23051264Y-40075085D01*
X24626957Y-39797248D01*
X24904794Y-41372941D01*
X23329101Y-41650778D01*
X23329101Y-41650778D01*
G37*
D15*
X30561280Y-50914300D03*
X27143287Y-36639603D03*
D16*
X38748572Y-37382193D03*
X43413636Y-40462320D03*
D14*
G36*
X43697306Y-39403650D02*
G01*
X44472306Y-40745990D01*
X43129966Y-41520990D01*
X42354966Y-40178650D01*
X43697306Y-39403650D01*
X43697306Y-39403650D01*
G37*
D16*
X39083509Y-42962320D03*
D10*
X88739915Y-45269078D03*
D11*
X88739915Y-45269078D02*
X88739915Y-45269078D01*
D10*
X73250801Y-56857010D03*
D11*
X73250801Y-56857010D02*
X73250801Y-56857010D01*
D10*
X87469915Y-47468783D03*
D11*
X87469915Y-47468783D02*
X87469915Y-47468783D01*
D10*
X74520801Y-54657305D03*
D11*
X74520801Y-54657305D02*
X74520801Y-54657305D01*
D10*
X86199915Y-49668487D03*
D11*
X86199915Y-49668487D02*
X86199915Y-49668487D01*
D10*
X75790801Y-52457601D03*
D11*
X75790801Y-52457601D02*
X75790801Y-52457601D01*
D10*
X84929915Y-51868192D03*
D11*
X84929915Y-51868192D02*
X84929915Y-51868192D01*
D10*
X77060801Y-50257896D03*
D11*
X77060801Y-50257896D02*
X77060801Y-50257896D01*
D10*
X83659915Y-54067896D03*
D11*
X83659915Y-54067896D02*
X83659915Y-54067896D01*
D10*
X78330801Y-48058192D03*
D11*
X78330801Y-48058192D02*
X78330801Y-48058192D01*
D10*
X82389915Y-56267601D03*
D11*
X82389915Y-56267601D02*
X82389915Y-56267601D01*
D10*
X79600801Y-45858487D03*
D11*
X79600801Y-45858487D02*
X79600801Y-45858487D01*
D10*
X81119915Y-58467305D03*
D11*
X81119915Y-58467305D02*
X81119915Y-58467305D01*
D10*
X80870801Y-43658783D03*
D11*
X80870801Y-43658783D02*
X80870801Y-43658783D01*
D10*
X79849915Y-60667010D03*
D11*
X79849915Y-60667010D02*
X79849915Y-60667010D01*
D10*
X82140801Y-41459078D03*
D14*
G36*
X81047981Y-41751898D02*
G01*
X81847981Y-40366258D01*
X83233621Y-41166258D01*
X82433621Y-42551898D01*
X81047981Y-41751898D01*
X81047981Y-41751898D01*
G37*
D16*
X89740047Y-35436762D03*
X84159920Y-35101826D03*
D14*
G36*
X84443590Y-36160496D02*
G01*
X83101250Y-35385496D01*
X83876250Y-34043156D01*
X85218590Y-34818156D01*
X84443590Y-36160496D01*
X84443590Y-36160496D01*
G37*
D16*
X86659920Y-30771699D03*
X80566232Y-35258235D03*
X74986105Y-34923299D03*
D14*
G36*
X75269775Y-35981969D02*
G01*
X73927435Y-35206969D01*
X74702435Y-33864629D01*
X76044775Y-34639629D01*
X75269775Y-35981969D01*
X75269775Y-35981969D01*
G37*
D16*
X77486105Y-30593172D03*
X70080753Y-30737417D03*
X65415689Y-27657290D03*
D14*
G36*
X65132019Y-28715960D02*
G01*
X64357019Y-27373620D01*
X65699359Y-26598620D01*
X66474359Y-27940960D01*
X65132019Y-28715960D01*
X65132019Y-28715960D01*
G37*
D16*
X69745816Y-25157290D03*
X76921779Y-41753489D03*
X71341652Y-41418553D03*
D14*
G36*
X71625322Y-42477223D02*
G01*
X70282982Y-41702223D01*
X71057982Y-40359883D01*
X72400322Y-41134883D01*
X71625322Y-42477223D01*
X71625322Y-42477223D01*
G37*
D16*
X73841652Y-37088426D03*
X53494314Y-49191489D03*
D17*
X55994314Y-54191489D03*
D16*
X50994314Y-54191489D03*
X40420300Y-26158820D03*
D17*
X35420300Y-28658820D03*
D16*
X35420300Y-23658820D03*
D18*
X53229629Y-37248709D03*
D14*
G36*
X53137186Y-36192085D02*
G01*
X54286253Y-37156266D01*
X53322072Y-38305333D01*
X52173005Y-37341152D01*
X53137186Y-36192085D01*
X53137186Y-36192085D01*
G37*
D18*
X49338123Y-33983348D03*
X51283876Y-35616028D03*
D15*
X33769300Y-75186540D03*
D19*
X33769300Y-71376540D03*
D15*
X33677860Y-60043060D03*
D19*
X33677860Y-56233060D03*
D15*
X33738820Y-67675760D03*
D19*
X33738820Y-63865760D03*
D15*
X62411115Y-65901851D03*
X37782500Y-47414180D03*
X37721540Y-51125120D03*
X49900840Y-20355561D03*
X53566060Y-20454620D03*
X42588180Y-20347940D03*
X46200058Y-20347939D03*
X24185880Y-28422600D03*
X24208740Y-32062420D03*
X51625691Y-69551691D03*
X62781180Y-58757820D03*
X70129262Y-52118917D03*
X66134350Y-35928097D03*
X68051311Y-47565935D03*
X57249060Y-20439380D03*
X23688040Y-53708300D03*
X33754060Y-20601940D03*
X30126940Y-20601940D03*
X26499820Y-20617180D03*
X22872700Y-20601940D03*
D10*
X50499196Y-44540757D03*
X47818040Y-42291000D03*
D20*
X33350200Y-28610560D03*
X32764917Y-37059683D03*
X22313900Y-47604680D03*
X56791860Y-24627840D03*
X50147220Y-27033220D03*
X28194000Y-42418000D03*
X35460940Y-35765740D03*
X45974000Y-36845240D03*
X52898040Y-31150560D03*
X60365640Y-37188140D03*
X69524880Y-44244260D03*
X61970920Y-50904140D03*
X67492880Y-63342520D03*
X71879460Y-70037960D03*
X87581740Y-62765940D03*
X91622880Y-52951380D03*
X90812620Y-26283920D03*
X81000600Y-23860760D03*
X71765160Y-20396200D03*
X66108580Y-19933920D03*
X27086560Y-57685940D03*
X37475160Y-55377080D03*
X42440860Y-66344800D03*
X45212000Y-63573660D03*
X47404020Y-72463660D03*
X64376300Y-70848220D03*
X20850860Y-36675060D03*
X17619980Y-26515060D03*
X56245760Y-26098500D03*
X57279540Y-33533080D03*
X56659780Y-49583340D03*
X52453540Y-55852060D03*
X74942700Y-43428920D03*
X77894180Y-38341300D03*
X73822560Y-41953180D03*
X73771760Y-44851320D03*
X51694080Y-57162700D03*
X32209740Y-30739080D03*
X31894780Y-31529020D03*
X34246820Y-36776660D03*
X54322980Y-71526400D03*
X58353960Y-41724580D03*
X55775860Y-36474400D03*
X49329340Y-29771340D03*
X45491400Y-26024840D03*
X68262500Y-38620700D03*
X69512180Y-37076380D03*
X68257420Y-41120060D03*
X46355000Y-53964840D03*
X44559220Y-26469340D03*
X40055800Y-39850060D03*
X54759860Y-42603420D03*
X69715380Y-39745920D03*
X61572140Y-42570400D03*
X54295040Y-60594240D03*
X66019680Y-49636680D03*
X56710580Y-42806620D03*
X57155080Y-37848540D03*
X62204600Y-38503860D03*
X71208900Y-32468820D03*
D21*
X30289500Y-40954960D02*
X33240980Y-40401240D01*
X33080960Y-37589460D02*
X32764917Y-37059683D01*
X32288480Y-36261040D02*
X32471360Y-32755840D01*
X32764917Y-37059683D02*
X32288480Y-36261040D01*
X33240980Y-40401240D02*
X33080960Y-37589460D01*
X30561280Y-50914300D02*
X29684980Y-43860720D01*
X29684980Y-43860720D02*
X30289500Y-40954960D01*
X32471360Y-32755840D02*
X33340040Y-30861000D01*
X33340040Y-30861000D02*
X33317180Y-29852620D01*
X33317180Y-29852620D02*
X33350200Y-28610560D01*
X31482264Y-39400814D02*
X28849320Y-38668960D01*
X28849320Y-38668960D02*
X25524460Y-38414960D01*
X23746760Y-38605760D02*
X22580853Y-39697913D01*
X22313900Y-47604680D02*
X22580853Y-39697913D01*
X23746760Y-38605760D02*
X25524460Y-38414960D01*
X50147220Y-27033220D02*
X51800760Y-26073100D01*
X51800760Y-26073100D02*
X53634640Y-24869140D01*
X53634640Y-24869140D02*
X55290720Y-24117300D01*
X55290720Y-24117300D02*
X56791860Y-24627840D01*
X49329340Y-29771340D02*
X47612300Y-28336240D01*
X47612300Y-28336240D02*
X45491400Y-26024840D01*
X55775860Y-36474400D02*
X51120040Y-32672020D01*
X51120040Y-32672020D02*
X50043080Y-30645100D01*
X50043080Y-30645100D02*
X49329340Y-29771340D01*
X44206160Y-70995540D02*
X48016160Y-64396426D01*
X68262500Y-38620700D02*
X69512180Y-37076380D01*
X68257420Y-41120060D02*
X68440300Y-41922700D01*
X68440300Y-41922700D02*
X65684400Y-42880280D01*
X59923680Y-43578780D02*
X56774080Y-43682920D01*
X56774080Y-43682920D02*
X53687980Y-43743880D01*
X53687980Y-43743880D02*
X53096160Y-46253400D01*
X53096160Y-46253400D02*
X50119280Y-48585120D01*
X50119280Y-48585120D02*
X48828960Y-50629820D01*
X48828960Y-50629820D02*
X46355000Y-53964840D01*
X46355000Y-53964840D02*
X46355000Y-53964840D01*
X65684400Y-42880280D02*
X59923680Y-43578780D01*
X40055800Y-39850060D02*
X40967660Y-36680140D01*
X40967660Y-36680140D02*
X44193460Y-33284160D01*
X44193460Y-33284160D02*
X44559220Y-26469340D01*
X67858640Y-39420800D02*
X67429380Y-39171880D01*
X67429380Y-39171880D02*
X66410840Y-39250620D01*
X66410840Y-39250620D02*
X65178940Y-39512240D01*
X65178940Y-39512240D02*
X64239140Y-39715440D01*
X64239140Y-39715440D02*
X64193420Y-41061640D01*
X64193420Y-41061640D02*
X63980060Y-41615360D01*
X63980060Y-41615360D02*
X61998860Y-42031920D01*
X61998860Y-42031920D02*
X61572140Y-42570400D01*
X67858640Y-39420800D02*
X68407280Y-39702740D01*
X68407280Y-39702740D02*
X69715380Y-39745920D01*
X66019680Y-49636680D02*
X64747140Y-51620420D01*
X64747140Y-51620420D02*
X62951360Y-52928520D01*
X62951360Y-52928520D02*
X57155080Y-56106060D01*
X57155080Y-56106060D02*
X54538880Y-56405780D01*
X54538880Y-56405780D02*
X54201060Y-58237120D01*
X54201060Y-58237120D02*
X54295040Y-60594240D01*
X57155080Y-37848540D02*
X57155080Y-37848540D01*
X56710580Y-42806620D02*
X55532020Y-41813480D01*
X55532020Y-41813480D02*
X54681120Y-40810180D01*
X54681120Y-40810180D02*
X54731920Y-38407340D01*
X54731920Y-38407340D02*
X55735220Y-38000940D01*
X55735220Y-38000940D02*
X57155080Y-37848540D01*
X62204600Y-38503860D02*
X62448440Y-36235640D01*
X62448440Y-36235640D02*
X63075820Y-34787840D01*
X63075820Y-34787840D02*
X65488820Y-34279840D01*
X65488820Y-34279840D02*
X67853560Y-33025080D01*
X67853560Y-33025080D02*
X69326760Y-32542480D01*
X69326760Y-32542480D02*
X70703440Y-32227520D01*
X70703440Y-32227520D02*
X71208900Y-32468820D01*
D22*
G36*
X95352000Y-76810000D02*
G01*
X34731955Y-76810000D01*
X34970713Y-76650466D01*
X35233226Y-76387953D01*
X35439482Y-76079271D01*
X35581553Y-75736281D01*
X35653980Y-75372165D01*
X35653980Y-75000915D01*
X35581553Y-74636799D01*
X35439482Y-74293809D01*
X35233226Y-73985127D01*
X34970713Y-73722614D01*
X34662031Y-73516358D01*
X34319041Y-73374287D01*
X33954925Y-73301860D01*
X33583675Y-73301860D01*
X33219559Y-73374287D01*
X32876569Y-73516358D01*
X32567887Y-73722614D01*
X32305374Y-73985127D01*
X32099118Y-74293809D01*
X31957047Y-74636799D01*
X31884620Y-75000915D01*
X31884620Y-75372165D01*
X31957047Y-75736281D01*
X32099118Y-76079271D01*
X32305374Y-76387953D01*
X32567887Y-76650466D01*
X32806645Y-76810000D01*
X12598000Y-76810000D01*
X12598000Y-73171098D01*
X13617000Y-73171098D01*
X13617000Y-73640902D01*
X13708654Y-74101679D01*
X13888440Y-74535721D01*
X14149450Y-74926349D01*
X14481651Y-75258550D01*
X14872279Y-75519560D01*
X15306321Y-75699346D01*
X15767098Y-75791000D01*
X16236902Y-75791000D01*
X16697679Y-75699346D01*
X17131721Y-75519560D01*
X17522349Y-75258550D01*
X17854550Y-74926349D01*
X18115560Y-74535721D01*
X18295346Y-74101679D01*
X18387000Y-73640902D01*
X18387000Y-73171098D01*
X18295346Y-72710321D01*
X18115560Y-72276279D01*
X17854550Y-71885651D01*
X17522349Y-71553450D01*
X17215771Y-71348600D01*
X24150689Y-71348600D01*
X24179624Y-71642377D01*
X24265315Y-71924864D01*
X24404471Y-72185206D01*
X24591743Y-72413397D01*
X24819934Y-72600669D01*
X25080276Y-72739825D01*
X25362763Y-72825516D01*
X25582921Y-72847200D01*
X25730159Y-72847200D01*
X25950317Y-72825516D01*
X26232804Y-72739825D01*
X26493146Y-72600669D01*
X26721337Y-72413397D01*
X26727954Y-72405335D01*
X26743438Y-72456380D01*
X26802403Y-72566694D01*
X26881755Y-72663385D01*
X26978446Y-72742737D01*
X27088760Y-72801702D01*
X27208458Y-72838012D01*
X27332940Y-72850272D01*
X29060140Y-72850272D01*
X29184622Y-72838012D01*
X29304320Y-72801702D01*
X29414634Y-72742737D01*
X29511325Y-72663385D01*
X29590677Y-72566694D01*
X29649642Y-72456380D01*
X29685952Y-72336682D01*
X29698212Y-72212200D01*
X29698212Y-70485000D01*
X29685952Y-70360518D01*
X29649642Y-70240820D01*
X29590677Y-70130506D01*
X29587685Y-70126860D01*
X31881548Y-70126860D01*
X31881548Y-72626220D01*
X31893808Y-72750702D01*
X31930118Y-72870400D01*
X31989083Y-72980714D01*
X32068435Y-73077405D01*
X32165126Y-73156757D01*
X32275440Y-73215722D01*
X32395138Y-73252032D01*
X32519620Y-73264292D01*
X35018980Y-73264292D01*
X35143462Y-73252032D01*
X35263160Y-73215722D01*
X35346644Y-73171098D01*
X89563000Y-73171098D01*
X89563000Y-73640902D01*
X89654654Y-74101679D01*
X89834440Y-74535721D01*
X90095450Y-74926349D01*
X90427651Y-75258550D01*
X90818279Y-75519560D01*
X91252321Y-75699346D01*
X91713098Y-75791000D01*
X92182902Y-75791000D01*
X92643679Y-75699346D01*
X93077721Y-75519560D01*
X93468349Y-75258550D01*
X93800550Y-74926349D01*
X94061560Y-74535721D01*
X94241346Y-74101679D01*
X94333000Y-73640902D01*
X94333000Y-73171098D01*
X94241346Y-72710321D01*
X94061560Y-72276279D01*
X93800550Y-71885651D01*
X93468349Y-71553450D01*
X93077721Y-71292440D01*
X92643679Y-71112654D01*
X92182902Y-71021000D01*
X91713098Y-71021000D01*
X91252321Y-71112654D01*
X90818279Y-71292440D01*
X90427651Y-71553450D01*
X90095450Y-71885651D01*
X89834440Y-72276279D01*
X89654654Y-72710321D01*
X89563000Y-73171098D01*
X35346644Y-73171098D01*
X35373474Y-73156757D01*
X35470165Y-73077405D01*
X35549517Y-72980714D01*
X35608482Y-72870400D01*
X35644792Y-72750702D01*
X35657052Y-72626220D01*
X35657052Y-70854205D01*
X42771160Y-70854205D01*
X42771160Y-71136875D01*
X42826307Y-71414114D01*
X42934480Y-71675267D01*
X43091523Y-71910299D01*
X43291401Y-72110177D01*
X43526433Y-72267220D01*
X43787586Y-72375393D01*
X44064825Y-72430540D01*
X44347495Y-72430540D01*
X44624734Y-72375393D01*
X44885887Y-72267220D01*
X45120919Y-72110177D01*
X45320797Y-71910299D01*
X45477840Y-71675267D01*
X45586013Y-71414114D01*
X45641160Y-71136875D01*
X45641160Y-70854205D01*
X45586013Y-70576966D01*
X45514864Y-70405197D01*
X46114806Y-69366066D01*
X49741011Y-69366066D01*
X49741011Y-69737316D01*
X49813438Y-70101432D01*
X49955509Y-70444422D01*
X50161765Y-70753104D01*
X50424278Y-71015617D01*
X50732960Y-71221873D01*
X51075950Y-71363944D01*
X51440066Y-71436371D01*
X51811316Y-71436371D01*
X52175432Y-71363944D01*
X52518422Y-71221873D01*
X52827104Y-71015617D01*
X53089617Y-70753104D01*
X53295873Y-70444422D01*
X53437944Y-70101432D01*
X53510371Y-69737316D01*
X53510371Y-69366066D01*
X53437944Y-69001950D01*
X53295873Y-68658960D01*
X53089617Y-68350278D01*
X52827104Y-68087765D01*
X52518422Y-67881509D01*
X52175432Y-67739438D01*
X51811316Y-67667011D01*
X51440066Y-67667011D01*
X51075950Y-67739438D01*
X50732960Y-67881509D01*
X50424278Y-68087765D01*
X50161765Y-68350278D01*
X49955509Y-68658960D01*
X49813438Y-69001950D01*
X49741011Y-69366066D01*
X46114806Y-69366066D01*
X48159686Y-65824233D01*
X48297469Y-65810662D01*
X48567968Y-65728608D01*
X48591133Y-65716226D01*
X60526435Y-65716226D01*
X60526435Y-66087476D01*
X60598862Y-66451592D01*
X60740933Y-66794582D01*
X60947189Y-67103264D01*
X61209702Y-67365777D01*
X61518384Y-67572033D01*
X61861374Y-67714104D01*
X62225490Y-67786531D01*
X62596740Y-67786531D01*
X62960856Y-67714104D01*
X63303846Y-67572033D01*
X63612528Y-67365777D01*
X63875041Y-67103264D01*
X64081297Y-66794582D01*
X64223368Y-66451592D01*
X64295795Y-66087476D01*
X64295795Y-65716226D01*
X64223368Y-65352110D01*
X64081297Y-65009120D01*
X63875041Y-64700438D01*
X63612528Y-64437925D01*
X63303846Y-64231669D01*
X62960856Y-64089598D01*
X62596740Y-64017171D01*
X62225490Y-64017171D01*
X61861374Y-64089598D01*
X61518384Y-64231669D01*
X61209702Y-64437925D01*
X60947189Y-64700438D01*
X60740933Y-65009120D01*
X60598862Y-65352110D01*
X60526435Y-65716226D01*
X48591133Y-65716226D01*
X48817261Y-65595358D01*
X49035768Y-65416034D01*
X49215092Y-65197527D01*
X49348342Y-64948234D01*
X49430396Y-64677735D01*
X49458103Y-64396426D01*
X49430396Y-64115117D01*
X49348342Y-63844618D01*
X49215092Y-63595325D01*
X49035768Y-63376818D01*
X48817261Y-63197494D01*
X48567968Y-63064244D01*
X48297469Y-62982190D01*
X48086652Y-62961426D01*
X47945668Y-62961426D01*
X47734851Y-62982190D01*
X47464352Y-63064244D01*
X47215059Y-63197494D01*
X46996552Y-63376818D01*
X46817228Y-63595325D01*
X46683978Y-63844618D01*
X46601924Y-64115117D01*
X46574217Y-64396426D01*
X46601924Y-64677735D01*
X46683978Y-64948234D01*
X46705960Y-64989360D01*
X44066788Y-69560540D01*
X44064825Y-69560540D01*
X43787586Y-69615687D01*
X43526433Y-69723860D01*
X43291401Y-69880903D01*
X43091523Y-70080781D01*
X42934480Y-70315813D01*
X42826307Y-70576966D01*
X42771160Y-70854205D01*
X35657052Y-70854205D01*
X35657052Y-70126860D01*
X35644792Y-70002378D01*
X35608482Y-69882680D01*
X35549517Y-69772366D01*
X35470165Y-69675675D01*
X35373474Y-69596323D01*
X35263160Y-69537358D01*
X35143462Y-69501048D01*
X35018980Y-69488788D01*
X34259771Y-69488788D01*
X34511971Y-69404549D01*
X34746716Y-69279075D01*
X34872591Y-68989137D01*
X33738820Y-67855365D01*
X32605049Y-68989137D01*
X32730924Y-69279075D01*
X33063082Y-69444899D01*
X33223736Y-69488788D01*
X32519620Y-69488788D01*
X32395138Y-69501048D01*
X32275440Y-69537358D01*
X32165126Y-69596323D01*
X32068435Y-69675675D01*
X31989083Y-69772366D01*
X31930118Y-69882680D01*
X31893808Y-70002378D01*
X31881548Y-70126860D01*
X29587685Y-70126860D01*
X29511325Y-70033815D01*
X29414634Y-69954463D01*
X29304320Y-69895498D01*
X29239966Y-69875976D01*
X29303394Y-69818893D01*
X29479224Y-69583544D01*
X29605762Y-69318414D01*
X29651498Y-69167626D01*
X29530357Y-68935600D01*
X28323540Y-68935600D01*
X28323540Y-68955600D01*
X28069540Y-68955600D01*
X28069540Y-68935600D01*
X25783540Y-68935600D01*
X25783540Y-68955600D01*
X25529540Y-68955600D01*
X25529540Y-68935600D01*
X24322723Y-68935600D01*
X24201582Y-69167626D01*
X24247318Y-69318414D01*
X24373856Y-69583544D01*
X24549686Y-69818893D01*
X24768052Y-70015417D01*
X24864450Y-70072737D01*
X24819934Y-70096531D01*
X24591743Y-70283803D01*
X24404471Y-70511994D01*
X24265315Y-70772336D01*
X24179624Y-71054823D01*
X24150689Y-71348600D01*
X17215771Y-71348600D01*
X17131721Y-71292440D01*
X16697679Y-71112654D01*
X16236902Y-71021000D01*
X15767098Y-71021000D01*
X15306321Y-71112654D01*
X14872279Y-71292440D01*
X14481651Y-71553450D01*
X14149450Y-71885651D01*
X13888440Y-72276279D01*
X13708654Y-72710321D01*
X13617000Y-73171098D01*
X12598000Y-73171098D01*
X12598000Y-66627626D01*
X24201582Y-66627626D01*
X24247318Y-66778414D01*
X24373856Y-67043544D01*
X24549686Y-67278893D01*
X24768052Y-67475417D01*
X24874310Y-67538600D01*
X24768052Y-67601783D01*
X24549686Y-67798307D01*
X24373856Y-68033656D01*
X24247318Y-68298786D01*
X24201582Y-68449574D01*
X24322723Y-68681600D01*
X25529540Y-68681600D01*
X25529540Y-66395600D01*
X25783540Y-66395600D01*
X25783540Y-68681600D01*
X28069540Y-68681600D01*
X28069540Y-66395600D01*
X28323540Y-66395600D01*
X28323540Y-68681600D01*
X29530357Y-68681600D01*
X29651498Y-68449574D01*
X29605762Y-68298786D01*
X29479224Y-68033656D01*
X29303394Y-67798307D01*
X29225806Y-67728479D01*
X31845755Y-67728479D01*
X31892415Y-68096785D01*
X32010031Y-68448911D01*
X32135505Y-68683656D01*
X32425443Y-68809531D01*
X33559215Y-67675760D01*
X33918425Y-67675760D01*
X35052197Y-68809531D01*
X35342135Y-68683656D01*
X35507959Y-68351498D01*
X35605795Y-67993373D01*
X35631885Y-67623041D01*
X35585225Y-67254735D01*
X35467609Y-66902609D01*
X35342135Y-66667864D01*
X35052197Y-66541989D01*
X33918425Y-67675760D01*
X33559215Y-67675760D01*
X32425443Y-66541989D01*
X32135505Y-66667864D01*
X31969681Y-67000022D01*
X31871845Y-67358147D01*
X31845755Y-67728479D01*
X29225806Y-67728479D01*
X29085028Y-67601783D01*
X28978770Y-67538600D01*
X29085028Y-67475417D01*
X29303394Y-67278893D01*
X29479224Y-67043544D01*
X29605762Y-66778414D01*
X29651498Y-66627626D01*
X29530357Y-66395600D01*
X28323540Y-66395600D01*
X28069540Y-66395600D01*
X25783540Y-66395600D01*
X25529540Y-66395600D01*
X24322723Y-66395600D01*
X24201582Y-66627626D01*
X12598000Y-66627626D01*
X12598000Y-66362383D01*
X32605049Y-66362383D01*
X33738820Y-67496155D01*
X34872591Y-66362383D01*
X34746716Y-66072445D01*
X34414558Y-65906621D01*
X34056433Y-65808785D01*
X33686101Y-65782695D01*
X33317795Y-65829355D01*
X32965669Y-65946971D01*
X32730924Y-66072445D01*
X32605049Y-66362383D01*
X12598000Y-66362383D01*
X12598000Y-64087626D01*
X24201582Y-64087626D01*
X24247318Y-64238414D01*
X24373856Y-64503544D01*
X24549686Y-64738893D01*
X24768052Y-64935417D01*
X24874310Y-64998600D01*
X24768052Y-65061783D01*
X24549686Y-65258307D01*
X24373856Y-65493656D01*
X24247318Y-65758786D01*
X24201582Y-65909574D01*
X24322723Y-66141600D01*
X25529540Y-66141600D01*
X25529540Y-63855600D01*
X25783540Y-63855600D01*
X25783540Y-66141600D01*
X28069540Y-66141600D01*
X28069540Y-63855600D01*
X28323540Y-63855600D01*
X28323540Y-66141600D01*
X29530357Y-66141600D01*
X29651498Y-65909574D01*
X29605762Y-65758786D01*
X29479224Y-65493656D01*
X29303394Y-65258307D01*
X29144649Y-65115440D01*
X31851068Y-65115440D01*
X31863328Y-65239922D01*
X31899638Y-65359620D01*
X31958603Y-65469934D01*
X32037955Y-65566625D01*
X32134646Y-65645977D01*
X32244960Y-65704942D01*
X32364658Y-65741252D01*
X32489140Y-65753512D01*
X33453070Y-65750440D01*
X33611820Y-65591690D01*
X33611820Y-63992760D01*
X33865820Y-63992760D01*
X33865820Y-65591690D01*
X34024570Y-65750440D01*
X34988500Y-65753512D01*
X35112982Y-65741252D01*
X35232680Y-65704942D01*
X35342994Y-65645977D01*
X35439685Y-65566625D01*
X35519037Y-65469934D01*
X35578002Y-65359620D01*
X35614312Y-65239922D01*
X35626572Y-65115440D01*
X35623500Y-64151510D01*
X35464750Y-63992760D01*
X33865820Y-63992760D01*
X33611820Y-63992760D01*
X32012890Y-63992760D01*
X31854140Y-64151510D01*
X31851068Y-65115440D01*
X29144649Y-65115440D01*
X29085028Y-65061783D01*
X28978770Y-64998600D01*
X29085028Y-64935417D01*
X29303394Y-64738893D01*
X29479224Y-64503544D01*
X29605762Y-64238414D01*
X29651498Y-64087626D01*
X29530357Y-63855600D01*
X28323540Y-63855600D01*
X28069540Y-63855600D01*
X25783540Y-63855600D01*
X25529540Y-63855600D01*
X24322723Y-63855600D01*
X24201582Y-64087626D01*
X12598000Y-64087626D01*
X12598000Y-61188600D01*
X24150689Y-61188600D01*
X24179624Y-61482377D01*
X24265315Y-61764864D01*
X24404471Y-62025206D01*
X24591743Y-62253397D01*
X24819934Y-62440669D01*
X24864450Y-62464463D01*
X24768052Y-62521783D01*
X24549686Y-62718307D01*
X24373856Y-62953656D01*
X24247318Y-63218786D01*
X24201582Y-63369574D01*
X24322723Y-63601600D01*
X25529540Y-63601600D01*
X25529540Y-63581600D01*
X25783540Y-63581600D01*
X25783540Y-63601600D01*
X28069540Y-63601600D01*
X28069540Y-63581600D01*
X28323540Y-63581600D01*
X28323540Y-63601600D01*
X29530357Y-63601600D01*
X29651498Y-63369574D01*
X29605762Y-63218786D01*
X29479224Y-62953656D01*
X29303394Y-62718307D01*
X29189806Y-62616080D01*
X31851068Y-62616080D01*
X31854140Y-63580010D01*
X32012890Y-63738760D01*
X33611820Y-63738760D01*
X33611820Y-62139830D01*
X33865820Y-62139830D01*
X33865820Y-63738760D01*
X35464750Y-63738760D01*
X35623500Y-63580010D01*
X35626572Y-62616080D01*
X35614312Y-62491598D01*
X35578002Y-62371900D01*
X35519037Y-62261586D01*
X35439685Y-62164895D01*
X35342994Y-62085543D01*
X35232680Y-62026578D01*
X35112982Y-61990268D01*
X34988500Y-61978008D01*
X34024570Y-61981080D01*
X33865820Y-62139830D01*
X33611820Y-62139830D01*
X33453070Y-61981080D01*
X32489140Y-61978008D01*
X32364658Y-61990268D01*
X32244960Y-62026578D01*
X32134646Y-62085543D01*
X32037955Y-62164895D01*
X31958603Y-62261586D01*
X31899638Y-62371900D01*
X31863328Y-62491598D01*
X31851068Y-62616080D01*
X29189806Y-62616080D01*
X29085028Y-62521783D01*
X28988630Y-62464463D01*
X29033146Y-62440669D01*
X29261337Y-62253397D01*
X29448609Y-62025206D01*
X29587765Y-61764864D01*
X29673456Y-61482377D01*
X29702391Y-61188600D01*
X29673456Y-60894823D01*
X29587765Y-60612336D01*
X29448609Y-60351994D01*
X29261337Y-60123803D01*
X29033146Y-59936531D01*
X28885169Y-59857435D01*
X31793180Y-59857435D01*
X31793180Y-60228685D01*
X31865607Y-60592801D01*
X32007678Y-60935791D01*
X32213934Y-61244473D01*
X32476447Y-61506986D01*
X32785129Y-61713242D01*
X33128119Y-61855313D01*
X33492235Y-61927740D01*
X33863485Y-61927740D01*
X34227601Y-61855313D01*
X34570591Y-61713242D01*
X34879273Y-61506986D01*
X35141786Y-61244473D01*
X35348042Y-60935791D01*
X35490113Y-60592801D01*
X35510103Y-60492301D01*
X53260040Y-60492301D01*
X53260040Y-60696179D01*
X53299814Y-60896138D01*
X53377835Y-61084496D01*
X53491103Y-61254014D01*
X53635266Y-61398177D01*
X53804784Y-61511445D01*
X53993142Y-61589466D01*
X54193101Y-61629240D01*
X54396979Y-61629240D01*
X54596938Y-61589466D01*
X54785296Y-61511445D01*
X54954814Y-61398177D01*
X55098977Y-61254014D01*
X55212245Y-61084496D01*
X55290266Y-60896138D01*
X55330040Y-60696179D01*
X55330040Y-60667010D01*
X78407972Y-60667010D01*
X78435679Y-60948319D01*
X78517733Y-61218818D01*
X78650983Y-61468111D01*
X78830307Y-61686618D01*
X79048814Y-61865942D01*
X79298107Y-61999192D01*
X79568606Y-62081246D01*
X79779423Y-62102010D01*
X79920407Y-62102010D01*
X80131224Y-62081246D01*
X80401723Y-61999192D01*
X80651016Y-61865942D01*
X80869523Y-61686618D01*
X81048847Y-61468111D01*
X81182097Y-61218818D01*
X81264151Y-60948319D01*
X81291858Y-60667010D01*
X81264151Y-60385701D01*
X81182097Y-60115202D01*
X81068301Y-59902305D01*
X81190407Y-59902305D01*
X81401224Y-59881541D01*
X81671723Y-59799487D01*
X81921016Y-59666237D01*
X82139523Y-59486913D01*
X82318847Y-59268406D01*
X82452097Y-59019113D01*
X82534151Y-58748614D01*
X82561858Y-58467305D01*
X82534151Y-58185996D01*
X82452097Y-57915497D01*
X82338302Y-57702601D01*
X82460407Y-57702601D01*
X82671224Y-57681837D01*
X82941723Y-57599783D01*
X83191016Y-57466533D01*
X83409523Y-57287209D01*
X83588847Y-57068702D01*
X83722097Y-56819409D01*
X83804151Y-56548910D01*
X83831858Y-56267601D01*
X83804151Y-55986292D01*
X83722097Y-55715793D01*
X83608301Y-55502896D01*
X83730407Y-55502896D01*
X83941224Y-55482132D01*
X84211723Y-55400078D01*
X84461016Y-55266828D01*
X84679523Y-55087504D01*
X84858847Y-54868997D01*
X84992097Y-54619704D01*
X85074151Y-54349205D01*
X85101858Y-54067896D01*
X85074151Y-53786587D01*
X84992097Y-53516088D01*
X84875203Y-53297394D01*
X85094288Y-53293752D01*
X85369242Y-53234292D01*
X85627314Y-53122335D01*
X85858585Y-52962181D01*
X85960820Y-52866421D01*
X85966194Y-52613135D01*
X84976400Y-52041677D01*
X84966400Y-52058998D01*
X84746430Y-51931998D01*
X84756430Y-51914677D01*
X84595402Y-51821707D01*
X85103400Y-51821707D01*
X86093194Y-52393164D01*
X86309859Y-52261867D01*
X86341672Y-52125449D01*
X86364734Y-51845086D01*
X86332656Y-51565611D01*
X86246673Y-51297763D01*
X86135641Y-51097848D01*
X86364288Y-51094047D01*
X86639242Y-51034587D01*
X86897314Y-50922630D01*
X87128585Y-50762476D01*
X87230820Y-50666716D01*
X87236194Y-50413430D01*
X86246400Y-49841972D01*
X85675212Y-50831299D01*
X85103400Y-51821707D01*
X84595402Y-51821707D01*
X83766636Y-51343220D01*
X83549971Y-51474517D01*
X83518158Y-51610935D01*
X83495096Y-51891298D01*
X83527174Y-52170773D01*
X83613157Y-52438621D01*
X83721056Y-52632896D01*
X83589423Y-52632896D01*
X83378606Y-52653660D01*
X83108107Y-52735714D01*
X82858814Y-52868964D01*
X82640307Y-53048288D01*
X82460983Y-53266795D01*
X82327733Y-53516088D01*
X82245679Y-53786587D01*
X82217972Y-54067896D01*
X82245679Y-54349205D01*
X82327733Y-54619704D01*
X82441529Y-54832601D01*
X82319423Y-54832601D01*
X82108606Y-54853365D01*
X81838107Y-54935419D01*
X81588814Y-55068669D01*
X81370307Y-55247993D01*
X81190983Y-55466500D01*
X81057733Y-55715793D01*
X80975679Y-55986292D01*
X80947972Y-56267601D01*
X80975679Y-56548910D01*
X81057733Y-56819409D01*
X81171528Y-57032305D01*
X81049423Y-57032305D01*
X80838606Y-57053069D01*
X80568107Y-57135123D01*
X80318814Y-57268373D01*
X80100307Y-57447697D01*
X79920983Y-57666204D01*
X79787733Y-57915497D01*
X79705679Y-58185996D01*
X79677972Y-58467305D01*
X79705679Y-58748614D01*
X79787733Y-59019113D01*
X79901529Y-59232010D01*
X79779423Y-59232010D01*
X79568606Y-59252774D01*
X79298107Y-59334828D01*
X79048814Y-59468078D01*
X78830307Y-59647402D01*
X78650983Y-59865909D01*
X78517733Y-60115202D01*
X78435679Y-60385701D01*
X78407972Y-60667010D01*
X55330040Y-60667010D01*
X55330040Y-60492301D01*
X55290266Y-60292342D01*
X55212245Y-60103984D01*
X55108147Y-59948190D01*
X55053286Y-58572195D01*
X60896500Y-58572195D01*
X60896500Y-58943445D01*
X60968927Y-59307561D01*
X61110998Y-59650551D01*
X61317254Y-59959233D01*
X61579767Y-60221746D01*
X61888449Y-60428002D01*
X62231439Y-60570073D01*
X62595555Y-60642500D01*
X62966805Y-60642500D01*
X63330921Y-60570073D01*
X63673911Y-60428002D01*
X63982593Y-60221746D01*
X64245106Y-59959233D01*
X64451362Y-59650551D01*
X64593433Y-59307561D01*
X64665860Y-58943445D01*
X64665860Y-58572195D01*
X64593433Y-58208079D01*
X64451362Y-57865089D01*
X64245106Y-57556407D01*
X63982593Y-57293894D01*
X63673911Y-57087638D01*
X63330921Y-56945567D01*
X62966805Y-56873140D01*
X62595555Y-56873140D01*
X62231439Y-56945567D01*
X61888449Y-57087638D01*
X61579767Y-57293894D01*
X61317254Y-57556407D01*
X61110998Y-57865089D01*
X60968927Y-58208079D01*
X60896500Y-58572195D01*
X55053286Y-58572195D01*
X55042321Y-58297188D01*
X55250632Y-57167921D01*
X57207365Y-56943752D01*
X57246506Y-56943338D01*
X57289172Y-56934380D01*
X57291384Y-56934127D01*
X57329456Y-56925923D01*
X57408094Y-56909413D01*
X57410158Y-56908532D01*
X57412350Y-56908060D01*
X57486103Y-56876128D01*
X57521908Y-56860851D01*
X57523858Y-56859782D01*
X57530260Y-56857010D01*
X71808858Y-56857010D01*
X71836565Y-57138319D01*
X71918619Y-57408818D01*
X72051869Y-57658111D01*
X72231193Y-57876618D01*
X72449700Y-58055942D01*
X72698993Y-58189192D01*
X72969492Y-58271246D01*
X73180309Y-58292010D01*
X73321293Y-58292010D01*
X73532110Y-58271246D01*
X73802609Y-58189192D01*
X74051902Y-58055942D01*
X74270409Y-57876618D01*
X74449733Y-57658111D01*
X74582983Y-57408818D01*
X74665037Y-57138319D01*
X74692744Y-56857010D01*
X74665037Y-56575701D01*
X74582983Y-56305202D01*
X74469187Y-56092305D01*
X74591293Y-56092305D01*
X74802110Y-56071541D01*
X75072609Y-55989487D01*
X75321902Y-55856237D01*
X75540409Y-55676913D01*
X75719733Y-55458406D01*
X75852983Y-55209113D01*
X75935037Y-54938614D01*
X75962744Y-54657305D01*
X75935037Y-54375996D01*
X75852983Y-54105497D01*
X75739188Y-53892601D01*
X75861293Y-53892601D01*
X76072110Y-53871837D01*
X76342609Y-53789783D01*
X76591902Y-53656533D01*
X76810409Y-53477209D01*
X76989733Y-53258702D01*
X77122983Y-53009409D01*
X77205037Y-52738910D01*
X77232744Y-52457601D01*
X77205037Y-52176292D01*
X77122983Y-51905793D01*
X77009187Y-51692896D01*
X77131293Y-51692896D01*
X77342110Y-51672132D01*
X77612609Y-51590078D01*
X77861902Y-51456828D01*
X78080409Y-51277504D01*
X78207002Y-51123249D01*
X83893636Y-51123249D01*
X84883430Y-51694707D01*
X85454618Y-50705380D01*
X86026430Y-49714972D01*
X85036636Y-49143515D01*
X84819971Y-49274812D01*
X84788158Y-49411230D01*
X84765096Y-49691593D01*
X84797174Y-49971068D01*
X84883157Y-50238916D01*
X84994189Y-50438831D01*
X84765542Y-50442632D01*
X84490588Y-50502092D01*
X84232516Y-50614049D01*
X84001245Y-50774203D01*
X83899010Y-50869963D01*
X83893636Y-51123249D01*
X78207002Y-51123249D01*
X78259733Y-51058997D01*
X78392983Y-50809704D01*
X78475037Y-50539205D01*
X78502744Y-50257896D01*
X78475037Y-49976587D01*
X78392983Y-49706088D01*
X78276089Y-49487394D01*
X78495174Y-49483752D01*
X78770128Y-49424292D01*
X79028200Y-49312335D01*
X79259471Y-49152181D01*
X79361706Y-49056421D01*
X79364525Y-48923544D01*
X85163636Y-48923544D01*
X86153430Y-49495002D01*
X86163430Y-49477681D01*
X86383400Y-49604681D01*
X86373400Y-49622002D01*
X87363194Y-50193459D01*
X87579859Y-50062162D01*
X87611672Y-49925744D01*
X87634734Y-49645381D01*
X87602656Y-49365906D01*
X87516673Y-49098058D01*
X87408774Y-48903783D01*
X87540407Y-48903783D01*
X87751224Y-48883019D01*
X88021723Y-48800965D01*
X88271016Y-48667715D01*
X88489523Y-48488391D01*
X88668847Y-48269884D01*
X88802097Y-48020591D01*
X88884151Y-47750092D01*
X88911858Y-47468783D01*
X88884151Y-47187474D01*
X88802097Y-46916975D01*
X88688301Y-46704078D01*
X88810407Y-46704078D01*
X89021224Y-46683314D01*
X89291723Y-46601260D01*
X89541016Y-46468010D01*
X89759523Y-46288686D01*
X89938847Y-46070179D01*
X90072097Y-45820886D01*
X90154151Y-45550387D01*
X90181858Y-45269078D01*
X90154151Y-44987769D01*
X90072097Y-44717270D01*
X89938847Y-44467977D01*
X89759523Y-44249470D01*
X89541016Y-44070146D01*
X89291723Y-43936896D01*
X89021224Y-43854842D01*
X88810407Y-43834078D01*
X88669423Y-43834078D01*
X88458606Y-43854842D01*
X88188107Y-43936896D01*
X87938814Y-44070146D01*
X87720307Y-44249470D01*
X87540983Y-44467977D01*
X87407733Y-44717270D01*
X87325679Y-44987769D01*
X87297972Y-45269078D01*
X87325679Y-45550387D01*
X87407733Y-45820886D01*
X87521529Y-46033783D01*
X87399423Y-46033783D01*
X87188606Y-46054547D01*
X86918107Y-46136601D01*
X86668814Y-46269851D01*
X86450307Y-46449175D01*
X86270983Y-46667682D01*
X86137733Y-46916975D01*
X86055679Y-47187474D01*
X86027972Y-47468783D01*
X86055679Y-47750092D01*
X86137733Y-48020591D01*
X86254627Y-48239285D01*
X86035542Y-48242927D01*
X85760588Y-48302387D01*
X85502516Y-48414344D01*
X85271245Y-48574498D01*
X85169010Y-48670258D01*
X85163636Y-48923544D01*
X79364525Y-48923544D01*
X79367080Y-48803135D01*
X78377286Y-48231677D01*
X78367286Y-48248998D01*
X78147316Y-48121998D01*
X78157316Y-48104677D01*
X77167522Y-47533220D01*
X76950857Y-47664517D01*
X76919044Y-47800935D01*
X76895982Y-48081298D01*
X76928060Y-48360773D01*
X77014043Y-48628621D01*
X77121942Y-48822896D01*
X76990309Y-48822896D01*
X76779492Y-48843660D01*
X76508993Y-48925714D01*
X76259700Y-49058964D01*
X76041193Y-49238288D01*
X75861869Y-49456795D01*
X75728619Y-49706088D01*
X75646565Y-49976587D01*
X75618858Y-50257896D01*
X75646565Y-50539205D01*
X75728619Y-50809704D01*
X75842415Y-51022601D01*
X75720309Y-51022601D01*
X75509492Y-51043365D01*
X75238993Y-51125419D01*
X74989700Y-51258669D01*
X74771193Y-51437993D01*
X74591869Y-51656500D01*
X74458619Y-51905793D01*
X74376565Y-52176292D01*
X74348858Y-52457601D01*
X74376565Y-52738910D01*
X74458619Y-53009409D01*
X74572414Y-53222305D01*
X74450309Y-53222305D01*
X74239492Y-53243069D01*
X73968993Y-53325123D01*
X73719700Y-53458373D01*
X73501193Y-53637697D01*
X73321869Y-53856204D01*
X73188619Y-54105497D01*
X73106565Y-54375996D01*
X73078858Y-54657305D01*
X73106565Y-54938614D01*
X73188619Y-55209113D01*
X73302415Y-55422010D01*
X73180309Y-55422010D01*
X72969492Y-55442774D01*
X72698993Y-55524828D01*
X72449700Y-55658078D01*
X72231193Y-55837402D01*
X72051869Y-56055909D01*
X71918619Y-56305202D01*
X71836565Y-56575701D01*
X71808858Y-56857010D01*
X57530260Y-56857010D01*
X57563869Y-56842459D01*
X57596066Y-56820197D01*
X63292994Y-53697124D01*
X63304921Y-53692972D01*
X63365222Y-53657529D01*
X63390391Y-53643731D01*
X63400783Y-53636627D01*
X63411600Y-53630269D01*
X63434732Y-53613419D01*
X63492544Y-53573898D01*
X63501387Y-53564865D01*
X65199973Y-52327566D01*
X65228072Y-52311865D01*
X65266514Y-52279096D01*
X65273935Y-52273690D01*
X65297896Y-52252344D01*
X65353725Y-52204754D01*
X65359440Y-52197519D01*
X65366331Y-52191380D01*
X65410581Y-52132774D01*
X65430426Y-52107650D01*
X65435371Y-52099941D01*
X65465822Y-52059611D01*
X65479839Y-52030621D01*
X65542274Y-51933292D01*
X68244582Y-51933292D01*
X68244582Y-52304542D01*
X68317009Y-52668658D01*
X68459080Y-53011648D01*
X68665336Y-53320330D01*
X68927849Y-53582843D01*
X69236531Y-53789099D01*
X69579521Y-53931170D01*
X69943637Y-54003597D01*
X70314887Y-54003597D01*
X70679003Y-53931170D01*
X71021993Y-53789099D01*
X71330675Y-53582843D01*
X71593188Y-53320330D01*
X71799444Y-53011648D01*
X71941515Y-52668658D01*
X72013942Y-52304542D01*
X72013942Y-51933292D01*
X71941515Y-51569176D01*
X71799444Y-51226186D01*
X71593188Y-50917504D01*
X71330675Y-50654991D01*
X71021993Y-50448735D01*
X70679003Y-50306664D01*
X70314887Y-50234237D01*
X69943637Y-50234237D01*
X69579521Y-50306664D01*
X69236531Y-50448735D01*
X68927849Y-50654991D01*
X68665336Y-50917504D01*
X68459080Y-51226186D01*
X68317009Y-51569176D01*
X68244582Y-51933292D01*
X65542274Y-51933292D01*
X66397184Y-50600589D01*
X66509936Y-50553885D01*
X66679454Y-50440617D01*
X66823617Y-50296454D01*
X66936885Y-50126936D01*
X67014906Y-49938578D01*
X67054680Y-49738619D01*
X67054680Y-49534741D01*
X67014906Y-49334782D01*
X66936885Y-49146424D01*
X66866342Y-49040849D01*
X67158580Y-49236117D01*
X67501570Y-49378188D01*
X67865686Y-49450615D01*
X68236936Y-49450615D01*
X68601052Y-49378188D01*
X68944042Y-49236117D01*
X69252724Y-49029861D01*
X69515237Y-48767348D01*
X69721493Y-48458666D01*
X69863564Y-48115676D01*
X69935991Y-47751560D01*
X69935991Y-47380310D01*
X69922652Y-47313249D01*
X77294522Y-47313249D01*
X78284316Y-47884707D01*
X78294316Y-47867386D01*
X78514286Y-47994386D01*
X78504286Y-48011707D01*
X79494080Y-48583164D01*
X79710745Y-48451867D01*
X79742558Y-48315449D01*
X79765620Y-48035086D01*
X79733542Y-47755611D01*
X79647559Y-47487763D01*
X79539659Y-47293487D01*
X79671293Y-47293487D01*
X79882110Y-47272723D01*
X80152609Y-47190669D01*
X80401902Y-47057419D01*
X80620409Y-46878095D01*
X80799733Y-46659588D01*
X80932983Y-46410295D01*
X81015037Y-46139796D01*
X81042744Y-45858487D01*
X81015037Y-45577178D01*
X80932983Y-45306679D01*
X80819188Y-45093783D01*
X80941293Y-45093783D01*
X81152110Y-45073019D01*
X81422609Y-44990965D01*
X81671902Y-44857715D01*
X81890409Y-44678391D01*
X82069733Y-44459884D01*
X82202983Y-44210591D01*
X82285037Y-43940092D01*
X82312744Y-43658783D01*
X82285037Y-43377474D01*
X82216193Y-43150523D01*
X82228519Y-43156108D01*
X82350336Y-43184511D01*
X82475353Y-43188604D01*
X82598766Y-43168228D01*
X82715833Y-43124167D01*
X82822055Y-43058115D01*
X82913349Y-42972608D01*
X82986207Y-42870934D01*
X83786207Y-41485294D01*
X83837831Y-41371360D01*
X83866234Y-41249543D01*
X83870327Y-41124526D01*
X83849951Y-41001113D01*
X83805890Y-40884046D01*
X83739838Y-40777824D01*
X83654331Y-40686530D01*
X83552657Y-40613672D01*
X82167017Y-39813672D01*
X82053083Y-39762048D01*
X81931266Y-39733645D01*
X81806249Y-39729552D01*
X81682836Y-39749928D01*
X81565769Y-39793989D01*
X81459547Y-39860041D01*
X81368253Y-39945548D01*
X81295395Y-40047222D01*
X80495395Y-41432862D01*
X80443771Y-41546796D01*
X80415368Y-41668613D01*
X80411275Y-41793630D01*
X80431651Y-41917043D01*
X80475712Y-42034110D01*
X80541764Y-42140332D01*
X80627271Y-42231626D01*
X80638558Y-42239714D01*
X80589492Y-42244547D01*
X80318993Y-42326601D01*
X80069700Y-42459851D01*
X79851193Y-42639175D01*
X79671869Y-42857682D01*
X79538619Y-43106975D01*
X79456565Y-43377474D01*
X79428858Y-43658783D01*
X79456565Y-43940092D01*
X79538619Y-44210591D01*
X79652414Y-44423487D01*
X79530309Y-44423487D01*
X79319492Y-44444251D01*
X79048993Y-44526305D01*
X78799700Y-44659555D01*
X78581193Y-44838879D01*
X78401869Y-45057386D01*
X78268619Y-45306679D01*
X78186565Y-45577178D01*
X78158858Y-45858487D01*
X78186565Y-46139796D01*
X78268619Y-46410295D01*
X78385514Y-46628990D01*
X78166428Y-46632632D01*
X77891474Y-46692092D01*
X77633402Y-46804049D01*
X77402131Y-46964203D01*
X77299896Y-47059963D01*
X77294522Y-47313249D01*
X69922652Y-47313249D01*
X69863564Y-47016194D01*
X69721493Y-46673204D01*
X69515237Y-46364522D01*
X69252724Y-46102009D01*
X68944042Y-45895753D01*
X68601052Y-45753682D01*
X68236936Y-45681255D01*
X67865686Y-45681255D01*
X67501570Y-45753682D01*
X67158580Y-45895753D01*
X66849898Y-46102009D01*
X66587385Y-46364522D01*
X66381129Y-46673204D01*
X66239058Y-47016194D01*
X66166631Y-47380310D01*
X66166631Y-47751560D01*
X66239058Y-48115676D01*
X66381129Y-48458666D01*
X66587385Y-48767348D01*
X66599068Y-48779031D01*
X66509936Y-48719475D01*
X66321578Y-48641454D01*
X66121619Y-48601680D01*
X65917741Y-48601680D01*
X65717782Y-48641454D01*
X65529424Y-48719475D01*
X65359906Y-48832743D01*
X65215743Y-48976906D01*
X65102475Y-49146424D01*
X65024454Y-49334782D01*
X64984680Y-49534741D01*
X64984680Y-49697729D01*
X64126525Y-51035493D01*
X62501294Y-52219359D01*
X57402663Y-55014446D01*
X57407386Y-54966489D01*
X57404314Y-54477239D01*
X57245564Y-54318489D01*
X56121314Y-54318489D01*
X56121314Y-54338489D01*
X55867314Y-54338489D01*
X55867314Y-54318489D01*
X54743064Y-54318489D01*
X54584314Y-54477239D01*
X54581242Y-54966489D01*
X54593502Y-55090971D01*
X54629812Y-55210669D01*
X54688777Y-55320983D01*
X54768129Y-55417674D01*
X54864820Y-55497026D01*
X54907543Y-55519862D01*
X54443800Y-55572990D01*
X54363070Y-55582079D01*
X54322860Y-55594891D01*
X54281610Y-55603780D01*
X54244399Y-55619891D01*
X54205751Y-55632205D01*
X54168809Y-55652618D01*
X54130091Y-55669381D01*
X54096737Y-55692442D01*
X54061236Y-55712059D01*
X54028987Y-55739285D01*
X53994281Y-55763282D01*
X53966066Y-55792408D01*
X53935076Y-55818572D01*
X53908761Y-55851564D01*
X53879400Y-55881873D01*
X53857408Y-55915946D01*
X53832119Y-55947652D01*
X53812745Y-55985145D01*
X53789863Y-56020598D01*
X53774942Y-56058304D01*
X53756323Y-56094337D01*
X53744636Y-56134891D01*
X53729110Y-56174125D01*
X53714537Y-56254000D01*
X53382261Y-58055285D01*
X53369099Y-58105845D01*
X53364920Y-58177416D01*
X53358888Y-58248855D01*
X53364733Y-58300771D01*
X53433317Y-60020949D01*
X53377835Y-60103984D01*
X53299814Y-60292342D01*
X53260040Y-60492301D01*
X35510103Y-60492301D01*
X35562540Y-60228685D01*
X35562540Y-59857435D01*
X35490113Y-59493319D01*
X35348042Y-59150329D01*
X35141786Y-58841647D01*
X34879273Y-58579134D01*
X34570591Y-58372878D01*
X34227601Y-58230807D01*
X33863485Y-58158380D01*
X33492235Y-58158380D01*
X33128119Y-58230807D01*
X32785129Y-58372878D01*
X32476447Y-58579134D01*
X32213934Y-58841647D01*
X32007678Y-59150329D01*
X31865607Y-59493319D01*
X31793180Y-59857435D01*
X28885169Y-59857435D01*
X28772804Y-59797375D01*
X28490317Y-59711684D01*
X28270159Y-59690000D01*
X28122921Y-59690000D01*
X27902763Y-59711684D01*
X27620276Y-59797375D01*
X27359934Y-59936531D01*
X27131743Y-60123803D01*
X26944471Y-60351994D01*
X26926540Y-60385540D01*
X26908609Y-60351994D01*
X26721337Y-60123803D01*
X26493146Y-59936531D01*
X26232804Y-59797375D01*
X25950317Y-59711684D01*
X25730159Y-59690000D01*
X25582921Y-59690000D01*
X25362763Y-59711684D01*
X25080276Y-59797375D01*
X24819934Y-59936531D01*
X24591743Y-60123803D01*
X24404471Y-60351994D01*
X24265315Y-60612336D01*
X24179624Y-60894823D01*
X24150689Y-61188600D01*
X12598000Y-61188600D01*
X12598000Y-53522675D01*
X21803360Y-53522675D01*
X21803360Y-53893925D01*
X21875787Y-54258041D01*
X22017858Y-54601031D01*
X22224114Y-54909713D01*
X22486627Y-55172226D01*
X22795309Y-55378482D01*
X23138299Y-55520553D01*
X23502415Y-55592980D01*
X23873665Y-55592980D01*
X24237781Y-55520553D01*
X24580771Y-55378482D01*
X24889453Y-55172226D01*
X25078299Y-54983380D01*
X31790108Y-54983380D01*
X31790108Y-57482740D01*
X31802368Y-57607222D01*
X31838678Y-57726920D01*
X31897643Y-57837234D01*
X31976995Y-57933925D01*
X32073686Y-58013277D01*
X32184000Y-58072242D01*
X32303698Y-58108552D01*
X32428180Y-58120812D01*
X34927540Y-58120812D01*
X35052022Y-58108552D01*
X35171720Y-58072242D01*
X35282034Y-58013277D01*
X35378725Y-57933925D01*
X35458077Y-57837234D01*
X35517042Y-57726920D01*
X35553352Y-57607222D01*
X35565612Y-57482740D01*
X35565612Y-54983380D01*
X35553352Y-54858898D01*
X35517042Y-54739200D01*
X35458077Y-54628886D01*
X35378725Y-54532195D01*
X35282034Y-54452843D01*
X35171720Y-54393878D01*
X35052022Y-54357568D01*
X34927540Y-54345308D01*
X32428180Y-54345308D01*
X32303698Y-54357568D01*
X32184000Y-54393878D01*
X32073686Y-54452843D01*
X31976995Y-54532195D01*
X31897643Y-54628886D01*
X31838678Y-54739200D01*
X31802368Y-54858898D01*
X31790108Y-54983380D01*
X25078299Y-54983380D01*
X25151966Y-54909713D01*
X25358222Y-54601031D01*
X25500293Y-54258041D01*
X25572720Y-53893925D01*
X25572720Y-53522675D01*
X25500293Y-53158559D01*
X25358222Y-52815569D01*
X25151966Y-52506887D01*
X24889453Y-52244374D01*
X24580771Y-52038118D01*
X24237781Y-51896047D01*
X23873665Y-51823620D01*
X23502415Y-51823620D01*
X23138299Y-51896047D01*
X22795309Y-52038118D01*
X22486627Y-52244374D01*
X22224114Y-52506887D01*
X22017858Y-52815569D01*
X21875787Y-53158559D01*
X21803360Y-53522675D01*
X12598000Y-53522675D01*
X12598000Y-47502741D01*
X21278900Y-47502741D01*
X21278900Y-47706619D01*
X21318674Y-47906578D01*
X21396695Y-48094936D01*
X21509963Y-48264454D01*
X21654126Y-48408617D01*
X21823644Y-48521885D01*
X22012002Y-48599906D01*
X22211961Y-48639680D01*
X22415839Y-48639680D01*
X22615798Y-48599906D01*
X22804156Y-48521885D01*
X22973674Y-48408617D01*
X23117837Y-48264454D01*
X23231105Y-48094936D01*
X23309126Y-47906578D01*
X23348900Y-47706619D01*
X23348900Y-47502741D01*
X23309126Y-47302782D01*
X23231105Y-47114424D01*
X23172110Y-47026132D01*
X23271705Y-44076272D01*
X23334812Y-44165409D01*
X23539028Y-44358881D01*
X23777065Y-44508795D01*
X23985223Y-44588501D01*
X23840554Y-44707228D01*
X23661230Y-44925735D01*
X23527980Y-45175028D01*
X23445926Y-45445527D01*
X23418219Y-45726836D01*
X23445926Y-46008145D01*
X23527980Y-46278644D01*
X23661230Y-46527937D01*
X23840554Y-46746444D01*
X24059061Y-46925768D01*
X24308354Y-47059018D01*
X24421948Y-47093476D01*
X24281620Y-47208640D01*
X24102296Y-47427147D01*
X23969046Y-47676440D01*
X23886992Y-47946939D01*
X23859285Y-48228248D01*
X23886992Y-48509557D01*
X23969046Y-48780056D01*
X24102296Y-49029349D01*
X24281620Y-49247856D01*
X24500127Y-49427180D01*
X24749420Y-49560430D01*
X25019919Y-49642484D01*
X25230736Y-49663248D01*
X25371720Y-49663248D01*
X25582537Y-49642484D01*
X25853036Y-49560430D01*
X26102329Y-49427180D01*
X26320836Y-49247856D01*
X26500160Y-49029349D01*
X26633410Y-48780056D01*
X26715464Y-48509557D01*
X26743171Y-48228248D01*
X26715464Y-47946939D01*
X26633410Y-47676440D01*
X26500160Y-47427147D01*
X26320836Y-47208640D01*
X26102329Y-47029316D01*
X25853036Y-46896066D01*
X25739442Y-46861608D01*
X25879770Y-46746444D01*
X26059094Y-46527937D01*
X26192344Y-46278644D01*
X26274398Y-46008145D01*
X26302105Y-45726836D01*
X26274398Y-45445527D01*
X26192344Y-45175028D01*
X26059094Y-44925735D01*
X25879770Y-44707228D01*
X25661263Y-44527904D01*
X25411970Y-44394654D01*
X25292436Y-44358394D01*
X25461344Y-44211811D01*
X25633752Y-43989524D01*
X25759481Y-43737875D01*
X25833700Y-43466531D01*
X25850463Y-43327460D01*
X25691770Y-43129977D01*
X24566219Y-43328442D01*
X24569692Y-43348138D01*
X24319551Y-43392245D01*
X24316078Y-43372549D01*
X24296382Y-43376022D01*
X24252275Y-43125881D01*
X24271971Y-43122408D01*
X24268498Y-43102712D01*
X24518639Y-43058605D01*
X24522112Y-43078301D01*
X25647664Y-42879836D01*
X25729243Y-42639987D01*
X25665925Y-42515036D01*
X25503378Y-42285441D01*
X25299162Y-42091969D01*
X25112287Y-41974276D01*
X25136055Y-41967629D01*
X25247630Y-41911086D01*
X25346029Y-41833861D01*
X25427472Y-41738924D01*
X25488829Y-41629922D01*
X25527741Y-41511045D01*
X25542714Y-41386861D01*
X25533172Y-41262141D01*
X25255335Y-39686448D01*
X25221645Y-39565987D01*
X25165102Y-39454412D01*
X25087877Y-39356013D01*
X25034850Y-39310523D01*
X25537368Y-39256588D01*
X28703778Y-39498483D01*
X30132815Y-39895699D01*
X30150082Y-39952622D01*
X30235422Y-40112282D01*
X30174528Y-40123706D01*
X30132432Y-40127480D01*
X30054061Y-40150506D01*
X29975682Y-40173352D01*
X29974882Y-40173769D01*
X29974016Y-40174023D01*
X29901473Y-40211984D01*
X29829228Y-40249594D01*
X29828528Y-40250156D01*
X29827725Y-40250576D01*
X29763844Y-40302071D01*
X29700462Y-40352942D01*
X29699885Y-40353630D01*
X29699180Y-40354198D01*
X29646643Y-40417082D01*
X29594332Y-40479425D01*
X29593899Y-40480213D01*
X29593320Y-40480907D01*
X29554139Y-40552689D01*
X29514917Y-40624183D01*
X29514646Y-40625043D01*
X29514214Y-40625834D01*
X29489831Y-40703747D01*
X29465269Y-40781652D01*
X29460668Y-40823665D01*
X28878224Y-43623316D01*
X28873037Y-43636797D01*
X28861437Y-43704006D01*
X28855966Y-43730302D01*
X28854433Y-43744585D01*
X28844954Y-43799502D01*
X28845640Y-43826489D01*
X28842758Y-43853337D01*
X28847734Y-43908840D01*
X28848099Y-43923203D01*
X28851413Y-43949877D01*
X28857501Y-44017787D01*
X28861570Y-44031638D01*
X29521360Y-49342467D01*
X29359867Y-49450374D01*
X29097354Y-49712887D01*
X28891098Y-50021569D01*
X28749027Y-50364559D01*
X28676600Y-50728675D01*
X28676600Y-51099925D01*
X28749027Y-51464041D01*
X28891098Y-51807031D01*
X29097354Y-52115713D01*
X29359867Y-52378226D01*
X29668549Y-52584482D01*
X30011539Y-52726553D01*
X30375655Y-52798980D01*
X30746905Y-52798980D01*
X31111021Y-52726553D01*
X31454011Y-52584482D01*
X31762693Y-52378226D01*
X32025206Y-52115713D01*
X32231462Y-51807031D01*
X32373533Y-51464041D01*
X32445960Y-51099925D01*
X32445960Y-50939495D01*
X35836860Y-50939495D01*
X35836860Y-51310745D01*
X35909287Y-51674861D01*
X36051358Y-52017851D01*
X36257614Y-52326533D01*
X36520127Y-52589046D01*
X36828809Y-52795302D01*
X37171799Y-52937373D01*
X37535915Y-53009800D01*
X37907165Y-53009800D01*
X38271281Y-52937373D01*
X38614271Y-52795302D01*
X38922953Y-52589046D01*
X39185466Y-52326533D01*
X39391722Y-52017851D01*
X39533793Y-51674861D01*
X39606220Y-51310745D01*
X39606220Y-50939495D01*
X39533793Y-50575379D01*
X39391722Y-50232389D01*
X39185466Y-49923707D01*
X38922953Y-49661194D01*
X38614271Y-49454938D01*
X38271281Y-49312867D01*
X38084494Y-49275713D01*
X38332241Y-49226433D01*
X38675231Y-49084362D01*
X38983913Y-48878106D01*
X39246426Y-48615593D01*
X39452682Y-48306911D01*
X39594753Y-47963921D01*
X39667180Y-47599805D01*
X39667180Y-47228555D01*
X39594753Y-46864439D01*
X39452682Y-46521449D01*
X39246426Y-46212767D01*
X38983913Y-45950254D01*
X38675231Y-45743998D01*
X38332241Y-45601927D01*
X37968125Y-45529500D01*
X37596875Y-45529500D01*
X37232759Y-45601927D01*
X36889769Y-45743998D01*
X36581087Y-45950254D01*
X36318574Y-46212767D01*
X36112318Y-46521449D01*
X35970247Y-46864439D01*
X35897820Y-47228555D01*
X35897820Y-47599805D01*
X35970247Y-47963921D01*
X36112318Y-48306911D01*
X36318574Y-48615593D01*
X36581087Y-48878106D01*
X36889769Y-49084362D01*
X37232759Y-49226433D01*
X37419546Y-49263587D01*
X37171799Y-49312867D01*
X36828809Y-49454938D01*
X36520127Y-49661194D01*
X36257614Y-49923707D01*
X36051358Y-50232389D01*
X35909287Y-50575379D01*
X35836860Y-50939495D01*
X32445960Y-50939495D01*
X32445960Y-50728675D01*
X32373533Y-50364559D01*
X32231462Y-50021569D01*
X32025206Y-49712887D01*
X31762693Y-49450374D01*
X31454011Y-49244118D01*
X31184563Y-49132509D01*
X30533924Y-43895340D01*
X30770281Y-42759236D01*
X30903722Y-42921834D01*
X31122229Y-43101158D01*
X31371522Y-43234408D01*
X31485116Y-43268866D01*
X31344789Y-43384029D01*
X31165465Y-43602536D01*
X31032215Y-43851829D01*
X30950161Y-44122328D01*
X30922454Y-44403637D01*
X30950161Y-44684946D01*
X31032215Y-44955445D01*
X31165465Y-45204738D01*
X31344789Y-45423245D01*
X31563296Y-45602569D01*
X31812589Y-45735819D01*
X31926183Y-45770277D01*
X31785855Y-45885441D01*
X31606531Y-46103948D01*
X31473281Y-46353241D01*
X31391227Y-46623740D01*
X31363520Y-46905049D01*
X31391227Y-47186358D01*
X31473281Y-47456857D01*
X31606531Y-47706150D01*
X31785855Y-47924657D01*
X32004362Y-48103981D01*
X32253655Y-48237231D01*
X32524154Y-48319285D01*
X32734971Y-48340049D01*
X32875955Y-48340049D01*
X33086772Y-48319285D01*
X33357271Y-48237231D01*
X33606564Y-48103981D01*
X33825071Y-47924657D01*
X34004395Y-47706150D01*
X34137645Y-47456857D01*
X34219699Y-47186358D01*
X34247406Y-46905049D01*
X34219699Y-46623740D01*
X34137645Y-46353241D01*
X34004395Y-46103948D01*
X33825071Y-45885441D01*
X33606564Y-45706117D01*
X33357271Y-45572867D01*
X33243677Y-45538409D01*
X33384005Y-45423245D01*
X33563329Y-45204738D01*
X33696579Y-44955445D01*
X33778633Y-44684946D01*
X33806340Y-44403637D01*
X33805925Y-44399422D01*
X49064196Y-44399422D01*
X49064196Y-44682092D01*
X49119343Y-44959331D01*
X49227516Y-45220484D01*
X49384559Y-45455516D01*
X49584437Y-45655394D01*
X49819469Y-45812437D01*
X50080622Y-45920610D01*
X50357861Y-45975757D01*
X50640531Y-45975757D01*
X50917770Y-45920610D01*
X51178923Y-45812437D01*
X51413955Y-45655394D01*
X51613833Y-45455516D01*
X51770876Y-45220484D01*
X51879049Y-44959331D01*
X51934196Y-44682092D01*
X51934196Y-44399422D01*
X51879049Y-44122183D01*
X51770876Y-43861030D01*
X51613833Y-43625998D01*
X51413955Y-43426120D01*
X51178923Y-43269077D01*
X50917770Y-43160904D01*
X50640531Y-43105757D01*
X50357861Y-43105757D01*
X50080622Y-43160904D01*
X49819469Y-43269077D01*
X49584437Y-43426120D01*
X49384559Y-43625998D01*
X49227516Y-43861030D01*
X49119343Y-44122183D01*
X49064196Y-44399422D01*
X33805925Y-44399422D01*
X33778633Y-44122328D01*
X33696579Y-43851829D01*
X33563329Y-43602536D01*
X33384005Y-43384029D01*
X33165498Y-43204705D01*
X32916205Y-43071455D01*
X32802611Y-43036997D01*
X32942938Y-42921834D01*
X33023682Y-42823447D01*
X37673509Y-42823447D01*
X37673509Y-43101193D01*
X37727695Y-43373602D01*
X37833984Y-43630205D01*
X37988291Y-43861142D01*
X38184687Y-44057538D01*
X38415624Y-44211845D01*
X38672227Y-44318134D01*
X38944636Y-44372320D01*
X39222382Y-44372320D01*
X39494791Y-44318134D01*
X39751394Y-44211845D01*
X39982331Y-44057538D01*
X40178727Y-43861142D01*
X40333034Y-43630205D01*
X40439323Y-43373602D01*
X40493509Y-43101193D01*
X40493509Y-42823447D01*
X40439323Y-42551038D01*
X40333034Y-42294435D01*
X40178727Y-42063498D01*
X39982331Y-41867102D01*
X39751394Y-41712795D01*
X39494791Y-41606506D01*
X39222382Y-41552320D01*
X38944636Y-41552320D01*
X38672227Y-41606506D01*
X38415624Y-41712795D01*
X38184687Y-41867102D01*
X37988291Y-42063498D01*
X37833984Y-42294435D01*
X37727695Y-42551038D01*
X37673509Y-42823447D01*
X33023682Y-42823447D01*
X33122262Y-42703327D01*
X33255512Y-42454034D01*
X33337566Y-42183535D01*
X33365273Y-41902226D01*
X33337566Y-41620917D01*
X33255512Y-41350418D01*
X33207379Y-41260367D01*
X33383039Y-41227412D01*
X33451966Y-41216640D01*
X33502805Y-41198003D01*
X33554798Y-41182848D01*
X33580152Y-41169649D01*
X33606989Y-41159811D01*
X33653222Y-41131610D01*
X33701252Y-41106606D01*
X33723542Y-41088716D01*
X33747946Y-41073830D01*
X33787792Y-41037149D01*
X33830018Y-41003258D01*
X33848387Y-40981366D01*
X33869421Y-40962003D01*
X33901341Y-40918258D01*
X33936148Y-40876776D01*
X33949899Y-40851710D01*
X33966744Y-40828625D01*
X33989511Y-40779505D01*
X34015563Y-40732018D01*
X34024159Y-40704753D01*
X34036178Y-40678823D01*
X34048926Y-40626201D01*
X34065211Y-40574549D01*
X34068323Y-40546131D01*
X34075052Y-40518354D01*
X34077290Y-40464247D01*
X34083184Y-40410419D01*
X34077103Y-40340919D01*
X33918035Y-37545880D01*
X33914353Y-37467605D01*
X33903386Y-37423435D01*
X33896360Y-37378474D01*
X33883542Y-37343507D01*
X33874567Y-37307360D01*
X33855194Y-37266179D01*
X33846815Y-37243320D01*
X37338572Y-37243320D01*
X37338572Y-37521066D01*
X37392758Y-37793475D01*
X37499047Y-38050078D01*
X37653354Y-38281015D01*
X37849750Y-38477411D01*
X38080687Y-38631718D01*
X38337290Y-38738007D01*
X38609699Y-38792193D01*
X38887445Y-38792193D01*
X39159854Y-38738007D01*
X39416457Y-38631718D01*
X39562065Y-38534426D01*
X39419354Y-39030536D01*
X39396026Y-39046123D01*
X39251863Y-39190286D01*
X39138595Y-39359804D01*
X39060574Y-39548162D01*
X39020800Y-39748121D01*
X39020800Y-39951999D01*
X39060574Y-40151958D01*
X39138595Y-40340316D01*
X39251863Y-40509834D01*
X39396026Y-40653997D01*
X39565544Y-40767265D01*
X39753902Y-40845286D01*
X39953861Y-40885060D01*
X40157739Y-40885060D01*
X40357698Y-40845286D01*
X40546056Y-40767265D01*
X40715574Y-40653997D01*
X40859737Y-40509834D01*
X40973005Y-40340316D01*
X41051026Y-40151958D01*
X41054017Y-40136918D01*
X41718260Y-40136918D01*
X41722353Y-40261935D01*
X41750756Y-40383751D01*
X41802379Y-40497686D01*
X42577379Y-41840026D01*
X42650238Y-41941700D01*
X42741532Y-42027206D01*
X42847754Y-42093259D01*
X42964821Y-42137320D01*
X43088234Y-42157696D01*
X43213251Y-42153603D01*
X43230140Y-42149665D01*
X46383040Y-42149665D01*
X46383040Y-42432335D01*
X46438187Y-42709574D01*
X46546360Y-42970727D01*
X46703403Y-43205759D01*
X46903281Y-43405637D01*
X47138313Y-43562680D01*
X47399466Y-43670853D01*
X47676705Y-43726000D01*
X47959375Y-43726000D01*
X48236614Y-43670853D01*
X48497767Y-43562680D01*
X48732799Y-43405637D01*
X48932677Y-43205759D01*
X49089720Y-42970727D01*
X49197893Y-42709574D01*
X49253040Y-42432335D01*
X49253040Y-42149665D01*
X49197893Y-41872426D01*
X49089720Y-41611273D01*
X48932677Y-41376241D01*
X48732799Y-41176363D01*
X48497767Y-41019320D01*
X48236614Y-40911147D01*
X47959375Y-40856000D01*
X47676705Y-40856000D01*
X47399466Y-40911147D01*
X47138313Y-41019320D01*
X46903281Y-41176363D01*
X46703403Y-41376241D01*
X46546360Y-41611273D01*
X46438187Y-41872426D01*
X46383040Y-42149665D01*
X43230140Y-42149665D01*
X43335067Y-42125200D01*
X43449002Y-42073577D01*
X44791342Y-41298577D01*
X44893016Y-41225718D01*
X44978522Y-41134424D01*
X45044575Y-41028202D01*
X45088636Y-40911135D01*
X45109012Y-40787722D01*
X45104919Y-40662705D01*
X45076516Y-40540889D01*
X45024893Y-40426954D01*
X44249893Y-39084614D01*
X44177034Y-38982940D01*
X44085740Y-38897434D01*
X43979518Y-38831381D01*
X43862451Y-38787320D01*
X43739038Y-38766944D01*
X43614021Y-38771037D01*
X43492205Y-38799440D01*
X43378270Y-38851063D01*
X42035930Y-39626063D01*
X41934256Y-39698922D01*
X41848750Y-39790216D01*
X41782697Y-39896438D01*
X41738636Y-40013505D01*
X41718260Y-40136918D01*
X41054017Y-40136918D01*
X41090800Y-39951999D01*
X41090800Y-39748121D01*
X41051026Y-39548162D01*
X41029667Y-39496597D01*
X41716537Y-37108818D01*
X44749829Y-33915503D01*
X44756249Y-33910786D01*
X44806588Y-33855749D01*
X44829542Y-33831584D01*
X44834416Y-33825324D01*
X44867684Y-33788951D01*
X44885008Y-33760342D01*
X44905560Y-33733945D01*
X44927677Y-33689880D01*
X44953209Y-33647717D01*
X44964619Y-33616279D01*
X44979626Y-33586379D01*
X44992721Y-33538845D01*
X45009537Y-33492512D01*
X45014594Y-33459452D01*
X45023480Y-33427198D01*
X45027050Y-33378023D01*
X45028248Y-33370193D01*
X45030032Y-33336953D01*
X45035436Y-33262521D01*
X45034451Y-33254612D01*
X45363220Y-27129020D01*
X45364805Y-27126647D01*
X46948599Y-28852699D01*
X46956463Y-28864700D01*
X47004298Y-28913401D01*
X47022533Y-28933274D01*
X47033176Y-28942802D01*
X47043173Y-28952980D01*
X47063841Y-28970255D01*
X47114728Y-29015810D01*
X47127086Y-29023115D01*
X48324263Y-30023714D01*
X48334114Y-30073238D01*
X48412135Y-30261596D01*
X48525403Y-30431114D01*
X48669566Y-30575277D01*
X48839084Y-30688545D01*
X49027442Y-30766566D01*
X49066312Y-30774298D01*
X49341654Y-31111372D01*
X50361480Y-33030764D01*
X50373824Y-33060364D01*
X50221009Y-32907549D01*
X49994166Y-32755977D01*
X49742112Y-32651573D01*
X49474534Y-32598348D01*
X49201712Y-32598348D01*
X48934134Y-32651573D01*
X48682080Y-32755977D01*
X48455237Y-32907549D01*
X48262324Y-33100462D01*
X48110752Y-33327305D01*
X48006348Y-33579359D01*
X47953123Y-33846937D01*
X47953123Y-34119759D01*
X48006348Y-34387337D01*
X48110752Y-34639391D01*
X48262324Y-34866234D01*
X48455237Y-35059147D01*
X48682080Y-35210719D01*
X48934134Y-35315123D01*
X49201712Y-35368348D01*
X49474534Y-35368348D01*
X49742112Y-35315123D01*
X49948610Y-35229589D01*
X49898876Y-35479617D01*
X49898876Y-35752439D01*
X49952101Y-36020017D01*
X50056505Y-36272071D01*
X50208077Y-36498914D01*
X50400990Y-36691827D01*
X50627833Y-36843399D01*
X50879887Y-36947803D01*
X51147465Y-37001028D01*
X51420287Y-37001028D01*
X51670339Y-36951289D01*
X51613590Y-37034247D01*
X51564465Y-37149280D01*
X51538725Y-37271687D01*
X51537361Y-37396764D01*
X51560424Y-37519703D01*
X51607028Y-37635781D01*
X51675383Y-37740536D01*
X51762860Y-37829944D01*
X52911927Y-38794125D01*
X53015167Y-38864748D01*
X53130200Y-38913873D01*
X53252607Y-38939613D01*
X53377684Y-38940977D01*
X53500623Y-38917914D01*
X53616701Y-38871310D01*
X53721456Y-38802955D01*
X53810864Y-38715478D01*
X53888987Y-38622374D01*
X53844520Y-40725684D01*
X53841696Y-40741187D01*
X53842778Y-40808084D01*
X53842238Y-40833623D01*
X53843444Y-40849242D01*
X53844366Y-40906275D01*
X53849784Y-40931384D01*
X53851761Y-40956998D01*
X53867161Y-41011917D01*
X53879191Y-41067671D01*
X53889404Y-41091243D01*
X53896340Y-41115977D01*
X53922159Y-41166839D01*
X53944834Y-41219172D01*
X53959447Y-41240295D01*
X53971077Y-41263205D01*
X54006321Y-41308050D01*
X54015235Y-41320935D01*
X54031767Y-41340428D01*
X54073101Y-41393022D01*
X54085063Y-41403270D01*
X54310620Y-41669225D01*
X54269604Y-41686215D01*
X54100086Y-41799483D01*
X53955923Y-41943646D01*
X53842655Y-42113164D01*
X53764634Y-42301522D01*
X53724860Y-42501481D01*
X53724860Y-42705359D01*
X53764373Y-42904008D01*
X53735728Y-42904574D01*
X53717662Y-42902149D01*
X53653357Y-42906201D01*
X53630265Y-42906657D01*
X53612257Y-42908791D01*
X53552878Y-42912532D01*
X53530436Y-42918485D01*
X53507382Y-42921216D01*
X53450806Y-42939606D01*
X53393285Y-42954863D01*
X53372432Y-42965081D01*
X53350359Y-42972256D01*
X53298457Y-43001330D01*
X53245018Y-43027516D01*
X53226563Y-43041603D01*
X53206309Y-43052949D01*
X53161076Y-43091591D01*
X53113774Y-43127698D01*
X53098419Y-43145119D01*
X53080771Y-43160195D01*
X53043944Y-43206921D01*
X53004597Y-43251560D01*
X52992939Y-43271635D01*
X52978567Y-43289870D01*
X52951560Y-43342890D01*
X52921681Y-43394341D01*
X52914163Y-43416306D01*
X52903625Y-43436994D01*
X52887479Y-43494267D01*
X52881610Y-43511415D01*
X52876312Y-43533879D01*
X52858825Y-43595911D01*
X52857397Y-43614088D01*
X52347828Y-45774832D01*
X49651164Y-47887067D01*
X49633227Y-47897265D01*
X49586292Y-47937879D01*
X49570007Y-47950635D01*
X49555182Y-47964800D01*
X49508372Y-48005306D01*
X49495588Y-48021740D01*
X49480539Y-48036119D01*
X49445001Y-48086771D01*
X49432395Y-48102976D01*
X49421340Y-48120495D01*
X49385708Y-48171280D01*
X49377384Y-48190148D01*
X48136962Y-50155779D01*
X46048083Y-52971693D01*
X45864744Y-53047635D01*
X45695226Y-53160903D01*
X45551063Y-53305066D01*
X45437795Y-53474584D01*
X45359774Y-53662942D01*
X45320000Y-53862901D01*
X45320000Y-54066779D01*
X45359774Y-54266738D01*
X45437795Y-54455096D01*
X45551063Y-54624614D01*
X45695226Y-54768777D01*
X45864744Y-54882045D01*
X46053102Y-54960066D01*
X46253061Y-54999840D01*
X46456939Y-54999840D01*
X46656898Y-54960066D01*
X46845256Y-54882045D01*
X47014774Y-54768777D01*
X47158937Y-54624614D01*
X47272205Y-54455096D01*
X47350226Y-54266738D01*
X47390000Y-54066779D01*
X47390000Y-54052616D01*
X49584314Y-54052616D01*
X49584314Y-54330362D01*
X49638500Y-54602771D01*
X49744789Y-54859374D01*
X49899096Y-55090311D01*
X50095492Y-55286707D01*
X50326429Y-55441014D01*
X50583032Y-55547303D01*
X50855441Y-55601489D01*
X51133187Y-55601489D01*
X51405596Y-55547303D01*
X51662199Y-55441014D01*
X51893136Y-55286707D01*
X52089532Y-55090311D01*
X52243839Y-54859374D01*
X52350128Y-54602771D01*
X52404314Y-54330362D01*
X52404314Y-54052616D01*
X52350128Y-53780207D01*
X52243839Y-53523604D01*
X52172268Y-53416489D01*
X54581242Y-53416489D01*
X54584314Y-53905739D01*
X54743064Y-54064489D01*
X55867314Y-54064489D01*
X55867314Y-52940239D01*
X56121314Y-52940239D01*
X56121314Y-54064489D01*
X57245564Y-54064489D01*
X57404314Y-53905739D01*
X57407386Y-53416489D01*
X57395126Y-53292007D01*
X57358816Y-53172309D01*
X57299851Y-53061995D01*
X57220499Y-52965304D01*
X57123808Y-52885952D01*
X57013494Y-52826987D01*
X56893796Y-52790677D01*
X56769314Y-52778417D01*
X56280064Y-52781489D01*
X56121314Y-52940239D01*
X55867314Y-52940239D01*
X55708564Y-52781489D01*
X55219314Y-52778417D01*
X55094832Y-52790677D01*
X54975134Y-52826987D01*
X54864820Y-52885952D01*
X54768129Y-52965304D01*
X54688777Y-53061995D01*
X54629812Y-53172309D01*
X54593502Y-53292007D01*
X54581242Y-53416489D01*
X52172268Y-53416489D01*
X52089532Y-53292667D01*
X51893136Y-53096271D01*
X51662199Y-52941964D01*
X51405596Y-52835675D01*
X51133187Y-52781489D01*
X50855441Y-52781489D01*
X50583032Y-52835675D01*
X50326429Y-52941964D01*
X50095492Y-53096271D01*
X49899096Y-53292667D01*
X49744789Y-53523604D01*
X49638500Y-53780207D01*
X49584314Y-54052616D01*
X47390000Y-54052616D01*
X47390000Y-53976495D01*
X49496486Y-51136849D01*
X49515844Y-51111964D01*
X49520959Y-51103859D01*
X49526684Y-51096141D01*
X49542934Y-51069036D01*
X50750568Y-49155365D01*
X50881746Y-49052616D01*
X52084314Y-49052616D01*
X52084314Y-49330362D01*
X52138500Y-49602771D01*
X52244789Y-49859374D01*
X52399096Y-50090311D01*
X52595492Y-50286707D01*
X52826429Y-50441014D01*
X53083032Y-50547303D01*
X53355441Y-50601489D01*
X53633187Y-50601489D01*
X53905596Y-50547303D01*
X54162199Y-50441014D01*
X54393136Y-50286707D01*
X54589532Y-50090311D01*
X54743839Y-49859374D01*
X54850128Y-49602771D01*
X54904314Y-49330362D01*
X54904314Y-49052616D01*
X54850128Y-48780207D01*
X54743839Y-48523604D01*
X54589532Y-48292667D01*
X54393136Y-48096271D01*
X54162199Y-47941964D01*
X53905596Y-47835675D01*
X53633187Y-47781489D01*
X53355441Y-47781489D01*
X53083032Y-47835675D01*
X52826429Y-47941964D01*
X52595492Y-48096271D01*
X52399096Y-48292667D01*
X52244789Y-48523604D01*
X52138500Y-48780207D01*
X52084314Y-49052616D01*
X50881746Y-49052616D01*
X53609018Y-46916410D01*
X53670365Y-46869582D01*
X53701186Y-46834616D01*
X53734901Y-46802402D01*
X53755656Y-46772820D01*
X53779543Y-46745721D01*
X53802950Y-46705414D01*
X53829733Y-46667241D01*
X53844320Y-46634175D01*
X53862459Y-46602939D01*
X53877553Y-46558840D01*
X53896374Y-46516175D01*
X53913184Y-46440686D01*
X54354567Y-44569076D01*
X56755062Y-44521659D01*
X56760633Y-44522022D01*
X56796191Y-44520846D01*
X56831795Y-44520143D01*
X56837344Y-44519486D01*
X59946991Y-44416667D01*
X59983703Y-44415841D01*
X59988106Y-44415307D01*
X59992526Y-44415161D01*
X60028836Y-44410368D01*
X65751682Y-43716460D01*
X65800317Y-43714519D01*
X65873492Y-43696903D01*
X65946956Y-43680565D01*
X65991495Y-43660932D01*
X68710649Y-42716120D01*
X68784025Y-42691625D01*
X68824415Y-42668577D01*
X68866643Y-42649078D01*
X68895954Y-42627754D01*
X68927430Y-42609793D01*
X68962549Y-42579307D01*
X69000160Y-42551945D01*
X69024749Y-42525312D01*
X69052115Y-42501556D01*
X69080608Y-42464809D01*
X69112163Y-42430631D01*
X69131085Y-42399711D01*
X69153289Y-42371074D01*
X69174066Y-42329473D01*
X69198345Y-42289798D01*
X69210870Y-42255781D01*
X69227062Y-42223362D01*
X69239323Y-42178510D01*
X69255397Y-42134857D01*
X69261045Y-42099050D01*
X69270601Y-42064095D01*
X69273877Y-42017704D01*
X69281124Y-41971763D01*
X69279679Y-41935549D01*
X69282232Y-41899394D01*
X69276395Y-41853256D01*
X69274540Y-41806783D01*
X69256421Y-41731520D01*
X69209579Y-41525931D01*
X69252646Y-41421958D01*
X69292420Y-41221999D01*
X69292420Y-41018121D01*
X69252646Y-40818162D01*
X69174625Y-40629804D01*
X69174116Y-40629043D01*
X69225124Y-40663125D01*
X69413482Y-40741146D01*
X69613441Y-40780920D01*
X69817319Y-40780920D01*
X70017278Y-40741146D01*
X70127417Y-40695525D01*
X69730395Y-41383187D01*
X69678772Y-41497122D01*
X69650369Y-41618938D01*
X69646276Y-41743955D01*
X69666652Y-41867368D01*
X69710713Y-41984435D01*
X69776766Y-42090657D01*
X69862272Y-42181951D01*
X69963946Y-42254810D01*
X71306286Y-43029810D01*
X71420221Y-43081433D01*
X71542037Y-43109836D01*
X71667054Y-43113929D01*
X71790467Y-43093553D01*
X71907534Y-43049492D01*
X72013756Y-42983439D01*
X72105050Y-42897933D01*
X72177909Y-42796259D01*
X72860130Y-41614616D01*
X75511779Y-41614616D01*
X75511779Y-41892362D01*
X75565965Y-42164771D01*
X75672254Y-42421374D01*
X75826561Y-42652311D01*
X76022957Y-42848707D01*
X76253894Y-43003014D01*
X76510497Y-43109303D01*
X76782906Y-43163489D01*
X77060652Y-43163489D01*
X77333061Y-43109303D01*
X77589664Y-43003014D01*
X77820601Y-42848707D01*
X78016997Y-42652311D01*
X78171304Y-42421374D01*
X78277593Y-42164771D01*
X78331779Y-41892362D01*
X78331779Y-41614616D01*
X78277593Y-41342207D01*
X78171304Y-41085604D01*
X78016997Y-40854667D01*
X77820601Y-40658271D01*
X77589664Y-40503964D01*
X77333061Y-40397675D01*
X77060652Y-40343489D01*
X76782906Y-40343489D01*
X76510497Y-40397675D01*
X76253894Y-40503964D01*
X76022957Y-40658271D01*
X75826561Y-40854667D01*
X75672254Y-41085604D01*
X75565965Y-41342207D01*
X75511779Y-41614616D01*
X72860130Y-41614616D01*
X72952909Y-41453919D01*
X73004532Y-41339984D01*
X73032935Y-41218168D01*
X73037028Y-41093151D01*
X73016652Y-40969738D01*
X72972591Y-40852671D01*
X72906538Y-40746449D01*
X72821032Y-40655155D01*
X72719358Y-40582296D01*
X71377018Y-39807296D01*
X71263083Y-39755673D01*
X71141267Y-39727270D01*
X71016250Y-39723177D01*
X70892837Y-39743553D01*
X70775770Y-39787614D01*
X70750380Y-39803402D01*
X70750380Y-39643981D01*
X70710606Y-39444022D01*
X70632585Y-39255664D01*
X70519317Y-39086146D01*
X70375154Y-38941983D01*
X70205636Y-38828715D01*
X70017278Y-38750694D01*
X69817319Y-38710920D01*
X69613441Y-38710920D01*
X69413482Y-38750694D01*
X69281004Y-38805568D01*
X69297500Y-38722639D01*
X69297500Y-38674158D01*
X69779531Y-38078478D01*
X69814078Y-38071606D01*
X70002436Y-37993585D01*
X70171954Y-37880317D01*
X70316117Y-37736154D01*
X70429385Y-37566636D01*
X70507406Y-37378278D01*
X70547180Y-37178319D01*
X70547180Y-36974441D01*
X70542230Y-36949553D01*
X72431652Y-36949553D01*
X72431652Y-37227299D01*
X72485838Y-37499708D01*
X72592127Y-37756311D01*
X72746434Y-37987248D01*
X72942830Y-38183644D01*
X73173767Y-38337951D01*
X73430370Y-38444240D01*
X73702779Y-38498426D01*
X73980525Y-38498426D01*
X74252934Y-38444240D01*
X74509537Y-38337951D01*
X74740474Y-38183644D01*
X74936870Y-37987248D01*
X75091177Y-37756311D01*
X75197466Y-37499708D01*
X75251652Y-37227299D01*
X75251652Y-36949553D01*
X75197466Y-36677144D01*
X75169955Y-36610727D01*
X75186490Y-36614582D01*
X75311507Y-36618675D01*
X75434920Y-36598299D01*
X75551987Y-36554238D01*
X75658209Y-36488185D01*
X75749503Y-36402679D01*
X75822362Y-36301005D01*
X76504583Y-35119362D01*
X79156232Y-35119362D01*
X79156232Y-35397108D01*
X79210418Y-35669517D01*
X79316707Y-35926120D01*
X79471014Y-36157057D01*
X79667410Y-36353453D01*
X79898347Y-36507760D01*
X80154950Y-36614049D01*
X80427359Y-36668235D01*
X80705105Y-36668235D01*
X80977514Y-36614049D01*
X81234117Y-36507760D01*
X81465054Y-36353453D01*
X81661450Y-36157057D01*
X81815757Y-35926120D01*
X81922046Y-35669517D01*
X81970240Y-35427228D01*
X82464544Y-35427228D01*
X82484920Y-35550641D01*
X82528981Y-35667708D01*
X82595034Y-35773930D01*
X82680540Y-35865224D01*
X82782214Y-35938083D01*
X84124554Y-36713083D01*
X84238489Y-36764706D01*
X84360305Y-36793109D01*
X84485322Y-36797202D01*
X84608735Y-36776826D01*
X84725802Y-36732765D01*
X84832024Y-36666712D01*
X84923318Y-36581206D01*
X84996177Y-36479532D01*
X85678398Y-35297889D01*
X88330047Y-35297889D01*
X88330047Y-35575635D01*
X88384233Y-35848044D01*
X88490522Y-36104647D01*
X88644829Y-36335584D01*
X88841225Y-36531980D01*
X89072162Y-36686287D01*
X89328765Y-36792576D01*
X89601174Y-36846762D01*
X89878920Y-36846762D01*
X90151329Y-36792576D01*
X90407932Y-36686287D01*
X90638869Y-36531980D01*
X90835265Y-36335584D01*
X90989572Y-36104647D01*
X91095861Y-35848044D01*
X91150047Y-35575635D01*
X91150047Y-35297889D01*
X91095861Y-35025480D01*
X90989572Y-34768877D01*
X90835265Y-34537940D01*
X90638869Y-34341544D01*
X90407932Y-34187237D01*
X90151329Y-34080948D01*
X89878920Y-34026762D01*
X89601174Y-34026762D01*
X89328765Y-34080948D01*
X89072162Y-34187237D01*
X88841225Y-34341544D01*
X88644829Y-34537940D01*
X88490522Y-34768877D01*
X88384233Y-35025480D01*
X88330047Y-35297889D01*
X85678398Y-35297889D01*
X85771177Y-35137192D01*
X85822800Y-35023257D01*
X85851203Y-34901441D01*
X85855296Y-34776424D01*
X85834920Y-34653011D01*
X85790859Y-34535944D01*
X85724806Y-34429722D01*
X85639300Y-34338428D01*
X85537626Y-34265569D01*
X84195286Y-33490569D01*
X84081351Y-33438946D01*
X83959535Y-33410543D01*
X83834518Y-33406450D01*
X83711105Y-33426826D01*
X83594038Y-33470887D01*
X83487816Y-33536940D01*
X83396522Y-33622446D01*
X83323663Y-33724120D01*
X82548663Y-35066460D01*
X82497040Y-35180395D01*
X82468637Y-35302211D01*
X82464544Y-35427228D01*
X81970240Y-35427228D01*
X81976232Y-35397108D01*
X81976232Y-35119362D01*
X81922046Y-34846953D01*
X81815757Y-34590350D01*
X81661450Y-34359413D01*
X81465054Y-34163017D01*
X81234117Y-34008710D01*
X80977514Y-33902421D01*
X80705105Y-33848235D01*
X80427359Y-33848235D01*
X80154950Y-33902421D01*
X79898347Y-34008710D01*
X79667410Y-34163017D01*
X79471014Y-34359413D01*
X79316707Y-34590350D01*
X79210418Y-34846953D01*
X79156232Y-35119362D01*
X76504583Y-35119362D01*
X76597362Y-34958665D01*
X76648985Y-34844730D01*
X76677388Y-34722914D01*
X76681481Y-34597897D01*
X76661105Y-34474484D01*
X76617044Y-34357417D01*
X76550991Y-34251195D01*
X76465485Y-34159901D01*
X76363811Y-34087042D01*
X75021471Y-33312042D01*
X74907536Y-33260419D01*
X74785720Y-33232016D01*
X74660703Y-33227923D01*
X74537290Y-33248299D01*
X74420223Y-33292360D01*
X74314001Y-33358413D01*
X74222707Y-33443919D01*
X74149848Y-33545593D01*
X73374848Y-34887933D01*
X73323225Y-35001868D01*
X73294822Y-35123684D01*
X73290729Y-35248701D01*
X73311105Y-35372114D01*
X73355166Y-35489181D01*
X73421219Y-35595403D01*
X73506725Y-35686697D01*
X73540288Y-35710748D01*
X73430370Y-35732612D01*
X73173767Y-35838901D01*
X72942830Y-35993208D01*
X72746434Y-36189604D01*
X72592127Y-36420541D01*
X72485838Y-36677144D01*
X72431652Y-36949553D01*
X70542230Y-36949553D01*
X70507406Y-36774482D01*
X70429385Y-36586124D01*
X70316117Y-36416606D01*
X70171954Y-36272443D01*
X70002436Y-36159175D01*
X69814078Y-36081154D01*
X69614119Y-36041380D01*
X69410241Y-36041380D01*
X69210282Y-36081154D01*
X69021924Y-36159175D01*
X68852406Y-36272443D01*
X68708243Y-36416606D01*
X68594975Y-36586124D01*
X68516954Y-36774482D01*
X68477180Y-36974441D01*
X68477180Y-37022922D01*
X67995149Y-37618602D01*
X67960602Y-37625474D01*
X67772244Y-37703495D01*
X67602726Y-37816763D01*
X67458563Y-37960926D01*
X67345295Y-38130444D01*
X67267274Y-38318802D01*
X67262242Y-38344101D01*
X66414242Y-38409656D01*
X66399964Y-38408436D01*
X66332088Y-38416007D01*
X66305187Y-38418087D01*
X66291146Y-38420574D01*
X66276985Y-38422154D01*
X66250607Y-38427756D01*
X66183342Y-38439672D01*
X66169989Y-38444877D01*
X65043582Y-38684093D01*
X65042041Y-38684271D01*
X65003129Y-38692684D01*
X64964543Y-38700879D01*
X64963078Y-38701344D01*
X64123029Y-38882977D01*
X64102958Y-38884268D01*
X64042493Y-38900390D01*
X64021761Y-38904873D01*
X64002723Y-38910995D01*
X63943421Y-38926807D01*
X63924275Y-38936220D01*
X63903960Y-38942752D01*
X63850319Y-38972578D01*
X63795249Y-38999652D01*
X63778306Y-39012620D01*
X63759656Y-39022990D01*
X63712863Y-39062709D01*
X63664135Y-39100005D01*
X63650048Y-39116028D01*
X63633779Y-39129838D01*
X63595637Y-39177919D01*
X63555118Y-39224008D01*
X63544426Y-39242475D01*
X63531166Y-39259190D01*
X63503139Y-39313783D01*
X63472387Y-39366897D01*
X63465504Y-39387093D01*
X63455759Y-39406075D01*
X63438919Y-39465097D01*
X63419123Y-39523180D01*
X63416312Y-39544328D01*
X63410457Y-39564850D01*
X63405455Y-39626021D01*
X63402821Y-39645844D01*
X63402101Y-39667051D01*
X63397002Y-39729411D01*
X63399304Y-39749386D01*
X63360598Y-40889079D01*
X61904607Y-41195211D01*
X61901982Y-41195256D01*
X61823932Y-41212174D01*
X61786105Y-41220127D01*
X61783611Y-41220913D01*
X61740619Y-41230232D01*
X61705063Y-41245677D01*
X61668090Y-41257334D01*
X61629524Y-41278491D01*
X61589179Y-41296017D01*
X61557316Y-41318104D01*
X61523332Y-41336748D01*
X61489641Y-41365017D01*
X61453484Y-41390081D01*
X61426539Y-41417963D01*
X61396847Y-41442877D01*
X61369320Y-41477173D01*
X61367494Y-41479063D01*
X61343369Y-41509506D01*
X61294543Y-41570340D01*
X61270242Y-41575174D01*
X61081884Y-41653195D01*
X60912366Y-41766463D01*
X60768203Y-41910626D01*
X60654935Y-42080144D01*
X60576914Y-42268502D01*
X60537140Y-42468461D01*
X60537140Y-42660058D01*
X59859261Y-42742253D01*
X57745580Y-42812140D01*
X57745580Y-42704681D01*
X57705806Y-42504722D01*
X57627785Y-42316364D01*
X57514517Y-42146846D01*
X57370354Y-42002683D01*
X57200836Y-41889415D01*
X57012478Y-41811394D01*
X56812519Y-41771620D01*
X56783110Y-41771620D01*
X56125856Y-41217771D01*
X55525847Y-40510298D01*
X55558264Y-38976971D01*
X55941244Y-38821840D01*
X56637011Y-38747161D01*
X56664824Y-38765745D01*
X56853182Y-38843766D01*
X57053141Y-38883540D01*
X57257019Y-38883540D01*
X57456978Y-38843766D01*
X57645336Y-38765745D01*
X57814854Y-38652477D01*
X57959017Y-38508314D01*
X58030106Y-38401921D01*
X61169600Y-38401921D01*
X61169600Y-38605799D01*
X61209374Y-38805758D01*
X61287395Y-38994116D01*
X61400663Y-39163634D01*
X61544826Y-39307797D01*
X61714344Y-39421065D01*
X61902702Y-39499086D01*
X62102661Y-39538860D01*
X62306539Y-39538860D01*
X62506498Y-39499086D01*
X62694856Y-39421065D01*
X62864374Y-39307797D01*
X63008537Y-39163634D01*
X63121805Y-38994116D01*
X63199826Y-38805758D01*
X63239600Y-38605799D01*
X63239600Y-38401921D01*
X63199826Y-38201962D01*
X63121805Y-38013604D01*
X63103309Y-37985922D01*
X63268214Y-36451962D01*
X63672595Y-35518776D01*
X64321332Y-35382200D01*
X64249670Y-35742472D01*
X64249670Y-36113722D01*
X64322097Y-36477838D01*
X64464168Y-36820828D01*
X64670424Y-37129510D01*
X64932937Y-37392023D01*
X65241619Y-37598279D01*
X65584609Y-37740350D01*
X65948725Y-37812777D01*
X66319975Y-37812777D01*
X66684091Y-37740350D01*
X67027081Y-37598279D01*
X67335763Y-37392023D01*
X67598276Y-37129510D01*
X67804532Y-36820828D01*
X67946603Y-36477838D01*
X68019030Y-36113722D01*
X68019030Y-35742472D01*
X67946603Y-35378356D01*
X67804532Y-35035366D01*
X67598276Y-34726684D01*
X67335763Y-34464171D01*
X67156038Y-34344082D01*
X68182879Y-33799228D01*
X69551172Y-33350994D01*
X70426992Y-33150623D01*
X70549126Y-33272757D01*
X70718644Y-33386025D01*
X70907002Y-33464046D01*
X71106961Y-33503820D01*
X71310839Y-33503820D01*
X71510798Y-33464046D01*
X71699156Y-33386025D01*
X71868674Y-33272757D01*
X72012837Y-33128594D01*
X72126105Y-32959076D01*
X72204126Y-32770718D01*
X72243900Y-32570759D01*
X72243900Y-32366881D01*
X72204126Y-32166922D01*
X72126105Y-31978564D01*
X72012837Y-31809046D01*
X71868674Y-31664883D01*
X71699156Y-31551615D01*
X71510798Y-31473594D01*
X71311178Y-31433887D01*
X71330278Y-31405302D01*
X71436567Y-31148699D01*
X71490753Y-30876290D01*
X71490753Y-30598544D01*
X71462061Y-30454299D01*
X76076105Y-30454299D01*
X76076105Y-30732045D01*
X76130291Y-31004454D01*
X76236580Y-31261057D01*
X76390887Y-31491994D01*
X76587283Y-31688390D01*
X76818220Y-31842697D01*
X77074823Y-31948986D01*
X77347232Y-32003172D01*
X77624978Y-32003172D01*
X77897387Y-31948986D01*
X78153990Y-31842697D01*
X78384927Y-31688390D01*
X78581323Y-31491994D01*
X78735630Y-31261057D01*
X78841919Y-31004454D01*
X78896105Y-30732045D01*
X78896105Y-30632826D01*
X85249920Y-30632826D01*
X85249920Y-30910572D01*
X85304106Y-31182981D01*
X85410395Y-31439584D01*
X85564702Y-31670521D01*
X85761098Y-31866917D01*
X85992035Y-32021224D01*
X86248638Y-32127513D01*
X86521047Y-32181699D01*
X86798793Y-32181699D01*
X87071202Y-32127513D01*
X87327805Y-32021224D01*
X87558742Y-31866917D01*
X87755138Y-31670521D01*
X87909445Y-31439584D01*
X88015734Y-31182981D01*
X88069920Y-30910572D01*
X88069920Y-30632826D01*
X88015734Y-30360417D01*
X87909445Y-30103814D01*
X87755138Y-29872877D01*
X87558742Y-29676481D01*
X87327805Y-29522174D01*
X87071202Y-29415885D01*
X86798793Y-29361699D01*
X86521047Y-29361699D01*
X86248638Y-29415885D01*
X85992035Y-29522174D01*
X85761098Y-29676481D01*
X85564702Y-29872877D01*
X85410395Y-30103814D01*
X85304106Y-30360417D01*
X85249920Y-30632826D01*
X78896105Y-30632826D01*
X78896105Y-30454299D01*
X78841919Y-30181890D01*
X78735630Y-29925287D01*
X78581323Y-29694350D01*
X78384927Y-29497954D01*
X78153990Y-29343647D01*
X77897387Y-29237358D01*
X77624978Y-29183172D01*
X77347232Y-29183172D01*
X77074823Y-29237358D01*
X76818220Y-29343647D01*
X76587283Y-29497954D01*
X76390887Y-29694350D01*
X76236580Y-29925287D01*
X76130291Y-30181890D01*
X76076105Y-30454299D01*
X71462061Y-30454299D01*
X71436567Y-30326135D01*
X71330278Y-30069532D01*
X71175971Y-29838595D01*
X70979575Y-29642199D01*
X70748638Y-29487892D01*
X70492035Y-29381603D01*
X70219626Y-29327417D01*
X69941880Y-29327417D01*
X69669471Y-29381603D01*
X69412868Y-29487892D01*
X69181931Y-29642199D01*
X68985535Y-29838595D01*
X68831228Y-30069532D01*
X68724939Y-30326135D01*
X68670753Y-30598544D01*
X68670753Y-30876290D01*
X68724939Y-31148699D01*
X68831228Y-31405302D01*
X68985535Y-31636239D01*
X69087838Y-31738542D01*
X69063339Y-31746745D01*
X67641769Y-32212432D01*
X67611516Y-32218354D01*
X67563506Y-32238069D01*
X67553498Y-32241348D01*
X67525442Y-32253700D01*
X67497050Y-32265360D01*
X67487735Y-32270303D01*
X67440247Y-32291211D01*
X67415005Y-32308894D01*
X65200411Y-33483985D01*
X62954688Y-33956769D01*
X62924914Y-33959215D01*
X62874091Y-33973737D01*
X62862856Y-33976102D01*
X62834528Y-33985041D01*
X62766157Y-34004577D01*
X62755872Y-34009862D01*
X62744850Y-34013340D01*
X62682542Y-34047542D01*
X62619300Y-34080039D01*
X62610245Y-34087228D01*
X62600112Y-34092790D01*
X62545670Y-34138495D01*
X62489987Y-34182702D01*
X62482508Y-34191520D01*
X62473655Y-34198952D01*
X62429177Y-34254398D01*
X62383188Y-34308619D01*
X62377573Y-34318726D01*
X62370339Y-34327744D01*
X62337528Y-34390809D01*
X62323095Y-34416790D01*
X62318527Y-34427331D01*
X62294134Y-34474217D01*
X62285782Y-34502897D01*
X61710942Y-35829451D01*
X61709208Y-35831997D01*
X61678174Y-35905070D01*
X61662976Y-35940142D01*
X61662037Y-35943066D01*
X61644665Y-35983970D01*
X61636856Y-36021479D01*
X61625141Y-36057958D01*
X61620069Y-36102109D01*
X61619443Y-36105114D01*
X61615361Y-36143087D01*
X61606296Y-36221989D01*
X61606548Y-36225061D01*
X61436333Y-37808416D01*
X61400663Y-37844086D01*
X61287395Y-38013604D01*
X61209374Y-38201962D01*
X61169600Y-38401921D01*
X58030106Y-38401921D01*
X58072285Y-38338796D01*
X58150306Y-38150438D01*
X58190080Y-37950479D01*
X58190080Y-37746601D01*
X58150306Y-37546642D01*
X58072285Y-37358284D01*
X57959017Y-37188766D01*
X57814854Y-37044603D01*
X57645336Y-36931335D01*
X57456978Y-36853314D01*
X57257019Y-36813540D01*
X57053141Y-36813540D01*
X56853182Y-36853314D01*
X56715575Y-36910313D01*
X56771086Y-36776298D01*
X56810860Y-36576339D01*
X56810860Y-36372461D01*
X56771086Y-36172502D01*
X56693065Y-35984144D01*
X56579797Y-35814626D01*
X56435634Y-35670463D01*
X56266116Y-35557195D01*
X56077758Y-35479174D01*
X55877799Y-35439400D01*
X55833675Y-35439400D01*
X51781017Y-32129620D01*
X50802562Y-30288094D01*
X50786787Y-30249762D01*
X50738902Y-30177740D01*
X50695474Y-30112395D01*
X50666240Y-30083016D01*
X50364340Y-29713430D01*
X50364340Y-29669401D01*
X50324566Y-29469442D01*
X50246545Y-29281084D01*
X50133277Y-29111566D01*
X49989114Y-28967403D01*
X49819596Y-28854135D01*
X49631238Y-28776114D01*
X49431279Y-28736340D01*
X49398036Y-28736340D01*
X49246585Y-28609757D01*
X64337468Y-28609757D01*
X64579433Y-29034996D01*
X64652291Y-29136670D01*
X64743586Y-29222177D01*
X64849808Y-29288229D01*
X64966874Y-29332290D01*
X65090287Y-29352665D01*
X65215304Y-29348573D01*
X65337121Y-29320170D01*
X65451055Y-29268546D01*
X65873222Y-29021261D01*
X65931329Y-28804404D01*
X65369204Y-27830775D01*
X64395575Y-28392900D01*
X64337468Y-28609757D01*
X49246585Y-28609757D01*
X48192402Y-27728674D01*
X47460729Y-26931281D01*
X49112220Y-26931281D01*
X49112220Y-27135159D01*
X49151994Y-27335118D01*
X49230015Y-27523476D01*
X49343283Y-27692994D01*
X49487446Y-27837157D01*
X49656964Y-27950425D01*
X49845322Y-28028446D01*
X50045281Y-28068220D01*
X50249159Y-28068220D01*
X50449118Y-28028446D01*
X50637476Y-27950425D01*
X50806994Y-27837157D01*
X50951157Y-27692994D01*
X51064425Y-27523476D01*
X51093643Y-27452938D01*
X51302117Y-27331888D01*
X63720314Y-27331888D01*
X63724406Y-27456905D01*
X63752809Y-27578722D01*
X63804433Y-27692656D01*
X64051718Y-28114823D01*
X64268575Y-28172930D01*
X65081175Y-27703775D01*
X65589174Y-27703775D01*
X66151299Y-28677404D01*
X66368156Y-28735511D01*
X66793395Y-28493546D01*
X66895069Y-28420688D01*
X66980576Y-28329393D01*
X67046628Y-28223171D01*
X67090689Y-28106105D01*
X67111064Y-27982692D01*
X67106972Y-27857675D01*
X67078569Y-27735858D01*
X67026945Y-27621924D01*
X66779660Y-27199757D01*
X66562803Y-27141650D01*
X65589174Y-27703775D01*
X65081175Y-27703775D01*
X65242204Y-27610805D01*
X64680079Y-26637176D01*
X64463222Y-26579069D01*
X64037983Y-26821034D01*
X63936309Y-26893892D01*
X63850802Y-26985187D01*
X63784750Y-27091409D01*
X63740689Y-27208475D01*
X63720314Y-27331888D01*
X51302117Y-27331888D01*
X52205978Y-26807066D01*
X52226355Y-26796386D01*
X52241538Y-26786419D01*
X52257252Y-26777294D01*
X52275931Y-26763839D01*
X52662312Y-26510176D01*
X64900049Y-26510176D01*
X65462174Y-27483805D01*
X66435803Y-26921680D01*
X66493910Y-26704823D01*
X66251945Y-26279584D01*
X66179087Y-26177910D01*
X66087792Y-26092403D01*
X65981570Y-26026351D01*
X65864504Y-25982290D01*
X65741091Y-25961915D01*
X65616074Y-25966007D01*
X65494257Y-25994410D01*
X65380323Y-26046034D01*
X64958156Y-26293319D01*
X64900049Y-26510176D01*
X52662312Y-26510176D01*
X54040323Y-25605499D01*
X55335028Y-25017720D01*
X55946554Y-25225700D01*
X55987923Y-25287614D01*
X56132086Y-25431777D01*
X56301604Y-25545045D01*
X56489962Y-25623066D01*
X56689921Y-25662840D01*
X56893799Y-25662840D01*
X57093758Y-25623066D01*
X57282116Y-25545045D01*
X57451634Y-25431777D01*
X57595797Y-25287614D01*
X57709065Y-25118096D01*
X57750353Y-25018417D01*
X68335816Y-25018417D01*
X68335816Y-25296163D01*
X68390002Y-25568572D01*
X68496291Y-25825175D01*
X68650598Y-26056112D01*
X68846994Y-26252508D01*
X69077931Y-26406815D01*
X69334534Y-26513104D01*
X69606943Y-26567290D01*
X69884689Y-26567290D01*
X70157098Y-26513104D01*
X70413701Y-26406815D01*
X70644638Y-26252508D01*
X70841034Y-26056112D01*
X70995341Y-25825175D01*
X71101630Y-25568572D01*
X71155816Y-25296163D01*
X71155816Y-25018417D01*
X71101630Y-24746008D01*
X70995341Y-24489405D01*
X70841034Y-24258468D01*
X70644638Y-24062072D01*
X70413701Y-23907765D01*
X70157098Y-23801476D01*
X69884689Y-23747290D01*
X69606943Y-23747290D01*
X69334534Y-23801476D01*
X69077931Y-23907765D01*
X68846994Y-24062072D01*
X68650598Y-24258468D01*
X68496291Y-24489405D01*
X68390002Y-24746008D01*
X68335816Y-25018417D01*
X57750353Y-25018417D01*
X57787086Y-24929738D01*
X57826860Y-24729779D01*
X57826860Y-24525901D01*
X57787086Y-24325942D01*
X57709065Y-24137584D01*
X57595797Y-23968066D01*
X57451634Y-23823903D01*
X57282116Y-23710635D01*
X57093758Y-23632614D01*
X56893799Y-23592840D01*
X56689921Y-23592840D01*
X56489962Y-23632614D01*
X56480416Y-23636568D01*
X55612097Y-23341251D01*
X55586820Y-23328809D01*
X55534110Y-23314727D01*
X55521633Y-23310484D01*
X55494358Y-23304108D01*
X55427304Y-23286194D01*
X55414062Y-23285336D01*
X55401140Y-23282315D01*
X55331785Y-23280004D01*
X55262538Y-23275517D01*
X55249383Y-23277259D01*
X55236122Y-23276817D01*
X55167657Y-23288080D01*
X55098856Y-23297190D01*
X55086291Y-23301466D01*
X55073201Y-23303619D01*
X55008256Y-23328019D01*
X54981711Y-23337052D01*
X54969698Y-23342506D01*
X54918639Y-23361689D01*
X54894712Y-23376549D01*
X53341556Y-24081662D01*
X53318645Y-24088410D01*
X53266545Y-24115716D01*
X53250656Y-24122930D01*
X53230102Y-24134817D01*
X53209044Y-24145854D01*
X53194441Y-24155441D01*
X53143538Y-24184880D01*
X53125595Y-24200639D01*
X51359980Y-25359783D01*
X50257569Y-25999893D01*
X50249159Y-25998220D01*
X50045281Y-25998220D01*
X49845322Y-26037994D01*
X49656964Y-26116015D01*
X49487446Y-26229283D01*
X49343283Y-26373446D01*
X49230015Y-26542964D01*
X49151994Y-26731322D01*
X49112220Y-26931281D01*
X47460729Y-26931281D01*
X46523893Y-25910299D01*
X46486626Y-25722942D01*
X46408605Y-25534584D01*
X46295337Y-25365066D01*
X46151174Y-25220903D01*
X45981656Y-25107635D01*
X45793298Y-25029614D01*
X45593339Y-24989840D01*
X45389461Y-24989840D01*
X45189502Y-25029614D01*
X45001144Y-25107635D01*
X44831626Y-25220903D01*
X44687463Y-25365066D01*
X44641176Y-25434340D01*
X44457281Y-25434340D01*
X44257322Y-25474114D01*
X44068964Y-25552135D01*
X43899446Y-25665403D01*
X43755283Y-25809566D01*
X43642015Y-25979084D01*
X43563994Y-26167442D01*
X43524220Y-26367401D01*
X43524220Y-26571279D01*
X43563994Y-26771238D01*
X43642015Y-26959596D01*
X43689674Y-27030922D01*
X43373019Y-32930820D01*
X40363172Y-36099455D01*
X40308948Y-36155267D01*
X40283882Y-36193978D01*
X40255560Y-36230356D01*
X40239127Y-36263097D01*
X40219207Y-36293861D01*
X40202172Y-36336725D01*
X40181495Y-36377922D01*
X40160881Y-36452746D01*
X40049761Y-36839035D01*
X39998097Y-36714308D01*
X39843790Y-36483371D01*
X39647394Y-36286975D01*
X39416457Y-36132668D01*
X39159854Y-36026379D01*
X38887445Y-35972193D01*
X38609699Y-35972193D01*
X38337290Y-36026379D01*
X38080687Y-36132668D01*
X37849750Y-36286975D01*
X37653354Y-36483371D01*
X37499047Y-36714308D01*
X37392758Y-36970911D01*
X37338572Y-37243320D01*
X33846815Y-37243320D01*
X33839531Y-37223451D01*
X33799917Y-37158508D01*
X33799917Y-36957744D01*
X33760143Y-36757785D01*
X33682122Y-36569427D01*
X33568854Y-36399909D01*
X33424691Y-36255746D01*
X33255173Y-36142478D01*
X33173617Y-36108696D01*
X33138812Y-36050353D01*
X33300073Y-32959509D01*
X34095302Y-31224890D01*
X34125287Y-31165598D01*
X34140718Y-31110242D01*
X34159437Y-31055889D01*
X34162844Y-31030866D01*
X34169622Y-31006551D01*
X34173957Y-30949249D01*
X34181713Y-30892288D01*
X34177660Y-30825951D01*
X34155632Y-29854257D01*
X34156048Y-29838620D01*
X34194115Y-29885005D01*
X34290806Y-29964357D01*
X34401120Y-30023322D01*
X34520818Y-30059632D01*
X34645300Y-30071892D01*
X36195300Y-30071892D01*
X36319782Y-30059632D01*
X36439480Y-30023322D01*
X36549794Y-29964357D01*
X36646485Y-29885005D01*
X36725837Y-29788314D01*
X36784802Y-29678000D01*
X36821112Y-29558302D01*
X36833372Y-29433820D01*
X36833372Y-27883820D01*
X36821112Y-27759338D01*
X36784802Y-27639640D01*
X36725837Y-27529326D01*
X36646485Y-27432635D01*
X36549794Y-27353283D01*
X36439480Y-27294318D01*
X36319782Y-27258008D01*
X36195300Y-27245748D01*
X34645300Y-27245748D01*
X34520818Y-27258008D01*
X34401120Y-27294318D01*
X34290806Y-27353283D01*
X34194115Y-27432635D01*
X34114763Y-27529326D01*
X34055798Y-27639640D01*
X34019488Y-27759338D01*
X34014396Y-27811045D01*
X34009974Y-27806623D01*
X33840456Y-27693355D01*
X33652098Y-27615334D01*
X33452139Y-27575560D01*
X33248261Y-27575560D01*
X33048302Y-27615334D01*
X32859944Y-27693355D01*
X32690426Y-27806623D01*
X32546263Y-27950786D01*
X32432995Y-28120304D01*
X32354974Y-28308662D01*
X32315200Y-28508621D01*
X32315200Y-28712499D01*
X32354974Y-28912458D01*
X32432995Y-29100816D01*
X32496158Y-29195346D01*
X32479820Y-29809873D01*
X32478263Y-29830458D01*
X32478728Y-29850965D01*
X32478182Y-29871499D01*
X32479661Y-29892119D01*
X32497683Y-30687090D01*
X31729194Y-32363384D01*
X31711069Y-32393417D01*
X31694878Y-32438237D01*
X31692257Y-32443955D01*
X31680885Y-32476974D01*
X31654973Y-32548706D01*
X31654025Y-32554964D01*
X31651963Y-32560952D01*
X31641671Y-32636538D01*
X31636444Y-32671053D01*
X31636116Y-32677335D01*
X31629687Y-32724553D01*
X31631826Y-32759564D01*
X31453543Y-36176659D01*
X31447328Y-36217966D01*
X31451183Y-36299908D01*
X31454970Y-36382091D01*
X31455068Y-36382487D01*
X31455087Y-36382894D01*
X31474914Y-36462751D01*
X31494602Y-36542375D01*
X31494775Y-36542743D01*
X31494873Y-36543139D01*
X31529855Y-36617501D01*
X31564742Y-36691848D01*
X31589525Y-36725477D01*
X31729917Y-36960814D01*
X31729917Y-37161622D01*
X31769691Y-37361581D01*
X31847712Y-37549939D01*
X31960980Y-37719457D01*
X32105143Y-37863620D01*
X32263010Y-37969103D01*
X32276034Y-38197964D01*
X32034072Y-38068632D01*
X31763573Y-37986578D01*
X31552756Y-37965814D01*
X31411772Y-37965814D01*
X31200955Y-37986578D01*
X30930456Y-38068632D01*
X30681163Y-38201882D01*
X30584425Y-38281273D01*
X29114057Y-37872569D01*
X29076082Y-37857806D01*
X29034732Y-37850520D01*
X29034129Y-37850352D01*
X28994065Y-37843354D01*
X28954218Y-37836332D01*
X28953597Y-37836285D01*
X28912233Y-37829059D01*
X28871497Y-37830013D01*
X28627043Y-37811338D01*
X28813469Y-37532334D01*
X28955540Y-37189344D01*
X29027967Y-36825228D01*
X29027967Y-36453978D01*
X28955540Y-36089862D01*
X28813469Y-35746872D01*
X28607213Y-35438190D01*
X28344700Y-35175677D01*
X28036018Y-34969421D01*
X27693028Y-34827350D01*
X27328912Y-34754923D01*
X26957662Y-34754923D01*
X26593546Y-34827350D01*
X26250556Y-34969421D01*
X25941874Y-35175677D01*
X25679361Y-35438190D01*
X25473105Y-35746872D01*
X25331034Y-36089862D01*
X25258607Y-36453978D01*
X25258607Y-36825228D01*
X25331034Y-37189344D01*
X25473105Y-37532334D01*
X25502895Y-37576918D01*
X25475944Y-37577154D01*
X25470442Y-37577745D01*
X25423546Y-37578773D01*
X25388564Y-37586532D01*
X23674544Y-37770498D01*
X23609499Y-37774766D01*
X23552747Y-37789977D01*
X23495227Y-37801942D01*
X23473168Y-37811306D01*
X23450017Y-37817511D01*
X23397318Y-37843504D01*
X23343243Y-37866459D01*
X23323435Y-37879946D01*
X23301939Y-37890549D01*
X23255321Y-37926325D01*
X23206766Y-37959387D01*
X23161091Y-38005868D01*
X22038203Y-39057724D01*
X22005725Y-39082593D01*
X21978112Y-39114014D01*
X21977775Y-39114330D01*
X21950961Y-39144909D01*
X21896733Y-39206617D01*
X21896500Y-39207020D01*
X21896193Y-39207370D01*
X21855045Y-39278652D01*
X21814031Y-39349523D01*
X21813882Y-39349961D01*
X21813648Y-39350366D01*
X21787303Y-39427996D01*
X21760797Y-39505817D01*
X21760735Y-39506282D01*
X21760587Y-39506719D01*
X21749947Y-39587584D01*
X21744520Y-39628483D01*
X21744504Y-39628950D01*
X21739048Y-39670418D01*
X21741726Y-39711232D01*
X21496836Y-46964553D01*
X21396695Y-47114424D01*
X21318674Y-47302782D01*
X21278900Y-47502741D01*
X12598000Y-47502741D01*
X12598000Y-28236975D01*
X22301200Y-28236975D01*
X22301200Y-28608225D01*
X22373627Y-28972341D01*
X22515698Y-29315331D01*
X22721954Y-29624013D01*
X22984467Y-29886526D01*
X23293149Y-30092782D01*
X23636139Y-30234853D01*
X23686063Y-30244784D01*
X23658999Y-30250167D01*
X23316009Y-30392238D01*
X23007327Y-30598494D01*
X22744814Y-30861007D01*
X22538558Y-31169689D01*
X22396487Y-31512679D01*
X22324060Y-31876795D01*
X22324060Y-32248045D01*
X22396487Y-32612161D01*
X22538558Y-32955151D01*
X22744814Y-33263833D01*
X23007327Y-33526346D01*
X23316009Y-33732602D01*
X23658999Y-33874673D01*
X24023115Y-33947100D01*
X24394365Y-33947100D01*
X24758481Y-33874673D01*
X25101471Y-33732602D01*
X25410153Y-33526346D01*
X25672666Y-33263833D01*
X25878922Y-32955151D01*
X26020993Y-32612161D01*
X26093420Y-32248045D01*
X26093420Y-31876795D01*
X26020993Y-31512679D01*
X25878922Y-31169689D01*
X25672666Y-30861007D01*
X25410153Y-30598494D01*
X25101471Y-30392238D01*
X24758481Y-30250167D01*
X24708557Y-30240236D01*
X24735621Y-30234853D01*
X25078611Y-30092782D01*
X25387293Y-29886526D01*
X25649806Y-29624013D01*
X25856062Y-29315331D01*
X25998133Y-28972341D01*
X26070560Y-28608225D01*
X26070560Y-28236975D01*
X25998133Y-27872859D01*
X25856062Y-27529869D01*
X25649806Y-27221187D01*
X25387293Y-26958674D01*
X25078611Y-26752418D01*
X24735621Y-26610347D01*
X24371505Y-26537920D01*
X24000255Y-26537920D01*
X23636139Y-26610347D01*
X23293149Y-26752418D01*
X22984467Y-26958674D01*
X22721954Y-27221187D01*
X22515698Y-27529869D01*
X22373627Y-27872859D01*
X22301200Y-28236975D01*
X12598000Y-28236975D01*
X12598000Y-26019947D01*
X39010300Y-26019947D01*
X39010300Y-26297693D01*
X39064486Y-26570102D01*
X39170775Y-26826705D01*
X39325082Y-27057642D01*
X39521478Y-27254038D01*
X39752415Y-27408345D01*
X40009018Y-27514634D01*
X40281427Y-27568820D01*
X40559173Y-27568820D01*
X40831582Y-27514634D01*
X41088185Y-27408345D01*
X41319122Y-27254038D01*
X41515518Y-27057642D01*
X41669825Y-26826705D01*
X41776114Y-26570102D01*
X41830300Y-26297693D01*
X41830300Y-26019947D01*
X41776114Y-25747538D01*
X41669825Y-25490935D01*
X41515518Y-25259998D01*
X41319122Y-25063602D01*
X41088185Y-24909295D01*
X40831582Y-24803006D01*
X40559173Y-24748820D01*
X40281427Y-24748820D01*
X40009018Y-24803006D01*
X39752415Y-24909295D01*
X39521478Y-25063602D01*
X39325082Y-25259998D01*
X39170775Y-25490935D01*
X39064486Y-25747538D01*
X39010300Y-26019947D01*
X12598000Y-26019947D01*
X12598000Y-23519947D01*
X34010300Y-23519947D01*
X34010300Y-23797693D01*
X34064486Y-24070102D01*
X34170775Y-24326705D01*
X34325082Y-24557642D01*
X34521478Y-24754038D01*
X34752415Y-24908345D01*
X35009018Y-25014634D01*
X35281427Y-25068820D01*
X35559173Y-25068820D01*
X35831582Y-25014634D01*
X36088185Y-24908345D01*
X36319122Y-24754038D01*
X36515518Y-24557642D01*
X36669825Y-24326705D01*
X36776114Y-24070102D01*
X36830300Y-23797693D01*
X36830300Y-23519947D01*
X36776114Y-23247538D01*
X36669825Y-22990935D01*
X36515518Y-22759998D01*
X36319122Y-22563602D01*
X36088185Y-22409295D01*
X35831582Y-22303006D01*
X35559173Y-22248820D01*
X35281427Y-22248820D01*
X35009018Y-22303006D01*
X34752415Y-22409295D01*
X34521478Y-22563602D01*
X34325082Y-22759998D01*
X34170775Y-22990935D01*
X34064486Y-23247538D01*
X34010300Y-23519947D01*
X12598000Y-23519947D01*
X12598000Y-20416315D01*
X20988020Y-20416315D01*
X20988020Y-20787565D01*
X21060447Y-21151681D01*
X21202518Y-21494671D01*
X21408774Y-21803353D01*
X21671287Y-22065866D01*
X21979969Y-22272122D01*
X22322959Y-22414193D01*
X22687075Y-22486620D01*
X23058325Y-22486620D01*
X23422441Y-22414193D01*
X23765431Y-22272122D01*
X24074113Y-22065866D01*
X24336626Y-21803353D01*
X24542882Y-21494671D01*
X24684671Y-21152362D01*
X24687567Y-21166921D01*
X24829638Y-21509911D01*
X25035894Y-21818593D01*
X25298407Y-22081106D01*
X25607089Y-22287362D01*
X25950079Y-22429433D01*
X26314195Y-22501860D01*
X26685445Y-22501860D01*
X27049561Y-22429433D01*
X27392551Y-22287362D01*
X27701233Y-22081106D01*
X27963746Y-21818593D01*
X28170002Y-21509911D01*
X28312073Y-21166921D01*
X28314969Y-21152362D01*
X28456758Y-21494671D01*
X28663014Y-21803353D01*
X28925527Y-22065866D01*
X29234209Y-22272122D01*
X29577199Y-22414193D01*
X29941315Y-22486620D01*
X30312565Y-22486620D01*
X30676681Y-22414193D01*
X31019671Y-22272122D01*
X31328353Y-22065866D01*
X31590866Y-21803353D01*
X31797122Y-21494671D01*
X31939193Y-21151681D01*
X31940500Y-21145110D01*
X31941807Y-21151681D01*
X32083878Y-21494671D01*
X32290134Y-21803353D01*
X32552647Y-22065866D01*
X32861329Y-22272122D01*
X33204319Y-22414193D01*
X33568435Y-22486620D01*
X33939685Y-22486620D01*
X34303801Y-22414193D01*
X34646791Y-22272122D01*
X34955473Y-22065866D01*
X35217986Y-21803353D01*
X35424242Y-21494671D01*
X35566313Y-21151681D01*
X35638740Y-20787565D01*
X35638740Y-20416315D01*
X35588217Y-20162315D01*
X40703500Y-20162315D01*
X40703500Y-20533565D01*
X40775927Y-20897681D01*
X40917998Y-21240671D01*
X41124254Y-21549353D01*
X41386767Y-21811866D01*
X41695449Y-22018122D01*
X42038439Y-22160193D01*
X42402555Y-22232620D01*
X42773805Y-22232620D01*
X43137921Y-22160193D01*
X43480911Y-22018122D01*
X43789593Y-21811866D01*
X44052106Y-21549353D01*
X44258362Y-21240671D01*
X44394119Y-20912924D01*
X44529876Y-21240670D01*
X44736132Y-21549352D01*
X44998645Y-21811865D01*
X45307327Y-22018121D01*
X45650317Y-22160192D01*
X46014433Y-22232619D01*
X46385683Y-22232619D01*
X46749799Y-22160192D01*
X47092789Y-22018121D01*
X47401471Y-21811865D01*
X47663984Y-21549352D01*
X47870240Y-21240670D01*
X48012311Y-20897680D01*
X48049691Y-20709758D01*
X48088587Y-20905302D01*
X48230658Y-21248292D01*
X48436914Y-21556974D01*
X48699427Y-21819487D01*
X49008109Y-22025743D01*
X49351099Y-22167814D01*
X49715215Y-22240241D01*
X50086465Y-22240241D01*
X50450581Y-22167814D01*
X50793571Y-22025743D01*
X51102253Y-21819487D01*
X51364766Y-21556974D01*
X51571022Y-21248292D01*
X51713093Y-20905302D01*
X51723598Y-20852490D01*
X51753807Y-21004361D01*
X51895878Y-21347351D01*
X52102134Y-21656033D01*
X52364647Y-21918546D01*
X52673329Y-22124802D01*
X53016319Y-22266873D01*
X53380435Y-22339300D01*
X53751685Y-22339300D01*
X54115801Y-22266873D01*
X54458791Y-22124802D01*
X54767473Y-21918546D01*
X55029986Y-21656033D01*
X55236242Y-21347351D01*
X55378313Y-21004361D01*
X55409076Y-20849706D01*
X55436807Y-20989121D01*
X55578878Y-21332111D01*
X55785134Y-21640793D01*
X56047647Y-21903306D01*
X56356329Y-22109562D01*
X56699319Y-22251633D01*
X57063435Y-22324060D01*
X57434685Y-22324060D01*
X57798801Y-22251633D01*
X58141791Y-22109562D01*
X58450473Y-21903306D01*
X58712986Y-21640793D01*
X58919242Y-21332111D01*
X59061313Y-20989121D01*
X59133740Y-20625005D01*
X59133740Y-20253755D01*
X59061313Y-19889639D01*
X58919242Y-19546649D01*
X58712986Y-19237967D01*
X58450473Y-18975454D01*
X58141791Y-18769198D01*
X57798801Y-18627127D01*
X57434685Y-18554700D01*
X57063435Y-18554700D01*
X56699319Y-18627127D01*
X56356329Y-18769198D01*
X56047647Y-18975454D01*
X55785134Y-19237967D01*
X55578878Y-19546649D01*
X55436807Y-19889639D01*
X55406044Y-20044294D01*
X55378313Y-19904879D01*
X55236242Y-19561889D01*
X55029986Y-19253207D01*
X54767473Y-18990694D01*
X54458791Y-18784438D01*
X54115801Y-18642367D01*
X53751685Y-18569940D01*
X53380435Y-18569940D01*
X53016319Y-18642367D01*
X52673329Y-18784438D01*
X52364647Y-18990694D01*
X52102134Y-19253207D01*
X51895878Y-19561889D01*
X51753807Y-19904879D01*
X51743302Y-19957691D01*
X51713093Y-19805820D01*
X51571022Y-19462830D01*
X51364766Y-19154148D01*
X51102253Y-18891635D01*
X50793571Y-18685379D01*
X50450581Y-18543308D01*
X50086465Y-18470881D01*
X49715215Y-18470881D01*
X49351099Y-18543308D01*
X49008109Y-18685379D01*
X48699427Y-18891635D01*
X48436914Y-19154148D01*
X48230658Y-19462830D01*
X48088587Y-19805820D01*
X48051207Y-19993742D01*
X48012311Y-19798198D01*
X47870240Y-19455208D01*
X47663984Y-19146526D01*
X47401471Y-18884013D01*
X47092789Y-18677757D01*
X46749799Y-18535686D01*
X46385683Y-18463259D01*
X46014433Y-18463259D01*
X45650317Y-18535686D01*
X45307327Y-18677757D01*
X44998645Y-18884013D01*
X44736132Y-19146526D01*
X44529876Y-19455208D01*
X44394119Y-19782955D01*
X44258362Y-19455209D01*
X44052106Y-19146527D01*
X43789593Y-18884014D01*
X43480911Y-18677758D01*
X43137921Y-18535687D01*
X42773805Y-18463260D01*
X42402555Y-18463260D01*
X42038439Y-18535687D01*
X41695449Y-18677758D01*
X41386767Y-18884014D01*
X41124254Y-19146527D01*
X40917998Y-19455209D01*
X40775927Y-19798199D01*
X40703500Y-20162315D01*
X35588217Y-20162315D01*
X35566313Y-20052199D01*
X35424242Y-19709209D01*
X35217986Y-19400527D01*
X34955473Y-19138014D01*
X34646791Y-18931758D01*
X34303801Y-18789687D01*
X33939685Y-18717260D01*
X33568435Y-18717260D01*
X33204319Y-18789687D01*
X32861329Y-18931758D01*
X32552647Y-19138014D01*
X32290134Y-19400527D01*
X32083878Y-19709209D01*
X31941807Y-20052199D01*
X31940500Y-20058770D01*
X31939193Y-20052199D01*
X31797122Y-19709209D01*
X31590866Y-19400527D01*
X31328353Y-19138014D01*
X31019671Y-18931758D01*
X30676681Y-18789687D01*
X30312565Y-18717260D01*
X29941315Y-18717260D01*
X29577199Y-18789687D01*
X29234209Y-18931758D01*
X28925527Y-19138014D01*
X28663014Y-19400527D01*
X28456758Y-19709209D01*
X28314687Y-20052199D01*
X28311791Y-20066758D01*
X28170002Y-19724449D01*
X27963746Y-19415767D01*
X27701233Y-19153254D01*
X27392551Y-18946998D01*
X27049561Y-18804927D01*
X26685445Y-18732500D01*
X26314195Y-18732500D01*
X25950079Y-18804927D01*
X25607089Y-18946998D01*
X25298407Y-19153254D01*
X25035894Y-19415767D01*
X24829638Y-19724449D01*
X24687849Y-20066758D01*
X24684953Y-20052199D01*
X24542882Y-19709209D01*
X24336626Y-19400527D01*
X24074113Y-19138014D01*
X23765431Y-18931758D01*
X23422441Y-18789687D01*
X23058325Y-18717260D01*
X22687075Y-18717260D01*
X22322959Y-18789687D01*
X21979969Y-18931758D01*
X21671287Y-19138014D01*
X21408774Y-19400527D01*
X21202518Y-19709209D01*
X21060447Y-20052199D01*
X20988020Y-20416315D01*
X12598000Y-20416315D01*
X12598000Y-15767098D01*
X13617000Y-15767098D01*
X13617000Y-16236902D01*
X13708654Y-16697679D01*
X13888440Y-17131721D01*
X14149450Y-17522349D01*
X14481651Y-17854550D01*
X14872279Y-18115560D01*
X15306321Y-18295346D01*
X15767098Y-18387000D01*
X16236902Y-18387000D01*
X16697679Y-18295346D01*
X17131721Y-18115560D01*
X17522349Y-17854550D01*
X17854550Y-17522349D01*
X18115560Y-17131721D01*
X18295346Y-16697679D01*
X18387000Y-16236902D01*
X18387000Y-15767098D01*
X89563000Y-15767098D01*
X89563000Y-16236902D01*
X89654654Y-16697679D01*
X89834440Y-17131721D01*
X90095450Y-17522349D01*
X90427651Y-17854550D01*
X90818279Y-18115560D01*
X91252321Y-18295346D01*
X91713098Y-18387000D01*
X92182902Y-18387000D01*
X92643679Y-18295346D01*
X93077721Y-18115560D01*
X93468349Y-17854550D01*
X93800550Y-17522349D01*
X94061560Y-17131721D01*
X94241346Y-16697679D01*
X94333000Y-16236902D01*
X94333000Y-15767098D01*
X94241346Y-15306321D01*
X94061560Y-14872279D01*
X93800550Y-14481651D01*
X93468349Y-14149450D01*
X93077721Y-13888440D01*
X92643679Y-13708654D01*
X92182902Y-13617000D01*
X91713098Y-13617000D01*
X91252321Y-13708654D01*
X90818279Y-13888440D01*
X90427651Y-14149450D01*
X90095450Y-14481651D01*
X89834440Y-14872279D01*
X89654654Y-15306321D01*
X89563000Y-15767098D01*
X18387000Y-15767098D01*
X18295346Y-15306321D01*
X18115560Y-14872279D01*
X17854550Y-14481651D01*
X17522349Y-14149450D01*
X17131721Y-13888440D01*
X16697679Y-13708654D01*
X16236902Y-13617000D01*
X15767098Y-13617000D01*
X15306321Y-13708654D01*
X14872279Y-13888440D01*
X14481651Y-14149450D01*
X14149450Y-14481651D01*
X13888440Y-14872279D01*
X13708654Y-15306321D01*
X13617000Y-15767098D01*
X12598000Y-15767098D01*
X12598000Y-12598000D01*
X95352001Y-12598000D01*
X95352000Y-76810000D01*
X95352000Y-76810000D01*
G37*
X95352000Y-76810000D02*
X34731955Y-76810000D01*
X34970713Y-76650466D01*
X35233226Y-76387953D01*
X35439482Y-76079271D01*
X35581553Y-75736281D01*
X35653980Y-75372165D01*
X35653980Y-75000915D01*
X35581553Y-74636799D01*
X35439482Y-74293809D01*
X35233226Y-73985127D01*
X34970713Y-73722614D01*
X34662031Y-73516358D01*
X34319041Y-73374287D01*
X33954925Y-73301860D01*
X33583675Y-73301860D01*
X33219559Y-73374287D01*
X32876569Y-73516358D01*
X32567887Y-73722614D01*
X32305374Y-73985127D01*
X32099118Y-74293809D01*
X31957047Y-74636799D01*
X31884620Y-75000915D01*
X31884620Y-75372165D01*
X31957047Y-75736281D01*
X32099118Y-76079271D01*
X32305374Y-76387953D01*
X32567887Y-76650466D01*
X32806645Y-76810000D01*
X12598000Y-76810000D01*
X12598000Y-73171098D01*
X13617000Y-73171098D01*
X13617000Y-73640902D01*
X13708654Y-74101679D01*
X13888440Y-74535721D01*
X14149450Y-74926349D01*
X14481651Y-75258550D01*
X14872279Y-75519560D01*
X15306321Y-75699346D01*
X15767098Y-75791000D01*
X16236902Y-75791000D01*
X16697679Y-75699346D01*
X17131721Y-75519560D01*
X17522349Y-75258550D01*
X17854550Y-74926349D01*
X18115560Y-74535721D01*
X18295346Y-74101679D01*
X18387000Y-73640902D01*
X18387000Y-73171098D01*
X18295346Y-72710321D01*
X18115560Y-72276279D01*
X17854550Y-71885651D01*
X17522349Y-71553450D01*
X17215771Y-71348600D01*
X24150689Y-71348600D01*
X24179624Y-71642377D01*
X24265315Y-71924864D01*
X24404471Y-72185206D01*
X24591743Y-72413397D01*
X24819934Y-72600669D01*
X25080276Y-72739825D01*
X25362763Y-72825516D01*
X25582921Y-72847200D01*
X25730159Y-72847200D01*
X25950317Y-72825516D01*
X26232804Y-72739825D01*
X26493146Y-72600669D01*
X26721337Y-72413397D01*
X26727954Y-72405335D01*
X26743438Y-72456380D01*
X26802403Y-72566694D01*
X26881755Y-72663385D01*
X26978446Y-72742737D01*
X27088760Y-72801702D01*
X27208458Y-72838012D01*
X27332940Y-72850272D01*
X29060140Y-72850272D01*
X29184622Y-72838012D01*
X29304320Y-72801702D01*
X29414634Y-72742737D01*
X29511325Y-72663385D01*
X29590677Y-72566694D01*
X29649642Y-72456380D01*
X29685952Y-72336682D01*
X29698212Y-72212200D01*
X29698212Y-70485000D01*
X29685952Y-70360518D01*
X29649642Y-70240820D01*
X29590677Y-70130506D01*
X29587685Y-70126860D01*
X31881548Y-70126860D01*
X31881548Y-72626220D01*
X31893808Y-72750702D01*
X31930118Y-72870400D01*
X31989083Y-72980714D01*
X32068435Y-73077405D01*
X32165126Y-73156757D01*
X32275440Y-73215722D01*
X32395138Y-73252032D01*
X32519620Y-73264292D01*
X35018980Y-73264292D01*
X35143462Y-73252032D01*
X35263160Y-73215722D01*
X35346644Y-73171098D01*
X89563000Y-73171098D01*
X89563000Y-73640902D01*
X89654654Y-74101679D01*
X89834440Y-74535721D01*
X90095450Y-74926349D01*
X90427651Y-75258550D01*
X90818279Y-75519560D01*
X91252321Y-75699346D01*
X91713098Y-75791000D01*
X92182902Y-75791000D01*
X92643679Y-75699346D01*
X93077721Y-75519560D01*
X93468349Y-75258550D01*
X93800550Y-74926349D01*
X94061560Y-74535721D01*
X94241346Y-74101679D01*
X94333000Y-73640902D01*
X94333000Y-73171098D01*
X94241346Y-72710321D01*
X94061560Y-72276279D01*
X93800550Y-71885651D01*
X93468349Y-71553450D01*
X93077721Y-71292440D01*
X92643679Y-71112654D01*
X92182902Y-71021000D01*
X91713098Y-71021000D01*
X91252321Y-71112654D01*
X90818279Y-71292440D01*
X90427651Y-71553450D01*
X90095450Y-71885651D01*
X89834440Y-72276279D01*
X89654654Y-72710321D01*
X89563000Y-73171098D01*
X35346644Y-73171098D01*
X35373474Y-73156757D01*
X35470165Y-73077405D01*
X35549517Y-72980714D01*
X35608482Y-72870400D01*
X35644792Y-72750702D01*
X35657052Y-72626220D01*
X35657052Y-70854205D01*
X42771160Y-70854205D01*
X42771160Y-71136875D01*
X42826307Y-71414114D01*
X42934480Y-71675267D01*
X43091523Y-71910299D01*
X43291401Y-72110177D01*
X43526433Y-72267220D01*
X43787586Y-72375393D01*
X44064825Y-72430540D01*
X44347495Y-72430540D01*
X44624734Y-72375393D01*
X44885887Y-72267220D01*
X45120919Y-72110177D01*
X45320797Y-71910299D01*
X45477840Y-71675267D01*
X45586013Y-71414114D01*
X45641160Y-71136875D01*
X45641160Y-70854205D01*
X45586013Y-70576966D01*
X45514864Y-70405197D01*
X46114806Y-69366066D01*
X49741011Y-69366066D01*
X49741011Y-69737316D01*
X49813438Y-70101432D01*
X49955509Y-70444422D01*
X50161765Y-70753104D01*
X50424278Y-71015617D01*
X50732960Y-71221873D01*
X51075950Y-71363944D01*
X51440066Y-71436371D01*
X51811316Y-71436371D01*
X52175432Y-71363944D01*
X52518422Y-71221873D01*
X52827104Y-71015617D01*
X53089617Y-70753104D01*
X53295873Y-70444422D01*
X53437944Y-70101432D01*
X53510371Y-69737316D01*
X53510371Y-69366066D01*
X53437944Y-69001950D01*
X53295873Y-68658960D01*
X53089617Y-68350278D01*
X52827104Y-68087765D01*
X52518422Y-67881509D01*
X52175432Y-67739438D01*
X51811316Y-67667011D01*
X51440066Y-67667011D01*
X51075950Y-67739438D01*
X50732960Y-67881509D01*
X50424278Y-68087765D01*
X50161765Y-68350278D01*
X49955509Y-68658960D01*
X49813438Y-69001950D01*
X49741011Y-69366066D01*
X46114806Y-69366066D01*
X48159686Y-65824233D01*
X48297469Y-65810662D01*
X48567968Y-65728608D01*
X48591133Y-65716226D01*
X60526435Y-65716226D01*
X60526435Y-66087476D01*
X60598862Y-66451592D01*
X60740933Y-66794582D01*
X60947189Y-67103264D01*
X61209702Y-67365777D01*
X61518384Y-67572033D01*
X61861374Y-67714104D01*
X62225490Y-67786531D01*
X62596740Y-67786531D01*
X62960856Y-67714104D01*
X63303846Y-67572033D01*
X63612528Y-67365777D01*
X63875041Y-67103264D01*
X64081297Y-66794582D01*
X64223368Y-66451592D01*
X64295795Y-66087476D01*
X64295795Y-65716226D01*
X64223368Y-65352110D01*
X64081297Y-65009120D01*
X63875041Y-64700438D01*
X63612528Y-64437925D01*
X63303846Y-64231669D01*
X62960856Y-64089598D01*
X62596740Y-64017171D01*
X62225490Y-64017171D01*
X61861374Y-64089598D01*
X61518384Y-64231669D01*
X61209702Y-64437925D01*
X60947189Y-64700438D01*
X60740933Y-65009120D01*
X60598862Y-65352110D01*
X60526435Y-65716226D01*
X48591133Y-65716226D01*
X48817261Y-65595358D01*
X49035768Y-65416034D01*
X49215092Y-65197527D01*
X49348342Y-64948234D01*
X49430396Y-64677735D01*
X49458103Y-64396426D01*
X49430396Y-64115117D01*
X49348342Y-63844618D01*
X49215092Y-63595325D01*
X49035768Y-63376818D01*
X48817261Y-63197494D01*
X48567968Y-63064244D01*
X48297469Y-62982190D01*
X48086652Y-62961426D01*
X47945668Y-62961426D01*
X47734851Y-62982190D01*
X47464352Y-63064244D01*
X47215059Y-63197494D01*
X46996552Y-63376818D01*
X46817228Y-63595325D01*
X46683978Y-63844618D01*
X46601924Y-64115117D01*
X46574217Y-64396426D01*
X46601924Y-64677735D01*
X46683978Y-64948234D01*
X46705960Y-64989360D01*
X44066788Y-69560540D01*
X44064825Y-69560540D01*
X43787586Y-69615687D01*
X43526433Y-69723860D01*
X43291401Y-69880903D01*
X43091523Y-70080781D01*
X42934480Y-70315813D01*
X42826307Y-70576966D01*
X42771160Y-70854205D01*
X35657052Y-70854205D01*
X35657052Y-70126860D01*
X35644792Y-70002378D01*
X35608482Y-69882680D01*
X35549517Y-69772366D01*
X35470165Y-69675675D01*
X35373474Y-69596323D01*
X35263160Y-69537358D01*
X35143462Y-69501048D01*
X35018980Y-69488788D01*
X34259771Y-69488788D01*
X34511971Y-69404549D01*
X34746716Y-69279075D01*
X34872591Y-68989137D01*
X33738820Y-67855365D01*
X32605049Y-68989137D01*
X32730924Y-69279075D01*
X33063082Y-69444899D01*
X33223736Y-69488788D01*
X32519620Y-69488788D01*
X32395138Y-69501048D01*
X32275440Y-69537358D01*
X32165126Y-69596323D01*
X32068435Y-69675675D01*
X31989083Y-69772366D01*
X31930118Y-69882680D01*
X31893808Y-70002378D01*
X31881548Y-70126860D01*
X29587685Y-70126860D01*
X29511325Y-70033815D01*
X29414634Y-69954463D01*
X29304320Y-69895498D01*
X29239966Y-69875976D01*
X29303394Y-69818893D01*
X29479224Y-69583544D01*
X29605762Y-69318414D01*
X29651498Y-69167626D01*
X29530357Y-68935600D01*
X28323540Y-68935600D01*
X28323540Y-68955600D01*
X28069540Y-68955600D01*
X28069540Y-68935600D01*
X25783540Y-68935600D01*
X25783540Y-68955600D01*
X25529540Y-68955600D01*
X25529540Y-68935600D01*
X24322723Y-68935600D01*
X24201582Y-69167626D01*
X24247318Y-69318414D01*
X24373856Y-69583544D01*
X24549686Y-69818893D01*
X24768052Y-70015417D01*
X24864450Y-70072737D01*
X24819934Y-70096531D01*
X24591743Y-70283803D01*
X24404471Y-70511994D01*
X24265315Y-70772336D01*
X24179624Y-71054823D01*
X24150689Y-71348600D01*
X17215771Y-71348600D01*
X17131721Y-71292440D01*
X16697679Y-71112654D01*
X16236902Y-71021000D01*
X15767098Y-71021000D01*
X15306321Y-71112654D01*
X14872279Y-71292440D01*
X14481651Y-71553450D01*
X14149450Y-71885651D01*
X13888440Y-72276279D01*
X13708654Y-72710321D01*
X13617000Y-73171098D01*
X12598000Y-73171098D01*
X12598000Y-66627626D01*
X24201582Y-66627626D01*
X24247318Y-66778414D01*
X24373856Y-67043544D01*
X24549686Y-67278893D01*
X24768052Y-67475417D01*
X24874310Y-67538600D01*
X24768052Y-67601783D01*
X24549686Y-67798307D01*
X24373856Y-68033656D01*
X24247318Y-68298786D01*
X24201582Y-68449574D01*
X24322723Y-68681600D01*
X25529540Y-68681600D01*
X25529540Y-66395600D01*
X25783540Y-66395600D01*
X25783540Y-68681600D01*
X28069540Y-68681600D01*
X28069540Y-66395600D01*
X28323540Y-66395600D01*
X28323540Y-68681600D01*
X29530357Y-68681600D01*
X29651498Y-68449574D01*
X29605762Y-68298786D01*
X29479224Y-68033656D01*
X29303394Y-67798307D01*
X29225806Y-67728479D01*
X31845755Y-67728479D01*
X31892415Y-68096785D01*
X32010031Y-68448911D01*
X32135505Y-68683656D01*
X32425443Y-68809531D01*
X33559215Y-67675760D01*
X33918425Y-67675760D01*
X35052197Y-68809531D01*
X35342135Y-68683656D01*
X35507959Y-68351498D01*
X35605795Y-67993373D01*
X35631885Y-67623041D01*
X35585225Y-67254735D01*
X35467609Y-66902609D01*
X35342135Y-66667864D01*
X35052197Y-66541989D01*
X33918425Y-67675760D01*
X33559215Y-67675760D01*
X32425443Y-66541989D01*
X32135505Y-66667864D01*
X31969681Y-67000022D01*
X31871845Y-67358147D01*
X31845755Y-67728479D01*
X29225806Y-67728479D01*
X29085028Y-67601783D01*
X28978770Y-67538600D01*
X29085028Y-67475417D01*
X29303394Y-67278893D01*
X29479224Y-67043544D01*
X29605762Y-66778414D01*
X29651498Y-66627626D01*
X29530357Y-66395600D01*
X28323540Y-66395600D01*
X28069540Y-66395600D01*
X25783540Y-66395600D01*
X25529540Y-66395600D01*
X24322723Y-66395600D01*
X24201582Y-66627626D01*
X12598000Y-66627626D01*
X12598000Y-66362383D01*
X32605049Y-66362383D01*
X33738820Y-67496155D01*
X34872591Y-66362383D01*
X34746716Y-66072445D01*
X34414558Y-65906621D01*
X34056433Y-65808785D01*
X33686101Y-65782695D01*
X33317795Y-65829355D01*
X32965669Y-65946971D01*
X32730924Y-66072445D01*
X32605049Y-66362383D01*
X12598000Y-66362383D01*
X12598000Y-64087626D01*
X24201582Y-64087626D01*
X24247318Y-64238414D01*
X24373856Y-64503544D01*
X24549686Y-64738893D01*
X24768052Y-64935417D01*
X24874310Y-64998600D01*
X24768052Y-65061783D01*
X24549686Y-65258307D01*
X24373856Y-65493656D01*
X24247318Y-65758786D01*
X24201582Y-65909574D01*
X24322723Y-66141600D01*
X25529540Y-66141600D01*
X25529540Y-63855600D01*
X25783540Y-63855600D01*
X25783540Y-66141600D01*
X28069540Y-66141600D01*
X28069540Y-63855600D01*
X28323540Y-63855600D01*
X28323540Y-66141600D01*
X29530357Y-66141600D01*
X29651498Y-65909574D01*
X29605762Y-65758786D01*
X29479224Y-65493656D01*
X29303394Y-65258307D01*
X29144649Y-65115440D01*
X31851068Y-65115440D01*
X31863328Y-65239922D01*
X31899638Y-65359620D01*
X31958603Y-65469934D01*
X32037955Y-65566625D01*
X32134646Y-65645977D01*
X32244960Y-65704942D01*
X32364658Y-65741252D01*
X32489140Y-65753512D01*
X33453070Y-65750440D01*
X33611820Y-65591690D01*
X33611820Y-63992760D01*
X33865820Y-63992760D01*
X33865820Y-65591690D01*
X34024570Y-65750440D01*
X34988500Y-65753512D01*
X35112982Y-65741252D01*
X35232680Y-65704942D01*
X35342994Y-65645977D01*
X35439685Y-65566625D01*
X35519037Y-65469934D01*
X35578002Y-65359620D01*
X35614312Y-65239922D01*
X35626572Y-65115440D01*
X35623500Y-64151510D01*
X35464750Y-63992760D01*
X33865820Y-63992760D01*
X33611820Y-63992760D01*
X32012890Y-63992760D01*
X31854140Y-64151510D01*
X31851068Y-65115440D01*
X29144649Y-65115440D01*
X29085028Y-65061783D01*
X28978770Y-64998600D01*
X29085028Y-64935417D01*
X29303394Y-64738893D01*
X29479224Y-64503544D01*
X29605762Y-64238414D01*
X29651498Y-64087626D01*
X29530357Y-63855600D01*
X28323540Y-63855600D01*
X28069540Y-63855600D01*
X25783540Y-63855600D01*
X25529540Y-63855600D01*
X24322723Y-63855600D01*
X24201582Y-64087626D01*
X12598000Y-64087626D01*
X12598000Y-61188600D01*
X24150689Y-61188600D01*
X24179624Y-61482377D01*
X24265315Y-61764864D01*
X24404471Y-62025206D01*
X24591743Y-62253397D01*
X24819934Y-62440669D01*
X24864450Y-62464463D01*
X24768052Y-62521783D01*
X24549686Y-62718307D01*
X24373856Y-62953656D01*
X24247318Y-63218786D01*
X24201582Y-63369574D01*
X24322723Y-63601600D01*
X25529540Y-63601600D01*
X25529540Y-63581600D01*
X25783540Y-63581600D01*
X25783540Y-63601600D01*
X28069540Y-63601600D01*
X28069540Y-63581600D01*
X28323540Y-63581600D01*
X28323540Y-63601600D01*
X29530357Y-63601600D01*
X29651498Y-63369574D01*
X29605762Y-63218786D01*
X29479224Y-62953656D01*
X29303394Y-62718307D01*
X29189806Y-62616080D01*
X31851068Y-62616080D01*
X31854140Y-63580010D01*
X32012890Y-63738760D01*
X33611820Y-63738760D01*
X33611820Y-62139830D01*
X33865820Y-62139830D01*
X33865820Y-63738760D01*
X35464750Y-63738760D01*
X35623500Y-63580010D01*
X35626572Y-62616080D01*
X35614312Y-62491598D01*
X35578002Y-62371900D01*
X35519037Y-62261586D01*
X35439685Y-62164895D01*
X35342994Y-62085543D01*
X35232680Y-62026578D01*
X35112982Y-61990268D01*
X34988500Y-61978008D01*
X34024570Y-61981080D01*
X33865820Y-62139830D01*
X33611820Y-62139830D01*
X33453070Y-61981080D01*
X32489140Y-61978008D01*
X32364658Y-61990268D01*
X32244960Y-62026578D01*
X32134646Y-62085543D01*
X32037955Y-62164895D01*
X31958603Y-62261586D01*
X31899638Y-62371900D01*
X31863328Y-62491598D01*
X31851068Y-62616080D01*
X29189806Y-62616080D01*
X29085028Y-62521783D01*
X28988630Y-62464463D01*
X29033146Y-62440669D01*
X29261337Y-62253397D01*
X29448609Y-62025206D01*
X29587765Y-61764864D01*
X29673456Y-61482377D01*
X29702391Y-61188600D01*
X29673456Y-60894823D01*
X29587765Y-60612336D01*
X29448609Y-60351994D01*
X29261337Y-60123803D01*
X29033146Y-59936531D01*
X28885169Y-59857435D01*
X31793180Y-59857435D01*
X31793180Y-60228685D01*
X31865607Y-60592801D01*
X32007678Y-60935791D01*
X32213934Y-61244473D01*
X32476447Y-61506986D01*
X32785129Y-61713242D01*
X33128119Y-61855313D01*
X33492235Y-61927740D01*
X33863485Y-61927740D01*
X34227601Y-61855313D01*
X34570591Y-61713242D01*
X34879273Y-61506986D01*
X35141786Y-61244473D01*
X35348042Y-60935791D01*
X35490113Y-60592801D01*
X35510103Y-60492301D01*
X53260040Y-60492301D01*
X53260040Y-60696179D01*
X53299814Y-60896138D01*
X53377835Y-61084496D01*
X53491103Y-61254014D01*
X53635266Y-61398177D01*
X53804784Y-61511445D01*
X53993142Y-61589466D01*
X54193101Y-61629240D01*
X54396979Y-61629240D01*
X54596938Y-61589466D01*
X54785296Y-61511445D01*
X54954814Y-61398177D01*
X55098977Y-61254014D01*
X55212245Y-61084496D01*
X55290266Y-60896138D01*
X55330040Y-60696179D01*
X55330040Y-60667010D01*
X78407972Y-60667010D01*
X78435679Y-60948319D01*
X78517733Y-61218818D01*
X78650983Y-61468111D01*
X78830307Y-61686618D01*
X79048814Y-61865942D01*
X79298107Y-61999192D01*
X79568606Y-62081246D01*
X79779423Y-62102010D01*
X79920407Y-62102010D01*
X80131224Y-62081246D01*
X80401723Y-61999192D01*
X80651016Y-61865942D01*
X80869523Y-61686618D01*
X81048847Y-61468111D01*
X81182097Y-61218818D01*
X81264151Y-60948319D01*
X81291858Y-60667010D01*
X81264151Y-60385701D01*
X81182097Y-60115202D01*
X81068301Y-59902305D01*
X81190407Y-59902305D01*
X81401224Y-59881541D01*
X81671723Y-59799487D01*
X81921016Y-59666237D01*
X82139523Y-59486913D01*
X82318847Y-59268406D01*
X82452097Y-59019113D01*
X82534151Y-58748614D01*
X82561858Y-58467305D01*
X82534151Y-58185996D01*
X82452097Y-57915497D01*
X82338302Y-57702601D01*
X82460407Y-57702601D01*
X82671224Y-57681837D01*
X82941723Y-57599783D01*
X83191016Y-57466533D01*
X83409523Y-57287209D01*
X83588847Y-57068702D01*
X83722097Y-56819409D01*
X83804151Y-56548910D01*
X83831858Y-56267601D01*
X83804151Y-55986292D01*
X83722097Y-55715793D01*
X83608301Y-55502896D01*
X83730407Y-55502896D01*
X83941224Y-55482132D01*
X84211723Y-55400078D01*
X84461016Y-55266828D01*
X84679523Y-55087504D01*
X84858847Y-54868997D01*
X84992097Y-54619704D01*
X85074151Y-54349205D01*
X85101858Y-54067896D01*
X85074151Y-53786587D01*
X84992097Y-53516088D01*
X84875203Y-53297394D01*
X85094288Y-53293752D01*
X85369242Y-53234292D01*
X85627314Y-53122335D01*
X85858585Y-52962181D01*
X85960820Y-52866421D01*
X85966194Y-52613135D01*
X84976400Y-52041677D01*
X84966400Y-52058998D01*
X84746430Y-51931998D01*
X84756430Y-51914677D01*
X84595402Y-51821707D01*
X85103400Y-51821707D01*
X86093194Y-52393164D01*
X86309859Y-52261867D01*
X86341672Y-52125449D01*
X86364734Y-51845086D01*
X86332656Y-51565611D01*
X86246673Y-51297763D01*
X86135641Y-51097848D01*
X86364288Y-51094047D01*
X86639242Y-51034587D01*
X86897314Y-50922630D01*
X87128585Y-50762476D01*
X87230820Y-50666716D01*
X87236194Y-50413430D01*
X86246400Y-49841972D01*
X85675212Y-50831299D01*
X85103400Y-51821707D01*
X84595402Y-51821707D01*
X83766636Y-51343220D01*
X83549971Y-51474517D01*
X83518158Y-51610935D01*
X83495096Y-51891298D01*
X83527174Y-52170773D01*
X83613157Y-52438621D01*
X83721056Y-52632896D01*
X83589423Y-52632896D01*
X83378606Y-52653660D01*
X83108107Y-52735714D01*
X82858814Y-52868964D01*
X82640307Y-53048288D01*
X82460983Y-53266795D01*
X82327733Y-53516088D01*
X82245679Y-53786587D01*
X82217972Y-54067896D01*
X82245679Y-54349205D01*
X82327733Y-54619704D01*
X82441529Y-54832601D01*
X82319423Y-54832601D01*
X82108606Y-54853365D01*
X81838107Y-54935419D01*
X81588814Y-55068669D01*
X81370307Y-55247993D01*
X81190983Y-55466500D01*
X81057733Y-55715793D01*
X80975679Y-55986292D01*
X80947972Y-56267601D01*
X80975679Y-56548910D01*
X81057733Y-56819409D01*
X81171528Y-57032305D01*
X81049423Y-57032305D01*
X80838606Y-57053069D01*
X80568107Y-57135123D01*
X80318814Y-57268373D01*
X80100307Y-57447697D01*
X79920983Y-57666204D01*
X79787733Y-57915497D01*
X79705679Y-58185996D01*
X79677972Y-58467305D01*
X79705679Y-58748614D01*
X79787733Y-59019113D01*
X79901529Y-59232010D01*
X79779423Y-59232010D01*
X79568606Y-59252774D01*
X79298107Y-59334828D01*
X79048814Y-59468078D01*
X78830307Y-59647402D01*
X78650983Y-59865909D01*
X78517733Y-60115202D01*
X78435679Y-60385701D01*
X78407972Y-60667010D01*
X55330040Y-60667010D01*
X55330040Y-60492301D01*
X55290266Y-60292342D01*
X55212245Y-60103984D01*
X55108147Y-59948190D01*
X55053286Y-58572195D01*
X60896500Y-58572195D01*
X60896500Y-58943445D01*
X60968927Y-59307561D01*
X61110998Y-59650551D01*
X61317254Y-59959233D01*
X61579767Y-60221746D01*
X61888449Y-60428002D01*
X62231439Y-60570073D01*
X62595555Y-60642500D01*
X62966805Y-60642500D01*
X63330921Y-60570073D01*
X63673911Y-60428002D01*
X63982593Y-60221746D01*
X64245106Y-59959233D01*
X64451362Y-59650551D01*
X64593433Y-59307561D01*
X64665860Y-58943445D01*
X64665860Y-58572195D01*
X64593433Y-58208079D01*
X64451362Y-57865089D01*
X64245106Y-57556407D01*
X63982593Y-57293894D01*
X63673911Y-57087638D01*
X63330921Y-56945567D01*
X62966805Y-56873140D01*
X62595555Y-56873140D01*
X62231439Y-56945567D01*
X61888449Y-57087638D01*
X61579767Y-57293894D01*
X61317254Y-57556407D01*
X61110998Y-57865089D01*
X60968927Y-58208079D01*
X60896500Y-58572195D01*
X55053286Y-58572195D01*
X55042321Y-58297188D01*
X55250632Y-57167921D01*
X57207365Y-56943752D01*
X57246506Y-56943338D01*
X57289172Y-56934380D01*
X57291384Y-56934127D01*
X57329456Y-56925923D01*
X57408094Y-56909413D01*
X57410158Y-56908532D01*
X57412350Y-56908060D01*
X57486103Y-56876128D01*
X57521908Y-56860851D01*
X57523858Y-56859782D01*
X57530260Y-56857010D01*
X71808858Y-56857010D01*
X71836565Y-57138319D01*
X71918619Y-57408818D01*
X72051869Y-57658111D01*
X72231193Y-57876618D01*
X72449700Y-58055942D01*
X72698993Y-58189192D01*
X72969492Y-58271246D01*
X73180309Y-58292010D01*
X73321293Y-58292010D01*
X73532110Y-58271246D01*
X73802609Y-58189192D01*
X74051902Y-58055942D01*
X74270409Y-57876618D01*
X74449733Y-57658111D01*
X74582983Y-57408818D01*
X74665037Y-57138319D01*
X74692744Y-56857010D01*
X74665037Y-56575701D01*
X74582983Y-56305202D01*
X74469187Y-56092305D01*
X74591293Y-56092305D01*
X74802110Y-56071541D01*
X75072609Y-55989487D01*
X75321902Y-55856237D01*
X75540409Y-55676913D01*
X75719733Y-55458406D01*
X75852983Y-55209113D01*
X75935037Y-54938614D01*
X75962744Y-54657305D01*
X75935037Y-54375996D01*
X75852983Y-54105497D01*
X75739188Y-53892601D01*
X75861293Y-53892601D01*
X76072110Y-53871837D01*
X76342609Y-53789783D01*
X76591902Y-53656533D01*
X76810409Y-53477209D01*
X76989733Y-53258702D01*
X77122983Y-53009409D01*
X77205037Y-52738910D01*
X77232744Y-52457601D01*
X77205037Y-52176292D01*
X77122983Y-51905793D01*
X77009187Y-51692896D01*
X77131293Y-51692896D01*
X77342110Y-51672132D01*
X77612609Y-51590078D01*
X77861902Y-51456828D01*
X78080409Y-51277504D01*
X78207002Y-51123249D01*
X83893636Y-51123249D01*
X84883430Y-51694707D01*
X85454618Y-50705380D01*
X86026430Y-49714972D01*
X85036636Y-49143515D01*
X84819971Y-49274812D01*
X84788158Y-49411230D01*
X84765096Y-49691593D01*
X84797174Y-49971068D01*
X84883157Y-50238916D01*
X84994189Y-50438831D01*
X84765542Y-50442632D01*
X84490588Y-50502092D01*
X84232516Y-50614049D01*
X84001245Y-50774203D01*
X83899010Y-50869963D01*
X83893636Y-51123249D01*
X78207002Y-51123249D01*
X78259733Y-51058997D01*
X78392983Y-50809704D01*
X78475037Y-50539205D01*
X78502744Y-50257896D01*
X78475037Y-49976587D01*
X78392983Y-49706088D01*
X78276089Y-49487394D01*
X78495174Y-49483752D01*
X78770128Y-49424292D01*
X79028200Y-49312335D01*
X79259471Y-49152181D01*
X79361706Y-49056421D01*
X79364525Y-48923544D01*
X85163636Y-48923544D01*
X86153430Y-49495002D01*
X86163430Y-49477681D01*
X86383400Y-49604681D01*
X86373400Y-49622002D01*
X87363194Y-50193459D01*
X87579859Y-50062162D01*
X87611672Y-49925744D01*
X87634734Y-49645381D01*
X87602656Y-49365906D01*
X87516673Y-49098058D01*
X87408774Y-48903783D01*
X87540407Y-48903783D01*
X87751224Y-48883019D01*
X88021723Y-48800965D01*
X88271016Y-48667715D01*
X88489523Y-48488391D01*
X88668847Y-48269884D01*
X88802097Y-48020591D01*
X88884151Y-47750092D01*
X88911858Y-47468783D01*
X88884151Y-47187474D01*
X88802097Y-46916975D01*
X88688301Y-46704078D01*
X88810407Y-46704078D01*
X89021224Y-46683314D01*
X89291723Y-46601260D01*
X89541016Y-46468010D01*
X89759523Y-46288686D01*
X89938847Y-46070179D01*
X90072097Y-45820886D01*
X90154151Y-45550387D01*
X90181858Y-45269078D01*
X90154151Y-44987769D01*
X90072097Y-44717270D01*
X89938847Y-44467977D01*
X89759523Y-44249470D01*
X89541016Y-44070146D01*
X89291723Y-43936896D01*
X89021224Y-43854842D01*
X88810407Y-43834078D01*
X88669423Y-43834078D01*
X88458606Y-43854842D01*
X88188107Y-43936896D01*
X87938814Y-44070146D01*
X87720307Y-44249470D01*
X87540983Y-44467977D01*
X87407733Y-44717270D01*
X87325679Y-44987769D01*
X87297972Y-45269078D01*
X87325679Y-45550387D01*
X87407733Y-45820886D01*
X87521529Y-46033783D01*
X87399423Y-46033783D01*
X87188606Y-46054547D01*
X86918107Y-46136601D01*
X86668814Y-46269851D01*
X86450307Y-46449175D01*
X86270983Y-46667682D01*
X86137733Y-46916975D01*
X86055679Y-47187474D01*
X86027972Y-47468783D01*
X86055679Y-47750092D01*
X86137733Y-48020591D01*
X86254627Y-48239285D01*
X86035542Y-48242927D01*
X85760588Y-48302387D01*
X85502516Y-48414344D01*
X85271245Y-48574498D01*
X85169010Y-48670258D01*
X85163636Y-48923544D01*
X79364525Y-48923544D01*
X79367080Y-48803135D01*
X78377286Y-48231677D01*
X78367286Y-48248998D01*
X78147316Y-48121998D01*
X78157316Y-48104677D01*
X77167522Y-47533220D01*
X76950857Y-47664517D01*
X76919044Y-47800935D01*
X76895982Y-48081298D01*
X76928060Y-48360773D01*
X77014043Y-48628621D01*
X77121942Y-48822896D01*
X76990309Y-48822896D01*
X76779492Y-48843660D01*
X76508993Y-48925714D01*
X76259700Y-49058964D01*
X76041193Y-49238288D01*
X75861869Y-49456795D01*
X75728619Y-49706088D01*
X75646565Y-49976587D01*
X75618858Y-50257896D01*
X75646565Y-50539205D01*
X75728619Y-50809704D01*
X75842415Y-51022601D01*
X75720309Y-51022601D01*
X75509492Y-51043365D01*
X75238993Y-51125419D01*
X74989700Y-51258669D01*
X74771193Y-51437993D01*
X74591869Y-51656500D01*
X74458619Y-51905793D01*
X74376565Y-52176292D01*
X74348858Y-52457601D01*
X74376565Y-52738910D01*
X74458619Y-53009409D01*
X74572414Y-53222305D01*
X74450309Y-53222305D01*
X74239492Y-53243069D01*
X73968993Y-53325123D01*
X73719700Y-53458373D01*
X73501193Y-53637697D01*
X73321869Y-53856204D01*
X73188619Y-54105497D01*
X73106565Y-54375996D01*
X73078858Y-54657305D01*
X73106565Y-54938614D01*
X73188619Y-55209113D01*
X73302415Y-55422010D01*
X73180309Y-55422010D01*
X72969492Y-55442774D01*
X72698993Y-55524828D01*
X72449700Y-55658078D01*
X72231193Y-55837402D01*
X72051869Y-56055909D01*
X71918619Y-56305202D01*
X71836565Y-56575701D01*
X71808858Y-56857010D01*
X57530260Y-56857010D01*
X57563869Y-56842459D01*
X57596066Y-56820197D01*
X63292994Y-53697124D01*
X63304921Y-53692972D01*
X63365222Y-53657529D01*
X63390391Y-53643731D01*
X63400783Y-53636627D01*
X63411600Y-53630269D01*
X63434732Y-53613419D01*
X63492544Y-53573898D01*
X63501387Y-53564865D01*
X65199973Y-52327566D01*
X65228072Y-52311865D01*
X65266514Y-52279096D01*
X65273935Y-52273690D01*
X65297896Y-52252344D01*
X65353725Y-52204754D01*
X65359440Y-52197519D01*
X65366331Y-52191380D01*
X65410581Y-52132774D01*
X65430426Y-52107650D01*
X65435371Y-52099941D01*
X65465822Y-52059611D01*
X65479839Y-52030621D01*
X65542274Y-51933292D01*
X68244582Y-51933292D01*
X68244582Y-52304542D01*
X68317009Y-52668658D01*
X68459080Y-53011648D01*
X68665336Y-53320330D01*
X68927849Y-53582843D01*
X69236531Y-53789099D01*
X69579521Y-53931170D01*
X69943637Y-54003597D01*
X70314887Y-54003597D01*
X70679003Y-53931170D01*
X71021993Y-53789099D01*
X71330675Y-53582843D01*
X71593188Y-53320330D01*
X71799444Y-53011648D01*
X71941515Y-52668658D01*
X72013942Y-52304542D01*
X72013942Y-51933292D01*
X71941515Y-51569176D01*
X71799444Y-51226186D01*
X71593188Y-50917504D01*
X71330675Y-50654991D01*
X71021993Y-50448735D01*
X70679003Y-50306664D01*
X70314887Y-50234237D01*
X69943637Y-50234237D01*
X69579521Y-50306664D01*
X69236531Y-50448735D01*
X68927849Y-50654991D01*
X68665336Y-50917504D01*
X68459080Y-51226186D01*
X68317009Y-51569176D01*
X68244582Y-51933292D01*
X65542274Y-51933292D01*
X66397184Y-50600589D01*
X66509936Y-50553885D01*
X66679454Y-50440617D01*
X66823617Y-50296454D01*
X66936885Y-50126936D01*
X67014906Y-49938578D01*
X67054680Y-49738619D01*
X67054680Y-49534741D01*
X67014906Y-49334782D01*
X66936885Y-49146424D01*
X66866342Y-49040849D01*
X67158580Y-49236117D01*
X67501570Y-49378188D01*
X67865686Y-49450615D01*
X68236936Y-49450615D01*
X68601052Y-49378188D01*
X68944042Y-49236117D01*
X69252724Y-49029861D01*
X69515237Y-48767348D01*
X69721493Y-48458666D01*
X69863564Y-48115676D01*
X69935991Y-47751560D01*
X69935991Y-47380310D01*
X69922652Y-47313249D01*
X77294522Y-47313249D01*
X78284316Y-47884707D01*
X78294316Y-47867386D01*
X78514286Y-47994386D01*
X78504286Y-48011707D01*
X79494080Y-48583164D01*
X79710745Y-48451867D01*
X79742558Y-48315449D01*
X79765620Y-48035086D01*
X79733542Y-47755611D01*
X79647559Y-47487763D01*
X79539659Y-47293487D01*
X79671293Y-47293487D01*
X79882110Y-47272723D01*
X80152609Y-47190669D01*
X80401902Y-47057419D01*
X80620409Y-46878095D01*
X80799733Y-46659588D01*
X80932983Y-46410295D01*
X81015037Y-46139796D01*
X81042744Y-45858487D01*
X81015037Y-45577178D01*
X80932983Y-45306679D01*
X80819188Y-45093783D01*
X80941293Y-45093783D01*
X81152110Y-45073019D01*
X81422609Y-44990965D01*
X81671902Y-44857715D01*
X81890409Y-44678391D01*
X82069733Y-44459884D01*
X82202983Y-44210591D01*
X82285037Y-43940092D01*
X82312744Y-43658783D01*
X82285037Y-43377474D01*
X82216193Y-43150523D01*
X82228519Y-43156108D01*
X82350336Y-43184511D01*
X82475353Y-43188604D01*
X82598766Y-43168228D01*
X82715833Y-43124167D01*
X82822055Y-43058115D01*
X82913349Y-42972608D01*
X82986207Y-42870934D01*
X83786207Y-41485294D01*
X83837831Y-41371360D01*
X83866234Y-41249543D01*
X83870327Y-41124526D01*
X83849951Y-41001113D01*
X83805890Y-40884046D01*
X83739838Y-40777824D01*
X83654331Y-40686530D01*
X83552657Y-40613672D01*
X82167017Y-39813672D01*
X82053083Y-39762048D01*
X81931266Y-39733645D01*
X81806249Y-39729552D01*
X81682836Y-39749928D01*
X81565769Y-39793989D01*
X81459547Y-39860041D01*
X81368253Y-39945548D01*
X81295395Y-40047222D01*
X80495395Y-41432862D01*
X80443771Y-41546796D01*
X80415368Y-41668613D01*
X80411275Y-41793630D01*
X80431651Y-41917043D01*
X80475712Y-42034110D01*
X80541764Y-42140332D01*
X80627271Y-42231626D01*
X80638558Y-42239714D01*
X80589492Y-42244547D01*
X80318993Y-42326601D01*
X80069700Y-42459851D01*
X79851193Y-42639175D01*
X79671869Y-42857682D01*
X79538619Y-43106975D01*
X79456565Y-43377474D01*
X79428858Y-43658783D01*
X79456565Y-43940092D01*
X79538619Y-44210591D01*
X79652414Y-44423487D01*
X79530309Y-44423487D01*
X79319492Y-44444251D01*
X79048993Y-44526305D01*
X78799700Y-44659555D01*
X78581193Y-44838879D01*
X78401869Y-45057386D01*
X78268619Y-45306679D01*
X78186565Y-45577178D01*
X78158858Y-45858487D01*
X78186565Y-46139796D01*
X78268619Y-46410295D01*
X78385514Y-46628990D01*
X78166428Y-46632632D01*
X77891474Y-46692092D01*
X77633402Y-46804049D01*
X77402131Y-46964203D01*
X77299896Y-47059963D01*
X77294522Y-47313249D01*
X69922652Y-47313249D01*
X69863564Y-47016194D01*
X69721493Y-46673204D01*
X69515237Y-46364522D01*
X69252724Y-46102009D01*
X68944042Y-45895753D01*
X68601052Y-45753682D01*
X68236936Y-45681255D01*
X67865686Y-45681255D01*
X67501570Y-45753682D01*
X67158580Y-45895753D01*
X66849898Y-46102009D01*
X66587385Y-46364522D01*
X66381129Y-46673204D01*
X66239058Y-47016194D01*
X66166631Y-47380310D01*
X66166631Y-47751560D01*
X66239058Y-48115676D01*
X66381129Y-48458666D01*
X66587385Y-48767348D01*
X66599068Y-48779031D01*
X66509936Y-48719475D01*
X66321578Y-48641454D01*
X66121619Y-48601680D01*
X65917741Y-48601680D01*
X65717782Y-48641454D01*
X65529424Y-48719475D01*
X65359906Y-48832743D01*
X65215743Y-48976906D01*
X65102475Y-49146424D01*
X65024454Y-49334782D01*
X64984680Y-49534741D01*
X64984680Y-49697729D01*
X64126525Y-51035493D01*
X62501294Y-52219359D01*
X57402663Y-55014446D01*
X57407386Y-54966489D01*
X57404314Y-54477239D01*
X57245564Y-54318489D01*
X56121314Y-54318489D01*
X56121314Y-54338489D01*
X55867314Y-54338489D01*
X55867314Y-54318489D01*
X54743064Y-54318489D01*
X54584314Y-54477239D01*
X54581242Y-54966489D01*
X54593502Y-55090971D01*
X54629812Y-55210669D01*
X54688777Y-55320983D01*
X54768129Y-55417674D01*
X54864820Y-55497026D01*
X54907543Y-55519862D01*
X54443800Y-55572990D01*
X54363070Y-55582079D01*
X54322860Y-55594891D01*
X54281610Y-55603780D01*
X54244399Y-55619891D01*
X54205751Y-55632205D01*
X54168809Y-55652618D01*
X54130091Y-55669381D01*
X54096737Y-55692442D01*
X54061236Y-55712059D01*
X54028987Y-55739285D01*
X53994281Y-55763282D01*
X53966066Y-55792408D01*
X53935076Y-55818572D01*
X53908761Y-55851564D01*
X53879400Y-55881873D01*
X53857408Y-55915946D01*
X53832119Y-55947652D01*
X53812745Y-55985145D01*
X53789863Y-56020598D01*
X53774942Y-56058304D01*
X53756323Y-56094337D01*
X53744636Y-56134891D01*
X53729110Y-56174125D01*
X53714537Y-56254000D01*
X53382261Y-58055285D01*
X53369099Y-58105845D01*
X53364920Y-58177416D01*
X53358888Y-58248855D01*
X53364733Y-58300771D01*
X53433317Y-60020949D01*
X53377835Y-60103984D01*
X53299814Y-60292342D01*
X53260040Y-60492301D01*
X35510103Y-60492301D01*
X35562540Y-60228685D01*
X35562540Y-59857435D01*
X35490113Y-59493319D01*
X35348042Y-59150329D01*
X35141786Y-58841647D01*
X34879273Y-58579134D01*
X34570591Y-58372878D01*
X34227601Y-58230807D01*
X33863485Y-58158380D01*
X33492235Y-58158380D01*
X33128119Y-58230807D01*
X32785129Y-58372878D01*
X32476447Y-58579134D01*
X32213934Y-58841647D01*
X32007678Y-59150329D01*
X31865607Y-59493319D01*
X31793180Y-59857435D01*
X28885169Y-59857435D01*
X28772804Y-59797375D01*
X28490317Y-59711684D01*
X28270159Y-59690000D01*
X28122921Y-59690000D01*
X27902763Y-59711684D01*
X27620276Y-59797375D01*
X27359934Y-59936531D01*
X27131743Y-60123803D01*
X26944471Y-60351994D01*
X26926540Y-60385540D01*
X26908609Y-60351994D01*
X26721337Y-60123803D01*
X26493146Y-59936531D01*
X26232804Y-59797375D01*
X25950317Y-59711684D01*
X25730159Y-59690000D01*
X25582921Y-59690000D01*
X25362763Y-59711684D01*
X25080276Y-59797375D01*
X24819934Y-59936531D01*
X24591743Y-60123803D01*
X24404471Y-60351994D01*
X24265315Y-60612336D01*
X24179624Y-60894823D01*
X24150689Y-61188600D01*
X12598000Y-61188600D01*
X12598000Y-53522675D01*
X21803360Y-53522675D01*
X21803360Y-53893925D01*
X21875787Y-54258041D01*
X22017858Y-54601031D01*
X22224114Y-54909713D01*
X22486627Y-55172226D01*
X22795309Y-55378482D01*
X23138299Y-55520553D01*
X23502415Y-55592980D01*
X23873665Y-55592980D01*
X24237781Y-55520553D01*
X24580771Y-55378482D01*
X24889453Y-55172226D01*
X25078299Y-54983380D01*
X31790108Y-54983380D01*
X31790108Y-57482740D01*
X31802368Y-57607222D01*
X31838678Y-57726920D01*
X31897643Y-57837234D01*
X31976995Y-57933925D01*
X32073686Y-58013277D01*
X32184000Y-58072242D01*
X32303698Y-58108552D01*
X32428180Y-58120812D01*
X34927540Y-58120812D01*
X35052022Y-58108552D01*
X35171720Y-58072242D01*
X35282034Y-58013277D01*
X35378725Y-57933925D01*
X35458077Y-57837234D01*
X35517042Y-57726920D01*
X35553352Y-57607222D01*
X35565612Y-57482740D01*
X35565612Y-54983380D01*
X35553352Y-54858898D01*
X35517042Y-54739200D01*
X35458077Y-54628886D01*
X35378725Y-54532195D01*
X35282034Y-54452843D01*
X35171720Y-54393878D01*
X35052022Y-54357568D01*
X34927540Y-54345308D01*
X32428180Y-54345308D01*
X32303698Y-54357568D01*
X32184000Y-54393878D01*
X32073686Y-54452843D01*
X31976995Y-54532195D01*
X31897643Y-54628886D01*
X31838678Y-54739200D01*
X31802368Y-54858898D01*
X31790108Y-54983380D01*
X25078299Y-54983380D01*
X25151966Y-54909713D01*
X25358222Y-54601031D01*
X25500293Y-54258041D01*
X25572720Y-53893925D01*
X25572720Y-53522675D01*
X25500293Y-53158559D01*
X25358222Y-52815569D01*
X25151966Y-52506887D01*
X24889453Y-52244374D01*
X24580771Y-52038118D01*
X24237781Y-51896047D01*
X23873665Y-51823620D01*
X23502415Y-51823620D01*
X23138299Y-51896047D01*
X22795309Y-52038118D01*
X22486627Y-52244374D01*
X22224114Y-52506887D01*
X22017858Y-52815569D01*
X21875787Y-53158559D01*
X21803360Y-53522675D01*
X12598000Y-53522675D01*
X12598000Y-47502741D01*
X21278900Y-47502741D01*
X21278900Y-47706619D01*
X21318674Y-47906578D01*
X21396695Y-48094936D01*
X21509963Y-48264454D01*
X21654126Y-48408617D01*
X21823644Y-48521885D01*
X22012002Y-48599906D01*
X22211961Y-48639680D01*
X22415839Y-48639680D01*
X22615798Y-48599906D01*
X22804156Y-48521885D01*
X22973674Y-48408617D01*
X23117837Y-48264454D01*
X23231105Y-48094936D01*
X23309126Y-47906578D01*
X23348900Y-47706619D01*
X23348900Y-47502741D01*
X23309126Y-47302782D01*
X23231105Y-47114424D01*
X23172110Y-47026132D01*
X23271705Y-44076272D01*
X23334812Y-44165409D01*
X23539028Y-44358881D01*
X23777065Y-44508795D01*
X23985223Y-44588501D01*
X23840554Y-44707228D01*
X23661230Y-44925735D01*
X23527980Y-45175028D01*
X23445926Y-45445527D01*
X23418219Y-45726836D01*
X23445926Y-46008145D01*
X23527980Y-46278644D01*
X23661230Y-46527937D01*
X23840554Y-46746444D01*
X24059061Y-46925768D01*
X24308354Y-47059018D01*
X24421948Y-47093476D01*
X24281620Y-47208640D01*
X24102296Y-47427147D01*
X23969046Y-47676440D01*
X23886992Y-47946939D01*
X23859285Y-48228248D01*
X23886992Y-48509557D01*
X23969046Y-48780056D01*
X24102296Y-49029349D01*
X24281620Y-49247856D01*
X24500127Y-49427180D01*
X24749420Y-49560430D01*
X25019919Y-49642484D01*
X25230736Y-49663248D01*
X25371720Y-49663248D01*
X25582537Y-49642484D01*
X25853036Y-49560430D01*
X26102329Y-49427180D01*
X26320836Y-49247856D01*
X26500160Y-49029349D01*
X26633410Y-48780056D01*
X26715464Y-48509557D01*
X26743171Y-48228248D01*
X26715464Y-47946939D01*
X26633410Y-47676440D01*
X26500160Y-47427147D01*
X26320836Y-47208640D01*
X26102329Y-47029316D01*
X25853036Y-46896066D01*
X25739442Y-46861608D01*
X25879770Y-46746444D01*
X26059094Y-46527937D01*
X26192344Y-46278644D01*
X26274398Y-46008145D01*
X26302105Y-45726836D01*
X26274398Y-45445527D01*
X26192344Y-45175028D01*
X26059094Y-44925735D01*
X25879770Y-44707228D01*
X25661263Y-44527904D01*
X25411970Y-44394654D01*
X25292436Y-44358394D01*
X25461344Y-44211811D01*
X25633752Y-43989524D01*
X25759481Y-43737875D01*
X25833700Y-43466531D01*
X25850463Y-43327460D01*
X25691770Y-43129977D01*
X24566219Y-43328442D01*
X24569692Y-43348138D01*
X24319551Y-43392245D01*
X24316078Y-43372549D01*
X24296382Y-43376022D01*
X24252275Y-43125881D01*
X24271971Y-43122408D01*
X24268498Y-43102712D01*
X24518639Y-43058605D01*
X24522112Y-43078301D01*
X25647664Y-42879836D01*
X25729243Y-42639987D01*
X25665925Y-42515036D01*
X25503378Y-42285441D01*
X25299162Y-42091969D01*
X25112287Y-41974276D01*
X25136055Y-41967629D01*
X25247630Y-41911086D01*
X25346029Y-41833861D01*
X25427472Y-41738924D01*
X25488829Y-41629922D01*
X25527741Y-41511045D01*
X25542714Y-41386861D01*
X25533172Y-41262141D01*
X25255335Y-39686448D01*
X25221645Y-39565987D01*
X25165102Y-39454412D01*
X25087877Y-39356013D01*
X25034850Y-39310523D01*
X25537368Y-39256588D01*
X28703778Y-39498483D01*
X30132815Y-39895699D01*
X30150082Y-39952622D01*
X30235422Y-40112282D01*
X30174528Y-40123706D01*
X30132432Y-40127480D01*
X30054061Y-40150506D01*
X29975682Y-40173352D01*
X29974882Y-40173769D01*
X29974016Y-40174023D01*
X29901473Y-40211984D01*
X29829228Y-40249594D01*
X29828528Y-40250156D01*
X29827725Y-40250576D01*
X29763844Y-40302071D01*
X29700462Y-40352942D01*
X29699885Y-40353630D01*
X29699180Y-40354198D01*
X29646643Y-40417082D01*
X29594332Y-40479425D01*
X29593899Y-40480213D01*
X29593320Y-40480907D01*
X29554139Y-40552689D01*
X29514917Y-40624183D01*
X29514646Y-40625043D01*
X29514214Y-40625834D01*
X29489831Y-40703747D01*
X29465269Y-40781652D01*
X29460668Y-40823665D01*
X28878224Y-43623316D01*
X28873037Y-43636797D01*
X28861437Y-43704006D01*
X28855966Y-43730302D01*
X28854433Y-43744585D01*
X28844954Y-43799502D01*
X28845640Y-43826489D01*
X28842758Y-43853337D01*
X28847734Y-43908840D01*
X28848099Y-43923203D01*
X28851413Y-43949877D01*
X28857501Y-44017787D01*
X28861570Y-44031638D01*
X29521360Y-49342467D01*
X29359867Y-49450374D01*
X29097354Y-49712887D01*
X28891098Y-50021569D01*
X28749027Y-50364559D01*
X28676600Y-50728675D01*
X28676600Y-51099925D01*
X28749027Y-51464041D01*
X28891098Y-51807031D01*
X29097354Y-52115713D01*
X29359867Y-52378226D01*
X29668549Y-52584482D01*
X30011539Y-52726553D01*
X30375655Y-52798980D01*
X30746905Y-52798980D01*
X31111021Y-52726553D01*
X31454011Y-52584482D01*
X31762693Y-52378226D01*
X32025206Y-52115713D01*
X32231462Y-51807031D01*
X32373533Y-51464041D01*
X32445960Y-51099925D01*
X32445960Y-50939495D01*
X35836860Y-50939495D01*
X35836860Y-51310745D01*
X35909287Y-51674861D01*
X36051358Y-52017851D01*
X36257614Y-52326533D01*
X36520127Y-52589046D01*
X36828809Y-52795302D01*
X37171799Y-52937373D01*
X37535915Y-53009800D01*
X37907165Y-53009800D01*
X38271281Y-52937373D01*
X38614271Y-52795302D01*
X38922953Y-52589046D01*
X39185466Y-52326533D01*
X39391722Y-52017851D01*
X39533793Y-51674861D01*
X39606220Y-51310745D01*
X39606220Y-50939495D01*
X39533793Y-50575379D01*
X39391722Y-50232389D01*
X39185466Y-49923707D01*
X38922953Y-49661194D01*
X38614271Y-49454938D01*
X38271281Y-49312867D01*
X38084494Y-49275713D01*
X38332241Y-49226433D01*
X38675231Y-49084362D01*
X38983913Y-48878106D01*
X39246426Y-48615593D01*
X39452682Y-48306911D01*
X39594753Y-47963921D01*
X39667180Y-47599805D01*
X39667180Y-47228555D01*
X39594753Y-46864439D01*
X39452682Y-46521449D01*
X39246426Y-46212767D01*
X38983913Y-45950254D01*
X38675231Y-45743998D01*
X38332241Y-45601927D01*
X37968125Y-45529500D01*
X37596875Y-45529500D01*
X37232759Y-45601927D01*
X36889769Y-45743998D01*
X36581087Y-45950254D01*
X36318574Y-46212767D01*
X36112318Y-46521449D01*
X35970247Y-46864439D01*
X35897820Y-47228555D01*
X35897820Y-47599805D01*
X35970247Y-47963921D01*
X36112318Y-48306911D01*
X36318574Y-48615593D01*
X36581087Y-48878106D01*
X36889769Y-49084362D01*
X37232759Y-49226433D01*
X37419546Y-49263587D01*
X37171799Y-49312867D01*
X36828809Y-49454938D01*
X36520127Y-49661194D01*
X36257614Y-49923707D01*
X36051358Y-50232389D01*
X35909287Y-50575379D01*
X35836860Y-50939495D01*
X32445960Y-50939495D01*
X32445960Y-50728675D01*
X32373533Y-50364559D01*
X32231462Y-50021569D01*
X32025206Y-49712887D01*
X31762693Y-49450374D01*
X31454011Y-49244118D01*
X31184563Y-49132509D01*
X30533924Y-43895340D01*
X30770281Y-42759236D01*
X30903722Y-42921834D01*
X31122229Y-43101158D01*
X31371522Y-43234408D01*
X31485116Y-43268866D01*
X31344789Y-43384029D01*
X31165465Y-43602536D01*
X31032215Y-43851829D01*
X30950161Y-44122328D01*
X30922454Y-44403637D01*
X30950161Y-44684946D01*
X31032215Y-44955445D01*
X31165465Y-45204738D01*
X31344789Y-45423245D01*
X31563296Y-45602569D01*
X31812589Y-45735819D01*
X31926183Y-45770277D01*
X31785855Y-45885441D01*
X31606531Y-46103948D01*
X31473281Y-46353241D01*
X31391227Y-46623740D01*
X31363520Y-46905049D01*
X31391227Y-47186358D01*
X31473281Y-47456857D01*
X31606531Y-47706150D01*
X31785855Y-47924657D01*
X32004362Y-48103981D01*
X32253655Y-48237231D01*
X32524154Y-48319285D01*
X32734971Y-48340049D01*
X32875955Y-48340049D01*
X33086772Y-48319285D01*
X33357271Y-48237231D01*
X33606564Y-48103981D01*
X33825071Y-47924657D01*
X34004395Y-47706150D01*
X34137645Y-47456857D01*
X34219699Y-47186358D01*
X34247406Y-46905049D01*
X34219699Y-46623740D01*
X34137645Y-46353241D01*
X34004395Y-46103948D01*
X33825071Y-45885441D01*
X33606564Y-45706117D01*
X33357271Y-45572867D01*
X33243677Y-45538409D01*
X33384005Y-45423245D01*
X33563329Y-45204738D01*
X33696579Y-44955445D01*
X33778633Y-44684946D01*
X33806340Y-44403637D01*
X33805925Y-44399422D01*
X49064196Y-44399422D01*
X49064196Y-44682092D01*
X49119343Y-44959331D01*
X49227516Y-45220484D01*
X49384559Y-45455516D01*
X49584437Y-45655394D01*
X49819469Y-45812437D01*
X50080622Y-45920610D01*
X50357861Y-45975757D01*
X50640531Y-45975757D01*
X50917770Y-45920610D01*
X51178923Y-45812437D01*
X51413955Y-45655394D01*
X51613833Y-45455516D01*
X51770876Y-45220484D01*
X51879049Y-44959331D01*
X51934196Y-44682092D01*
X51934196Y-44399422D01*
X51879049Y-44122183D01*
X51770876Y-43861030D01*
X51613833Y-43625998D01*
X51413955Y-43426120D01*
X51178923Y-43269077D01*
X50917770Y-43160904D01*
X50640531Y-43105757D01*
X50357861Y-43105757D01*
X50080622Y-43160904D01*
X49819469Y-43269077D01*
X49584437Y-43426120D01*
X49384559Y-43625998D01*
X49227516Y-43861030D01*
X49119343Y-44122183D01*
X49064196Y-44399422D01*
X33805925Y-44399422D01*
X33778633Y-44122328D01*
X33696579Y-43851829D01*
X33563329Y-43602536D01*
X33384005Y-43384029D01*
X33165498Y-43204705D01*
X32916205Y-43071455D01*
X32802611Y-43036997D01*
X32942938Y-42921834D01*
X33023682Y-42823447D01*
X37673509Y-42823447D01*
X37673509Y-43101193D01*
X37727695Y-43373602D01*
X37833984Y-43630205D01*
X37988291Y-43861142D01*
X38184687Y-44057538D01*
X38415624Y-44211845D01*
X38672227Y-44318134D01*
X38944636Y-44372320D01*
X39222382Y-44372320D01*
X39494791Y-44318134D01*
X39751394Y-44211845D01*
X39982331Y-44057538D01*
X40178727Y-43861142D01*
X40333034Y-43630205D01*
X40439323Y-43373602D01*
X40493509Y-43101193D01*
X40493509Y-42823447D01*
X40439323Y-42551038D01*
X40333034Y-42294435D01*
X40178727Y-42063498D01*
X39982331Y-41867102D01*
X39751394Y-41712795D01*
X39494791Y-41606506D01*
X39222382Y-41552320D01*
X38944636Y-41552320D01*
X38672227Y-41606506D01*
X38415624Y-41712795D01*
X38184687Y-41867102D01*
X37988291Y-42063498D01*
X37833984Y-42294435D01*
X37727695Y-42551038D01*
X37673509Y-42823447D01*
X33023682Y-42823447D01*
X33122262Y-42703327D01*
X33255512Y-42454034D01*
X33337566Y-42183535D01*
X33365273Y-41902226D01*
X33337566Y-41620917D01*
X33255512Y-41350418D01*
X33207379Y-41260367D01*
X33383039Y-41227412D01*
X33451966Y-41216640D01*
X33502805Y-41198003D01*
X33554798Y-41182848D01*
X33580152Y-41169649D01*
X33606989Y-41159811D01*
X33653222Y-41131610D01*
X33701252Y-41106606D01*
X33723542Y-41088716D01*
X33747946Y-41073830D01*
X33787792Y-41037149D01*
X33830018Y-41003258D01*
X33848387Y-40981366D01*
X33869421Y-40962003D01*
X33901341Y-40918258D01*
X33936148Y-40876776D01*
X33949899Y-40851710D01*
X33966744Y-40828625D01*
X33989511Y-40779505D01*
X34015563Y-40732018D01*
X34024159Y-40704753D01*
X34036178Y-40678823D01*
X34048926Y-40626201D01*
X34065211Y-40574549D01*
X34068323Y-40546131D01*
X34075052Y-40518354D01*
X34077290Y-40464247D01*
X34083184Y-40410419D01*
X34077103Y-40340919D01*
X33918035Y-37545880D01*
X33914353Y-37467605D01*
X33903386Y-37423435D01*
X33896360Y-37378474D01*
X33883542Y-37343507D01*
X33874567Y-37307360D01*
X33855194Y-37266179D01*
X33846815Y-37243320D01*
X37338572Y-37243320D01*
X37338572Y-37521066D01*
X37392758Y-37793475D01*
X37499047Y-38050078D01*
X37653354Y-38281015D01*
X37849750Y-38477411D01*
X38080687Y-38631718D01*
X38337290Y-38738007D01*
X38609699Y-38792193D01*
X38887445Y-38792193D01*
X39159854Y-38738007D01*
X39416457Y-38631718D01*
X39562065Y-38534426D01*
X39419354Y-39030536D01*
X39396026Y-39046123D01*
X39251863Y-39190286D01*
X39138595Y-39359804D01*
X39060574Y-39548162D01*
X39020800Y-39748121D01*
X39020800Y-39951999D01*
X39060574Y-40151958D01*
X39138595Y-40340316D01*
X39251863Y-40509834D01*
X39396026Y-40653997D01*
X39565544Y-40767265D01*
X39753902Y-40845286D01*
X39953861Y-40885060D01*
X40157739Y-40885060D01*
X40357698Y-40845286D01*
X40546056Y-40767265D01*
X40715574Y-40653997D01*
X40859737Y-40509834D01*
X40973005Y-40340316D01*
X41051026Y-40151958D01*
X41054017Y-40136918D01*
X41718260Y-40136918D01*
X41722353Y-40261935D01*
X41750756Y-40383751D01*
X41802379Y-40497686D01*
X42577379Y-41840026D01*
X42650238Y-41941700D01*
X42741532Y-42027206D01*
X42847754Y-42093259D01*
X42964821Y-42137320D01*
X43088234Y-42157696D01*
X43213251Y-42153603D01*
X43230140Y-42149665D01*
X46383040Y-42149665D01*
X46383040Y-42432335D01*
X46438187Y-42709574D01*
X46546360Y-42970727D01*
X46703403Y-43205759D01*
X46903281Y-43405637D01*
X47138313Y-43562680D01*
X47399466Y-43670853D01*
X47676705Y-43726000D01*
X47959375Y-43726000D01*
X48236614Y-43670853D01*
X48497767Y-43562680D01*
X48732799Y-43405637D01*
X48932677Y-43205759D01*
X49089720Y-42970727D01*
X49197893Y-42709574D01*
X49253040Y-42432335D01*
X49253040Y-42149665D01*
X49197893Y-41872426D01*
X49089720Y-41611273D01*
X48932677Y-41376241D01*
X48732799Y-41176363D01*
X48497767Y-41019320D01*
X48236614Y-40911147D01*
X47959375Y-40856000D01*
X47676705Y-40856000D01*
X47399466Y-40911147D01*
X47138313Y-41019320D01*
X46903281Y-41176363D01*
X46703403Y-41376241D01*
X46546360Y-41611273D01*
X46438187Y-41872426D01*
X46383040Y-42149665D01*
X43230140Y-42149665D01*
X43335067Y-42125200D01*
X43449002Y-42073577D01*
X44791342Y-41298577D01*
X44893016Y-41225718D01*
X44978522Y-41134424D01*
X45044575Y-41028202D01*
X45088636Y-40911135D01*
X45109012Y-40787722D01*
X45104919Y-40662705D01*
X45076516Y-40540889D01*
X45024893Y-40426954D01*
X44249893Y-39084614D01*
X44177034Y-38982940D01*
X44085740Y-38897434D01*
X43979518Y-38831381D01*
X43862451Y-38787320D01*
X43739038Y-38766944D01*
X43614021Y-38771037D01*
X43492205Y-38799440D01*
X43378270Y-38851063D01*
X42035930Y-39626063D01*
X41934256Y-39698922D01*
X41848750Y-39790216D01*
X41782697Y-39896438D01*
X41738636Y-40013505D01*
X41718260Y-40136918D01*
X41054017Y-40136918D01*
X41090800Y-39951999D01*
X41090800Y-39748121D01*
X41051026Y-39548162D01*
X41029667Y-39496597D01*
X41716537Y-37108818D01*
X44749829Y-33915503D01*
X44756249Y-33910786D01*
X44806588Y-33855749D01*
X44829542Y-33831584D01*
X44834416Y-33825324D01*
X44867684Y-33788951D01*
X44885008Y-33760342D01*
X44905560Y-33733945D01*
X44927677Y-33689880D01*
X44953209Y-33647717D01*
X44964619Y-33616279D01*
X44979626Y-33586379D01*
X44992721Y-33538845D01*
X45009537Y-33492512D01*
X45014594Y-33459452D01*
X45023480Y-33427198D01*
X45027050Y-33378023D01*
X45028248Y-33370193D01*
X45030032Y-33336953D01*
X45035436Y-33262521D01*
X45034451Y-33254612D01*
X45363220Y-27129020D01*
X45364805Y-27126647D01*
X46948599Y-28852699D01*
X46956463Y-28864700D01*
X47004298Y-28913401D01*
X47022533Y-28933274D01*
X47033176Y-28942802D01*
X47043173Y-28952980D01*
X47063841Y-28970255D01*
X47114728Y-29015810D01*
X47127086Y-29023115D01*
X48324263Y-30023714D01*
X48334114Y-30073238D01*
X48412135Y-30261596D01*
X48525403Y-30431114D01*
X48669566Y-30575277D01*
X48839084Y-30688545D01*
X49027442Y-30766566D01*
X49066312Y-30774298D01*
X49341654Y-31111372D01*
X50361480Y-33030764D01*
X50373824Y-33060364D01*
X50221009Y-32907549D01*
X49994166Y-32755977D01*
X49742112Y-32651573D01*
X49474534Y-32598348D01*
X49201712Y-32598348D01*
X48934134Y-32651573D01*
X48682080Y-32755977D01*
X48455237Y-32907549D01*
X48262324Y-33100462D01*
X48110752Y-33327305D01*
X48006348Y-33579359D01*
X47953123Y-33846937D01*
X47953123Y-34119759D01*
X48006348Y-34387337D01*
X48110752Y-34639391D01*
X48262324Y-34866234D01*
X48455237Y-35059147D01*
X48682080Y-35210719D01*
X48934134Y-35315123D01*
X49201712Y-35368348D01*
X49474534Y-35368348D01*
X49742112Y-35315123D01*
X49948610Y-35229589D01*
X49898876Y-35479617D01*
X49898876Y-35752439D01*
X49952101Y-36020017D01*
X50056505Y-36272071D01*
X50208077Y-36498914D01*
X50400990Y-36691827D01*
X50627833Y-36843399D01*
X50879887Y-36947803D01*
X51147465Y-37001028D01*
X51420287Y-37001028D01*
X51670339Y-36951289D01*
X51613590Y-37034247D01*
X51564465Y-37149280D01*
X51538725Y-37271687D01*
X51537361Y-37396764D01*
X51560424Y-37519703D01*
X51607028Y-37635781D01*
X51675383Y-37740536D01*
X51762860Y-37829944D01*
X52911927Y-38794125D01*
X53015167Y-38864748D01*
X53130200Y-38913873D01*
X53252607Y-38939613D01*
X53377684Y-38940977D01*
X53500623Y-38917914D01*
X53616701Y-38871310D01*
X53721456Y-38802955D01*
X53810864Y-38715478D01*
X53888987Y-38622374D01*
X53844520Y-40725684D01*
X53841696Y-40741187D01*
X53842778Y-40808084D01*
X53842238Y-40833623D01*
X53843444Y-40849242D01*
X53844366Y-40906275D01*
X53849784Y-40931384D01*
X53851761Y-40956998D01*
X53867161Y-41011917D01*
X53879191Y-41067671D01*
X53889404Y-41091243D01*
X53896340Y-41115977D01*
X53922159Y-41166839D01*
X53944834Y-41219172D01*
X53959447Y-41240295D01*
X53971077Y-41263205D01*
X54006321Y-41308050D01*
X54015235Y-41320935D01*
X54031767Y-41340428D01*
X54073101Y-41393022D01*
X54085063Y-41403270D01*
X54310620Y-41669225D01*
X54269604Y-41686215D01*
X54100086Y-41799483D01*
X53955923Y-41943646D01*
X53842655Y-42113164D01*
X53764634Y-42301522D01*
X53724860Y-42501481D01*
X53724860Y-42705359D01*
X53764373Y-42904008D01*
X53735728Y-42904574D01*
X53717662Y-42902149D01*
X53653357Y-42906201D01*
X53630265Y-42906657D01*
X53612257Y-42908791D01*
X53552878Y-42912532D01*
X53530436Y-42918485D01*
X53507382Y-42921216D01*
X53450806Y-42939606D01*
X53393285Y-42954863D01*
X53372432Y-42965081D01*
X53350359Y-42972256D01*
X53298457Y-43001330D01*
X53245018Y-43027516D01*
X53226563Y-43041603D01*
X53206309Y-43052949D01*
X53161076Y-43091591D01*
X53113774Y-43127698D01*
X53098419Y-43145119D01*
X53080771Y-43160195D01*
X53043944Y-43206921D01*
X53004597Y-43251560D01*
X52992939Y-43271635D01*
X52978567Y-43289870D01*
X52951560Y-43342890D01*
X52921681Y-43394341D01*
X52914163Y-43416306D01*
X52903625Y-43436994D01*
X52887479Y-43494267D01*
X52881610Y-43511415D01*
X52876312Y-43533879D01*
X52858825Y-43595911D01*
X52857397Y-43614088D01*
X52347828Y-45774832D01*
X49651164Y-47887067D01*
X49633227Y-47897265D01*
X49586292Y-47937879D01*
X49570007Y-47950635D01*
X49555182Y-47964800D01*
X49508372Y-48005306D01*
X49495588Y-48021740D01*
X49480539Y-48036119D01*
X49445001Y-48086771D01*
X49432395Y-48102976D01*
X49421340Y-48120495D01*
X49385708Y-48171280D01*
X49377384Y-48190148D01*
X48136962Y-50155779D01*
X46048083Y-52971693D01*
X45864744Y-53047635D01*
X45695226Y-53160903D01*
X45551063Y-53305066D01*
X45437795Y-53474584D01*
X45359774Y-53662942D01*
X45320000Y-53862901D01*
X45320000Y-54066779D01*
X45359774Y-54266738D01*
X45437795Y-54455096D01*
X45551063Y-54624614D01*
X45695226Y-54768777D01*
X45864744Y-54882045D01*
X46053102Y-54960066D01*
X46253061Y-54999840D01*
X46456939Y-54999840D01*
X46656898Y-54960066D01*
X46845256Y-54882045D01*
X47014774Y-54768777D01*
X47158937Y-54624614D01*
X47272205Y-54455096D01*
X47350226Y-54266738D01*
X47390000Y-54066779D01*
X47390000Y-54052616D01*
X49584314Y-54052616D01*
X49584314Y-54330362D01*
X49638500Y-54602771D01*
X49744789Y-54859374D01*
X49899096Y-55090311D01*
X50095492Y-55286707D01*
X50326429Y-55441014D01*
X50583032Y-55547303D01*
X50855441Y-55601489D01*
X51133187Y-55601489D01*
X51405596Y-55547303D01*
X51662199Y-55441014D01*
X51893136Y-55286707D01*
X52089532Y-55090311D01*
X52243839Y-54859374D01*
X52350128Y-54602771D01*
X52404314Y-54330362D01*
X52404314Y-54052616D01*
X52350128Y-53780207D01*
X52243839Y-53523604D01*
X52172268Y-53416489D01*
X54581242Y-53416489D01*
X54584314Y-53905739D01*
X54743064Y-54064489D01*
X55867314Y-54064489D01*
X55867314Y-52940239D01*
X56121314Y-52940239D01*
X56121314Y-54064489D01*
X57245564Y-54064489D01*
X57404314Y-53905739D01*
X57407386Y-53416489D01*
X57395126Y-53292007D01*
X57358816Y-53172309D01*
X57299851Y-53061995D01*
X57220499Y-52965304D01*
X57123808Y-52885952D01*
X57013494Y-52826987D01*
X56893796Y-52790677D01*
X56769314Y-52778417D01*
X56280064Y-52781489D01*
X56121314Y-52940239D01*
X55867314Y-52940239D01*
X55708564Y-52781489D01*
X55219314Y-52778417D01*
X55094832Y-52790677D01*
X54975134Y-52826987D01*
X54864820Y-52885952D01*
X54768129Y-52965304D01*
X54688777Y-53061995D01*
X54629812Y-53172309D01*
X54593502Y-53292007D01*
X54581242Y-53416489D01*
X52172268Y-53416489D01*
X52089532Y-53292667D01*
X51893136Y-53096271D01*
X51662199Y-52941964D01*
X51405596Y-52835675D01*
X51133187Y-52781489D01*
X50855441Y-52781489D01*
X50583032Y-52835675D01*
X50326429Y-52941964D01*
X50095492Y-53096271D01*
X49899096Y-53292667D01*
X49744789Y-53523604D01*
X49638500Y-53780207D01*
X49584314Y-54052616D01*
X47390000Y-54052616D01*
X47390000Y-53976495D01*
X49496486Y-51136849D01*
X49515844Y-51111964D01*
X49520959Y-51103859D01*
X49526684Y-51096141D01*
X49542934Y-51069036D01*
X50750568Y-49155365D01*
X50881746Y-49052616D01*
X52084314Y-49052616D01*
X52084314Y-49330362D01*
X52138500Y-49602771D01*
X52244789Y-49859374D01*
X52399096Y-50090311D01*
X52595492Y-50286707D01*
X52826429Y-50441014D01*
X53083032Y-50547303D01*
X53355441Y-50601489D01*
X53633187Y-50601489D01*
X53905596Y-50547303D01*
X54162199Y-50441014D01*
X54393136Y-50286707D01*
X54589532Y-50090311D01*
X54743839Y-49859374D01*
X54850128Y-49602771D01*
X54904314Y-49330362D01*
X54904314Y-49052616D01*
X54850128Y-48780207D01*
X54743839Y-48523604D01*
X54589532Y-48292667D01*
X54393136Y-48096271D01*
X54162199Y-47941964D01*
X53905596Y-47835675D01*
X53633187Y-47781489D01*
X53355441Y-47781489D01*
X53083032Y-47835675D01*
X52826429Y-47941964D01*
X52595492Y-48096271D01*
X52399096Y-48292667D01*
X52244789Y-48523604D01*
X52138500Y-48780207D01*
X52084314Y-49052616D01*
X50881746Y-49052616D01*
X53609018Y-46916410D01*
X53670365Y-46869582D01*
X53701186Y-46834616D01*
X53734901Y-46802402D01*
X53755656Y-46772820D01*
X53779543Y-46745721D01*
X53802950Y-46705414D01*
X53829733Y-46667241D01*
X53844320Y-46634175D01*
X53862459Y-46602939D01*
X53877553Y-46558840D01*
X53896374Y-46516175D01*
X53913184Y-46440686D01*
X54354567Y-44569076D01*
X56755062Y-44521659D01*
X56760633Y-44522022D01*
X56796191Y-44520846D01*
X56831795Y-44520143D01*
X56837344Y-44519486D01*
X59946991Y-44416667D01*
X59983703Y-44415841D01*
X59988106Y-44415307D01*
X59992526Y-44415161D01*
X60028836Y-44410368D01*
X65751682Y-43716460D01*
X65800317Y-43714519D01*
X65873492Y-43696903D01*
X65946956Y-43680565D01*
X65991495Y-43660932D01*
X68710649Y-42716120D01*
X68784025Y-42691625D01*
X68824415Y-42668577D01*
X68866643Y-42649078D01*
X68895954Y-42627754D01*
X68927430Y-42609793D01*
X68962549Y-42579307D01*
X69000160Y-42551945D01*
X69024749Y-42525312D01*
X69052115Y-42501556D01*
X69080608Y-42464809D01*
X69112163Y-42430631D01*
X69131085Y-42399711D01*
X69153289Y-42371074D01*
X69174066Y-42329473D01*
X69198345Y-42289798D01*
X69210870Y-42255781D01*
X69227062Y-42223362D01*
X69239323Y-42178510D01*
X69255397Y-42134857D01*
X69261045Y-42099050D01*
X69270601Y-42064095D01*
X69273877Y-42017704D01*
X69281124Y-41971763D01*
X69279679Y-41935549D01*
X69282232Y-41899394D01*
X69276395Y-41853256D01*
X69274540Y-41806783D01*
X69256421Y-41731520D01*
X69209579Y-41525931D01*
X69252646Y-41421958D01*
X69292420Y-41221999D01*
X69292420Y-41018121D01*
X69252646Y-40818162D01*
X69174625Y-40629804D01*
X69174116Y-40629043D01*
X69225124Y-40663125D01*
X69413482Y-40741146D01*
X69613441Y-40780920D01*
X69817319Y-40780920D01*
X70017278Y-40741146D01*
X70127417Y-40695525D01*
X69730395Y-41383187D01*
X69678772Y-41497122D01*
X69650369Y-41618938D01*
X69646276Y-41743955D01*
X69666652Y-41867368D01*
X69710713Y-41984435D01*
X69776766Y-42090657D01*
X69862272Y-42181951D01*
X69963946Y-42254810D01*
X71306286Y-43029810D01*
X71420221Y-43081433D01*
X71542037Y-43109836D01*
X71667054Y-43113929D01*
X71790467Y-43093553D01*
X71907534Y-43049492D01*
X72013756Y-42983439D01*
X72105050Y-42897933D01*
X72177909Y-42796259D01*
X72860130Y-41614616D01*
X75511779Y-41614616D01*
X75511779Y-41892362D01*
X75565965Y-42164771D01*
X75672254Y-42421374D01*
X75826561Y-42652311D01*
X76022957Y-42848707D01*
X76253894Y-43003014D01*
X76510497Y-43109303D01*
X76782906Y-43163489D01*
X77060652Y-43163489D01*
X77333061Y-43109303D01*
X77589664Y-43003014D01*
X77820601Y-42848707D01*
X78016997Y-42652311D01*
X78171304Y-42421374D01*
X78277593Y-42164771D01*
X78331779Y-41892362D01*
X78331779Y-41614616D01*
X78277593Y-41342207D01*
X78171304Y-41085604D01*
X78016997Y-40854667D01*
X77820601Y-40658271D01*
X77589664Y-40503964D01*
X77333061Y-40397675D01*
X77060652Y-40343489D01*
X76782906Y-40343489D01*
X76510497Y-40397675D01*
X76253894Y-40503964D01*
X76022957Y-40658271D01*
X75826561Y-40854667D01*
X75672254Y-41085604D01*
X75565965Y-41342207D01*
X75511779Y-41614616D01*
X72860130Y-41614616D01*
X72952909Y-41453919D01*
X73004532Y-41339984D01*
X73032935Y-41218168D01*
X73037028Y-41093151D01*
X73016652Y-40969738D01*
X72972591Y-40852671D01*
X72906538Y-40746449D01*
X72821032Y-40655155D01*
X72719358Y-40582296D01*
X71377018Y-39807296D01*
X71263083Y-39755673D01*
X71141267Y-39727270D01*
X71016250Y-39723177D01*
X70892837Y-39743553D01*
X70775770Y-39787614D01*
X70750380Y-39803402D01*
X70750380Y-39643981D01*
X70710606Y-39444022D01*
X70632585Y-39255664D01*
X70519317Y-39086146D01*
X70375154Y-38941983D01*
X70205636Y-38828715D01*
X70017278Y-38750694D01*
X69817319Y-38710920D01*
X69613441Y-38710920D01*
X69413482Y-38750694D01*
X69281004Y-38805568D01*
X69297500Y-38722639D01*
X69297500Y-38674158D01*
X69779531Y-38078478D01*
X69814078Y-38071606D01*
X70002436Y-37993585D01*
X70171954Y-37880317D01*
X70316117Y-37736154D01*
X70429385Y-37566636D01*
X70507406Y-37378278D01*
X70547180Y-37178319D01*
X70547180Y-36974441D01*
X70542230Y-36949553D01*
X72431652Y-36949553D01*
X72431652Y-37227299D01*
X72485838Y-37499708D01*
X72592127Y-37756311D01*
X72746434Y-37987248D01*
X72942830Y-38183644D01*
X73173767Y-38337951D01*
X73430370Y-38444240D01*
X73702779Y-38498426D01*
X73980525Y-38498426D01*
X74252934Y-38444240D01*
X74509537Y-38337951D01*
X74740474Y-38183644D01*
X74936870Y-37987248D01*
X75091177Y-37756311D01*
X75197466Y-37499708D01*
X75251652Y-37227299D01*
X75251652Y-36949553D01*
X75197466Y-36677144D01*
X75169955Y-36610727D01*
X75186490Y-36614582D01*
X75311507Y-36618675D01*
X75434920Y-36598299D01*
X75551987Y-36554238D01*
X75658209Y-36488185D01*
X75749503Y-36402679D01*
X75822362Y-36301005D01*
X76504583Y-35119362D01*
X79156232Y-35119362D01*
X79156232Y-35397108D01*
X79210418Y-35669517D01*
X79316707Y-35926120D01*
X79471014Y-36157057D01*
X79667410Y-36353453D01*
X79898347Y-36507760D01*
X80154950Y-36614049D01*
X80427359Y-36668235D01*
X80705105Y-36668235D01*
X80977514Y-36614049D01*
X81234117Y-36507760D01*
X81465054Y-36353453D01*
X81661450Y-36157057D01*
X81815757Y-35926120D01*
X81922046Y-35669517D01*
X81970240Y-35427228D01*
X82464544Y-35427228D01*
X82484920Y-35550641D01*
X82528981Y-35667708D01*
X82595034Y-35773930D01*
X82680540Y-35865224D01*
X82782214Y-35938083D01*
X84124554Y-36713083D01*
X84238489Y-36764706D01*
X84360305Y-36793109D01*
X84485322Y-36797202D01*
X84608735Y-36776826D01*
X84725802Y-36732765D01*
X84832024Y-36666712D01*
X84923318Y-36581206D01*
X84996177Y-36479532D01*
X85678398Y-35297889D01*
X88330047Y-35297889D01*
X88330047Y-35575635D01*
X88384233Y-35848044D01*
X88490522Y-36104647D01*
X88644829Y-36335584D01*
X88841225Y-36531980D01*
X89072162Y-36686287D01*
X89328765Y-36792576D01*
X89601174Y-36846762D01*
X89878920Y-36846762D01*
X90151329Y-36792576D01*
X90407932Y-36686287D01*
X90638869Y-36531980D01*
X90835265Y-36335584D01*
X90989572Y-36104647D01*
X91095861Y-35848044D01*
X91150047Y-35575635D01*
X91150047Y-35297889D01*
X91095861Y-35025480D01*
X90989572Y-34768877D01*
X90835265Y-34537940D01*
X90638869Y-34341544D01*
X90407932Y-34187237D01*
X90151329Y-34080948D01*
X89878920Y-34026762D01*
X89601174Y-34026762D01*
X89328765Y-34080948D01*
X89072162Y-34187237D01*
X88841225Y-34341544D01*
X88644829Y-34537940D01*
X88490522Y-34768877D01*
X88384233Y-35025480D01*
X88330047Y-35297889D01*
X85678398Y-35297889D01*
X85771177Y-35137192D01*
X85822800Y-35023257D01*
X85851203Y-34901441D01*
X85855296Y-34776424D01*
X85834920Y-34653011D01*
X85790859Y-34535944D01*
X85724806Y-34429722D01*
X85639300Y-34338428D01*
X85537626Y-34265569D01*
X84195286Y-33490569D01*
X84081351Y-33438946D01*
X83959535Y-33410543D01*
X83834518Y-33406450D01*
X83711105Y-33426826D01*
X83594038Y-33470887D01*
X83487816Y-33536940D01*
X83396522Y-33622446D01*
X83323663Y-33724120D01*
X82548663Y-35066460D01*
X82497040Y-35180395D01*
X82468637Y-35302211D01*
X82464544Y-35427228D01*
X81970240Y-35427228D01*
X81976232Y-35397108D01*
X81976232Y-35119362D01*
X81922046Y-34846953D01*
X81815757Y-34590350D01*
X81661450Y-34359413D01*
X81465054Y-34163017D01*
X81234117Y-34008710D01*
X80977514Y-33902421D01*
X80705105Y-33848235D01*
X80427359Y-33848235D01*
X80154950Y-33902421D01*
X79898347Y-34008710D01*
X79667410Y-34163017D01*
X79471014Y-34359413D01*
X79316707Y-34590350D01*
X79210418Y-34846953D01*
X79156232Y-35119362D01*
X76504583Y-35119362D01*
X76597362Y-34958665D01*
X76648985Y-34844730D01*
X76677388Y-34722914D01*
X76681481Y-34597897D01*
X76661105Y-34474484D01*
X76617044Y-34357417D01*
X76550991Y-34251195D01*
X76465485Y-34159901D01*
X76363811Y-34087042D01*
X75021471Y-33312042D01*
X74907536Y-33260419D01*
X74785720Y-33232016D01*
X74660703Y-33227923D01*
X74537290Y-33248299D01*
X74420223Y-33292360D01*
X74314001Y-33358413D01*
X74222707Y-33443919D01*
X74149848Y-33545593D01*
X73374848Y-34887933D01*
X73323225Y-35001868D01*
X73294822Y-35123684D01*
X73290729Y-35248701D01*
X73311105Y-35372114D01*
X73355166Y-35489181D01*
X73421219Y-35595403D01*
X73506725Y-35686697D01*
X73540288Y-35710748D01*
X73430370Y-35732612D01*
X73173767Y-35838901D01*
X72942830Y-35993208D01*
X72746434Y-36189604D01*
X72592127Y-36420541D01*
X72485838Y-36677144D01*
X72431652Y-36949553D01*
X70542230Y-36949553D01*
X70507406Y-36774482D01*
X70429385Y-36586124D01*
X70316117Y-36416606D01*
X70171954Y-36272443D01*
X70002436Y-36159175D01*
X69814078Y-36081154D01*
X69614119Y-36041380D01*
X69410241Y-36041380D01*
X69210282Y-36081154D01*
X69021924Y-36159175D01*
X68852406Y-36272443D01*
X68708243Y-36416606D01*
X68594975Y-36586124D01*
X68516954Y-36774482D01*
X68477180Y-36974441D01*
X68477180Y-37022922D01*
X67995149Y-37618602D01*
X67960602Y-37625474D01*
X67772244Y-37703495D01*
X67602726Y-37816763D01*
X67458563Y-37960926D01*
X67345295Y-38130444D01*
X67267274Y-38318802D01*
X67262242Y-38344101D01*
X66414242Y-38409656D01*
X66399964Y-38408436D01*
X66332088Y-38416007D01*
X66305187Y-38418087D01*
X66291146Y-38420574D01*
X66276985Y-38422154D01*
X66250607Y-38427756D01*
X66183342Y-38439672D01*
X66169989Y-38444877D01*
X65043582Y-38684093D01*
X65042041Y-38684271D01*
X65003129Y-38692684D01*
X64964543Y-38700879D01*
X64963078Y-38701344D01*
X64123029Y-38882977D01*
X64102958Y-38884268D01*
X64042493Y-38900390D01*
X64021761Y-38904873D01*
X64002723Y-38910995D01*
X63943421Y-38926807D01*
X63924275Y-38936220D01*
X63903960Y-38942752D01*
X63850319Y-38972578D01*
X63795249Y-38999652D01*
X63778306Y-39012620D01*
X63759656Y-39022990D01*
X63712863Y-39062709D01*
X63664135Y-39100005D01*
X63650048Y-39116028D01*
X63633779Y-39129838D01*
X63595637Y-39177919D01*
X63555118Y-39224008D01*
X63544426Y-39242475D01*
X63531166Y-39259190D01*
X63503139Y-39313783D01*
X63472387Y-39366897D01*
X63465504Y-39387093D01*
X63455759Y-39406075D01*
X63438919Y-39465097D01*
X63419123Y-39523180D01*
X63416312Y-39544328D01*
X63410457Y-39564850D01*
X63405455Y-39626021D01*
X63402821Y-39645844D01*
X63402101Y-39667051D01*
X63397002Y-39729411D01*
X63399304Y-39749386D01*
X63360598Y-40889079D01*
X61904607Y-41195211D01*
X61901982Y-41195256D01*
X61823932Y-41212174D01*
X61786105Y-41220127D01*
X61783611Y-41220913D01*
X61740619Y-41230232D01*
X61705063Y-41245677D01*
X61668090Y-41257334D01*
X61629524Y-41278491D01*
X61589179Y-41296017D01*
X61557316Y-41318104D01*
X61523332Y-41336748D01*
X61489641Y-41365017D01*
X61453484Y-41390081D01*
X61426539Y-41417963D01*
X61396847Y-41442877D01*
X61369320Y-41477173D01*
X61367494Y-41479063D01*
X61343369Y-41509506D01*
X61294543Y-41570340D01*
X61270242Y-41575174D01*
X61081884Y-41653195D01*
X60912366Y-41766463D01*
X60768203Y-41910626D01*
X60654935Y-42080144D01*
X60576914Y-42268502D01*
X60537140Y-42468461D01*
X60537140Y-42660058D01*
X59859261Y-42742253D01*
X57745580Y-42812140D01*
X57745580Y-42704681D01*
X57705806Y-42504722D01*
X57627785Y-42316364D01*
X57514517Y-42146846D01*
X57370354Y-42002683D01*
X57200836Y-41889415D01*
X57012478Y-41811394D01*
X56812519Y-41771620D01*
X56783110Y-41771620D01*
X56125856Y-41217771D01*
X55525847Y-40510298D01*
X55558264Y-38976971D01*
X55941244Y-38821840D01*
X56637011Y-38747161D01*
X56664824Y-38765745D01*
X56853182Y-38843766D01*
X57053141Y-38883540D01*
X57257019Y-38883540D01*
X57456978Y-38843766D01*
X57645336Y-38765745D01*
X57814854Y-38652477D01*
X57959017Y-38508314D01*
X58030106Y-38401921D01*
X61169600Y-38401921D01*
X61169600Y-38605799D01*
X61209374Y-38805758D01*
X61287395Y-38994116D01*
X61400663Y-39163634D01*
X61544826Y-39307797D01*
X61714344Y-39421065D01*
X61902702Y-39499086D01*
X62102661Y-39538860D01*
X62306539Y-39538860D01*
X62506498Y-39499086D01*
X62694856Y-39421065D01*
X62864374Y-39307797D01*
X63008537Y-39163634D01*
X63121805Y-38994116D01*
X63199826Y-38805758D01*
X63239600Y-38605799D01*
X63239600Y-38401921D01*
X63199826Y-38201962D01*
X63121805Y-38013604D01*
X63103309Y-37985922D01*
X63268214Y-36451962D01*
X63672595Y-35518776D01*
X64321332Y-35382200D01*
X64249670Y-35742472D01*
X64249670Y-36113722D01*
X64322097Y-36477838D01*
X64464168Y-36820828D01*
X64670424Y-37129510D01*
X64932937Y-37392023D01*
X65241619Y-37598279D01*
X65584609Y-37740350D01*
X65948725Y-37812777D01*
X66319975Y-37812777D01*
X66684091Y-37740350D01*
X67027081Y-37598279D01*
X67335763Y-37392023D01*
X67598276Y-37129510D01*
X67804532Y-36820828D01*
X67946603Y-36477838D01*
X68019030Y-36113722D01*
X68019030Y-35742472D01*
X67946603Y-35378356D01*
X67804532Y-35035366D01*
X67598276Y-34726684D01*
X67335763Y-34464171D01*
X67156038Y-34344082D01*
X68182879Y-33799228D01*
X69551172Y-33350994D01*
X70426992Y-33150623D01*
X70549126Y-33272757D01*
X70718644Y-33386025D01*
X70907002Y-33464046D01*
X71106961Y-33503820D01*
X71310839Y-33503820D01*
X71510798Y-33464046D01*
X71699156Y-33386025D01*
X71868674Y-33272757D01*
X72012837Y-33128594D01*
X72126105Y-32959076D01*
X72204126Y-32770718D01*
X72243900Y-32570759D01*
X72243900Y-32366881D01*
X72204126Y-32166922D01*
X72126105Y-31978564D01*
X72012837Y-31809046D01*
X71868674Y-31664883D01*
X71699156Y-31551615D01*
X71510798Y-31473594D01*
X71311178Y-31433887D01*
X71330278Y-31405302D01*
X71436567Y-31148699D01*
X71490753Y-30876290D01*
X71490753Y-30598544D01*
X71462061Y-30454299D01*
X76076105Y-30454299D01*
X76076105Y-30732045D01*
X76130291Y-31004454D01*
X76236580Y-31261057D01*
X76390887Y-31491994D01*
X76587283Y-31688390D01*
X76818220Y-31842697D01*
X77074823Y-31948986D01*
X77347232Y-32003172D01*
X77624978Y-32003172D01*
X77897387Y-31948986D01*
X78153990Y-31842697D01*
X78384927Y-31688390D01*
X78581323Y-31491994D01*
X78735630Y-31261057D01*
X78841919Y-31004454D01*
X78896105Y-30732045D01*
X78896105Y-30632826D01*
X85249920Y-30632826D01*
X85249920Y-30910572D01*
X85304106Y-31182981D01*
X85410395Y-31439584D01*
X85564702Y-31670521D01*
X85761098Y-31866917D01*
X85992035Y-32021224D01*
X86248638Y-32127513D01*
X86521047Y-32181699D01*
X86798793Y-32181699D01*
X87071202Y-32127513D01*
X87327805Y-32021224D01*
X87558742Y-31866917D01*
X87755138Y-31670521D01*
X87909445Y-31439584D01*
X88015734Y-31182981D01*
X88069920Y-30910572D01*
X88069920Y-30632826D01*
X88015734Y-30360417D01*
X87909445Y-30103814D01*
X87755138Y-29872877D01*
X87558742Y-29676481D01*
X87327805Y-29522174D01*
X87071202Y-29415885D01*
X86798793Y-29361699D01*
X86521047Y-29361699D01*
X86248638Y-29415885D01*
X85992035Y-29522174D01*
X85761098Y-29676481D01*
X85564702Y-29872877D01*
X85410395Y-30103814D01*
X85304106Y-30360417D01*
X85249920Y-30632826D01*
X78896105Y-30632826D01*
X78896105Y-30454299D01*
X78841919Y-30181890D01*
X78735630Y-29925287D01*
X78581323Y-29694350D01*
X78384927Y-29497954D01*
X78153990Y-29343647D01*
X77897387Y-29237358D01*
X77624978Y-29183172D01*
X77347232Y-29183172D01*
X77074823Y-29237358D01*
X76818220Y-29343647D01*
X76587283Y-29497954D01*
X76390887Y-29694350D01*
X76236580Y-29925287D01*
X76130291Y-30181890D01*
X76076105Y-30454299D01*
X71462061Y-30454299D01*
X71436567Y-30326135D01*
X71330278Y-30069532D01*
X71175971Y-29838595D01*
X70979575Y-29642199D01*
X70748638Y-29487892D01*
X70492035Y-29381603D01*
X70219626Y-29327417D01*
X69941880Y-29327417D01*
X69669471Y-29381603D01*
X69412868Y-29487892D01*
X69181931Y-29642199D01*
X68985535Y-29838595D01*
X68831228Y-30069532D01*
X68724939Y-30326135D01*
X68670753Y-30598544D01*
X68670753Y-30876290D01*
X68724939Y-31148699D01*
X68831228Y-31405302D01*
X68985535Y-31636239D01*
X69087838Y-31738542D01*
X69063339Y-31746745D01*
X67641769Y-32212432D01*
X67611516Y-32218354D01*
X67563506Y-32238069D01*
X67553498Y-32241348D01*
X67525442Y-32253700D01*
X67497050Y-32265360D01*
X67487735Y-32270303D01*
X67440247Y-32291211D01*
X67415005Y-32308894D01*
X65200411Y-33483985D01*
X62954688Y-33956769D01*
X62924914Y-33959215D01*
X62874091Y-33973737D01*
X62862856Y-33976102D01*
X62834528Y-33985041D01*
X62766157Y-34004577D01*
X62755872Y-34009862D01*
X62744850Y-34013340D01*
X62682542Y-34047542D01*
X62619300Y-34080039D01*
X62610245Y-34087228D01*
X62600112Y-34092790D01*
X62545670Y-34138495D01*
X62489987Y-34182702D01*
X62482508Y-34191520D01*
X62473655Y-34198952D01*
X62429177Y-34254398D01*
X62383188Y-34308619D01*
X62377573Y-34318726D01*
X62370339Y-34327744D01*
X62337528Y-34390809D01*
X62323095Y-34416790D01*
X62318527Y-34427331D01*
X62294134Y-34474217D01*
X62285782Y-34502897D01*
X61710942Y-35829451D01*
X61709208Y-35831997D01*
X61678174Y-35905070D01*
X61662976Y-35940142D01*
X61662037Y-35943066D01*
X61644665Y-35983970D01*
X61636856Y-36021479D01*
X61625141Y-36057958D01*
X61620069Y-36102109D01*
X61619443Y-36105114D01*
X61615361Y-36143087D01*
X61606296Y-36221989D01*
X61606548Y-36225061D01*
X61436333Y-37808416D01*
X61400663Y-37844086D01*
X61287395Y-38013604D01*
X61209374Y-38201962D01*
X61169600Y-38401921D01*
X58030106Y-38401921D01*
X58072285Y-38338796D01*
X58150306Y-38150438D01*
X58190080Y-37950479D01*
X58190080Y-37746601D01*
X58150306Y-37546642D01*
X58072285Y-37358284D01*
X57959017Y-37188766D01*
X57814854Y-37044603D01*
X57645336Y-36931335D01*
X57456978Y-36853314D01*
X57257019Y-36813540D01*
X57053141Y-36813540D01*
X56853182Y-36853314D01*
X56715575Y-36910313D01*
X56771086Y-36776298D01*
X56810860Y-36576339D01*
X56810860Y-36372461D01*
X56771086Y-36172502D01*
X56693065Y-35984144D01*
X56579797Y-35814626D01*
X56435634Y-35670463D01*
X56266116Y-35557195D01*
X56077758Y-35479174D01*
X55877799Y-35439400D01*
X55833675Y-35439400D01*
X51781017Y-32129620D01*
X50802562Y-30288094D01*
X50786787Y-30249762D01*
X50738902Y-30177740D01*
X50695474Y-30112395D01*
X50666240Y-30083016D01*
X50364340Y-29713430D01*
X50364340Y-29669401D01*
X50324566Y-29469442D01*
X50246545Y-29281084D01*
X50133277Y-29111566D01*
X49989114Y-28967403D01*
X49819596Y-28854135D01*
X49631238Y-28776114D01*
X49431279Y-28736340D01*
X49398036Y-28736340D01*
X49246585Y-28609757D01*
X64337468Y-28609757D01*
X64579433Y-29034996D01*
X64652291Y-29136670D01*
X64743586Y-29222177D01*
X64849808Y-29288229D01*
X64966874Y-29332290D01*
X65090287Y-29352665D01*
X65215304Y-29348573D01*
X65337121Y-29320170D01*
X65451055Y-29268546D01*
X65873222Y-29021261D01*
X65931329Y-28804404D01*
X65369204Y-27830775D01*
X64395575Y-28392900D01*
X64337468Y-28609757D01*
X49246585Y-28609757D01*
X48192402Y-27728674D01*
X47460729Y-26931281D01*
X49112220Y-26931281D01*
X49112220Y-27135159D01*
X49151994Y-27335118D01*
X49230015Y-27523476D01*
X49343283Y-27692994D01*
X49487446Y-27837157D01*
X49656964Y-27950425D01*
X49845322Y-28028446D01*
X50045281Y-28068220D01*
X50249159Y-28068220D01*
X50449118Y-28028446D01*
X50637476Y-27950425D01*
X50806994Y-27837157D01*
X50951157Y-27692994D01*
X51064425Y-27523476D01*
X51093643Y-27452938D01*
X51302117Y-27331888D01*
X63720314Y-27331888D01*
X63724406Y-27456905D01*
X63752809Y-27578722D01*
X63804433Y-27692656D01*
X64051718Y-28114823D01*
X64268575Y-28172930D01*
X65081175Y-27703775D01*
X65589174Y-27703775D01*
X66151299Y-28677404D01*
X66368156Y-28735511D01*
X66793395Y-28493546D01*
X66895069Y-28420688D01*
X66980576Y-28329393D01*
X67046628Y-28223171D01*
X67090689Y-28106105D01*
X67111064Y-27982692D01*
X67106972Y-27857675D01*
X67078569Y-27735858D01*
X67026945Y-27621924D01*
X66779660Y-27199757D01*
X66562803Y-27141650D01*
X65589174Y-27703775D01*
X65081175Y-27703775D01*
X65242204Y-27610805D01*
X64680079Y-26637176D01*
X64463222Y-26579069D01*
X64037983Y-26821034D01*
X63936309Y-26893892D01*
X63850802Y-26985187D01*
X63784750Y-27091409D01*
X63740689Y-27208475D01*
X63720314Y-27331888D01*
X51302117Y-27331888D01*
X52205978Y-26807066D01*
X52226355Y-26796386D01*
X52241538Y-26786419D01*
X52257252Y-26777294D01*
X52275931Y-26763839D01*
X52662312Y-26510176D01*
X64900049Y-26510176D01*
X65462174Y-27483805D01*
X66435803Y-26921680D01*
X66493910Y-26704823D01*
X66251945Y-26279584D01*
X66179087Y-26177910D01*
X66087792Y-26092403D01*
X65981570Y-26026351D01*
X65864504Y-25982290D01*
X65741091Y-25961915D01*
X65616074Y-25966007D01*
X65494257Y-25994410D01*
X65380323Y-26046034D01*
X64958156Y-26293319D01*
X64900049Y-26510176D01*
X52662312Y-26510176D01*
X54040323Y-25605499D01*
X55335028Y-25017720D01*
X55946554Y-25225700D01*
X55987923Y-25287614D01*
X56132086Y-25431777D01*
X56301604Y-25545045D01*
X56489962Y-25623066D01*
X56689921Y-25662840D01*
X56893799Y-25662840D01*
X57093758Y-25623066D01*
X57282116Y-25545045D01*
X57451634Y-25431777D01*
X57595797Y-25287614D01*
X57709065Y-25118096D01*
X57750353Y-25018417D01*
X68335816Y-25018417D01*
X68335816Y-25296163D01*
X68390002Y-25568572D01*
X68496291Y-25825175D01*
X68650598Y-26056112D01*
X68846994Y-26252508D01*
X69077931Y-26406815D01*
X69334534Y-26513104D01*
X69606943Y-26567290D01*
X69884689Y-26567290D01*
X70157098Y-26513104D01*
X70413701Y-26406815D01*
X70644638Y-26252508D01*
X70841034Y-26056112D01*
X70995341Y-25825175D01*
X71101630Y-25568572D01*
X71155816Y-25296163D01*
X71155816Y-25018417D01*
X71101630Y-24746008D01*
X70995341Y-24489405D01*
X70841034Y-24258468D01*
X70644638Y-24062072D01*
X70413701Y-23907765D01*
X70157098Y-23801476D01*
X69884689Y-23747290D01*
X69606943Y-23747290D01*
X69334534Y-23801476D01*
X69077931Y-23907765D01*
X68846994Y-24062072D01*
X68650598Y-24258468D01*
X68496291Y-24489405D01*
X68390002Y-24746008D01*
X68335816Y-25018417D01*
X57750353Y-25018417D01*
X57787086Y-24929738D01*
X57826860Y-24729779D01*
X57826860Y-24525901D01*
X57787086Y-24325942D01*
X57709065Y-24137584D01*
X57595797Y-23968066D01*
X57451634Y-23823903D01*
X57282116Y-23710635D01*
X57093758Y-23632614D01*
X56893799Y-23592840D01*
X56689921Y-23592840D01*
X56489962Y-23632614D01*
X56480416Y-23636568D01*
X55612097Y-23341251D01*
X55586820Y-23328809D01*
X55534110Y-23314727D01*
X55521633Y-23310484D01*
X55494358Y-23304108D01*
X55427304Y-23286194D01*
X55414062Y-23285336D01*
X55401140Y-23282315D01*
X55331785Y-23280004D01*
X55262538Y-23275517D01*
X55249383Y-23277259D01*
X55236122Y-23276817D01*
X55167657Y-23288080D01*
X55098856Y-23297190D01*
X55086291Y-23301466D01*
X55073201Y-23303619D01*
X55008256Y-23328019D01*
X54981711Y-23337052D01*
X54969698Y-23342506D01*
X54918639Y-23361689D01*
X54894712Y-23376549D01*
X53341556Y-24081662D01*
X53318645Y-24088410D01*
X53266545Y-24115716D01*
X53250656Y-24122930D01*
X53230102Y-24134817D01*
X53209044Y-24145854D01*
X53194441Y-24155441D01*
X53143538Y-24184880D01*
X53125595Y-24200639D01*
X51359980Y-25359783D01*
X50257569Y-25999893D01*
X50249159Y-25998220D01*
X50045281Y-25998220D01*
X49845322Y-26037994D01*
X49656964Y-26116015D01*
X49487446Y-26229283D01*
X49343283Y-26373446D01*
X49230015Y-26542964D01*
X49151994Y-26731322D01*
X49112220Y-26931281D01*
X47460729Y-26931281D01*
X46523893Y-25910299D01*
X46486626Y-25722942D01*
X46408605Y-25534584D01*
X46295337Y-25365066D01*
X46151174Y-25220903D01*
X45981656Y-25107635D01*
X45793298Y-25029614D01*
X45593339Y-24989840D01*
X45389461Y-24989840D01*
X45189502Y-25029614D01*
X45001144Y-25107635D01*
X44831626Y-25220903D01*
X44687463Y-25365066D01*
X44641176Y-25434340D01*
X44457281Y-25434340D01*
X44257322Y-25474114D01*
X44068964Y-25552135D01*
X43899446Y-25665403D01*
X43755283Y-25809566D01*
X43642015Y-25979084D01*
X43563994Y-26167442D01*
X43524220Y-26367401D01*
X43524220Y-26571279D01*
X43563994Y-26771238D01*
X43642015Y-26959596D01*
X43689674Y-27030922D01*
X43373019Y-32930820D01*
X40363172Y-36099455D01*
X40308948Y-36155267D01*
X40283882Y-36193978D01*
X40255560Y-36230356D01*
X40239127Y-36263097D01*
X40219207Y-36293861D01*
X40202172Y-36336725D01*
X40181495Y-36377922D01*
X40160881Y-36452746D01*
X40049761Y-36839035D01*
X39998097Y-36714308D01*
X39843790Y-36483371D01*
X39647394Y-36286975D01*
X39416457Y-36132668D01*
X39159854Y-36026379D01*
X38887445Y-35972193D01*
X38609699Y-35972193D01*
X38337290Y-36026379D01*
X38080687Y-36132668D01*
X37849750Y-36286975D01*
X37653354Y-36483371D01*
X37499047Y-36714308D01*
X37392758Y-36970911D01*
X37338572Y-37243320D01*
X33846815Y-37243320D01*
X33839531Y-37223451D01*
X33799917Y-37158508D01*
X33799917Y-36957744D01*
X33760143Y-36757785D01*
X33682122Y-36569427D01*
X33568854Y-36399909D01*
X33424691Y-36255746D01*
X33255173Y-36142478D01*
X33173617Y-36108696D01*
X33138812Y-36050353D01*
X33300073Y-32959509D01*
X34095302Y-31224890D01*
X34125287Y-31165598D01*
X34140718Y-31110242D01*
X34159437Y-31055889D01*
X34162844Y-31030866D01*
X34169622Y-31006551D01*
X34173957Y-30949249D01*
X34181713Y-30892288D01*
X34177660Y-30825951D01*
X34155632Y-29854257D01*
X34156048Y-29838620D01*
X34194115Y-29885005D01*
X34290806Y-29964357D01*
X34401120Y-30023322D01*
X34520818Y-30059632D01*
X34645300Y-30071892D01*
X36195300Y-30071892D01*
X36319782Y-30059632D01*
X36439480Y-30023322D01*
X36549794Y-29964357D01*
X36646485Y-29885005D01*
X36725837Y-29788314D01*
X36784802Y-29678000D01*
X36821112Y-29558302D01*
X36833372Y-29433820D01*
X36833372Y-27883820D01*
X36821112Y-27759338D01*
X36784802Y-27639640D01*
X36725837Y-27529326D01*
X36646485Y-27432635D01*
X36549794Y-27353283D01*
X36439480Y-27294318D01*
X36319782Y-27258008D01*
X36195300Y-27245748D01*
X34645300Y-27245748D01*
X34520818Y-27258008D01*
X34401120Y-27294318D01*
X34290806Y-27353283D01*
X34194115Y-27432635D01*
X34114763Y-27529326D01*
X34055798Y-27639640D01*
X34019488Y-27759338D01*
X34014396Y-27811045D01*
X34009974Y-27806623D01*
X33840456Y-27693355D01*
X33652098Y-27615334D01*
X33452139Y-27575560D01*
X33248261Y-27575560D01*
X33048302Y-27615334D01*
X32859944Y-27693355D01*
X32690426Y-27806623D01*
X32546263Y-27950786D01*
X32432995Y-28120304D01*
X32354974Y-28308662D01*
X32315200Y-28508621D01*
X32315200Y-28712499D01*
X32354974Y-28912458D01*
X32432995Y-29100816D01*
X32496158Y-29195346D01*
X32479820Y-29809873D01*
X32478263Y-29830458D01*
X32478728Y-29850965D01*
X32478182Y-29871499D01*
X32479661Y-29892119D01*
X32497683Y-30687090D01*
X31729194Y-32363384D01*
X31711069Y-32393417D01*
X31694878Y-32438237D01*
X31692257Y-32443955D01*
X31680885Y-32476974D01*
X31654973Y-32548706D01*
X31654025Y-32554964D01*
X31651963Y-32560952D01*
X31641671Y-32636538D01*
X31636444Y-32671053D01*
X31636116Y-32677335D01*
X31629687Y-32724553D01*
X31631826Y-32759564D01*
X31453543Y-36176659D01*
X31447328Y-36217966D01*
X31451183Y-36299908D01*
X31454970Y-36382091D01*
X31455068Y-36382487D01*
X31455087Y-36382894D01*
X31474914Y-36462751D01*
X31494602Y-36542375D01*
X31494775Y-36542743D01*
X31494873Y-36543139D01*
X31529855Y-36617501D01*
X31564742Y-36691848D01*
X31589525Y-36725477D01*
X31729917Y-36960814D01*
X31729917Y-37161622D01*
X31769691Y-37361581D01*
X31847712Y-37549939D01*
X31960980Y-37719457D01*
X32105143Y-37863620D01*
X32263010Y-37969103D01*
X32276034Y-38197964D01*
X32034072Y-38068632D01*
X31763573Y-37986578D01*
X31552756Y-37965814D01*
X31411772Y-37965814D01*
X31200955Y-37986578D01*
X30930456Y-38068632D01*
X30681163Y-38201882D01*
X30584425Y-38281273D01*
X29114057Y-37872569D01*
X29076082Y-37857806D01*
X29034732Y-37850520D01*
X29034129Y-37850352D01*
X28994065Y-37843354D01*
X28954218Y-37836332D01*
X28953597Y-37836285D01*
X28912233Y-37829059D01*
X28871497Y-37830013D01*
X28627043Y-37811338D01*
X28813469Y-37532334D01*
X28955540Y-37189344D01*
X29027967Y-36825228D01*
X29027967Y-36453978D01*
X28955540Y-36089862D01*
X28813469Y-35746872D01*
X28607213Y-35438190D01*
X28344700Y-35175677D01*
X28036018Y-34969421D01*
X27693028Y-34827350D01*
X27328912Y-34754923D01*
X26957662Y-34754923D01*
X26593546Y-34827350D01*
X26250556Y-34969421D01*
X25941874Y-35175677D01*
X25679361Y-35438190D01*
X25473105Y-35746872D01*
X25331034Y-36089862D01*
X25258607Y-36453978D01*
X25258607Y-36825228D01*
X25331034Y-37189344D01*
X25473105Y-37532334D01*
X25502895Y-37576918D01*
X25475944Y-37577154D01*
X25470442Y-37577745D01*
X25423546Y-37578773D01*
X25388564Y-37586532D01*
X23674544Y-37770498D01*
X23609499Y-37774766D01*
X23552747Y-37789977D01*
X23495227Y-37801942D01*
X23473168Y-37811306D01*
X23450017Y-37817511D01*
X23397318Y-37843504D01*
X23343243Y-37866459D01*
X23323435Y-37879946D01*
X23301939Y-37890549D01*
X23255321Y-37926325D01*
X23206766Y-37959387D01*
X23161091Y-38005868D01*
X22038203Y-39057724D01*
X22005725Y-39082593D01*
X21978112Y-39114014D01*
X21977775Y-39114330D01*
X21950961Y-39144909D01*
X21896733Y-39206617D01*
X21896500Y-39207020D01*
X21896193Y-39207370D01*
X21855045Y-39278652D01*
X21814031Y-39349523D01*
X21813882Y-39349961D01*
X21813648Y-39350366D01*
X21787303Y-39427996D01*
X21760797Y-39505817D01*
X21760735Y-39506282D01*
X21760587Y-39506719D01*
X21749947Y-39587584D01*
X21744520Y-39628483D01*
X21744504Y-39628950D01*
X21739048Y-39670418D01*
X21741726Y-39711232D01*
X21496836Y-46964553D01*
X21396695Y-47114424D01*
X21318674Y-47302782D01*
X21278900Y-47502741D01*
X12598000Y-47502741D01*
X12598000Y-28236975D01*
X22301200Y-28236975D01*
X22301200Y-28608225D01*
X22373627Y-28972341D01*
X22515698Y-29315331D01*
X22721954Y-29624013D01*
X22984467Y-29886526D01*
X23293149Y-30092782D01*
X23636139Y-30234853D01*
X23686063Y-30244784D01*
X23658999Y-30250167D01*
X23316009Y-30392238D01*
X23007327Y-30598494D01*
X22744814Y-30861007D01*
X22538558Y-31169689D01*
X22396487Y-31512679D01*
X22324060Y-31876795D01*
X22324060Y-32248045D01*
X22396487Y-32612161D01*
X22538558Y-32955151D01*
X22744814Y-33263833D01*
X23007327Y-33526346D01*
X23316009Y-33732602D01*
X23658999Y-33874673D01*
X24023115Y-33947100D01*
X24394365Y-33947100D01*
X24758481Y-33874673D01*
X25101471Y-33732602D01*
X25410153Y-33526346D01*
X25672666Y-33263833D01*
X25878922Y-32955151D01*
X26020993Y-32612161D01*
X26093420Y-32248045D01*
X26093420Y-31876795D01*
X26020993Y-31512679D01*
X25878922Y-31169689D01*
X25672666Y-30861007D01*
X25410153Y-30598494D01*
X25101471Y-30392238D01*
X24758481Y-30250167D01*
X24708557Y-30240236D01*
X24735621Y-30234853D01*
X25078611Y-30092782D01*
X25387293Y-29886526D01*
X25649806Y-29624013D01*
X25856062Y-29315331D01*
X25998133Y-28972341D01*
X26070560Y-28608225D01*
X26070560Y-28236975D01*
X25998133Y-27872859D01*
X25856062Y-27529869D01*
X25649806Y-27221187D01*
X25387293Y-26958674D01*
X25078611Y-26752418D01*
X24735621Y-26610347D01*
X24371505Y-26537920D01*
X24000255Y-26537920D01*
X23636139Y-26610347D01*
X23293149Y-26752418D01*
X22984467Y-26958674D01*
X22721954Y-27221187D01*
X22515698Y-27529869D01*
X22373627Y-27872859D01*
X22301200Y-28236975D01*
X12598000Y-28236975D01*
X12598000Y-26019947D01*
X39010300Y-26019947D01*
X39010300Y-26297693D01*
X39064486Y-26570102D01*
X39170775Y-26826705D01*
X39325082Y-27057642D01*
X39521478Y-27254038D01*
X39752415Y-27408345D01*
X40009018Y-27514634D01*
X40281427Y-27568820D01*
X40559173Y-27568820D01*
X40831582Y-27514634D01*
X41088185Y-27408345D01*
X41319122Y-27254038D01*
X41515518Y-27057642D01*
X41669825Y-26826705D01*
X41776114Y-26570102D01*
X41830300Y-26297693D01*
X41830300Y-26019947D01*
X41776114Y-25747538D01*
X41669825Y-25490935D01*
X41515518Y-25259998D01*
X41319122Y-25063602D01*
X41088185Y-24909295D01*
X40831582Y-24803006D01*
X40559173Y-24748820D01*
X40281427Y-24748820D01*
X40009018Y-24803006D01*
X39752415Y-24909295D01*
X39521478Y-25063602D01*
X39325082Y-25259998D01*
X39170775Y-25490935D01*
X39064486Y-25747538D01*
X39010300Y-26019947D01*
X12598000Y-26019947D01*
X12598000Y-23519947D01*
X34010300Y-23519947D01*
X34010300Y-23797693D01*
X34064486Y-24070102D01*
X34170775Y-24326705D01*
X34325082Y-24557642D01*
X34521478Y-24754038D01*
X34752415Y-24908345D01*
X35009018Y-25014634D01*
X35281427Y-25068820D01*
X35559173Y-25068820D01*
X35831582Y-25014634D01*
X36088185Y-24908345D01*
X36319122Y-24754038D01*
X36515518Y-24557642D01*
X36669825Y-24326705D01*
X36776114Y-24070102D01*
X36830300Y-23797693D01*
X36830300Y-23519947D01*
X36776114Y-23247538D01*
X36669825Y-22990935D01*
X36515518Y-22759998D01*
X36319122Y-22563602D01*
X36088185Y-22409295D01*
X35831582Y-22303006D01*
X35559173Y-22248820D01*
X35281427Y-22248820D01*
X35009018Y-22303006D01*
X34752415Y-22409295D01*
X34521478Y-22563602D01*
X34325082Y-22759998D01*
X34170775Y-22990935D01*
X34064486Y-23247538D01*
X34010300Y-23519947D01*
X12598000Y-23519947D01*
X12598000Y-20416315D01*
X20988020Y-20416315D01*
X20988020Y-20787565D01*
X21060447Y-21151681D01*
X21202518Y-21494671D01*
X21408774Y-21803353D01*
X21671287Y-22065866D01*
X21979969Y-22272122D01*
X22322959Y-22414193D01*
X22687075Y-22486620D01*
X23058325Y-22486620D01*
X23422441Y-22414193D01*
X23765431Y-22272122D01*
X24074113Y-22065866D01*
X24336626Y-21803353D01*
X24542882Y-21494671D01*
X24684671Y-21152362D01*
X24687567Y-21166921D01*
X24829638Y-21509911D01*
X25035894Y-21818593D01*
X25298407Y-22081106D01*
X25607089Y-22287362D01*
X25950079Y-22429433D01*
X26314195Y-22501860D01*
X26685445Y-22501860D01*
X27049561Y-22429433D01*
X27392551Y-22287362D01*
X27701233Y-22081106D01*
X27963746Y-21818593D01*
X28170002Y-21509911D01*
X28312073Y-21166921D01*
X28314969Y-21152362D01*
X28456758Y-21494671D01*
X28663014Y-21803353D01*
X28925527Y-22065866D01*
X29234209Y-22272122D01*
X29577199Y-22414193D01*
X29941315Y-22486620D01*
X30312565Y-22486620D01*
X30676681Y-22414193D01*
X31019671Y-22272122D01*
X31328353Y-22065866D01*
X31590866Y-21803353D01*
X31797122Y-21494671D01*
X31939193Y-21151681D01*
X31940500Y-21145110D01*
X31941807Y-21151681D01*
X32083878Y-21494671D01*
X32290134Y-21803353D01*
X32552647Y-22065866D01*
X32861329Y-22272122D01*
X33204319Y-22414193D01*
X33568435Y-22486620D01*
X33939685Y-22486620D01*
X34303801Y-22414193D01*
X34646791Y-22272122D01*
X34955473Y-22065866D01*
X35217986Y-21803353D01*
X35424242Y-21494671D01*
X35566313Y-21151681D01*
X35638740Y-20787565D01*
X35638740Y-20416315D01*
X35588217Y-20162315D01*
X40703500Y-20162315D01*
X40703500Y-20533565D01*
X40775927Y-20897681D01*
X40917998Y-21240671D01*
X41124254Y-21549353D01*
X41386767Y-21811866D01*
X41695449Y-22018122D01*
X42038439Y-22160193D01*
X42402555Y-22232620D01*
X42773805Y-22232620D01*
X43137921Y-22160193D01*
X43480911Y-22018122D01*
X43789593Y-21811866D01*
X44052106Y-21549353D01*
X44258362Y-21240671D01*
X44394119Y-20912924D01*
X44529876Y-21240670D01*
X44736132Y-21549352D01*
X44998645Y-21811865D01*
X45307327Y-22018121D01*
X45650317Y-22160192D01*
X46014433Y-22232619D01*
X46385683Y-22232619D01*
X46749799Y-22160192D01*
X47092789Y-22018121D01*
X47401471Y-21811865D01*
X47663984Y-21549352D01*
X47870240Y-21240670D01*
X48012311Y-20897680D01*
X48049691Y-20709758D01*
X48088587Y-20905302D01*
X48230658Y-21248292D01*
X48436914Y-21556974D01*
X48699427Y-21819487D01*
X49008109Y-22025743D01*
X49351099Y-22167814D01*
X49715215Y-22240241D01*
X50086465Y-22240241D01*
X50450581Y-22167814D01*
X50793571Y-22025743D01*
X51102253Y-21819487D01*
X51364766Y-21556974D01*
X51571022Y-21248292D01*
X51713093Y-20905302D01*
X51723598Y-20852490D01*
X51753807Y-21004361D01*
X51895878Y-21347351D01*
X52102134Y-21656033D01*
X52364647Y-21918546D01*
X52673329Y-22124802D01*
X53016319Y-22266873D01*
X53380435Y-22339300D01*
X53751685Y-22339300D01*
X54115801Y-22266873D01*
X54458791Y-22124802D01*
X54767473Y-21918546D01*
X55029986Y-21656033D01*
X55236242Y-21347351D01*
X55378313Y-21004361D01*
X55409076Y-20849706D01*
X55436807Y-20989121D01*
X55578878Y-21332111D01*
X55785134Y-21640793D01*
X56047647Y-21903306D01*
X56356329Y-22109562D01*
X56699319Y-22251633D01*
X57063435Y-22324060D01*
X57434685Y-22324060D01*
X57798801Y-22251633D01*
X58141791Y-22109562D01*
X58450473Y-21903306D01*
X58712986Y-21640793D01*
X58919242Y-21332111D01*
X59061313Y-20989121D01*
X59133740Y-20625005D01*
X59133740Y-20253755D01*
X59061313Y-19889639D01*
X58919242Y-19546649D01*
X58712986Y-19237967D01*
X58450473Y-18975454D01*
X58141791Y-18769198D01*
X57798801Y-18627127D01*
X57434685Y-18554700D01*
X57063435Y-18554700D01*
X56699319Y-18627127D01*
X56356329Y-18769198D01*
X56047647Y-18975454D01*
X55785134Y-19237967D01*
X55578878Y-19546649D01*
X55436807Y-19889639D01*
X55406044Y-20044294D01*
X55378313Y-19904879D01*
X55236242Y-19561889D01*
X55029986Y-19253207D01*
X54767473Y-18990694D01*
X54458791Y-18784438D01*
X54115801Y-18642367D01*
X53751685Y-18569940D01*
X53380435Y-18569940D01*
X53016319Y-18642367D01*
X52673329Y-18784438D01*
X52364647Y-18990694D01*
X52102134Y-19253207D01*
X51895878Y-19561889D01*
X51753807Y-19904879D01*
X51743302Y-19957691D01*
X51713093Y-19805820D01*
X51571022Y-19462830D01*
X51364766Y-19154148D01*
X51102253Y-18891635D01*
X50793571Y-18685379D01*
X50450581Y-18543308D01*
X50086465Y-18470881D01*
X49715215Y-18470881D01*
X49351099Y-18543308D01*
X49008109Y-18685379D01*
X48699427Y-18891635D01*
X48436914Y-19154148D01*
X48230658Y-19462830D01*
X48088587Y-19805820D01*
X48051207Y-19993742D01*
X48012311Y-19798198D01*
X47870240Y-19455208D01*
X47663984Y-19146526D01*
X47401471Y-18884013D01*
X47092789Y-18677757D01*
X46749799Y-18535686D01*
X46385683Y-18463259D01*
X46014433Y-18463259D01*
X45650317Y-18535686D01*
X45307327Y-18677757D01*
X44998645Y-18884013D01*
X44736132Y-19146526D01*
X44529876Y-19455208D01*
X44394119Y-19782955D01*
X44258362Y-19455209D01*
X44052106Y-19146527D01*
X43789593Y-18884014D01*
X43480911Y-18677758D01*
X43137921Y-18535687D01*
X42773805Y-18463260D01*
X42402555Y-18463260D01*
X42038439Y-18535687D01*
X41695449Y-18677758D01*
X41386767Y-18884014D01*
X41124254Y-19146527D01*
X40917998Y-19455209D01*
X40775927Y-19798199D01*
X40703500Y-20162315D01*
X35588217Y-20162315D01*
X35566313Y-20052199D01*
X35424242Y-19709209D01*
X35217986Y-19400527D01*
X34955473Y-19138014D01*
X34646791Y-18931758D01*
X34303801Y-18789687D01*
X33939685Y-18717260D01*
X33568435Y-18717260D01*
X33204319Y-18789687D01*
X32861329Y-18931758D01*
X32552647Y-19138014D01*
X32290134Y-19400527D01*
X32083878Y-19709209D01*
X31941807Y-20052199D01*
X31940500Y-20058770D01*
X31939193Y-20052199D01*
X31797122Y-19709209D01*
X31590866Y-19400527D01*
X31328353Y-19138014D01*
X31019671Y-18931758D01*
X30676681Y-18789687D01*
X30312565Y-18717260D01*
X29941315Y-18717260D01*
X29577199Y-18789687D01*
X29234209Y-18931758D01*
X28925527Y-19138014D01*
X28663014Y-19400527D01*
X28456758Y-19709209D01*
X28314687Y-20052199D01*
X28311791Y-20066758D01*
X28170002Y-19724449D01*
X27963746Y-19415767D01*
X27701233Y-19153254D01*
X27392551Y-18946998D01*
X27049561Y-18804927D01*
X26685445Y-18732500D01*
X26314195Y-18732500D01*
X25950079Y-18804927D01*
X25607089Y-18946998D01*
X25298407Y-19153254D01*
X25035894Y-19415767D01*
X24829638Y-19724449D01*
X24687849Y-20066758D01*
X24684953Y-20052199D01*
X24542882Y-19709209D01*
X24336626Y-19400527D01*
X24074113Y-19138014D01*
X23765431Y-18931758D01*
X23422441Y-18789687D01*
X23058325Y-18717260D01*
X22687075Y-18717260D01*
X22322959Y-18789687D01*
X21979969Y-18931758D01*
X21671287Y-19138014D01*
X21408774Y-19400527D01*
X21202518Y-19709209D01*
X21060447Y-20052199D01*
X20988020Y-20416315D01*
X12598000Y-20416315D01*
X12598000Y-15767098D01*
X13617000Y-15767098D01*
X13617000Y-16236902D01*
X13708654Y-16697679D01*
X13888440Y-17131721D01*
X14149450Y-17522349D01*
X14481651Y-17854550D01*
X14872279Y-18115560D01*
X15306321Y-18295346D01*
X15767098Y-18387000D01*
X16236902Y-18387000D01*
X16697679Y-18295346D01*
X17131721Y-18115560D01*
X17522349Y-17854550D01*
X17854550Y-17522349D01*
X18115560Y-17131721D01*
X18295346Y-16697679D01*
X18387000Y-16236902D01*
X18387000Y-15767098D01*
X89563000Y-15767098D01*
X89563000Y-16236902D01*
X89654654Y-16697679D01*
X89834440Y-17131721D01*
X90095450Y-17522349D01*
X90427651Y-17854550D01*
X90818279Y-18115560D01*
X91252321Y-18295346D01*
X91713098Y-18387000D01*
X92182902Y-18387000D01*
X92643679Y-18295346D01*
X93077721Y-18115560D01*
X93468349Y-17854550D01*
X93800550Y-17522349D01*
X94061560Y-17131721D01*
X94241346Y-16697679D01*
X94333000Y-16236902D01*
X94333000Y-15767098D01*
X94241346Y-15306321D01*
X94061560Y-14872279D01*
X93800550Y-14481651D01*
X93468349Y-14149450D01*
X93077721Y-13888440D01*
X92643679Y-13708654D01*
X92182902Y-13617000D01*
X91713098Y-13617000D01*
X91252321Y-13708654D01*
X90818279Y-13888440D01*
X90427651Y-14149450D01*
X90095450Y-14481651D01*
X89834440Y-14872279D01*
X89654654Y-15306321D01*
X89563000Y-15767098D01*
X18387000Y-15767098D01*
X18295346Y-15306321D01*
X18115560Y-14872279D01*
X17854550Y-14481651D01*
X17522349Y-14149450D01*
X17131721Y-13888440D01*
X16697679Y-13708654D01*
X16236902Y-13617000D01*
X15767098Y-13617000D01*
X15306321Y-13708654D01*
X14872279Y-13888440D01*
X14481651Y-14149450D01*
X14149450Y-14481651D01*
X13888440Y-14872279D01*
X13708654Y-15306321D01*
X13617000Y-15767098D01*
X12598000Y-15767098D01*
X12598000Y-12598000D01*
X95352001Y-12598000D01*
X95352000Y-76810000D01*
M02*
