G04 #@! TF.GenerationSoftware,KiCad,Pcbnew,(5.1.2-1)-1*
G04 #@! TF.CreationDate,2021-12-22T14:11:34-05:00*
G04 #@! TF.ProjectId,VCO - MFOS_SMD,56434f20-2d20-44d4-964f-535f534d442e,rev?*
G04 #@! TF.SameCoordinates,Original*
G04 #@! TF.FileFunction,Soldermask,Bot*
G04 #@! TF.FilePolarity,Negative*
%FSLAX46Y46*%
G04 Gerber Fmt 4.6, Leading zero omitted, Abs format (unit mm)*
G04 Created by KiCad (PCBNEW (5.1.2-1)-1) date 2021-12-22 14:11:34*
%MOMM*%
%LPD*%
G04 APERTURE LIST*
%ADD10C,0.100000*%
G04 APERTURE END LIST*
D10*
G36*
X34148693Y-73935844D02*
G01*
X34385401Y-74033892D01*
X34385403Y-74033893D01*
X34598435Y-74176236D01*
X34779604Y-74357405D01*
X34911011Y-74554070D01*
X34921948Y-74570439D01*
X35019996Y-74807147D01*
X35069980Y-75058433D01*
X35069980Y-75314647D01*
X35019996Y-75565933D01*
X34921948Y-75802641D01*
X34921947Y-75802643D01*
X34779604Y-76015675D01*
X34598435Y-76196844D01*
X34385403Y-76339187D01*
X34385402Y-76339188D01*
X34385401Y-76339188D01*
X34148693Y-76437236D01*
X33897407Y-76487220D01*
X33641193Y-76487220D01*
X33389907Y-76437236D01*
X33153199Y-76339188D01*
X33153198Y-76339188D01*
X33153197Y-76339187D01*
X32940165Y-76196844D01*
X32758996Y-76015675D01*
X32616653Y-75802643D01*
X32616652Y-75802641D01*
X32518604Y-75565933D01*
X32468620Y-75314647D01*
X32468620Y-75058433D01*
X32518604Y-74807147D01*
X32616652Y-74570439D01*
X32627589Y-74554070D01*
X32758996Y-74357405D01*
X32940165Y-74176236D01*
X33153197Y-74033893D01*
X33153199Y-74033892D01*
X33389907Y-73935844D01*
X33641193Y-73885860D01*
X33897407Y-73885860D01*
X34148693Y-73935844D01*
X34148693Y-73935844D01*
G37*
G36*
X16527331Y-71674211D02*
G01*
X16855092Y-71809974D01*
X17150070Y-72007072D01*
X17400928Y-72257930D01*
X17598026Y-72552908D01*
X17733789Y-72880669D01*
X17803000Y-73228616D01*
X17803000Y-73583384D01*
X17733789Y-73931331D01*
X17598026Y-74259092D01*
X17400928Y-74554070D01*
X17150070Y-74804928D01*
X16855092Y-75002026D01*
X16527331Y-75137789D01*
X16179384Y-75207000D01*
X15824616Y-75207000D01*
X15476669Y-75137789D01*
X15148908Y-75002026D01*
X14853930Y-74804928D01*
X14603072Y-74554070D01*
X14405974Y-74259092D01*
X14270211Y-73931331D01*
X14201000Y-73583384D01*
X14201000Y-73228616D01*
X14270211Y-72880669D01*
X14405974Y-72552908D01*
X14603072Y-72257930D01*
X14853930Y-72007072D01*
X15148908Y-71809974D01*
X15476669Y-71674211D01*
X15824616Y-71605000D01*
X16179384Y-71605000D01*
X16527331Y-71674211D01*
X16527331Y-71674211D01*
G37*
G36*
X92473331Y-71674211D02*
G01*
X92801092Y-71809974D01*
X93096070Y-72007072D01*
X93346928Y-72257930D01*
X93544026Y-72552908D01*
X93679789Y-72880669D01*
X93749000Y-73228616D01*
X93749000Y-73583384D01*
X93679789Y-73931331D01*
X93544026Y-74259092D01*
X93346928Y-74554070D01*
X93096070Y-74804928D01*
X92801092Y-75002026D01*
X92473331Y-75137789D01*
X92125384Y-75207000D01*
X91770616Y-75207000D01*
X91422669Y-75137789D01*
X91094908Y-75002026D01*
X90799930Y-74804928D01*
X90549072Y-74554070D01*
X90351974Y-74259092D01*
X90216211Y-73931331D01*
X90147000Y-73583384D01*
X90147000Y-73228616D01*
X90216211Y-72880669D01*
X90351974Y-72552908D01*
X90549072Y-72257930D01*
X90799930Y-72007072D01*
X91094908Y-71809974D01*
X91422669Y-71674211D01*
X91770616Y-71605000D01*
X92125384Y-71605000D01*
X92473331Y-71674211D01*
X92473331Y-71674211D01*
G37*
G36*
X35069980Y-72677220D02*
G01*
X32468620Y-72677220D01*
X32468620Y-70075860D01*
X35069980Y-70075860D01*
X35069980Y-72677220D01*
X35069980Y-72677220D01*
G37*
G36*
X25835834Y-70447233D02*
G01*
X26008235Y-70499531D01*
X26167123Y-70584458D01*
X26306389Y-70698751D01*
X26420682Y-70838017D01*
X26505609Y-70996905D01*
X26557907Y-71169306D01*
X26575565Y-71348600D01*
X26557907Y-71527894D01*
X26505609Y-71700295D01*
X26420682Y-71859183D01*
X26306389Y-71998449D01*
X26167123Y-72112742D01*
X26008235Y-72197669D01*
X25835834Y-72249967D01*
X25701471Y-72263200D01*
X25611609Y-72263200D01*
X25477246Y-72249967D01*
X25304845Y-72197669D01*
X25145957Y-72112742D01*
X25006691Y-71998449D01*
X24892398Y-71859183D01*
X24807471Y-71700295D01*
X24755173Y-71527894D01*
X24737515Y-71348600D01*
X24755173Y-71169306D01*
X24807471Y-70996905D01*
X24892398Y-70838017D01*
X25006691Y-70698751D01*
X25145957Y-70584458D01*
X25304845Y-70499531D01*
X25477246Y-70447233D01*
X25611609Y-70434000D01*
X25701471Y-70434000D01*
X25835834Y-70447233D01*
X25835834Y-70447233D01*
G37*
G36*
X29111140Y-72263200D02*
G01*
X27281940Y-72263200D01*
X27281940Y-70434000D01*
X29111140Y-70434000D01*
X29111140Y-72263200D01*
X29111140Y-72263200D01*
G37*
G36*
X44454388Y-70177243D02*
G01*
X44609260Y-70241393D01*
X44748641Y-70334525D01*
X44867175Y-70453059D01*
X44960307Y-70592440D01*
X45024457Y-70747312D01*
X45057160Y-70911724D01*
X45057160Y-71079356D01*
X45024457Y-71243768D01*
X44960307Y-71398640D01*
X44867175Y-71538021D01*
X44748641Y-71656555D01*
X44609260Y-71749687D01*
X44454388Y-71813837D01*
X44289976Y-71846540D01*
X44122344Y-71846540D01*
X43957932Y-71813837D01*
X43803060Y-71749687D01*
X43663679Y-71656555D01*
X43545145Y-71538021D01*
X43452013Y-71398640D01*
X43387863Y-71243768D01*
X43355160Y-71079356D01*
X43355160Y-70911724D01*
X43387863Y-70747312D01*
X43452013Y-70592440D01*
X43545145Y-70453059D01*
X43663679Y-70334525D01*
X43803060Y-70241393D01*
X43957932Y-70177243D01*
X44122344Y-70144540D01*
X44289976Y-70144540D01*
X44454388Y-70177243D01*
X44454388Y-70177243D01*
G37*
G36*
X52005084Y-68300995D02*
G01*
X52241792Y-68399043D01*
X52241794Y-68399044D01*
X52454826Y-68541387D01*
X52635995Y-68722556D01*
X52772236Y-68926456D01*
X52778339Y-68935590D01*
X52876387Y-69172298D01*
X52926371Y-69423584D01*
X52926371Y-69679798D01*
X52876387Y-69931084D01*
X52787970Y-70144540D01*
X52778338Y-70167794D01*
X52635995Y-70380826D01*
X52454826Y-70561995D01*
X52241794Y-70704338D01*
X52241793Y-70704339D01*
X52241792Y-70704339D01*
X52005084Y-70802387D01*
X51753798Y-70852371D01*
X51497584Y-70852371D01*
X51246298Y-70802387D01*
X51009590Y-70704339D01*
X51009589Y-70704339D01*
X51009588Y-70704338D01*
X50796556Y-70561995D01*
X50615387Y-70380826D01*
X50473044Y-70167794D01*
X50463412Y-70144540D01*
X50374995Y-69931084D01*
X50325011Y-69679798D01*
X50325011Y-69423584D01*
X50374995Y-69172298D01*
X50473043Y-68935590D01*
X50479146Y-68926456D01*
X50615387Y-68722556D01*
X50796556Y-68541387D01*
X51009588Y-68399044D01*
X51009590Y-68399043D01*
X51246298Y-68300995D01*
X51497584Y-68251011D01*
X51753798Y-68251011D01*
X52005084Y-68300995D01*
X52005084Y-68300995D01*
G37*
G36*
X28375834Y-67907233D02*
G01*
X28548235Y-67959531D01*
X28707123Y-68044458D01*
X28846389Y-68158751D01*
X28960682Y-68298017D01*
X29045609Y-68456905D01*
X29097907Y-68629306D01*
X29115565Y-68808600D01*
X29097907Y-68987894D01*
X29045609Y-69160295D01*
X28960682Y-69319183D01*
X28846389Y-69458449D01*
X28707123Y-69572742D01*
X28548235Y-69657669D01*
X28375834Y-69709967D01*
X28241471Y-69723200D01*
X28151609Y-69723200D01*
X28017246Y-69709967D01*
X27844845Y-69657669D01*
X27685957Y-69572742D01*
X27546691Y-69458449D01*
X27432398Y-69319183D01*
X27347471Y-69160295D01*
X27295173Y-68987894D01*
X27277515Y-68808600D01*
X27295173Y-68629306D01*
X27347471Y-68456905D01*
X27432398Y-68298017D01*
X27546691Y-68158751D01*
X27685957Y-68044458D01*
X27844845Y-67959531D01*
X28017246Y-67907233D01*
X28151609Y-67894000D01*
X28241471Y-67894000D01*
X28375834Y-67907233D01*
X28375834Y-67907233D01*
G37*
G36*
X25835834Y-67907233D02*
G01*
X26008235Y-67959531D01*
X26167123Y-68044458D01*
X26306389Y-68158751D01*
X26420682Y-68298017D01*
X26505609Y-68456905D01*
X26557907Y-68629306D01*
X26575565Y-68808600D01*
X26557907Y-68987894D01*
X26505609Y-69160295D01*
X26420682Y-69319183D01*
X26306389Y-69458449D01*
X26167123Y-69572742D01*
X26008235Y-69657669D01*
X25835834Y-69709967D01*
X25701471Y-69723200D01*
X25611609Y-69723200D01*
X25477246Y-69709967D01*
X25304845Y-69657669D01*
X25145957Y-69572742D01*
X25006691Y-69458449D01*
X24892398Y-69319183D01*
X24807471Y-69160295D01*
X24755173Y-68987894D01*
X24737515Y-68808600D01*
X24755173Y-68629306D01*
X24807471Y-68456905D01*
X24892398Y-68298017D01*
X25006691Y-68158751D01*
X25145957Y-68044458D01*
X25304845Y-67959531D01*
X25477246Y-67907233D01*
X25611609Y-67894000D01*
X25701471Y-67894000D01*
X25835834Y-67907233D01*
X25835834Y-67907233D01*
G37*
G36*
X34118213Y-66425064D02*
G01*
X34354921Y-66523112D01*
X34354923Y-66523113D01*
X34567955Y-66665456D01*
X34749124Y-66846625D01*
X34891467Y-67059657D01*
X34891468Y-67059659D01*
X34989516Y-67296367D01*
X35039500Y-67547653D01*
X35039500Y-67803867D01*
X34989516Y-68055153D01*
X34891468Y-68291861D01*
X34891467Y-68291863D01*
X34749124Y-68504895D01*
X34567955Y-68686064D01*
X34354923Y-68828407D01*
X34354922Y-68828408D01*
X34354921Y-68828408D01*
X34118213Y-68926456D01*
X33866927Y-68976440D01*
X33610713Y-68976440D01*
X33359427Y-68926456D01*
X33122719Y-68828408D01*
X33122718Y-68828408D01*
X33122717Y-68828407D01*
X32909685Y-68686064D01*
X32728516Y-68504895D01*
X32586173Y-68291863D01*
X32586172Y-68291861D01*
X32488124Y-68055153D01*
X32438140Y-67803867D01*
X32438140Y-67547653D01*
X32488124Y-67296367D01*
X32586172Y-67059659D01*
X32586173Y-67059657D01*
X32728516Y-66846625D01*
X32909685Y-66665456D01*
X33122717Y-66523113D01*
X33122719Y-66523112D01*
X33359427Y-66425064D01*
X33610713Y-66375080D01*
X33866927Y-66375080D01*
X34118213Y-66425064D01*
X34118213Y-66425064D01*
G37*
G36*
X62790508Y-64651155D02*
G01*
X62965569Y-64723668D01*
X63027218Y-64749204D01*
X63240250Y-64891547D01*
X63421419Y-65072716D01*
X63538156Y-65247426D01*
X63563763Y-65285750D01*
X63661811Y-65522458D01*
X63711795Y-65773744D01*
X63711795Y-66029958D01*
X63661811Y-66281244D01*
X63602238Y-66425065D01*
X63563762Y-66517954D01*
X63421419Y-66730986D01*
X63240250Y-66912155D01*
X63027218Y-67054498D01*
X63027217Y-67054499D01*
X63027216Y-67054499D01*
X62790508Y-67152547D01*
X62539222Y-67202531D01*
X62283008Y-67202531D01*
X62031722Y-67152547D01*
X61795014Y-67054499D01*
X61795013Y-67054499D01*
X61795012Y-67054498D01*
X61581980Y-66912155D01*
X61400811Y-66730986D01*
X61258468Y-66517954D01*
X61219992Y-66425065D01*
X61160419Y-66281244D01*
X61110435Y-66029958D01*
X61110435Y-65773744D01*
X61160419Y-65522458D01*
X61258467Y-65285750D01*
X61284074Y-65247426D01*
X61400811Y-65072716D01*
X61581980Y-64891547D01*
X61795012Y-64749204D01*
X61856661Y-64723668D01*
X62031722Y-64651155D01*
X62283008Y-64601171D01*
X62539222Y-64601171D01*
X62790508Y-64651155D01*
X62790508Y-64651155D01*
G37*
G36*
X28375834Y-65367233D02*
G01*
X28548235Y-65419531D01*
X28707123Y-65504458D01*
X28846389Y-65618751D01*
X28960682Y-65758017D01*
X29045609Y-65916905D01*
X29097907Y-66089306D01*
X29115565Y-66268600D01*
X29097907Y-66447894D01*
X29045609Y-66620295D01*
X28960682Y-66779183D01*
X28846389Y-66918449D01*
X28707123Y-67032742D01*
X28548235Y-67117669D01*
X28375834Y-67169967D01*
X28241471Y-67183200D01*
X28151609Y-67183200D01*
X28017246Y-67169967D01*
X27844845Y-67117669D01*
X27685957Y-67032742D01*
X27546691Y-66918449D01*
X27432398Y-66779183D01*
X27347471Y-66620295D01*
X27295173Y-66447894D01*
X27277515Y-66268600D01*
X27295173Y-66089306D01*
X27347471Y-65916905D01*
X27432398Y-65758017D01*
X27546691Y-65618751D01*
X27685957Y-65504458D01*
X27844845Y-65419531D01*
X28017246Y-65367233D01*
X28151609Y-65354000D01*
X28241471Y-65354000D01*
X28375834Y-65367233D01*
X28375834Y-65367233D01*
G37*
G36*
X25835834Y-65367233D02*
G01*
X26008235Y-65419531D01*
X26167123Y-65504458D01*
X26306389Y-65618751D01*
X26420682Y-65758017D01*
X26505609Y-65916905D01*
X26557907Y-66089306D01*
X26575565Y-66268600D01*
X26557907Y-66447894D01*
X26505609Y-66620295D01*
X26420682Y-66779183D01*
X26306389Y-66918449D01*
X26167123Y-67032742D01*
X26008235Y-67117669D01*
X25835834Y-67169967D01*
X25701471Y-67183200D01*
X25611609Y-67183200D01*
X25477246Y-67169967D01*
X25304845Y-67117669D01*
X25145957Y-67032742D01*
X25006691Y-66918449D01*
X24892398Y-66779183D01*
X24807471Y-66620295D01*
X24755173Y-66447894D01*
X24737515Y-66268600D01*
X24755173Y-66089306D01*
X24807471Y-65916905D01*
X24892398Y-65758017D01*
X25006691Y-65618751D01*
X25145957Y-65504458D01*
X25304845Y-65419531D01*
X25477246Y-65367233D01*
X25611609Y-65354000D01*
X25701471Y-65354000D01*
X25835834Y-65367233D01*
X25835834Y-65367233D01*
G37*
G36*
X48182983Y-63557739D02*
G01*
X48343402Y-63606402D01*
X48476066Y-63677312D01*
X48491238Y-63685422D01*
X48620819Y-63791767D01*
X48727164Y-63921348D01*
X48727165Y-63921350D01*
X48806184Y-64069184D01*
X48854847Y-64229603D01*
X48871277Y-64396426D01*
X48854847Y-64563249D01*
X48806184Y-64723668D01*
X48735274Y-64856332D01*
X48727164Y-64871504D01*
X48620819Y-65001085D01*
X48491238Y-65107430D01*
X48491236Y-65107431D01*
X48343402Y-65186450D01*
X48182983Y-65235113D01*
X48057964Y-65247426D01*
X47974356Y-65247426D01*
X47849337Y-65235113D01*
X47688918Y-65186450D01*
X47541084Y-65107431D01*
X47541082Y-65107430D01*
X47411501Y-65001085D01*
X47305156Y-64871504D01*
X47297046Y-64856332D01*
X47226136Y-64723668D01*
X47177473Y-64563249D01*
X47161043Y-64396426D01*
X47177473Y-64229603D01*
X47226136Y-64069184D01*
X47305155Y-63921350D01*
X47305156Y-63921348D01*
X47411501Y-63791767D01*
X47541082Y-63685422D01*
X47556254Y-63677312D01*
X47688918Y-63606402D01*
X47849337Y-63557739D01*
X47974356Y-63545426D01*
X48057964Y-63545426D01*
X48182983Y-63557739D01*
X48182983Y-63557739D01*
G37*
G36*
X35039500Y-65166440D02*
G01*
X32438140Y-65166440D01*
X32438140Y-62565080D01*
X35039500Y-62565080D01*
X35039500Y-65166440D01*
X35039500Y-65166440D01*
G37*
G36*
X25835834Y-62827233D02*
G01*
X26008235Y-62879531D01*
X26167123Y-62964458D01*
X26306389Y-63078751D01*
X26420682Y-63218017D01*
X26505609Y-63376905D01*
X26557907Y-63549306D01*
X26575565Y-63728600D01*
X26557907Y-63907894D01*
X26505609Y-64080295D01*
X26420682Y-64239183D01*
X26306389Y-64378449D01*
X26167123Y-64492742D01*
X26008235Y-64577669D01*
X25835834Y-64629967D01*
X25701471Y-64643200D01*
X25611609Y-64643200D01*
X25477246Y-64629967D01*
X25304845Y-64577669D01*
X25145957Y-64492742D01*
X25006691Y-64378449D01*
X24892398Y-64239183D01*
X24807471Y-64080295D01*
X24755173Y-63907894D01*
X24737515Y-63728600D01*
X24755173Y-63549306D01*
X24807471Y-63376905D01*
X24892398Y-63218017D01*
X25006691Y-63078751D01*
X25145957Y-62964458D01*
X25304845Y-62879531D01*
X25477246Y-62827233D01*
X25611609Y-62814000D01*
X25701471Y-62814000D01*
X25835834Y-62827233D01*
X25835834Y-62827233D01*
G37*
G36*
X28375834Y-62827233D02*
G01*
X28548235Y-62879531D01*
X28707123Y-62964458D01*
X28846389Y-63078751D01*
X28960682Y-63218017D01*
X29045609Y-63376905D01*
X29097907Y-63549306D01*
X29115565Y-63728600D01*
X29097907Y-63907894D01*
X29045609Y-64080295D01*
X28960682Y-64239183D01*
X28846389Y-64378449D01*
X28707123Y-64492742D01*
X28548235Y-64577669D01*
X28375834Y-64629967D01*
X28241471Y-64643200D01*
X28151609Y-64643200D01*
X28017246Y-64629967D01*
X27844845Y-64577669D01*
X27685957Y-64492742D01*
X27546691Y-64378449D01*
X27432398Y-64239183D01*
X27347471Y-64080295D01*
X27295173Y-63907894D01*
X27277515Y-63728600D01*
X27295173Y-63549306D01*
X27347471Y-63376905D01*
X27432398Y-63218017D01*
X27546691Y-63078751D01*
X27685957Y-62964458D01*
X27844845Y-62879531D01*
X28017246Y-62827233D01*
X28151609Y-62814000D01*
X28241471Y-62814000D01*
X28375834Y-62827233D01*
X28375834Y-62827233D01*
G37*
G36*
X28375834Y-60287233D02*
G01*
X28548235Y-60339531D01*
X28707123Y-60424458D01*
X28846389Y-60538751D01*
X28960682Y-60678017D01*
X29045609Y-60836905D01*
X29097907Y-61009306D01*
X29115565Y-61188600D01*
X29097907Y-61367894D01*
X29045609Y-61540295D01*
X28960682Y-61699183D01*
X28846389Y-61838449D01*
X28707123Y-61952742D01*
X28548235Y-62037669D01*
X28375834Y-62089967D01*
X28241471Y-62103200D01*
X28151609Y-62103200D01*
X28017246Y-62089967D01*
X27844845Y-62037669D01*
X27685957Y-61952742D01*
X27546691Y-61838449D01*
X27432398Y-61699183D01*
X27347471Y-61540295D01*
X27295173Y-61367894D01*
X27277515Y-61188600D01*
X27295173Y-61009306D01*
X27347471Y-60836905D01*
X27432398Y-60678017D01*
X27546691Y-60538751D01*
X27685957Y-60424458D01*
X27844845Y-60339531D01*
X28017246Y-60287233D01*
X28151609Y-60274000D01*
X28241471Y-60274000D01*
X28375834Y-60287233D01*
X28375834Y-60287233D01*
G37*
G36*
X25835834Y-60287233D02*
G01*
X26008235Y-60339531D01*
X26167123Y-60424458D01*
X26306389Y-60538751D01*
X26420682Y-60678017D01*
X26505609Y-60836905D01*
X26557907Y-61009306D01*
X26575565Y-61188600D01*
X26557907Y-61367894D01*
X26505609Y-61540295D01*
X26420682Y-61699183D01*
X26306389Y-61838449D01*
X26167123Y-61952742D01*
X26008235Y-62037669D01*
X25835834Y-62089967D01*
X25701471Y-62103200D01*
X25611609Y-62103200D01*
X25477246Y-62089967D01*
X25304845Y-62037669D01*
X25145957Y-61952742D01*
X25006691Y-61838449D01*
X24892398Y-61699183D01*
X24807471Y-61540295D01*
X24755173Y-61367894D01*
X24737515Y-61188600D01*
X24755173Y-61009306D01*
X24807471Y-60836905D01*
X24892398Y-60678017D01*
X25006691Y-60538751D01*
X25145957Y-60424458D01*
X25304845Y-60339531D01*
X25477246Y-60287233D01*
X25611609Y-60274000D01*
X25701471Y-60274000D01*
X25835834Y-60287233D01*
X25835834Y-60287233D01*
G37*
G36*
X80016738Y-59828323D02*
G01*
X80177157Y-59876986D01*
X80239795Y-59910467D01*
X80324993Y-59956006D01*
X80454574Y-60062351D01*
X80560919Y-60191932D01*
X80560920Y-60191934D01*
X80639939Y-60339768D01*
X80688602Y-60500187D01*
X80705032Y-60667010D01*
X80688602Y-60833833D01*
X80639939Y-60994252D01*
X80608343Y-61053364D01*
X80560919Y-61142088D01*
X80454574Y-61271669D01*
X80324993Y-61378014D01*
X80324991Y-61378015D01*
X80177157Y-61457034D01*
X80016738Y-61505697D01*
X79891719Y-61518010D01*
X79808111Y-61518010D01*
X79683092Y-61505697D01*
X79522673Y-61457034D01*
X79374839Y-61378015D01*
X79374837Y-61378014D01*
X79245256Y-61271669D01*
X79138911Y-61142088D01*
X79091487Y-61053364D01*
X79059891Y-60994252D01*
X79011228Y-60833833D01*
X78994798Y-60667010D01*
X79011228Y-60500187D01*
X79059891Y-60339768D01*
X79138910Y-60191934D01*
X79138911Y-60191932D01*
X79245256Y-60062351D01*
X79374837Y-59956006D01*
X79460035Y-59910467D01*
X79522673Y-59876986D01*
X79683092Y-59828323D01*
X79808111Y-59816010D01*
X79891719Y-59816010D01*
X80016738Y-59828323D01*
X80016738Y-59828323D01*
G37*
G36*
X34057253Y-58792364D02*
G01*
X34283133Y-58885927D01*
X34293963Y-58890413D01*
X34506995Y-59032756D01*
X34688164Y-59213925D01*
X34795071Y-59373923D01*
X34830508Y-59426959D01*
X34928556Y-59663667D01*
X34978540Y-59914953D01*
X34978540Y-60171167D01*
X34928556Y-60422453D01*
X34830508Y-60659161D01*
X34830507Y-60659163D01*
X34688164Y-60872195D01*
X34506995Y-61053364D01*
X34293963Y-61195707D01*
X34293962Y-61195708D01*
X34293961Y-61195708D01*
X34057253Y-61293756D01*
X33805967Y-61343740D01*
X33549753Y-61343740D01*
X33298467Y-61293756D01*
X33061759Y-61195708D01*
X33061758Y-61195708D01*
X33061757Y-61195707D01*
X32848725Y-61053364D01*
X32667556Y-60872195D01*
X32525213Y-60659163D01*
X32525212Y-60659161D01*
X32427164Y-60422453D01*
X32377180Y-60171167D01*
X32377180Y-59914953D01*
X32427164Y-59663667D01*
X32525212Y-59426959D01*
X32560649Y-59373923D01*
X32667556Y-59213925D01*
X32848725Y-59032756D01*
X33061757Y-58890413D01*
X33072587Y-58885927D01*
X33298467Y-58792364D01*
X33549753Y-58742380D01*
X33805967Y-58742380D01*
X34057253Y-58792364D01*
X34057253Y-58792364D01*
G37*
G36*
X63160573Y-57507124D02*
G01*
X63307576Y-57568015D01*
X63397283Y-57605173D01*
X63610315Y-57747516D01*
X63791484Y-57928685D01*
X63932724Y-58140066D01*
X63933828Y-58141719D01*
X64031876Y-58378427D01*
X64081860Y-58629713D01*
X64081860Y-58885927D01*
X64031876Y-59137213D01*
X63961965Y-59305992D01*
X63933827Y-59373923D01*
X63791484Y-59586955D01*
X63610315Y-59768124D01*
X63397283Y-59910467D01*
X63397282Y-59910468D01*
X63397281Y-59910468D01*
X63160573Y-60008516D01*
X62909287Y-60058500D01*
X62653073Y-60058500D01*
X62401787Y-60008516D01*
X62165079Y-59910468D01*
X62165078Y-59910468D01*
X62165077Y-59910467D01*
X61952045Y-59768124D01*
X61770876Y-59586955D01*
X61628533Y-59373923D01*
X61600395Y-59305992D01*
X61530484Y-59137213D01*
X61480500Y-58885927D01*
X61480500Y-58629713D01*
X61530484Y-58378427D01*
X61628532Y-58141719D01*
X61629636Y-58140066D01*
X61770876Y-57928685D01*
X61952045Y-57747516D01*
X62165077Y-57605173D01*
X62254784Y-57568015D01*
X62401787Y-57507124D01*
X62653073Y-57457140D01*
X62909287Y-57457140D01*
X63160573Y-57507124D01*
X63160573Y-57507124D01*
G37*
G36*
X81286738Y-57628618D02*
G01*
X81447157Y-57677281D01*
X81578557Y-57747516D01*
X81594993Y-57756301D01*
X81724574Y-57862646D01*
X81830919Y-57992227D01*
X81830920Y-57992229D01*
X81909939Y-58140063D01*
X81958602Y-58300482D01*
X81975032Y-58467305D01*
X81958602Y-58634128D01*
X81909939Y-58794547D01*
X81839029Y-58927211D01*
X81830919Y-58942383D01*
X81724574Y-59071964D01*
X81594993Y-59178309D01*
X81594991Y-59178310D01*
X81447157Y-59257329D01*
X81286738Y-59305992D01*
X81161719Y-59318305D01*
X81078111Y-59318305D01*
X80953092Y-59305992D01*
X80792673Y-59257329D01*
X80644839Y-59178310D01*
X80644837Y-59178309D01*
X80515256Y-59071964D01*
X80408911Y-58942383D01*
X80400801Y-58927211D01*
X80329891Y-58794547D01*
X80281228Y-58634128D01*
X80264798Y-58467305D01*
X80281228Y-58300482D01*
X80329891Y-58140063D01*
X80408910Y-57992229D01*
X80408911Y-57992227D01*
X80515256Y-57862646D01*
X80644837Y-57756301D01*
X80661273Y-57747516D01*
X80792673Y-57677281D01*
X80953092Y-57628618D01*
X81078111Y-57616305D01*
X81161719Y-57616305D01*
X81286738Y-57628618D01*
X81286738Y-57628618D01*
G37*
G36*
X73417624Y-56018323D02*
G01*
X73578043Y-56066986D01*
X73641263Y-56100778D01*
X73725879Y-56146006D01*
X73855460Y-56252351D01*
X73961805Y-56381932D01*
X73961806Y-56381934D01*
X74040825Y-56529768D01*
X74089488Y-56690187D01*
X74105918Y-56857010D01*
X74089488Y-57023833D01*
X74040825Y-57184252D01*
X73969915Y-57316916D01*
X73961805Y-57332088D01*
X73855460Y-57461669D01*
X73725879Y-57568014D01*
X73725877Y-57568015D01*
X73578043Y-57647034D01*
X73417624Y-57695697D01*
X73292605Y-57708010D01*
X73208997Y-57708010D01*
X73083978Y-57695697D01*
X72923559Y-57647034D01*
X72775725Y-57568015D01*
X72775723Y-57568014D01*
X72646142Y-57461669D01*
X72539797Y-57332088D01*
X72531687Y-57316916D01*
X72460777Y-57184252D01*
X72412114Y-57023833D01*
X72395684Y-56857010D01*
X72412114Y-56690187D01*
X72460777Y-56529768D01*
X72539796Y-56381934D01*
X72539797Y-56381932D01*
X72646142Y-56252351D01*
X72775723Y-56146006D01*
X72860339Y-56100778D01*
X72923559Y-56066986D01*
X73083978Y-56018323D01*
X73208997Y-56006010D01*
X73292605Y-56006010D01*
X73417624Y-56018323D01*
X73417624Y-56018323D01*
G37*
G36*
X34978540Y-57533740D02*
G01*
X32377180Y-57533740D01*
X32377180Y-54932380D01*
X34978540Y-54932380D01*
X34978540Y-57533740D01*
X34978540Y-57533740D01*
G37*
G36*
X82556738Y-55428914D02*
G01*
X82717157Y-55477577D01*
X82849821Y-55548487D01*
X82864993Y-55556597D01*
X82994574Y-55662942D01*
X83100919Y-55792523D01*
X83100920Y-55792525D01*
X83179939Y-55940359D01*
X83228602Y-56100778D01*
X83245032Y-56267601D01*
X83228602Y-56434424D01*
X83179939Y-56594843D01*
X83109029Y-56727507D01*
X83100919Y-56742679D01*
X82994574Y-56872260D01*
X82864993Y-56978605D01*
X82864991Y-56978606D01*
X82717157Y-57057625D01*
X82556738Y-57106288D01*
X82431719Y-57118601D01*
X82348111Y-57118601D01*
X82223092Y-57106288D01*
X82062673Y-57057625D01*
X81914839Y-56978606D01*
X81914837Y-56978605D01*
X81785256Y-56872260D01*
X81678911Y-56742679D01*
X81670801Y-56727507D01*
X81599891Y-56594843D01*
X81551228Y-56434424D01*
X81534798Y-56267601D01*
X81551228Y-56100778D01*
X81599891Y-55940359D01*
X81678910Y-55792525D01*
X81678911Y-55792523D01*
X81785256Y-55662942D01*
X81914837Y-55556597D01*
X81930009Y-55548487D01*
X82062673Y-55477577D01*
X82223092Y-55428914D01*
X82348111Y-55416601D01*
X82431719Y-55416601D01*
X82556738Y-55428914D01*
X82556738Y-55428914D01*
G37*
G36*
X74687624Y-53818618D02*
G01*
X74848043Y-53867281D01*
X74911263Y-53901073D01*
X74995879Y-53946301D01*
X75125460Y-54052646D01*
X75231805Y-54182227D01*
X75231806Y-54182229D01*
X75310825Y-54330063D01*
X75359488Y-54490482D01*
X75375918Y-54657305D01*
X75359488Y-54824128D01*
X75310825Y-54984547D01*
X75297765Y-55008980D01*
X75231805Y-55132383D01*
X75125460Y-55261964D01*
X74995879Y-55368309D01*
X74995877Y-55368310D01*
X74848043Y-55447329D01*
X74687624Y-55495992D01*
X74562605Y-55508305D01*
X74478997Y-55508305D01*
X74353978Y-55495992D01*
X74193559Y-55447329D01*
X74045725Y-55368310D01*
X74045723Y-55368309D01*
X73916142Y-55261964D01*
X73809797Y-55132383D01*
X73743837Y-55008980D01*
X73730777Y-54984547D01*
X73682114Y-54824128D01*
X73665684Y-54657305D01*
X73682114Y-54490482D01*
X73730777Y-54330063D01*
X73809796Y-54182229D01*
X73809797Y-54182227D01*
X73916142Y-54052646D01*
X74045723Y-53946301D01*
X74130339Y-53901073D01*
X74193559Y-53867281D01*
X74353978Y-53818618D01*
X74478997Y-53806305D01*
X74562605Y-53806305D01*
X74687624Y-53818618D01*
X74687624Y-53818618D01*
G37*
G36*
X56820314Y-55017489D02*
G01*
X55168314Y-55017489D01*
X55168314Y-53365489D01*
X56820314Y-53365489D01*
X56820314Y-55017489D01*
X56820314Y-55017489D01*
G37*
G36*
X51235249Y-53397231D02*
G01*
X51385572Y-53459497D01*
X51520859Y-53549893D01*
X51635910Y-53664944D01*
X51726306Y-53800231D01*
X51788572Y-53950554D01*
X51820314Y-54110135D01*
X51820314Y-54272843D01*
X51788572Y-54432424D01*
X51726306Y-54582747D01*
X51635910Y-54718034D01*
X51520859Y-54833085D01*
X51385572Y-54923481D01*
X51235249Y-54985747D01*
X51075668Y-55017489D01*
X50912960Y-55017489D01*
X50753379Y-54985747D01*
X50603056Y-54923481D01*
X50467769Y-54833085D01*
X50352718Y-54718034D01*
X50262322Y-54582747D01*
X50200056Y-54432424D01*
X50168314Y-54272843D01*
X50168314Y-54110135D01*
X50200056Y-53950554D01*
X50262322Y-53800231D01*
X50352718Y-53664944D01*
X50467769Y-53549893D01*
X50603056Y-53459497D01*
X50753379Y-53397231D01*
X50912960Y-53365489D01*
X51075668Y-53365489D01*
X51235249Y-53397231D01*
X51235249Y-53397231D01*
G37*
G36*
X24067433Y-52457604D02*
G01*
X24304141Y-52555652D01*
X24304143Y-52555653D01*
X24517175Y-52697996D01*
X24698344Y-52879165D01*
X24840687Y-53092197D01*
X24840688Y-53092199D01*
X24938736Y-53328907D01*
X24988720Y-53580193D01*
X24988720Y-53836407D01*
X24938736Y-54087693D01*
X24862044Y-54272843D01*
X24840687Y-54324403D01*
X24698344Y-54537435D01*
X24517175Y-54718604D01*
X24304143Y-54860947D01*
X24304142Y-54860948D01*
X24304141Y-54860948D01*
X24067433Y-54958996D01*
X23816147Y-55008980D01*
X23559933Y-55008980D01*
X23308647Y-54958996D01*
X23071939Y-54860948D01*
X23071938Y-54860948D01*
X23071937Y-54860947D01*
X22858905Y-54718604D01*
X22677736Y-54537435D01*
X22535393Y-54324403D01*
X22514036Y-54272843D01*
X22437344Y-54087693D01*
X22387360Y-53836407D01*
X22387360Y-53580193D01*
X22437344Y-53328907D01*
X22535392Y-53092199D01*
X22535393Y-53092197D01*
X22677736Y-52879165D01*
X22858905Y-52697996D01*
X23071937Y-52555653D01*
X23071939Y-52555652D01*
X23308647Y-52457604D01*
X23559933Y-52407620D01*
X23816147Y-52407620D01*
X24067433Y-52457604D01*
X24067433Y-52457604D01*
G37*
G36*
X83826738Y-53229209D02*
G01*
X83957295Y-53268813D01*
X83966363Y-53271564D01*
X83987157Y-53277872D01*
X84119821Y-53348782D01*
X84134993Y-53356892D01*
X84264574Y-53463237D01*
X84370919Y-53592818D01*
X84370920Y-53592820D01*
X84449939Y-53740654D01*
X84498602Y-53901073D01*
X84515032Y-54067896D01*
X84498602Y-54234719D01*
X84449939Y-54395138D01*
X84379029Y-54527802D01*
X84370919Y-54542974D01*
X84264574Y-54672555D01*
X84134993Y-54778900D01*
X84134991Y-54778901D01*
X83987157Y-54857920D01*
X83987154Y-54857921D01*
X83977175Y-54860948D01*
X83826738Y-54906583D01*
X83701719Y-54918896D01*
X83618111Y-54918896D01*
X83493092Y-54906583D01*
X83342655Y-54860948D01*
X83332676Y-54857921D01*
X83332673Y-54857920D01*
X83184839Y-54778901D01*
X83184837Y-54778900D01*
X83055256Y-54672555D01*
X82948911Y-54542974D01*
X82940801Y-54527802D01*
X82869891Y-54395138D01*
X82821228Y-54234719D01*
X82804798Y-54067896D01*
X82821228Y-53901073D01*
X82869891Y-53740654D01*
X82948910Y-53592820D01*
X82948911Y-53592818D01*
X83055256Y-53463237D01*
X83184837Y-53356892D01*
X83200009Y-53348782D01*
X83332673Y-53277872D01*
X83353468Y-53271564D01*
X83362535Y-53268813D01*
X83493092Y-53229209D01*
X83618111Y-53216896D01*
X83701719Y-53216896D01*
X83826738Y-53229209D01*
X83826738Y-53229209D01*
G37*
G36*
X70508655Y-50868221D02*
G01*
X70745363Y-50966269D01*
X70745365Y-50966270D01*
X70958397Y-51108613D01*
X71139566Y-51289782D01*
X71208610Y-51393114D01*
X71281910Y-51502816D01*
X71379958Y-51739524D01*
X71429942Y-51990810D01*
X71429942Y-52247024D01*
X71379958Y-52498310D01*
X71288465Y-52719192D01*
X71281909Y-52735020D01*
X71139566Y-52948052D01*
X70958397Y-53129221D01*
X70745365Y-53271564D01*
X70745364Y-53271565D01*
X70745363Y-53271565D01*
X70508655Y-53369613D01*
X70257369Y-53419597D01*
X70001155Y-53419597D01*
X69749869Y-53369613D01*
X69513161Y-53271565D01*
X69513160Y-53271565D01*
X69513159Y-53271564D01*
X69300127Y-53129221D01*
X69118958Y-52948052D01*
X68976615Y-52735020D01*
X68970059Y-52719192D01*
X68878566Y-52498310D01*
X68828582Y-52247024D01*
X68828582Y-51990810D01*
X68878566Y-51739524D01*
X68976614Y-51502816D01*
X69049914Y-51393114D01*
X69118958Y-51289782D01*
X69300127Y-51108613D01*
X69513159Y-50966270D01*
X69513161Y-50966269D01*
X69749869Y-50868221D01*
X70001155Y-50818237D01*
X70257369Y-50818237D01*
X70508655Y-50868221D01*
X70508655Y-50868221D01*
G37*
G36*
X75957624Y-51618914D02*
G01*
X76118043Y-51667577D01*
X76181263Y-51701369D01*
X76265879Y-51746597D01*
X76395460Y-51852942D01*
X76501805Y-51982523D01*
X76501806Y-51982525D01*
X76580825Y-52130359D01*
X76580826Y-52130362D01*
X76589884Y-52160221D01*
X76629488Y-52290778D01*
X76645918Y-52457601D01*
X76629488Y-52624424D01*
X76580825Y-52784843D01*
X76530409Y-52879165D01*
X76501805Y-52932679D01*
X76395460Y-53062260D01*
X76265879Y-53168605D01*
X76265877Y-53168606D01*
X76118043Y-53247625D01*
X75957624Y-53296288D01*
X75832605Y-53308601D01*
X75748997Y-53308601D01*
X75623978Y-53296288D01*
X75463559Y-53247625D01*
X75315725Y-53168606D01*
X75315723Y-53168605D01*
X75186142Y-53062260D01*
X75079797Y-52932679D01*
X75051193Y-52879165D01*
X75000777Y-52784843D01*
X74952114Y-52624424D01*
X74935684Y-52457601D01*
X74952114Y-52290778D01*
X74991718Y-52160221D01*
X75000776Y-52130362D01*
X75000777Y-52130359D01*
X75079796Y-51982525D01*
X75079797Y-51982523D01*
X75186142Y-51852942D01*
X75315723Y-51746597D01*
X75400339Y-51701369D01*
X75463559Y-51667577D01*
X75623978Y-51618914D01*
X75748997Y-51606601D01*
X75832605Y-51606601D01*
X75957624Y-51618914D01*
X75957624Y-51618914D01*
G37*
G36*
X85096738Y-51029505D02*
G01*
X85257157Y-51078168D01*
X85389821Y-51149078D01*
X85404993Y-51157188D01*
X85534574Y-51263533D01*
X85640919Y-51393114D01*
X85640920Y-51393116D01*
X85719939Y-51540950D01*
X85768602Y-51701369D01*
X85785032Y-51868192D01*
X85768602Y-52035015D01*
X85719939Y-52195434D01*
X85649029Y-52328098D01*
X85640919Y-52343270D01*
X85534574Y-52472851D01*
X85404993Y-52579196D01*
X85404991Y-52579197D01*
X85257157Y-52658216D01*
X85096738Y-52706879D01*
X84971719Y-52719192D01*
X84888111Y-52719192D01*
X84763092Y-52706879D01*
X84602673Y-52658216D01*
X84454839Y-52579197D01*
X84454837Y-52579196D01*
X84325256Y-52472851D01*
X84218911Y-52343270D01*
X84210801Y-52328098D01*
X84139891Y-52195434D01*
X84091228Y-52035015D01*
X84074798Y-51868192D01*
X84091228Y-51701369D01*
X84139891Y-51540950D01*
X84218910Y-51393116D01*
X84218911Y-51393114D01*
X84325256Y-51263533D01*
X84454837Y-51157188D01*
X84470009Y-51149078D01*
X84602673Y-51078168D01*
X84763092Y-51029505D01*
X84888111Y-51017192D01*
X84971719Y-51017192D01*
X85096738Y-51029505D01*
X85096738Y-51029505D01*
G37*
G36*
X38100933Y-49874424D02*
G01*
X38337641Y-49972472D01*
X38337643Y-49972473D01*
X38550675Y-50114816D01*
X38731844Y-50295985D01*
X38874187Y-50509017D01*
X38874188Y-50509019D01*
X38972236Y-50745727D01*
X39022220Y-50997013D01*
X39022220Y-51253227D01*
X38972236Y-51504513D01*
X38924849Y-51618914D01*
X38874187Y-51741223D01*
X38731844Y-51954255D01*
X38550675Y-52135424D01*
X38337643Y-52277767D01*
X38337642Y-52277768D01*
X38337641Y-52277768D01*
X38100933Y-52375816D01*
X37849647Y-52425800D01*
X37593433Y-52425800D01*
X37342147Y-52375816D01*
X37105439Y-52277768D01*
X37105438Y-52277768D01*
X37105437Y-52277767D01*
X36892405Y-52135424D01*
X36711236Y-51954255D01*
X36568893Y-51741223D01*
X36518231Y-51618914D01*
X36470844Y-51504513D01*
X36420860Y-51253227D01*
X36420860Y-50997013D01*
X36470844Y-50745727D01*
X36568892Y-50509019D01*
X36568893Y-50509017D01*
X36711236Y-50295985D01*
X36892405Y-50114816D01*
X37105437Y-49972473D01*
X37105439Y-49972472D01*
X37342147Y-49874424D01*
X37593433Y-49824440D01*
X37849647Y-49824440D01*
X38100933Y-49874424D01*
X38100933Y-49874424D01*
G37*
G36*
X30940673Y-49663604D02*
G01*
X31177381Y-49761652D01*
X31177383Y-49761653D01*
X31390415Y-49903996D01*
X31571584Y-50085165D01*
X31713927Y-50298197D01*
X31713928Y-50298199D01*
X31811976Y-50534907D01*
X31861960Y-50786193D01*
X31861960Y-51042407D01*
X31811976Y-51293693D01*
X31725355Y-51502814D01*
X31713927Y-51530403D01*
X31571584Y-51743435D01*
X31390415Y-51924604D01*
X31177383Y-52066947D01*
X31177382Y-52066948D01*
X31177381Y-52066948D01*
X30940673Y-52164996D01*
X30689387Y-52214980D01*
X30433173Y-52214980D01*
X30181887Y-52164996D01*
X29945179Y-52066948D01*
X29945178Y-52066948D01*
X29945177Y-52066947D01*
X29732145Y-51924604D01*
X29550976Y-51743435D01*
X29408633Y-51530403D01*
X29397205Y-51502814D01*
X29310584Y-51293693D01*
X29260600Y-51042407D01*
X29260600Y-50786193D01*
X29310584Y-50534907D01*
X29408632Y-50298199D01*
X29408633Y-50298197D01*
X29550976Y-50085165D01*
X29732145Y-49903996D01*
X29945177Y-49761653D01*
X29945179Y-49761652D01*
X30181887Y-49663604D01*
X30433173Y-49613620D01*
X30689387Y-49613620D01*
X30940673Y-49663604D01*
X30940673Y-49663604D01*
G37*
G36*
X77227624Y-49419209D02*
G01*
X77388043Y-49467872D01*
X77451263Y-49501664D01*
X77535879Y-49546892D01*
X77665460Y-49653237D01*
X77771805Y-49782818D01*
X77771806Y-49782820D01*
X77850825Y-49930654D01*
X77899488Y-50091073D01*
X77915918Y-50257896D01*
X77899488Y-50424719D01*
X77850825Y-50585138D01*
X77779915Y-50717802D01*
X77771805Y-50732974D01*
X77665460Y-50862555D01*
X77535879Y-50968900D01*
X77535877Y-50968901D01*
X77388043Y-51047920D01*
X77227624Y-51096583D01*
X77102605Y-51108896D01*
X77018997Y-51108896D01*
X76893978Y-51096583D01*
X76733559Y-51047920D01*
X76585725Y-50968901D01*
X76585723Y-50968900D01*
X76456142Y-50862555D01*
X76349797Y-50732974D01*
X76341687Y-50717802D01*
X76270777Y-50585138D01*
X76222114Y-50424719D01*
X76205684Y-50257896D01*
X76222114Y-50091073D01*
X76270777Y-49930654D01*
X76349796Y-49782820D01*
X76349797Y-49782818D01*
X76456142Y-49653237D01*
X76585723Y-49546892D01*
X76670339Y-49501664D01*
X76733559Y-49467872D01*
X76893978Y-49419209D01*
X77018997Y-49406896D01*
X77102605Y-49406896D01*
X77227624Y-49419209D01*
X77227624Y-49419209D01*
G37*
G36*
X86366738Y-48829800D02*
G01*
X86527157Y-48878463D01*
X86640885Y-48939252D01*
X86674993Y-48957483D01*
X86804574Y-49063828D01*
X86910919Y-49193409D01*
X86910920Y-49193411D01*
X86989939Y-49341245D01*
X87038602Y-49501664D01*
X87055032Y-49668487D01*
X87038602Y-49835310D01*
X86989939Y-49995729D01*
X86926286Y-50114816D01*
X86910919Y-50143565D01*
X86804574Y-50273146D01*
X86674993Y-50379491D01*
X86674991Y-50379492D01*
X86527157Y-50458511D01*
X86366738Y-50507174D01*
X86241719Y-50519487D01*
X86158111Y-50519487D01*
X86033092Y-50507174D01*
X85872673Y-50458511D01*
X85724839Y-50379492D01*
X85724837Y-50379491D01*
X85595256Y-50273146D01*
X85488911Y-50143565D01*
X85473544Y-50114816D01*
X85409891Y-49995729D01*
X85361228Y-49835310D01*
X85344798Y-49668487D01*
X85361228Y-49501664D01*
X85409891Y-49341245D01*
X85488910Y-49193411D01*
X85488911Y-49193409D01*
X85595256Y-49063828D01*
X85724837Y-48957483D01*
X85758945Y-48939252D01*
X85872673Y-48878463D01*
X86033092Y-48829800D01*
X86158111Y-48817487D01*
X86241719Y-48817487D01*
X86366738Y-48829800D01*
X86366738Y-48829800D01*
G37*
G36*
X53735249Y-48397231D02*
G01*
X53885572Y-48459497D01*
X54020859Y-48549893D01*
X54135910Y-48664944D01*
X54226306Y-48800231D01*
X54288572Y-48950554D01*
X54320314Y-49110135D01*
X54320314Y-49272843D01*
X54288572Y-49432424D01*
X54226306Y-49582747D01*
X54135910Y-49718034D01*
X54020859Y-49833085D01*
X53885572Y-49923481D01*
X53735249Y-49985747D01*
X53575668Y-50017489D01*
X53412960Y-50017489D01*
X53253379Y-49985747D01*
X53103056Y-49923481D01*
X52967769Y-49833085D01*
X52852718Y-49718034D01*
X52762322Y-49582747D01*
X52700056Y-49432424D01*
X52668314Y-49272843D01*
X52668314Y-49110135D01*
X52700056Y-48950554D01*
X52762322Y-48800231D01*
X52852718Y-48664944D01*
X52967769Y-48549893D01*
X53103056Y-48459497D01*
X53253379Y-48397231D01*
X53412960Y-48365489D01*
X53575668Y-48365489D01*
X53735249Y-48397231D01*
X53735249Y-48397231D01*
G37*
G36*
X25468051Y-47389561D02*
G01*
X25628470Y-47438224D01*
X25761134Y-47509134D01*
X25776306Y-47517244D01*
X25905887Y-47623589D01*
X26012232Y-47753170D01*
X26012233Y-47753172D01*
X26091252Y-47901006D01*
X26139915Y-48061425D01*
X26156345Y-48228248D01*
X26139915Y-48395071D01*
X26091252Y-48555490D01*
X26032746Y-48664946D01*
X26012232Y-48703326D01*
X25905887Y-48832907D01*
X25776306Y-48939252D01*
X25776304Y-48939253D01*
X25628470Y-49018272D01*
X25468051Y-49066935D01*
X25343032Y-49079248D01*
X25259424Y-49079248D01*
X25134405Y-49066935D01*
X24973986Y-49018272D01*
X24826152Y-48939253D01*
X24826150Y-48939252D01*
X24696569Y-48832907D01*
X24590224Y-48703326D01*
X24569710Y-48664946D01*
X24511204Y-48555490D01*
X24462541Y-48395071D01*
X24446111Y-48228248D01*
X24462541Y-48061425D01*
X24511204Y-47901006D01*
X24590223Y-47753172D01*
X24590224Y-47753170D01*
X24696569Y-47623589D01*
X24826150Y-47517244D01*
X24841322Y-47509134D01*
X24973986Y-47438224D01*
X25134405Y-47389561D01*
X25259424Y-47377248D01*
X25343032Y-47377248D01*
X25468051Y-47389561D01*
X25468051Y-47389561D01*
G37*
G36*
X78497624Y-47219505D02*
G01*
X78658043Y-47268168D01*
X78721263Y-47301960D01*
X78805879Y-47347188D01*
X78935460Y-47453533D01*
X79041805Y-47583114D01*
X79041806Y-47583116D01*
X79120825Y-47730950D01*
X79169488Y-47891369D01*
X79185918Y-48058192D01*
X79169488Y-48225015D01*
X79120825Y-48385434D01*
X79099952Y-48424484D01*
X79041805Y-48533270D01*
X78935460Y-48662851D01*
X78805879Y-48769196D01*
X78805877Y-48769197D01*
X78658043Y-48848216D01*
X78497624Y-48896879D01*
X78372605Y-48909192D01*
X78288997Y-48909192D01*
X78163978Y-48896879D01*
X78003559Y-48848216D01*
X77855725Y-48769197D01*
X77855723Y-48769196D01*
X77726142Y-48662851D01*
X77619797Y-48533270D01*
X77561650Y-48424484D01*
X77540777Y-48385434D01*
X77492114Y-48225015D01*
X77475684Y-48058192D01*
X77492114Y-47891369D01*
X77540777Y-47730950D01*
X77619796Y-47583116D01*
X77619797Y-47583114D01*
X77726142Y-47453533D01*
X77855723Y-47347188D01*
X77940339Y-47301960D01*
X78003559Y-47268168D01*
X78163978Y-47219505D01*
X78288997Y-47207192D01*
X78372605Y-47207192D01*
X78497624Y-47219505D01*
X78497624Y-47219505D01*
G37*
G36*
X68430704Y-46315239D02*
G01*
X68667412Y-46413287D01*
X68667414Y-46413288D01*
X68880446Y-46555631D01*
X69061615Y-46736800D01*
X69174035Y-46905049D01*
X69203959Y-46949834D01*
X69302007Y-47186542D01*
X69351991Y-47437828D01*
X69351991Y-47694042D01*
X69302007Y-47945328D01*
X69204890Y-48179788D01*
X69203958Y-48182038D01*
X69061615Y-48395070D01*
X68880446Y-48576239D01*
X68667414Y-48718582D01*
X68667413Y-48718583D01*
X68667412Y-48718583D01*
X68430704Y-48816631D01*
X68179418Y-48866615D01*
X67923204Y-48866615D01*
X67671918Y-48816631D01*
X67435210Y-48718583D01*
X67435209Y-48718583D01*
X67435208Y-48718582D01*
X67222176Y-48576239D01*
X67041007Y-48395070D01*
X66898664Y-48182038D01*
X66897732Y-48179788D01*
X66800615Y-47945328D01*
X66750631Y-47694042D01*
X66750631Y-47437828D01*
X66800615Y-47186542D01*
X66898663Y-46949834D01*
X66928587Y-46905049D01*
X67041007Y-46736800D01*
X67222176Y-46555631D01*
X67435208Y-46413288D01*
X67435210Y-46413287D01*
X67671918Y-46315239D01*
X67923204Y-46265255D01*
X68179418Y-46265255D01*
X68430704Y-46315239D01*
X68430704Y-46315239D01*
G37*
G36*
X38161893Y-46163484D02*
G01*
X38398601Y-46261532D01*
X38398603Y-46261533D01*
X38611635Y-46403876D01*
X38792804Y-46585045D01*
X38935147Y-46798077D01*
X38935148Y-46798079D01*
X39033196Y-47034787D01*
X39083180Y-47286073D01*
X39083180Y-47542287D01*
X39033196Y-47793573D01*
X38970336Y-47945329D01*
X38935147Y-48030283D01*
X38792804Y-48243315D01*
X38611635Y-48424484D01*
X38398603Y-48566827D01*
X38398602Y-48566828D01*
X38398601Y-48566828D01*
X38161893Y-48664876D01*
X37910607Y-48714860D01*
X37654393Y-48714860D01*
X37403107Y-48664876D01*
X37166399Y-48566828D01*
X37166398Y-48566828D01*
X37166397Y-48566827D01*
X36953365Y-48424484D01*
X36772196Y-48243315D01*
X36629853Y-48030283D01*
X36594664Y-47945329D01*
X36531804Y-47793573D01*
X36481820Y-47542287D01*
X36481820Y-47286073D01*
X36531804Y-47034787D01*
X36629852Y-46798079D01*
X36629853Y-46798077D01*
X36772196Y-46585045D01*
X36953365Y-46403876D01*
X37166397Y-46261533D01*
X37166399Y-46261532D01*
X37403107Y-46163484D01*
X37654393Y-46113500D01*
X37910607Y-46113500D01*
X38161893Y-46163484D01*
X38161893Y-46163484D01*
G37*
G36*
X87636738Y-46630096D02*
G01*
X87797157Y-46678759D01*
X87905744Y-46736800D01*
X87944993Y-46757779D01*
X88074574Y-46864124D01*
X88180919Y-46993705D01*
X88180920Y-46993707D01*
X88259939Y-47141541D01*
X88308602Y-47301960D01*
X88325032Y-47468783D01*
X88308602Y-47635606D01*
X88259939Y-47796025D01*
X88203825Y-47901006D01*
X88180919Y-47943861D01*
X88074574Y-48073442D01*
X87944993Y-48179787D01*
X87944991Y-48179788D01*
X87797157Y-48258807D01*
X87636738Y-48307470D01*
X87511719Y-48319783D01*
X87428111Y-48319783D01*
X87303092Y-48307470D01*
X87142673Y-48258807D01*
X86994839Y-48179788D01*
X86994837Y-48179787D01*
X86865256Y-48073442D01*
X86758911Y-47943861D01*
X86736005Y-47901006D01*
X86679891Y-47796025D01*
X86631228Y-47635606D01*
X86614798Y-47468783D01*
X86631228Y-47301960D01*
X86679891Y-47141541D01*
X86758910Y-46993707D01*
X86758911Y-46993705D01*
X86865256Y-46864124D01*
X86994837Y-46757779D01*
X87034086Y-46736800D01*
X87142673Y-46678759D01*
X87303092Y-46630096D01*
X87428111Y-46617783D01*
X87511719Y-46617783D01*
X87636738Y-46630096D01*
X87636738Y-46630096D01*
G37*
G36*
X32972286Y-46066362D02*
G01*
X33132705Y-46115025D01*
X33223365Y-46163484D01*
X33280541Y-46194045D01*
X33410122Y-46300390D01*
X33516467Y-46429971D01*
X33516468Y-46429973D01*
X33595487Y-46577807D01*
X33644150Y-46738226D01*
X33660580Y-46905049D01*
X33644150Y-47071872D01*
X33595487Y-47232291D01*
X33576310Y-47268168D01*
X33516467Y-47380127D01*
X33410122Y-47509708D01*
X33280541Y-47616053D01*
X33280539Y-47616054D01*
X33132705Y-47695073D01*
X32972286Y-47743736D01*
X32847267Y-47756049D01*
X32763659Y-47756049D01*
X32638640Y-47743736D01*
X32478221Y-47695073D01*
X32330387Y-47616054D01*
X32330385Y-47616053D01*
X32200804Y-47509708D01*
X32094459Y-47380127D01*
X32034616Y-47268168D01*
X32015439Y-47232291D01*
X31966776Y-47071872D01*
X31950346Y-46905049D01*
X31966776Y-46738226D01*
X32015439Y-46577807D01*
X32094458Y-46429973D01*
X32094459Y-46429971D01*
X32200804Y-46300390D01*
X32330385Y-46194045D01*
X32387561Y-46163484D01*
X32478221Y-46115025D01*
X32638640Y-46066362D01*
X32763659Y-46054049D01*
X32847267Y-46054049D01*
X32972286Y-46066362D01*
X32972286Y-46066362D01*
G37*
G36*
X79767624Y-45019800D02*
G01*
X79928043Y-45068463D01*
X80060707Y-45139373D01*
X80075879Y-45147483D01*
X80205460Y-45253828D01*
X80311805Y-45383409D01*
X80311806Y-45383411D01*
X80390825Y-45531245D01*
X80439488Y-45691664D01*
X80455918Y-45858487D01*
X80439488Y-46025310D01*
X80390825Y-46185729D01*
X80350307Y-46261532D01*
X80311805Y-46333565D01*
X80205460Y-46463146D01*
X80075879Y-46569491D01*
X80075877Y-46569492D01*
X79928043Y-46648511D01*
X79767624Y-46697174D01*
X79642605Y-46709487D01*
X79558997Y-46709487D01*
X79433978Y-46697174D01*
X79273559Y-46648511D01*
X79125725Y-46569492D01*
X79125723Y-46569491D01*
X78996142Y-46463146D01*
X78889797Y-46333565D01*
X78851295Y-46261532D01*
X78810777Y-46185729D01*
X78762114Y-46025310D01*
X78745684Y-45858487D01*
X78762114Y-45691664D01*
X78810777Y-45531245D01*
X78889796Y-45383411D01*
X78889797Y-45383409D01*
X78996142Y-45253828D01*
X79125723Y-45147483D01*
X79140895Y-45139373D01*
X79273559Y-45068463D01*
X79433978Y-45019800D01*
X79558997Y-45007487D01*
X79642605Y-45007487D01*
X79767624Y-45019800D01*
X79767624Y-45019800D01*
G37*
G36*
X25026985Y-44888149D02*
G01*
X25187404Y-44936812D01*
X25319627Y-45007487D01*
X25335240Y-45015832D01*
X25464821Y-45122177D01*
X25571166Y-45251758D01*
X25571167Y-45251760D01*
X25650186Y-45399594D01*
X25698849Y-45560013D01*
X25715279Y-45726836D01*
X25698849Y-45893659D01*
X25650186Y-46054078D01*
X25617609Y-46115025D01*
X25571166Y-46201914D01*
X25464821Y-46331495D01*
X25335240Y-46437840D01*
X25335238Y-46437841D01*
X25187404Y-46516860D01*
X25026985Y-46565523D01*
X24901966Y-46577836D01*
X24818358Y-46577836D01*
X24693339Y-46565523D01*
X24532920Y-46516860D01*
X24385086Y-46437841D01*
X24385084Y-46437840D01*
X24255503Y-46331495D01*
X24149158Y-46201914D01*
X24102715Y-46115025D01*
X24070138Y-46054078D01*
X24021475Y-45893659D01*
X24005045Y-45726836D01*
X24021475Y-45560013D01*
X24070138Y-45399594D01*
X24149157Y-45251760D01*
X24149158Y-45251758D01*
X24255503Y-45122177D01*
X24385084Y-45015832D01*
X24400697Y-45007487D01*
X24532920Y-44936812D01*
X24693339Y-44888149D01*
X24818358Y-44875836D01*
X24901966Y-44875836D01*
X25026985Y-44888149D01*
X25026985Y-44888149D01*
G37*
G36*
X88906738Y-44430391D02*
G01*
X89067157Y-44479054D01*
X89199821Y-44549964D01*
X89214993Y-44558074D01*
X89344574Y-44664419D01*
X89450919Y-44794000D01*
X89450920Y-44794002D01*
X89529939Y-44941836D01*
X89578602Y-45102255D01*
X89595032Y-45269078D01*
X89578602Y-45435901D01*
X89529939Y-45596320D01*
X89460177Y-45726836D01*
X89450919Y-45744156D01*
X89344574Y-45873737D01*
X89214993Y-45980082D01*
X89214991Y-45980083D01*
X89067157Y-46059102D01*
X88906738Y-46107765D01*
X88781719Y-46120078D01*
X88698111Y-46120078D01*
X88573092Y-46107765D01*
X88412673Y-46059102D01*
X88264839Y-45980083D01*
X88264837Y-45980082D01*
X88135256Y-45873737D01*
X88028911Y-45744156D01*
X88019653Y-45726836D01*
X87949891Y-45596320D01*
X87901228Y-45435901D01*
X87884798Y-45269078D01*
X87901228Y-45102255D01*
X87949891Y-44941836D01*
X88028910Y-44794002D01*
X88028911Y-44794000D01*
X88135256Y-44664419D01*
X88264837Y-44558074D01*
X88280009Y-44549964D01*
X88412673Y-44479054D01*
X88573092Y-44430391D01*
X88698111Y-44418078D01*
X88781719Y-44418078D01*
X88906738Y-44430391D01*
X88906738Y-44430391D01*
G37*
G36*
X50747424Y-43722460D02*
G01*
X50902296Y-43786610D01*
X51041677Y-43879742D01*
X51160211Y-43998276D01*
X51253343Y-44137657D01*
X51317493Y-44292529D01*
X51350196Y-44456941D01*
X51350196Y-44624573D01*
X51317493Y-44788985D01*
X51253343Y-44943857D01*
X51160211Y-45083238D01*
X51041677Y-45201772D01*
X50902296Y-45294904D01*
X50747424Y-45359054D01*
X50583012Y-45391757D01*
X50415380Y-45391757D01*
X50250968Y-45359054D01*
X50096096Y-45294904D01*
X49956715Y-45201772D01*
X49838181Y-45083238D01*
X49745049Y-44943857D01*
X49680899Y-44788985D01*
X49648196Y-44624573D01*
X49648196Y-44456941D01*
X49680899Y-44292529D01*
X49745049Y-44137657D01*
X49838181Y-43998276D01*
X49956715Y-43879742D01*
X50096096Y-43786610D01*
X50250968Y-43722460D01*
X50415380Y-43689757D01*
X50583012Y-43689757D01*
X50747424Y-43722460D01*
X50747424Y-43722460D01*
G37*
G36*
X32531220Y-43564950D02*
G01*
X32691639Y-43613613D01*
X32776146Y-43658783D01*
X32839475Y-43692633D01*
X32969056Y-43798978D01*
X33075401Y-43928559D01*
X33075402Y-43928561D01*
X33154421Y-44076395D01*
X33203084Y-44236814D01*
X33219514Y-44403637D01*
X33203084Y-44570460D01*
X33154421Y-44730879D01*
X33123362Y-44788986D01*
X33075401Y-44878715D01*
X32969056Y-45008296D01*
X32839475Y-45114641D01*
X32839473Y-45114642D01*
X32691639Y-45193661D01*
X32531220Y-45242324D01*
X32406201Y-45254637D01*
X32322593Y-45254637D01*
X32197574Y-45242324D01*
X32037155Y-45193661D01*
X31889321Y-45114642D01*
X31889319Y-45114641D01*
X31759738Y-45008296D01*
X31653393Y-44878715D01*
X31605432Y-44788986D01*
X31574373Y-44730879D01*
X31525710Y-44570460D01*
X31509280Y-44403637D01*
X31525710Y-44236814D01*
X31574373Y-44076395D01*
X31653392Y-43928561D01*
X31653393Y-43928559D01*
X31759738Y-43798978D01*
X31889319Y-43692633D01*
X31952648Y-43658783D01*
X32037155Y-43613613D01*
X32197574Y-43564950D01*
X32322593Y-43552637D01*
X32406201Y-43552637D01*
X32531220Y-43564950D01*
X32531220Y-43564950D01*
G37*
G36*
X81037624Y-42820096D02*
G01*
X81198043Y-42868759D01*
X81330707Y-42939669D01*
X81345879Y-42947779D01*
X81475460Y-43054124D01*
X81581805Y-43183705D01*
X81581806Y-43183707D01*
X81660825Y-43331541D01*
X81709488Y-43491960D01*
X81725918Y-43658783D01*
X81709488Y-43825606D01*
X81660825Y-43986025D01*
X81612505Y-44076425D01*
X81581805Y-44133861D01*
X81475460Y-44263442D01*
X81345879Y-44369787D01*
X81345877Y-44369788D01*
X81198043Y-44448807D01*
X81037624Y-44497470D01*
X80912605Y-44509783D01*
X80828997Y-44509783D01*
X80703978Y-44497470D01*
X80543559Y-44448807D01*
X80395725Y-44369788D01*
X80395723Y-44369787D01*
X80266142Y-44263442D01*
X80159797Y-44133861D01*
X80129097Y-44076425D01*
X80080777Y-43986025D01*
X80032114Y-43825606D01*
X80015684Y-43658783D01*
X80032114Y-43491960D01*
X80080777Y-43331541D01*
X80159796Y-43183707D01*
X80159797Y-43183705D01*
X80266142Y-43054124D01*
X80395723Y-42947779D01*
X80410895Y-42939669D01*
X80543559Y-42868759D01*
X80703978Y-42820096D01*
X80828997Y-42807783D01*
X80912605Y-42807783D01*
X81037624Y-42820096D01*
X81037624Y-42820096D01*
G37*
G36*
X24585918Y-42386738D02*
G01*
X24746337Y-42435401D01*
X24840030Y-42485481D01*
X24894173Y-42514421D01*
X25023754Y-42620766D01*
X25130099Y-42750347D01*
X25130100Y-42750349D01*
X25209119Y-42898183D01*
X25257782Y-43058602D01*
X25274212Y-43225425D01*
X25257782Y-43392248D01*
X25209119Y-43552667D01*
X25152399Y-43658783D01*
X25130099Y-43700503D01*
X25023754Y-43830084D01*
X24894173Y-43936429D01*
X24894171Y-43936430D01*
X24746337Y-44015449D01*
X24585918Y-44064112D01*
X24460899Y-44076425D01*
X24377291Y-44076425D01*
X24252272Y-44064112D01*
X24091853Y-44015449D01*
X23944019Y-43936430D01*
X23944017Y-43936429D01*
X23814436Y-43830084D01*
X23708091Y-43700503D01*
X23685791Y-43658783D01*
X23629071Y-43552667D01*
X23580408Y-43392248D01*
X23563978Y-43225425D01*
X23580408Y-43058602D01*
X23629071Y-42898183D01*
X23708090Y-42750349D01*
X23708091Y-42750347D01*
X23814436Y-42620766D01*
X23944017Y-42514421D01*
X23998160Y-42485481D01*
X24091853Y-42435401D01*
X24252272Y-42386738D01*
X24377291Y-42374425D01*
X24460899Y-42374425D01*
X24585918Y-42386738D01*
X24585918Y-42386738D01*
G37*
G36*
X39324444Y-42168062D02*
G01*
X39474767Y-42230328D01*
X39610054Y-42320724D01*
X39725105Y-42435775D01*
X39815501Y-42571062D01*
X39877767Y-42721385D01*
X39909509Y-42880966D01*
X39909509Y-43043674D01*
X39877767Y-43203255D01*
X39815501Y-43353578D01*
X39725105Y-43488865D01*
X39610054Y-43603916D01*
X39474767Y-43694312D01*
X39324444Y-43756578D01*
X39164863Y-43788320D01*
X39002155Y-43788320D01*
X38842574Y-43756578D01*
X38692251Y-43694312D01*
X38556964Y-43603916D01*
X38441913Y-43488865D01*
X38351517Y-43353578D01*
X38289251Y-43203255D01*
X38257509Y-43043674D01*
X38257509Y-42880966D01*
X38289251Y-42721385D01*
X38351517Y-42571062D01*
X38441913Y-42435775D01*
X38556964Y-42320724D01*
X38692251Y-42230328D01*
X38842574Y-42168062D01*
X39002155Y-42136320D01*
X39164863Y-42136320D01*
X39324444Y-42168062D01*
X39324444Y-42168062D01*
G37*
G36*
X48066268Y-41472703D02*
G01*
X48221140Y-41536853D01*
X48360521Y-41629985D01*
X48479055Y-41748519D01*
X48572187Y-41887900D01*
X48636337Y-42042772D01*
X48669040Y-42207184D01*
X48669040Y-42374816D01*
X48636337Y-42539228D01*
X48572187Y-42694100D01*
X48479055Y-42833481D01*
X48360521Y-42952015D01*
X48221140Y-43045147D01*
X48066268Y-43109297D01*
X47901856Y-43142000D01*
X47734224Y-43142000D01*
X47569812Y-43109297D01*
X47414940Y-43045147D01*
X47275559Y-42952015D01*
X47157025Y-42833481D01*
X47063893Y-42694100D01*
X46999743Y-42539228D01*
X46967040Y-42374816D01*
X46967040Y-42207184D01*
X46999743Y-42042772D01*
X47063893Y-41887900D01*
X47157025Y-41748519D01*
X47275559Y-41629985D01*
X47414940Y-41536853D01*
X47569812Y-41472703D01*
X47734224Y-41440000D01*
X47901856Y-41440000D01*
X48066268Y-41472703D01*
X48066268Y-41472703D01*
G37*
G36*
X32090153Y-41063539D02*
G01*
X32220710Y-41103143D01*
X32249554Y-41111893D01*
X32250572Y-41112202D01*
X32316778Y-41147590D01*
X32398408Y-41191222D01*
X32527989Y-41297567D01*
X32634334Y-41427148D01*
X32634335Y-41427150D01*
X32713354Y-41574984D01*
X32762017Y-41735403D01*
X32778447Y-41902226D01*
X32762017Y-42069049D01*
X32713354Y-42229468D01*
X32642444Y-42362132D01*
X32634334Y-42377304D01*
X32527989Y-42506885D01*
X32398408Y-42613230D01*
X32398406Y-42613231D01*
X32250572Y-42692250D01*
X32250569Y-42692251D01*
X32220710Y-42701309D01*
X32090153Y-42740913D01*
X31965134Y-42753226D01*
X31881526Y-42753226D01*
X31756507Y-42740913D01*
X31625950Y-42701309D01*
X31596091Y-42692251D01*
X31596088Y-42692250D01*
X31448254Y-42613231D01*
X31448252Y-42613230D01*
X31318671Y-42506885D01*
X31212326Y-42377304D01*
X31204216Y-42362132D01*
X31133306Y-42229468D01*
X31084643Y-42069049D01*
X31068213Y-41902226D01*
X31084643Y-41735403D01*
X31133306Y-41574984D01*
X31212325Y-41427150D01*
X31212326Y-41427148D01*
X31318671Y-41297567D01*
X31448252Y-41191222D01*
X31529882Y-41147590D01*
X31596088Y-41112202D01*
X31597107Y-41111893D01*
X31625950Y-41103143D01*
X31756507Y-41063539D01*
X31881526Y-41051226D01*
X31965134Y-41051226D01*
X32090153Y-41063539D01*
X32090153Y-41063539D01*
G37*
G36*
X83303289Y-41147590D02*
G01*
X82452289Y-42621566D01*
X80978313Y-41770566D01*
X81829313Y-40296590D01*
X83303289Y-41147590D01*
X83303289Y-41147590D01*
G37*
G36*
X77162714Y-40959231D02*
G01*
X77313037Y-41021497D01*
X77448324Y-41111893D01*
X77563375Y-41226944D01*
X77653771Y-41362231D01*
X77716037Y-41512554D01*
X77747779Y-41672135D01*
X77747779Y-41834843D01*
X77716037Y-41994424D01*
X77653771Y-42144747D01*
X77563375Y-42280034D01*
X77448324Y-42395085D01*
X77313037Y-42485481D01*
X77162714Y-42547747D01*
X77003133Y-42579489D01*
X76840425Y-42579489D01*
X76680844Y-42547747D01*
X76530521Y-42485481D01*
X76395234Y-42395085D01*
X76280183Y-42280034D01*
X76189787Y-42144747D01*
X76127521Y-41994424D01*
X76095779Y-41834843D01*
X76095779Y-41672135D01*
X76127521Y-41512554D01*
X76189787Y-41362231D01*
X76280183Y-41226944D01*
X76395234Y-41111893D01*
X76530521Y-41021497D01*
X76680844Y-40959231D01*
X76840425Y-40927489D01*
X77003133Y-40927489D01*
X77162714Y-40959231D01*
X77162714Y-40959231D01*
G37*
G36*
X72469990Y-41116216D02*
G01*
X71643989Y-42546891D01*
X70213314Y-41720890D01*
X71039315Y-40290215D01*
X72469990Y-41116216D01*
X72469990Y-41116216D01*
G37*
G36*
X24963875Y-41414310D02*
G01*
X23287732Y-41709859D01*
X22992183Y-40033716D01*
X24668326Y-39738167D01*
X24963875Y-41414310D01*
X24963875Y-41414310D01*
G37*
G36*
X44541974Y-40764657D02*
G01*
X43111299Y-41590658D01*
X42285298Y-40159983D01*
X43715973Y-39333982D01*
X44541974Y-40764657D01*
X44541974Y-40764657D01*
G37*
G36*
X31649087Y-38562127D02*
G01*
X31809506Y-38610790D01*
X31942170Y-38681700D01*
X31957342Y-38689810D01*
X32086923Y-38796155D01*
X32193268Y-38925736D01*
X32193269Y-38925738D01*
X32272288Y-39073572D01*
X32320951Y-39233991D01*
X32337381Y-39400814D01*
X32320951Y-39567637D01*
X32272288Y-39728056D01*
X32201378Y-39860720D01*
X32193268Y-39875892D01*
X32086923Y-40005473D01*
X31957342Y-40111818D01*
X31957340Y-40111819D01*
X31809506Y-40190838D01*
X31649087Y-40239501D01*
X31524068Y-40251814D01*
X31440460Y-40251814D01*
X31315441Y-40239501D01*
X31155022Y-40190838D01*
X31007188Y-40111819D01*
X31007186Y-40111818D01*
X30877605Y-40005473D01*
X30771260Y-39875892D01*
X30763150Y-39860720D01*
X30692240Y-39728056D01*
X30643577Y-39567637D01*
X30627147Y-39400814D01*
X30643577Y-39233991D01*
X30692240Y-39073572D01*
X30771259Y-38925738D01*
X30771260Y-38925736D01*
X30877605Y-38796155D01*
X31007186Y-38689810D01*
X31022358Y-38681700D01*
X31155022Y-38610790D01*
X31315441Y-38562127D01*
X31440460Y-38549814D01*
X31524068Y-38549814D01*
X31649087Y-38562127D01*
X31649087Y-38562127D01*
G37*
G36*
X54358103Y-37149980D02*
G01*
X53328358Y-38377183D01*
X52101155Y-37347438D01*
X53130900Y-36120235D01*
X54358103Y-37149980D01*
X54358103Y-37149980D01*
G37*
G36*
X38989507Y-36587935D02*
G01*
X39139830Y-36650201D01*
X39275117Y-36740597D01*
X39390168Y-36855648D01*
X39480564Y-36990935D01*
X39542830Y-37141258D01*
X39574572Y-37300839D01*
X39574572Y-37463547D01*
X39542830Y-37623128D01*
X39480564Y-37773451D01*
X39390168Y-37908738D01*
X39275117Y-38023789D01*
X39139830Y-38114185D01*
X38989507Y-38176451D01*
X38829926Y-38208193D01*
X38667218Y-38208193D01*
X38507637Y-38176451D01*
X38357314Y-38114185D01*
X38222027Y-38023789D01*
X38106976Y-37908738D01*
X38016580Y-37773451D01*
X37954314Y-37623128D01*
X37922572Y-37463547D01*
X37922572Y-37300839D01*
X37954314Y-37141258D01*
X38016580Y-36990935D01*
X38106976Y-36855648D01*
X38222027Y-36740597D01*
X38357314Y-36650201D01*
X38507637Y-36587935D01*
X38667218Y-36556193D01*
X38829926Y-36556193D01*
X38989507Y-36587935D01*
X38989507Y-36587935D01*
G37*
G36*
X27522680Y-35388907D02*
G01*
X27759388Y-35486955D01*
X27759390Y-35486956D01*
X27972422Y-35629299D01*
X28153591Y-35810468D01*
X28295934Y-36023500D01*
X28295935Y-36023502D01*
X28393983Y-36260210D01*
X28443967Y-36511496D01*
X28443967Y-36767710D01*
X28393983Y-37018996D01*
X28295935Y-37255704D01*
X28295934Y-37255706D01*
X28153591Y-37468738D01*
X27972422Y-37649907D01*
X27759390Y-37792250D01*
X27759389Y-37792251D01*
X27759388Y-37792251D01*
X27522680Y-37890299D01*
X27271394Y-37940283D01*
X27015180Y-37940283D01*
X26763894Y-37890299D01*
X26527186Y-37792251D01*
X26527185Y-37792251D01*
X26527184Y-37792250D01*
X26314152Y-37649907D01*
X26132983Y-37468738D01*
X25990640Y-37255706D01*
X25990639Y-37255704D01*
X25892591Y-37018996D01*
X25842607Y-36767710D01*
X25842607Y-36511496D01*
X25892591Y-36260210D01*
X25990639Y-36023502D01*
X25990640Y-36023500D01*
X26132983Y-35810468D01*
X26314152Y-35629299D01*
X26527184Y-35486956D01*
X26527186Y-35486955D01*
X26763894Y-35388907D01*
X27015180Y-35338923D01*
X27271394Y-35338923D01*
X27522680Y-35388907D01*
X27522680Y-35388907D01*
G37*
G36*
X74082587Y-36294168D02*
G01*
X74232910Y-36356434D01*
X74368197Y-36446830D01*
X74483248Y-36561881D01*
X74573644Y-36697168D01*
X74635910Y-36847491D01*
X74667652Y-37007072D01*
X74667652Y-37169780D01*
X74635910Y-37329361D01*
X74573644Y-37479684D01*
X74483248Y-37614971D01*
X74368197Y-37730022D01*
X74232910Y-37820418D01*
X74082587Y-37882684D01*
X73923006Y-37914426D01*
X73760298Y-37914426D01*
X73600717Y-37882684D01*
X73450394Y-37820418D01*
X73315107Y-37730022D01*
X73200056Y-37614971D01*
X73109660Y-37479684D01*
X73047394Y-37329361D01*
X73015652Y-37169780D01*
X73015652Y-37007072D01*
X73047394Y-36847491D01*
X73109660Y-36697168D01*
X73200056Y-36561881D01*
X73315107Y-36446830D01*
X73450394Y-36356434D01*
X73600717Y-36294168D01*
X73760298Y-36262426D01*
X73923006Y-36262426D01*
X74082587Y-36294168D01*
X74082587Y-36294168D01*
G37*
G36*
X66513743Y-34677401D02*
G01*
X66697623Y-34753567D01*
X66750453Y-34775450D01*
X66963485Y-34917793D01*
X67144654Y-35098962D01*
X67286997Y-35311994D01*
X67286998Y-35311996D01*
X67385046Y-35548704D01*
X67435030Y-35799990D01*
X67435030Y-36056204D01*
X67385046Y-36307490D01*
X67300543Y-36511497D01*
X67286997Y-36544200D01*
X67144654Y-36757232D01*
X66963485Y-36938401D01*
X66750453Y-37080744D01*
X66750452Y-37080745D01*
X66750451Y-37080745D01*
X66513743Y-37178793D01*
X66262457Y-37228777D01*
X66006243Y-37228777D01*
X65754957Y-37178793D01*
X65518249Y-37080745D01*
X65518248Y-37080745D01*
X65518247Y-37080744D01*
X65305215Y-36938401D01*
X65124046Y-36757232D01*
X64981703Y-36544200D01*
X64968157Y-36511497D01*
X64883654Y-36307490D01*
X64833670Y-36056204D01*
X64833670Y-35799990D01*
X64883654Y-35548704D01*
X64981702Y-35311996D01*
X64981703Y-35311994D01*
X65124046Y-35098962D01*
X65305215Y-34917793D01*
X65518247Y-34775450D01*
X65571077Y-34753567D01*
X65754957Y-34677401D01*
X66006243Y-34627417D01*
X66262457Y-34627417D01*
X66513743Y-34677401D01*
X66513743Y-34677401D01*
G37*
G36*
X51517518Y-34845809D02*
G01*
X51663290Y-34906190D01*
X51663292Y-34906191D01*
X51794484Y-34993850D01*
X51906054Y-35105420D01*
X51986379Y-35225636D01*
X51993714Y-35236614D01*
X52054095Y-35382386D01*
X52084876Y-35537135D01*
X52084876Y-35694921D01*
X52054095Y-35849670D01*
X52007025Y-35963307D01*
X51993713Y-35995444D01*
X51906054Y-36126636D01*
X51794484Y-36238206D01*
X51663292Y-36325865D01*
X51663291Y-36325866D01*
X51663290Y-36325866D01*
X51517518Y-36386247D01*
X51362769Y-36417028D01*
X51204983Y-36417028D01*
X51050234Y-36386247D01*
X50904462Y-36325866D01*
X50904461Y-36325866D01*
X50904460Y-36325865D01*
X50773268Y-36238206D01*
X50661698Y-36126636D01*
X50574039Y-35995444D01*
X50560727Y-35963307D01*
X50513657Y-35849670D01*
X50482876Y-35694921D01*
X50482876Y-35537135D01*
X50513657Y-35382386D01*
X50574038Y-35236614D01*
X50581373Y-35225636D01*
X50661698Y-35105420D01*
X50773268Y-34993850D01*
X50904460Y-34906191D01*
X50904462Y-34906190D01*
X51050234Y-34845809D01*
X51204983Y-34815028D01*
X51362769Y-34815028D01*
X51517518Y-34845809D01*
X51517518Y-34845809D01*
G37*
G36*
X89980982Y-34642504D02*
G01*
X90131305Y-34704770D01*
X90266592Y-34795166D01*
X90381643Y-34910217D01*
X90472039Y-35045504D01*
X90534305Y-35195827D01*
X90566047Y-35355408D01*
X90566047Y-35518116D01*
X90534305Y-35677697D01*
X90472039Y-35828020D01*
X90381643Y-35963307D01*
X90266592Y-36078358D01*
X90131305Y-36168754D01*
X89980982Y-36231020D01*
X89821401Y-36262762D01*
X89658693Y-36262762D01*
X89499112Y-36231020D01*
X89348789Y-36168754D01*
X89213502Y-36078358D01*
X89098451Y-35963307D01*
X89008055Y-35828020D01*
X88945789Y-35677697D01*
X88914047Y-35518116D01*
X88914047Y-35355408D01*
X88945789Y-35195827D01*
X89008055Y-35045504D01*
X89098451Y-34910217D01*
X89213502Y-34795166D01*
X89348789Y-34704770D01*
X89499112Y-34642504D01*
X89658693Y-34610762D01*
X89821401Y-34610762D01*
X89980982Y-34642504D01*
X89980982Y-34642504D01*
G37*
G36*
X85288258Y-34799489D02*
G01*
X84462257Y-36230164D01*
X83031582Y-35404163D01*
X83857583Y-33973488D01*
X85288258Y-34799489D01*
X85288258Y-34799489D01*
G37*
G36*
X80807167Y-34463977D02*
G01*
X80957490Y-34526243D01*
X81092777Y-34616639D01*
X81207828Y-34731690D01*
X81298224Y-34866977D01*
X81360490Y-35017300D01*
X81392232Y-35176881D01*
X81392232Y-35339589D01*
X81360490Y-35499170D01*
X81298224Y-35649493D01*
X81207828Y-35784780D01*
X81092777Y-35899831D01*
X80957490Y-35990227D01*
X80807167Y-36052493D01*
X80647586Y-36084235D01*
X80484878Y-36084235D01*
X80325297Y-36052493D01*
X80174974Y-35990227D01*
X80039687Y-35899831D01*
X79924636Y-35784780D01*
X79834240Y-35649493D01*
X79771974Y-35499170D01*
X79740232Y-35339589D01*
X79740232Y-35176881D01*
X79771974Y-35017300D01*
X79834240Y-34866977D01*
X79924636Y-34731690D01*
X80039687Y-34616639D01*
X80174974Y-34526243D01*
X80325297Y-34463977D01*
X80484878Y-34432235D01*
X80647586Y-34432235D01*
X80807167Y-34463977D01*
X80807167Y-34463977D01*
G37*
G36*
X76114443Y-34620962D02*
G01*
X75288442Y-36051637D01*
X73857767Y-35225636D01*
X74683768Y-33794961D01*
X76114443Y-34620962D01*
X76114443Y-34620962D01*
G37*
G36*
X49571765Y-33213129D02*
G01*
X49717537Y-33273510D01*
X49717539Y-33273511D01*
X49848731Y-33361170D01*
X49960301Y-33472740D01*
X50047960Y-33603932D01*
X50047961Y-33603934D01*
X50108342Y-33749706D01*
X50139123Y-33904455D01*
X50139123Y-34062241D01*
X50108342Y-34216990D01*
X50047961Y-34362762D01*
X50047960Y-34362764D01*
X49960301Y-34493956D01*
X49848731Y-34605526D01*
X49717539Y-34693185D01*
X49717538Y-34693186D01*
X49717537Y-34693186D01*
X49571765Y-34753567D01*
X49417016Y-34784348D01*
X49259230Y-34784348D01*
X49104481Y-34753567D01*
X48958709Y-34693186D01*
X48958708Y-34693186D01*
X48958707Y-34693185D01*
X48827515Y-34605526D01*
X48715945Y-34493956D01*
X48628286Y-34362764D01*
X48628285Y-34362762D01*
X48567904Y-34216990D01*
X48537123Y-34062241D01*
X48537123Y-33904455D01*
X48567904Y-33749706D01*
X48628285Y-33603934D01*
X48628286Y-33603932D01*
X48715945Y-33472740D01*
X48827515Y-33361170D01*
X48958707Y-33273511D01*
X48958709Y-33273510D01*
X49104481Y-33213129D01*
X49259230Y-33182348D01*
X49417016Y-33182348D01*
X49571765Y-33213129D01*
X49571765Y-33213129D01*
G37*
G36*
X24588133Y-30811724D02*
G01*
X24824841Y-30909772D01*
X24824843Y-30909773D01*
X25037875Y-31052116D01*
X25219044Y-31233285D01*
X25262448Y-31298244D01*
X25361388Y-31446319D01*
X25459436Y-31683027D01*
X25509420Y-31934313D01*
X25509420Y-32190527D01*
X25459436Y-32441813D01*
X25361388Y-32678521D01*
X25361387Y-32678523D01*
X25219044Y-32891555D01*
X25037875Y-33072724D01*
X24824843Y-33215067D01*
X24824842Y-33215068D01*
X24824841Y-33215068D01*
X24588133Y-33313116D01*
X24336847Y-33363100D01*
X24080633Y-33363100D01*
X23829347Y-33313116D01*
X23592639Y-33215068D01*
X23592638Y-33215068D01*
X23592637Y-33215067D01*
X23379605Y-33072724D01*
X23198436Y-32891555D01*
X23056093Y-32678523D01*
X23056092Y-32678521D01*
X22958044Y-32441813D01*
X22908060Y-32190527D01*
X22908060Y-31934313D01*
X22958044Y-31683027D01*
X23056092Y-31446319D01*
X23155032Y-31298244D01*
X23198436Y-31233285D01*
X23379605Y-31052116D01*
X23592637Y-30909773D01*
X23592639Y-30909772D01*
X23829347Y-30811724D01*
X24080633Y-30761740D01*
X24336847Y-30761740D01*
X24588133Y-30811724D01*
X24588133Y-30811724D01*
G37*
G36*
X86900855Y-29977441D02*
G01*
X87051178Y-30039707D01*
X87186465Y-30130103D01*
X87301516Y-30245154D01*
X87391912Y-30380441D01*
X87454178Y-30530764D01*
X87485920Y-30690345D01*
X87485920Y-30853053D01*
X87454178Y-31012634D01*
X87391912Y-31162957D01*
X87301516Y-31298244D01*
X87186465Y-31413295D01*
X87051178Y-31503691D01*
X86900855Y-31565957D01*
X86741274Y-31597699D01*
X86578566Y-31597699D01*
X86418985Y-31565957D01*
X86268662Y-31503691D01*
X86133375Y-31413295D01*
X86018324Y-31298244D01*
X85927928Y-31162957D01*
X85865662Y-31012634D01*
X85833920Y-30853053D01*
X85833920Y-30690345D01*
X85865662Y-30530764D01*
X85927928Y-30380441D01*
X86018324Y-30245154D01*
X86133375Y-30130103D01*
X86268662Y-30039707D01*
X86418985Y-29977441D01*
X86578566Y-29945699D01*
X86741274Y-29945699D01*
X86900855Y-29977441D01*
X86900855Y-29977441D01*
G37*
G36*
X70321688Y-29943159D02*
G01*
X70472011Y-30005425D01*
X70607298Y-30095821D01*
X70722349Y-30210872D01*
X70812745Y-30346159D01*
X70875011Y-30496482D01*
X70906753Y-30656063D01*
X70906753Y-30818771D01*
X70875011Y-30978352D01*
X70812745Y-31128675D01*
X70722349Y-31263962D01*
X70607298Y-31379013D01*
X70472011Y-31469409D01*
X70321688Y-31531675D01*
X70162107Y-31563417D01*
X69999399Y-31563417D01*
X69839818Y-31531675D01*
X69689495Y-31469409D01*
X69554208Y-31379013D01*
X69439157Y-31263962D01*
X69348761Y-31128675D01*
X69286495Y-30978352D01*
X69254753Y-30818771D01*
X69254753Y-30656063D01*
X69286495Y-30496482D01*
X69348761Y-30346159D01*
X69439157Y-30210872D01*
X69554208Y-30095821D01*
X69689495Y-30005425D01*
X69839818Y-29943159D01*
X69999399Y-29911417D01*
X70162107Y-29911417D01*
X70321688Y-29943159D01*
X70321688Y-29943159D01*
G37*
G36*
X77727040Y-29798914D02*
G01*
X77877363Y-29861180D01*
X78012650Y-29951576D01*
X78127701Y-30066627D01*
X78218097Y-30201914D01*
X78280363Y-30352237D01*
X78312105Y-30511818D01*
X78312105Y-30674526D01*
X78280363Y-30834107D01*
X78218097Y-30984430D01*
X78127701Y-31119717D01*
X78012650Y-31234768D01*
X77877363Y-31325164D01*
X77727040Y-31387430D01*
X77567459Y-31419172D01*
X77404751Y-31419172D01*
X77245170Y-31387430D01*
X77094847Y-31325164D01*
X76959560Y-31234768D01*
X76844509Y-31119717D01*
X76754113Y-30984430D01*
X76691847Y-30834107D01*
X76660105Y-30674526D01*
X76660105Y-30511818D01*
X76691847Y-30352237D01*
X76754113Y-30201914D01*
X76844509Y-30066627D01*
X76959560Y-29951576D01*
X77094847Y-29861180D01*
X77245170Y-29798914D01*
X77404751Y-29767172D01*
X77567459Y-29767172D01*
X77727040Y-29798914D01*
X77727040Y-29798914D01*
G37*
G36*
X24565273Y-27171904D02*
G01*
X24801981Y-27269952D01*
X24801983Y-27269953D01*
X25015015Y-27412296D01*
X25196184Y-27593465D01*
X25338527Y-27806497D01*
X25338528Y-27806499D01*
X25436576Y-28043207D01*
X25486560Y-28294493D01*
X25486560Y-28550707D01*
X25436576Y-28801993D01*
X25338528Y-29038701D01*
X25338527Y-29038703D01*
X25196184Y-29251735D01*
X25015015Y-29432904D01*
X24801983Y-29575247D01*
X24801982Y-29575248D01*
X24801981Y-29575248D01*
X24565273Y-29673296D01*
X24313987Y-29723280D01*
X24057773Y-29723280D01*
X23806487Y-29673296D01*
X23569779Y-29575248D01*
X23569778Y-29575248D01*
X23569777Y-29575247D01*
X23356745Y-29432904D01*
X23175576Y-29251735D01*
X23033233Y-29038703D01*
X23033232Y-29038701D01*
X22935184Y-28801993D01*
X22885200Y-28550707D01*
X22885200Y-28294493D01*
X22935184Y-28043207D01*
X23033232Y-27806499D01*
X23033233Y-27806497D01*
X23175576Y-27593465D01*
X23356745Y-27412296D01*
X23569777Y-27269953D01*
X23569779Y-27269952D01*
X23806487Y-27171904D01*
X24057773Y-27121920D01*
X24313987Y-27121920D01*
X24565273Y-27171904D01*
X24565273Y-27171904D01*
G37*
G36*
X36246300Y-29484820D02*
G01*
X34594300Y-29484820D01*
X34594300Y-27832820D01*
X36246300Y-27832820D01*
X36246300Y-29484820D01*
X36246300Y-29484820D01*
G37*
G36*
X66544027Y-27959627D02*
G01*
X65113352Y-28785628D01*
X64287351Y-27354953D01*
X65718026Y-26528952D01*
X66544027Y-27959627D01*
X66544027Y-27959627D01*
G37*
G36*
X40661235Y-25364562D02*
G01*
X40811558Y-25426828D01*
X40946845Y-25517224D01*
X41061896Y-25632275D01*
X41152292Y-25767562D01*
X41214558Y-25917885D01*
X41246300Y-26077466D01*
X41246300Y-26240174D01*
X41214558Y-26399755D01*
X41152292Y-26550078D01*
X41061896Y-26685365D01*
X40946845Y-26800416D01*
X40811558Y-26890812D01*
X40661235Y-26953078D01*
X40501654Y-26984820D01*
X40338946Y-26984820D01*
X40179365Y-26953078D01*
X40029042Y-26890812D01*
X39893755Y-26800416D01*
X39778704Y-26685365D01*
X39688308Y-26550078D01*
X39626042Y-26399755D01*
X39594300Y-26240174D01*
X39594300Y-26077466D01*
X39626042Y-25917885D01*
X39688308Y-25767562D01*
X39778704Y-25632275D01*
X39893755Y-25517224D01*
X40029042Y-25426828D01*
X40179365Y-25364562D01*
X40338946Y-25332820D01*
X40501654Y-25332820D01*
X40661235Y-25364562D01*
X40661235Y-25364562D01*
G37*
G36*
X69986751Y-24363032D02*
G01*
X70137074Y-24425298D01*
X70272361Y-24515694D01*
X70387412Y-24630745D01*
X70477808Y-24766032D01*
X70540074Y-24916355D01*
X70571816Y-25075936D01*
X70571816Y-25238644D01*
X70540074Y-25398225D01*
X70477808Y-25548548D01*
X70387412Y-25683835D01*
X70272361Y-25798886D01*
X70137074Y-25889282D01*
X69986751Y-25951548D01*
X69827170Y-25983290D01*
X69664462Y-25983290D01*
X69504881Y-25951548D01*
X69354558Y-25889282D01*
X69219271Y-25798886D01*
X69104220Y-25683835D01*
X69013824Y-25548548D01*
X68951558Y-25398225D01*
X68919816Y-25238644D01*
X68919816Y-25075936D01*
X68951558Y-24916355D01*
X69013824Y-24766032D01*
X69104220Y-24630745D01*
X69219271Y-24515694D01*
X69354558Y-24425298D01*
X69504881Y-24363032D01*
X69664462Y-24331290D01*
X69827170Y-24331290D01*
X69986751Y-24363032D01*
X69986751Y-24363032D01*
G37*
G36*
X35661235Y-22864562D02*
G01*
X35811558Y-22926828D01*
X35946845Y-23017224D01*
X36061896Y-23132275D01*
X36152292Y-23267562D01*
X36214558Y-23417885D01*
X36246300Y-23577466D01*
X36246300Y-23740174D01*
X36214558Y-23899755D01*
X36152292Y-24050078D01*
X36061896Y-24185365D01*
X35946845Y-24300416D01*
X35811558Y-24390812D01*
X35661235Y-24453078D01*
X35501654Y-24484820D01*
X35338946Y-24484820D01*
X35179365Y-24453078D01*
X35029042Y-24390812D01*
X34893755Y-24300416D01*
X34778704Y-24185365D01*
X34688308Y-24050078D01*
X34626042Y-23899755D01*
X34594300Y-23740174D01*
X34594300Y-23577466D01*
X34626042Y-23417885D01*
X34688308Y-23267562D01*
X34778704Y-23132275D01*
X34893755Y-23017224D01*
X35029042Y-22926828D01*
X35179365Y-22864562D01*
X35338946Y-22832820D01*
X35501654Y-22832820D01*
X35661235Y-22864562D01*
X35661235Y-22864562D01*
G37*
G36*
X26879213Y-19366484D02*
G01*
X27115921Y-19464532D01*
X27115923Y-19464533D01*
X27328955Y-19606876D01*
X27510124Y-19788045D01*
X27635823Y-19976168D01*
X27652468Y-20001079D01*
X27750516Y-20237787D01*
X27800500Y-20489073D01*
X27800500Y-20745287D01*
X27750516Y-20996573D01*
X27658780Y-21218043D01*
X27652467Y-21233283D01*
X27510124Y-21446315D01*
X27328955Y-21627484D01*
X27115923Y-21769827D01*
X27115922Y-21769828D01*
X27115921Y-21769828D01*
X26879213Y-21867876D01*
X26627927Y-21917860D01*
X26371713Y-21917860D01*
X26120427Y-21867876D01*
X25883719Y-21769828D01*
X25883718Y-21769828D01*
X25883717Y-21769827D01*
X25670685Y-21627484D01*
X25489516Y-21446315D01*
X25347173Y-21233283D01*
X25340860Y-21218043D01*
X25249124Y-20996573D01*
X25199140Y-20745287D01*
X25199140Y-20489073D01*
X25249124Y-20237787D01*
X25347172Y-20001079D01*
X25363817Y-19976168D01*
X25489516Y-19788045D01*
X25670685Y-19606876D01*
X25883717Y-19464533D01*
X25883719Y-19464532D01*
X26120427Y-19366484D01*
X26371713Y-19316500D01*
X26627927Y-19316500D01*
X26879213Y-19366484D01*
X26879213Y-19366484D01*
G37*
G36*
X34133453Y-19351244D02*
G01*
X34370161Y-19449292D01*
X34370163Y-19449293D01*
X34583195Y-19591636D01*
X34764364Y-19772805D01*
X34900246Y-19976168D01*
X34906708Y-19985839D01*
X35004756Y-20222547D01*
X35054740Y-20473833D01*
X35054740Y-20730047D01*
X35004756Y-20981333D01*
X34920520Y-21184695D01*
X34906707Y-21218043D01*
X34764364Y-21431075D01*
X34583195Y-21612244D01*
X34370163Y-21754587D01*
X34370162Y-21754588D01*
X34370161Y-21754588D01*
X34133453Y-21852636D01*
X33882167Y-21902620D01*
X33625953Y-21902620D01*
X33374667Y-21852636D01*
X33137959Y-21754588D01*
X33137958Y-21754588D01*
X33137957Y-21754587D01*
X32924925Y-21612244D01*
X32743756Y-21431075D01*
X32601413Y-21218043D01*
X32587600Y-21184695D01*
X32503364Y-20981333D01*
X32453380Y-20730047D01*
X32453380Y-20473833D01*
X32503364Y-20222547D01*
X32601412Y-19985839D01*
X32607874Y-19976168D01*
X32743756Y-19772805D01*
X32924925Y-19591636D01*
X33137957Y-19449293D01*
X33137959Y-19449292D01*
X33374667Y-19351244D01*
X33625953Y-19301260D01*
X33882167Y-19301260D01*
X34133453Y-19351244D01*
X34133453Y-19351244D01*
G37*
G36*
X30506333Y-19351244D02*
G01*
X30743041Y-19449292D01*
X30743043Y-19449293D01*
X30956075Y-19591636D01*
X31137244Y-19772805D01*
X31273126Y-19976168D01*
X31279588Y-19985839D01*
X31377636Y-20222547D01*
X31427620Y-20473833D01*
X31427620Y-20730047D01*
X31377636Y-20981333D01*
X31293400Y-21184695D01*
X31279587Y-21218043D01*
X31137244Y-21431075D01*
X30956075Y-21612244D01*
X30743043Y-21754587D01*
X30743042Y-21754588D01*
X30743041Y-21754588D01*
X30506333Y-21852636D01*
X30255047Y-21902620D01*
X29998833Y-21902620D01*
X29747547Y-21852636D01*
X29510839Y-21754588D01*
X29510838Y-21754588D01*
X29510837Y-21754587D01*
X29297805Y-21612244D01*
X29116636Y-21431075D01*
X28974293Y-21218043D01*
X28960480Y-21184695D01*
X28876244Y-20981333D01*
X28826260Y-20730047D01*
X28826260Y-20473833D01*
X28876244Y-20222547D01*
X28974292Y-19985839D01*
X28980754Y-19976168D01*
X29116636Y-19772805D01*
X29297805Y-19591636D01*
X29510837Y-19449293D01*
X29510839Y-19449292D01*
X29747547Y-19351244D01*
X29998833Y-19301260D01*
X30255047Y-19301260D01*
X30506333Y-19351244D01*
X30506333Y-19351244D01*
G37*
G36*
X23252093Y-19351244D02*
G01*
X23488801Y-19449292D01*
X23488803Y-19449293D01*
X23701835Y-19591636D01*
X23883004Y-19772805D01*
X24018886Y-19976168D01*
X24025348Y-19985839D01*
X24123396Y-20222547D01*
X24173380Y-20473833D01*
X24173380Y-20730047D01*
X24123396Y-20981333D01*
X24039160Y-21184695D01*
X24025347Y-21218043D01*
X23883004Y-21431075D01*
X23701835Y-21612244D01*
X23488803Y-21754587D01*
X23488802Y-21754588D01*
X23488801Y-21754588D01*
X23252093Y-21852636D01*
X23000807Y-21902620D01*
X22744593Y-21902620D01*
X22493307Y-21852636D01*
X22256599Y-21754588D01*
X22256598Y-21754588D01*
X22256597Y-21754587D01*
X22043565Y-21612244D01*
X21862396Y-21431075D01*
X21720053Y-21218043D01*
X21706240Y-21184695D01*
X21622004Y-20981333D01*
X21572020Y-20730047D01*
X21572020Y-20473833D01*
X21622004Y-20222547D01*
X21720052Y-19985839D01*
X21726514Y-19976168D01*
X21862396Y-19772805D01*
X22043565Y-19591636D01*
X22256597Y-19449293D01*
X22256599Y-19449292D01*
X22493307Y-19351244D01*
X22744593Y-19301260D01*
X23000807Y-19301260D01*
X23252093Y-19351244D01*
X23252093Y-19351244D01*
G37*
G36*
X53945453Y-19203924D02*
G01*
X54180442Y-19301260D01*
X54182163Y-19301973D01*
X54395195Y-19444316D01*
X54576364Y-19625485D01*
X54684983Y-19788046D01*
X54718708Y-19838519D01*
X54816756Y-20075227D01*
X54866740Y-20326513D01*
X54866740Y-20582727D01*
X54816756Y-20834013D01*
X54725020Y-21055483D01*
X54718707Y-21070723D01*
X54576364Y-21283755D01*
X54395195Y-21464924D01*
X54182163Y-21607267D01*
X54182162Y-21607268D01*
X54182161Y-21607268D01*
X53945453Y-21705316D01*
X53694167Y-21755300D01*
X53437953Y-21755300D01*
X53186667Y-21705316D01*
X52949959Y-21607268D01*
X52949958Y-21607268D01*
X52949957Y-21607267D01*
X52736925Y-21464924D01*
X52555756Y-21283755D01*
X52413413Y-21070723D01*
X52407100Y-21055483D01*
X52315364Y-20834013D01*
X52265380Y-20582727D01*
X52265380Y-20326513D01*
X52315364Y-20075227D01*
X52413412Y-19838519D01*
X52447137Y-19788046D01*
X52555756Y-19625485D01*
X52736925Y-19444316D01*
X52949957Y-19301973D01*
X52951678Y-19301260D01*
X53186667Y-19203924D01*
X53437953Y-19153940D01*
X53694167Y-19153940D01*
X53945453Y-19203924D01*
X53945453Y-19203924D01*
G37*
G36*
X57628453Y-19188684D02*
G01*
X57865161Y-19286732D01*
X57865163Y-19286733D01*
X58078195Y-19429076D01*
X58259364Y-19610245D01*
X58378166Y-19788046D01*
X58401708Y-19823279D01*
X58499756Y-20059987D01*
X58549740Y-20311273D01*
X58549740Y-20567487D01*
X58499756Y-20818773D01*
X58426108Y-20996574D01*
X58401707Y-21055483D01*
X58259364Y-21268515D01*
X58078195Y-21449684D01*
X57865163Y-21592027D01*
X57865162Y-21592028D01*
X57865161Y-21592028D01*
X57628453Y-21690076D01*
X57377167Y-21740060D01*
X57120953Y-21740060D01*
X56869667Y-21690076D01*
X56632959Y-21592028D01*
X56632958Y-21592028D01*
X56632957Y-21592027D01*
X56419925Y-21449684D01*
X56238756Y-21268515D01*
X56096413Y-21055483D01*
X56072012Y-20996574D01*
X55998364Y-20818773D01*
X55948380Y-20567487D01*
X55948380Y-20311273D01*
X55998364Y-20059987D01*
X56096412Y-19823279D01*
X56119954Y-19788046D01*
X56238756Y-19610245D01*
X56419925Y-19429076D01*
X56632957Y-19286733D01*
X56632959Y-19286732D01*
X56869667Y-19188684D01*
X57120953Y-19138700D01*
X57377167Y-19138700D01*
X57628453Y-19188684D01*
X57628453Y-19188684D01*
G37*
G36*
X50280233Y-19104865D02*
G01*
X50516941Y-19202913D01*
X50516943Y-19202914D01*
X50729975Y-19345257D01*
X50911144Y-19526426D01*
X51048395Y-19731838D01*
X51053488Y-19739460D01*
X51151536Y-19976168D01*
X51201520Y-20227454D01*
X51201520Y-20483668D01*
X51151536Y-20734954D01*
X51056645Y-20964040D01*
X51053487Y-20971664D01*
X50911144Y-21184696D01*
X50729975Y-21365865D01*
X50516943Y-21508208D01*
X50516942Y-21508209D01*
X50516941Y-21508209D01*
X50280233Y-21606257D01*
X50028947Y-21656241D01*
X49772733Y-21656241D01*
X49521447Y-21606257D01*
X49284739Y-21508209D01*
X49284738Y-21508209D01*
X49284737Y-21508208D01*
X49071705Y-21365865D01*
X48890536Y-21184696D01*
X48748193Y-20971664D01*
X48745035Y-20964040D01*
X48650144Y-20734954D01*
X48600160Y-20483668D01*
X48600160Y-20227454D01*
X48650144Y-19976168D01*
X48748192Y-19739460D01*
X48753285Y-19731838D01*
X48890536Y-19526426D01*
X49071705Y-19345257D01*
X49284737Y-19202914D01*
X49284739Y-19202913D01*
X49521447Y-19104865D01*
X49772733Y-19054881D01*
X50028947Y-19054881D01*
X50280233Y-19104865D01*
X50280233Y-19104865D01*
G37*
G36*
X42967573Y-19097244D02*
G01*
X43204281Y-19195292D01*
X43204283Y-19195293D01*
X43417315Y-19337636D01*
X43598484Y-19518805D01*
X43740826Y-19731836D01*
X43740828Y-19731839D01*
X43838876Y-19968547D01*
X43888860Y-20219833D01*
X43888860Y-20476047D01*
X43838876Y-20727333D01*
X43794687Y-20834014D01*
X43740827Y-20964043D01*
X43598484Y-21177075D01*
X43417315Y-21358244D01*
X43204283Y-21500587D01*
X43204282Y-21500588D01*
X43204281Y-21500588D01*
X42967573Y-21598636D01*
X42716287Y-21648620D01*
X42460073Y-21648620D01*
X42208787Y-21598636D01*
X41972079Y-21500588D01*
X41972078Y-21500588D01*
X41972077Y-21500587D01*
X41759045Y-21358244D01*
X41577876Y-21177075D01*
X41435533Y-20964043D01*
X41381673Y-20834014D01*
X41337484Y-20727333D01*
X41287500Y-20476047D01*
X41287500Y-20219833D01*
X41337484Y-19968547D01*
X41435532Y-19731839D01*
X41435534Y-19731836D01*
X41577876Y-19518805D01*
X41759045Y-19337636D01*
X41972077Y-19195293D01*
X41972079Y-19195292D01*
X42208787Y-19097244D01*
X42460073Y-19047260D01*
X42716287Y-19047260D01*
X42967573Y-19097244D01*
X42967573Y-19097244D01*
G37*
G36*
X46579451Y-19097243D02*
G01*
X46816159Y-19195291D01*
X46816161Y-19195292D01*
X47029193Y-19337635D01*
X47210362Y-19518804D01*
X47281644Y-19625486D01*
X47352706Y-19731838D01*
X47450754Y-19968546D01*
X47500738Y-20219832D01*
X47500738Y-20476046D01*
X47450754Y-20727332D01*
X47352706Y-20964040D01*
X47352705Y-20964042D01*
X47210362Y-21177074D01*
X47029193Y-21358243D01*
X46816161Y-21500586D01*
X46816160Y-21500587D01*
X46816159Y-21500587D01*
X46579451Y-21598635D01*
X46328165Y-21648619D01*
X46071951Y-21648619D01*
X45820665Y-21598635D01*
X45583957Y-21500587D01*
X45583956Y-21500587D01*
X45583955Y-21500586D01*
X45370923Y-21358243D01*
X45189754Y-21177074D01*
X45047411Y-20964042D01*
X45047410Y-20964040D01*
X44949362Y-20727332D01*
X44899378Y-20476046D01*
X44899378Y-20219832D01*
X44949362Y-19968546D01*
X45047410Y-19731838D01*
X45118472Y-19625486D01*
X45189754Y-19518804D01*
X45370923Y-19337635D01*
X45583955Y-19195292D01*
X45583957Y-19195291D01*
X45820665Y-19097243D01*
X46071951Y-19047259D01*
X46328165Y-19047259D01*
X46579451Y-19097243D01*
X46579451Y-19097243D01*
G37*
G36*
X92473331Y-14270211D02*
G01*
X92801092Y-14405974D01*
X93096070Y-14603072D01*
X93346928Y-14853930D01*
X93544026Y-15148908D01*
X93679789Y-15476669D01*
X93749000Y-15824616D01*
X93749000Y-16179384D01*
X93679789Y-16527331D01*
X93544026Y-16855092D01*
X93346928Y-17150070D01*
X93096070Y-17400928D01*
X92801092Y-17598026D01*
X92473331Y-17733789D01*
X92125384Y-17803000D01*
X91770616Y-17803000D01*
X91422669Y-17733789D01*
X91094908Y-17598026D01*
X90799930Y-17400928D01*
X90549072Y-17150070D01*
X90351974Y-16855092D01*
X90216211Y-16527331D01*
X90147000Y-16179384D01*
X90147000Y-15824616D01*
X90216211Y-15476669D01*
X90351974Y-15148908D01*
X90549072Y-14853930D01*
X90799930Y-14603072D01*
X91094908Y-14405974D01*
X91422669Y-14270211D01*
X91770616Y-14201000D01*
X92125384Y-14201000D01*
X92473331Y-14270211D01*
X92473331Y-14270211D01*
G37*
G36*
X16527331Y-14270211D02*
G01*
X16855092Y-14405974D01*
X17150070Y-14603072D01*
X17400928Y-14853930D01*
X17598026Y-15148908D01*
X17733789Y-15476669D01*
X17803000Y-15824616D01*
X17803000Y-16179384D01*
X17733789Y-16527331D01*
X17598026Y-16855092D01*
X17400928Y-17150070D01*
X17150070Y-17400928D01*
X16855092Y-17598026D01*
X16527331Y-17733789D01*
X16179384Y-17803000D01*
X15824616Y-17803000D01*
X15476669Y-17733789D01*
X15148908Y-17598026D01*
X14853930Y-17400928D01*
X14603072Y-17150070D01*
X14405974Y-16855092D01*
X14270211Y-16527331D01*
X14201000Y-16179384D01*
X14201000Y-15824616D01*
X14270211Y-15476669D01*
X14405974Y-15148908D01*
X14603072Y-14853930D01*
X14853930Y-14603072D01*
X15148908Y-14405974D01*
X15476669Y-14270211D01*
X15824616Y-14201000D01*
X16179384Y-14201000D01*
X16527331Y-14270211D01*
X16527331Y-14270211D01*
G37*
M02*
