M48
; DRILL file {KiCad (5.1.2-1)-1} date Monday, December 13, 2021 at 02:52:22 AM
; FORMAT={-:-/ absolute / inch / decimal}
; #@! TF.CreationDate,2021-12-13T02:52:22-05:00
; #@! TF.GenerationSoftware,Kicad,Pcbnew,(5.1.2-1)-1
FMAT,2
INCH
T1C0.0157
T2C0.0315
T3C0.0394
T4C0.0394
T5C0.1378
%
G90
G05
T1
X1.7855Y-1.676
X3.4341Y-2.0636
X3.4961Y-1.9154
X3.5235Y-1.6636
X3.8901Y-0.6099
X3.9294Y-2.257
X3.9549Y-2.5389
X3.99Y-1.14
X3.9972Y-0.7029
T2
X2.2768Y-1.1841
X2.4268Y-1.4439
X2.9475Y-1.6607
X3.2475Y-1.6607
X1.8487Y-1.2969
X2.1085Y-1.1469
X2.3043Y-0.702
X2.6043Y-0.702
X1.5239Y-1.3871
X1.5413Y-1.2887
X1.5587Y-1.1902
X3.831Y-1.7524
X4.131Y-1.7524
X1.9116Y-1.4129
X1.9982Y-1.3629
X2.0616Y-1.6727
X2.0848Y-1.3129
X2.1482Y-1.6227
X2.1714Y-1.2629
X2.2348Y-1.5727
X2.3214Y-1.5227
X1.5418Y-1.0226
X1.8418Y-1.0226
X2.9511Y-1.5379
X3.2511Y-1.5379
X1.8004Y-1.4771
X1.9504Y-1.7369
X3.8282Y-1.0184
X4.1282Y-1.0184
X3.8307Y-1.6307
X4.1307Y-1.6307
X3.8287Y-2.2963
X4.1287Y-2.2963
X1.1892Y-2.1523
X1.4847Y-2.1002
X2.1908Y-2.1104
X2.1908Y-2.4104
X1.7613Y-1.873
X1.7613Y-1.973
X1.7613Y-2.073
X1.7613Y-2.173
X2.0613Y-1.873
X2.0613Y-1.973
X2.0613Y-2.073
X2.0613Y-2.173
X3.4704Y-0.8865
X3.6673Y-0.8865
X4.2331Y-0.9995
X4.2331Y-1.2995
X4.0973Y-0.8565
X4.3973Y-0.8565
X3.0899Y-1.9798
X3.1884Y-1.9625
X3.2869Y-1.9451
X0.8125Y-1.521
X1.108Y-1.4689
X3.8305Y-2.0037
X4.1305Y-2.0037
X2.6997Y-1.9885
X2.9951Y-1.9364
X4.3592Y-1.291
X4.3592Y-1.591
X2.7716Y-2.3938
X3.0671Y-2.3417
X2.9482Y-1.2941
X3.2482Y-1.2941
X3.545Y-2.0689
X3.645Y-2.0689
X3.745Y-2.0689
X2.6914Y-0.7574
X2.7914Y-0.7574
X2.8914Y-0.7574
X2.234Y-1.8705
X2.4938Y-1.7205
X2.7086Y-1.2713
X2.7086Y-1.5713
X0.8292Y-1.6457
X1.1246Y-1.5936
X3.8293Y-1.5091
X4.1293Y-1.5091
X4.5775Y-2.19
X4.5775Y-2.49
X1.6368Y-2.0656
X1.6368Y-2.3656
X0.7889Y-1.3882
X0.9817Y-1.1584
X0.6725Y-1.2417
X0.8653Y-1.0119
X3.8293Y-2.4203
X4.1293Y-2.4203
X1.7561Y-2.3104
X2.0561Y-2.3104
X4.7754Y-1.2863
X4.7754Y-1.5863
X3.3737Y-1.8476
X3.6737Y-1.8476
X3.8122Y-0.8007
X3.9122Y-0.8007
X4.0122Y-0.8007
X2.2251Y-1.7252
X2.3956Y-1.6267
X2.2954Y-1.9778
X2.5553Y-1.8278
X3.3736Y-0.7617
X3.6736Y-0.7617
X2.9467Y-1.784
X3.2467Y-1.784
X3.8303Y-2.1281
X4.1303Y-2.1281
X3.8283Y-1.3867
X4.1283Y-1.3867
X2.3867Y-1.1187
X2.5367Y-1.3786
X3.3549Y-1.015
X3.3549Y-1.115
X3.3549Y-1.215
X3.3549Y-1.315
X3.3549Y-1.415
X3.3549Y-1.515
X3.3549Y-1.615
X3.3549Y-1.715
X3.6549Y-1.015
X3.6549Y-1.115
X3.6549Y-1.215
X3.6549Y-1.315
X3.6549Y-1.415
X3.6549Y-1.515
X3.6549Y-1.615
X3.6549Y-1.715
X2.3042Y-0.8243
X2.6042Y-0.8243
X1.4751Y-1.6557
X1.5272Y-1.9511
X1.0551Y-1.7434
X1.1072Y-2.0388
X1.1536Y-1.726
X1.2057Y-2.0215
X1.2521Y-1.7087
X1.3042Y-2.0041
X1.3506Y-1.6913
X1.4027Y-1.9867
X3.5428Y-2.3618
X3.6428Y-2.3618
X3.7428Y-2.3618
X1.0328Y-1.3152
X1.3282Y-1.3673
X3.8304Y-1.8743
X4.1304Y-1.8743
X0.7361Y-1.7997
X0.7881Y-2.0951
X3.827Y-1.2642
X4.127Y-1.2642
X2.751Y-2.2729
X3.0465Y-2.2208
X2.948Y-1.4153
X3.248Y-1.4153
X3.8277Y-1.1404
X4.1277Y-1.1404
X3.1424Y-2.2674
X3.2409Y-2.25
X3.3394Y-2.2327
X1.1241Y-1.1467
X1.4241Y-1.1467
X2.8332Y-1.2722
X2.8332Y-1.5722
X4.5029Y-1.9043
X4.5029Y-2.0043
X4.5029Y-2.1043
X4.4109Y-1.0023
X4.4109Y-1.1023
X4.4109Y-1.2023
X0.917Y-2.0208
X0.9691Y-2.3163
X4.4533Y-2.1899
X4.4533Y-2.4899
X2.3187Y-2.11
X2.3187Y-2.41
X2.719Y-2.11
X3.0144Y-2.0579
X1.0942Y-2.4355
X1.3896Y-2.3834
X4.4839Y-1.2898
X4.4839Y-1.5898
X4.0977Y-0.7315
X4.3977Y-0.7315
X4.6512Y-1.2862
X4.6512Y-1.5862
X2.5428Y-1.0329
X2.8428Y-1.0329
X2.9479Y-1.1685
X3.2479Y-1.1685
X1.6557Y-1.4965
X1.7078Y-1.2011
X4.7186Y-0.9988
X4.7186Y-1.0988
X4.7186Y-1.1988
T3
X1.0833Y-2.3098
X1.2803Y-2.2751
X1.6372Y-0.7416
X1.7522Y-0.7416
X1.2501Y-1.5462
X1.4501Y-1.5462
X1.1053Y-0.7547
X1.2203Y-0.7547
T4
X2.9615Y-1.0307
X4.3491Y-1.705
X1.1505Y-1.0136
X1.9528Y-0.6722
X1.9528Y-0.8222
X4.2485Y-1.9914
X2.6492Y-1.7622
X2.1891Y-0.6928
X2.6601Y-2.4236
X4.6423Y-1.7051
X0.6863Y-1.532
X1.5003Y-2.2788
X0.8985Y-1.9038
X4.2445Y-2.4316
X4.2485Y-2.1383
X0.7194Y-1.6744
X2.1891Y-0.8344
X1.4371Y-0.6701
X1.4371Y-0.8201
X4.8321Y-1.9404
X4.5152Y-0.8658
X4.786Y-1.7016
X4.4942Y-1.705
X4.2458Y-2.2876
X1.4288Y-1.0132
X2.5839Y-1.9976
X2.6359Y-2.2831
X0.83Y-0.87
X0.98Y-0.87
X4.6866Y-1.9404
X2.4542Y-2.3808
X1.0082Y-1.0148
X4.5152Y-0.7222
X2.6074Y-2.1382
T5
X4.79Y-0.63
X4.79Y-2.46
X0.79Y-0.63
X0.79Y-2.46
T0
M30
