M48
; DRILL file {KiCad (5.1.2-1)-1} date Monday, July 19, 2021 at 07:49:01 PM
; FORMAT={-:-/ absolute / inch / decimal}
; #@! TF.CreationDate,2021-07-19T19:49:01-04:00
; #@! TF.GenerationSoftware,Kicad,Pcbnew,(5.1.2-1)-1
FMAT,2
INCH
T1C0.0315
T2C0.0394
T3C0.1378
%
G90
G05
T1
X2.2789Y-1.0344
X2.331Y-0.739
X2.776Y-1.614
X2.8252Y-1.5288
X1.1207Y-1.5136
X1.4162Y-1.4615
X1.8719Y-1.5779
X1.889Y-1.481
X1.5315Y-1.5076
X1.702Y-1.606
X2.122Y-1.374
X2.122Y-1.5709
X2.4131Y-1.041
X2.61Y-1.041
X1.3816Y-1.7449
X1.677Y-1.797
X1.857Y-1.015
X2.1389Y-1.1176
X1.72Y-1.417
X1.87Y-1.1572
X0.9323Y-1.3979
X1.2278Y-1.3458
X1.687Y-0.8236
X1.687Y-0.922
X1.0153Y-1.0638
X1.1019Y-1.1138
X1.1653Y-0.804
X1.1885Y-1.1638
X1.2519Y-0.854
X1.2751Y-1.2138
X1.3385Y-0.904
X1.3617Y-1.2638
X1.4251Y-0.954
X1.4483Y-1.3138
X1.5117Y-1.004
X1.5349Y-1.3638
X1.5983Y-1.054
X1.6849Y-1.104
X0.7269Y-1.5657
X1.0224Y-1.5136
X1.282Y-0.661
X1.3804Y-0.661
X1.0304Y-1.6681
X1.3258Y-1.616
X2.852Y-0.906
X2.8857Y-0.9985
X0.7413Y-1.2888
X1.0367Y-1.2367
X2.255Y-1.167
X2.255Y-1.267
X2.255Y-1.367
X2.255Y-1.467
X2.555Y-1.167
X2.555Y-1.267
X2.555Y-1.367
X2.555Y-1.467
X2.4788Y-0.8348
X2.564Y-0.884
X0.7521Y-1.1081
X0.849Y-1.091
T2
X2.806Y-1.268
X2.956Y-1.268
X2.653Y-0.642
X2.803Y-0.642
X2.184Y-0.724
X1.993Y-1.221
X2.383Y-1.728
X2.533Y-1.728
X2.119Y-0.96
T3
X0.65Y-1.82
X0.65Y-0.65
T0
M30
