G04 #@! TF.GenerationSoftware,KiCad,Pcbnew,(5.1.2-1)-1*
G04 #@! TF.CreationDate,2021-07-19T19:49:03-04:00*
G04 #@! TF.ProjectId,Psycho LFO - CGS,50737963-686f-4204-9c46-4f202d204347,rev?*
G04 #@! TF.SameCoordinates,Original*
G04 #@! TF.FileFunction,Legend,Top*
G04 #@! TF.FilePolarity,Positive*
%FSLAX46Y46*%
G04 Gerber Fmt 4.6, Leading zero omitted, Abs format (unit mm)*
G04 Created by KiCad (PCBNEW (5.1.2-1)-1) date 2021-07-19 19:49:03*
%MOMM*%
%LPD*%
G04 APERTURE LIST*
%ADD10C,0.150000*%
%ADD11C,0.300000*%
%ADD12C,0.120000*%
G04 APERTURE END LIST*
D10*
X60507619Y-32193123D02*
X60507619Y-31716933D01*
X61507619Y-31716933D01*
X60507619Y-32526457D02*
X61507619Y-32526457D01*
X60793333Y-32859790D01*
X61507619Y-33193123D01*
X60507619Y-33193123D01*
X61507619Y-33574076D02*
X61507619Y-34193123D01*
X61126666Y-33859790D01*
X61126666Y-34002647D01*
X61079047Y-34097885D01*
X61031428Y-34145504D01*
X60936190Y-34193123D01*
X60698095Y-34193123D01*
X60602857Y-34145504D01*
X60555238Y-34097885D01*
X60507619Y-34002647D01*
X60507619Y-33716933D01*
X60555238Y-33621695D01*
X60602857Y-33574076D01*
X61507619Y-35097885D02*
X61507619Y-34621695D01*
X61031428Y-34574076D01*
X61079047Y-34621695D01*
X61126666Y-34716933D01*
X61126666Y-34955028D01*
X61079047Y-35050266D01*
X61031428Y-35097885D01*
X60936190Y-35145504D01*
X60698095Y-35145504D01*
X60602857Y-35097885D01*
X60555238Y-35050266D01*
X60507619Y-34955028D01*
X60507619Y-34716933D01*
X60555238Y-34621695D01*
X60602857Y-34574076D01*
X61079047Y-35716933D02*
X61126666Y-35621695D01*
X61174285Y-35574076D01*
X61269523Y-35526457D01*
X61317142Y-35526457D01*
X61412380Y-35574076D01*
X61460000Y-35621695D01*
X61507619Y-35716933D01*
X61507619Y-35907409D01*
X61460000Y-36002647D01*
X61412380Y-36050266D01*
X61317142Y-36097885D01*
X61269523Y-36097885D01*
X61174285Y-36050266D01*
X61126666Y-36002647D01*
X61079047Y-35907409D01*
X61079047Y-35716933D01*
X61031428Y-35621695D01*
X60983809Y-35574076D01*
X60888571Y-35526457D01*
X60698095Y-35526457D01*
X60602857Y-35574076D01*
X60555238Y-35621695D01*
X60507619Y-35716933D01*
X60507619Y-35907409D01*
X60555238Y-36002647D01*
X60602857Y-36050266D01*
X60698095Y-36097885D01*
X60888571Y-36097885D01*
X60983809Y-36050266D01*
X61031428Y-36002647D01*
X61079047Y-35907409D01*
X32556927Y-26338480D02*
X32223594Y-26915830D01*
X32541207Y-25889518D02*
X31977868Y-26389060D01*
X32513979Y-26698583D01*
X33342184Y-26406947D02*
X33424662Y-26454567D01*
X33483331Y-26543425D01*
X33500761Y-26608474D01*
X33494381Y-26714762D01*
X33440383Y-26903529D01*
X33321335Y-27109725D01*
X33184858Y-27250873D01*
X33095999Y-27309542D01*
X33030950Y-27326972D01*
X32924662Y-27320592D01*
X32842184Y-27272973D01*
X32783515Y-27184115D01*
X32766085Y-27119066D01*
X32772464Y-27012778D01*
X32826463Y-26824011D01*
X32945511Y-26617814D01*
X33081988Y-26476667D01*
X33170847Y-26417998D01*
X33235895Y-26400568D01*
X33342184Y-26406947D01*
X33955645Y-27915830D02*
X33460773Y-27630116D01*
X33708209Y-27772973D02*
X34208209Y-26906947D01*
X34054302Y-26983046D01*
X33924204Y-27017906D01*
X33817916Y-27011526D01*
X34991756Y-27359328D02*
X35074234Y-27406947D01*
X35132904Y-27495806D01*
X35150333Y-27560855D01*
X35143954Y-27667143D01*
X35089955Y-27855910D01*
X34970907Y-28062106D01*
X34834430Y-28203254D01*
X34745571Y-28261923D01*
X34680523Y-28279353D01*
X34574234Y-28272973D01*
X34491756Y-28225354D01*
X34433087Y-28136495D01*
X34415657Y-28071447D01*
X34422037Y-27965159D01*
X34476035Y-27776392D01*
X34595083Y-27570195D01*
X34731561Y-27429048D01*
X34820419Y-27370378D01*
X34885468Y-27352949D01*
X34991756Y-27359328D01*
X36022738Y-27954567D02*
X35857781Y-27859328D01*
X35751493Y-27852949D01*
X35686444Y-27870378D01*
X35532537Y-27946477D01*
X35396060Y-28087625D01*
X35205583Y-28417539D01*
X35199204Y-28523828D01*
X35216634Y-28588876D01*
X35275303Y-28677735D01*
X35440260Y-28772973D01*
X35546548Y-28779353D01*
X35611597Y-28761923D01*
X35700455Y-28703254D01*
X35819503Y-28497057D01*
X35825883Y-28390769D01*
X35808453Y-28325720D01*
X35749784Y-28236862D01*
X35584826Y-28141624D01*
X35478538Y-28135244D01*
X35413489Y-28152674D01*
X35324631Y-28211343D01*
X52066866Y-31176980D02*
X52685914Y-31176980D01*
X52352580Y-31557933D01*
X52495438Y-31557933D01*
X52590676Y-31605552D01*
X52638295Y-31653171D01*
X52685914Y-31748409D01*
X52685914Y-31986504D01*
X52638295Y-32081742D01*
X52590676Y-32129361D01*
X52495438Y-32176980D01*
X52209723Y-32176980D01*
X52114485Y-32129361D01*
X52066866Y-32081742D01*
X50717485Y-23363180D02*
X50146057Y-23363180D01*
X50431771Y-23363180D02*
X50431771Y-22363180D01*
X50336533Y-22506038D01*
X50241295Y-22601276D01*
X50146057Y-22648895D01*
X51050819Y-22363180D02*
X51288914Y-23363180D01*
X51479390Y-22648895D01*
X51669866Y-23363180D01*
X51907961Y-22363180D01*
X51058866Y-17029180D02*
X51249342Y-17029180D01*
X51344580Y-17076800D01*
X51439819Y-17172038D01*
X51487438Y-17362514D01*
X51487438Y-17695847D01*
X51439819Y-17886323D01*
X51344580Y-17981561D01*
X51249342Y-18029180D01*
X51058866Y-18029180D01*
X50963628Y-17981561D01*
X50868390Y-17886323D01*
X50820771Y-17695847D01*
X50820771Y-17362514D01*
X50868390Y-17172038D01*
X50963628Y-17076800D01*
X51058866Y-17029180D01*
X52344580Y-17362514D02*
X52344580Y-18029180D01*
X51916009Y-17362514D02*
X51916009Y-17886323D01*
X51963628Y-17981561D01*
X52058866Y-18029180D01*
X52201723Y-18029180D01*
X52296961Y-17981561D01*
X52344580Y-17933942D01*
X52677914Y-17362514D02*
X53058866Y-17362514D01*
X52820771Y-17029180D02*
X52820771Y-17886323D01*
X52868390Y-17981561D01*
X52963628Y-18029180D01*
X53058866Y-18029180D01*
D11*
X59663342Y-14915342D02*
X60806200Y-14915342D01*
X60234771Y-15486771D02*
X60234771Y-14343914D01*
X62306200Y-15486771D02*
X61449057Y-15486771D01*
X61877628Y-15486771D02*
X61877628Y-13986771D01*
X61734771Y-14201057D01*
X61591914Y-14343914D01*
X61449057Y-14415342D01*
X62877628Y-14129628D02*
X62949057Y-14058200D01*
X63091914Y-13986771D01*
X63449057Y-13986771D01*
X63591914Y-14058200D01*
X63663342Y-14129628D01*
X63734771Y-14272485D01*
X63734771Y-14415342D01*
X63663342Y-14629628D01*
X62806200Y-15486771D01*
X63734771Y-15486771D01*
X64163342Y-13986771D02*
X64663342Y-15486771D01*
X65163342Y-13986771D01*
X69061342Y-29393342D02*
X70204200Y-29393342D01*
X71704200Y-29964771D02*
X70847057Y-29964771D01*
X71275628Y-29964771D02*
X71275628Y-28464771D01*
X71132771Y-28679057D01*
X70989914Y-28821914D01*
X70847057Y-28893342D01*
X72275628Y-28607628D02*
X72347057Y-28536200D01*
X72489914Y-28464771D01*
X72847057Y-28464771D01*
X72989914Y-28536200D01*
X73061342Y-28607628D01*
X73132771Y-28750485D01*
X73132771Y-28893342D01*
X73061342Y-29107628D01*
X72204200Y-29964771D01*
X73132771Y-29964771D01*
X73561342Y-28464771D02*
X74061342Y-29964771D01*
X74561342Y-28464771D01*
X55067342Y-43420600D02*
X54924485Y-43349171D01*
X54710200Y-43349171D01*
X54495914Y-43420600D01*
X54353057Y-43563457D01*
X54281628Y-43706314D01*
X54210200Y-43992028D01*
X54210200Y-44206314D01*
X54281628Y-44492028D01*
X54353057Y-44634885D01*
X54495914Y-44777742D01*
X54710200Y-44849171D01*
X54853057Y-44849171D01*
X55067342Y-44777742D01*
X55138771Y-44706314D01*
X55138771Y-44206314D01*
X54853057Y-44206314D01*
X55781628Y-44849171D02*
X55781628Y-43349171D01*
X56638771Y-44849171D01*
X56638771Y-43349171D01*
X57353057Y-44849171D02*
X57353057Y-43349171D01*
X57710200Y-43349171D01*
X57924485Y-43420600D01*
X58067342Y-43563457D01*
X58138771Y-43706314D01*
X58210200Y-43992028D01*
X58210200Y-44206314D01*
X58138771Y-44492028D01*
X58067342Y-44634885D01*
X57924485Y-44777742D01*
X57710200Y-44849171D01*
X57353057Y-44849171D01*
D12*
X53352256Y-29489882D02*
X53465123Y-29179783D01*
X47206666Y-27253070D02*
X53352256Y-29489882D01*
X47319533Y-26942971D02*
X47206666Y-27253070D01*
X54289391Y-26915124D02*
X54176525Y-27225222D01*
X48143802Y-24678312D02*
X54289391Y-26915124D01*
X48030935Y-24988411D02*
X48143802Y-24678312D01*
X65393068Y-24599881D02*
X65643068Y-24166869D01*
X65734575Y-24508375D02*
X65301562Y-24258375D01*
X61648536Y-20774051D02*
X61932536Y-20282149D01*
X61566177Y-20996701D02*
X62084177Y-20099499D01*
X61521318Y-21154399D02*
X62198318Y-19981801D01*
X61491959Y-21285250D02*
X62296959Y-19890950D01*
X61471600Y-21400513D02*
X62386600Y-19815687D01*
X61458241Y-21503652D02*
X62469241Y-19752548D01*
X61449382Y-21598996D02*
X62547382Y-19697204D01*
X61444023Y-21688278D02*
X62622023Y-19647922D01*
X62587664Y-19787434D02*
X62693164Y-19604702D01*
X61442164Y-21771498D02*
X61547664Y-21588766D01*
X62622305Y-19807434D02*
X62761805Y-19565812D01*
X61442805Y-21850388D02*
X61582305Y-21608766D01*
X62656946Y-19827434D02*
X62828446Y-19530387D01*
X61445446Y-21925813D02*
X61616946Y-21628766D01*
X62691587Y-19847434D02*
X62893087Y-19498425D01*
X61450087Y-21997775D02*
X61651587Y-21648766D01*
X62726228Y-19867434D02*
X62956228Y-19469062D01*
X61456228Y-22067138D02*
X61686228Y-21668766D01*
X62760869Y-19887434D02*
X63017869Y-19442297D01*
X61463869Y-22133903D02*
X61720869Y-21688766D01*
X62795510Y-19907434D02*
X63078010Y-19418129D01*
X61473010Y-22198071D02*
X61755510Y-21708766D01*
X62830151Y-19927434D02*
X63136651Y-19396560D01*
X61483651Y-22259640D02*
X61790151Y-21728766D01*
X62864792Y-19947434D02*
X63194292Y-19376723D01*
X61495292Y-22319477D02*
X61824792Y-21748766D01*
X62899433Y-19967434D02*
X63250933Y-19358618D01*
X61507933Y-22377582D02*
X61859433Y-21768766D01*
X62934074Y-19987434D02*
X63306574Y-19342245D01*
X61521574Y-22433955D02*
X61894074Y-21788766D01*
X62968715Y-20007434D02*
X63361715Y-19326738D01*
X61535715Y-22489462D02*
X61928715Y-21808766D01*
X63003356Y-20027434D02*
X63415356Y-19313829D01*
X61551356Y-22542371D02*
X61963356Y-21828766D01*
X63037998Y-20047434D02*
X63468498Y-19301786D01*
X61567498Y-22594414D02*
X61997998Y-21848766D01*
X63072639Y-20067434D02*
X63521139Y-19290609D01*
X61584139Y-22645591D02*
X62032639Y-21868766D01*
X63107280Y-20087434D02*
X63572780Y-19281164D01*
X61601780Y-22695036D02*
X62067280Y-21888766D01*
X63141921Y-20107434D02*
X63623921Y-19272585D01*
X61619921Y-22743615D02*
X62101921Y-21908766D01*
X63176562Y-20127434D02*
X63674062Y-19265738D01*
X61639062Y-22790462D02*
X62136562Y-21928766D01*
X63211203Y-20147434D02*
X63723703Y-19259758D01*
X61658703Y-22836442D02*
X62171203Y-21948766D01*
X63245844Y-20167434D02*
X63773344Y-19253777D01*
X61678344Y-22882423D02*
X62205844Y-21968766D01*
X63280485Y-20187434D02*
X63821485Y-19250394D01*
X61699485Y-22925806D02*
X62240485Y-21988766D01*
X63315126Y-20207434D02*
X63869626Y-19247011D01*
X61720626Y-22969189D02*
X62275126Y-22008766D01*
X63349767Y-20227434D02*
X63917267Y-19244495D01*
X61742267Y-23011705D02*
X62309767Y-22028766D01*
X63384408Y-20247434D02*
X63964408Y-19242844D01*
X61764408Y-23053356D02*
X62344408Y-22048766D01*
X63419049Y-20267434D02*
X64011049Y-19242060D01*
X61787049Y-23094140D02*
X62379049Y-22068766D01*
X63453690Y-20287434D02*
X64057190Y-19242141D01*
X61810190Y-23134059D02*
X62413690Y-22088766D01*
X63488331Y-20307434D02*
X64102331Y-19243954D01*
X61834331Y-23172246D02*
X62448331Y-22108766D01*
X63522972Y-20327434D02*
X64147972Y-19244902D01*
X61857972Y-23211298D02*
X62482972Y-22128766D01*
X63557613Y-20347434D02*
X64192613Y-19247581D01*
X61882613Y-23248619D02*
X62517613Y-22148766D01*
X63592254Y-20367434D02*
X64236754Y-19251127D01*
X61907754Y-23285073D02*
X62552254Y-22168766D01*
X63626895Y-20387434D02*
X64280895Y-19254672D01*
X61932895Y-23321528D02*
X62586895Y-22188766D01*
X63661536Y-20407434D02*
X64324036Y-19259950D01*
X61959036Y-23356250D02*
X62621536Y-22208766D01*
X63696177Y-20427434D02*
X64367177Y-19265227D01*
X61985177Y-23390973D02*
X62656177Y-22228766D01*
X63730818Y-20447434D02*
X64409818Y-19271371D01*
X62011818Y-23424829D02*
X62690818Y-22248766D01*
X63765459Y-20467434D02*
X64452459Y-19277515D01*
X62038459Y-23458685D02*
X62725459Y-22268766D01*
X63800100Y-20487434D02*
X64494100Y-19285390D01*
X62066100Y-23490810D02*
X62760100Y-22288766D01*
X63834741Y-20507434D02*
X64535741Y-19293266D01*
X62093741Y-23522934D02*
X62794741Y-22308766D01*
X63869382Y-20527434D02*
X64576882Y-19302008D01*
X62121882Y-23554192D02*
X62829382Y-22328766D01*
X63904023Y-20547434D02*
X64618023Y-19310749D01*
X62150023Y-23585451D02*
X62864023Y-22348766D01*
X63938664Y-20567434D02*
X64658664Y-19320357D01*
X62178664Y-23615843D02*
X62898664Y-22368766D01*
X63974171Y-20587934D02*
X64699671Y-19331331D01*
X62208671Y-23645869D02*
X62934171Y-22389266D01*
X64008812Y-20607934D02*
X64739312Y-19342670D01*
X62238312Y-23674530D02*
X62968812Y-22409266D01*
X64043453Y-20627934D02*
X64778953Y-19354010D01*
X62267953Y-23703190D02*
X63003453Y-22429266D01*
X64078094Y-20647934D02*
X64818094Y-19366216D01*
X62298094Y-23730984D02*
X63038094Y-22449266D01*
X64112735Y-20667934D02*
X64856735Y-19379288D01*
X62328735Y-23757912D02*
X63072735Y-22469266D01*
X64147376Y-20687934D02*
X64895376Y-19392360D01*
X62359376Y-23784840D02*
X63107376Y-22489266D01*
X64182017Y-20707934D02*
X64933517Y-19406297D01*
X62390517Y-23810903D02*
X63142017Y-22509266D01*
X64216658Y-20727934D02*
X64971658Y-19420235D01*
X62421658Y-23836965D02*
X63176658Y-22529266D01*
X64251299Y-20747934D02*
X65009299Y-19435039D01*
X62453299Y-23862161D02*
X63211299Y-22549266D01*
X64285940Y-20767934D02*
X65046440Y-19450709D01*
X62485440Y-23886491D02*
X63245940Y-22569266D01*
X64320581Y-20787934D02*
X65083081Y-19467245D01*
X62518081Y-23909955D02*
X63280581Y-22589266D01*
X64355222Y-20807934D02*
X65119722Y-19483781D01*
X62550722Y-23933419D02*
X63315222Y-22609266D01*
X62583363Y-23956883D02*
X65156363Y-19500317D01*
X62616504Y-23979481D02*
X65192504Y-19517719D01*
X62650145Y-24001213D02*
X65228145Y-19535987D01*
X62684286Y-24022080D02*
X65263286Y-19555120D01*
X62718427Y-24042946D02*
X65298427Y-19574254D01*
X62753068Y-24062946D02*
X65333068Y-19594254D01*
X66663068Y-21828600D02*
G75*
G03X66663068Y-21828600I-2620000J0D01*
G01*
X41124800Y-24723575D02*
X41624800Y-24723575D01*
X41374800Y-24973575D02*
X41374800Y-24473575D01*
X42565800Y-19567800D02*
X43133800Y-19567800D01*
X42331800Y-19607800D02*
X43367800Y-19607800D01*
X42172800Y-19647800D02*
X43526800Y-19647800D01*
X42044800Y-19687800D02*
X43654800Y-19687800D01*
X41934800Y-19727800D02*
X43764800Y-19727800D01*
X41838800Y-19767800D02*
X43860800Y-19767800D01*
X41751800Y-19807800D02*
X43947800Y-19807800D01*
X41671800Y-19847800D02*
X44027800Y-19847800D01*
X43889800Y-19887800D02*
X44100800Y-19887800D01*
X41598800Y-19887800D02*
X41809800Y-19887800D01*
X43889800Y-19927800D02*
X44168800Y-19927800D01*
X41530800Y-19927800D02*
X41809800Y-19927800D01*
X43889800Y-19967800D02*
X44232800Y-19967800D01*
X41466800Y-19967800D02*
X41809800Y-19967800D01*
X43889800Y-20007800D02*
X44292800Y-20007800D01*
X41406800Y-20007800D02*
X41809800Y-20007800D01*
X43889800Y-20047800D02*
X44349800Y-20047800D01*
X41349800Y-20047800D02*
X41809800Y-20047800D01*
X43889800Y-20087800D02*
X44403800Y-20087800D01*
X41295800Y-20087800D02*
X41809800Y-20087800D01*
X43889800Y-20127800D02*
X44454800Y-20127800D01*
X41244800Y-20127800D02*
X41809800Y-20127800D01*
X43889800Y-20167800D02*
X44502800Y-20167800D01*
X41196800Y-20167800D02*
X41809800Y-20167800D01*
X43889800Y-20207800D02*
X44548800Y-20207800D01*
X41150800Y-20207800D02*
X41809800Y-20207800D01*
X43889800Y-20247800D02*
X44592800Y-20247800D01*
X41106800Y-20247800D02*
X41809800Y-20247800D01*
X43889800Y-20287800D02*
X44634800Y-20287800D01*
X41064800Y-20287800D02*
X41809800Y-20287800D01*
X43889800Y-20327800D02*
X44675800Y-20327800D01*
X41023800Y-20327800D02*
X41809800Y-20327800D01*
X43889800Y-20367800D02*
X44713800Y-20367800D01*
X40985800Y-20367800D02*
X41809800Y-20367800D01*
X43889800Y-20407800D02*
X44750800Y-20407800D01*
X40948800Y-20407800D02*
X41809800Y-20407800D01*
X43889800Y-20447800D02*
X44786800Y-20447800D01*
X40912800Y-20447800D02*
X41809800Y-20447800D01*
X43889800Y-20487800D02*
X44820800Y-20487800D01*
X40878800Y-20487800D02*
X41809800Y-20487800D01*
X43889800Y-20527800D02*
X44853800Y-20527800D01*
X40845800Y-20527800D02*
X41809800Y-20527800D01*
X43889800Y-20567800D02*
X44884800Y-20567800D01*
X40814800Y-20567800D02*
X41809800Y-20567800D01*
X43889800Y-20607800D02*
X44914800Y-20607800D01*
X40784800Y-20607800D02*
X41809800Y-20607800D01*
X43889800Y-20647800D02*
X44944800Y-20647800D01*
X40754800Y-20647800D02*
X41809800Y-20647800D01*
X43889800Y-20687800D02*
X44971800Y-20687800D01*
X40727800Y-20687800D02*
X41809800Y-20687800D01*
X43889800Y-20727800D02*
X44998800Y-20727800D01*
X40700800Y-20727800D02*
X41809800Y-20727800D01*
X43889800Y-20767800D02*
X45024800Y-20767800D01*
X40674800Y-20767800D02*
X41809800Y-20767800D01*
X43889800Y-20807800D02*
X45049800Y-20807800D01*
X40649800Y-20807800D02*
X41809800Y-20807800D01*
X43889800Y-20847800D02*
X45073800Y-20847800D01*
X40625800Y-20847800D02*
X41809800Y-20847800D01*
X43889800Y-20887800D02*
X45096800Y-20887800D01*
X40602800Y-20887800D02*
X41809800Y-20887800D01*
X43889800Y-20927800D02*
X45117800Y-20927800D01*
X40581800Y-20927800D02*
X41809800Y-20927800D01*
X43889800Y-20967800D02*
X45139800Y-20967800D01*
X40559800Y-20967800D02*
X41809800Y-20967800D01*
X43889800Y-21007800D02*
X45159800Y-21007800D01*
X40539800Y-21007800D02*
X41809800Y-21007800D01*
X43889800Y-21047800D02*
X45178800Y-21047800D01*
X40520800Y-21047800D02*
X41809800Y-21047800D01*
X43889800Y-21087800D02*
X45197800Y-21087800D01*
X40501800Y-21087800D02*
X41809800Y-21087800D01*
X43889800Y-21127800D02*
X45214800Y-21127800D01*
X40484800Y-21127800D02*
X41809800Y-21127800D01*
X43889800Y-21167800D02*
X45231800Y-21167800D01*
X40467800Y-21167800D02*
X41809800Y-21167800D01*
X43889800Y-21207800D02*
X45247800Y-21207800D01*
X40451800Y-21207800D02*
X41809800Y-21207800D01*
X43889800Y-21247800D02*
X45263800Y-21247800D01*
X40435800Y-21247800D02*
X41809800Y-21247800D01*
X43889800Y-21287800D02*
X45277800Y-21287800D01*
X40421800Y-21287800D02*
X41809800Y-21287800D01*
X43889800Y-21327800D02*
X45291800Y-21327800D01*
X40407800Y-21327800D02*
X41809800Y-21327800D01*
X43889800Y-21367800D02*
X45304800Y-21367800D01*
X40394800Y-21367800D02*
X41809800Y-21367800D01*
X43889800Y-21407800D02*
X45317800Y-21407800D01*
X40381800Y-21407800D02*
X41809800Y-21407800D01*
X43889800Y-21447800D02*
X45329800Y-21447800D01*
X40369800Y-21447800D02*
X41809800Y-21447800D01*
X43889800Y-21488800D02*
X45340800Y-21488800D01*
X40358800Y-21488800D02*
X41809800Y-21488800D01*
X43889800Y-21528800D02*
X45350800Y-21528800D01*
X40348800Y-21528800D02*
X41809800Y-21528800D01*
X43889800Y-21568800D02*
X45360800Y-21568800D01*
X40338800Y-21568800D02*
X41809800Y-21568800D01*
X43889800Y-21608800D02*
X45369800Y-21608800D01*
X40329800Y-21608800D02*
X41809800Y-21608800D01*
X43889800Y-21648800D02*
X45377800Y-21648800D01*
X40321800Y-21648800D02*
X41809800Y-21648800D01*
X43889800Y-21688800D02*
X45385800Y-21688800D01*
X40313800Y-21688800D02*
X41809800Y-21688800D01*
X43889800Y-21728800D02*
X45392800Y-21728800D01*
X40306800Y-21728800D02*
X41809800Y-21728800D01*
X43889800Y-21768800D02*
X45399800Y-21768800D01*
X40299800Y-21768800D02*
X41809800Y-21768800D01*
X43889800Y-21808800D02*
X45405800Y-21808800D01*
X40293800Y-21808800D02*
X41809800Y-21808800D01*
X43889800Y-21848800D02*
X45410800Y-21848800D01*
X40288800Y-21848800D02*
X41809800Y-21848800D01*
X43889800Y-21888800D02*
X45414800Y-21888800D01*
X40284800Y-21888800D02*
X41809800Y-21888800D01*
X43889800Y-21928800D02*
X45418800Y-21928800D01*
X40280800Y-21928800D02*
X41809800Y-21928800D01*
X40276800Y-21968800D02*
X45422800Y-21968800D01*
X40273800Y-22008800D02*
X45425800Y-22008800D01*
X40271800Y-22048800D02*
X45427800Y-22048800D01*
X40270800Y-22088800D02*
X45428800Y-22088800D01*
X40269800Y-22128800D02*
X45429800Y-22128800D01*
X40269800Y-22168800D02*
X45429800Y-22168800D01*
X45469800Y-22168800D02*
G75*
G03X45469800Y-22168800I-2620000J0D01*
G01*
X49905965Y-36631991D02*
X49413561Y-36545166D01*
X49703175Y-36342377D02*
X49616351Y-36834780D01*
X47591566Y-41459211D02*
X47032195Y-41360579D01*
X47828957Y-41460452D02*
X46808696Y-41280553D01*
X47992488Y-41448670D02*
X46659058Y-41213550D01*
X48125489Y-41431505D02*
X46539948Y-41151931D01*
X48240764Y-41411213D02*
X46438565Y-41093437D01*
X48342251Y-41388491D02*
X46350970Y-41037375D01*
X48434875Y-41364206D02*
X46272238Y-40982875D01*
X48520606Y-41338706D02*
X46200399Y-40929591D01*
X46343248Y-40914162D02*
X46135454Y-40877522D01*
X48599443Y-41311990D02*
X48391648Y-41275350D01*
X46350194Y-40874770D02*
X46075433Y-40826322D01*
X48673356Y-41284406D02*
X48398594Y-41235958D01*
X46357140Y-40835377D02*
X46019351Y-40775816D01*
X48743329Y-41256127D02*
X48405540Y-41196566D01*
X46364086Y-40795985D02*
X45967208Y-40726005D01*
X48809364Y-41227154D02*
X48412486Y-41157173D01*
X46371032Y-40756593D02*
X45918020Y-40676715D01*
X48872444Y-41197659D02*
X48419432Y-41117781D01*
X46377978Y-40717201D02*
X45871787Y-40627945D01*
X48932569Y-41167644D02*
X48426378Y-41078389D01*
X46384924Y-40677808D02*
X45828507Y-40579697D01*
X48989740Y-41137108D02*
X48433324Y-41038996D01*
X46391870Y-40638416D02*
X45788183Y-40531970D01*
X49043957Y-41106050D02*
X48440270Y-40999604D01*
X46398816Y-40599024D02*
X45749827Y-40484589D01*
X49096204Y-41074646D02*
X48447216Y-40960212D01*
X46405762Y-40559631D02*
X45713442Y-40437557D01*
X49146482Y-41042894D02*
X48454162Y-40920819D01*
X46412707Y-40520239D02*
X45679026Y-40390871D01*
X49194789Y-41010795D02*
X48461108Y-40881427D01*
X46419653Y-40480847D02*
X45645595Y-40344359D01*
X49242112Y-40978522D02*
X48468054Y-40842035D01*
X46426599Y-40441454D02*
X45615118Y-40298368D01*
X49286481Y-40945729D02*
X48474999Y-40802643D01*
X46433545Y-40402062D02*
X45585626Y-40252551D01*
X49329865Y-40912761D02*
X48481945Y-40763250D01*
X46440491Y-40362670D02*
X45557119Y-40206907D01*
X49372264Y-40879620D02*
X48488891Y-40723858D01*
X46447437Y-40323277D02*
X45530581Y-40161611D01*
X49412693Y-40846132D02*
X48495837Y-40684466D01*
X46454383Y-40283885D02*
X45505028Y-40116488D01*
X49452138Y-40812470D02*
X48502783Y-40645073D01*
X46461329Y-40244493D02*
X45481445Y-40071713D01*
X49489613Y-40778461D02*
X48509729Y-40605681D01*
X46468275Y-40205100D02*
X45458847Y-40027111D01*
X49526103Y-40744278D02*
X48516675Y-40566289D01*
X46475221Y-40165708D02*
X45436249Y-39982509D01*
X49562593Y-40710095D02*
X48523621Y-40526896D01*
X46482167Y-40126316D02*
X45416605Y-39938429D01*
X49596129Y-40675391D02*
X48530567Y-40487504D01*
X46489113Y-40086924D02*
X45396961Y-39894348D01*
X49629665Y-40640688D02*
X48537513Y-40448112D01*
X46496059Y-40047531D02*
X45378302Y-39850441D01*
X49662216Y-40605810D02*
X48544459Y-40408719D01*
X46503005Y-40008139D02*
X45360628Y-39806707D01*
X49693782Y-40570759D02*
X48551405Y-40369327D01*
X46509950Y-39968747D02*
X45343938Y-39763147D01*
X49724363Y-40535534D02*
X48558351Y-40329935D01*
X46516896Y-39929354D02*
X45328233Y-39719761D01*
X49753959Y-40500136D02*
X48565297Y-40290543D01*
X46523842Y-39889962D02*
X45314498Y-39676722D01*
X49781586Y-40464390D02*
X48572242Y-40251150D01*
X46530788Y-39850570D02*
X45299779Y-39633509D01*
X49810198Y-40428818D02*
X48579188Y-40211758D01*
X46537734Y-39811177D02*
X45287028Y-39590644D01*
X49836840Y-40392899D02*
X48586134Y-40172366D01*
X46544680Y-39771785D02*
X45275263Y-39547953D01*
X49862497Y-40356806D02*
X48593080Y-40132973D01*
X46551626Y-39732393D02*
X45263497Y-39505261D01*
X49888155Y-40320713D02*
X48600026Y-40093581D01*
X46558572Y-39693000D02*
X45253702Y-39462917D01*
X49911842Y-40284273D02*
X48606972Y-40054189D01*
X46565518Y-39653608D02*
X45243906Y-39420572D01*
X49935530Y-40247832D02*
X48613918Y-40014796D01*
X46572464Y-39614216D02*
X45235095Y-39378402D01*
X49958233Y-40211218D02*
X48620864Y-39975404D01*
X46579410Y-39574824D02*
X45226284Y-39336231D01*
X49980936Y-40174604D02*
X48627810Y-39936012D01*
X46586356Y-39535431D02*
X45219443Y-39294408D01*
X50001669Y-40137643D02*
X48634756Y-39896619D01*
X46593302Y-39496039D02*
X45212601Y-39252584D01*
X50022402Y-40100682D02*
X48641702Y-39857227D01*
X46600248Y-39456647D02*
X45206745Y-39210934D01*
X50042151Y-40063547D02*
X48648648Y-39817835D01*
X46607193Y-39417254D02*
X45200888Y-39169285D01*
X50061899Y-40026412D02*
X48655594Y-39778442D01*
X46614139Y-39377862D02*
X45196016Y-39127809D01*
X50080663Y-39989104D02*
X48662540Y-39739050D01*
X46621259Y-39337485D02*
X45192303Y-39085521D01*
X50098615Y-39950637D02*
X48669659Y-39698673D01*
X46628205Y-39298093D02*
X45189401Y-39044393D01*
X50115409Y-39912981D02*
X48676605Y-39659281D01*
X46635151Y-39258700D02*
X45186499Y-39003264D01*
X50132203Y-39875325D02*
X48683551Y-39619888D01*
X46642097Y-39219308D02*
X45184581Y-38962309D01*
X50148012Y-39837495D02*
X48690497Y-39580496D01*
X46649043Y-39179916D02*
X45183649Y-38921527D01*
X50162837Y-39799492D02*
X48697443Y-39541104D01*
X46655989Y-39140523D02*
X45182716Y-38880746D01*
X50177661Y-39761489D02*
X48704389Y-39501712D01*
X46662935Y-39101131D02*
X45182768Y-38840138D01*
X50191501Y-39723312D02*
X48711335Y-39462319D01*
X46669880Y-39061739D02*
X45182821Y-38799530D01*
X50205340Y-39685136D02*
X48718281Y-39422927D01*
X46676826Y-39022346D02*
X45183858Y-38759096D01*
X50218195Y-39646785D02*
X48725226Y-39383535D01*
X46683772Y-38982954D02*
X45185880Y-38718835D01*
X50230065Y-39608261D02*
X48732172Y-39344142D01*
X46690718Y-38943562D02*
X45188886Y-38678748D01*
X50240950Y-39569563D02*
X48739118Y-39304750D01*
X46697664Y-38904169D02*
X45191893Y-38638661D01*
X50251835Y-39530866D02*
X48746064Y-39265358D01*
X50262720Y-39492168D02*
X45194900Y-38598574D01*
X50272621Y-39453297D02*
X45198891Y-38558661D01*
X50281536Y-39414252D02*
X45203868Y-38518922D01*
X50289467Y-39375033D02*
X45209829Y-38479356D01*
X50297398Y-39335814D02*
X45215790Y-38439790D01*
X50304344Y-39296422D02*
X45222736Y-38400397D01*
X50383540Y-38848410D02*
G75*
G03X50383540Y-38848410I-2620000J0D01*
G01*
X31258025Y-15064400D02*
X31258025Y-15564400D01*
X31008025Y-15314400D02*
X31508025Y-15314400D01*
X36413800Y-16505400D02*
X36413800Y-17073400D01*
X36373800Y-16271400D02*
X36373800Y-17307400D01*
X36333800Y-16112400D02*
X36333800Y-17466400D01*
X36293800Y-15984400D02*
X36293800Y-17594400D01*
X36253800Y-15874400D02*
X36253800Y-17704400D01*
X36213800Y-15778400D02*
X36213800Y-17800400D01*
X36173800Y-15691400D02*
X36173800Y-17887400D01*
X36133800Y-15611400D02*
X36133800Y-17967400D01*
X36093800Y-17829400D02*
X36093800Y-18040400D01*
X36093800Y-15538400D02*
X36093800Y-15749400D01*
X36053800Y-17829400D02*
X36053800Y-18108400D01*
X36053800Y-15470400D02*
X36053800Y-15749400D01*
X36013800Y-17829400D02*
X36013800Y-18172400D01*
X36013800Y-15406400D02*
X36013800Y-15749400D01*
X35973800Y-17829400D02*
X35973800Y-18232400D01*
X35973800Y-15346400D02*
X35973800Y-15749400D01*
X35933800Y-17829400D02*
X35933800Y-18289400D01*
X35933800Y-15289400D02*
X35933800Y-15749400D01*
X35893800Y-17829400D02*
X35893800Y-18343400D01*
X35893800Y-15235400D02*
X35893800Y-15749400D01*
X35853800Y-17829400D02*
X35853800Y-18394400D01*
X35853800Y-15184400D02*
X35853800Y-15749400D01*
X35813800Y-17829400D02*
X35813800Y-18442400D01*
X35813800Y-15136400D02*
X35813800Y-15749400D01*
X35773800Y-17829400D02*
X35773800Y-18488400D01*
X35773800Y-15090400D02*
X35773800Y-15749400D01*
X35733800Y-17829400D02*
X35733800Y-18532400D01*
X35733800Y-15046400D02*
X35733800Y-15749400D01*
X35693800Y-17829400D02*
X35693800Y-18574400D01*
X35693800Y-15004400D02*
X35693800Y-15749400D01*
X35653800Y-17829400D02*
X35653800Y-18615400D01*
X35653800Y-14963400D02*
X35653800Y-15749400D01*
X35613800Y-17829400D02*
X35613800Y-18653400D01*
X35613800Y-14925400D02*
X35613800Y-15749400D01*
X35573800Y-17829400D02*
X35573800Y-18690400D01*
X35573800Y-14888400D02*
X35573800Y-15749400D01*
X35533800Y-17829400D02*
X35533800Y-18726400D01*
X35533800Y-14852400D02*
X35533800Y-15749400D01*
X35493800Y-17829400D02*
X35493800Y-18760400D01*
X35493800Y-14818400D02*
X35493800Y-15749400D01*
X35453800Y-17829400D02*
X35453800Y-18793400D01*
X35453800Y-14785400D02*
X35453800Y-15749400D01*
X35413800Y-17829400D02*
X35413800Y-18824400D01*
X35413800Y-14754400D02*
X35413800Y-15749400D01*
X35373800Y-17829400D02*
X35373800Y-18854400D01*
X35373800Y-14724400D02*
X35373800Y-15749400D01*
X35333800Y-17829400D02*
X35333800Y-18884400D01*
X35333800Y-14694400D02*
X35333800Y-15749400D01*
X35293800Y-17829400D02*
X35293800Y-18911400D01*
X35293800Y-14667400D02*
X35293800Y-15749400D01*
X35253800Y-17829400D02*
X35253800Y-18938400D01*
X35253800Y-14640400D02*
X35253800Y-15749400D01*
X35213800Y-17829400D02*
X35213800Y-18964400D01*
X35213800Y-14614400D02*
X35213800Y-15749400D01*
X35173800Y-17829400D02*
X35173800Y-18989400D01*
X35173800Y-14589400D02*
X35173800Y-15749400D01*
X35133800Y-17829400D02*
X35133800Y-19013400D01*
X35133800Y-14565400D02*
X35133800Y-15749400D01*
X35093800Y-17829400D02*
X35093800Y-19036400D01*
X35093800Y-14542400D02*
X35093800Y-15749400D01*
X35053800Y-17829400D02*
X35053800Y-19057400D01*
X35053800Y-14521400D02*
X35053800Y-15749400D01*
X35013800Y-17829400D02*
X35013800Y-19079400D01*
X35013800Y-14499400D02*
X35013800Y-15749400D01*
X34973800Y-17829400D02*
X34973800Y-19099400D01*
X34973800Y-14479400D02*
X34973800Y-15749400D01*
X34933800Y-17829400D02*
X34933800Y-19118400D01*
X34933800Y-14460400D02*
X34933800Y-15749400D01*
X34893800Y-17829400D02*
X34893800Y-19137400D01*
X34893800Y-14441400D02*
X34893800Y-15749400D01*
X34853800Y-17829400D02*
X34853800Y-19154400D01*
X34853800Y-14424400D02*
X34853800Y-15749400D01*
X34813800Y-17829400D02*
X34813800Y-19171400D01*
X34813800Y-14407400D02*
X34813800Y-15749400D01*
X34773800Y-17829400D02*
X34773800Y-19187400D01*
X34773800Y-14391400D02*
X34773800Y-15749400D01*
X34733800Y-17829400D02*
X34733800Y-19203400D01*
X34733800Y-14375400D02*
X34733800Y-15749400D01*
X34693800Y-17829400D02*
X34693800Y-19217400D01*
X34693800Y-14361400D02*
X34693800Y-15749400D01*
X34653800Y-17829400D02*
X34653800Y-19231400D01*
X34653800Y-14347400D02*
X34653800Y-15749400D01*
X34613800Y-17829400D02*
X34613800Y-19244400D01*
X34613800Y-14334400D02*
X34613800Y-15749400D01*
X34573800Y-17829400D02*
X34573800Y-19257400D01*
X34573800Y-14321400D02*
X34573800Y-15749400D01*
X34533800Y-17829400D02*
X34533800Y-19269400D01*
X34533800Y-14309400D02*
X34533800Y-15749400D01*
X34492800Y-17829400D02*
X34492800Y-19280400D01*
X34492800Y-14298400D02*
X34492800Y-15749400D01*
X34452800Y-17829400D02*
X34452800Y-19290400D01*
X34452800Y-14288400D02*
X34452800Y-15749400D01*
X34412800Y-17829400D02*
X34412800Y-19300400D01*
X34412800Y-14278400D02*
X34412800Y-15749400D01*
X34372800Y-17829400D02*
X34372800Y-19309400D01*
X34372800Y-14269400D02*
X34372800Y-15749400D01*
X34332800Y-17829400D02*
X34332800Y-19317400D01*
X34332800Y-14261400D02*
X34332800Y-15749400D01*
X34292800Y-17829400D02*
X34292800Y-19325400D01*
X34292800Y-14253400D02*
X34292800Y-15749400D01*
X34252800Y-17829400D02*
X34252800Y-19332400D01*
X34252800Y-14246400D02*
X34252800Y-15749400D01*
X34212800Y-17829400D02*
X34212800Y-19339400D01*
X34212800Y-14239400D02*
X34212800Y-15749400D01*
X34172800Y-17829400D02*
X34172800Y-19345400D01*
X34172800Y-14233400D02*
X34172800Y-15749400D01*
X34132800Y-17829400D02*
X34132800Y-19350400D01*
X34132800Y-14228400D02*
X34132800Y-15749400D01*
X34092800Y-17829400D02*
X34092800Y-19354400D01*
X34092800Y-14224400D02*
X34092800Y-15749400D01*
X34052800Y-17829400D02*
X34052800Y-19358400D01*
X34052800Y-14220400D02*
X34052800Y-15749400D01*
X34012800Y-14216400D02*
X34012800Y-19362400D01*
X33972800Y-14213400D02*
X33972800Y-19365400D01*
X33932800Y-14211400D02*
X33932800Y-19367400D01*
X33892800Y-14210400D02*
X33892800Y-19368400D01*
X33852800Y-14209400D02*
X33852800Y-19369400D01*
X33812800Y-14209400D02*
X33812800Y-19369400D01*
X36432800Y-16789400D02*
G75*
G03X36432800Y-16789400I-2620000J0D01*
G01*
X23149096Y-29183622D02*
X23062272Y-28691218D01*
X23351886Y-28894008D02*
X22859482Y-28980832D01*
X17821421Y-28659805D02*
X17722789Y-28100434D01*
X17901447Y-28883304D02*
X17721548Y-27863043D01*
X17968450Y-29032942D02*
X17733330Y-27699512D01*
X18030069Y-29152052D02*
X17750495Y-27566511D01*
X18088563Y-29253435D02*
X17770787Y-27451236D01*
X18144625Y-29341030D02*
X17793509Y-27349749D01*
X18199125Y-29419762D02*
X17817794Y-27257125D01*
X18252409Y-29491601D02*
X17843294Y-27171394D01*
X17906650Y-27300352D02*
X17870010Y-27092557D01*
X18304478Y-29556546D02*
X18267838Y-29348752D01*
X17946042Y-27293406D02*
X17897594Y-27018644D01*
X18355678Y-29616567D02*
X18307230Y-29341806D01*
X17985434Y-27286460D02*
X17925873Y-26948671D01*
X18406184Y-29672649D02*
X18346623Y-29334860D01*
X18024827Y-27279514D02*
X17954846Y-26882636D01*
X18455995Y-29724792D02*
X18386015Y-29327914D01*
X18064219Y-27272568D02*
X17984341Y-26819556D01*
X18505285Y-29773980D02*
X18425407Y-29320968D01*
X18103611Y-27265622D02*
X18014356Y-26759431D01*
X18554055Y-29820213D02*
X18464799Y-29314022D01*
X18143004Y-27258676D02*
X18044892Y-26702260D01*
X18602303Y-29863493D02*
X18504192Y-29307076D01*
X18182396Y-27251730D02*
X18075950Y-26648043D01*
X18650030Y-29903817D02*
X18543584Y-29300130D01*
X18221788Y-27244784D02*
X18107354Y-26595796D01*
X18697411Y-29942173D02*
X18582976Y-29293184D01*
X18261181Y-27237838D02*
X18139106Y-26545518D01*
X18744443Y-29978558D02*
X18622369Y-29286238D01*
X18300573Y-27230892D02*
X18171205Y-26497211D01*
X18791129Y-30012974D02*
X18661761Y-29279293D01*
X18339965Y-27223946D02*
X18203478Y-26449888D01*
X18837641Y-30046405D02*
X18701153Y-29272347D01*
X18379357Y-27217001D02*
X18236271Y-26405519D01*
X18883632Y-30076882D02*
X18740546Y-29265401D01*
X18418750Y-27210055D02*
X18269239Y-26362135D01*
X18929449Y-30106374D02*
X18779938Y-29258455D01*
X18458142Y-27203109D02*
X18302380Y-26319736D01*
X18975093Y-30134881D02*
X18819330Y-29251509D01*
X18497534Y-27196163D02*
X18335868Y-26279307D01*
X19020389Y-30161419D02*
X18858723Y-29244563D01*
X18536927Y-27189217D02*
X18369530Y-26239862D01*
X19065512Y-30186972D02*
X18898115Y-29237617D01*
X18576319Y-27182271D02*
X18403539Y-26202387D01*
X19110287Y-30210555D02*
X18937507Y-29230671D01*
X18615711Y-27175325D02*
X18437722Y-26165897D01*
X19154889Y-30233153D02*
X18976900Y-29223725D01*
X18655104Y-27168379D02*
X18471905Y-26129407D01*
X19199491Y-30255751D02*
X19016292Y-29216779D01*
X18694496Y-27161433D02*
X18506609Y-26095871D01*
X19243571Y-30275395D02*
X19055684Y-29209833D01*
X18733888Y-27154487D02*
X18541312Y-26062335D01*
X19287652Y-30295039D02*
X19095076Y-29202887D01*
X18773281Y-27147541D02*
X18576190Y-26029784D01*
X19331559Y-30313698D02*
X19134469Y-29195941D01*
X18812673Y-27140595D02*
X18611241Y-25998218D01*
X19375293Y-30331372D02*
X19173861Y-29188995D01*
X18852065Y-27133649D02*
X18646466Y-25967637D01*
X19418853Y-30348062D02*
X19213253Y-29182050D01*
X18891457Y-27126703D02*
X18681864Y-25938041D01*
X19462239Y-30363767D02*
X19252646Y-29175104D01*
X18930850Y-27119758D02*
X18717610Y-25910414D01*
X19505278Y-30377502D02*
X19292038Y-29168158D01*
X18970242Y-27112812D02*
X18753182Y-25881802D01*
X19548491Y-30392221D02*
X19331430Y-29161212D01*
X19009634Y-27105866D02*
X18789101Y-25855160D01*
X19591356Y-30404972D02*
X19370823Y-29154266D01*
X19049027Y-27098920D02*
X18825194Y-25829503D01*
X19634047Y-30416737D02*
X19410215Y-29147320D01*
X19088419Y-27091974D02*
X18861287Y-25803845D01*
X19676739Y-30428503D02*
X19449607Y-29140374D01*
X19127811Y-27085028D02*
X18897727Y-25780158D01*
X19719083Y-30438298D02*
X19489000Y-29133428D01*
X19167204Y-27078082D02*
X18934168Y-25756470D01*
X19761428Y-30448094D02*
X19528392Y-29126482D01*
X19206596Y-27071136D02*
X18970782Y-25733767D01*
X19803598Y-30456905D02*
X19567784Y-29119536D01*
X19245988Y-27064190D02*
X19007396Y-25711064D01*
X19845769Y-30465716D02*
X19607176Y-29112590D01*
X19285381Y-27057244D02*
X19044357Y-25690331D01*
X19887592Y-30472557D02*
X19646569Y-29105644D01*
X19324773Y-27050298D02*
X19081318Y-25669598D01*
X19929416Y-30479399D02*
X19685961Y-29098698D01*
X19364165Y-27043352D02*
X19118453Y-25649849D01*
X19971066Y-30485255D02*
X19725353Y-29091752D01*
X19403558Y-27036406D02*
X19155588Y-25630101D01*
X20012715Y-30491112D02*
X19764746Y-29084807D01*
X19442950Y-27029460D02*
X19192896Y-25611337D01*
X20054191Y-30495984D02*
X19804138Y-29077861D01*
X19483327Y-27022341D02*
X19231363Y-25593385D01*
X20096479Y-30499697D02*
X19844515Y-29070741D01*
X19522719Y-27015395D02*
X19269019Y-25576591D01*
X20137607Y-30502599D02*
X19883907Y-29063795D01*
X19562112Y-27008449D02*
X19306675Y-25559797D01*
X20178736Y-30505501D02*
X19923300Y-29056849D01*
X19601504Y-27001503D02*
X19344505Y-25543988D01*
X20219691Y-30507419D02*
X19962692Y-29049903D01*
X19640896Y-26994557D02*
X19382508Y-25529163D01*
X20260473Y-30508351D02*
X20002084Y-29042957D01*
X19680288Y-26987611D02*
X19420511Y-25514339D01*
X20301254Y-30509284D02*
X20041477Y-29036011D01*
X19719681Y-26980665D02*
X19458688Y-25500499D01*
X20341862Y-30509232D02*
X20080869Y-29029065D01*
X19759073Y-26973719D02*
X19496864Y-25486660D01*
X20382470Y-30509179D02*
X20120261Y-29022120D01*
X19798465Y-26966774D02*
X19535215Y-25473805D01*
X20422904Y-30508142D02*
X20159654Y-29015174D01*
X19837858Y-26959828D02*
X19573739Y-25461935D01*
X20463165Y-30506120D02*
X20199046Y-29008228D01*
X19877250Y-26952882D02*
X19612437Y-25451050D01*
X20503252Y-30503114D02*
X20238438Y-29001282D01*
X19916642Y-26945936D02*
X19651134Y-25440165D01*
X20543339Y-30500107D02*
X20277831Y-28994336D01*
X20583426Y-30497100D02*
X19689832Y-25429280D01*
X20623339Y-30493109D02*
X19728703Y-25419379D01*
X20663078Y-30488132D02*
X19767748Y-25410464D01*
X20702644Y-30482171D02*
X19806967Y-25402533D01*
X20742210Y-30476210D02*
X19846186Y-25394602D01*
X20781603Y-30469264D02*
X19885578Y-25387656D01*
X22953590Y-27928460D02*
G75*
G03X22953590Y-27928460I-2620000J0D01*
G01*
X37245725Y-38918855D02*
X38615725Y-36545945D01*
X43515748Y-42538855D02*
X44885748Y-40165945D01*
X44885748Y-40165945D02*
X38615725Y-36545945D01*
X43515748Y-42538855D02*
X37245725Y-38918855D01*
X60174000Y-27811400D02*
X60174000Y-25071400D01*
X67414000Y-27811400D02*
X67414000Y-25071400D01*
X67414000Y-25071400D02*
X60174000Y-25071400D01*
X67414000Y-27811400D02*
X60174000Y-27811400D01*
X55268800Y-33779600D02*
X55268800Y-41019600D01*
X52528800Y-33779600D02*
X52528800Y-41019600D01*
X55268800Y-33779600D02*
X52528800Y-33779600D01*
X55268800Y-41019600D02*
X52528800Y-41019600D01*
X76138325Y-24187016D02*
G75*
G03X76138325Y-24187016I-3270000J0D01*
G01*
X75903532Y-23082291D02*
X69833118Y-25291741D01*
X75917213Y-23119878D02*
X69846799Y-25329329D01*
X75930894Y-23157466D02*
X69860480Y-25366916D01*
X75942695Y-23195738D02*
X69876040Y-25403820D01*
X75955436Y-23233668D02*
X69890660Y-25441066D01*
X75966298Y-23272281D02*
X69907160Y-25477627D01*
X75978100Y-23310553D02*
X73927690Y-24056841D01*
X71973130Y-24768243D02*
X69922720Y-25514531D01*
X75988022Y-23349509D02*
X73941371Y-24094429D01*
X71986810Y-24805831D02*
X69940160Y-25550751D01*
X75998883Y-23388123D02*
X73955052Y-24132016D01*
X72000491Y-24843418D02*
X69956660Y-25587312D01*
X76008805Y-23427078D02*
X73968733Y-24169604D01*
X72014172Y-24881006D02*
X69974099Y-25623532D01*
X76017788Y-23466376D02*
X73982414Y-24207192D01*
X72027853Y-24918594D02*
X69992479Y-25659409D01*
X76026770Y-23505674D02*
X73996094Y-24244780D01*
X72041534Y-24956181D02*
X70010858Y-25695287D01*
X76034813Y-23545314D02*
X74009775Y-24282367D01*
X72055215Y-24993769D02*
X70030177Y-25730823D01*
X76042855Y-23584954D02*
X74023456Y-24319955D01*
X72068895Y-25031357D02*
X70049496Y-25766358D01*
X76049958Y-23624936D02*
X74037137Y-24357543D01*
X72082576Y-25068945D02*
X70069755Y-25801552D01*
X76057061Y-23664917D02*
X74050818Y-24395130D01*
X72096257Y-25106532D02*
X70090013Y-25836745D01*
X76063225Y-23705241D02*
X74064498Y-24432718D01*
X72109938Y-25144120D02*
X70111212Y-25871597D01*
X76069388Y-23745565D02*
X74078179Y-24470306D01*
X72123619Y-25181708D02*
X70132410Y-25906448D01*
X76074953Y-23787171D02*
X74092202Y-24508833D01*
X72137641Y-25220235D02*
X70154890Y-25941898D01*
X76080177Y-23827837D02*
X74105883Y-24546421D01*
X72151322Y-25257823D02*
X70177028Y-25976407D01*
X76084461Y-23868844D02*
X74119564Y-24584009D01*
X72165003Y-25295411D02*
X70200106Y-26010575D01*
X76088745Y-23909852D02*
X74133244Y-24621596D01*
X72178684Y-25332998D02*
X70223183Y-26044742D01*
X76092089Y-23951202D02*
X74146925Y-24659184D01*
X72192365Y-25370586D02*
X70247201Y-26078568D01*
X76094493Y-23992894D02*
X74160606Y-24696772D01*
X72206045Y-25408174D02*
X70272158Y-26112051D01*
X76096898Y-24034586D02*
X74174287Y-24734359D01*
X72219726Y-25445761D02*
X70297115Y-26145535D01*
X76099302Y-24076278D02*
X74187968Y-24771947D01*
X72233407Y-25483349D02*
X70322072Y-26179018D01*
X76100767Y-24118312D02*
X74201648Y-24809535D01*
X72247088Y-25520937D02*
X70347969Y-26212159D01*
X76101292Y-24160688D02*
X74215329Y-24847123D01*
X72260769Y-25558524D02*
X70374806Y-26244959D01*
X76101817Y-24203064D02*
X74229010Y-24884710D01*
X72274449Y-25596112D02*
X70401642Y-26277758D01*
X76101403Y-24245782D02*
X74242691Y-24922298D01*
X72288130Y-25633700D02*
X70429418Y-26310216D01*
X76100049Y-24288842D02*
X74256372Y-24959886D01*
X72301811Y-25671288D02*
X70458134Y-26342331D01*
X76098694Y-24331902D02*
X74270053Y-24997473D01*
X72315492Y-25708875D02*
X70486850Y-26374446D01*
X76097340Y-24374962D02*
X74283733Y-25035061D01*
X72329173Y-25746463D02*
X70515566Y-26406562D01*
X76094106Y-24418706D02*
X74297414Y-25072649D01*
X72342853Y-25784051D02*
X70546161Y-26437993D01*
X76090873Y-24462450D02*
X74311095Y-25110236D01*
X72356534Y-25821638D02*
X70576756Y-26469425D01*
X76087639Y-24506194D02*
X74324776Y-25147824D01*
X72370215Y-25859226D02*
X70607352Y-26500856D01*
X76082526Y-24550623D02*
X74338457Y-25185412D01*
X72383896Y-25896814D02*
X70639826Y-26531603D01*
X76077413Y-24595051D02*
X74352137Y-25223000D01*
X72397577Y-25934401D02*
X70672301Y-26562350D01*
X76072300Y-24639479D02*
X74365818Y-25260587D01*
X72411257Y-25971989D02*
X70704776Y-26593098D01*
X76065308Y-24684591D02*
X74379499Y-25298175D01*
X72424938Y-26009577D02*
X70739130Y-26623161D01*
X76058315Y-24729703D02*
X74393180Y-25335763D01*
X72438619Y-26047165D02*
X70773484Y-26653224D01*
X76051323Y-24774815D02*
X74406861Y-25373350D01*
X72452300Y-26084752D02*
X70807838Y-26683288D01*
X76042451Y-24820611D02*
X74420541Y-25410938D01*
X72465981Y-26122340D02*
X70844071Y-26712667D01*
X76033579Y-24866408D02*
X74434222Y-25448526D01*
X72479662Y-26159928D02*
X70880305Y-26742046D01*
X76022828Y-24912888D02*
X74447903Y-25486114D01*
X72493342Y-26197515D02*
X70918417Y-26770741D01*
X76012077Y-24959368D02*
X74461584Y-25523701D01*
X72507023Y-26235103D02*
X70956530Y-26799436D01*
X76001325Y-25005848D02*
X74475265Y-25561289D01*
X72520704Y-26272691D02*
X70994643Y-26828132D01*
X75988695Y-25053012D02*
X74488945Y-25598877D01*
X72534385Y-26310279D02*
X71034635Y-26856143D01*
X75975125Y-25100519D02*
X74502626Y-25636464D01*
X72548066Y-26347866D02*
X71075567Y-26883812D01*
X75961554Y-25148025D02*
X74516307Y-25674052D01*
X72561746Y-26385454D02*
X71116499Y-26911481D01*
X75947044Y-25195873D02*
X74529988Y-25711640D01*
X72575427Y-26423042D02*
X71158371Y-26938808D01*
X75930655Y-25244406D02*
X74543669Y-25749227D01*
X72589108Y-26460629D02*
X71202122Y-26965451D01*
X75914266Y-25292938D02*
X74557349Y-25786815D01*
X72602789Y-26498217D02*
X71245873Y-26992094D01*
X75895997Y-25342154D02*
X74571030Y-25824403D01*
X72616470Y-26535805D02*
X71291503Y-27018053D01*
X75877728Y-25391371D02*
X74584711Y-25861991D01*
X72630150Y-26573392D02*
X71337133Y-27044012D01*
X75857580Y-25441271D02*
X74598392Y-25899578D01*
X72643831Y-26610980D02*
X71384643Y-27069287D01*
X75836492Y-25491514D02*
X74612073Y-25937166D01*
X72657512Y-26648568D02*
X71433093Y-27094220D01*
X75814465Y-25542098D02*
X74625753Y-25974754D01*
X72671193Y-26686156D02*
X71482482Y-27118811D01*
X75790558Y-25593367D02*
X71533750Y-27142718D01*
X75765711Y-25644977D02*
X71585958Y-27166283D01*
X75739925Y-25696930D02*
X71639106Y-27189506D01*
X75711319Y-25749908D02*
X71695073Y-27211703D01*
X75682714Y-25802887D02*
X71751040Y-27233899D01*
X75651290Y-25856892D02*
X71809826Y-27255070D01*
X75618926Y-25911238D02*
X71869552Y-27275899D01*
X75584682Y-25966269D02*
X71931157Y-27296043D01*
X75547619Y-26022326D02*
X71995581Y-27315162D01*
X75508677Y-26079067D02*
X72061885Y-27333597D01*
X75467856Y-26136492D02*
X72130068Y-27351347D01*
X75423276Y-26195285D02*
X72202010Y-27367730D01*
X75376816Y-26254762D02*
X72275831Y-27383428D01*
X75325658Y-26315949D02*
X72354350Y-27397416D01*
X75271681Y-26378162D02*
X72435689Y-27410379D01*
X75213006Y-26442085D02*
X72521726Y-27421631D01*
X75149632Y-26507718D02*
X72612462Y-27431173D01*
X75080620Y-26575404D02*
X72708836Y-27438663D01*
X75003150Y-26646168D02*
X72813667Y-27443075D01*
X74917224Y-26720009D02*
X72926955Y-27444408D01*
X74819081Y-26798298D02*
X73052459Y-27441295D01*
X74703084Y-26883084D02*
X73195817Y-27431684D01*
X74557957Y-26978473D02*
X73368306Y-27411471D01*
X74354569Y-27095067D02*
X73599056Y-27370052D01*
X73399267Y-20268890D02*
X73614740Y-20860896D01*
X73803007Y-20457157D02*
X73211000Y-20672630D01*
X67677361Y-41594568D02*
X68222957Y-41909568D01*
X67792659Y-42024866D02*
X68107659Y-41479270D01*
X72407758Y-36905280D02*
X73104042Y-37307280D01*
X72187706Y-36824421D02*
X73284094Y-37457421D01*
X72021348Y-36774562D02*
X73410452Y-37576562D01*
X71881836Y-36740203D02*
X73509964Y-37680203D01*
X71758779Y-36715344D02*
X73593021Y-37774344D01*
X71646980Y-36696985D02*
X73664820Y-37861985D01*
X71542976Y-36683126D02*
X73728824Y-37945126D01*
X71446766Y-36673767D02*
X73785034Y-38023767D01*
X71355752Y-36667408D02*
X73836048Y-38099408D01*
X71269068Y-36663549D02*
X73882732Y-38172549D01*
X71186714Y-36662190D02*
X73925086Y-38243190D01*
X71106958Y-36662331D02*
X73964842Y-38312331D01*
X71031532Y-36664972D02*
X74000268Y-38378972D01*
X70957839Y-36668613D02*
X74033961Y-38444613D01*
X70887609Y-36674254D02*
X74064191Y-38508254D01*
X70819112Y-36680895D02*
X74092688Y-38570895D01*
X70752347Y-36688536D02*
X74119453Y-38632536D01*
X70688179Y-36697677D02*
X74143621Y-38692677D01*
X70625744Y-36707818D02*
X74166056Y-38751818D01*
X70564175Y-36718459D02*
X74187625Y-38810459D01*
X70505204Y-36730600D02*
X74206596Y-38867600D01*
X70446233Y-36742741D02*
X74225567Y-38924741D01*
X70389860Y-36756382D02*
X74241940Y-38980382D01*
X70334352Y-36770523D02*
X74257448Y-39035523D01*
X73176566Y-38457664D02*
X74272089Y-39090164D01*
X70279711Y-36785164D02*
X71375234Y-37417664D01*
X73156566Y-38492305D02*
X74284998Y-39143805D01*
X70226802Y-36800805D02*
X71355234Y-37452305D01*
X73136566Y-38526946D02*
X74297040Y-39196946D01*
X70174760Y-36816946D02*
X71335234Y-37486946D01*
X73116566Y-38561587D02*
X74308217Y-39249587D01*
X70123583Y-36833587D02*
X71315234Y-37521587D01*
X73096566Y-38596228D02*
X74317662Y-39301228D01*
X70074138Y-36851228D02*
X71295234Y-37556228D01*
X73076566Y-38630869D02*
X74327107Y-39352869D01*
X70024693Y-36868869D02*
X71275234Y-37590869D01*
X73056566Y-38665510D02*
X74334820Y-39403510D01*
X69976980Y-36887510D02*
X71255234Y-37625510D01*
X73036566Y-38700151D02*
X74342533Y-39454151D01*
X69929267Y-36906151D02*
X71235234Y-37660151D01*
X73016566Y-38734792D02*
X74348513Y-39503792D01*
X69883287Y-36925792D02*
X71215234Y-37694792D01*
X72996566Y-38769433D02*
X74353628Y-39552933D01*
X69838172Y-36945933D02*
X71195234Y-37729433D01*
X72976566Y-38804074D02*
X74358743Y-39602074D01*
X69793057Y-36966074D02*
X71175234Y-37764074D01*
X72956566Y-38838715D02*
X74362992Y-39650715D01*
X69748808Y-36986715D02*
X71155234Y-37798715D01*
X72936566Y-38873356D02*
X74365508Y-39698356D01*
X69706292Y-37008356D02*
X71135234Y-37833356D01*
X72916566Y-38907998D02*
X74368025Y-39745998D01*
X69663775Y-37029998D02*
X71115234Y-37867998D01*
X72896566Y-38942639D02*
X74370542Y-39793639D01*
X69621258Y-37051639D02*
X71095234Y-37902639D01*
X72876566Y-38977280D02*
X74371326Y-39840280D01*
X69580474Y-37074280D02*
X71075234Y-37937280D01*
X72856566Y-39011921D02*
X74372111Y-39886921D01*
X69539689Y-37096921D02*
X71055234Y-37971921D01*
X72836566Y-39046562D02*
X74371163Y-39932562D01*
X69500637Y-37120562D02*
X71035234Y-38006562D01*
X72816566Y-39081203D02*
X74370216Y-39978203D01*
X69461584Y-37144203D02*
X71015234Y-38041203D01*
X72796566Y-39115844D02*
X74369269Y-40023844D01*
X69422531Y-37167844D02*
X70995234Y-38075844D01*
X72776566Y-39150485D02*
X74366589Y-40068485D01*
X69385211Y-37192485D02*
X70975234Y-38110485D01*
X72756566Y-39185126D02*
X74363910Y-40113126D01*
X69347890Y-37217126D02*
X70955234Y-38145126D01*
X72736566Y-39219767D02*
X74361230Y-40157767D01*
X69310570Y-37241767D02*
X70935234Y-38179767D01*
X72716566Y-39254408D02*
X74356819Y-40201408D01*
X69274981Y-37267408D02*
X70915234Y-38214408D01*
X72696566Y-39289049D02*
X74352407Y-40245049D01*
X69239393Y-37293049D02*
X70895234Y-38249049D01*
X72676566Y-39323690D02*
X74347995Y-40288690D01*
X69203805Y-37318690D02*
X70875234Y-38283690D01*
X72656566Y-39358331D02*
X74341852Y-40331331D01*
X69169948Y-37345331D02*
X70855234Y-38318331D01*
X72636566Y-39392972D02*
X74335708Y-40373972D01*
X69136092Y-37371972D02*
X70835234Y-38352972D01*
X72616566Y-39427613D02*
X74329565Y-40416613D01*
X69102235Y-37398613D02*
X70815234Y-38387613D01*
X72596566Y-39462254D02*
X74322555Y-40458754D01*
X69069245Y-37425754D02*
X70795234Y-38422254D01*
X72576566Y-39496895D02*
X74314679Y-40500395D01*
X69037121Y-37453395D02*
X70775234Y-38456895D01*
X72556566Y-39531536D02*
X74306804Y-40542036D01*
X69004996Y-37481036D02*
X70755234Y-38491536D01*
X72536566Y-39566177D02*
X74298062Y-40583177D01*
X68973738Y-37509177D02*
X70735234Y-38526177D01*
X72516566Y-39600818D02*
X74288454Y-40623818D01*
X68943346Y-37537818D02*
X70715234Y-38560818D01*
X72496566Y-39635459D02*
X74278847Y-40664459D01*
X68912953Y-37566459D02*
X70695234Y-38595459D01*
X72476566Y-39670100D02*
X74269239Y-40705100D01*
X68882561Y-37595100D02*
X70675234Y-38630100D01*
X72456566Y-39704741D02*
X74258765Y-40745241D01*
X68853035Y-37624241D02*
X70655234Y-38664741D01*
X72436566Y-39739382D02*
X74247426Y-40784882D01*
X68824374Y-37653882D02*
X70635234Y-38699382D01*
X72416566Y-39774023D02*
X74236086Y-40824523D01*
X68795714Y-37683523D02*
X70615234Y-38734023D01*
X72396566Y-39808664D02*
X74223880Y-40863664D01*
X68767920Y-37713664D02*
X70595234Y-38768664D01*
X72376066Y-39844171D02*
X74211174Y-40903671D01*
X68739626Y-37744671D02*
X70574734Y-38804171D01*
X72356066Y-39878812D02*
X74198102Y-40942312D01*
X68712698Y-37775312D02*
X70554734Y-38838812D01*
X72336066Y-39913453D02*
X74185031Y-40980953D01*
X68685769Y-37805953D02*
X70534734Y-38873453D01*
X72316066Y-39948094D02*
X74171093Y-41019094D01*
X68659707Y-37837094D02*
X70514734Y-38908094D01*
X72296066Y-39982735D02*
X74157155Y-41057235D01*
X68633645Y-37868235D02*
X70494734Y-38942735D01*
X72276066Y-40017376D02*
X74142351Y-41094876D01*
X68608449Y-37899876D02*
X70474734Y-38977376D01*
X72256066Y-40052017D02*
X74127547Y-41132517D01*
X68583253Y-37931517D02*
X70454734Y-39012017D01*
X72236066Y-40086658D02*
X74111877Y-41169658D01*
X68558923Y-37963658D02*
X70434734Y-39046658D01*
X72216066Y-40121299D02*
X74096208Y-41206799D01*
X68534592Y-37995799D02*
X70414734Y-39081299D01*
X72196066Y-40155940D02*
X74079672Y-41243440D01*
X68511128Y-38028440D02*
X70394734Y-39115940D01*
X72176066Y-40190581D02*
X74062270Y-41279581D01*
X68488530Y-38061581D02*
X70374734Y-39150581D01*
X72156066Y-40225222D02*
X74045734Y-41316222D01*
X68465066Y-38094222D02*
X70354734Y-39185222D01*
X68443334Y-38127863D02*
X74027466Y-41351863D01*
X68420736Y-38161004D02*
X74010064Y-41388004D01*
X68399870Y-38195145D02*
X73990930Y-41423145D01*
X68378138Y-38228786D02*
X73972662Y-41458786D01*
X68358138Y-38263427D02*
X73952662Y-41493427D01*
X68338138Y-38298068D02*
X73932662Y-41528068D01*
X74405400Y-39913068D02*
G75*
G03X74405400Y-39913068I-3270000J0D01*
G01*
X25982197Y-32529355D02*
X26039501Y-32854342D01*
X26039501Y-32854342D02*
X19598858Y-33990001D01*
X19598858Y-33990001D02*
X19541554Y-33665014D01*
X25621009Y-30480955D02*
X25563705Y-30155968D01*
X25563705Y-30155968D02*
X19123062Y-31291627D01*
X19123062Y-31291627D02*
X19180366Y-31616614D01*
X23975112Y-34063629D02*
X24032416Y-34388616D01*
X30415755Y-32927970D02*
X23975112Y-34063629D01*
X30473059Y-33252957D02*
X30415755Y-32927970D01*
X24450908Y-36762003D02*
X24393604Y-36437016D01*
X30891551Y-35626344D02*
X24450908Y-36762003D01*
X30834247Y-35301357D02*
X30891551Y-35626344D01*
X35619395Y-38240040D02*
X35676699Y-38565027D01*
X35676699Y-38565027D02*
X29236056Y-39700686D01*
X29236056Y-39700686D02*
X29178752Y-39375699D01*
X35258207Y-36191640D02*
X35200903Y-35866653D01*
X35200903Y-35866653D02*
X28760260Y-37002312D01*
X28760260Y-37002312D02*
X28817564Y-37327299D01*
X18757790Y-38325098D02*
X18815094Y-38650085D01*
X25198433Y-37189439D02*
X18757790Y-38325098D01*
X25255737Y-37514426D02*
X25198433Y-37189439D01*
X19233586Y-41023472D02*
X19176282Y-40698485D01*
X25674229Y-39887813D02*
X19233586Y-41023472D01*
X25616925Y-39562826D02*
X25674229Y-39887813D01*
X35861259Y-43065184D02*
X35803955Y-43390171D01*
X42301902Y-44200843D02*
X35861259Y-43065184D01*
X42244598Y-44525830D02*
X42301902Y-44200843D01*
X35385463Y-45763558D02*
X35442767Y-45438571D01*
X41826106Y-46899217D02*
X35385463Y-45763558D01*
X41883410Y-46574230D02*
X41826106Y-46899217D01*
X33324098Y-42164811D02*
X33381402Y-42489798D01*
X33381402Y-42489798D02*
X26940759Y-43625457D01*
X26940759Y-43625457D02*
X26883455Y-43300470D01*
X32962910Y-40116411D02*
X32905606Y-39791424D01*
X32905606Y-39791424D02*
X26464963Y-40927083D01*
X26464963Y-40927083D02*
X26522267Y-41252070D01*
X43057334Y-35004146D02*
X42771545Y-34839146D01*
X42771545Y-34839146D02*
X46041545Y-29175340D01*
X46041545Y-29175340D02*
X46327334Y-29340340D01*
X44858666Y-36044146D02*
X45144455Y-36209146D01*
X45144455Y-36209146D02*
X48414455Y-30545340D01*
X48414455Y-30545340D02*
X48128666Y-30380340D01*
X60137830Y-19482990D02*
X60462817Y-19540294D01*
X60462817Y-19540294D02*
X59327158Y-25980937D01*
X59327158Y-25980937D02*
X59002171Y-25923633D01*
X58089430Y-19121802D02*
X57764443Y-19064498D01*
X57764443Y-19064498D02*
X56628784Y-25505141D01*
X56628784Y-25505141D02*
X56953771Y-25562445D01*
X27042196Y-22189711D02*
G75*
G02X26042196Y-23921763I-500000J-866026D01*
G01*
X26042196Y-23921763D02*
X25217196Y-25350705D01*
X25217196Y-25350705D02*
X40719051Y-34300705D01*
X40719051Y-34300705D02*
X43369051Y-29710770D01*
X43369051Y-29710770D02*
X27867196Y-20760770D01*
X27867196Y-20760770D02*
X27042196Y-22189712D01*
X23920235Y-27477108D02*
X39526012Y-36487108D01*
X39526012Y-36487108D02*
X44666012Y-27584367D01*
X44666012Y-27584367D02*
X29060235Y-18574367D01*
X29060235Y-18574367D02*
X23920235Y-27477108D01*
X62087000Y-28311800D02*
G75*
G02X60087000Y-28311800I-1000000J0D01*
G01*
X60087000Y-28311800D02*
X58437000Y-28311800D01*
X58437000Y-28311800D02*
X58437000Y-38591800D01*
X58437000Y-38591800D02*
X63737000Y-38591800D01*
X63737000Y-38591800D02*
X63737000Y-28311800D01*
X63737000Y-28311800D02*
X62087000Y-28311800D01*
X55947000Y-28251800D02*
X55947000Y-38651800D01*
X55947000Y-38651800D02*
X66227000Y-38651800D01*
X66227000Y-38651800D02*
X66227000Y-28251800D01*
X66227000Y-28251800D02*
X55947000Y-28251800D01*
D10*
X50717261Y-27419095D02*
X50566897Y-26857616D01*
X50180293Y-27223655D02*
X50522314Y-26283962D01*
X50880292Y-26414256D01*
X50953500Y-26491576D01*
X50981960Y-26552610D01*
X50994134Y-26658392D01*
X50945274Y-26792633D01*
X50867953Y-26865841D01*
X50806920Y-26894302D01*
X50701138Y-26906476D01*
X50343160Y-26776182D01*
X51612206Y-27744829D02*
X51075239Y-27549389D01*
X51343722Y-27647109D02*
X51685743Y-26707416D01*
X51547388Y-26809084D01*
X51425320Y-26866006D01*
X51319539Y-26878180D01*
X61845159Y-25302156D02*
X61780110Y-25319586D01*
X61632582Y-25289396D01*
X61550104Y-25241777D01*
X61450195Y-25129110D01*
X61415336Y-24999012D01*
X61421715Y-24892724D01*
X61475714Y-24703957D01*
X61547143Y-24580239D01*
X61683620Y-24439091D01*
X61772479Y-24380422D01*
X61902576Y-24345563D01*
X62050104Y-24375752D01*
X62132582Y-24423371D01*
X62232491Y-24536039D01*
X62249920Y-24601088D01*
X62209933Y-25622730D02*
X62374890Y-25717968D01*
X62481178Y-25724348D01*
X62546227Y-25706918D01*
X62700134Y-25630819D01*
X62836611Y-25489671D01*
X63027087Y-25159757D01*
X63033467Y-25053469D01*
X63016037Y-24988420D01*
X62957368Y-24899562D01*
X62792411Y-24804323D01*
X62686123Y-24797944D01*
X62621074Y-24815373D01*
X62532216Y-24874043D01*
X62413168Y-25080239D01*
X62406788Y-25186527D01*
X62424218Y-25251576D01*
X62482887Y-25340434D01*
X62647845Y-25435673D01*
X62754133Y-25442052D01*
X62819181Y-25424622D01*
X62908040Y-25365953D01*
X39456942Y-22335466D02*
X39504561Y-22383085D01*
X39552180Y-22525942D01*
X39552180Y-22621180D01*
X39504561Y-22764038D01*
X39409323Y-22859276D01*
X39314085Y-22906895D01*
X39123609Y-22954514D01*
X38980752Y-22954514D01*
X38790276Y-22906895D01*
X38695038Y-22859276D01*
X38599800Y-22764038D01*
X38552180Y-22621180D01*
X38552180Y-22525942D01*
X38599800Y-22383085D01*
X38647419Y-22335466D01*
X38885514Y-21478323D02*
X39552180Y-21478323D01*
X38504561Y-21716419D02*
X39218847Y-21954514D01*
X39218847Y-21335466D01*
X51779344Y-39725741D02*
X51817971Y-39780906D01*
X51840060Y-39929862D01*
X51823522Y-40023653D01*
X51751819Y-40156071D01*
X51641490Y-40233324D01*
X51539430Y-40263682D01*
X51343578Y-40277502D01*
X51202892Y-40252695D01*
X51023578Y-40172723D01*
X50938056Y-40109290D01*
X50860803Y-39998961D01*
X50838714Y-39850005D01*
X50855252Y-39756214D01*
X50926954Y-39623796D01*
X50982119Y-39585169D01*
X50946210Y-39240362D02*
X51053707Y-38630719D01*
X51370989Y-39025140D01*
X51395796Y-38884453D01*
X51459229Y-38798931D01*
X51514394Y-38760304D01*
X51616454Y-38729946D01*
X51850932Y-38771291D01*
X51936454Y-38834725D01*
X51975081Y-38889889D01*
X52005439Y-38991950D01*
X51955825Y-39273323D01*
X51892391Y-39358845D01*
X51837227Y-39397472D01*
X33646133Y-13396542D02*
X33598514Y-13444161D01*
X33455657Y-13491780D01*
X33360419Y-13491780D01*
X33217561Y-13444161D01*
X33122323Y-13348923D01*
X33074704Y-13253685D01*
X33027085Y-13063209D01*
X33027085Y-12920352D01*
X33074704Y-12729876D01*
X33122323Y-12634638D01*
X33217561Y-12539400D01*
X33360419Y-12491780D01*
X33455657Y-12491780D01*
X33598514Y-12539400D01*
X33646133Y-12587019D01*
X34027085Y-12587019D02*
X34074704Y-12539400D01*
X34169942Y-12491780D01*
X34408038Y-12491780D01*
X34503276Y-12539400D01*
X34550895Y-12587019D01*
X34598514Y-12682257D01*
X34598514Y-12777495D01*
X34550895Y-12920352D01*
X33979466Y-13491780D01*
X34598514Y-13491780D01*
X20882653Y-32002147D02*
X20844026Y-32057311D01*
X20711609Y-32129014D01*
X20617817Y-32145552D01*
X20468862Y-32123463D01*
X20358532Y-32046210D01*
X20295099Y-31960688D01*
X20215127Y-31781374D01*
X20190321Y-31640687D01*
X20204140Y-31444836D01*
X20234498Y-31342776D01*
X20311751Y-31232447D01*
X20444169Y-31160744D01*
X20537960Y-31144206D01*
X20686916Y-31166295D01*
X20742081Y-31204922D01*
X21837103Y-31930559D02*
X21274356Y-32029786D01*
X21555730Y-31980173D02*
X21382081Y-30995365D01*
X21313097Y-31152590D01*
X21235844Y-31262919D01*
X21150321Y-31326352D01*
X40647291Y-39697561D02*
X40582242Y-39714991D01*
X40434714Y-39684801D01*
X40352236Y-39637182D01*
X40252327Y-39524515D01*
X40217468Y-39394417D01*
X40223847Y-39288129D01*
X40277846Y-39099362D01*
X40349275Y-38975644D01*
X40485752Y-38834496D01*
X40574611Y-38775827D01*
X40704708Y-38740968D01*
X40852236Y-38771157D01*
X40934714Y-38818776D01*
X41034623Y-38931444D01*
X41052052Y-38996493D01*
X41841979Y-39342586D02*
X41677022Y-39247347D01*
X41570734Y-39240968D01*
X41505685Y-39258398D01*
X41351778Y-39334496D01*
X41215300Y-39475644D01*
X41024824Y-39805559D01*
X41018444Y-39911847D01*
X41035874Y-39976895D01*
X41094543Y-40065754D01*
X41259500Y-40160992D01*
X41365788Y-40167372D01*
X41430837Y-40149942D01*
X41519696Y-40091273D01*
X41638743Y-39885076D01*
X41645123Y-39778788D01*
X41627693Y-39713739D01*
X41569024Y-39624881D01*
X41404067Y-39529643D01*
X41297779Y-39523263D01*
X41232730Y-39540693D01*
X41143872Y-39599362D01*
X63561933Y-26874742D02*
X63514314Y-26922361D01*
X63371457Y-26969980D01*
X63276219Y-26969980D01*
X63133361Y-26922361D01*
X63038123Y-26827123D01*
X62990504Y-26731885D01*
X62942885Y-26541409D01*
X62942885Y-26398552D01*
X62990504Y-26208076D01*
X63038123Y-26112838D01*
X63133361Y-26017600D01*
X63276219Y-25969980D01*
X63371457Y-25969980D01*
X63514314Y-26017600D01*
X63561933Y-26065219D01*
X63895266Y-25969980D02*
X64561933Y-25969980D01*
X64133361Y-26969980D01*
X54459142Y-37566266D02*
X54506761Y-37613885D01*
X54554380Y-37756742D01*
X54554380Y-37851980D01*
X54506761Y-37994838D01*
X54411523Y-38090076D01*
X54316285Y-38137695D01*
X54125809Y-38185314D01*
X53982952Y-38185314D01*
X53792476Y-38137695D01*
X53697238Y-38090076D01*
X53602000Y-37994838D01*
X53554380Y-37851980D01*
X53554380Y-37756742D01*
X53602000Y-37613885D01*
X53649619Y-37566266D01*
X53982952Y-36994838D02*
X53935333Y-37090076D01*
X53887714Y-37137695D01*
X53792476Y-37185314D01*
X53744857Y-37185314D01*
X53649619Y-37137695D01*
X53602000Y-37090076D01*
X53554380Y-36994838D01*
X53554380Y-36804361D01*
X53602000Y-36709123D01*
X53649619Y-36661504D01*
X53744857Y-36613885D01*
X53792476Y-36613885D01*
X53887714Y-36661504D01*
X53935333Y-36709123D01*
X53982952Y-36804361D01*
X53982952Y-36994838D01*
X54030571Y-37090076D01*
X54078190Y-37137695D01*
X54173428Y-37185314D01*
X54363904Y-37185314D01*
X54459142Y-37137695D01*
X54506761Y-37090076D01*
X54554380Y-36994838D01*
X54554380Y-36804361D01*
X54506761Y-36709123D01*
X54459142Y-36661504D01*
X54363904Y-36613885D01*
X54173428Y-36613885D01*
X54078190Y-36661504D01*
X54030571Y-36709123D01*
X53982952Y-36804361D01*
X69156342Y-21134342D02*
X69108723Y-21181961D01*
X68965866Y-21229580D01*
X68870628Y-21229580D01*
X68727771Y-21181961D01*
X68632533Y-21086723D01*
X68584914Y-20991485D01*
X68537295Y-20801009D01*
X68537295Y-20658152D01*
X68584914Y-20467676D01*
X68632533Y-20372438D01*
X68727771Y-20277200D01*
X68870628Y-20229580D01*
X68965866Y-20229580D01*
X69108723Y-20277200D01*
X69156342Y-20324819D01*
X70108723Y-21229580D02*
X69537295Y-21229580D01*
X69823009Y-21229580D02*
X69823009Y-20229580D01*
X69727771Y-20372438D01*
X69632533Y-20467676D01*
X69537295Y-20515295D01*
X70727771Y-20229580D02*
X70823009Y-20229580D01*
X70918247Y-20277200D01*
X70965866Y-20324819D01*
X71013485Y-20420057D01*
X71061104Y-20610533D01*
X71061104Y-20848628D01*
X71013485Y-21039104D01*
X70965866Y-21134342D01*
X70918247Y-21181961D01*
X70823009Y-21229580D01*
X70727771Y-21229580D01*
X70632533Y-21181961D01*
X70584914Y-21134342D01*
X70537295Y-21039104D01*
X70489676Y-20848628D01*
X70489676Y-20610533D01*
X70537295Y-20420057D01*
X70584914Y-20324819D01*
X70632533Y-20277200D01*
X70727771Y-20229580D01*
X65498742Y-40666942D02*
X65451123Y-40714561D01*
X65308266Y-40762180D01*
X65213028Y-40762180D01*
X65070171Y-40714561D01*
X64974933Y-40619323D01*
X64927314Y-40524085D01*
X64879695Y-40333609D01*
X64879695Y-40190752D01*
X64927314Y-40000276D01*
X64974933Y-39905038D01*
X65070171Y-39809800D01*
X65213028Y-39762180D01*
X65308266Y-39762180D01*
X65451123Y-39809800D01*
X65498742Y-39857419D01*
X66451123Y-40762180D02*
X65879695Y-40762180D01*
X66165409Y-40762180D02*
X66165409Y-39762180D01*
X66070171Y-39905038D01*
X65974933Y-40000276D01*
X65879695Y-40047895D01*
X67403504Y-40762180D02*
X66832076Y-40762180D01*
X67117790Y-40762180D02*
X67117790Y-39762180D01*
X67022552Y-39905038D01*
X66927314Y-40000276D01*
X66832076Y-40047895D01*
X22622020Y-32605449D02*
X22211061Y-32194376D01*
X22059273Y-32704677D02*
X21885625Y-31719869D01*
X22260789Y-31653717D01*
X22362850Y-31684075D01*
X22418014Y-31722702D01*
X22481448Y-31808224D01*
X22506255Y-31948911D01*
X22475897Y-32050971D01*
X22437270Y-32106135D01*
X22351748Y-32169569D01*
X21976583Y-32235721D01*
X22840075Y-31648281D02*
X22878701Y-31593116D01*
X22964224Y-31529683D01*
X23198702Y-31488338D01*
X23300762Y-31518696D01*
X23355926Y-31557322D01*
X23419360Y-31642845D01*
X23435898Y-31736636D01*
X23413809Y-31885592D01*
X22950289Y-32547566D01*
X23559932Y-32440070D01*
X27397220Y-35501049D02*
X26986261Y-35089976D01*
X26834473Y-35600277D02*
X26660825Y-34615469D01*
X27035989Y-34549317D01*
X27138050Y-34579675D01*
X27193214Y-34618302D01*
X27256648Y-34703824D01*
X27281455Y-34844511D01*
X27251097Y-34946571D01*
X27212470Y-35001735D01*
X27126948Y-35065169D01*
X26751783Y-35131321D01*
X27551841Y-34458359D02*
X28161484Y-34350862D01*
X27899366Y-34783910D01*
X28040053Y-34759103D01*
X28142113Y-34789461D01*
X28197278Y-34828087D01*
X28260712Y-34913609D01*
X28302056Y-35148087D01*
X28271699Y-35250148D01*
X28233072Y-35305312D01*
X28147550Y-35368746D01*
X27866176Y-35418360D01*
X27764116Y-35388002D01*
X27708951Y-35349375D01*
X32324820Y-38320449D02*
X31913861Y-37909376D01*
X31762073Y-38419677D02*
X31588425Y-37434869D01*
X31963589Y-37368717D01*
X32065650Y-37399075D01*
X32120814Y-37437702D01*
X32184248Y-37523224D01*
X32209055Y-37663911D01*
X32178697Y-37765971D01*
X32140070Y-37821135D01*
X32054548Y-37884569D01*
X31679383Y-37950721D01*
X33053175Y-37515069D02*
X33168941Y-38171608D01*
X32752546Y-37181249D02*
X32642102Y-37926028D01*
X33251745Y-37818532D01*
X22241020Y-39641249D02*
X21830061Y-39230176D01*
X21678273Y-39740477D02*
X21504625Y-38755669D01*
X21879789Y-38689517D01*
X21981850Y-38719875D01*
X22037014Y-38758502D01*
X22100448Y-38844024D01*
X22125255Y-38984711D01*
X22094897Y-39086771D01*
X22056270Y-39141935D01*
X21970748Y-39205369D01*
X21595583Y-39271521D01*
X22958388Y-38499331D02*
X22489432Y-38582021D01*
X22525226Y-39059246D01*
X22563853Y-39004081D01*
X22649375Y-38940648D01*
X22883853Y-38899303D01*
X22985913Y-38929661D01*
X23041078Y-38968287D01*
X23104512Y-39053809D01*
X23145856Y-39288287D01*
X23115499Y-39390348D01*
X23076872Y-39445512D01*
X22991350Y-39508946D01*
X22756872Y-39550291D01*
X22654812Y-39519933D01*
X22599647Y-39481306D01*
X38717242Y-45470848D02*
X38471662Y-44944010D01*
X38154494Y-45371621D02*
X38328143Y-44386813D01*
X38703307Y-44452965D01*
X38788830Y-44516398D01*
X38827456Y-44571563D01*
X38857814Y-44673623D01*
X38833007Y-44814310D01*
X38769574Y-44899832D01*
X38714409Y-44938459D01*
X38612349Y-44968816D01*
X38237184Y-44902665D01*
X39735011Y-44634882D02*
X39547428Y-44601806D01*
X39445368Y-44632164D01*
X39390204Y-44670790D01*
X39271606Y-44794939D01*
X39191634Y-44974253D01*
X39125482Y-45349418D01*
X39155840Y-45451478D01*
X39194467Y-45506642D01*
X39279989Y-45570076D01*
X39467571Y-45603152D01*
X39569632Y-45572794D01*
X39624796Y-45534167D01*
X39688230Y-45448645D01*
X39729575Y-45214167D01*
X39699217Y-45112107D01*
X39660590Y-45056942D01*
X39575068Y-44993509D01*
X39387486Y-44960433D01*
X39285425Y-44990791D01*
X39230261Y-45029417D01*
X39166827Y-45114940D01*
X29886420Y-42308249D02*
X29475461Y-41897176D01*
X29323673Y-42407477D02*
X29150025Y-41422669D01*
X29525189Y-41356517D01*
X29627250Y-41386875D01*
X29682414Y-41425502D01*
X29745848Y-41511024D01*
X29770655Y-41651711D01*
X29740297Y-41753771D01*
X29701670Y-41808935D01*
X29616148Y-41872369D01*
X29240983Y-41938521D01*
X30041041Y-41265559D02*
X30697580Y-41149793D01*
X30449167Y-42209022D01*
X45961734Y-32969047D02*
X45382674Y-33019626D01*
X45676019Y-33463918D02*
X44809994Y-32963918D01*
X45000470Y-32634004D01*
X45089328Y-32575335D01*
X45154377Y-32557905D01*
X45260665Y-32564285D01*
X45384383Y-32635713D01*
X45443052Y-32724572D01*
X45460482Y-32789620D01*
X45454102Y-32895909D01*
X45263626Y-33225823D01*
X45752576Y-32188461D02*
X45663718Y-32247130D01*
X45598669Y-32264559D01*
X45492381Y-32258180D01*
X45451142Y-32234370D01*
X45392472Y-32145512D01*
X45375043Y-32080463D01*
X45381422Y-31974175D01*
X45476661Y-31809218D01*
X45565519Y-31750549D01*
X45630568Y-31733119D01*
X45736856Y-31739499D01*
X45778095Y-31763308D01*
X45836764Y-31852166D01*
X45854194Y-31917215D01*
X45847814Y-32023503D01*
X45752576Y-32188461D01*
X45746196Y-32294749D01*
X45763626Y-32359798D01*
X45822295Y-32448656D01*
X45987253Y-32543894D01*
X46093541Y-32550274D01*
X46158589Y-32532844D01*
X46247448Y-32474175D01*
X46342686Y-32309218D01*
X46349066Y-32202930D01*
X46331636Y-32137881D01*
X46272967Y-32049022D01*
X46108010Y-31953784D01*
X46001721Y-31947405D01*
X45936673Y-31964834D01*
X45847814Y-32023503D01*
X59039766Y-22645489D02*
X58512928Y-22891069D01*
X58940539Y-23208237D02*
X57955731Y-23034588D01*
X58021883Y-22659424D01*
X58085316Y-22573901D01*
X58140481Y-22535275D01*
X58242541Y-22504917D01*
X58383228Y-22529724D01*
X58468750Y-22593157D01*
X58507377Y-22648322D01*
X58537734Y-22750382D01*
X58471583Y-23125547D01*
X59122456Y-22176533D02*
X59155532Y-21988951D01*
X59125174Y-21886891D01*
X59086548Y-21831726D01*
X58962399Y-21713128D01*
X58783085Y-21633156D01*
X58407920Y-21567005D01*
X58305860Y-21597362D01*
X58250696Y-21635989D01*
X58187262Y-21721511D01*
X58154186Y-21909094D01*
X58184544Y-22011154D01*
X58223171Y-22066319D01*
X58308693Y-22129752D01*
X58543171Y-22171097D01*
X58645231Y-22140739D01*
X58700396Y-22102113D01*
X58763829Y-22016590D01*
X58796905Y-21829008D01*
X58766547Y-21726948D01*
X58727921Y-21671783D01*
X58642398Y-21608350D01*
X27516595Y-24389019D02*
X28217663Y-24793781D01*
X28323951Y-24800161D01*
X28389000Y-24782731D01*
X28477859Y-24724062D01*
X28573097Y-24559104D01*
X28579476Y-24452816D01*
X28562047Y-24387767D01*
X28503378Y-24298909D01*
X27802309Y-23894147D01*
X29168335Y-23528122D02*
X28882621Y-24022993D01*
X29025478Y-23775558D02*
X28159452Y-23275558D01*
X28235551Y-23429465D01*
X28270411Y-23559562D01*
X28264031Y-23665851D01*
X60299695Y-29627580D02*
X60299695Y-30437104D01*
X60347314Y-30532342D01*
X60394933Y-30579961D01*
X60490171Y-30627580D01*
X60680647Y-30627580D01*
X60775885Y-30579961D01*
X60823504Y-30532342D01*
X60871123Y-30437104D01*
X60871123Y-29627580D01*
X61299695Y-29722819D02*
X61347314Y-29675200D01*
X61442552Y-29627580D01*
X61680647Y-29627580D01*
X61775885Y-29675200D01*
X61823504Y-29722819D01*
X61871123Y-29818057D01*
X61871123Y-29913295D01*
X61823504Y-30056152D01*
X61252076Y-30627580D01*
X61871123Y-30627580D01*
M02*
