G04 #@! TF.GenerationSoftware,KiCad,Pcbnew,(5.1.2-1)-1*
G04 #@! TF.CreationDate,2022-01-15T17:09:35-05:00*
G04 #@! TF.ProjectId,BF22 Clone,42463232-2043-46c6-9f6e-652e6b696361,rev?*
G04 #@! TF.SameCoordinates,Original*
G04 #@! TF.FileFunction,Legend,Top*
G04 #@! TF.FilePolarity,Positive*
%FSLAX46Y46*%
G04 Gerber Fmt 4.6, Leading zero omitted, Abs format (unit mm)*
G04 Created by KiCad (PCBNEW (5.1.2-1)-1) date 2022-01-15 17:09:35*
%MOMM*%
%LPD*%
G04 APERTURE LIST*
%ADD10C,0.120000*%
%ADD11C,0.150000*%
G04 APERTURE END LIST*
D10*
X44162088Y-96101022D02*
G75*
G02X40229999Y-97969999I-4502088J4401022D01*
G01*
X41177089Y-88410193D02*
G75*
G02X42169999Y-93409999I-5747089J-3739807D01*
G01*
X45491886Y-95283583D02*
G75*
G02X42199999Y-99949999I-9111886J2933583D01*
G01*
D11*
X38867142Y-16877380D02*
X38867142Y-15877380D01*
X39200476Y-16591666D01*
X39533809Y-15877380D01*
X39533809Y-16877380D01*
X39962380Y-16829761D02*
X40105238Y-16877380D01*
X40343333Y-16877380D01*
X40438571Y-16829761D01*
X40486190Y-16782142D01*
X40533809Y-16686904D01*
X40533809Y-16591666D01*
X40486190Y-16496428D01*
X40438571Y-16448809D01*
X40343333Y-16401190D01*
X40152857Y-16353571D01*
X40057619Y-16305952D01*
X40010000Y-16258333D01*
X39962380Y-16163095D01*
X39962380Y-16067857D01*
X40010000Y-15972619D01*
X40057619Y-15925000D01*
X40152857Y-15877380D01*
X40390952Y-15877380D01*
X40533809Y-15925000D01*
X40914761Y-15972619D02*
X40962380Y-15925000D01*
X41057619Y-15877380D01*
X41295714Y-15877380D01*
X41390952Y-15925000D01*
X41438571Y-15972619D01*
X41486190Y-16067857D01*
X41486190Y-16163095D01*
X41438571Y-16305952D01*
X40867142Y-16877380D01*
X41486190Y-16877380D01*
X42105238Y-15877380D02*
X42200476Y-15877380D01*
X42295714Y-15925000D01*
X42343333Y-15972619D01*
X42390952Y-16067857D01*
X42438571Y-16258333D01*
X42438571Y-16496428D01*
X42390952Y-16686904D01*
X42343333Y-16782142D01*
X42295714Y-16829761D01*
X42200476Y-16877380D01*
X42105238Y-16877380D01*
X42010000Y-16829761D01*
X41962380Y-16782142D01*
X41914761Y-16686904D01*
X41867142Y-16496428D01*
X41867142Y-16258333D01*
X41914761Y-16067857D01*
X41962380Y-15972619D01*
X42010000Y-15925000D01*
X42105238Y-15877380D01*
X37033809Y-18479761D02*
X37176666Y-18527380D01*
X37414761Y-18527380D01*
X37510000Y-18479761D01*
X37557619Y-18432142D01*
X37605238Y-18336904D01*
X37605238Y-18241666D01*
X37557619Y-18146428D01*
X37510000Y-18098809D01*
X37414761Y-18051190D01*
X37224285Y-18003571D01*
X37129047Y-17955952D01*
X37081428Y-17908333D01*
X37033809Y-17813095D01*
X37033809Y-17717857D01*
X37081428Y-17622619D01*
X37129047Y-17575000D01*
X37224285Y-17527380D01*
X37462380Y-17527380D01*
X37605238Y-17575000D01*
X37890952Y-17860714D02*
X38271904Y-17860714D01*
X38033809Y-17527380D02*
X38033809Y-18384523D01*
X38081428Y-18479761D01*
X38176666Y-18527380D01*
X38271904Y-18527380D01*
X38510000Y-17860714D02*
X38748095Y-18527380D01*
X38986190Y-17860714D02*
X38748095Y-18527380D01*
X38652857Y-18765476D01*
X38605238Y-18813095D01*
X38510000Y-18860714D01*
X39510000Y-18527380D02*
X39414761Y-18479761D01*
X39367142Y-18384523D01*
X39367142Y-17527380D01*
X40271904Y-18479761D02*
X40176666Y-18527380D01*
X39986190Y-18527380D01*
X39890952Y-18479761D01*
X39843333Y-18384523D01*
X39843333Y-18003571D01*
X39890952Y-17908333D01*
X39986190Y-17860714D01*
X40176666Y-17860714D01*
X40271904Y-17908333D01*
X40319523Y-18003571D01*
X40319523Y-18098809D01*
X39843333Y-18194047D01*
X41843333Y-18003571D02*
X41510000Y-18003571D01*
X41510000Y-18527380D02*
X41510000Y-17527380D01*
X41986190Y-17527380D01*
X42367142Y-18527380D02*
X42367142Y-17860714D01*
X42367142Y-17527380D02*
X42319523Y-17575000D01*
X42367142Y-17622619D01*
X42414761Y-17575000D01*
X42367142Y-17527380D01*
X42367142Y-17622619D01*
X42986190Y-18527380D02*
X42890952Y-18479761D01*
X42843333Y-18384523D01*
X42843333Y-17527380D01*
X43224285Y-17860714D02*
X43605238Y-17860714D01*
X43367142Y-17527380D02*
X43367142Y-18384523D01*
X43414761Y-18479761D01*
X43510000Y-18527380D01*
X43605238Y-18527380D01*
X44319523Y-18479761D02*
X44224285Y-18527380D01*
X44033809Y-18527380D01*
X43938571Y-18479761D01*
X43890952Y-18384523D01*
X43890952Y-18003571D01*
X43938571Y-17908333D01*
X44033809Y-17860714D01*
X44224285Y-17860714D01*
X44319523Y-17908333D01*
X44367142Y-18003571D01*
X44367142Y-18098809D01*
X43890952Y-18194047D01*
X44795714Y-18527380D02*
X44795714Y-17860714D01*
X44795714Y-18051190D02*
X44843333Y-17955952D01*
X44890952Y-17908333D01*
X44986190Y-17860714D01*
X45081428Y-17860714D01*
X35295238Y-13798571D02*
X35438095Y-13846190D01*
X35485714Y-13893809D01*
X35533333Y-13989047D01*
X35533333Y-14131904D01*
X35485714Y-14227142D01*
X35438095Y-14274761D01*
X35342857Y-14322380D01*
X34961904Y-14322380D01*
X34961904Y-13322380D01*
X35295238Y-13322380D01*
X35390476Y-13370000D01*
X35438095Y-13417619D01*
X35485714Y-13512857D01*
X35485714Y-13608095D01*
X35438095Y-13703333D01*
X35390476Y-13750952D01*
X35295238Y-13798571D01*
X34961904Y-13798571D01*
X36295238Y-13798571D02*
X35961904Y-13798571D01*
X35961904Y-14322380D02*
X35961904Y-13322380D01*
X36438095Y-13322380D01*
X36819047Y-13941428D02*
X37580952Y-13941428D01*
X38009523Y-13417619D02*
X38057142Y-13370000D01*
X38152380Y-13322380D01*
X38390476Y-13322380D01*
X38485714Y-13370000D01*
X38533333Y-13417619D01*
X38580952Y-13512857D01*
X38580952Y-13608095D01*
X38533333Y-13750952D01*
X37961904Y-14322380D01*
X38580952Y-14322380D01*
X38961904Y-13417619D02*
X39009523Y-13370000D01*
X39104761Y-13322380D01*
X39342857Y-13322380D01*
X39438095Y-13370000D01*
X39485714Y-13417619D01*
X39533333Y-13512857D01*
X39533333Y-13608095D01*
X39485714Y-13750952D01*
X38914285Y-14322380D01*
X39533333Y-14322380D01*
X41295238Y-14227142D02*
X41247619Y-14274761D01*
X41104761Y-14322380D01*
X41009523Y-14322380D01*
X40866666Y-14274761D01*
X40771428Y-14179523D01*
X40723809Y-14084285D01*
X40676190Y-13893809D01*
X40676190Y-13750952D01*
X40723809Y-13560476D01*
X40771428Y-13465238D01*
X40866666Y-13370000D01*
X41009523Y-13322380D01*
X41104761Y-13322380D01*
X41247619Y-13370000D01*
X41295238Y-13417619D01*
X41866666Y-14322380D02*
X41771428Y-14274761D01*
X41723809Y-14179523D01*
X41723809Y-13322380D01*
X42390476Y-14322380D02*
X42295238Y-14274761D01*
X42247619Y-14227142D01*
X42200000Y-14131904D01*
X42200000Y-13846190D01*
X42247619Y-13750952D01*
X42295238Y-13703333D01*
X42390476Y-13655714D01*
X42533333Y-13655714D01*
X42628571Y-13703333D01*
X42676190Y-13750952D01*
X42723809Y-13846190D01*
X42723809Y-14131904D01*
X42676190Y-14227142D01*
X42628571Y-14274761D01*
X42533333Y-14322380D01*
X42390476Y-14322380D01*
X43152380Y-13655714D02*
X43152380Y-14322380D01*
X43152380Y-13750952D02*
X43200000Y-13703333D01*
X43295238Y-13655714D01*
X43438095Y-13655714D01*
X43533333Y-13703333D01*
X43580952Y-13798571D01*
X43580952Y-14322380D01*
X44438095Y-14274761D02*
X44342857Y-14322380D01*
X44152380Y-14322380D01*
X44057142Y-14274761D01*
X44009523Y-14179523D01*
X44009523Y-13798571D01*
X44057142Y-13703333D01*
X44152380Y-13655714D01*
X44342857Y-13655714D01*
X44438095Y-13703333D01*
X44485714Y-13798571D01*
X44485714Y-13893809D01*
X44009523Y-13989047D01*
X17398095Y-97811428D02*
X18160000Y-97811428D01*
X17779047Y-98192380D02*
X17779047Y-97430476D01*
X19160000Y-98192380D02*
X18588571Y-98192380D01*
X18874285Y-98192380D02*
X18874285Y-97192380D01*
X18779047Y-97335238D01*
X18683809Y-97430476D01*
X18588571Y-97478095D01*
X19540952Y-97287619D02*
X19588571Y-97240000D01*
X19683809Y-97192380D01*
X19921904Y-97192380D01*
X20017142Y-97240000D01*
X20064761Y-97287619D01*
X20112380Y-97382857D01*
X20112380Y-97478095D01*
X20064761Y-97620952D01*
X19493333Y-98192380D01*
X20112380Y-98192380D01*
X20398095Y-97192380D02*
X20731428Y-98192380D01*
X21064761Y-97192380D01*
X27713279Y-78464953D02*
X27688539Y-78361387D01*
X27596712Y-78251952D01*
X27468407Y-78173126D01*
X27334233Y-78161388D01*
X27230667Y-78186127D01*
X27054145Y-78272085D01*
X26944710Y-78363911D01*
X26829406Y-78522825D01*
X26787058Y-78620522D01*
X26775319Y-78754696D01*
X26830668Y-78894740D01*
X26891886Y-78967697D01*
X27020191Y-79046523D01*
X27087278Y-79052392D01*
X27342626Y-78838129D01*
X27220191Y-78692216D01*
X27289802Y-79441915D02*
X28055846Y-78799127D01*
X27657109Y-79879654D01*
X28423154Y-79236867D01*
X27963199Y-80244437D02*
X28729243Y-79601650D01*
X28882288Y-79784041D01*
X28937636Y-79924085D01*
X28925897Y-80058260D01*
X28883550Y-80155956D01*
X28768245Y-80314870D01*
X28658810Y-80406697D01*
X28482288Y-80492654D01*
X28378723Y-80517394D01*
X28244548Y-80505655D01*
X28116243Y-80426829D01*
X27963199Y-80244437D01*
X23258095Y-66801428D02*
X24020000Y-66801428D01*
X25020000Y-67182380D02*
X24448571Y-67182380D01*
X24734285Y-67182380D02*
X24734285Y-66182380D01*
X24639047Y-66325238D01*
X24543809Y-66420476D01*
X24448571Y-66468095D01*
X25400952Y-66277619D02*
X25448571Y-66230000D01*
X25543809Y-66182380D01*
X25781904Y-66182380D01*
X25877142Y-66230000D01*
X25924761Y-66277619D01*
X25972380Y-66372857D01*
X25972380Y-66468095D01*
X25924761Y-66610952D01*
X25353333Y-67182380D01*
X25972380Y-67182380D01*
X26258095Y-66182380D02*
X26591428Y-67182380D01*
X26924761Y-66182380D01*
X13892380Y-66517142D02*
X13844761Y-66564761D01*
X13701904Y-66612380D01*
X13606666Y-66612380D01*
X13463809Y-66564761D01*
X13368571Y-66469523D01*
X13320952Y-66374285D01*
X13273333Y-66183809D01*
X13273333Y-66040952D01*
X13320952Y-65850476D01*
X13368571Y-65755238D01*
X13463809Y-65660000D01*
X13606666Y-65612380D01*
X13701904Y-65612380D01*
X13844761Y-65660000D01*
X13892380Y-65707619D01*
X14749523Y-65945714D02*
X14749523Y-66612380D01*
X14320952Y-65945714D02*
X14320952Y-66469523D01*
X14368571Y-66564761D01*
X14463809Y-66612380D01*
X14606666Y-66612380D01*
X14701904Y-66564761D01*
X14749523Y-66517142D01*
X15082857Y-65945714D02*
X15463809Y-65945714D01*
X15225714Y-65612380D02*
X15225714Y-66469523D01*
X15273333Y-66564761D01*
X15368571Y-66612380D01*
X15463809Y-66612380D01*
X15940000Y-66612380D02*
X15844761Y-66564761D01*
X15797142Y-66517142D01*
X15749523Y-66421904D01*
X15749523Y-66136190D01*
X15797142Y-66040952D01*
X15844761Y-65993333D01*
X15940000Y-65945714D01*
X16082857Y-65945714D01*
X16178095Y-65993333D01*
X16225714Y-66040952D01*
X16273333Y-66136190D01*
X16273333Y-66421904D01*
X16225714Y-66517142D01*
X16178095Y-66564761D01*
X16082857Y-66612380D01*
X15940000Y-66612380D01*
X16559047Y-65945714D02*
X16940000Y-65945714D01*
X16701904Y-66612380D02*
X16701904Y-65755238D01*
X16749523Y-65660000D01*
X16844761Y-65612380D01*
X16940000Y-65612380D01*
X17130476Y-65945714D02*
X17511428Y-65945714D01*
X17273333Y-66612380D02*
X17273333Y-65755238D01*
X17320952Y-65660000D01*
X17416190Y-65612380D01*
X17511428Y-65612380D01*
X17606666Y-66707619D02*
X18368571Y-66707619D01*
X18797142Y-65612380D02*
X18987619Y-65612380D01*
X19082857Y-65660000D01*
X19178095Y-65755238D01*
X19225714Y-65945714D01*
X19225714Y-66279047D01*
X19178095Y-66469523D01*
X19082857Y-66564761D01*
X18987619Y-66612380D01*
X18797142Y-66612380D01*
X18701904Y-66564761D01*
X18606666Y-66469523D01*
X18559047Y-66279047D01*
X18559047Y-65945714D01*
X18606666Y-65755238D01*
X18701904Y-65660000D01*
X18797142Y-65612380D01*
X19511428Y-65945714D02*
X19892380Y-65945714D01*
X19654285Y-66612380D02*
X19654285Y-65755238D01*
X19701904Y-65660000D01*
X19797142Y-65612380D01*
X19892380Y-65612380D01*
X20082857Y-65945714D02*
X20463809Y-65945714D01*
X20225714Y-66612380D02*
X20225714Y-65755238D01*
X20273333Y-65660000D01*
X20368571Y-65612380D01*
X20463809Y-65612380D01*
X20749523Y-66564761D02*
X20844761Y-66612380D01*
X21035238Y-66612380D01*
X21130476Y-66564761D01*
X21178095Y-66469523D01*
X21178095Y-66421904D01*
X21130476Y-66326666D01*
X21035238Y-66279047D01*
X20892380Y-66279047D01*
X20797142Y-66231428D01*
X20749523Y-66136190D01*
X20749523Y-66088571D01*
X20797142Y-65993333D01*
X20892380Y-65945714D01*
X21035238Y-65945714D01*
X21130476Y-65993333D01*
X21987619Y-66564761D02*
X21892380Y-66612380D01*
X21701904Y-66612380D01*
X21606666Y-66564761D01*
X21559047Y-66469523D01*
X21559047Y-66088571D01*
X21606666Y-65993333D01*
X21701904Y-65945714D01*
X21892380Y-65945714D01*
X21987619Y-65993333D01*
X22035238Y-66088571D01*
X22035238Y-66183809D01*
X21559047Y-66279047D01*
X22320952Y-65945714D02*
X22701904Y-65945714D01*
X22463809Y-65612380D02*
X22463809Y-66469523D01*
X22511428Y-66564761D01*
X22606666Y-66612380D01*
X22701904Y-66612380D01*
X32805900Y-70771199D02*
X32788471Y-70836248D01*
X32688562Y-70948916D01*
X32606084Y-70996535D01*
X32458556Y-71026724D01*
X32328459Y-70991865D01*
X32239600Y-70933195D01*
X32103123Y-70792048D01*
X32031694Y-70668330D01*
X31977695Y-70479563D01*
X31971316Y-70373275D01*
X32006175Y-70243177D01*
X32106084Y-70130509D01*
X32188562Y-70082890D01*
X32336090Y-70052701D01*
X32401139Y-70070131D01*
X33040577Y-70415766D02*
X33452970Y-70177670D01*
X33100955Y-70710821D02*
X32889630Y-69678128D01*
X33678306Y-70377487D01*
X33384502Y-69392414D02*
X33920613Y-69082890D01*
X33822414Y-69579471D01*
X33946132Y-69508043D01*
X34052420Y-69501663D01*
X34117469Y-69519093D01*
X34206327Y-69577762D01*
X34325375Y-69783959D01*
X34331755Y-69890247D01*
X34314325Y-69955295D01*
X34255656Y-70044154D01*
X34008220Y-70187011D01*
X33901932Y-70193391D01*
X33836883Y-70175961D01*
X34456724Y-68773367D02*
X34539203Y-68725747D01*
X34645491Y-68719368D01*
X34710540Y-68736798D01*
X34799398Y-68795467D01*
X34935875Y-68936614D01*
X35054923Y-69142811D01*
X35108922Y-69331578D01*
X35115302Y-69437866D01*
X35097872Y-69502915D01*
X35039203Y-69591773D01*
X34956724Y-69639392D01*
X34850436Y-69645772D01*
X34785387Y-69628342D01*
X34696529Y-69569673D01*
X34560051Y-69428525D01*
X34441004Y-69222329D01*
X34387005Y-69033562D01*
X34380625Y-68927274D01*
X34398055Y-68862225D01*
X34456724Y-68773367D01*
X35454557Y-68692139D02*
X35348268Y-68698519D01*
X35283220Y-68681089D01*
X35194361Y-68622420D01*
X35170552Y-68581181D01*
X35164172Y-68474893D01*
X35181602Y-68409844D01*
X35240271Y-68320986D01*
X35405228Y-68225747D01*
X35511516Y-68219368D01*
X35576565Y-68236798D01*
X35665423Y-68295467D01*
X35689233Y-68336706D01*
X35695613Y-68442994D01*
X35678183Y-68508043D01*
X35619514Y-68596901D01*
X35454557Y-68692139D01*
X35395887Y-68780998D01*
X35378458Y-68846047D01*
X35384837Y-68952335D01*
X35480076Y-69117292D01*
X35568934Y-69175961D01*
X35633983Y-69193391D01*
X35740271Y-69187011D01*
X35905228Y-69091773D01*
X35963897Y-69002915D01*
X35981327Y-68937866D01*
X35974947Y-68831578D01*
X35879709Y-68666620D01*
X35790851Y-68607951D01*
X35725802Y-68590521D01*
X35619514Y-68596901D01*
X36106296Y-67820986D02*
X36188775Y-67773367D01*
X36295063Y-67766987D01*
X36360112Y-67784417D01*
X36448970Y-67843086D01*
X36585448Y-67984233D01*
X36704495Y-68190430D01*
X36758494Y-68379197D01*
X36764874Y-68485485D01*
X36747444Y-68550534D01*
X36688775Y-68639392D01*
X36606296Y-68687011D01*
X36500008Y-68693391D01*
X36434959Y-68675961D01*
X36346101Y-68617292D01*
X36209624Y-68476144D01*
X36090576Y-68269948D01*
X36036577Y-68081181D01*
X36030197Y-67974893D01*
X36047627Y-67909844D01*
X36106296Y-67820986D01*
X14183333Y-53056666D02*
X14659523Y-53056666D01*
X14088095Y-53342380D02*
X14421428Y-52342380D01*
X14754761Y-53342380D01*
X14945238Y-52675714D02*
X15326190Y-52675714D01*
X15088095Y-52342380D02*
X15088095Y-53199523D01*
X15135714Y-53294761D01*
X15230952Y-53342380D01*
X15326190Y-53342380D01*
X15516666Y-52675714D02*
X15897619Y-52675714D01*
X15659523Y-52342380D02*
X15659523Y-53199523D01*
X15707142Y-53294761D01*
X15802380Y-53342380D01*
X15897619Y-53342380D01*
X15992857Y-53437619D02*
X16754761Y-53437619D01*
X16897619Y-52342380D02*
X17516666Y-52342380D01*
X17183333Y-52723333D01*
X17326190Y-52723333D01*
X17421428Y-52770952D01*
X17469047Y-52818571D01*
X17516666Y-52913809D01*
X17516666Y-53151904D01*
X17469047Y-53247142D01*
X17421428Y-53294761D01*
X17326190Y-53342380D01*
X17040476Y-53342380D01*
X16945238Y-53294761D01*
X16897619Y-53247142D01*
X13856666Y-45088571D02*
X13856666Y-44612380D01*
X14142380Y-45183809D02*
X13142380Y-44850476D01*
X14142380Y-44517142D01*
X13475714Y-44326666D02*
X13475714Y-43945714D01*
X13142380Y-44183809D02*
X13999523Y-44183809D01*
X14094761Y-44136190D01*
X14142380Y-44040952D01*
X14142380Y-43945714D01*
X13475714Y-43755238D02*
X13475714Y-43374285D01*
X13142380Y-43612380D02*
X13999523Y-43612380D01*
X14094761Y-43564761D01*
X14142380Y-43469523D01*
X14142380Y-43374285D01*
X14237619Y-43279047D02*
X14237619Y-42517142D01*
X14142380Y-42279047D02*
X13142380Y-42279047D01*
X13142380Y-41898095D01*
X13190000Y-41802857D01*
X13237619Y-41755238D01*
X13332857Y-41707619D01*
X13475714Y-41707619D01*
X13570952Y-41755238D01*
X13618571Y-41802857D01*
X13666190Y-41898095D01*
X13666190Y-42279047D01*
X14142380Y-41136190D02*
X14094761Y-41231428D01*
X14047142Y-41279047D01*
X13951904Y-41326666D01*
X13666190Y-41326666D01*
X13570952Y-41279047D01*
X13523333Y-41231428D01*
X13475714Y-41136190D01*
X13475714Y-40993333D01*
X13523333Y-40898095D01*
X13570952Y-40850476D01*
X13666190Y-40802857D01*
X13951904Y-40802857D01*
X14047142Y-40850476D01*
X14094761Y-40898095D01*
X14142380Y-40993333D01*
X14142380Y-41136190D01*
X13475714Y-40517142D02*
X13475714Y-40136190D01*
X13142380Y-40374285D02*
X13999523Y-40374285D01*
X14094761Y-40326666D01*
X14142380Y-40231428D01*
X14142380Y-40136190D01*
X13388571Y-35847142D02*
X13340952Y-35894761D01*
X13198095Y-35942380D01*
X13102857Y-35942380D01*
X12960000Y-35894761D01*
X12864761Y-35799523D01*
X12817142Y-35704285D01*
X12769523Y-35513809D01*
X12769523Y-35370952D01*
X12817142Y-35180476D01*
X12864761Y-35085238D01*
X12960000Y-34990000D01*
X13102857Y-34942380D01*
X13198095Y-34942380D01*
X13340952Y-34990000D01*
X13388571Y-35037619D01*
X14245714Y-35275714D02*
X14245714Y-35942380D01*
X13817142Y-35275714D02*
X13817142Y-35799523D01*
X13864761Y-35894761D01*
X13960000Y-35942380D01*
X14102857Y-35942380D01*
X14198095Y-35894761D01*
X14245714Y-35847142D01*
X14579047Y-35275714D02*
X14960000Y-35275714D01*
X14721904Y-34942380D02*
X14721904Y-35799523D01*
X14769523Y-35894761D01*
X14864761Y-35942380D01*
X14960000Y-35942380D01*
X15436190Y-35942380D02*
X15340952Y-35894761D01*
X15293333Y-35847142D01*
X15245714Y-35751904D01*
X15245714Y-35466190D01*
X15293333Y-35370952D01*
X15340952Y-35323333D01*
X15436190Y-35275714D01*
X15579047Y-35275714D01*
X15674285Y-35323333D01*
X15721904Y-35370952D01*
X15769523Y-35466190D01*
X15769523Y-35751904D01*
X15721904Y-35847142D01*
X15674285Y-35894761D01*
X15579047Y-35942380D01*
X15436190Y-35942380D01*
X16055238Y-35275714D02*
X16436190Y-35275714D01*
X16198095Y-35942380D02*
X16198095Y-35085238D01*
X16245714Y-34990000D01*
X16340952Y-34942380D01*
X16436190Y-34942380D01*
X16626666Y-35275714D02*
X17007619Y-35275714D01*
X16769523Y-35942380D02*
X16769523Y-35085238D01*
X16817142Y-34990000D01*
X16912380Y-34942380D01*
X17007619Y-34942380D01*
X17102857Y-36037619D02*
X17864761Y-36037619D01*
X18102857Y-35942380D02*
X18102857Y-34942380D01*
X18483809Y-34942380D01*
X18579047Y-34990000D01*
X18626666Y-35037619D01*
X18674285Y-35132857D01*
X18674285Y-35275714D01*
X18626666Y-35370952D01*
X18579047Y-35418571D01*
X18483809Y-35466190D01*
X18102857Y-35466190D01*
X19245714Y-35942380D02*
X19150476Y-35894761D01*
X19102857Y-35847142D01*
X19055238Y-35751904D01*
X19055238Y-35466190D01*
X19102857Y-35370952D01*
X19150476Y-35323333D01*
X19245714Y-35275714D01*
X19388571Y-35275714D01*
X19483809Y-35323333D01*
X19531428Y-35370952D01*
X19579047Y-35466190D01*
X19579047Y-35751904D01*
X19531428Y-35847142D01*
X19483809Y-35894761D01*
X19388571Y-35942380D01*
X19245714Y-35942380D01*
X19864761Y-35275714D02*
X20245714Y-35275714D01*
X20007619Y-34942380D02*
X20007619Y-35799523D01*
X20055238Y-35894761D01*
X20150476Y-35942380D01*
X20245714Y-35942380D01*
X16603617Y-20807487D02*
X17103617Y-19941462D01*
X16865522Y-20353855D02*
X17360394Y-20639569D01*
X17098489Y-21093201D02*
X17598489Y-20227176D01*
X17510882Y-21331297D02*
X18010882Y-20465271D01*
X18340796Y-20655747D01*
X18399465Y-20744606D01*
X18416895Y-20809655D01*
X18410515Y-20915943D01*
X18339087Y-21039661D01*
X18250229Y-21098330D01*
X18185180Y-21115760D01*
X18078892Y-21109380D01*
X17748977Y-20918904D01*
X18123092Y-21794728D02*
X18782921Y-22175680D01*
X19036736Y-22212249D02*
X19536736Y-21346224D01*
X19449129Y-22450344D02*
X19949129Y-21584319D01*
X19944001Y-22736059D01*
X20444001Y-21870033D01*
X26546580Y-112331261D02*
X25561773Y-112157613D01*
X26645808Y-111768514D01*
X25661000Y-111594865D01*
X26212646Y-111208599D02*
X26270529Y-110880330D01*
X26811187Y-110830601D02*
X26728498Y-111299557D01*
X25743690Y-111125909D01*
X25826379Y-110656953D01*
X25983490Y-109765937D02*
X25900800Y-110234893D01*
X26361487Y-110364478D01*
X26322861Y-110309313D01*
X26292503Y-110207253D01*
X26333848Y-109972775D01*
X26397281Y-109887253D01*
X26452446Y-109848626D01*
X26554506Y-109818269D01*
X26788984Y-109859613D01*
X26874506Y-109923047D01*
X26913133Y-109978212D01*
X26943491Y-110080272D01*
X26902146Y-110314750D01*
X26838712Y-110400272D01*
X26783548Y-110438899D01*
X26148869Y-108828025D02*
X26066179Y-109296981D01*
X26526866Y-109426566D01*
X26488240Y-109371401D01*
X26457882Y-109269341D01*
X26499227Y-109034863D01*
X26562660Y-108949341D01*
X26617825Y-108910714D01*
X26719885Y-108880356D01*
X26954363Y-108921701D01*
X27039885Y-108985135D01*
X27078512Y-109040299D01*
X27108870Y-109142360D01*
X27067525Y-109376838D01*
X27004091Y-109462360D01*
X26948927Y-109500986D01*
X26215021Y-108452860D02*
X26322517Y-107843217D01*
X26639799Y-108237638D01*
X26664606Y-108096951D01*
X26728040Y-108011429D01*
X26783204Y-107972802D01*
X26885264Y-107942444D01*
X27119742Y-107983789D01*
X27205265Y-108047223D01*
X27243891Y-108102387D01*
X27274249Y-108204447D01*
X27224635Y-108485821D01*
X27161202Y-108571343D01*
X27106037Y-108609970D01*
X26482460Y-107484590D02*
X26443833Y-107429425D01*
X26413476Y-107327365D01*
X26454820Y-107092887D01*
X26518254Y-107007365D01*
X26573419Y-106968738D01*
X26675479Y-106938380D01*
X26769270Y-106954918D01*
X26901688Y-107026621D01*
X27365208Y-107688596D01*
X27472704Y-107078953D01*
D10*
X17662512Y-104787226D02*
X17721992Y-104449896D01*
X16658008Y-104610104D02*
X16717488Y-104272774D01*
X29839663Y-93610242D02*
X29896967Y-93935229D01*
X36280306Y-92474583D02*
X29839663Y-93610242D01*
X36337610Y-92799570D02*
X36280306Y-92474583D01*
X30315459Y-96308616D02*
X30258155Y-95983629D01*
X36756102Y-95172957D02*
X30315459Y-96308616D01*
X36698798Y-94847970D02*
X36756102Y-95172957D01*
X26373750Y-35501250D02*
X26373750Y-34713750D01*
X26767500Y-35107500D02*
X25980000Y-35107500D01*
X25740000Y-30914437D02*
X24675563Y-29850000D01*
X25740000Y-35605563D02*
X24675563Y-36670000D01*
X25740000Y-35605563D02*
X25740000Y-34320000D01*
X25740000Y-30914437D02*
X25740000Y-32200000D01*
X24675563Y-29850000D02*
X18920000Y-29850000D01*
X24675563Y-36670000D02*
X18920000Y-36670000D01*
X18920000Y-36670000D02*
X18920000Y-34320000D01*
X18920000Y-29850000D02*
X18920000Y-32200000D01*
X30430824Y-117053685D02*
X34212486Y-117720494D01*
X30750337Y-115241639D02*
X34531999Y-115908448D01*
X29230000Y-87710000D02*
X29230000Y-91550000D01*
X31070000Y-87710000D02*
X31070000Y-91550000D01*
X20880000Y-15530000D02*
X20880000Y-19370000D01*
X22720000Y-15530000D02*
X22720000Y-19370000D01*
X32290000Y-51900000D02*
X36130000Y-51900000D01*
X32290000Y-50060000D02*
X36130000Y-50060000D01*
X39996743Y-85753064D02*
X38076743Y-82427527D01*
X38403257Y-86673064D02*
X36483257Y-83347527D01*
X35399692Y-79202008D02*
G75*
G02X35309338Y-80093878I-2574199J-189723D01*
G01*
X34316792Y-77261936D02*
G75*
G03X31525493Y-77140065I-1491299J-2129795D01*
G01*
X30235387Y-79618336D02*
G75*
G02X31525493Y-77140065I2590106J226605D01*
G01*
X31374088Y-81526192D02*
G75*
G03X32191647Y-81893878I1451405J2134461D01*
G01*
X32191647Y-81893878D02*
X35309338Y-80093878D01*
X33184184Y-22242795D02*
G75*
G02X32660000Y-22970000I-2324184J1122795D01*
G01*
X33216400Y-20021193D02*
G75*
G03X30860000Y-18520000I-2356400J-1098807D01*
G01*
X28503600Y-20021193D02*
G75*
G02X30860000Y-18520000I2356400J-1098807D01*
G01*
X28535816Y-22242795D02*
G75*
G03X29060000Y-22970000I2324184J1122795D01*
G01*
X29060000Y-22970000D02*
X32660000Y-22970000D01*
X41953943Y-70622675D02*
X36813943Y-61719934D01*
X32947279Y-75822675D02*
X41953943Y-70622675D01*
X27807279Y-66919934D02*
X32947279Y-75822675D01*
X36813943Y-61719934D02*
X27807279Y-66919934D01*
X40656982Y-68496272D02*
X39831982Y-67067330D01*
X31754241Y-73636272D02*
X40656982Y-68496272D01*
X29104241Y-69046337D02*
X31754241Y-73636272D01*
X38006982Y-63906337D02*
X29104241Y-69046337D01*
X38831982Y-65335279D02*
X38006982Y-63906337D01*
X39831982Y-67067331D02*
G75*
G02X38831982Y-65335279I-500000J866026D01*
G01*
X14430000Y-62300000D02*
X14430000Y-61280000D01*
X21200000Y-58480000D02*
X19280000Y-58480000D01*
X20760000Y-65100000D02*
X19720000Y-65100000D01*
X21650000Y-58580000D02*
X21650000Y-60000000D01*
X21450000Y-60000000D02*
X21450000Y-63580000D01*
X21450000Y-63580000D02*
X21650000Y-63580000D01*
X21650000Y-63580000D02*
X21650000Y-65000000D01*
X21650000Y-65000000D02*
X21450000Y-65000000D01*
X14430000Y-61280000D02*
X14430000Y-59790000D01*
X15740000Y-58480000D02*
X19280000Y-58480000D01*
X19720000Y-65100000D02*
X15740000Y-65100000D01*
X14430000Y-63790000D02*
X14430000Y-62300000D01*
X14430000Y-59790000D02*
G75*
G02X15740000Y-58480000I1310000J0D01*
G01*
X15740000Y-65100000D02*
G75*
G02X14430000Y-63790000I0J1310000D01*
G01*
X21450000Y-60000000D02*
X21650000Y-60000000D01*
X21650000Y-58580000D02*
X21450000Y-58580000D01*
X21450000Y-58580000D02*
X21450000Y-58480000D01*
X21450000Y-58480000D02*
X21200000Y-58480000D01*
X21450000Y-65000000D02*
X21450000Y-65100000D01*
X21450000Y-65100000D02*
X20760000Y-65100000D01*
X24440000Y-77090000D02*
X24940000Y-77090000D01*
X24690000Y-77340000D02*
X24690000Y-76840000D01*
X27445563Y-76600000D02*
X28510000Y-75535563D01*
X25054437Y-76600000D02*
X23990000Y-75535563D01*
X25054437Y-76600000D02*
X25190000Y-76600000D01*
X27445563Y-76600000D02*
X27310000Y-76600000D01*
X28510000Y-75535563D02*
X28510000Y-72080000D01*
X23990000Y-75535563D02*
X23990000Y-72080000D01*
X23990000Y-72080000D02*
X25190000Y-72080000D01*
X28510000Y-72080000D02*
X27310000Y-72080000D01*
X24540000Y-92350000D02*
X25040000Y-92350000D01*
X24790000Y-92600000D02*
X24790000Y-92100000D01*
X27545563Y-91860000D02*
X28610000Y-90795563D01*
X25154437Y-91860000D02*
X24090000Y-90795563D01*
X25154437Y-91860000D02*
X25290000Y-91860000D01*
X27545563Y-91860000D02*
X27410000Y-91860000D01*
X28610000Y-90795563D02*
X28610000Y-87340000D01*
X24090000Y-90795563D02*
X24090000Y-87340000D01*
X24090000Y-87340000D02*
X25290000Y-87340000D01*
X28610000Y-87340000D02*
X27410000Y-87340000D01*
X24092196Y-97742587D02*
X23983665Y-98358092D01*
X23730178Y-97996074D02*
X24345683Y-98104604D01*
X23995008Y-101475485D02*
X24858436Y-102708588D01*
X24583871Y-98135877D02*
X25816974Y-97272449D01*
X24583871Y-98135877D02*
X24473507Y-98761785D01*
X23995008Y-101475485D02*
X24105373Y-100849577D01*
X24858436Y-102708588D02*
X29246309Y-103482288D01*
X25816974Y-97272449D02*
X30204847Y-98046150D01*
X30204847Y-98046150D02*
X29909645Y-99720323D01*
X29246309Y-103482288D02*
X29541511Y-101808115D01*
X20169483Y-107507262D02*
X19677079Y-107420438D01*
X19966693Y-107217648D02*
X19879869Y-107710052D01*
X17124493Y-107467907D02*
X15891390Y-108331335D01*
X19479293Y-107883122D02*
X20342721Y-109116225D01*
X19479293Y-107883122D02*
X19345789Y-107859582D01*
X17124493Y-107467907D02*
X17257997Y-107491447D01*
X15891390Y-108331335D02*
X15291338Y-111734401D01*
X20342721Y-109116225D02*
X19742669Y-112519290D01*
X19742669Y-112519290D02*
X18560899Y-112310913D01*
X15291338Y-111734401D02*
X16473107Y-111942778D01*
X20301267Y-56930000D02*
X19958733Y-56930000D01*
X20301267Y-57950000D02*
X19958733Y-57950000D01*
X32568733Y-40150000D02*
X32911267Y-40150000D01*
X32568733Y-39130000D02*
X32911267Y-39130000D01*
X29198733Y-23450000D02*
X29541267Y-23450000D01*
X29198733Y-24470000D02*
X29541267Y-24470000D01*
X40317107Y-72145054D02*
X40020463Y-72316321D01*
X40827107Y-73028399D02*
X40530463Y-73199666D01*
X39254687Y-74607425D02*
X39083420Y-74310781D01*
X38371342Y-75117425D02*
X38200075Y-74820781D01*
X34859020Y-107090594D02*
X34596624Y-107310771D01*
X34203376Y-106309229D02*
X33940980Y-106529406D01*
X27750000Y-46020000D02*
X26050000Y-46020000D01*
X26050000Y-46020000D02*
X26050000Y-48570000D01*
X27750000Y-46020000D02*
X27750000Y-48570000D01*
X22082359Y-103914852D02*
X21639556Y-106426112D01*
X20408186Y-103619650D02*
X19965383Y-106130910D01*
X22082359Y-103914852D02*
X20408186Y-103619650D01*
X17917625Y-106226778D02*
X19591798Y-106521980D01*
X19591798Y-106521980D02*
X20034601Y-104010720D01*
X17917625Y-106226778D02*
X18360428Y-103715518D01*
X23715000Y-71970000D02*
X23715000Y-92830000D01*
X23715000Y-92830000D02*
X14365000Y-92830000D01*
X14365000Y-92830000D02*
X14365000Y-71970000D01*
X14365000Y-71970000D02*
X23715000Y-71970000D01*
X14115000Y-71720000D02*
X14115000Y-74260000D01*
X14115000Y-71720000D02*
X16655000Y-71720000D01*
X30087736Y-58182383D02*
G75*
G02X29500000Y-57790000I1112264J2302383D01*
G01*
X32298807Y-58236400D02*
G75*
G03X33800000Y-55880000I-1098807J2356400D01*
G01*
X32298807Y-53523600D02*
G75*
G02X33800000Y-55880000I-1098807J-2356400D01*
G01*
X30077955Y-53557369D02*
G75*
G03X29500000Y-53940000I1122045J-2322631D01*
G01*
X29500000Y-53940000D02*
X29500000Y-57790000D01*
X32800000Y-34350000D02*
X28950000Y-34350000D01*
X33182631Y-34927955D02*
G75*
G03X32800000Y-34350000I-2322631J-1122045D01*
G01*
X33216400Y-37148807D02*
G75*
G02X30860000Y-38650000I-2356400J1098807D01*
G01*
X28503600Y-37148807D02*
G75*
G03X30860000Y-38650000I2356400J1098807D01*
G01*
X28557617Y-34937736D02*
G75*
G02X28950000Y-34350000I2302383J-1112264D01*
G01*
X28915001Y-33945000D02*
X32765001Y-33945000D01*
X28532370Y-33367045D02*
G75*
G03X28915001Y-33945000I2322631J1122045D01*
G01*
X28498601Y-31146193D02*
G75*
G02X30855001Y-29645000I2356400J-1098807D01*
G01*
X33211401Y-31146193D02*
G75*
G03X30855001Y-29645000I-2356400J-1098807D01*
G01*
X33157384Y-33357264D02*
G75*
G02X32765001Y-33945000I-2302383J1112264D01*
G01*
X28587617Y-25537736D02*
G75*
G02X28980000Y-24950000I2302383J-1112264D01*
G01*
X28533600Y-27748807D02*
G75*
G03X30890000Y-29250000I2356400J1098807D01*
G01*
X33246400Y-27748807D02*
G75*
G02X30890000Y-29250000I-2356400J1098807D01*
G01*
X33212631Y-25527955D02*
G75*
G03X32830000Y-24950000I-2322631J-1122045D01*
G01*
X32830000Y-24950000D02*
X28980000Y-24950000D01*
X16931267Y-54860000D02*
X16588733Y-54860000D01*
X16931267Y-53840000D02*
X16588733Y-53840000D01*
X16931267Y-55370000D02*
X16588733Y-55370000D01*
X16931267Y-56390000D02*
X16588733Y-56390000D01*
X16573733Y-57940000D02*
X16916267Y-57940000D01*
X16573733Y-56920000D02*
X16916267Y-56920000D01*
X16330000Y-45451267D02*
X16330000Y-45108733D01*
X15310000Y-45451267D02*
X15310000Y-45108733D01*
X16411267Y-47230000D02*
X16068733Y-47230000D01*
X16411267Y-48250000D02*
X16068733Y-48250000D01*
X17090000Y-45421267D02*
X17090000Y-45078733D01*
X18110000Y-45421267D02*
X18110000Y-45078733D01*
X20231267Y-45600000D02*
X19888733Y-45600000D01*
X20231267Y-44580000D02*
X19888733Y-44580000D01*
X20291267Y-56410000D02*
X19948733Y-56410000D01*
X20291267Y-55390000D02*
X19948733Y-55390000D01*
X22100000Y-58541267D02*
X22100000Y-58198733D01*
X23120000Y-58541267D02*
X23120000Y-58198733D01*
X27438733Y-53580000D02*
X27781267Y-53580000D01*
X27438733Y-52560000D02*
X27781267Y-52560000D01*
X27418733Y-55110000D02*
X27761267Y-55110000D01*
X27418733Y-54090000D02*
X27761267Y-54090000D01*
X27741267Y-56640000D02*
X27398733Y-56640000D01*
X27741267Y-55620000D02*
X27398733Y-55620000D01*
X34240000Y-57608733D02*
X34240000Y-57951267D01*
X35260000Y-57608733D02*
X35260000Y-57951267D01*
X34230000Y-54581267D02*
X34230000Y-54238733D01*
X35250000Y-54581267D02*
X35250000Y-54238733D01*
X22160000Y-38911267D02*
X22160000Y-38568733D01*
X21140000Y-38911267D02*
X21140000Y-38568733D01*
X19610000Y-38921267D02*
X19610000Y-38578733D01*
X20630000Y-38921267D02*
X20630000Y-38578733D01*
X32921267Y-40650000D02*
X32578733Y-40650000D01*
X32921267Y-41670000D02*
X32578733Y-41670000D01*
X25808733Y-23440000D02*
X26151267Y-23440000D01*
X25808733Y-24460000D02*
X26151267Y-24460000D01*
X21390000Y-27408733D02*
X21390000Y-27751267D01*
X22410000Y-27408733D02*
X22410000Y-27751267D01*
X16120000Y-32111267D02*
X16120000Y-31768733D01*
X17140000Y-32111267D02*
X17140000Y-31768733D01*
X25342180Y-21403492D02*
X25459334Y-21725369D01*
X26300666Y-21054631D02*
X26417820Y-21376508D01*
X32941267Y-24480000D02*
X32598733Y-24480000D01*
X32941267Y-23460000D02*
X32598733Y-23460000D01*
X25480000Y-27398733D02*
X25480000Y-27741267D01*
X24460000Y-27398733D02*
X24460000Y-27741267D01*
X22920000Y-27408733D02*
X22920000Y-27751267D01*
X23940000Y-27408733D02*
X23940000Y-27751267D01*
X41600765Y-74348417D02*
X41304121Y-74519684D01*
X41090765Y-73465072D02*
X40794121Y-73636339D01*
X27000000Y-27388733D02*
X27000000Y-27731267D01*
X25980000Y-27388733D02*
X25980000Y-27731267D01*
X29180000Y-47298733D02*
X29180000Y-47641267D01*
X28160000Y-47298733D02*
X28160000Y-47641267D01*
X29690000Y-47298733D02*
X29690000Y-47641267D01*
X30710000Y-47298733D02*
X30710000Y-47641267D01*
X19822774Y-114442512D02*
X20160104Y-114501992D01*
X19999896Y-113438008D02*
X20337226Y-113497488D01*
X30591799Y-62862860D02*
X30763066Y-63159504D01*
X29708454Y-63372860D02*
X29879721Y-63669504D01*
X31903157Y-62094201D02*
X32074424Y-62390845D01*
X31019812Y-62604201D02*
X31191079Y-62900845D01*
X37758401Y-75075781D02*
X37929668Y-75372425D01*
X36875056Y-75585781D02*
X37046323Y-75882425D01*
X32803163Y-113716680D02*
X32862643Y-113379350D01*
X31798659Y-113539558D02*
X31858139Y-113202228D01*
X35722643Y-76669746D02*
X35551376Y-76373102D01*
X36605988Y-76159746D02*
X36434721Y-75863102D01*
X33370398Y-110384557D02*
X33429878Y-110047227D01*
X32365894Y-110207435D02*
X32425374Y-109870105D01*
X32478365Y-82247956D02*
X32181721Y-82419223D01*
X32988365Y-83131301D02*
X32691721Y-83302568D01*
X35100228Y-80734223D02*
X35396872Y-80562956D01*
X35610228Y-81617568D02*
X35906872Y-81446301D01*
X33083175Y-102799446D02*
X33142655Y-102462116D01*
X32078671Y-102622324D02*
X32138151Y-102284994D01*
X22170000Y-54945000D02*
X24120000Y-54945000D01*
X22170000Y-54945000D02*
X20220000Y-54945000D01*
X22170000Y-46075000D02*
X24120000Y-46075000D01*
X22170000Y-46075000D02*
X18720000Y-46075000D01*
X28747032Y-103952736D02*
G75*
G02X26777416Y-103605440I-984808J173648D01*
G01*
X26777416Y-103605440D02*
X25152483Y-103318921D01*
X25152483Y-103318921D02*
X23367380Y-113442744D01*
X23367380Y-113442744D02*
X28586861Y-114363080D01*
X28586861Y-114363080D02*
X30371964Y-104239256D01*
X30371964Y-104239256D02*
X28747031Y-103952736D01*
X22710731Y-102827448D02*
X20904790Y-113069449D01*
X20904790Y-113069449D02*
X31028613Y-114854552D01*
X31028613Y-114854552D02*
X32834554Y-104612551D01*
X32834554Y-104612551D02*
X22710731Y-102827448D01*
D11*
X16115602Y-104993328D02*
X15588763Y-105238908D01*
X16016374Y-105556076D02*
X15031567Y-105382427D01*
X15097718Y-105007263D01*
X15161152Y-104921740D01*
X15216316Y-104883114D01*
X15318376Y-104852756D01*
X15459063Y-104877563D01*
X15544586Y-104940996D01*
X15583212Y-104996161D01*
X15613570Y-105098221D01*
X15547418Y-105473386D01*
X15188677Y-104491411D02*
X15296173Y-103881768D01*
X15613455Y-104276189D01*
X15638262Y-104135502D01*
X15701696Y-104049980D01*
X15756860Y-104011353D01*
X15858921Y-103980996D01*
X16093399Y-104022340D01*
X16178921Y-104085774D01*
X16217547Y-104140938D01*
X16247905Y-104242999D01*
X16198291Y-104524372D01*
X16134858Y-104609895D01*
X16079693Y-104648521D01*
X15354056Y-103553499D02*
X15461552Y-102943856D01*
X15778835Y-103338277D01*
X15803641Y-103197590D01*
X15867075Y-103112068D01*
X15922240Y-103073441D01*
X16024300Y-103043083D01*
X16258778Y-103084428D01*
X16344300Y-103147862D01*
X16382927Y-103203026D01*
X16413284Y-103305086D01*
X16363671Y-103586460D01*
X16300237Y-103671982D01*
X16245073Y-103710609D01*
X33125464Y-95017139D02*
X32714505Y-94606065D01*
X32562717Y-95116366D02*
X32389068Y-94131559D01*
X32764233Y-94065407D01*
X32866293Y-94095765D01*
X32921458Y-94134391D01*
X32984892Y-94219913D01*
X33009698Y-94360600D01*
X32979341Y-94462660D01*
X32940714Y-94517825D01*
X32855192Y-94581259D01*
X32480027Y-94647410D01*
X33280085Y-93974448D02*
X33889728Y-93866952D01*
X33627610Y-94299999D01*
X33768297Y-94275192D01*
X33870357Y-94305550D01*
X33925522Y-94344177D01*
X33988955Y-94429699D01*
X34030300Y-94664177D01*
X33999943Y-94766237D01*
X33961316Y-94821402D01*
X33875794Y-94884835D01*
X33594420Y-94934449D01*
X33492360Y-94904091D01*
X33437195Y-94865465D01*
X34281431Y-93894591D02*
X34320057Y-93839427D01*
X34405580Y-93775993D01*
X34640058Y-93734648D01*
X34742118Y-93765006D01*
X34797282Y-93803633D01*
X34860716Y-93889155D01*
X34877254Y-93982946D01*
X34855165Y-94131902D01*
X34391645Y-94793877D01*
X35001288Y-94686380D01*
X22163333Y-37967142D02*
X22115714Y-38014761D01*
X21972857Y-38062380D01*
X21877619Y-38062380D01*
X21734761Y-38014761D01*
X21639523Y-37919523D01*
X21591904Y-37824285D01*
X21544285Y-37633809D01*
X21544285Y-37490952D01*
X21591904Y-37300476D01*
X21639523Y-37205238D01*
X21734761Y-37110000D01*
X21877619Y-37062380D01*
X21972857Y-37062380D01*
X22115714Y-37110000D01*
X22163333Y-37157619D01*
X23020476Y-37395714D02*
X23020476Y-38062380D01*
X22782380Y-37014761D02*
X22544285Y-37729047D01*
X23163333Y-37729047D01*
X31489737Y-115775216D02*
X31555391Y-115786793D01*
X31612775Y-115845265D01*
X31637333Y-115897949D01*
X31653622Y-115997528D01*
X31653373Y-116190899D01*
X31612029Y-116425377D01*
X31546126Y-116607171D01*
X31496761Y-116695174D01*
X31455665Y-116736282D01*
X31381742Y-116771601D01*
X31316089Y-116760024D01*
X31258704Y-116701552D01*
X31234146Y-116648868D01*
X31217857Y-116549289D01*
X31218106Y-116355918D01*
X31259450Y-116121440D01*
X31325353Y-115939646D01*
X31374718Y-115851643D01*
X31415814Y-115810535D01*
X31489737Y-115775216D01*
X32146275Y-115890982D02*
X32277583Y-115914135D01*
X32334968Y-115972607D01*
X32384084Y-116077975D01*
X32383835Y-116271345D01*
X32325952Y-116599615D01*
X32260049Y-116781409D01*
X32177858Y-116863624D01*
X32103935Y-116898943D01*
X31972627Y-116875790D01*
X31915242Y-116817317D01*
X31866126Y-116711950D01*
X31866375Y-116518579D01*
X31924258Y-116190310D01*
X31990161Y-116008516D01*
X32072352Y-115926301D01*
X32146275Y-115890982D01*
X32563512Y-116979978D02*
X32737160Y-115995171D01*
X32858954Y-117032073D02*
X32949913Y-116516221D01*
X32933624Y-116416642D01*
X32876239Y-116358170D01*
X32777758Y-116340805D01*
X32703835Y-116376124D01*
X32662739Y-116417231D01*
X33187223Y-117089956D02*
X33302989Y-116433417D01*
X33286451Y-116527208D02*
X33327547Y-116486101D01*
X33401469Y-116450782D01*
X33499950Y-116468147D01*
X33557335Y-116526619D01*
X33573624Y-116626198D01*
X33482666Y-117142050D01*
X33573624Y-116626198D02*
X33622989Y-116538195D01*
X33696912Y-116502876D01*
X33795393Y-116520241D01*
X33852777Y-116578713D01*
X33869066Y-116678293D01*
X33778108Y-117194145D01*
X29552380Y-90863333D02*
X29552380Y-90796666D01*
X29600000Y-90730000D01*
X29647619Y-90696666D01*
X29742857Y-90663333D01*
X29933333Y-90630000D01*
X30171428Y-90630000D01*
X30361904Y-90663333D01*
X30457142Y-90696666D01*
X30504761Y-90730000D01*
X30552380Y-90796666D01*
X30552380Y-90863333D01*
X30504761Y-90930000D01*
X30457142Y-90963333D01*
X30361904Y-90996666D01*
X30171428Y-91030000D01*
X29933333Y-91030000D01*
X29742857Y-90996666D01*
X29647619Y-90963333D01*
X29600000Y-90930000D01*
X29552380Y-90863333D01*
X29552380Y-90196666D02*
X29552380Y-90063333D01*
X29600000Y-89996666D01*
X29695238Y-89930000D01*
X29885714Y-89896666D01*
X30219047Y-89896666D01*
X30409523Y-89930000D01*
X30504761Y-89996666D01*
X30552380Y-90063333D01*
X30552380Y-90196666D01*
X30504761Y-90263333D01*
X30409523Y-90330000D01*
X30219047Y-90363333D01*
X29885714Y-90363333D01*
X29695238Y-90330000D01*
X29600000Y-90263333D01*
X29552380Y-90196666D01*
X30552380Y-89596666D02*
X29552380Y-89596666D01*
X30552380Y-89296666D02*
X30028571Y-89296666D01*
X29933333Y-89330000D01*
X29885714Y-89396666D01*
X29885714Y-89496666D01*
X29933333Y-89563333D01*
X29980952Y-89596666D01*
X30552380Y-88963333D02*
X29885714Y-88963333D01*
X29980952Y-88963333D02*
X29933333Y-88930000D01*
X29885714Y-88863333D01*
X29885714Y-88763333D01*
X29933333Y-88696666D01*
X30028571Y-88663333D01*
X30552380Y-88663333D01*
X30028571Y-88663333D02*
X29933333Y-88630000D01*
X29885714Y-88563333D01*
X29885714Y-88463333D01*
X29933333Y-88396666D01*
X30028571Y-88363333D01*
X30552380Y-88363333D01*
X21232380Y-18613333D02*
X21232380Y-18546666D01*
X21280000Y-18480000D01*
X21327619Y-18446666D01*
X21422857Y-18413333D01*
X21613333Y-18380000D01*
X21851428Y-18380000D01*
X22041904Y-18413333D01*
X22137142Y-18446666D01*
X22184761Y-18480000D01*
X22232380Y-18546666D01*
X22232380Y-18613333D01*
X22184761Y-18680000D01*
X22137142Y-18713333D01*
X22041904Y-18746666D01*
X21851428Y-18780000D01*
X21613333Y-18780000D01*
X21422857Y-18746666D01*
X21327619Y-18713333D01*
X21280000Y-18680000D01*
X21232380Y-18613333D01*
X21232380Y-17946666D02*
X21232380Y-17813333D01*
X21280000Y-17746666D01*
X21375238Y-17680000D01*
X21565714Y-17646666D01*
X21899047Y-17646666D01*
X22089523Y-17680000D01*
X22184761Y-17746666D01*
X22232380Y-17813333D01*
X22232380Y-17946666D01*
X22184761Y-18013333D01*
X22089523Y-18080000D01*
X21899047Y-18113333D01*
X21565714Y-18113333D01*
X21375238Y-18080000D01*
X21280000Y-18013333D01*
X21232380Y-17946666D01*
X22232380Y-17346666D02*
X21232380Y-17346666D01*
X22232380Y-17046666D02*
X21708571Y-17046666D01*
X21613333Y-17080000D01*
X21565714Y-17146666D01*
X21565714Y-17246666D01*
X21613333Y-17313333D01*
X21660952Y-17346666D01*
X22232380Y-16713333D02*
X21565714Y-16713333D01*
X21660952Y-16713333D02*
X21613333Y-16680000D01*
X21565714Y-16613333D01*
X21565714Y-16513333D01*
X21613333Y-16446666D01*
X21708571Y-16413333D01*
X22232380Y-16413333D01*
X21708571Y-16413333D02*
X21613333Y-16380000D01*
X21565714Y-16313333D01*
X21565714Y-16213333D01*
X21613333Y-16146666D01*
X21708571Y-16113333D01*
X22232380Y-16113333D01*
X40848095Y-53701428D02*
X41610000Y-53701428D01*
X42610000Y-54082380D02*
X42038571Y-54082380D01*
X42324285Y-54082380D02*
X42324285Y-53082380D01*
X42229047Y-53225238D01*
X42133809Y-53320476D01*
X42038571Y-53368095D01*
X42990952Y-53177619D02*
X43038571Y-53130000D01*
X43133809Y-53082380D01*
X43371904Y-53082380D01*
X43467142Y-53130000D01*
X43514761Y-53177619D01*
X43562380Y-53272857D01*
X43562380Y-53368095D01*
X43514761Y-53510952D01*
X42943333Y-54082380D01*
X43562380Y-54082380D01*
X43848095Y-53082380D02*
X44181428Y-54082380D01*
X44514761Y-53082380D01*
X24739860Y-63512811D02*
X25399688Y-63131858D01*
X26456190Y-62961773D02*
X25961318Y-63247487D01*
X26208754Y-63104630D02*
X25708754Y-62238605D01*
X25697704Y-62409942D01*
X25662845Y-62540039D01*
X25604175Y-62628898D01*
X26333723Y-61987750D02*
X26351153Y-61922701D01*
X26409822Y-61833843D01*
X26616019Y-61714795D01*
X26722307Y-61708415D01*
X26787356Y-61725845D01*
X26876214Y-61784514D01*
X26923833Y-61866993D01*
X26954022Y-62014520D01*
X26744865Y-62795106D01*
X27280976Y-62485582D01*
X27028412Y-61476700D02*
X27817087Y-62176059D01*
X27605762Y-61143367D01*
X33036666Y-50442380D02*
X33103333Y-50442380D01*
X33170000Y-50490000D01*
X33203333Y-50537619D01*
X33236666Y-50632857D01*
X33270000Y-50823333D01*
X33270000Y-51061428D01*
X33236666Y-51251904D01*
X33203333Y-51347142D01*
X33170000Y-51394761D01*
X33103333Y-51442380D01*
X33036666Y-51442380D01*
X32970000Y-51394761D01*
X32936666Y-51347142D01*
X32903333Y-51251904D01*
X32870000Y-51061428D01*
X32870000Y-50823333D01*
X32903333Y-50632857D01*
X32936666Y-50537619D01*
X32970000Y-50490000D01*
X33036666Y-50442380D01*
X33703333Y-50442380D02*
X33836666Y-50442380D01*
X33903333Y-50490000D01*
X33970000Y-50585238D01*
X34003333Y-50775714D01*
X34003333Y-51109047D01*
X33970000Y-51299523D01*
X33903333Y-51394761D01*
X33836666Y-51442380D01*
X33703333Y-51442380D01*
X33636666Y-51394761D01*
X33570000Y-51299523D01*
X33536666Y-51109047D01*
X33536666Y-50775714D01*
X33570000Y-50585238D01*
X33636666Y-50490000D01*
X33703333Y-50442380D01*
X34303333Y-51442380D02*
X34303333Y-50442380D01*
X34603333Y-51442380D02*
X34603333Y-50918571D01*
X34570000Y-50823333D01*
X34503333Y-50775714D01*
X34403333Y-50775714D01*
X34336666Y-50823333D01*
X34303333Y-50870952D01*
X34936666Y-51442380D02*
X34936666Y-50775714D01*
X34936666Y-50870952D02*
X34970000Y-50823333D01*
X35036666Y-50775714D01*
X35136666Y-50775714D01*
X35203333Y-50823333D01*
X35236666Y-50918571D01*
X35236666Y-51442380D01*
X35236666Y-50918571D02*
X35270000Y-50823333D01*
X35336666Y-50775714D01*
X35436666Y-50775714D01*
X35503333Y-50823333D01*
X35536666Y-50918571D01*
X35536666Y-51442380D01*
X38142585Y-83261393D02*
X38175918Y-83319128D01*
X38168012Y-83400673D01*
X38143440Y-83453350D01*
X38077628Y-83529836D01*
X37929337Y-83653942D01*
X37723141Y-83772990D01*
X37541517Y-83839360D01*
X37442371Y-83858112D01*
X37384465Y-83853054D01*
X37309893Y-83819128D01*
X37276559Y-83761393D01*
X37284465Y-83679849D01*
X37309038Y-83627172D01*
X37374850Y-83550685D01*
X37523141Y-83426579D01*
X37729337Y-83307532D01*
X37910961Y-83241161D01*
X38010106Y-83222410D01*
X38068012Y-83227468D01*
X38142585Y-83261393D01*
X38475918Y-83838744D02*
X38542585Y-83954214D01*
X38534679Y-84035758D01*
X38485534Y-84141112D01*
X38337243Y-84265218D01*
X38048568Y-84431884D01*
X37866944Y-84498255D01*
X37751132Y-84488139D01*
X37676559Y-84454214D01*
X37609893Y-84338744D01*
X37617799Y-84257199D01*
X37666944Y-84151845D01*
X37815235Y-84027739D01*
X38103910Y-83861073D01*
X38285534Y-83794702D01*
X38401346Y-83804818D01*
X38475918Y-83838744D01*
X37909893Y-84858359D02*
X38775918Y-84358359D01*
X38059893Y-85118166D02*
X38513525Y-84856262D01*
X38579337Y-84779775D01*
X38587243Y-84698231D01*
X38537243Y-84611628D01*
X38462670Y-84577702D01*
X38404764Y-84572644D01*
X38226559Y-85406842D02*
X38803910Y-85073508D01*
X38721431Y-85121127D02*
X38779337Y-85126185D01*
X38853910Y-85160111D01*
X38903910Y-85246713D01*
X38896004Y-85328258D01*
X38830192Y-85404744D01*
X38376559Y-85666649D01*
X38830192Y-85404744D02*
X38929337Y-85385993D01*
X39003910Y-85419918D01*
X39053910Y-85506521D01*
X39046004Y-85588065D01*
X38980192Y-85664552D01*
X38526559Y-85926457D01*
X27470476Y-40752380D02*
X27470476Y-41466666D01*
X27422857Y-41609523D01*
X27327619Y-41704761D01*
X27184761Y-41752380D01*
X27089523Y-41752380D01*
X28470476Y-41752380D02*
X27899047Y-41752380D01*
X28184761Y-41752380D02*
X28184761Y-40752380D01*
X28089523Y-40895238D01*
X27994285Y-40990476D01*
X27899047Y-41038095D01*
X29327619Y-41085714D02*
X29327619Y-41752380D01*
X29089523Y-40704761D02*
X28851428Y-41419047D01*
X29470476Y-41419047D01*
X31236823Y-76830552D02*
X31130535Y-76836931D01*
X31000438Y-76802072D01*
X30805291Y-76749782D01*
X30699003Y-76756162D01*
X30616524Y-76803781D01*
X30776811Y-76986168D02*
X30670523Y-76992548D01*
X30540426Y-76957688D01*
X30403948Y-76816541D01*
X30237281Y-76527866D01*
X30183283Y-76339099D01*
X30218142Y-76209001D01*
X30276811Y-76120143D01*
X30441769Y-76024905D01*
X30548057Y-76018525D01*
X30678154Y-76053385D01*
X30814632Y-76194532D01*
X30981298Y-76483207D01*
X31035297Y-76671974D01*
X31000438Y-76802072D01*
X30941769Y-76890930D01*
X30776811Y-76986168D01*
X31390273Y-75477286D02*
X31225315Y-75572524D01*
X31166646Y-75661382D01*
X31149216Y-75726431D01*
X31138166Y-75897768D01*
X31192165Y-76086535D01*
X31382641Y-76416449D01*
X31471500Y-76475118D01*
X31536549Y-76492548D01*
X31642837Y-76486168D01*
X31807794Y-76390930D01*
X31866463Y-76302072D01*
X31883893Y-76237023D01*
X31877513Y-76130735D01*
X31758465Y-75924538D01*
X31669607Y-75865869D01*
X31604558Y-75848439D01*
X31498270Y-75854819D01*
X31333313Y-75950057D01*
X31274644Y-76038916D01*
X31257214Y-76103964D01*
X31263594Y-76210253D01*
X30764761Y-18107619D02*
X30669523Y-18060000D01*
X30574285Y-17964761D01*
X30431428Y-17821904D01*
X30336190Y-17774285D01*
X30240952Y-17774285D01*
X30288571Y-18012380D02*
X30193333Y-17964761D01*
X30098095Y-17869523D01*
X30050476Y-17679047D01*
X30050476Y-17345714D01*
X30098095Y-17155238D01*
X30193333Y-17060000D01*
X30288571Y-17012380D01*
X30479047Y-17012380D01*
X30574285Y-17060000D01*
X30669523Y-17155238D01*
X30717142Y-17345714D01*
X30717142Y-17679047D01*
X30669523Y-17869523D01*
X30574285Y-17964761D01*
X30479047Y-18012380D01*
X30288571Y-18012380D01*
X31621904Y-17012380D02*
X31145714Y-17012380D01*
X31098095Y-17488571D01*
X31145714Y-17440952D01*
X31240952Y-17393333D01*
X31479047Y-17393333D01*
X31574285Y-17440952D01*
X31621904Y-17488571D01*
X31669523Y-17583809D01*
X31669523Y-17821904D01*
X31621904Y-17917142D01*
X31574285Y-17964761D01*
X31479047Y-18012380D01*
X31240952Y-18012380D01*
X31145714Y-17964761D01*
X31098095Y-17917142D01*
X40291306Y-64767666D02*
X39590238Y-65172428D01*
X39531569Y-65261286D01*
X39514139Y-65326335D01*
X39520519Y-65432623D01*
X39615757Y-65597581D01*
X39704615Y-65656250D01*
X39769664Y-65673679D01*
X39875952Y-65667300D01*
X40577020Y-65262538D01*
X40767497Y-65592452D02*
X41077020Y-66128563D01*
X40580439Y-66030364D01*
X40651868Y-66154082D01*
X40658248Y-66260370D01*
X40640818Y-66325419D01*
X40582149Y-66414277D01*
X40375952Y-66533325D01*
X40269664Y-66539705D01*
X40204615Y-66522275D01*
X40115757Y-66463606D01*
X39972900Y-66216170D01*
X39966520Y-66109882D01*
X39983950Y-66044833D01*
X23192380Y-62485238D02*
X22716190Y-62818571D01*
X23192380Y-63056666D02*
X22192380Y-63056666D01*
X22192380Y-62675714D01*
X22240000Y-62580476D01*
X22287619Y-62532857D01*
X22382857Y-62485238D01*
X22525714Y-62485238D01*
X22620952Y-62532857D01*
X22668571Y-62580476D01*
X22716190Y-62675714D01*
X22716190Y-63056666D01*
X22192380Y-62199523D02*
X23192380Y-61866190D01*
X22192380Y-61532857D01*
X23192380Y-60675714D02*
X23192380Y-61247142D01*
X23192380Y-60961428D02*
X22192380Y-60961428D01*
X22335238Y-61056666D01*
X22430476Y-61151904D01*
X22478095Y-61247142D01*
X33656666Y-42622380D02*
X33656666Y-43336666D01*
X33609047Y-43479523D01*
X33513809Y-43574761D01*
X33370952Y-43622380D01*
X33275714Y-43622380D01*
X34037619Y-42622380D02*
X34656666Y-42622380D01*
X34323333Y-43003333D01*
X34466190Y-43003333D01*
X34561428Y-43050952D01*
X34609047Y-43098571D01*
X34656666Y-43193809D01*
X34656666Y-43431904D01*
X34609047Y-43527142D01*
X34561428Y-43574761D01*
X34466190Y-43622380D01*
X34180476Y-43622380D01*
X34085238Y-43574761D01*
X34037619Y-43527142D01*
X33184761Y-60747619D02*
X33089523Y-60700000D01*
X32994285Y-60604761D01*
X32851428Y-60461904D01*
X32756190Y-60414285D01*
X32660952Y-60414285D01*
X32708571Y-60652380D02*
X32613333Y-60604761D01*
X32518095Y-60509523D01*
X32470476Y-60319047D01*
X32470476Y-59985714D01*
X32518095Y-59795238D01*
X32613333Y-59700000D01*
X32708571Y-59652380D01*
X32899047Y-59652380D01*
X32994285Y-59700000D01*
X33089523Y-59795238D01*
X33137142Y-59985714D01*
X33137142Y-60319047D01*
X33089523Y-60509523D01*
X32994285Y-60604761D01*
X32899047Y-60652380D01*
X32708571Y-60652380D01*
X34089523Y-60652380D02*
X33518095Y-60652380D01*
X33803809Y-60652380D02*
X33803809Y-59652380D01*
X33708571Y-59795238D01*
X33613333Y-59890476D01*
X33518095Y-59938095D01*
X35374761Y-36637619D02*
X35279523Y-36590000D01*
X35184285Y-36494761D01*
X35041428Y-36351904D01*
X34946190Y-36304285D01*
X34850952Y-36304285D01*
X34898571Y-36542380D02*
X34803333Y-36494761D01*
X34708095Y-36399523D01*
X34660476Y-36209047D01*
X34660476Y-35875714D01*
X34708095Y-35685238D01*
X34803333Y-35590000D01*
X34898571Y-35542380D01*
X35089047Y-35542380D01*
X35184285Y-35590000D01*
X35279523Y-35685238D01*
X35327142Y-35875714D01*
X35327142Y-36209047D01*
X35279523Y-36399523D01*
X35184285Y-36494761D01*
X35089047Y-36542380D01*
X34898571Y-36542380D01*
X35708095Y-35637619D02*
X35755714Y-35590000D01*
X35850952Y-35542380D01*
X36089047Y-35542380D01*
X36184285Y-35590000D01*
X36231904Y-35637619D01*
X36279523Y-35732857D01*
X36279523Y-35828095D01*
X36231904Y-35970952D01*
X35660476Y-36542380D01*
X36279523Y-36542380D01*
X35434761Y-32517619D02*
X35339523Y-32470000D01*
X35244285Y-32374761D01*
X35101428Y-32231904D01*
X35006190Y-32184285D01*
X34910952Y-32184285D01*
X34958571Y-32422380D02*
X34863333Y-32374761D01*
X34768095Y-32279523D01*
X34720476Y-32089047D01*
X34720476Y-31755714D01*
X34768095Y-31565238D01*
X34863333Y-31470000D01*
X34958571Y-31422380D01*
X35149047Y-31422380D01*
X35244285Y-31470000D01*
X35339523Y-31565238D01*
X35387142Y-31755714D01*
X35387142Y-32089047D01*
X35339523Y-32279523D01*
X35244285Y-32374761D01*
X35149047Y-32422380D01*
X34958571Y-32422380D01*
X35720476Y-31422380D02*
X36339523Y-31422380D01*
X36006190Y-31803333D01*
X36149047Y-31803333D01*
X36244285Y-31850952D01*
X36291904Y-31898571D01*
X36339523Y-31993809D01*
X36339523Y-32231904D01*
X36291904Y-32327142D01*
X36244285Y-32374761D01*
X36149047Y-32422380D01*
X35863333Y-32422380D01*
X35768095Y-32374761D01*
X35720476Y-32327142D01*
X35324761Y-27297619D02*
X35229523Y-27250000D01*
X35134285Y-27154761D01*
X34991428Y-27011904D01*
X34896190Y-26964285D01*
X34800952Y-26964285D01*
X34848571Y-27202380D02*
X34753333Y-27154761D01*
X34658095Y-27059523D01*
X34610476Y-26869047D01*
X34610476Y-26535714D01*
X34658095Y-26345238D01*
X34753333Y-26250000D01*
X34848571Y-26202380D01*
X35039047Y-26202380D01*
X35134285Y-26250000D01*
X35229523Y-26345238D01*
X35277142Y-26535714D01*
X35277142Y-26869047D01*
X35229523Y-27059523D01*
X35134285Y-27154761D01*
X35039047Y-27202380D01*
X34848571Y-27202380D01*
X36134285Y-26535714D02*
X36134285Y-27202380D01*
X35896190Y-26154761D02*
X35658095Y-26869047D01*
X36277142Y-26869047D01*
X21408095Y-44682380D02*
X21408095Y-45491904D01*
X21455714Y-45587142D01*
X21503333Y-45634761D01*
X21598571Y-45682380D01*
X21789047Y-45682380D01*
X21884285Y-45634761D01*
X21931904Y-45587142D01*
X21979523Y-45491904D01*
X21979523Y-44682380D01*
X22979523Y-45682380D02*
X22408095Y-45682380D01*
X22693809Y-45682380D02*
X22693809Y-44682380D01*
X22598571Y-44825238D01*
X22503333Y-44920476D01*
X22408095Y-44968095D01*
X26754763Y-104858397D02*
X26614190Y-105655622D01*
X26644548Y-105757682D01*
X26683175Y-105812847D01*
X26768697Y-105876280D01*
X26956280Y-105909356D01*
X27058340Y-105878998D01*
X27113504Y-105840372D01*
X27176938Y-105754849D01*
X27317510Y-104957624D01*
X27723033Y-105125836D02*
X27778197Y-105087209D01*
X27880257Y-105056852D01*
X28114735Y-105098197D01*
X28200258Y-105161630D01*
X28238884Y-105216795D01*
X28269242Y-105318855D01*
X28252704Y-105412646D01*
X28181002Y-105545064D01*
X27519027Y-106008584D01*
X28128670Y-106116080D01*
M02*
