G04 #@! TF.GenerationSoftware,KiCad,Pcbnew,(5.1.2-1)-1*
G04 #@! TF.CreationDate,2022-01-15T17:09:35-05:00*
G04 #@! TF.ProjectId,BF22 Clone,42463232-2043-46c6-9f6e-652e6b696361,rev?*
G04 #@! TF.SameCoordinates,Original*
G04 #@! TF.FileFunction,Soldermask,Bot*
G04 #@! TF.FilePolarity,Negative*
%FSLAX46Y46*%
G04 Gerber Fmt 4.6, Leading zero omitted, Abs format (unit mm)*
G04 Created by KiCad (PCBNEW (5.1.2-1)-1) date 2022-01-15 17:09:35*
%MOMM*%
%LPD*%
G04 APERTURE LIST*
%ADD10C,0.100000*%
G04 APERTURE END LIST*
D10*
G36*
X42525331Y-117268211D02*
G01*
X42853092Y-117403974D01*
X43148070Y-117601072D01*
X43398928Y-117851930D01*
X43596026Y-118146908D01*
X43731789Y-118474669D01*
X43801000Y-118822616D01*
X43801000Y-119177384D01*
X43731789Y-119525331D01*
X43596026Y-119853092D01*
X43398928Y-120148070D01*
X43148070Y-120398928D01*
X42853092Y-120596026D01*
X42525331Y-120731789D01*
X42177384Y-120801000D01*
X41822616Y-120801000D01*
X41474669Y-120731789D01*
X41146908Y-120596026D01*
X40851930Y-120398928D01*
X40601072Y-120148070D01*
X40403974Y-119853092D01*
X40268211Y-119525331D01*
X40199000Y-119177384D01*
X40199000Y-118822616D01*
X40268211Y-118474669D01*
X40403974Y-118146908D01*
X40601072Y-117851930D01*
X40851930Y-117601072D01*
X41146908Y-117403974D01*
X41474669Y-117268211D01*
X41822616Y-117199000D01*
X42177384Y-117199000D01*
X42525331Y-117268211D01*
X42525331Y-117268211D01*
G37*
G36*
X16525331Y-117268211D02*
G01*
X16853092Y-117403974D01*
X17148070Y-117601072D01*
X17398928Y-117851930D01*
X17596026Y-118146908D01*
X17731789Y-118474669D01*
X17801000Y-118822616D01*
X17801000Y-119177384D01*
X17731789Y-119525331D01*
X17596026Y-119853092D01*
X17398928Y-120148070D01*
X17148070Y-120398928D01*
X16853092Y-120596026D01*
X16525331Y-120731789D01*
X16177384Y-120801000D01*
X15822616Y-120801000D01*
X15474669Y-120731789D01*
X15146908Y-120596026D01*
X14851930Y-120398928D01*
X14601072Y-120148070D01*
X14403974Y-119853092D01*
X14268211Y-119525331D01*
X14199000Y-119177384D01*
X14199000Y-118822616D01*
X14268211Y-118474669D01*
X14403974Y-118146908D01*
X14601072Y-117851930D01*
X14851930Y-117601072D01*
X15146908Y-117403974D01*
X15474669Y-117268211D01*
X15822616Y-117199000D01*
X16177384Y-117199000D01*
X16525331Y-117268211D01*
X16525331Y-117268211D01*
G37*
G36*
X35056488Y-116174755D02*
G01*
X35130045Y-116182000D01*
X35271609Y-116224943D01*
X35402075Y-116294679D01*
X35431863Y-116319125D01*
X35516430Y-116388526D01*
X35585831Y-116473093D01*
X35610277Y-116502881D01*
X35680013Y-116633347D01*
X35722956Y-116774911D01*
X35737456Y-116922133D01*
X35722956Y-117069355D01*
X35680013Y-117210919D01*
X35610277Y-117341385D01*
X35585831Y-117371173D01*
X35516430Y-117455740D01*
X35431863Y-117525141D01*
X35402075Y-117549587D01*
X35271609Y-117619323D01*
X35130045Y-117662266D01*
X35056488Y-117669511D01*
X35019711Y-117673133D01*
X34945935Y-117673133D01*
X34909158Y-117669511D01*
X34835601Y-117662266D01*
X34694037Y-117619323D01*
X34563571Y-117549587D01*
X34533783Y-117525141D01*
X34449216Y-117455740D01*
X34379815Y-117371173D01*
X34355369Y-117341385D01*
X34285633Y-117210919D01*
X34242690Y-117069355D01*
X34228190Y-116922133D01*
X34242690Y-116774911D01*
X34285633Y-116633347D01*
X34355369Y-116502881D01*
X34379815Y-116473093D01*
X34449216Y-116388526D01*
X34533783Y-116319125D01*
X34563571Y-116294679D01*
X34694037Y-116224943D01*
X34835601Y-116182000D01*
X34909158Y-116174755D01*
X34945935Y-116171133D01*
X35019711Y-116171133D01*
X35056488Y-116174755D01*
X35056488Y-116174755D01*
G37*
G36*
X30199059Y-115317860D02*
G01*
X30335732Y-115374472D01*
X30458735Y-115456660D01*
X30563340Y-115561265D01*
X30588604Y-115599075D01*
X30645529Y-115684270D01*
X30702140Y-115820941D01*
X30731000Y-115966032D01*
X30731000Y-116113968D01*
X30702140Y-116259059D01*
X30648513Y-116388527D01*
X30645528Y-116395732D01*
X30563340Y-116518735D01*
X30458735Y-116623340D01*
X30335732Y-116705528D01*
X30335731Y-116705529D01*
X30335730Y-116705529D01*
X30199059Y-116762140D01*
X30053968Y-116791000D01*
X29906032Y-116791000D01*
X29760941Y-116762140D01*
X29624270Y-116705529D01*
X29624269Y-116705529D01*
X29624268Y-116705528D01*
X29501265Y-116623340D01*
X29396660Y-116518735D01*
X29314472Y-116395732D01*
X29311488Y-116388527D01*
X29257860Y-116259059D01*
X29229000Y-116113968D01*
X29229000Y-115966032D01*
X29257860Y-115820941D01*
X29314471Y-115684270D01*
X29371396Y-115599075D01*
X29396660Y-115561265D01*
X29501265Y-115456660D01*
X29624268Y-115374472D01*
X29760941Y-115317860D01*
X29906032Y-115289000D01*
X30053968Y-115289000D01*
X30199059Y-115317860D01*
X30199059Y-115317860D01*
G37*
G36*
X23091345Y-114214706D02*
G01*
X23129688Y-114222768D01*
X23165726Y-114238158D01*
X23203165Y-114263769D01*
X23246333Y-114299991D01*
X23246337Y-114299994D01*
X23649276Y-114638100D01*
X23649280Y-114638104D01*
X23692450Y-114674328D01*
X23724171Y-114706749D01*
X23745584Y-114739565D01*
X23760184Y-114775929D01*
X23767409Y-114814443D01*
X23766981Y-114853632D01*
X23758918Y-114891979D01*
X23743531Y-114928010D01*
X23717918Y-114965452D01*
X23243080Y-115531342D01*
X23210662Y-115563061D01*
X23177843Y-115584475D01*
X23141480Y-115599075D01*
X23102966Y-115606300D01*
X23063777Y-115605872D01*
X23025434Y-115597810D01*
X22989396Y-115582420D01*
X22951957Y-115556809D01*
X22908789Y-115520587D01*
X22908785Y-115520584D01*
X22505846Y-115182478D01*
X22505842Y-115182474D01*
X22462672Y-115146250D01*
X22430951Y-115113829D01*
X22409538Y-115081013D01*
X22394938Y-115044649D01*
X22387713Y-115006135D01*
X22388141Y-114966946D01*
X22396204Y-114928599D01*
X22411591Y-114892568D01*
X22437204Y-114855126D01*
X22912042Y-114289236D01*
X22944460Y-114257517D01*
X22977279Y-114236103D01*
X23013642Y-114221503D01*
X23052156Y-114214278D01*
X23091345Y-114214706D01*
X23091345Y-114214706D01*
G37*
G36*
X24216223Y-112874128D02*
G01*
X24254566Y-112882190D01*
X24290604Y-112897580D01*
X24328043Y-112923191D01*
X24371211Y-112959413D01*
X24371215Y-112959416D01*
X24774154Y-113297522D01*
X24774158Y-113297526D01*
X24817328Y-113333750D01*
X24849049Y-113366171D01*
X24870462Y-113398987D01*
X24885062Y-113435351D01*
X24892287Y-113473865D01*
X24891859Y-113513054D01*
X24883796Y-113551401D01*
X24868409Y-113587432D01*
X24842796Y-113624874D01*
X24367958Y-114190764D01*
X24335540Y-114222483D01*
X24302721Y-114243897D01*
X24266358Y-114258497D01*
X24227844Y-114265722D01*
X24188655Y-114265294D01*
X24150312Y-114257232D01*
X24114274Y-114241842D01*
X24076835Y-114216231D01*
X24033667Y-114180009D01*
X24033663Y-114180006D01*
X23630724Y-113841900D01*
X23630720Y-113841896D01*
X23587550Y-113805672D01*
X23555829Y-113773251D01*
X23534416Y-113740435D01*
X23519816Y-113704071D01*
X23512591Y-113665557D01*
X23513019Y-113626368D01*
X23521082Y-113588021D01*
X23536469Y-113551990D01*
X23562082Y-113514548D01*
X24036920Y-112948658D01*
X24069338Y-112916939D01*
X24102157Y-112895525D01*
X24138520Y-112880925D01*
X24177034Y-112873700D01*
X24216223Y-112874128D01*
X24216223Y-112874128D01*
G37*
G36*
X30127013Y-112416030D02*
G01*
X30287432Y-112464693D01*
X30420096Y-112535603D01*
X30435268Y-112543713D01*
X30564849Y-112650058D01*
X30671194Y-112779639D01*
X30671195Y-112779641D01*
X30750214Y-112927475D01*
X30798877Y-113087894D01*
X30815307Y-113254717D01*
X30798877Y-113421540D01*
X30750214Y-113581959D01*
X30706708Y-113663352D01*
X30671194Y-113729795D01*
X30564849Y-113859376D01*
X30435268Y-113965721D01*
X30435266Y-113965722D01*
X30287432Y-114044741D01*
X30127013Y-114093404D01*
X30001994Y-114105717D01*
X29918386Y-114105717D01*
X29793367Y-114093404D01*
X29632948Y-114044741D01*
X29485114Y-113965722D01*
X29485112Y-113965721D01*
X29355531Y-113859376D01*
X29249186Y-113729795D01*
X29213672Y-113663352D01*
X29170166Y-113581959D01*
X29121503Y-113421540D01*
X29105073Y-113254717D01*
X29121503Y-113087894D01*
X29170166Y-112927475D01*
X29249185Y-112779641D01*
X29249186Y-112779639D01*
X29355531Y-112650058D01*
X29485112Y-112543713D01*
X29500284Y-112535603D01*
X29632948Y-112464693D01*
X29793367Y-112416030D01*
X29918386Y-112403717D01*
X30001994Y-112403717D01*
X30127013Y-112416030D01*
X30127013Y-112416030D01*
G37*
G36*
X22622778Y-111092831D02*
G01*
X22783197Y-111141494D01*
X22915861Y-111212404D01*
X22931033Y-111220514D01*
X23060614Y-111326859D01*
X23166959Y-111456440D01*
X23166960Y-111456442D01*
X23245979Y-111604276D01*
X23294642Y-111764695D01*
X23311072Y-111931518D01*
X23294642Y-112098341D01*
X23245979Y-112258760D01*
X23175069Y-112391424D01*
X23166959Y-112406596D01*
X23060614Y-112536177D01*
X22931033Y-112642522D01*
X22931031Y-112642523D01*
X22783197Y-112721542D01*
X22622778Y-112770205D01*
X22497759Y-112782518D01*
X22414151Y-112782518D01*
X22289132Y-112770205D01*
X22128713Y-112721542D01*
X21980879Y-112642523D01*
X21980877Y-112642522D01*
X21851296Y-112536177D01*
X21744951Y-112406596D01*
X21736841Y-112391424D01*
X21665931Y-112258760D01*
X21617268Y-112098341D01*
X21600838Y-111931518D01*
X21617268Y-111764695D01*
X21665931Y-111604276D01*
X21744950Y-111456442D01*
X21744951Y-111456440D01*
X21851296Y-111326859D01*
X21980877Y-111220514D01*
X21996049Y-111212404D01*
X22128713Y-111141494D01*
X22289132Y-111092831D01*
X22414151Y-111080518D01*
X22497759Y-111080518D01*
X22622778Y-111092831D01*
X22622778Y-111092831D01*
G37*
G36*
X30568079Y-109914618D02*
G01*
X30728498Y-109963281D01*
X30861162Y-110034191D01*
X30876334Y-110042301D01*
X31005915Y-110148646D01*
X31112260Y-110278227D01*
X31112261Y-110278229D01*
X31191280Y-110426063D01*
X31239943Y-110586482D01*
X31256373Y-110753305D01*
X31239943Y-110920128D01*
X31191280Y-111080547D01*
X31158703Y-111141494D01*
X31112260Y-111228383D01*
X31005915Y-111357964D01*
X30876334Y-111464309D01*
X30876332Y-111464310D01*
X30728498Y-111543329D01*
X30568079Y-111591992D01*
X30443060Y-111604305D01*
X30359452Y-111604305D01*
X30234433Y-111591992D01*
X30074014Y-111543329D01*
X29926180Y-111464310D01*
X29926178Y-111464309D01*
X29796597Y-111357964D01*
X29690252Y-111228383D01*
X29643809Y-111141494D01*
X29611232Y-111080547D01*
X29562569Y-110920128D01*
X29546139Y-110753305D01*
X29562569Y-110586482D01*
X29611232Y-110426063D01*
X29690251Y-110278229D01*
X29690252Y-110278227D01*
X29796597Y-110148646D01*
X29926178Y-110042301D01*
X29941350Y-110034191D01*
X30074014Y-109963281D01*
X30234433Y-109914618D01*
X30359452Y-109902305D01*
X30443060Y-109902305D01*
X30568079Y-109914618D01*
X30568079Y-109914618D01*
G37*
G36*
X23063844Y-108591419D02*
G01*
X23224263Y-108640082D01*
X23356927Y-108710992D01*
X23372099Y-108719102D01*
X23501680Y-108825447D01*
X23608025Y-108955028D01*
X23608026Y-108955030D01*
X23687045Y-109102864D01*
X23735708Y-109263283D01*
X23752138Y-109430106D01*
X23735708Y-109596929D01*
X23687045Y-109757348D01*
X23616135Y-109890012D01*
X23608025Y-109905184D01*
X23501680Y-110034765D01*
X23372099Y-110141110D01*
X23372097Y-110141111D01*
X23224263Y-110220130D01*
X23063844Y-110268793D01*
X22938825Y-110281106D01*
X22855217Y-110281106D01*
X22730198Y-110268793D01*
X22569779Y-110220130D01*
X22421945Y-110141111D01*
X22421943Y-110141110D01*
X22292362Y-110034765D01*
X22186017Y-109905184D01*
X22177907Y-109890012D01*
X22106997Y-109757348D01*
X22058334Y-109596929D01*
X22041904Y-109430106D01*
X22058334Y-109263283D01*
X22106997Y-109102864D01*
X22186016Y-108955030D01*
X22186017Y-108955028D01*
X22292362Y-108825447D01*
X22421943Y-108719102D01*
X22437115Y-108710992D01*
X22569779Y-108640082D01*
X22730198Y-108591419D01*
X22855217Y-108579106D01*
X22938825Y-108579106D01*
X23063844Y-108591419D01*
X23063844Y-108591419D01*
G37*
G36*
X31009146Y-107413207D02*
G01*
X31169565Y-107461870D01*
X31302229Y-107532780D01*
X31317401Y-107540890D01*
X31446982Y-107647235D01*
X31553327Y-107776816D01*
X31553328Y-107776818D01*
X31632347Y-107924652D01*
X31681010Y-108085071D01*
X31697440Y-108251894D01*
X31681010Y-108418717D01*
X31632347Y-108579136D01*
X31561437Y-108711800D01*
X31553327Y-108726972D01*
X31446982Y-108856553D01*
X31317401Y-108962898D01*
X31317399Y-108962899D01*
X31169565Y-109041918D01*
X31009146Y-109090581D01*
X30884127Y-109102894D01*
X30800519Y-109102894D01*
X30675500Y-109090581D01*
X30515081Y-109041918D01*
X30367247Y-108962899D01*
X30367245Y-108962898D01*
X30237664Y-108856553D01*
X30131319Y-108726972D01*
X30123209Y-108711800D01*
X30052299Y-108579136D01*
X30003636Y-108418717D01*
X29987206Y-108251894D01*
X30003636Y-108085071D01*
X30052299Y-107924652D01*
X30131318Y-107776818D01*
X30131319Y-107776816D01*
X30237664Y-107647235D01*
X30367245Y-107540890D01*
X30382417Y-107532780D01*
X30515081Y-107461870D01*
X30675500Y-107413207D01*
X30800519Y-107400894D01*
X30884127Y-107400894D01*
X31009146Y-107413207D01*
X31009146Y-107413207D01*
G37*
G36*
X23504911Y-106090008D02*
G01*
X23665330Y-106138671D01*
X23797994Y-106209581D01*
X23813166Y-106217691D01*
X23942747Y-106324036D01*
X24049092Y-106453617D01*
X24049093Y-106453619D01*
X24128112Y-106601453D01*
X24176775Y-106761872D01*
X24193205Y-106928695D01*
X24176775Y-107095518D01*
X24128112Y-107255937D01*
X24057202Y-107388601D01*
X24049092Y-107403773D01*
X23942747Y-107533354D01*
X23813166Y-107639699D01*
X23813164Y-107639700D01*
X23665330Y-107718719D01*
X23504911Y-107767382D01*
X23379892Y-107779695D01*
X23296284Y-107779695D01*
X23171265Y-107767382D01*
X23010846Y-107718719D01*
X22863012Y-107639700D01*
X22863010Y-107639699D01*
X22733429Y-107533354D01*
X22627084Y-107403773D01*
X22618974Y-107388601D01*
X22548064Y-107255937D01*
X22499401Y-107095518D01*
X22482971Y-106928695D01*
X22499401Y-106761872D01*
X22548064Y-106601453D01*
X22627083Y-106453619D01*
X22627084Y-106453617D01*
X22733429Y-106324036D01*
X22863010Y-106217691D01*
X22878182Y-106209581D01*
X23010846Y-106138671D01*
X23171265Y-106090008D01*
X23296284Y-106077695D01*
X23379892Y-106077695D01*
X23504911Y-106090008D01*
X23504911Y-106090008D01*
G37*
G36*
X31450212Y-104911795D02*
G01*
X31610631Y-104960458D01*
X31733949Y-105026373D01*
X31758467Y-105039478D01*
X31888048Y-105145823D01*
X31994393Y-105275404D01*
X31994394Y-105275406D01*
X32073413Y-105423240D01*
X32122076Y-105583659D01*
X32138506Y-105750482D01*
X32122076Y-105917305D01*
X32073413Y-106077724D01*
X32040836Y-106138671D01*
X31994393Y-106225560D01*
X31888048Y-106355141D01*
X31758467Y-106461486D01*
X31758465Y-106461487D01*
X31610631Y-106540506D01*
X31450212Y-106589169D01*
X31325193Y-106601482D01*
X31241585Y-106601482D01*
X31116566Y-106589169D01*
X30956147Y-106540506D01*
X30808313Y-106461487D01*
X30808311Y-106461486D01*
X30678730Y-106355141D01*
X30572385Y-106225560D01*
X30525942Y-106138671D01*
X30493365Y-106077724D01*
X30444702Y-105917305D01*
X30428272Y-105750482D01*
X30444702Y-105583659D01*
X30493365Y-105423240D01*
X30572384Y-105275406D01*
X30572385Y-105275404D01*
X30678730Y-105145823D01*
X30808311Y-105039478D01*
X30832829Y-105026373D01*
X30956147Y-104960458D01*
X31116566Y-104911795D01*
X31241585Y-104899482D01*
X31325193Y-104899482D01*
X31450212Y-104911795D01*
X31450212Y-104911795D01*
G37*
G36*
X24765000Y-103736986D02*
G01*
X24469451Y-105413129D01*
X22793308Y-105117580D01*
X23088857Y-103441437D01*
X24765000Y-103736986D01*
X24765000Y-103736986D01*
G37*
G36*
X34526805Y-103900802D02*
G01*
X34563777Y-103913804D01*
X34597495Y-103933764D01*
X34626674Y-103959921D01*
X34650188Y-103991267D01*
X34669804Y-104032163D01*
X34888261Y-104632369D01*
X34899520Y-104676300D01*
X34901656Y-104715429D01*
X34896118Y-104754219D01*
X34883116Y-104791191D01*
X34863156Y-104824909D01*
X34837001Y-104854085D01*
X34805649Y-104877603D01*
X34764761Y-104897216D01*
X34070581Y-105149878D01*
X34026653Y-105161136D01*
X33987522Y-105163272D01*
X33948733Y-105157734D01*
X33911761Y-105144732D01*
X33878043Y-105124772D01*
X33848864Y-105098615D01*
X33825350Y-105067269D01*
X33805734Y-105026373D01*
X33587277Y-104426167D01*
X33576018Y-104382236D01*
X33573882Y-104343107D01*
X33579420Y-104304317D01*
X33592422Y-104267345D01*
X33612382Y-104233627D01*
X33638537Y-104204451D01*
X33669889Y-104180933D01*
X33710777Y-104161320D01*
X34404957Y-103908658D01*
X34448885Y-103897400D01*
X34488016Y-103895264D01*
X34526805Y-103900802D01*
X34526805Y-103900802D01*
G37*
G36*
X36171267Y-103302266D02*
G01*
X36208239Y-103315268D01*
X36241957Y-103335228D01*
X36271136Y-103361385D01*
X36294650Y-103392731D01*
X36314266Y-103433627D01*
X36532723Y-104033833D01*
X36543982Y-104077764D01*
X36546118Y-104116893D01*
X36540580Y-104155683D01*
X36527578Y-104192655D01*
X36507618Y-104226373D01*
X36481463Y-104255549D01*
X36450111Y-104279067D01*
X36409223Y-104298680D01*
X35715043Y-104551342D01*
X35671115Y-104562600D01*
X35631984Y-104564736D01*
X35593195Y-104559198D01*
X35556223Y-104546196D01*
X35522505Y-104526236D01*
X35493326Y-104500079D01*
X35469812Y-104468733D01*
X35450196Y-104427837D01*
X35231739Y-103827631D01*
X35220480Y-103783700D01*
X35218344Y-103744571D01*
X35223882Y-103705781D01*
X35236884Y-103668809D01*
X35256844Y-103635091D01*
X35282999Y-103605915D01*
X35314351Y-103582397D01*
X35355239Y-103562784D01*
X36049419Y-103310122D01*
X36093347Y-103298864D01*
X36132478Y-103296728D01*
X36171267Y-103302266D01*
X36171267Y-103302266D01*
G37*
G36*
X34379393Y-97949304D02*
G01*
X34616101Y-98047352D01*
X34616103Y-98047353D01*
X34829135Y-98189696D01*
X35010304Y-98370865D01*
X35152647Y-98583897D01*
X35152648Y-98583899D01*
X35250696Y-98820607D01*
X35300680Y-99071893D01*
X35300680Y-99328107D01*
X35250696Y-99579393D01*
X35152648Y-99816101D01*
X35152647Y-99816103D01*
X35010304Y-100029135D01*
X34829135Y-100210304D01*
X34616103Y-100352647D01*
X34616102Y-100352648D01*
X34616101Y-100352648D01*
X34379393Y-100450696D01*
X34128107Y-100500680D01*
X33871893Y-100500680D01*
X33620607Y-100450696D01*
X33383899Y-100352648D01*
X33383898Y-100352648D01*
X33383897Y-100352647D01*
X33170865Y-100210304D01*
X32989696Y-100029135D01*
X32847353Y-99816103D01*
X32847352Y-99816101D01*
X32749304Y-99579393D01*
X32699320Y-99328107D01*
X32699320Y-99071893D01*
X32749304Y-98820607D01*
X32847352Y-98583899D01*
X32847353Y-98583897D01*
X32989696Y-98370865D01*
X33170865Y-98189696D01*
X33383897Y-98047353D01*
X33383899Y-98047352D01*
X33620607Y-97949304D01*
X33871893Y-97899320D01*
X34128107Y-97899320D01*
X34379393Y-97949304D01*
X34379393Y-97949304D01*
G37*
G36*
X21229393Y-93609304D02*
G01*
X21466101Y-93707352D01*
X21466103Y-93707353D01*
X21679135Y-93849696D01*
X21860304Y-94030865D01*
X21983013Y-94214513D01*
X22002648Y-94243899D01*
X22100696Y-94480607D01*
X22150680Y-94731893D01*
X22150680Y-94988107D01*
X22100696Y-95239393D01*
X22002648Y-95476101D01*
X22002647Y-95476103D01*
X21860304Y-95689135D01*
X21679135Y-95870304D01*
X21466103Y-96012647D01*
X21466102Y-96012648D01*
X21466101Y-96012648D01*
X21229393Y-96110696D01*
X20978107Y-96160680D01*
X20721893Y-96160680D01*
X20470607Y-96110696D01*
X20233899Y-96012648D01*
X20233898Y-96012648D01*
X20233897Y-96012647D01*
X20020865Y-95870304D01*
X19839696Y-95689135D01*
X19697353Y-95476103D01*
X19697352Y-95476101D01*
X19599304Y-95239393D01*
X19549320Y-94988107D01*
X19549320Y-94731893D01*
X19599304Y-94480607D01*
X19697352Y-94243899D01*
X19716987Y-94214513D01*
X19839696Y-94030865D01*
X20020865Y-93849696D01*
X20233897Y-93707353D01*
X20233899Y-93707352D01*
X20470607Y-93609304D01*
X20721893Y-93559320D01*
X20978107Y-93559320D01*
X21229393Y-93609304D01*
X21229393Y-93609304D01*
G37*
G36*
X18340680Y-96160680D02*
G01*
X15739320Y-96160680D01*
X15739320Y-93559320D01*
X18340680Y-93559320D01*
X18340680Y-96160680D01*
X18340680Y-96160680D01*
G37*
G36*
X29712588Y-94214512D02*
G01*
X29873007Y-94263175D01*
X30005671Y-94334085D01*
X30020843Y-94342195D01*
X30150424Y-94448540D01*
X30256769Y-94578121D01*
X30256770Y-94578123D01*
X30335789Y-94725957D01*
X30384452Y-94886376D01*
X30400882Y-95053199D01*
X30384452Y-95220022D01*
X30335789Y-95380441D01*
X30264879Y-95513105D01*
X30256769Y-95528277D01*
X30150424Y-95657858D01*
X30020843Y-95764203D01*
X30020841Y-95764204D01*
X29873007Y-95843223D01*
X29712588Y-95891886D01*
X29587569Y-95904199D01*
X29503961Y-95904199D01*
X29378942Y-95891886D01*
X29218523Y-95843223D01*
X29070689Y-95764204D01*
X29070687Y-95764203D01*
X28941106Y-95657858D01*
X28834761Y-95528277D01*
X28826651Y-95513105D01*
X28755741Y-95380441D01*
X28707078Y-95220022D01*
X28690648Y-95053199D01*
X28707078Y-94886376D01*
X28755741Y-94725957D01*
X28834760Y-94578123D01*
X28834761Y-94578121D01*
X28941106Y-94448540D01*
X29070687Y-94342195D01*
X29085859Y-94334085D01*
X29218523Y-94263175D01*
X29378942Y-94214512D01*
X29503961Y-94202199D01*
X29587569Y-94202199D01*
X29712588Y-94214512D01*
X29712588Y-94214512D01*
G37*
G36*
X37298228Y-92911703D02*
G01*
X37453100Y-92975853D01*
X37592481Y-93068985D01*
X37711015Y-93187519D01*
X37804147Y-93326900D01*
X37868297Y-93481772D01*
X37901000Y-93646184D01*
X37901000Y-93813816D01*
X37868297Y-93978228D01*
X37804147Y-94133100D01*
X37711015Y-94272481D01*
X37592481Y-94391015D01*
X37453100Y-94484147D01*
X37298228Y-94548297D01*
X37133816Y-94581000D01*
X36966184Y-94581000D01*
X36801772Y-94548297D01*
X36646900Y-94484147D01*
X36507519Y-94391015D01*
X36388985Y-94272481D01*
X36295853Y-94133100D01*
X36231703Y-93978228D01*
X36199000Y-93813816D01*
X36199000Y-93646184D01*
X36231703Y-93481772D01*
X36295853Y-93326900D01*
X36388985Y-93187519D01*
X36507519Y-93068985D01*
X36646900Y-92975853D01*
X36801772Y-92911703D01*
X36966184Y-92879000D01*
X37133816Y-92879000D01*
X37298228Y-92911703D01*
X37298228Y-92911703D01*
G37*
G36*
X30223665Y-91422622D02*
G01*
X30297222Y-91429867D01*
X30438786Y-91472810D01*
X30569252Y-91542546D01*
X30599040Y-91566992D01*
X30683607Y-91636393D01*
X30753008Y-91720960D01*
X30777454Y-91750748D01*
X30847190Y-91881214D01*
X30890133Y-92022778D01*
X30904633Y-92170000D01*
X30890133Y-92317222D01*
X30847190Y-92458786D01*
X30777454Y-92589252D01*
X30753008Y-92619040D01*
X30683607Y-92703607D01*
X30599040Y-92773008D01*
X30569252Y-92797454D01*
X30438786Y-92867190D01*
X30297222Y-92910133D01*
X30223665Y-92917378D01*
X30186888Y-92921000D01*
X30113112Y-92921000D01*
X30076335Y-92917378D01*
X30002778Y-92910133D01*
X29861214Y-92867190D01*
X29730748Y-92797454D01*
X29700960Y-92773008D01*
X29616393Y-92703607D01*
X29546992Y-92619040D01*
X29522546Y-92589252D01*
X29452810Y-92458786D01*
X29409867Y-92317222D01*
X29395367Y-92170000D01*
X29409867Y-92022778D01*
X29452810Y-91881214D01*
X29522546Y-91750748D01*
X29546992Y-91720960D01*
X29616393Y-91636393D01*
X29700960Y-91566992D01*
X29730748Y-91542546D01*
X29861214Y-91472810D01*
X30002778Y-91429867D01*
X30076335Y-91422622D01*
X30113112Y-91419000D01*
X30186888Y-91419000D01*
X30223665Y-91422622D01*
X30223665Y-91422622D01*
G37*
G36*
X20489294Y-86578633D02*
G01*
X20661695Y-86630931D01*
X20820583Y-86715858D01*
X20959849Y-86830151D01*
X21074142Y-86969417D01*
X21159069Y-87128305D01*
X21211367Y-87300706D01*
X21229025Y-87480000D01*
X21211367Y-87659294D01*
X21159069Y-87831695D01*
X21074142Y-87990583D01*
X20959849Y-88129849D01*
X20820583Y-88244142D01*
X20661695Y-88329069D01*
X20489294Y-88381367D01*
X20354931Y-88394600D01*
X20265069Y-88394600D01*
X20130706Y-88381367D01*
X19958305Y-88329069D01*
X19799417Y-88244142D01*
X19660151Y-88129849D01*
X19545858Y-87990583D01*
X19460931Y-87831695D01*
X19408633Y-87659294D01*
X19390975Y-87480000D01*
X19408633Y-87300706D01*
X19460931Y-87128305D01*
X19545858Y-86969417D01*
X19660151Y-86830151D01*
X19799417Y-86715858D01*
X19958305Y-86630931D01*
X20130706Y-86578633D01*
X20265069Y-86565400D01*
X20354931Y-86565400D01*
X20489294Y-86578633D01*
X20489294Y-86578633D01*
G37*
G36*
X17949294Y-86578633D02*
G01*
X18121695Y-86630931D01*
X18280583Y-86715858D01*
X18419849Y-86830151D01*
X18534142Y-86969417D01*
X18619069Y-87128305D01*
X18671367Y-87300706D01*
X18689025Y-87480000D01*
X18671367Y-87659294D01*
X18619069Y-87831695D01*
X18534142Y-87990583D01*
X18419849Y-88129849D01*
X18280583Y-88244142D01*
X18121695Y-88329069D01*
X17949294Y-88381367D01*
X17814931Y-88394600D01*
X17725069Y-88394600D01*
X17590706Y-88381367D01*
X17418305Y-88329069D01*
X17259417Y-88244142D01*
X17120151Y-88129849D01*
X17005858Y-87990583D01*
X16920931Y-87831695D01*
X16868633Y-87659294D01*
X16850975Y-87480000D01*
X16868633Y-87300706D01*
X16920931Y-87128305D01*
X17005858Y-86969417D01*
X17120151Y-86830151D01*
X17259417Y-86715858D01*
X17418305Y-86630931D01*
X17590706Y-86578633D01*
X17725069Y-86565400D01*
X17814931Y-86565400D01*
X17949294Y-86578633D01*
X17949294Y-86578633D01*
G37*
G36*
X30369059Y-86367860D02*
G01*
X30432814Y-86394268D01*
X30505732Y-86424472D01*
X30628735Y-86506660D01*
X30733340Y-86611265D01*
X30803227Y-86715859D01*
X30815529Y-86734270D01*
X30872140Y-86870941D01*
X30891657Y-86969059D01*
X30901000Y-87016033D01*
X30901000Y-87163967D01*
X30872140Y-87309059D01*
X30815528Y-87445732D01*
X30733340Y-87568735D01*
X30628735Y-87673340D01*
X30505732Y-87755528D01*
X30505731Y-87755529D01*
X30505730Y-87755529D01*
X30369059Y-87812140D01*
X30223968Y-87841000D01*
X30076032Y-87841000D01*
X29930941Y-87812140D01*
X29794270Y-87755529D01*
X29794269Y-87755529D01*
X29794268Y-87755528D01*
X29671265Y-87673340D01*
X29566660Y-87568735D01*
X29484472Y-87445732D01*
X29427860Y-87309059D01*
X29399000Y-87163967D01*
X29399000Y-87016033D01*
X29408344Y-86969059D01*
X29427860Y-86870941D01*
X29484471Y-86734270D01*
X29496773Y-86715859D01*
X29566660Y-86611265D01*
X29671265Y-86506660D01*
X29794268Y-86424472D01*
X29867187Y-86394268D01*
X29930941Y-86367860D01*
X30076032Y-86339000D01*
X30223968Y-86339000D01*
X30369059Y-86367860D01*
X30369059Y-86367860D01*
G37*
G36*
X39729059Y-86027860D02*
G01*
X39865732Y-86084472D01*
X39988735Y-86166660D01*
X40093340Y-86271265D01*
X40175528Y-86394268D01*
X40175529Y-86394270D01*
X40232140Y-86530941D01*
X40261000Y-86676032D01*
X40261000Y-86823968D01*
X40232140Y-86969059D01*
X40175528Y-87105732D01*
X40093340Y-87228735D01*
X39988735Y-87333340D01*
X39865732Y-87415528D01*
X39865731Y-87415529D01*
X39865730Y-87415529D01*
X39729059Y-87472140D01*
X39583968Y-87501000D01*
X39436032Y-87501000D01*
X39290941Y-87472140D01*
X39154270Y-87415529D01*
X39154269Y-87415529D01*
X39154268Y-87415528D01*
X39031265Y-87333340D01*
X38926660Y-87228735D01*
X38844472Y-87105732D01*
X38787860Y-86969059D01*
X38759000Y-86823968D01*
X38759000Y-86676032D01*
X38787860Y-86530941D01*
X38844471Y-86394270D01*
X38844472Y-86394268D01*
X38926660Y-86271265D01*
X39031265Y-86166660D01*
X39154268Y-86084472D01*
X39290941Y-86027860D01*
X39436032Y-85999000D01*
X39583968Y-85999000D01*
X39729059Y-86027860D01*
X39729059Y-86027860D01*
G37*
G36*
X17949294Y-84038633D02*
G01*
X18121695Y-84090931D01*
X18280583Y-84175858D01*
X18419849Y-84290151D01*
X18534142Y-84429417D01*
X18619069Y-84588305D01*
X18671367Y-84760706D01*
X18689025Y-84940000D01*
X18671367Y-85119294D01*
X18619069Y-85291695D01*
X18534142Y-85450583D01*
X18419849Y-85589849D01*
X18280583Y-85704142D01*
X18121695Y-85789069D01*
X17949294Y-85841367D01*
X17814931Y-85854600D01*
X17725069Y-85854600D01*
X17590706Y-85841367D01*
X17418305Y-85789069D01*
X17259417Y-85704142D01*
X17120151Y-85589849D01*
X17005858Y-85450583D01*
X16920931Y-85291695D01*
X16868633Y-85119294D01*
X16850975Y-84940000D01*
X16868633Y-84760706D01*
X16920931Y-84588305D01*
X17005858Y-84429417D01*
X17120151Y-84290151D01*
X17259417Y-84175858D01*
X17418305Y-84090931D01*
X17590706Y-84038633D01*
X17725069Y-84025400D01*
X17814931Y-84025400D01*
X17949294Y-84038633D01*
X17949294Y-84038633D01*
G37*
G36*
X20489294Y-84038633D02*
G01*
X20661695Y-84090931D01*
X20820583Y-84175858D01*
X20959849Y-84290151D01*
X21074142Y-84429417D01*
X21159069Y-84588305D01*
X21211367Y-84760706D01*
X21229025Y-84940000D01*
X21211367Y-85119294D01*
X21159069Y-85291695D01*
X21074142Y-85450583D01*
X20959849Y-85589849D01*
X20820583Y-85704142D01*
X20661695Y-85789069D01*
X20489294Y-85841367D01*
X20354931Y-85854600D01*
X20265069Y-85854600D01*
X20130706Y-85841367D01*
X19958305Y-85789069D01*
X19799417Y-85704142D01*
X19660151Y-85589849D01*
X19545858Y-85450583D01*
X19460931Y-85291695D01*
X19408633Y-85119294D01*
X19390975Y-84940000D01*
X19408633Y-84760706D01*
X19460931Y-84588305D01*
X19545858Y-84429417D01*
X19660151Y-84290151D01*
X19799417Y-84175858D01*
X19958305Y-84090931D01*
X20130706Y-84038633D01*
X20265069Y-84025400D01*
X20354931Y-84025400D01*
X20489294Y-84038633D01*
X20489294Y-84038633D01*
G37*
G36*
X27000680Y-85670680D02*
G01*
X24399320Y-85670680D01*
X24399320Y-83069320D01*
X27000680Y-83069320D01*
X27000680Y-85670680D01*
X27000680Y-85670680D01*
G37*
G36*
X20489294Y-81498633D02*
G01*
X20661695Y-81550931D01*
X20820583Y-81635858D01*
X20959849Y-81750151D01*
X21074142Y-81889417D01*
X21159069Y-82048305D01*
X21211367Y-82220706D01*
X21229025Y-82400000D01*
X21211367Y-82579294D01*
X21159069Y-82751695D01*
X21074142Y-82910583D01*
X20959849Y-83049849D01*
X20820583Y-83164142D01*
X20661695Y-83249069D01*
X20489294Y-83301367D01*
X20354931Y-83314600D01*
X20265069Y-83314600D01*
X20130706Y-83301367D01*
X19958305Y-83249069D01*
X19799417Y-83164142D01*
X19660151Y-83049849D01*
X19545858Y-82910583D01*
X19460931Y-82751695D01*
X19408633Y-82579294D01*
X19390975Y-82400000D01*
X19408633Y-82220706D01*
X19460931Y-82048305D01*
X19545858Y-81889417D01*
X19660151Y-81750151D01*
X19799417Y-81635858D01*
X19958305Y-81550931D01*
X20130706Y-81498633D01*
X20265069Y-81485400D01*
X20354931Y-81485400D01*
X20489294Y-81498633D01*
X20489294Y-81498633D01*
G37*
G36*
X17949294Y-81498633D02*
G01*
X18121695Y-81550931D01*
X18280583Y-81635858D01*
X18419849Y-81750151D01*
X18534142Y-81889417D01*
X18619069Y-82048305D01*
X18671367Y-82220706D01*
X18689025Y-82400000D01*
X18671367Y-82579294D01*
X18619069Y-82751695D01*
X18534142Y-82910583D01*
X18419849Y-83049849D01*
X18280583Y-83164142D01*
X18121695Y-83249069D01*
X17949294Y-83301367D01*
X17814931Y-83314600D01*
X17725069Y-83314600D01*
X17590706Y-83301367D01*
X17418305Y-83249069D01*
X17259417Y-83164142D01*
X17120151Y-83049849D01*
X17005858Y-82910583D01*
X16920931Y-82751695D01*
X16868633Y-82579294D01*
X16850975Y-82400000D01*
X16868633Y-82220706D01*
X16920931Y-82048305D01*
X17005858Y-81889417D01*
X17120151Y-81750151D01*
X17259417Y-81635858D01*
X17418305Y-81550931D01*
X17590706Y-81498633D01*
X17725069Y-81485400D01*
X17814931Y-81485400D01*
X17949294Y-81498633D01*
X17949294Y-81498633D01*
G37*
G36*
X37043665Y-81603213D02*
G01*
X37117222Y-81610458D01*
X37258786Y-81653401D01*
X37389252Y-81723137D01*
X37419040Y-81747583D01*
X37503607Y-81816984D01*
X37573008Y-81901551D01*
X37597454Y-81931339D01*
X37667190Y-82061805D01*
X37710133Y-82203369D01*
X37724633Y-82350591D01*
X37710133Y-82497813D01*
X37667190Y-82639377D01*
X37597454Y-82769843D01*
X37573008Y-82799631D01*
X37503607Y-82884198D01*
X37419040Y-82953599D01*
X37389252Y-82978045D01*
X37258786Y-83047781D01*
X37117222Y-83090724D01*
X37043665Y-83097969D01*
X37006888Y-83101591D01*
X36933112Y-83101591D01*
X36896335Y-83097969D01*
X36822778Y-83090724D01*
X36681214Y-83047781D01*
X36550748Y-82978045D01*
X36520960Y-82953599D01*
X36436393Y-82884198D01*
X36366992Y-82799631D01*
X36342546Y-82769843D01*
X36272810Y-82639377D01*
X36229867Y-82497813D01*
X36215367Y-82350591D01*
X36229867Y-82203369D01*
X36272810Y-82061805D01*
X36342546Y-81931339D01*
X36366992Y-81901551D01*
X36436393Y-81816984D01*
X36520960Y-81747583D01*
X36550748Y-81723137D01*
X36681214Y-81653401D01*
X36822778Y-81610458D01*
X36896335Y-81603213D01*
X36933112Y-81599591D01*
X37006888Y-81599591D01*
X37043665Y-81603213D01*
X37043665Y-81603213D01*
G37*
G36*
X26079393Y-79309304D02*
G01*
X26316101Y-79407352D01*
X26316103Y-79407353D01*
X26529135Y-79549696D01*
X26710304Y-79730865D01*
X26737218Y-79771145D01*
X26852648Y-79943899D01*
X26950696Y-80180607D01*
X27000680Y-80431893D01*
X27000680Y-80688107D01*
X26950696Y-80939393D01*
X26852648Y-81176101D01*
X26852647Y-81176103D01*
X26710304Y-81389135D01*
X26529135Y-81570304D01*
X26316103Y-81712647D01*
X26316102Y-81712648D01*
X26316101Y-81712648D01*
X26079393Y-81810696D01*
X25828107Y-81860680D01*
X25571893Y-81860680D01*
X25320607Y-81810696D01*
X25083899Y-81712648D01*
X25083898Y-81712648D01*
X25083897Y-81712647D01*
X24870865Y-81570304D01*
X24689696Y-81389135D01*
X24547353Y-81176103D01*
X24547352Y-81176101D01*
X24449304Y-80939393D01*
X24399320Y-80688107D01*
X24399320Y-80431893D01*
X24449304Y-80180607D01*
X24547352Y-79943899D01*
X24662782Y-79771145D01*
X24689696Y-79730865D01*
X24870865Y-79549696D01*
X25083897Y-79407353D01*
X25083899Y-79407352D01*
X25320607Y-79309304D01*
X25571893Y-79259320D01*
X25828107Y-79259320D01*
X26079393Y-79309304D01*
X26079393Y-79309304D01*
G37*
G36*
X31719974Y-80954917D02*
G01*
X30332602Y-81755917D01*
X29531602Y-80368545D01*
X30918974Y-79567545D01*
X31719974Y-80954917D01*
X31719974Y-80954917D01*
G37*
G36*
X17949294Y-78958633D02*
G01*
X18121695Y-79010931D01*
X18280583Y-79095858D01*
X18419849Y-79210151D01*
X18534142Y-79349417D01*
X18619069Y-79508305D01*
X18671367Y-79680706D01*
X18689025Y-79860000D01*
X18671367Y-80039294D01*
X18619069Y-80211695D01*
X18534142Y-80370583D01*
X18419849Y-80509849D01*
X18280583Y-80624142D01*
X18121695Y-80709069D01*
X17949294Y-80761367D01*
X17814931Y-80774600D01*
X17725069Y-80774600D01*
X17590706Y-80761367D01*
X17418305Y-80709069D01*
X17259417Y-80624142D01*
X17120151Y-80509849D01*
X17005858Y-80370583D01*
X16920931Y-80211695D01*
X16868633Y-80039294D01*
X16850975Y-79860000D01*
X16868633Y-79680706D01*
X16920931Y-79508305D01*
X17005858Y-79349417D01*
X17120151Y-79210151D01*
X17259417Y-79095858D01*
X17418305Y-79010931D01*
X17590706Y-78958633D01*
X17725069Y-78945400D01*
X17814931Y-78945400D01*
X17949294Y-78958633D01*
X17949294Y-78958633D01*
G37*
G36*
X20489294Y-78958633D02*
G01*
X20661695Y-79010931D01*
X20820583Y-79095858D01*
X20959849Y-79210151D01*
X21074142Y-79349417D01*
X21159069Y-79508305D01*
X21211367Y-79680706D01*
X21229025Y-79860000D01*
X21211367Y-80039294D01*
X21159069Y-80211695D01*
X21074142Y-80370583D01*
X20959849Y-80509849D01*
X20820583Y-80624142D01*
X20661695Y-80709069D01*
X20489294Y-80761367D01*
X20354931Y-80774600D01*
X20265069Y-80774600D01*
X20130706Y-80761367D01*
X19958305Y-80709069D01*
X19799417Y-80624142D01*
X19660151Y-80509849D01*
X19545858Y-80370583D01*
X19460931Y-80211695D01*
X19408633Y-80039294D01*
X19390975Y-79860000D01*
X19408633Y-79680706D01*
X19460931Y-79508305D01*
X19545858Y-79349417D01*
X19660151Y-79210151D01*
X19799417Y-79095858D01*
X19958305Y-79010931D01*
X20130706Y-78958633D01*
X20265069Y-78945400D01*
X20354931Y-78945400D01*
X20489294Y-78958633D01*
X20489294Y-78958633D01*
G37*
G36*
X33059135Y-78621512D02*
G01*
X33204907Y-78681893D01*
X33204909Y-78681894D01*
X33336101Y-78769553D01*
X33447671Y-78881123D01*
X33534405Y-79010931D01*
X33535331Y-79012317D01*
X33595712Y-79158089D01*
X33626493Y-79312838D01*
X33626493Y-79470624D01*
X33595712Y-79625373D01*
X33552015Y-79730866D01*
X33535330Y-79771147D01*
X33447671Y-79902339D01*
X33336101Y-80013909D01*
X33204909Y-80101568D01*
X33204908Y-80101569D01*
X33204907Y-80101569D01*
X33059135Y-80161950D01*
X32904386Y-80192731D01*
X32746600Y-80192731D01*
X32591851Y-80161950D01*
X32446079Y-80101569D01*
X32446078Y-80101569D01*
X32446077Y-80101568D01*
X32314885Y-80013909D01*
X32203315Y-79902339D01*
X32115656Y-79771147D01*
X32098971Y-79730866D01*
X32055274Y-79625373D01*
X32024493Y-79470624D01*
X32024493Y-79312838D01*
X32055274Y-79158089D01*
X32115655Y-79012317D01*
X32116581Y-79010931D01*
X32203315Y-78881123D01*
X32314885Y-78769553D01*
X32446077Y-78681894D01*
X32446079Y-78681893D01*
X32591851Y-78621512D01*
X32746600Y-78590731D01*
X32904386Y-78590731D01*
X33059135Y-78621512D01*
X33059135Y-78621512D01*
G37*
G36*
X35258839Y-77351512D02*
G01*
X35404611Y-77411893D01*
X35404613Y-77411894D01*
X35535805Y-77499553D01*
X35647375Y-77611123D01*
X35687848Y-77671696D01*
X35735035Y-77742317D01*
X35795416Y-77888089D01*
X35826197Y-78042838D01*
X35826197Y-78200624D01*
X35795416Y-78355373D01*
X35735035Y-78501145D01*
X35735034Y-78501147D01*
X35647375Y-78632339D01*
X35535805Y-78743909D01*
X35404613Y-78831568D01*
X35404612Y-78831569D01*
X35404611Y-78831569D01*
X35258839Y-78891950D01*
X35104090Y-78922731D01*
X34946304Y-78922731D01*
X34791555Y-78891950D01*
X34645783Y-78831569D01*
X34645782Y-78831569D01*
X34645781Y-78831568D01*
X34514589Y-78743909D01*
X34403019Y-78632339D01*
X34315360Y-78501147D01*
X34315359Y-78501145D01*
X34254978Y-78355373D01*
X34224197Y-78200624D01*
X34224197Y-78042838D01*
X34254978Y-77888089D01*
X34315359Y-77742317D01*
X34362546Y-77671696D01*
X34403019Y-77611123D01*
X34514589Y-77499553D01*
X34645781Y-77411894D01*
X34645783Y-77411893D01*
X34791555Y-77351512D01*
X34946304Y-77320731D01*
X35104090Y-77320731D01*
X35258839Y-77351512D01*
X35258839Y-77351512D01*
G37*
G36*
X18684600Y-78234600D02*
G01*
X16855400Y-78234600D01*
X16855400Y-76405400D01*
X18684600Y-76405400D01*
X18684600Y-78234600D01*
X18684600Y-78234600D01*
G37*
G36*
X20489294Y-76418633D02*
G01*
X20661695Y-76470931D01*
X20820583Y-76555858D01*
X20959849Y-76670151D01*
X21074142Y-76809417D01*
X21159069Y-76968305D01*
X21211367Y-77140706D01*
X21229025Y-77320000D01*
X21211367Y-77499294D01*
X21159069Y-77671695D01*
X21074142Y-77830583D01*
X20959849Y-77969849D01*
X20820583Y-78084142D01*
X20661695Y-78169069D01*
X20489294Y-78221367D01*
X20354931Y-78234600D01*
X20265069Y-78234600D01*
X20130706Y-78221367D01*
X19958305Y-78169069D01*
X19799417Y-78084142D01*
X19660151Y-77969849D01*
X19545858Y-77830583D01*
X19460931Y-77671695D01*
X19408633Y-77499294D01*
X19390975Y-77320000D01*
X19408633Y-77140706D01*
X19460931Y-76968305D01*
X19545858Y-76809417D01*
X19660151Y-76670151D01*
X19799417Y-76555858D01*
X19958305Y-76470931D01*
X20130706Y-76418633D01*
X20265069Y-76405400D01*
X20354931Y-76405400D01*
X20489294Y-76418633D01*
X20489294Y-76418633D01*
G37*
G36*
X33652877Y-73137175D02*
G01*
X33813296Y-73185838D01*
X33945960Y-73256748D01*
X33961132Y-73264858D01*
X34090713Y-73371203D01*
X34197058Y-73500784D01*
X34197059Y-73500786D01*
X34276078Y-73648620D01*
X34324741Y-73809039D01*
X34341171Y-73975862D01*
X34324741Y-74142685D01*
X34276078Y-74303104D01*
X34205168Y-74435768D01*
X34197058Y-74450940D01*
X34090713Y-74580521D01*
X33961132Y-74686866D01*
X33961130Y-74686867D01*
X33813296Y-74765886D01*
X33652877Y-74814549D01*
X33527858Y-74826862D01*
X33444250Y-74826862D01*
X33319231Y-74814549D01*
X33158812Y-74765886D01*
X33010978Y-74686867D01*
X33010976Y-74686866D01*
X32881395Y-74580521D01*
X32775050Y-74450940D01*
X32766940Y-74435768D01*
X32696030Y-74303104D01*
X32647367Y-74142685D01*
X32630937Y-73975862D01*
X32647367Y-73809039D01*
X32696030Y-73648620D01*
X32775049Y-73500786D01*
X32775050Y-73500784D01*
X32881395Y-73371203D01*
X33010976Y-73264858D01*
X33026148Y-73256748D01*
X33158812Y-73185838D01*
X33319231Y-73137175D01*
X33444250Y-73124862D01*
X33527858Y-73124862D01*
X33652877Y-73137175D01*
X33652877Y-73137175D01*
G37*
G36*
X35852582Y-71867175D02*
G01*
X36013001Y-71915838D01*
X36145665Y-71986748D01*
X36160837Y-71994858D01*
X36290418Y-72101203D01*
X36396763Y-72230784D01*
X36396764Y-72230786D01*
X36475783Y-72378620D01*
X36524446Y-72539039D01*
X36540876Y-72705862D01*
X36524446Y-72872685D01*
X36475783Y-73033104D01*
X36426737Y-73124862D01*
X36396763Y-73180940D01*
X36290418Y-73310521D01*
X36160837Y-73416866D01*
X36160835Y-73416867D01*
X36013001Y-73495886D01*
X35852582Y-73544549D01*
X35727563Y-73556862D01*
X35643955Y-73556862D01*
X35518936Y-73544549D01*
X35358517Y-73495886D01*
X35210683Y-73416867D01*
X35210681Y-73416866D01*
X35081100Y-73310521D01*
X34974755Y-73180940D01*
X34944781Y-73124862D01*
X34895735Y-73033104D01*
X34847072Y-72872685D01*
X34830642Y-72705862D01*
X34847072Y-72539039D01*
X34895735Y-72378620D01*
X34974754Y-72230786D01*
X34974755Y-72230784D01*
X35081100Y-72101203D01*
X35210681Y-71994858D01*
X35225853Y-71986748D01*
X35358517Y-71915838D01*
X35518936Y-71867175D01*
X35643955Y-71854862D01*
X35727563Y-71854862D01*
X35852582Y-71867175D01*
X35852582Y-71867175D01*
G37*
G36*
X38052286Y-70597175D02*
G01*
X38212705Y-70645838D01*
X38300278Y-70692647D01*
X38360541Y-70724858D01*
X38490122Y-70831203D01*
X38596467Y-70960784D01*
X38596468Y-70960786D01*
X38675487Y-71108620D01*
X38724150Y-71269039D01*
X38740580Y-71435862D01*
X38724150Y-71602685D01*
X38675487Y-71763104D01*
X38626441Y-71854862D01*
X38596467Y-71910940D01*
X38490122Y-72040521D01*
X38360541Y-72146866D01*
X38360539Y-72146867D01*
X38212705Y-72225886D01*
X38052286Y-72274549D01*
X37927267Y-72286862D01*
X37843659Y-72286862D01*
X37718640Y-72274549D01*
X37558221Y-72225886D01*
X37410387Y-72146867D01*
X37410385Y-72146866D01*
X37280804Y-72040521D01*
X37174459Y-71910940D01*
X37144485Y-71854862D01*
X37095439Y-71763104D01*
X37046776Y-71602685D01*
X37030346Y-71435862D01*
X37046776Y-71269039D01*
X37095439Y-71108620D01*
X37174458Y-70960786D01*
X37174459Y-70960784D01*
X37280804Y-70831203D01*
X37410385Y-70724858D01*
X37470648Y-70692647D01*
X37558221Y-70645838D01*
X37718640Y-70597175D01*
X37843659Y-70584862D01*
X37927267Y-70584862D01*
X38052286Y-70597175D01*
X38052286Y-70597175D01*
G37*
G36*
X22866780Y-70675059D02*
G01*
X20304941Y-71126780D01*
X19853220Y-68564941D01*
X22415059Y-68113220D01*
X22866780Y-70675059D01*
X22866780Y-70675059D01*
G37*
G36*
X40251991Y-69327175D02*
G01*
X40412410Y-69375838D01*
X40486017Y-69415182D01*
X40560246Y-69454858D01*
X40689827Y-69561203D01*
X40796172Y-69690784D01*
X40796173Y-69690786D01*
X40875192Y-69838620D01*
X40923855Y-69999039D01*
X40940285Y-70165862D01*
X40923855Y-70332685D01*
X40875192Y-70493104D01*
X40844618Y-70550304D01*
X40796172Y-70640940D01*
X40689827Y-70770521D01*
X40560246Y-70876866D01*
X40560244Y-70876867D01*
X40412410Y-70955886D01*
X40251991Y-71004549D01*
X40126972Y-71016862D01*
X40043364Y-71016862D01*
X39918345Y-71004549D01*
X39757926Y-70955886D01*
X39610092Y-70876867D01*
X39610090Y-70876866D01*
X39480509Y-70770521D01*
X39374164Y-70640940D01*
X39325718Y-70550304D01*
X39295144Y-70493104D01*
X39246481Y-70332685D01*
X39230051Y-70165862D01*
X39246481Y-69999039D01*
X39295144Y-69838620D01*
X39374163Y-69690786D01*
X39374164Y-69690784D01*
X39480509Y-69561203D01*
X39610090Y-69454858D01*
X39684319Y-69415182D01*
X39757926Y-69375838D01*
X39918345Y-69327175D01*
X40043364Y-69314862D01*
X40126972Y-69314862D01*
X40251991Y-69327175D01*
X40251991Y-69327175D01*
G37*
G36*
X16789393Y-68289304D02*
G01*
X16961132Y-68360441D01*
X17026103Y-68387353D01*
X17239135Y-68529696D01*
X17420304Y-68710865D01*
X17501918Y-68833010D01*
X17562648Y-68923899D01*
X17660696Y-69160607D01*
X17710680Y-69411893D01*
X17710680Y-69668107D01*
X17660696Y-69919393D01*
X17562648Y-70156101D01*
X17562647Y-70156103D01*
X17420304Y-70369135D01*
X17239135Y-70550304D01*
X17026103Y-70692647D01*
X17026102Y-70692648D01*
X17026101Y-70692648D01*
X16789393Y-70790696D01*
X16538107Y-70840680D01*
X16281893Y-70840680D01*
X16030607Y-70790696D01*
X15793899Y-70692648D01*
X15793898Y-70692648D01*
X15793897Y-70692647D01*
X15580865Y-70550304D01*
X15399696Y-70369135D01*
X15257353Y-70156103D01*
X15257352Y-70156101D01*
X15159304Y-69919393D01*
X15109320Y-69668107D01*
X15109320Y-69411893D01*
X15159304Y-69160607D01*
X15257352Y-68923899D01*
X15318082Y-68833010D01*
X15399696Y-68710865D01*
X15580865Y-68529696D01*
X15793897Y-68387353D01*
X15858868Y-68360441D01*
X16030607Y-68289304D01*
X16281893Y-68239320D01*
X16538107Y-68239320D01*
X16789393Y-68289304D01*
X16789393Y-68289304D01*
G37*
G36*
X25491511Y-67707704D02*
G01*
X25702500Y-67795099D01*
X25728221Y-67805753D01*
X25941253Y-67948096D01*
X26122422Y-68129265D01*
X26188226Y-68227748D01*
X26264766Y-68342299D01*
X26362814Y-68579007D01*
X26412798Y-68830293D01*
X26412798Y-69086507D01*
X26362814Y-69337793D01*
X26332120Y-69411894D01*
X26264765Y-69574503D01*
X26122422Y-69787535D01*
X25941253Y-69968704D01*
X25728221Y-70111047D01*
X25728220Y-70111048D01*
X25728219Y-70111048D01*
X25491511Y-70209096D01*
X25240225Y-70259080D01*
X24984011Y-70259080D01*
X24732725Y-70209096D01*
X24496017Y-70111048D01*
X24496016Y-70111048D01*
X24496015Y-70111047D01*
X24282983Y-69968704D01*
X24101814Y-69787535D01*
X23959471Y-69574503D01*
X23892116Y-69411894D01*
X23861422Y-69337793D01*
X23811438Y-69086507D01*
X23811438Y-68830293D01*
X23861422Y-68579007D01*
X23959470Y-68342299D01*
X24036010Y-68227748D01*
X24101814Y-68129265D01*
X24282983Y-67948096D01*
X24496015Y-67805753D01*
X24521736Y-67795099D01*
X24732725Y-67707704D01*
X24984011Y-67657720D01*
X25240225Y-67657720D01*
X25491511Y-67707704D01*
X25491511Y-67707704D01*
G37*
G36*
X38463375Y-68046744D02*
G01*
X38500053Y-68060549D01*
X38533329Y-68081241D01*
X38561931Y-68108030D01*
X38588353Y-68144901D01*
X38730133Y-68390472D01*
X38915112Y-68710865D01*
X38957707Y-68784643D01*
X38976428Y-68825960D01*
X38985326Y-68864124D01*
X38986608Y-68903287D01*
X38980224Y-68941954D01*
X38966421Y-68978629D01*
X38945731Y-69011901D01*
X38918942Y-69040503D01*
X38882069Y-69066926D01*
X38328927Y-69386283D01*
X38287614Y-69405002D01*
X38249450Y-69413900D01*
X38210283Y-69415182D01*
X38171625Y-69408800D01*
X38134947Y-69394995D01*
X38101671Y-69374303D01*
X38073069Y-69347514D01*
X38046647Y-69310643D01*
X37811461Y-68903287D01*
X37705470Y-68719706D01*
X37705468Y-68719702D01*
X37677293Y-68670901D01*
X37658572Y-68629584D01*
X37649674Y-68591420D01*
X37648392Y-68552257D01*
X37654776Y-68513590D01*
X37668579Y-68476915D01*
X37689269Y-68443643D01*
X37716058Y-68415041D01*
X37752931Y-68388618D01*
X38306073Y-68069261D01*
X38347386Y-68050542D01*
X38385550Y-68041644D01*
X38424717Y-68040362D01*
X38463375Y-68046744D01*
X38463375Y-68046744D01*
G37*
G36*
X29842877Y-66538061D02*
G01*
X30003296Y-66586724D01*
X30095960Y-66636254D01*
X30151132Y-66665744D01*
X30280713Y-66772089D01*
X30387058Y-66901670D01*
X30387059Y-66901672D01*
X30466078Y-67049506D01*
X30466079Y-67049509D01*
X30474077Y-67075876D01*
X30514741Y-67209925D01*
X30531171Y-67376748D01*
X30514741Y-67543571D01*
X30466078Y-67703990D01*
X30417379Y-67795099D01*
X30387058Y-67851826D01*
X30280713Y-67981407D01*
X30151132Y-68087752D01*
X30151130Y-68087753D01*
X30003296Y-68166772D01*
X29842877Y-68215435D01*
X29717858Y-68227748D01*
X29634250Y-68227748D01*
X29509231Y-68215435D01*
X29348812Y-68166772D01*
X29200978Y-68087753D01*
X29200976Y-68087752D01*
X29071395Y-67981407D01*
X28965050Y-67851826D01*
X28934729Y-67795099D01*
X28886030Y-67703990D01*
X28837367Y-67543571D01*
X28820937Y-67376748D01*
X28837367Y-67209925D01*
X28878031Y-67075876D01*
X28886029Y-67049509D01*
X28886030Y-67049506D01*
X28965049Y-66901672D01*
X28965050Y-66901670D01*
X29071395Y-66772089D01*
X29200976Y-66665744D01*
X29256148Y-66636254D01*
X29348812Y-66586724D01*
X29509231Y-66538061D01*
X29634250Y-66525748D01*
X29717858Y-66525748D01*
X29842877Y-66538061D01*
X29842877Y-66538061D01*
G37*
G36*
X37588375Y-66531200D02*
G01*
X37625053Y-66545005D01*
X37658329Y-66565697D01*
X37686931Y-66592486D01*
X37713353Y-66629357D01*
X37855133Y-66874928D01*
X38017039Y-67155357D01*
X38082707Y-67269099D01*
X38101428Y-67310416D01*
X38110326Y-67348580D01*
X38111608Y-67387743D01*
X38105224Y-67426410D01*
X38091421Y-67463085D01*
X38070731Y-67496357D01*
X38043942Y-67524959D01*
X38007069Y-67551382D01*
X37453927Y-67870739D01*
X37412614Y-67889458D01*
X37374450Y-67898356D01*
X37335283Y-67899638D01*
X37296625Y-67893256D01*
X37259947Y-67879451D01*
X37226671Y-67858759D01*
X37198069Y-67831970D01*
X37171647Y-67795099D01*
X36930113Y-67376748D01*
X36830470Y-67204162D01*
X36830468Y-67204158D01*
X36802293Y-67155357D01*
X36783572Y-67114040D01*
X36774674Y-67075876D01*
X36773392Y-67036713D01*
X36779776Y-66998046D01*
X36793579Y-66961371D01*
X36814269Y-66928099D01*
X36841058Y-66899497D01*
X36877931Y-66873074D01*
X37431073Y-66553717D01*
X37472386Y-66534998D01*
X37510550Y-66526100D01*
X37549717Y-66524818D01*
X37588375Y-66531200D01*
X37588375Y-66531200D01*
G37*
G36*
X32042582Y-65268061D02*
G01*
X32203001Y-65316724D01*
X32335665Y-65387634D01*
X32350837Y-65395744D01*
X32480418Y-65502089D01*
X32586763Y-65631670D01*
X32586764Y-65631672D01*
X32665783Y-65779506D01*
X32714446Y-65939925D01*
X32730876Y-66106748D01*
X32714446Y-66273571D01*
X32665783Y-66433990D01*
X32600768Y-66555624D01*
X32586763Y-66581826D01*
X32480418Y-66711407D01*
X32350837Y-66817752D01*
X32350835Y-66817753D01*
X32203001Y-66896772D01*
X32042582Y-66945435D01*
X31917563Y-66957748D01*
X31833955Y-66957748D01*
X31708936Y-66945435D01*
X31548517Y-66896772D01*
X31400683Y-66817753D01*
X31400681Y-66817752D01*
X31271100Y-66711407D01*
X31164755Y-66581826D01*
X31150750Y-66555624D01*
X31085735Y-66433990D01*
X31037072Y-66273571D01*
X31020642Y-66106748D01*
X31037072Y-65939925D01*
X31085735Y-65779506D01*
X31164754Y-65631672D01*
X31164755Y-65631670D01*
X31271100Y-65502089D01*
X31400681Y-65395744D01*
X31415853Y-65387634D01*
X31548517Y-65316724D01*
X31708936Y-65268061D01*
X31833955Y-65255748D01*
X31917563Y-65255748D01*
X32042582Y-65268061D01*
X32042582Y-65268061D01*
G37*
G36*
X27829393Y-63139304D02*
G01*
X28066101Y-63237352D01*
X28066103Y-63237353D01*
X28279135Y-63379696D01*
X28460304Y-63560865D01*
X28595670Y-63763455D01*
X28602648Y-63773899D01*
X28700696Y-64010607D01*
X28750680Y-64261893D01*
X28750680Y-64518107D01*
X28700696Y-64769393D01*
X28633509Y-64931596D01*
X28602647Y-65006103D01*
X28460304Y-65219135D01*
X28279135Y-65400304D01*
X28066103Y-65542647D01*
X28066102Y-65542648D01*
X28066101Y-65542648D01*
X27829393Y-65640696D01*
X27578107Y-65690680D01*
X27321893Y-65690680D01*
X27070607Y-65640696D01*
X26833899Y-65542648D01*
X26833898Y-65542648D01*
X26833897Y-65542647D01*
X26620865Y-65400304D01*
X26439696Y-65219135D01*
X26297353Y-65006103D01*
X26266491Y-64931596D01*
X26199304Y-64769393D01*
X26149320Y-64518107D01*
X26149320Y-64261893D01*
X26199304Y-64010607D01*
X26297352Y-63773899D01*
X26304330Y-63763455D01*
X26439696Y-63560865D01*
X26620865Y-63379696D01*
X26833897Y-63237353D01*
X26833899Y-63237352D01*
X27070607Y-63139304D01*
X27321893Y-63089320D01*
X27578107Y-63089320D01*
X27829393Y-63139304D01*
X27829393Y-63139304D01*
G37*
G36*
X34242286Y-63998061D02*
G01*
X34402705Y-64046724D01*
X34535369Y-64117634D01*
X34550541Y-64125744D01*
X34680122Y-64232089D01*
X34786467Y-64361670D01*
X34786468Y-64361672D01*
X34865487Y-64509506D01*
X34914150Y-64669925D01*
X34930580Y-64836748D01*
X34914150Y-65003571D01*
X34865487Y-65163990D01*
X34836012Y-65219134D01*
X34786467Y-65311826D01*
X34680122Y-65441407D01*
X34550541Y-65547752D01*
X34550539Y-65547753D01*
X34402705Y-65626772D01*
X34242286Y-65675435D01*
X34117267Y-65687748D01*
X34033659Y-65687748D01*
X33908640Y-65675435D01*
X33748221Y-65626772D01*
X33600387Y-65547753D01*
X33600385Y-65547752D01*
X33470804Y-65441407D01*
X33364459Y-65311826D01*
X33314914Y-65219134D01*
X33285439Y-65163990D01*
X33236776Y-65003571D01*
X33220346Y-64836748D01*
X33236776Y-64669925D01*
X33285439Y-64509506D01*
X33364458Y-64361672D01*
X33364459Y-64361670D01*
X33470804Y-64232089D01*
X33600385Y-64125744D01*
X33615557Y-64117634D01*
X33748221Y-64046724D01*
X33908640Y-63998061D01*
X34033659Y-63985748D01*
X34117267Y-63985748D01*
X34242286Y-63998061D01*
X34242286Y-63998061D01*
G37*
G36*
X20480935Y-63495742D02*
G01*
X20631258Y-63558008D01*
X20766545Y-63648404D01*
X20881596Y-63763455D01*
X20971992Y-63898742D01*
X21034258Y-64049065D01*
X21066000Y-64208646D01*
X21066000Y-64371354D01*
X21034258Y-64530935D01*
X20971992Y-64681258D01*
X20881596Y-64816545D01*
X20766545Y-64931596D01*
X20631258Y-65021992D01*
X20480935Y-65084258D01*
X20321354Y-65116000D01*
X20158646Y-65116000D01*
X19999065Y-65084258D01*
X19848742Y-65021992D01*
X19713455Y-64931596D01*
X19598404Y-64816545D01*
X19508008Y-64681258D01*
X19445742Y-64530935D01*
X19414000Y-64371354D01*
X19414000Y-64208646D01*
X19445742Y-64049065D01*
X19508008Y-63898742D01*
X19598404Y-63763455D01*
X19713455Y-63648404D01*
X19848742Y-63558008D01*
X19999065Y-63495742D01*
X20158646Y-63464000D01*
X20321354Y-63464000D01*
X20480935Y-63495742D01*
X20480935Y-63495742D01*
G37*
G36*
X37437656Y-63878236D02*
G01*
X35963680Y-64729236D01*
X35112680Y-63255260D01*
X36586656Y-62404260D01*
X37437656Y-63878236D01*
X37437656Y-63878236D01*
G37*
G36*
X40116410Y-62124776D02*
G01*
X40153085Y-62138579D01*
X40186357Y-62159269D01*
X40214959Y-62186058D01*
X40241382Y-62222931D01*
X40560739Y-62776073D01*
X40579458Y-62817386D01*
X40588356Y-62855550D01*
X40589638Y-62894717D01*
X40583256Y-62933375D01*
X40569451Y-62970053D01*
X40548759Y-63003329D01*
X40521970Y-63031931D01*
X40485099Y-63058353D01*
X40175063Y-63237352D01*
X39894162Y-63399530D01*
X39894158Y-63399532D01*
X39845357Y-63427707D01*
X39804040Y-63446428D01*
X39765876Y-63455326D01*
X39726713Y-63456608D01*
X39688046Y-63450224D01*
X39651371Y-63436421D01*
X39618099Y-63415731D01*
X39589497Y-63388942D01*
X39563074Y-63352069D01*
X39243717Y-62798927D01*
X39224998Y-62757614D01*
X39216100Y-62719450D01*
X39214818Y-62680283D01*
X39221200Y-62641625D01*
X39235005Y-62604947D01*
X39255697Y-62571671D01*
X39282486Y-62543069D01*
X39319357Y-62516647D01*
X39816145Y-62229827D01*
X39910294Y-62175470D01*
X39910298Y-62175468D01*
X39959099Y-62147293D01*
X40000416Y-62128572D01*
X40038580Y-62119674D01*
X40077743Y-62118392D01*
X40116410Y-62124776D01*
X40116410Y-62124776D01*
G37*
G36*
X15480935Y-60995742D02*
G01*
X15631258Y-61058008D01*
X15766545Y-61148404D01*
X15881596Y-61263455D01*
X15971992Y-61398742D01*
X16034258Y-61549065D01*
X16066000Y-61708646D01*
X16066000Y-61871354D01*
X16034258Y-62030935D01*
X15971992Y-62181258D01*
X15881596Y-62316545D01*
X15766545Y-62431596D01*
X15631258Y-62521992D01*
X15480935Y-62584258D01*
X15321354Y-62616000D01*
X15158646Y-62616000D01*
X14999065Y-62584258D01*
X14848742Y-62521992D01*
X14713455Y-62431596D01*
X14598404Y-62316545D01*
X14508008Y-62181258D01*
X14445742Y-62030935D01*
X14414000Y-61871354D01*
X14414000Y-61708646D01*
X14445742Y-61549065D01*
X14508008Y-61398742D01*
X14598404Y-61263455D01*
X14713455Y-61148404D01*
X14848742Y-61058008D01*
X14999065Y-60995742D01*
X15158646Y-60964000D01*
X15321354Y-60964000D01*
X15480935Y-60995742D01*
X15480935Y-60995742D01*
G37*
G36*
X41631954Y-61249776D02*
G01*
X41668629Y-61263579D01*
X41701901Y-61284269D01*
X41730503Y-61311058D01*
X41756926Y-61347931D01*
X42076283Y-61901073D01*
X42095002Y-61942386D01*
X42103900Y-61980550D01*
X42105182Y-62019717D01*
X42098800Y-62058375D01*
X42084995Y-62095053D01*
X42064303Y-62128329D01*
X42037514Y-62156931D01*
X42000643Y-62183353D01*
X41920147Y-62229827D01*
X41409706Y-62524530D01*
X41409702Y-62524532D01*
X41360901Y-62552707D01*
X41319584Y-62571428D01*
X41281420Y-62580326D01*
X41242257Y-62581608D01*
X41203590Y-62575224D01*
X41166915Y-62561421D01*
X41133643Y-62540731D01*
X41105041Y-62513942D01*
X41078618Y-62477069D01*
X40759261Y-61923927D01*
X40740542Y-61882614D01*
X40731644Y-61844450D01*
X40730362Y-61805283D01*
X40736744Y-61766625D01*
X40750549Y-61729947D01*
X40771241Y-61696671D01*
X40798030Y-61668069D01*
X40834901Y-61641647D01*
X41154772Y-61456970D01*
X41425838Y-61300470D01*
X41425842Y-61300468D01*
X41474643Y-61272293D01*
X41515960Y-61253572D01*
X41554124Y-61244674D01*
X41593287Y-61243392D01*
X41631954Y-61249776D01*
X41631954Y-61249776D01*
G37*
G36*
X21066000Y-60116000D02*
G01*
X19414000Y-60116000D01*
X19414000Y-58464000D01*
X21066000Y-58464000D01*
X21066000Y-60116000D01*
X21066000Y-60116000D01*
G37*
G36*
X31433642Y-57649781D02*
G01*
X31579414Y-57710162D01*
X31579416Y-57710163D01*
X31710608Y-57797822D01*
X31822178Y-57909392D01*
X31909837Y-58040584D01*
X31909838Y-58040586D01*
X31970219Y-58186358D01*
X32001000Y-58341107D01*
X32001000Y-58498893D01*
X31970219Y-58653642D01*
X31909838Y-58799414D01*
X31909837Y-58799416D01*
X31822178Y-58930608D01*
X31710608Y-59042178D01*
X31579416Y-59129837D01*
X31579415Y-59129838D01*
X31579414Y-59129838D01*
X31433642Y-59190219D01*
X31278893Y-59221000D01*
X31121107Y-59221000D01*
X30966358Y-59190219D01*
X30820586Y-59129838D01*
X30820585Y-59129838D01*
X30820584Y-59129837D01*
X30689392Y-59042178D01*
X30577822Y-58930608D01*
X30490163Y-58799416D01*
X30490162Y-58799414D01*
X30429781Y-58653642D01*
X30399000Y-58498893D01*
X30399000Y-58341107D01*
X30429781Y-58186358D01*
X30490162Y-58040586D01*
X30490163Y-58040584D01*
X30577822Y-57909392D01*
X30689392Y-57797822D01*
X30820584Y-57710163D01*
X30820586Y-57710162D01*
X30966358Y-57649781D01*
X31121107Y-57619000D01*
X31278893Y-57619000D01*
X31433642Y-57649781D01*
X31433642Y-57649781D01*
G37*
G36*
X43309393Y-54949304D02*
G01*
X43546101Y-55047352D01*
X43546103Y-55047353D01*
X43759135Y-55189696D01*
X43940304Y-55370865D01*
X44082647Y-55583897D01*
X44082648Y-55583899D01*
X44180696Y-55820607D01*
X44230680Y-56071893D01*
X44230680Y-56328107D01*
X44180696Y-56579393D01*
X44082648Y-56816101D01*
X44082647Y-56816103D01*
X43940304Y-57029135D01*
X43759135Y-57210304D01*
X43546103Y-57352647D01*
X43546102Y-57352648D01*
X43546101Y-57352648D01*
X43309393Y-57450696D01*
X43058107Y-57500680D01*
X42801893Y-57500680D01*
X42550607Y-57450696D01*
X42313899Y-57352648D01*
X42313898Y-57352648D01*
X42313897Y-57352647D01*
X42100865Y-57210304D01*
X41919696Y-57029135D01*
X41777353Y-56816103D01*
X41777352Y-56816101D01*
X41679304Y-56579393D01*
X41629320Y-56328107D01*
X41629320Y-56071893D01*
X41679304Y-55820607D01*
X41777352Y-55583899D01*
X41777353Y-55583897D01*
X41919696Y-55370865D01*
X42100865Y-55189696D01*
X42313897Y-55047353D01*
X42313899Y-55047352D01*
X42550607Y-54949304D01*
X42801893Y-54899320D01*
X43058107Y-54899320D01*
X43309393Y-54949304D01*
X43309393Y-54949304D01*
G37*
G36*
X31433642Y-55109781D02*
G01*
X31579414Y-55170162D01*
X31579416Y-55170163D01*
X31710608Y-55257822D01*
X31822178Y-55369392D01*
X31909837Y-55500584D01*
X31909838Y-55500586D01*
X31970219Y-55646358D01*
X32001000Y-55801107D01*
X32001000Y-55958893D01*
X31970219Y-56113642D01*
X31909838Y-56259414D01*
X31909837Y-56259416D01*
X31822178Y-56390608D01*
X31710608Y-56502178D01*
X31579416Y-56589837D01*
X31579415Y-56589838D01*
X31579414Y-56589838D01*
X31433642Y-56650219D01*
X31278893Y-56681000D01*
X31121107Y-56681000D01*
X30966358Y-56650219D01*
X30820586Y-56589838D01*
X30820585Y-56589838D01*
X30820584Y-56589837D01*
X30689392Y-56502178D01*
X30577822Y-56390608D01*
X30490163Y-56259416D01*
X30490162Y-56259414D01*
X30429781Y-56113642D01*
X30399000Y-55958893D01*
X30399000Y-55801107D01*
X30429781Y-55646358D01*
X30490162Y-55500586D01*
X30490163Y-55500584D01*
X30577822Y-55369392D01*
X30689392Y-55257822D01*
X30820584Y-55170163D01*
X30820586Y-55170162D01*
X30966358Y-55109781D01*
X31121107Y-55079000D01*
X31278893Y-55079000D01*
X31433642Y-55109781D01*
X31433642Y-55109781D01*
G37*
G36*
X32001000Y-54141000D02*
G01*
X30399000Y-54141000D01*
X30399000Y-52539000D01*
X32001000Y-52539000D01*
X32001000Y-54141000D01*
X32001000Y-54141000D01*
G37*
G36*
X26333574Y-52029002D02*
G01*
X26962585Y-52139913D01*
X27006269Y-52152130D01*
X27041221Y-52169844D01*
X27072049Y-52194037D01*
X27097564Y-52223780D01*
X27116783Y-52257923D01*
X27128975Y-52295170D01*
X27133666Y-52334072D01*
X27130205Y-52379300D01*
X27001929Y-53106792D01*
X26989711Y-53150478D01*
X26971999Y-53185428D01*
X26947806Y-53216255D01*
X26918062Y-53241771D01*
X26883919Y-53260990D01*
X26846672Y-53273182D01*
X26807770Y-53277873D01*
X26762542Y-53274412D01*
X26133531Y-53163501D01*
X26089847Y-53151284D01*
X26054895Y-53133570D01*
X26024067Y-53109377D01*
X25998552Y-53079634D01*
X25979333Y-53045491D01*
X25967141Y-53008244D01*
X25962450Y-52969342D01*
X25965911Y-52924114D01*
X26094187Y-52196622D01*
X26106405Y-52152936D01*
X26124117Y-52117986D01*
X26148310Y-52087159D01*
X26178054Y-52061643D01*
X26212197Y-52042424D01*
X26249444Y-52030232D01*
X26288346Y-52025541D01*
X26333574Y-52029002D01*
X26333574Y-52029002D01*
G37*
G36*
X22004499Y-51403445D02*
G01*
X22041995Y-51414820D01*
X22076554Y-51433292D01*
X22106847Y-51458153D01*
X22131708Y-51488446D01*
X22150180Y-51523005D01*
X22161555Y-51560501D01*
X22166000Y-51605638D01*
X22166000Y-52344362D01*
X22161555Y-52389499D01*
X22150180Y-52426995D01*
X22131708Y-52461554D01*
X22106847Y-52491847D01*
X22076554Y-52516708D01*
X22041995Y-52535180D01*
X22004499Y-52546555D01*
X21959362Y-52551000D01*
X21320638Y-52551000D01*
X21275501Y-52546555D01*
X21238005Y-52535180D01*
X21203446Y-52516708D01*
X21173153Y-52491847D01*
X21148292Y-52461554D01*
X21129820Y-52426995D01*
X21118445Y-52389499D01*
X21114000Y-52344362D01*
X21114000Y-51605638D01*
X21118445Y-51560501D01*
X21129820Y-51523005D01*
X21148292Y-51488446D01*
X21173153Y-51458153D01*
X21203446Y-51433292D01*
X21238005Y-51414820D01*
X21275501Y-51403445D01*
X21320638Y-51399000D01*
X21959362Y-51399000D01*
X22004499Y-51403445D01*
X22004499Y-51403445D01*
G37*
G36*
X36823665Y-50232622D02*
G01*
X36897222Y-50239867D01*
X37038786Y-50282810D01*
X37169252Y-50352546D01*
X37182898Y-50363745D01*
X37283607Y-50446393D01*
X37351161Y-50528710D01*
X37377454Y-50560748D01*
X37377455Y-50560750D01*
X37443396Y-50684115D01*
X37447190Y-50691214D01*
X37490133Y-50832778D01*
X37504633Y-50980000D01*
X37490133Y-51127222D01*
X37447190Y-51268786D01*
X37377454Y-51399252D01*
X37361231Y-51419020D01*
X37283607Y-51513607D01*
X37223004Y-51563341D01*
X37169252Y-51607454D01*
X37038786Y-51677190D01*
X36897222Y-51720133D01*
X36823665Y-51727378D01*
X36786888Y-51731000D01*
X36713112Y-51731000D01*
X36676335Y-51727378D01*
X36602778Y-51720133D01*
X36461214Y-51677190D01*
X36330748Y-51607454D01*
X36276996Y-51563341D01*
X36216393Y-51513607D01*
X36138769Y-51419020D01*
X36122546Y-51399252D01*
X36052810Y-51268786D01*
X36009867Y-51127222D01*
X35995367Y-50980000D01*
X36009867Y-50832778D01*
X36052810Y-50691214D01*
X36056605Y-50684115D01*
X36122545Y-50560750D01*
X36122546Y-50560748D01*
X36148839Y-50528710D01*
X36216393Y-50446393D01*
X36317102Y-50363745D01*
X36330748Y-50352546D01*
X36461214Y-50282810D01*
X36602778Y-50239867D01*
X36676335Y-50232622D01*
X36713112Y-50229000D01*
X36786888Y-50229000D01*
X36823665Y-50232622D01*
X36823665Y-50232622D01*
G37*
G36*
X31889059Y-50257860D02*
G01*
X32004285Y-50305588D01*
X32025732Y-50314472D01*
X32148735Y-50396660D01*
X32253340Y-50501265D01*
X32326434Y-50610658D01*
X32335529Y-50624270D01*
X32371614Y-50711387D01*
X32392140Y-50760941D01*
X32421000Y-50906033D01*
X32421000Y-51053967D01*
X32392140Y-51199059D01*
X32335528Y-51335732D01*
X32253340Y-51458735D01*
X32148735Y-51563340D01*
X32025732Y-51645528D01*
X32025731Y-51645529D01*
X32025730Y-51645529D01*
X31889059Y-51702140D01*
X31743968Y-51731000D01*
X31596032Y-51731000D01*
X31450941Y-51702140D01*
X31314270Y-51645529D01*
X31314269Y-51645529D01*
X31314268Y-51645528D01*
X31191265Y-51563340D01*
X31086660Y-51458735D01*
X31004472Y-51335732D01*
X30947860Y-51199059D01*
X30919000Y-51053967D01*
X30919000Y-50906033D01*
X30947860Y-50760941D01*
X30968386Y-50711387D01*
X31004471Y-50624270D01*
X31013566Y-50610658D01*
X31086660Y-50501265D01*
X31191265Y-50396660D01*
X31314268Y-50314472D01*
X31335716Y-50305588D01*
X31450941Y-50257860D01*
X31596032Y-50229000D01*
X31743968Y-50229000D01*
X31889059Y-50257860D01*
X31889059Y-50257860D01*
G37*
G36*
X15589393Y-49079304D02*
G01*
X15826101Y-49177352D01*
X15826103Y-49177353D01*
X16039135Y-49319696D01*
X16220304Y-49500865D01*
X16332661Y-49669020D01*
X16362648Y-49713899D01*
X16460696Y-49950607D01*
X16510680Y-50201893D01*
X16510680Y-50458107D01*
X16460696Y-50709393D01*
X16424844Y-50795947D01*
X16362647Y-50946103D01*
X16220304Y-51159135D01*
X16039135Y-51340304D01*
X15826103Y-51482647D01*
X15826102Y-51482648D01*
X15826101Y-51482648D01*
X15589393Y-51580696D01*
X15338107Y-51630680D01*
X15081893Y-51630680D01*
X14830607Y-51580696D01*
X14593899Y-51482648D01*
X14593898Y-51482648D01*
X14593897Y-51482647D01*
X14380865Y-51340304D01*
X14199696Y-51159135D01*
X14057353Y-50946103D01*
X13995156Y-50795947D01*
X13959304Y-50709393D01*
X13909320Y-50458107D01*
X13909320Y-50201893D01*
X13959304Y-49950607D01*
X14057352Y-49713899D01*
X14087339Y-49669020D01*
X14199696Y-49500865D01*
X14380865Y-49319696D01*
X14593897Y-49177353D01*
X14593899Y-49177352D01*
X14830607Y-49079304D01*
X15081893Y-49029320D01*
X15338107Y-49029320D01*
X15589393Y-49079304D01*
X15589393Y-49079304D01*
G37*
G36*
X26637458Y-50305588D02*
G01*
X27266469Y-50416499D01*
X27310153Y-50428716D01*
X27345105Y-50446430D01*
X27375933Y-50470623D01*
X27401448Y-50500366D01*
X27420667Y-50534509D01*
X27432859Y-50571756D01*
X27437550Y-50610658D01*
X27434089Y-50655886D01*
X27305813Y-51383378D01*
X27293595Y-51427064D01*
X27275883Y-51462014D01*
X27251690Y-51492841D01*
X27221946Y-51518357D01*
X27187803Y-51537576D01*
X27150556Y-51549768D01*
X27111654Y-51554459D01*
X27066426Y-51550998D01*
X26437415Y-51440087D01*
X26393731Y-51427870D01*
X26358779Y-51410156D01*
X26327951Y-51385963D01*
X26302436Y-51356220D01*
X26283217Y-51322077D01*
X26271025Y-51284830D01*
X26266334Y-51245928D01*
X26269795Y-51200700D01*
X26398071Y-50473208D01*
X26410289Y-50429522D01*
X26428001Y-50394572D01*
X26452194Y-50363745D01*
X26481938Y-50338229D01*
X26516081Y-50319010D01*
X26553328Y-50306818D01*
X26592230Y-50302127D01*
X26637458Y-50305588D01*
X26637458Y-50305588D01*
G37*
G36*
X22004499Y-49653445D02*
G01*
X22041995Y-49664820D01*
X22076554Y-49683292D01*
X22106847Y-49708153D01*
X22131708Y-49738446D01*
X22150180Y-49773005D01*
X22161555Y-49810501D01*
X22166000Y-49855638D01*
X22166000Y-50594362D01*
X22161555Y-50639499D01*
X22150180Y-50676995D01*
X22131708Y-50711554D01*
X22106847Y-50741847D01*
X22076554Y-50766708D01*
X22041995Y-50785180D01*
X22004499Y-50796555D01*
X21959362Y-50801000D01*
X21320638Y-50801000D01*
X21275501Y-50796555D01*
X21238005Y-50785180D01*
X21203446Y-50766708D01*
X21173153Y-50741847D01*
X21148292Y-50711554D01*
X21129820Y-50676995D01*
X21118445Y-50639499D01*
X21114000Y-50594362D01*
X21114000Y-49855638D01*
X21118445Y-49810501D01*
X21129820Y-49773005D01*
X21148292Y-49738446D01*
X21173153Y-49708153D01*
X21203446Y-49683292D01*
X21238005Y-49664820D01*
X21275501Y-49653445D01*
X21320638Y-49649000D01*
X21959362Y-49649000D01*
X22004499Y-49653445D01*
X22004499Y-49653445D01*
G37*
G36*
X28059393Y-42739304D02*
G01*
X28271961Y-42827353D01*
X28296103Y-42837353D01*
X28509135Y-42979696D01*
X28690304Y-43160865D01*
X28832647Y-43373897D01*
X28832648Y-43373899D01*
X28930696Y-43610607D01*
X28980680Y-43861893D01*
X28980680Y-44118107D01*
X28930696Y-44369393D01*
X28836790Y-44596101D01*
X28832647Y-44606103D01*
X28690304Y-44819135D01*
X28509135Y-45000304D01*
X28296103Y-45142647D01*
X28296102Y-45142648D01*
X28296101Y-45142648D01*
X28059393Y-45240696D01*
X27808107Y-45290680D01*
X27551893Y-45290680D01*
X27300607Y-45240696D01*
X27063899Y-45142648D01*
X27063898Y-45142648D01*
X27063897Y-45142647D01*
X26850865Y-45000304D01*
X26669696Y-44819135D01*
X26527353Y-44606103D01*
X26523210Y-44596101D01*
X26429304Y-44369393D01*
X26379320Y-44118107D01*
X26379320Y-43861893D01*
X26429304Y-43610607D01*
X26527352Y-43373899D01*
X26527353Y-43373897D01*
X26669696Y-43160865D01*
X26850865Y-42979696D01*
X27063897Y-42837353D01*
X27088039Y-42827353D01*
X27300607Y-42739304D01*
X27551893Y-42689320D01*
X27808107Y-42689320D01*
X28059393Y-42739304D01*
X28059393Y-42739304D01*
G37*
G36*
X31699393Y-42729304D02*
G01*
X31936101Y-42827352D01*
X31936103Y-42827353D01*
X32149135Y-42969696D01*
X32330304Y-43150865D01*
X32472647Y-43363897D01*
X32472648Y-43363899D01*
X32570696Y-43600607D01*
X32620680Y-43851893D01*
X32620680Y-44108107D01*
X32570696Y-44359393D01*
X32566553Y-44369394D01*
X32472647Y-44596103D01*
X32330304Y-44809135D01*
X32149135Y-44990304D01*
X31936103Y-45132647D01*
X31936102Y-45132648D01*
X31936101Y-45132648D01*
X31699393Y-45230696D01*
X31448107Y-45280680D01*
X31191893Y-45280680D01*
X30940607Y-45230696D01*
X30703899Y-45132648D01*
X30703898Y-45132648D01*
X30703897Y-45132647D01*
X30490865Y-44990304D01*
X30309696Y-44809135D01*
X30167353Y-44596103D01*
X30073447Y-44369394D01*
X30069304Y-44359393D01*
X30019320Y-44108107D01*
X30019320Y-43851893D01*
X30069304Y-43600607D01*
X30167352Y-43363899D01*
X30167353Y-43363897D01*
X30309696Y-43150865D01*
X30490865Y-42969696D01*
X30703897Y-42827353D01*
X30703899Y-42827352D01*
X30940607Y-42729304D01*
X31191893Y-42679320D01*
X31448107Y-42679320D01*
X31699393Y-42729304D01*
X31699393Y-42729304D01*
G37*
G36*
X20599393Y-41249304D02*
G01*
X20836101Y-41347352D01*
X20836103Y-41347353D01*
X21049135Y-41489696D01*
X21230304Y-41670865D01*
X21362096Y-41868107D01*
X21372648Y-41883899D01*
X21470696Y-42120607D01*
X21520680Y-42371893D01*
X21520680Y-42628107D01*
X21470696Y-42879393D01*
X21372648Y-43116101D01*
X21372647Y-43116103D01*
X21230304Y-43329135D01*
X21049135Y-43510304D01*
X20836103Y-43652647D01*
X20836102Y-43652648D01*
X20836101Y-43652648D01*
X20599393Y-43750696D01*
X20348107Y-43800680D01*
X20091893Y-43800680D01*
X19840607Y-43750696D01*
X19603899Y-43652648D01*
X19603898Y-43652648D01*
X19603897Y-43652647D01*
X19390865Y-43510304D01*
X19209696Y-43329135D01*
X19067353Y-43116103D01*
X19067352Y-43116101D01*
X18969304Y-42879393D01*
X18919320Y-42628107D01*
X18919320Y-42371893D01*
X18969304Y-42120607D01*
X19067352Y-41883899D01*
X19077904Y-41868107D01*
X19209696Y-41670865D01*
X19390865Y-41489696D01*
X19603897Y-41347353D01*
X19603899Y-41347352D01*
X19840607Y-41249304D01*
X20091893Y-41199320D01*
X20348107Y-41199320D01*
X20599393Y-41249304D01*
X20599393Y-41249304D01*
G37*
G36*
X16999393Y-40489304D02*
G01*
X17236101Y-40587352D01*
X17236103Y-40587353D01*
X17449135Y-40729696D01*
X17630304Y-40910865D01*
X17687258Y-40996103D01*
X17772648Y-41123899D01*
X17870696Y-41360607D01*
X17920680Y-41611893D01*
X17920680Y-41868107D01*
X17870696Y-42119393D01*
X17870193Y-42120607D01*
X17772647Y-42356103D01*
X17630304Y-42569135D01*
X17449135Y-42750304D01*
X17236103Y-42892647D01*
X17236102Y-42892648D01*
X17236101Y-42892648D01*
X16999393Y-42990696D01*
X16748107Y-43040680D01*
X16491893Y-43040680D01*
X16240607Y-42990696D01*
X16003899Y-42892648D01*
X16003898Y-42892648D01*
X16003897Y-42892647D01*
X15790865Y-42750304D01*
X15609696Y-42569135D01*
X15467353Y-42356103D01*
X15369807Y-42120607D01*
X15369304Y-42119393D01*
X15319320Y-41868107D01*
X15319320Y-41611893D01*
X15369304Y-41360607D01*
X15467352Y-41123899D01*
X15552742Y-40996103D01*
X15609696Y-40910865D01*
X15790865Y-40729696D01*
X16003897Y-40587353D01*
X16003899Y-40587352D01*
X16240607Y-40489304D01*
X16491893Y-40439320D01*
X16748107Y-40439320D01*
X16999393Y-40489304D01*
X16999393Y-40489304D01*
G37*
G36*
X25819393Y-39129304D02*
G01*
X26056101Y-39227352D01*
X26056103Y-39227353D01*
X26269135Y-39369696D01*
X26450304Y-39550865D01*
X26592647Y-39763897D01*
X26592648Y-39763899D01*
X26690696Y-40000607D01*
X26740680Y-40251893D01*
X26740680Y-40508107D01*
X26690696Y-40759393D01*
X26592648Y-40996101D01*
X26592647Y-40996103D01*
X26450304Y-41209135D01*
X26269135Y-41390304D01*
X26056103Y-41532647D01*
X26056102Y-41532648D01*
X26056101Y-41532648D01*
X25819393Y-41630696D01*
X25568107Y-41680680D01*
X25311893Y-41680680D01*
X25060607Y-41630696D01*
X24823899Y-41532648D01*
X24823898Y-41532648D01*
X24823897Y-41532647D01*
X24610865Y-41390304D01*
X24429696Y-41209135D01*
X24287353Y-40996103D01*
X24287352Y-40996101D01*
X24189304Y-40759393D01*
X24139320Y-40508107D01*
X24139320Y-40251893D01*
X24189304Y-40000607D01*
X24287352Y-39763899D01*
X24287353Y-39763897D01*
X24429696Y-39550865D01*
X24610865Y-39369696D01*
X24823897Y-39227353D01*
X24823899Y-39227352D01*
X25060607Y-39129304D01*
X25311893Y-39079320D01*
X25568107Y-39079320D01*
X25819393Y-39129304D01*
X25819393Y-39129304D01*
G37*
G36*
X16929393Y-36829304D02*
G01*
X17166101Y-36927352D01*
X17166103Y-36927353D01*
X17379135Y-37069696D01*
X17560304Y-37250865D01*
X17702647Y-37463897D01*
X17702648Y-37463899D01*
X17800696Y-37700607D01*
X17850680Y-37951893D01*
X17850680Y-38208107D01*
X17800696Y-38459393D01*
X17702648Y-38696101D01*
X17702647Y-38696103D01*
X17560304Y-38909135D01*
X17379135Y-39090304D01*
X17166103Y-39232647D01*
X17166102Y-39232648D01*
X17166101Y-39232648D01*
X16929393Y-39330696D01*
X16678107Y-39380680D01*
X16421893Y-39380680D01*
X16170607Y-39330696D01*
X15933899Y-39232648D01*
X15933898Y-39232648D01*
X15933897Y-39232647D01*
X15720865Y-39090304D01*
X15539696Y-38909135D01*
X15397353Y-38696103D01*
X15397352Y-38696101D01*
X15299304Y-38459393D01*
X15249320Y-38208107D01*
X15249320Y-37951893D01*
X15299304Y-37700607D01*
X15397352Y-37463899D01*
X15397353Y-37463897D01*
X15539696Y-37250865D01*
X15720865Y-37069696D01*
X15933897Y-36927353D01*
X15933899Y-36927352D01*
X16170607Y-36829304D01*
X16421893Y-36779320D01*
X16678107Y-36779320D01*
X16929393Y-36829304D01*
X16929393Y-36829304D01*
G37*
G36*
X34201000Y-36851000D02*
G01*
X32599000Y-36851000D01*
X32599000Y-35249000D01*
X34201000Y-35249000D01*
X34201000Y-36851000D01*
X34201000Y-36851000D01*
G37*
G36*
X28553642Y-35279781D02*
G01*
X28699414Y-35340162D01*
X28699416Y-35340163D01*
X28830608Y-35427822D01*
X28942178Y-35539392D01*
X29029837Y-35670584D01*
X29029838Y-35670586D01*
X29090219Y-35816358D01*
X29121000Y-35971107D01*
X29121000Y-36128893D01*
X29090219Y-36283642D01*
X29029838Y-36429414D01*
X29029837Y-36429416D01*
X28942178Y-36560608D01*
X28830608Y-36672178D01*
X28699416Y-36759837D01*
X28699415Y-36759838D01*
X28699414Y-36759838D01*
X28553642Y-36820219D01*
X28398893Y-36851000D01*
X28241107Y-36851000D01*
X28086358Y-36820219D01*
X27940586Y-36759838D01*
X27940585Y-36759838D01*
X27940584Y-36759837D01*
X27809392Y-36672178D01*
X27697822Y-36560608D01*
X27610163Y-36429416D01*
X27610162Y-36429414D01*
X27549781Y-36283642D01*
X27519000Y-36128893D01*
X27519000Y-35971107D01*
X27549781Y-35816358D01*
X27610162Y-35670586D01*
X27610163Y-35670584D01*
X27697822Y-35539392D01*
X27809392Y-35427822D01*
X27940584Y-35340163D01*
X27940586Y-35340162D01*
X28086358Y-35279781D01*
X28241107Y-35249000D01*
X28398893Y-35249000D01*
X28553642Y-35279781D01*
X28553642Y-35279781D01*
G37*
G36*
X31093642Y-35279781D02*
G01*
X31239414Y-35340162D01*
X31239416Y-35340163D01*
X31370608Y-35427822D01*
X31482178Y-35539392D01*
X31569837Y-35670584D01*
X31569838Y-35670586D01*
X31630219Y-35816358D01*
X31661000Y-35971107D01*
X31661000Y-36128893D01*
X31630219Y-36283642D01*
X31569838Y-36429414D01*
X31569837Y-36429416D01*
X31482178Y-36560608D01*
X31370608Y-36672178D01*
X31239416Y-36759837D01*
X31239415Y-36759838D01*
X31239414Y-36759838D01*
X31093642Y-36820219D01*
X30938893Y-36851000D01*
X30781107Y-36851000D01*
X30626358Y-36820219D01*
X30480586Y-36759838D01*
X30480585Y-36759838D01*
X30480584Y-36759837D01*
X30349392Y-36672178D01*
X30237822Y-36560608D01*
X30150163Y-36429416D01*
X30150162Y-36429414D01*
X30089781Y-36283642D01*
X30059000Y-36128893D01*
X30059000Y-35971107D01*
X30089781Y-35816358D01*
X30150162Y-35670586D01*
X30150163Y-35670584D01*
X30237822Y-35539392D01*
X30349392Y-35427822D01*
X30480584Y-35340163D01*
X30480586Y-35340162D01*
X30626358Y-35279781D01*
X30781107Y-35249000D01*
X30938893Y-35249000D01*
X31093642Y-35279781D01*
X31093642Y-35279781D01*
G37*
G36*
X33628643Y-31474781D02*
G01*
X33774415Y-31535162D01*
X33774417Y-31535163D01*
X33905609Y-31622822D01*
X34017179Y-31734392D01*
X34104838Y-31865584D01*
X34104839Y-31865586D01*
X34165220Y-32011358D01*
X34196001Y-32166107D01*
X34196001Y-32323893D01*
X34165220Y-32478642D01*
X34104839Y-32624414D01*
X34104838Y-32624416D01*
X34017179Y-32755608D01*
X33905609Y-32867178D01*
X33774417Y-32954837D01*
X33774416Y-32954838D01*
X33774415Y-32954838D01*
X33628643Y-33015219D01*
X33473894Y-33046000D01*
X33316108Y-33046000D01*
X33161359Y-33015219D01*
X33015587Y-32954838D01*
X33015586Y-32954838D01*
X33015585Y-32954837D01*
X32884393Y-32867178D01*
X32772823Y-32755608D01*
X32685164Y-32624416D01*
X32685163Y-32624414D01*
X32624782Y-32478642D01*
X32594001Y-32323893D01*
X32594001Y-32166107D01*
X32624782Y-32011358D01*
X32685163Y-31865586D01*
X32685164Y-31865584D01*
X32772823Y-31734392D01*
X32884393Y-31622822D01*
X33015585Y-31535163D01*
X33015587Y-31535162D01*
X33161359Y-31474781D01*
X33316108Y-31444000D01*
X33473894Y-31444000D01*
X33628643Y-31474781D01*
X33628643Y-31474781D01*
G37*
G36*
X29116001Y-33046000D02*
G01*
X27514001Y-33046000D01*
X27514001Y-31444000D01*
X29116001Y-31444000D01*
X29116001Y-33046000D01*
X29116001Y-33046000D01*
G37*
G36*
X31088643Y-31474781D02*
G01*
X31234415Y-31535162D01*
X31234417Y-31535163D01*
X31365609Y-31622822D01*
X31477179Y-31734392D01*
X31564838Y-31865584D01*
X31564839Y-31865586D01*
X31625220Y-32011358D01*
X31656001Y-32166107D01*
X31656001Y-32323893D01*
X31625220Y-32478642D01*
X31564839Y-32624414D01*
X31564838Y-32624416D01*
X31477179Y-32755608D01*
X31365609Y-32867178D01*
X31234417Y-32954837D01*
X31234416Y-32954838D01*
X31234415Y-32954838D01*
X31088643Y-33015219D01*
X30933894Y-33046000D01*
X30776108Y-33046000D01*
X30621359Y-33015219D01*
X30475587Y-32954838D01*
X30475586Y-32954838D01*
X30475585Y-32954837D01*
X30344393Y-32867178D01*
X30232823Y-32755608D01*
X30145164Y-32624416D01*
X30145163Y-32624414D01*
X30084782Y-32478642D01*
X30054001Y-32323893D01*
X30054001Y-32166107D01*
X30084782Y-32011358D01*
X30145163Y-31865586D01*
X30145164Y-31865584D01*
X30232823Y-31734392D01*
X30344393Y-31622822D01*
X30475585Y-31535163D01*
X30475587Y-31535162D01*
X30621359Y-31474781D01*
X30776108Y-31444000D01*
X30933894Y-31444000D01*
X31088643Y-31474781D01*
X31088643Y-31474781D01*
G37*
G36*
X16525331Y-24268211D02*
G01*
X16853092Y-24403974D01*
X17148070Y-24601072D01*
X17398928Y-24851930D01*
X17596026Y-25146908D01*
X17731789Y-25474669D01*
X17801000Y-25822616D01*
X17801000Y-26177384D01*
X17731789Y-26525331D01*
X17596026Y-26853092D01*
X17398928Y-27148070D01*
X17148070Y-27398928D01*
X16853092Y-27596026D01*
X16525331Y-27731789D01*
X16177384Y-27801000D01*
X15822616Y-27801000D01*
X15474669Y-27731789D01*
X15146908Y-27596026D01*
X14851930Y-27398928D01*
X14601072Y-27148070D01*
X14403974Y-26853092D01*
X14268211Y-26525331D01*
X14199000Y-26177384D01*
X14199000Y-25822616D01*
X14268211Y-25474669D01*
X14403974Y-25146908D01*
X14601072Y-24851930D01*
X14851930Y-24601072D01*
X15146908Y-24403974D01*
X15474669Y-24268211D01*
X15822616Y-24199000D01*
X16177384Y-24199000D01*
X16525331Y-24268211D01*
X16525331Y-24268211D01*
G37*
G36*
X42525331Y-24268211D02*
G01*
X42853092Y-24403974D01*
X43148070Y-24601072D01*
X43398928Y-24851930D01*
X43596026Y-25146908D01*
X43731789Y-25474669D01*
X43801000Y-25822616D01*
X43801000Y-26177384D01*
X43731789Y-26525331D01*
X43596026Y-26853092D01*
X43398928Y-27148070D01*
X43148070Y-27398928D01*
X42853092Y-27596026D01*
X42525331Y-27731789D01*
X42177384Y-27801000D01*
X41822616Y-27801000D01*
X41474669Y-27731789D01*
X41146908Y-27596026D01*
X40851930Y-27398928D01*
X40601072Y-27148070D01*
X40403974Y-26853092D01*
X40268211Y-26525331D01*
X40199000Y-26177384D01*
X40199000Y-25822616D01*
X40268211Y-25474669D01*
X40403974Y-25146908D01*
X40601072Y-24851930D01*
X40851930Y-24601072D01*
X41146908Y-24403974D01*
X41474669Y-24268211D01*
X41822616Y-24199000D01*
X42177384Y-24199000D01*
X42525331Y-24268211D01*
X42525331Y-24268211D01*
G37*
G36*
X34231000Y-27451000D02*
G01*
X32629000Y-27451000D01*
X32629000Y-25849000D01*
X34231000Y-25849000D01*
X34231000Y-27451000D01*
X34231000Y-27451000D01*
G37*
G36*
X31123642Y-25879781D02*
G01*
X31269414Y-25940162D01*
X31269416Y-25940163D01*
X31400608Y-26027822D01*
X31512178Y-26139392D01*
X31537563Y-26177384D01*
X31599838Y-26270586D01*
X31660219Y-26416358D01*
X31691000Y-26571107D01*
X31691000Y-26728893D01*
X31660219Y-26883642D01*
X31599838Y-27029414D01*
X31599837Y-27029416D01*
X31512178Y-27160608D01*
X31400608Y-27272178D01*
X31269416Y-27359837D01*
X31269415Y-27359838D01*
X31269414Y-27359838D01*
X31123642Y-27420219D01*
X30968893Y-27451000D01*
X30811107Y-27451000D01*
X30656358Y-27420219D01*
X30510586Y-27359838D01*
X30510585Y-27359838D01*
X30510584Y-27359837D01*
X30379392Y-27272178D01*
X30267822Y-27160608D01*
X30180163Y-27029416D01*
X30180162Y-27029414D01*
X30119781Y-26883642D01*
X30089000Y-26728893D01*
X30089000Y-26571107D01*
X30119781Y-26416358D01*
X30180162Y-26270586D01*
X30242437Y-26177384D01*
X30267822Y-26139392D01*
X30379392Y-26027822D01*
X30510584Y-25940163D01*
X30510586Y-25940162D01*
X30656358Y-25879781D01*
X30811107Y-25849000D01*
X30968893Y-25849000D01*
X31123642Y-25879781D01*
X31123642Y-25879781D01*
G37*
G36*
X28583642Y-25879781D02*
G01*
X28729414Y-25940162D01*
X28729416Y-25940163D01*
X28860608Y-26027822D01*
X28972178Y-26139392D01*
X28997563Y-26177384D01*
X29059838Y-26270586D01*
X29120219Y-26416358D01*
X29151000Y-26571107D01*
X29151000Y-26728893D01*
X29120219Y-26883642D01*
X29059838Y-27029414D01*
X29059837Y-27029416D01*
X28972178Y-27160608D01*
X28860608Y-27272178D01*
X28729416Y-27359837D01*
X28729415Y-27359838D01*
X28729414Y-27359838D01*
X28583642Y-27420219D01*
X28428893Y-27451000D01*
X28271107Y-27451000D01*
X28116358Y-27420219D01*
X27970586Y-27359838D01*
X27970585Y-27359838D01*
X27970584Y-27359837D01*
X27839392Y-27272178D01*
X27727822Y-27160608D01*
X27640163Y-27029416D01*
X27640162Y-27029414D01*
X27579781Y-26883642D01*
X27549000Y-26728893D01*
X27549000Y-26571107D01*
X27579781Y-26416358D01*
X27640162Y-26270586D01*
X27702437Y-26177384D01*
X27727822Y-26139392D01*
X27839392Y-26027822D01*
X27970584Y-25940163D01*
X27970586Y-25940162D01*
X28116358Y-25879781D01*
X28271107Y-25849000D01*
X28428893Y-25849000D01*
X28583642Y-25879781D01*
X28583642Y-25879781D01*
G37*
G36*
X22859393Y-21609304D02*
G01*
X23096101Y-21707352D01*
X23096103Y-21707353D01*
X23309135Y-21849696D01*
X23490304Y-22030865D01*
X23632647Y-22243897D01*
X23632648Y-22243899D01*
X23730696Y-22480607D01*
X23780680Y-22731893D01*
X23780680Y-22988107D01*
X23730696Y-23239393D01*
X23632648Y-23476101D01*
X23632647Y-23476103D01*
X23490304Y-23689135D01*
X23309135Y-23870304D01*
X23096103Y-24012647D01*
X23096102Y-24012648D01*
X23096101Y-24012648D01*
X22859393Y-24110696D01*
X22608107Y-24160680D01*
X22351893Y-24160680D01*
X22100607Y-24110696D01*
X21863899Y-24012648D01*
X21863898Y-24012648D01*
X21863897Y-24012647D01*
X21650865Y-23870304D01*
X21469696Y-23689135D01*
X21327353Y-23476103D01*
X21327352Y-23476101D01*
X21229304Y-23239393D01*
X21179320Y-22988107D01*
X21179320Y-22731893D01*
X21229304Y-22480607D01*
X21327352Y-22243899D01*
X21327353Y-22243897D01*
X21469696Y-22030865D01*
X21650865Y-21849696D01*
X21863897Y-21707353D01*
X21863899Y-21707352D01*
X22100607Y-21609304D01*
X22351893Y-21559320D01*
X22608107Y-21559320D01*
X22859393Y-21609304D01*
X22859393Y-21609304D01*
G37*
G36*
X33633642Y-20349781D02*
G01*
X33777212Y-20409250D01*
X33779416Y-20410163D01*
X33910608Y-20497822D01*
X34022178Y-20609392D01*
X34102854Y-20730133D01*
X34109838Y-20740586D01*
X34170219Y-20886358D01*
X34201000Y-21041107D01*
X34201000Y-21198893D01*
X34170219Y-21353642D01*
X34109838Y-21499414D01*
X34109837Y-21499416D01*
X34022178Y-21630608D01*
X33910608Y-21742178D01*
X33779416Y-21829837D01*
X33779415Y-21829838D01*
X33779414Y-21829838D01*
X33633642Y-21890219D01*
X33478893Y-21921000D01*
X33321107Y-21921000D01*
X33166358Y-21890219D01*
X33020586Y-21829838D01*
X33020585Y-21829838D01*
X33020584Y-21829837D01*
X32889392Y-21742178D01*
X32777822Y-21630608D01*
X32690163Y-21499416D01*
X32690162Y-21499414D01*
X32629781Y-21353642D01*
X32599000Y-21198893D01*
X32599000Y-21041107D01*
X32629781Y-20886358D01*
X32690162Y-20740586D01*
X32697146Y-20730133D01*
X32777822Y-20609392D01*
X32889392Y-20497822D01*
X33020584Y-20410163D01*
X33022788Y-20409250D01*
X33166358Y-20349781D01*
X33321107Y-20319000D01*
X33478893Y-20319000D01*
X33633642Y-20349781D01*
X33633642Y-20349781D01*
G37*
G36*
X31093642Y-20349781D02*
G01*
X31237212Y-20409250D01*
X31239416Y-20410163D01*
X31370608Y-20497822D01*
X31482178Y-20609392D01*
X31562854Y-20730133D01*
X31569838Y-20740586D01*
X31630219Y-20886358D01*
X31661000Y-21041107D01*
X31661000Y-21198893D01*
X31630219Y-21353642D01*
X31569838Y-21499414D01*
X31569837Y-21499416D01*
X31482178Y-21630608D01*
X31370608Y-21742178D01*
X31239416Y-21829837D01*
X31239415Y-21829838D01*
X31239414Y-21829838D01*
X31093642Y-21890219D01*
X30938893Y-21921000D01*
X30781107Y-21921000D01*
X30626358Y-21890219D01*
X30480586Y-21829838D01*
X30480585Y-21829838D01*
X30480584Y-21829837D01*
X30349392Y-21742178D01*
X30237822Y-21630608D01*
X30150163Y-21499416D01*
X30150162Y-21499414D01*
X30089781Y-21353642D01*
X30059000Y-21198893D01*
X30059000Y-21041107D01*
X30089781Y-20886358D01*
X30150162Y-20740586D01*
X30157146Y-20730133D01*
X30237822Y-20609392D01*
X30349392Y-20497822D01*
X30480584Y-20410163D01*
X30482788Y-20409250D01*
X30626358Y-20349781D01*
X30781107Y-20319000D01*
X30938893Y-20319000D01*
X31093642Y-20349781D01*
X31093642Y-20349781D01*
G37*
G36*
X29121000Y-21921000D02*
G01*
X27519000Y-21921000D01*
X27519000Y-20319000D01*
X29121000Y-20319000D01*
X29121000Y-21921000D01*
X29121000Y-21921000D01*
G37*
G36*
X21873665Y-19242622D02*
G01*
X21947222Y-19249867D01*
X22088786Y-19292810D01*
X22219252Y-19362546D01*
X22249040Y-19386992D01*
X22333607Y-19456393D01*
X22403008Y-19540960D01*
X22427454Y-19570748D01*
X22497190Y-19701214D01*
X22540133Y-19842778D01*
X22554633Y-19990000D01*
X22540133Y-20137222D01*
X22497190Y-20278786D01*
X22427454Y-20409252D01*
X22426707Y-20410162D01*
X22333607Y-20523607D01*
X22249040Y-20593008D01*
X22219252Y-20617454D01*
X22088786Y-20687190D01*
X21947222Y-20730133D01*
X21873665Y-20737378D01*
X21836888Y-20741000D01*
X21763112Y-20741000D01*
X21726335Y-20737378D01*
X21652778Y-20730133D01*
X21511214Y-20687190D01*
X21380748Y-20617454D01*
X21350960Y-20593008D01*
X21266393Y-20523607D01*
X21173293Y-20410162D01*
X21172546Y-20409252D01*
X21102810Y-20278786D01*
X21059867Y-20137222D01*
X21045367Y-19990000D01*
X21059867Y-19842778D01*
X21102810Y-19701214D01*
X21172546Y-19570748D01*
X21196992Y-19540960D01*
X21266393Y-19456393D01*
X21350960Y-19386992D01*
X21380748Y-19362546D01*
X21511214Y-19292810D01*
X21652778Y-19249867D01*
X21726335Y-19242622D01*
X21763112Y-19239000D01*
X21836888Y-19239000D01*
X21873665Y-19242622D01*
X21873665Y-19242622D01*
G37*
G36*
X22019059Y-14187860D02*
G01*
X22155732Y-14244472D01*
X22278735Y-14326660D01*
X22383340Y-14431265D01*
X22465528Y-14554268D01*
X22522140Y-14690941D01*
X22551000Y-14836033D01*
X22551000Y-14983967D01*
X22522140Y-15129059D01*
X22465528Y-15265732D01*
X22383340Y-15388735D01*
X22278735Y-15493340D01*
X22155732Y-15575528D01*
X22155731Y-15575529D01*
X22155730Y-15575529D01*
X22019059Y-15632140D01*
X21873968Y-15661000D01*
X21726032Y-15661000D01*
X21580941Y-15632140D01*
X21444270Y-15575529D01*
X21444269Y-15575529D01*
X21444268Y-15575528D01*
X21321265Y-15493340D01*
X21216660Y-15388735D01*
X21134472Y-15265732D01*
X21077860Y-15129059D01*
X21049000Y-14983967D01*
X21049000Y-14836033D01*
X21077860Y-14690941D01*
X21134472Y-14554268D01*
X21216660Y-14431265D01*
X21321265Y-14326660D01*
X21444268Y-14244472D01*
X21580941Y-14187860D01*
X21726032Y-14159000D01*
X21873968Y-14159000D01*
X22019059Y-14187860D01*
X22019059Y-14187860D01*
G37*
M02*
