G04 #@! TF.GenerationSoftware,KiCad,Pcbnew,(5.1.2-1)-1*
G04 #@! TF.CreationDate,2022-01-15T17:09:35-05:00*
G04 #@! TF.ProjectId,BF22 Clone,42463232-2043-46c6-9f6e-652e6b696361,rev?*
G04 #@! TF.SameCoordinates,Original*
G04 #@! TF.FileFunction,Paste,Top*
G04 #@! TF.FilePolarity,Positive*
%FSLAX46Y46*%
G04 Gerber Fmt 4.6, Leading zero omitted, Abs format (unit mm)*
G04 Created by KiCad (PCBNEW (5.1.2-1)-1) date 2022-01-15 17:09:35*
%MOMM*%
%LPD*%
G04 APERTURE LIST*
%ADD10C,0.100000*%
%ADD11C,0.950000*%
%ADD12C,1.600000*%
%ADD13R,0.500000X0.500000*%
%ADD14C,0.500000*%
%ADD15C,0.600000*%
G04 APERTURE END LIST*
D10*
G36*
X17176092Y-103107111D02*
G01*
X17199215Y-103110027D01*
X17666999Y-103192510D01*
X17689726Y-103197679D01*
X17711837Y-103205050D01*
X17733119Y-103214553D01*
X17753367Y-103226097D01*
X17772386Y-103239569D01*
X17789992Y-103254841D01*
X17806017Y-103271764D01*
X17820307Y-103290178D01*
X17832722Y-103309903D01*
X17843144Y-103330750D01*
X17851473Y-103352518D01*
X17857628Y-103374998D01*
X17861550Y-103397972D01*
X17863201Y-103421221D01*
X17862566Y-103444519D01*
X17859650Y-103467644D01*
X17759802Y-104033909D01*
X17754633Y-104056635D01*
X17747262Y-104078746D01*
X17737759Y-104100028D01*
X17726215Y-104120276D01*
X17712743Y-104139295D01*
X17697471Y-104156901D01*
X17680547Y-104172927D01*
X17662134Y-104187216D01*
X17642409Y-104199631D01*
X17621562Y-104210054D01*
X17599794Y-104218382D01*
X17577314Y-104224537D01*
X17554340Y-104228459D01*
X17531091Y-104230110D01*
X17507792Y-104229475D01*
X17484669Y-104226559D01*
X17016885Y-104144076D01*
X16994158Y-104138907D01*
X16972047Y-104131536D01*
X16950765Y-104122033D01*
X16930517Y-104110489D01*
X16911498Y-104097017D01*
X16893892Y-104081745D01*
X16877867Y-104064822D01*
X16863577Y-104046408D01*
X16851162Y-104026683D01*
X16840740Y-104005836D01*
X16832411Y-103984068D01*
X16826256Y-103961588D01*
X16822334Y-103938614D01*
X16820683Y-103915365D01*
X16821318Y-103892067D01*
X16824234Y-103868942D01*
X16924082Y-103302677D01*
X16929251Y-103279951D01*
X16936622Y-103257840D01*
X16946125Y-103236558D01*
X16957669Y-103216310D01*
X16971141Y-103197291D01*
X16986413Y-103179685D01*
X17003337Y-103163659D01*
X17021750Y-103149370D01*
X17041475Y-103136955D01*
X17062322Y-103126532D01*
X17084090Y-103118204D01*
X17106570Y-103112049D01*
X17129544Y-103108127D01*
X17152793Y-103106476D01*
X17176092Y-103107111D01*
X17176092Y-103107111D01*
G37*
D11*
X17341942Y-103668293D03*
D10*
G36*
X16872208Y-104830525D02*
G01*
X16895331Y-104833441D01*
X17363115Y-104915924D01*
X17385842Y-104921093D01*
X17407953Y-104928464D01*
X17429235Y-104937967D01*
X17449483Y-104949511D01*
X17468502Y-104962983D01*
X17486108Y-104978255D01*
X17502133Y-104995178D01*
X17516423Y-105013592D01*
X17528838Y-105033317D01*
X17539260Y-105054164D01*
X17547589Y-105075932D01*
X17553744Y-105098412D01*
X17557666Y-105121386D01*
X17559317Y-105144635D01*
X17558682Y-105167933D01*
X17555766Y-105191058D01*
X17455918Y-105757323D01*
X17450749Y-105780049D01*
X17443378Y-105802160D01*
X17433875Y-105823442D01*
X17422331Y-105843690D01*
X17408859Y-105862709D01*
X17393587Y-105880315D01*
X17376663Y-105896341D01*
X17358250Y-105910630D01*
X17338525Y-105923045D01*
X17317678Y-105933468D01*
X17295910Y-105941796D01*
X17273430Y-105947951D01*
X17250456Y-105951873D01*
X17227207Y-105953524D01*
X17203908Y-105952889D01*
X17180785Y-105949973D01*
X16713001Y-105867490D01*
X16690274Y-105862321D01*
X16668163Y-105854950D01*
X16646881Y-105845447D01*
X16626633Y-105833903D01*
X16607614Y-105820431D01*
X16590008Y-105805159D01*
X16573983Y-105788236D01*
X16559693Y-105769822D01*
X16547278Y-105750097D01*
X16536856Y-105729250D01*
X16528527Y-105707482D01*
X16522372Y-105685002D01*
X16518450Y-105662028D01*
X16516799Y-105638779D01*
X16517434Y-105615481D01*
X16520350Y-105592356D01*
X16620198Y-105026091D01*
X16625367Y-105003365D01*
X16632738Y-104981254D01*
X16642241Y-104959972D01*
X16653785Y-104939724D01*
X16667257Y-104920705D01*
X16682529Y-104903099D01*
X16699453Y-104887073D01*
X16717866Y-104872784D01*
X16737591Y-104860369D01*
X16758438Y-104849946D01*
X16780206Y-104841618D01*
X16802686Y-104835463D01*
X16825660Y-104831541D01*
X16848909Y-104829890D01*
X16872208Y-104830525D01*
X16872208Y-104830525D01*
G37*
D11*
X17038058Y-105391707D03*
D10*
G36*
X21054504Y-32461204D02*
G01*
X21078773Y-32464804D01*
X21102571Y-32470765D01*
X21125671Y-32479030D01*
X21147849Y-32489520D01*
X21168893Y-32502133D01*
X21188598Y-32516747D01*
X21206777Y-32533223D01*
X21223253Y-32551402D01*
X21237867Y-32571107D01*
X21250480Y-32592151D01*
X21260970Y-32614329D01*
X21269235Y-32637429D01*
X21275196Y-32661227D01*
X21278796Y-32685496D01*
X21280000Y-32710000D01*
X21280000Y-33810000D01*
X21278796Y-33834504D01*
X21275196Y-33858773D01*
X21269235Y-33882571D01*
X21260970Y-33905671D01*
X21250480Y-33927849D01*
X21237867Y-33948893D01*
X21223253Y-33968598D01*
X21206777Y-33986777D01*
X21188598Y-34003253D01*
X21168893Y-34017867D01*
X21147849Y-34030480D01*
X21125671Y-34040970D01*
X21102571Y-34049235D01*
X21078773Y-34055196D01*
X21054504Y-34058796D01*
X21030000Y-34060000D01*
X18030000Y-34060000D01*
X18005496Y-34058796D01*
X17981227Y-34055196D01*
X17957429Y-34049235D01*
X17934329Y-34040970D01*
X17912151Y-34030480D01*
X17891107Y-34017867D01*
X17871402Y-34003253D01*
X17853223Y-33986777D01*
X17836747Y-33968598D01*
X17822133Y-33948893D01*
X17809520Y-33927849D01*
X17799030Y-33905671D01*
X17790765Y-33882571D01*
X17784804Y-33858773D01*
X17781204Y-33834504D01*
X17780000Y-33810000D01*
X17780000Y-32710000D01*
X17781204Y-32685496D01*
X17784804Y-32661227D01*
X17790765Y-32637429D01*
X17799030Y-32614329D01*
X17809520Y-32592151D01*
X17822133Y-32571107D01*
X17836747Y-32551402D01*
X17853223Y-32533223D01*
X17871402Y-32516747D01*
X17891107Y-32502133D01*
X17912151Y-32489520D01*
X17934329Y-32479030D01*
X17957429Y-32470765D01*
X17981227Y-32464804D01*
X18005496Y-32461204D01*
X18030000Y-32460000D01*
X21030000Y-32460000D01*
X21054504Y-32461204D01*
X21054504Y-32461204D01*
G37*
D12*
X19530000Y-33260000D03*
D10*
G36*
X26654504Y-32461204D02*
G01*
X26678773Y-32464804D01*
X26702571Y-32470765D01*
X26725671Y-32479030D01*
X26747849Y-32489520D01*
X26768893Y-32502133D01*
X26788598Y-32516747D01*
X26806777Y-32533223D01*
X26823253Y-32551402D01*
X26837867Y-32571107D01*
X26850480Y-32592151D01*
X26860970Y-32614329D01*
X26869235Y-32637429D01*
X26875196Y-32661227D01*
X26878796Y-32685496D01*
X26880000Y-32710000D01*
X26880000Y-33810000D01*
X26878796Y-33834504D01*
X26875196Y-33858773D01*
X26869235Y-33882571D01*
X26860970Y-33905671D01*
X26850480Y-33927849D01*
X26837867Y-33948893D01*
X26823253Y-33968598D01*
X26806777Y-33986777D01*
X26788598Y-34003253D01*
X26768893Y-34017867D01*
X26747849Y-34030480D01*
X26725671Y-34040970D01*
X26702571Y-34049235D01*
X26678773Y-34055196D01*
X26654504Y-34058796D01*
X26630000Y-34060000D01*
X23630000Y-34060000D01*
X23605496Y-34058796D01*
X23581227Y-34055196D01*
X23557429Y-34049235D01*
X23534329Y-34040970D01*
X23512151Y-34030480D01*
X23491107Y-34017867D01*
X23471402Y-34003253D01*
X23453223Y-33986777D01*
X23436747Y-33968598D01*
X23422133Y-33948893D01*
X23409520Y-33927849D01*
X23399030Y-33905671D01*
X23390765Y-33882571D01*
X23384804Y-33858773D01*
X23381204Y-33834504D01*
X23380000Y-33810000D01*
X23380000Y-32710000D01*
X23381204Y-32685496D01*
X23384804Y-32661227D01*
X23390765Y-32637429D01*
X23399030Y-32614329D01*
X23409520Y-32592151D01*
X23422133Y-32571107D01*
X23436747Y-32551402D01*
X23453223Y-32533223D01*
X23471402Y-32516747D01*
X23491107Y-32502133D01*
X23512151Y-32489520D01*
X23534329Y-32479030D01*
X23557429Y-32470765D01*
X23581227Y-32464804D01*
X23605496Y-32461204D01*
X23630000Y-32460000D01*
X26630000Y-32460000D01*
X26654504Y-32461204D01*
X26654504Y-32461204D01*
G37*
D12*
X25130000Y-33260000D03*
D10*
G36*
X26824504Y-71241204D02*
G01*
X26848773Y-71244804D01*
X26872571Y-71250765D01*
X26895671Y-71259030D01*
X26917849Y-71269520D01*
X26938893Y-71282133D01*
X26958598Y-71296747D01*
X26976777Y-71313223D01*
X26993253Y-71331402D01*
X27007867Y-71351107D01*
X27020480Y-71372151D01*
X27030970Y-71394329D01*
X27039235Y-71417429D01*
X27045196Y-71441227D01*
X27048796Y-71465496D01*
X27050000Y-71490000D01*
X27050000Y-73590000D01*
X27048796Y-73614504D01*
X27045196Y-73638773D01*
X27039235Y-73662571D01*
X27030970Y-73685671D01*
X27020480Y-73707849D01*
X27007867Y-73728893D01*
X26993253Y-73748598D01*
X26976777Y-73766777D01*
X26958598Y-73783253D01*
X26938893Y-73797867D01*
X26917849Y-73810480D01*
X26895671Y-73820970D01*
X26872571Y-73829235D01*
X26848773Y-73835196D01*
X26824504Y-73838796D01*
X26800000Y-73840000D01*
X25700000Y-73840000D01*
X25675496Y-73838796D01*
X25651227Y-73835196D01*
X25627429Y-73829235D01*
X25604329Y-73820970D01*
X25582151Y-73810480D01*
X25561107Y-73797867D01*
X25541402Y-73783253D01*
X25523223Y-73766777D01*
X25506747Y-73748598D01*
X25492133Y-73728893D01*
X25479520Y-73707849D01*
X25469030Y-73685671D01*
X25460765Y-73662571D01*
X25454804Y-73638773D01*
X25451204Y-73614504D01*
X25450000Y-73590000D01*
X25450000Y-71490000D01*
X25451204Y-71465496D01*
X25454804Y-71441227D01*
X25460765Y-71417429D01*
X25469030Y-71394329D01*
X25479520Y-71372151D01*
X25492133Y-71351107D01*
X25506747Y-71331402D01*
X25523223Y-71313223D01*
X25541402Y-71296747D01*
X25561107Y-71282133D01*
X25582151Y-71269520D01*
X25604329Y-71259030D01*
X25627429Y-71250765D01*
X25651227Y-71244804D01*
X25675496Y-71241204D01*
X25700000Y-71240000D01*
X26800000Y-71240000D01*
X26824504Y-71241204D01*
X26824504Y-71241204D01*
G37*
D12*
X26250000Y-72540000D03*
D10*
G36*
X26824504Y-74841204D02*
G01*
X26848773Y-74844804D01*
X26872571Y-74850765D01*
X26895671Y-74859030D01*
X26917849Y-74869520D01*
X26938893Y-74882133D01*
X26958598Y-74896747D01*
X26976777Y-74913223D01*
X26993253Y-74931402D01*
X27007867Y-74951107D01*
X27020480Y-74972151D01*
X27030970Y-74994329D01*
X27039235Y-75017429D01*
X27045196Y-75041227D01*
X27048796Y-75065496D01*
X27050000Y-75090000D01*
X27050000Y-77190000D01*
X27048796Y-77214504D01*
X27045196Y-77238773D01*
X27039235Y-77262571D01*
X27030970Y-77285671D01*
X27020480Y-77307849D01*
X27007867Y-77328893D01*
X26993253Y-77348598D01*
X26976777Y-77366777D01*
X26958598Y-77383253D01*
X26938893Y-77397867D01*
X26917849Y-77410480D01*
X26895671Y-77420970D01*
X26872571Y-77429235D01*
X26848773Y-77435196D01*
X26824504Y-77438796D01*
X26800000Y-77440000D01*
X25700000Y-77440000D01*
X25675496Y-77438796D01*
X25651227Y-77435196D01*
X25627429Y-77429235D01*
X25604329Y-77420970D01*
X25582151Y-77410480D01*
X25561107Y-77397867D01*
X25541402Y-77383253D01*
X25523223Y-77366777D01*
X25506747Y-77348598D01*
X25492133Y-77328893D01*
X25479520Y-77307849D01*
X25469030Y-77285671D01*
X25460765Y-77262571D01*
X25454804Y-77238773D01*
X25451204Y-77214504D01*
X25450000Y-77190000D01*
X25450000Y-75090000D01*
X25451204Y-75065496D01*
X25454804Y-75041227D01*
X25460765Y-75017429D01*
X25469030Y-74994329D01*
X25479520Y-74972151D01*
X25492133Y-74951107D01*
X25506747Y-74931402D01*
X25523223Y-74913223D01*
X25541402Y-74896747D01*
X25561107Y-74882133D01*
X25582151Y-74869520D01*
X25604329Y-74859030D01*
X25627429Y-74850765D01*
X25651227Y-74844804D01*
X25675496Y-74841204D01*
X25700000Y-74840000D01*
X26800000Y-74840000D01*
X26824504Y-74841204D01*
X26824504Y-74841204D01*
G37*
D12*
X26250000Y-76140000D03*
D10*
G36*
X26924504Y-86501204D02*
G01*
X26948773Y-86504804D01*
X26972571Y-86510765D01*
X26995671Y-86519030D01*
X27017849Y-86529520D01*
X27038893Y-86542133D01*
X27058598Y-86556747D01*
X27076777Y-86573223D01*
X27093253Y-86591402D01*
X27107867Y-86611107D01*
X27120480Y-86632151D01*
X27130970Y-86654329D01*
X27139235Y-86677429D01*
X27145196Y-86701227D01*
X27148796Y-86725496D01*
X27150000Y-86750000D01*
X27150000Y-88850000D01*
X27148796Y-88874504D01*
X27145196Y-88898773D01*
X27139235Y-88922571D01*
X27130970Y-88945671D01*
X27120480Y-88967849D01*
X27107867Y-88988893D01*
X27093253Y-89008598D01*
X27076777Y-89026777D01*
X27058598Y-89043253D01*
X27038893Y-89057867D01*
X27017849Y-89070480D01*
X26995671Y-89080970D01*
X26972571Y-89089235D01*
X26948773Y-89095196D01*
X26924504Y-89098796D01*
X26900000Y-89100000D01*
X25800000Y-89100000D01*
X25775496Y-89098796D01*
X25751227Y-89095196D01*
X25727429Y-89089235D01*
X25704329Y-89080970D01*
X25682151Y-89070480D01*
X25661107Y-89057867D01*
X25641402Y-89043253D01*
X25623223Y-89026777D01*
X25606747Y-89008598D01*
X25592133Y-88988893D01*
X25579520Y-88967849D01*
X25569030Y-88945671D01*
X25560765Y-88922571D01*
X25554804Y-88898773D01*
X25551204Y-88874504D01*
X25550000Y-88850000D01*
X25550000Y-86750000D01*
X25551204Y-86725496D01*
X25554804Y-86701227D01*
X25560765Y-86677429D01*
X25569030Y-86654329D01*
X25579520Y-86632151D01*
X25592133Y-86611107D01*
X25606747Y-86591402D01*
X25623223Y-86573223D01*
X25641402Y-86556747D01*
X25661107Y-86542133D01*
X25682151Y-86529520D01*
X25704329Y-86519030D01*
X25727429Y-86510765D01*
X25751227Y-86504804D01*
X25775496Y-86501204D01*
X25800000Y-86500000D01*
X26900000Y-86500000D01*
X26924504Y-86501204D01*
X26924504Y-86501204D01*
G37*
D12*
X26350000Y-87800000D03*
D10*
G36*
X26924504Y-90101204D02*
G01*
X26948773Y-90104804D01*
X26972571Y-90110765D01*
X26995671Y-90119030D01*
X27017849Y-90129520D01*
X27038893Y-90142133D01*
X27058598Y-90156747D01*
X27076777Y-90173223D01*
X27093253Y-90191402D01*
X27107867Y-90211107D01*
X27120480Y-90232151D01*
X27130970Y-90254329D01*
X27139235Y-90277429D01*
X27145196Y-90301227D01*
X27148796Y-90325496D01*
X27150000Y-90350000D01*
X27150000Y-92450000D01*
X27148796Y-92474504D01*
X27145196Y-92498773D01*
X27139235Y-92522571D01*
X27130970Y-92545671D01*
X27120480Y-92567849D01*
X27107867Y-92588893D01*
X27093253Y-92608598D01*
X27076777Y-92626777D01*
X27058598Y-92643253D01*
X27038893Y-92657867D01*
X27017849Y-92670480D01*
X26995671Y-92680970D01*
X26972571Y-92689235D01*
X26948773Y-92695196D01*
X26924504Y-92698796D01*
X26900000Y-92700000D01*
X25800000Y-92700000D01*
X25775496Y-92698796D01*
X25751227Y-92695196D01*
X25727429Y-92689235D01*
X25704329Y-92680970D01*
X25682151Y-92670480D01*
X25661107Y-92657867D01*
X25641402Y-92643253D01*
X25623223Y-92626777D01*
X25606747Y-92608598D01*
X25592133Y-92588893D01*
X25579520Y-92567849D01*
X25569030Y-92545671D01*
X25560765Y-92522571D01*
X25554804Y-92498773D01*
X25551204Y-92474504D01*
X25550000Y-92450000D01*
X25550000Y-90350000D01*
X25551204Y-90325496D01*
X25554804Y-90301227D01*
X25560765Y-90277429D01*
X25569030Y-90254329D01*
X25579520Y-90232151D01*
X25592133Y-90211107D01*
X25606747Y-90191402D01*
X25623223Y-90173223D01*
X25641402Y-90156747D01*
X25661107Y-90142133D01*
X25682151Y-90129520D01*
X25704329Y-90119030D01*
X25727429Y-90110765D01*
X25751227Y-90104804D01*
X25775496Y-90101204D01*
X25800000Y-90100000D01*
X26900000Y-90100000D01*
X26924504Y-90101204D01*
X26924504Y-90101204D01*
G37*
D12*
X26350000Y-91400000D03*
D10*
G36*
X28057654Y-99659000D02*
G01*
X28081995Y-99662070D01*
X30544014Y-100096190D01*
X30567937Y-100101631D01*
X30591211Y-100109390D01*
X30613613Y-100119393D01*
X30634927Y-100131544D01*
X30654947Y-100145726D01*
X30673480Y-100161801D01*
X30690349Y-100179616D01*
X30705390Y-100198998D01*
X30718459Y-100219761D01*
X30729430Y-100241705D01*
X30738197Y-100264619D01*
X30744676Y-100288282D01*
X30748804Y-100312466D01*
X30750543Y-100336938D01*
X30749874Y-100361463D01*
X30746804Y-100385804D01*
X30555791Y-101469092D01*
X30550350Y-101493015D01*
X30542591Y-101516290D01*
X30532588Y-101538691D01*
X30520437Y-101560005D01*
X30506255Y-101580025D01*
X30490180Y-101598558D01*
X30472365Y-101615427D01*
X30452983Y-101630468D01*
X30432220Y-101643537D01*
X30410276Y-101654508D01*
X30387362Y-101663275D01*
X30363699Y-101669754D01*
X30339515Y-101673882D01*
X30315043Y-101675621D01*
X30290518Y-101674952D01*
X30266177Y-101671882D01*
X27804158Y-101237762D01*
X27780235Y-101232321D01*
X27756961Y-101224562D01*
X27734559Y-101214559D01*
X27713245Y-101202408D01*
X27693225Y-101188226D01*
X27674692Y-101172151D01*
X27657823Y-101154336D01*
X27642782Y-101134954D01*
X27629713Y-101114191D01*
X27618742Y-101092247D01*
X27609975Y-101069333D01*
X27603496Y-101045670D01*
X27599368Y-101021486D01*
X27597629Y-100997014D01*
X27598298Y-100972489D01*
X27601368Y-100948148D01*
X27792381Y-99864860D01*
X27797822Y-99840937D01*
X27805581Y-99817662D01*
X27815584Y-99795261D01*
X27827735Y-99773947D01*
X27841917Y-99753927D01*
X27857992Y-99735394D01*
X27875807Y-99718525D01*
X27895189Y-99703484D01*
X27915952Y-99690415D01*
X27937896Y-99679444D01*
X27960810Y-99670677D01*
X27984473Y-99664198D01*
X28008657Y-99660070D01*
X28033129Y-99658331D01*
X28057654Y-99659000D01*
X28057654Y-99659000D01*
G37*
D12*
X29174086Y-100666976D03*
D10*
G36*
X23724500Y-98894948D02*
G01*
X23748841Y-98898018D01*
X26210860Y-99332138D01*
X26234783Y-99337579D01*
X26258057Y-99345338D01*
X26280459Y-99355341D01*
X26301773Y-99367492D01*
X26321793Y-99381674D01*
X26340326Y-99397749D01*
X26357195Y-99415564D01*
X26372236Y-99434946D01*
X26385305Y-99455709D01*
X26396276Y-99477653D01*
X26405043Y-99500567D01*
X26411522Y-99524230D01*
X26415650Y-99548414D01*
X26417389Y-99572886D01*
X26416720Y-99597411D01*
X26413650Y-99621752D01*
X26222637Y-100705040D01*
X26217196Y-100728963D01*
X26209437Y-100752238D01*
X26199434Y-100774639D01*
X26187283Y-100795953D01*
X26173101Y-100815973D01*
X26157026Y-100834506D01*
X26139211Y-100851375D01*
X26119829Y-100866416D01*
X26099066Y-100879485D01*
X26077122Y-100890456D01*
X26054208Y-100899223D01*
X26030545Y-100905702D01*
X26006361Y-100909830D01*
X25981889Y-100911569D01*
X25957364Y-100910900D01*
X25933023Y-100907830D01*
X23471004Y-100473710D01*
X23447081Y-100468269D01*
X23423807Y-100460510D01*
X23401405Y-100450507D01*
X23380091Y-100438356D01*
X23360071Y-100424174D01*
X23341538Y-100408099D01*
X23324669Y-100390284D01*
X23309628Y-100370902D01*
X23296559Y-100350139D01*
X23285588Y-100328195D01*
X23276821Y-100305281D01*
X23270342Y-100281618D01*
X23266214Y-100257434D01*
X23264475Y-100232962D01*
X23265144Y-100208437D01*
X23268214Y-100184096D01*
X23459227Y-99100808D01*
X23464668Y-99076885D01*
X23472427Y-99053610D01*
X23482430Y-99031209D01*
X23494581Y-99009895D01*
X23508763Y-98989875D01*
X23524838Y-98971342D01*
X23542653Y-98954473D01*
X23562035Y-98939432D01*
X23582798Y-98926363D01*
X23604742Y-98915392D01*
X23627656Y-98906625D01*
X23651319Y-98900146D01*
X23675503Y-98896018D01*
X23699975Y-98894279D01*
X23724500Y-98894948D01*
X23724500Y-98894948D01*
G37*
D12*
X24840932Y-99902924D03*
D10*
G36*
X17256638Y-110295007D02*
G01*
X17280979Y-110298077D01*
X18364268Y-110489090D01*
X18388191Y-110494531D01*
X18411465Y-110502290D01*
X18433867Y-110512293D01*
X18455181Y-110524444D01*
X18475201Y-110538626D01*
X18493734Y-110554701D01*
X18510603Y-110572516D01*
X18525644Y-110591898D01*
X18538713Y-110612661D01*
X18549684Y-110634605D01*
X18558451Y-110657519D01*
X18564930Y-110681182D01*
X18569058Y-110705366D01*
X18570797Y-110729838D01*
X18570128Y-110754363D01*
X18567058Y-110778704D01*
X18202397Y-112846801D01*
X18196956Y-112870724D01*
X18189197Y-112893998D01*
X18179194Y-112916400D01*
X18167043Y-112937714D01*
X18152861Y-112957734D01*
X18136786Y-112976267D01*
X18118971Y-112993136D01*
X18099589Y-113008177D01*
X18078826Y-113021246D01*
X18056882Y-113032217D01*
X18033968Y-113040984D01*
X18010305Y-113047463D01*
X17986121Y-113051591D01*
X17961649Y-113053330D01*
X17937124Y-113052661D01*
X17912783Y-113049591D01*
X16829494Y-112858578D01*
X16805571Y-112853137D01*
X16782297Y-112845378D01*
X16759895Y-112835375D01*
X16738581Y-112823224D01*
X16718561Y-112809042D01*
X16700028Y-112792967D01*
X16683159Y-112775152D01*
X16668118Y-112755770D01*
X16655049Y-112735007D01*
X16644078Y-112713063D01*
X16635311Y-112690149D01*
X16628832Y-112666486D01*
X16624704Y-112642302D01*
X16622965Y-112617830D01*
X16623634Y-112593305D01*
X16626704Y-112568964D01*
X16991365Y-110500867D01*
X16996806Y-110476944D01*
X17004565Y-110453670D01*
X17014568Y-110431268D01*
X17026719Y-110409954D01*
X17040901Y-110389934D01*
X17056976Y-110371401D01*
X17074791Y-110354532D01*
X17094173Y-110339491D01*
X17114936Y-110326422D01*
X17136880Y-110315451D01*
X17159794Y-110306684D01*
X17183457Y-110300205D01*
X17207641Y-110296077D01*
X17232113Y-110294338D01*
X17256638Y-110295007D01*
X17256638Y-110295007D01*
G37*
D12*
X17596881Y-111673834D03*
D10*
G36*
X17881772Y-106749699D02*
G01*
X17906113Y-106752769D01*
X18989402Y-106943782D01*
X19013325Y-106949223D01*
X19036599Y-106956982D01*
X19059001Y-106966985D01*
X19080315Y-106979136D01*
X19100335Y-106993318D01*
X19118868Y-107009393D01*
X19135737Y-107027208D01*
X19150778Y-107046590D01*
X19163847Y-107067353D01*
X19174818Y-107089297D01*
X19183585Y-107112211D01*
X19190064Y-107135874D01*
X19194192Y-107160058D01*
X19195931Y-107184530D01*
X19195262Y-107209055D01*
X19192192Y-107233396D01*
X18827531Y-109301493D01*
X18822090Y-109325416D01*
X18814331Y-109348690D01*
X18804328Y-109371092D01*
X18792177Y-109392406D01*
X18777995Y-109412426D01*
X18761920Y-109430959D01*
X18744105Y-109447828D01*
X18724723Y-109462869D01*
X18703960Y-109475938D01*
X18682016Y-109486909D01*
X18659102Y-109495676D01*
X18635439Y-109502155D01*
X18611255Y-109506283D01*
X18586783Y-109508022D01*
X18562258Y-109507353D01*
X18537917Y-109504283D01*
X17454628Y-109313270D01*
X17430705Y-109307829D01*
X17407431Y-109300070D01*
X17385029Y-109290067D01*
X17363715Y-109277916D01*
X17343695Y-109263734D01*
X17325162Y-109247659D01*
X17308293Y-109229844D01*
X17293252Y-109210462D01*
X17280183Y-109189699D01*
X17269212Y-109167755D01*
X17260445Y-109144841D01*
X17253966Y-109121178D01*
X17249838Y-109096994D01*
X17248099Y-109072522D01*
X17248768Y-109047997D01*
X17251838Y-109023656D01*
X17616499Y-106955559D01*
X17621940Y-106931636D01*
X17629699Y-106908362D01*
X17639702Y-106885960D01*
X17651853Y-106864646D01*
X17666035Y-106844626D01*
X17682110Y-106826093D01*
X17699925Y-106809224D01*
X17719307Y-106794183D01*
X17740070Y-106781114D01*
X17762014Y-106770143D01*
X17784928Y-106761376D01*
X17808591Y-106754897D01*
X17832775Y-106750769D01*
X17857247Y-106749030D01*
X17881772Y-106749699D01*
X17881772Y-106749699D01*
G37*
D12*
X18222015Y-108128526D03*
D10*
G36*
X19565779Y-56966144D02*
G01*
X19588834Y-56969563D01*
X19611443Y-56975227D01*
X19633387Y-56983079D01*
X19654457Y-56993044D01*
X19674448Y-57005026D01*
X19693168Y-57018910D01*
X19710438Y-57034562D01*
X19726090Y-57051832D01*
X19739974Y-57070552D01*
X19751956Y-57090543D01*
X19761921Y-57111613D01*
X19769773Y-57133557D01*
X19775437Y-57156166D01*
X19778856Y-57179221D01*
X19780000Y-57202500D01*
X19780000Y-57677500D01*
X19778856Y-57700779D01*
X19775437Y-57723834D01*
X19769773Y-57746443D01*
X19761921Y-57768387D01*
X19751956Y-57789457D01*
X19739974Y-57809448D01*
X19726090Y-57828168D01*
X19710438Y-57845438D01*
X19693168Y-57861090D01*
X19674448Y-57874974D01*
X19654457Y-57886956D01*
X19633387Y-57896921D01*
X19611443Y-57904773D01*
X19588834Y-57910437D01*
X19565779Y-57913856D01*
X19542500Y-57915000D01*
X18967500Y-57915000D01*
X18944221Y-57913856D01*
X18921166Y-57910437D01*
X18898557Y-57904773D01*
X18876613Y-57896921D01*
X18855543Y-57886956D01*
X18835552Y-57874974D01*
X18816832Y-57861090D01*
X18799562Y-57845438D01*
X18783910Y-57828168D01*
X18770026Y-57809448D01*
X18758044Y-57789457D01*
X18748079Y-57768387D01*
X18740227Y-57746443D01*
X18734563Y-57723834D01*
X18731144Y-57700779D01*
X18730000Y-57677500D01*
X18730000Y-57202500D01*
X18731144Y-57179221D01*
X18734563Y-57156166D01*
X18740227Y-57133557D01*
X18748079Y-57111613D01*
X18758044Y-57090543D01*
X18770026Y-57070552D01*
X18783910Y-57051832D01*
X18799562Y-57034562D01*
X18816832Y-57018910D01*
X18835552Y-57005026D01*
X18855543Y-56993044D01*
X18876613Y-56983079D01*
X18898557Y-56975227D01*
X18921166Y-56969563D01*
X18944221Y-56966144D01*
X18967500Y-56965000D01*
X19542500Y-56965000D01*
X19565779Y-56966144D01*
X19565779Y-56966144D01*
G37*
D11*
X19255000Y-57440000D03*
D10*
G36*
X21315779Y-56966144D02*
G01*
X21338834Y-56969563D01*
X21361443Y-56975227D01*
X21383387Y-56983079D01*
X21404457Y-56993044D01*
X21424448Y-57005026D01*
X21443168Y-57018910D01*
X21460438Y-57034562D01*
X21476090Y-57051832D01*
X21489974Y-57070552D01*
X21501956Y-57090543D01*
X21511921Y-57111613D01*
X21519773Y-57133557D01*
X21525437Y-57156166D01*
X21528856Y-57179221D01*
X21530000Y-57202500D01*
X21530000Y-57677500D01*
X21528856Y-57700779D01*
X21525437Y-57723834D01*
X21519773Y-57746443D01*
X21511921Y-57768387D01*
X21501956Y-57789457D01*
X21489974Y-57809448D01*
X21476090Y-57828168D01*
X21460438Y-57845438D01*
X21443168Y-57861090D01*
X21424448Y-57874974D01*
X21404457Y-57886956D01*
X21383387Y-57896921D01*
X21361443Y-57904773D01*
X21338834Y-57910437D01*
X21315779Y-57913856D01*
X21292500Y-57915000D01*
X20717500Y-57915000D01*
X20694221Y-57913856D01*
X20671166Y-57910437D01*
X20648557Y-57904773D01*
X20626613Y-57896921D01*
X20605543Y-57886956D01*
X20585552Y-57874974D01*
X20566832Y-57861090D01*
X20549562Y-57845438D01*
X20533910Y-57828168D01*
X20520026Y-57809448D01*
X20508044Y-57789457D01*
X20498079Y-57768387D01*
X20490227Y-57746443D01*
X20484563Y-57723834D01*
X20481144Y-57700779D01*
X20480000Y-57677500D01*
X20480000Y-57202500D01*
X20481144Y-57179221D01*
X20484563Y-57156166D01*
X20490227Y-57133557D01*
X20498079Y-57111613D01*
X20508044Y-57090543D01*
X20520026Y-57070552D01*
X20533910Y-57051832D01*
X20549562Y-57034562D01*
X20566832Y-57018910D01*
X20585552Y-57005026D01*
X20605543Y-56993044D01*
X20626613Y-56983079D01*
X20648557Y-56975227D01*
X20671166Y-56969563D01*
X20694221Y-56966144D01*
X20717500Y-56965000D01*
X21292500Y-56965000D01*
X21315779Y-56966144D01*
X21315779Y-56966144D01*
G37*
D11*
X21005000Y-57440000D03*
D10*
G36*
X33925779Y-39166144D02*
G01*
X33948834Y-39169563D01*
X33971443Y-39175227D01*
X33993387Y-39183079D01*
X34014457Y-39193044D01*
X34034448Y-39205026D01*
X34053168Y-39218910D01*
X34070438Y-39234562D01*
X34086090Y-39251832D01*
X34099974Y-39270552D01*
X34111956Y-39290543D01*
X34121921Y-39311613D01*
X34129773Y-39333557D01*
X34135437Y-39356166D01*
X34138856Y-39379221D01*
X34140000Y-39402500D01*
X34140000Y-39877500D01*
X34138856Y-39900779D01*
X34135437Y-39923834D01*
X34129773Y-39946443D01*
X34121921Y-39968387D01*
X34111956Y-39989457D01*
X34099974Y-40009448D01*
X34086090Y-40028168D01*
X34070438Y-40045438D01*
X34053168Y-40061090D01*
X34034448Y-40074974D01*
X34014457Y-40086956D01*
X33993387Y-40096921D01*
X33971443Y-40104773D01*
X33948834Y-40110437D01*
X33925779Y-40113856D01*
X33902500Y-40115000D01*
X33327500Y-40115000D01*
X33304221Y-40113856D01*
X33281166Y-40110437D01*
X33258557Y-40104773D01*
X33236613Y-40096921D01*
X33215543Y-40086956D01*
X33195552Y-40074974D01*
X33176832Y-40061090D01*
X33159562Y-40045438D01*
X33143910Y-40028168D01*
X33130026Y-40009448D01*
X33118044Y-39989457D01*
X33108079Y-39968387D01*
X33100227Y-39946443D01*
X33094563Y-39923834D01*
X33091144Y-39900779D01*
X33090000Y-39877500D01*
X33090000Y-39402500D01*
X33091144Y-39379221D01*
X33094563Y-39356166D01*
X33100227Y-39333557D01*
X33108079Y-39311613D01*
X33118044Y-39290543D01*
X33130026Y-39270552D01*
X33143910Y-39251832D01*
X33159562Y-39234562D01*
X33176832Y-39218910D01*
X33195552Y-39205026D01*
X33215543Y-39193044D01*
X33236613Y-39183079D01*
X33258557Y-39175227D01*
X33281166Y-39169563D01*
X33304221Y-39166144D01*
X33327500Y-39165000D01*
X33902500Y-39165000D01*
X33925779Y-39166144D01*
X33925779Y-39166144D01*
G37*
D11*
X33615000Y-39640000D03*
D10*
G36*
X32175779Y-39166144D02*
G01*
X32198834Y-39169563D01*
X32221443Y-39175227D01*
X32243387Y-39183079D01*
X32264457Y-39193044D01*
X32284448Y-39205026D01*
X32303168Y-39218910D01*
X32320438Y-39234562D01*
X32336090Y-39251832D01*
X32349974Y-39270552D01*
X32361956Y-39290543D01*
X32371921Y-39311613D01*
X32379773Y-39333557D01*
X32385437Y-39356166D01*
X32388856Y-39379221D01*
X32390000Y-39402500D01*
X32390000Y-39877500D01*
X32388856Y-39900779D01*
X32385437Y-39923834D01*
X32379773Y-39946443D01*
X32371921Y-39968387D01*
X32361956Y-39989457D01*
X32349974Y-40009448D01*
X32336090Y-40028168D01*
X32320438Y-40045438D01*
X32303168Y-40061090D01*
X32284448Y-40074974D01*
X32264457Y-40086956D01*
X32243387Y-40096921D01*
X32221443Y-40104773D01*
X32198834Y-40110437D01*
X32175779Y-40113856D01*
X32152500Y-40115000D01*
X31577500Y-40115000D01*
X31554221Y-40113856D01*
X31531166Y-40110437D01*
X31508557Y-40104773D01*
X31486613Y-40096921D01*
X31465543Y-40086956D01*
X31445552Y-40074974D01*
X31426832Y-40061090D01*
X31409562Y-40045438D01*
X31393910Y-40028168D01*
X31380026Y-40009448D01*
X31368044Y-39989457D01*
X31358079Y-39968387D01*
X31350227Y-39946443D01*
X31344563Y-39923834D01*
X31341144Y-39900779D01*
X31340000Y-39877500D01*
X31340000Y-39402500D01*
X31341144Y-39379221D01*
X31344563Y-39356166D01*
X31350227Y-39333557D01*
X31358079Y-39311613D01*
X31368044Y-39290543D01*
X31380026Y-39270552D01*
X31393910Y-39251832D01*
X31409562Y-39234562D01*
X31426832Y-39218910D01*
X31445552Y-39205026D01*
X31465543Y-39193044D01*
X31486613Y-39183079D01*
X31508557Y-39175227D01*
X31531166Y-39169563D01*
X31554221Y-39166144D01*
X31577500Y-39165000D01*
X32152500Y-39165000D01*
X32175779Y-39166144D01*
X32175779Y-39166144D01*
G37*
D11*
X31865000Y-39640000D03*
D10*
G36*
X28805779Y-23486144D02*
G01*
X28828834Y-23489563D01*
X28851443Y-23495227D01*
X28873387Y-23503079D01*
X28894457Y-23513044D01*
X28914448Y-23525026D01*
X28933168Y-23538910D01*
X28950438Y-23554562D01*
X28966090Y-23571832D01*
X28979974Y-23590552D01*
X28991956Y-23610543D01*
X29001921Y-23631613D01*
X29009773Y-23653557D01*
X29015437Y-23676166D01*
X29018856Y-23699221D01*
X29020000Y-23722500D01*
X29020000Y-24197500D01*
X29018856Y-24220779D01*
X29015437Y-24243834D01*
X29009773Y-24266443D01*
X29001921Y-24288387D01*
X28991956Y-24309457D01*
X28979974Y-24329448D01*
X28966090Y-24348168D01*
X28950438Y-24365438D01*
X28933168Y-24381090D01*
X28914448Y-24394974D01*
X28894457Y-24406956D01*
X28873387Y-24416921D01*
X28851443Y-24424773D01*
X28828834Y-24430437D01*
X28805779Y-24433856D01*
X28782500Y-24435000D01*
X28207500Y-24435000D01*
X28184221Y-24433856D01*
X28161166Y-24430437D01*
X28138557Y-24424773D01*
X28116613Y-24416921D01*
X28095543Y-24406956D01*
X28075552Y-24394974D01*
X28056832Y-24381090D01*
X28039562Y-24365438D01*
X28023910Y-24348168D01*
X28010026Y-24329448D01*
X27998044Y-24309457D01*
X27988079Y-24288387D01*
X27980227Y-24266443D01*
X27974563Y-24243834D01*
X27971144Y-24220779D01*
X27970000Y-24197500D01*
X27970000Y-23722500D01*
X27971144Y-23699221D01*
X27974563Y-23676166D01*
X27980227Y-23653557D01*
X27988079Y-23631613D01*
X27998044Y-23610543D01*
X28010026Y-23590552D01*
X28023910Y-23571832D01*
X28039562Y-23554562D01*
X28056832Y-23538910D01*
X28075552Y-23525026D01*
X28095543Y-23513044D01*
X28116613Y-23503079D01*
X28138557Y-23495227D01*
X28161166Y-23489563D01*
X28184221Y-23486144D01*
X28207500Y-23485000D01*
X28782500Y-23485000D01*
X28805779Y-23486144D01*
X28805779Y-23486144D01*
G37*
D11*
X28495000Y-23960000D03*
D10*
G36*
X30555779Y-23486144D02*
G01*
X30578834Y-23489563D01*
X30601443Y-23495227D01*
X30623387Y-23503079D01*
X30644457Y-23513044D01*
X30664448Y-23525026D01*
X30683168Y-23538910D01*
X30700438Y-23554562D01*
X30716090Y-23571832D01*
X30729974Y-23590552D01*
X30741956Y-23610543D01*
X30751921Y-23631613D01*
X30759773Y-23653557D01*
X30765437Y-23676166D01*
X30768856Y-23699221D01*
X30770000Y-23722500D01*
X30770000Y-24197500D01*
X30768856Y-24220779D01*
X30765437Y-24243834D01*
X30759773Y-24266443D01*
X30751921Y-24288387D01*
X30741956Y-24309457D01*
X30729974Y-24329448D01*
X30716090Y-24348168D01*
X30700438Y-24365438D01*
X30683168Y-24381090D01*
X30664448Y-24394974D01*
X30644457Y-24406956D01*
X30623387Y-24416921D01*
X30601443Y-24424773D01*
X30578834Y-24430437D01*
X30555779Y-24433856D01*
X30532500Y-24435000D01*
X29957500Y-24435000D01*
X29934221Y-24433856D01*
X29911166Y-24430437D01*
X29888557Y-24424773D01*
X29866613Y-24416921D01*
X29845543Y-24406956D01*
X29825552Y-24394974D01*
X29806832Y-24381090D01*
X29789562Y-24365438D01*
X29773910Y-24348168D01*
X29760026Y-24329448D01*
X29748044Y-24309457D01*
X29738079Y-24288387D01*
X29730227Y-24266443D01*
X29724563Y-24243834D01*
X29721144Y-24220779D01*
X29720000Y-24197500D01*
X29720000Y-23722500D01*
X29721144Y-23699221D01*
X29724563Y-23676166D01*
X29730227Y-23653557D01*
X29738079Y-23631613D01*
X29748044Y-23610543D01*
X29760026Y-23590552D01*
X29773910Y-23571832D01*
X29789562Y-23554562D01*
X29806832Y-23538910D01*
X29825552Y-23525026D01*
X29845543Y-23513044D01*
X29866613Y-23503079D01*
X29888557Y-23495227D01*
X29911166Y-23489563D01*
X29934221Y-23486144D01*
X29957500Y-23485000D01*
X30532500Y-23485000D01*
X30555779Y-23486144D01*
X30555779Y-23486144D01*
G37*
D11*
X30245000Y-23960000D03*
D10*
G36*
X39811778Y-72523437D02*
G01*
X39834933Y-72526101D01*
X39857714Y-72531022D01*
X39879904Y-72538151D01*
X39901288Y-72547422D01*
X39921661Y-72558743D01*
X39940826Y-72572008D01*
X39958598Y-72587086D01*
X39974807Y-72603834D01*
X39989296Y-72622090D01*
X40001926Y-72641679D01*
X40239426Y-73053041D01*
X40250075Y-73073773D01*
X40258641Y-73095449D01*
X40265041Y-73117860D01*
X40269213Y-73140791D01*
X40271118Y-73164020D01*
X40270736Y-73187324D01*
X40268073Y-73210479D01*
X40263152Y-73233261D01*
X40256023Y-73255450D01*
X40246752Y-73276835D01*
X40235431Y-73297207D01*
X40222166Y-73316372D01*
X40207088Y-73334144D01*
X40190340Y-73350353D01*
X40172083Y-73364842D01*
X40152495Y-73377472D01*
X39654531Y-73664972D01*
X39633799Y-73675621D01*
X39612123Y-73684187D01*
X39589712Y-73690587D01*
X39566781Y-73694759D01*
X39543552Y-73696664D01*
X39520248Y-73696283D01*
X39497093Y-73693619D01*
X39474312Y-73688698D01*
X39452122Y-73681569D01*
X39430738Y-73672298D01*
X39410365Y-73660977D01*
X39391200Y-73647712D01*
X39373428Y-73632634D01*
X39357219Y-73615886D01*
X39342730Y-73597630D01*
X39330100Y-73578041D01*
X39092600Y-73166679D01*
X39081951Y-73145947D01*
X39073385Y-73124271D01*
X39066985Y-73101860D01*
X39062813Y-73078929D01*
X39060908Y-73055700D01*
X39061290Y-73032396D01*
X39063953Y-73009241D01*
X39068874Y-72986459D01*
X39076003Y-72964270D01*
X39085274Y-72942885D01*
X39096595Y-72922513D01*
X39109860Y-72903348D01*
X39124938Y-72885576D01*
X39141686Y-72869367D01*
X39159943Y-72854878D01*
X39179531Y-72842248D01*
X39677495Y-72554748D01*
X39698227Y-72544099D01*
X39719903Y-72535533D01*
X39742314Y-72529133D01*
X39765245Y-72524961D01*
X39788474Y-72523056D01*
X39811778Y-72523437D01*
X39811778Y-72523437D01*
G37*
D11*
X39666013Y-73109860D03*
D10*
G36*
X41327322Y-71648437D02*
G01*
X41350477Y-71651101D01*
X41373258Y-71656022D01*
X41395448Y-71663151D01*
X41416832Y-71672422D01*
X41437205Y-71683743D01*
X41456370Y-71697008D01*
X41474142Y-71712086D01*
X41490351Y-71728834D01*
X41504840Y-71747090D01*
X41517470Y-71766679D01*
X41754970Y-72178041D01*
X41765619Y-72198773D01*
X41774185Y-72220449D01*
X41780585Y-72242860D01*
X41784757Y-72265791D01*
X41786662Y-72289020D01*
X41786280Y-72312324D01*
X41783617Y-72335479D01*
X41778696Y-72358261D01*
X41771567Y-72380450D01*
X41762296Y-72401835D01*
X41750975Y-72422207D01*
X41737710Y-72441372D01*
X41722632Y-72459144D01*
X41705884Y-72475353D01*
X41687627Y-72489842D01*
X41668039Y-72502472D01*
X41170075Y-72789972D01*
X41149343Y-72800621D01*
X41127667Y-72809187D01*
X41105256Y-72815587D01*
X41082325Y-72819759D01*
X41059096Y-72821664D01*
X41035792Y-72821283D01*
X41012637Y-72818619D01*
X40989856Y-72813698D01*
X40967666Y-72806569D01*
X40946282Y-72797298D01*
X40925909Y-72785977D01*
X40906744Y-72772712D01*
X40888972Y-72757634D01*
X40872763Y-72740886D01*
X40858274Y-72722630D01*
X40845644Y-72703041D01*
X40608144Y-72291679D01*
X40597495Y-72270947D01*
X40588929Y-72249271D01*
X40582529Y-72226860D01*
X40578357Y-72203929D01*
X40576452Y-72180700D01*
X40576834Y-72157396D01*
X40579497Y-72134241D01*
X40584418Y-72111459D01*
X40591547Y-72089270D01*
X40600818Y-72067885D01*
X40612139Y-72047513D01*
X40625404Y-72028348D01*
X40640482Y-72010576D01*
X40657230Y-71994367D01*
X40675487Y-71979878D01*
X40695075Y-71967248D01*
X41193039Y-71679748D01*
X41213771Y-71669099D01*
X41235447Y-71660533D01*
X41257858Y-71654133D01*
X41280789Y-71649961D01*
X41304018Y-71648056D01*
X41327322Y-71648437D01*
X41327322Y-71648437D01*
G37*
D11*
X41181557Y-72234860D03*
D10*
G36*
X38367345Y-73351608D02*
G01*
X38390500Y-73354271D01*
X38413282Y-73359192D01*
X38435471Y-73366321D01*
X38456856Y-73375592D01*
X38477228Y-73386913D01*
X38496393Y-73400178D01*
X38514165Y-73415256D01*
X38530374Y-73432004D01*
X38544863Y-73450261D01*
X38557493Y-73469849D01*
X38844993Y-73967813D01*
X38855642Y-73988545D01*
X38864208Y-74010221D01*
X38870608Y-74032632D01*
X38874780Y-74055563D01*
X38876685Y-74078792D01*
X38876304Y-74102096D01*
X38873640Y-74125251D01*
X38868719Y-74148032D01*
X38861590Y-74170222D01*
X38852319Y-74191606D01*
X38840998Y-74211979D01*
X38827733Y-74231144D01*
X38812655Y-74248916D01*
X38795907Y-74265125D01*
X38777651Y-74279614D01*
X38758062Y-74292244D01*
X38346700Y-74529744D01*
X38325968Y-74540393D01*
X38304292Y-74548959D01*
X38281881Y-74555359D01*
X38258950Y-74559531D01*
X38235721Y-74561436D01*
X38212417Y-74561054D01*
X38189262Y-74558391D01*
X38166480Y-74553470D01*
X38144291Y-74546341D01*
X38122906Y-74537070D01*
X38102534Y-74525749D01*
X38083369Y-74512484D01*
X38065597Y-74497406D01*
X38049388Y-74480658D01*
X38034899Y-74462401D01*
X38022269Y-74442813D01*
X37734769Y-73944849D01*
X37724120Y-73924117D01*
X37715554Y-73902441D01*
X37709154Y-73880030D01*
X37704982Y-73857099D01*
X37703077Y-73833870D01*
X37703458Y-73810566D01*
X37706122Y-73787411D01*
X37711043Y-73764630D01*
X37718172Y-73742440D01*
X37727443Y-73721056D01*
X37738764Y-73700683D01*
X37752029Y-73681518D01*
X37767107Y-73663746D01*
X37783855Y-73647537D01*
X37802111Y-73633048D01*
X37821700Y-73620418D01*
X38233062Y-73382918D01*
X38253794Y-73372269D01*
X38275470Y-73363703D01*
X38297881Y-73357303D01*
X38320812Y-73353131D01*
X38344041Y-73351226D01*
X38367345Y-73351608D01*
X38367345Y-73351608D01*
G37*
D11*
X38289881Y-73956331D03*
D10*
G36*
X39242345Y-74867152D02*
G01*
X39265500Y-74869815D01*
X39288282Y-74874736D01*
X39310471Y-74881865D01*
X39331856Y-74891136D01*
X39352228Y-74902457D01*
X39371393Y-74915722D01*
X39389165Y-74930800D01*
X39405374Y-74947548D01*
X39419863Y-74965805D01*
X39432493Y-74985393D01*
X39719993Y-75483357D01*
X39730642Y-75504089D01*
X39739208Y-75525765D01*
X39745608Y-75548176D01*
X39749780Y-75571107D01*
X39751685Y-75594336D01*
X39751304Y-75617640D01*
X39748640Y-75640795D01*
X39743719Y-75663576D01*
X39736590Y-75685766D01*
X39727319Y-75707150D01*
X39715998Y-75727523D01*
X39702733Y-75746688D01*
X39687655Y-75764460D01*
X39670907Y-75780669D01*
X39652651Y-75795158D01*
X39633062Y-75807788D01*
X39221700Y-76045288D01*
X39200968Y-76055937D01*
X39179292Y-76064503D01*
X39156881Y-76070903D01*
X39133950Y-76075075D01*
X39110721Y-76076980D01*
X39087417Y-76076598D01*
X39064262Y-76073935D01*
X39041480Y-76069014D01*
X39019291Y-76061885D01*
X38997906Y-76052614D01*
X38977534Y-76041293D01*
X38958369Y-76028028D01*
X38940597Y-76012950D01*
X38924388Y-75996202D01*
X38909899Y-75977945D01*
X38897269Y-75958357D01*
X38609769Y-75460393D01*
X38599120Y-75439661D01*
X38590554Y-75417985D01*
X38584154Y-75395574D01*
X38579982Y-75372643D01*
X38578077Y-75349414D01*
X38578458Y-75326110D01*
X38581122Y-75302955D01*
X38586043Y-75280174D01*
X38593172Y-75257984D01*
X38602443Y-75236600D01*
X38613764Y-75216227D01*
X38627029Y-75197062D01*
X38642107Y-75179290D01*
X38658855Y-75163081D01*
X38677111Y-75148592D01*
X38696700Y-75135962D01*
X39108062Y-74898462D01*
X39128794Y-74887813D01*
X39150470Y-74879247D01*
X39172881Y-74872847D01*
X39195812Y-74868675D01*
X39219041Y-74866770D01*
X39242345Y-74867152D01*
X39242345Y-74867152D01*
G37*
D11*
X39164881Y-75471875D03*
D10*
G36*
X35158565Y-105644228D02*
G01*
X35181655Y-105647396D01*
X35204324Y-105652812D01*
X35226354Y-105660424D01*
X35247530Y-105670159D01*
X35267651Y-105681922D01*
X35286522Y-105695601D01*
X35303961Y-105711064D01*
X35319801Y-105728162D01*
X35625125Y-106092033D01*
X35639212Y-106110601D01*
X35651412Y-106130460D01*
X35661606Y-106151420D01*
X35669697Y-106173277D01*
X35675606Y-106195823D01*
X35679277Y-106218839D01*
X35680675Y-106242104D01*
X35679785Y-106265394D01*
X35676617Y-106288485D01*
X35671201Y-106311154D01*
X35663589Y-106333183D01*
X35653854Y-106354360D01*
X35642091Y-106374481D01*
X35628412Y-106393352D01*
X35612949Y-106410791D01*
X35595851Y-106426631D01*
X35155375Y-106796234D01*
X35136807Y-106810321D01*
X35116948Y-106822521D01*
X35095988Y-106832715D01*
X35074131Y-106840806D01*
X35051585Y-106846715D01*
X35028569Y-106850386D01*
X35005304Y-106851784D01*
X34982013Y-106850894D01*
X34958923Y-106847726D01*
X34936254Y-106842310D01*
X34914224Y-106834698D01*
X34893048Y-106824963D01*
X34872927Y-106813200D01*
X34854056Y-106799521D01*
X34836617Y-106784058D01*
X34820777Y-106766960D01*
X34515453Y-106403089D01*
X34501366Y-106384521D01*
X34489166Y-106364662D01*
X34478972Y-106343702D01*
X34470881Y-106321845D01*
X34464972Y-106299299D01*
X34461301Y-106276283D01*
X34459903Y-106253018D01*
X34460793Y-106229728D01*
X34463961Y-106206637D01*
X34469377Y-106183968D01*
X34476989Y-106161939D01*
X34486724Y-106140762D01*
X34498487Y-106120641D01*
X34512166Y-106101770D01*
X34527629Y-106084331D01*
X34544727Y-106068491D01*
X34985203Y-105698888D01*
X35003771Y-105684801D01*
X35023630Y-105672601D01*
X35044590Y-105662407D01*
X35066447Y-105654316D01*
X35088993Y-105648407D01*
X35112009Y-105644736D01*
X35135274Y-105643338D01*
X35158565Y-105644228D01*
X35158565Y-105644228D01*
G37*
D11*
X35070289Y-106247561D03*
D10*
G36*
X33817987Y-106769106D02*
G01*
X33841077Y-106772274D01*
X33863746Y-106777690D01*
X33885776Y-106785302D01*
X33906952Y-106795037D01*
X33927073Y-106806800D01*
X33945944Y-106820479D01*
X33963383Y-106835942D01*
X33979223Y-106853040D01*
X34284547Y-107216911D01*
X34298634Y-107235479D01*
X34310834Y-107255338D01*
X34321028Y-107276298D01*
X34329119Y-107298155D01*
X34335028Y-107320701D01*
X34338699Y-107343717D01*
X34340097Y-107366982D01*
X34339207Y-107390272D01*
X34336039Y-107413363D01*
X34330623Y-107436032D01*
X34323011Y-107458061D01*
X34313276Y-107479238D01*
X34301513Y-107499359D01*
X34287834Y-107518230D01*
X34272371Y-107535669D01*
X34255273Y-107551509D01*
X33814797Y-107921112D01*
X33796229Y-107935199D01*
X33776370Y-107947399D01*
X33755410Y-107957593D01*
X33733553Y-107965684D01*
X33711007Y-107971593D01*
X33687991Y-107975264D01*
X33664726Y-107976662D01*
X33641435Y-107975772D01*
X33618345Y-107972604D01*
X33595676Y-107967188D01*
X33573646Y-107959576D01*
X33552470Y-107949841D01*
X33532349Y-107938078D01*
X33513478Y-107924399D01*
X33496039Y-107908936D01*
X33480199Y-107891838D01*
X33174875Y-107527967D01*
X33160788Y-107509399D01*
X33148588Y-107489540D01*
X33138394Y-107468580D01*
X33130303Y-107446723D01*
X33124394Y-107424177D01*
X33120723Y-107401161D01*
X33119325Y-107377896D01*
X33120215Y-107354606D01*
X33123383Y-107331515D01*
X33128799Y-107308846D01*
X33136411Y-107286817D01*
X33146146Y-107265640D01*
X33157909Y-107245519D01*
X33171588Y-107226648D01*
X33187051Y-107209209D01*
X33204149Y-107193369D01*
X33644625Y-106823766D01*
X33663193Y-106809679D01*
X33683052Y-106797479D01*
X33704012Y-106787285D01*
X33725869Y-106779194D01*
X33748415Y-106773285D01*
X33771431Y-106769614D01*
X33794696Y-106768216D01*
X33817987Y-106769106D01*
X33817987Y-106769106D01*
G37*
D11*
X33729711Y-107372439D03*
D13*
X26900000Y-46420000D03*
X26900000Y-48620000D03*
D14*
X20793787Y-106327752D03*
D10*
G36*
X20590997Y-106038138D02*
G01*
X21083401Y-106124962D01*
X20996577Y-106617366D01*
X20504173Y-106530542D01*
X20590997Y-106038138D01*
X20590997Y-106038138D01*
G37*
D14*
X21175813Y-104161174D03*
D10*
G36*
X20973023Y-103871560D02*
G01*
X21465427Y-103958384D01*
X21378603Y-104450788D01*
X20886199Y-104363964D01*
X20973023Y-103871560D01*
X20973023Y-103871560D01*
G37*
D14*
X18824171Y-105980456D03*
D10*
G36*
X19026961Y-106270070D02*
G01*
X18534557Y-106183246D01*
X18621381Y-105690842D01*
X19113785Y-105777666D01*
X19026961Y-106270070D01*
X19026961Y-106270070D01*
G37*
D14*
X19206197Y-103813878D03*
D10*
G36*
X19408987Y-104103492D02*
G01*
X18916583Y-104016668D01*
X19003407Y-103524264D01*
X19495811Y-103611088D01*
X19408987Y-104103492D01*
X19408987Y-104103492D01*
G37*
G36*
X17945779Y-53876144D02*
G01*
X17968834Y-53879563D01*
X17991443Y-53885227D01*
X18013387Y-53893079D01*
X18034457Y-53903044D01*
X18054448Y-53915026D01*
X18073168Y-53928910D01*
X18090438Y-53944562D01*
X18106090Y-53961832D01*
X18119974Y-53980552D01*
X18131956Y-54000543D01*
X18141921Y-54021613D01*
X18149773Y-54043557D01*
X18155437Y-54066166D01*
X18158856Y-54089221D01*
X18160000Y-54112500D01*
X18160000Y-54587500D01*
X18158856Y-54610779D01*
X18155437Y-54633834D01*
X18149773Y-54656443D01*
X18141921Y-54678387D01*
X18131956Y-54699457D01*
X18119974Y-54719448D01*
X18106090Y-54738168D01*
X18090438Y-54755438D01*
X18073168Y-54771090D01*
X18054448Y-54784974D01*
X18034457Y-54796956D01*
X18013387Y-54806921D01*
X17991443Y-54814773D01*
X17968834Y-54820437D01*
X17945779Y-54823856D01*
X17922500Y-54825000D01*
X17347500Y-54825000D01*
X17324221Y-54823856D01*
X17301166Y-54820437D01*
X17278557Y-54814773D01*
X17256613Y-54806921D01*
X17235543Y-54796956D01*
X17215552Y-54784974D01*
X17196832Y-54771090D01*
X17179562Y-54755438D01*
X17163910Y-54738168D01*
X17150026Y-54719448D01*
X17138044Y-54699457D01*
X17128079Y-54678387D01*
X17120227Y-54656443D01*
X17114563Y-54633834D01*
X17111144Y-54610779D01*
X17110000Y-54587500D01*
X17110000Y-54112500D01*
X17111144Y-54089221D01*
X17114563Y-54066166D01*
X17120227Y-54043557D01*
X17128079Y-54021613D01*
X17138044Y-54000543D01*
X17150026Y-53980552D01*
X17163910Y-53961832D01*
X17179562Y-53944562D01*
X17196832Y-53928910D01*
X17215552Y-53915026D01*
X17235543Y-53903044D01*
X17256613Y-53893079D01*
X17278557Y-53885227D01*
X17301166Y-53879563D01*
X17324221Y-53876144D01*
X17347500Y-53875000D01*
X17922500Y-53875000D01*
X17945779Y-53876144D01*
X17945779Y-53876144D01*
G37*
D11*
X17635000Y-54350000D03*
D10*
G36*
X16195779Y-53876144D02*
G01*
X16218834Y-53879563D01*
X16241443Y-53885227D01*
X16263387Y-53893079D01*
X16284457Y-53903044D01*
X16304448Y-53915026D01*
X16323168Y-53928910D01*
X16340438Y-53944562D01*
X16356090Y-53961832D01*
X16369974Y-53980552D01*
X16381956Y-54000543D01*
X16391921Y-54021613D01*
X16399773Y-54043557D01*
X16405437Y-54066166D01*
X16408856Y-54089221D01*
X16410000Y-54112500D01*
X16410000Y-54587500D01*
X16408856Y-54610779D01*
X16405437Y-54633834D01*
X16399773Y-54656443D01*
X16391921Y-54678387D01*
X16381956Y-54699457D01*
X16369974Y-54719448D01*
X16356090Y-54738168D01*
X16340438Y-54755438D01*
X16323168Y-54771090D01*
X16304448Y-54784974D01*
X16284457Y-54796956D01*
X16263387Y-54806921D01*
X16241443Y-54814773D01*
X16218834Y-54820437D01*
X16195779Y-54823856D01*
X16172500Y-54825000D01*
X15597500Y-54825000D01*
X15574221Y-54823856D01*
X15551166Y-54820437D01*
X15528557Y-54814773D01*
X15506613Y-54806921D01*
X15485543Y-54796956D01*
X15465552Y-54784974D01*
X15446832Y-54771090D01*
X15429562Y-54755438D01*
X15413910Y-54738168D01*
X15400026Y-54719448D01*
X15388044Y-54699457D01*
X15378079Y-54678387D01*
X15370227Y-54656443D01*
X15364563Y-54633834D01*
X15361144Y-54610779D01*
X15360000Y-54587500D01*
X15360000Y-54112500D01*
X15361144Y-54089221D01*
X15364563Y-54066166D01*
X15370227Y-54043557D01*
X15378079Y-54021613D01*
X15388044Y-54000543D01*
X15400026Y-53980552D01*
X15413910Y-53961832D01*
X15429562Y-53944562D01*
X15446832Y-53928910D01*
X15465552Y-53915026D01*
X15485543Y-53903044D01*
X15506613Y-53893079D01*
X15528557Y-53885227D01*
X15551166Y-53879563D01*
X15574221Y-53876144D01*
X15597500Y-53875000D01*
X16172500Y-53875000D01*
X16195779Y-53876144D01*
X16195779Y-53876144D01*
G37*
D11*
X15885000Y-54350000D03*
D10*
G36*
X16195779Y-55406144D02*
G01*
X16218834Y-55409563D01*
X16241443Y-55415227D01*
X16263387Y-55423079D01*
X16284457Y-55433044D01*
X16304448Y-55445026D01*
X16323168Y-55458910D01*
X16340438Y-55474562D01*
X16356090Y-55491832D01*
X16369974Y-55510552D01*
X16381956Y-55530543D01*
X16391921Y-55551613D01*
X16399773Y-55573557D01*
X16405437Y-55596166D01*
X16408856Y-55619221D01*
X16410000Y-55642500D01*
X16410000Y-56117500D01*
X16408856Y-56140779D01*
X16405437Y-56163834D01*
X16399773Y-56186443D01*
X16391921Y-56208387D01*
X16381956Y-56229457D01*
X16369974Y-56249448D01*
X16356090Y-56268168D01*
X16340438Y-56285438D01*
X16323168Y-56301090D01*
X16304448Y-56314974D01*
X16284457Y-56326956D01*
X16263387Y-56336921D01*
X16241443Y-56344773D01*
X16218834Y-56350437D01*
X16195779Y-56353856D01*
X16172500Y-56355000D01*
X15597500Y-56355000D01*
X15574221Y-56353856D01*
X15551166Y-56350437D01*
X15528557Y-56344773D01*
X15506613Y-56336921D01*
X15485543Y-56326956D01*
X15465552Y-56314974D01*
X15446832Y-56301090D01*
X15429562Y-56285438D01*
X15413910Y-56268168D01*
X15400026Y-56249448D01*
X15388044Y-56229457D01*
X15378079Y-56208387D01*
X15370227Y-56186443D01*
X15364563Y-56163834D01*
X15361144Y-56140779D01*
X15360000Y-56117500D01*
X15360000Y-55642500D01*
X15361144Y-55619221D01*
X15364563Y-55596166D01*
X15370227Y-55573557D01*
X15378079Y-55551613D01*
X15388044Y-55530543D01*
X15400026Y-55510552D01*
X15413910Y-55491832D01*
X15429562Y-55474562D01*
X15446832Y-55458910D01*
X15465552Y-55445026D01*
X15485543Y-55433044D01*
X15506613Y-55423079D01*
X15528557Y-55415227D01*
X15551166Y-55409563D01*
X15574221Y-55406144D01*
X15597500Y-55405000D01*
X16172500Y-55405000D01*
X16195779Y-55406144D01*
X16195779Y-55406144D01*
G37*
D11*
X15885000Y-55880000D03*
D10*
G36*
X17945779Y-55406144D02*
G01*
X17968834Y-55409563D01*
X17991443Y-55415227D01*
X18013387Y-55423079D01*
X18034457Y-55433044D01*
X18054448Y-55445026D01*
X18073168Y-55458910D01*
X18090438Y-55474562D01*
X18106090Y-55491832D01*
X18119974Y-55510552D01*
X18131956Y-55530543D01*
X18141921Y-55551613D01*
X18149773Y-55573557D01*
X18155437Y-55596166D01*
X18158856Y-55619221D01*
X18160000Y-55642500D01*
X18160000Y-56117500D01*
X18158856Y-56140779D01*
X18155437Y-56163834D01*
X18149773Y-56186443D01*
X18141921Y-56208387D01*
X18131956Y-56229457D01*
X18119974Y-56249448D01*
X18106090Y-56268168D01*
X18090438Y-56285438D01*
X18073168Y-56301090D01*
X18054448Y-56314974D01*
X18034457Y-56326956D01*
X18013387Y-56336921D01*
X17991443Y-56344773D01*
X17968834Y-56350437D01*
X17945779Y-56353856D01*
X17922500Y-56355000D01*
X17347500Y-56355000D01*
X17324221Y-56353856D01*
X17301166Y-56350437D01*
X17278557Y-56344773D01*
X17256613Y-56336921D01*
X17235543Y-56326956D01*
X17215552Y-56314974D01*
X17196832Y-56301090D01*
X17179562Y-56285438D01*
X17163910Y-56268168D01*
X17150026Y-56249448D01*
X17138044Y-56229457D01*
X17128079Y-56208387D01*
X17120227Y-56186443D01*
X17114563Y-56163834D01*
X17111144Y-56140779D01*
X17110000Y-56117500D01*
X17110000Y-55642500D01*
X17111144Y-55619221D01*
X17114563Y-55596166D01*
X17120227Y-55573557D01*
X17128079Y-55551613D01*
X17138044Y-55530543D01*
X17150026Y-55510552D01*
X17163910Y-55491832D01*
X17179562Y-55474562D01*
X17196832Y-55458910D01*
X17215552Y-55445026D01*
X17235543Y-55433044D01*
X17256613Y-55423079D01*
X17278557Y-55415227D01*
X17301166Y-55409563D01*
X17324221Y-55406144D01*
X17347500Y-55405000D01*
X17922500Y-55405000D01*
X17945779Y-55406144D01*
X17945779Y-55406144D01*
G37*
D11*
X17635000Y-55880000D03*
D10*
G36*
X17930779Y-56956144D02*
G01*
X17953834Y-56959563D01*
X17976443Y-56965227D01*
X17998387Y-56973079D01*
X18019457Y-56983044D01*
X18039448Y-56995026D01*
X18058168Y-57008910D01*
X18075438Y-57024562D01*
X18091090Y-57041832D01*
X18104974Y-57060552D01*
X18116956Y-57080543D01*
X18126921Y-57101613D01*
X18134773Y-57123557D01*
X18140437Y-57146166D01*
X18143856Y-57169221D01*
X18145000Y-57192500D01*
X18145000Y-57667500D01*
X18143856Y-57690779D01*
X18140437Y-57713834D01*
X18134773Y-57736443D01*
X18126921Y-57758387D01*
X18116956Y-57779457D01*
X18104974Y-57799448D01*
X18091090Y-57818168D01*
X18075438Y-57835438D01*
X18058168Y-57851090D01*
X18039448Y-57864974D01*
X18019457Y-57876956D01*
X17998387Y-57886921D01*
X17976443Y-57894773D01*
X17953834Y-57900437D01*
X17930779Y-57903856D01*
X17907500Y-57905000D01*
X17332500Y-57905000D01*
X17309221Y-57903856D01*
X17286166Y-57900437D01*
X17263557Y-57894773D01*
X17241613Y-57886921D01*
X17220543Y-57876956D01*
X17200552Y-57864974D01*
X17181832Y-57851090D01*
X17164562Y-57835438D01*
X17148910Y-57818168D01*
X17135026Y-57799448D01*
X17123044Y-57779457D01*
X17113079Y-57758387D01*
X17105227Y-57736443D01*
X17099563Y-57713834D01*
X17096144Y-57690779D01*
X17095000Y-57667500D01*
X17095000Y-57192500D01*
X17096144Y-57169221D01*
X17099563Y-57146166D01*
X17105227Y-57123557D01*
X17113079Y-57101613D01*
X17123044Y-57080543D01*
X17135026Y-57060552D01*
X17148910Y-57041832D01*
X17164562Y-57024562D01*
X17181832Y-57008910D01*
X17200552Y-56995026D01*
X17220543Y-56983044D01*
X17241613Y-56973079D01*
X17263557Y-56965227D01*
X17286166Y-56959563D01*
X17309221Y-56956144D01*
X17332500Y-56955000D01*
X17907500Y-56955000D01*
X17930779Y-56956144D01*
X17930779Y-56956144D01*
G37*
D11*
X17620000Y-57430000D03*
D10*
G36*
X16180779Y-56956144D02*
G01*
X16203834Y-56959563D01*
X16226443Y-56965227D01*
X16248387Y-56973079D01*
X16269457Y-56983044D01*
X16289448Y-56995026D01*
X16308168Y-57008910D01*
X16325438Y-57024562D01*
X16341090Y-57041832D01*
X16354974Y-57060552D01*
X16366956Y-57080543D01*
X16376921Y-57101613D01*
X16384773Y-57123557D01*
X16390437Y-57146166D01*
X16393856Y-57169221D01*
X16395000Y-57192500D01*
X16395000Y-57667500D01*
X16393856Y-57690779D01*
X16390437Y-57713834D01*
X16384773Y-57736443D01*
X16376921Y-57758387D01*
X16366956Y-57779457D01*
X16354974Y-57799448D01*
X16341090Y-57818168D01*
X16325438Y-57835438D01*
X16308168Y-57851090D01*
X16289448Y-57864974D01*
X16269457Y-57876956D01*
X16248387Y-57886921D01*
X16226443Y-57894773D01*
X16203834Y-57900437D01*
X16180779Y-57903856D01*
X16157500Y-57905000D01*
X15582500Y-57905000D01*
X15559221Y-57903856D01*
X15536166Y-57900437D01*
X15513557Y-57894773D01*
X15491613Y-57886921D01*
X15470543Y-57876956D01*
X15450552Y-57864974D01*
X15431832Y-57851090D01*
X15414562Y-57835438D01*
X15398910Y-57818168D01*
X15385026Y-57799448D01*
X15373044Y-57779457D01*
X15363079Y-57758387D01*
X15355227Y-57736443D01*
X15349563Y-57713834D01*
X15346144Y-57690779D01*
X15345000Y-57667500D01*
X15345000Y-57192500D01*
X15346144Y-57169221D01*
X15349563Y-57146166D01*
X15355227Y-57123557D01*
X15363079Y-57101613D01*
X15373044Y-57080543D01*
X15385026Y-57060552D01*
X15398910Y-57041832D01*
X15414562Y-57024562D01*
X15431832Y-57008910D01*
X15450552Y-56995026D01*
X15470543Y-56983044D01*
X15491613Y-56973079D01*
X15513557Y-56965227D01*
X15536166Y-56959563D01*
X15559221Y-56956144D01*
X15582500Y-56955000D01*
X16157500Y-56955000D01*
X16180779Y-56956144D01*
X16180779Y-56956144D01*
G37*
D11*
X15870000Y-57430000D03*
D10*
G36*
X16080779Y-43881144D02*
G01*
X16103834Y-43884563D01*
X16126443Y-43890227D01*
X16148387Y-43898079D01*
X16169457Y-43908044D01*
X16189448Y-43920026D01*
X16208168Y-43933910D01*
X16225438Y-43949562D01*
X16241090Y-43966832D01*
X16254974Y-43985552D01*
X16266956Y-44005543D01*
X16276921Y-44026613D01*
X16284773Y-44048557D01*
X16290437Y-44071166D01*
X16293856Y-44094221D01*
X16295000Y-44117500D01*
X16295000Y-44692500D01*
X16293856Y-44715779D01*
X16290437Y-44738834D01*
X16284773Y-44761443D01*
X16276921Y-44783387D01*
X16266956Y-44804457D01*
X16254974Y-44824448D01*
X16241090Y-44843168D01*
X16225438Y-44860438D01*
X16208168Y-44876090D01*
X16189448Y-44889974D01*
X16169457Y-44901956D01*
X16148387Y-44911921D01*
X16126443Y-44919773D01*
X16103834Y-44925437D01*
X16080779Y-44928856D01*
X16057500Y-44930000D01*
X15582500Y-44930000D01*
X15559221Y-44928856D01*
X15536166Y-44925437D01*
X15513557Y-44919773D01*
X15491613Y-44911921D01*
X15470543Y-44901956D01*
X15450552Y-44889974D01*
X15431832Y-44876090D01*
X15414562Y-44860438D01*
X15398910Y-44843168D01*
X15385026Y-44824448D01*
X15373044Y-44804457D01*
X15363079Y-44783387D01*
X15355227Y-44761443D01*
X15349563Y-44738834D01*
X15346144Y-44715779D01*
X15345000Y-44692500D01*
X15345000Y-44117500D01*
X15346144Y-44094221D01*
X15349563Y-44071166D01*
X15355227Y-44048557D01*
X15363079Y-44026613D01*
X15373044Y-44005543D01*
X15385026Y-43985552D01*
X15398910Y-43966832D01*
X15414562Y-43949562D01*
X15431832Y-43933910D01*
X15450552Y-43920026D01*
X15470543Y-43908044D01*
X15491613Y-43898079D01*
X15513557Y-43890227D01*
X15536166Y-43884563D01*
X15559221Y-43881144D01*
X15582500Y-43880000D01*
X16057500Y-43880000D01*
X16080779Y-43881144D01*
X16080779Y-43881144D01*
G37*
D11*
X15820000Y-44405000D03*
D10*
G36*
X16080779Y-45631144D02*
G01*
X16103834Y-45634563D01*
X16126443Y-45640227D01*
X16148387Y-45648079D01*
X16169457Y-45658044D01*
X16189448Y-45670026D01*
X16208168Y-45683910D01*
X16225438Y-45699562D01*
X16241090Y-45716832D01*
X16254974Y-45735552D01*
X16266956Y-45755543D01*
X16276921Y-45776613D01*
X16284773Y-45798557D01*
X16290437Y-45821166D01*
X16293856Y-45844221D01*
X16295000Y-45867500D01*
X16295000Y-46442500D01*
X16293856Y-46465779D01*
X16290437Y-46488834D01*
X16284773Y-46511443D01*
X16276921Y-46533387D01*
X16266956Y-46554457D01*
X16254974Y-46574448D01*
X16241090Y-46593168D01*
X16225438Y-46610438D01*
X16208168Y-46626090D01*
X16189448Y-46639974D01*
X16169457Y-46651956D01*
X16148387Y-46661921D01*
X16126443Y-46669773D01*
X16103834Y-46675437D01*
X16080779Y-46678856D01*
X16057500Y-46680000D01*
X15582500Y-46680000D01*
X15559221Y-46678856D01*
X15536166Y-46675437D01*
X15513557Y-46669773D01*
X15491613Y-46661921D01*
X15470543Y-46651956D01*
X15450552Y-46639974D01*
X15431832Y-46626090D01*
X15414562Y-46610438D01*
X15398910Y-46593168D01*
X15385026Y-46574448D01*
X15373044Y-46554457D01*
X15363079Y-46533387D01*
X15355227Y-46511443D01*
X15349563Y-46488834D01*
X15346144Y-46465779D01*
X15345000Y-46442500D01*
X15345000Y-45867500D01*
X15346144Y-45844221D01*
X15349563Y-45821166D01*
X15355227Y-45798557D01*
X15363079Y-45776613D01*
X15373044Y-45755543D01*
X15385026Y-45735552D01*
X15398910Y-45716832D01*
X15414562Y-45699562D01*
X15431832Y-45683910D01*
X15450552Y-45670026D01*
X15470543Y-45658044D01*
X15491613Y-45648079D01*
X15513557Y-45640227D01*
X15536166Y-45634563D01*
X15559221Y-45631144D01*
X15582500Y-45630000D01*
X16057500Y-45630000D01*
X16080779Y-45631144D01*
X16080779Y-45631144D01*
G37*
D11*
X15820000Y-46155000D03*
D10*
G36*
X15675779Y-47266144D02*
G01*
X15698834Y-47269563D01*
X15721443Y-47275227D01*
X15743387Y-47283079D01*
X15764457Y-47293044D01*
X15784448Y-47305026D01*
X15803168Y-47318910D01*
X15820438Y-47334562D01*
X15836090Y-47351832D01*
X15849974Y-47370552D01*
X15861956Y-47390543D01*
X15871921Y-47411613D01*
X15879773Y-47433557D01*
X15885437Y-47456166D01*
X15888856Y-47479221D01*
X15890000Y-47502500D01*
X15890000Y-47977500D01*
X15888856Y-48000779D01*
X15885437Y-48023834D01*
X15879773Y-48046443D01*
X15871921Y-48068387D01*
X15861956Y-48089457D01*
X15849974Y-48109448D01*
X15836090Y-48128168D01*
X15820438Y-48145438D01*
X15803168Y-48161090D01*
X15784448Y-48174974D01*
X15764457Y-48186956D01*
X15743387Y-48196921D01*
X15721443Y-48204773D01*
X15698834Y-48210437D01*
X15675779Y-48213856D01*
X15652500Y-48215000D01*
X15077500Y-48215000D01*
X15054221Y-48213856D01*
X15031166Y-48210437D01*
X15008557Y-48204773D01*
X14986613Y-48196921D01*
X14965543Y-48186956D01*
X14945552Y-48174974D01*
X14926832Y-48161090D01*
X14909562Y-48145438D01*
X14893910Y-48128168D01*
X14880026Y-48109448D01*
X14868044Y-48089457D01*
X14858079Y-48068387D01*
X14850227Y-48046443D01*
X14844563Y-48023834D01*
X14841144Y-48000779D01*
X14840000Y-47977500D01*
X14840000Y-47502500D01*
X14841144Y-47479221D01*
X14844563Y-47456166D01*
X14850227Y-47433557D01*
X14858079Y-47411613D01*
X14868044Y-47390543D01*
X14880026Y-47370552D01*
X14893910Y-47351832D01*
X14909562Y-47334562D01*
X14926832Y-47318910D01*
X14945552Y-47305026D01*
X14965543Y-47293044D01*
X14986613Y-47283079D01*
X15008557Y-47275227D01*
X15031166Y-47269563D01*
X15054221Y-47266144D01*
X15077500Y-47265000D01*
X15652500Y-47265000D01*
X15675779Y-47266144D01*
X15675779Y-47266144D01*
G37*
D11*
X15365000Y-47740000D03*
D10*
G36*
X17425779Y-47266144D02*
G01*
X17448834Y-47269563D01*
X17471443Y-47275227D01*
X17493387Y-47283079D01*
X17514457Y-47293044D01*
X17534448Y-47305026D01*
X17553168Y-47318910D01*
X17570438Y-47334562D01*
X17586090Y-47351832D01*
X17599974Y-47370552D01*
X17611956Y-47390543D01*
X17621921Y-47411613D01*
X17629773Y-47433557D01*
X17635437Y-47456166D01*
X17638856Y-47479221D01*
X17640000Y-47502500D01*
X17640000Y-47977500D01*
X17638856Y-48000779D01*
X17635437Y-48023834D01*
X17629773Y-48046443D01*
X17621921Y-48068387D01*
X17611956Y-48089457D01*
X17599974Y-48109448D01*
X17586090Y-48128168D01*
X17570438Y-48145438D01*
X17553168Y-48161090D01*
X17534448Y-48174974D01*
X17514457Y-48186956D01*
X17493387Y-48196921D01*
X17471443Y-48204773D01*
X17448834Y-48210437D01*
X17425779Y-48213856D01*
X17402500Y-48215000D01*
X16827500Y-48215000D01*
X16804221Y-48213856D01*
X16781166Y-48210437D01*
X16758557Y-48204773D01*
X16736613Y-48196921D01*
X16715543Y-48186956D01*
X16695552Y-48174974D01*
X16676832Y-48161090D01*
X16659562Y-48145438D01*
X16643910Y-48128168D01*
X16630026Y-48109448D01*
X16618044Y-48089457D01*
X16608079Y-48068387D01*
X16600227Y-48046443D01*
X16594563Y-48023834D01*
X16591144Y-48000779D01*
X16590000Y-47977500D01*
X16590000Y-47502500D01*
X16591144Y-47479221D01*
X16594563Y-47456166D01*
X16600227Y-47433557D01*
X16608079Y-47411613D01*
X16618044Y-47390543D01*
X16630026Y-47370552D01*
X16643910Y-47351832D01*
X16659562Y-47334562D01*
X16676832Y-47318910D01*
X16695552Y-47305026D01*
X16715543Y-47293044D01*
X16736613Y-47283079D01*
X16758557Y-47275227D01*
X16781166Y-47269563D01*
X16804221Y-47266144D01*
X16827500Y-47265000D01*
X17402500Y-47265000D01*
X17425779Y-47266144D01*
X17425779Y-47266144D01*
G37*
D11*
X17115000Y-47740000D03*
D10*
G36*
X17860779Y-45601144D02*
G01*
X17883834Y-45604563D01*
X17906443Y-45610227D01*
X17928387Y-45618079D01*
X17949457Y-45628044D01*
X17969448Y-45640026D01*
X17988168Y-45653910D01*
X18005438Y-45669562D01*
X18021090Y-45686832D01*
X18034974Y-45705552D01*
X18046956Y-45725543D01*
X18056921Y-45746613D01*
X18064773Y-45768557D01*
X18070437Y-45791166D01*
X18073856Y-45814221D01*
X18075000Y-45837500D01*
X18075000Y-46412500D01*
X18073856Y-46435779D01*
X18070437Y-46458834D01*
X18064773Y-46481443D01*
X18056921Y-46503387D01*
X18046956Y-46524457D01*
X18034974Y-46544448D01*
X18021090Y-46563168D01*
X18005438Y-46580438D01*
X17988168Y-46596090D01*
X17969448Y-46609974D01*
X17949457Y-46621956D01*
X17928387Y-46631921D01*
X17906443Y-46639773D01*
X17883834Y-46645437D01*
X17860779Y-46648856D01*
X17837500Y-46650000D01*
X17362500Y-46650000D01*
X17339221Y-46648856D01*
X17316166Y-46645437D01*
X17293557Y-46639773D01*
X17271613Y-46631921D01*
X17250543Y-46621956D01*
X17230552Y-46609974D01*
X17211832Y-46596090D01*
X17194562Y-46580438D01*
X17178910Y-46563168D01*
X17165026Y-46544448D01*
X17153044Y-46524457D01*
X17143079Y-46503387D01*
X17135227Y-46481443D01*
X17129563Y-46458834D01*
X17126144Y-46435779D01*
X17125000Y-46412500D01*
X17125000Y-45837500D01*
X17126144Y-45814221D01*
X17129563Y-45791166D01*
X17135227Y-45768557D01*
X17143079Y-45746613D01*
X17153044Y-45725543D01*
X17165026Y-45705552D01*
X17178910Y-45686832D01*
X17194562Y-45669562D01*
X17211832Y-45653910D01*
X17230552Y-45640026D01*
X17250543Y-45628044D01*
X17271613Y-45618079D01*
X17293557Y-45610227D01*
X17316166Y-45604563D01*
X17339221Y-45601144D01*
X17362500Y-45600000D01*
X17837500Y-45600000D01*
X17860779Y-45601144D01*
X17860779Y-45601144D01*
G37*
D11*
X17600000Y-46125000D03*
D10*
G36*
X17860779Y-43851144D02*
G01*
X17883834Y-43854563D01*
X17906443Y-43860227D01*
X17928387Y-43868079D01*
X17949457Y-43878044D01*
X17969448Y-43890026D01*
X17988168Y-43903910D01*
X18005438Y-43919562D01*
X18021090Y-43936832D01*
X18034974Y-43955552D01*
X18046956Y-43975543D01*
X18056921Y-43996613D01*
X18064773Y-44018557D01*
X18070437Y-44041166D01*
X18073856Y-44064221D01*
X18075000Y-44087500D01*
X18075000Y-44662500D01*
X18073856Y-44685779D01*
X18070437Y-44708834D01*
X18064773Y-44731443D01*
X18056921Y-44753387D01*
X18046956Y-44774457D01*
X18034974Y-44794448D01*
X18021090Y-44813168D01*
X18005438Y-44830438D01*
X17988168Y-44846090D01*
X17969448Y-44859974D01*
X17949457Y-44871956D01*
X17928387Y-44881921D01*
X17906443Y-44889773D01*
X17883834Y-44895437D01*
X17860779Y-44898856D01*
X17837500Y-44900000D01*
X17362500Y-44900000D01*
X17339221Y-44898856D01*
X17316166Y-44895437D01*
X17293557Y-44889773D01*
X17271613Y-44881921D01*
X17250543Y-44871956D01*
X17230552Y-44859974D01*
X17211832Y-44846090D01*
X17194562Y-44830438D01*
X17178910Y-44813168D01*
X17165026Y-44794448D01*
X17153044Y-44774457D01*
X17143079Y-44753387D01*
X17135227Y-44731443D01*
X17129563Y-44708834D01*
X17126144Y-44685779D01*
X17125000Y-44662500D01*
X17125000Y-44087500D01*
X17126144Y-44064221D01*
X17129563Y-44041166D01*
X17135227Y-44018557D01*
X17143079Y-43996613D01*
X17153044Y-43975543D01*
X17165026Y-43955552D01*
X17178910Y-43936832D01*
X17194562Y-43919562D01*
X17211832Y-43903910D01*
X17230552Y-43890026D01*
X17250543Y-43878044D01*
X17271613Y-43868079D01*
X17293557Y-43860227D01*
X17316166Y-43854563D01*
X17339221Y-43851144D01*
X17362500Y-43850000D01*
X17837500Y-43850000D01*
X17860779Y-43851144D01*
X17860779Y-43851144D01*
G37*
D11*
X17600000Y-44375000D03*
D10*
G36*
X21245779Y-44616144D02*
G01*
X21268834Y-44619563D01*
X21291443Y-44625227D01*
X21313387Y-44633079D01*
X21334457Y-44643044D01*
X21354448Y-44655026D01*
X21373168Y-44668910D01*
X21390438Y-44684562D01*
X21406090Y-44701832D01*
X21419974Y-44720552D01*
X21431956Y-44740543D01*
X21441921Y-44761613D01*
X21449773Y-44783557D01*
X21455437Y-44806166D01*
X21458856Y-44829221D01*
X21460000Y-44852500D01*
X21460000Y-45327500D01*
X21458856Y-45350779D01*
X21455437Y-45373834D01*
X21449773Y-45396443D01*
X21441921Y-45418387D01*
X21431956Y-45439457D01*
X21419974Y-45459448D01*
X21406090Y-45478168D01*
X21390438Y-45495438D01*
X21373168Y-45511090D01*
X21354448Y-45524974D01*
X21334457Y-45536956D01*
X21313387Y-45546921D01*
X21291443Y-45554773D01*
X21268834Y-45560437D01*
X21245779Y-45563856D01*
X21222500Y-45565000D01*
X20647500Y-45565000D01*
X20624221Y-45563856D01*
X20601166Y-45560437D01*
X20578557Y-45554773D01*
X20556613Y-45546921D01*
X20535543Y-45536956D01*
X20515552Y-45524974D01*
X20496832Y-45511090D01*
X20479562Y-45495438D01*
X20463910Y-45478168D01*
X20450026Y-45459448D01*
X20438044Y-45439457D01*
X20428079Y-45418387D01*
X20420227Y-45396443D01*
X20414563Y-45373834D01*
X20411144Y-45350779D01*
X20410000Y-45327500D01*
X20410000Y-44852500D01*
X20411144Y-44829221D01*
X20414563Y-44806166D01*
X20420227Y-44783557D01*
X20428079Y-44761613D01*
X20438044Y-44740543D01*
X20450026Y-44720552D01*
X20463910Y-44701832D01*
X20479562Y-44684562D01*
X20496832Y-44668910D01*
X20515552Y-44655026D01*
X20535543Y-44643044D01*
X20556613Y-44633079D01*
X20578557Y-44625227D01*
X20601166Y-44619563D01*
X20624221Y-44616144D01*
X20647500Y-44615000D01*
X21222500Y-44615000D01*
X21245779Y-44616144D01*
X21245779Y-44616144D01*
G37*
D11*
X20935000Y-45090000D03*
D10*
G36*
X19495779Y-44616144D02*
G01*
X19518834Y-44619563D01*
X19541443Y-44625227D01*
X19563387Y-44633079D01*
X19584457Y-44643044D01*
X19604448Y-44655026D01*
X19623168Y-44668910D01*
X19640438Y-44684562D01*
X19656090Y-44701832D01*
X19669974Y-44720552D01*
X19681956Y-44740543D01*
X19691921Y-44761613D01*
X19699773Y-44783557D01*
X19705437Y-44806166D01*
X19708856Y-44829221D01*
X19710000Y-44852500D01*
X19710000Y-45327500D01*
X19708856Y-45350779D01*
X19705437Y-45373834D01*
X19699773Y-45396443D01*
X19691921Y-45418387D01*
X19681956Y-45439457D01*
X19669974Y-45459448D01*
X19656090Y-45478168D01*
X19640438Y-45495438D01*
X19623168Y-45511090D01*
X19604448Y-45524974D01*
X19584457Y-45536956D01*
X19563387Y-45546921D01*
X19541443Y-45554773D01*
X19518834Y-45560437D01*
X19495779Y-45563856D01*
X19472500Y-45565000D01*
X18897500Y-45565000D01*
X18874221Y-45563856D01*
X18851166Y-45560437D01*
X18828557Y-45554773D01*
X18806613Y-45546921D01*
X18785543Y-45536956D01*
X18765552Y-45524974D01*
X18746832Y-45511090D01*
X18729562Y-45495438D01*
X18713910Y-45478168D01*
X18700026Y-45459448D01*
X18688044Y-45439457D01*
X18678079Y-45418387D01*
X18670227Y-45396443D01*
X18664563Y-45373834D01*
X18661144Y-45350779D01*
X18660000Y-45327500D01*
X18660000Y-44852500D01*
X18661144Y-44829221D01*
X18664563Y-44806166D01*
X18670227Y-44783557D01*
X18678079Y-44761613D01*
X18688044Y-44740543D01*
X18700026Y-44720552D01*
X18713910Y-44701832D01*
X18729562Y-44684562D01*
X18746832Y-44668910D01*
X18765552Y-44655026D01*
X18785543Y-44643044D01*
X18806613Y-44633079D01*
X18828557Y-44625227D01*
X18851166Y-44619563D01*
X18874221Y-44616144D01*
X18897500Y-44615000D01*
X19472500Y-44615000D01*
X19495779Y-44616144D01*
X19495779Y-44616144D01*
G37*
D11*
X19185000Y-45090000D03*
D10*
G36*
X21305779Y-55426144D02*
G01*
X21328834Y-55429563D01*
X21351443Y-55435227D01*
X21373387Y-55443079D01*
X21394457Y-55453044D01*
X21414448Y-55465026D01*
X21433168Y-55478910D01*
X21450438Y-55494562D01*
X21466090Y-55511832D01*
X21479974Y-55530552D01*
X21491956Y-55550543D01*
X21501921Y-55571613D01*
X21509773Y-55593557D01*
X21515437Y-55616166D01*
X21518856Y-55639221D01*
X21520000Y-55662500D01*
X21520000Y-56137500D01*
X21518856Y-56160779D01*
X21515437Y-56183834D01*
X21509773Y-56206443D01*
X21501921Y-56228387D01*
X21491956Y-56249457D01*
X21479974Y-56269448D01*
X21466090Y-56288168D01*
X21450438Y-56305438D01*
X21433168Y-56321090D01*
X21414448Y-56334974D01*
X21394457Y-56346956D01*
X21373387Y-56356921D01*
X21351443Y-56364773D01*
X21328834Y-56370437D01*
X21305779Y-56373856D01*
X21282500Y-56375000D01*
X20707500Y-56375000D01*
X20684221Y-56373856D01*
X20661166Y-56370437D01*
X20638557Y-56364773D01*
X20616613Y-56356921D01*
X20595543Y-56346956D01*
X20575552Y-56334974D01*
X20556832Y-56321090D01*
X20539562Y-56305438D01*
X20523910Y-56288168D01*
X20510026Y-56269448D01*
X20498044Y-56249457D01*
X20488079Y-56228387D01*
X20480227Y-56206443D01*
X20474563Y-56183834D01*
X20471144Y-56160779D01*
X20470000Y-56137500D01*
X20470000Y-55662500D01*
X20471144Y-55639221D01*
X20474563Y-55616166D01*
X20480227Y-55593557D01*
X20488079Y-55571613D01*
X20498044Y-55550543D01*
X20510026Y-55530552D01*
X20523910Y-55511832D01*
X20539562Y-55494562D01*
X20556832Y-55478910D01*
X20575552Y-55465026D01*
X20595543Y-55453044D01*
X20616613Y-55443079D01*
X20638557Y-55435227D01*
X20661166Y-55429563D01*
X20684221Y-55426144D01*
X20707500Y-55425000D01*
X21282500Y-55425000D01*
X21305779Y-55426144D01*
X21305779Y-55426144D01*
G37*
D11*
X20995000Y-55900000D03*
D10*
G36*
X19555779Y-55426144D02*
G01*
X19578834Y-55429563D01*
X19601443Y-55435227D01*
X19623387Y-55443079D01*
X19644457Y-55453044D01*
X19664448Y-55465026D01*
X19683168Y-55478910D01*
X19700438Y-55494562D01*
X19716090Y-55511832D01*
X19729974Y-55530552D01*
X19741956Y-55550543D01*
X19751921Y-55571613D01*
X19759773Y-55593557D01*
X19765437Y-55616166D01*
X19768856Y-55639221D01*
X19770000Y-55662500D01*
X19770000Y-56137500D01*
X19768856Y-56160779D01*
X19765437Y-56183834D01*
X19759773Y-56206443D01*
X19751921Y-56228387D01*
X19741956Y-56249457D01*
X19729974Y-56269448D01*
X19716090Y-56288168D01*
X19700438Y-56305438D01*
X19683168Y-56321090D01*
X19664448Y-56334974D01*
X19644457Y-56346956D01*
X19623387Y-56356921D01*
X19601443Y-56364773D01*
X19578834Y-56370437D01*
X19555779Y-56373856D01*
X19532500Y-56375000D01*
X18957500Y-56375000D01*
X18934221Y-56373856D01*
X18911166Y-56370437D01*
X18888557Y-56364773D01*
X18866613Y-56356921D01*
X18845543Y-56346956D01*
X18825552Y-56334974D01*
X18806832Y-56321090D01*
X18789562Y-56305438D01*
X18773910Y-56288168D01*
X18760026Y-56269448D01*
X18748044Y-56249457D01*
X18738079Y-56228387D01*
X18730227Y-56206443D01*
X18724563Y-56183834D01*
X18721144Y-56160779D01*
X18720000Y-56137500D01*
X18720000Y-55662500D01*
X18721144Y-55639221D01*
X18724563Y-55616166D01*
X18730227Y-55593557D01*
X18738079Y-55571613D01*
X18748044Y-55550543D01*
X18760026Y-55530552D01*
X18773910Y-55511832D01*
X18789562Y-55494562D01*
X18806832Y-55478910D01*
X18825552Y-55465026D01*
X18845543Y-55453044D01*
X18866613Y-55443079D01*
X18888557Y-55435227D01*
X18911166Y-55429563D01*
X18934221Y-55426144D01*
X18957500Y-55425000D01*
X19532500Y-55425000D01*
X19555779Y-55426144D01*
X19555779Y-55426144D01*
G37*
D11*
X19245000Y-55900000D03*
D10*
G36*
X22870779Y-58721144D02*
G01*
X22893834Y-58724563D01*
X22916443Y-58730227D01*
X22938387Y-58738079D01*
X22959457Y-58748044D01*
X22979448Y-58760026D01*
X22998168Y-58773910D01*
X23015438Y-58789562D01*
X23031090Y-58806832D01*
X23044974Y-58825552D01*
X23056956Y-58845543D01*
X23066921Y-58866613D01*
X23074773Y-58888557D01*
X23080437Y-58911166D01*
X23083856Y-58934221D01*
X23085000Y-58957500D01*
X23085000Y-59532500D01*
X23083856Y-59555779D01*
X23080437Y-59578834D01*
X23074773Y-59601443D01*
X23066921Y-59623387D01*
X23056956Y-59644457D01*
X23044974Y-59664448D01*
X23031090Y-59683168D01*
X23015438Y-59700438D01*
X22998168Y-59716090D01*
X22979448Y-59729974D01*
X22959457Y-59741956D01*
X22938387Y-59751921D01*
X22916443Y-59759773D01*
X22893834Y-59765437D01*
X22870779Y-59768856D01*
X22847500Y-59770000D01*
X22372500Y-59770000D01*
X22349221Y-59768856D01*
X22326166Y-59765437D01*
X22303557Y-59759773D01*
X22281613Y-59751921D01*
X22260543Y-59741956D01*
X22240552Y-59729974D01*
X22221832Y-59716090D01*
X22204562Y-59700438D01*
X22188910Y-59683168D01*
X22175026Y-59664448D01*
X22163044Y-59644457D01*
X22153079Y-59623387D01*
X22145227Y-59601443D01*
X22139563Y-59578834D01*
X22136144Y-59555779D01*
X22135000Y-59532500D01*
X22135000Y-58957500D01*
X22136144Y-58934221D01*
X22139563Y-58911166D01*
X22145227Y-58888557D01*
X22153079Y-58866613D01*
X22163044Y-58845543D01*
X22175026Y-58825552D01*
X22188910Y-58806832D01*
X22204562Y-58789562D01*
X22221832Y-58773910D01*
X22240552Y-58760026D01*
X22260543Y-58748044D01*
X22281613Y-58738079D01*
X22303557Y-58730227D01*
X22326166Y-58724563D01*
X22349221Y-58721144D01*
X22372500Y-58720000D01*
X22847500Y-58720000D01*
X22870779Y-58721144D01*
X22870779Y-58721144D01*
G37*
D11*
X22610000Y-59245000D03*
D10*
G36*
X22870779Y-56971144D02*
G01*
X22893834Y-56974563D01*
X22916443Y-56980227D01*
X22938387Y-56988079D01*
X22959457Y-56998044D01*
X22979448Y-57010026D01*
X22998168Y-57023910D01*
X23015438Y-57039562D01*
X23031090Y-57056832D01*
X23044974Y-57075552D01*
X23056956Y-57095543D01*
X23066921Y-57116613D01*
X23074773Y-57138557D01*
X23080437Y-57161166D01*
X23083856Y-57184221D01*
X23085000Y-57207500D01*
X23085000Y-57782500D01*
X23083856Y-57805779D01*
X23080437Y-57828834D01*
X23074773Y-57851443D01*
X23066921Y-57873387D01*
X23056956Y-57894457D01*
X23044974Y-57914448D01*
X23031090Y-57933168D01*
X23015438Y-57950438D01*
X22998168Y-57966090D01*
X22979448Y-57979974D01*
X22959457Y-57991956D01*
X22938387Y-58001921D01*
X22916443Y-58009773D01*
X22893834Y-58015437D01*
X22870779Y-58018856D01*
X22847500Y-58020000D01*
X22372500Y-58020000D01*
X22349221Y-58018856D01*
X22326166Y-58015437D01*
X22303557Y-58009773D01*
X22281613Y-58001921D01*
X22260543Y-57991956D01*
X22240552Y-57979974D01*
X22221832Y-57966090D01*
X22204562Y-57950438D01*
X22188910Y-57933168D01*
X22175026Y-57914448D01*
X22163044Y-57894457D01*
X22153079Y-57873387D01*
X22145227Y-57851443D01*
X22139563Y-57828834D01*
X22136144Y-57805779D01*
X22135000Y-57782500D01*
X22135000Y-57207500D01*
X22136144Y-57184221D01*
X22139563Y-57161166D01*
X22145227Y-57138557D01*
X22153079Y-57116613D01*
X22163044Y-57095543D01*
X22175026Y-57075552D01*
X22188910Y-57056832D01*
X22204562Y-57039562D01*
X22221832Y-57023910D01*
X22240552Y-57010026D01*
X22260543Y-56998044D01*
X22281613Y-56988079D01*
X22303557Y-56980227D01*
X22326166Y-56974563D01*
X22349221Y-56971144D01*
X22372500Y-56970000D01*
X22847500Y-56970000D01*
X22870779Y-56971144D01*
X22870779Y-56971144D01*
G37*
D11*
X22610000Y-57495000D03*
D10*
G36*
X28795779Y-52596144D02*
G01*
X28818834Y-52599563D01*
X28841443Y-52605227D01*
X28863387Y-52613079D01*
X28884457Y-52623044D01*
X28904448Y-52635026D01*
X28923168Y-52648910D01*
X28940438Y-52664562D01*
X28956090Y-52681832D01*
X28969974Y-52700552D01*
X28981956Y-52720543D01*
X28991921Y-52741613D01*
X28999773Y-52763557D01*
X29005437Y-52786166D01*
X29008856Y-52809221D01*
X29010000Y-52832500D01*
X29010000Y-53307500D01*
X29008856Y-53330779D01*
X29005437Y-53353834D01*
X28999773Y-53376443D01*
X28991921Y-53398387D01*
X28981956Y-53419457D01*
X28969974Y-53439448D01*
X28956090Y-53458168D01*
X28940438Y-53475438D01*
X28923168Y-53491090D01*
X28904448Y-53504974D01*
X28884457Y-53516956D01*
X28863387Y-53526921D01*
X28841443Y-53534773D01*
X28818834Y-53540437D01*
X28795779Y-53543856D01*
X28772500Y-53545000D01*
X28197500Y-53545000D01*
X28174221Y-53543856D01*
X28151166Y-53540437D01*
X28128557Y-53534773D01*
X28106613Y-53526921D01*
X28085543Y-53516956D01*
X28065552Y-53504974D01*
X28046832Y-53491090D01*
X28029562Y-53475438D01*
X28013910Y-53458168D01*
X28000026Y-53439448D01*
X27988044Y-53419457D01*
X27978079Y-53398387D01*
X27970227Y-53376443D01*
X27964563Y-53353834D01*
X27961144Y-53330779D01*
X27960000Y-53307500D01*
X27960000Y-52832500D01*
X27961144Y-52809221D01*
X27964563Y-52786166D01*
X27970227Y-52763557D01*
X27978079Y-52741613D01*
X27988044Y-52720543D01*
X28000026Y-52700552D01*
X28013910Y-52681832D01*
X28029562Y-52664562D01*
X28046832Y-52648910D01*
X28065552Y-52635026D01*
X28085543Y-52623044D01*
X28106613Y-52613079D01*
X28128557Y-52605227D01*
X28151166Y-52599563D01*
X28174221Y-52596144D01*
X28197500Y-52595000D01*
X28772500Y-52595000D01*
X28795779Y-52596144D01*
X28795779Y-52596144D01*
G37*
D11*
X28485000Y-53070000D03*
D10*
G36*
X27045779Y-52596144D02*
G01*
X27068834Y-52599563D01*
X27091443Y-52605227D01*
X27113387Y-52613079D01*
X27134457Y-52623044D01*
X27154448Y-52635026D01*
X27173168Y-52648910D01*
X27190438Y-52664562D01*
X27206090Y-52681832D01*
X27219974Y-52700552D01*
X27231956Y-52720543D01*
X27241921Y-52741613D01*
X27249773Y-52763557D01*
X27255437Y-52786166D01*
X27258856Y-52809221D01*
X27260000Y-52832500D01*
X27260000Y-53307500D01*
X27258856Y-53330779D01*
X27255437Y-53353834D01*
X27249773Y-53376443D01*
X27241921Y-53398387D01*
X27231956Y-53419457D01*
X27219974Y-53439448D01*
X27206090Y-53458168D01*
X27190438Y-53475438D01*
X27173168Y-53491090D01*
X27154448Y-53504974D01*
X27134457Y-53516956D01*
X27113387Y-53526921D01*
X27091443Y-53534773D01*
X27068834Y-53540437D01*
X27045779Y-53543856D01*
X27022500Y-53545000D01*
X26447500Y-53545000D01*
X26424221Y-53543856D01*
X26401166Y-53540437D01*
X26378557Y-53534773D01*
X26356613Y-53526921D01*
X26335543Y-53516956D01*
X26315552Y-53504974D01*
X26296832Y-53491090D01*
X26279562Y-53475438D01*
X26263910Y-53458168D01*
X26250026Y-53439448D01*
X26238044Y-53419457D01*
X26228079Y-53398387D01*
X26220227Y-53376443D01*
X26214563Y-53353834D01*
X26211144Y-53330779D01*
X26210000Y-53307500D01*
X26210000Y-52832500D01*
X26211144Y-52809221D01*
X26214563Y-52786166D01*
X26220227Y-52763557D01*
X26228079Y-52741613D01*
X26238044Y-52720543D01*
X26250026Y-52700552D01*
X26263910Y-52681832D01*
X26279562Y-52664562D01*
X26296832Y-52648910D01*
X26315552Y-52635026D01*
X26335543Y-52623044D01*
X26356613Y-52613079D01*
X26378557Y-52605227D01*
X26401166Y-52599563D01*
X26424221Y-52596144D01*
X26447500Y-52595000D01*
X27022500Y-52595000D01*
X27045779Y-52596144D01*
X27045779Y-52596144D01*
G37*
D11*
X26735000Y-53070000D03*
D10*
G36*
X28775779Y-54126144D02*
G01*
X28798834Y-54129563D01*
X28821443Y-54135227D01*
X28843387Y-54143079D01*
X28864457Y-54153044D01*
X28884448Y-54165026D01*
X28903168Y-54178910D01*
X28920438Y-54194562D01*
X28936090Y-54211832D01*
X28949974Y-54230552D01*
X28961956Y-54250543D01*
X28971921Y-54271613D01*
X28979773Y-54293557D01*
X28985437Y-54316166D01*
X28988856Y-54339221D01*
X28990000Y-54362500D01*
X28990000Y-54837500D01*
X28988856Y-54860779D01*
X28985437Y-54883834D01*
X28979773Y-54906443D01*
X28971921Y-54928387D01*
X28961956Y-54949457D01*
X28949974Y-54969448D01*
X28936090Y-54988168D01*
X28920438Y-55005438D01*
X28903168Y-55021090D01*
X28884448Y-55034974D01*
X28864457Y-55046956D01*
X28843387Y-55056921D01*
X28821443Y-55064773D01*
X28798834Y-55070437D01*
X28775779Y-55073856D01*
X28752500Y-55075000D01*
X28177500Y-55075000D01*
X28154221Y-55073856D01*
X28131166Y-55070437D01*
X28108557Y-55064773D01*
X28086613Y-55056921D01*
X28065543Y-55046956D01*
X28045552Y-55034974D01*
X28026832Y-55021090D01*
X28009562Y-55005438D01*
X27993910Y-54988168D01*
X27980026Y-54969448D01*
X27968044Y-54949457D01*
X27958079Y-54928387D01*
X27950227Y-54906443D01*
X27944563Y-54883834D01*
X27941144Y-54860779D01*
X27940000Y-54837500D01*
X27940000Y-54362500D01*
X27941144Y-54339221D01*
X27944563Y-54316166D01*
X27950227Y-54293557D01*
X27958079Y-54271613D01*
X27968044Y-54250543D01*
X27980026Y-54230552D01*
X27993910Y-54211832D01*
X28009562Y-54194562D01*
X28026832Y-54178910D01*
X28045552Y-54165026D01*
X28065543Y-54153044D01*
X28086613Y-54143079D01*
X28108557Y-54135227D01*
X28131166Y-54129563D01*
X28154221Y-54126144D01*
X28177500Y-54125000D01*
X28752500Y-54125000D01*
X28775779Y-54126144D01*
X28775779Y-54126144D01*
G37*
D11*
X28465000Y-54600000D03*
D10*
G36*
X27025779Y-54126144D02*
G01*
X27048834Y-54129563D01*
X27071443Y-54135227D01*
X27093387Y-54143079D01*
X27114457Y-54153044D01*
X27134448Y-54165026D01*
X27153168Y-54178910D01*
X27170438Y-54194562D01*
X27186090Y-54211832D01*
X27199974Y-54230552D01*
X27211956Y-54250543D01*
X27221921Y-54271613D01*
X27229773Y-54293557D01*
X27235437Y-54316166D01*
X27238856Y-54339221D01*
X27240000Y-54362500D01*
X27240000Y-54837500D01*
X27238856Y-54860779D01*
X27235437Y-54883834D01*
X27229773Y-54906443D01*
X27221921Y-54928387D01*
X27211956Y-54949457D01*
X27199974Y-54969448D01*
X27186090Y-54988168D01*
X27170438Y-55005438D01*
X27153168Y-55021090D01*
X27134448Y-55034974D01*
X27114457Y-55046956D01*
X27093387Y-55056921D01*
X27071443Y-55064773D01*
X27048834Y-55070437D01*
X27025779Y-55073856D01*
X27002500Y-55075000D01*
X26427500Y-55075000D01*
X26404221Y-55073856D01*
X26381166Y-55070437D01*
X26358557Y-55064773D01*
X26336613Y-55056921D01*
X26315543Y-55046956D01*
X26295552Y-55034974D01*
X26276832Y-55021090D01*
X26259562Y-55005438D01*
X26243910Y-54988168D01*
X26230026Y-54969448D01*
X26218044Y-54949457D01*
X26208079Y-54928387D01*
X26200227Y-54906443D01*
X26194563Y-54883834D01*
X26191144Y-54860779D01*
X26190000Y-54837500D01*
X26190000Y-54362500D01*
X26191144Y-54339221D01*
X26194563Y-54316166D01*
X26200227Y-54293557D01*
X26208079Y-54271613D01*
X26218044Y-54250543D01*
X26230026Y-54230552D01*
X26243910Y-54211832D01*
X26259562Y-54194562D01*
X26276832Y-54178910D01*
X26295552Y-54165026D01*
X26315543Y-54153044D01*
X26336613Y-54143079D01*
X26358557Y-54135227D01*
X26381166Y-54129563D01*
X26404221Y-54126144D01*
X26427500Y-54125000D01*
X27002500Y-54125000D01*
X27025779Y-54126144D01*
X27025779Y-54126144D01*
G37*
D11*
X26715000Y-54600000D03*
D10*
G36*
X28755779Y-55656144D02*
G01*
X28778834Y-55659563D01*
X28801443Y-55665227D01*
X28823387Y-55673079D01*
X28844457Y-55683044D01*
X28864448Y-55695026D01*
X28883168Y-55708910D01*
X28900438Y-55724562D01*
X28916090Y-55741832D01*
X28929974Y-55760552D01*
X28941956Y-55780543D01*
X28951921Y-55801613D01*
X28959773Y-55823557D01*
X28965437Y-55846166D01*
X28968856Y-55869221D01*
X28970000Y-55892500D01*
X28970000Y-56367500D01*
X28968856Y-56390779D01*
X28965437Y-56413834D01*
X28959773Y-56436443D01*
X28951921Y-56458387D01*
X28941956Y-56479457D01*
X28929974Y-56499448D01*
X28916090Y-56518168D01*
X28900438Y-56535438D01*
X28883168Y-56551090D01*
X28864448Y-56564974D01*
X28844457Y-56576956D01*
X28823387Y-56586921D01*
X28801443Y-56594773D01*
X28778834Y-56600437D01*
X28755779Y-56603856D01*
X28732500Y-56605000D01*
X28157500Y-56605000D01*
X28134221Y-56603856D01*
X28111166Y-56600437D01*
X28088557Y-56594773D01*
X28066613Y-56586921D01*
X28045543Y-56576956D01*
X28025552Y-56564974D01*
X28006832Y-56551090D01*
X27989562Y-56535438D01*
X27973910Y-56518168D01*
X27960026Y-56499448D01*
X27948044Y-56479457D01*
X27938079Y-56458387D01*
X27930227Y-56436443D01*
X27924563Y-56413834D01*
X27921144Y-56390779D01*
X27920000Y-56367500D01*
X27920000Y-55892500D01*
X27921144Y-55869221D01*
X27924563Y-55846166D01*
X27930227Y-55823557D01*
X27938079Y-55801613D01*
X27948044Y-55780543D01*
X27960026Y-55760552D01*
X27973910Y-55741832D01*
X27989562Y-55724562D01*
X28006832Y-55708910D01*
X28025552Y-55695026D01*
X28045543Y-55683044D01*
X28066613Y-55673079D01*
X28088557Y-55665227D01*
X28111166Y-55659563D01*
X28134221Y-55656144D01*
X28157500Y-55655000D01*
X28732500Y-55655000D01*
X28755779Y-55656144D01*
X28755779Y-55656144D01*
G37*
D11*
X28445000Y-56130000D03*
D10*
G36*
X27005779Y-55656144D02*
G01*
X27028834Y-55659563D01*
X27051443Y-55665227D01*
X27073387Y-55673079D01*
X27094457Y-55683044D01*
X27114448Y-55695026D01*
X27133168Y-55708910D01*
X27150438Y-55724562D01*
X27166090Y-55741832D01*
X27179974Y-55760552D01*
X27191956Y-55780543D01*
X27201921Y-55801613D01*
X27209773Y-55823557D01*
X27215437Y-55846166D01*
X27218856Y-55869221D01*
X27220000Y-55892500D01*
X27220000Y-56367500D01*
X27218856Y-56390779D01*
X27215437Y-56413834D01*
X27209773Y-56436443D01*
X27201921Y-56458387D01*
X27191956Y-56479457D01*
X27179974Y-56499448D01*
X27166090Y-56518168D01*
X27150438Y-56535438D01*
X27133168Y-56551090D01*
X27114448Y-56564974D01*
X27094457Y-56576956D01*
X27073387Y-56586921D01*
X27051443Y-56594773D01*
X27028834Y-56600437D01*
X27005779Y-56603856D01*
X26982500Y-56605000D01*
X26407500Y-56605000D01*
X26384221Y-56603856D01*
X26361166Y-56600437D01*
X26338557Y-56594773D01*
X26316613Y-56586921D01*
X26295543Y-56576956D01*
X26275552Y-56564974D01*
X26256832Y-56551090D01*
X26239562Y-56535438D01*
X26223910Y-56518168D01*
X26210026Y-56499448D01*
X26198044Y-56479457D01*
X26188079Y-56458387D01*
X26180227Y-56436443D01*
X26174563Y-56413834D01*
X26171144Y-56390779D01*
X26170000Y-56367500D01*
X26170000Y-55892500D01*
X26171144Y-55869221D01*
X26174563Y-55846166D01*
X26180227Y-55823557D01*
X26188079Y-55801613D01*
X26198044Y-55780543D01*
X26210026Y-55760552D01*
X26223910Y-55741832D01*
X26239562Y-55724562D01*
X26256832Y-55708910D01*
X26275552Y-55695026D01*
X26295543Y-55683044D01*
X26316613Y-55673079D01*
X26338557Y-55665227D01*
X26361166Y-55659563D01*
X26384221Y-55656144D01*
X26407500Y-55655000D01*
X26982500Y-55655000D01*
X27005779Y-55656144D01*
X27005779Y-55656144D01*
G37*
D11*
X26695000Y-56130000D03*
D10*
G36*
X35010779Y-58131144D02*
G01*
X35033834Y-58134563D01*
X35056443Y-58140227D01*
X35078387Y-58148079D01*
X35099457Y-58158044D01*
X35119448Y-58170026D01*
X35138168Y-58183910D01*
X35155438Y-58199562D01*
X35171090Y-58216832D01*
X35184974Y-58235552D01*
X35196956Y-58255543D01*
X35206921Y-58276613D01*
X35214773Y-58298557D01*
X35220437Y-58321166D01*
X35223856Y-58344221D01*
X35225000Y-58367500D01*
X35225000Y-58942500D01*
X35223856Y-58965779D01*
X35220437Y-58988834D01*
X35214773Y-59011443D01*
X35206921Y-59033387D01*
X35196956Y-59054457D01*
X35184974Y-59074448D01*
X35171090Y-59093168D01*
X35155438Y-59110438D01*
X35138168Y-59126090D01*
X35119448Y-59139974D01*
X35099457Y-59151956D01*
X35078387Y-59161921D01*
X35056443Y-59169773D01*
X35033834Y-59175437D01*
X35010779Y-59178856D01*
X34987500Y-59180000D01*
X34512500Y-59180000D01*
X34489221Y-59178856D01*
X34466166Y-59175437D01*
X34443557Y-59169773D01*
X34421613Y-59161921D01*
X34400543Y-59151956D01*
X34380552Y-59139974D01*
X34361832Y-59126090D01*
X34344562Y-59110438D01*
X34328910Y-59093168D01*
X34315026Y-59074448D01*
X34303044Y-59054457D01*
X34293079Y-59033387D01*
X34285227Y-59011443D01*
X34279563Y-58988834D01*
X34276144Y-58965779D01*
X34275000Y-58942500D01*
X34275000Y-58367500D01*
X34276144Y-58344221D01*
X34279563Y-58321166D01*
X34285227Y-58298557D01*
X34293079Y-58276613D01*
X34303044Y-58255543D01*
X34315026Y-58235552D01*
X34328910Y-58216832D01*
X34344562Y-58199562D01*
X34361832Y-58183910D01*
X34380552Y-58170026D01*
X34400543Y-58158044D01*
X34421613Y-58148079D01*
X34443557Y-58140227D01*
X34466166Y-58134563D01*
X34489221Y-58131144D01*
X34512500Y-58130000D01*
X34987500Y-58130000D01*
X35010779Y-58131144D01*
X35010779Y-58131144D01*
G37*
D11*
X34750000Y-58655000D03*
D10*
G36*
X35010779Y-56381144D02*
G01*
X35033834Y-56384563D01*
X35056443Y-56390227D01*
X35078387Y-56398079D01*
X35099457Y-56408044D01*
X35119448Y-56420026D01*
X35138168Y-56433910D01*
X35155438Y-56449562D01*
X35171090Y-56466832D01*
X35184974Y-56485552D01*
X35196956Y-56505543D01*
X35206921Y-56526613D01*
X35214773Y-56548557D01*
X35220437Y-56571166D01*
X35223856Y-56594221D01*
X35225000Y-56617500D01*
X35225000Y-57192500D01*
X35223856Y-57215779D01*
X35220437Y-57238834D01*
X35214773Y-57261443D01*
X35206921Y-57283387D01*
X35196956Y-57304457D01*
X35184974Y-57324448D01*
X35171090Y-57343168D01*
X35155438Y-57360438D01*
X35138168Y-57376090D01*
X35119448Y-57389974D01*
X35099457Y-57401956D01*
X35078387Y-57411921D01*
X35056443Y-57419773D01*
X35033834Y-57425437D01*
X35010779Y-57428856D01*
X34987500Y-57430000D01*
X34512500Y-57430000D01*
X34489221Y-57428856D01*
X34466166Y-57425437D01*
X34443557Y-57419773D01*
X34421613Y-57411921D01*
X34400543Y-57401956D01*
X34380552Y-57389974D01*
X34361832Y-57376090D01*
X34344562Y-57360438D01*
X34328910Y-57343168D01*
X34315026Y-57324448D01*
X34303044Y-57304457D01*
X34293079Y-57283387D01*
X34285227Y-57261443D01*
X34279563Y-57238834D01*
X34276144Y-57215779D01*
X34275000Y-57192500D01*
X34275000Y-56617500D01*
X34276144Y-56594221D01*
X34279563Y-56571166D01*
X34285227Y-56548557D01*
X34293079Y-56526613D01*
X34303044Y-56505543D01*
X34315026Y-56485552D01*
X34328910Y-56466832D01*
X34344562Y-56449562D01*
X34361832Y-56433910D01*
X34380552Y-56420026D01*
X34400543Y-56408044D01*
X34421613Y-56398079D01*
X34443557Y-56390227D01*
X34466166Y-56384563D01*
X34489221Y-56381144D01*
X34512500Y-56380000D01*
X34987500Y-56380000D01*
X35010779Y-56381144D01*
X35010779Y-56381144D01*
G37*
D11*
X34750000Y-56905000D03*
D10*
G36*
X35000779Y-54761144D02*
G01*
X35023834Y-54764563D01*
X35046443Y-54770227D01*
X35068387Y-54778079D01*
X35089457Y-54788044D01*
X35109448Y-54800026D01*
X35128168Y-54813910D01*
X35145438Y-54829562D01*
X35161090Y-54846832D01*
X35174974Y-54865552D01*
X35186956Y-54885543D01*
X35196921Y-54906613D01*
X35204773Y-54928557D01*
X35210437Y-54951166D01*
X35213856Y-54974221D01*
X35215000Y-54997500D01*
X35215000Y-55572500D01*
X35213856Y-55595779D01*
X35210437Y-55618834D01*
X35204773Y-55641443D01*
X35196921Y-55663387D01*
X35186956Y-55684457D01*
X35174974Y-55704448D01*
X35161090Y-55723168D01*
X35145438Y-55740438D01*
X35128168Y-55756090D01*
X35109448Y-55769974D01*
X35089457Y-55781956D01*
X35068387Y-55791921D01*
X35046443Y-55799773D01*
X35023834Y-55805437D01*
X35000779Y-55808856D01*
X34977500Y-55810000D01*
X34502500Y-55810000D01*
X34479221Y-55808856D01*
X34456166Y-55805437D01*
X34433557Y-55799773D01*
X34411613Y-55791921D01*
X34390543Y-55781956D01*
X34370552Y-55769974D01*
X34351832Y-55756090D01*
X34334562Y-55740438D01*
X34318910Y-55723168D01*
X34305026Y-55704448D01*
X34293044Y-55684457D01*
X34283079Y-55663387D01*
X34275227Y-55641443D01*
X34269563Y-55618834D01*
X34266144Y-55595779D01*
X34265000Y-55572500D01*
X34265000Y-54997500D01*
X34266144Y-54974221D01*
X34269563Y-54951166D01*
X34275227Y-54928557D01*
X34283079Y-54906613D01*
X34293044Y-54885543D01*
X34305026Y-54865552D01*
X34318910Y-54846832D01*
X34334562Y-54829562D01*
X34351832Y-54813910D01*
X34370552Y-54800026D01*
X34390543Y-54788044D01*
X34411613Y-54778079D01*
X34433557Y-54770227D01*
X34456166Y-54764563D01*
X34479221Y-54761144D01*
X34502500Y-54760000D01*
X34977500Y-54760000D01*
X35000779Y-54761144D01*
X35000779Y-54761144D01*
G37*
D11*
X34740000Y-55285000D03*
D10*
G36*
X35000779Y-53011144D02*
G01*
X35023834Y-53014563D01*
X35046443Y-53020227D01*
X35068387Y-53028079D01*
X35089457Y-53038044D01*
X35109448Y-53050026D01*
X35128168Y-53063910D01*
X35145438Y-53079562D01*
X35161090Y-53096832D01*
X35174974Y-53115552D01*
X35186956Y-53135543D01*
X35196921Y-53156613D01*
X35204773Y-53178557D01*
X35210437Y-53201166D01*
X35213856Y-53224221D01*
X35215000Y-53247500D01*
X35215000Y-53822500D01*
X35213856Y-53845779D01*
X35210437Y-53868834D01*
X35204773Y-53891443D01*
X35196921Y-53913387D01*
X35186956Y-53934457D01*
X35174974Y-53954448D01*
X35161090Y-53973168D01*
X35145438Y-53990438D01*
X35128168Y-54006090D01*
X35109448Y-54019974D01*
X35089457Y-54031956D01*
X35068387Y-54041921D01*
X35046443Y-54049773D01*
X35023834Y-54055437D01*
X35000779Y-54058856D01*
X34977500Y-54060000D01*
X34502500Y-54060000D01*
X34479221Y-54058856D01*
X34456166Y-54055437D01*
X34433557Y-54049773D01*
X34411613Y-54041921D01*
X34390543Y-54031956D01*
X34370552Y-54019974D01*
X34351832Y-54006090D01*
X34334562Y-53990438D01*
X34318910Y-53973168D01*
X34305026Y-53954448D01*
X34293044Y-53934457D01*
X34283079Y-53913387D01*
X34275227Y-53891443D01*
X34269563Y-53868834D01*
X34266144Y-53845779D01*
X34265000Y-53822500D01*
X34265000Y-53247500D01*
X34266144Y-53224221D01*
X34269563Y-53201166D01*
X34275227Y-53178557D01*
X34283079Y-53156613D01*
X34293044Y-53135543D01*
X34305026Y-53115552D01*
X34318910Y-53096832D01*
X34334562Y-53079562D01*
X34351832Y-53063910D01*
X34370552Y-53050026D01*
X34390543Y-53038044D01*
X34411613Y-53028079D01*
X34433557Y-53020227D01*
X34456166Y-53014563D01*
X34479221Y-53011144D01*
X34502500Y-53010000D01*
X34977500Y-53010000D01*
X35000779Y-53011144D01*
X35000779Y-53011144D01*
G37*
D11*
X34740000Y-53535000D03*
D10*
G36*
X21910779Y-37341144D02*
G01*
X21933834Y-37344563D01*
X21956443Y-37350227D01*
X21978387Y-37358079D01*
X21999457Y-37368044D01*
X22019448Y-37380026D01*
X22038168Y-37393910D01*
X22055438Y-37409562D01*
X22071090Y-37426832D01*
X22084974Y-37445552D01*
X22096956Y-37465543D01*
X22106921Y-37486613D01*
X22114773Y-37508557D01*
X22120437Y-37531166D01*
X22123856Y-37554221D01*
X22125000Y-37577500D01*
X22125000Y-38152500D01*
X22123856Y-38175779D01*
X22120437Y-38198834D01*
X22114773Y-38221443D01*
X22106921Y-38243387D01*
X22096956Y-38264457D01*
X22084974Y-38284448D01*
X22071090Y-38303168D01*
X22055438Y-38320438D01*
X22038168Y-38336090D01*
X22019448Y-38349974D01*
X21999457Y-38361956D01*
X21978387Y-38371921D01*
X21956443Y-38379773D01*
X21933834Y-38385437D01*
X21910779Y-38388856D01*
X21887500Y-38390000D01*
X21412500Y-38390000D01*
X21389221Y-38388856D01*
X21366166Y-38385437D01*
X21343557Y-38379773D01*
X21321613Y-38371921D01*
X21300543Y-38361956D01*
X21280552Y-38349974D01*
X21261832Y-38336090D01*
X21244562Y-38320438D01*
X21228910Y-38303168D01*
X21215026Y-38284448D01*
X21203044Y-38264457D01*
X21193079Y-38243387D01*
X21185227Y-38221443D01*
X21179563Y-38198834D01*
X21176144Y-38175779D01*
X21175000Y-38152500D01*
X21175000Y-37577500D01*
X21176144Y-37554221D01*
X21179563Y-37531166D01*
X21185227Y-37508557D01*
X21193079Y-37486613D01*
X21203044Y-37465543D01*
X21215026Y-37445552D01*
X21228910Y-37426832D01*
X21244562Y-37409562D01*
X21261832Y-37393910D01*
X21280552Y-37380026D01*
X21300543Y-37368044D01*
X21321613Y-37358079D01*
X21343557Y-37350227D01*
X21366166Y-37344563D01*
X21389221Y-37341144D01*
X21412500Y-37340000D01*
X21887500Y-37340000D01*
X21910779Y-37341144D01*
X21910779Y-37341144D01*
G37*
D11*
X21650000Y-37865000D03*
D10*
G36*
X21910779Y-39091144D02*
G01*
X21933834Y-39094563D01*
X21956443Y-39100227D01*
X21978387Y-39108079D01*
X21999457Y-39118044D01*
X22019448Y-39130026D01*
X22038168Y-39143910D01*
X22055438Y-39159562D01*
X22071090Y-39176832D01*
X22084974Y-39195552D01*
X22096956Y-39215543D01*
X22106921Y-39236613D01*
X22114773Y-39258557D01*
X22120437Y-39281166D01*
X22123856Y-39304221D01*
X22125000Y-39327500D01*
X22125000Y-39902500D01*
X22123856Y-39925779D01*
X22120437Y-39948834D01*
X22114773Y-39971443D01*
X22106921Y-39993387D01*
X22096956Y-40014457D01*
X22084974Y-40034448D01*
X22071090Y-40053168D01*
X22055438Y-40070438D01*
X22038168Y-40086090D01*
X22019448Y-40099974D01*
X21999457Y-40111956D01*
X21978387Y-40121921D01*
X21956443Y-40129773D01*
X21933834Y-40135437D01*
X21910779Y-40138856D01*
X21887500Y-40140000D01*
X21412500Y-40140000D01*
X21389221Y-40138856D01*
X21366166Y-40135437D01*
X21343557Y-40129773D01*
X21321613Y-40121921D01*
X21300543Y-40111956D01*
X21280552Y-40099974D01*
X21261832Y-40086090D01*
X21244562Y-40070438D01*
X21228910Y-40053168D01*
X21215026Y-40034448D01*
X21203044Y-40014457D01*
X21193079Y-39993387D01*
X21185227Y-39971443D01*
X21179563Y-39948834D01*
X21176144Y-39925779D01*
X21175000Y-39902500D01*
X21175000Y-39327500D01*
X21176144Y-39304221D01*
X21179563Y-39281166D01*
X21185227Y-39258557D01*
X21193079Y-39236613D01*
X21203044Y-39215543D01*
X21215026Y-39195552D01*
X21228910Y-39176832D01*
X21244562Y-39159562D01*
X21261832Y-39143910D01*
X21280552Y-39130026D01*
X21300543Y-39118044D01*
X21321613Y-39108079D01*
X21343557Y-39100227D01*
X21366166Y-39094563D01*
X21389221Y-39091144D01*
X21412500Y-39090000D01*
X21887500Y-39090000D01*
X21910779Y-39091144D01*
X21910779Y-39091144D01*
G37*
D11*
X21650000Y-39615000D03*
D10*
G36*
X20380779Y-39101144D02*
G01*
X20403834Y-39104563D01*
X20426443Y-39110227D01*
X20448387Y-39118079D01*
X20469457Y-39128044D01*
X20489448Y-39140026D01*
X20508168Y-39153910D01*
X20525438Y-39169562D01*
X20541090Y-39186832D01*
X20554974Y-39205552D01*
X20566956Y-39225543D01*
X20576921Y-39246613D01*
X20584773Y-39268557D01*
X20590437Y-39291166D01*
X20593856Y-39314221D01*
X20595000Y-39337500D01*
X20595000Y-39912500D01*
X20593856Y-39935779D01*
X20590437Y-39958834D01*
X20584773Y-39981443D01*
X20576921Y-40003387D01*
X20566956Y-40024457D01*
X20554974Y-40044448D01*
X20541090Y-40063168D01*
X20525438Y-40080438D01*
X20508168Y-40096090D01*
X20489448Y-40109974D01*
X20469457Y-40121956D01*
X20448387Y-40131921D01*
X20426443Y-40139773D01*
X20403834Y-40145437D01*
X20380779Y-40148856D01*
X20357500Y-40150000D01*
X19882500Y-40150000D01*
X19859221Y-40148856D01*
X19836166Y-40145437D01*
X19813557Y-40139773D01*
X19791613Y-40131921D01*
X19770543Y-40121956D01*
X19750552Y-40109974D01*
X19731832Y-40096090D01*
X19714562Y-40080438D01*
X19698910Y-40063168D01*
X19685026Y-40044448D01*
X19673044Y-40024457D01*
X19663079Y-40003387D01*
X19655227Y-39981443D01*
X19649563Y-39958834D01*
X19646144Y-39935779D01*
X19645000Y-39912500D01*
X19645000Y-39337500D01*
X19646144Y-39314221D01*
X19649563Y-39291166D01*
X19655227Y-39268557D01*
X19663079Y-39246613D01*
X19673044Y-39225543D01*
X19685026Y-39205552D01*
X19698910Y-39186832D01*
X19714562Y-39169562D01*
X19731832Y-39153910D01*
X19750552Y-39140026D01*
X19770543Y-39128044D01*
X19791613Y-39118079D01*
X19813557Y-39110227D01*
X19836166Y-39104563D01*
X19859221Y-39101144D01*
X19882500Y-39100000D01*
X20357500Y-39100000D01*
X20380779Y-39101144D01*
X20380779Y-39101144D01*
G37*
D11*
X20120000Y-39625000D03*
D10*
G36*
X20380779Y-37351144D02*
G01*
X20403834Y-37354563D01*
X20426443Y-37360227D01*
X20448387Y-37368079D01*
X20469457Y-37378044D01*
X20489448Y-37390026D01*
X20508168Y-37403910D01*
X20525438Y-37419562D01*
X20541090Y-37436832D01*
X20554974Y-37455552D01*
X20566956Y-37475543D01*
X20576921Y-37496613D01*
X20584773Y-37518557D01*
X20590437Y-37541166D01*
X20593856Y-37564221D01*
X20595000Y-37587500D01*
X20595000Y-38162500D01*
X20593856Y-38185779D01*
X20590437Y-38208834D01*
X20584773Y-38231443D01*
X20576921Y-38253387D01*
X20566956Y-38274457D01*
X20554974Y-38294448D01*
X20541090Y-38313168D01*
X20525438Y-38330438D01*
X20508168Y-38346090D01*
X20489448Y-38359974D01*
X20469457Y-38371956D01*
X20448387Y-38381921D01*
X20426443Y-38389773D01*
X20403834Y-38395437D01*
X20380779Y-38398856D01*
X20357500Y-38400000D01*
X19882500Y-38400000D01*
X19859221Y-38398856D01*
X19836166Y-38395437D01*
X19813557Y-38389773D01*
X19791613Y-38381921D01*
X19770543Y-38371956D01*
X19750552Y-38359974D01*
X19731832Y-38346090D01*
X19714562Y-38330438D01*
X19698910Y-38313168D01*
X19685026Y-38294448D01*
X19673044Y-38274457D01*
X19663079Y-38253387D01*
X19655227Y-38231443D01*
X19649563Y-38208834D01*
X19646144Y-38185779D01*
X19645000Y-38162500D01*
X19645000Y-37587500D01*
X19646144Y-37564221D01*
X19649563Y-37541166D01*
X19655227Y-37518557D01*
X19663079Y-37496613D01*
X19673044Y-37475543D01*
X19685026Y-37455552D01*
X19698910Y-37436832D01*
X19714562Y-37419562D01*
X19731832Y-37403910D01*
X19750552Y-37390026D01*
X19770543Y-37378044D01*
X19791613Y-37368079D01*
X19813557Y-37360227D01*
X19836166Y-37354563D01*
X19859221Y-37351144D01*
X19882500Y-37350000D01*
X20357500Y-37350000D01*
X20380779Y-37351144D01*
X20380779Y-37351144D01*
G37*
D11*
X20120000Y-37875000D03*
D10*
G36*
X32185779Y-40686144D02*
G01*
X32208834Y-40689563D01*
X32231443Y-40695227D01*
X32253387Y-40703079D01*
X32274457Y-40713044D01*
X32294448Y-40725026D01*
X32313168Y-40738910D01*
X32330438Y-40754562D01*
X32346090Y-40771832D01*
X32359974Y-40790552D01*
X32371956Y-40810543D01*
X32381921Y-40831613D01*
X32389773Y-40853557D01*
X32395437Y-40876166D01*
X32398856Y-40899221D01*
X32400000Y-40922500D01*
X32400000Y-41397500D01*
X32398856Y-41420779D01*
X32395437Y-41443834D01*
X32389773Y-41466443D01*
X32381921Y-41488387D01*
X32371956Y-41509457D01*
X32359974Y-41529448D01*
X32346090Y-41548168D01*
X32330438Y-41565438D01*
X32313168Y-41581090D01*
X32294448Y-41594974D01*
X32274457Y-41606956D01*
X32253387Y-41616921D01*
X32231443Y-41624773D01*
X32208834Y-41630437D01*
X32185779Y-41633856D01*
X32162500Y-41635000D01*
X31587500Y-41635000D01*
X31564221Y-41633856D01*
X31541166Y-41630437D01*
X31518557Y-41624773D01*
X31496613Y-41616921D01*
X31475543Y-41606956D01*
X31455552Y-41594974D01*
X31436832Y-41581090D01*
X31419562Y-41565438D01*
X31403910Y-41548168D01*
X31390026Y-41529448D01*
X31378044Y-41509457D01*
X31368079Y-41488387D01*
X31360227Y-41466443D01*
X31354563Y-41443834D01*
X31351144Y-41420779D01*
X31350000Y-41397500D01*
X31350000Y-40922500D01*
X31351144Y-40899221D01*
X31354563Y-40876166D01*
X31360227Y-40853557D01*
X31368079Y-40831613D01*
X31378044Y-40810543D01*
X31390026Y-40790552D01*
X31403910Y-40771832D01*
X31419562Y-40754562D01*
X31436832Y-40738910D01*
X31455552Y-40725026D01*
X31475543Y-40713044D01*
X31496613Y-40703079D01*
X31518557Y-40695227D01*
X31541166Y-40689563D01*
X31564221Y-40686144D01*
X31587500Y-40685000D01*
X32162500Y-40685000D01*
X32185779Y-40686144D01*
X32185779Y-40686144D01*
G37*
D11*
X31875000Y-41160000D03*
D10*
G36*
X33935779Y-40686144D02*
G01*
X33958834Y-40689563D01*
X33981443Y-40695227D01*
X34003387Y-40703079D01*
X34024457Y-40713044D01*
X34044448Y-40725026D01*
X34063168Y-40738910D01*
X34080438Y-40754562D01*
X34096090Y-40771832D01*
X34109974Y-40790552D01*
X34121956Y-40810543D01*
X34131921Y-40831613D01*
X34139773Y-40853557D01*
X34145437Y-40876166D01*
X34148856Y-40899221D01*
X34150000Y-40922500D01*
X34150000Y-41397500D01*
X34148856Y-41420779D01*
X34145437Y-41443834D01*
X34139773Y-41466443D01*
X34131921Y-41488387D01*
X34121956Y-41509457D01*
X34109974Y-41529448D01*
X34096090Y-41548168D01*
X34080438Y-41565438D01*
X34063168Y-41581090D01*
X34044448Y-41594974D01*
X34024457Y-41606956D01*
X34003387Y-41616921D01*
X33981443Y-41624773D01*
X33958834Y-41630437D01*
X33935779Y-41633856D01*
X33912500Y-41635000D01*
X33337500Y-41635000D01*
X33314221Y-41633856D01*
X33291166Y-41630437D01*
X33268557Y-41624773D01*
X33246613Y-41616921D01*
X33225543Y-41606956D01*
X33205552Y-41594974D01*
X33186832Y-41581090D01*
X33169562Y-41565438D01*
X33153910Y-41548168D01*
X33140026Y-41529448D01*
X33128044Y-41509457D01*
X33118079Y-41488387D01*
X33110227Y-41466443D01*
X33104563Y-41443834D01*
X33101144Y-41420779D01*
X33100000Y-41397500D01*
X33100000Y-40922500D01*
X33101144Y-40899221D01*
X33104563Y-40876166D01*
X33110227Y-40853557D01*
X33118079Y-40831613D01*
X33128044Y-40810543D01*
X33140026Y-40790552D01*
X33153910Y-40771832D01*
X33169562Y-40754562D01*
X33186832Y-40738910D01*
X33205552Y-40725026D01*
X33225543Y-40713044D01*
X33246613Y-40703079D01*
X33268557Y-40695227D01*
X33291166Y-40689563D01*
X33314221Y-40686144D01*
X33337500Y-40685000D01*
X33912500Y-40685000D01*
X33935779Y-40686144D01*
X33935779Y-40686144D01*
G37*
D11*
X33625000Y-41160000D03*
D10*
G36*
X25415779Y-23476144D02*
G01*
X25438834Y-23479563D01*
X25461443Y-23485227D01*
X25483387Y-23493079D01*
X25504457Y-23503044D01*
X25524448Y-23515026D01*
X25543168Y-23528910D01*
X25560438Y-23544562D01*
X25576090Y-23561832D01*
X25589974Y-23580552D01*
X25601956Y-23600543D01*
X25611921Y-23621613D01*
X25619773Y-23643557D01*
X25625437Y-23666166D01*
X25628856Y-23689221D01*
X25630000Y-23712500D01*
X25630000Y-24187500D01*
X25628856Y-24210779D01*
X25625437Y-24233834D01*
X25619773Y-24256443D01*
X25611921Y-24278387D01*
X25601956Y-24299457D01*
X25589974Y-24319448D01*
X25576090Y-24338168D01*
X25560438Y-24355438D01*
X25543168Y-24371090D01*
X25524448Y-24384974D01*
X25504457Y-24396956D01*
X25483387Y-24406921D01*
X25461443Y-24414773D01*
X25438834Y-24420437D01*
X25415779Y-24423856D01*
X25392500Y-24425000D01*
X24817500Y-24425000D01*
X24794221Y-24423856D01*
X24771166Y-24420437D01*
X24748557Y-24414773D01*
X24726613Y-24406921D01*
X24705543Y-24396956D01*
X24685552Y-24384974D01*
X24666832Y-24371090D01*
X24649562Y-24355438D01*
X24633910Y-24338168D01*
X24620026Y-24319448D01*
X24608044Y-24299457D01*
X24598079Y-24278387D01*
X24590227Y-24256443D01*
X24584563Y-24233834D01*
X24581144Y-24210779D01*
X24580000Y-24187500D01*
X24580000Y-23712500D01*
X24581144Y-23689221D01*
X24584563Y-23666166D01*
X24590227Y-23643557D01*
X24598079Y-23621613D01*
X24608044Y-23600543D01*
X24620026Y-23580552D01*
X24633910Y-23561832D01*
X24649562Y-23544562D01*
X24666832Y-23528910D01*
X24685552Y-23515026D01*
X24705543Y-23503044D01*
X24726613Y-23493079D01*
X24748557Y-23485227D01*
X24771166Y-23479563D01*
X24794221Y-23476144D01*
X24817500Y-23475000D01*
X25392500Y-23475000D01*
X25415779Y-23476144D01*
X25415779Y-23476144D01*
G37*
D11*
X25105000Y-23950000D03*
D10*
G36*
X27165779Y-23476144D02*
G01*
X27188834Y-23479563D01*
X27211443Y-23485227D01*
X27233387Y-23493079D01*
X27254457Y-23503044D01*
X27274448Y-23515026D01*
X27293168Y-23528910D01*
X27310438Y-23544562D01*
X27326090Y-23561832D01*
X27339974Y-23580552D01*
X27351956Y-23600543D01*
X27361921Y-23621613D01*
X27369773Y-23643557D01*
X27375437Y-23666166D01*
X27378856Y-23689221D01*
X27380000Y-23712500D01*
X27380000Y-24187500D01*
X27378856Y-24210779D01*
X27375437Y-24233834D01*
X27369773Y-24256443D01*
X27361921Y-24278387D01*
X27351956Y-24299457D01*
X27339974Y-24319448D01*
X27326090Y-24338168D01*
X27310438Y-24355438D01*
X27293168Y-24371090D01*
X27274448Y-24384974D01*
X27254457Y-24396956D01*
X27233387Y-24406921D01*
X27211443Y-24414773D01*
X27188834Y-24420437D01*
X27165779Y-24423856D01*
X27142500Y-24425000D01*
X26567500Y-24425000D01*
X26544221Y-24423856D01*
X26521166Y-24420437D01*
X26498557Y-24414773D01*
X26476613Y-24406921D01*
X26455543Y-24396956D01*
X26435552Y-24384974D01*
X26416832Y-24371090D01*
X26399562Y-24355438D01*
X26383910Y-24338168D01*
X26370026Y-24319448D01*
X26358044Y-24299457D01*
X26348079Y-24278387D01*
X26340227Y-24256443D01*
X26334563Y-24233834D01*
X26331144Y-24210779D01*
X26330000Y-24187500D01*
X26330000Y-23712500D01*
X26331144Y-23689221D01*
X26334563Y-23666166D01*
X26340227Y-23643557D01*
X26348079Y-23621613D01*
X26358044Y-23600543D01*
X26370026Y-23580552D01*
X26383910Y-23561832D01*
X26399562Y-23544562D01*
X26416832Y-23528910D01*
X26435552Y-23515026D01*
X26455543Y-23503044D01*
X26476613Y-23493079D01*
X26498557Y-23485227D01*
X26521166Y-23479563D01*
X26544221Y-23476144D01*
X26567500Y-23475000D01*
X27142500Y-23475000D01*
X27165779Y-23476144D01*
X27165779Y-23476144D01*
G37*
D11*
X26855000Y-23950000D03*
D10*
G36*
X22160779Y-27931144D02*
G01*
X22183834Y-27934563D01*
X22206443Y-27940227D01*
X22228387Y-27948079D01*
X22249457Y-27958044D01*
X22269448Y-27970026D01*
X22288168Y-27983910D01*
X22305438Y-27999562D01*
X22321090Y-28016832D01*
X22334974Y-28035552D01*
X22346956Y-28055543D01*
X22356921Y-28076613D01*
X22364773Y-28098557D01*
X22370437Y-28121166D01*
X22373856Y-28144221D01*
X22375000Y-28167500D01*
X22375000Y-28742500D01*
X22373856Y-28765779D01*
X22370437Y-28788834D01*
X22364773Y-28811443D01*
X22356921Y-28833387D01*
X22346956Y-28854457D01*
X22334974Y-28874448D01*
X22321090Y-28893168D01*
X22305438Y-28910438D01*
X22288168Y-28926090D01*
X22269448Y-28939974D01*
X22249457Y-28951956D01*
X22228387Y-28961921D01*
X22206443Y-28969773D01*
X22183834Y-28975437D01*
X22160779Y-28978856D01*
X22137500Y-28980000D01*
X21662500Y-28980000D01*
X21639221Y-28978856D01*
X21616166Y-28975437D01*
X21593557Y-28969773D01*
X21571613Y-28961921D01*
X21550543Y-28951956D01*
X21530552Y-28939974D01*
X21511832Y-28926090D01*
X21494562Y-28910438D01*
X21478910Y-28893168D01*
X21465026Y-28874448D01*
X21453044Y-28854457D01*
X21443079Y-28833387D01*
X21435227Y-28811443D01*
X21429563Y-28788834D01*
X21426144Y-28765779D01*
X21425000Y-28742500D01*
X21425000Y-28167500D01*
X21426144Y-28144221D01*
X21429563Y-28121166D01*
X21435227Y-28098557D01*
X21443079Y-28076613D01*
X21453044Y-28055543D01*
X21465026Y-28035552D01*
X21478910Y-28016832D01*
X21494562Y-27999562D01*
X21511832Y-27983910D01*
X21530552Y-27970026D01*
X21550543Y-27958044D01*
X21571613Y-27948079D01*
X21593557Y-27940227D01*
X21616166Y-27934563D01*
X21639221Y-27931144D01*
X21662500Y-27930000D01*
X22137500Y-27930000D01*
X22160779Y-27931144D01*
X22160779Y-27931144D01*
G37*
D11*
X21900000Y-28455000D03*
D10*
G36*
X22160779Y-26181144D02*
G01*
X22183834Y-26184563D01*
X22206443Y-26190227D01*
X22228387Y-26198079D01*
X22249457Y-26208044D01*
X22269448Y-26220026D01*
X22288168Y-26233910D01*
X22305438Y-26249562D01*
X22321090Y-26266832D01*
X22334974Y-26285552D01*
X22346956Y-26305543D01*
X22356921Y-26326613D01*
X22364773Y-26348557D01*
X22370437Y-26371166D01*
X22373856Y-26394221D01*
X22375000Y-26417500D01*
X22375000Y-26992500D01*
X22373856Y-27015779D01*
X22370437Y-27038834D01*
X22364773Y-27061443D01*
X22356921Y-27083387D01*
X22346956Y-27104457D01*
X22334974Y-27124448D01*
X22321090Y-27143168D01*
X22305438Y-27160438D01*
X22288168Y-27176090D01*
X22269448Y-27189974D01*
X22249457Y-27201956D01*
X22228387Y-27211921D01*
X22206443Y-27219773D01*
X22183834Y-27225437D01*
X22160779Y-27228856D01*
X22137500Y-27230000D01*
X21662500Y-27230000D01*
X21639221Y-27228856D01*
X21616166Y-27225437D01*
X21593557Y-27219773D01*
X21571613Y-27211921D01*
X21550543Y-27201956D01*
X21530552Y-27189974D01*
X21511832Y-27176090D01*
X21494562Y-27160438D01*
X21478910Y-27143168D01*
X21465026Y-27124448D01*
X21453044Y-27104457D01*
X21443079Y-27083387D01*
X21435227Y-27061443D01*
X21429563Y-27038834D01*
X21426144Y-27015779D01*
X21425000Y-26992500D01*
X21425000Y-26417500D01*
X21426144Y-26394221D01*
X21429563Y-26371166D01*
X21435227Y-26348557D01*
X21443079Y-26326613D01*
X21453044Y-26305543D01*
X21465026Y-26285552D01*
X21478910Y-26266832D01*
X21494562Y-26249562D01*
X21511832Y-26233910D01*
X21530552Y-26220026D01*
X21550543Y-26208044D01*
X21571613Y-26198079D01*
X21593557Y-26190227D01*
X21616166Y-26184563D01*
X21639221Y-26181144D01*
X21662500Y-26180000D01*
X22137500Y-26180000D01*
X22160779Y-26181144D01*
X22160779Y-26181144D01*
G37*
D11*
X21900000Y-26705000D03*
D10*
G36*
X16890779Y-32291144D02*
G01*
X16913834Y-32294563D01*
X16936443Y-32300227D01*
X16958387Y-32308079D01*
X16979457Y-32318044D01*
X16999448Y-32330026D01*
X17018168Y-32343910D01*
X17035438Y-32359562D01*
X17051090Y-32376832D01*
X17064974Y-32395552D01*
X17076956Y-32415543D01*
X17086921Y-32436613D01*
X17094773Y-32458557D01*
X17100437Y-32481166D01*
X17103856Y-32504221D01*
X17105000Y-32527500D01*
X17105000Y-33102500D01*
X17103856Y-33125779D01*
X17100437Y-33148834D01*
X17094773Y-33171443D01*
X17086921Y-33193387D01*
X17076956Y-33214457D01*
X17064974Y-33234448D01*
X17051090Y-33253168D01*
X17035438Y-33270438D01*
X17018168Y-33286090D01*
X16999448Y-33299974D01*
X16979457Y-33311956D01*
X16958387Y-33321921D01*
X16936443Y-33329773D01*
X16913834Y-33335437D01*
X16890779Y-33338856D01*
X16867500Y-33340000D01*
X16392500Y-33340000D01*
X16369221Y-33338856D01*
X16346166Y-33335437D01*
X16323557Y-33329773D01*
X16301613Y-33321921D01*
X16280543Y-33311956D01*
X16260552Y-33299974D01*
X16241832Y-33286090D01*
X16224562Y-33270438D01*
X16208910Y-33253168D01*
X16195026Y-33234448D01*
X16183044Y-33214457D01*
X16173079Y-33193387D01*
X16165227Y-33171443D01*
X16159563Y-33148834D01*
X16156144Y-33125779D01*
X16155000Y-33102500D01*
X16155000Y-32527500D01*
X16156144Y-32504221D01*
X16159563Y-32481166D01*
X16165227Y-32458557D01*
X16173079Y-32436613D01*
X16183044Y-32415543D01*
X16195026Y-32395552D01*
X16208910Y-32376832D01*
X16224562Y-32359562D01*
X16241832Y-32343910D01*
X16260552Y-32330026D01*
X16280543Y-32318044D01*
X16301613Y-32308079D01*
X16323557Y-32300227D01*
X16346166Y-32294563D01*
X16369221Y-32291144D01*
X16392500Y-32290000D01*
X16867500Y-32290000D01*
X16890779Y-32291144D01*
X16890779Y-32291144D01*
G37*
D11*
X16630000Y-32815000D03*
D10*
G36*
X16890779Y-30541144D02*
G01*
X16913834Y-30544563D01*
X16936443Y-30550227D01*
X16958387Y-30558079D01*
X16979457Y-30568044D01*
X16999448Y-30580026D01*
X17018168Y-30593910D01*
X17035438Y-30609562D01*
X17051090Y-30626832D01*
X17064974Y-30645552D01*
X17076956Y-30665543D01*
X17086921Y-30686613D01*
X17094773Y-30708557D01*
X17100437Y-30731166D01*
X17103856Y-30754221D01*
X17105000Y-30777500D01*
X17105000Y-31352500D01*
X17103856Y-31375779D01*
X17100437Y-31398834D01*
X17094773Y-31421443D01*
X17086921Y-31443387D01*
X17076956Y-31464457D01*
X17064974Y-31484448D01*
X17051090Y-31503168D01*
X17035438Y-31520438D01*
X17018168Y-31536090D01*
X16999448Y-31549974D01*
X16979457Y-31561956D01*
X16958387Y-31571921D01*
X16936443Y-31579773D01*
X16913834Y-31585437D01*
X16890779Y-31588856D01*
X16867500Y-31590000D01*
X16392500Y-31590000D01*
X16369221Y-31588856D01*
X16346166Y-31585437D01*
X16323557Y-31579773D01*
X16301613Y-31571921D01*
X16280543Y-31561956D01*
X16260552Y-31549974D01*
X16241832Y-31536090D01*
X16224562Y-31520438D01*
X16208910Y-31503168D01*
X16195026Y-31484448D01*
X16183044Y-31464457D01*
X16173079Y-31443387D01*
X16165227Y-31421443D01*
X16159563Y-31398834D01*
X16156144Y-31375779D01*
X16155000Y-31352500D01*
X16155000Y-30777500D01*
X16156144Y-30754221D01*
X16159563Y-30731166D01*
X16165227Y-30708557D01*
X16173079Y-30686613D01*
X16183044Y-30665543D01*
X16195026Y-30645552D01*
X16208910Y-30626832D01*
X16224562Y-30609562D01*
X16241832Y-30593910D01*
X16260552Y-30580026D01*
X16280543Y-30568044D01*
X16301613Y-30558079D01*
X16323557Y-30550227D01*
X16346166Y-30544563D01*
X16369221Y-30541144D01*
X16392500Y-30540000D01*
X16867500Y-30540000D01*
X16890779Y-30541144D01*
X16890779Y-30541144D01*
G37*
D11*
X16630000Y-31065000D03*
D10*
G36*
X26337681Y-21625724D02*
G01*
X26360565Y-21630146D01*
X26382905Y-21636790D01*
X26404486Y-21645592D01*
X26425101Y-21656467D01*
X26444550Y-21669310D01*
X26462647Y-21683997D01*
X26479218Y-21700388D01*
X26494101Y-21718323D01*
X26507156Y-21737632D01*
X26518255Y-21758126D01*
X26527291Y-21779610D01*
X26723953Y-22319933D01*
X26730840Y-22342199D01*
X26735512Y-22365033D01*
X26737923Y-22388216D01*
X26738050Y-22411522D01*
X26735892Y-22434729D01*
X26731470Y-22457613D01*
X26724826Y-22479953D01*
X26716024Y-22501535D01*
X26705150Y-22522149D01*
X26692307Y-22541599D01*
X26677619Y-22559696D01*
X26661229Y-22576266D01*
X26643293Y-22591150D01*
X26623985Y-22604204D01*
X26603490Y-22615303D01*
X26582006Y-22624340D01*
X26135652Y-22786799D01*
X26113385Y-22793686D01*
X26090551Y-22798358D01*
X26067369Y-22800769D01*
X26044062Y-22800896D01*
X26020855Y-22798738D01*
X25997971Y-22794316D01*
X25975631Y-22787672D01*
X25954050Y-22778870D01*
X25933435Y-22767995D01*
X25913986Y-22755152D01*
X25895889Y-22740465D01*
X25879318Y-22724074D01*
X25864435Y-22706139D01*
X25851380Y-22686830D01*
X25840281Y-22666336D01*
X25831245Y-22644852D01*
X25634583Y-22104529D01*
X25627696Y-22082263D01*
X25623024Y-22059429D01*
X25620613Y-22036246D01*
X25620486Y-22012940D01*
X25622644Y-21989733D01*
X25627066Y-21966849D01*
X25633710Y-21944509D01*
X25642512Y-21922927D01*
X25653386Y-21902313D01*
X25666229Y-21882863D01*
X25680917Y-21864766D01*
X25697307Y-21848196D01*
X25715243Y-21833312D01*
X25734551Y-21820258D01*
X25755046Y-21809159D01*
X25776530Y-21800122D01*
X26222884Y-21637663D01*
X26245151Y-21630776D01*
X26267985Y-21626104D01*
X26291167Y-21623693D01*
X26314474Y-21623566D01*
X26337681Y-21625724D01*
X26337681Y-21625724D01*
G37*
D11*
X26179268Y-22212231D03*
D10*
G36*
X25739145Y-19981262D02*
G01*
X25762029Y-19985684D01*
X25784369Y-19992328D01*
X25805950Y-20001130D01*
X25826565Y-20012005D01*
X25846014Y-20024848D01*
X25864111Y-20039535D01*
X25880682Y-20055926D01*
X25895565Y-20073861D01*
X25908620Y-20093170D01*
X25919719Y-20113664D01*
X25928755Y-20135148D01*
X26125417Y-20675471D01*
X26132304Y-20697737D01*
X26136976Y-20720571D01*
X26139387Y-20743754D01*
X26139514Y-20767060D01*
X26137356Y-20790267D01*
X26132934Y-20813151D01*
X26126290Y-20835491D01*
X26117488Y-20857073D01*
X26106614Y-20877687D01*
X26093771Y-20897137D01*
X26079083Y-20915234D01*
X26062693Y-20931804D01*
X26044757Y-20946688D01*
X26025449Y-20959742D01*
X26004954Y-20970841D01*
X25983470Y-20979878D01*
X25537116Y-21142337D01*
X25514849Y-21149224D01*
X25492015Y-21153896D01*
X25468833Y-21156307D01*
X25445526Y-21156434D01*
X25422319Y-21154276D01*
X25399435Y-21149854D01*
X25377095Y-21143210D01*
X25355514Y-21134408D01*
X25334899Y-21123533D01*
X25315450Y-21110690D01*
X25297353Y-21096003D01*
X25280782Y-21079612D01*
X25265899Y-21061677D01*
X25252844Y-21042368D01*
X25241745Y-21021874D01*
X25232709Y-21000390D01*
X25036047Y-20460067D01*
X25029160Y-20437801D01*
X25024488Y-20414967D01*
X25022077Y-20391784D01*
X25021950Y-20368478D01*
X25024108Y-20345271D01*
X25028530Y-20322387D01*
X25035174Y-20300047D01*
X25043976Y-20278465D01*
X25054850Y-20257851D01*
X25067693Y-20238401D01*
X25082381Y-20220304D01*
X25098771Y-20203734D01*
X25116707Y-20188850D01*
X25136015Y-20175796D01*
X25156510Y-20164697D01*
X25177994Y-20155660D01*
X25624348Y-19993201D01*
X25646615Y-19986314D01*
X25669449Y-19981642D01*
X25692631Y-19979231D01*
X25715938Y-19979104D01*
X25739145Y-19981262D01*
X25739145Y-19981262D01*
G37*
D11*
X25580732Y-20567769D03*
D10*
G36*
X33955779Y-23496144D02*
G01*
X33978834Y-23499563D01*
X34001443Y-23505227D01*
X34023387Y-23513079D01*
X34044457Y-23523044D01*
X34064448Y-23535026D01*
X34083168Y-23548910D01*
X34100438Y-23564562D01*
X34116090Y-23581832D01*
X34129974Y-23600552D01*
X34141956Y-23620543D01*
X34151921Y-23641613D01*
X34159773Y-23663557D01*
X34165437Y-23686166D01*
X34168856Y-23709221D01*
X34170000Y-23732500D01*
X34170000Y-24207500D01*
X34168856Y-24230779D01*
X34165437Y-24253834D01*
X34159773Y-24276443D01*
X34151921Y-24298387D01*
X34141956Y-24319457D01*
X34129974Y-24339448D01*
X34116090Y-24358168D01*
X34100438Y-24375438D01*
X34083168Y-24391090D01*
X34064448Y-24404974D01*
X34044457Y-24416956D01*
X34023387Y-24426921D01*
X34001443Y-24434773D01*
X33978834Y-24440437D01*
X33955779Y-24443856D01*
X33932500Y-24445000D01*
X33357500Y-24445000D01*
X33334221Y-24443856D01*
X33311166Y-24440437D01*
X33288557Y-24434773D01*
X33266613Y-24426921D01*
X33245543Y-24416956D01*
X33225552Y-24404974D01*
X33206832Y-24391090D01*
X33189562Y-24375438D01*
X33173910Y-24358168D01*
X33160026Y-24339448D01*
X33148044Y-24319457D01*
X33138079Y-24298387D01*
X33130227Y-24276443D01*
X33124563Y-24253834D01*
X33121144Y-24230779D01*
X33120000Y-24207500D01*
X33120000Y-23732500D01*
X33121144Y-23709221D01*
X33124563Y-23686166D01*
X33130227Y-23663557D01*
X33138079Y-23641613D01*
X33148044Y-23620543D01*
X33160026Y-23600552D01*
X33173910Y-23581832D01*
X33189562Y-23564562D01*
X33206832Y-23548910D01*
X33225552Y-23535026D01*
X33245543Y-23523044D01*
X33266613Y-23513079D01*
X33288557Y-23505227D01*
X33311166Y-23499563D01*
X33334221Y-23496144D01*
X33357500Y-23495000D01*
X33932500Y-23495000D01*
X33955779Y-23496144D01*
X33955779Y-23496144D01*
G37*
D11*
X33645000Y-23970000D03*
D10*
G36*
X32205779Y-23496144D02*
G01*
X32228834Y-23499563D01*
X32251443Y-23505227D01*
X32273387Y-23513079D01*
X32294457Y-23523044D01*
X32314448Y-23535026D01*
X32333168Y-23548910D01*
X32350438Y-23564562D01*
X32366090Y-23581832D01*
X32379974Y-23600552D01*
X32391956Y-23620543D01*
X32401921Y-23641613D01*
X32409773Y-23663557D01*
X32415437Y-23686166D01*
X32418856Y-23709221D01*
X32420000Y-23732500D01*
X32420000Y-24207500D01*
X32418856Y-24230779D01*
X32415437Y-24253834D01*
X32409773Y-24276443D01*
X32401921Y-24298387D01*
X32391956Y-24319457D01*
X32379974Y-24339448D01*
X32366090Y-24358168D01*
X32350438Y-24375438D01*
X32333168Y-24391090D01*
X32314448Y-24404974D01*
X32294457Y-24416956D01*
X32273387Y-24426921D01*
X32251443Y-24434773D01*
X32228834Y-24440437D01*
X32205779Y-24443856D01*
X32182500Y-24445000D01*
X31607500Y-24445000D01*
X31584221Y-24443856D01*
X31561166Y-24440437D01*
X31538557Y-24434773D01*
X31516613Y-24426921D01*
X31495543Y-24416956D01*
X31475552Y-24404974D01*
X31456832Y-24391090D01*
X31439562Y-24375438D01*
X31423910Y-24358168D01*
X31410026Y-24339448D01*
X31398044Y-24319457D01*
X31388079Y-24298387D01*
X31380227Y-24276443D01*
X31374563Y-24253834D01*
X31371144Y-24230779D01*
X31370000Y-24207500D01*
X31370000Y-23732500D01*
X31371144Y-23709221D01*
X31374563Y-23686166D01*
X31380227Y-23663557D01*
X31388079Y-23641613D01*
X31398044Y-23620543D01*
X31410026Y-23600552D01*
X31423910Y-23581832D01*
X31439562Y-23564562D01*
X31456832Y-23548910D01*
X31475552Y-23535026D01*
X31495543Y-23523044D01*
X31516613Y-23513079D01*
X31538557Y-23505227D01*
X31561166Y-23499563D01*
X31584221Y-23496144D01*
X31607500Y-23495000D01*
X32182500Y-23495000D01*
X32205779Y-23496144D01*
X32205779Y-23496144D01*
G37*
D11*
X31895000Y-23970000D03*
D10*
G36*
X25230779Y-26171144D02*
G01*
X25253834Y-26174563D01*
X25276443Y-26180227D01*
X25298387Y-26188079D01*
X25319457Y-26198044D01*
X25339448Y-26210026D01*
X25358168Y-26223910D01*
X25375438Y-26239562D01*
X25391090Y-26256832D01*
X25404974Y-26275552D01*
X25416956Y-26295543D01*
X25426921Y-26316613D01*
X25434773Y-26338557D01*
X25440437Y-26361166D01*
X25443856Y-26384221D01*
X25445000Y-26407500D01*
X25445000Y-26982500D01*
X25443856Y-27005779D01*
X25440437Y-27028834D01*
X25434773Y-27051443D01*
X25426921Y-27073387D01*
X25416956Y-27094457D01*
X25404974Y-27114448D01*
X25391090Y-27133168D01*
X25375438Y-27150438D01*
X25358168Y-27166090D01*
X25339448Y-27179974D01*
X25319457Y-27191956D01*
X25298387Y-27201921D01*
X25276443Y-27209773D01*
X25253834Y-27215437D01*
X25230779Y-27218856D01*
X25207500Y-27220000D01*
X24732500Y-27220000D01*
X24709221Y-27218856D01*
X24686166Y-27215437D01*
X24663557Y-27209773D01*
X24641613Y-27201921D01*
X24620543Y-27191956D01*
X24600552Y-27179974D01*
X24581832Y-27166090D01*
X24564562Y-27150438D01*
X24548910Y-27133168D01*
X24535026Y-27114448D01*
X24523044Y-27094457D01*
X24513079Y-27073387D01*
X24505227Y-27051443D01*
X24499563Y-27028834D01*
X24496144Y-27005779D01*
X24495000Y-26982500D01*
X24495000Y-26407500D01*
X24496144Y-26384221D01*
X24499563Y-26361166D01*
X24505227Y-26338557D01*
X24513079Y-26316613D01*
X24523044Y-26295543D01*
X24535026Y-26275552D01*
X24548910Y-26256832D01*
X24564562Y-26239562D01*
X24581832Y-26223910D01*
X24600552Y-26210026D01*
X24620543Y-26198044D01*
X24641613Y-26188079D01*
X24663557Y-26180227D01*
X24686166Y-26174563D01*
X24709221Y-26171144D01*
X24732500Y-26170000D01*
X25207500Y-26170000D01*
X25230779Y-26171144D01*
X25230779Y-26171144D01*
G37*
D11*
X24970000Y-26695000D03*
D10*
G36*
X25230779Y-27921144D02*
G01*
X25253834Y-27924563D01*
X25276443Y-27930227D01*
X25298387Y-27938079D01*
X25319457Y-27948044D01*
X25339448Y-27960026D01*
X25358168Y-27973910D01*
X25375438Y-27989562D01*
X25391090Y-28006832D01*
X25404974Y-28025552D01*
X25416956Y-28045543D01*
X25426921Y-28066613D01*
X25434773Y-28088557D01*
X25440437Y-28111166D01*
X25443856Y-28134221D01*
X25445000Y-28157500D01*
X25445000Y-28732500D01*
X25443856Y-28755779D01*
X25440437Y-28778834D01*
X25434773Y-28801443D01*
X25426921Y-28823387D01*
X25416956Y-28844457D01*
X25404974Y-28864448D01*
X25391090Y-28883168D01*
X25375438Y-28900438D01*
X25358168Y-28916090D01*
X25339448Y-28929974D01*
X25319457Y-28941956D01*
X25298387Y-28951921D01*
X25276443Y-28959773D01*
X25253834Y-28965437D01*
X25230779Y-28968856D01*
X25207500Y-28970000D01*
X24732500Y-28970000D01*
X24709221Y-28968856D01*
X24686166Y-28965437D01*
X24663557Y-28959773D01*
X24641613Y-28951921D01*
X24620543Y-28941956D01*
X24600552Y-28929974D01*
X24581832Y-28916090D01*
X24564562Y-28900438D01*
X24548910Y-28883168D01*
X24535026Y-28864448D01*
X24523044Y-28844457D01*
X24513079Y-28823387D01*
X24505227Y-28801443D01*
X24499563Y-28778834D01*
X24496144Y-28755779D01*
X24495000Y-28732500D01*
X24495000Y-28157500D01*
X24496144Y-28134221D01*
X24499563Y-28111166D01*
X24505227Y-28088557D01*
X24513079Y-28066613D01*
X24523044Y-28045543D01*
X24535026Y-28025552D01*
X24548910Y-28006832D01*
X24564562Y-27989562D01*
X24581832Y-27973910D01*
X24600552Y-27960026D01*
X24620543Y-27948044D01*
X24641613Y-27938079D01*
X24663557Y-27930227D01*
X24686166Y-27924563D01*
X24709221Y-27921144D01*
X24732500Y-27920000D01*
X25207500Y-27920000D01*
X25230779Y-27921144D01*
X25230779Y-27921144D01*
G37*
D11*
X24970000Y-28445000D03*
D10*
G36*
X23690779Y-27931144D02*
G01*
X23713834Y-27934563D01*
X23736443Y-27940227D01*
X23758387Y-27948079D01*
X23779457Y-27958044D01*
X23799448Y-27970026D01*
X23818168Y-27983910D01*
X23835438Y-27999562D01*
X23851090Y-28016832D01*
X23864974Y-28035552D01*
X23876956Y-28055543D01*
X23886921Y-28076613D01*
X23894773Y-28098557D01*
X23900437Y-28121166D01*
X23903856Y-28144221D01*
X23905000Y-28167500D01*
X23905000Y-28742500D01*
X23903856Y-28765779D01*
X23900437Y-28788834D01*
X23894773Y-28811443D01*
X23886921Y-28833387D01*
X23876956Y-28854457D01*
X23864974Y-28874448D01*
X23851090Y-28893168D01*
X23835438Y-28910438D01*
X23818168Y-28926090D01*
X23799448Y-28939974D01*
X23779457Y-28951956D01*
X23758387Y-28961921D01*
X23736443Y-28969773D01*
X23713834Y-28975437D01*
X23690779Y-28978856D01*
X23667500Y-28980000D01*
X23192500Y-28980000D01*
X23169221Y-28978856D01*
X23146166Y-28975437D01*
X23123557Y-28969773D01*
X23101613Y-28961921D01*
X23080543Y-28951956D01*
X23060552Y-28939974D01*
X23041832Y-28926090D01*
X23024562Y-28910438D01*
X23008910Y-28893168D01*
X22995026Y-28874448D01*
X22983044Y-28854457D01*
X22973079Y-28833387D01*
X22965227Y-28811443D01*
X22959563Y-28788834D01*
X22956144Y-28765779D01*
X22955000Y-28742500D01*
X22955000Y-28167500D01*
X22956144Y-28144221D01*
X22959563Y-28121166D01*
X22965227Y-28098557D01*
X22973079Y-28076613D01*
X22983044Y-28055543D01*
X22995026Y-28035552D01*
X23008910Y-28016832D01*
X23024562Y-27999562D01*
X23041832Y-27983910D01*
X23060552Y-27970026D01*
X23080543Y-27958044D01*
X23101613Y-27948079D01*
X23123557Y-27940227D01*
X23146166Y-27934563D01*
X23169221Y-27931144D01*
X23192500Y-27930000D01*
X23667500Y-27930000D01*
X23690779Y-27931144D01*
X23690779Y-27931144D01*
G37*
D11*
X23430000Y-28455000D03*
D10*
G36*
X23690779Y-26181144D02*
G01*
X23713834Y-26184563D01*
X23736443Y-26190227D01*
X23758387Y-26198079D01*
X23779457Y-26208044D01*
X23799448Y-26220026D01*
X23818168Y-26233910D01*
X23835438Y-26249562D01*
X23851090Y-26266832D01*
X23864974Y-26285552D01*
X23876956Y-26305543D01*
X23886921Y-26326613D01*
X23894773Y-26348557D01*
X23900437Y-26371166D01*
X23903856Y-26394221D01*
X23905000Y-26417500D01*
X23905000Y-26992500D01*
X23903856Y-27015779D01*
X23900437Y-27038834D01*
X23894773Y-27061443D01*
X23886921Y-27083387D01*
X23876956Y-27104457D01*
X23864974Y-27124448D01*
X23851090Y-27143168D01*
X23835438Y-27160438D01*
X23818168Y-27176090D01*
X23799448Y-27189974D01*
X23779457Y-27201956D01*
X23758387Y-27211921D01*
X23736443Y-27219773D01*
X23713834Y-27225437D01*
X23690779Y-27228856D01*
X23667500Y-27230000D01*
X23192500Y-27230000D01*
X23169221Y-27228856D01*
X23146166Y-27225437D01*
X23123557Y-27219773D01*
X23101613Y-27211921D01*
X23080543Y-27201956D01*
X23060552Y-27189974D01*
X23041832Y-27176090D01*
X23024562Y-27160438D01*
X23008910Y-27143168D01*
X22995026Y-27124448D01*
X22983044Y-27104457D01*
X22973079Y-27083387D01*
X22965227Y-27061443D01*
X22959563Y-27038834D01*
X22956144Y-27015779D01*
X22955000Y-26992500D01*
X22955000Y-26417500D01*
X22956144Y-26394221D01*
X22959563Y-26371166D01*
X22965227Y-26348557D01*
X22973079Y-26326613D01*
X22983044Y-26305543D01*
X22995026Y-26285552D01*
X23008910Y-26266832D01*
X23024562Y-26249562D01*
X23041832Y-26233910D01*
X23060552Y-26220026D01*
X23080543Y-26208044D01*
X23101613Y-26198079D01*
X23123557Y-26190227D01*
X23146166Y-26184563D01*
X23169221Y-26181144D01*
X23192500Y-26180000D01*
X23667500Y-26180000D01*
X23690779Y-26181144D01*
X23690779Y-26181144D01*
G37*
D11*
X23430000Y-26705000D03*
D10*
G36*
X42100980Y-72968455D02*
G01*
X42124135Y-72971119D01*
X42146916Y-72976040D01*
X42169106Y-72983169D01*
X42190490Y-72992440D01*
X42210863Y-73003761D01*
X42230028Y-73017026D01*
X42247800Y-73032104D01*
X42264009Y-73048852D01*
X42278498Y-73067108D01*
X42291128Y-73086697D01*
X42528628Y-73498059D01*
X42539277Y-73518791D01*
X42547843Y-73540467D01*
X42554243Y-73562878D01*
X42558415Y-73585809D01*
X42560320Y-73609038D01*
X42559938Y-73632342D01*
X42557275Y-73655497D01*
X42552354Y-73678279D01*
X42545225Y-73700468D01*
X42535954Y-73721853D01*
X42524633Y-73742225D01*
X42511368Y-73761390D01*
X42496290Y-73779162D01*
X42479542Y-73795371D01*
X42461285Y-73809860D01*
X42441697Y-73822490D01*
X41943733Y-74109990D01*
X41923001Y-74120639D01*
X41901325Y-74129205D01*
X41878914Y-74135605D01*
X41855983Y-74139777D01*
X41832754Y-74141682D01*
X41809450Y-74141301D01*
X41786295Y-74138637D01*
X41763514Y-74133716D01*
X41741324Y-74126587D01*
X41719940Y-74117316D01*
X41699567Y-74105995D01*
X41680402Y-74092730D01*
X41662630Y-74077652D01*
X41646421Y-74060904D01*
X41631932Y-74042648D01*
X41619302Y-74023059D01*
X41381802Y-73611697D01*
X41371153Y-73590965D01*
X41362587Y-73569289D01*
X41356187Y-73546878D01*
X41352015Y-73523947D01*
X41350110Y-73500718D01*
X41350492Y-73477414D01*
X41353155Y-73454259D01*
X41358076Y-73431477D01*
X41365205Y-73409288D01*
X41374476Y-73387903D01*
X41385797Y-73367531D01*
X41399062Y-73348366D01*
X41414140Y-73330594D01*
X41430888Y-73314385D01*
X41449145Y-73299896D01*
X41468733Y-73287266D01*
X41966697Y-72999766D01*
X41987429Y-72989117D01*
X42009105Y-72980551D01*
X42031516Y-72974151D01*
X42054447Y-72969979D01*
X42077676Y-72968074D01*
X42100980Y-72968455D01*
X42100980Y-72968455D01*
G37*
D11*
X41955215Y-73554878D03*
D10*
G36*
X40585436Y-73843455D02*
G01*
X40608591Y-73846119D01*
X40631372Y-73851040D01*
X40653562Y-73858169D01*
X40674946Y-73867440D01*
X40695319Y-73878761D01*
X40714484Y-73892026D01*
X40732256Y-73907104D01*
X40748465Y-73923852D01*
X40762954Y-73942108D01*
X40775584Y-73961697D01*
X41013084Y-74373059D01*
X41023733Y-74393791D01*
X41032299Y-74415467D01*
X41038699Y-74437878D01*
X41042871Y-74460809D01*
X41044776Y-74484038D01*
X41044394Y-74507342D01*
X41041731Y-74530497D01*
X41036810Y-74553279D01*
X41029681Y-74575468D01*
X41020410Y-74596853D01*
X41009089Y-74617225D01*
X40995824Y-74636390D01*
X40980746Y-74654162D01*
X40963998Y-74670371D01*
X40945741Y-74684860D01*
X40926153Y-74697490D01*
X40428189Y-74984990D01*
X40407457Y-74995639D01*
X40385781Y-75004205D01*
X40363370Y-75010605D01*
X40340439Y-75014777D01*
X40317210Y-75016682D01*
X40293906Y-75016301D01*
X40270751Y-75013637D01*
X40247970Y-75008716D01*
X40225780Y-75001587D01*
X40204396Y-74992316D01*
X40184023Y-74980995D01*
X40164858Y-74967730D01*
X40147086Y-74952652D01*
X40130877Y-74935904D01*
X40116388Y-74917648D01*
X40103758Y-74898059D01*
X39866258Y-74486697D01*
X39855609Y-74465965D01*
X39847043Y-74444289D01*
X39840643Y-74421878D01*
X39836471Y-74398947D01*
X39834566Y-74375718D01*
X39834948Y-74352414D01*
X39837611Y-74329259D01*
X39842532Y-74306477D01*
X39849661Y-74284288D01*
X39858932Y-74262903D01*
X39870253Y-74242531D01*
X39883518Y-74223366D01*
X39898596Y-74205594D01*
X39915344Y-74189385D01*
X39933601Y-74174896D01*
X39953189Y-74162266D01*
X40451153Y-73874766D01*
X40471885Y-73864117D01*
X40493561Y-73855551D01*
X40515972Y-73849151D01*
X40538903Y-73844979D01*
X40562132Y-73843074D01*
X40585436Y-73843455D01*
X40585436Y-73843455D01*
G37*
D11*
X40439671Y-74429878D03*
D10*
G36*
X26750779Y-26161144D02*
G01*
X26773834Y-26164563D01*
X26796443Y-26170227D01*
X26818387Y-26178079D01*
X26839457Y-26188044D01*
X26859448Y-26200026D01*
X26878168Y-26213910D01*
X26895438Y-26229562D01*
X26911090Y-26246832D01*
X26924974Y-26265552D01*
X26936956Y-26285543D01*
X26946921Y-26306613D01*
X26954773Y-26328557D01*
X26960437Y-26351166D01*
X26963856Y-26374221D01*
X26965000Y-26397500D01*
X26965000Y-26972500D01*
X26963856Y-26995779D01*
X26960437Y-27018834D01*
X26954773Y-27041443D01*
X26946921Y-27063387D01*
X26936956Y-27084457D01*
X26924974Y-27104448D01*
X26911090Y-27123168D01*
X26895438Y-27140438D01*
X26878168Y-27156090D01*
X26859448Y-27169974D01*
X26839457Y-27181956D01*
X26818387Y-27191921D01*
X26796443Y-27199773D01*
X26773834Y-27205437D01*
X26750779Y-27208856D01*
X26727500Y-27210000D01*
X26252500Y-27210000D01*
X26229221Y-27208856D01*
X26206166Y-27205437D01*
X26183557Y-27199773D01*
X26161613Y-27191921D01*
X26140543Y-27181956D01*
X26120552Y-27169974D01*
X26101832Y-27156090D01*
X26084562Y-27140438D01*
X26068910Y-27123168D01*
X26055026Y-27104448D01*
X26043044Y-27084457D01*
X26033079Y-27063387D01*
X26025227Y-27041443D01*
X26019563Y-27018834D01*
X26016144Y-26995779D01*
X26015000Y-26972500D01*
X26015000Y-26397500D01*
X26016144Y-26374221D01*
X26019563Y-26351166D01*
X26025227Y-26328557D01*
X26033079Y-26306613D01*
X26043044Y-26285543D01*
X26055026Y-26265552D01*
X26068910Y-26246832D01*
X26084562Y-26229562D01*
X26101832Y-26213910D01*
X26120552Y-26200026D01*
X26140543Y-26188044D01*
X26161613Y-26178079D01*
X26183557Y-26170227D01*
X26206166Y-26164563D01*
X26229221Y-26161144D01*
X26252500Y-26160000D01*
X26727500Y-26160000D01*
X26750779Y-26161144D01*
X26750779Y-26161144D01*
G37*
D11*
X26490000Y-26685000D03*
D10*
G36*
X26750779Y-27911144D02*
G01*
X26773834Y-27914563D01*
X26796443Y-27920227D01*
X26818387Y-27928079D01*
X26839457Y-27938044D01*
X26859448Y-27950026D01*
X26878168Y-27963910D01*
X26895438Y-27979562D01*
X26911090Y-27996832D01*
X26924974Y-28015552D01*
X26936956Y-28035543D01*
X26946921Y-28056613D01*
X26954773Y-28078557D01*
X26960437Y-28101166D01*
X26963856Y-28124221D01*
X26965000Y-28147500D01*
X26965000Y-28722500D01*
X26963856Y-28745779D01*
X26960437Y-28768834D01*
X26954773Y-28791443D01*
X26946921Y-28813387D01*
X26936956Y-28834457D01*
X26924974Y-28854448D01*
X26911090Y-28873168D01*
X26895438Y-28890438D01*
X26878168Y-28906090D01*
X26859448Y-28919974D01*
X26839457Y-28931956D01*
X26818387Y-28941921D01*
X26796443Y-28949773D01*
X26773834Y-28955437D01*
X26750779Y-28958856D01*
X26727500Y-28960000D01*
X26252500Y-28960000D01*
X26229221Y-28958856D01*
X26206166Y-28955437D01*
X26183557Y-28949773D01*
X26161613Y-28941921D01*
X26140543Y-28931956D01*
X26120552Y-28919974D01*
X26101832Y-28906090D01*
X26084562Y-28890438D01*
X26068910Y-28873168D01*
X26055026Y-28854448D01*
X26043044Y-28834457D01*
X26033079Y-28813387D01*
X26025227Y-28791443D01*
X26019563Y-28768834D01*
X26016144Y-28745779D01*
X26015000Y-28722500D01*
X26015000Y-28147500D01*
X26016144Y-28124221D01*
X26019563Y-28101166D01*
X26025227Y-28078557D01*
X26033079Y-28056613D01*
X26043044Y-28035543D01*
X26055026Y-28015552D01*
X26068910Y-27996832D01*
X26084562Y-27979562D01*
X26101832Y-27963910D01*
X26120552Y-27950026D01*
X26140543Y-27938044D01*
X26161613Y-27928079D01*
X26183557Y-27920227D01*
X26206166Y-27914563D01*
X26229221Y-27911144D01*
X26252500Y-27910000D01*
X26727500Y-27910000D01*
X26750779Y-27911144D01*
X26750779Y-27911144D01*
G37*
D11*
X26490000Y-28435000D03*
D10*
G36*
X28930779Y-46071144D02*
G01*
X28953834Y-46074563D01*
X28976443Y-46080227D01*
X28998387Y-46088079D01*
X29019457Y-46098044D01*
X29039448Y-46110026D01*
X29058168Y-46123910D01*
X29075438Y-46139562D01*
X29091090Y-46156832D01*
X29104974Y-46175552D01*
X29116956Y-46195543D01*
X29126921Y-46216613D01*
X29134773Y-46238557D01*
X29140437Y-46261166D01*
X29143856Y-46284221D01*
X29145000Y-46307500D01*
X29145000Y-46882500D01*
X29143856Y-46905779D01*
X29140437Y-46928834D01*
X29134773Y-46951443D01*
X29126921Y-46973387D01*
X29116956Y-46994457D01*
X29104974Y-47014448D01*
X29091090Y-47033168D01*
X29075438Y-47050438D01*
X29058168Y-47066090D01*
X29039448Y-47079974D01*
X29019457Y-47091956D01*
X28998387Y-47101921D01*
X28976443Y-47109773D01*
X28953834Y-47115437D01*
X28930779Y-47118856D01*
X28907500Y-47120000D01*
X28432500Y-47120000D01*
X28409221Y-47118856D01*
X28386166Y-47115437D01*
X28363557Y-47109773D01*
X28341613Y-47101921D01*
X28320543Y-47091956D01*
X28300552Y-47079974D01*
X28281832Y-47066090D01*
X28264562Y-47050438D01*
X28248910Y-47033168D01*
X28235026Y-47014448D01*
X28223044Y-46994457D01*
X28213079Y-46973387D01*
X28205227Y-46951443D01*
X28199563Y-46928834D01*
X28196144Y-46905779D01*
X28195000Y-46882500D01*
X28195000Y-46307500D01*
X28196144Y-46284221D01*
X28199563Y-46261166D01*
X28205227Y-46238557D01*
X28213079Y-46216613D01*
X28223044Y-46195543D01*
X28235026Y-46175552D01*
X28248910Y-46156832D01*
X28264562Y-46139562D01*
X28281832Y-46123910D01*
X28300552Y-46110026D01*
X28320543Y-46098044D01*
X28341613Y-46088079D01*
X28363557Y-46080227D01*
X28386166Y-46074563D01*
X28409221Y-46071144D01*
X28432500Y-46070000D01*
X28907500Y-46070000D01*
X28930779Y-46071144D01*
X28930779Y-46071144D01*
G37*
D11*
X28670000Y-46595000D03*
D10*
G36*
X28930779Y-47821144D02*
G01*
X28953834Y-47824563D01*
X28976443Y-47830227D01*
X28998387Y-47838079D01*
X29019457Y-47848044D01*
X29039448Y-47860026D01*
X29058168Y-47873910D01*
X29075438Y-47889562D01*
X29091090Y-47906832D01*
X29104974Y-47925552D01*
X29116956Y-47945543D01*
X29126921Y-47966613D01*
X29134773Y-47988557D01*
X29140437Y-48011166D01*
X29143856Y-48034221D01*
X29145000Y-48057500D01*
X29145000Y-48632500D01*
X29143856Y-48655779D01*
X29140437Y-48678834D01*
X29134773Y-48701443D01*
X29126921Y-48723387D01*
X29116956Y-48744457D01*
X29104974Y-48764448D01*
X29091090Y-48783168D01*
X29075438Y-48800438D01*
X29058168Y-48816090D01*
X29039448Y-48829974D01*
X29019457Y-48841956D01*
X28998387Y-48851921D01*
X28976443Y-48859773D01*
X28953834Y-48865437D01*
X28930779Y-48868856D01*
X28907500Y-48870000D01*
X28432500Y-48870000D01*
X28409221Y-48868856D01*
X28386166Y-48865437D01*
X28363557Y-48859773D01*
X28341613Y-48851921D01*
X28320543Y-48841956D01*
X28300552Y-48829974D01*
X28281832Y-48816090D01*
X28264562Y-48800438D01*
X28248910Y-48783168D01*
X28235026Y-48764448D01*
X28223044Y-48744457D01*
X28213079Y-48723387D01*
X28205227Y-48701443D01*
X28199563Y-48678834D01*
X28196144Y-48655779D01*
X28195000Y-48632500D01*
X28195000Y-48057500D01*
X28196144Y-48034221D01*
X28199563Y-48011166D01*
X28205227Y-47988557D01*
X28213079Y-47966613D01*
X28223044Y-47945543D01*
X28235026Y-47925552D01*
X28248910Y-47906832D01*
X28264562Y-47889562D01*
X28281832Y-47873910D01*
X28300552Y-47860026D01*
X28320543Y-47848044D01*
X28341613Y-47838079D01*
X28363557Y-47830227D01*
X28386166Y-47824563D01*
X28409221Y-47821144D01*
X28432500Y-47820000D01*
X28907500Y-47820000D01*
X28930779Y-47821144D01*
X28930779Y-47821144D01*
G37*
D11*
X28670000Y-48345000D03*
D10*
G36*
X30460779Y-47821144D02*
G01*
X30483834Y-47824563D01*
X30506443Y-47830227D01*
X30528387Y-47838079D01*
X30549457Y-47848044D01*
X30569448Y-47860026D01*
X30588168Y-47873910D01*
X30605438Y-47889562D01*
X30621090Y-47906832D01*
X30634974Y-47925552D01*
X30646956Y-47945543D01*
X30656921Y-47966613D01*
X30664773Y-47988557D01*
X30670437Y-48011166D01*
X30673856Y-48034221D01*
X30675000Y-48057500D01*
X30675000Y-48632500D01*
X30673856Y-48655779D01*
X30670437Y-48678834D01*
X30664773Y-48701443D01*
X30656921Y-48723387D01*
X30646956Y-48744457D01*
X30634974Y-48764448D01*
X30621090Y-48783168D01*
X30605438Y-48800438D01*
X30588168Y-48816090D01*
X30569448Y-48829974D01*
X30549457Y-48841956D01*
X30528387Y-48851921D01*
X30506443Y-48859773D01*
X30483834Y-48865437D01*
X30460779Y-48868856D01*
X30437500Y-48870000D01*
X29962500Y-48870000D01*
X29939221Y-48868856D01*
X29916166Y-48865437D01*
X29893557Y-48859773D01*
X29871613Y-48851921D01*
X29850543Y-48841956D01*
X29830552Y-48829974D01*
X29811832Y-48816090D01*
X29794562Y-48800438D01*
X29778910Y-48783168D01*
X29765026Y-48764448D01*
X29753044Y-48744457D01*
X29743079Y-48723387D01*
X29735227Y-48701443D01*
X29729563Y-48678834D01*
X29726144Y-48655779D01*
X29725000Y-48632500D01*
X29725000Y-48057500D01*
X29726144Y-48034221D01*
X29729563Y-48011166D01*
X29735227Y-47988557D01*
X29743079Y-47966613D01*
X29753044Y-47945543D01*
X29765026Y-47925552D01*
X29778910Y-47906832D01*
X29794562Y-47889562D01*
X29811832Y-47873910D01*
X29830552Y-47860026D01*
X29850543Y-47848044D01*
X29871613Y-47838079D01*
X29893557Y-47830227D01*
X29916166Y-47824563D01*
X29939221Y-47821144D01*
X29962500Y-47820000D01*
X30437500Y-47820000D01*
X30460779Y-47821144D01*
X30460779Y-47821144D01*
G37*
D11*
X30200000Y-48345000D03*
D10*
G36*
X30460779Y-46071144D02*
G01*
X30483834Y-46074563D01*
X30506443Y-46080227D01*
X30528387Y-46088079D01*
X30549457Y-46098044D01*
X30569448Y-46110026D01*
X30588168Y-46123910D01*
X30605438Y-46139562D01*
X30621090Y-46156832D01*
X30634974Y-46175552D01*
X30646956Y-46195543D01*
X30656921Y-46216613D01*
X30664773Y-46238557D01*
X30670437Y-46261166D01*
X30673856Y-46284221D01*
X30675000Y-46307500D01*
X30675000Y-46882500D01*
X30673856Y-46905779D01*
X30670437Y-46928834D01*
X30664773Y-46951443D01*
X30656921Y-46973387D01*
X30646956Y-46994457D01*
X30634974Y-47014448D01*
X30621090Y-47033168D01*
X30605438Y-47050438D01*
X30588168Y-47066090D01*
X30569448Y-47079974D01*
X30549457Y-47091956D01*
X30528387Y-47101921D01*
X30506443Y-47109773D01*
X30483834Y-47115437D01*
X30460779Y-47118856D01*
X30437500Y-47120000D01*
X29962500Y-47120000D01*
X29939221Y-47118856D01*
X29916166Y-47115437D01*
X29893557Y-47109773D01*
X29871613Y-47101921D01*
X29850543Y-47091956D01*
X29830552Y-47079974D01*
X29811832Y-47066090D01*
X29794562Y-47050438D01*
X29778910Y-47033168D01*
X29765026Y-47014448D01*
X29753044Y-46994457D01*
X29743079Y-46973387D01*
X29735227Y-46951443D01*
X29729563Y-46928834D01*
X29726144Y-46905779D01*
X29725000Y-46882500D01*
X29725000Y-46307500D01*
X29726144Y-46284221D01*
X29729563Y-46261166D01*
X29735227Y-46238557D01*
X29743079Y-46216613D01*
X29753044Y-46195543D01*
X29765026Y-46175552D01*
X29778910Y-46156832D01*
X29794562Y-46139562D01*
X29811832Y-46123910D01*
X29830552Y-46110026D01*
X29850543Y-46098044D01*
X29871613Y-46088079D01*
X29893557Y-46080227D01*
X29916166Y-46074563D01*
X29939221Y-46071144D01*
X29962500Y-46070000D01*
X30437500Y-46070000D01*
X30460779Y-46071144D01*
X30460779Y-46071144D01*
G37*
D11*
X30200000Y-46595000D03*
D10*
G36*
X20717933Y-113601318D02*
G01*
X20741058Y-113604234D01*
X21307323Y-113704082D01*
X21330049Y-113709251D01*
X21352160Y-113716622D01*
X21373442Y-113726125D01*
X21393690Y-113737669D01*
X21412709Y-113751141D01*
X21430315Y-113766413D01*
X21446341Y-113783337D01*
X21460630Y-113801750D01*
X21473045Y-113821475D01*
X21483468Y-113842322D01*
X21491796Y-113864090D01*
X21497951Y-113886570D01*
X21501873Y-113909544D01*
X21503524Y-113932793D01*
X21502889Y-113956092D01*
X21499973Y-113979215D01*
X21417490Y-114446999D01*
X21412321Y-114469726D01*
X21404950Y-114491837D01*
X21395447Y-114513119D01*
X21383903Y-114533367D01*
X21370431Y-114552386D01*
X21355159Y-114569992D01*
X21338236Y-114586017D01*
X21319822Y-114600307D01*
X21300097Y-114612722D01*
X21279250Y-114623144D01*
X21257482Y-114631473D01*
X21235002Y-114637628D01*
X21212028Y-114641550D01*
X21188779Y-114643201D01*
X21165481Y-114642566D01*
X21142356Y-114639650D01*
X20576091Y-114539802D01*
X20553365Y-114534633D01*
X20531254Y-114527262D01*
X20509972Y-114517759D01*
X20489724Y-114506215D01*
X20470705Y-114492743D01*
X20453099Y-114477471D01*
X20437073Y-114460547D01*
X20422784Y-114442134D01*
X20410369Y-114422409D01*
X20399946Y-114401562D01*
X20391618Y-114379794D01*
X20385463Y-114357314D01*
X20381541Y-114334340D01*
X20379890Y-114311091D01*
X20380525Y-114287792D01*
X20383441Y-114264669D01*
X20465924Y-113796885D01*
X20471093Y-113774158D01*
X20478464Y-113752047D01*
X20487967Y-113730765D01*
X20499511Y-113710517D01*
X20512983Y-113691498D01*
X20528255Y-113673892D01*
X20545178Y-113657867D01*
X20563592Y-113643577D01*
X20583317Y-113631162D01*
X20604164Y-113620740D01*
X20625932Y-113612411D01*
X20648412Y-113606256D01*
X20671386Y-113602334D01*
X20694635Y-113600683D01*
X20717933Y-113601318D01*
X20717933Y-113601318D01*
G37*
D11*
X20941707Y-114121942D03*
D10*
G36*
X18994519Y-113297434D02*
G01*
X19017644Y-113300350D01*
X19583909Y-113400198D01*
X19606635Y-113405367D01*
X19628746Y-113412738D01*
X19650028Y-113422241D01*
X19670276Y-113433785D01*
X19689295Y-113447257D01*
X19706901Y-113462529D01*
X19722927Y-113479453D01*
X19737216Y-113497866D01*
X19749631Y-113517591D01*
X19760054Y-113538438D01*
X19768382Y-113560206D01*
X19774537Y-113582686D01*
X19778459Y-113605660D01*
X19780110Y-113628909D01*
X19779475Y-113652208D01*
X19776559Y-113675331D01*
X19694076Y-114143115D01*
X19688907Y-114165842D01*
X19681536Y-114187953D01*
X19672033Y-114209235D01*
X19660489Y-114229483D01*
X19647017Y-114248502D01*
X19631745Y-114266108D01*
X19614822Y-114282133D01*
X19596408Y-114296423D01*
X19576683Y-114308838D01*
X19555836Y-114319260D01*
X19534068Y-114327589D01*
X19511588Y-114333744D01*
X19488614Y-114337666D01*
X19465365Y-114339317D01*
X19442067Y-114338682D01*
X19418942Y-114335766D01*
X18852677Y-114235918D01*
X18829951Y-114230749D01*
X18807840Y-114223378D01*
X18786558Y-114213875D01*
X18766310Y-114202331D01*
X18747291Y-114188859D01*
X18729685Y-114173587D01*
X18713659Y-114156663D01*
X18699370Y-114138250D01*
X18686955Y-114118525D01*
X18676532Y-114097678D01*
X18668204Y-114075910D01*
X18662049Y-114053430D01*
X18658127Y-114030456D01*
X18656476Y-114007207D01*
X18657111Y-113983908D01*
X18660027Y-113960785D01*
X18742510Y-113493001D01*
X18747679Y-113470274D01*
X18755050Y-113448163D01*
X18764553Y-113426881D01*
X18776097Y-113406633D01*
X18789569Y-113387614D01*
X18804841Y-113370008D01*
X18821764Y-113353983D01*
X18840178Y-113339693D01*
X18859903Y-113327278D01*
X18880750Y-113316856D01*
X18902518Y-113308527D01*
X18924998Y-113302372D01*
X18947972Y-113298450D01*
X18971221Y-113296799D01*
X18994519Y-113297434D01*
X18994519Y-113297434D01*
G37*
D11*
X19218293Y-113818058D03*
D10*
G36*
X29875724Y-61903687D02*
G01*
X29898879Y-61906350D01*
X29921661Y-61911271D01*
X29943850Y-61918400D01*
X29965235Y-61927671D01*
X29985607Y-61938992D01*
X30004772Y-61952257D01*
X30022544Y-61967335D01*
X30038753Y-61984083D01*
X30053242Y-62002340D01*
X30065872Y-62021928D01*
X30353372Y-62519892D01*
X30364021Y-62540624D01*
X30372587Y-62562300D01*
X30378987Y-62584711D01*
X30383159Y-62607642D01*
X30385064Y-62630871D01*
X30384683Y-62654175D01*
X30382019Y-62677330D01*
X30377098Y-62700111D01*
X30369969Y-62722301D01*
X30360698Y-62743685D01*
X30349377Y-62764058D01*
X30336112Y-62783223D01*
X30321034Y-62800995D01*
X30304286Y-62817204D01*
X30286030Y-62831693D01*
X30266441Y-62844323D01*
X29855079Y-63081823D01*
X29834347Y-63092472D01*
X29812671Y-63101038D01*
X29790260Y-63107438D01*
X29767329Y-63111610D01*
X29744100Y-63113515D01*
X29720796Y-63113133D01*
X29697641Y-63110470D01*
X29674859Y-63105549D01*
X29652670Y-63098420D01*
X29631285Y-63089149D01*
X29610913Y-63077828D01*
X29591748Y-63064563D01*
X29573976Y-63049485D01*
X29557767Y-63032737D01*
X29543278Y-63014480D01*
X29530648Y-62994892D01*
X29243148Y-62496928D01*
X29232499Y-62476196D01*
X29223933Y-62454520D01*
X29217533Y-62432109D01*
X29213361Y-62409178D01*
X29211456Y-62385949D01*
X29211837Y-62362645D01*
X29214501Y-62339490D01*
X29219422Y-62316709D01*
X29226551Y-62294519D01*
X29235822Y-62273135D01*
X29247143Y-62252762D01*
X29260408Y-62233597D01*
X29275486Y-62215825D01*
X29292234Y-62199616D01*
X29310490Y-62185127D01*
X29330079Y-62172497D01*
X29741441Y-61934997D01*
X29762173Y-61924348D01*
X29783849Y-61915782D01*
X29806260Y-61909382D01*
X29829191Y-61905210D01*
X29852420Y-61903305D01*
X29875724Y-61903687D01*
X29875724Y-61903687D01*
G37*
D11*
X29798260Y-62508410D03*
D10*
G36*
X30750724Y-63419231D02*
G01*
X30773879Y-63421894D01*
X30796661Y-63426815D01*
X30818850Y-63433944D01*
X30840235Y-63443215D01*
X30860607Y-63454536D01*
X30879772Y-63467801D01*
X30897544Y-63482879D01*
X30913753Y-63499627D01*
X30928242Y-63517884D01*
X30940872Y-63537472D01*
X31228372Y-64035436D01*
X31239021Y-64056168D01*
X31247587Y-64077844D01*
X31253987Y-64100255D01*
X31258159Y-64123186D01*
X31260064Y-64146415D01*
X31259683Y-64169719D01*
X31257019Y-64192874D01*
X31252098Y-64215655D01*
X31244969Y-64237845D01*
X31235698Y-64259229D01*
X31224377Y-64279602D01*
X31211112Y-64298767D01*
X31196034Y-64316539D01*
X31179286Y-64332748D01*
X31161030Y-64347237D01*
X31141441Y-64359867D01*
X30730079Y-64597367D01*
X30709347Y-64608016D01*
X30687671Y-64616582D01*
X30665260Y-64622982D01*
X30642329Y-64627154D01*
X30619100Y-64629059D01*
X30595796Y-64628677D01*
X30572641Y-64626014D01*
X30549859Y-64621093D01*
X30527670Y-64613964D01*
X30506285Y-64604693D01*
X30485913Y-64593372D01*
X30466748Y-64580107D01*
X30448976Y-64565029D01*
X30432767Y-64548281D01*
X30418278Y-64530024D01*
X30405648Y-64510436D01*
X30118148Y-64012472D01*
X30107499Y-63991740D01*
X30098933Y-63970064D01*
X30092533Y-63947653D01*
X30088361Y-63924722D01*
X30086456Y-63901493D01*
X30086837Y-63878189D01*
X30089501Y-63855034D01*
X30094422Y-63832253D01*
X30101551Y-63810063D01*
X30110822Y-63788679D01*
X30122143Y-63768306D01*
X30135408Y-63749141D01*
X30150486Y-63731369D01*
X30167234Y-63715160D01*
X30185490Y-63700671D01*
X30205079Y-63688041D01*
X30616441Y-63450541D01*
X30637173Y-63439892D01*
X30658849Y-63431326D01*
X30681260Y-63424926D01*
X30704191Y-63420754D01*
X30727420Y-63418849D01*
X30750724Y-63419231D01*
X30750724Y-63419231D01*
G37*
D11*
X30673260Y-64023954D03*
D10*
G36*
X31187082Y-61135028D02*
G01*
X31210237Y-61137691D01*
X31233019Y-61142612D01*
X31255208Y-61149741D01*
X31276593Y-61159012D01*
X31296965Y-61170333D01*
X31316130Y-61183598D01*
X31333902Y-61198676D01*
X31350111Y-61215424D01*
X31364600Y-61233681D01*
X31377230Y-61253269D01*
X31664730Y-61751233D01*
X31675379Y-61771965D01*
X31683945Y-61793641D01*
X31690345Y-61816052D01*
X31694517Y-61838983D01*
X31696422Y-61862212D01*
X31696041Y-61885516D01*
X31693377Y-61908671D01*
X31688456Y-61931452D01*
X31681327Y-61953642D01*
X31672056Y-61975026D01*
X31660735Y-61995399D01*
X31647470Y-62014564D01*
X31632392Y-62032336D01*
X31615644Y-62048545D01*
X31597388Y-62063034D01*
X31577799Y-62075664D01*
X31166437Y-62313164D01*
X31145705Y-62323813D01*
X31124029Y-62332379D01*
X31101618Y-62338779D01*
X31078687Y-62342951D01*
X31055458Y-62344856D01*
X31032154Y-62344474D01*
X31008999Y-62341811D01*
X30986217Y-62336890D01*
X30964028Y-62329761D01*
X30942643Y-62320490D01*
X30922271Y-62309169D01*
X30903106Y-62295904D01*
X30885334Y-62280826D01*
X30869125Y-62264078D01*
X30854636Y-62245821D01*
X30842006Y-62226233D01*
X30554506Y-61728269D01*
X30543857Y-61707537D01*
X30535291Y-61685861D01*
X30528891Y-61663450D01*
X30524719Y-61640519D01*
X30522814Y-61617290D01*
X30523195Y-61593986D01*
X30525859Y-61570831D01*
X30530780Y-61548050D01*
X30537909Y-61525860D01*
X30547180Y-61504476D01*
X30558501Y-61484103D01*
X30571766Y-61464938D01*
X30586844Y-61447166D01*
X30603592Y-61430957D01*
X30621848Y-61416468D01*
X30641437Y-61403838D01*
X31052799Y-61166338D01*
X31073531Y-61155689D01*
X31095207Y-61147123D01*
X31117618Y-61140723D01*
X31140549Y-61136551D01*
X31163778Y-61134646D01*
X31187082Y-61135028D01*
X31187082Y-61135028D01*
G37*
D11*
X31109618Y-61739751D03*
D10*
G36*
X32062082Y-62650572D02*
G01*
X32085237Y-62653235D01*
X32108019Y-62658156D01*
X32130208Y-62665285D01*
X32151593Y-62674556D01*
X32171965Y-62685877D01*
X32191130Y-62699142D01*
X32208902Y-62714220D01*
X32225111Y-62730968D01*
X32239600Y-62749225D01*
X32252230Y-62768813D01*
X32539730Y-63266777D01*
X32550379Y-63287509D01*
X32558945Y-63309185D01*
X32565345Y-63331596D01*
X32569517Y-63354527D01*
X32571422Y-63377756D01*
X32571041Y-63401060D01*
X32568377Y-63424215D01*
X32563456Y-63446996D01*
X32556327Y-63469186D01*
X32547056Y-63490570D01*
X32535735Y-63510943D01*
X32522470Y-63530108D01*
X32507392Y-63547880D01*
X32490644Y-63564089D01*
X32472388Y-63578578D01*
X32452799Y-63591208D01*
X32041437Y-63828708D01*
X32020705Y-63839357D01*
X31999029Y-63847923D01*
X31976618Y-63854323D01*
X31953687Y-63858495D01*
X31930458Y-63860400D01*
X31907154Y-63860018D01*
X31883999Y-63857355D01*
X31861217Y-63852434D01*
X31839028Y-63845305D01*
X31817643Y-63836034D01*
X31797271Y-63824713D01*
X31778106Y-63811448D01*
X31760334Y-63796370D01*
X31744125Y-63779622D01*
X31729636Y-63761365D01*
X31717006Y-63741777D01*
X31429506Y-63243813D01*
X31418857Y-63223081D01*
X31410291Y-63201405D01*
X31403891Y-63178994D01*
X31399719Y-63156063D01*
X31397814Y-63132834D01*
X31398195Y-63109530D01*
X31400859Y-63086375D01*
X31405780Y-63063594D01*
X31412909Y-63041404D01*
X31422180Y-63020020D01*
X31433501Y-62999647D01*
X31446766Y-62980482D01*
X31461844Y-62962710D01*
X31478592Y-62946501D01*
X31496848Y-62932012D01*
X31516437Y-62919382D01*
X31927799Y-62681882D01*
X31948531Y-62671233D01*
X31970207Y-62662667D01*
X31992618Y-62656267D01*
X32015549Y-62652095D01*
X32038778Y-62650190D01*
X32062082Y-62650572D01*
X32062082Y-62650572D01*
G37*
D11*
X31984618Y-63255295D03*
D10*
G36*
X37042326Y-74116608D02*
G01*
X37065481Y-74119271D01*
X37088263Y-74124192D01*
X37110452Y-74131321D01*
X37131837Y-74140592D01*
X37152209Y-74151913D01*
X37171374Y-74165178D01*
X37189146Y-74180256D01*
X37205355Y-74197004D01*
X37219844Y-74215261D01*
X37232474Y-74234849D01*
X37519974Y-74732813D01*
X37530623Y-74753545D01*
X37539189Y-74775221D01*
X37545589Y-74797632D01*
X37549761Y-74820563D01*
X37551666Y-74843792D01*
X37551285Y-74867096D01*
X37548621Y-74890251D01*
X37543700Y-74913032D01*
X37536571Y-74935222D01*
X37527300Y-74956606D01*
X37515979Y-74976979D01*
X37502714Y-74996144D01*
X37487636Y-75013916D01*
X37470888Y-75030125D01*
X37452632Y-75044614D01*
X37433043Y-75057244D01*
X37021681Y-75294744D01*
X37000949Y-75305393D01*
X36979273Y-75313959D01*
X36956862Y-75320359D01*
X36933931Y-75324531D01*
X36910702Y-75326436D01*
X36887398Y-75326054D01*
X36864243Y-75323391D01*
X36841461Y-75318470D01*
X36819272Y-75311341D01*
X36797887Y-75302070D01*
X36777515Y-75290749D01*
X36758350Y-75277484D01*
X36740578Y-75262406D01*
X36724369Y-75245658D01*
X36709880Y-75227401D01*
X36697250Y-75207813D01*
X36409750Y-74709849D01*
X36399101Y-74689117D01*
X36390535Y-74667441D01*
X36384135Y-74645030D01*
X36379963Y-74622099D01*
X36378058Y-74598870D01*
X36378439Y-74575566D01*
X36381103Y-74552411D01*
X36386024Y-74529630D01*
X36393153Y-74507440D01*
X36402424Y-74486056D01*
X36413745Y-74465683D01*
X36427010Y-74446518D01*
X36442088Y-74428746D01*
X36458836Y-74412537D01*
X36477092Y-74398048D01*
X36496681Y-74385418D01*
X36908043Y-74147918D01*
X36928775Y-74137269D01*
X36950451Y-74128703D01*
X36972862Y-74122303D01*
X36995793Y-74118131D01*
X37019022Y-74116226D01*
X37042326Y-74116608D01*
X37042326Y-74116608D01*
G37*
D11*
X36964862Y-74721331D03*
D10*
G36*
X37917326Y-75632152D02*
G01*
X37940481Y-75634815D01*
X37963263Y-75639736D01*
X37985452Y-75646865D01*
X38006837Y-75656136D01*
X38027209Y-75667457D01*
X38046374Y-75680722D01*
X38064146Y-75695800D01*
X38080355Y-75712548D01*
X38094844Y-75730805D01*
X38107474Y-75750393D01*
X38394974Y-76248357D01*
X38405623Y-76269089D01*
X38414189Y-76290765D01*
X38420589Y-76313176D01*
X38424761Y-76336107D01*
X38426666Y-76359336D01*
X38426285Y-76382640D01*
X38423621Y-76405795D01*
X38418700Y-76428576D01*
X38411571Y-76450766D01*
X38402300Y-76472150D01*
X38390979Y-76492523D01*
X38377714Y-76511688D01*
X38362636Y-76529460D01*
X38345888Y-76545669D01*
X38327632Y-76560158D01*
X38308043Y-76572788D01*
X37896681Y-76810288D01*
X37875949Y-76820937D01*
X37854273Y-76829503D01*
X37831862Y-76835903D01*
X37808931Y-76840075D01*
X37785702Y-76841980D01*
X37762398Y-76841598D01*
X37739243Y-76838935D01*
X37716461Y-76834014D01*
X37694272Y-76826885D01*
X37672887Y-76817614D01*
X37652515Y-76806293D01*
X37633350Y-76793028D01*
X37615578Y-76777950D01*
X37599369Y-76761202D01*
X37584880Y-76742945D01*
X37572250Y-76723357D01*
X37284750Y-76225393D01*
X37274101Y-76204661D01*
X37265535Y-76182985D01*
X37259135Y-76160574D01*
X37254963Y-76137643D01*
X37253058Y-76114414D01*
X37253439Y-76091110D01*
X37256103Y-76067955D01*
X37261024Y-76045174D01*
X37268153Y-76022984D01*
X37277424Y-76001600D01*
X37288745Y-75981227D01*
X37302010Y-75962062D01*
X37317088Y-75944290D01*
X37333836Y-75928081D01*
X37352092Y-75913592D01*
X37371681Y-75900962D01*
X37783043Y-75663462D01*
X37803775Y-75652813D01*
X37825451Y-75644247D01*
X37847862Y-75637847D01*
X37870793Y-75633675D01*
X37894022Y-75631770D01*
X37917326Y-75632152D01*
X37917326Y-75632152D01*
G37*
D11*
X37839862Y-76236875D03*
D10*
G36*
X32316743Y-112036565D02*
G01*
X32339866Y-112039481D01*
X32807650Y-112121964D01*
X32830377Y-112127133D01*
X32852488Y-112134504D01*
X32873770Y-112144007D01*
X32894018Y-112155551D01*
X32913037Y-112169023D01*
X32930643Y-112184295D01*
X32946668Y-112201218D01*
X32960958Y-112219632D01*
X32973373Y-112239357D01*
X32983795Y-112260204D01*
X32992124Y-112281972D01*
X32998279Y-112304452D01*
X33002201Y-112327426D01*
X33003852Y-112350675D01*
X33003217Y-112373973D01*
X33000301Y-112397098D01*
X32900453Y-112963363D01*
X32895284Y-112986089D01*
X32887913Y-113008200D01*
X32878410Y-113029482D01*
X32866866Y-113049730D01*
X32853394Y-113068749D01*
X32838122Y-113086355D01*
X32821198Y-113102381D01*
X32802785Y-113116670D01*
X32783060Y-113129085D01*
X32762213Y-113139508D01*
X32740445Y-113147836D01*
X32717965Y-113153991D01*
X32694991Y-113157913D01*
X32671742Y-113159564D01*
X32648443Y-113158929D01*
X32625320Y-113156013D01*
X32157536Y-113073530D01*
X32134809Y-113068361D01*
X32112698Y-113060990D01*
X32091416Y-113051487D01*
X32071168Y-113039943D01*
X32052149Y-113026471D01*
X32034543Y-113011199D01*
X32018518Y-112994276D01*
X32004228Y-112975862D01*
X31991813Y-112956137D01*
X31981391Y-112935290D01*
X31973062Y-112913522D01*
X31966907Y-112891042D01*
X31962985Y-112868068D01*
X31961334Y-112844819D01*
X31961969Y-112821521D01*
X31964885Y-112798396D01*
X32064733Y-112232131D01*
X32069902Y-112209405D01*
X32077273Y-112187294D01*
X32086776Y-112166012D01*
X32098320Y-112145764D01*
X32111792Y-112126745D01*
X32127064Y-112109139D01*
X32143988Y-112093113D01*
X32162401Y-112078824D01*
X32182126Y-112066409D01*
X32202973Y-112055986D01*
X32224741Y-112047658D01*
X32247221Y-112041503D01*
X32270195Y-112037581D01*
X32293444Y-112035930D01*
X32316743Y-112036565D01*
X32316743Y-112036565D01*
G37*
D11*
X32482593Y-112597747D03*
D10*
G36*
X32012859Y-113759979D02*
G01*
X32035982Y-113762895D01*
X32503766Y-113845378D01*
X32526493Y-113850547D01*
X32548604Y-113857918D01*
X32569886Y-113867421D01*
X32590134Y-113878965D01*
X32609153Y-113892437D01*
X32626759Y-113907709D01*
X32642784Y-113924632D01*
X32657074Y-113943046D01*
X32669489Y-113962771D01*
X32679911Y-113983618D01*
X32688240Y-114005386D01*
X32694395Y-114027866D01*
X32698317Y-114050840D01*
X32699968Y-114074089D01*
X32699333Y-114097387D01*
X32696417Y-114120512D01*
X32596569Y-114686777D01*
X32591400Y-114709503D01*
X32584029Y-114731614D01*
X32574526Y-114752896D01*
X32562982Y-114773144D01*
X32549510Y-114792163D01*
X32534238Y-114809769D01*
X32517314Y-114825795D01*
X32498901Y-114840084D01*
X32479176Y-114852499D01*
X32458329Y-114862922D01*
X32436561Y-114871250D01*
X32414081Y-114877405D01*
X32391107Y-114881327D01*
X32367858Y-114882978D01*
X32344559Y-114882343D01*
X32321436Y-114879427D01*
X31853652Y-114796944D01*
X31830925Y-114791775D01*
X31808814Y-114784404D01*
X31787532Y-114774901D01*
X31767284Y-114763357D01*
X31748265Y-114749885D01*
X31730659Y-114734613D01*
X31714634Y-114717690D01*
X31700344Y-114699276D01*
X31687929Y-114679551D01*
X31677507Y-114658704D01*
X31669178Y-114636936D01*
X31663023Y-114614456D01*
X31659101Y-114591482D01*
X31657450Y-114568233D01*
X31658085Y-114544935D01*
X31661001Y-114521810D01*
X31760849Y-113955545D01*
X31766018Y-113932819D01*
X31773389Y-113910708D01*
X31782892Y-113889426D01*
X31794436Y-113869178D01*
X31807908Y-113850159D01*
X31823180Y-113832553D01*
X31840104Y-113816527D01*
X31858517Y-113802238D01*
X31878242Y-113789823D01*
X31899089Y-113779400D01*
X31920857Y-113771072D01*
X31943337Y-113764917D01*
X31966311Y-113760995D01*
X31989560Y-113759344D01*
X32012859Y-113759979D01*
X32012859Y-113759979D01*
G37*
D11*
X32178709Y-114321161D03*
D10*
G36*
X36593646Y-76419473D02*
G01*
X36616801Y-76422136D01*
X36639583Y-76427057D01*
X36661772Y-76434186D01*
X36683157Y-76443457D01*
X36703529Y-76454778D01*
X36722694Y-76468043D01*
X36740466Y-76483121D01*
X36756675Y-76499869D01*
X36771164Y-76518126D01*
X36783794Y-76537714D01*
X37071294Y-77035678D01*
X37081943Y-77056410D01*
X37090509Y-77078086D01*
X37096909Y-77100497D01*
X37101081Y-77123428D01*
X37102986Y-77146657D01*
X37102605Y-77169961D01*
X37099941Y-77193116D01*
X37095020Y-77215897D01*
X37087891Y-77238087D01*
X37078620Y-77259471D01*
X37067299Y-77279844D01*
X37054034Y-77299009D01*
X37038956Y-77316781D01*
X37022208Y-77332990D01*
X37003952Y-77347479D01*
X36984363Y-77360109D01*
X36573001Y-77597609D01*
X36552269Y-77608258D01*
X36530593Y-77616824D01*
X36508182Y-77623224D01*
X36485251Y-77627396D01*
X36462022Y-77629301D01*
X36438718Y-77628919D01*
X36415563Y-77626256D01*
X36392781Y-77621335D01*
X36370592Y-77614206D01*
X36349207Y-77604935D01*
X36328835Y-77593614D01*
X36309670Y-77580349D01*
X36291898Y-77565271D01*
X36275689Y-77548523D01*
X36261200Y-77530266D01*
X36248570Y-77510678D01*
X35961070Y-77012714D01*
X35950421Y-76991982D01*
X35941855Y-76970306D01*
X35935455Y-76947895D01*
X35931283Y-76924964D01*
X35929378Y-76901735D01*
X35929759Y-76878431D01*
X35932423Y-76855276D01*
X35937344Y-76832495D01*
X35944473Y-76810305D01*
X35953744Y-76788921D01*
X35965065Y-76768548D01*
X35978330Y-76749383D01*
X35993408Y-76731611D01*
X36010156Y-76715402D01*
X36028412Y-76700913D01*
X36048001Y-76688283D01*
X36459363Y-76450783D01*
X36480095Y-76440134D01*
X36501771Y-76431568D01*
X36524182Y-76425168D01*
X36547113Y-76420996D01*
X36570342Y-76419091D01*
X36593646Y-76419473D01*
X36593646Y-76419473D01*
G37*
D11*
X36516182Y-77024196D03*
D10*
G36*
X35718646Y-74903929D02*
G01*
X35741801Y-74906592D01*
X35764583Y-74911513D01*
X35786772Y-74918642D01*
X35808157Y-74927913D01*
X35828529Y-74939234D01*
X35847694Y-74952499D01*
X35865466Y-74967577D01*
X35881675Y-74984325D01*
X35896164Y-75002582D01*
X35908794Y-75022170D01*
X36196294Y-75520134D01*
X36206943Y-75540866D01*
X36215509Y-75562542D01*
X36221909Y-75584953D01*
X36226081Y-75607884D01*
X36227986Y-75631113D01*
X36227605Y-75654417D01*
X36224941Y-75677572D01*
X36220020Y-75700353D01*
X36212891Y-75722543D01*
X36203620Y-75743927D01*
X36192299Y-75764300D01*
X36179034Y-75783465D01*
X36163956Y-75801237D01*
X36147208Y-75817446D01*
X36128952Y-75831935D01*
X36109363Y-75844565D01*
X35698001Y-76082065D01*
X35677269Y-76092714D01*
X35655593Y-76101280D01*
X35633182Y-76107680D01*
X35610251Y-76111852D01*
X35587022Y-76113757D01*
X35563718Y-76113375D01*
X35540563Y-76110712D01*
X35517781Y-76105791D01*
X35495592Y-76098662D01*
X35474207Y-76089391D01*
X35453835Y-76078070D01*
X35434670Y-76064805D01*
X35416898Y-76049727D01*
X35400689Y-76032979D01*
X35386200Y-76014722D01*
X35373570Y-75995134D01*
X35086070Y-75497170D01*
X35075421Y-75476438D01*
X35066855Y-75454762D01*
X35060455Y-75432351D01*
X35056283Y-75409420D01*
X35054378Y-75386191D01*
X35054759Y-75362887D01*
X35057423Y-75339732D01*
X35062344Y-75316951D01*
X35069473Y-75294761D01*
X35078744Y-75273377D01*
X35090065Y-75253004D01*
X35103330Y-75233839D01*
X35118408Y-75216067D01*
X35135156Y-75199858D01*
X35153412Y-75185369D01*
X35173001Y-75172739D01*
X35584363Y-74935239D01*
X35605095Y-74924590D01*
X35626771Y-74916024D01*
X35649182Y-74909624D01*
X35672113Y-74905452D01*
X35695342Y-74903547D01*
X35718646Y-74903929D01*
X35718646Y-74903929D01*
G37*
D11*
X35641182Y-75508652D03*
D10*
G36*
X32883978Y-108704442D02*
G01*
X32907101Y-108707358D01*
X33374885Y-108789841D01*
X33397612Y-108795010D01*
X33419723Y-108802381D01*
X33441005Y-108811884D01*
X33461253Y-108823428D01*
X33480272Y-108836900D01*
X33497878Y-108852172D01*
X33513903Y-108869095D01*
X33528193Y-108887509D01*
X33540608Y-108907234D01*
X33551030Y-108928081D01*
X33559359Y-108949849D01*
X33565514Y-108972329D01*
X33569436Y-108995303D01*
X33571087Y-109018552D01*
X33570452Y-109041850D01*
X33567536Y-109064975D01*
X33467688Y-109631240D01*
X33462519Y-109653966D01*
X33455148Y-109676077D01*
X33445645Y-109697359D01*
X33434101Y-109717607D01*
X33420629Y-109736626D01*
X33405357Y-109754232D01*
X33388433Y-109770258D01*
X33370020Y-109784547D01*
X33350295Y-109796962D01*
X33329448Y-109807385D01*
X33307680Y-109815713D01*
X33285200Y-109821868D01*
X33262226Y-109825790D01*
X33238977Y-109827441D01*
X33215678Y-109826806D01*
X33192555Y-109823890D01*
X32724771Y-109741407D01*
X32702044Y-109736238D01*
X32679933Y-109728867D01*
X32658651Y-109719364D01*
X32638403Y-109707820D01*
X32619384Y-109694348D01*
X32601778Y-109679076D01*
X32585753Y-109662153D01*
X32571463Y-109643739D01*
X32559048Y-109624014D01*
X32548626Y-109603167D01*
X32540297Y-109581399D01*
X32534142Y-109558919D01*
X32530220Y-109535945D01*
X32528569Y-109512696D01*
X32529204Y-109489398D01*
X32532120Y-109466273D01*
X32631968Y-108900008D01*
X32637137Y-108877282D01*
X32644508Y-108855171D01*
X32654011Y-108833889D01*
X32665555Y-108813641D01*
X32679027Y-108794622D01*
X32694299Y-108777016D01*
X32711223Y-108760990D01*
X32729636Y-108746701D01*
X32749361Y-108734286D01*
X32770208Y-108723863D01*
X32791976Y-108715535D01*
X32814456Y-108709380D01*
X32837430Y-108705458D01*
X32860679Y-108703807D01*
X32883978Y-108704442D01*
X32883978Y-108704442D01*
G37*
D11*
X33049828Y-109265624D03*
D10*
G36*
X32580094Y-110427856D02*
G01*
X32603217Y-110430772D01*
X33071001Y-110513255D01*
X33093728Y-110518424D01*
X33115839Y-110525795D01*
X33137121Y-110535298D01*
X33157369Y-110546842D01*
X33176388Y-110560314D01*
X33193994Y-110575586D01*
X33210019Y-110592509D01*
X33224309Y-110610923D01*
X33236724Y-110630648D01*
X33247146Y-110651495D01*
X33255475Y-110673263D01*
X33261630Y-110695743D01*
X33265552Y-110718717D01*
X33267203Y-110741966D01*
X33266568Y-110765264D01*
X33263652Y-110788389D01*
X33163804Y-111354654D01*
X33158635Y-111377380D01*
X33151264Y-111399491D01*
X33141761Y-111420773D01*
X33130217Y-111441021D01*
X33116745Y-111460040D01*
X33101473Y-111477646D01*
X33084549Y-111493672D01*
X33066136Y-111507961D01*
X33046411Y-111520376D01*
X33025564Y-111530799D01*
X33003796Y-111539127D01*
X32981316Y-111545282D01*
X32958342Y-111549204D01*
X32935093Y-111550855D01*
X32911794Y-111550220D01*
X32888671Y-111547304D01*
X32420887Y-111464821D01*
X32398160Y-111459652D01*
X32376049Y-111452281D01*
X32354767Y-111442778D01*
X32334519Y-111431234D01*
X32315500Y-111417762D01*
X32297894Y-111402490D01*
X32281869Y-111385567D01*
X32267579Y-111367153D01*
X32255164Y-111347428D01*
X32244742Y-111326581D01*
X32236413Y-111304813D01*
X32230258Y-111282333D01*
X32226336Y-111259359D01*
X32224685Y-111236110D01*
X32225320Y-111212812D01*
X32228236Y-111189687D01*
X32328084Y-110623422D01*
X32333253Y-110600696D01*
X32340624Y-110578585D01*
X32350127Y-110557303D01*
X32361671Y-110537055D01*
X32375143Y-110518036D01*
X32390415Y-110500430D01*
X32407339Y-110484404D01*
X32425752Y-110470115D01*
X32445477Y-110457700D01*
X32466324Y-110447277D01*
X32488092Y-110438949D01*
X32510572Y-110432794D01*
X32533546Y-110428872D01*
X32556795Y-110427221D01*
X32580094Y-110427856D01*
X32580094Y-110427856D01*
G37*
D11*
X32745944Y-110989038D03*
D10*
G36*
X31973036Y-82626339D02*
G01*
X31996191Y-82629003D01*
X32018972Y-82633924D01*
X32041162Y-82641053D01*
X32062546Y-82650324D01*
X32082919Y-82661645D01*
X32102084Y-82674910D01*
X32119856Y-82689988D01*
X32136065Y-82706736D01*
X32150554Y-82724992D01*
X32163184Y-82744581D01*
X32400684Y-83155943D01*
X32411333Y-83176675D01*
X32419899Y-83198351D01*
X32426299Y-83220762D01*
X32430471Y-83243693D01*
X32432376Y-83266922D01*
X32431994Y-83290226D01*
X32429331Y-83313381D01*
X32424410Y-83336163D01*
X32417281Y-83358352D01*
X32408010Y-83379737D01*
X32396689Y-83400109D01*
X32383424Y-83419274D01*
X32368346Y-83437046D01*
X32351598Y-83453255D01*
X32333341Y-83467744D01*
X32313753Y-83480374D01*
X31815789Y-83767874D01*
X31795057Y-83778523D01*
X31773381Y-83787089D01*
X31750970Y-83793489D01*
X31728039Y-83797661D01*
X31704810Y-83799566D01*
X31681506Y-83799185D01*
X31658351Y-83796521D01*
X31635570Y-83791600D01*
X31613380Y-83784471D01*
X31591996Y-83775200D01*
X31571623Y-83763879D01*
X31552458Y-83750614D01*
X31534686Y-83735536D01*
X31518477Y-83718788D01*
X31503988Y-83700532D01*
X31491358Y-83680943D01*
X31253858Y-83269581D01*
X31243209Y-83248849D01*
X31234643Y-83227173D01*
X31228243Y-83204762D01*
X31224071Y-83181831D01*
X31222166Y-83158602D01*
X31222548Y-83135298D01*
X31225211Y-83112143D01*
X31230132Y-83089361D01*
X31237261Y-83067172D01*
X31246532Y-83045787D01*
X31257853Y-83025415D01*
X31271118Y-83006250D01*
X31286196Y-82988478D01*
X31302944Y-82972269D01*
X31321201Y-82957780D01*
X31340789Y-82945150D01*
X31838753Y-82657650D01*
X31859485Y-82647001D01*
X31881161Y-82638435D01*
X31903572Y-82632035D01*
X31926503Y-82627863D01*
X31949732Y-82625958D01*
X31973036Y-82626339D01*
X31973036Y-82626339D01*
G37*
D11*
X31827271Y-83212762D03*
D10*
G36*
X33488580Y-81751339D02*
G01*
X33511735Y-81754003D01*
X33534516Y-81758924D01*
X33556706Y-81766053D01*
X33578090Y-81775324D01*
X33598463Y-81786645D01*
X33617628Y-81799910D01*
X33635400Y-81814988D01*
X33651609Y-81831736D01*
X33666098Y-81849992D01*
X33678728Y-81869581D01*
X33916228Y-82280943D01*
X33926877Y-82301675D01*
X33935443Y-82323351D01*
X33941843Y-82345762D01*
X33946015Y-82368693D01*
X33947920Y-82391922D01*
X33947538Y-82415226D01*
X33944875Y-82438381D01*
X33939954Y-82461163D01*
X33932825Y-82483352D01*
X33923554Y-82504737D01*
X33912233Y-82525109D01*
X33898968Y-82544274D01*
X33883890Y-82562046D01*
X33867142Y-82578255D01*
X33848885Y-82592744D01*
X33829297Y-82605374D01*
X33331333Y-82892874D01*
X33310601Y-82903523D01*
X33288925Y-82912089D01*
X33266514Y-82918489D01*
X33243583Y-82922661D01*
X33220354Y-82924566D01*
X33197050Y-82924185D01*
X33173895Y-82921521D01*
X33151114Y-82916600D01*
X33128924Y-82909471D01*
X33107540Y-82900200D01*
X33087167Y-82888879D01*
X33068002Y-82875614D01*
X33050230Y-82860536D01*
X33034021Y-82843788D01*
X33019532Y-82825532D01*
X33006902Y-82805943D01*
X32769402Y-82394581D01*
X32758753Y-82373849D01*
X32750187Y-82352173D01*
X32743787Y-82329762D01*
X32739615Y-82306831D01*
X32737710Y-82283602D01*
X32738092Y-82260298D01*
X32740755Y-82237143D01*
X32745676Y-82214361D01*
X32752805Y-82192172D01*
X32762076Y-82170787D01*
X32773397Y-82150415D01*
X32786662Y-82131250D01*
X32801740Y-82113478D01*
X32818488Y-82097269D01*
X32836745Y-82082780D01*
X32856333Y-82070150D01*
X33354297Y-81782650D01*
X33375029Y-81772001D01*
X33396705Y-81763435D01*
X33419116Y-81757035D01*
X33442047Y-81752863D01*
X33465276Y-81750958D01*
X33488580Y-81751339D01*
X33488580Y-81751339D01*
G37*
D11*
X33342815Y-82337762D03*
D10*
G36*
X34891543Y-80941339D02*
G01*
X34914698Y-80944003D01*
X34937479Y-80948924D01*
X34959669Y-80956053D01*
X34981053Y-80965324D01*
X35001426Y-80976645D01*
X35020591Y-80989910D01*
X35038363Y-81004988D01*
X35054572Y-81021736D01*
X35069061Y-81039992D01*
X35081691Y-81059581D01*
X35319191Y-81470943D01*
X35329840Y-81491675D01*
X35338406Y-81513351D01*
X35344806Y-81535762D01*
X35348978Y-81558693D01*
X35350883Y-81581922D01*
X35350501Y-81605226D01*
X35347838Y-81628381D01*
X35342917Y-81651163D01*
X35335788Y-81673352D01*
X35326517Y-81694737D01*
X35315196Y-81715109D01*
X35301931Y-81734274D01*
X35286853Y-81752046D01*
X35270105Y-81768255D01*
X35251848Y-81782744D01*
X35232260Y-81795374D01*
X34734296Y-82082874D01*
X34713564Y-82093523D01*
X34691888Y-82102089D01*
X34669477Y-82108489D01*
X34646546Y-82112661D01*
X34623317Y-82114566D01*
X34600013Y-82114185D01*
X34576858Y-82111521D01*
X34554077Y-82106600D01*
X34531887Y-82099471D01*
X34510503Y-82090200D01*
X34490130Y-82078879D01*
X34470965Y-82065614D01*
X34453193Y-82050536D01*
X34436984Y-82033788D01*
X34422495Y-82015532D01*
X34409865Y-81995943D01*
X34172365Y-81584581D01*
X34161716Y-81563849D01*
X34153150Y-81542173D01*
X34146750Y-81519762D01*
X34142578Y-81496831D01*
X34140673Y-81473602D01*
X34141055Y-81450298D01*
X34143718Y-81427143D01*
X34148639Y-81404361D01*
X34155768Y-81382172D01*
X34165039Y-81360787D01*
X34176360Y-81340415D01*
X34189625Y-81321250D01*
X34204703Y-81303478D01*
X34221451Y-81287269D01*
X34239708Y-81272780D01*
X34259296Y-81260150D01*
X34757260Y-80972650D01*
X34777992Y-80962001D01*
X34799668Y-80953435D01*
X34822079Y-80947035D01*
X34845010Y-80942863D01*
X34868239Y-80940958D01*
X34891543Y-80941339D01*
X34891543Y-80941339D01*
G37*
D11*
X34745778Y-81527762D03*
D10*
G36*
X36407087Y-80066339D02*
G01*
X36430242Y-80069003D01*
X36453023Y-80073924D01*
X36475213Y-80081053D01*
X36496597Y-80090324D01*
X36516970Y-80101645D01*
X36536135Y-80114910D01*
X36553907Y-80129988D01*
X36570116Y-80146736D01*
X36584605Y-80164992D01*
X36597235Y-80184581D01*
X36834735Y-80595943D01*
X36845384Y-80616675D01*
X36853950Y-80638351D01*
X36860350Y-80660762D01*
X36864522Y-80683693D01*
X36866427Y-80706922D01*
X36866045Y-80730226D01*
X36863382Y-80753381D01*
X36858461Y-80776163D01*
X36851332Y-80798352D01*
X36842061Y-80819737D01*
X36830740Y-80840109D01*
X36817475Y-80859274D01*
X36802397Y-80877046D01*
X36785649Y-80893255D01*
X36767392Y-80907744D01*
X36747804Y-80920374D01*
X36249840Y-81207874D01*
X36229108Y-81218523D01*
X36207432Y-81227089D01*
X36185021Y-81233489D01*
X36162090Y-81237661D01*
X36138861Y-81239566D01*
X36115557Y-81239185D01*
X36092402Y-81236521D01*
X36069621Y-81231600D01*
X36047431Y-81224471D01*
X36026047Y-81215200D01*
X36005674Y-81203879D01*
X35986509Y-81190614D01*
X35968737Y-81175536D01*
X35952528Y-81158788D01*
X35938039Y-81140532D01*
X35925409Y-81120943D01*
X35687909Y-80709581D01*
X35677260Y-80688849D01*
X35668694Y-80667173D01*
X35662294Y-80644762D01*
X35658122Y-80621831D01*
X35656217Y-80598602D01*
X35656599Y-80575298D01*
X35659262Y-80552143D01*
X35664183Y-80529361D01*
X35671312Y-80507172D01*
X35680583Y-80485787D01*
X35691904Y-80465415D01*
X35705169Y-80446250D01*
X35720247Y-80428478D01*
X35736995Y-80412269D01*
X35755252Y-80397780D01*
X35774840Y-80385150D01*
X36272804Y-80097650D01*
X36293536Y-80087001D01*
X36315212Y-80078435D01*
X36337623Y-80072035D01*
X36360554Y-80067863D01*
X36383783Y-80065958D01*
X36407087Y-80066339D01*
X36407087Y-80066339D01*
G37*
D11*
X36261322Y-80652762D03*
D10*
G36*
X32596755Y-101119331D02*
G01*
X32619878Y-101122247D01*
X33087662Y-101204730D01*
X33110389Y-101209899D01*
X33132500Y-101217270D01*
X33153782Y-101226773D01*
X33174030Y-101238317D01*
X33193049Y-101251789D01*
X33210655Y-101267061D01*
X33226680Y-101283984D01*
X33240970Y-101302398D01*
X33253385Y-101322123D01*
X33263807Y-101342970D01*
X33272136Y-101364738D01*
X33278291Y-101387218D01*
X33282213Y-101410192D01*
X33283864Y-101433441D01*
X33283229Y-101456739D01*
X33280313Y-101479864D01*
X33180465Y-102046129D01*
X33175296Y-102068855D01*
X33167925Y-102090966D01*
X33158422Y-102112248D01*
X33146878Y-102132496D01*
X33133406Y-102151515D01*
X33118134Y-102169121D01*
X33101210Y-102185147D01*
X33082797Y-102199436D01*
X33063072Y-102211851D01*
X33042225Y-102222274D01*
X33020457Y-102230602D01*
X32997977Y-102236757D01*
X32975003Y-102240679D01*
X32951754Y-102242330D01*
X32928455Y-102241695D01*
X32905332Y-102238779D01*
X32437548Y-102156296D01*
X32414821Y-102151127D01*
X32392710Y-102143756D01*
X32371428Y-102134253D01*
X32351180Y-102122709D01*
X32332161Y-102109237D01*
X32314555Y-102093965D01*
X32298530Y-102077042D01*
X32284240Y-102058628D01*
X32271825Y-102038903D01*
X32261403Y-102018056D01*
X32253074Y-101996288D01*
X32246919Y-101973808D01*
X32242997Y-101950834D01*
X32241346Y-101927585D01*
X32241981Y-101904287D01*
X32244897Y-101881162D01*
X32344745Y-101314897D01*
X32349914Y-101292171D01*
X32357285Y-101270060D01*
X32366788Y-101248778D01*
X32378332Y-101228530D01*
X32391804Y-101209511D01*
X32407076Y-101191905D01*
X32424000Y-101175879D01*
X32442413Y-101161590D01*
X32462138Y-101149175D01*
X32482985Y-101138752D01*
X32504753Y-101130424D01*
X32527233Y-101124269D01*
X32550207Y-101120347D01*
X32573456Y-101118696D01*
X32596755Y-101119331D01*
X32596755Y-101119331D01*
G37*
D11*
X32762605Y-101680513D03*
D10*
G36*
X32292871Y-102842745D02*
G01*
X32315994Y-102845661D01*
X32783778Y-102928144D01*
X32806505Y-102933313D01*
X32828616Y-102940684D01*
X32849898Y-102950187D01*
X32870146Y-102961731D01*
X32889165Y-102975203D01*
X32906771Y-102990475D01*
X32922796Y-103007398D01*
X32937086Y-103025812D01*
X32949501Y-103045537D01*
X32959923Y-103066384D01*
X32968252Y-103088152D01*
X32974407Y-103110632D01*
X32978329Y-103133606D01*
X32979980Y-103156855D01*
X32979345Y-103180153D01*
X32976429Y-103203278D01*
X32876581Y-103769543D01*
X32871412Y-103792269D01*
X32864041Y-103814380D01*
X32854538Y-103835662D01*
X32842994Y-103855910D01*
X32829522Y-103874929D01*
X32814250Y-103892535D01*
X32797326Y-103908561D01*
X32778913Y-103922850D01*
X32759188Y-103935265D01*
X32738341Y-103945688D01*
X32716573Y-103954016D01*
X32694093Y-103960171D01*
X32671119Y-103964093D01*
X32647870Y-103965744D01*
X32624571Y-103965109D01*
X32601448Y-103962193D01*
X32133664Y-103879710D01*
X32110937Y-103874541D01*
X32088826Y-103867170D01*
X32067544Y-103857667D01*
X32047296Y-103846123D01*
X32028277Y-103832651D01*
X32010671Y-103817379D01*
X31994646Y-103800456D01*
X31980356Y-103782042D01*
X31967941Y-103762317D01*
X31957519Y-103741470D01*
X31949190Y-103719702D01*
X31943035Y-103697222D01*
X31939113Y-103674248D01*
X31937462Y-103650999D01*
X31938097Y-103627701D01*
X31941013Y-103604576D01*
X32040861Y-103038311D01*
X32046030Y-103015585D01*
X32053401Y-102993474D01*
X32062904Y-102972192D01*
X32074448Y-102951944D01*
X32087920Y-102932925D01*
X32103192Y-102915319D01*
X32120116Y-102899293D01*
X32138529Y-102885004D01*
X32158254Y-102872589D01*
X32179101Y-102862166D01*
X32200869Y-102853838D01*
X32223349Y-102847683D01*
X32246323Y-102843761D01*
X32269572Y-102842110D01*
X32292871Y-102842745D01*
X32292871Y-102842745D01*
G37*
D11*
X32458721Y-103403927D03*
D10*
G36*
X20534703Y-46400722D02*
G01*
X20549264Y-46402882D01*
X20563543Y-46406459D01*
X20577403Y-46411418D01*
X20590710Y-46417712D01*
X20603336Y-46425280D01*
X20615159Y-46434048D01*
X20626066Y-46443934D01*
X20635952Y-46454841D01*
X20644720Y-46466664D01*
X20652288Y-46479290D01*
X20658582Y-46492597D01*
X20663541Y-46506457D01*
X20667118Y-46520736D01*
X20669278Y-46535297D01*
X20670000Y-46550000D01*
X20670000Y-46850000D01*
X20669278Y-46864703D01*
X20667118Y-46879264D01*
X20663541Y-46893543D01*
X20658582Y-46907403D01*
X20652288Y-46920710D01*
X20644720Y-46933336D01*
X20635952Y-46945159D01*
X20626066Y-46956066D01*
X20615159Y-46965952D01*
X20603336Y-46974720D01*
X20590710Y-46982288D01*
X20577403Y-46988582D01*
X20563543Y-46993541D01*
X20549264Y-46997118D01*
X20534703Y-46999278D01*
X20520000Y-47000000D01*
X18870000Y-47000000D01*
X18855297Y-46999278D01*
X18840736Y-46997118D01*
X18826457Y-46993541D01*
X18812597Y-46988582D01*
X18799290Y-46982288D01*
X18786664Y-46974720D01*
X18774841Y-46965952D01*
X18763934Y-46956066D01*
X18754048Y-46945159D01*
X18745280Y-46933336D01*
X18737712Y-46920710D01*
X18731418Y-46907403D01*
X18726459Y-46893543D01*
X18722882Y-46879264D01*
X18720722Y-46864703D01*
X18720000Y-46850000D01*
X18720000Y-46550000D01*
X18720722Y-46535297D01*
X18722882Y-46520736D01*
X18726459Y-46506457D01*
X18731418Y-46492597D01*
X18737712Y-46479290D01*
X18745280Y-46466664D01*
X18754048Y-46454841D01*
X18763934Y-46443934D01*
X18774841Y-46434048D01*
X18786664Y-46425280D01*
X18799290Y-46417712D01*
X18812597Y-46411418D01*
X18826457Y-46406459D01*
X18840736Y-46402882D01*
X18855297Y-46400722D01*
X18870000Y-46400000D01*
X20520000Y-46400000D01*
X20534703Y-46400722D01*
X20534703Y-46400722D01*
G37*
D15*
X19695000Y-46700000D03*
D10*
G36*
X20534703Y-47670722D02*
G01*
X20549264Y-47672882D01*
X20563543Y-47676459D01*
X20577403Y-47681418D01*
X20590710Y-47687712D01*
X20603336Y-47695280D01*
X20615159Y-47704048D01*
X20626066Y-47713934D01*
X20635952Y-47724841D01*
X20644720Y-47736664D01*
X20652288Y-47749290D01*
X20658582Y-47762597D01*
X20663541Y-47776457D01*
X20667118Y-47790736D01*
X20669278Y-47805297D01*
X20670000Y-47820000D01*
X20670000Y-48120000D01*
X20669278Y-48134703D01*
X20667118Y-48149264D01*
X20663541Y-48163543D01*
X20658582Y-48177403D01*
X20652288Y-48190710D01*
X20644720Y-48203336D01*
X20635952Y-48215159D01*
X20626066Y-48226066D01*
X20615159Y-48235952D01*
X20603336Y-48244720D01*
X20590710Y-48252288D01*
X20577403Y-48258582D01*
X20563543Y-48263541D01*
X20549264Y-48267118D01*
X20534703Y-48269278D01*
X20520000Y-48270000D01*
X18870000Y-48270000D01*
X18855297Y-48269278D01*
X18840736Y-48267118D01*
X18826457Y-48263541D01*
X18812597Y-48258582D01*
X18799290Y-48252288D01*
X18786664Y-48244720D01*
X18774841Y-48235952D01*
X18763934Y-48226066D01*
X18754048Y-48215159D01*
X18745280Y-48203336D01*
X18737712Y-48190710D01*
X18731418Y-48177403D01*
X18726459Y-48163543D01*
X18722882Y-48149264D01*
X18720722Y-48134703D01*
X18720000Y-48120000D01*
X18720000Y-47820000D01*
X18720722Y-47805297D01*
X18722882Y-47790736D01*
X18726459Y-47776457D01*
X18731418Y-47762597D01*
X18737712Y-47749290D01*
X18745280Y-47736664D01*
X18754048Y-47724841D01*
X18763934Y-47713934D01*
X18774841Y-47704048D01*
X18786664Y-47695280D01*
X18799290Y-47687712D01*
X18812597Y-47681418D01*
X18826457Y-47676459D01*
X18840736Y-47672882D01*
X18855297Y-47670722D01*
X18870000Y-47670000D01*
X20520000Y-47670000D01*
X20534703Y-47670722D01*
X20534703Y-47670722D01*
G37*
D15*
X19695000Y-47970000D03*
D10*
G36*
X20534703Y-48940722D02*
G01*
X20549264Y-48942882D01*
X20563543Y-48946459D01*
X20577403Y-48951418D01*
X20590710Y-48957712D01*
X20603336Y-48965280D01*
X20615159Y-48974048D01*
X20626066Y-48983934D01*
X20635952Y-48994841D01*
X20644720Y-49006664D01*
X20652288Y-49019290D01*
X20658582Y-49032597D01*
X20663541Y-49046457D01*
X20667118Y-49060736D01*
X20669278Y-49075297D01*
X20670000Y-49090000D01*
X20670000Y-49390000D01*
X20669278Y-49404703D01*
X20667118Y-49419264D01*
X20663541Y-49433543D01*
X20658582Y-49447403D01*
X20652288Y-49460710D01*
X20644720Y-49473336D01*
X20635952Y-49485159D01*
X20626066Y-49496066D01*
X20615159Y-49505952D01*
X20603336Y-49514720D01*
X20590710Y-49522288D01*
X20577403Y-49528582D01*
X20563543Y-49533541D01*
X20549264Y-49537118D01*
X20534703Y-49539278D01*
X20520000Y-49540000D01*
X18870000Y-49540000D01*
X18855297Y-49539278D01*
X18840736Y-49537118D01*
X18826457Y-49533541D01*
X18812597Y-49528582D01*
X18799290Y-49522288D01*
X18786664Y-49514720D01*
X18774841Y-49505952D01*
X18763934Y-49496066D01*
X18754048Y-49485159D01*
X18745280Y-49473336D01*
X18737712Y-49460710D01*
X18731418Y-49447403D01*
X18726459Y-49433543D01*
X18722882Y-49419264D01*
X18720722Y-49404703D01*
X18720000Y-49390000D01*
X18720000Y-49090000D01*
X18720722Y-49075297D01*
X18722882Y-49060736D01*
X18726459Y-49046457D01*
X18731418Y-49032597D01*
X18737712Y-49019290D01*
X18745280Y-49006664D01*
X18754048Y-48994841D01*
X18763934Y-48983934D01*
X18774841Y-48974048D01*
X18786664Y-48965280D01*
X18799290Y-48957712D01*
X18812597Y-48951418D01*
X18826457Y-48946459D01*
X18840736Y-48942882D01*
X18855297Y-48940722D01*
X18870000Y-48940000D01*
X20520000Y-48940000D01*
X20534703Y-48940722D01*
X20534703Y-48940722D01*
G37*
D15*
X19695000Y-49240000D03*
D10*
G36*
X20534703Y-50210722D02*
G01*
X20549264Y-50212882D01*
X20563543Y-50216459D01*
X20577403Y-50221418D01*
X20590710Y-50227712D01*
X20603336Y-50235280D01*
X20615159Y-50244048D01*
X20626066Y-50253934D01*
X20635952Y-50264841D01*
X20644720Y-50276664D01*
X20652288Y-50289290D01*
X20658582Y-50302597D01*
X20663541Y-50316457D01*
X20667118Y-50330736D01*
X20669278Y-50345297D01*
X20670000Y-50360000D01*
X20670000Y-50660000D01*
X20669278Y-50674703D01*
X20667118Y-50689264D01*
X20663541Y-50703543D01*
X20658582Y-50717403D01*
X20652288Y-50730710D01*
X20644720Y-50743336D01*
X20635952Y-50755159D01*
X20626066Y-50766066D01*
X20615159Y-50775952D01*
X20603336Y-50784720D01*
X20590710Y-50792288D01*
X20577403Y-50798582D01*
X20563543Y-50803541D01*
X20549264Y-50807118D01*
X20534703Y-50809278D01*
X20520000Y-50810000D01*
X18870000Y-50810000D01*
X18855297Y-50809278D01*
X18840736Y-50807118D01*
X18826457Y-50803541D01*
X18812597Y-50798582D01*
X18799290Y-50792288D01*
X18786664Y-50784720D01*
X18774841Y-50775952D01*
X18763934Y-50766066D01*
X18754048Y-50755159D01*
X18745280Y-50743336D01*
X18737712Y-50730710D01*
X18731418Y-50717403D01*
X18726459Y-50703543D01*
X18722882Y-50689264D01*
X18720722Y-50674703D01*
X18720000Y-50660000D01*
X18720000Y-50360000D01*
X18720722Y-50345297D01*
X18722882Y-50330736D01*
X18726459Y-50316457D01*
X18731418Y-50302597D01*
X18737712Y-50289290D01*
X18745280Y-50276664D01*
X18754048Y-50264841D01*
X18763934Y-50253934D01*
X18774841Y-50244048D01*
X18786664Y-50235280D01*
X18799290Y-50227712D01*
X18812597Y-50221418D01*
X18826457Y-50216459D01*
X18840736Y-50212882D01*
X18855297Y-50210722D01*
X18870000Y-50210000D01*
X20520000Y-50210000D01*
X20534703Y-50210722D01*
X20534703Y-50210722D01*
G37*
D15*
X19695000Y-50510000D03*
D10*
G36*
X20534703Y-51480722D02*
G01*
X20549264Y-51482882D01*
X20563543Y-51486459D01*
X20577403Y-51491418D01*
X20590710Y-51497712D01*
X20603336Y-51505280D01*
X20615159Y-51514048D01*
X20626066Y-51523934D01*
X20635952Y-51534841D01*
X20644720Y-51546664D01*
X20652288Y-51559290D01*
X20658582Y-51572597D01*
X20663541Y-51586457D01*
X20667118Y-51600736D01*
X20669278Y-51615297D01*
X20670000Y-51630000D01*
X20670000Y-51930000D01*
X20669278Y-51944703D01*
X20667118Y-51959264D01*
X20663541Y-51973543D01*
X20658582Y-51987403D01*
X20652288Y-52000710D01*
X20644720Y-52013336D01*
X20635952Y-52025159D01*
X20626066Y-52036066D01*
X20615159Y-52045952D01*
X20603336Y-52054720D01*
X20590710Y-52062288D01*
X20577403Y-52068582D01*
X20563543Y-52073541D01*
X20549264Y-52077118D01*
X20534703Y-52079278D01*
X20520000Y-52080000D01*
X18870000Y-52080000D01*
X18855297Y-52079278D01*
X18840736Y-52077118D01*
X18826457Y-52073541D01*
X18812597Y-52068582D01*
X18799290Y-52062288D01*
X18786664Y-52054720D01*
X18774841Y-52045952D01*
X18763934Y-52036066D01*
X18754048Y-52025159D01*
X18745280Y-52013336D01*
X18737712Y-52000710D01*
X18731418Y-51987403D01*
X18726459Y-51973543D01*
X18722882Y-51959264D01*
X18720722Y-51944703D01*
X18720000Y-51930000D01*
X18720000Y-51630000D01*
X18720722Y-51615297D01*
X18722882Y-51600736D01*
X18726459Y-51586457D01*
X18731418Y-51572597D01*
X18737712Y-51559290D01*
X18745280Y-51546664D01*
X18754048Y-51534841D01*
X18763934Y-51523934D01*
X18774841Y-51514048D01*
X18786664Y-51505280D01*
X18799290Y-51497712D01*
X18812597Y-51491418D01*
X18826457Y-51486459D01*
X18840736Y-51482882D01*
X18855297Y-51480722D01*
X18870000Y-51480000D01*
X20520000Y-51480000D01*
X20534703Y-51480722D01*
X20534703Y-51480722D01*
G37*
D15*
X19695000Y-51780000D03*
D10*
G36*
X20534703Y-52750722D02*
G01*
X20549264Y-52752882D01*
X20563543Y-52756459D01*
X20577403Y-52761418D01*
X20590710Y-52767712D01*
X20603336Y-52775280D01*
X20615159Y-52784048D01*
X20626066Y-52793934D01*
X20635952Y-52804841D01*
X20644720Y-52816664D01*
X20652288Y-52829290D01*
X20658582Y-52842597D01*
X20663541Y-52856457D01*
X20667118Y-52870736D01*
X20669278Y-52885297D01*
X20670000Y-52900000D01*
X20670000Y-53200000D01*
X20669278Y-53214703D01*
X20667118Y-53229264D01*
X20663541Y-53243543D01*
X20658582Y-53257403D01*
X20652288Y-53270710D01*
X20644720Y-53283336D01*
X20635952Y-53295159D01*
X20626066Y-53306066D01*
X20615159Y-53315952D01*
X20603336Y-53324720D01*
X20590710Y-53332288D01*
X20577403Y-53338582D01*
X20563543Y-53343541D01*
X20549264Y-53347118D01*
X20534703Y-53349278D01*
X20520000Y-53350000D01*
X18870000Y-53350000D01*
X18855297Y-53349278D01*
X18840736Y-53347118D01*
X18826457Y-53343541D01*
X18812597Y-53338582D01*
X18799290Y-53332288D01*
X18786664Y-53324720D01*
X18774841Y-53315952D01*
X18763934Y-53306066D01*
X18754048Y-53295159D01*
X18745280Y-53283336D01*
X18737712Y-53270710D01*
X18731418Y-53257403D01*
X18726459Y-53243543D01*
X18722882Y-53229264D01*
X18720722Y-53214703D01*
X18720000Y-53200000D01*
X18720000Y-52900000D01*
X18720722Y-52885297D01*
X18722882Y-52870736D01*
X18726459Y-52856457D01*
X18731418Y-52842597D01*
X18737712Y-52829290D01*
X18745280Y-52816664D01*
X18754048Y-52804841D01*
X18763934Y-52793934D01*
X18774841Y-52784048D01*
X18786664Y-52775280D01*
X18799290Y-52767712D01*
X18812597Y-52761418D01*
X18826457Y-52756459D01*
X18840736Y-52752882D01*
X18855297Y-52750722D01*
X18870000Y-52750000D01*
X20520000Y-52750000D01*
X20534703Y-52750722D01*
X20534703Y-52750722D01*
G37*
D15*
X19695000Y-53050000D03*
D10*
G36*
X20534703Y-54020722D02*
G01*
X20549264Y-54022882D01*
X20563543Y-54026459D01*
X20577403Y-54031418D01*
X20590710Y-54037712D01*
X20603336Y-54045280D01*
X20615159Y-54054048D01*
X20626066Y-54063934D01*
X20635952Y-54074841D01*
X20644720Y-54086664D01*
X20652288Y-54099290D01*
X20658582Y-54112597D01*
X20663541Y-54126457D01*
X20667118Y-54140736D01*
X20669278Y-54155297D01*
X20670000Y-54170000D01*
X20670000Y-54470000D01*
X20669278Y-54484703D01*
X20667118Y-54499264D01*
X20663541Y-54513543D01*
X20658582Y-54527403D01*
X20652288Y-54540710D01*
X20644720Y-54553336D01*
X20635952Y-54565159D01*
X20626066Y-54576066D01*
X20615159Y-54585952D01*
X20603336Y-54594720D01*
X20590710Y-54602288D01*
X20577403Y-54608582D01*
X20563543Y-54613541D01*
X20549264Y-54617118D01*
X20534703Y-54619278D01*
X20520000Y-54620000D01*
X18870000Y-54620000D01*
X18855297Y-54619278D01*
X18840736Y-54617118D01*
X18826457Y-54613541D01*
X18812597Y-54608582D01*
X18799290Y-54602288D01*
X18786664Y-54594720D01*
X18774841Y-54585952D01*
X18763934Y-54576066D01*
X18754048Y-54565159D01*
X18745280Y-54553336D01*
X18737712Y-54540710D01*
X18731418Y-54527403D01*
X18726459Y-54513543D01*
X18722882Y-54499264D01*
X18720722Y-54484703D01*
X18720000Y-54470000D01*
X18720000Y-54170000D01*
X18720722Y-54155297D01*
X18722882Y-54140736D01*
X18726459Y-54126457D01*
X18731418Y-54112597D01*
X18737712Y-54099290D01*
X18745280Y-54086664D01*
X18754048Y-54074841D01*
X18763934Y-54063934D01*
X18774841Y-54054048D01*
X18786664Y-54045280D01*
X18799290Y-54037712D01*
X18812597Y-54031418D01*
X18826457Y-54026459D01*
X18840736Y-54022882D01*
X18855297Y-54020722D01*
X18870000Y-54020000D01*
X20520000Y-54020000D01*
X20534703Y-54020722D01*
X20534703Y-54020722D01*
G37*
D15*
X19695000Y-54320000D03*
D10*
G36*
X25484703Y-54020722D02*
G01*
X25499264Y-54022882D01*
X25513543Y-54026459D01*
X25527403Y-54031418D01*
X25540710Y-54037712D01*
X25553336Y-54045280D01*
X25565159Y-54054048D01*
X25576066Y-54063934D01*
X25585952Y-54074841D01*
X25594720Y-54086664D01*
X25602288Y-54099290D01*
X25608582Y-54112597D01*
X25613541Y-54126457D01*
X25617118Y-54140736D01*
X25619278Y-54155297D01*
X25620000Y-54170000D01*
X25620000Y-54470000D01*
X25619278Y-54484703D01*
X25617118Y-54499264D01*
X25613541Y-54513543D01*
X25608582Y-54527403D01*
X25602288Y-54540710D01*
X25594720Y-54553336D01*
X25585952Y-54565159D01*
X25576066Y-54576066D01*
X25565159Y-54585952D01*
X25553336Y-54594720D01*
X25540710Y-54602288D01*
X25527403Y-54608582D01*
X25513543Y-54613541D01*
X25499264Y-54617118D01*
X25484703Y-54619278D01*
X25470000Y-54620000D01*
X23820000Y-54620000D01*
X23805297Y-54619278D01*
X23790736Y-54617118D01*
X23776457Y-54613541D01*
X23762597Y-54608582D01*
X23749290Y-54602288D01*
X23736664Y-54594720D01*
X23724841Y-54585952D01*
X23713934Y-54576066D01*
X23704048Y-54565159D01*
X23695280Y-54553336D01*
X23687712Y-54540710D01*
X23681418Y-54527403D01*
X23676459Y-54513543D01*
X23672882Y-54499264D01*
X23670722Y-54484703D01*
X23670000Y-54470000D01*
X23670000Y-54170000D01*
X23670722Y-54155297D01*
X23672882Y-54140736D01*
X23676459Y-54126457D01*
X23681418Y-54112597D01*
X23687712Y-54099290D01*
X23695280Y-54086664D01*
X23704048Y-54074841D01*
X23713934Y-54063934D01*
X23724841Y-54054048D01*
X23736664Y-54045280D01*
X23749290Y-54037712D01*
X23762597Y-54031418D01*
X23776457Y-54026459D01*
X23790736Y-54022882D01*
X23805297Y-54020722D01*
X23820000Y-54020000D01*
X25470000Y-54020000D01*
X25484703Y-54020722D01*
X25484703Y-54020722D01*
G37*
D15*
X24645000Y-54320000D03*
D10*
G36*
X25484703Y-52750722D02*
G01*
X25499264Y-52752882D01*
X25513543Y-52756459D01*
X25527403Y-52761418D01*
X25540710Y-52767712D01*
X25553336Y-52775280D01*
X25565159Y-52784048D01*
X25576066Y-52793934D01*
X25585952Y-52804841D01*
X25594720Y-52816664D01*
X25602288Y-52829290D01*
X25608582Y-52842597D01*
X25613541Y-52856457D01*
X25617118Y-52870736D01*
X25619278Y-52885297D01*
X25620000Y-52900000D01*
X25620000Y-53200000D01*
X25619278Y-53214703D01*
X25617118Y-53229264D01*
X25613541Y-53243543D01*
X25608582Y-53257403D01*
X25602288Y-53270710D01*
X25594720Y-53283336D01*
X25585952Y-53295159D01*
X25576066Y-53306066D01*
X25565159Y-53315952D01*
X25553336Y-53324720D01*
X25540710Y-53332288D01*
X25527403Y-53338582D01*
X25513543Y-53343541D01*
X25499264Y-53347118D01*
X25484703Y-53349278D01*
X25470000Y-53350000D01*
X23820000Y-53350000D01*
X23805297Y-53349278D01*
X23790736Y-53347118D01*
X23776457Y-53343541D01*
X23762597Y-53338582D01*
X23749290Y-53332288D01*
X23736664Y-53324720D01*
X23724841Y-53315952D01*
X23713934Y-53306066D01*
X23704048Y-53295159D01*
X23695280Y-53283336D01*
X23687712Y-53270710D01*
X23681418Y-53257403D01*
X23676459Y-53243543D01*
X23672882Y-53229264D01*
X23670722Y-53214703D01*
X23670000Y-53200000D01*
X23670000Y-52900000D01*
X23670722Y-52885297D01*
X23672882Y-52870736D01*
X23676459Y-52856457D01*
X23681418Y-52842597D01*
X23687712Y-52829290D01*
X23695280Y-52816664D01*
X23704048Y-52804841D01*
X23713934Y-52793934D01*
X23724841Y-52784048D01*
X23736664Y-52775280D01*
X23749290Y-52767712D01*
X23762597Y-52761418D01*
X23776457Y-52756459D01*
X23790736Y-52752882D01*
X23805297Y-52750722D01*
X23820000Y-52750000D01*
X25470000Y-52750000D01*
X25484703Y-52750722D01*
X25484703Y-52750722D01*
G37*
D15*
X24645000Y-53050000D03*
D10*
G36*
X25484703Y-51480722D02*
G01*
X25499264Y-51482882D01*
X25513543Y-51486459D01*
X25527403Y-51491418D01*
X25540710Y-51497712D01*
X25553336Y-51505280D01*
X25565159Y-51514048D01*
X25576066Y-51523934D01*
X25585952Y-51534841D01*
X25594720Y-51546664D01*
X25602288Y-51559290D01*
X25608582Y-51572597D01*
X25613541Y-51586457D01*
X25617118Y-51600736D01*
X25619278Y-51615297D01*
X25620000Y-51630000D01*
X25620000Y-51930000D01*
X25619278Y-51944703D01*
X25617118Y-51959264D01*
X25613541Y-51973543D01*
X25608582Y-51987403D01*
X25602288Y-52000710D01*
X25594720Y-52013336D01*
X25585952Y-52025159D01*
X25576066Y-52036066D01*
X25565159Y-52045952D01*
X25553336Y-52054720D01*
X25540710Y-52062288D01*
X25527403Y-52068582D01*
X25513543Y-52073541D01*
X25499264Y-52077118D01*
X25484703Y-52079278D01*
X25470000Y-52080000D01*
X23820000Y-52080000D01*
X23805297Y-52079278D01*
X23790736Y-52077118D01*
X23776457Y-52073541D01*
X23762597Y-52068582D01*
X23749290Y-52062288D01*
X23736664Y-52054720D01*
X23724841Y-52045952D01*
X23713934Y-52036066D01*
X23704048Y-52025159D01*
X23695280Y-52013336D01*
X23687712Y-52000710D01*
X23681418Y-51987403D01*
X23676459Y-51973543D01*
X23672882Y-51959264D01*
X23670722Y-51944703D01*
X23670000Y-51930000D01*
X23670000Y-51630000D01*
X23670722Y-51615297D01*
X23672882Y-51600736D01*
X23676459Y-51586457D01*
X23681418Y-51572597D01*
X23687712Y-51559290D01*
X23695280Y-51546664D01*
X23704048Y-51534841D01*
X23713934Y-51523934D01*
X23724841Y-51514048D01*
X23736664Y-51505280D01*
X23749290Y-51497712D01*
X23762597Y-51491418D01*
X23776457Y-51486459D01*
X23790736Y-51482882D01*
X23805297Y-51480722D01*
X23820000Y-51480000D01*
X25470000Y-51480000D01*
X25484703Y-51480722D01*
X25484703Y-51480722D01*
G37*
D15*
X24645000Y-51780000D03*
D10*
G36*
X25484703Y-50210722D02*
G01*
X25499264Y-50212882D01*
X25513543Y-50216459D01*
X25527403Y-50221418D01*
X25540710Y-50227712D01*
X25553336Y-50235280D01*
X25565159Y-50244048D01*
X25576066Y-50253934D01*
X25585952Y-50264841D01*
X25594720Y-50276664D01*
X25602288Y-50289290D01*
X25608582Y-50302597D01*
X25613541Y-50316457D01*
X25617118Y-50330736D01*
X25619278Y-50345297D01*
X25620000Y-50360000D01*
X25620000Y-50660000D01*
X25619278Y-50674703D01*
X25617118Y-50689264D01*
X25613541Y-50703543D01*
X25608582Y-50717403D01*
X25602288Y-50730710D01*
X25594720Y-50743336D01*
X25585952Y-50755159D01*
X25576066Y-50766066D01*
X25565159Y-50775952D01*
X25553336Y-50784720D01*
X25540710Y-50792288D01*
X25527403Y-50798582D01*
X25513543Y-50803541D01*
X25499264Y-50807118D01*
X25484703Y-50809278D01*
X25470000Y-50810000D01*
X23820000Y-50810000D01*
X23805297Y-50809278D01*
X23790736Y-50807118D01*
X23776457Y-50803541D01*
X23762597Y-50798582D01*
X23749290Y-50792288D01*
X23736664Y-50784720D01*
X23724841Y-50775952D01*
X23713934Y-50766066D01*
X23704048Y-50755159D01*
X23695280Y-50743336D01*
X23687712Y-50730710D01*
X23681418Y-50717403D01*
X23676459Y-50703543D01*
X23672882Y-50689264D01*
X23670722Y-50674703D01*
X23670000Y-50660000D01*
X23670000Y-50360000D01*
X23670722Y-50345297D01*
X23672882Y-50330736D01*
X23676459Y-50316457D01*
X23681418Y-50302597D01*
X23687712Y-50289290D01*
X23695280Y-50276664D01*
X23704048Y-50264841D01*
X23713934Y-50253934D01*
X23724841Y-50244048D01*
X23736664Y-50235280D01*
X23749290Y-50227712D01*
X23762597Y-50221418D01*
X23776457Y-50216459D01*
X23790736Y-50212882D01*
X23805297Y-50210722D01*
X23820000Y-50210000D01*
X25470000Y-50210000D01*
X25484703Y-50210722D01*
X25484703Y-50210722D01*
G37*
D15*
X24645000Y-50510000D03*
D10*
G36*
X25484703Y-48940722D02*
G01*
X25499264Y-48942882D01*
X25513543Y-48946459D01*
X25527403Y-48951418D01*
X25540710Y-48957712D01*
X25553336Y-48965280D01*
X25565159Y-48974048D01*
X25576066Y-48983934D01*
X25585952Y-48994841D01*
X25594720Y-49006664D01*
X25602288Y-49019290D01*
X25608582Y-49032597D01*
X25613541Y-49046457D01*
X25617118Y-49060736D01*
X25619278Y-49075297D01*
X25620000Y-49090000D01*
X25620000Y-49390000D01*
X25619278Y-49404703D01*
X25617118Y-49419264D01*
X25613541Y-49433543D01*
X25608582Y-49447403D01*
X25602288Y-49460710D01*
X25594720Y-49473336D01*
X25585952Y-49485159D01*
X25576066Y-49496066D01*
X25565159Y-49505952D01*
X25553336Y-49514720D01*
X25540710Y-49522288D01*
X25527403Y-49528582D01*
X25513543Y-49533541D01*
X25499264Y-49537118D01*
X25484703Y-49539278D01*
X25470000Y-49540000D01*
X23820000Y-49540000D01*
X23805297Y-49539278D01*
X23790736Y-49537118D01*
X23776457Y-49533541D01*
X23762597Y-49528582D01*
X23749290Y-49522288D01*
X23736664Y-49514720D01*
X23724841Y-49505952D01*
X23713934Y-49496066D01*
X23704048Y-49485159D01*
X23695280Y-49473336D01*
X23687712Y-49460710D01*
X23681418Y-49447403D01*
X23676459Y-49433543D01*
X23672882Y-49419264D01*
X23670722Y-49404703D01*
X23670000Y-49390000D01*
X23670000Y-49090000D01*
X23670722Y-49075297D01*
X23672882Y-49060736D01*
X23676459Y-49046457D01*
X23681418Y-49032597D01*
X23687712Y-49019290D01*
X23695280Y-49006664D01*
X23704048Y-48994841D01*
X23713934Y-48983934D01*
X23724841Y-48974048D01*
X23736664Y-48965280D01*
X23749290Y-48957712D01*
X23762597Y-48951418D01*
X23776457Y-48946459D01*
X23790736Y-48942882D01*
X23805297Y-48940722D01*
X23820000Y-48940000D01*
X25470000Y-48940000D01*
X25484703Y-48940722D01*
X25484703Y-48940722D01*
G37*
D15*
X24645000Y-49240000D03*
D10*
G36*
X25484703Y-47670722D02*
G01*
X25499264Y-47672882D01*
X25513543Y-47676459D01*
X25527403Y-47681418D01*
X25540710Y-47687712D01*
X25553336Y-47695280D01*
X25565159Y-47704048D01*
X25576066Y-47713934D01*
X25585952Y-47724841D01*
X25594720Y-47736664D01*
X25602288Y-47749290D01*
X25608582Y-47762597D01*
X25613541Y-47776457D01*
X25617118Y-47790736D01*
X25619278Y-47805297D01*
X25620000Y-47820000D01*
X25620000Y-48120000D01*
X25619278Y-48134703D01*
X25617118Y-48149264D01*
X25613541Y-48163543D01*
X25608582Y-48177403D01*
X25602288Y-48190710D01*
X25594720Y-48203336D01*
X25585952Y-48215159D01*
X25576066Y-48226066D01*
X25565159Y-48235952D01*
X25553336Y-48244720D01*
X25540710Y-48252288D01*
X25527403Y-48258582D01*
X25513543Y-48263541D01*
X25499264Y-48267118D01*
X25484703Y-48269278D01*
X25470000Y-48270000D01*
X23820000Y-48270000D01*
X23805297Y-48269278D01*
X23790736Y-48267118D01*
X23776457Y-48263541D01*
X23762597Y-48258582D01*
X23749290Y-48252288D01*
X23736664Y-48244720D01*
X23724841Y-48235952D01*
X23713934Y-48226066D01*
X23704048Y-48215159D01*
X23695280Y-48203336D01*
X23687712Y-48190710D01*
X23681418Y-48177403D01*
X23676459Y-48163543D01*
X23672882Y-48149264D01*
X23670722Y-48134703D01*
X23670000Y-48120000D01*
X23670000Y-47820000D01*
X23670722Y-47805297D01*
X23672882Y-47790736D01*
X23676459Y-47776457D01*
X23681418Y-47762597D01*
X23687712Y-47749290D01*
X23695280Y-47736664D01*
X23704048Y-47724841D01*
X23713934Y-47713934D01*
X23724841Y-47704048D01*
X23736664Y-47695280D01*
X23749290Y-47687712D01*
X23762597Y-47681418D01*
X23776457Y-47676459D01*
X23790736Y-47672882D01*
X23805297Y-47670722D01*
X23820000Y-47670000D01*
X25470000Y-47670000D01*
X25484703Y-47670722D01*
X25484703Y-47670722D01*
G37*
D15*
X24645000Y-47970000D03*
D10*
G36*
X25484703Y-46400722D02*
G01*
X25499264Y-46402882D01*
X25513543Y-46406459D01*
X25527403Y-46411418D01*
X25540710Y-46417712D01*
X25553336Y-46425280D01*
X25565159Y-46434048D01*
X25576066Y-46443934D01*
X25585952Y-46454841D01*
X25594720Y-46466664D01*
X25602288Y-46479290D01*
X25608582Y-46492597D01*
X25613541Y-46506457D01*
X25617118Y-46520736D01*
X25619278Y-46535297D01*
X25620000Y-46550000D01*
X25620000Y-46850000D01*
X25619278Y-46864703D01*
X25617118Y-46879264D01*
X25613541Y-46893543D01*
X25608582Y-46907403D01*
X25602288Y-46920710D01*
X25594720Y-46933336D01*
X25585952Y-46945159D01*
X25576066Y-46956066D01*
X25565159Y-46965952D01*
X25553336Y-46974720D01*
X25540710Y-46982288D01*
X25527403Y-46988582D01*
X25513543Y-46993541D01*
X25499264Y-46997118D01*
X25484703Y-46999278D01*
X25470000Y-47000000D01*
X23820000Y-47000000D01*
X23805297Y-46999278D01*
X23790736Y-46997118D01*
X23776457Y-46993541D01*
X23762597Y-46988582D01*
X23749290Y-46982288D01*
X23736664Y-46974720D01*
X23724841Y-46965952D01*
X23713934Y-46956066D01*
X23704048Y-46945159D01*
X23695280Y-46933336D01*
X23687712Y-46920710D01*
X23681418Y-46907403D01*
X23676459Y-46893543D01*
X23672882Y-46879264D01*
X23670722Y-46864703D01*
X23670000Y-46850000D01*
X23670000Y-46550000D01*
X23670722Y-46535297D01*
X23672882Y-46520736D01*
X23676459Y-46506457D01*
X23681418Y-46492597D01*
X23687712Y-46479290D01*
X23695280Y-46466664D01*
X23704048Y-46454841D01*
X23713934Y-46443934D01*
X23724841Y-46434048D01*
X23736664Y-46425280D01*
X23749290Y-46417712D01*
X23762597Y-46411418D01*
X23776457Y-46406459D01*
X23790736Y-46402882D01*
X23805297Y-46400722D01*
X23820000Y-46400000D01*
X25470000Y-46400000D01*
X25484703Y-46400722D01*
X25484703Y-46400722D01*
G37*
D15*
X24645000Y-46700000D03*
M02*
