M48
; DRILL file {KiCad (5.1.2-1)-1} date Wednesday, May 12, 2021 at 11:50:38 PM
; FORMAT={-:-/ absolute / inch / decimal}
; #@! TF.CreationDate,2021-05-12T23:50:38-04:00
; #@! TF.GenerationSoftware,Kicad,Pcbnew,(5.1.2-1)-1
FMAT,2
INCH
T1C0.0157
T2C0.0236
T3C0.0295
T4C0.0315
T5C0.0394
T6C0.0394
T7C0.1378
%
G90
G05
T1
X1.522Y-3.146
X1.537Y-2.939
X1.573Y-3.142
X1.59Y-2.934
X1.826Y-0.963
X1.876Y-1.627
X1.882Y-3.386
X1.885Y-3.223
X1.988Y-3.097
X2.051Y-3.132
X2.401Y-0.788
X2.456Y-0.852
X2.685Y-2.541
X2.712Y-2.617
X3.9285Y-1.8285
X3.9889Y-2.1749
X4.002Y-1.79
X4.519Y-1.678
X4.737Y-4.387
X4.841Y-3.698
X4.849Y-3.849
X5.324Y-4.389
X5.397Y-4.339
X5.478Y-3.789
X5.506Y-2.207
X5.898Y-3.54
X5.899Y-2.986
X6.087Y-1.648
X6.269Y-3.115
X6.39Y-0.992
X6.537Y-2.476
X6.69Y-2.427
X6.8418Y-1.8198
T2
X6.875Y-3.392
X6.875Y-3.4707
X6.874Y-3.191
X6.874Y-3.2697
T3
X1.4346Y-1.9844
X1.4839Y-1.9931
X1.5331Y-2.0017
T4
X1.391Y-1.6935
X1.443Y-1.3981
X5.3157Y-1.1128
X5.4423Y-1.2636
X2.744Y-2.22
X3.044Y-2.22
X2.6588Y-3.2294
X2.9588Y-3.2294
X2.6469Y-0.981
X2.699Y-1.2765
X5.4131Y-0.8496
X5.695Y-0.9522
X4.8539Y-1.3603
X4.8881Y-1.1664
X4.282Y-2.557
X4.282Y-2.857
X5.7017Y-3.0031
X5.9972Y-2.951
X6.3251Y-0.8797
X6.4751Y-0.6199
X4.1719Y-1.3558
X4.3658Y-1.39
X4.6855Y-3.9671
X4.7029Y-3.8686
X4.7202Y-3.7701
X4.7376Y-3.6716
X4.755Y-3.5732
X4.7723Y-3.4747
X4.7897Y-3.3762
X4.9809Y-4.0192
X4.9983Y-3.9207
X5.0157Y-3.8222
X5.033Y-3.7237
X5.0504Y-3.6253
X5.0678Y-3.5268
X5.0851Y-3.4283
X3.686Y-2.238
X3.9458Y-2.088
X6.0472Y-2.0552
X6.277Y-2.248
X4.6247Y-1.0448
X4.9201Y-0.9927
X3.712Y-2.51
X3.712Y-2.81
X2.1156Y-3.2282
X2.3754Y-3.0782
X2.536Y-1.6095
X2.6386Y-1.8915
X4.546Y-2.103
X4.696Y-1.8432
X5.1181Y-2.3714
X5.4Y-2.474
X4.639Y-2.2028
X4.789Y-1.943
X1.366Y-1.8084
X1.5599Y-1.8425
X3.1315Y-2.0986
X3.4315Y-2.0986
X3.874Y-2.95
X4.174Y-2.95
X5.5524Y-2.9158
X5.8343Y-2.8132
X3.218Y-3.512
X3.218Y-3.812
X6.4381Y-0.9467
X6.5881Y-0.6869
X2.1761Y-3.333
X2.4359Y-3.183
X2.3752Y-3.5418
X2.568Y-3.312
X3.097Y-3.512
X3.097Y-3.812
X3.447Y-1.932
X3.6398Y-1.7022
X5.4044Y-1.5401
X5.5028Y-1.7106
X6.2916Y-1.9505
X6.5735Y-2.0531
X1.8836Y-2.9289
X1.9009Y-2.8304
X1.9183Y-2.7319
X1.9357Y-2.6335
X1.953Y-2.535
X1.9704Y-2.4365
X1.9877Y-2.338
X2.0051Y-2.2395
X2.179Y-2.981
X2.1964Y-2.8825
X2.2137Y-2.784
X2.2311Y-2.6856
X2.2485Y-2.5871
X2.2658Y-2.4886
X2.2832Y-2.3901
X2.3006Y-2.2916
X5.072Y-2.11
X5.372Y-2.11
X6.0651Y-0.7097
X6.262Y-0.7097
X2.5259Y-1.0034
X2.578Y-1.2988
X4.3013Y-3.605
X4.5967Y-3.6571
X1.574Y-2.287
X1.8559Y-2.3896
X5.6534Y-1.4561
X5.9534Y-1.4561
X6.3346Y-1.8352
X6.6165Y-1.9379
X4.2602Y-3.1572
X4.453Y-2.9274
X4.586Y-2.559
X4.586Y-2.859
X4.686Y-2.559
X4.686Y-2.859
X4.786Y-2.559
X4.786Y-2.859
X4.886Y-2.559
X4.886Y-2.859
X4.986Y-2.559
X4.986Y-2.859
X5.086Y-2.559
X5.086Y-2.859
X5.186Y-2.559
X5.186Y-2.859
X6.1223Y-0.8602
X6.2731Y-0.9867
X2.744Y-2.098
X3.044Y-2.098
X3.106Y-3.111
X3.406Y-3.111
X1.1761Y-2.1513
X1.2787Y-2.4332
X3.1508Y-1.8312
X3.2029Y-1.5358
X3.7753Y-1.293
X4.0572Y-1.3956
X2.8175Y-3.7701
X2.9201Y-3.4882
X1.1071Y-1.5595
X1.2775Y-1.4611
X5.6599Y-1.3119
X5.8897Y-1.1191
X3.5649Y-3.2197
X3.8247Y-3.3697
X4.902Y-2.0303
X5.087Y-1.963
X3.104Y-3.235
X3.404Y-3.235
X5.7475Y-1.5821
X5.9444Y-1.5821
X3.84Y-2.498
X3.84Y-2.798
X3.94Y-2.498
X3.94Y-2.798
X4.04Y-2.498
X4.04Y-2.798
X4.14Y-2.498
X4.14Y-2.798
X1.741Y-2.928
X1.7931Y-3.2234
X6.0401Y-0.5907
X6.3401Y-0.5907
X4.0488Y-1.1921
X4.0662Y-1.0936
X4.0835Y-0.9951
X4.1009Y-0.8967
X4.1183Y-0.7982
X4.1356Y-0.6997
X4.153Y-0.6012
X4.3443Y-1.2442
X4.3616Y-1.1457
X4.379Y-1.0472
X4.3964Y-0.9488
X4.4137Y-0.8503
X4.4311Y-0.7518
X4.4484Y-0.6533
X5.3904Y-0.9733
X5.5754Y-1.0407
X3.5344Y-0.8655
X3.5865Y-0.5701
X5.5809Y-1.2161
X5.8107Y-1.0233
X4.3566Y-3.2368
X4.5494Y-3.007
X1.3903Y-0.9639
X1.4424Y-1.2593
X5.215Y-3.7102
X5.2671Y-3.4147
X3.6259Y-3.1141
X3.8857Y-3.2641
X4.3502Y-1.5143
X4.6456Y-1.5664
X6.1738Y-1.6395
X6.208Y-1.5455
X6.2422Y-1.4515
X6.2764Y-1.3576
X6.3106Y-1.2636
X6.3448Y-1.1696
X6.3791Y-1.0756
X6.4557Y-1.7421
X6.4899Y-1.6481
X6.5242Y-1.5541
X6.5584Y-1.4602
X6.5926Y-1.3662
X6.6268Y-1.2722
X6.661Y-1.1783
X6.9167Y-1.7417
X7.2121Y-1.7938
X4.4517Y-1.279
X4.7471Y-1.3311
X3.543Y-2.014
X3.7358Y-1.7842
X2.4722Y-3.6228
X2.665Y-3.393
X3.6049Y-1.0246
X3.7033Y-0.8541
X3.8497Y-0.9367
X3.9018Y-0.6412
X5.3801Y-3.5836
X5.5309Y-3.4571
X4.455Y-2.608
X4.455Y-2.8049
X4.778Y-2.987
X5.078Y-2.987
X6.0552Y-1.7378
X6.2402Y-1.8051
X5.4541Y-4.0987
X5.5041Y-4.0121
X5.5541Y-3.9255
X5.6041Y-3.8389
X5.6541Y-3.7523
X5.7041Y-3.6657
X5.7139Y-4.2487
X5.7541Y-3.5791
X5.7639Y-4.1621
X5.8139Y-4.0755
X5.8639Y-3.9889
X5.9139Y-3.9023
X5.9639Y-3.8157
X6.0139Y-3.7291
X3.468Y-3.381
X3.6608Y-3.6108
X2.7038Y-3.7287
X2.8064Y-3.4468
X5.8703Y-3.1051
X6.0203Y-3.3649
X5.5482Y-2.4798
X5.778Y-2.287
X4.1673Y-4.001
X4.2699Y-3.7191
X3.375Y-3.459
X3.5678Y-3.6888
X5.6384Y-1.8211
X5.9203Y-1.7185
X3.981Y-3.98
X4.131Y-3.7202
X4.3369Y-3.9429
X4.4634Y-3.7921
X4.9469Y-2.1456
X4.999Y-2.441
X7.0035Y-1.4828
X7.2633Y-1.6328
X4.5302Y-4.088
X4.79Y-4.238
X1.626Y-2.1767
X1.6781Y-1.8813
X5.7871Y-3.2124
X5.8855Y-3.3829
X4.9188Y-1.5888
X5.0214Y-1.3069
X4.1925Y-2.2096
X4.363Y-2.308
X4.0822Y-2.289
X4.342Y-2.439
X5.213Y-2.2737
X5.398Y-2.341
X0.7103Y-1.6534
X0.9922Y-1.5508
X5.696Y-2.61
X5.8888Y-2.3802
X2.465Y-2.359
X2.465Y-2.959
X2.565Y-2.359
X2.565Y-2.959
X2.665Y-2.359
X2.665Y-2.959
X2.765Y-2.359
X2.765Y-2.959
X2.865Y-2.359
X2.865Y-2.959
X2.965Y-2.359
X2.965Y-2.959
X3.065Y-2.359
X3.065Y-2.959
X3.165Y-2.359
X3.165Y-2.959
X3.265Y-2.359
X3.265Y-2.959
X3.365Y-2.359
X3.365Y-2.959
X3.465Y-2.359
X3.465Y-2.959
X3.565Y-2.359
X3.565Y-2.959
X2.8933Y-1.5203
X2.8933Y-1.8203
X4.5925Y-0.6334
X4.6446Y-0.9289
X2.6507Y-1.5678
X2.7533Y-1.8497
X5.4904Y-1.4313
X5.6404Y-1.6911
X4.4796Y-1.1737
X4.5138Y-0.9799
X3.1315Y-2.2206
X3.4315Y-2.2206
X3.0148Y-1.5206
X3.0148Y-1.8206
X5.3783Y-3.3357
X5.6738Y-3.2837
X0.5787Y-1.6787
X0.7287Y-1.9385
X4.466Y-2.221
X4.6958Y-2.4138
X3.7493Y-4.2712
X3.9001Y-4.1446
X2.2325Y-1.9313
X2.4923Y-2.0813
X5.9782Y-2.1662
X6.208Y-2.359
X0.7819Y-2.1306
X1.0638Y-2.2332
X3.27Y-1.8523
X3.3221Y-1.5568
X2.1705Y-2.0387
X2.4303Y-2.1887
X2.6588Y-3.1082
X2.9588Y-3.1082
X5.4766Y-3.101
X5.6705Y-3.1352
X1.7031Y-1.5745
X1.7531Y-1.4879
X1.8031Y-1.4013
X1.8531Y-1.3147
X1.9031Y-1.2281
X1.9531Y-1.1415
X1.9629Y-1.7245
X2.0031Y-1.0549
X2.0129Y-1.6379
X2.0531Y-0.9683
X2.0629Y-1.5513
X2.1129Y-1.4647
X2.1629Y-1.3781
X2.2129Y-1.2915
X2.2629Y-1.2049
X2.3129Y-1.1183
X5.0832Y-4.0904
X5.343Y-4.2404
X3.626Y-2.133
X3.8858Y-1.983
X5.023Y-0.9613
X5.0571Y-1.1551
X0.9065Y-1.7412
X0.9586Y-2.0367
X1.005Y-1.7239
X1.0571Y-2.0193
X1.1035Y-1.7065
X1.1556Y-2.0019
X1.202Y-1.6891
X1.254Y-1.9846
T5
X6.7128Y-1.3749
X6.9008Y-1.4433
X6.0488Y-1.0619
X6.2368Y-1.1303
X6.6637Y-1.507
X6.8516Y-1.5754
X6.6136Y-1.6388
X6.8015Y-1.7072
X4.9395Y-4.1561
X5.1128Y-4.2561
X5.1351Y-3.9743
X5.3083Y-4.0743
X5.2317Y-3.856
X5.4049Y-3.956
X4.1204Y-1.6487
X4.1888Y-1.8366
X4.249Y-1.973
X4.449Y-1.973
X6.7582Y-1.253
X6.9462Y-1.3214
X4.2401Y-1.6062
X4.3085Y-1.7941
X5.9795Y-1.2495
X6.1674Y-1.3179
X0.895Y-1.4525
X1.083Y-1.3841
X5.698Y-2.091
X5.895Y-2.0563
X4.4311Y-4.0241
X4.5597Y-3.8708
T6
X4.29Y-3.334
X2.081Y-3.4
X6.562Y-3.141
X6.712Y-3.141
X1.66Y-3.55
X4.2814Y-4.0854
X1.529Y-0.963
X1.0964Y-2.6871
X5.1293Y-1.4118
X2.14Y-1.865
X4.015Y-3.584
X1.1238Y-3.4814
X2.406Y-3.718
X2.882Y-1.407
X5.6696Y-3.4308
X1.4035Y-3.4321
X2.123Y-3.686
X3.087Y-3.925
X4.049Y-2.041
X2.215Y-1.609
X3.633Y-3.781
X5.067Y-3.12
X3.816Y-1.703
X0.9475Y-3.0403
X2.787Y-3.881
X6.7052Y-2.0361
X3.214Y-1.422
X5.4386Y-2.9528
X1.3742Y-2.6381
X3.352Y-1.447
X4.771Y-3.118
X3.491Y-1.322
X6.564Y-3.326
X6.714Y-3.326
X3.988Y-3.312
X2.308Y-1.498
X2.4474Y-1.318
X6.1787Y-1.9243
X5.333Y-2.634
X4.8189Y-0.8725
X1.6519Y-2.5891
X2.068Y-1.99
X3.922Y-3.732
X4.177Y-3.24
X5.9211Y-0.5847
X2.621Y-1.458
X2.008Y-3.274
X5.3063Y-0.8097
X0.9605Y-3.367
X1.8Y-3.53
X2.294Y-3.623
X2.489Y-1.507
X3.228Y-3.925
X1.2636Y-3.4567
X4.629Y-3.165
X3.979Y-1.918
X3.706Y-1.61
X3.024Y-1.407
X5.5124Y-1.8551
X0.9576Y-2.7115
X1.5443Y-3.4072
X2.007Y-3.569
X1.853Y-2.248
X1.513Y-2.6136
X3.741Y-3.691
X4.384Y-2.137
X3.63Y-1.385
X3.918Y-3.435
X1.2353Y-2.6626
X0.9849Y-3.5059
X2.8297Y-1.2514
X0.9245Y-2.8981
X4.7761Y-1.4836
X6.562Y-3.529
X6.712Y-3.529
X2.655Y-3.833
X5.879Y-2.66
X4.0409Y-4.1162
T7
X0.7Y-0.7
X7.2Y-4.26
X0.7Y-4.26
X7.2Y-0.7
T0
M30
