M48
; DRILL file {KiCad (5.1.2-1)-1} date Sunday, January 02, 2022 at 08:14:40 PM
; FORMAT={-:-/ absolute / inch / decimal}
; #@! TF.CreationDate,2022-01-02T20:14:40-05:00
; #@! TF.GenerationSoftware,Kicad,Pcbnew,(5.1.2-1)-1
FMAT,2
INCH
T1C0.0157
T2C0.0315
T3C0.0394
T4C0.0394
T5C0.0400
T6C0.0433
T7C0.1378
%
G90
G05
T1
X0.837Y-2.3677
X1.1193Y-1.4681
X1.1776Y-1.8366
T2
X0.8469Y-2.1909
X0.8469Y-2.4909
X2.0677Y-3.6014
X2.3496Y-3.4988
X1.2063Y-1.1858
X1.4031Y-1.1858
X2.0547Y-1.8114
X2.1531Y-1.8114
X1.2075Y-3.8858
X1.3059Y-3.8858
X0.974Y-4.1913
X0.974Y-4.4913
X1.2236Y-4.2106
X1.2236Y-4.5106
X1.3236Y-4.2106
X1.3236Y-4.5106
X1.4236Y-4.2106
X1.4236Y-4.5106
X1.5236Y-4.2106
X1.5236Y-4.5106
X1.6236Y-4.2106
X1.6236Y-4.5106
X1.7236Y-4.2106
X1.7236Y-4.5106
X1.8236Y-4.2106
X1.8236Y-4.5106
X2.0622Y-4.7661
X2.1606Y-4.7661
X1.9844Y-0.5634
X2.0697Y-0.6126
X2.0555Y-4.3917
X2.3555Y-4.3917
X2.0449Y-3.8552
X2.1949Y-4.115
X0.8303Y-3.0638
X0.8303Y-3.3638
X1.95Y-4.2299
X1.95Y-4.5299
X1.5665Y-0.5539
X1.8665Y-0.5539
X1.3378Y-0.5366
X1.3378Y-0.8366
X1.2165Y-1.298
X1.2165Y-1.4949
X1.0579Y-3.3504
X1.3579Y-3.3504
X1.5705Y-3.9047
X1.5705Y-4.0047
X1.5705Y-4.1047
X1.461Y-0.5362
X1.461Y-0.8362
X0.6697Y-1.0291
X0.6697Y-1.226
X2.2012Y-0.5913
X2.2996Y-0.5913
X0.5484Y-1.0291
X0.5484Y-1.226
X2.0965Y-3.0083
X2.3965Y-3.0083
X1.2965Y-4.6343
X1.5965Y-4.6343
X1.7787Y-3.2378
X2.0787Y-3.2378
X1.6902Y-4.7555
X1.887Y-4.7555
X1.026Y-4.0858
X1.326Y-4.0858
X0.9531Y-3.0622
X0.9531Y-3.3622
X0.8059Y-2.5976
X0.8059Y-2.6976
X0.8059Y-2.7976
X1.8858Y-0.9846
X1.8858Y-1.1815
X1.4299Y-3.8035
X1.4299Y-4.1035
X0.8516Y-4.1929
X0.8516Y-4.4929
X2.3299Y-1.7638
X2.3299Y-1.8622
X1.3201Y-1.0638
X1.6201Y-1.0638
X1.437Y-1.5619
X1.4707Y-1.6544
X2.3276Y-4.1693
X2.3276Y-4.2677
X1.7912Y-3.3651
X1.7912Y-3.6651
X0.6197Y-0.7921
X0.6197Y-0.8906
X0.8469Y-1.8043
X0.8469Y-2.1043
X1.0764Y-2.6244
X1.0764Y-2.7244
X1.0764Y-2.8244
X1.0764Y-2.9244
X1.0764Y-3.0244
X1.0764Y-3.1244
X1.0764Y-3.2244
X1.3764Y-2.6244
X1.3764Y-2.7244
X1.3764Y-2.8244
X1.3764Y-2.9244
X1.3764Y-3.0244
X1.3764Y-3.1244
X1.3764Y-3.2244
X1.7803Y-3.0677
X1.8803Y-3.0677
X1.9803Y-3.0677
X1.3953Y-2.1909
X1.3953Y-2.4909
X1.3945Y-1.8055
X1.3945Y-2.1055
X1.75Y-0.961
X1.8526Y-0.6791
X1.5146Y-2.9898
X1.6172Y-3.2717
X1.5955Y-0.8022
X1.6709Y-0.739
X1.8591Y-2.7287
X1.9575Y-2.7287
X1.8327Y-1.7498
X1.9353Y-2.0317
X1.0579Y-3.4717
X1.3579Y-3.4717
X0.7906Y-0.6445
X0.7906Y-0.7445
X0.7906Y-0.8445
X0.7906Y-0.9445
X0.7906Y-1.0445
X0.7906Y-1.1445
X0.7906Y-1.2445
X0.7906Y-1.3445
X1.0906Y-0.6445
X1.0906Y-0.7445
X1.0906Y-0.8445
X1.0906Y-0.9445
X1.0906Y-1.0445
X1.0906Y-1.1445
X1.0906Y-1.2445
X1.0906Y-1.3445
X2.2807Y-3.3079
X2.3791Y-3.3079
X1.2157Y-0.5705
X1.2157Y-0.7673
X1.2878Y-4.7618
X1.5878Y-4.7618
X1.6823Y-4.6346
X1.9823Y-4.6346
X0.6043Y-2.1917
X0.6043Y-2.4917
X2.0543Y-4.5134
X2.3543Y-4.5134
X1.6685Y-3.365
X1.6685Y-3.665
X1.5489Y-1.2805
X1.6122Y-1.2051
X1.3209Y-0.9425
X1.6209Y-0.9425
X0.726Y-2.1913
X0.726Y-2.4913
X1.0976Y-4.1917
X1.0976Y-4.4917
X1.2161Y-0.8685
X1.2161Y-1.0654
X1.913Y-3.3429
X1.913Y-3.6429
X1.7608Y-3.9049
X1.7608Y-4.0049
X1.7608Y-4.1049
X1.9673Y-3.989
X2.0657Y-4.1594
X0.726Y-1.8047
X0.726Y-2.1047
X1.8602Y-2.3657
X1.9587Y-2.3657
X0.952Y-2.4909
X1.252Y-2.4909
X0.9705Y-1.6646
X0.9705Y-1.7646
X0.9705Y-1.8646
X0.9705Y-1.9646
X0.9705Y-2.0646
X0.9705Y-2.1646
X0.9705Y-2.2646
X0.9705Y-2.3646
X1.2705Y-1.6646
X1.2705Y-1.7646
X1.2705Y-1.8646
X1.2705Y-1.9646
X1.2705Y-2.0646
X1.2705Y-2.1646
X1.2705Y-2.2646
X1.2705Y-2.3646
X1.687Y-2.6358
X1.687Y-2.9358
X1.6866Y-2.2496
X1.6866Y-2.5496
T3
X1.4992Y-2.6268
X1.4992Y-2.8268
X1.718Y-1.8008
X1.7864Y-1.9887
X2.1886Y-3.1315
X2.3886Y-3.1315
X0.9508Y-2.6055
X0.9508Y-2.8055
T4
X1.4278Y-1.4215
X1.8311Y-2.5476
X1.9811Y-2.5476
X1.8291Y-2.9138
X1.9791Y-2.9138
X1.4709Y-3.3598
X1.0882Y-4.6051
X1.7811Y-3.7787
X1.9224Y-3.7571
X2.326Y-4.6445
X1.9665Y-0.7638
X2.2933Y-4.8083
X2.1606Y-3.3783
X1.4709Y-3.5004
X1.822Y-2.1626
X1.9698Y-2.1886
X0.9472Y-4.6063
X2.3665Y-0.763
T5
X2.1906Y-2.3421
X2.1906Y-2.4421
X2.1906Y-2.5421
X2.1906Y-2.6421
X2.1906Y-2.7421
X2.2906Y-2.3421
X2.2906Y-2.4421
X2.2906Y-2.5421
X2.2906Y-2.6421
X2.2906Y-2.7421
T6
X2.1228Y-2.0606
X2.2228Y-2.0606
X2.3228Y-2.0606
T7
X0.689Y-1.5551
X0.689Y-3.7598
X2.2441Y-3.7598
X2.2441Y-1.5551
T0
M30
