G04 #@! TF.GenerationSoftware,KiCad,Pcbnew,(5.1.2-1)-1*
G04 #@! TF.CreationDate,2022-01-02T20:14:42-05:00*
G04 #@! TF.ProjectId,EchoFXXX_MFOS,4563686f-4658-4585-985f-4d464f532e6b,rev?*
G04 #@! TF.SameCoordinates,Original*
G04 #@! TF.FileFunction,Copper,L2,Bot*
G04 #@! TF.FilePolarity,Positive*
%FSLAX46Y46*%
G04 Gerber Fmt 4.6, Leading zero omitted, Abs format (unit mm)*
G04 Created by KiCad (PCBNEW (5.1.2-1)-1) date 2022-01-02 20:14:42*
%MOMM*%
%LPD*%
G04 APERTURE LIST*
%ADD10C,0.100000*%
%ADD11C,1.150000*%
%ADD12O,1.600000X1.600000*%
%ADD13R,1.600000X1.600000*%
%ADD14R,1.500000X1.500000*%
%ADD15C,1.500000*%
%ADD16C,1.600000*%
%ADD17C,2.000000*%
%ADD18C,2.000000*%
%ADD19R,2.000000X2.000000*%
%ADD20O,2.000000X2.000000*%
%ADD21C,2.499360*%
%ADD22R,1.727200X1.727200*%
%ADD23O,1.727200X1.727200*%
%ADD24R,2.499360X2.499360*%
%ADD25C,1.600000*%
%ADD26R,1.905000X2.000000*%
%ADD27O,1.905000X2.000000*%
%ADD28C,0.800000*%
%ADD29C,0.812800*%
%ADD30C,0.406400*%
G04 APERTURE END LIST*
D10*
G36*
X22764910Y-17591202D02*
G01*
X22789135Y-17594795D01*
X22812891Y-17600746D01*
X22835949Y-17608996D01*
X22858087Y-17619467D01*
X22879093Y-17632057D01*
X22898763Y-17646645D01*
X22916908Y-17663092D01*
X22933355Y-17681237D01*
X22947943Y-17700907D01*
X22960533Y-17721913D01*
X22971004Y-17744051D01*
X22979254Y-17767109D01*
X22985205Y-17790865D01*
X22988798Y-17815090D01*
X22990000Y-17839550D01*
X22990000Y-18490450D01*
X22988798Y-18514910D01*
X22985205Y-18539135D01*
X22979254Y-18562891D01*
X22971004Y-18585949D01*
X22960533Y-18608087D01*
X22947943Y-18629093D01*
X22933355Y-18648763D01*
X22916908Y-18666908D01*
X22898763Y-18683355D01*
X22879093Y-18697943D01*
X22858087Y-18710533D01*
X22835949Y-18721004D01*
X22812891Y-18729254D01*
X22789135Y-18735205D01*
X22764910Y-18738798D01*
X22740450Y-18740000D01*
X21839550Y-18740000D01*
X21815090Y-18738798D01*
X21790865Y-18735205D01*
X21767109Y-18729254D01*
X21744051Y-18721004D01*
X21721913Y-18710533D01*
X21700907Y-18697943D01*
X21681237Y-18683355D01*
X21663092Y-18666908D01*
X21646645Y-18648763D01*
X21632057Y-18629093D01*
X21619467Y-18608087D01*
X21608996Y-18585949D01*
X21600746Y-18562891D01*
X21594795Y-18539135D01*
X21591202Y-18514910D01*
X21590000Y-18490450D01*
X21590000Y-17839550D01*
X21591202Y-17815090D01*
X21594795Y-17790865D01*
X21600746Y-17767109D01*
X21608996Y-17744051D01*
X21619467Y-17721913D01*
X21632057Y-17700907D01*
X21646645Y-17681237D01*
X21663092Y-17663092D01*
X21681237Y-17646645D01*
X21700907Y-17632057D01*
X21721913Y-17619467D01*
X21744051Y-17608996D01*
X21767109Y-17600746D01*
X21790865Y-17594795D01*
X21815090Y-17591202D01*
X21839550Y-17590000D01*
X22740450Y-17590000D01*
X22764910Y-17591202D01*
X22764910Y-17591202D01*
G37*
D11*
X22290000Y-18165000D03*
D10*
G36*
X22764910Y-19641202D02*
G01*
X22789135Y-19644795D01*
X22812891Y-19650746D01*
X22835949Y-19658996D01*
X22858087Y-19669467D01*
X22879093Y-19682057D01*
X22898763Y-19696645D01*
X22916908Y-19713092D01*
X22933355Y-19731237D01*
X22947943Y-19750907D01*
X22960533Y-19771913D01*
X22971004Y-19794051D01*
X22979254Y-19817109D01*
X22985205Y-19840865D01*
X22988798Y-19865090D01*
X22990000Y-19889550D01*
X22990000Y-20540450D01*
X22988798Y-20564910D01*
X22985205Y-20589135D01*
X22979254Y-20612891D01*
X22971004Y-20635949D01*
X22960533Y-20658087D01*
X22947943Y-20679093D01*
X22933355Y-20698763D01*
X22916908Y-20716908D01*
X22898763Y-20733355D01*
X22879093Y-20747943D01*
X22858087Y-20760533D01*
X22835949Y-20771004D01*
X22812891Y-20779254D01*
X22789135Y-20785205D01*
X22764910Y-20788798D01*
X22740450Y-20790000D01*
X21839550Y-20790000D01*
X21815090Y-20788798D01*
X21790865Y-20785205D01*
X21767109Y-20779254D01*
X21744051Y-20771004D01*
X21721913Y-20760533D01*
X21700907Y-20747943D01*
X21681237Y-20733355D01*
X21663092Y-20716908D01*
X21646645Y-20698763D01*
X21632057Y-20679093D01*
X21619467Y-20658087D01*
X21608996Y-20635949D01*
X21600746Y-20612891D01*
X21594795Y-20589135D01*
X21591202Y-20564910D01*
X21590000Y-20540450D01*
X21590000Y-19889550D01*
X21591202Y-19865090D01*
X21594795Y-19840865D01*
X21600746Y-19817109D01*
X21608996Y-19794051D01*
X21619467Y-19771913D01*
X21632057Y-19750907D01*
X21646645Y-19731237D01*
X21663092Y-19713092D01*
X21681237Y-19696645D01*
X21700907Y-19682057D01*
X21721913Y-19669467D01*
X21744051Y-19658996D01*
X21767109Y-19650746D01*
X21790865Y-19644795D01*
X21815090Y-19641202D01*
X21839550Y-19640000D01*
X22740450Y-19640000D01*
X22764910Y-19641202D01*
X22764910Y-19641202D01*
G37*
D11*
X22290000Y-20215000D03*
D10*
G36*
X40304910Y-111641202D02*
G01*
X40329135Y-111644795D01*
X40352891Y-111650746D01*
X40375949Y-111658996D01*
X40398087Y-111669467D01*
X40419093Y-111682057D01*
X40438763Y-111696645D01*
X40456908Y-111713092D01*
X40473355Y-111731237D01*
X40487943Y-111750907D01*
X40500533Y-111771913D01*
X40511004Y-111794051D01*
X40519254Y-111817109D01*
X40525205Y-111840865D01*
X40528798Y-111865090D01*
X40530000Y-111889550D01*
X40530000Y-112790450D01*
X40528798Y-112814910D01*
X40525205Y-112839135D01*
X40519254Y-112862891D01*
X40511004Y-112885949D01*
X40500533Y-112908087D01*
X40487943Y-112929093D01*
X40473355Y-112948763D01*
X40456908Y-112966908D01*
X40438763Y-112983355D01*
X40419093Y-112997943D01*
X40398087Y-113010533D01*
X40375949Y-113021004D01*
X40352891Y-113029254D01*
X40329135Y-113035205D01*
X40304910Y-113038798D01*
X40280450Y-113040000D01*
X39629550Y-113040000D01*
X39605090Y-113038798D01*
X39580865Y-113035205D01*
X39557109Y-113029254D01*
X39534051Y-113021004D01*
X39511913Y-113010533D01*
X39490907Y-112997943D01*
X39471237Y-112983355D01*
X39453092Y-112966908D01*
X39436645Y-112948763D01*
X39422057Y-112929093D01*
X39409467Y-112908087D01*
X39398996Y-112885949D01*
X39390746Y-112862891D01*
X39384795Y-112839135D01*
X39381202Y-112814910D01*
X39380000Y-112790450D01*
X39380000Y-111889550D01*
X39381202Y-111865090D01*
X39384795Y-111840865D01*
X39390746Y-111817109D01*
X39398996Y-111794051D01*
X39409467Y-111771913D01*
X39422057Y-111750907D01*
X39436645Y-111731237D01*
X39453092Y-111713092D01*
X39471237Y-111696645D01*
X39490907Y-111682057D01*
X39511913Y-111669467D01*
X39534051Y-111658996D01*
X39557109Y-111650746D01*
X39580865Y-111644795D01*
X39605090Y-111641202D01*
X39629550Y-111640000D01*
X40280450Y-111640000D01*
X40304910Y-111641202D01*
X40304910Y-111641202D01*
G37*
D11*
X39955000Y-112340000D03*
D10*
G36*
X38254910Y-111641202D02*
G01*
X38279135Y-111644795D01*
X38302891Y-111650746D01*
X38325949Y-111658996D01*
X38348087Y-111669467D01*
X38369093Y-111682057D01*
X38388763Y-111696645D01*
X38406908Y-111713092D01*
X38423355Y-111731237D01*
X38437943Y-111750907D01*
X38450533Y-111771913D01*
X38461004Y-111794051D01*
X38469254Y-111817109D01*
X38475205Y-111840865D01*
X38478798Y-111865090D01*
X38480000Y-111889550D01*
X38480000Y-112790450D01*
X38478798Y-112814910D01*
X38475205Y-112839135D01*
X38469254Y-112862891D01*
X38461004Y-112885949D01*
X38450533Y-112908087D01*
X38437943Y-112929093D01*
X38423355Y-112948763D01*
X38406908Y-112966908D01*
X38388763Y-112983355D01*
X38369093Y-112997943D01*
X38348087Y-113010533D01*
X38325949Y-113021004D01*
X38302891Y-113029254D01*
X38279135Y-113035205D01*
X38254910Y-113038798D01*
X38230450Y-113040000D01*
X37579550Y-113040000D01*
X37555090Y-113038798D01*
X37530865Y-113035205D01*
X37507109Y-113029254D01*
X37484051Y-113021004D01*
X37461913Y-113010533D01*
X37440907Y-112997943D01*
X37421237Y-112983355D01*
X37403092Y-112966908D01*
X37386645Y-112948763D01*
X37372057Y-112929093D01*
X37359467Y-112908087D01*
X37348996Y-112885949D01*
X37340746Y-112862891D01*
X37334795Y-112839135D01*
X37331202Y-112814910D01*
X37330000Y-112790450D01*
X37330000Y-111889550D01*
X37331202Y-111865090D01*
X37334795Y-111840865D01*
X37340746Y-111817109D01*
X37348996Y-111794051D01*
X37359467Y-111771913D01*
X37372057Y-111750907D01*
X37386645Y-111731237D01*
X37403092Y-111713092D01*
X37421237Y-111696645D01*
X37440907Y-111682057D01*
X37461913Y-111669467D01*
X37484051Y-111658996D01*
X37507109Y-111650746D01*
X37530865Y-111644795D01*
X37555090Y-111641202D01*
X37579550Y-111640000D01*
X38230450Y-111640000D01*
X38254910Y-111641202D01*
X38254910Y-111641202D01*
G37*
D11*
X37905000Y-112340000D03*
D10*
G36*
X40374910Y-108231202D02*
G01*
X40399135Y-108234795D01*
X40422891Y-108240746D01*
X40445949Y-108248996D01*
X40468087Y-108259467D01*
X40489093Y-108272057D01*
X40508763Y-108286645D01*
X40526908Y-108303092D01*
X40543355Y-108321237D01*
X40557943Y-108340907D01*
X40570533Y-108361913D01*
X40581004Y-108384051D01*
X40589254Y-108407109D01*
X40595205Y-108430865D01*
X40598798Y-108455090D01*
X40600000Y-108479550D01*
X40600000Y-109380450D01*
X40598798Y-109404910D01*
X40595205Y-109429135D01*
X40589254Y-109452891D01*
X40581004Y-109475949D01*
X40570533Y-109498087D01*
X40557943Y-109519093D01*
X40543355Y-109538763D01*
X40526908Y-109556908D01*
X40508763Y-109573355D01*
X40489093Y-109587943D01*
X40468087Y-109600533D01*
X40445949Y-109611004D01*
X40422891Y-109619254D01*
X40399135Y-109625205D01*
X40374910Y-109628798D01*
X40350450Y-109630000D01*
X39699550Y-109630000D01*
X39675090Y-109628798D01*
X39650865Y-109625205D01*
X39627109Y-109619254D01*
X39604051Y-109611004D01*
X39581913Y-109600533D01*
X39560907Y-109587943D01*
X39541237Y-109573355D01*
X39523092Y-109556908D01*
X39506645Y-109538763D01*
X39492057Y-109519093D01*
X39479467Y-109498087D01*
X39468996Y-109475949D01*
X39460746Y-109452891D01*
X39454795Y-109429135D01*
X39451202Y-109404910D01*
X39450000Y-109380450D01*
X39450000Y-108479550D01*
X39451202Y-108455090D01*
X39454795Y-108430865D01*
X39460746Y-108407109D01*
X39468996Y-108384051D01*
X39479467Y-108361913D01*
X39492057Y-108340907D01*
X39506645Y-108321237D01*
X39523092Y-108303092D01*
X39541237Y-108286645D01*
X39560907Y-108272057D01*
X39581913Y-108259467D01*
X39604051Y-108248996D01*
X39627109Y-108240746D01*
X39650865Y-108234795D01*
X39675090Y-108231202D01*
X39699550Y-108230000D01*
X40350450Y-108230000D01*
X40374910Y-108231202D01*
X40374910Y-108231202D01*
G37*
D11*
X40025000Y-108930000D03*
D10*
G36*
X38324910Y-108231202D02*
G01*
X38349135Y-108234795D01*
X38372891Y-108240746D01*
X38395949Y-108248996D01*
X38418087Y-108259467D01*
X38439093Y-108272057D01*
X38458763Y-108286645D01*
X38476908Y-108303092D01*
X38493355Y-108321237D01*
X38507943Y-108340907D01*
X38520533Y-108361913D01*
X38531004Y-108384051D01*
X38539254Y-108407109D01*
X38545205Y-108430865D01*
X38548798Y-108455090D01*
X38550000Y-108479550D01*
X38550000Y-109380450D01*
X38548798Y-109404910D01*
X38545205Y-109429135D01*
X38539254Y-109452891D01*
X38531004Y-109475949D01*
X38520533Y-109498087D01*
X38507943Y-109519093D01*
X38493355Y-109538763D01*
X38476908Y-109556908D01*
X38458763Y-109573355D01*
X38439093Y-109587943D01*
X38418087Y-109600533D01*
X38395949Y-109611004D01*
X38372891Y-109619254D01*
X38349135Y-109625205D01*
X38324910Y-109628798D01*
X38300450Y-109630000D01*
X37649550Y-109630000D01*
X37625090Y-109628798D01*
X37600865Y-109625205D01*
X37577109Y-109619254D01*
X37554051Y-109611004D01*
X37531913Y-109600533D01*
X37510907Y-109587943D01*
X37491237Y-109573355D01*
X37473092Y-109556908D01*
X37456645Y-109538763D01*
X37442057Y-109519093D01*
X37429467Y-109498087D01*
X37418996Y-109475949D01*
X37410746Y-109452891D01*
X37404795Y-109429135D01*
X37401202Y-109404910D01*
X37400000Y-109380450D01*
X37400000Y-108479550D01*
X37401202Y-108455090D01*
X37404795Y-108430865D01*
X37410746Y-108407109D01*
X37418996Y-108384051D01*
X37429467Y-108361913D01*
X37442057Y-108340907D01*
X37456645Y-108321237D01*
X37473092Y-108303092D01*
X37491237Y-108286645D01*
X37510907Y-108272057D01*
X37531913Y-108259467D01*
X37554051Y-108248996D01*
X37577109Y-108240746D01*
X37600865Y-108234795D01*
X37625090Y-108231202D01*
X37649550Y-108230000D01*
X38300450Y-108230000D01*
X38324910Y-108231202D01*
X38324910Y-108231202D01*
G37*
D11*
X37975000Y-108930000D03*
D10*
G36*
X30674910Y-52931202D02*
G01*
X30699135Y-52934795D01*
X30722891Y-52940746D01*
X30745949Y-52948996D01*
X30768087Y-52959467D01*
X30789093Y-52972057D01*
X30808763Y-52986645D01*
X30826908Y-53003092D01*
X30843355Y-53021237D01*
X30857943Y-53040907D01*
X30870533Y-53061913D01*
X30881004Y-53084051D01*
X30889254Y-53107109D01*
X30895205Y-53130865D01*
X30898798Y-53155090D01*
X30900000Y-53179550D01*
X30900000Y-53830450D01*
X30898798Y-53854910D01*
X30895205Y-53879135D01*
X30889254Y-53902891D01*
X30881004Y-53925949D01*
X30870533Y-53948087D01*
X30857943Y-53969093D01*
X30843355Y-53988763D01*
X30826908Y-54006908D01*
X30808763Y-54023355D01*
X30789093Y-54037943D01*
X30768087Y-54050533D01*
X30745949Y-54061004D01*
X30722891Y-54069254D01*
X30699135Y-54075205D01*
X30674910Y-54078798D01*
X30650450Y-54080000D01*
X29749550Y-54080000D01*
X29725090Y-54078798D01*
X29700865Y-54075205D01*
X29677109Y-54069254D01*
X29654051Y-54061004D01*
X29631913Y-54050533D01*
X29610907Y-54037943D01*
X29591237Y-54023355D01*
X29573092Y-54006908D01*
X29556645Y-53988763D01*
X29542057Y-53969093D01*
X29529467Y-53948087D01*
X29518996Y-53925949D01*
X29510746Y-53902891D01*
X29504795Y-53879135D01*
X29501202Y-53854910D01*
X29500000Y-53830450D01*
X29500000Y-53179550D01*
X29501202Y-53155090D01*
X29504795Y-53130865D01*
X29510746Y-53107109D01*
X29518996Y-53084051D01*
X29529467Y-53061913D01*
X29542057Y-53040907D01*
X29556645Y-53021237D01*
X29573092Y-53003092D01*
X29591237Y-52986645D01*
X29610907Y-52972057D01*
X29631913Y-52959467D01*
X29654051Y-52948996D01*
X29677109Y-52940746D01*
X29700865Y-52934795D01*
X29725090Y-52931202D01*
X29749550Y-52930000D01*
X30650450Y-52930000D01*
X30674910Y-52931202D01*
X30674910Y-52931202D01*
G37*
D11*
X30200000Y-53505000D03*
D10*
G36*
X30674910Y-50881202D02*
G01*
X30699135Y-50884795D01*
X30722891Y-50890746D01*
X30745949Y-50898996D01*
X30768087Y-50909467D01*
X30789093Y-50922057D01*
X30808763Y-50936645D01*
X30826908Y-50953092D01*
X30843355Y-50971237D01*
X30857943Y-50990907D01*
X30870533Y-51011913D01*
X30881004Y-51034051D01*
X30889254Y-51057109D01*
X30895205Y-51080865D01*
X30898798Y-51105090D01*
X30900000Y-51129550D01*
X30900000Y-51780450D01*
X30898798Y-51804910D01*
X30895205Y-51829135D01*
X30889254Y-51852891D01*
X30881004Y-51875949D01*
X30870533Y-51898087D01*
X30857943Y-51919093D01*
X30843355Y-51938763D01*
X30826908Y-51956908D01*
X30808763Y-51973355D01*
X30789093Y-51987943D01*
X30768087Y-52000533D01*
X30745949Y-52011004D01*
X30722891Y-52019254D01*
X30699135Y-52025205D01*
X30674910Y-52028798D01*
X30650450Y-52030000D01*
X29749550Y-52030000D01*
X29725090Y-52028798D01*
X29700865Y-52025205D01*
X29677109Y-52019254D01*
X29654051Y-52011004D01*
X29631913Y-52000533D01*
X29610907Y-51987943D01*
X29591237Y-51973355D01*
X29573092Y-51956908D01*
X29556645Y-51938763D01*
X29542057Y-51919093D01*
X29529467Y-51898087D01*
X29518996Y-51875949D01*
X29510746Y-51852891D01*
X29504795Y-51829135D01*
X29501202Y-51804910D01*
X29500000Y-51780450D01*
X29500000Y-51129550D01*
X29501202Y-51105090D01*
X29504795Y-51080865D01*
X29510746Y-51057109D01*
X29518996Y-51034051D01*
X29529467Y-51011913D01*
X29542057Y-50990907D01*
X29556645Y-50971237D01*
X29573092Y-50953092D01*
X29591237Y-50936645D01*
X29610907Y-50922057D01*
X29631913Y-50909467D01*
X29654051Y-50898996D01*
X29677109Y-50890746D01*
X29700865Y-50884795D01*
X29725090Y-50881202D01*
X29749550Y-50880000D01*
X30650450Y-50880000D01*
X30674910Y-50881202D01*
X30674910Y-50881202D01*
G37*
D11*
X30200000Y-51455000D03*
D10*
G36*
X27224910Y-52911202D02*
G01*
X27249135Y-52914795D01*
X27272891Y-52920746D01*
X27295949Y-52928996D01*
X27318087Y-52939467D01*
X27339093Y-52952057D01*
X27358763Y-52966645D01*
X27376908Y-52983092D01*
X27393355Y-53001237D01*
X27407943Y-53020907D01*
X27420533Y-53041913D01*
X27431004Y-53064051D01*
X27439254Y-53087109D01*
X27445205Y-53110865D01*
X27448798Y-53135090D01*
X27450000Y-53159550D01*
X27450000Y-53810450D01*
X27448798Y-53834910D01*
X27445205Y-53859135D01*
X27439254Y-53882891D01*
X27431004Y-53905949D01*
X27420533Y-53928087D01*
X27407943Y-53949093D01*
X27393355Y-53968763D01*
X27376908Y-53986908D01*
X27358763Y-54003355D01*
X27339093Y-54017943D01*
X27318087Y-54030533D01*
X27295949Y-54041004D01*
X27272891Y-54049254D01*
X27249135Y-54055205D01*
X27224910Y-54058798D01*
X27200450Y-54060000D01*
X26299550Y-54060000D01*
X26275090Y-54058798D01*
X26250865Y-54055205D01*
X26227109Y-54049254D01*
X26204051Y-54041004D01*
X26181913Y-54030533D01*
X26160907Y-54017943D01*
X26141237Y-54003355D01*
X26123092Y-53986908D01*
X26106645Y-53968763D01*
X26092057Y-53949093D01*
X26079467Y-53928087D01*
X26068996Y-53905949D01*
X26060746Y-53882891D01*
X26054795Y-53859135D01*
X26051202Y-53834910D01*
X26050000Y-53810450D01*
X26050000Y-53159550D01*
X26051202Y-53135090D01*
X26054795Y-53110865D01*
X26060746Y-53087109D01*
X26068996Y-53064051D01*
X26079467Y-53041913D01*
X26092057Y-53020907D01*
X26106645Y-53001237D01*
X26123092Y-52983092D01*
X26141237Y-52966645D01*
X26160907Y-52952057D01*
X26181913Y-52939467D01*
X26204051Y-52928996D01*
X26227109Y-52920746D01*
X26250865Y-52914795D01*
X26275090Y-52911202D01*
X26299550Y-52910000D01*
X27200450Y-52910000D01*
X27224910Y-52911202D01*
X27224910Y-52911202D01*
G37*
D11*
X26750000Y-53485000D03*
D10*
G36*
X27224910Y-50861202D02*
G01*
X27249135Y-50864795D01*
X27272891Y-50870746D01*
X27295949Y-50878996D01*
X27318087Y-50889467D01*
X27339093Y-50902057D01*
X27358763Y-50916645D01*
X27376908Y-50933092D01*
X27393355Y-50951237D01*
X27407943Y-50970907D01*
X27420533Y-50991913D01*
X27431004Y-51014051D01*
X27439254Y-51037109D01*
X27445205Y-51060865D01*
X27448798Y-51085090D01*
X27450000Y-51109550D01*
X27450000Y-51760450D01*
X27448798Y-51784910D01*
X27445205Y-51809135D01*
X27439254Y-51832891D01*
X27431004Y-51855949D01*
X27420533Y-51878087D01*
X27407943Y-51899093D01*
X27393355Y-51918763D01*
X27376908Y-51936908D01*
X27358763Y-51953355D01*
X27339093Y-51967943D01*
X27318087Y-51980533D01*
X27295949Y-51991004D01*
X27272891Y-51999254D01*
X27249135Y-52005205D01*
X27224910Y-52008798D01*
X27200450Y-52010000D01*
X26299550Y-52010000D01*
X26275090Y-52008798D01*
X26250865Y-52005205D01*
X26227109Y-51999254D01*
X26204051Y-51991004D01*
X26181913Y-51980533D01*
X26160907Y-51967943D01*
X26141237Y-51953355D01*
X26123092Y-51936908D01*
X26106645Y-51918763D01*
X26092057Y-51899093D01*
X26079467Y-51878087D01*
X26068996Y-51855949D01*
X26060746Y-51832891D01*
X26054795Y-51809135D01*
X26051202Y-51784910D01*
X26050000Y-51760450D01*
X26050000Y-51109550D01*
X26051202Y-51085090D01*
X26054795Y-51060865D01*
X26060746Y-51037109D01*
X26068996Y-51014051D01*
X26079467Y-50991913D01*
X26092057Y-50970907D01*
X26106645Y-50951237D01*
X26123092Y-50933092D01*
X26141237Y-50916645D01*
X26160907Y-50902057D01*
X26181913Y-50889467D01*
X26204051Y-50878996D01*
X26227109Y-50870746D01*
X26250865Y-50864795D01*
X26275090Y-50861202D01*
X26299550Y-50860000D01*
X27200450Y-50860000D01*
X27224910Y-50861202D01*
X27224910Y-50861202D01*
G37*
D11*
X26750000Y-51435000D03*
D10*
G36*
X30484910Y-71111202D02*
G01*
X30509135Y-71114795D01*
X30532891Y-71120746D01*
X30555949Y-71128996D01*
X30578087Y-71139467D01*
X30599093Y-71152057D01*
X30618763Y-71166645D01*
X30636908Y-71183092D01*
X30653355Y-71201237D01*
X30667943Y-71220907D01*
X30680533Y-71241913D01*
X30691004Y-71264051D01*
X30699254Y-71287109D01*
X30705205Y-71310865D01*
X30708798Y-71335090D01*
X30710000Y-71359550D01*
X30710000Y-72010450D01*
X30708798Y-72034910D01*
X30705205Y-72059135D01*
X30699254Y-72082891D01*
X30691004Y-72105949D01*
X30680533Y-72128087D01*
X30667943Y-72149093D01*
X30653355Y-72168763D01*
X30636908Y-72186908D01*
X30618763Y-72203355D01*
X30599093Y-72217943D01*
X30578087Y-72230533D01*
X30555949Y-72241004D01*
X30532891Y-72249254D01*
X30509135Y-72255205D01*
X30484910Y-72258798D01*
X30460450Y-72260000D01*
X29559550Y-72260000D01*
X29535090Y-72258798D01*
X29510865Y-72255205D01*
X29487109Y-72249254D01*
X29464051Y-72241004D01*
X29441913Y-72230533D01*
X29420907Y-72217943D01*
X29401237Y-72203355D01*
X29383092Y-72186908D01*
X29366645Y-72168763D01*
X29352057Y-72149093D01*
X29339467Y-72128087D01*
X29328996Y-72105949D01*
X29320746Y-72082891D01*
X29314795Y-72059135D01*
X29311202Y-72034910D01*
X29310000Y-72010450D01*
X29310000Y-71359550D01*
X29311202Y-71335090D01*
X29314795Y-71310865D01*
X29320746Y-71287109D01*
X29328996Y-71264051D01*
X29339467Y-71241913D01*
X29352057Y-71220907D01*
X29366645Y-71201237D01*
X29383092Y-71183092D01*
X29401237Y-71166645D01*
X29420907Y-71152057D01*
X29441913Y-71139467D01*
X29464051Y-71128996D01*
X29487109Y-71120746D01*
X29510865Y-71114795D01*
X29535090Y-71111202D01*
X29559550Y-71110000D01*
X30460450Y-71110000D01*
X30484910Y-71111202D01*
X30484910Y-71111202D01*
G37*
D11*
X30010000Y-71685000D03*
D10*
G36*
X30484910Y-73161202D02*
G01*
X30509135Y-73164795D01*
X30532891Y-73170746D01*
X30555949Y-73178996D01*
X30578087Y-73189467D01*
X30599093Y-73202057D01*
X30618763Y-73216645D01*
X30636908Y-73233092D01*
X30653355Y-73251237D01*
X30667943Y-73270907D01*
X30680533Y-73291913D01*
X30691004Y-73314051D01*
X30699254Y-73337109D01*
X30705205Y-73360865D01*
X30708798Y-73385090D01*
X30710000Y-73409550D01*
X30710000Y-74060450D01*
X30708798Y-74084910D01*
X30705205Y-74109135D01*
X30699254Y-74132891D01*
X30691004Y-74155949D01*
X30680533Y-74178087D01*
X30667943Y-74199093D01*
X30653355Y-74218763D01*
X30636908Y-74236908D01*
X30618763Y-74253355D01*
X30599093Y-74267943D01*
X30578087Y-74280533D01*
X30555949Y-74291004D01*
X30532891Y-74299254D01*
X30509135Y-74305205D01*
X30484910Y-74308798D01*
X30460450Y-74310000D01*
X29559550Y-74310000D01*
X29535090Y-74308798D01*
X29510865Y-74305205D01*
X29487109Y-74299254D01*
X29464051Y-74291004D01*
X29441913Y-74280533D01*
X29420907Y-74267943D01*
X29401237Y-74253355D01*
X29383092Y-74236908D01*
X29366645Y-74218763D01*
X29352057Y-74199093D01*
X29339467Y-74178087D01*
X29328996Y-74155949D01*
X29320746Y-74132891D01*
X29314795Y-74109135D01*
X29311202Y-74084910D01*
X29310000Y-74060450D01*
X29310000Y-73409550D01*
X29311202Y-73385090D01*
X29314795Y-73360865D01*
X29320746Y-73337109D01*
X29328996Y-73314051D01*
X29339467Y-73291913D01*
X29352057Y-73270907D01*
X29366645Y-73251237D01*
X29383092Y-73233092D01*
X29401237Y-73216645D01*
X29420907Y-73202057D01*
X29441913Y-73189467D01*
X29464051Y-73178996D01*
X29487109Y-73170746D01*
X29510865Y-73164795D01*
X29535090Y-73161202D01*
X29559550Y-73160000D01*
X30460450Y-73160000D01*
X30484910Y-73161202D01*
X30484910Y-73161202D01*
G37*
D11*
X30010000Y-73735000D03*
D10*
G36*
X38825029Y-77616797D02*
G01*
X38849387Y-77619330D01*
X38873380Y-77624239D01*
X38896776Y-77631476D01*
X39508422Y-77854097D01*
X39530996Y-77863592D01*
X39552531Y-77875254D01*
X39572819Y-77888970D01*
X39591665Y-77904609D01*
X39608887Y-77922020D01*
X39624319Y-77941036D01*
X39637814Y-77961472D01*
X39649240Y-77983133D01*
X39658488Y-78005809D01*
X39665469Y-78029283D01*
X39670116Y-78053327D01*
X39672383Y-78077712D01*
X39672250Y-78102201D01*
X39669717Y-78126559D01*
X39664808Y-78150552D01*
X39657571Y-78173948D01*
X39349445Y-79020517D01*
X39339950Y-79043091D01*
X39328288Y-79064626D01*
X39314572Y-79084914D01*
X39298933Y-79103760D01*
X39281522Y-79120982D01*
X39262506Y-79136414D01*
X39242070Y-79149909D01*
X39220409Y-79161335D01*
X39197733Y-79170583D01*
X39174259Y-79177564D01*
X39150215Y-79182211D01*
X39125830Y-79184478D01*
X39101341Y-79184345D01*
X39076983Y-79181812D01*
X39052990Y-79176903D01*
X39029594Y-79169666D01*
X38417948Y-78947045D01*
X38395374Y-78937550D01*
X38373839Y-78925888D01*
X38353551Y-78912172D01*
X38334705Y-78896533D01*
X38317483Y-78879122D01*
X38302051Y-78860106D01*
X38288556Y-78839670D01*
X38277130Y-78818009D01*
X38267882Y-78795333D01*
X38260901Y-78771859D01*
X38256254Y-78747815D01*
X38253987Y-78723430D01*
X38254120Y-78698941D01*
X38256653Y-78674583D01*
X38261562Y-78650590D01*
X38268799Y-78627194D01*
X38576925Y-77780625D01*
X38586420Y-77758051D01*
X38598082Y-77736516D01*
X38611798Y-77716228D01*
X38627437Y-77697382D01*
X38644848Y-77680160D01*
X38663864Y-77664728D01*
X38684300Y-77651233D01*
X38705961Y-77639807D01*
X38728637Y-77630559D01*
X38752111Y-77623578D01*
X38776155Y-77618931D01*
X38800540Y-77616664D01*
X38825029Y-77616797D01*
X38825029Y-77616797D01*
G37*
D11*
X38963185Y-78400571D03*
D10*
G36*
X36898659Y-76915655D02*
G01*
X36923017Y-76918188D01*
X36947010Y-76923097D01*
X36970406Y-76930334D01*
X37582052Y-77152955D01*
X37604626Y-77162450D01*
X37626161Y-77174112D01*
X37646449Y-77187828D01*
X37665295Y-77203467D01*
X37682517Y-77220878D01*
X37697949Y-77239894D01*
X37711444Y-77260330D01*
X37722870Y-77281991D01*
X37732118Y-77304667D01*
X37739099Y-77328141D01*
X37743746Y-77352185D01*
X37746013Y-77376570D01*
X37745880Y-77401059D01*
X37743347Y-77425417D01*
X37738438Y-77449410D01*
X37731201Y-77472806D01*
X37423075Y-78319375D01*
X37413580Y-78341949D01*
X37401918Y-78363484D01*
X37388202Y-78383772D01*
X37372563Y-78402618D01*
X37355152Y-78419840D01*
X37336136Y-78435272D01*
X37315700Y-78448767D01*
X37294039Y-78460193D01*
X37271363Y-78469441D01*
X37247889Y-78476422D01*
X37223845Y-78481069D01*
X37199460Y-78483336D01*
X37174971Y-78483203D01*
X37150613Y-78480670D01*
X37126620Y-78475761D01*
X37103224Y-78468524D01*
X36491578Y-78245903D01*
X36469004Y-78236408D01*
X36447469Y-78224746D01*
X36427181Y-78211030D01*
X36408335Y-78195391D01*
X36391113Y-78177980D01*
X36375681Y-78158964D01*
X36362186Y-78138528D01*
X36350760Y-78116867D01*
X36341512Y-78094191D01*
X36334531Y-78070717D01*
X36329884Y-78046673D01*
X36327617Y-78022288D01*
X36327750Y-77997799D01*
X36330283Y-77973441D01*
X36335192Y-77949448D01*
X36342429Y-77926052D01*
X36650555Y-77079483D01*
X36660050Y-77056909D01*
X36671712Y-77035374D01*
X36685428Y-77015086D01*
X36701067Y-76996240D01*
X36718478Y-76979018D01*
X36737494Y-76963586D01*
X36757930Y-76950091D01*
X36779591Y-76938665D01*
X36802267Y-76929417D01*
X36825741Y-76922436D01*
X36849785Y-76917789D01*
X36874170Y-76915522D01*
X36898659Y-76915655D01*
X36898659Y-76915655D01*
G37*
D11*
X37036815Y-77699429D03*
D12*
X34960000Y-66660000D03*
X27340000Y-81900000D03*
X34960000Y-69200000D03*
X27340000Y-79360000D03*
X34960000Y-71740000D03*
X27340000Y-76820000D03*
X34960000Y-74280000D03*
X27340000Y-74280000D03*
X34960000Y-76820000D03*
X27340000Y-71740000D03*
X34960000Y-79360000D03*
X27340000Y-69200000D03*
X34960000Y-81900000D03*
D13*
X27340000Y-66660000D03*
D14*
X39890000Y-99179999D03*
D15*
X39890000Y-104259999D03*
X39890000Y-101719999D03*
D14*
X44724998Y-99185001D03*
D15*
X44724998Y-104265001D03*
X44724998Y-101725001D03*
D14*
X20470000Y-71060000D03*
D15*
X20470000Y-65980000D03*
X20470000Y-68520000D03*
D14*
X50300000Y-77920000D03*
D15*
X45220000Y-77920000D03*
X47760000Y-77920000D03*
D16*
X54690000Y-46010000D03*
D13*
X52190000Y-46010000D03*
D16*
X37355063Y-42020859D03*
X36500013Y-39671627D03*
D10*
G36*
X35474643Y-39193489D02*
G01*
X36978151Y-38646257D01*
X37525383Y-40149765D01*
X36021875Y-40696997D01*
X35474643Y-39193489D01*
X35474643Y-39193489D01*
G37*
D13*
X57930000Y-84020000D03*
D16*
X60430000Y-84020000D03*
X17010000Y-26140000D03*
X17010000Y-31140000D03*
D13*
X59180000Y-47300000D03*
D16*
X59180000Y-44800000D03*
X50404936Y-14310000D03*
X52570000Y-15560000D03*
D10*
G36*
X53662820Y-15267180D02*
G01*
X52862820Y-16652820D01*
X51477180Y-15852820D01*
X52277180Y-14467180D01*
X53662820Y-15267180D01*
X53662820Y-15267180D01*
G37*
D16*
X13930000Y-31140000D03*
X13930000Y-26140000D03*
D13*
X15740000Y-20120000D03*
D16*
X15740000Y-22620000D03*
X30880000Y-14490000D03*
X30880000Y-19490000D03*
X30890000Y-22060000D03*
X30890000Y-27060000D03*
X30640000Y-30120000D03*
X35640000Y-30120000D03*
X30900000Y-32970000D03*
X30900000Y-37970000D03*
X47900000Y-30010000D03*
X47900000Y-25010000D03*
X42440000Y-18770000D03*
D10*
G36*
X42538605Y-17642934D02*
G01*
X43567066Y-18868605D01*
X42341395Y-19897066D01*
X41312934Y-18671395D01*
X42538605Y-17642934D01*
X42538605Y-17642934D01*
G37*
D16*
X40524889Y-20376969D03*
X39343031Y-32525111D03*
X40950000Y-30610000D03*
D10*
G36*
X40851395Y-29482934D02*
G01*
X42077066Y-30511395D01*
X41048605Y-31737066D01*
X39822934Y-30708605D01*
X40851395Y-29482934D01*
X40851395Y-29482934D01*
G37*
D16*
X52470000Y-105650000D03*
X49970000Y-101319873D03*
D13*
X30670000Y-98700000D03*
D16*
X33170000Y-98700000D03*
X58410000Y-15020000D03*
D13*
X55910000Y-15020000D03*
X59120000Y-108400000D03*
D16*
X59120000Y-105900000D03*
X42930000Y-120790000D03*
X47930000Y-120790000D03*
X54880000Y-121060000D03*
D13*
X52380000Y-121060000D03*
X47250000Y-60090000D03*
D16*
X49750000Y-60090000D03*
X47220000Y-69310000D03*
D13*
X49720000Y-69310000D03*
D17*
X45375571Y-50513706D03*
D18*
X45375571Y-50513706D02*
X45375571Y-50513706D01*
D17*
X43638109Y-45740067D03*
D10*
G36*
X42356396Y-45142395D02*
G01*
X44235781Y-44458354D01*
X44919822Y-46337739D01*
X43040437Y-47021780D01*
X42356396Y-45142395D01*
X42356396Y-45142395D01*
G37*
D19*
X55590000Y-79540000D03*
D20*
X60670000Y-79540000D03*
X38080000Y-66720000D03*
D19*
X38080000Y-71800000D03*
X24150000Y-71260000D03*
D20*
X24150000Y-66180000D03*
D21*
X36266576Y-36106461D03*
X54880000Y-85810000D03*
X45240000Y-95980000D03*
X48830000Y-95430000D03*
X49950000Y-19400000D03*
X37360000Y-85340000D03*
X37360000Y-88910000D03*
X24060000Y-117000000D03*
X27640000Y-116970000D03*
D22*
X55640000Y-69650000D03*
D23*
X58180000Y-69650000D03*
X55640000Y-67110000D03*
X58180000Y-67110000D03*
X55640000Y-64570000D03*
X58180000Y-64570000D03*
X55640000Y-62030000D03*
X58180000Y-62030000D03*
X55640000Y-59490000D03*
X58180000Y-59490000D03*
D21*
X46280000Y-54930000D03*
D10*
G36*
X44832301Y-55943690D02*
G01*
X45266310Y-53482301D01*
X47727699Y-53916310D01*
X47293690Y-56377699D01*
X44832301Y-55943690D01*
X44832301Y-55943690D01*
G37*
D21*
X50032118Y-55591600D03*
X50320000Y-64710000D03*
D24*
X46510000Y-64710000D03*
X46460000Y-74010000D03*
D21*
X50270000Y-74010000D03*
X58250000Y-122130000D03*
X60110000Y-19380000D03*
X59080000Y-117970000D03*
D16*
X49157280Y-51606167D03*
X46551087Y-44445709D03*
D25*
X46551087Y-44445709D02*
X46551087Y-44445709D01*
D12*
X60870000Y-76410000D03*
D16*
X53250000Y-76410000D03*
X48590000Y-92530000D03*
D12*
X48590000Y-84910000D03*
X45495892Y-85473233D03*
D16*
X45495892Y-93093233D03*
X47410000Y-14070000D03*
D12*
X39790000Y-14070000D03*
D16*
X42380000Y-93090000D03*
D12*
X42380000Y-85470000D03*
D16*
X52800000Y-82240000D03*
D12*
X45180000Y-82240000D03*
D16*
X18440000Y-53460000D03*
D12*
X18440000Y-45840000D03*
X21510000Y-53450000D03*
D16*
X21510000Y-45830000D03*
X33980000Y-13630000D03*
D12*
X33980000Y-21250000D03*
X33550000Y-23940000D03*
D16*
X41170000Y-23940000D03*
X33530000Y-27020000D03*
D12*
X41150000Y-27020000D03*
D16*
X21510000Y-63270000D03*
D12*
X21510000Y-55650000D03*
D16*
X47056193Y-17249542D03*
D25*
X47056193Y-17249542D02*
X47056193Y-17249542D01*
D16*
X44450000Y-24410000D03*
D12*
X37110000Y-13620000D03*
D16*
X37110000Y-21240000D03*
D12*
X24180000Y-63270000D03*
D16*
X31800000Y-63270000D03*
X34490000Y-88180000D03*
D12*
X26870000Y-88180000D03*
X26870000Y-85100000D03*
D16*
X34490000Y-85100000D03*
D12*
X18440000Y-63280000D03*
D16*
X18440000Y-55660000D03*
D12*
X24210000Y-85400000D03*
D16*
X24210000Y-77780000D03*
X42840000Y-64760000D03*
D12*
X42840000Y-57140000D03*
D16*
X35420000Y-45860000D03*
D12*
X35420000Y-53480000D03*
X21090000Y-77820000D03*
D16*
X21090000Y-85440000D03*
X27880000Y-106470000D03*
D12*
X27880000Y-114090000D03*
X21630000Y-114120000D03*
D16*
X21630000Y-106500000D03*
D12*
X24740000Y-114080000D03*
D16*
X24740000Y-106460000D03*
D12*
X40330000Y-120950000D03*
D16*
X32710000Y-120950000D03*
D12*
X33680000Y-103780000D03*
D16*
X26060000Y-103780000D03*
X42850000Y-74570000D03*
D12*
X42850000Y-66950000D03*
X35440000Y-55650000D03*
D16*
X35440000Y-63270000D03*
X51940000Y-97920886D03*
D25*
X51940000Y-97920886D02*
X51940000Y-97920886D01*
D16*
X55750000Y-104520000D03*
D12*
X15350000Y-63290000D03*
D16*
X15350000Y-55670000D03*
X36320000Y-104230000D03*
D12*
X36320000Y-96610000D03*
D16*
X59680000Y-88870000D03*
X52519542Y-91476193D03*
D25*
X52519542Y-91476193D02*
X52519542Y-91476193D01*
D16*
X41076193Y-83100458D03*
D25*
X41076193Y-83100458D02*
X41076193Y-83100458D01*
D16*
X38470000Y-75940000D03*
D12*
X49530000Y-107440000D03*
D16*
X49530000Y-115060000D03*
X52180000Y-114640000D03*
D12*
X59800000Y-114640000D03*
D16*
X40550000Y-117710000D03*
D12*
X32930000Y-117710000D03*
D16*
X59830000Y-111550000D03*
D12*
X52210000Y-111550000D03*
D16*
X42730000Y-117720000D03*
D12*
X50350000Y-117720000D03*
D26*
X53920000Y-52340000D03*
D27*
X56460000Y-52340000D03*
X59000000Y-52340000D03*
D12*
X27700000Y-16370000D03*
X20080000Y-34150000D03*
X27700000Y-18910000D03*
X20080000Y-31610000D03*
X27700000Y-21450000D03*
X20080000Y-29070000D03*
X27700000Y-23990000D03*
X20080000Y-26530000D03*
X27700000Y-26530000D03*
X20080000Y-23990000D03*
X27700000Y-29070000D03*
X20080000Y-21450000D03*
X27700000Y-31610000D03*
X20080000Y-18910000D03*
X27700000Y-34150000D03*
D13*
X20080000Y-16370000D03*
X31080000Y-114570000D03*
D12*
X46320000Y-106950000D03*
X33620000Y-114570000D03*
X43780000Y-106950000D03*
X36160000Y-114570000D03*
X41240000Y-106950000D03*
X38700000Y-114570000D03*
X38700000Y-106950000D03*
X41240000Y-114570000D03*
X36160000Y-106950000D03*
X43780000Y-114570000D03*
X33620000Y-106950000D03*
X46320000Y-114570000D03*
X31080000Y-106950000D03*
D13*
X24650000Y-42280000D03*
D12*
X32270000Y-60060000D03*
X24650000Y-44820000D03*
X32270000Y-57520000D03*
X24650000Y-47360000D03*
X32270000Y-54980000D03*
X24650000Y-49900000D03*
X32270000Y-52440000D03*
X24650000Y-52440000D03*
X32270000Y-49900000D03*
X24650000Y-54980000D03*
X32270000Y-47360000D03*
X24650000Y-57520000D03*
X32270000Y-44820000D03*
X24650000Y-60060000D03*
X32270000Y-42280000D03*
D28*
X21260000Y-60140000D03*
X28430000Y-37290000D03*
X29910000Y-46650000D03*
D29*
X24650000Y-49900000D02*
X22750000Y-50820000D01*
X22750000Y-50820000D02*
X21510000Y-53450000D01*
X21510000Y-53450000D02*
X21510000Y-55650000D01*
X49720000Y-69310000D02*
X50320000Y-64710000D01*
X50320000Y-64710000D02*
X46510000Y-64710000D01*
X37180000Y-54800000D02*
X35420000Y-53480000D01*
X50320000Y-64710000D02*
X49750000Y-60090000D01*
X55640000Y-62030000D02*
X55640000Y-64570000D01*
X55640000Y-64570000D02*
X55640000Y-67110000D01*
X55640000Y-67110000D02*
X58180000Y-67110000D01*
X58180000Y-67110000D02*
X58180000Y-64570000D01*
X58180000Y-64570000D02*
X58180000Y-62030000D01*
X55640000Y-62030000D02*
X58180000Y-62030000D01*
X58180000Y-64570000D02*
X55640000Y-64570000D01*
X55640000Y-64570000D02*
X50320000Y-64710000D01*
X56460000Y-52340000D02*
X54690000Y-46010000D01*
X54690000Y-46010000D02*
X59180000Y-44800000D01*
X35420000Y-53480000D02*
X34370000Y-51180000D01*
X58180000Y-62030000D02*
X60050000Y-60540000D01*
X60050000Y-60540000D02*
X60130000Y-58560000D01*
X60130000Y-58560000D02*
X59340000Y-56180000D01*
X59340000Y-56180000D02*
X56720000Y-55140000D01*
X56720000Y-55140000D02*
X56460000Y-52340000D01*
X57930000Y-84020000D02*
X55590000Y-79540000D01*
X55590000Y-79540000D02*
X52800000Y-82240000D01*
X55590000Y-79540000D02*
X56890000Y-74900000D01*
X56890000Y-74900000D02*
X59850000Y-71600000D01*
X59850000Y-71600000D02*
X60290000Y-68250000D01*
X60290000Y-68250000D02*
X58180000Y-67110000D01*
X45375571Y-50513706D02*
X41665063Y-53300859D01*
X37355063Y-42020859D02*
X34800000Y-43270000D01*
X34800000Y-43270000D02*
X33960000Y-44960000D01*
X33960000Y-44960000D02*
X33690000Y-45810000D01*
X33690000Y-45810000D02*
X33810000Y-46560000D01*
X33810000Y-46560000D02*
X34180000Y-47410000D01*
X34180000Y-47410000D02*
X34030000Y-48840000D01*
X33450474Y-50619526D02*
X32270000Y-49900000D01*
X34030000Y-48840000D02*
X33450474Y-50619526D01*
X34370000Y-51180000D02*
X33450474Y-50619526D01*
X36390000Y-100520000D02*
X39890000Y-101719999D01*
X39890000Y-101719999D02*
X41360000Y-102530000D01*
X41360000Y-102530000D02*
X41770000Y-103850000D01*
X41770000Y-103850000D02*
X41640000Y-104810000D01*
X41640000Y-104810000D02*
X41240000Y-106950000D01*
X36420000Y-108830000D02*
X36160000Y-106950000D01*
X36280000Y-112540000D02*
X36160000Y-114570000D01*
X36160000Y-114570000D02*
X35450000Y-116260000D01*
X35450000Y-116260000D02*
X32930000Y-117710000D01*
X49530000Y-107440000D02*
X48220000Y-109020000D01*
X48220000Y-109020000D02*
X43840000Y-109270000D01*
X42000000Y-108900000D02*
X41240000Y-106950000D01*
X41665063Y-53300859D02*
X37180000Y-54800000D01*
X52760000Y-42020000D02*
X51190000Y-36570000D01*
X51190000Y-36570000D02*
X47900000Y-30010000D01*
X52971908Y-42458092D02*
X49950000Y-44190000D01*
X54690000Y-46010000D02*
X52971908Y-42458092D01*
X52971908Y-42458092D02*
X52760000Y-42020000D01*
X49950000Y-44190000D02*
X48420000Y-47320000D01*
X48420000Y-47320000D02*
X45375571Y-50513706D01*
X46510000Y-64710000D02*
X44440000Y-66690000D01*
X52800000Y-82240000D02*
X48010000Y-83260000D01*
X48010000Y-83260000D02*
X46480000Y-83720000D01*
X46480000Y-83720000D02*
X45170000Y-83880000D01*
X45170000Y-83880000D02*
X44020000Y-83840000D01*
X44020000Y-83840000D02*
X42840000Y-83410000D01*
X42840000Y-83410000D02*
X41076193Y-83100458D01*
X44440000Y-66690000D02*
X42850000Y-66950000D01*
X36390000Y-100520000D02*
X33170000Y-98700000D01*
X15740000Y-22620000D02*
X17010000Y-26140000D01*
X17010000Y-26140000D02*
X13930000Y-26140000D01*
X34800000Y-43270000D02*
X33530000Y-40220000D01*
X33530000Y-40220000D02*
X31480000Y-40110000D01*
X31480000Y-40110000D02*
X28430000Y-39790000D01*
X28430000Y-39790000D02*
X26630000Y-38150000D01*
X26630000Y-38150000D02*
X25090000Y-36910000D01*
X25090000Y-36910000D02*
X24260000Y-32300000D01*
X24099415Y-28800585D02*
X22000530Y-25840530D01*
X24260000Y-32300000D02*
X24099415Y-28800585D01*
X33170000Y-98700000D02*
X32450000Y-95440000D01*
X32450000Y-95440000D02*
X25940000Y-91710000D01*
X25940000Y-91710000D02*
X22210000Y-88260000D01*
X22210000Y-88260000D02*
X21090000Y-85440000D01*
X41076193Y-83100458D02*
X40110000Y-85500000D01*
X40110000Y-85500000D02*
X39850000Y-88090000D01*
X39850000Y-88090000D02*
X39620000Y-89980000D01*
X39620000Y-89980000D02*
X36770000Y-93190000D01*
X36770000Y-93190000D02*
X32450000Y-95440000D01*
X17010000Y-26140000D02*
X18470000Y-24820000D01*
X18470000Y-24820000D02*
X20080000Y-23990000D01*
X22000530Y-25840530D02*
X21380000Y-24690000D01*
X21380000Y-24690000D02*
X20080000Y-23990000D01*
X20080000Y-23990000D02*
X20080000Y-21450000D01*
X38963185Y-78400571D02*
X41076193Y-83100458D01*
X30010000Y-71685000D02*
X29860000Y-66910000D01*
X29860000Y-66910000D02*
X28350000Y-64690000D01*
X28350000Y-64690000D02*
X25520000Y-61870000D01*
X25520000Y-61870000D02*
X24190000Y-61670000D01*
X24190000Y-61670000D02*
X22920000Y-61910000D01*
X22920000Y-61910000D02*
X21740000Y-60700000D01*
X21740000Y-60700000D02*
X21260000Y-60140000D01*
X21260000Y-60140000D02*
X21260000Y-60140000D01*
X26750000Y-51435000D02*
X26790000Y-49900000D01*
X26790000Y-49900000D02*
X24650000Y-49900000D01*
X30200000Y-51455000D02*
X29990000Y-49900000D01*
X29990000Y-49900000D02*
X26790000Y-49900000D01*
X32270000Y-49900000D02*
X29990000Y-49900000D01*
X37905000Y-112340000D02*
X36280000Y-112540000D01*
X37975000Y-108930000D02*
X36420000Y-108830000D01*
X36356728Y-110506728D02*
X39320000Y-110640000D01*
X36420000Y-108830000D02*
X36356728Y-110506728D01*
X36356728Y-110506728D02*
X36280000Y-112540000D01*
X39320000Y-110640000D02*
X41750000Y-110560000D01*
X41750000Y-110560000D02*
X43315475Y-109164525D01*
X43315475Y-109164525D02*
X42000000Y-108900000D01*
X43840000Y-109270000D02*
X43315475Y-109164525D01*
X22290000Y-20215000D02*
X20080000Y-21450000D01*
X35440000Y-63270000D02*
X31800000Y-63270000D01*
X31800000Y-63270000D02*
X30590000Y-61640000D01*
X30590000Y-61640000D02*
X30540000Y-58110000D01*
X30540000Y-58110000D02*
X30570000Y-56010000D01*
X58180000Y-59490000D02*
X55640000Y-59490000D01*
X55640000Y-59490000D02*
X50032118Y-55591600D01*
X50032118Y-55591600D02*
X46280000Y-54930000D01*
X46280000Y-54930000D02*
X47250000Y-60090000D01*
X50032118Y-55591600D02*
X53920000Y-52340000D01*
X53920000Y-52340000D02*
X52190000Y-46010000D01*
X35440000Y-63270000D02*
X42250000Y-61560000D01*
X42250000Y-61560000D02*
X47250000Y-60090000D01*
X40330000Y-120950000D02*
X38690000Y-119200000D01*
X38690000Y-119200000D02*
X38700000Y-114570000D01*
X24740000Y-114080000D02*
X23180000Y-115050000D01*
X23180000Y-115050000D02*
X22430000Y-115560000D01*
X22430000Y-115560000D02*
X21680000Y-116770000D01*
X21680000Y-116770000D02*
X22460000Y-118980000D01*
X22460000Y-118980000D02*
X25610000Y-121350000D01*
X25610000Y-121350000D02*
X31080000Y-122550000D01*
X31080000Y-122550000D02*
X32970000Y-122900000D01*
X32970000Y-122900000D02*
X37940000Y-121310000D01*
X37940000Y-121310000D02*
X38690000Y-119200000D01*
X50032118Y-55591600D02*
X49157280Y-51606167D01*
X24740000Y-114080000D02*
X23820000Y-111240000D01*
X23820000Y-111240000D02*
X20600000Y-109890000D01*
X20600000Y-109890000D02*
X19600000Y-108950000D01*
X19600000Y-108950000D02*
X19920000Y-103290000D01*
X19920000Y-103290000D02*
X21490000Y-100910000D01*
X21490000Y-100910000D02*
X21320000Y-94100000D01*
X21320000Y-94100000D02*
X18020000Y-90460000D01*
X18020000Y-90460000D02*
X16940000Y-85140000D01*
X16940000Y-85140000D02*
X17410000Y-81300000D01*
X17410000Y-81300000D02*
X18360000Y-77420000D01*
X18360000Y-77420000D02*
X20920000Y-74700000D01*
X20920000Y-74700000D02*
X24290000Y-74460000D01*
X24290000Y-74460000D02*
X27340000Y-74280000D01*
X30010000Y-73735000D02*
X27340000Y-74280000D01*
X31205164Y-55625164D02*
X32270000Y-54980000D01*
X30200000Y-53505000D02*
X31205164Y-55625164D01*
X30570000Y-56010000D02*
X31205164Y-55625164D01*
X38700000Y-114570000D02*
X39700000Y-113500000D01*
X39700000Y-113500000D02*
X39955000Y-112340000D01*
X43638109Y-45740067D02*
X46551087Y-44445709D01*
X36500013Y-39671627D02*
X36266576Y-36106461D01*
X43638109Y-45740067D02*
X40830000Y-41820000D01*
X40830000Y-41820000D02*
X38820000Y-40040000D01*
X38820000Y-40040000D02*
X36500013Y-39671627D01*
X54880000Y-85810000D02*
X57070000Y-86120000D01*
X57070000Y-86120000D02*
X59170000Y-86120000D01*
X59170000Y-86120000D02*
X60180000Y-85440000D01*
X60180000Y-85440000D02*
X60430000Y-84020000D01*
X60430000Y-84020000D02*
X60670000Y-79540000D01*
X60670000Y-79540000D02*
X60660000Y-77330000D01*
X60660000Y-77330000D02*
X60870000Y-76410000D01*
X59680000Y-88870000D02*
X59170000Y-86120000D01*
X59180000Y-47300000D02*
X59000000Y-52340000D01*
X59180000Y-47300000D02*
X60850000Y-46180000D01*
X60850000Y-46180000D02*
X60970000Y-41480000D01*
X60970000Y-41480000D02*
X59200000Y-30140000D01*
X59200000Y-30140000D02*
X52220000Y-17890000D01*
X52220000Y-17890000D02*
X49340000Y-16390000D01*
X49340000Y-16390000D02*
X47300000Y-15620000D01*
X47300000Y-15620000D02*
X44610000Y-15650000D01*
X44610000Y-15650000D02*
X40140000Y-16030000D01*
X25630000Y-14930000D02*
X22110000Y-15570000D01*
X22110000Y-15570000D02*
X20080000Y-16370000D01*
X25630000Y-14930000D02*
X28310000Y-14350000D01*
X28310000Y-14350000D02*
X29050000Y-14990000D01*
X29050000Y-14990000D02*
X29760000Y-16090000D01*
X29760000Y-16090000D02*
X31910000Y-16530000D01*
X31910000Y-16530000D02*
X33710000Y-16120000D01*
X33710000Y-16120000D02*
X40140000Y-16030000D01*
X22290000Y-18165000D02*
X22110000Y-15570000D01*
D30*
X24650000Y-60060000D02*
X22820000Y-58970000D01*
X22820000Y-58970000D02*
X21090000Y-58920000D01*
X21090000Y-58920000D02*
X19790000Y-59310000D01*
X19790000Y-59310000D02*
X18880000Y-60930000D01*
X18880000Y-60930000D02*
X18440000Y-63280000D01*
X39343031Y-32525111D02*
X35310000Y-33030000D01*
X35310000Y-33030000D02*
X31960000Y-35600000D01*
X31960000Y-35600000D02*
X28430000Y-37290000D01*
X28430000Y-37290000D02*
X28430000Y-37290000D01*
D29*
X24650000Y-54980000D02*
X23220000Y-56290000D01*
X23220000Y-56290000D02*
X22710000Y-57240000D01*
X22710000Y-57240000D02*
X20940000Y-57690000D01*
X20940000Y-57690000D02*
X19390000Y-57250000D01*
X19390000Y-57250000D02*
X18440000Y-55660000D01*
X15350000Y-55670000D02*
X18440000Y-55660000D01*
X46460000Y-74010000D02*
X50270000Y-74010000D01*
X55640000Y-69650000D02*
X50270000Y-74010000D01*
X55640000Y-69650000D02*
X58180000Y-69650000D01*
X28110000Y-55530000D02*
X29300000Y-57950000D01*
X29300000Y-57950000D02*
X29270000Y-61900000D01*
X29270000Y-61900000D02*
X29590000Y-63940000D01*
X29590000Y-63940000D02*
X30950000Y-64750000D01*
X33510000Y-65120000D02*
X38270000Y-65010000D01*
X53250000Y-76410000D02*
X50270000Y-74010000D01*
X46460000Y-74010000D02*
X44580000Y-75980000D01*
X44580000Y-75980000D02*
X42150000Y-76310000D01*
X42150000Y-76310000D02*
X40580000Y-75010000D01*
X40580000Y-75010000D02*
X39880000Y-74090000D01*
X39880000Y-74090000D02*
X37500000Y-74010000D01*
X38270000Y-65010000D02*
X39910000Y-64900000D01*
X39910000Y-64900000D02*
X40660000Y-66470000D01*
X40660000Y-66470000D02*
X40800000Y-68520000D01*
X40800000Y-68520000D02*
X42180000Y-69870000D01*
X42180000Y-69870000D02*
X46852527Y-71582527D01*
X46852527Y-71582527D02*
X47220000Y-69310000D01*
X46460000Y-74010000D02*
X46852527Y-71582527D01*
X38700000Y-106950000D02*
X38150000Y-103830000D01*
X38150000Y-103830000D02*
X37100000Y-102220000D01*
X37100000Y-102220000D02*
X34340000Y-101920000D01*
X34340000Y-101920000D02*
X29950000Y-101300000D01*
X28360000Y-100610000D02*
X26190000Y-96150000D01*
X26190000Y-96150000D02*
X20400000Y-90160000D01*
X20400000Y-90160000D02*
X18880000Y-85950000D01*
X18880000Y-85950000D02*
X19810000Y-83120000D01*
X19810000Y-83120000D02*
X22370000Y-83120000D01*
X22370000Y-83120000D02*
X22640000Y-84470000D01*
X22640000Y-84470000D02*
X22730000Y-85860000D01*
X22730000Y-85860000D02*
X22930000Y-86550000D01*
X22930000Y-86550000D02*
X24650000Y-88700000D01*
X24650000Y-88700000D02*
X26340000Y-90270000D01*
X26340000Y-90270000D02*
X29340000Y-90220000D01*
X29340000Y-90220000D02*
X30570000Y-85230000D01*
X30570000Y-85230000D02*
X31340000Y-78300000D01*
X31340000Y-78300000D02*
X32210000Y-74340000D01*
X32210000Y-74340000D02*
X32636279Y-64993721D01*
X32636279Y-64993721D02*
X33510000Y-65120000D01*
X30950000Y-64750000D02*
X32636279Y-64993721D01*
X29950000Y-101300000D02*
X28360000Y-100610000D01*
X37036815Y-77699429D02*
X36590000Y-76020000D01*
X36590000Y-76020000D02*
X36153168Y-74153168D01*
X36153168Y-74153168D02*
X34960000Y-74280000D01*
X37500000Y-74010000D02*
X36153168Y-74153168D01*
X26539626Y-55280374D02*
X28110000Y-55530000D01*
X26750000Y-53485000D02*
X26539626Y-55280374D01*
X24650000Y-54980000D02*
X26539626Y-55280374D01*
X40025000Y-108930000D02*
X38700000Y-106950000D01*
D30*
X29910000Y-46650000D02*
X27930000Y-44120000D01*
X27930000Y-44120000D02*
X25970000Y-42970000D01*
X25970000Y-42970000D02*
X24650000Y-42280000D01*
X20470000Y-65980000D02*
X14900000Y-65370000D01*
X14900000Y-65370000D02*
X13820000Y-64980000D01*
X13820000Y-64980000D02*
X13590000Y-58060000D01*
X13590000Y-58060000D02*
X13670000Y-53220000D01*
X13670000Y-53220000D02*
X19360000Y-48840000D01*
X19360000Y-48840000D02*
X19940000Y-45900000D01*
X19940000Y-45900000D02*
X20600000Y-43600000D01*
X20600000Y-43600000D02*
X21960000Y-41220000D01*
X21960000Y-41220000D02*
X23980000Y-39660000D01*
X23980000Y-39660000D02*
X26790000Y-40840000D01*
X26790000Y-40840000D02*
X32270000Y-42280000D01*
X40960000Y-91020000D02*
X41690000Y-87820000D01*
X41690000Y-87820000D02*
X42380000Y-85470000D01*
X34960000Y-71740000D02*
X33440000Y-72880000D01*
X33440000Y-72880000D02*
X33360000Y-75790000D01*
X33360000Y-75790000D02*
X33280000Y-78740000D01*
X33280000Y-78740000D02*
X33310000Y-80650000D01*
X33310000Y-80650000D02*
X34960000Y-81900000D01*
M02*
