G04 #@! TF.GenerationSoftware,KiCad,Pcbnew,(5.1.2-1)-1*
G04 #@! TF.CreationDate,2022-01-02T20:14:42-05:00*
G04 #@! TF.ProjectId,EchoFXXX_MFOS,4563686f-4658-4585-985f-4d464f532e6b,rev?*
G04 #@! TF.SameCoordinates,Original*
G04 #@! TF.FileFunction,Legend,Bot*
G04 #@! TF.FilePolarity,Positive*
%FSLAX46Y46*%
G04 Gerber Fmt 4.6, Leading zero omitted, Abs format (unit mm)*
G04 Created by KiCad (PCBNEW (5.1.2-1)-1) date 2022-01-02 20:14:42*
%MOMM*%
%LPD*%
G04 APERTURE LIST*
%ADD10C,0.150000*%
%ADD11C,0.120000*%
G04 APERTURE END LIST*
D10*
X52111904Y-76281428D02*
X51350000Y-76281428D01*
X50350000Y-76662380D02*
X50921428Y-76662380D01*
X50635714Y-76662380D02*
X50635714Y-75662380D01*
X50730952Y-75805238D01*
X50826190Y-75900476D01*
X50921428Y-75948095D01*
X49969047Y-75757619D02*
X49921428Y-75710000D01*
X49826190Y-75662380D01*
X49588095Y-75662380D01*
X49492857Y-75710000D01*
X49445238Y-75757619D01*
X49397619Y-75852857D01*
X49397619Y-75948095D01*
X49445238Y-76090952D01*
X50016666Y-76662380D01*
X49397619Y-76662380D01*
X49111904Y-75662380D02*
X48778571Y-76662380D01*
X48445238Y-75662380D01*
X51331904Y-66570000D02*
X51427142Y-66522380D01*
X51570000Y-66522380D01*
X51712857Y-66570000D01*
X51808095Y-66665238D01*
X51855714Y-66760476D01*
X51903333Y-66950952D01*
X51903333Y-67093809D01*
X51855714Y-67284285D01*
X51808095Y-67379523D01*
X51712857Y-67474761D01*
X51570000Y-67522380D01*
X51474761Y-67522380D01*
X51331904Y-67474761D01*
X51284285Y-67427142D01*
X51284285Y-67093809D01*
X51474761Y-67093809D01*
X50855714Y-67522380D02*
X50855714Y-66522380D01*
X50284285Y-67522380D01*
X50284285Y-66522380D01*
X49808095Y-67522380D02*
X49808095Y-66522380D01*
X49570000Y-66522380D01*
X49427142Y-66570000D01*
X49331904Y-66665238D01*
X49284285Y-66760476D01*
X49236666Y-66950952D01*
X49236666Y-67093809D01*
X49284285Y-67284285D01*
X49331904Y-67379523D01*
X49427142Y-67474761D01*
X49570000Y-67522380D01*
X49808095Y-67522380D01*
X51914285Y-58101428D02*
X51152380Y-58101428D01*
X51533333Y-58482380D02*
X51533333Y-57720476D01*
X50152380Y-58482380D02*
X50723809Y-58482380D01*
X50438095Y-58482380D02*
X50438095Y-57482380D01*
X50533333Y-57625238D01*
X50628571Y-57720476D01*
X50723809Y-57768095D01*
X49771428Y-57577619D02*
X49723809Y-57530000D01*
X49628571Y-57482380D01*
X49390476Y-57482380D01*
X49295238Y-57530000D01*
X49247619Y-57577619D01*
X49200000Y-57672857D01*
X49200000Y-57768095D01*
X49247619Y-57910952D01*
X49819047Y-58482380D01*
X49200000Y-58482380D01*
X48866666Y-57815714D02*
X48628571Y-58482380D01*
X48390476Y-57815714D01*
D11*
X21580000Y-19451252D02*
X21580000Y-18928748D01*
X23000000Y-19451252D02*
X23000000Y-18928748D01*
X38668748Y-111630000D02*
X39191252Y-111630000D01*
X38668748Y-113050000D02*
X39191252Y-113050000D01*
X38738748Y-108220000D02*
X39261252Y-108220000D01*
X38738748Y-109640000D02*
X39261252Y-109640000D01*
X30910000Y-52218748D02*
X30910000Y-52741252D01*
X29490000Y-52218748D02*
X29490000Y-52741252D01*
X27460000Y-52198748D02*
X27460000Y-52721252D01*
X26040000Y-52198748D02*
X26040000Y-52721252D01*
X29300000Y-72971252D02*
X29300000Y-72448748D01*
X30720000Y-72971252D02*
X30720000Y-72448748D01*
X37997338Y-77293465D02*
X38488331Y-77472172D01*
X37511669Y-78627828D02*
X38002662Y-78806535D01*
X61585000Y-75000000D02*
X61585000Y-54140000D01*
X61585000Y-54140000D02*
X52235000Y-54140000D01*
X52235000Y-54140000D02*
X52235000Y-75000000D01*
X52235000Y-75000000D02*
X61585000Y-75000000D01*
X51985000Y-75250000D02*
X51985000Y-72710000D01*
X51985000Y-75250000D02*
X54525000Y-75250000D01*
D10*
X29002380Y-51146666D02*
X28526190Y-50813333D01*
X29002380Y-50575238D02*
X28002380Y-50575238D01*
X28002380Y-50956190D01*
X28050000Y-51051428D01*
X28097619Y-51099047D01*
X28192857Y-51146666D01*
X28335714Y-51146666D01*
X28430952Y-51099047D01*
X28478571Y-51051428D01*
X28526190Y-50956190D01*
X28526190Y-50575238D01*
X28478571Y-51575238D02*
X28478571Y-51908571D01*
X29002380Y-52051428D02*
X29002380Y-51575238D01*
X28002380Y-51575238D01*
X28002380Y-52051428D01*
X28478571Y-52813333D02*
X28478571Y-52480000D01*
X29002380Y-52480000D02*
X28002380Y-52480000D01*
X28002380Y-52956190D01*
X28002380Y-53480000D02*
X28240476Y-53480000D01*
X28145238Y-53241904D02*
X28240476Y-53480000D01*
X28145238Y-53718095D01*
X28430952Y-53337142D02*
X28240476Y-53480000D01*
X28430952Y-53622857D01*
X28002380Y-54241904D02*
X28240476Y-54241904D01*
X28145238Y-54003809D02*
X28240476Y-54241904D01*
X28145238Y-54480000D01*
X28430952Y-54099047D02*
X28240476Y-54241904D01*
X28430952Y-54384761D01*
X32112380Y-71376666D02*
X31636190Y-71043333D01*
X32112380Y-70805238D02*
X31112380Y-70805238D01*
X31112380Y-71186190D01*
X31160000Y-71281428D01*
X31207619Y-71329047D01*
X31302857Y-71376666D01*
X31445714Y-71376666D01*
X31540952Y-71329047D01*
X31588571Y-71281428D01*
X31636190Y-71186190D01*
X31636190Y-70805238D01*
X31588571Y-71805238D02*
X31588571Y-72138571D01*
X32112380Y-72281428D02*
X32112380Y-71805238D01*
X31112380Y-71805238D01*
X31112380Y-72281428D01*
X31588571Y-73043333D02*
X31588571Y-72710000D01*
X32112380Y-72710000D02*
X31112380Y-72710000D01*
X31112380Y-73186190D01*
X31112380Y-73710000D02*
X31350476Y-73710000D01*
X31255238Y-73471904D02*
X31350476Y-73710000D01*
X31255238Y-73948095D01*
X31540952Y-73567142D02*
X31350476Y-73710000D01*
X31540952Y-73852857D01*
X31112380Y-74471904D02*
X31350476Y-74471904D01*
X31255238Y-74233809D02*
X31350476Y-74471904D01*
X31255238Y-74710000D01*
X31540952Y-74329047D02*
X31350476Y-74471904D01*
X31540952Y-74614761D01*
X38533866Y-80481617D02*
X39009963Y-80148151D01*
X39070833Y-80677057D02*
X39412853Y-79737365D01*
X39054875Y-79607071D01*
X38949094Y-79619245D01*
X38888060Y-79647706D01*
X38810739Y-79720914D01*
X38761879Y-79855156D01*
X38774053Y-79960937D01*
X38802514Y-80021971D01*
X38875721Y-80099291D01*
X39233700Y-80229585D01*
X38310294Y-79842817D02*
X37997063Y-79728811D01*
X37683668Y-80172171D02*
X38131140Y-80335037D01*
X38473160Y-79395345D01*
X38025688Y-79232478D01*
X37146865Y-79419364D02*
X37460096Y-79533371D01*
X37280942Y-80025591D02*
X37622962Y-79085898D01*
X37175490Y-78923031D01*
X36683270Y-78743878D02*
X36601836Y-78967614D01*
X36858146Y-78959553D02*
X36601836Y-78967614D01*
X36410673Y-78796686D01*
X36670931Y-79195463D02*
X36601836Y-78967614D01*
X36402448Y-79097743D01*
X35967313Y-78483291D02*
X35885880Y-78707027D01*
X36142190Y-78698966D02*
X35885880Y-78707027D01*
X35694717Y-78536099D01*
X35954975Y-78934876D02*
X35885880Y-78707027D01*
X35686491Y-78837156D01*
M02*
