M48
; DRILL file {KiCad (5.1.2-1)-1} date Monday, May 31, 2021 at 01:23:28 PM
; FORMAT={-:-/ absolute / inch / decimal}
; #@! TF.CreationDate,2021-05-31T13:23:28-04:00
; #@! TF.GenerationSoftware,Kicad,Pcbnew,(5.1.2-1)-1
FMAT,2
INCH
T1C0.0157
T2C0.0236
T3C0.0315
T4C0.0394
T5C0.0394
T6C0.1378
%
G90
G05
T1
X1.4063Y-2.0818
X1.9859Y-2.2875
X2.3528Y-2.3465
X2.3804Y-2.8408
X2.4016Y-2.1834
X2.6713Y-3.1967
X2.6761Y-2.6717
X2.708Y-3.242
X2.7816Y-2.7473
X2.806Y-2.6072
X2.8201Y-2.5538
X2.8565Y-2.3808
X2.9861Y-3.2528
X3.2643Y-2.7368
X3.3038Y-3.5493
T2
X2.665Y-1.285
X2.7156Y-1.3453
X2.345Y-1.105
X2.4225Y-1.1187
T3
X2.165Y-0.9414
X2.365Y-0.595
X1.2174Y-3.1101
X1.2347Y-3.0116
X1.2521Y-2.9131
X1.2695Y-2.8147
X1.2868Y-2.7162
X1.3042Y-2.6177
X1.3216Y-2.5192
X1.5128Y-3.1622
X1.5302Y-3.0637
X1.5476Y-2.9652
X1.5649Y-2.8668
X1.5823Y-2.7683
X1.5996Y-2.6698
X1.617Y-2.5713
X1.6255Y-3.263
X1.6597Y-3.0692
X1.1798Y-2.5994
X1.214Y-2.4056
X1.2426Y-0.8889
X1.4275Y-0.9562
X1.0337Y-2.3453
X1.0337Y-2.6453
X0.6769Y-3.1417
X0.729Y-2.8463
X3.035Y-2.3873
X3.22Y-2.4546
X1.7404Y-3.3421
X1.7925Y-3.0467
X1.0775Y-3.1168
X1.1117Y-2.9229
X3.3483Y-2.664
X3.3983Y-2.7506
X3.4483Y-2.8372
X3.4983Y-2.9238
X3.6081Y-2.514
X3.6581Y-2.6006
X3.7081Y-2.6872
X3.7581Y-2.7738
X1.6842Y-2.9415
X1.9661Y-2.8389
X2.1632Y-3.3737
X2.2572Y-3.3395
X2.2658Y-3.6556
X2.3511Y-3.3052
X2.3598Y-3.6214
X2.4451Y-3.271
X2.4537Y-3.5872
X2.5477Y-3.553
X0.8956Y-2.293
X0.8956Y-2.593
X2.0445Y-3.4421
X2.1118Y-3.6271
X1.0992Y-1.456
X1.292Y-1.2261
X1.2102Y-1.5255
X1.2868Y-1.5898
X1.3634Y-1.6541
X1.403Y-1.2957
X1.44Y-1.7183
X1.4796Y-1.36
X1.5563Y-1.4243
X1.6329Y-1.4885
X0.9266Y-3.312
X1.2221Y-3.2599
X2.8118Y-3.5694
X2.8292Y-3.4709
X2.8466Y-3.3724
X2.8639Y-3.2739
X2.8813Y-3.1754
X2.8987Y-3.0769
X2.916Y-2.9785
X2.9334Y-2.88
X3.1073Y-3.6214
X3.1246Y-3.523
X3.142Y-3.4245
X3.1594Y-3.326
X3.1767Y-3.2275
X3.1941Y-3.129
X3.2115Y-3.0306
X3.2288Y-2.9321
X1.7764Y-1.3865
X1.879Y-1.1046
X0.8093Y-3.158
X0.8614Y-2.8625
X2.7066Y-2.1347
X2.8916Y-2.0674
X1.8505Y-2.7388
X1.9026Y-2.4434
X2.0165Y-3.2621
X2.0686Y-2.9667
X1.5764Y-1.2412
X1.7693Y-1.0114
X1.9708Y-1.4519
X1.9708Y-1.5519
X1.9708Y-1.6519
X1.9708Y-1.7519
X1.9708Y-1.8519
X1.9708Y-1.9519
X1.9708Y-2.0519
X2.2708Y-1.4519
X2.2708Y-1.5519
X2.2708Y-1.6519
X2.2708Y-1.7519
X2.2708Y-1.8519
X2.2708Y-1.9519
X2.2708Y-2.0519
X1.2781Y-0.7528
X1.56Y-0.8554
X2.965Y-1.3014
X3.165Y-0.955
X0.9365Y-3.1825
X0.9886Y-2.8871
X1.3456Y-1.8335
X1.5755Y-2.0263
X3.5503Y-3.0439
X3.7207Y-2.9455
X2.2371Y-2.3576
X2.2371Y-2.4576
X2.2371Y-2.5576
X2.2371Y-2.6576
X2.2371Y-2.7576
X2.2371Y-2.8576
X2.2371Y-2.9576
X2.2371Y-3.0576
X2.5371Y-2.3576
X2.5371Y-2.4576
X2.5371Y-2.5576
X2.5371Y-2.6576
X2.5371Y-2.7576
X2.5371Y-2.8576
X2.5371Y-2.9576
X2.5371Y-3.0576
X3.0889Y-2.2686
X3.1231Y-2.1746
X3.1573Y-2.0806
X3.1915Y-1.9867
X3.3708Y-2.3712
X3.405Y-2.2772
X3.4392Y-2.1832
X3.4734Y-2.0893
X0.7705Y-2.3592
X0.7705Y-2.6592
X0.9795Y-2.1872
X1.2614Y-2.2898
X1.0888Y-0.9659
X1.3486Y-1.1159
X1.4727Y-1.1609
X1.6655Y-0.9311
X2.5608Y-1.7322
X2.595Y-1.8262
X2.6292Y-1.9201
X2.6634Y-2.0141
X2.8427Y-1.6296
X2.8769Y-1.7236
X2.9111Y-1.8175
X2.9453Y-1.9115
X1.7244Y-2.6966
X1.7586Y-2.5027
X1.4391Y-3.3207
X1.6989Y-3.4707
X1.8755Y-3.3279
X1.9276Y-3.0324
T4
X1.6935Y-1.6883
X1.7935Y-1.5151
X1.4711Y-2.3661
X1.6309Y-2.2148
X1.6561Y-2.4335
T5
X1.1388Y-0.7553
X2.44Y-0.765
X2.515Y-0.6351
X1.2445Y-1.7516
X2.765Y-0.7701
X2.945Y-1.035
X3.02Y-0.9051
X1.0586Y-2.0723
X0.7912Y-3.2893
X1.6011Y-3.5787
X2.69Y-0.9
T6
X0.7Y-0.7
X3.76Y-0.7
X0.7Y-3.8
X3.76Y-3.8
T0
M30
