G04 #@! TF.GenerationSoftware,KiCad,Pcbnew,(5.1.2-1)-1*
G04 #@! TF.CreationDate,2021-05-31T13:23:38-04:00*
G04 #@! TF.ProjectId,Analog Shift Register - CGS,416e616c-6f67-4205-9368-696674205265,rev?*
G04 #@! TF.SameCoordinates,Original*
G04 #@! TF.FileFunction,Legend,Top*
G04 #@! TF.FilePolarity,Positive*
%FSLAX46Y46*%
G04 Gerber Fmt 4.6, Leading zero omitted, Abs format (unit mm)*
G04 Created by KiCad (PCBNEW (5.1.2-1)-1) date 2021-05-31 13:23:38*
%MOMM*%
%LPD*%
G04 APERTURE LIST*
%ADD10C,0.320000*%
%ADD11C,0.150000*%
%ADD12C,0.120000*%
G04 APERTURE END LIST*
D10*
X71798964Y-98958400D02*
G75*
G03X71798964Y-98958400I-704364J0D01*
G01*
X75726482Y-97993200D02*
G75*
G03X75726482Y-97993200I-466282J0D01*
G01*
X77919516Y-97764600D02*
G75*
G03X77919516Y-97764600I-1465516J0D01*
G01*
X79357346Y-99237800D02*
G75*
G03X79357346Y-99237800I-795146J0D01*
G01*
X85730853Y-98120200D02*
G75*
G03X85730853Y-98120200I-1987053J0D01*
G01*
X90304034Y-84912200D02*
G75*
G03X90304034Y-84912200I-1150034J0D01*
G01*
X92740864Y-81762600D02*
G75*
G03X92740864Y-81762600I-1478664J0D01*
G01*
X94028076Y-84353400D02*
G75*
G03X94028076Y-84353400I-1775276J0D01*
G01*
X88369460Y-82245200D02*
G75*
G03X88369460Y-82245200I-1806260J0D01*
G01*
X86448551Y-84556600D02*
G75*
G03X86448551Y-84556600I-1155351J0D01*
G01*
X89714344Y-80568800D02*
G75*
G03X89714344Y-80568800I-1881144J0D01*
G01*
X98103155Y-85471000D02*
G75*
G03X98103155Y-85471000I-1278355J0D01*
G01*
X93001187Y-90322400D02*
G75*
G03X93001187Y-90322400I-3974187J0D01*
G01*
X45212000Y-95935800D02*
X42113200Y-96342200D01*
X45516800Y-98221800D02*
X45212000Y-95935800D01*
X41706800Y-98882200D02*
X45516800Y-98221800D01*
X42240200Y-95935800D02*
X41706800Y-98882200D01*
X36804600Y-94411800D02*
X27432000Y-92964000D01*
X37338000Y-97739200D02*
X36804600Y-94411800D01*
X27178000Y-97688400D02*
X37338000Y-97739200D01*
X27355800Y-92786200D02*
X27178000Y-97688400D01*
X19761200Y-49022000D02*
X14147800Y-49199800D01*
X19939000Y-52832000D02*
X19761200Y-49022000D01*
X14427200Y-53009800D02*
X19939000Y-52832000D01*
X14325600Y-49199800D02*
X14427200Y-53009800D01*
X27025600Y-40589200D02*
X16408400Y-41681400D01*
X26847800Y-44932600D02*
X27025600Y-40589200D01*
X16129000Y-46558200D02*
X26847800Y-44932600D01*
X16332200Y-41681400D02*
X16129000Y-46558200D01*
X25755600Y-32689800D02*
X19862800Y-32867600D01*
X25476200Y-37058600D02*
X25755600Y-32689800D01*
X19583400Y-37693600D02*
X25476200Y-37058600D01*
X19685000Y-32969200D02*
X19583400Y-37693600D01*
X18237200Y-33147000D02*
X13690600Y-33883600D01*
X17780000Y-40487600D02*
X18237200Y-33147000D01*
X13970000Y-40665400D02*
X17780000Y-40487600D01*
X13970000Y-33680400D02*
X13970000Y-40665400D01*
X25755600Y-27076400D02*
X14605000Y-24714200D01*
X25831800Y-30962600D02*
X25755600Y-27076400D01*
X15240000Y-31521400D02*
X25831800Y-30962600D01*
X14782800Y-24714200D02*
X15240000Y-31521400D01*
X98602800Y-52324000D02*
X98806000Y-53086000D01*
X97713800Y-51562000D02*
X98602800Y-52324000D01*
X98552000Y-51536600D02*
X97713800Y-51562000D01*
X99161600Y-51054000D02*
X98552000Y-51536600D01*
X98882200Y-50317400D02*
X99161600Y-51054000D01*
X97459800Y-50520600D02*
X98882200Y-50317400D01*
X97358200Y-52146200D02*
X97459800Y-50520600D01*
X95427800Y-52781200D02*
X96443800Y-52527200D01*
X95377000Y-51841400D02*
X96443800Y-51663600D01*
X95224600Y-50977800D02*
X96672400Y-50800000D01*
X93675200Y-50749200D02*
X93903800Y-52908200D01*
X94513400Y-50698400D02*
X93675200Y-50749200D01*
X92735400Y-50901600D02*
X94513400Y-50698400D01*
X91846400Y-54203600D02*
X90932000Y-53644800D01*
X92252800Y-53111400D02*
X91846400Y-54203600D01*
X90754200Y-51841400D02*
X92252800Y-53111400D01*
X91008200Y-51054000D02*
X90754200Y-51841400D01*
X91059000Y-50977800D02*
X91008200Y-51054000D01*
X91821000Y-51054000D02*
X91059000Y-50977800D01*
X96393000Y-48234600D02*
X98094800Y-48209200D01*
X97434400Y-48133000D02*
X96393000Y-48234600D01*
X97561400Y-46253400D02*
X97434400Y-48133000D01*
X98399600Y-46278800D02*
X97561400Y-46253400D01*
X96774000Y-46202600D02*
X98399600Y-46278800D01*
X95377000Y-47599600D02*
X94945200Y-47523400D01*
X95250000Y-48514000D02*
X95377000Y-47599600D01*
X94589600Y-48793400D02*
X95250000Y-48514000D01*
X94056200Y-47726600D02*
X94589600Y-48793400D01*
X93853000Y-46583600D02*
X94056200Y-47726600D01*
X94386400Y-45897800D02*
X93853000Y-46583600D01*
X95427800Y-46380400D02*
X94386400Y-45897800D01*
X91770200Y-48768000D02*
X93319600Y-48666400D01*
X91795600Y-47904400D02*
X93395800Y-47777400D01*
X91160600Y-47015400D02*
X93395800Y-46863000D01*
X89408000Y-48310800D02*
X90652600Y-49199800D01*
X90246200Y-48183800D02*
X89408000Y-48310800D01*
X90652600Y-47396400D02*
X90246200Y-48183800D01*
X90322400Y-46482000D02*
X90652600Y-47396400D01*
X88950800Y-46583600D02*
X90322400Y-46482000D01*
X89357200Y-49961800D02*
X88950800Y-46583600D01*
X96545400Y-40665400D02*
X96723200Y-43637200D01*
X98425000Y-40436800D02*
X96545400Y-40665400D01*
X95046800Y-40665400D02*
X98425000Y-40436800D01*
X91313000Y-42545000D02*
X92989400Y-42443400D01*
X91440000Y-40817800D02*
X91313000Y-42545000D01*
X93675200Y-40741600D02*
X91440000Y-40817800D01*
X91211400Y-40868600D02*
X93675200Y-40741600D01*
X91440000Y-44475400D02*
X91211400Y-40868600D01*
X88239600Y-44754800D02*
X90017600Y-44221400D01*
X89154000Y-44526200D02*
X88239600Y-44754800D01*
X88900000Y-41097200D02*
X89154000Y-44526200D01*
X89916000Y-41122600D02*
X88900000Y-41097200D01*
X87985600Y-41046400D02*
X89916000Y-41122600D01*
X86563200Y-42773600D02*
X86715600Y-45059600D01*
X86868000Y-40843200D02*
X86563200Y-42773600D01*
X86664800Y-42722800D02*
X86868000Y-40843200D01*
X85572600Y-42697400D02*
X86664800Y-42722800D01*
X85572600Y-44932600D02*
X85572600Y-42697400D01*
X85521800Y-40665400D02*
X85572600Y-44932600D01*
X82854800Y-44907200D02*
X81457800Y-43459400D01*
X84531200Y-43307000D02*
X82854800Y-44907200D01*
X83134200Y-42468800D02*
X84531200Y-43307000D01*
X81737200Y-41554400D02*
X83134200Y-42468800D01*
X82067400Y-40563800D02*
X81737200Y-41554400D01*
X83997800Y-41173400D02*
X82067400Y-40563800D01*
X97205800Y-37236400D02*
X97536000Y-38582600D01*
X96266000Y-37287200D02*
X97205800Y-37236400D01*
X97332800Y-37261800D02*
X96266000Y-37287200D01*
X97155000Y-38125400D02*
X97332800Y-37261800D01*
X96062800Y-38735000D02*
X97155000Y-38125400D01*
X94869000Y-38328600D02*
X96062800Y-38735000D01*
X94894400Y-36982400D02*
X94869000Y-38328600D01*
X95300800Y-35026600D02*
X94894400Y-36982400D01*
X96850200Y-34594800D02*
X95300800Y-35026600D01*
X93319600Y-35788600D02*
X92811600Y-35280600D01*
X93980000Y-37084000D02*
X93319600Y-35788600D01*
X93700600Y-38633400D02*
X93980000Y-37084000D01*
X92506800Y-39624000D02*
X93700600Y-38633400D01*
X91592400Y-39319200D02*
X92506800Y-39624000D01*
X91059000Y-37769800D02*
X91592400Y-39319200D01*
X91313000Y-35890200D02*
X91059000Y-37769800D01*
X92913200Y-35255200D02*
X91313000Y-35890200D01*
X87858600Y-39166800D02*
X90398600Y-39598600D01*
X88036400Y-35433000D02*
X87858600Y-39166800D01*
X86436200Y-36550600D02*
X84886800Y-36525200D01*
X86766400Y-38557200D02*
X86436200Y-36550600D01*
X86080600Y-34290000D02*
X86766400Y-38557200D01*
X83743800Y-38633400D02*
X86080600Y-34290000D01*
X82550000Y-39065200D02*
X83362800Y-34594800D01*
X81838800Y-34137600D02*
X82550000Y-39065200D01*
X80391000Y-38963600D02*
X81838800Y-34137600D01*
X79095600Y-36499800D02*
X77317600Y-36499800D01*
X79730600Y-39116000D02*
X79095600Y-36499800D01*
X78384400Y-33883600D02*
X79730600Y-39116000D01*
X76327000Y-39319200D02*
X78384400Y-33883600D01*
X98780600Y-24612600D02*
X98247200Y-24384000D01*
X99161600Y-26085800D02*
X98780600Y-24612600D01*
X98856800Y-27254200D02*
X99161600Y-26085800D01*
X98247200Y-26111200D02*
X98856800Y-27254200D01*
X96977200Y-25323800D02*
X98247200Y-26111200D01*
X96520000Y-25933400D02*
X96977200Y-25323800D01*
X97637600Y-27101800D02*
X96520000Y-25933400D01*
X99161600Y-28752800D02*
X97637600Y-27101800D01*
X96748600Y-30657800D02*
X99161600Y-28752800D01*
X94818200Y-28829000D02*
X96748600Y-30657800D01*
X95300800Y-27457400D02*
X94818200Y-28829000D01*
X96418400Y-28371800D02*
X95300800Y-27457400D01*
X97129600Y-29438600D02*
X96418400Y-28371800D01*
X98018600Y-28905200D02*
X97129600Y-29438600D01*
X96875600Y-27457400D02*
X98018600Y-28905200D01*
X95453200Y-26492200D02*
X96875600Y-27457400D01*
X95681800Y-24688800D02*
X95453200Y-26492200D01*
X98171000Y-24231600D02*
X95681800Y-24688800D01*
X91973400Y-24638000D02*
X91440000Y-24561800D01*
X93599000Y-25298400D02*
X91973400Y-24638000D01*
X93929200Y-27152600D02*
X93599000Y-25298400D01*
X93421200Y-27152600D02*
X93929200Y-27152600D01*
X92964000Y-26035000D02*
X93421200Y-27152600D01*
X92075000Y-25476200D02*
X92964000Y-26035000D01*
X91363800Y-25730200D02*
X92075000Y-25476200D01*
X90932000Y-28067000D02*
X91363800Y-25730200D01*
X90855800Y-30988000D02*
X90932000Y-28067000D01*
X92583000Y-30962600D02*
X90855800Y-30988000D01*
X92989400Y-30302200D02*
X92583000Y-30962600D01*
X91744800Y-29972000D02*
X92989400Y-30302200D01*
X91821000Y-29591000D02*
X91744800Y-29972000D01*
X94056200Y-29692600D02*
X91821000Y-29591000D01*
X94157800Y-31750000D02*
X94056200Y-29692600D01*
X93649800Y-31750000D02*
X94157800Y-31750000D01*
X93599000Y-30683200D02*
X93649800Y-31750000D01*
X92964000Y-31877000D02*
X93599000Y-30683200D01*
X91363800Y-31826200D02*
X92964000Y-31877000D01*
X89992200Y-31648400D02*
X91363800Y-31826200D01*
X89941400Y-28905200D02*
X89992200Y-31648400D01*
X90449400Y-25298400D02*
X89941400Y-28905200D01*
X91389200Y-24638000D02*
X90449400Y-25298400D01*
X88773000Y-26085800D02*
X88188800Y-25222200D01*
X87630000Y-27152600D02*
X88773000Y-26085800D01*
X86106000Y-25958800D02*
X87630000Y-27152600D01*
X85623400Y-26111200D02*
X86106000Y-25958800D01*
X84582000Y-28549600D02*
X85623400Y-26111200D01*
X84734400Y-30124400D02*
X84582000Y-28549600D01*
X85166200Y-31038800D02*
X84734400Y-30124400D01*
X85953600Y-31191200D02*
X85166200Y-31038800D01*
X87020400Y-29819600D02*
X85953600Y-31191200D01*
X87655400Y-30226000D02*
X87020400Y-29819600D01*
X87706200Y-31877000D02*
X87807800Y-30276800D01*
X86029800Y-32994600D02*
X87706200Y-31877000D01*
X83058000Y-32105600D02*
X86029800Y-32994600D01*
X82981800Y-26873200D02*
X83058000Y-32105600D01*
X84709000Y-24638000D02*
X82981800Y-26873200D01*
X86639400Y-24307800D02*
X84709000Y-24638000D01*
X88341200Y-25400000D02*
X86639400Y-24307800D01*
D11*
X54205142Y-46443638D02*
X54252761Y-46491257D01*
X54300380Y-46634114D01*
X54300380Y-46729352D01*
X54252761Y-46872209D01*
X54157523Y-46967447D01*
X54062285Y-47015066D01*
X53871809Y-47062685D01*
X53728952Y-47062685D01*
X53538476Y-47015066D01*
X53443238Y-46967447D01*
X53348000Y-46872209D01*
X53300380Y-46729352D01*
X53300380Y-46634114D01*
X53348000Y-46491257D01*
X53395619Y-46443638D01*
X54300380Y-46015066D02*
X53300380Y-46015066D01*
X53300380Y-45776971D01*
X53348000Y-45634114D01*
X53443238Y-45538876D01*
X53538476Y-45491257D01*
X53728952Y-45443638D01*
X53871809Y-45443638D01*
X54062285Y-45491257D01*
X54157523Y-45538876D01*
X54252761Y-45634114D01*
X54300380Y-45776971D01*
X54300380Y-46015066D01*
X53633714Y-44586495D02*
X54300380Y-44586495D01*
X53252761Y-44824590D02*
X53967047Y-45062685D01*
X53967047Y-44443638D01*
X53300380Y-43872209D02*
X53300380Y-43776971D01*
X53348000Y-43681733D01*
X53395619Y-43634114D01*
X53490857Y-43586495D01*
X53681333Y-43538876D01*
X53919428Y-43538876D01*
X54109904Y-43586495D01*
X54205142Y-43634114D01*
X54252761Y-43681733D01*
X54300380Y-43776971D01*
X54300380Y-43872209D01*
X54252761Y-43967447D01*
X54205142Y-44015066D01*
X54109904Y-44062685D01*
X53919428Y-44110304D01*
X53681333Y-44110304D01*
X53490857Y-44062685D01*
X53395619Y-44015066D01*
X53348000Y-43967447D01*
X53300380Y-43872209D01*
X53395619Y-43157923D02*
X53348000Y-43110304D01*
X53300380Y-43015066D01*
X53300380Y-42776971D01*
X53348000Y-42681733D01*
X53395619Y-42634114D01*
X53490857Y-42586495D01*
X53586095Y-42586495D01*
X53728952Y-42634114D01*
X54300380Y-43205542D01*
X54300380Y-42586495D01*
X53633714Y-41729352D02*
X54300380Y-41729352D01*
X53252761Y-41967447D02*
X53967047Y-42205542D01*
X53967047Y-41586495D01*
X39076523Y-93102180D02*
X39267000Y-93102180D01*
X39362238Y-93149800D01*
X39457476Y-93245038D01*
X39505095Y-93435514D01*
X39505095Y-93768847D01*
X39457476Y-93959323D01*
X39362238Y-94054561D01*
X39267000Y-94102180D01*
X39076523Y-94102180D01*
X38981285Y-94054561D01*
X38886047Y-93959323D01*
X38838428Y-93768847D01*
X38838428Y-93435514D01*
X38886047Y-93245038D01*
X38981285Y-93149800D01*
X39076523Y-93102180D01*
X40362238Y-93435514D02*
X40362238Y-94102180D01*
X39933666Y-93435514D02*
X39933666Y-93959323D01*
X39981285Y-94054561D01*
X40076523Y-94102180D01*
X40219380Y-94102180D01*
X40314619Y-94054561D01*
X40362238Y-94006942D01*
X40695571Y-93435514D02*
X41076523Y-93435514D01*
X40838428Y-93102180D02*
X40838428Y-93959323D01*
X40886047Y-94054561D01*
X40981285Y-94102180D01*
X41076523Y-94102180D01*
X41171761Y-94197419D02*
X41933666Y-94197419D01*
X42695571Y-94102180D02*
X42124142Y-94102180D01*
X42409857Y-94102180D02*
X42409857Y-93102180D01*
X42314619Y-93245038D01*
X42219380Y-93340276D01*
X42124142Y-93387895D01*
X18324723Y-86167980D02*
X18515200Y-86167980D01*
X18610438Y-86215600D01*
X18705676Y-86310838D01*
X18753295Y-86501314D01*
X18753295Y-86834647D01*
X18705676Y-87025123D01*
X18610438Y-87120361D01*
X18515200Y-87167980D01*
X18324723Y-87167980D01*
X18229485Y-87120361D01*
X18134247Y-87025123D01*
X18086628Y-86834647D01*
X18086628Y-86501314D01*
X18134247Y-86310838D01*
X18229485Y-86215600D01*
X18324723Y-86167980D01*
X19610438Y-86501314D02*
X19610438Y-87167980D01*
X19181866Y-86501314D02*
X19181866Y-87025123D01*
X19229485Y-87120361D01*
X19324723Y-87167980D01*
X19467580Y-87167980D01*
X19562819Y-87120361D01*
X19610438Y-87072742D01*
X19943771Y-86501314D02*
X20324723Y-86501314D01*
X20086628Y-86167980D02*
X20086628Y-87025123D01*
X20134247Y-87120361D01*
X20229485Y-87167980D01*
X20324723Y-87167980D01*
X20419961Y-87263219D02*
X21181866Y-87263219D01*
X21372342Y-86263219D02*
X21419961Y-86215600D01*
X21515200Y-86167980D01*
X21753295Y-86167980D01*
X21848533Y-86215600D01*
X21896152Y-86263219D01*
X21943771Y-86358457D01*
X21943771Y-86453695D01*
X21896152Y-86596552D01*
X21324723Y-87167980D01*
X21943771Y-87167980D01*
X28891123Y-53351180D02*
X29081600Y-53351180D01*
X29176838Y-53398800D01*
X29272076Y-53494038D01*
X29319695Y-53684514D01*
X29319695Y-54017847D01*
X29272076Y-54208323D01*
X29176838Y-54303561D01*
X29081600Y-54351180D01*
X28891123Y-54351180D01*
X28795885Y-54303561D01*
X28700647Y-54208323D01*
X28653028Y-54017847D01*
X28653028Y-53684514D01*
X28700647Y-53494038D01*
X28795885Y-53398800D01*
X28891123Y-53351180D01*
X30176838Y-53684514D02*
X30176838Y-54351180D01*
X29748266Y-53684514D02*
X29748266Y-54208323D01*
X29795885Y-54303561D01*
X29891123Y-54351180D01*
X30033980Y-54351180D01*
X30129219Y-54303561D01*
X30176838Y-54255942D01*
X30510171Y-53684514D02*
X30891123Y-53684514D01*
X30653028Y-53351180D02*
X30653028Y-54208323D01*
X30700647Y-54303561D01*
X30795885Y-54351180D01*
X30891123Y-54351180D01*
X30986361Y-54446419D02*
X31748266Y-54446419D01*
X31891123Y-53351180D02*
X32510171Y-53351180D01*
X32176838Y-53732133D01*
X32319695Y-53732133D01*
X32414933Y-53779752D01*
X32462552Y-53827371D01*
X32510171Y-53922609D01*
X32510171Y-54160704D01*
X32462552Y-54255942D01*
X32414933Y-54303561D01*
X32319695Y-54351180D01*
X32033980Y-54351180D01*
X31938742Y-54303561D01*
X31891123Y-54255942D01*
X25084304Y-22404342D02*
X25036685Y-22451961D01*
X24893828Y-22499580D01*
X24798590Y-22499580D01*
X24655733Y-22451961D01*
X24560495Y-22356723D01*
X24512876Y-22261485D01*
X24465257Y-22071009D01*
X24465257Y-21928152D01*
X24512876Y-21737676D01*
X24560495Y-21642438D01*
X24655733Y-21547200D01*
X24798590Y-21499580D01*
X24893828Y-21499580D01*
X25036685Y-21547200D01*
X25084304Y-21594819D01*
X25989066Y-22499580D02*
X25512876Y-22499580D01*
X25512876Y-21499580D01*
X26322400Y-22499580D02*
X26322400Y-21499580D01*
X26893828Y-22499580D02*
X26465257Y-21928152D01*
X26893828Y-21499580D02*
X26322400Y-22071009D01*
X27084304Y-22594819D02*
X27846209Y-22594819D01*
X28084304Y-22499580D02*
X28084304Y-21499580D01*
X28560495Y-22499580D02*
X28560495Y-21499580D01*
X29131923Y-22499580D01*
X29131923Y-21499580D01*
X28303695Y-48083742D02*
X28256076Y-48131361D01*
X28113219Y-48178980D01*
X28017980Y-48178980D01*
X27875123Y-48131361D01*
X27779885Y-48036123D01*
X27732266Y-47940885D01*
X27684647Y-47750409D01*
X27684647Y-47607552D01*
X27732266Y-47417076D01*
X27779885Y-47321838D01*
X27875123Y-47226600D01*
X28017980Y-47178980D01*
X28113219Y-47178980D01*
X28256076Y-47226600D01*
X28303695Y-47274219D01*
X28589409Y-47178980D02*
X28922742Y-48178980D01*
X29256076Y-47178980D01*
X29351314Y-48274219D02*
X30113219Y-48274219D01*
X30351314Y-48178980D02*
X30351314Y-47178980D01*
X30827504Y-48178980D02*
X30827504Y-47178980D01*
X31398933Y-48178980D01*
X31398933Y-47178980D01*
X75276295Y-20442228D02*
X76038200Y-20442228D01*
X77038200Y-20823180D02*
X76466771Y-20823180D01*
X76752485Y-20823180D02*
X76752485Y-19823180D01*
X76657247Y-19966038D01*
X76562009Y-20061276D01*
X76466771Y-20108895D01*
X77419152Y-19918419D02*
X77466771Y-19870800D01*
X77562009Y-19823180D01*
X77800104Y-19823180D01*
X77895342Y-19870800D01*
X77942961Y-19918419D01*
X77990580Y-20013657D01*
X77990580Y-20108895D01*
X77942961Y-20251752D01*
X77371533Y-20823180D01*
X77990580Y-20823180D01*
X78276295Y-19823180D02*
X78609628Y-20823180D01*
X78942961Y-19823180D01*
X70789895Y-16873600D02*
X70694657Y-16825980D01*
X70551800Y-16825980D01*
X70408942Y-16873600D01*
X70313704Y-16968838D01*
X70266085Y-17064076D01*
X70218466Y-17254552D01*
X70218466Y-17397409D01*
X70266085Y-17587885D01*
X70313704Y-17683123D01*
X70408942Y-17778361D01*
X70551800Y-17825980D01*
X70647038Y-17825980D01*
X70789895Y-17778361D01*
X70837514Y-17730742D01*
X70837514Y-17397409D01*
X70647038Y-17397409D01*
X71266085Y-17825980D02*
X71266085Y-16825980D01*
X71837514Y-17825980D01*
X71837514Y-16825980D01*
X72313704Y-17825980D02*
X72313704Y-16825980D01*
X72551800Y-16825980D01*
X72694657Y-16873600D01*
X72789895Y-16968838D01*
X72837514Y-17064076D01*
X72885133Y-17254552D01*
X72885133Y-17397409D01*
X72837514Y-17587885D01*
X72789895Y-17683123D01*
X72694657Y-17778361D01*
X72551800Y-17825980D01*
X72313704Y-17825980D01*
X61382495Y-13838228D02*
X62144400Y-13838228D01*
X61763447Y-14219180D02*
X61763447Y-13457276D01*
X63144400Y-14219180D02*
X62572971Y-14219180D01*
X62858685Y-14219180D02*
X62858685Y-13219180D01*
X62763447Y-13362038D01*
X62668209Y-13457276D01*
X62572971Y-13504895D01*
X63525352Y-13314419D02*
X63572971Y-13266800D01*
X63668209Y-13219180D01*
X63906304Y-13219180D01*
X64001542Y-13266800D01*
X64049161Y-13314419D01*
X64096780Y-13409657D01*
X64096780Y-13504895D01*
X64049161Y-13647752D01*
X63477733Y-14219180D01*
X64096780Y-14219180D01*
X64382495Y-13219180D02*
X64715828Y-14219180D01*
X65049161Y-13219180D01*
X34872918Y-36318401D02*
X35310657Y-36685709D01*
X34449000Y-37268099D02*
X35091787Y-36502055D01*
X35288001Y-37972105D02*
X34923218Y-37666016D01*
X35566005Y-36899971D01*
X36332050Y-37542759D02*
X36405006Y-37603977D01*
X36447354Y-37701673D01*
X36453224Y-37768760D01*
X36428484Y-37872326D01*
X36342527Y-38048848D01*
X36189482Y-38231239D01*
X36030568Y-38346544D01*
X35932872Y-38388891D01*
X35865784Y-38394761D01*
X35762219Y-38370021D01*
X35689262Y-38308803D01*
X35646915Y-38211107D01*
X35641045Y-38144020D01*
X35665785Y-38040454D01*
X35751742Y-37863932D01*
X35904787Y-37681541D01*
X36063701Y-37566236D01*
X36161397Y-37523889D01*
X36228484Y-37518019D01*
X36332050Y-37542759D01*
X36842746Y-37971284D02*
X37353442Y-38399809D01*
X36382350Y-38890373D01*
X37403743Y-39747423D02*
X36966003Y-39380116D01*
X37184873Y-39563769D02*
X37827660Y-38797725D01*
X37662877Y-38845942D01*
X37528703Y-38857681D01*
X37425137Y-38832941D01*
X71083815Y-47349761D02*
X71246682Y-47797234D01*
X70306990Y-48139254D01*
X70363582Y-46902453D02*
X70477589Y-47215684D01*
X70969809Y-47036530D02*
X70030116Y-47378551D01*
X69867249Y-46931078D01*
X69769529Y-46662594D02*
X69557803Y-46080880D01*
X70029787Y-46263817D01*
X69980927Y-46129575D01*
X69993101Y-46023794D01*
X70021562Y-45962760D01*
X70094770Y-45885440D01*
X70318506Y-45804006D01*
X70424287Y-45816180D01*
X70485321Y-45844641D01*
X70562642Y-45917849D01*
X70660362Y-46186332D01*
X70648188Y-46292114D01*
X70619727Y-46353147D01*
X69248356Y-45230682D02*
X69411223Y-45678154D01*
X69874982Y-45560035D01*
X69813948Y-45531574D01*
X69736627Y-45458366D01*
X69655194Y-45234630D01*
X69667368Y-45128849D01*
X69695828Y-45067815D01*
X69769036Y-44990494D01*
X69992773Y-44909061D01*
X70098554Y-44921235D01*
X70159588Y-44949696D01*
X70236908Y-45022903D01*
X70318342Y-45246640D01*
X70306168Y-45352421D01*
X70277707Y-45413455D01*
X68938909Y-44380484D02*
X69004056Y-44559473D01*
X69081376Y-44632681D01*
X69142410Y-44661141D01*
X69309225Y-44701776D01*
X69504501Y-44681376D01*
X69862479Y-44551083D01*
X69935687Y-44473762D01*
X69964148Y-44412728D01*
X69976322Y-44306947D01*
X69911175Y-44127958D01*
X69833854Y-44054750D01*
X69772820Y-44026290D01*
X69667039Y-44014116D01*
X69443303Y-44095549D01*
X69370095Y-44172870D01*
X69341634Y-44233904D01*
X69329460Y-44339685D01*
X69394607Y-44518674D01*
X69471928Y-44591882D01*
X69532962Y-44620342D01*
X69638743Y-44632516D01*
X83412702Y-57222843D02*
X83249835Y-57670316D01*
X82310142Y-57328296D01*
X83148495Y-56417228D02*
X83034488Y-56730459D01*
X83526708Y-56909612D02*
X82587016Y-56567592D01*
X82749882Y-56120119D01*
X82847603Y-55851636D02*
X83059329Y-55269921D01*
X83303301Y-55713446D01*
X83352161Y-55579204D01*
X83429481Y-55505996D01*
X83490515Y-55477535D01*
X83596296Y-55465361D01*
X83820033Y-55546795D01*
X83893241Y-55624115D01*
X83921701Y-55685149D01*
X83933875Y-55790931D01*
X83836155Y-56059414D01*
X83758835Y-56132622D01*
X83697801Y-56161083D01*
X83368776Y-54419723D02*
X83205909Y-54867196D01*
X83637095Y-55074810D01*
X83608635Y-55013776D01*
X83596461Y-54907995D01*
X83677894Y-54684258D01*
X83755215Y-54611051D01*
X83816249Y-54582590D01*
X83922030Y-54570416D01*
X84145766Y-54651849D01*
X84218974Y-54729170D01*
X84247435Y-54790204D01*
X84259609Y-54895985D01*
X84178175Y-55119722D01*
X84100855Y-55192929D01*
X84039821Y-55221390D01*
X83678223Y-53569525D02*
X83613076Y-53748514D01*
X83625250Y-53854295D01*
X83653711Y-53915329D01*
X83755379Y-54053684D01*
X83918082Y-54163578D01*
X84276060Y-54293871D01*
X84381841Y-54281697D01*
X84442875Y-54253237D01*
X84520195Y-54180029D01*
X84585342Y-54001040D01*
X84573168Y-53895259D01*
X84544708Y-53834225D01*
X84471500Y-53756904D01*
X84247763Y-53675471D01*
X84141982Y-53687645D01*
X84080948Y-53716105D01*
X84003628Y-53789313D01*
X83938481Y-53968302D01*
X83950655Y-54074083D01*
X83979115Y-54135117D01*
X84052323Y-54212438D01*
X89419201Y-68443113D02*
X89181105Y-68030720D01*
X90047131Y-67530720D01*
X90206166Y-68758558D02*
X90039500Y-68469883D01*
X89585867Y-68731788D02*
X90451893Y-68231788D01*
X90689988Y-68644181D01*
X90832845Y-68891617D02*
X91142369Y-69427728D01*
X90645788Y-69329529D01*
X90717216Y-69453247D01*
X90723596Y-69559535D01*
X90706166Y-69624583D01*
X90647497Y-69713442D01*
X90441301Y-69832489D01*
X90335013Y-69838869D01*
X90269964Y-69821439D01*
X90181105Y-69762770D01*
X90038248Y-69515334D01*
X90031868Y-69409046D01*
X90049298Y-69343998D01*
X91594750Y-70211274D02*
X91356655Y-69798881D01*
X90920452Y-69995737D01*
X90985501Y-70013167D01*
X91074359Y-70071836D01*
X91193407Y-70278033D01*
X91199787Y-70384321D01*
X91182357Y-70449370D01*
X91123688Y-70538228D01*
X90917491Y-70657276D01*
X90811203Y-70663655D01*
X90746154Y-70646226D01*
X90657296Y-70587556D01*
X90538248Y-70381360D01*
X90531868Y-70275072D01*
X90549298Y-70210023D01*
X92047131Y-70994821D02*
X91951893Y-70829864D01*
X91863034Y-70771195D01*
X91797985Y-70753765D01*
X91626649Y-70742715D01*
X91437882Y-70796714D01*
X91107967Y-70987190D01*
X91049298Y-71076048D01*
X91031868Y-71141097D01*
X91038248Y-71247385D01*
X91133486Y-71412343D01*
X91222345Y-71471012D01*
X91287393Y-71488441D01*
X91393682Y-71482062D01*
X91599878Y-71363014D01*
X91658547Y-71274156D01*
X91675977Y-71209107D01*
X91669597Y-71102819D01*
X91574359Y-70937861D01*
X91485501Y-70879192D01*
X91420452Y-70861763D01*
X91314164Y-70868142D01*
X58695237Y-88914615D02*
X58247764Y-89077482D01*
X57905744Y-88137790D01*
X59142545Y-88194382D02*
X58829314Y-88308389D01*
X59008468Y-88800609D02*
X58666447Y-87860916D01*
X59113920Y-87698049D01*
X59382404Y-87600329D02*
X59964118Y-87388603D01*
X59781181Y-87860587D01*
X59915423Y-87811727D01*
X60021204Y-87823901D01*
X60082238Y-87852362D01*
X60159558Y-87925570D01*
X60240992Y-88149306D01*
X60228818Y-88255087D01*
X60200357Y-88316121D01*
X60127149Y-88393442D01*
X59858666Y-88491162D01*
X59752884Y-88478988D01*
X59691851Y-88450527D01*
X60814316Y-87079156D02*
X60366844Y-87242023D01*
X60484963Y-87705782D01*
X60513424Y-87644748D01*
X60586632Y-87567427D01*
X60810368Y-87485994D01*
X60916149Y-87498168D01*
X60977183Y-87526628D01*
X61054504Y-87599836D01*
X61135937Y-87823573D01*
X61123763Y-87929354D01*
X61095302Y-87990388D01*
X61022095Y-88067708D01*
X60798358Y-88149142D01*
X60692577Y-88136968D01*
X60631543Y-88108507D01*
X61664514Y-86769709D02*
X61485525Y-86834856D01*
X61412317Y-86912176D01*
X61383857Y-86973210D01*
X61343222Y-87140025D01*
X61363622Y-87335301D01*
X61493915Y-87693279D01*
X61571236Y-87766487D01*
X61632270Y-87794948D01*
X61738051Y-87807122D01*
X61917040Y-87741975D01*
X61990248Y-87664654D01*
X62018708Y-87603620D01*
X62030882Y-87497839D01*
X61949449Y-87274103D01*
X61872128Y-87200895D01*
X61811094Y-87172434D01*
X61705313Y-87160260D01*
X61526324Y-87225407D01*
X61453116Y-87302728D01*
X61424656Y-87363762D01*
X61412482Y-87469543D01*
X35313131Y-74000761D02*
X35412359Y-73438014D01*
X36347553Y-73893036D02*
X35362745Y-73719387D01*
X36537739Y-72814437D02*
X36455049Y-73283393D01*
X35470242Y-73109744D01*
X35643890Y-72124937D02*
X35660428Y-72031145D01*
X35723861Y-71945623D01*
X35779026Y-71906997D01*
X35881086Y-71876639D01*
X36076937Y-71862819D01*
X36311415Y-71904164D01*
X36490729Y-71984135D01*
X36576251Y-72047569D01*
X36614878Y-72102733D01*
X36645235Y-72204794D01*
X36628697Y-72298585D01*
X36565264Y-72384107D01*
X36510099Y-72422734D01*
X36408039Y-72453091D01*
X36212188Y-72466911D01*
X35977710Y-72425566D01*
X35798396Y-72345595D01*
X35712874Y-72282161D01*
X35674247Y-72226997D01*
X35643890Y-72124937D01*
X36223060Y-71308341D02*
X36159627Y-71393863D01*
X36104462Y-71432490D01*
X36002402Y-71462847D01*
X35955507Y-71454578D01*
X35869984Y-71391145D01*
X35831358Y-71335980D01*
X35801000Y-71233920D01*
X35834076Y-71046338D01*
X35897509Y-70960815D01*
X35952674Y-70922189D01*
X36054734Y-70891831D01*
X36101630Y-70900100D01*
X36187152Y-70963534D01*
X36225779Y-71018698D01*
X36256136Y-71120758D01*
X36223060Y-71308341D01*
X36253418Y-71410401D01*
X36292045Y-71465566D01*
X36377567Y-71528999D01*
X36565149Y-71562075D01*
X36667210Y-71531717D01*
X36722374Y-71493091D01*
X36785808Y-71407568D01*
X36818884Y-71219986D01*
X36788526Y-71117926D01*
X36749899Y-71062761D01*
X36664377Y-70999328D01*
X36476795Y-70966252D01*
X36374734Y-70996609D01*
X36319570Y-71035236D01*
X36256136Y-71120758D01*
X36344262Y-70072517D02*
X37000801Y-70188283D01*
X35927753Y-70240843D02*
X36589842Y-70599356D01*
X36697338Y-69989713D01*
X75787788Y-85908877D02*
X75903553Y-85252338D01*
X76813940Y-85848047D01*
X76372395Y-84512996D02*
X77028933Y-84628761D01*
X75955885Y-84681322D02*
X76617974Y-85039834D01*
X76725471Y-84430191D01*
X77119892Y-84112909D02*
X76135084Y-83939261D01*
X76604040Y-84021951D02*
X76703268Y-83459203D01*
X77219119Y-83550162D02*
X76234311Y-83376514D01*
X77307245Y-82501921D02*
X77345872Y-82557085D01*
X77367961Y-82706041D01*
X77351423Y-82799832D01*
X77279720Y-82932250D01*
X77169391Y-83009503D01*
X77067331Y-83039861D01*
X76871479Y-83053681D01*
X76730793Y-83028874D01*
X76551479Y-82948903D01*
X76465957Y-82885469D01*
X76388704Y-82775140D01*
X76366615Y-82626184D01*
X76383153Y-82532393D01*
X76454855Y-82399975D01*
X76510020Y-82361348D01*
X76893339Y-81558572D02*
X77549878Y-81674338D01*
X76476829Y-81726899D02*
X77138919Y-82085411D01*
X77246415Y-81475768D01*
X76689104Y-80797255D02*
X76705642Y-80703464D01*
X76769076Y-80617942D01*
X76824240Y-80579315D01*
X76926301Y-80548958D01*
X77122152Y-80535138D01*
X77356630Y-80576483D01*
X77535943Y-80656454D01*
X77621466Y-80719888D01*
X77660092Y-80775052D01*
X77690450Y-80877112D01*
X77673912Y-80970904D01*
X77610479Y-81056426D01*
X77555314Y-81095053D01*
X77453254Y-81125410D01*
X77257402Y-81139230D01*
X77022924Y-81097885D01*
X76843611Y-81017914D01*
X76758089Y-80954480D01*
X76719462Y-80899316D01*
X76689104Y-80797255D01*
X76904097Y-79577970D02*
X76821408Y-80046926D01*
X77282095Y-80176511D01*
X77243468Y-80121346D01*
X77213110Y-80019286D01*
X77254455Y-79784808D01*
X77317889Y-79699286D01*
X77373053Y-79660659D01*
X77475114Y-79630302D01*
X77709592Y-79671646D01*
X77795114Y-79735080D01*
X77833740Y-79790244D01*
X77864098Y-79892305D01*
X77822753Y-80126783D01*
X77759320Y-80212305D01*
X77704155Y-80250932D01*
X77072309Y-79172447D02*
X77033683Y-79117283D01*
X77003325Y-79015222D01*
X77044670Y-78780744D01*
X77108103Y-78695222D01*
X77163268Y-78656595D01*
X77265328Y-78626238D01*
X77359119Y-78642776D01*
X77491537Y-78714478D01*
X77955057Y-79376453D01*
X78062553Y-78766810D01*
X60209180Y-71860895D02*
X60209180Y-71194228D01*
X61209180Y-71622800D01*
X60542514Y-70384704D02*
X61209180Y-70384704D01*
X60161561Y-70622800D02*
X60875847Y-70860895D01*
X60875847Y-70241847D01*
X61209180Y-69860895D02*
X60209180Y-69860895D01*
X60685371Y-69860895D02*
X60685371Y-69289466D01*
X61209180Y-69289466D02*
X60209180Y-69289466D01*
X61113942Y-68241847D02*
X61161561Y-68289466D01*
X61209180Y-68432323D01*
X61209180Y-68527561D01*
X61161561Y-68670419D01*
X61066323Y-68765657D01*
X60971085Y-68813276D01*
X60780609Y-68860895D01*
X60637752Y-68860895D01*
X60447276Y-68813276D01*
X60352038Y-68765657D01*
X60256800Y-68670419D01*
X60209180Y-68527561D01*
X60209180Y-68432323D01*
X60256800Y-68289466D01*
X60304419Y-68241847D01*
X60542514Y-67384704D02*
X61209180Y-67384704D01*
X60161561Y-67622800D02*
X60875847Y-67860895D01*
X60875847Y-67241847D01*
X60209180Y-66670419D02*
X60209180Y-66575180D01*
X60256800Y-66479942D01*
X60304419Y-66432323D01*
X60399657Y-66384704D01*
X60590133Y-66337085D01*
X60828228Y-66337085D01*
X61018704Y-66384704D01*
X61113942Y-66432323D01*
X61161561Y-66479942D01*
X61209180Y-66575180D01*
X61209180Y-66670419D01*
X61161561Y-66765657D01*
X61113942Y-66813276D01*
X61018704Y-66860895D01*
X60828228Y-66908514D01*
X60590133Y-66908514D01*
X60399657Y-66860895D01*
X60304419Y-66813276D01*
X60256800Y-66765657D01*
X60209180Y-66670419D01*
X60209180Y-65432323D02*
X60209180Y-65908514D01*
X60685371Y-65956133D01*
X60637752Y-65908514D01*
X60590133Y-65813276D01*
X60590133Y-65575180D01*
X60637752Y-65479942D01*
X60685371Y-65432323D01*
X60780609Y-65384704D01*
X61018704Y-65384704D01*
X61113942Y-65432323D01*
X61161561Y-65479942D01*
X61209180Y-65575180D01*
X61209180Y-65813276D01*
X61161561Y-65908514D01*
X61113942Y-65956133D01*
X60304419Y-65003752D02*
X60256800Y-64956133D01*
X60209180Y-64860895D01*
X60209180Y-64622800D01*
X60256800Y-64527561D01*
X60304419Y-64479942D01*
X60399657Y-64432323D01*
X60494895Y-64432323D01*
X60637752Y-64479942D01*
X61209180Y-65051371D01*
X61209180Y-64432323D01*
D12*
X62667808Y-28240648D02*
G75*
G03X62667808Y-28240648I-2120000J0D01*
G01*
X60908996Y-26192248D02*
X60186620Y-30289048D01*
X60948388Y-26199194D02*
X60226012Y-30295994D01*
X60987607Y-26207125D02*
X60265578Y-30301955D01*
X61026652Y-26216040D02*
X60305317Y-30306932D01*
X61065523Y-26225941D02*
X60345231Y-30310923D01*
X61104395Y-26235841D02*
X60890634Y-27448139D01*
X60598905Y-29102616D02*
X60385144Y-30314915D01*
X61143092Y-26246726D02*
X60930026Y-27455085D01*
X60638297Y-29109562D02*
X60425231Y-30317921D01*
X61181616Y-26258596D02*
X60969418Y-27462031D01*
X60677689Y-29116508D02*
X60465491Y-30319943D01*
X61219967Y-26271451D02*
X61008811Y-27468977D01*
X60717082Y-29123454D02*
X60505926Y-30320980D01*
X61258317Y-26284306D02*
X61048203Y-27475923D01*
X60756474Y-29130400D02*
X60546360Y-30322017D01*
X61296320Y-26299130D02*
X61087595Y-27482869D01*
X60795866Y-29137346D02*
X60587141Y-30321085D01*
X61334324Y-26313954D02*
X61126988Y-27489815D01*
X60835259Y-29144292D02*
X60627923Y-30320152D01*
X61372153Y-26329764D02*
X61166380Y-27496761D01*
X60874651Y-29151238D02*
X60668878Y-30318235D01*
X61409983Y-26345573D02*
X61205772Y-27503707D01*
X60914043Y-29158184D02*
X60709833Y-30316318D01*
X61447465Y-26363352D02*
X61245165Y-27510653D01*
X60953436Y-29165130D02*
X60751135Y-30312431D01*
X61484947Y-26381130D02*
X61284557Y-27517599D01*
X60992828Y-29172076D02*
X60792438Y-30308544D01*
X61522255Y-26399894D02*
X61323949Y-27524544D01*
X61032220Y-29179022D02*
X60833914Y-30303672D01*
X61559217Y-26420627D02*
X61363341Y-27531490D01*
X61071613Y-29185967D02*
X60875737Y-30296831D01*
X61597163Y-26441534D02*
X61403719Y-27538610D01*
X61111990Y-29193087D02*
X60918546Y-30290163D01*
X61634124Y-26462267D02*
X61443111Y-27545556D01*
X61151382Y-29200033D02*
X60960369Y-30283321D01*
X61670738Y-26484970D02*
X61482503Y-27552502D01*
X61190774Y-29206979D02*
X61002540Y-30274510D01*
X61707178Y-26508658D02*
X61521896Y-27559448D01*
X61230167Y-29213925D02*
X61044884Y-30264715D01*
X61743445Y-26533330D02*
X61561288Y-27566394D01*
X61269559Y-29220871D02*
X61087402Y-30253934D01*
X61779538Y-26558988D02*
X61600680Y-27573340D01*
X61308951Y-29227817D02*
X61130094Y-30242169D01*
X61815631Y-26584645D02*
X61640072Y-27580286D01*
X61348344Y-29234763D02*
X61172785Y-30230403D01*
X61851376Y-26612272D02*
X61679465Y-27587231D01*
X61387736Y-29241709D02*
X61215824Y-30216668D01*
X61886949Y-26640884D02*
X61718857Y-27594177D01*
X61427128Y-29248654D02*
X61259037Y-30201948D01*
X61922347Y-26670480D02*
X61758249Y-27601123D01*
X61466520Y-29255600D02*
X61302423Y-30186244D01*
X61957398Y-26702046D02*
X61797642Y-27608069D01*
X61505913Y-29262546D02*
X61346156Y-30168569D01*
X61992449Y-26733612D02*
X61837034Y-27615015D01*
X61545305Y-29269492D02*
X61389890Y-30150895D01*
X62027153Y-26767148D02*
X61876426Y-27621961D01*
X61584697Y-29276438D02*
X61433971Y-30131251D01*
X62061683Y-26801669D02*
X61915819Y-27628907D01*
X61624090Y-29283384D02*
X61478225Y-30110623D01*
X62095866Y-26838159D02*
X61955211Y-27635853D01*
X61663482Y-29290330D02*
X61522827Y-30088024D01*
X62129875Y-26875634D02*
X61994603Y-27642799D01*
X61702874Y-29297276D02*
X61567602Y-30064441D01*
X62163711Y-26914093D02*
X62033996Y-27649745D01*
X61742267Y-29304222D02*
X61612551Y-30039873D01*
X62197025Y-26955508D02*
X62073388Y-27656691D01*
X61781659Y-29311168D02*
X61658021Y-30012351D01*
X62230166Y-26997907D02*
X62112780Y-27663637D01*
X61821051Y-29318114D02*
X61703665Y-29983844D01*
X62262960Y-27042275D02*
X62152173Y-27670583D01*
X61860444Y-29325060D02*
X61749656Y-29953367D01*
X62295406Y-27088614D02*
X62191565Y-27677529D01*
X61899836Y-29332006D02*
X61795994Y-29920921D01*
X62327506Y-27136921D02*
X62230957Y-27684474D01*
X61939228Y-29338951D02*
X61842680Y-29886505D01*
X62359084Y-27188184D02*
X62270349Y-27691420D01*
X61978620Y-29345897D02*
X61889886Y-29849134D01*
X62390314Y-27241416D02*
X62309742Y-27698366D01*
X62018013Y-29352843D02*
X61937440Y-29809794D01*
X62421024Y-27297602D02*
X62349134Y-27705312D01*
X62057405Y-29359789D02*
X61985515Y-29767500D01*
X62451040Y-27357727D02*
X62388526Y-27712258D01*
X62096797Y-29366735D02*
X62034284Y-29721266D01*
X62480360Y-27421792D02*
X62427919Y-27719204D01*
X62136190Y-29373681D02*
X62083748Y-29671093D01*
X62508987Y-27489796D02*
X62467311Y-27726150D01*
X62175582Y-29380627D02*
X62133906Y-29616981D01*
X62536744Y-27562724D02*
X62184933Y-29557945D01*
X62563460Y-27641561D02*
X62237002Y-29493000D01*
X62588787Y-27728276D02*
X62290460Y-29420176D01*
X62612378Y-27824840D02*
X62345654Y-29337505D01*
X62633710Y-27934206D02*
X62403106Y-29242031D01*
X62651049Y-28066222D02*
X62464551Y-29123906D01*
X62661443Y-28237631D02*
X62532943Y-28966389D01*
X58520000Y-26669656D02*
X58913923Y-26739115D01*
X58751691Y-26507424D02*
X58682232Y-26901347D01*
X68071977Y-30922796D02*
X67765559Y-31179911D01*
X67790211Y-30898145D02*
X68047326Y-31204563D01*
X69954865Y-34761352D02*
X69387992Y-35237014D01*
X70057083Y-34623364D02*
X69234351Y-35313718D01*
X70128659Y-34511088D02*
X69111352Y-35364710D01*
X70182616Y-34413597D02*
X69005972Y-35400918D01*
X70226615Y-34324461D02*
X68910550Y-35428770D01*
X70262953Y-34241754D02*
X68822789Y-35450194D01*
X70293163Y-34164188D02*
X68741157Y-35466476D01*
X68847971Y-35324632D02*
X68664120Y-35478901D01*
X70318776Y-34090480D02*
X70134925Y-34244749D01*
X68822259Y-35293990D02*
X68590914Y-35488112D01*
X70340559Y-34019985D02*
X70109214Y-34214107D01*
X68796548Y-35263349D02*
X68520772Y-35494752D01*
X70359278Y-33952062D02*
X70083502Y-34183465D01*
X68770836Y-35232707D02*
X68453694Y-35498821D01*
X70374933Y-33886709D02*
X70057791Y-34152824D01*
X68745125Y-35202065D02*
X68389680Y-35500318D01*
X70387524Y-33823928D02*
X70032079Y-34122182D01*
X68719413Y-35171423D02*
X68327965Y-35499888D01*
X70397817Y-33763076D02*
X70006368Y-34091540D01*
X68693702Y-35140781D02*
X68267781Y-35498171D01*
X70406577Y-33703508D02*
X69980656Y-34060898D01*
X68667990Y-35110140D02*
X68209896Y-35494527D01*
X70413039Y-33645869D02*
X69954945Y-34030256D01*
X68642279Y-35079498D02*
X68153542Y-35489596D01*
X70417970Y-33589516D02*
X69929233Y-33999615D01*
X68616567Y-35048856D02*
X68098721Y-35483381D01*
X70421368Y-33534448D02*
X69903522Y-33968973D01*
X68590856Y-35018214D02*
X68045432Y-35475879D01*
X70423234Y-33480666D02*
X69877810Y-33938331D01*
X68565144Y-34987573D02*
X67992909Y-35467735D01*
X70424334Y-33427527D02*
X69852099Y-33907689D01*
X68539433Y-34956931D02*
X67942684Y-35457662D01*
X70423136Y-33376316D02*
X69826387Y-33877048D01*
X68513721Y-34926289D02*
X67893225Y-35446947D01*
X70421172Y-33325748D02*
X69800676Y-33846406D01*
X68488010Y-34895647D02*
X67844532Y-35435589D01*
X70418442Y-33275822D02*
X69774964Y-33815764D01*
X68462298Y-34865005D02*
X67797372Y-35422945D01*
X70414179Y-33227183D02*
X69749253Y-33785122D01*
X68436587Y-34834364D02*
X67750977Y-35409659D01*
X70409151Y-33179186D02*
X69723541Y-33754480D01*
X68410875Y-34803722D02*
X67706114Y-35395086D01*
X70402591Y-33132474D02*
X69697830Y-33723839D01*
X68385164Y-34773080D02*
X67661252Y-35380514D01*
X70396030Y-33085763D02*
X69672118Y-33693197D01*
X68359452Y-34742438D02*
X67617921Y-35364657D01*
X70387938Y-33040337D02*
X69646407Y-33662555D01*
X68333741Y-34711797D02*
X67575357Y-35348156D01*
X70379079Y-32995554D02*
X69620695Y-33631913D01*
X68308029Y-34681155D02*
X67533558Y-35331013D01*
X70369455Y-32951413D02*
X69594984Y-33601272D01*
X68282318Y-34650513D02*
X67493292Y-35312584D01*
X70358298Y-32908559D02*
X69569272Y-33570630D01*
X68256606Y-34619871D02*
X67453026Y-35294155D01*
X70347141Y-32865704D02*
X69543561Y-33539988D01*
X68230895Y-34589229D02*
X67413525Y-35275084D01*
X70335219Y-32823492D02*
X69517849Y-33509346D01*
X68205183Y-34558588D02*
X67374791Y-35255369D01*
X70322530Y-32781923D02*
X69492138Y-33478704D01*
X68179472Y-34527946D02*
X67336823Y-35235012D01*
X70309075Y-32740996D02*
X69466426Y-33448063D01*
X68153760Y-34497304D02*
X67300387Y-35213369D01*
X70294088Y-32701355D02*
X69440715Y-33417421D01*
X68127406Y-34465896D02*
X67263308Y-35190961D01*
X70278459Y-32660949D02*
X69414361Y-33386013D01*
X68101694Y-34435254D02*
X67226872Y-35169318D01*
X70263472Y-32621308D02*
X69388649Y-33355371D01*
X68075983Y-34404613D02*
X67191968Y-35146390D01*
X70246953Y-32582953D02*
X69362938Y-33324730D01*
X68050271Y-34373971D02*
X67157830Y-35122818D01*
X70229668Y-32545240D02*
X69337226Y-33294088D01*
X68024560Y-34343329D02*
X67123692Y-35099247D01*
X70212383Y-32507528D02*
X69311514Y-33263446D01*
X67998848Y-34312687D02*
X67091086Y-35074391D01*
X70193566Y-32471101D02*
X69285803Y-33232804D01*
X67973137Y-34282046D02*
X67058480Y-35049534D01*
X70174749Y-32434674D02*
X69260091Y-33202162D01*
X67947425Y-34251404D02*
X67026640Y-35024035D01*
X70155165Y-32398890D02*
X69234380Y-33171521D01*
X67921714Y-34220762D02*
X66994800Y-34998535D01*
X70135582Y-32363106D02*
X69208668Y-33140879D01*
X67896002Y-34190120D02*
X66964492Y-34971750D01*
X70114467Y-32328607D02*
X69182957Y-33110237D01*
X67870291Y-34159478D02*
X66934184Y-34944965D01*
X70093352Y-32294109D02*
X69157245Y-33079595D01*
X67844579Y-34128837D02*
X66904643Y-34917537D01*
X70071470Y-32260253D02*
X69131534Y-33048954D01*
X67818868Y-34098195D02*
X66875867Y-34889466D01*
X70048823Y-32227040D02*
X69105822Y-33018312D01*
X70025410Y-32194470D02*
X66847857Y-34860753D01*
X70001996Y-32161900D02*
X66819848Y-34832040D01*
X69977817Y-32129973D02*
X66792604Y-34802683D01*
X69952872Y-32098688D02*
X66766127Y-34772684D01*
X69927160Y-32068046D02*
X66740415Y-34742043D01*
X70453788Y-33405044D02*
G75*
G03X70453788Y-33405044I-2120000J0D01*
G01*
X36843450Y-25958118D02*
X30040076Y-23481893D01*
X37780585Y-23383361D02*
X30977211Y-20907135D01*
X36843450Y-25958118D02*
X37780585Y-23383361D01*
X30040076Y-23481893D02*
X30977211Y-20907135D01*
X46211519Y-62703310D02*
X44954306Y-69833318D01*
X43513145Y-62227514D02*
X42255933Y-69357522D01*
X46211519Y-62703310D02*
X43513145Y-62227514D01*
X44954306Y-69833318D02*
X42255933Y-69357522D01*
X31120847Y-67366211D02*
X28422474Y-66890415D01*
X32378060Y-60236203D02*
X29679686Y-59760407D01*
X29679686Y-59760407D02*
X28422474Y-66890415D01*
X32378060Y-60236203D02*
X31120847Y-67366211D01*
X55311082Y-92712793D02*
X52736324Y-93649928D01*
X52834856Y-85909419D02*
X50260099Y-86846554D01*
X50260099Y-86846554D02*
X52736324Y-93649928D01*
X52834856Y-85909419D02*
X55311082Y-92712793D01*
X67226489Y-53318185D02*
X74029863Y-50841959D01*
X68163624Y-55892942D02*
X74966998Y-53416717D01*
X67226489Y-53318185D02*
X68163624Y-55892942D01*
X74029863Y-50841959D02*
X74966998Y-53416717D01*
X83309020Y-61443296D02*
X82371885Y-64018054D01*
X76505646Y-58967071D02*
X75568511Y-61541828D01*
X75568511Y-61541828D02*
X82371885Y-64018054D01*
X76505646Y-58967071D02*
X83309020Y-61443296D01*
X88521830Y-76688003D02*
X94791853Y-73068003D01*
X89891830Y-79060913D02*
X96161853Y-75440913D01*
X88521830Y-76688003D02*
X89891830Y-79060913D01*
X94791853Y-73068003D02*
X96161853Y-75440913D01*
X27081341Y-72901168D02*
X29779714Y-73376964D01*
X25824128Y-80031176D02*
X28522502Y-80506972D01*
X28522502Y-80506972D02*
X29779714Y-73376964D01*
X25824128Y-80031176D02*
X27081341Y-72901168D01*
X39744022Y-83746097D02*
X41001235Y-76616089D01*
X42442396Y-84221893D02*
X43699608Y-77091885D01*
X39744022Y-83746097D02*
X42442396Y-84221893D01*
X41001235Y-76616089D02*
X43699608Y-77091885D01*
X46217992Y-39812806D02*
X46373876Y-39902806D01*
X46373876Y-39902806D02*
X44653876Y-42881933D01*
X44653876Y-42881933D02*
X44497992Y-42791933D01*
X44070248Y-38572806D02*
X43914364Y-38482806D01*
X43914364Y-38482806D02*
X42194364Y-41461933D01*
X42194364Y-41461933D02*
X42350248Y-41551933D01*
X46073876Y-40422421D02*
X43614364Y-39002421D01*
X46013876Y-40526344D02*
X43554364Y-39106344D01*
X46133876Y-40318498D02*
X43674364Y-38898498D01*
X60873865Y-17262397D02*
X57808135Y-15492397D01*
X57808135Y-15492397D02*
X54188135Y-21762421D01*
X54188135Y-21762421D02*
X57253865Y-23532421D01*
X57253865Y-23532421D02*
X60873865Y-17262397D01*
X59551000Y-16013666D02*
X59341000Y-16377397D01*
X55511000Y-23011152D02*
X55721000Y-22647421D01*
X75831000Y-32155152D02*
X76041000Y-31791421D01*
X79871000Y-25157666D02*
X79661000Y-25521397D01*
X77573865Y-32676421D02*
X81193865Y-26406397D01*
X74508135Y-30906421D02*
X77573865Y-32676421D01*
X78128135Y-24636397D02*
X74508135Y-30906421D01*
X81193865Y-26406397D02*
X78128135Y-24636397D01*
X38934454Y-51918475D02*
X38722334Y-52171270D01*
X38722334Y-52171270D02*
X33712403Y-47967439D01*
X33712403Y-47967439D02*
X33924523Y-47714644D01*
X40271452Y-50325102D02*
X40483572Y-50072308D01*
X40483572Y-50072308D02*
X35473641Y-45868477D01*
X35473641Y-45868477D02*
X35261521Y-46121272D01*
X33439467Y-18019106D02*
X33326600Y-18329205D01*
X39585057Y-20255918D02*
X33439467Y-18019106D01*
X39472190Y-20566017D02*
X39585057Y-20255918D01*
X32502332Y-20593864D02*
X32615198Y-20283766D01*
X38647921Y-22830676D02*
X32502332Y-20593864D01*
X38760788Y-22520577D02*
X38647921Y-22830676D01*
X42817002Y-73243294D02*
X42929868Y-73553392D01*
X48962591Y-71006482D02*
X42817002Y-73243294D01*
X49075458Y-71316581D02*
X48962591Y-71006482D01*
X43754137Y-75818052D02*
X43641270Y-75507953D01*
X49899727Y-73581240D02*
X43754137Y-75818052D01*
X49786860Y-73271141D02*
X49899727Y-73581240D01*
X33101627Y-29261153D02*
X33266627Y-28975364D01*
X27437821Y-25991153D02*
X33101627Y-29261153D01*
X27602821Y-25705364D02*
X27437821Y-25991153D01*
X34471627Y-26888243D02*
X34306627Y-27174032D01*
X28807821Y-23618243D02*
X34471627Y-26888243D01*
X28642821Y-23904032D02*
X28807821Y-23618243D01*
X45389003Y-26772094D02*
X45641798Y-26984214D01*
X45641798Y-26984214D02*
X41437967Y-31994145D01*
X41437967Y-31994145D02*
X41185172Y-31782025D01*
X43795630Y-25435096D02*
X43542836Y-25222976D01*
X43542836Y-25222976D02*
X39339005Y-30232907D01*
X39339005Y-30232907D02*
X39591800Y-30445027D01*
X33267563Y-32226241D02*
X33520358Y-32438361D01*
X33520358Y-32438361D02*
X29316527Y-37448292D01*
X29316527Y-37448292D02*
X29063732Y-37236172D01*
X31674190Y-30889243D02*
X31421396Y-30677123D01*
X31421396Y-30677123D02*
X27217565Y-35687054D01*
X27217565Y-35687054D02*
X27470360Y-35899174D01*
X36702973Y-28192265D02*
X36955768Y-28404385D01*
X40906804Y-23182334D02*
X36702973Y-28192265D01*
X41159598Y-23394454D02*
X40906804Y-23182334D01*
X38801935Y-29953503D02*
X38549140Y-29741383D01*
X43005766Y-24943572D02*
X38801935Y-29953503D01*
X42752971Y-24731452D02*
X43005766Y-24943572D01*
X49255286Y-62773668D02*
X49580273Y-62830972D01*
X49580273Y-62830972D02*
X48444614Y-69271615D01*
X48444614Y-69271615D02*
X48119627Y-69214311D01*
X47206886Y-62412480D02*
X46881899Y-62355176D01*
X46881899Y-62355176D02*
X45746240Y-68795819D01*
X45746240Y-68795819D02*
X46071227Y-68853123D01*
X21709477Y-65322207D02*
X21379477Y-65322207D01*
X21379477Y-65322207D02*
X21379477Y-58782207D01*
X21379477Y-58782207D02*
X21709477Y-58782207D01*
X23789477Y-65322207D02*
X24119477Y-65322207D01*
X24119477Y-65322207D02*
X24119477Y-58782207D01*
X24119477Y-58782207D02*
X23789477Y-58782207D01*
X20939831Y-60463074D02*
X20609831Y-60463074D01*
X20939831Y-67003074D02*
X20939831Y-60463074D01*
X20609831Y-67003074D02*
X20939831Y-67003074D01*
X18199831Y-60463074D02*
X18529831Y-60463074D01*
X18199831Y-67003074D02*
X18199831Y-60463074D01*
X18529831Y-67003074D02*
X18199831Y-67003074D01*
X48519852Y-28919263D02*
X48829951Y-29032130D01*
X48829951Y-29032130D02*
X46593139Y-35177719D01*
X46593139Y-35177719D02*
X46283041Y-35064853D01*
X46565292Y-28207861D02*
X46255193Y-28094994D01*
X46255193Y-28094994D02*
X44018381Y-34240584D01*
X44018381Y-34240584D02*
X44328480Y-34353451D01*
X24885993Y-66650042D02*
X25215993Y-66650042D01*
X24885993Y-60110042D02*
X24885993Y-66650042D01*
X25215993Y-60110042D02*
X24885993Y-60110042D01*
X27625993Y-66650042D02*
X27295993Y-66650042D01*
X27625993Y-60110042D02*
X27625993Y-66650042D01*
X27295993Y-60110042D02*
X27625993Y-60110042D01*
X25742318Y-54762420D02*
X25855185Y-54452321D01*
X25855185Y-54452321D02*
X32000774Y-56689133D01*
X32000774Y-56689133D02*
X31887908Y-56999231D01*
X25030916Y-56716980D02*
X24918049Y-57027079D01*
X24918049Y-57027079D02*
X31063639Y-59263891D01*
X31063639Y-59263891D02*
X31176506Y-58953792D01*
X19300815Y-79443057D02*
X19625802Y-79500361D01*
X20436474Y-73002414D02*
X19300815Y-79443057D01*
X20761461Y-73059718D02*
X20436474Y-73002414D01*
X21999189Y-79918853D02*
X21674202Y-79861549D01*
X23134848Y-73478210D02*
X21999189Y-79918853D01*
X22809861Y-73420906D02*
X23134848Y-73478210D01*
X19446377Y-73007602D02*
X19771364Y-73064906D01*
X19771364Y-73064906D02*
X18635705Y-79505549D01*
X18635705Y-79505549D02*
X18310718Y-79448245D01*
X17397977Y-72646414D02*
X17072990Y-72589110D01*
X17072990Y-72589110D02*
X15937331Y-79029753D01*
X15937331Y-79029753D02*
X16262318Y-79087057D01*
X22856265Y-80123596D02*
X22531278Y-80066292D01*
X22531278Y-80066292D02*
X23666937Y-73625649D01*
X23666937Y-73625649D02*
X23991924Y-73682953D01*
X24904665Y-80484784D02*
X25229652Y-80542088D01*
X25229652Y-80542088D02*
X26365311Y-74101445D01*
X26365311Y-74101445D02*
X26040324Y-74044141D01*
X30746505Y-84243324D02*
X30689201Y-83918337D01*
X24305862Y-85378983D02*
X30746505Y-84243324D01*
X24248558Y-85053996D02*
X24305862Y-85378983D01*
X30270709Y-81544950D02*
X30328013Y-81869937D01*
X23830066Y-82680609D02*
X30270709Y-81544950D01*
X23887370Y-83005596D02*
X23830066Y-82680609D01*
X49891045Y-77736477D02*
X50216032Y-77793781D01*
X50216032Y-77793781D02*
X49080373Y-84234424D01*
X49080373Y-84234424D02*
X48755386Y-84177120D01*
X47842645Y-77375289D02*
X47517658Y-77317985D01*
X47517658Y-77317985D02*
X46381999Y-83758628D01*
X46381999Y-83758628D02*
X46706986Y-83815932D01*
X49963104Y-82088732D02*
X50288091Y-82146036D01*
X51098763Y-75648089D02*
X49963104Y-82088732D01*
X51423750Y-75705393D02*
X51098763Y-75648089D01*
X52661478Y-82564528D02*
X52336491Y-82507224D01*
X53797137Y-76123885D02*
X52661478Y-82564528D01*
X53472150Y-76066581D02*
X53797137Y-76123885D01*
X43275415Y-84176794D02*
X42950428Y-84119490D01*
X42950428Y-84119490D02*
X44086087Y-77678847D01*
X44086087Y-77678847D02*
X44411074Y-77736151D01*
X45323815Y-84537982D02*
X45648802Y-84595286D01*
X45648802Y-84595286D02*
X46784461Y-78154643D01*
X46784461Y-78154643D02*
X46459474Y-78097339D01*
X37705940Y-83428372D02*
X37540940Y-83714161D01*
X43369746Y-86698372D02*
X37705940Y-83428372D01*
X43204746Y-86984161D02*
X43369746Y-86698372D01*
X36335940Y-85801282D02*
X36500940Y-85515493D01*
X41999746Y-89071282D02*
X36335940Y-85801282D01*
X42164746Y-88785493D02*
X41999746Y-89071282D01*
X36190823Y-60959765D02*
X36426817Y-60311377D01*
X36284793Y-60993967D02*
X36190823Y-60959765D01*
X42411589Y-63223938D02*
X42497094Y-62989015D01*
X42317619Y-63189736D02*
X42411589Y-63223938D01*
X42249215Y-63377675D02*
X42317619Y-63189736D01*
X40983256Y-62704068D02*
X40914852Y-62892006D01*
X38143758Y-55594121D02*
G75*
G02X39822802Y-54811169I1230998J-448046D01*
G01*
X43581573Y-56179249D02*
G75*
G02X44364524Y-57858294I-448047J-1230998D01*
G01*
X39822802Y-54811169D02*
X41222944Y-55320779D01*
X36782518Y-59334097D02*
X38143759Y-55594120D01*
X44364524Y-57858294D02*
X43153772Y-61184805D01*
X42181431Y-55669640D02*
X43581573Y-56179250D01*
X36216389Y-61181906D02*
X36284793Y-60993967D01*
X37550752Y-61667574D02*
X36216389Y-61181906D01*
X37619156Y-61479636D02*
X37550752Y-61667574D01*
X40983256Y-62704068D02*
X37619156Y-61479636D01*
X42249215Y-63377675D02*
X40914852Y-62892006D01*
X36426817Y-60311377D02*
X36782518Y-59334097D01*
X42497094Y-62989015D02*
X43153772Y-61184805D01*
X41222944Y-55320779D02*
X42181431Y-55669640D01*
X38535700Y-63513740D02*
G75*
G02X36566084Y-63166444I-984808J173648D01*
G01*
X36566084Y-63166444D02*
X34941151Y-62879925D01*
X34941151Y-62879925D02*
X31832849Y-80507983D01*
X31832849Y-80507983D02*
X37052330Y-81428319D01*
X37052330Y-81428319D02*
X40160632Y-63800260D01*
X40160632Y-63800260D02*
X38535699Y-63513740D01*
X32499399Y-62388452D02*
X29370258Y-80134688D01*
X29370258Y-80134688D02*
X39494082Y-81919791D01*
X39494082Y-81919791D02*
X42623222Y-64173555D01*
X42623222Y-64173555D02*
X32499399Y-62388452D01*
X39401620Y-42348324D02*
G75*
G02X40687196Y-40816234I642788J766045D01*
G01*
X40687196Y-40816234D02*
X41747795Y-39552261D01*
X41747795Y-39552261D02*
X33872859Y-32944404D01*
X33872859Y-32944404D02*
X30466084Y-37004440D01*
X30466084Y-37004440D02*
X38341021Y-43612297D01*
X38341021Y-43612297D02*
X39401621Y-42348323D01*
X43394299Y-37683378D02*
X35427437Y-30998387D01*
X35427437Y-30998387D02*
X28819580Y-38873323D01*
X28819580Y-38873323D02*
X36786443Y-45558315D01*
X36786443Y-45558315D02*
X43394299Y-37683378D01*
X61631316Y-58552863D02*
G75*
G02X59631316Y-58552863I-1000000J0D01*
G01*
X59631316Y-58552863D02*
X57981316Y-58552863D01*
X57981316Y-58552863D02*
X57981316Y-78992863D01*
X57981316Y-78992863D02*
X63281316Y-78992863D01*
X63281316Y-78992863D02*
X63281316Y-58552863D01*
X63281316Y-58552863D02*
X61631316Y-58552863D01*
X55491316Y-58492863D02*
X55491316Y-79052863D01*
X55491316Y-79052863D02*
X65771316Y-79052863D01*
X65771316Y-79052863D02*
X65771316Y-58492863D01*
X65771316Y-58492863D02*
X55491316Y-58492863D01*
X59007485Y-35488143D02*
X48727485Y-35488143D01*
X59007485Y-53508143D02*
X59007485Y-35488143D01*
X48727485Y-53508143D02*
X59007485Y-53508143D01*
X48727485Y-35488143D02*
X48727485Y-53508143D01*
X56517485Y-35548143D02*
X54867485Y-35548143D01*
X56517485Y-53448143D02*
X56517485Y-35548143D01*
X51217485Y-53448143D02*
X56517485Y-53448143D01*
X51217485Y-35548143D02*
X51217485Y-53448143D01*
X52867485Y-35548143D02*
X51217485Y-35548143D01*
X54867485Y-35548143D02*
G75*
G02X52867485Y-35548143I-1000000J0D01*
G01*
X66472916Y-91019425D02*
X62956949Y-81359385D01*
X56700113Y-94576434D02*
X66472916Y-91019425D01*
X53184146Y-84916394D02*
X56700113Y-94576434D01*
X62956949Y-81359385D02*
X53184146Y-84916394D01*
X65564904Y-88700112D02*
X65000571Y-87149619D01*
X55904864Y-92216079D02*
X65564904Y-88700112D01*
X54092157Y-87235708D02*
X55904864Y-92216079D01*
X63752198Y-83719741D02*
X54092157Y-87235708D01*
X64316531Y-85270233D02*
X63752198Y-83719741D01*
X65000571Y-87149619D02*
G75*
G02X64316531Y-85270233I-342020J939693D01*
G01*
X69108582Y-41102884D02*
G75*
G02X67229196Y-41786924I-939693J-342020D01*
G01*
X67229196Y-41786924D02*
X65678704Y-42351257D01*
X65678704Y-42351257D02*
X69194671Y-52011298D01*
X69194671Y-52011298D02*
X74175042Y-50198591D01*
X74175042Y-50198591D02*
X70659075Y-40538551D01*
X70659075Y-40538551D02*
X69108582Y-41102884D01*
X63318348Y-43146506D02*
X66875357Y-52919309D01*
X66875357Y-52919309D02*
X76535397Y-49403342D01*
X76535397Y-49403342D02*
X72978388Y-39630539D01*
X72978388Y-39630539D02*
X63318348Y-43146506D01*
X89949418Y-52215972D02*
X80289378Y-48700004D01*
X86392408Y-61988775D02*
X89949418Y-52215972D01*
X76732368Y-58472808D02*
X86392408Y-61988775D01*
X80289378Y-48700004D02*
X76732368Y-58472808D01*
X87589062Y-51420723D02*
X86038569Y-50856390D01*
X84073095Y-61080763D02*
X87589062Y-51420723D01*
X79092724Y-59268056D02*
X84073095Y-61080763D01*
X82608691Y-49608016D02*
X79092724Y-59268056D01*
X84159184Y-50172349D02*
X82608691Y-49608016D01*
X86038570Y-50856391D02*
G75*
G02X84159184Y-50172349I-939693J342021D01*
G01*
X88546316Y-64108415D02*
G75*
G02X86814264Y-65108415I-866026J-500000D01*
G01*
X86814264Y-65108415D02*
X85385322Y-65933415D01*
X85385322Y-65933415D02*
X90525322Y-74836156D01*
X90525322Y-74836156D02*
X95115257Y-72186156D01*
X95115257Y-72186156D02*
X89975257Y-63283415D01*
X89975257Y-63283415D02*
X88546315Y-64108415D01*
X83198919Y-67126454D02*
X88398919Y-76133118D01*
X88398919Y-76133118D02*
X97301660Y-70993118D01*
X97301660Y-70993118D02*
X92101660Y-61986454D01*
X92101660Y-61986454D02*
X83198919Y-67126454D01*
X69869450Y-91799427D02*
X79993273Y-93584530D01*
X73439656Y-71551779D02*
X69869450Y-91799427D01*
X83563480Y-73336882D02*
X73439656Y-71551779D01*
X79993273Y-93584530D02*
X83563480Y-73336882D01*
X72332040Y-92172722D02*
X73956973Y-92459242D01*
X75881409Y-72043252D02*
X72332040Y-92172722D01*
X81100890Y-72963587D02*
X75881409Y-72043252D01*
X77551521Y-93093057D02*
X81100890Y-72963587D01*
X75926588Y-92806538D02*
X77551521Y-93093057D01*
X73956972Y-92459242D02*
G75*
G02X75926588Y-92806538I984808J-173648D01*
G01*
D11*
X60945497Y-25397165D02*
X60897878Y-25444784D01*
X60755021Y-25492403D01*
X60659783Y-25492403D01*
X60516925Y-25444784D01*
X60421687Y-25349546D01*
X60374068Y-25254308D01*
X60326449Y-25063832D01*
X60326449Y-24920975D01*
X60374068Y-24730499D01*
X60421687Y-24635261D01*
X60516925Y-24540023D01*
X60659783Y-24492403D01*
X60755021Y-24492403D01*
X60897878Y-24540023D01*
X60945497Y-24587642D01*
X61897878Y-25492403D02*
X61326449Y-25492403D01*
X61612164Y-25492403D02*
X61612164Y-24492403D01*
X61516925Y-24635261D01*
X61421687Y-24730499D01*
X61326449Y-24778118D01*
X70165934Y-31116542D02*
X70118315Y-31164161D01*
X69975458Y-31211780D01*
X69880220Y-31211780D01*
X69737362Y-31164161D01*
X69642124Y-31068923D01*
X69594505Y-30973685D01*
X69546886Y-30783209D01*
X69546886Y-30640352D01*
X69594505Y-30449876D01*
X69642124Y-30354638D01*
X69737362Y-30259400D01*
X69880220Y-30211780D01*
X69975458Y-30211780D01*
X70118315Y-30259400D01*
X70165934Y-30307019D01*
X70546886Y-30307019D02*
X70594505Y-30259400D01*
X70689743Y-30211780D01*
X70927839Y-30211780D01*
X71023077Y-30259400D01*
X71070696Y-30307019D01*
X71118315Y-30402257D01*
X71118315Y-30497495D01*
X71070696Y-30640352D01*
X70499267Y-31211780D01*
X71118315Y-31211780D01*
X33503234Y-23773601D02*
X33442200Y-23802061D01*
X33291672Y-23797948D01*
X33202177Y-23765375D01*
X33084222Y-23671768D01*
X33027301Y-23549700D01*
X33015127Y-23443919D01*
X33035526Y-23248643D01*
X33084386Y-23114401D01*
X33194280Y-22951699D01*
X33271601Y-22878491D01*
X33393669Y-22821570D01*
X33544197Y-22825683D01*
X33633692Y-22858256D01*
X33751647Y-22951863D01*
X33780107Y-23012897D01*
X34125912Y-23037409D02*
X34707626Y-23249136D01*
X34264102Y-23493107D01*
X34398344Y-23541967D01*
X34471552Y-23619288D01*
X34500012Y-23680322D01*
X34512186Y-23786103D01*
X34430753Y-24009840D01*
X34353432Y-24083047D01*
X34292398Y-24111508D01*
X34186617Y-24123682D01*
X33918133Y-24025962D01*
X33844925Y-23948641D01*
X33816465Y-23887607D01*
X44798175Y-65961351D02*
X44836802Y-66016516D01*
X44858891Y-66165472D01*
X44842353Y-66259263D01*
X44770650Y-66391681D01*
X44660321Y-66468934D01*
X44558261Y-66499292D01*
X44362409Y-66513112D01*
X44221723Y-66488305D01*
X44042409Y-66408333D01*
X43956887Y-66344900D01*
X43879634Y-66234571D01*
X43857545Y-66085615D01*
X43874083Y-65991824D01*
X43945785Y-65859406D01*
X44000950Y-65820779D01*
X44384269Y-65018003D02*
X45040808Y-65133768D01*
X43967760Y-65186329D02*
X44629849Y-65544842D01*
X44737345Y-64935199D01*
X30980575Y-63827751D02*
X31019202Y-63882916D01*
X31041291Y-64031872D01*
X31024753Y-64125663D01*
X30953050Y-64258081D01*
X30842721Y-64335334D01*
X30740661Y-64365692D01*
X30544809Y-64379512D01*
X30404123Y-64354705D01*
X30224809Y-64274733D01*
X30139287Y-64211300D01*
X30062034Y-64100971D01*
X30039945Y-63952015D01*
X30056483Y-63858224D01*
X30128185Y-63725806D01*
X30183350Y-63687179D01*
X30246669Y-62779625D02*
X30163979Y-63248581D01*
X30624666Y-63378166D01*
X30586040Y-63323001D01*
X30555682Y-63220941D01*
X30597027Y-62986463D01*
X30660460Y-62900941D01*
X30715625Y-62862314D01*
X30817685Y-62831956D01*
X31052163Y-62873301D01*
X31137685Y-62936735D01*
X31176312Y-62991899D01*
X31206670Y-63093960D01*
X31165325Y-63328438D01*
X31101891Y-63413960D01*
X31046727Y-63452586D01*
X52413992Y-89906934D02*
X52352958Y-89878474D01*
X52259350Y-89760518D01*
X52226777Y-89671024D01*
X52222664Y-89520495D01*
X52279585Y-89398427D01*
X52352793Y-89321107D01*
X52515496Y-89211213D01*
X52649738Y-89162353D01*
X52845013Y-89141953D01*
X52950795Y-89154127D01*
X53072862Y-89211049D01*
X53166470Y-89329004D01*
X53199043Y-89418498D01*
X53203156Y-89569027D01*
X53174695Y-89630061D01*
X53557350Y-90402938D02*
X53492203Y-90223949D01*
X53414883Y-90150741D01*
X53353849Y-90122281D01*
X53187033Y-90081646D01*
X52991758Y-90102046D01*
X52633780Y-90232339D01*
X52560572Y-90309660D01*
X52532111Y-90370693D01*
X52519937Y-90476475D01*
X52585084Y-90655464D01*
X52662404Y-90728672D01*
X52723438Y-90757132D01*
X52829220Y-90769306D01*
X53052956Y-90687873D01*
X53126164Y-90610552D01*
X53154624Y-90549518D01*
X53166798Y-90443737D01*
X53101652Y-90264748D01*
X53024331Y-90191540D01*
X52963297Y-90163079D01*
X52857516Y-90150906D01*
X71161734Y-53605607D02*
X71133274Y-53666641D01*
X71015318Y-53760249D01*
X70925824Y-53792822D01*
X70775295Y-53796935D01*
X70653227Y-53740014D01*
X70575907Y-53666806D01*
X70466013Y-53504103D01*
X70417153Y-53369861D01*
X70396753Y-53174586D01*
X70408927Y-53068804D01*
X70465849Y-52946737D01*
X70583804Y-52853129D01*
X70673298Y-52820556D01*
X70823827Y-52816443D01*
X70884861Y-52844904D01*
X71165518Y-52641403D02*
X71791980Y-52413389D01*
X71731275Y-53499662D01*
X79197834Y-61645001D02*
X79136800Y-61673461D01*
X78986272Y-61669348D01*
X78896777Y-61636775D01*
X78778822Y-61543168D01*
X78721901Y-61421100D01*
X78709727Y-61315319D01*
X78730126Y-61120043D01*
X78778986Y-60985801D01*
X78888880Y-60823099D01*
X78966201Y-60749891D01*
X79088269Y-60692970D01*
X79238797Y-60697083D01*
X79328292Y-60729656D01*
X79446247Y-60823263D01*
X79474707Y-60884297D01*
X79897668Y-61392968D02*
X79824460Y-61315647D01*
X79796000Y-61254613D01*
X79783826Y-61148832D01*
X79800112Y-61104085D01*
X79877433Y-61030877D01*
X79938467Y-61002417D01*
X80044248Y-60990243D01*
X80223237Y-61055389D01*
X80296445Y-61132710D01*
X80324906Y-61193744D01*
X80337079Y-61299525D01*
X80320793Y-61344272D01*
X80243472Y-61417480D01*
X80182438Y-61445941D01*
X80076657Y-61458115D01*
X79897668Y-61392968D01*
X79791887Y-61405142D01*
X79730853Y-61433603D01*
X79653532Y-61506810D01*
X79588386Y-61685800D01*
X79600559Y-61791581D01*
X79629020Y-61852615D01*
X79702228Y-61929935D01*
X79881217Y-61995082D01*
X79986998Y-61982908D01*
X80048032Y-61954447D01*
X80125353Y-61881240D01*
X80190499Y-61702251D01*
X80178325Y-61596469D01*
X80149865Y-61535435D01*
X80076657Y-61458115D01*
X92566433Y-76287829D02*
X92549004Y-76352877D01*
X92449095Y-76465545D01*
X92366617Y-76513164D01*
X92219089Y-76543354D01*
X92088991Y-76508494D01*
X92000133Y-76449825D01*
X91863656Y-76308677D01*
X91792227Y-76184959D01*
X91738228Y-75996193D01*
X91731849Y-75889905D01*
X91766708Y-75759807D01*
X91866617Y-75647139D01*
X91949095Y-75599520D01*
X92096623Y-75569331D01*
X92161671Y-75586760D01*
X93026445Y-76132212D02*
X93191403Y-76036974D01*
X93250072Y-75948116D01*
X93267502Y-75883067D01*
X93278552Y-75711730D01*
X93224553Y-75522963D01*
X93034077Y-75193049D01*
X92945218Y-75134379D01*
X92880169Y-75116950D01*
X92773881Y-75123329D01*
X92608924Y-75218568D01*
X92550255Y-75307426D01*
X92532825Y-75372475D01*
X92539205Y-75478763D01*
X92658253Y-75684959D01*
X92747111Y-75743628D01*
X92812160Y-75761058D01*
X92918448Y-75754679D01*
X93083405Y-75659440D01*
X93142074Y-75570582D01*
X93159504Y-75505533D01*
X93153124Y-75399245D01*
X28027686Y-77530107D02*
X28066312Y-77585272D01*
X28088401Y-77734228D01*
X28071863Y-77828019D01*
X28000161Y-77960437D01*
X27889831Y-78037690D01*
X27787771Y-78068048D01*
X27591920Y-78081868D01*
X27451233Y-78057061D01*
X27271920Y-77977089D01*
X27186397Y-77913656D01*
X27109144Y-77803327D01*
X27087055Y-77654371D01*
X27103593Y-77560580D01*
X27175296Y-77428162D01*
X27230460Y-77389535D01*
X28286856Y-76608733D02*
X28187628Y-77171480D01*
X28237242Y-76890107D02*
X27252434Y-76716459D01*
X27376583Y-76835057D01*
X27453837Y-76945386D01*
X27484194Y-77047446D01*
X27409545Y-75825442D02*
X27426083Y-75731651D01*
X27489516Y-75646129D01*
X27544681Y-75607502D01*
X27646741Y-75577144D01*
X27842592Y-75563325D01*
X28077070Y-75604669D01*
X28256384Y-75684641D01*
X28341906Y-75748074D01*
X28380533Y-75803239D01*
X28410890Y-75905299D01*
X28394353Y-75999090D01*
X28330919Y-76084613D01*
X28275754Y-76123239D01*
X28173694Y-76153597D01*
X27977843Y-76167417D01*
X27743365Y-76126072D01*
X27564051Y-76046100D01*
X27478529Y-75982667D01*
X27439902Y-75927502D01*
X27409545Y-75825442D01*
X41997686Y-81086107D02*
X42036312Y-81141272D01*
X42058401Y-81290228D01*
X42041863Y-81384019D01*
X41970161Y-81516437D01*
X41859831Y-81593690D01*
X41757771Y-81624048D01*
X41561920Y-81637868D01*
X41421233Y-81613061D01*
X41241920Y-81533089D01*
X41156397Y-81469656D01*
X41079144Y-81359327D01*
X41057055Y-81210371D01*
X41073593Y-81116580D01*
X41145296Y-80984162D01*
X41200460Y-80945535D01*
X42256856Y-80164733D02*
X42157628Y-80727480D01*
X42207242Y-80446107D02*
X41222434Y-80272459D01*
X41346583Y-80391057D01*
X41423837Y-80501386D01*
X41454194Y-80603446D01*
X42422235Y-79226821D02*
X42323008Y-79789568D01*
X42372621Y-79508195D02*
X41387814Y-79334547D01*
X41511963Y-79453145D01*
X41589216Y-79563474D01*
X41619574Y-79665534D01*
X44320325Y-41581599D02*
X43454300Y-41081599D01*
X43573347Y-40875403D01*
X43686015Y-40775494D01*
X43816113Y-40740635D01*
X43922401Y-40747014D01*
X44111168Y-40801013D01*
X44234886Y-40872442D01*
X44376034Y-41008919D01*
X44434703Y-41097778D01*
X44469562Y-41227875D01*
X44439373Y-41375403D01*
X44320325Y-41581599D01*
X45082230Y-40261941D02*
X44796516Y-40756813D01*
X44939373Y-40509377D02*
X44073347Y-40009377D01*
X44149446Y-40163284D01*
X44184306Y-40293382D01*
X44177926Y-40399670D01*
X57357274Y-19710573D02*
X57190607Y-19999248D01*
X57644240Y-20261153D02*
X56778214Y-19761153D01*
X57016309Y-19348760D01*
X57785845Y-18968266D02*
X57898513Y-18868357D01*
X57963562Y-18850927D01*
X58069850Y-18857307D01*
X58193568Y-18928736D01*
X58252237Y-19017594D01*
X58269667Y-19082643D01*
X58263287Y-19188931D01*
X58072811Y-19518845D01*
X57206786Y-19018845D01*
X57373452Y-18730170D01*
X57462311Y-18671501D01*
X57527359Y-18654071D01*
X57633648Y-18660451D01*
X57716126Y-18708070D01*
X57774795Y-18796929D01*
X57792225Y-18861977D01*
X57785845Y-18968266D01*
X57619179Y-19256941D01*
X58834716Y-18199188D02*
X58549001Y-18694059D01*
X58691859Y-18446624D02*
X57825833Y-17946624D01*
X57901932Y-18100531D01*
X57936792Y-18230628D01*
X57930412Y-18336917D01*
X77423274Y-29260973D02*
X77256607Y-29549648D01*
X77710240Y-29811553D02*
X76844214Y-29311553D01*
X77082309Y-28899160D01*
X77851845Y-28518666D02*
X77964513Y-28418757D01*
X78029562Y-28401327D01*
X78135850Y-28407707D01*
X78259568Y-28479136D01*
X78318237Y-28567994D01*
X78335667Y-28633043D01*
X78329287Y-28739331D01*
X78138811Y-29069245D01*
X77272786Y-28569245D01*
X77439452Y-28280570D01*
X77528311Y-28221901D01*
X77593359Y-28204471D01*
X77699648Y-28210851D01*
X77782126Y-28258470D01*
X77840795Y-28347329D01*
X77858225Y-28412377D01*
X77851845Y-28518666D01*
X77685179Y-28807341D01*
X77831455Y-27792078D02*
X77814025Y-27727030D01*
X77820405Y-27620741D01*
X77939452Y-27414545D01*
X78028311Y-27355876D01*
X78093359Y-27338446D01*
X78199648Y-27344826D01*
X78282126Y-27392445D01*
X78382035Y-27505113D01*
X78591192Y-28285699D01*
X78900716Y-27749588D01*
X28470266Y-43902380D02*
X28470266Y-44616666D01*
X28422647Y-44759523D01*
X28327409Y-44854761D01*
X28184552Y-44902380D01*
X28089314Y-44902380D01*
X29470266Y-44902380D02*
X28898838Y-44902380D01*
X29184552Y-44902380D02*
X29184552Y-43902380D01*
X29089314Y-44045238D01*
X28994076Y-44140476D01*
X28898838Y-44188095D01*
X30103397Y-14977023D02*
X29859097Y-15648232D01*
X29765490Y-15766187D01*
X29643422Y-15823109D01*
X29492894Y-15818996D01*
X29403399Y-15786422D01*
X30473549Y-15213098D02*
X30534583Y-15184637D01*
X30640365Y-15172463D01*
X30864101Y-15253897D01*
X30937309Y-15331217D01*
X30965769Y-15392251D01*
X30977943Y-15498032D01*
X30945370Y-15587527D01*
X30851763Y-15705482D01*
X30119355Y-16047009D01*
X30701070Y-16258736D01*
X66240066Y-16013180D02*
X66240066Y-16727466D01*
X66192447Y-16870323D01*
X66097209Y-16965561D01*
X65954352Y-17013180D01*
X65859114Y-17013180D01*
X66621019Y-16013180D02*
X67240066Y-16013180D01*
X66906733Y-16394133D01*
X67049590Y-16394133D01*
X67144828Y-16441752D01*
X67192447Y-16489371D01*
X67240066Y-16584609D01*
X67240066Y-16822704D01*
X67192447Y-16917942D01*
X67144828Y-16965561D01*
X67049590Y-17013180D01*
X66763876Y-17013180D01*
X66668638Y-16965561D01*
X66621019Y-16917942D01*
X66646466Y-18832580D02*
X66646466Y-19546866D01*
X66598847Y-19689723D01*
X66503609Y-19784961D01*
X66360752Y-19832580D01*
X66265514Y-19832580D01*
X67551228Y-19165914D02*
X67551228Y-19832580D01*
X67313133Y-18784961D02*
X67075038Y-19499247D01*
X67694085Y-19499247D01*
X78863866Y-21728180D02*
X78863866Y-22442466D01*
X78816247Y-22585323D01*
X78721009Y-22680561D01*
X78578152Y-22728180D01*
X78482914Y-22728180D01*
X79816247Y-21728180D02*
X79340057Y-21728180D01*
X79292438Y-22204371D01*
X79340057Y-22156752D01*
X79435295Y-22109133D01*
X79673390Y-22109133D01*
X79768628Y-22156752D01*
X79816247Y-22204371D01*
X79863866Y-22299609D01*
X79863866Y-22537704D01*
X79816247Y-22632942D01*
X79768628Y-22680561D01*
X79673390Y-22728180D01*
X79435295Y-22728180D01*
X79340057Y-22680561D01*
X79292438Y-22632942D01*
X28825866Y-49896780D02*
X28825866Y-50611066D01*
X28778247Y-50753923D01*
X28683009Y-50849161D01*
X28540152Y-50896780D01*
X28444914Y-50896780D01*
X29730628Y-49896780D02*
X29540152Y-49896780D01*
X29444914Y-49944400D01*
X29397295Y-49992019D01*
X29302057Y-50134876D01*
X29254438Y-50325352D01*
X29254438Y-50706304D01*
X29302057Y-50801542D01*
X29349676Y-50849161D01*
X29444914Y-50896780D01*
X29635390Y-50896780D01*
X29730628Y-50849161D01*
X29778247Y-50801542D01*
X29825866Y-50706304D01*
X29825866Y-50468209D01*
X29778247Y-50372971D01*
X29730628Y-50325352D01*
X29635390Y-50277733D01*
X29444914Y-50277733D01*
X29349676Y-50325352D01*
X29302057Y-50372971D01*
X29254438Y-50468209D01*
X17218066Y-82840580D02*
X17218066Y-83554866D01*
X17170447Y-83697723D01*
X17075209Y-83792961D01*
X16932352Y-83840580D01*
X16837114Y-83840580D01*
X17599019Y-82840580D02*
X18265685Y-82840580D01*
X17837114Y-83840580D01*
X43100666Y-89800181D02*
X43100666Y-90514467D01*
X43053047Y-90657324D01*
X42957809Y-90752562D01*
X42814952Y-90800181D01*
X42719714Y-90800181D01*
X43719714Y-90228753D02*
X43624476Y-90181134D01*
X43576857Y-90133515D01*
X43529238Y-90038277D01*
X43529238Y-89990658D01*
X43576857Y-89895420D01*
X43624476Y-89847801D01*
X43719714Y-89800181D01*
X43910190Y-89800181D01*
X44005428Y-89847801D01*
X44053047Y-89895420D01*
X44100666Y-89990658D01*
X44100666Y-90038277D01*
X44053047Y-90133515D01*
X44005428Y-90181134D01*
X43910190Y-90228753D01*
X43719714Y-90228753D01*
X43624476Y-90276372D01*
X43576857Y-90323991D01*
X43529238Y-90419229D01*
X43529238Y-90609705D01*
X43576857Y-90704943D01*
X43624476Y-90752562D01*
X43719714Y-90800181D01*
X43910190Y-90800181D01*
X44005428Y-90752562D01*
X44053047Y-90704943D01*
X44100666Y-90609705D01*
X44100666Y-90419229D01*
X44053047Y-90323991D01*
X44005428Y-90276372D01*
X43910190Y-90228753D01*
X36868741Y-49515412D02*
X36919482Y-48936367D01*
X36431001Y-49148105D02*
X37073788Y-48382060D01*
X37365615Y-48626932D01*
X37407963Y-48724628D01*
X37413832Y-48791715D01*
X37389092Y-48895281D01*
X37297266Y-49004716D01*
X37199569Y-49047064D01*
X37132482Y-49052933D01*
X37028917Y-49028193D01*
X36737090Y-48783322D01*
X37598307Y-50127591D02*
X37160567Y-49760284D01*
X37379437Y-49943937D02*
X38022224Y-49177893D01*
X37857441Y-49226110D01*
X37723267Y-49237849D01*
X37619701Y-49213109D01*
X35756661Y-20942095D02*
X35606297Y-20380616D01*
X35219693Y-20746655D02*
X35561714Y-19806962D01*
X35919692Y-19937256D01*
X35992900Y-20014576D01*
X36021360Y-20075610D01*
X36033534Y-20181392D01*
X35984674Y-20315633D01*
X35907353Y-20388841D01*
X35846320Y-20417302D01*
X35740538Y-20429476D01*
X35382560Y-20299182D01*
X36424086Y-20222190D02*
X36485120Y-20193730D01*
X36590901Y-20181556D01*
X36814637Y-20262989D01*
X36887845Y-20340310D01*
X36916306Y-20401344D01*
X36928479Y-20507125D01*
X36895906Y-20596620D01*
X36802299Y-20714575D01*
X36069892Y-21056102D01*
X36651606Y-21267829D01*
X46607107Y-73888102D02*
X46131010Y-73554636D01*
X46070140Y-74083542D02*
X45728120Y-73143849D01*
X46086098Y-73013556D01*
X46191879Y-73025730D01*
X46252913Y-73054190D01*
X46330234Y-73127398D01*
X46379094Y-73261640D01*
X46366920Y-73367421D01*
X46338460Y-73428455D01*
X46265252Y-73505776D01*
X45907274Y-73636069D01*
X46578318Y-72834403D02*
X47160033Y-72622676D01*
X46977095Y-73094661D01*
X47111337Y-73045801D01*
X47217118Y-73057975D01*
X47278152Y-73086435D01*
X47355473Y-73159643D01*
X47436906Y-73383379D01*
X47424732Y-73489161D01*
X47396272Y-73550195D01*
X47323064Y-73627515D01*
X47054580Y-73725235D01*
X46948799Y-73713061D01*
X46887765Y-73684601D01*
X30719071Y-26876840D02*
X30668492Y-26297780D01*
X30224200Y-26591125D02*
X30724200Y-25725100D01*
X31054114Y-25915576D01*
X31112783Y-26004434D01*
X31130213Y-26069483D01*
X31123833Y-26175771D01*
X31052405Y-26299489D01*
X30963546Y-26358158D01*
X30898498Y-26375588D01*
X30792209Y-26369208D01*
X30462295Y-26178732D01*
X31794712Y-26728061D02*
X31461379Y-27305411D01*
X31778992Y-26279099D02*
X31215653Y-26778641D01*
X31751764Y-27088164D01*
X42835212Y-28968058D02*
X42256167Y-28917317D01*
X42467905Y-29405798D02*
X41701860Y-28763011D01*
X41946732Y-28471184D01*
X42044428Y-28428836D01*
X42111515Y-28422967D01*
X42215081Y-28447707D01*
X42324516Y-28539533D01*
X42366864Y-28637230D01*
X42372733Y-28704317D01*
X42347993Y-28807882D01*
X42103122Y-29099709D01*
X42650737Y-27632183D02*
X42344648Y-27996966D01*
X42678822Y-28339534D01*
X42672953Y-28272446D01*
X42697692Y-28168881D01*
X42850737Y-27986489D01*
X42948433Y-27944142D01*
X43015521Y-27938272D01*
X43119086Y-27963012D01*
X43301478Y-28116057D01*
X43343825Y-28213753D01*
X43349695Y-28280840D01*
X43324955Y-28384406D01*
X43171910Y-28566797D01*
X43074214Y-28609145D01*
X43007127Y-28615014D01*
X31024212Y-34530658D02*
X30445167Y-34479917D01*
X30656905Y-34968398D02*
X29890860Y-34325611D01*
X30135732Y-34033784D01*
X30233428Y-33991436D01*
X30300515Y-33985567D01*
X30404081Y-34010307D01*
X30513516Y-34102133D01*
X30555864Y-34199830D01*
X30561733Y-34266917D01*
X30536993Y-34370482D01*
X30292122Y-34662309D01*
X30809129Y-33231261D02*
X30686693Y-33377175D01*
X30661953Y-33480740D01*
X30667823Y-33547827D01*
X30716040Y-33712611D01*
X30831344Y-33871525D01*
X31123170Y-34116396D01*
X31226736Y-34141136D01*
X31293823Y-34135266D01*
X31391519Y-34092919D01*
X31513955Y-33947006D01*
X31538695Y-33843440D01*
X31532825Y-33776353D01*
X31490478Y-33678657D01*
X31308086Y-33525612D01*
X31204521Y-33500872D01*
X31137433Y-33506742D01*
X31039737Y-33549089D01*
X30917301Y-33695003D01*
X30892562Y-33798568D01*
X30898431Y-33865655D01*
X30940779Y-33963352D01*
X40498412Y-26834458D02*
X39919367Y-26783717D01*
X40131105Y-27272198D02*
X39365060Y-26629411D01*
X39609932Y-26337584D01*
X39707628Y-26295236D01*
X39774715Y-26289367D01*
X39878281Y-26314107D01*
X39987716Y-26405933D01*
X40030064Y-26503630D01*
X40035933Y-26570717D01*
X40011193Y-26674282D01*
X39766322Y-26966109D01*
X39946630Y-25936323D02*
X40375155Y-25425626D01*
X40865719Y-26396719D01*
X48168566Y-65977889D02*
X47641728Y-66223469D01*
X48069339Y-66540637D02*
X47084531Y-66366988D01*
X47150683Y-65991824D01*
X47214116Y-65906301D01*
X47269281Y-65867675D01*
X47371341Y-65837317D01*
X47512028Y-65862124D01*
X47597550Y-65925557D01*
X47636177Y-65980722D01*
X47666534Y-66082782D01*
X47600383Y-66457947D01*
X47705047Y-65315914D02*
X47641613Y-65401437D01*
X47586449Y-65440063D01*
X47484388Y-65470421D01*
X47437493Y-65462152D01*
X47351971Y-65398719D01*
X47313344Y-65343554D01*
X47282986Y-65241494D01*
X47316062Y-65053911D01*
X47379496Y-64968389D01*
X47434660Y-64929762D01*
X47536720Y-64899405D01*
X47583616Y-64907674D01*
X47669138Y-64971107D01*
X47707765Y-65026272D01*
X47738122Y-65128332D01*
X47705047Y-65315914D01*
X47735404Y-65417975D01*
X47774031Y-65473139D01*
X47859553Y-65536573D01*
X48047136Y-65569649D01*
X48149196Y-65539291D01*
X48204360Y-65500664D01*
X48267794Y-65415142D01*
X48300870Y-65227560D01*
X48270512Y-65125499D01*
X48231885Y-65070335D01*
X48146363Y-65006901D01*
X47958781Y-64973825D01*
X47856721Y-65004183D01*
X47801556Y-65042810D01*
X47738122Y-65128332D01*
X23286980Y-61888666D02*
X22810790Y-62222000D01*
X23286980Y-62460095D02*
X22286980Y-62460095D01*
X22286980Y-62079142D01*
X22334600Y-61983904D01*
X22382219Y-61936285D01*
X22477457Y-61888666D01*
X22620314Y-61888666D01*
X22715552Y-61936285D01*
X22763171Y-61983904D01*
X22810790Y-62079142D01*
X22810790Y-62460095D01*
X23286980Y-61412476D02*
X23286980Y-61222000D01*
X23239361Y-61126761D01*
X23191742Y-61079142D01*
X23048885Y-60983904D01*
X22858409Y-60936285D01*
X22477457Y-60936285D01*
X22382219Y-60983904D01*
X22334600Y-61031523D01*
X22286980Y-61126761D01*
X22286980Y-61317238D01*
X22334600Y-61412476D01*
X22382219Y-61460095D01*
X22477457Y-61507714D01*
X22715552Y-61507714D01*
X22810790Y-61460095D01*
X22858409Y-61412476D01*
X22906028Y-61317238D01*
X22906028Y-61126761D01*
X22858409Y-61031523D01*
X22810790Y-60983904D01*
X22715552Y-60936285D01*
X19984980Y-64269857D02*
X19508790Y-64603190D01*
X19984980Y-64841285D02*
X18984980Y-64841285D01*
X18984980Y-64460333D01*
X19032600Y-64365095D01*
X19080219Y-64317476D01*
X19175457Y-64269857D01*
X19318314Y-64269857D01*
X19413552Y-64317476D01*
X19461171Y-64365095D01*
X19508790Y-64460333D01*
X19508790Y-64841285D01*
X19984980Y-63317476D02*
X19984980Y-63888904D01*
X19984980Y-63603190D02*
X18984980Y-63603190D01*
X19127838Y-63698428D01*
X19223076Y-63793666D01*
X19270695Y-63888904D01*
X18984980Y-62698428D02*
X18984980Y-62603190D01*
X19032600Y-62507952D01*
X19080219Y-62460333D01*
X19175457Y-62412714D01*
X19365933Y-62365095D01*
X19604028Y-62365095D01*
X19794504Y-62412714D01*
X19889742Y-62460333D01*
X19937361Y-62507952D01*
X19984980Y-62603190D01*
X19984980Y-62698428D01*
X19937361Y-62793666D01*
X19889742Y-62841285D01*
X19794504Y-62888904D01*
X19604028Y-62936523D01*
X19365933Y-62936523D01*
X19175457Y-62888904D01*
X19080219Y-62841285D01*
X19032600Y-62793666D01*
X18984980Y-62698428D01*
X46636428Y-32432611D02*
X46074949Y-32582975D01*
X46440988Y-32969578D02*
X45501296Y-32627558D01*
X45631589Y-32269580D01*
X45708910Y-32196372D01*
X45769944Y-32167911D01*
X45875725Y-32155738D01*
X46009967Y-32204598D01*
X46083175Y-32281918D01*
X46111635Y-32342952D01*
X46123809Y-32448733D01*
X45993516Y-32806711D01*
X46962162Y-31537666D02*
X46766722Y-32074633D01*
X46864442Y-31806149D02*
X45924749Y-31464129D01*
X46026418Y-31602484D01*
X46083339Y-31724552D01*
X46095513Y-31830333D01*
X47287895Y-30642720D02*
X47092455Y-31179688D01*
X47190175Y-30911204D02*
X46250483Y-30569184D01*
X46352151Y-30707538D01*
X46409072Y-30829606D01*
X46421246Y-30935387D01*
X26842980Y-63787257D02*
X26366790Y-64120590D01*
X26842980Y-64358685D02*
X25842980Y-64358685D01*
X25842980Y-63977733D01*
X25890600Y-63882495D01*
X25938219Y-63834876D01*
X26033457Y-63787257D01*
X26176314Y-63787257D01*
X26271552Y-63834876D01*
X26319171Y-63882495D01*
X26366790Y-63977733D01*
X26366790Y-64358685D01*
X26842980Y-62834876D02*
X26842980Y-63406304D01*
X26842980Y-63120590D02*
X25842980Y-63120590D01*
X25985838Y-63215828D01*
X26081076Y-63311066D01*
X26128695Y-63406304D01*
X25938219Y-62453923D02*
X25890600Y-62406304D01*
X25842980Y-62311066D01*
X25842980Y-62072971D01*
X25890600Y-61977733D01*
X25938219Y-61930114D01*
X26033457Y-61882495D01*
X26128695Y-61882495D01*
X26271552Y-61930114D01*
X26842980Y-62501542D01*
X26842980Y-61882495D01*
X27816188Y-57101228D02*
X27665824Y-56539749D01*
X27279221Y-56905788D02*
X27621241Y-55966096D01*
X27979219Y-56096389D01*
X28052427Y-56173710D01*
X28080888Y-56234744D01*
X28093061Y-56340525D01*
X28044201Y-56474767D01*
X27966881Y-56547975D01*
X27905847Y-56576435D01*
X27800066Y-56588609D01*
X27442088Y-56458316D01*
X28711133Y-57426962D02*
X28174166Y-57231522D01*
X28442650Y-57329242D02*
X28784670Y-56389549D01*
X28646315Y-56491218D01*
X28524247Y-56548139D01*
X28418466Y-56560313D01*
X29366384Y-56601276D02*
X29948099Y-56813003D01*
X29504575Y-57056974D01*
X29638816Y-57105834D01*
X29712024Y-57183155D01*
X29740485Y-57244189D01*
X29752659Y-57349970D01*
X29671225Y-57573706D01*
X29593905Y-57646914D01*
X29532871Y-57675375D01*
X29427090Y-57687549D01*
X29158606Y-57589829D01*
X29085398Y-57512508D01*
X29056938Y-57451474D01*
X21695277Y-76962445D02*
X21168438Y-77208025D01*
X21596049Y-77525193D02*
X20611242Y-77351544D01*
X20677393Y-76976380D01*
X20740827Y-76890857D01*
X20795991Y-76852231D01*
X20898051Y-76821873D01*
X21038738Y-76846680D01*
X21124261Y-76910113D01*
X21162887Y-76965278D01*
X21193245Y-77067338D01*
X21127093Y-77442503D01*
X21860656Y-76024533D02*
X21761428Y-76587280D01*
X21811042Y-76305907D02*
X20826234Y-76132259D01*
X20950383Y-76250857D01*
X21027637Y-76361186D01*
X21057994Y-76463246D01*
X21352959Y-75064647D02*
X22009497Y-75180412D01*
X20936449Y-75232973D02*
X21598538Y-75591486D01*
X21706035Y-74981843D01*
X18393277Y-76683045D02*
X17866438Y-76928625D01*
X18294049Y-77245793D02*
X17309242Y-77072144D01*
X17375393Y-76696980D01*
X17438827Y-76611457D01*
X17493991Y-76572831D01*
X17596051Y-76542473D01*
X17736738Y-76567280D01*
X17822261Y-76630713D01*
X17860887Y-76685878D01*
X17891245Y-76787938D01*
X17825093Y-77163103D01*
X18558656Y-75745133D02*
X18459428Y-76307880D01*
X18509042Y-76026507D02*
X17524234Y-75852859D01*
X17648383Y-75971457D01*
X17725637Y-76081786D01*
X17755994Y-76183846D01*
X17730959Y-74680468D02*
X17648269Y-75149425D01*
X18108956Y-75279010D01*
X18070329Y-75223845D01*
X18039972Y-75121785D01*
X18081316Y-74887307D01*
X18144750Y-74801785D01*
X18199915Y-74763158D01*
X18301975Y-74732800D01*
X18536453Y-74774145D01*
X18621975Y-74837579D01*
X18660602Y-74892743D01*
X18690959Y-74994803D01*
X18649615Y-75229282D01*
X18586181Y-75314804D01*
X18531016Y-75353430D01*
X24743277Y-77622845D02*
X24216438Y-77868425D01*
X24644049Y-78185593D02*
X23659242Y-78011944D01*
X23725393Y-77636780D01*
X23788827Y-77551257D01*
X23843991Y-77512631D01*
X23946051Y-77482273D01*
X24086738Y-77507080D01*
X24172261Y-77570513D01*
X24210887Y-77625678D01*
X24241245Y-77727738D01*
X24175093Y-78102903D01*
X24908656Y-76684933D02*
X24809428Y-77247680D01*
X24859042Y-76966307D02*
X23874234Y-76792659D01*
X23998383Y-76911257D01*
X24075637Y-77021586D01*
X24105994Y-77123646D01*
X24072690Y-75667164D02*
X24039614Y-75854747D01*
X24069971Y-75956807D01*
X24108598Y-76011971D01*
X24232747Y-76130569D01*
X24412060Y-76210541D01*
X24787225Y-76276692D01*
X24889285Y-76246335D01*
X24944450Y-76207708D01*
X25007884Y-76122186D01*
X25040959Y-75934603D01*
X25010602Y-75832543D01*
X24971975Y-75777379D01*
X24886453Y-75713945D01*
X24651975Y-75672600D01*
X24549915Y-75702958D01*
X24494750Y-75741585D01*
X24431316Y-75827107D01*
X24398241Y-76014689D01*
X24428598Y-76116750D01*
X24467225Y-76171914D01*
X24552747Y-76235348D01*
X27004464Y-83894539D02*
X26593505Y-83483465D01*
X26441717Y-83993766D02*
X26268068Y-83008959D01*
X26643233Y-82942807D01*
X26745293Y-82973165D01*
X26800458Y-83011791D01*
X26863892Y-83097313D01*
X26888698Y-83238000D01*
X26858341Y-83340060D01*
X26819714Y-83395225D01*
X26734192Y-83458659D01*
X26359027Y-83524810D01*
X27942376Y-83729160D02*
X27379629Y-83828387D01*
X27661002Y-83778773D02*
X27487354Y-82793966D01*
X27418370Y-82951190D01*
X27341117Y-83061519D01*
X27255594Y-83124953D01*
X28096997Y-82686469D02*
X28753536Y-82570704D01*
X28505123Y-83629932D01*
X48670077Y-81280445D02*
X48143238Y-81526025D01*
X48570849Y-81843193D02*
X47586042Y-81669544D01*
X47652193Y-81294380D01*
X47715627Y-81208857D01*
X47770791Y-81170231D01*
X47872851Y-81139873D01*
X48013538Y-81164680D01*
X48099061Y-81228113D01*
X48137687Y-81283278D01*
X48168045Y-81385338D01*
X48101893Y-81760503D01*
X48835456Y-80342533D02*
X48736228Y-80905280D01*
X48785842Y-80623907D02*
X47801034Y-80450259D01*
X47925183Y-80568857D01*
X48002437Y-80679186D01*
X48032794Y-80781246D01*
X48371936Y-79680558D02*
X48308503Y-79766081D01*
X48253338Y-79804707D01*
X48151278Y-79835065D01*
X48104382Y-79826796D01*
X48018860Y-79763362D01*
X47980233Y-79708198D01*
X47949876Y-79606138D01*
X47982952Y-79418555D01*
X48046385Y-79333033D01*
X48101550Y-79294406D01*
X48203610Y-79264049D01*
X48250506Y-79272318D01*
X48336028Y-79335751D01*
X48374654Y-79390916D01*
X48405012Y-79492976D01*
X48371936Y-79680558D01*
X48402294Y-79782619D01*
X48440921Y-79837783D01*
X48526443Y-79901217D01*
X48714025Y-79934292D01*
X48816085Y-79903935D01*
X48871250Y-79865308D01*
X48934684Y-79779786D01*
X48967759Y-79592203D01*
X48937402Y-79490143D01*
X48898775Y-79434979D01*
X48813253Y-79371545D01*
X48625670Y-79338469D01*
X48523610Y-79368827D01*
X48468446Y-79407454D01*
X48405012Y-79492976D01*
X52200677Y-79502445D02*
X51673838Y-79748025D01*
X52101449Y-80065193D02*
X51116642Y-79891544D01*
X51182793Y-79516380D01*
X51246227Y-79430857D01*
X51301391Y-79392231D01*
X51403451Y-79361873D01*
X51544138Y-79386680D01*
X51629661Y-79450113D01*
X51668287Y-79505278D01*
X51698645Y-79607338D01*
X51632493Y-79982503D01*
X52366056Y-78564533D02*
X52266828Y-79127280D01*
X52316442Y-78845907D02*
X51331634Y-78672259D01*
X51455783Y-78790857D01*
X51533037Y-78901186D01*
X51563394Y-79003246D01*
X52448746Y-78095577D02*
X52481821Y-77907995D01*
X52451464Y-77805935D01*
X52412837Y-77750770D01*
X52288688Y-77632172D01*
X52109375Y-77552200D01*
X51734210Y-77486049D01*
X51632150Y-77516406D01*
X51576985Y-77555033D01*
X51513552Y-77640555D01*
X51480476Y-77828138D01*
X51510833Y-77930198D01*
X51549460Y-77985362D01*
X51634982Y-78048796D01*
X51869460Y-78090141D01*
X51971521Y-78059783D01*
X52026685Y-78021156D01*
X52090119Y-77935634D01*
X52123195Y-77748052D01*
X52092837Y-77645992D01*
X52054210Y-77590827D01*
X51968688Y-77527394D01*
X45266477Y-81280445D02*
X44739638Y-81526025D01*
X45167249Y-81843193D02*
X44182442Y-81669544D01*
X44248593Y-81294380D01*
X44312027Y-81208857D01*
X44367191Y-81170231D01*
X44469251Y-81139873D01*
X44609938Y-81164680D01*
X44695461Y-81228113D01*
X44734087Y-81283278D01*
X44764445Y-81385338D01*
X44698293Y-81760503D01*
X44441612Y-80748170D02*
X44402985Y-80693006D01*
X44372628Y-80590945D01*
X44413972Y-80356467D01*
X44477406Y-80270945D01*
X44532571Y-80232319D01*
X44634631Y-80201961D01*
X44728422Y-80218499D01*
X44860840Y-80290201D01*
X45324360Y-80952176D01*
X45431856Y-80342533D01*
X44554545Y-79559242D02*
X44571083Y-79465451D01*
X44634516Y-79379929D01*
X44689681Y-79341302D01*
X44791741Y-79310944D01*
X44987592Y-79297125D01*
X45222070Y-79338469D01*
X45401384Y-79418441D01*
X45486906Y-79481874D01*
X45525533Y-79537039D01*
X45555890Y-79639099D01*
X45539353Y-79732890D01*
X45475919Y-79818413D01*
X45420754Y-79857039D01*
X45318694Y-79887397D01*
X45122843Y-79901217D01*
X44888365Y-79859872D01*
X44709051Y-79779900D01*
X44623529Y-79716467D01*
X44584902Y-79661302D01*
X44554545Y-79559242D01*
X39069678Y-86303344D02*
X39019099Y-85724285D01*
X38574807Y-86017630D02*
X39074807Y-85151605D01*
X39404721Y-85342081D01*
X39463390Y-85430939D01*
X39480820Y-85495988D01*
X39474440Y-85602276D01*
X39403012Y-85725994D01*
X39314153Y-85784663D01*
X39249105Y-85802093D01*
X39142816Y-85795713D01*
X38812902Y-85605237D01*
X39851974Y-85710274D02*
X39917023Y-85692844D01*
X40023311Y-85699224D01*
X40229507Y-85818271D01*
X40288176Y-85907130D01*
X40305606Y-85972178D01*
X40299226Y-86078467D01*
X40251607Y-86160945D01*
X40138939Y-86260854D01*
X39358354Y-86470011D01*
X39894465Y-86779535D01*
X40719251Y-87255725D02*
X40224379Y-86970011D01*
X40471815Y-87112868D02*
X40971815Y-86246843D01*
X40817908Y-86322942D01*
X40687810Y-86357801D01*
X40581522Y-86351421D01*
X39646535Y-59428915D02*
X39496171Y-58867436D01*
X39109568Y-59233475D02*
X39451588Y-58293782D01*
X39809566Y-58424076D01*
X39882774Y-58501396D01*
X39911235Y-58562430D01*
X39923409Y-58668212D01*
X39874549Y-58802453D01*
X39797228Y-58875661D01*
X39736194Y-58904122D01*
X39630413Y-58916296D01*
X39272435Y-58786002D01*
X40257039Y-58586943D02*
X40228250Y-59640642D01*
X40883501Y-58814956D01*
X41346931Y-60047809D02*
X40809964Y-59852369D01*
X41078448Y-59950089D02*
X41420468Y-59010396D01*
X41282113Y-59112065D01*
X41160046Y-59168986D01*
X41054264Y-59181160D01*
X33507763Y-81294197D02*
X33367190Y-82091422D01*
X33397548Y-82193482D01*
X33436175Y-82248647D01*
X33521697Y-82312080D01*
X33709280Y-82345156D01*
X33811340Y-82314798D01*
X33866504Y-82276172D01*
X33929938Y-82190649D01*
X34070510Y-81393424D01*
X34881670Y-82551880D02*
X34318922Y-82452653D01*
X34600296Y-82502266D02*
X34773944Y-81517459D01*
X34655346Y-81641607D01*
X34545017Y-81718861D01*
X34442957Y-81749218D01*
X39901209Y-42456716D02*
X40521340Y-42977068D01*
X40624906Y-43001807D01*
X40691993Y-42995938D01*
X40789689Y-42953590D01*
X40912125Y-42807677D01*
X40936865Y-42704111D01*
X40930995Y-42637024D01*
X40888647Y-42539328D01*
X40268516Y-42018976D01*
X40616953Y-41751889D02*
X40611084Y-41684802D01*
X40635823Y-41581236D01*
X40788868Y-41398845D01*
X40886564Y-41356497D01*
X40953652Y-41350628D01*
X41057217Y-41375367D01*
X41130174Y-41436585D01*
X41209000Y-41564890D01*
X41279432Y-42369937D01*
X41677348Y-41895719D01*
X59869411Y-57005243D02*
X59869411Y-57814767D01*
X59917030Y-57910005D01*
X59964649Y-57957624D01*
X60059887Y-58005243D01*
X60250363Y-58005243D01*
X60345601Y-57957624D01*
X60393220Y-57910005D01*
X60440839Y-57814767D01*
X60440839Y-57005243D01*
X60821792Y-57005243D02*
X61440839Y-57005243D01*
X61107506Y-57386196D01*
X61250363Y-57386196D01*
X61345601Y-57433815D01*
X61393220Y-57481434D01*
X61440839Y-57576672D01*
X61440839Y-57814767D01*
X61393220Y-57910005D01*
X61345601Y-57957624D01*
X61250363Y-58005243D01*
X60964649Y-58005243D01*
X60869411Y-57957624D01*
X60821792Y-57910005D01*
X53105580Y-34000523D02*
X53105580Y-34810047D01*
X53153199Y-34905285D01*
X53200818Y-34952904D01*
X53296056Y-35000523D01*
X53486532Y-35000523D01*
X53581770Y-34952904D01*
X53629389Y-34905285D01*
X53677008Y-34810047D01*
X53677008Y-34000523D01*
X54581770Y-34333857D02*
X54581770Y-35000523D01*
X54343675Y-33952904D02*
X54105580Y-34667190D01*
X54724627Y-34667190D01*
X65852250Y-84964652D02*
X65091547Y-85241526D01*
X65018339Y-85318847D01*
X64989878Y-85379880D01*
X64977704Y-85485662D01*
X65042851Y-85664651D01*
X65120172Y-85737859D01*
X65181206Y-85766319D01*
X65286987Y-85778493D01*
X66047690Y-85501620D01*
X66373424Y-86396565D02*
X66210557Y-85949092D01*
X65746798Y-86067212D01*
X65807832Y-86095672D01*
X65885152Y-86168880D01*
X65966586Y-86392617D01*
X65954412Y-86498398D01*
X65925951Y-86559432D01*
X65852743Y-86636752D01*
X65629007Y-86718186D01*
X65523226Y-86706012D01*
X65462192Y-86677551D01*
X65384871Y-86604343D01*
X65303438Y-86380607D01*
X65315612Y-86274826D01*
X65344072Y-86213792D01*
X66923615Y-40251204D02*
X67200489Y-41011907D01*
X67277810Y-41085115D01*
X67338843Y-41113576D01*
X67444625Y-41125750D01*
X67623614Y-41060603D01*
X67696822Y-40983282D01*
X67725282Y-40922248D01*
X67737456Y-40816467D01*
X67460583Y-40055764D01*
X68310781Y-39746317D02*
X68131792Y-39811464D01*
X68058584Y-39888784D01*
X68030123Y-39949818D01*
X67989489Y-40116633D01*
X68009888Y-40311909D01*
X68140182Y-40669887D01*
X68217502Y-40743095D01*
X68278536Y-40771556D01*
X68384317Y-40783729D01*
X68563306Y-40718583D01*
X68636514Y-40641262D01*
X68664975Y-40580228D01*
X68677149Y-40474447D01*
X68595715Y-40250711D01*
X68518395Y-40177503D01*
X68457361Y-40149042D01*
X68351580Y-40136868D01*
X68172591Y-40202015D01*
X68099383Y-40279336D01*
X68070922Y-40340370D01*
X68058748Y-40446151D01*
X84912237Y-48799496D02*
X84635364Y-49560200D01*
X84647537Y-49665981D01*
X84675998Y-49727015D01*
X84749206Y-49804335D01*
X84928195Y-49869482D01*
X85033976Y-49857308D01*
X85095010Y-49828848D01*
X85172331Y-49755640D01*
X85449204Y-48994936D01*
X85807182Y-49125230D02*
X86433644Y-49353243D01*
X85688899Y-50146356D01*
X86246651Y-63649090D02*
X86651413Y-64350158D01*
X86740271Y-64408827D01*
X86805320Y-64426257D01*
X86911608Y-64419877D01*
X87076566Y-64324639D01*
X87135235Y-64235781D01*
X87152664Y-64170732D01*
X87146285Y-64064444D01*
X86741523Y-63363376D01*
X87491919Y-63425006D02*
X87385631Y-63431385D01*
X87320582Y-63413955D01*
X87231724Y-63355286D01*
X87207915Y-63314047D01*
X87201535Y-63207759D01*
X87218965Y-63142710D01*
X87277634Y-63053852D01*
X87442591Y-62958614D01*
X87548879Y-62952234D01*
X87613928Y-62969664D01*
X87702786Y-63028333D01*
X87726596Y-63069572D01*
X87732976Y-63175860D01*
X87715546Y-63240909D01*
X87656877Y-63329767D01*
X87491919Y-63425006D01*
X87433250Y-63513864D01*
X87415821Y-63578913D01*
X87422200Y-63685201D01*
X87517438Y-63850158D01*
X87606297Y-63908827D01*
X87671346Y-63926257D01*
X87777634Y-63919877D01*
X87942591Y-63824639D01*
X88001260Y-63735781D01*
X88018690Y-63670732D01*
X88012310Y-63564444D01*
X87917072Y-63399487D01*
X87828214Y-63340817D01*
X87763165Y-63323388D01*
X87656877Y-63329767D01*
X74112895Y-92946095D02*
X73972322Y-93743320D01*
X74002680Y-93845380D01*
X74041307Y-93900545D01*
X74126829Y-93963978D01*
X74314412Y-93997054D01*
X74416472Y-93966696D01*
X74471636Y-93928070D01*
X74535070Y-93842547D01*
X74675642Y-93045322D01*
X75017846Y-94121088D02*
X75205428Y-94154164D01*
X75307488Y-94123807D01*
X75362653Y-94085180D01*
X75481251Y-93961031D01*
X75561222Y-93781718D01*
X75627374Y-93406553D01*
X75597016Y-93304493D01*
X75558390Y-93249328D01*
X75472867Y-93185895D01*
X75285285Y-93152819D01*
X75183225Y-93183176D01*
X75128060Y-93221803D01*
X75064627Y-93307325D01*
X75023282Y-93541803D01*
X75053640Y-93643863D01*
X75092266Y-93699028D01*
X75177789Y-93762462D01*
X75365371Y-93795537D01*
X75467431Y-93765180D01*
X75522596Y-93726553D01*
X75586029Y-93641031D01*
M02*
