G04 #@! TF.GenerationSoftware,KiCad,Pcbnew,(5.1.2-1)-1*
G04 #@! TF.CreationDate,2022-06-02T01:27:51-04:00*
G04 #@! TF.ProjectId,Cynare - CGS,43796e61-7265-4202-9d20-4347532e6b69,rev?*
G04 #@! TF.SameCoordinates,Original*
G04 #@! TF.FileFunction,Paste,Bot*
G04 #@! TF.FilePolarity,Positive*
%FSLAX46Y46*%
G04 Gerber Fmt 4.6, Leading zero omitted, Abs format (unit mm)*
G04 Created by KiCad (PCBNEW (5.1.2-1)-1) date 2022-06-02 01:27:51*
%MOMM*%
%LPD*%
G04 APERTURE LIST*
%ADD10C,0.100000*%
%ADD11C,0.950000*%
G04 APERTURE END LIST*
D10*
G36*
X62420779Y-54491144D02*
G01*
X62443834Y-54494563D01*
X62466443Y-54500227D01*
X62488387Y-54508079D01*
X62509457Y-54518044D01*
X62529448Y-54530026D01*
X62548168Y-54543910D01*
X62565438Y-54559562D01*
X62581090Y-54576832D01*
X62594974Y-54595552D01*
X62606956Y-54615543D01*
X62616921Y-54636613D01*
X62624773Y-54658557D01*
X62630437Y-54681166D01*
X62633856Y-54704221D01*
X62635000Y-54727500D01*
X62635000Y-55302500D01*
X62633856Y-55325779D01*
X62630437Y-55348834D01*
X62624773Y-55371443D01*
X62616921Y-55393387D01*
X62606956Y-55414457D01*
X62594974Y-55434448D01*
X62581090Y-55453168D01*
X62565438Y-55470438D01*
X62548168Y-55486090D01*
X62529448Y-55499974D01*
X62509457Y-55511956D01*
X62488387Y-55521921D01*
X62466443Y-55529773D01*
X62443834Y-55535437D01*
X62420779Y-55538856D01*
X62397500Y-55540000D01*
X61922500Y-55540000D01*
X61899221Y-55538856D01*
X61876166Y-55535437D01*
X61853557Y-55529773D01*
X61831613Y-55521921D01*
X61810543Y-55511956D01*
X61790552Y-55499974D01*
X61771832Y-55486090D01*
X61754562Y-55470438D01*
X61738910Y-55453168D01*
X61725026Y-55434448D01*
X61713044Y-55414457D01*
X61703079Y-55393387D01*
X61695227Y-55371443D01*
X61689563Y-55348834D01*
X61686144Y-55325779D01*
X61685000Y-55302500D01*
X61685000Y-54727500D01*
X61686144Y-54704221D01*
X61689563Y-54681166D01*
X61695227Y-54658557D01*
X61703079Y-54636613D01*
X61713044Y-54615543D01*
X61725026Y-54595552D01*
X61738910Y-54576832D01*
X61754562Y-54559562D01*
X61771832Y-54543910D01*
X61790552Y-54530026D01*
X61810543Y-54518044D01*
X61831613Y-54508079D01*
X61853557Y-54500227D01*
X61876166Y-54494563D01*
X61899221Y-54491144D01*
X61922500Y-54490000D01*
X62397500Y-54490000D01*
X62420779Y-54491144D01*
X62420779Y-54491144D01*
G37*
D11*
X62160000Y-55015000D03*
D10*
G36*
X62420779Y-56241144D02*
G01*
X62443834Y-56244563D01*
X62466443Y-56250227D01*
X62488387Y-56258079D01*
X62509457Y-56268044D01*
X62529448Y-56280026D01*
X62548168Y-56293910D01*
X62565438Y-56309562D01*
X62581090Y-56326832D01*
X62594974Y-56345552D01*
X62606956Y-56365543D01*
X62616921Y-56386613D01*
X62624773Y-56408557D01*
X62630437Y-56431166D01*
X62633856Y-56454221D01*
X62635000Y-56477500D01*
X62635000Y-57052500D01*
X62633856Y-57075779D01*
X62630437Y-57098834D01*
X62624773Y-57121443D01*
X62616921Y-57143387D01*
X62606956Y-57164457D01*
X62594974Y-57184448D01*
X62581090Y-57203168D01*
X62565438Y-57220438D01*
X62548168Y-57236090D01*
X62529448Y-57249974D01*
X62509457Y-57261956D01*
X62488387Y-57271921D01*
X62466443Y-57279773D01*
X62443834Y-57285437D01*
X62420779Y-57288856D01*
X62397500Y-57290000D01*
X61922500Y-57290000D01*
X61899221Y-57288856D01*
X61876166Y-57285437D01*
X61853557Y-57279773D01*
X61831613Y-57271921D01*
X61810543Y-57261956D01*
X61790552Y-57249974D01*
X61771832Y-57236090D01*
X61754562Y-57220438D01*
X61738910Y-57203168D01*
X61725026Y-57184448D01*
X61713044Y-57164457D01*
X61703079Y-57143387D01*
X61695227Y-57121443D01*
X61689563Y-57098834D01*
X61686144Y-57075779D01*
X61685000Y-57052500D01*
X61685000Y-56477500D01*
X61686144Y-56454221D01*
X61689563Y-56431166D01*
X61695227Y-56408557D01*
X61703079Y-56386613D01*
X61713044Y-56365543D01*
X61725026Y-56345552D01*
X61738910Y-56326832D01*
X61754562Y-56309562D01*
X61771832Y-56293910D01*
X61790552Y-56280026D01*
X61810543Y-56268044D01*
X61831613Y-56258079D01*
X61853557Y-56250227D01*
X61876166Y-56244563D01*
X61899221Y-56241144D01*
X61922500Y-56240000D01*
X62397500Y-56240000D01*
X62420779Y-56241144D01*
X62420779Y-56241144D01*
G37*
D11*
X62160000Y-56765000D03*
D10*
G36*
X65830779Y-47701144D02*
G01*
X65853834Y-47704563D01*
X65876443Y-47710227D01*
X65898387Y-47718079D01*
X65919457Y-47728044D01*
X65939448Y-47740026D01*
X65958168Y-47753910D01*
X65975438Y-47769562D01*
X65991090Y-47786832D01*
X66004974Y-47805552D01*
X66016956Y-47825543D01*
X66026921Y-47846613D01*
X66034773Y-47868557D01*
X66040437Y-47891166D01*
X66043856Y-47914221D01*
X66045000Y-47937500D01*
X66045000Y-48512500D01*
X66043856Y-48535779D01*
X66040437Y-48558834D01*
X66034773Y-48581443D01*
X66026921Y-48603387D01*
X66016956Y-48624457D01*
X66004974Y-48644448D01*
X65991090Y-48663168D01*
X65975438Y-48680438D01*
X65958168Y-48696090D01*
X65939448Y-48709974D01*
X65919457Y-48721956D01*
X65898387Y-48731921D01*
X65876443Y-48739773D01*
X65853834Y-48745437D01*
X65830779Y-48748856D01*
X65807500Y-48750000D01*
X65332500Y-48750000D01*
X65309221Y-48748856D01*
X65286166Y-48745437D01*
X65263557Y-48739773D01*
X65241613Y-48731921D01*
X65220543Y-48721956D01*
X65200552Y-48709974D01*
X65181832Y-48696090D01*
X65164562Y-48680438D01*
X65148910Y-48663168D01*
X65135026Y-48644448D01*
X65123044Y-48624457D01*
X65113079Y-48603387D01*
X65105227Y-48581443D01*
X65099563Y-48558834D01*
X65096144Y-48535779D01*
X65095000Y-48512500D01*
X65095000Y-47937500D01*
X65096144Y-47914221D01*
X65099563Y-47891166D01*
X65105227Y-47868557D01*
X65113079Y-47846613D01*
X65123044Y-47825543D01*
X65135026Y-47805552D01*
X65148910Y-47786832D01*
X65164562Y-47769562D01*
X65181832Y-47753910D01*
X65200552Y-47740026D01*
X65220543Y-47728044D01*
X65241613Y-47718079D01*
X65263557Y-47710227D01*
X65286166Y-47704563D01*
X65309221Y-47701144D01*
X65332500Y-47700000D01*
X65807500Y-47700000D01*
X65830779Y-47701144D01*
X65830779Y-47701144D01*
G37*
D11*
X65570000Y-48225000D03*
D10*
G36*
X65830779Y-49451144D02*
G01*
X65853834Y-49454563D01*
X65876443Y-49460227D01*
X65898387Y-49468079D01*
X65919457Y-49478044D01*
X65939448Y-49490026D01*
X65958168Y-49503910D01*
X65975438Y-49519562D01*
X65991090Y-49536832D01*
X66004974Y-49555552D01*
X66016956Y-49575543D01*
X66026921Y-49596613D01*
X66034773Y-49618557D01*
X66040437Y-49641166D01*
X66043856Y-49664221D01*
X66045000Y-49687500D01*
X66045000Y-50262500D01*
X66043856Y-50285779D01*
X66040437Y-50308834D01*
X66034773Y-50331443D01*
X66026921Y-50353387D01*
X66016956Y-50374457D01*
X66004974Y-50394448D01*
X65991090Y-50413168D01*
X65975438Y-50430438D01*
X65958168Y-50446090D01*
X65939448Y-50459974D01*
X65919457Y-50471956D01*
X65898387Y-50481921D01*
X65876443Y-50489773D01*
X65853834Y-50495437D01*
X65830779Y-50498856D01*
X65807500Y-50500000D01*
X65332500Y-50500000D01*
X65309221Y-50498856D01*
X65286166Y-50495437D01*
X65263557Y-50489773D01*
X65241613Y-50481921D01*
X65220543Y-50471956D01*
X65200552Y-50459974D01*
X65181832Y-50446090D01*
X65164562Y-50430438D01*
X65148910Y-50413168D01*
X65135026Y-50394448D01*
X65123044Y-50374457D01*
X65113079Y-50353387D01*
X65105227Y-50331443D01*
X65099563Y-50308834D01*
X65096144Y-50285779D01*
X65095000Y-50262500D01*
X65095000Y-49687500D01*
X65096144Y-49664221D01*
X65099563Y-49641166D01*
X65105227Y-49618557D01*
X65113079Y-49596613D01*
X65123044Y-49575543D01*
X65135026Y-49555552D01*
X65148910Y-49536832D01*
X65164562Y-49519562D01*
X65181832Y-49503910D01*
X65200552Y-49490026D01*
X65220543Y-49478044D01*
X65241613Y-49468079D01*
X65263557Y-49460227D01*
X65286166Y-49454563D01*
X65309221Y-49451144D01*
X65332500Y-49450000D01*
X65807500Y-49450000D01*
X65830779Y-49451144D01*
X65830779Y-49451144D01*
G37*
D11*
X65570000Y-49975000D03*
M02*
