G04 #@! TF.GenerationSoftware,KiCad,Pcbnew,(5.1.2-1)-1*
G04 #@! TF.CreationDate,2022-06-02T01:27:51-04:00*
G04 #@! TF.ProjectId,Cynare - CGS,43796e61-7265-4202-9d20-4347532e6b69,rev?*
G04 #@! TF.SameCoordinates,Original*
G04 #@! TF.FileFunction,Legend,Bot*
G04 #@! TF.FilePolarity,Positive*
%FSLAX46Y46*%
G04 Gerber Fmt 4.6, Leading zero omitted, Abs format (unit mm)*
G04 Created by KiCad (PCBNEW (5.1.2-1)-1) date 2022-06-02 01:27:51*
%MOMM*%
%LPD*%
G04 APERTURE LIST*
%ADD10C,0.150000*%
%ADD11C,0.120000*%
G04 APERTURE END LIST*
D10*
X21081904Y-118341428D02*
X20320000Y-118341428D01*
X20700952Y-118722380D02*
X20700952Y-117960476D01*
X19320000Y-118722380D02*
X19891428Y-118722380D01*
X19605714Y-118722380D02*
X19605714Y-117722380D01*
X19700952Y-117865238D01*
X19796190Y-117960476D01*
X19891428Y-118008095D01*
X18939047Y-117817619D02*
X18891428Y-117770000D01*
X18796190Y-117722380D01*
X18558095Y-117722380D01*
X18462857Y-117770000D01*
X18415238Y-117817619D01*
X18367619Y-117912857D01*
X18367619Y-118008095D01*
X18415238Y-118150952D01*
X18986666Y-118722380D01*
X18367619Y-118722380D01*
X18081904Y-117722380D02*
X17748571Y-118722380D01*
X17415238Y-117722380D01*
X22190000Y-110118095D02*
X22142380Y-110022857D01*
X22142380Y-109880000D01*
X22190000Y-109737142D01*
X22285238Y-109641904D01*
X22380476Y-109594285D01*
X22570952Y-109546666D01*
X22713809Y-109546666D01*
X22904285Y-109594285D01*
X22999523Y-109641904D01*
X23094761Y-109737142D01*
X23142380Y-109880000D01*
X23142380Y-109975238D01*
X23094761Y-110118095D01*
X23047142Y-110165714D01*
X22713809Y-110165714D01*
X22713809Y-109975238D01*
X23142380Y-110594285D02*
X22142380Y-110594285D01*
X23142380Y-111165714D01*
X22142380Y-111165714D01*
X23142380Y-111641904D02*
X22142380Y-111641904D01*
X22142380Y-111880000D01*
X22190000Y-112022857D01*
X22285238Y-112118095D01*
X22380476Y-112165714D01*
X22570952Y-112213333D01*
X22713809Y-112213333D01*
X22904285Y-112165714D01*
X22999523Y-112118095D01*
X23094761Y-112022857D01*
X23142380Y-111880000D01*
X23142380Y-111641904D01*
X21381904Y-102881428D02*
X20620000Y-102881428D01*
X19620000Y-103262380D02*
X20191428Y-103262380D01*
X19905714Y-103262380D02*
X19905714Y-102262380D01*
X20000952Y-102405238D01*
X20096190Y-102500476D01*
X20191428Y-102548095D01*
X19239047Y-102357619D02*
X19191428Y-102310000D01*
X19096190Y-102262380D01*
X18858095Y-102262380D01*
X18762857Y-102310000D01*
X18715238Y-102357619D01*
X18667619Y-102452857D01*
X18667619Y-102548095D01*
X18715238Y-102690952D01*
X19286666Y-103262380D01*
X18667619Y-103262380D01*
X18381904Y-102262380D02*
X18048571Y-103262380D01*
X17715238Y-102262380D01*
D11*
X61650000Y-56061267D02*
X61650000Y-55718733D01*
X62670000Y-56061267D02*
X62670000Y-55718733D01*
X65060000Y-49271267D02*
X65060000Y-48928733D01*
X66080000Y-49271267D02*
X66080000Y-48928733D01*
D10*
X63947142Y-55247142D02*
X63994761Y-55199523D01*
X64042380Y-55056666D01*
X64042380Y-54961428D01*
X63994761Y-54818571D01*
X63899523Y-54723333D01*
X63804285Y-54675714D01*
X63613809Y-54628095D01*
X63470952Y-54628095D01*
X63280476Y-54675714D01*
X63185238Y-54723333D01*
X63090000Y-54818571D01*
X63042380Y-54961428D01*
X63042380Y-55056666D01*
X63090000Y-55199523D01*
X63137619Y-55247142D01*
X63042380Y-55580476D02*
X63042380Y-56199523D01*
X63423333Y-55866190D01*
X63423333Y-56009047D01*
X63470952Y-56104285D01*
X63518571Y-56151904D01*
X63613809Y-56199523D01*
X63851904Y-56199523D01*
X63947142Y-56151904D01*
X63994761Y-56104285D01*
X64042380Y-56009047D01*
X64042380Y-55723333D01*
X63994761Y-55628095D01*
X63947142Y-55580476D01*
X63137619Y-56580476D02*
X63090000Y-56628095D01*
X63042380Y-56723333D01*
X63042380Y-56961428D01*
X63090000Y-57056666D01*
X63137619Y-57104285D01*
X63232857Y-57151904D01*
X63328095Y-57151904D01*
X63470952Y-57104285D01*
X64042380Y-56532857D01*
X64042380Y-57151904D01*
X64467142Y-48527142D02*
X64514761Y-48479523D01*
X64562380Y-48336666D01*
X64562380Y-48241428D01*
X64514761Y-48098571D01*
X64419523Y-48003333D01*
X64324285Y-47955714D01*
X64133809Y-47908095D01*
X63990952Y-47908095D01*
X63800476Y-47955714D01*
X63705238Y-48003333D01*
X63610000Y-48098571D01*
X63562380Y-48241428D01*
X63562380Y-48336666D01*
X63610000Y-48479523D01*
X63657619Y-48527142D01*
X63562380Y-48860476D02*
X63562380Y-49479523D01*
X63943333Y-49146190D01*
X63943333Y-49289047D01*
X63990952Y-49384285D01*
X64038571Y-49431904D01*
X64133809Y-49479523D01*
X64371904Y-49479523D01*
X64467142Y-49431904D01*
X64514761Y-49384285D01*
X64562380Y-49289047D01*
X64562380Y-49003333D01*
X64514761Y-48908095D01*
X64467142Y-48860476D01*
X64562380Y-50431904D02*
X64562380Y-49860476D01*
X64562380Y-50146190D02*
X63562380Y-50146190D01*
X63705238Y-50050952D01*
X63800476Y-49955714D01*
X63848095Y-49860476D01*
M02*
