M48
; DRILL file {KiCad (5.1.2-1)-1} date Thursday, June 02, 2022 at 01:27:49 AM
; FORMAT={-:-/ absolute / inch / decimal}
; #@! TF.CreationDate,2022-06-02T01:27:49-04:00
; #@! TF.GenerationSoftware,Kicad,Pcbnew,(5.1.2-1)-1
FMAT,2
INCH
T1C0.0315
T2C0.0354
T3C0.0394
T4C0.0394
T5C0.0400
T6C0.1260
%
G90
G05
T1
X2.1875Y-1.2178
X2.3803Y-1.4476
X1.4906Y-3.1807
X1.7906Y-3.1807
X1.987Y-0.8583
X2.1839Y-0.8583
X3.5504Y-3.5701
X3.5504Y-3.8701
X2.6783Y-1.1118
X2.9783Y-1.1118
X1.7346Y-1.9031
X1.7346Y-2.2031
X3.037Y-2.952
X3.037Y-3.052
X3.037Y-3.152
X3.037Y-3.252
X3.337Y-2.952
X3.337Y-3.052
X3.337Y-3.152
X3.337Y-3.252
X3.2484Y-4.7961
X3.5484Y-4.7961
X1.1165Y-2.0531
X1.3134Y-2.0531
X2.9102Y-2.9307
X2.9102Y-3.2307
X1.6201Y-4.1673
X1.6201Y-4.4673
X1.7201Y-4.1673
X1.7201Y-4.4673
X1.8201Y-4.1673
X1.8201Y-4.4673
X1.9201Y-4.1673
X1.9201Y-4.4673
X2.0201Y-4.1673
X2.0201Y-4.4673
X2.1201Y-4.1673
X2.1201Y-4.4673
X2.2201Y-4.1673
X2.2201Y-4.4673
X2.1067Y-2.9591
X2.1067Y-3.2591
X3.0217Y-2.8248
X3.3217Y-2.8248
X1.3642Y-1.2476
X1.6642Y-1.2476
X3.1087Y-3.3776
X3.3055Y-3.3776
X1.0732Y-3.4248
X1.2701Y-3.4248
X1.4898Y-3.3028
X1.7898Y-3.3028
X1.502Y-0.8406
X1.502Y-1.1406
X3.4004Y-2.3858
X3.6302Y-2.5787
X0.9591Y-2.9791
X0.9591Y-3.176
X3.0513Y-1.7499
X3.2811Y-1.5571
X3.2197Y-1.8181
X3.3181Y-1.8181
X1.4673Y-4.874
X1.6642Y-4.874
X3.4272Y-3.4224
X3.4272Y-3.7224
X3.0445Y-2.0591
X3.1445Y-2.0591
X3.2445Y-2.0591
X0.9287Y-2.1091
X0.9287Y-2.4091
X2.0891Y-1.2934
X2.2819Y-1.5232
X2.2276Y-2.4965
X2.2276Y-2.7965
X1.6248Y-0.8421
X1.6248Y-1.1421
X2.5Y-2.3677
X2.5Y-2.6677
X2.3512Y-2.5043
X2.3512Y-2.7012
X1.2047Y-1.1484
X1.2047Y-1.2469
X1.4882Y-3.4252
X1.7882Y-3.4252
X2.6102Y-0.8606
X2.8071Y-0.8606
X1.9679Y-1.0224
X2.0322Y-1.099
X2.0965Y-1.1756
X0.8339Y-2.9803
X0.8339Y-3.1772
X1.7193Y-2.3508
X2.0193Y-2.3508
X3.3646Y-3.989
X3.6646Y-3.989
X3.4516Y-1.5142
X3.4516Y-1.8142
X1.8035Y-2.4748
X1.8035Y-2.5748
X1.8035Y-2.6748
X1.8035Y-2.7748
X2.1035Y-2.4748
X2.1035Y-2.5748
X2.1035Y-2.6748
X2.1035Y-2.7748
X1.0665Y-2.8728
X1.3665Y-2.8728
X2.3575Y-4.1689
X2.3575Y-4.4689
X2.4575Y-4.1689
X2.4575Y-4.4689
X2.5575Y-4.1689
X2.5575Y-4.4689
X2.6575Y-4.1689
X2.6575Y-4.4689
X2.7575Y-4.1689
X2.7575Y-4.4689
X2.8575Y-4.1689
X2.8575Y-4.4689
X2.9575Y-4.1689
X2.9575Y-4.4689
X2.9467Y-4.759
X3.1406Y-4.7248
X2.426Y-3.8579
X2.426Y-4.0547
X2.2906Y-1.1102
X2.5906Y-1.1102
X1.2551Y-0.5945
X1.2551Y-0.8945
X1.611Y-2.1614
X1.611Y-2.4614
X2.787Y-1.7772
X2.787Y-2.0772
X1.175Y-1.6759
X1.4705Y-1.728
X2.3622Y-1.9181
X2.3622Y-2.0181
X2.3622Y-2.1181
X2.3622Y-2.2181
X2.6622Y-1.9181
X2.6622Y-2.0181
X2.6622Y-2.1181
X2.6622Y-2.2181
X1.7661Y-4.8744
X1.963Y-4.8744
X3.0846Y-4.3098
X3.0846Y-4.6098
X3.4807Y-1.9055
X3.4807Y-2.0055
X3.4807Y-2.1055
X2.3012Y-0.8598
X2.498Y-0.8598
X2.2291Y-2.8917
X2.2291Y-3.1917
X3.0303Y-2.7055
X3.2272Y-2.7055
X3.0224Y-3.5004
X3.3224Y-3.5004
X1.7122Y-1.6266
X1.9941Y-1.524
X2.7339Y-2.7091
X2.7681Y-2.6151
X2.8023Y-2.5211
X2.2945Y-0.9839
X2.5945Y-0.9839
X1.0591Y-2.302
X1.0591Y-2.402
X1.0591Y-2.502
X1.0591Y-2.602
X1.3591Y-2.302
X1.3591Y-2.402
X1.3591Y-2.502
X1.3591Y-2.602
X1.0689Y-2.7496
X1.3689Y-2.7496
X2.9114Y-1.7677
X2.9114Y-2.0677
X3.6492Y-4.2276
X3.6492Y-4.4244
X3.5815Y-3.037
X3.5815Y-3.337
X1.0524Y-2.1756
X1.3524Y-2.1756
X2.065Y-4.8748
X2.2618Y-4.8748
X1.6403Y-1.4715
X1.7035Y-1.3961
X3.2453Y-4.6693
X3.5453Y-4.6693
X2.5551Y-4.5933
X2.8551Y-4.5933
X1.9248Y-1.9626
X1.9248Y-2.0413
X1.8441Y-3.7406
X2.0409Y-3.7406
X1.4858Y-2.1598
X1.4858Y-2.4598
X1.3803Y-0.8421
X1.3803Y-1.1421
X1.2091Y-3.5469
X1.5091Y-3.5469
X2.6787Y-1.2362
X2.9787Y-1.2362
X1.8451Y-1.2275
X1.9093Y-1.3041
X1.9736Y-1.3807
X0.9591Y-3.2693
X0.9591Y-3.5693
X0.9291Y-2.5087
X0.9291Y-2.7055
X2.3539Y-2.889
X2.3539Y-3.189
X2.5303Y-4.0453
X2.8303Y-4.0453
X2.3858Y-1.2343
X2.5827Y-1.2343
X2.6488Y-3.7618
X2.7996Y-3.8883
X3.4598Y-2.7409
X3.4598Y-2.9378
X1.772Y-0.9091
X1.8705Y-0.9091
X3.2268Y-4.2413
X3.2268Y-4.3413
X3.2268Y-4.4413
X3.2268Y-4.5413
X3.5268Y-4.2413
X3.5268Y-4.3413
X3.5268Y-4.4413
X3.5268Y-4.5413
X1.821Y-2.8972
X1.9236Y-3.1791
X3.4587Y-3.035
X3.4587Y-3.335
X2.2366Y-1.7736
X2.2366Y-2.0736
X2.1437Y-3.7413
X2.3406Y-3.7413
X2.3882Y-4.5827
X2.3882Y-4.7795
X2.3626Y-1.7906
X2.6626Y-1.7906
X1.0492Y-4.6315
X1.3492Y-4.6315
X1.5461Y-3.7406
X1.7429Y-3.7406
X1.5313Y-3.0162
X1.7252Y-3.0504
X2.9591Y-2.574
X3.2591Y-2.574
X0.8693Y-1.4299
X1.1693Y-1.4299
X3.363Y-4.1106
X3.663Y-4.1106
X2.9181Y-2.211
X3.2181Y-2.211
X1.0841Y-2.9998
X1.0841Y-3.0998
X1.0841Y-3.1998
X1.0841Y-3.2998
X1.3841Y-2.9998
X1.3841Y-3.0998
X1.3841Y-3.1998
X1.3841Y-3.2998
T2
X2.2768Y-3.2957
X2.2768Y-3.3957
T3
X2.087Y-4.574
X2.087Y-4.7709
X2.2839Y-4.6724
X1.478Y-4.574
X1.478Y-4.7709
X1.6748Y-4.6724
X3.1138Y-0.7346
X3.3138Y-0.7346
X2.1252Y-4.0413
X2.2236Y-3.8445
X2.322Y-4.0413
X2.198Y-0.7346
X2.398Y-0.7346
X1.4185Y-2.0524
X1.6185Y-2.0524
X2.5031Y-0.7346
X2.7031Y-0.7346
X1.8445Y-4.0409
X1.9429Y-3.8441
X2.0413Y-4.0409
X1.417Y-1.9238
X1.617Y-1.9238
X1.4767Y-2.7428
X1.6736Y-2.7776
X1.7831Y-4.5736
X1.7831Y-4.7705
X1.9799Y-4.672
X1.5606Y-4.0413
X1.6591Y-3.8445
X1.7575Y-4.0413
X1.5874Y-0.7346
X1.7874Y-0.7346
X2.8082Y-0.736
X3.0082Y-0.736
X1.4772Y-2.8732
X1.6741Y-2.908
X1.8929Y-0.7346
X2.0929Y-0.7346
T4
X1.961Y-2.2181
X1.02Y-4.33
X1.02Y-4.48
X3.2941Y-3.6339
X2.8016Y-2.2004
X2.4614Y-3.3091
X3.563Y-3.4531
X3.4185Y-3.8386
X2.1768Y-0.9917
X1.7642Y-3.5661
X3.3331Y-2.2228
X0.9362Y-1.9937
X2.5575Y-3.913
X1.7567Y-1.1134
X2.1528Y-1.576
X0.7257Y-3.86
X0.8757Y-3.86
X1.9071Y-3.3134
X2.5768Y-2.798
X3.3744Y-2.6173
X0.8004Y-2.8465
X0.8256Y-3.3067
X3.5866Y-1.789
X0.65Y-4.84
X0.8Y-4.84
X1.4965Y-2.578
X0.8205Y-3.4524
X1.6598Y-2.6374
X1.2469Y-1.015
X0.8984Y-1.2965
X3.2496Y-3.9976
X2.9004Y-2.8094
X1.0795Y-4.7681
X1.2236Y-4.7685
T5
X0.71Y-4.15
X0.71Y-4.25
X0.71Y-4.35
X0.71Y-4.45
X0.71Y-4.55
X0.81Y-4.15
X0.81Y-4.25
X0.81Y-4.35
X0.81Y-4.45
X0.81Y-4.55
T6
X1.36Y-1.48
X1.36Y-3.8
X3.03Y-1.48
X3.03Y-3.8
T0
M30
