M48
; DRILL file {KiCad (5.1.2-1)-1} date Thursday, December 17, 2020 at 08:14:45 PM
; FORMAT={-:-/ absolute / inch / decimal}
; #@! TF.CreationDate,2020-12-17T20:14:45-05:00
; #@! TF.GenerationSoftware,Kicad,Pcbnew,(5.1.2-1)-1
FMAT,2
INCH
T1C0.0157
T2C0.0236
T3C0.0315
T4C0.0394
T5C0.0394
T6C0.1378
%
G90
G05
T1
X0.665Y-1.5025
X2.1Y-3.1175
X3.0375Y-2.76
T2
X3.155Y-0.6313
X3.155Y-0.71
X3.4675Y-0.635
X3.4675Y-0.7137
T3
X3.715Y-1.9275
X3.715Y-2.0275
X3.715Y-2.1275
X3.715Y-2.2275
X4.015Y-1.9275
X4.015Y-2.0275
X4.015Y-2.1275
X4.015Y-2.2275
X3.0874Y-3.5881
X3.1814Y-3.5539
X3.19Y-3.87
X3.2753Y-3.5197
X3.284Y-3.8358
X3.3693Y-3.4855
X3.3779Y-3.8016
X3.4633Y-3.4513
X3.4719Y-3.7674
X3.5572Y-3.4171
X3.5659Y-3.7332
X3.6512Y-3.3829
X3.6598Y-3.699
X3.7452Y-3.3487
X3.7538Y-3.6648
X3.8478Y-3.6306
X2.52Y-2.28
X2.52Y-2.4178
X2.6025Y-1.1575
X2.9025Y-1.1575
X4.9825Y-2.34
X4.9825Y-2.64
X4.1574Y-3.6331
X4.26Y-3.915
X2.35Y-3.64
X2.65Y-3.64
X1.65Y-0.92
X1.65Y-1.22
X4.4875Y-2.7425
X4.4875Y-2.8409
X1.84Y-3.44
X2.14Y-3.44
X4.5591Y-3.5587
X4.7519Y-3.7885
X0.67Y-2.42
X0.67Y-2.72
X1.96Y-2.42
X1.96Y-2.72
X2.06Y-2.42
X2.06Y-2.72
X2.16Y-2.42
X2.16Y-2.72
X2.26Y-2.42
X2.26Y-2.72
X2.6731Y-1.99
X2.87Y-1.99
X4.1225Y-1.1325
X4.4225Y-1.1325
X2.1Y-0.92
X2.1Y-1.22
X3.365Y-1.475
X3.665Y-1.475
X0.86Y-1.3
X0.86Y-1.6
X3.4324Y-4.0031
X3.535Y-4.285
X1.47Y-3.2
X1.77Y-3.2
X5.295Y-2.34
X5.295Y-2.64
X1.38Y-2.42
X1.38Y-2.72
X1.25Y-2.48
X1.25Y-2.6769
X3.8825Y-3.295
X3.9851Y-3.5769
X3.8375Y-0.665
X3.8375Y-0.965
X3.9375Y-0.665
X3.9375Y-0.965
X4.0375Y-0.665
X4.0375Y-0.965
X4.1375Y-0.665
X4.1375Y-0.965
X3.36Y-1.6031
X3.36Y-1.8
X2.7099Y-2.6094
X2.8125Y-2.3275
X1.05Y-0.92
X1.05Y-1.22
X4.49Y-2.485
X4.49Y-2.5834
X4.68Y-2.395
X4.68Y-2.695
X2.13Y-1.55
X2.13Y-1.65
X2.13Y-1.75
X2.13Y-1.85
X2.43Y-1.55
X2.43Y-1.65
X2.43Y-1.75
X2.43Y-1.85
X3.255Y-1.1825
X3.255Y-1.4825
X1.35Y-0.92
X1.35Y-1.22
X2.8425Y-1.3975
X3.1425Y-1.3975
X4.285Y-3.59
X4.3876Y-3.8719
X1.15Y-1.4
X1.15Y-1.7
X1.25Y-1.4
X1.25Y-1.7
X1.35Y-1.4
X1.35Y-1.7
X1.45Y-1.4
X1.45Y-1.7
X2.33Y-1.05
X2.33Y-1.35
X1.65Y-1.55
X1.65Y-1.7469
X3.16Y-3.29
X3.345Y-3.2227
X1.95Y-1.35
X1.95Y-1.65
X0.86Y-1.75
X0.86Y-1.9469
X3.5275Y-2.0356
X3.5275Y-2.2325
X2.92Y-2.6025
X2.92Y-2.9025
X1.12Y-2.42
X1.12Y-2.72
X2.25Y-3.13
X2.25Y-3.43
X2.35Y-3.13
X2.35Y-3.43
X2.45Y-3.13
X2.45Y-3.43
X2.55Y-3.13
X2.55Y-3.43
X2.65Y-3.13
X2.65Y-3.43
X2.75Y-3.13
X2.75Y-3.43
X2.85Y-3.13
X2.85Y-3.43
X3.7015Y-2.4688
X4.0015Y-2.4688
X3.33Y-2.25
X3.33Y-2.55
X1.95Y-0.92
X1.95Y-1.22
X2.78Y-3.62
X2.78Y-3.92
X1.8Y-0.92
X1.8Y-1.22
X3.87Y-3.84
X3.9726Y-4.1219
X3.665Y-3.915
X3.7676Y-4.1969
X1.55Y-2.94
X1.7469Y-2.94
X4.21Y-1.7906
X4.21Y-1.9875
X0.93Y-2.42
X0.93Y-2.72
X0.8Y-2.42
X0.8Y-2.72
X4.13Y-2.125
X4.43Y-2.125
X5.1325Y-2.34
X5.1325Y-2.64
X1.51Y-2.42
X1.51Y-2.72
X4.1125Y-1.4925
X4.4125Y-1.4925
X1.2Y-0.92
X1.2Y-1.22
X1.2Y-1.9
X1.3969Y-1.9
X3.7515Y-2.6438
X3.9483Y-2.6438
X1.6Y-1.95
X1.9Y-1.95
X4.845Y-2.34
X4.845Y-2.64
X1.0731Y-2.13
X1.27Y-2.13
X3.5524Y-3.9581
X3.655Y-4.24
X1.8Y-1.35
X1.8Y-1.65
X1.5Y-0.92
X1.5Y-1.22
X1.9075Y-2.97
X1.9075Y-3.27
X2.41Y-2.57
X2.41Y-2.87
X2.35Y-3.77
X2.65Y-3.77
X1.65Y-2.47
X1.65Y-2.57
X1.65Y-2.67
X3.105Y-2.31
X3.105Y-2.61
T4
X3.0609Y-3.0275
X3.2488Y-2.9591
X2.5956Y-0.9175
X2.6941Y-0.7206
X2.7925Y-0.9175
X3.1475Y-0.86
X3.1475Y-1.06
X1.15Y-2.94
X1.35Y-2.94
X4.1131Y-4.3234
X4.31Y-4.225
X4.31Y-4.4219
X4.4782Y-4.0861
X4.655Y-3.955
X4.6892Y-4.1489
X2.68Y-1.61
X2.7784Y-1.8069
X2.8769Y-1.61
X3.2975Y-0.86
X3.2975Y-1.06
X3.5975Y-0.86
X3.5975Y-1.06
X2.46Y-1.11
X2.46Y-1.31
X3.02Y-1.61
X3.1184Y-1.8069
X3.2169Y-1.61
X3.1122Y-3.1685
X3.3001Y-3.1001
X4.36Y-3.32
X4.5305Y-3.2216
X4.5437Y-3.4413
X2.3125Y-0.7375
X2.4109Y-0.9344
X2.5094Y-0.7375
X3.4475Y-0.86
X3.4475Y-1.06
T5
X3.8425Y-3.19
X4.42Y-0.6975
X1.35Y-3.2
X5.3025Y-2.2
X1.2Y-0.8
X5.3025Y-2.055
X1.95Y-0.8
X4.9975Y-3.0125
X5.1475Y-3.0125
X1.35Y-0.8
X4.87Y-0.6975
X4.57Y-0.6975
X5.3025Y-1.91
X1.65Y-0.8
X1.72Y-3.44
X4.72Y-0.6975
X4.9975Y-3.5125
X5.1475Y-3.5125
X1.8Y-0.8
X1.05Y-0.8
X5.3025Y-1.76
X2.1Y-0.8
X4.685Y-2.18
X1.5Y-0.8
X4.9975Y-3.2625
X5.1475Y-3.2625
T6
X0.7Y-4.3
X5.3Y-4.3
X0.7Y-0.7
X5.3Y-0.7
T0
M30
