G04 #@! TF.GenerationSoftware,KiCad,Pcbnew,(5.1.2-1)-1*
G04 #@! TF.CreationDate,2022-01-04T14:15:43-05:00*
G04 #@! TF.ProjectId,Utility LFO - CGS,5574696c-6974-4792-904c-464f202d2043,rev?*
G04 #@! TF.SameCoordinates,Original*
G04 #@! TF.FileFunction,Soldermask,Top*
G04 #@! TF.FilePolarity,Negative*
%FSLAX46Y46*%
G04 Gerber Fmt 4.6, Leading zero omitted, Abs format (unit mm)*
G04 Created by KiCad (PCBNEW (5.1.2-1)-1) date 2022-01-04 14:15:43*
%MOMM*%
%LPD*%
G04 APERTURE LIST*
%ADD10C,0.100000*%
G04 APERTURE END LIST*
D10*
G36*
X18239393Y-49439304D02*
G01*
X18429934Y-49518229D01*
X18476103Y-49537353D01*
X18689135Y-49679696D01*
X18870304Y-49860865D01*
X19012647Y-50073897D01*
X19012648Y-50073899D01*
X19110696Y-50310607D01*
X19160680Y-50561893D01*
X19160680Y-50818107D01*
X19110696Y-51069393D01*
X19023818Y-51279134D01*
X19012647Y-51306103D01*
X18870304Y-51519135D01*
X18689135Y-51700304D01*
X18476103Y-51842647D01*
X18476102Y-51842648D01*
X18476101Y-51842648D01*
X18239393Y-51940696D01*
X17988107Y-51990680D01*
X17731893Y-51990680D01*
X17480607Y-51940696D01*
X17243899Y-51842648D01*
X17243898Y-51842648D01*
X17243897Y-51842647D01*
X17030865Y-51700304D01*
X16849696Y-51519135D01*
X16707353Y-51306103D01*
X16696182Y-51279134D01*
X16609304Y-51069393D01*
X16559320Y-50818107D01*
X16559320Y-50561893D01*
X16609304Y-50310607D01*
X16707352Y-50073899D01*
X16707353Y-50073897D01*
X16849696Y-49860865D01*
X17030865Y-49679696D01*
X17243897Y-49537353D01*
X17290066Y-49518229D01*
X17480607Y-49439304D01*
X17731893Y-49389320D01*
X17988107Y-49389320D01*
X18239393Y-49439304D01*
X18239393Y-49439304D01*
G37*
G36*
X43629393Y-49199304D02*
G01*
X43856719Y-49293466D01*
X43866103Y-49297353D01*
X44079135Y-49439696D01*
X44260304Y-49620865D01*
X44388337Y-49812481D01*
X44402648Y-49833899D01*
X44500696Y-50070607D01*
X44550680Y-50321893D01*
X44550680Y-50578107D01*
X44500696Y-50829393D01*
X44402648Y-51066101D01*
X44402647Y-51066103D01*
X44260304Y-51279135D01*
X44079135Y-51460304D01*
X43866103Y-51602647D01*
X43866102Y-51602648D01*
X43866101Y-51602648D01*
X43629393Y-51700696D01*
X43378107Y-51750680D01*
X43121893Y-51750680D01*
X42870607Y-51700696D01*
X42633899Y-51602648D01*
X42633898Y-51602648D01*
X42633897Y-51602647D01*
X42420865Y-51460304D01*
X42239696Y-51279135D01*
X42097353Y-51066103D01*
X42097352Y-51066101D01*
X41999304Y-50829393D01*
X41949320Y-50578107D01*
X41949320Y-50321893D01*
X41999304Y-50070607D01*
X42097352Y-49833899D01*
X42111663Y-49812481D01*
X42239696Y-49620865D01*
X42420865Y-49439696D01*
X42633897Y-49297353D01*
X42643281Y-49293466D01*
X42870607Y-49199304D01*
X43121893Y-49149320D01*
X43378107Y-49149320D01*
X43629393Y-49199304D01*
X43629393Y-49199304D01*
G37*
G36*
X47319393Y-47919304D02*
G01*
X47556101Y-48017352D01*
X47556103Y-48017353D01*
X47769135Y-48159696D01*
X47950304Y-48340865D01*
X48070233Y-48520352D01*
X48092648Y-48553899D01*
X48190696Y-48790607D01*
X48240680Y-49041893D01*
X48240680Y-49298107D01*
X48190696Y-49549393D01*
X48133452Y-49687592D01*
X48092647Y-49786103D01*
X47950304Y-49999135D01*
X47769135Y-50180304D01*
X47556103Y-50322647D01*
X47556102Y-50322648D01*
X47556101Y-50322648D01*
X47319393Y-50420696D01*
X47068107Y-50470680D01*
X46811893Y-50470680D01*
X46560607Y-50420696D01*
X46323899Y-50322648D01*
X46323898Y-50322648D01*
X46323897Y-50322647D01*
X46110865Y-50180304D01*
X45929696Y-49999135D01*
X45787353Y-49786103D01*
X45746548Y-49687592D01*
X45689304Y-49549393D01*
X45639320Y-49298107D01*
X45639320Y-49041893D01*
X45689304Y-48790607D01*
X45787352Y-48553899D01*
X45809767Y-48520352D01*
X45929696Y-48340865D01*
X46110865Y-48159696D01*
X46323897Y-48017353D01*
X46323899Y-48017352D01*
X46560607Y-47919304D01*
X46811893Y-47869320D01*
X47068107Y-47869320D01*
X47319393Y-47919304D01*
X47319393Y-47919304D01*
G37*
G36*
X33256416Y-48179879D02*
G01*
X33447592Y-48259067D01*
X33447594Y-48259068D01*
X33619648Y-48374031D01*
X33765969Y-48520352D01*
X33862848Y-48665341D01*
X33880933Y-48692408D01*
X33960121Y-48883584D01*
X34000490Y-49086534D01*
X34000490Y-49293466D01*
X33960121Y-49496416D01*
X33880933Y-49687592D01*
X33880932Y-49687594D01*
X33765969Y-49859648D01*
X33619648Y-50005969D01*
X33447594Y-50120932D01*
X33447593Y-50120933D01*
X33447592Y-50120933D01*
X33256416Y-50200121D01*
X33053466Y-50240490D01*
X32846534Y-50240490D01*
X32643584Y-50200121D01*
X32452408Y-50120933D01*
X32452407Y-50120933D01*
X32452406Y-50120932D01*
X32280352Y-50005969D01*
X32134031Y-49859648D01*
X32019068Y-49687594D01*
X32019067Y-49687592D01*
X31939879Y-49496416D01*
X31899510Y-49293466D01*
X31899510Y-49086534D01*
X31939879Y-48883584D01*
X32019067Y-48692408D01*
X32037153Y-48665341D01*
X32134031Y-48520352D01*
X32280352Y-48374031D01*
X32452406Y-48259068D01*
X32452408Y-48259067D01*
X32643584Y-48179879D01*
X32846534Y-48139510D01*
X33053466Y-48139510D01*
X33256416Y-48179879D01*
X33256416Y-48179879D01*
G37*
G36*
X30278228Y-48451703D02*
G01*
X30433100Y-48515853D01*
X30572481Y-48608985D01*
X30691015Y-48727519D01*
X30784147Y-48866900D01*
X30848297Y-49021772D01*
X30881000Y-49186184D01*
X30881000Y-49353816D01*
X30848297Y-49518228D01*
X30784147Y-49673100D01*
X30691015Y-49812481D01*
X30572481Y-49931015D01*
X30433100Y-50024147D01*
X30278228Y-50088297D01*
X30113816Y-50121000D01*
X29946184Y-50121000D01*
X29781772Y-50088297D01*
X29626900Y-50024147D01*
X29487519Y-49931015D01*
X29368985Y-49812481D01*
X29275853Y-49673100D01*
X29211703Y-49518228D01*
X29179000Y-49353816D01*
X29179000Y-49186184D01*
X29211703Y-49021772D01*
X29275853Y-48866900D01*
X29368985Y-48727519D01*
X29487519Y-48608985D01*
X29626900Y-48515853D01*
X29781772Y-48451703D01*
X29946184Y-48419000D01*
X30113816Y-48419000D01*
X30278228Y-48451703D01*
X30278228Y-48451703D01*
G37*
G36*
X22576823Y-48431313D02*
G01*
X22737242Y-48479976D01*
X22804361Y-48515852D01*
X22885078Y-48558996D01*
X23014659Y-48665341D01*
X23121004Y-48794922D01*
X23121005Y-48794924D01*
X23200024Y-48942758D01*
X23248687Y-49103177D01*
X23265117Y-49270000D01*
X23248687Y-49436823D01*
X23200024Y-49597242D01*
X23159477Y-49673100D01*
X23121004Y-49745078D01*
X23014659Y-49874659D01*
X22885078Y-49981004D01*
X22885076Y-49981005D01*
X22737242Y-50060024D01*
X22576823Y-50108687D01*
X22451804Y-50121000D01*
X22368196Y-50121000D01*
X22243177Y-50108687D01*
X22082758Y-50060024D01*
X21934924Y-49981005D01*
X21934922Y-49981004D01*
X21805341Y-49874659D01*
X21698996Y-49745078D01*
X21660523Y-49673100D01*
X21619976Y-49597242D01*
X21571313Y-49436823D01*
X21554883Y-49270000D01*
X21571313Y-49103177D01*
X21619976Y-48942758D01*
X21698995Y-48794924D01*
X21698996Y-48794922D01*
X21805341Y-48665341D01*
X21934922Y-48558996D01*
X22015639Y-48515852D01*
X22082758Y-48479976D01*
X22243177Y-48431313D01*
X22368196Y-48419000D01*
X22451804Y-48419000D01*
X22576823Y-48431313D01*
X22576823Y-48431313D01*
G37*
G36*
X16238228Y-46921703D02*
G01*
X16393100Y-46985853D01*
X16532481Y-47078985D01*
X16651015Y-47197519D01*
X16744147Y-47336900D01*
X16808297Y-47491772D01*
X16841000Y-47656184D01*
X16841000Y-47823816D01*
X16808297Y-47988228D01*
X16744147Y-48143100D01*
X16651015Y-48282481D01*
X16532481Y-48401015D01*
X16393100Y-48494147D01*
X16238228Y-48558297D01*
X16073816Y-48591000D01*
X15906184Y-48591000D01*
X15741772Y-48558297D01*
X15586900Y-48494147D01*
X15447519Y-48401015D01*
X15328985Y-48282481D01*
X15235853Y-48143100D01*
X15171703Y-47988228D01*
X15139000Y-47823816D01*
X15139000Y-47656184D01*
X15171703Y-47491772D01*
X15235853Y-47336900D01*
X15328985Y-47197519D01*
X15447519Y-47078985D01*
X15586900Y-46985853D01*
X15741772Y-46921703D01*
X15906184Y-46889000D01*
X16073816Y-46889000D01*
X16238228Y-46921703D01*
X16238228Y-46921703D01*
G37*
G36*
X19809393Y-45639304D02*
G01*
X20046101Y-45737352D01*
X20046103Y-45737353D01*
X20259135Y-45879696D01*
X20440304Y-46060865D01*
X20570756Y-46256101D01*
X20582648Y-46273899D01*
X20680696Y-46510607D01*
X20730680Y-46761893D01*
X20730680Y-47018107D01*
X20680696Y-47269393D01*
X20588584Y-47491771D01*
X20582647Y-47506103D01*
X20440304Y-47719135D01*
X20259135Y-47900304D01*
X20046103Y-48042647D01*
X20046102Y-48042648D01*
X20046101Y-48042648D01*
X19809393Y-48140696D01*
X19558107Y-48190680D01*
X19301893Y-48190680D01*
X19050607Y-48140696D01*
X18813899Y-48042648D01*
X18813898Y-48042648D01*
X18813897Y-48042647D01*
X18600865Y-47900304D01*
X18419696Y-47719135D01*
X18277353Y-47506103D01*
X18271416Y-47491771D01*
X18179304Y-47269393D01*
X18129320Y-47018107D01*
X18129320Y-46761893D01*
X18179304Y-46510607D01*
X18277352Y-46273899D01*
X18289244Y-46256101D01*
X18419696Y-46060865D01*
X18600865Y-45879696D01*
X18813897Y-45737353D01*
X18813899Y-45737352D01*
X19050607Y-45639304D01*
X19301893Y-45589320D01*
X19558107Y-45589320D01*
X19809393Y-45639304D01*
X19809393Y-45639304D01*
G37*
G36*
X41173642Y-45799781D02*
G01*
X41279951Y-45843816D01*
X41319416Y-45860163D01*
X41450608Y-45947822D01*
X41562178Y-46059392D01*
X41631471Y-46163097D01*
X41649838Y-46190586D01*
X41710219Y-46336358D01*
X41741000Y-46491107D01*
X41741000Y-46648893D01*
X41710219Y-46803642D01*
X41686458Y-46861005D01*
X41649837Y-46949416D01*
X41562178Y-47080608D01*
X41450608Y-47192178D01*
X41319416Y-47279837D01*
X41319415Y-47279838D01*
X41319414Y-47279838D01*
X41173642Y-47340219D01*
X41018893Y-47371000D01*
X40861107Y-47371000D01*
X40706358Y-47340219D01*
X40560586Y-47279838D01*
X40560585Y-47279838D01*
X40560584Y-47279837D01*
X40429392Y-47192178D01*
X40317822Y-47080608D01*
X40230163Y-46949416D01*
X40193542Y-46861005D01*
X40169781Y-46803642D01*
X40139000Y-46648893D01*
X40139000Y-46491107D01*
X40169781Y-46336358D01*
X40230162Y-46190586D01*
X40248529Y-46163097D01*
X40317822Y-46059392D01*
X40429392Y-45947822D01*
X40560584Y-45860163D01*
X40600049Y-45843816D01*
X40706358Y-45799781D01*
X40861107Y-45769000D01*
X41018893Y-45769000D01*
X41173642Y-45799781D01*
X41173642Y-45799781D01*
G37*
G36*
X38633642Y-45799781D02*
G01*
X38739951Y-45843816D01*
X38779416Y-45860163D01*
X38910608Y-45947822D01*
X39022178Y-46059392D01*
X39091471Y-46163097D01*
X39109838Y-46190586D01*
X39170219Y-46336358D01*
X39201000Y-46491107D01*
X39201000Y-46648893D01*
X39170219Y-46803642D01*
X39146458Y-46861005D01*
X39109837Y-46949416D01*
X39022178Y-47080608D01*
X38910608Y-47192178D01*
X38779416Y-47279837D01*
X38779415Y-47279838D01*
X38779414Y-47279838D01*
X38633642Y-47340219D01*
X38478893Y-47371000D01*
X38321107Y-47371000D01*
X38166358Y-47340219D01*
X38020586Y-47279838D01*
X38020585Y-47279838D01*
X38020584Y-47279837D01*
X37889392Y-47192178D01*
X37777822Y-47080608D01*
X37690163Y-46949416D01*
X37653542Y-46861005D01*
X37629781Y-46803642D01*
X37599000Y-46648893D01*
X37599000Y-46491107D01*
X37629781Y-46336358D01*
X37690162Y-46190586D01*
X37708529Y-46163097D01*
X37777822Y-46059392D01*
X37889392Y-45947822D01*
X38020584Y-45860163D01*
X38060049Y-45843816D01*
X38166358Y-45799781D01*
X38321107Y-45769000D01*
X38478893Y-45769000D01*
X38633642Y-45799781D01*
X38633642Y-45799781D01*
G37*
G36*
X36661000Y-47371000D02*
G01*
X35059000Y-47371000D01*
X35059000Y-45769000D01*
X36661000Y-45769000D01*
X36661000Y-47371000D01*
X36661000Y-47371000D01*
G37*
G36*
X30136823Y-45311313D02*
G01*
X30297242Y-45359976D01*
X30366327Y-45396903D01*
X30445078Y-45438996D01*
X30574659Y-45545341D01*
X30681004Y-45674922D01*
X30681679Y-45676185D01*
X30760024Y-45822758D01*
X30808687Y-45983177D01*
X30825117Y-46150000D01*
X30808687Y-46316823D01*
X30760024Y-46477242D01*
X30719477Y-46553100D01*
X30681004Y-46625078D01*
X30574659Y-46754659D01*
X30445078Y-46861004D01*
X30445076Y-46861005D01*
X30297242Y-46940024D01*
X30297239Y-46940025D01*
X30267380Y-46949083D01*
X30136823Y-46988687D01*
X30011804Y-47001000D01*
X29928196Y-47001000D01*
X29803177Y-46988687D01*
X29672620Y-46949083D01*
X29642761Y-46940025D01*
X29642758Y-46940024D01*
X29494924Y-46861005D01*
X29494922Y-46861004D01*
X29365341Y-46754659D01*
X29258996Y-46625078D01*
X29220523Y-46553100D01*
X29179976Y-46477242D01*
X29131313Y-46316823D01*
X29114883Y-46150000D01*
X29131313Y-45983177D01*
X29179976Y-45822758D01*
X29258321Y-45676185D01*
X29258996Y-45674922D01*
X29365341Y-45545341D01*
X29494922Y-45438996D01*
X29573673Y-45396903D01*
X29642758Y-45359976D01*
X29803177Y-45311313D01*
X29928196Y-45299000D01*
X30011804Y-45299000D01*
X30136823Y-45311313D01*
X30136823Y-45311313D01*
G37*
G36*
X22598228Y-45331703D02*
G01*
X22753100Y-45395853D01*
X22892481Y-45488985D01*
X23011015Y-45607519D01*
X23104147Y-45746900D01*
X23168297Y-45901772D01*
X23201000Y-46066184D01*
X23201000Y-46233816D01*
X23168297Y-46398228D01*
X23104147Y-46553100D01*
X23011015Y-46692481D01*
X22892481Y-46811015D01*
X22753100Y-46904147D01*
X22598228Y-46968297D01*
X22433816Y-47001000D01*
X22266184Y-47001000D01*
X22101772Y-46968297D01*
X21946900Y-46904147D01*
X21807519Y-46811015D01*
X21688985Y-46692481D01*
X21595853Y-46553100D01*
X21531703Y-46398228D01*
X21499000Y-46233816D01*
X21499000Y-46066184D01*
X21531703Y-45901772D01*
X21595853Y-45746900D01*
X21688985Y-45607519D01*
X21807519Y-45488985D01*
X21946900Y-45395853D01*
X22101772Y-45331703D01*
X22266184Y-45299000D01*
X22433816Y-45299000D01*
X22598228Y-45331703D01*
X22598228Y-45331703D01*
G37*
G36*
X33329393Y-44389304D02*
G01*
X33566101Y-44487352D01*
X33566103Y-44487353D01*
X33779135Y-44629696D01*
X33960304Y-44810865D01*
X34093345Y-45009976D01*
X34102648Y-45023899D01*
X34200696Y-45260607D01*
X34250680Y-45511893D01*
X34250680Y-45768107D01*
X34200696Y-46019393D01*
X34141170Y-46163100D01*
X34102647Y-46256103D01*
X33960304Y-46469135D01*
X33779135Y-46650304D01*
X33566103Y-46792647D01*
X33566102Y-46792648D01*
X33566101Y-46792648D01*
X33329393Y-46890696D01*
X33078107Y-46940680D01*
X32821893Y-46940680D01*
X32570607Y-46890696D01*
X32333899Y-46792648D01*
X32333898Y-46792648D01*
X32333897Y-46792647D01*
X32120865Y-46650304D01*
X31939696Y-46469135D01*
X31797353Y-46256103D01*
X31758830Y-46163100D01*
X31699304Y-46019393D01*
X31649320Y-45768107D01*
X31649320Y-45511893D01*
X31699304Y-45260607D01*
X31797352Y-45023899D01*
X31806655Y-45009976D01*
X31939696Y-44810865D01*
X32120865Y-44629696D01*
X32333897Y-44487353D01*
X32333899Y-44487352D01*
X32570607Y-44389304D01*
X32821893Y-44339320D01*
X33078107Y-44339320D01*
X33329393Y-44389304D01*
X33329393Y-44389304D01*
G37*
G36*
X47606823Y-44961313D02*
G01*
X47737380Y-45000917D01*
X47753651Y-45005853D01*
X47767242Y-45009976D01*
X47834361Y-45045852D01*
X47915078Y-45088996D01*
X48044659Y-45195341D01*
X48151004Y-45324922D01*
X48151005Y-45324924D01*
X48230024Y-45472758D01*
X48278687Y-45633177D01*
X48295117Y-45800000D01*
X48278687Y-45966823D01*
X48230024Y-46127242D01*
X48189477Y-46203100D01*
X48151004Y-46275078D01*
X48044659Y-46404659D01*
X47915078Y-46511004D01*
X47915076Y-46511005D01*
X47767242Y-46590024D01*
X47606823Y-46638687D01*
X47481804Y-46651000D01*
X47398196Y-46651000D01*
X47273177Y-46638687D01*
X47112758Y-46590024D01*
X46964924Y-46511005D01*
X46964922Y-46511004D01*
X46835341Y-46404659D01*
X46728996Y-46275078D01*
X46690523Y-46203100D01*
X46649976Y-46127242D01*
X46601313Y-45966823D01*
X46584883Y-45800000D01*
X46601313Y-45633177D01*
X46649976Y-45472758D01*
X46728995Y-45324924D01*
X46728996Y-45324922D01*
X46835341Y-45195341D01*
X46964922Y-45088996D01*
X47045639Y-45045852D01*
X47112758Y-45009976D01*
X47126350Y-45005853D01*
X47142620Y-45000917D01*
X47273177Y-44961313D01*
X47398196Y-44949000D01*
X47481804Y-44949000D01*
X47606823Y-44961313D01*
X47606823Y-44961313D01*
G37*
G36*
X55308228Y-44981703D02*
G01*
X55463100Y-45045853D01*
X55602481Y-45138985D01*
X55721015Y-45257519D01*
X55814147Y-45396900D01*
X55878297Y-45551772D01*
X55911000Y-45716184D01*
X55911000Y-45883816D01*
X55878297Y-46048228D01*
X55814147Y-46203100D01*
X55721015Y-46342481D01*
X55602481Y-46461015D01*
X55463100Y-46554147D01*
X55308228Y-46618297D01*
X55143816Y-46651000D01*
X54976184Y-46651000D01*
X54811772Y-46618297D01*
X54656900Y-46554147D01*
X54517519Y-46461015D01*
X54398985Y-46342481D01*
X54305853Y-46203100D01*
X54241703Y-46048228D01*
X54209000Y-45883816D01*
X54209000Y-45716184D01*
X54241703Y-45551772D01*
X54305853Y-45396900D01*
X54398985Y-45257519D01*
X54517519Y-45138985D01*
X54656900Y-45045853D01*
X54811772Y-44981703D01*
X54976184Y-44949000D01*
X55143816Y-44949000D01*
X55308228Y-44981703D01*
X55308228Y-44981703D01*
G37*
G36*
X43838228Y-44941703D02*
G01*
X43993100Y-45005853D01*
X44132481Y-45098985D01*
X44251015Y-45217519D01*
X44344147Y-45356900D01*
X44408297Y-45511772D01*
X44441000Y-45676184D01*
X44441000Y-45843816D01*
X44408297Y-46008228D01*
X44344147Y-46163100D01*
X44251015Y-46302481D01*
X44132481Y-46421015D01*
X43993100Y-46514147D01*
X43838228Y-46578297D01*
X43673816Y-46611000D01*
X43506184Y-46611000D01*
X43341772Y-46578297D01*
X43186900Y-46514147D01*
X43047519Y-46421015D01*
X42928985Y-46302481D01*
X42835853Y-46163100D01*
X42771703Y-46008228D01*
X42739000Y-45843816D01*
X42739000Y-45676184D01*
X42771703Y-45511772D01*
X42835853Y-45356900D01*
X42928985Y-45217519D01*
X43047519Y-45098985D01*
X43186900Y-45005853D01*
X43341772Y-44941703D01*
X43506184Y-44909000D01*
X43673816Y-44909000D01*
X43838228Y-44941703D01*
X43838228Y-44941703D01*
G37*
G36*
X19806823Y-43121313D02*
G01*
X19967242Y-43169976D01*
X20099906Y-43240886D01*
X20115078Y-43248996D01*
X20244659Y-43355341D01*
X20351004Y-43484922D01*
X20351005Y-43484924D01*
X20430024Y-43632758D01*
X20478687Y-43793177D01*
X20495117Y-43960000D01*
X20478687Y-44126823D01*
X20430024Y-44287242D01*
X20375471Y-44389304D01*
X20351004Y-44435078D01*
X20244659Y-44564659D01*
X20115078Y-44671004D01*
X20115076Y-44671005D01*
X19967242Y-44750024D01*
X19806823Y-44798687D01*
X19681804Y-44811000D01*
X19598196Y-44811000D01*
X19473177Y-44798687D01*
X19312758Y-44750024D01*
X19164924Y-44671005D01*
X19164922Y-44671004D01*
X19035341Y-44564659D01*
X18928996Y-44435078D01*
X18904529Y-44389304D01*
X18849976Y-44287242D01*
X18801313Y-44126823D01*
X18784883Y-43960000D01*
X18801313Y-43793177D01*
X18849976Y-43632758D01*
X18928995Y-43484924D01*
X18928996Y-43484922D01*
X19035341Y-43355341D01*
X19164922Y-43248996D01*
X19180094Y-43240886D01*
X19312758Y-43169976D01*
X19473177Y-43121313D01*
X19598196Y-43109000D01*
X19681804Y-43109000D01*
X19806823Y-43121313D01*
X19806823Y-43121313D01*
G37*
G36*
X58299393Y-41689304D02*
G01*
X58536101Y-41787352D01*
X58536103Y-41787353D01*
X58749135Y-41929696D01*
X58930304Y-42110865D01*
X59067272Y-42315853D01*
X59072648Y-42323899D01*
X59170696Y-42560607D01*
X59220680Y-42811893D01*
X59220680Y-43068107D01*
X59170696Y-43319393D01*
X59087187Y-43521000D01*
X59072647Y-43556103D01*
X58930304Y-43769135D01*
X58749135Y-43950304D01*
X58536103Y-44092647D01*
X58536102Y-44092648D01*
X58536101Y-44092648D01*
X58299393Y-44190696D01*
X58048107Y-44240680D01*
X57791893Y-44240680D01*
X57540607Y-44190696D01*
X57303899Y-44092648D01*
X57303898Y-44092648D01*
X57303897Y-44092647D01*
X57090865Y-43950304D01*
X56909696Y-43769135D01*
X56767353Y-43556103D01*
X56752813Y-43521000D01*
X56669304Y-43319393D01*
X56619320Y-43068107D01*
X56619320Y-42811893D01*
X56669304Y-42560607D01*
X56767352Y-42323899D01*
X56772728Y-42315853D01*
X56909696Y-42110865D01*
X57090865Y-41929696D01*
X57303897Y-41787353D01*
X57303899Y-41787352D01*
X57540607Y-41689304D01*
X57791893Y-41639320D01*
X58048107Y-41639320D01*
X58299393Y-41689304D01*
X58299393Y-41689304D01*
G37*
G36*
X22466823Y-42231313D02*
G01*
X22627242Y-42279976D01*
X22694361Y-42315852D01*
X22775078Y-42358996D01*
X22904659Y-42465341D01*
X23011004Y-42594922D01*
X23011005Y-42594924D01*
X23090024Y-42742758D01*
X23138687Y-42903177D01*
X23155117Y-43070000D01*
X23138687Y-43236823D01*
X23113639Y-43319393D01*
X23094950Y-43381005D01*
X23090024Y-43397242D01*
X23049477Y-43473100D01*
X23011004Y-43545078D01*
X22904659Y-43674659D01*
X22775078Y-43781004D01*
X22775076Y-43781005D01*
X22627242Y-43860024D01*
X22466823Y-43908687D01*
X22341804Y-43921000D01*
X22258196Y-43921000D01*
X22133177Y-43908687D01*
X21972758Y-43860024D01*
X21824924Y-43781005D01*
X21824922Y-43781004D01*
X21695341Y-43674659D01*
X21588996Y-43545078D01*
X21550523Y-43473100D01*
X21509976Y-43397242D01*
X21505051Y-43381005D01*
X21486361Y-43319393D01*
X21461313Y-43236823D01*
X21444883Y-43070000D01*
X21461313Y-42903177D01*
X21509976Y-42742758D01*
X21588995Y-42594924D01*
X21588996Y-42594922D01*
X21695341Y-42465341D01*
X21824922Y-42358996D01*
X21905639Y-42315852D01*
X21972758Y-42279976D01*
X22133177Y-42231313D01*
X22258196Y-42219000D01*
X22341804Y-42219000D01*
X22466823Y-42231313D01*
X22466823Y-42231313D01*
G37*
G36*
X30168228Y-42251703D02*
G01*
X30323100Y-42315853D01*
X30462481Y-42408985D01*
X30581015Y-42527519D01*
X30674147Y-42666900D01*
X30738297Y-42821772D01*
X30771000Y-42986184D01*
X30771000Y-43153816D01*
X30738297Y-43318228D01*
X30674147Y-43473100D01*
X30581015Y-43612481D01*
X30462481Y-43731015D01*
X30323100Y-43824147D01*
X30168228Y-43888297D01*
X30003816Y-43921000D01*
X29836184Y-43921000D01*
X29671772Y-43888297D01*
X29516900Y-43824147D01*
X29377519Y-43731015D01*
X29258985Y-43612481D01*
X29165853Y-43473100D01*
X29101703Y-43318228D01*
X29069000Y-43153816D01*
X29069000Y-42986184D01*
X29101703Y-42821772D01*
X29165853Y-42666900D01*
X29258985Y-42527519D01*
X29377519Y-42408985D01*
X29516900Y-42315853D01*
X29671772Y-42251703D01*
X29836184Y-42219000D01*
X30003816Y-42219000D01*
X30168228Y-42251703D01*
X30168228Y-42251703D01*
G37*
G36*
X54616822Y-41831313D02*
G01*
X54777241Y-41879976D01*
X54825653Y-41905853D01*
X54925077Y-41958996D01*
X55054658Y-42065341D01*
X55161003Y-42194922D01*
X55161004Y-42194924D01*
X55240023Y-42342758D01*
X55240024Y-42342761D01*
X55244949Y-42358996D01*
X55288686Y-42503177D01*
X55305116Y-42670000D01*
X55288686Y-42836823D01*
X55240023Y-42997242D01*
X55199476Y-43073100D01*
X55161003Y-43145078D01*
X55054658Y-43274659D01*
X54925077Y-43381004D01*
X54925075Y-43381005D01*
X54777241Y-43460024D01*
X54616822Y-43508687D01*
X54491803Y-43521000D01*
X54408195Y-43521000D01*
X54283176Y-43508687D01*
X54122757Y-43460024D01*
X53974923Y-43381005D01*
X53974921Y-43381004D01*
X53845340Y-43274659D01*
X53738995Y-43145078D01*
X53700522Y-43073100D01*
X53659975Y-42997242D01*
X53611312Y-42836823D01*
X53594882Y-42670000D01*
X53611312Y-42503177D01*
X53655049Y-42358996D01*
X53659974Y-42342761D01*
X53659975Y-42342758D01*
X53738994Y-42194924D01*
X53738995Y-42194922D01*
X53845340Y-42065341D01*
X53974921Y-41958996D01*
X54074345Y-41905853D01*
X54122757Y-41879976D01*
X54283176Y-41831313D01*
X54408195Y-41819000D01*
X54491803Y-41819000D01*
X54616822Y-41831313D01*
X54616822Y-41831313D01*
G37*
G36*
X52076822Y-41831313D02*
G01*
X52237241Y-41879976D01*
X52285653Y-41905853D01*
X52385077Y-41958996D01*
X52514658Y-42065341D01*
X52621003Y-42194922D01*
X52621004Y-42194924D01*
X52700023Y-42342758D01*
X52700024Y-42342761D01*
X52704949Y-42358996D01*
X52748686Y-42503177D01*
X52765116Y-42670000D01*
X52748686Y-42836823D01*
X52700023Y-42997242D01*
X52659476Y-43073100D01*
X52621003Y-43145078D01*
X52514658Y-43274659D01*
X52385077Y-43381004D01*
X52385075Y-43381005D01*
X52237241Y-43460024D01*
X52076822Y-43508687D01*
X51951803Y-43521000D01*
X51868195Y-43521000D01*
X51743176Y-43508687D01*
X51582757Y-43460024D01*
X51434923Y-43381005D01*
X51434921Y-43381004D01*
X51305340Y-43274659D01*
X51198995Y-43145078D01*
X51160522Y-43073100D01*
X51119975Y-42997242D01*
X51071312Y-42836823D01*
X51054882Y-42670000D01*
X51071312Y-42503177D01*
X51115049Y-42358996D01*
X51119974Y-42342761D01*
X51119975Y-42342758D01*
X51198994Y-42194924D01*
X51198995Y-42194922D01*
X51305340Y-42065341D01*
X51434921Y-41958996D01*
X51534345Y-41905853D01*
X51582757Y-41879976D01*
X51743176Y-41831313D01*
X51868195Y-41819000D01*
X51951803Y-41819000D01*
X52076822Y-41831313D01*
X52076822Y-41831313D01*
G37*
G36*
X49536822Y-41831313D02*
G01*
X49697241Y-41879976D01*
X49745653Y-41905853D01*
X49845077Y-41958996D01*
X49974658Y-42065341D01*
X50081003Y-42194922D01*
X50081004Y-42194924D01*
X50160023Y-42342758D01*
X50160024Y-42342761D01*
X50164949Y-42358996D01*
X50208686Y-42503177D01*
X50225116Y-42670000D01*
X50208686Y-42836823D01*
X50160023Y-42997242D01*
X50119476Y-43073100D01*
X50081003Y-43145078D01*
X49974658Y-43274659D01*
X49845077Y-43381004D01*
X49845075Y-43381005D01*
X49697241Y-43460024D01*
X49536822Y-43508687D01*
X49411803Y-43521000D01*
X49328195Y-43521000D01*
X49203176Y-43508687D01*
X49042757Y-43460024D01*
X48894923Y-43381005D01*
X48894921Y-43381004D01*
X48765340Y-43274659D01*
X48658995Y-43145078D01*
X48620522Y-43073100D01*
X48579975Y-42997242D01*
X48531312Y-42836823D01*
X48514882Y-42670000D01*
X48531312Y-42503177D01*
X48575049Y-42358996D01*
X48579974Y-42342761D01*
X48579975Y-42342758D01*
X48658994Y-42194924D01*
X48658995Y-42194922D01*
X48765340Y-42065341D01*
X48894921Y-41958996D01*
X48994345Y-41905853D01*
X49042757Y-41879976D01*
X49203176Y-41831313D01*
X49328195Y-41819000D01*
X49411803Y-41819000D01*
X49536822Y-41831313D01*
X49536822Y-41831313D01*
G37*
G36*
X46996822Y-41831313D02*
G01*
X47157241Y-41879976D01*
X47205653Y-41905853D01*
X47305077Y-41958996D01*
X47434658Y-42065341D01*
X47541003Y-42194922D01*
X47541004Y-42194924D01*
X47620023Y-42342758D01*
X47620024Y-42342761D01*
X47624949Y-42358996D01*
X47668686Y-42503177D01*
X47685116Y-42670000D01*
X47668686Y-42836823D01*
X47620023Y-42997242D01*
X47579476Y-43073100D01*
X47541003Y-43145078D01*
X47434658Y-43274659D01*
X47305077Y-43381004D01*
X47305075Y-43381005D01*
X47157241Y-43460024D01*
X46996822Y-43508687D01*
X46871803Y-43521000D01*
X46788195Y-43521000D01*
X46663176Y-43508687D01*
X46502757Y-43460024D01*
X46354923Y-43381005D01*
X46354921Y-43381004D01*
X46225340Y-43274659D01*
X46118995Y-43145078D01*
X46080522Y-43073100D01*
X46039975Y-42997242D01*
X45991312Y-42836823D01*
X45974882Y-42670000D01*
X45991312Y-42503177D01*
X46035049Y-42358996D01*
X46039974Y-42342761D01*
X46039975Y-42342758D01*
X46118994Y-42194924D01*
X46118995Y-42194922D01*
X46225340Y-42065341D01*
X46354921Y-41958996D01*
X46454345Y-41905853D01*
X46502757Y-41879976D01*
X46663176Y-41831313D01*
X46788195Y-41819000D01*
X46871803Y-41819000D01*
X46996822Y-41831313D01*
X46996822Y-41831313D01*
G37*
G36*
X39996823Y-41831313D02*
G01*
X40157242Y-41879976D01*
X40205654Y-41905853D01*
X40305078Y-41958996D01*
X40434659Y-42065341D01*
X40541004Y-42194922D01*
X40541005Y-42194924D01*
X40620024Y-42342758D01*
X40620025Y-42342761D01*
X40624950Y-42358996D01*
X40668687Y-42503177D01*
X40685117Y-42670000D01*
X40668687Y-42836823D01*
X40620024Y-42997242D01*
X40579477Y-43073100D01*
X40541004Y-43145078D01*
X40434659Y-43274659D01*
X40305078Y-43381004D01*
X40305076Y-43381005D01*
X40157242Y-43460024D01*
X39996823Y-43508687D01*
X39871804Y-43521000D01*
X39788196Y-43521000D01*
X39663177Y-43508687D01*
X39502758Y-43460024D01*
X39354924Y-43381005D01*
X39354922Y-43381004D01*
X39225341Y-43274659D01*
X39118996Y-43145078D01*
X39080523Y-43073100D01*
X39039976Y-42997242D01*
X38991313Y-42836823D01*
X38974883Y-42670000D01*
X38991313Y-42503177D01*
X39035050Y-42358996D01*
X39039975Y-42342761D01*
X39039976Y-42342758D01*
X39118995Y-42194924D01*
X39118996Y-42194922D01*
X39225341Y-42065341D01*
X39354922Y-41958996D01*
X39454346Y-41905853D01*
X39502758Y-41879976D01*
X39663177Y-41831313D01*
X39788196Y-41819000D01*
X39871804Y-41819000D01*
X39996823Y-41831313D01*
X39996823Y-41831313D01*
G37*
G36*
X36958228Y-41851703D02*
G01*
X37113100Y-41915853D01*
X37252481Y-42008985D01*
X37371015Y-42127519D01*
X37464147Y-42266900D01*
X37528297Y-42421772D01*
X37561000Y-42586184D01*
X37561000Y-42753816D01*
X37528297Y-42918228D01*
X37464147Y-43073100D01*
X37371015Y-43212481D01*
X37252481Y-43331015D01*
X37113100Y-43424147D01*
X36958228Y-43488297D01*
X36793816Y-43521000D01*
X36626184Y-43521000D01*
X36461772Y-43488297D01*
X36306900Y-43424147D01*
X36167519Y-43331015D01*
X36048985Y-43212481D01*
X35955853Y-43073100D01*
X35891703Y-42918228D01*
X35859000Y-42753816D01*
X35859000Y-42586184D01*
X35891703Y-42421772D01*
X35955853Y-42266900D01*
X36048985Y-42127519D01*
X36167519Y-42008985D01*
X36306900Y-41915853D01*
X36461772Y-41851703D01*
X36626184Y-41819000D01*
X36793816Y-41819000D01*
X36958228Y-41851703D01*
X36958228Y-41851703D01*
G37*
G36*
X33758228Y-41841703D02*
G01*
X33913100Y-41905853D01*
X34052481Y-41998985D01*
X34171015Y-42117519D01*
X34264147Y-42256900D01*
X34328297Y-42411772D01*
X34361000Y-42576184D01*
X34361000Y-42743816D01*
X34328297Y-42908228D01*
X34264147Y-43063100D01*
X34171015Y-43202481D01*
X34052481Y-43321015D01*
X33913100Y-43414147D01*
X33758228Y-43478297D01*
X33593816Y-43511000D01*
X33426184Y-43511000D01*
X33261772Y-43478297D01*
X33106900Y-43414147D01*
X32967519Y-43321015D01*
X32848985Y-43202481D01*
X32755853Y-43063100D01*
X32691703Y-42908228D01*
X32659000Y-42743816D01*
X32659000Y-42576184D01*
X32691703Y-42411772D01*
X32755853Y-42256900D01*
X32848985Y-42117519D01*
X32967519Y-41998985D01*
X33106900Y-41905853D01*
X33261772Y-41841703D01*
X33426184Y-41809000D01*
X33593816Y-41809000D01*
X33758228Y-41841703D01*
X33758228Y-41841703D01*
G37*
G36*
X16156823Y-39281313D02*
G01*
X16317242Y-39329976D01*
X16423739Y-39386900D01*
X16465078Y-39408996D01*
X16594659Y-39515341D01*
X16701004Y-39644922D01*
X16701005Y-39644924D01*
X16780024Y-39792758D01*
X16828687Y-39953177D01*
X16845117Y-40120000D01*
X16828687Y-40286823D01*
X16780024Y-40447242D01*
X16719217Y-40561004D01*
X16701004Y-40595078D01*
X16594659Y-40724659D01*
X16465078Y-40831004D01*
X16465076Y-40831005D01*
X16317242Y-40910024D01*
X16156823Y-40958687D01*
X16031804Y-40971000D01*
X15948196Y-40971000D01*
X15823177Y-40958687D01*
X15662758Y-40910024D01*
X15514924Y-40831005D01*
X15514922Y-40831004D01*
X15385341Y-40724659D01*
X15278996Y-40595078D01*
X15260783Y-40561004D01*
X15199976Y-40447242D01*
X15151313Y-40286823D01*
X15134883Y-40120000D01*
X15151313Y-39953177D01*
X15199976Y-39792758D01*
X15278995Y-39644924D01*
X15278996Y-39644922D01*
X15385341Y-39515341D01*
X15514922Y-39408996D01*
X15556261Y-39386900D01*
X15662758Y-39329976D01*
X15823177Y-39281313D01*
X15948196Y-39269000D01*
X16031804Y-39269000D01*
X16156823Y-39281313D01*
X16156823Y-39281313D01*
G37*
G36*
X22936823Y-39011313D02*
G01*
X23097242Y-39059976D01*
X23226349Y-39128985D01*
X23245078Y-39138996D01*
X23374659Y-39245341D01*
X23481004Y-39374922D01*
X23481005Y-39374924D01*
X23560024Y-39522758D01*
X23608687Y-39683177D01*
X23625117Y-39850000D01*
X23608687Y-40016823D01*
X23560024Y-40177242D01*
X23501452Y-40286823D01*
X23481004Y-40325078D01*
X23374659Y-40454659D01*
X23245078Y-40561004D01*
X23245076Y-40561005D01*
X23097242Y-40640024D01*
X22936823Y-40688687D01*
X22811804Y-40701000D01*
X22728196Y-40701000D01*
X22603177Y-40688687D01*
X22442758Y-40640024D01*
X22294924Y-40561005D01*
X22294922Y-40561004D01*
X22165341Y-40454659D01*
X22058996Y-40325078D01*
X22038548Y-40286823D01*
X21979976Y-40177242D01*
X21931313Y-40016823D01*
X21914883Y-39850000D01*
X21931313Y-39683177D01*
X21979976Y-39522758D01*
X22058995Y-39374924D01*
X22058996Y-39374922D01*
X22165341Y-39245341D01*
X22294922Y-39138996D01*
X22313651Y-39128985D01*
X22442758Y-39059976D01*
X22603177Y-39011313D01*
X22728196Y-38999000D01*
X22811804Y-38999000D01*
X22936823Y-39011313D01*
X22936823Y-39011313D01*
G37*
G36*
X30556823Y-39011313D02*
G01*
X30717242Y-39059976D01*
X30846349Y-39128985D01*
X30865078Y-39138996D01*
X30994659Y-39245341D01*
X31101004Y-39374922D01*
X31101005Y-39374924D01*
X31180024Y-39522758D01*
X31228687Y-39683177D01*
X31245117Y-39850000D01*
X31228687Y-40016823D01*
X31180024Y-40177242D01*
X31121452Y-40286823D01*
X31101004Y-40325078D01*
X30994659Y-40454659D01*
X30865078Y-40561004D01*
X30865076Y-40561005D01*
X30717242Y-40640024D01*
X30556823Y-40688687D01*
X30431804Y-40701000D01*
X30348196Y-40701000D01*
X30223177Y-40688687D01*
X30062758Y-40640024D01*
X29914924Y-40561005D01*
X29914922Y-40561004D01*
X29785341Y-40454659D01*
X29678996Y-40325078D01*
X29658548Y-40286823D01*
X29599976Y-40177242D01*
X29551313Y-40016823D01*
X29534883Y-39850000D01*
X29551313Y-39683177D01*
X29599976Y-39522758D01*
X29678995Y-39374924D01*
X29678996Y-39374922D01*
X29785341Y-39245341D01*
X29914922Y-39138996D01*
X29933651Y-39128985D01*
X30062758Y-39059976D01*
X30223177Y-39011313D01*
X30348196Y-38999000D01*
X30431804Y-38999000D01*
X30556823Y-39011313D01*
X30556823Y-39011313D01*
G37*
G36*
X57888225Y-38971703D02*
G01*
X58043097Y-39035853D01*
X58182478Y-39128985D01*
X58301012Y-39247519D01*
X58394144Y-39386900D01*
X58458294Y-39541772D01*
X58490997Y-39706184D01*
X58490997Y-39873816D01*
X58458294Y-40038228D01*
X58394144Y-40193100D01*
X58301012Y-40332481D01*
X58182478Y-40451015D01*
X58043097Y-40544147D01*
X57888225Y-40608297D01*
X57723813Y-40641000D01*
X57556181Y-40641000D01*
X57391769Y-40608297D01*
X57236897Y-40544147D01*
X57097516Y-40451015D01*
X56978982Y-40332481D01*
X56885850Y-40193100D01*
X56821700Y-40038228D01*
X56788997Y-39873816D01*
X56788997Y-39706184D01*
X56821700Y-39541772D01*
X56885850Y-39386900D01*
X56978982Y-39247519D01*
X57097516Y-39128985D01*
X57236897Y-39035853D01*
X57391769Y-38971703D01*
X57556181Y-38939000D01*
X57723813Y-38939000D01*
X57888225Y-38971703D01*
X57888225Y-38971703D01*
G37*
G36*
X43756823Y-37301313D02*
G01*
X43917242Y-37349976D01*
X44047112Y-37419393D01*
X44065078Y-37428996D01*
X44194659Y-37535341D01*
X44301004Y-37664922D01*
X44301005Y-37664924D01*
X44380024Y-37812758D01*
X44428687Y-37973177D01*
X44445117Y-38140000D01*
X44428687Y-38306823D01*
X44380024Y-38467242D01*
X44309114Y-38599906D01*
X44301004Y-38615078D01*
X44194659Y-38744659D01*
X44065078Y-38851004D01*
X44065076Y-38851005D01*
X43917242Y-38930024D01*
X43756823Y-38978687D01*
X43631804Y-38991000D01*
X43548196Y-38991000D01*
X43423177Y-38978687D01*
X43262758Y-38930024D01*
X43114924Y-38851005D01*
X43114922Y-38851004D01*
X42985341Y-38744659D01*
X42878996Y-38615078D01*
X42870886Y-38599906D01*
X42799976Y-38467242D01*
X42751313Y-38306823D01*
X42734883Y-38140000D01*
X42751313Y-37973177D01*
X42799976Y-37812758D01*
X42878995Y-37664924D01*
X42878996Y-37664922D01*
X42985341Y-37535341D01*
X43114922Y-37428996D01*
X43132888Y-37419393D01*
X43262758Y-37349976D01*
X43423177Y-37301313D01*
X43548196Y-37289000D01*
X43631804Y-37289000D01*
X43756823Y-37301313D01*
X43756823Y-37301313D01*
G37*
G36*
X16639393Y-35789304D02*
G01*
X16876101Y-35887352D01*
X16876103Y-35887353D01*
X17089135Y-36029696D01*
X17270304Y-36210865D01*
X17390621Y-36390933D01*
X17412648Y-36423899D01*
X17510696Y-36660607D01*
X17560680Y-36911893D01*
X17560680Y-37168107D01*
X17510696Y-37419393D01*
X17412648Y-37656101D01*
X17412647Y-37656103D01*
X17270304Y-37869135D01*
X17089135Y-38050304D01*
X16876103Y-38192647D01*
X16876102Y-38192648D01*
X16876101Y-38192648D01*
X16639393Y-38290696D01*
X16388107Y-38340680D01*
X16131893Y-38340680D01*
X15880607Y-38290696D01*
X15643899Y-38192648D01*
X15643898Y-38192648D01*
X15643897Y-38192647D01*
X15430865Y-38050304D01*
X15249696Y-37869135D01*
X15107353Y-37656103D01*
X15107352Y-37656101D01*
X15009304Y-37419393D01*
X14959320Y-37168107D01*
X14959320Y-36911893D01*
X15009304Y-36660607D01*
X15107352Y-36423899D01*
X15129379Y-36390933D01*
X15249696Y-36210865D01*
X15430865Y-36029696D01*
X15643897Y-35887353D01*
X15643899Y-35887352D01*
X15880607Y-35789304D01*
X16131893Y-35739320D01*
X16388107Y-35739320D01*
X16639393Y-35789304D01*
X16639393Y-35789304D01*
G37*
G36*
X30556823Y-36471313D02*
G01*
X30717242Y-36519976D01*
X30844932Y-36588228D01*
X30865078Y-36598996D01*
X30994659Y-36705341D01*
X31101004Y-36834922D01*
X31101005Y-36834924D01*
X31180024Y-36982758D01*
X31228687Y-37143177D01*
X31245117Y-37310000D01*
X31228687Y-37476823D01*
X31180024Y-37637242D01*
X31109114Y-37769906D01*
X31101004Y-37785078D01*
X30994659Y-37914659D01*
X30865078Y-38021004D01*
X30865076Y-38021005D01*
X30717242Y-38100024D01*
X30556823Y-38148687D01*
X30431804Y-38161000D01*
X30348196Y-38161000D01*
X30223177Y-38148687D01*
X30062758Y-38100024D01*
X29914924Y-38021005D01*
X29914922Y-38021004D01*
X29785341Y-37914659D01*
X29678996Y-37785078D01*
X29670886Y-37769906D01*
X29599976Y-37637242D01*
X29551313Y-37476823D01*
X29534883Y-37310000D01*
X29551313Y-37143177D01*
X29599976Y-36982758D01*
X29678995Y-36834924D01*
X29678996Y-36834922D01*
X29785341Y-36705341D01*
X29914922Y-36598996D01*
X29935068Y-36588228D01*
X30062758Y-36519976D01*
X30223177Y-36471313D01*
X30348196Y-36459000D01*
X30431804Y-36459000D01*
X30556823Y-36471313D01*
X30556823Y-36471313D01*
G37*
G36*
X22936823Y-36471313D02*
G01*
X23097242Y-36519976D01*
X23224932Y-36588228D01*
X23245078Y-36598996D01*
X23374659Y-36705341D01*
X23481004Y-36834922D01*
X23481005Y-36834924D01*
X23560024Y-36982758D01*
X23608687Y-37143177D01*
X23625117Y-37310000D01*
X23608687Y-37476823D01*
X23560024Y-37637242D01*
X23489114Y-37769906D01*
X23481004Y-37785078D01*
X23374659Y-37914659D01*
X23245078Y-38021004D01*
X23245076Y-38021005D01*
X23097242Y-38100024D01*
X22936823Y-38148687D01*
X22811804Y-38161000D01*
X22728196Y-38161000D01*
X22603177Y-38148687D01*
X22442758Y-38100024D01*
X22294924Y-38021005D01*
X22294922Y-38021004D01*
X22165341Y-37914659D01*
X22058996Y-37785078D01*
X22050886Y-37769906D01*
X21979976Y-37637242D01*
X21931313Y-37476823D01*
X21914883Y-37310000D01*
X21931313Y-37143177D01*
X21979976Y-36982758D01*
X22058995Y-36834924D01*
X22058996Y-36834922D01*
X22165341Y-36705341D01*
X22294922Y-36598996D01*
X22315068Y-36588228D01*
X22442758Y-36519976D01*
X22603177Y-36471313D01*
X22728196Y-36459000D01*
X22811804Y-36459000D01*
X22936823Y-36471313D01*
X22936823Y-36471313D01*
G37*
G36*
X19888228Y-35521703D02*
G01*
X20043100Y-35585853D01*
X20182481Y-35678985D01*
X20301015Y-35797519D01*
X20394147Y-35936900D01*
X20458297Y-36091772D01*
X20491000Y-36256184D01*
X20491000Y-36423816D01*
X20458297Y-36588228D01*
X20394147Y-36743100D01*
X20301015Y-36882481D01*
X20182481Y-37001015D01*
X20043100Y-37094147D01*
X19888228Y-37158297D01*
X19723816Y-37191000D01*
X19556184Y-37191000D01*
X19391772Y-37158297D01*
X19236900Y-37094147D01*
X19097519Y-37001015D01*
X18978985Y-36882481D01*
X18885853Y-36743100D01*
X18821703Y-36588228D01*
X18789000Y-36423816D01*
X18789000Y-36256184D01*
X18821703Y-36091772D01*
X18885853Y-35936900D01*
X18978985Y-35797519D01*
X19097519Y-35678985D01*
X19236900Y-35585853D01*
X19391772Y-35521703D01*
X19556184Y-35489000D01*
X19723816Y-35489000D01*
X19888228Y-35521703D01*
X19888228Y-35521703D01*
G37*
G36*
X43396416Y-34449879D02*
G01*
X43587592Y-34529067D01*
X43587594Y-34529068D01*
X43759648Y-34644031D01*
X43905969Y-34790352D01*
X44011505Y-34948297D01*
X44020933Y-34962408D01*
X44100121Y-35153584D01*
X44140490Y-35356534D01*
X44140490Y-35563466D01*
X44100121Y-35766416D01*
X44020933Y-35957592D01*
X44020932Y-35957594D01*
X43905969Y-36129648D01*
X43759648Y-36275969D01*
X43587594Y-36390932D01*
X43587593Y-36390933D01*
X43587592Y-36390933D01*
X43396416Y-36470121D01*
X43193466Y-36510490D01*
X42986534Y-36510490D01*
X42783584Y-36470121D01*
X42592408Y-36390933D01*
X42592407Y-36390933D01*
X42592406Y-36390932D01*
X42420352Y-36275969D01*
X42274031Y-36129648D01*
X42159068Y-35957594D01*
X42159067Y-35957592D01*
X42079879Y-35766416D01*
X42039510Y-35563466D01*
X42039510Y-35356534D01*
X42079879Y-35153584D01*
X42159067Y-34962408D01*
X42168496Y-34948297D01*
X42274031Y-34790352D01*
X42420352Y-34644031D01*
X42592406Y-34529068D01*
X42592408Y-34529067D01*
X42783584Y-34449879D01*
X42986534Y-34409510D01*
X43193466Y-34409510D01*
X43396416Y-34449879D01*
X43396416Y-34449879D01*
G37*
G36*
X36876823Y-34211313D02*
G01*
X37037242Y-34259976D01*
X37104361Y-34295852D01*
X37185078Y-34338996D01*
X37314659Y-34445341D01*
X37421004Y-34574922D01*
X37421005Y-34574924D01*
X37500024Y-34722758D01*
X37548687Y-34883177D01*
X37565117Y-35050000D01*
X37548687Y-35216823D01*
X37513602Y-35332481D01*
X37503058Y-35367242D01*
X37500024Y-35377242D01*
X37459477Y-35453100D01*
X37421004Y-35525078D01*
X37314659Y-35654659D01*
X37185078Y-35761004D01*
X37185076Y-35761005D01*
X37037242Y-35840024D01*
X36876823Y-35888687D01*
X36751804Y-35901000D01*
X36668196Y-35901000D01*
X36543177Y-35888687D01*
X36382758Y-35840024D01*
X36234924Y-35761005D01*
X36234922Y-35761004D01*
X36105341Y-35654659D01*
X35998996Y-35525078D01*
X35960523Y-35453100D01*
X35919976Y-35377242D01*
X35916943Y-35367242D01*
X35906398Y-35332481D01*
X35871313Y-35216823D01*
X35854883Y-35050000D01*
X35871313Y-34883177D01*
X35919976Y-34722758D01*
X35998995Y-34574924D01*
X35998996Y-34574922D01*
X36105341Y-34445341D01*
X36234922Y-34338996D01*
X36315639Y-34295852D01*
X36382758Y-34259976D01*
X36543177Y-34211313D01*
X36668196Y-34199000D01*
X36751804Y-34199000D01*
X36876823Y-34211313D01*
X36876823Y-34211313D01*
G37*
G36*
X40078228Y-34231703D02*
G01*
X40233100Y-34295853D01*
X40372481Y-34388985D01*
X40491015Y-34507519D01*
X40584147Y-34646900D01*
X40648297Y-34801772D01*
X40681000Y-34966184D01*
X40681000Y-35133816D01*
X40648297Y-35298228D01*
X40584147Y-35453100D01*
X40491015Y-35592481D01*
X40372481Y-35711015D01*
X40233100Y-35804147D01*
X40078228Y-35868297D01*
X39913816Y-35901000D01*
X39746184Y-35901000D01*
X39581772Y-35868297D01*
X39426900Y-35804147D01*
X39287519Y-35711015D01*
X39168985Y-35592481D01*
X39075853Y-35453100D01*
X39011703Y-35298228D01*
X38979000Y-35133816D01*
X38979000Y-34966184D01*
X39011703Y-34801772D01*
X39075853Y-34646900D01*
X39168985Y-34507519D01*
X39287519Y-34388985D01*
X39426900Y-34295853D01*
X39581772Y-34231703D01*
X39746184Y-34199000D01*
X39913816Y-34199000D01*
X40078228Y-34231703D01*
X40078228Y-34231703D01*
G37*
G36*
X46996822Y-34211313D02*
G01*
X47157241Y-34259976D01*
X47224360Y-34295852D01*
X47305077Y-34338996D01*
X47434658Y-34445341D01*
X47541003Y-34574922D01*
X47541004Y-34574924D01*
X47620023Y-34722758D01*
X47668686Y-34883177D01*
X47685116Y-35050000D01*
X47668686Y-35216823D01*
X47633601Y-35332481D01*
X47623057Y-35367242D01*
X47620023Y-35377242D01*
X47579476Y-35453100D01*
X47541003Y-35525078D01*
X47434658Y-35654659D01*
X47305077Y-35761004D01*
X47305075Y-35761005D01*
X47157241Y-35840024D01*
X46996822Y-35888687D01*
X46871803Y-35901000D01*
X46788195Y-35901000D01*
X46663176Y-35888687D01*
X46502757Y-35840024D01*
X46354923Y-35761005D01*
X46354921Y-35761004D01*
X46225340Y-35654659D01*
X46118995Y-35525078D01*
X46080522Y-35453100D01*
X46039975Y-35377242D01*
X46036942Y-35367242D01*
X46026397Y-35332481D01*
X45991312Y-35216823D01*
X45974882Y-35050000D01*
X45991312Y-34883177D01*
X46039975Y-34722758D01*
X46118994Y-34574924D01*
X46118995Y-34574922D01*
X46225340Y-34445341D01*
X46354921Y-34338996D01*
X46435638Y-34295852D01*
X46502757Y-34259976D01*
X46663176Y-34211313D01*
X46788195Y-34199000D01*
X46871803Y-34199000D01*
X46996822Y-34211313D01*
X46996822Y-34211313D01*
G37*
G36*
X49536822Y-34211313D02*
G01*
X49697241Y-34259976D01*
X49764360Y-34295852D01*
X49845077Y-34338996D01*
X49974658Y-34445341D01*
X50081003Y-34574922D01*
X50081004Y-34574924D01*
X50160023Y-34722758D01*
X50208686Y-34883177D01*
X50225116Y-35050000D01*
X50208686Y-35216823D01*
X50173601Y-35332481D01*
X50163057Y-35367242D01*
X50160023Y-35377242D01*
X50119476Y-35453100D01*
X50081003Y-35525078D01*
X49974658Y-35654659D01*
X49845077Y-35761004D01*
X49845075Y-35761005D01*
X49697241Y-35840024D01*
X49536822Y-35888687D01*
X49411803Y-35901000D01*
X49328195Y-35901000D01*
X49203176Y-35888687D01*
X49042757Y-35840024D01*
X48894923Y-35761005D01*
X48894921Y-35761004D01*
X48765340Y-35654659D01*
X48658995Y-35525078D01*
X48620522Y-35453100D01*
X48579975Y-35377242D01*
X48576942Y-35367242D01*
X48566397Y-35332481D01*
X48531312Y-35216823D01*
X48514882Y-35050000D01*
X48531312Y-34883177D01*
X48579975Y-34722758D01*
X48658994Y-34574924D01*
X48658995Y-34574922D01*
X48765340Y-34445341D01*
X48894921Y-34338996D01*
X48975638Y-34295852D01*
X49042757Y-34259976D01*
X49203176Y-34211313D01*
X49328195Y-34199000D01*
X49411803Y-34199000D01*
X49536822Y-34211313D01*
X49536822Y-34211313D01*
G37*
G36*
X52076822Y-34211313D02*
G01*
X52237241Y-34259976D01*
X52304360Y-34295852D01*
X52385077Y-34338996D01*
X52514658Y-34445341D01*
X52621003Y-34574922D01*
X52621004Y-34574924D01*
X52700023Y-34722758D01*
X52748686Y-34883177D01*
X52765116Y-35050000D01*
X52748686Y-35216823D01*
X52713601Y-35332481D01*
X52703057Y-35367242D01*
X52700023Y-35377242D01*
X52659476Y-35453100D01*
X52621003Y-35525078D01*
X52514658Y-35654659D01*
X52385077Y-35761004D01*
X52385075Y-35761005D01*
X52237241Y-35840024D01*
X52076822Y-35888687D01*
X51951803Y-35901000D01*
X51868195Y-35901000D01*
X51743176Y-35888687D01*
X51582757Y-35840024D01*
X51434923Y-35761005D01*
X51434921Y-35761004D01*
X51305340Y-35654659D01*
X51198995Y-35525078D01*
X51160522Y-35453100D01*
X51119975Y-35377242D01*
X51116942Y-35367242D01*
X51106397Y-35332481D01*
X51071312Y-35216823D01*
X51054882Y-35050000D01*
X51071312Y-34883177D01*
X51119975Y-34722758D01*
X51198994Y-34574924D01*
X51198995Y-34574922D01*
X51305340Y-34445341D01*
X51434921Y-34338996D01*
X51515638Y-34295852D01*
X51582757Y-34259976D01*
X51743176Y-34211313D01*
X51868195Y-34199000D01*
X51951803Y-34199000D01*
X52076822Y-34211313D01*
X52076822Y-34211313D01*
G37*
G36*
X55300999Y-35901000D02*
G01*
X53598999Y-35901000D01*
X53598999Y-34199000D01*
X55300999Y-34199000D01*
X55300999Y-35901000D01*
X55300999Y-35901000D01*
G37*
G36*
X33676823Y-34201313D02*
G01*
X33777011Y-34231705D01*
X33829143Y-34247519D01*
X33837242Y-34249976D01*
X33969906Y-34320886D01*
X33985078Y-34328996D01*
X34114659Y-34435341D01*
X34221004Y-34564922D01*
X34221005Y-34564924D01*
X34300024Y-34712758D01*
X34300025Y-34712761D01*
X34303058Y-34722761D01*
X34348687Y-34873177D01*
X34365117Y-35040000D01*
X34348687Y-35206823D01*
X34300024Y-35367242D01*
X34255246Y-35451015D01*
X34221004Y-35515078D01*
X34114659Y-35644659D01*
X33985078Y-35751004D01*
X33985076Y-35751005D01*
X33837242Y-35830024D01*
X33676823Y-35878687D01*
X33551804Y-35891000D01*
X33468196Y-35891000D01*
X33343177Y-35878687D01*
X33182758Y-35830024D01*
X33034924Y-35751005D01*
X33034922Y-35751004D01*
X32905341Y-35644659D01*
X32798996Y-35515078D01*
X32764754Y-35451015D01*
X32719976Y-35367242D01*
X32671313Y-35206823D01*
X32654883Y-35040000D01*
X32671313Y-34873177D01*
X32716942Y-34722761D01*
X32719975Y-34712761D01*
X32719976Y-34712758D01*
X32798995Y-34564924D01*
X32798996Y-34564922D01*
X32905341Y-34435341D01*
X33034922Y-34328996D01*
X33050094Y-34320886D01*
X33182758Y-34249976D01*
X33190858Y-34247519D01*
X33242989Y-34231705D01*
X33343177Y-34201313D01*
X33468196Y-34189000D01*
X33551804Y-34189000D01*
X33676823Y-34201313D01*
X33676823Y-34201313D01*
G37*
G36*
X57888225Y-33971703D02*
G01*
X58043097Y-34035853D01*
X58182478Y-34128985D01*
X58301012Y-34247519D01*
X58394144Y-34386900D01*
X58458294Y-34541772D01*
X58490997Y-34706184D01*
X58490997Y-34873816D01*
X58458294Y-35038228D01*
X58394144Y-35193100D01*
X58301012Y-35332481D01*
X58182478Y-35451015D01*
X58043097Y-35544147D01*
X57888225Y-35608297D01*
X57723813Y-35641000D01*
X57556181Y-35641000D01*
X57391769Y-35608297D01*
X57236897Y-35544147D01*
X57097516Y-35451015D01*
X56978982Y-35332481D01*
X56885850Y-35193100D01*
X56821700Y-35038228D01*
X56788997Y-34873816D01*
X56788997Y-34706184D01*
X56821700Y-34541772D01*
X56885850Y-34386900D01*
X56978982Y-34247519D01*
X57097516Y-34128985D01*
X57236897Y-34035853D01*
X57391769Y-33971703D01*
X57556181Y-33939000D01*
X57723813Y-33939000D01*
X57888225Y-33971703D01*
X57888225Y-33971703D01*
G37*
G36*
X30556823Y-33931313D02*
G01*
X30717242Y-33979976D01*
X30821780Y-34035853D01*
X30865078Y-34058996D01*
X30994659Y-34165341D01*
X31101004Y-34294922D01*
X31101005Y-34294924D01*
X31180024Y-34442758D01*
X31180025Y-34442761D01*
X31189083Y-34472620D01*
X31228687Y-34603177D01*
X31245117Y-34770000D01*
X31228687Y-34936823D01*
X31180024Y-35097242D01*
X31116105Y-35216825D01*
X31101004Y-35245078D01*
X30994659Y-35374659D01*
X30865078Y-35481004D01*
X30865076Y-35481005D01*
X30717242Y-35560024D01*
X30717239Y-35560025D01*
X30687380Y-35569083D01*
X30556823Y-35608687D01*
X30431804Y-35621000D01*
X30348196Y-35621000D01*
X30223177Y-35608687D01*
X30092620Y-35569083D01*
X30062761Y-35560025D01*
X30062758Y-35560024D01*
X29914924Y-35481005D01*
X29914922Y-35481004D01*
X29785341Y-35374659D01*
X29678996Y-35245078D01*
X29663895Y-35216825D01*
X29599976Y-35097242D01*
X29551313Y-34936823D01*
X29534883Y-34770000D01*
X29551313Y-34603177D01*
X29590917Y-34472620D01*
X29599975Y-34442761D01*
X29599976Y-34442758D01*
X29678995Y-34294924D01*
X29678996Y-34294922D01*
X29785341Y-34165341D01*
X29914922Y-34058996D01*
X29958220Y-34035853D01*
X30062758Y-33979976D01*
X30223177Y-33931313D01*
X30348196Y-33919000D01*
X30431804Y-33919000D01*
X30556823Y-33931313D01*
X30556823Y-33931313D01*
G37*
G36*
X22936823Y-33931313D02*
G01*
X23097242Y-33979976D01*
X23201780Y-34035853D01*
X23245078Y-34058996D01*
X23374659Y-34165341D01*
X23481004Y-34294922D01*
X23481005Y-34294924D01*
X23560024Y-34442758D01*
X23560025Y-34442761D01*
X23569083Y-34472620D01*
X23608687Y-34603177D01*
X23625117Y-34770000D01*
X23608687Y-34936823D01*
X23560024Y-35097242D01*
X23496105Y-35216825D01*
X23481004Y-35245078D01*
X23374659Y-35374659D01*
X23245078Y-35481004D01*
X23245076Y-35481005D01*
X23097242Y-35560024D01*
X23097239Y-35560025D01*
X23067380Y-35569083D01*
X22936823Y-35608687D01*
X22811804Y-35621000D01*
X22728196Y-35621000D01*
X22603177Y-35608687D01*
X22472620Y-35569083D01*
X22442761Y-35560025D01*
X22442758Y-35560024D01*
X22294924Y-35481005D01*
X22294922Y-35481004D01*
X22165341Y-35374659D01*
X22058996Y-35245078D01*
X22043895Y-35216825D01*
X21979976Y-35097242D01*
X21931313Y-34936823D01*
X21914883Y-34770000D01*
X21931313Y-34603177D01*
X21970917Y-34472620D01*
X21979975Y-34442761D01*
X21979976Y-34442758D01*
X22058995Y-34294924D01*
X22058996Y-34294922D01*
X22165341Y-34165341D01*
X22294922Y-34058996D01*
X22338220Y-34035853D01*
X22442758Y-33979976D01*
X22603177Y-33931313D01*
X22728196Y-33919000D01*
X22811804Y-33919000D01*
X22936823Y-33931313D01*
X22936823Y-33931313D01*
G37*
G36*
X16778228Y-33311703D02*
G01*
X16933100Y-33375853D01*
X17072481Y-33468985D01*
X17191015Y-33587519D01*
X17284147Y-33726900D01*
X17348297Y-33881772D01*
X17381000Y-34046184D01*
X17381000Y-34213816D01*
X17348297Y-34378228D01*
X17284147Y-34533100D01*
X17191015Y-34672481D01*
X17072481Y-34791015D01*
X16933100Y-34884147D01*
X16778228Y-34948297D01*
X16613816Y-34981000D01*
X16446184Y-34981000D01*
X16281772Y-34948297D01*
X16126900Y-34884147D01*
X15987519Y-34791015D01*
X15868985Y-34672481D01*
X15775853Y-34533100D01*
X15711703Y-34378228D01*
X15679000Y-34213816D01*
X15679000Y-34046184D01*
X15711703Y-33881772D01*
X15775853Y-33726900D01*
X15868985Y-33587519D01*
X15987519Y-33468985D01*
X16126900Y-33375853D01*
X16281772Y-33311703D01*
X16446184Y-33279000D01*
X16613816Y-33279000D01*
X16778228Y-33311703D01*
X16778228Y-33311703D01*
G37*
G36*
X19878228Y-33141703D02*
G01*
X20033100Y-33205853D01*
X20172481Y-33298985D01*
X20291015Y-33417519D01*
X20384147Y-33556900D01*
X20448297Y-33711772D01*
X20481000Y-33876184D01*
X20481000Y-34043816D01*
X20448297Y-34208228D01*
X20384147Y-34363100D01*
X20291015Y-34502481D01*
X20172481Y-34621015D01*
X20033100Y-34714147D01*
X19878228Y-34778297D01*
X19713816Y-34811000D01*
X19546184Y-34811000D01*
X19381772Y-34778297D01*
X19226900Y-34714147D01*
X19087519Y-34621015D01*
X18968985Y-34502481D01*
X18875853Y-34363100D01*
X18811703Y-34208228D01*
X18779000Y-34043816D01*
X18779000Y-33876184D01*
X18811703Y-33711772D01*
X18875853Y-33556900D01*
X18968985Y-33417519D01*
X19087519Y-33298985D01*
X19226900Y-33205853D01*
X19381772Y-33141703D01*
X19546184Y-33109000D01*
X19713816Y-33109000D01*
X19878228Y-33141703D01*
X19878228Y-33141703D01*
G37*
G36*
X43628228Y-31871703D02*
G01*
X43783100Y-31935853D01*
X43922481Y-32028985D01*
X44041015Y-32147519D01*
X44134147Y-32286900D01*
X44198297Y-32441772D01*
X44231000Y-32606184D01*
X44231000Y-32773816D01*
X44198297Y-32938228D01*
X44134147Y-33093100D01*
X44041015Y-33232481D01*
X43922481Y-33351015D01*
X43783100Y-33444147D01*
X43628228Y-33508297D01*
X43463816Y-33541000D01*
X43296184Y-33541000D01*
X43131772Y-33508297D01*
X42976900Y-33444147D01*
X42837519Y-33351015D01*
X42718985Y-33232481D01*
X42625853Y-33093100D01*
X42561703Y-32938228D01*
X42529000Y-32773816D01*
X42529000Y-32606184D01*
X42561703Y-32441772D01*
X42625853Y-32286900D01*
X42718985Y-32147519D01*
X42837519Y-32028985D01*
X42976900Y-31935853D01*
X43131772Y-31871703D01*
X43296184Y-31839000D01*
X43463816Y-31839000D01*
X43628228Y-31871703D01*
X43628228Y-31871703D01*
G37*
G36*
X36828228Y-31671703D02*
G01*
X36983100Y-31735853D01*
X37122481Y-31828985D01*
X37241015Y-31947519D01*
X37334147Y-32086900D01*
X37398297Y-32241772D01*
X37431000Y-32406184D01*
X37431000Y-32573816D01*
X37398297Y-32738228D01*
X37334147Y-32893100D01*
X37241015Y-33032481D01*
X37122481Y-33151015D01*
X36983100Y-33244147D01*
X36828228Y-33308297D01*
X36663816Y-33341000D01*
X36496184Y-33341000D01*
X36331772Y-33308297D01*
X36176900Y-33244147D01*
X36037519Y-33151015D01*
X35918985Y-33032481D01*
X35825853Y-32893100D01*
X35761703Y-32738228D01*
X35729000Y-32573816D01*
X35729000Y-32406184D01*
X35761703Y-32241772D01*
X35825853Y-32086900D01*
X35918985Y-31947519D01*
X36037519Y-31828985D01*
X36176900Y-31735853D01*
X36331772Y-31671703D01*
X36496184Y-31639000D01*
X36663816Y-31639000D01*
X36828228Y-31671703D01*
X36828228Y-31671703D01*
G37*
G36*
X40409393Y-30629304D02*
G01*
X40646101Y-30727352D01*
X40646103Y-30727353D01*
X40859135Y-30869696D01*
X41040304Y-31050865D01*
X41182647Y-31263897D01*
X41182648Y-31263899D01*
X41280696Y-31500607D01*
X41330680Y-31751893D01*
X41330680Y-32008107D01*
X41280696Y-32259393D01*
X41205152Y-32441771D01*
X41182647Y-32496103D01*
X41040304Y-32709135D01*
X40859135Y-32890304D01*
X40646103Y-33032647D01*
X40646102Y-33032648D01*
X40646101Y-33032648D01*
X40409393Y-33130696D01*
X40158107Y-33180680D01*
X39901893Y-33180680D01*
X39650607Y-33130696D01*
X39413899Y-33032648D01*
X39413898Y-33032648D01*
X39413897Y-33032647D01*
X39200865Y-32890304D01*
X39019696Y-32709135D01*
X38877353Y-32496103D01*
X38854848Y-32441771D01*
X38779304Y-32259393D01*
X38729320Y-32008107D01*
X38729320Y-31751893D01*
X38779304Y-31500607D01*
X38877352Y-31263899D01*
X38877353Y-31263897D01*
X39019696Y-31050865D01*
X39200865Y-30869696D01*
X39413897Y-30727353D01*
X39413899Y-30727352D01*
X39650607Y-30629304D01*
X39901893Y-30579320D01*
X40158107Y-30579320D01*
X40409393Y-30629304D01*
X40409393Y-30629304D01*
G37*
G36*
X22936823Y-31391313D02*
G01*
X23097242Y-31439976D01*
X23229906Y-31510886D01*
X23245078Y-31518996D01*
X23374659Y-31625341D01*
X23481004Y-31754922D01*
X23481005Y-31754924D01*
X23560024Y-31902758D01*
X23608687Y-32063177D01*
X23625117Y-32230000D01*
X23608687Y-32396823D01*
X23560024Y-32557242D01*
X23489114Y-32689906D01*
X23481004Y-32705078D01*
X23374659Y-32834659D01*
X23245078Y-32941004D01*
X23245076Y-32941005D01*
X23097242Y-33020024D01*
X22936823Y-33068687D01*
X22811804Y-33081000D01*
X22728196Y-33081000D01*
X22603177Y-33068687D01*
X22442758Y-33020024D01*
X22294924Y-32941005D01*
X22294922Y-32941004D01*
X22165341Y-32834659D01*
X22058996Y-32705078D01*
X22050886Y-32689906D01*
X21979976Y-32557242D01*
X21931313Y-32396823D01*
X21914883Y-32230000D01*
X21931313Y-32063177D01*
X21979976Y-31902758D01*
X22058995Y-31754924D01*
X22058996Y-31754922D01*
X22165341Y-31625341D01*
X22294922Y-31518996D01*
X22310094Y-31510886D01*
X22442758Y-31439976D01*
X22603177Y-31391313D01*
X22728196Y-31379000D01*
X22811804Y-31379000D01*
X22936823Y-31391313D01*
X22936823Y-31391313D01*
G37*
G36*
X30556823Y-31391313D02*
G01*
X30717242Y-31439976D01*
X30849906Y-31510886D01*
X30865078Y-31518996D01*
X30994659Y-31625341D01*
X31101004Y-31754922D01*
X31101005Y-31754924D01*
X31180024Y-31902758D01*
X31228687Y-32063177D01*
X31245117Y-32230000D01*
X31228687Y-32396823D01*
X31180024Y-32557242D01*
X31109114Y-32689906D01*
X31101004Y-32705078D01*
X30994659Y-32834659D01*
X30865078Y-32941004D01*
X30865076Y-32941005D01*
X30717242Y-33020024D01*
X30556823Y-33068687D01*
X30431804Y-33081000D01*
X30348196Y-33081000D01*
X30223177Y-33068687D01*
X30062758Y-33020024D01*
X29914924Y-32941005D01*
X29914922Y-32941004D01*
X29785341Y-32834659D01*
X29678996Y-32705078D01*
X29670886Y-32689906D01*
X29599976Y-32557242D01*
X29551313Y-32396823D01*
X29534883Y-32230000D01*
X29551313Y-32063177D01*
X29599976Y-31902758D01*
X29678995Y-31754924D01*
X29678996Y-31754922D01*
X29785341Y-31625341D01*
X29914922Y-31518996D01*
X29930094Y-31510886D01*
X30062758Y-31439976D01*
X30223177Y-31391313D01*
X30348196Y-31379000D01*
X30431804Y-31379000D01*
X30556823Y-31391313D01*
X30556823Y-31391313D01*
G37*
G36*
X51748228Y-31081705D02*
G01*
X51903100Y-31145855D01*
X52042481Y-31238987D01*
X52161015Y-31357521D01*
X52254147Y-31496902D01*
X52318297Y-31651774D01*
X52351000Y-31816186D01*
X52351000Y-31983818D01*
X52318297Y-32148230D01*
X52254147Y-32303102D01*
X52161015Y-32442483D01*
X52042481Y-32561017D01*
X51903100Y-32654149D01*
X51748228Y-32718299D01*
X51583816Y-32751002D01*
X51416184Y-32751002D01*
X51251772Y-32718299D01*
X51096900Y-32654149D01*
X50957519Y-32561017D01*
X50838985Y-32442483D01*
X50745853Y-32303102D01*
X50681703Y-32148230D01*
X50649000Y-31983818D01*
X50649000Y-31816186D01*
X50681703Y-31651774D01*
X50745853Y-31496902D01*
X50838985Y-31357521D01*
X50957519Y-31238987D01*
X51096900Y-31145855D01*
X51251772Y-31081705D01*
X51416184Y-31049002D01*
X51583816Y-31049002D01*
X51748228Y-31081705D01*
X51748228Y-31081705D01*
G37*
G36*
X46748228Y-31081705D02*
G01*
X46903100Y-31145855D01*
X47042481Y-31238987D01*
X47161015Y-31357521D01*
X47254147Y-31496902D01*
X47318297Y-31651774D01*
X47351000Y-31816186D01*
X47351000Y-31983818D01*
X47318297Y-32148230D01*
X47254147Y-32303102D01*
X47161015Y-32442483D01*
X47042481Y-32561017D01*
X46903100Y-32654149D01*
X46748228Y-32718299D01*
X46583816Y-32751002D01*
X46416184Y-32751002D01*
X46251772Y-32718299D01*
X46096900Y-32654149D01*
X45957519Y-32561017D01*
X45838985Y-32442483D01*
X45745853Y-32303102D01*
X45681703Y-32148230D01*
X45649000Y-31983818D01*
X45649000Y-31816186D01*
X45681703Y-31651774D01*
X45745853Y-31496902D01*
X45838985Y-31357521D01*
X45957519Y-31238987D01*
X46096900Y-31145855D01*
X46251772Y-31081705D01*
X46416184Y-31049002D01*
X46583816Y-31049002D01*
X46748228Y-31081705D01*
X46748228Y-31081705D01*
G37*
G36*
X33656823Y-30821313D02*
G01*
X33817242Y-30869976D01*
X33949906Y-30940886D01*
X33965078Y-30948996D01*
X34094659Y-31055341D01*
X34201004Y-31184922D01*
X34201005Y-31184924D01*
X34280024Y-31332758D01*
X34328687Y-31493177D01*
X34345117Y-31660000D01*
X34328687Y-31826823D01*
X34280024Y-31987242D01*
X34226754Y-32086903D01*
X34201004Y-32135078D01*
X34094659Y-32264659D01*
X33965078Y-32371004D01*
X33965076Y-32371005D01*
X33817242Y-32450024D01*
X33656823Y-32498687D01*
X33531804Y-32511000D01*
X33448196Y-32511000D01*
X33323177Y-32498687D01*
X33162758Y-32450024D01*
X33014924Y-32371005D01*
X33014922Y-32371004D01*
X32885341Y-32264659D01*
X32778996Y-32135078D01*
X32753246Y-32086903D01*
X32699976Y-31987242D01*
X32651313Y-31826823D01*
X32634883Y-31660000D01*
X32651313Y-31493177D01*
X32699976Y-31332758D01*
X32778995Y-31184924D01*
X32778996Y-31184922D01*
X32885341Y-31055341D01*
X33014922Y-30948996D01*
X33030094Y-30940886D01*
X33162758Y-30869976D01*
X33323177Y-30821313D01*
X33448196Y-30809000D01*
X33531804Y-30809000D01*
X33656823Y-30821313D01*
X33656823Y-30821313D01*
G37*
G36*
X57185846Y-30519703D02*
G01*
X56890297Y-32195846D01*
X55214154Y-31900297D01*
X55509703Y-30224154D01*
X57185846Y-30519703D01*
X57185846Y-30519703D01*
G37*
G36*
X30556823Y-28851313D02*
G01*
X30717242Y-28899976D01*
X30849906Y-28970886D01*
X30865078Y-28978996D01*
X30994659Y-29085341D01*
X31101004Y-29214922D01*
X31101005Y-29214924D01*
X31180024Y-29362758D01*
X31228687Y-29523177D01*
X31245117Y-29690000D01*
X31228687Y-29856823D01*
X31180024Y-30017242D01*
X31109114Y-30149906D01*
X31101004Y-30165078D01*
X30994659Y-30294659D01*
X30865078Y-30401004D01*
X30865076Y-30401005D01*
X30717242Y-30480024D01*
X30556823Y-30528687D01*
X30431804Y-30541000D01*
X30348196Y-30541000D01*
X30223177Y-30528687D01*
X30062758Y-30480024D01*
X29914924Y-30401005D01*
X29914922Y-30401004D01*
X29785341Y-30294659D01*
X29678996Y-30165078D01*
X29670886Y-30149906D01*
X29599976Y-30017242D01*
X29551313Y-29856823D01*
X29534883Y-29690000D01*
X29551313Y-29523177D01*
X29599976Y-29362758D01*
X29678995Y-29214924D01*
X29678996Y-29214922D01*
X29785341Y-29085341D01*
X29914922Y-28978996D01*
X29930094Y-28970886D01*
X30062758Y-28899976D01*
X30223177Y-28851313D01*
X30348196Y-28839000D01*
X30431804Y-28839000D01*
X30556823Y-28851313D01*
X30556823Y-28851313D01*
G37*
G36*
X22936823Y-28851313D02*
G01*
X23097242Y-28899976D01*
X23229906Y-28970886D01*
X23245078Y-28978996D01*
X23374659Y-29085341D01*
X23481004Y-29214922D01*
X23481005Y-29214924D01*
X23560024Y-29362758D01*
X23608687Y-29523177D01*
X23625117Y-29690000D01*
X23608687Y-29856823D01*
X23560024Y-30017242D01*
X23489114Y-30149906D01*
X23481004Y-30165078D01*
X23374659Y-30294659D01*
X23245078Y-30401004D01*
X23245076Y-30401005D01*
X23097242Y-30480024D01*
X22936823Y-30528687D01*
X22811804Y-30541000D01*
X22728196Y-30541000D01*
X22603177Y-30528687D01*
X22442758Y-30480024D01*
X22294924Y-30401005D01*
X22294922Y-30401004D01*
X22165341Y-30294659D01*
X22058996Y-30165078D01*
X22050886Y-30149906D01*
X21979976Y-30017242D01*
X21931313Y-29856823D01*
X21914883Y-29690000D01*
X21931313Y-29523177D01*
X21979976Y-29362758D01*
X22058995Y-29214924D01*
X22058996Y-29214922D01*
X22165341Y-29085341D01*
X22294922Y-28978996D01*
X22310094Y-28970886D01*
X22442758Y-28899976D01*
X22603177Y-28851313D01*
X22728196Y-28839000D01*
X22811804Y-28839000D01*
X22936823Y-28851313D01*
X22936823Y-28851313D01*
G37*
G36*
X51829393Y-27379304D02*
G01*
X52038340Y-27465853D01*
X52066103Y-27477353D01*
X52279135Y-27619696D01*
X52460304Y-27800865D01*
X52602647Y-28013897D01*
X52602648Y-28013899D01*
X52700696Y-28250607D01*
X52750680Y-28501893D01*
X52750680Y-28758107D01*
X52700696Y-29009393D01*
X52618335Y-29208229D01*
X52602647Y-29246103D01*
X52460304Y-29459135D01*
X52279135Y-29640304D01*
X52066103Y-29782647D01*
X52066102Y-29782648D01*
X52066101Y-29782648D01*
X51829393Y-29880696D01*
X51578107Y-29930680D01*
X51321893Y-29930680D01*
X51070607Y-29880696D01*
X50833899Y-29782648D01*
X50833898Y-29782648D01*
X50833897Y-29782647D01*
X50620865Y-29640304D01*
X50439696Y-29459135D01*
X50297353Y-29246103D01*
X50281665Y-29208229D01*
X50199304Y-29009393D01*
X50149320Y-28758107D01*
X50149320Y-28501893D01*
X50199304Y-28250607D01*
X50297352Y-28013899D01*
X50297353Y-28013897D01*
X50439696Y-27800865D01*
X50620865Y-27619696D01*
X50833897Y-27477353D01*
X50861660Y-27465853D01*
X51070607Y-27379304D01*
X51321893Y-27329320D01*
X51578107Y-27329320D01*
X51829393Y-27379304D01*
X51829393Y-27379304D01*
G37*
G36*
X48940680Y-29930680D02*
G01*
X46339320Y-29930680D01*
X46339320Y-27329320D01*
X48940680Y-27329320D01*
X48940680Y-29930680D01*
X48940680Y-29930680D01*
G37*
G36*
X19878228Y-28141703D02*
G01*
X20033100Y-28205853D01*
X20172481Y-28298985D01*
X20291015Y-28417519D01*
X20384147Y-28556900D01*
X20448297Y-28711772D01*
X20481000Y-28876184D01*
X20481000Y-29043816D01*
X20448297Y-29208228D01*
X20384147Y-29363100D01*
X20291015Y-29502481D01*
X20172481Y-29621015D01*
X20033100Y-29714147D01*
X19878228Y-29778297D01*
X19713816Y-29811000D01*
X19546184Y-29811000D01*
X19381772Y-29778297D01*
X19226900Y-29714147D01*
X19087519Y-29621015D01*
X18968985Y-29502481D01*
X18875853Y-29363100D01*
X18811703Y-29208228D01*
X18779000Y-29043816D01*
X18779000Y-28876184D01*
X18811703Y-28711772D01*
X18875853Y-28556900D01*
X18968985Y-28417519D01*
X19087519Y-28298985D01*
X19226900Y-28205853D01*
X19381772Y-28141703D01*
X19546184Y-28109000D01*
X19713816Y-28109000D01*
X19878228Y-28141703D01*
X19878228Y-28141703D01*
G37*
G36*
X56882348Y-27929684D02*
G01*
X57037220Y-27993834D01*
X57176601Y-28086966D01*
X57295135Y-28205500D01*
X57388267Y-28344881D01*
X57452417Y-28499753D01*
X57485120Y-28664165D01*
X57485120Y-28831797D01*
X57452417Y-28996209D01*
X57388267Y-29151081D01*
X57295135Y-29290462D01*
X57176601Y-29408996D01*
X57037220Y-29502128D01*
X56882348Y-29566278D01*
X56717936Y-29598981D01*
X56550304Y-29598981D01*
X56385892Y-29566278D01*
X56231020Y-29502128D01*
X56091639Y-29408996D01*
X55973105Y-29290462D01*
X55879973Y-29151081D01*
X55815823Y-28996209D01*
X55783120Y-28831797D01*
X55783120Y-28664165D01*
X55815823Y-28499753D01*
X55879973Y-28344881D01*
X55973105Y-28205500D01*
X56091639Y-28086966D01*
X56231020Y-27993834D01*
X56385892Y-27929684D01*
X56550304Y-27896981D01*
X56717936Y-27896981D01*
X56882348Y-27929684D01*
X56882348Y-27929684D01*
G37*
G36*
X40438228Y-27401703D02*
G01*
X40593100Y-27465853D01*
X40732481Y-27558985D01*
X40851015Y-27677519D01*
X40944147Y-27816900D01*
X41008297Y-27971772D01*
X41041000Y-28136184D01*
X41041000Y-28303816D01*
X41008297Y-28468228D01*
X40944147Y-28623100D01*
X40851015Y-28762481D01*
X40732481Y-28881015D01*
X40593100Y-28974147D01*
X40438228Y-29038297D01*
X40273816Y-29071000D01*
X40106184Y-29071000D01*
X39941772Y-29038297D01*
X39786900Y-28974147D01*
X39647519Y-28881015D01*
X39528985Y-28762481D01*
X39435853Y-28623100D01*
X39371703Y-28468228D01*
X39339000Y-28303816D01*
X39339000Y-28136184D01*
X39371703Y-27971772D01*
X39435853Y-27816900D01*
X39528985Y-27677519D01*
X39647519Y-27558985D01*
X39786900Y-27465853D01*
X39941772Y-27401703D01*
X40106184Y-27369000D01*
X40273816Y-27369000D01*
X40438228Y-27401703D01*
X40438228Y-27401703D01*
G37*
G36*
X36828228Y-26671703D02*
G01*
X36983100Y-26735853D01*
X37122481Y-26828985D01*
X37241015Y-26947519D01*
X37334147Y-27086900D01*
X37398297Y-27241772D01*
X37431000Y-27406184D01*
X37431000Y-27573816D01*
X37398297Y-27738228D01*
X37334147Y-27893100D01*
X37241015Y-28032481D01*
X37122481Y-28151015D01*
X36983100Y-28244147D01*
X36828228Y-28308297D01*
X36663816Y-28341000D01*
X36496184Y-28341000D01*
X36331772Y-28308297D01*
X36176900Y-28244147D01*
X36037519Y-28151015D01*
X35918985Y-28032481D01*
X35825853Y-27893100D01*
X35761703Y-27738228D01*
X35729000Y-27573816D01*
X35729000Y-27406184D01*
X35761703Y-27241772D01*
X35825853Y-27086900D01*
X35918985Y-26947519D01*
X36037519Y-26828985D01*
X36176900Y-26735853D01*
X36331772Y-26671703D01*
X36496184Y-26639000D01*
X36663816Y-26639000D01*
X36828228Y-26671703D01*
X36828228Y-26671703D01*
G37*
G36*
X22936823Y-26311313D02*
G01*
X23097242Y-26359976D01*
X23229906Y-26430886D01*
X23245078Y-26438996D01*
X23374659Y-26545341D01*
X23481004Y-26674922D01*
X23481005Y-26674924D01*
X23560024Y-26822758D01*
X23608687Y-26983177D01*
X23625117Y-27150000D01*
X23608687Y-27316823D01*
X23560024Y-27477242D01*
X23508404Y-27573816D01*
X23481004Y-27625078D01*
X23374659Y-27754659D01*
X23245078Y-27861004D01*
X23245076Y-27861005D01*
X23097242Y-27940024D01*
X22936823Y-27988687D01*
X22811804Y-28001000D01*
X22728196Y-28001000D01*
X22603177Y-27988687D01*
X22442758Y-27940024D01*
X22294924Y-27861005D01*
X22294922Y-27861004D01*
X22165341Y-27754659D01*
X22058996Y-27625078D01*
X22031596Y-27573816D01*
X21979976Y-27477242D01*
X21931313Y-27316823D01*
X21914883Y-27150000D01*
X21931313Y-26983177D01*
X21979976Y-26822758D01*
X22058995Y-26674924D01*
X22058996Y-26674922D01*
X22165341Y-26545341D01*
X22294922Y-26438996D01*
X22310094Y-26430886D01*
X22442758Y-26359976D01*
X22603177Y-26311313D01*
X22728196Y-26299000D01*
X22811804Y-26299000D01*
X22936823Y-26311313D01*
X22936823Y-26311313D01*
G37*
G36*
X30556823Y-26311313D02*
G01*
X30717242Y-26359976D01*
X30849906Y-26430886D01*
X30865078Y-26438996D01*
X30994659Y-26545341D01*
X31101004Y-26674922D01*
X31101005Y-26674924D01*
X31180024Y-26822758D01*
X31228687Y-26983177D01*
X31245117Y-27150000D01*
X31228687Y-27316823D01*
X31180024Y-27477242D01*
X31128404Y-27573816D01*
X31101004Y-27625078D01*
X30994659Y-27754659D01*
X30865078Y-27861004D01*
X30865076Y-27861005D01*
X30717242Y-27940024D01*
X30556823Y-27988687D01*
X30431804Y-28001000D01*
X30348196Y-28001000D01*
X30223177Y-27988687D01*
X30062758Y-27940024D01*
X29914924Y-27861005D01*
X29914922Y-27861004D01*
X29785341Y-27754659D01*
X29678996Y-27625078D01*
X29651596Y-27573816D01*
X29599976Y-27477242D01*
X29551313Y-27316823D01*
X29534883Y-27150000D01*
X29551313Y-26983177D01*
X29599976Y-26822758D01*
X29678995Y-26674924D01*
X29678996Y-26674922D01*
X29785341Y-26545341D01*
X29914922Y-26438996D01*
X29930094Y-26430886D01*
X30062758Y-26359976D01*
X30223177Y-26311313D01*
X30348196Y-26299000D01*
X30431804Y-26299000D01*
X30556823Y-26311313D01*
X30556823Y-26311313D01*
G37*
G36*
X16696823Y-25671313D02*
G01*
X16857242Y-25719976D01*
X16971417Y-25781004D01*
X17005078Y-25798996D01*
X17134659Y-25905341D01*
X17241004Y-26034922D01*
X17241005Y-26034924D01*
X17320024Y-26182758D01*
X17368687Y-26343177D01*
X17385117Y-26510000D01*
X17368687Y-26676823D01*
X17320024Y-26837242D01*
X17285153Y-26902481D01*
X17241004Y-26985078D01*
X17134659Y-27114659D01*
X17005078Y-27221004D01*
X17005076Y-27221005D01*
X16857242Y-27300024D01*
X16696823Y-27348687D01*
X16571804Y-27361000D01*
X16488196Y-27361000D01*
X16363177Y-27348687D01*
X16202758Y-27300024D01*
X16054924Y-27221005D01*
X16054922Y-27221004D01*
X15925341Y-27114659D01*
X15818996Y-26985078D01*
X15774847Y-26902481D01*
X15739976Y-26837242D01*
X15691313Y-26676823D01*
X15674883Y-26510000D01*
X15691313Y-26343177D01*
X15739976Y-26182758D01*
X15818995Y-26034924D01*
X15818996Y-26034922D01*
X15925341Y-25905341D01*
X16054922Y-25798996D01*
X16088583Y-25781004D01*
X16202758Y-25719976D01*
X16363177Y-25671313D01*
X16488196Y-25659000D01*
X16571804Y-25659000D01*
X16696823Y-25671313D01*
X16696823Y-25671313D01*
G37*
G36*
X19878228Y-25541703D02*
G01*
X20033100Y-25605853D01*
X20172481Y-25698985D01*
X20291015Y-25817519D01*
X20384147Y-25956900D01*
X20448297Y-26111772D01*
X20481000Y-26276184D01*
X20481000Y-26443816D01*
X20448297Y-26608228D01*
X20384147Y-26763100D01*
X20291015Y-26902481D01*
X20172481Y-27021015D01*
X20033100Y-27114147D01*
X19878228Y-27178297D01*
X19713816Y-27211000D01*
X19546184Y-27211000D01*
X19381772Y-27178297D01*
X19226900Y-27114147D01*
X19087519Y-27021015D01*
X18968985Y-26902481D01*
X18875853Y-26763100D01*
X18811703Y-26608228D01*
X18779000Y-26443816D01*
X18779000Y-26276184D01*
X18811703Y-26111772D01*
X18875853Y-25956900D01*
X18968985Y-25817519D01*
X19087519Y-25698985D01*
X19226900Y-25605853D01*
X19381772Y-25541703D01*
X19546184Y-25509000D01*
X19713816Y-25509000D01*
X19878228Y-25541703D01*
X19878228Y-25541703D01*
G37*
G36*
X43546823Y-24231313D02*
G01*
X43707242Y-24279976D01*
X43839906Y-24350886D01*
X43855078Y-24358996D01*
X43984659Y-24465341D01*
X44091004Y-24594922D01*
X44091005Y-24594924D01*
X44170024Y-24742758D01*
X44218687Y-24903177D01*
X44235117Y-25070000D01*
X44218687Y-25236823D01*
X44170024Y-25397242D01*
X44110288Y-25509000D01*
X44091004Y-25545078D01*
X43984659Y-25674659D01*
X43855078Y-25781004D01*
X43855076Y-25781005D01*
X43707242Y-25860024D01*
X43546823Y-25908687D01*
X43421804Y-25921000D01*
X43338196Y-25921000D01*
X43213177Y-25908687D01*
X43052758Y-25860024D01*
X42904924Y-25781005D01*
X42904922Y-25781004D01*
X42775341Y-25674659D01*
X42668996Y-25545078D01*
X42649712Y-25509000D01*
X42589976Y-25397242D01*
X42541313Y-25236823D01*
X42524883Y-25070000D01*
X42541313Y-24903177D01*
X42589976Y-24742758D01*
X42668995Y-24594924D01*
X42668996Y-24594922D01*
X42775341Y-24465341D01*
X42904922Y-24358996D01*
X42920094Y-24350886D01*
X43052758Y-24279976D01*
X43213177Y-24231313D01*
X43338196Y-24219000D01*
X43421804Y-24219000D01*
X43546823Y-24231313D01*
X43546823Y-24231313D01*
G37*
G36*
X37209393Y-23139304D02*
G01*
X37446101Y-23237352D01*
X37446103Y-23237353D01*
X37659135Y-23379696D01*
X37840304Y-23560865D01*
X37972693Y-23759000D01*
X37982648Y-23773899D01*
X38080696Y-24010607D01*
X38130680Y-24261893D01*
X38130680Y-24518107D01*
X38080696Y-24769393D01*
X38011170Y-24937242D01*
X37982647Y-25006103D01*
X37840304Y-25219135D01*
X37659135Y-25400304D01*
X37446103Y-25542647D01*
X37446102Y-25542648D01*
X37446101Y-25542648D01*
X37209393Y-25640696D01*
X36958107Y-25690680D01*
X36701893Y-25690680D01*
X36450607Y-25640696D01*
X36213899Y-25542648D01*
X36213898Y-25542648D01*
X36213897Y-25542647D01*
X36000865Y-25400304D01*
X35819696Y-25219135D01*
X35677353Y-25006103D01*
X35648830Y-24937242D01*
X35579304Y-24769393D01*
X35529320Y-24518107D01*
X35529320Y-24261893D01*
X35579304Y-24010607D01*
X35677352Y-23773899D01*
X35687307Y-23759000D01*
X35819696Y-23560865D01*
X36000865Y-23379696D01*
X36213897Y-23237353D01*
X36213899Y-23237352D01*
X36450607Y-23139304D01*
X36701893Y-23089320D01*
X36958107Y-23089320D01*
X37209393Y-23139304D01*
X37209393Y-23139304D01*
G37*
G36*
X23621000Y-25461000D02*
G01*
X21919000Y-25461000D01*
X21919000Y-23759000D01*
X23621000Y-23759000D01*
X23621000Y-25461000D01*
X23621000Y-25461000D01*
G37*
G36*
X30556823Y-23771313D02*
G01*
X30717242Y-23819976D01*
X30849906Y-23890886D01*
X30865078Y-23898996D01*
X30994659Y-24005341D01*
X31101004Y-24134922D01*
X31101005Y-24134924D01*
X31180024Y-24282758D01*
X31228687Y-24443177D01*
X31245117Y-24610000D01*
X31228687Y-24776823D01*
X31180024Y-24937242D01*
X31162151Y-24970680D01*
X31101004Y-25085078D01*
X30994659Y-25214659D01*
X30865078Y-25321004D01*
X30865076Y-25321005D01*
X30717242Y-25400024D01*
X30556823Y-25448687D01*
X30431804Y-25461000D01*
X30348196Y-25461000D01*
X30223177Y-25448687D01*
X30062758Y-25400024D01*
X29914924Y-25321005D01*
X29914922Y-25321004D01*
X29785341Y-25214659D01*
X29678996Y-25085078D01*
X29617849Y-24970680D01*
X29599976Y-24937242D01*
X29551313Y-24776823D01*
X29534883Y-24610000D01*
X29551313Y-24443177D01*
X29599976Y-24282758D01*
X29678995Y-24134924D01*
X29678996Y-24134922D01*
X29785341Y-24005341D01*
X29914922Y-23898996D01*
X29930094Y-23890886D01*
X30062758Y-23819976D01*
X30223177Y-23771313D01*
X30348196Y-23759000D01*
X30431804Y-23759000D01*
X30556823Y-23771313D01*
X30556823Y-23771313D01*
G37*
G36*
X54879393Y-22419304D02*
G01*
X55116101Y-22517352D01*
X55116103Y-22517353D01*
X55329135Y-22659696D01*
X55510304Y-22840865D01*
X55513809Y-22846111D01*
X55652648Y-23053899D01*
X55750696Y-23290607D01*
X55800680Y-23541893D01*
X55800680Y-23798107D01*
X55750696Y-24049393D01*
X55662675Y-24261893D01*
X55652647Y-24286103D01*
X55510304Y-24499135D01*
X55329135Y-24680304D01*
X55116103Y-24822647D01*
X55116102Y-24822648D01*
X55116101Y-24822648D01*
X54879393Y-24920696D01*
X54628107Y-24970680D01*
X54371893Y-24970680D01*
X54120607Y-24920696D01*
X53883899Y-24822648D01*
X53883898Y-24822648D01*
X53883897Y-24822647D01*
X53670865Y-24680304D01*
X53489696Y-24499135D01*
X53347353Y-24286103D01*
X53337325Y-24261893D01*
X53249304Y-24049393D01*
X53199320Y-23798107D01*
X53199320Y-23541893D01*
X53249304Y-23290607D01*
X53347352Y-23053899D01*
X53486191Y-22846111D01*
X53489696Y-22840865D01*
X53670865Y-22659696D01*
X53883897Y-22517353D01*
X53883899Y-22517352D01*
X54120607Y-22419304D01*
X54371893Y-22369320D01*
X54628107Y-22369320D01*
X54879393Y-22419304D01*
X54879393Y-22419304D01*
G37*
G36*
X51990680Y-24970680D02*
G01*
X49389320Y-24970680D01*
X49389320Y-22369320D01*
X51990680Y-22369320D01*
X51990680Y-24970680D01*
X51990680Y-24970680D01*
G37*
G36*
X33738228Y-23221703D02*
G01*
X33893100Y-23285853D01*
X34032481Y-23378985D01*
X34151015Y-23497519D01*
X34244147Y-23636900D01*
X34308297Y-23791772D01*
X34341000Y-23956184D01*
X34341000Y-24123816D01*
X34308297Y-24288228D01*
X34244147Y-24443100D01*
X34151015Y-24582481D01*
X34032481Y-24701015D01*
X33893100Y-24794147D01*
X33738228Y-24858297D01*
X33573816Y-24891000D01*
X33406184Y-24891000D01*
X33241772Y-24858297D01*
X33086900Y-24794147D01*
X32947519Y-24701015D01*
X32828985Y-24582481D01*
X32735853Y-24443100D01*
X32671703Y-24288228D01*
X32639000Y-24123816D01*
X32639000Y-23956184D01*
X32671703Y-23791772D01*
X32735853Y-23636900D01*
X32828985Y-23497519D01*
X32947519Y-23378985D01*
X33086900Y-23285853D01*
X33241772Y-23221703D01*
X33406184Y-23189000D01*
X33573816Y-23189000D01*
X33738228Y-23221703D01*
X33738228Y-23221703D01*
G37*
G36*
X45695197Y-21176814D02*
G01*
X45850069Y-21240964D01*
X45989450Y-21334096D01*
X46107984Y-21452630D01*
X46201116Y-21592011D01*
X46265266Y-21746883D01*
X46297969Y-21911295D01*
X46297969Y-22078927D01*
X46265266Y-22243339D01*
X46201116Y-22398211D01*
X46107984Y-22537592D01*
X45989450Y-22656126D01*
X45850069Y-22749258D01*
X45695197Y-22813408D01*
X45530785Y-22846111D01*
X45363153Y-22846111D01*
X45198741Y-22813408D01*
X45043869Y-22749258D01*
X44904488Y-22656126D01*
X44785954Y-22537592D01*
X44692822Y-22398211D01*
X44628672Y-22243339D01*
X44595969Y-22078927D01*
X44595969Y-21911295D01*
X44628672Y-21746883D01*
X44692822Y-21592011D01*
X44785954Y-21452630D01*
X44904488Y-21334096D01*
X45043869Y-21240964D01*
X45198741Y-21176814D01*
X45363153Y-21144111D01*
X45530785Y-21144111D01*
X45695197Y-21176814D01*
X45695197Y-21176814D01*
G37*
G36*
X23429393Y-19859304D02*
G01*
X23666101Y-19957352D01*
X23666103Y-19957353D01*
X23879135Y-20099696D01*
X24060304Y-20280865D01*
X24112557Y-20359068D01*
X24202648Y-20493899D01*
X24300696Y-20730607D01*
X24350680Y-20981893D01*
X24350680Y-21238107D01*
X24300696Y-21489393D01*
X24251472Y-21608229D01*
X24202647Y-21726103D01*
X24060304Y-21939135D01*
X23879135Y-22120304D01*
X23666103Y-22262647D01*
X23666102Y-22262648D01*
X23666101Y-22262648D01*
X23429393Y-22360696D01*
X23178107Y-22410680D01*
X22921893Y-22410680D01*
X22670607Y-22360696D01*
X22433899Y-22262648D01*
X22433898Y-22262648D01*
X22433897Y-22262647D01*
X22220865Y-22120304D01*
X22039696Y-21939135D01*
X21897353Y-21726103D01*
X21848528Y-21608229D01*
X21799304Y-21489393D01*
X21749320Y-21238107D01*
X21749320Y-20981893D01*
X21799304Y-20730607D01*
X21897352Y-20493899D01*
X21987443Y-20359068D01*
X22039696Y-20280865D01*
X22220865Y-20099696D01*
X22433897Y-19957353D01*
X22433899Y-19957352D01*
X22670607Y-19859304D01*
X22921893Y-19809320D01*
X23178107Y-19809320D01*
X23429393Y-19859304D01*
X23429393Y-19859304D01*
G37*
G36*
X27206416Y-20279879D02*
G01*
X27324994Y-20328996D01*
X27397594Y-20359068D01*
X27569648Y-20474031D01*
X27715969Y-20620352D01*
X27830508Y-20791771D01*
X27830933Y-20792408D01*
X27910121Y-20983584D01*
X27950490Y-21186534D01*
X27950490Y-21393466D01*
X27910121Y-21596416D01*
X27847795Y-21746883D01*
X27830932Y-21787594D01*
X27715969Y-21959648D01*
X27569648Y-22105969D01*
X27397594Y-22220932D01*
X27397593Y-22220933D01*
X27397592Y-22220933D01*
X27206416Y-22300121D01*
X27003466Y-22340490D01*
X26796534Y-22340490D01*
X26593584Y-22300121D01*
X26402408Y-22220933D01*
X26402407Y-22220933D01*
X26402406Y-22220932D01*
X26230352Y-22105969D01*
X26084031Y-21959648D01*
X25969068Y-21787594D01*
X25952205Y-21746883D01*
X25889879Y-21596416D01*
X25849510Y-21393466D01*
X25849510Y-21186534D01*
X25889879Y-20983584D01*
X25969067Y-20792408D01*
X25969493Y-20791771D01*
X26084031Y-20620352D01*
X26230352Y-20474031D01*
X26402406Y-20359068D01*
X26475006Y-20328996D01*
X26593584Y-20279879D01*
X26796534Y-20239510D01*
X27003466Y-20239510D01*
X27206416Y-20279879D01*
X27206416Y-20279879D01*
G37*
G36*
X19878228Y-20541703D02*
G01*
X20033100Y-20605853D01*
X20172481Y-20698985D01*
X20291015Y-20817519D01*
X20384147Y-20956900D01*
X20448297Y-21111772D01*
X20481000Y-21276184D01*
X20481000Y-21443816D01*
X20448297Y-21608228D01*
X20384147Y-21763100D01*
X20291015Y-21902481D01*
X20172481Y-22021015D01*
X20033100Y-22114147D01*
X19878228Y-22178297D01*
X19713816Y-22211000D01*
X19546184Y-22211000D01*
X19381772Y-22178297D01*
X19226900Y-22114147D01*
X19087519Y-22021015D01*
X18968985Y-21902481D01*
X18875853Y-21763100D01*
X18811703Y-21608228D01*
X18779000Y-21443816D01*
X18779000Y-21276184D01*
X18811703Y-21111772D01*
X18875853Y-20956900D01*
X18968985Y-20817519D01*
X19087519Y-20698985D01*
X19226900Y-20605853D01*
X19381772Y-20541703D01*
X19546184Y-20509000D01*
X19713816Y-20509000D01*
X19878228Y-20541703D01*
X19878228Y-20541703D01*
G37*
G36*
X30106823Y-20201313D02*
G01*
X30267242Y-20249976D01*
X30334361Y-20285852D01*
X30415078Y-20328996D01*
X30544659Y-20435341D01*
X30651004Y-20564922D01*
X30651005Y-20564924D01*
X30730024Y-20712758D01*
X30730025Y-20712761D01*
X30739083Y-20742620D01*
X30778687Y-20873177D01*
X30795117Y-21040000D01*
X30778687Y-21206823D01*
X30730024Y-21367242D01*
X30664733Y-21489393D01*
X30651004Y-21515078D01*
X30544659Y-21644659D01*
X30415078Y-21751004D01*
X30415076Y-21751005D01*
X30267242Y-21830024D01*
X30106823Y-21878687D01*
X29981804Y-21891000D01*
X29898196Y-21891000D01*
X29773177Y-21878687D01*
X29612758Y-21830024D01*
X29464924Y-21751005D01*
X29464922Y-21751004D01*
X29335341Y-21644659D01*
X29228996Y-21515078D01*
X29215267Y-21489393D01*
X29149976Y-21367242D01*
X29101313Y-21206823D01*
X29084883Y-21040000D01*
X29101313Y-20873177D01*
X29140917Y-20742620D01*
X29149975Y-20712761D01*
X29149976Y-20712758D01*
X29228995Y-20564924D01*
X29228996Y-20564922D01*
X29335341Y-20435341D01*
X29464922Y-20328996D01*
X29545639Y-20285852D01*
X29612758Y-20249976D01*
X29773177Y-20201313D01*
X29898196Y-20189000D01*
X29981804Y-20189000D01*
X30106823Y-20201313D01*
X30106823Y-20201313D01*
G37*
G36*
X37808228Y-20221703D02*
G01*
X37963100Y-20285853D01*
X38102481Y-20378985D01*
X38221015Y-20497519D01*
X38314147Y-20636900D01*
X38378297Y-20791772D01*
X38411000Y-20956184D01*
X38411000Y-21123816D01*
X38378297Y-21288228D01*
X38314147Y-21443100D01*
X38221015Y-21582481D01*
X38102481Y-21701015D01*
X37963100Y-21794147D01*
X37808228Y-21858297D01*
X37643816Y-21891000D01*
X37476184Y-21891000D01*
X37311772Y-21858297D01*
X37156900Y-21794147D01*
X37017519Y-21701015D01*
X36898985Y-21582481D01*
X36805853Y-21443100D01*
X36741703Y-21288228D01*
X36709000Y-21123816D01*
X36709000Y-20956184D01*
X36741703Y-20791772D01*
X36805853Y-20636900D01*
X36898985Y-20497519D01*
X37017519Y-20378985D01*
X37156900Y-20285853D01*
X37311772Y-20221703D01*
X37476184Y-20189000D01*
X37643816Y-20189000D01*
X37808228Y-20221703D01*
X37808228Y-20221703D01*
G37*
G36*
X40356823Y-19761313D02*
G01*
X40487380Y-19800917D01*
X40515080Y-19809320D01*
X40517242Y-19809976D01*
X40609528Y-19859304D01*
X40665078Y-19888996D01*
X40794659Y-19995341D01*
X40901004Y-20124922D01*
X40901005Y-20124924D01*
X40980024Y-20272758D01*
X40980025Y-20272761D01*
X40982483Y-20280865D01*
X41028687Y-20433177D01*
X41045117Y-20600000D01*
X41028687Y-20766823D01*
X40980024Y-20927242D01*
X40909114Y-21059906D01*
X40901004Y-21075078D01*
X40794659Y-21204659D01*
X40665078Y-21311004D01*
X40665076Y-21311005D01*
X40517242Y-21390024D01*
X40517239Y-21390025D01*
X40487380Y-21399083D01*
X40356823Y-21438687D01*
X40231804Y-21451000D01*
X40148196Y-21451000D01*
X40023177Y-21438687D01*
X39892620Y-21399083D01*
X39862761Y-21390025D01*
X39862758Y-21390024D01*
X39714924Y-21311005D01*
X39714922Y-21311004D01*
X39585341Y-21204659D01*
X39478996Y-21075078D01*
X39470886Y-21059906D01*
X39399976Y-20927242D01*
X39351313Y-20766823D01*
X39334883Y-20600000D01*
X39351313Y-20433177D01*
X39397517Y-20280865D01*
X39399975Y-20272761D01*
X39399976Y-20272758D01*
X39478995Y-20124924D01*
X39478996Y-20124922D01*
X39585341Y-19995341D01*
X39714922Y-19888996D01*
X39770472Y-19859304D01*
X39862758Y-19809976D01*
X39864921Y-19809320D01*
X39892620Y-19800917D01*
X40023177Y-19761313D01*
X40148196Y-19749000D01*
X40231804Y-19749000D01*
X40356823Y-19761313D01*
X40356823Y-19761313D01*
G37*
G36*
X45038916Y-20184892D02*
G01*
X43735108Y-21278916D01*
X42641084Y-19975108D01*
X43944892Y-18881084D01*
X45038916Y-20184892D01*
X45038916Y-20184892D01*
G37*
G36*
X31049393Y-16449304D02*
G01*
X31232940Y-16525332D01*
X31286103Y-16547353D01*
X31499135Y-16689696D01*
X31680304Y-16870865D01*
X31801263Y-17051894D01*
X31822648Y-17083899D01*
X31920696Y-17320607D01*
X31970680Y-17571893D01*
X31970680Y-17828107D01*
X31920696Y-18079393D01*
X31874755Y-18190304D01*
X31822647Y-18316103D01*
X31680304Y-18529135D01*
X31499135Y-18710304D01*
X31286103Y-18852647D01*
X31286102Y-18852648D01*
X31286101Y-18852648D01*
X31049393Y-18950696D01*
X30798107Y-19000680D01*
X30541893Y-19000680D01*
X30290607Y-18950696D01*
X30053899Y-18852648D01*
X30053898Y-18852648D01*
X30053897Y-18852647D01*
X29840865Y-18710304D01*
X29659696Y-18529135D01*
X29517353Y-18316103D01*
X29465245Y-18190304D01*
X29419304Y-18079393D01*
X29369320Y-17828107D01*
X29369320Y-17571893D01*
X29419304Y-17320607D01*
X29517352Y-17083899D01*
X29538737Y-17051894D01*
X29659696Y-16870865D01*
X29840865Y-16689696D01*
X30053897Y-16547353D01*
X30107060Y-16525332D01*
X30290607Y-16449304D01*
X30541893Y-16399320D01*
X30798107Y-16399320D01*
X31049393Y-16449304D01*
X31049393Y-16449304D01*
G37*
G36*
X23386416Y-16749879D02*
G01*
X23577592Y-16829067D01*
X23577594Y-16829068D01*
X23640149Y-16870866D01*
X23749648Y-16944031D01*
X23895969Y-17090352D01*
X24010933Y-17262408D01*
X24090121Y-17453584D01*
X24130490Y-17656534D01*
X24130490Y-17863466D01*
X24090121Y-18066416D01*
X24010933Y-18257592D01*
X24010932Y-18257594D01*
X23895969Y-18429648D01*
X23749648Y-18575969D01*
X23577594Y-18690932D01*
X23577593Y-18690933D01*
X23577592Y-18690933D01*
X23386416Y-18770121D01*
X23183466Y-18810490D01*
X22976534Y-18810490D01*
X22773584Y-18770121D01*
X22582408Y-18690933D01*
X22582407Y-18690933D01*
X22582406Y-18690932D01*
X22410352Y-18575969D01*
X22264031Y-18429648D01*
X22149068Y-18257594D01*
X22149067Y-18257592D01*
X22069879Y-18066416D01*
X22029510Y-17863466D01*
X22029510Y-17656534D01*
X22069879Y-17453584D01*
X22149067Y-17262408D01*
X22264031Y-17090352D01*
X22410352Y-16944031D01*
X22519851Y-16870866D01*
X22582406Y-16829068D01*
X22582408Y-16829067D01*
X22773584Y-16749879D01*
X22976534Y-16709510D01*
X23183466Y-16709510D01*
X23386416Y-16749879D01*
X23386416Y-16749879D01*
G37*
G36*
X40239393Y-15929304D02*
G01*
X40476101Y-16027352D01*
X40476103Y-16027353D01*
X40689135Y-16169696D01*
X40870304Y-16350865D01*
X41012647Y-16563897D01*
X41012648Y-16563899D01*
X41110696Y-16800607D01*
X41160680Y-17051893D01*
X41160680Y-17308107D01*
X41110696Y-17559393D01*
X41039287Y-17731788D01*
X41012647Y-17796103D01*
X40870304Y-18009135D01*
X40689135Y-18190304D01*
X40476103Y-18332647D01*
X40476102Y-18332648D01*
X40476101Y-18332648D01*
X40239393Y-18430696D01*
X39988107Y-18480680D01*
X39731893Y-18480680D01*
X39480607Y-18430696D01*
X39243899Y-18332648D01*
X39243898Y-18332648D01*
X39243897Y-18332647D01*
X39030865Y-18190304D01*
X38849696Y-18009135D01*
X38707353Y-17796103D01*
X38680713Y-17731788D01*
X38609304Y-17559393D01*
X38559320Y-17308107D01*
X38559320Y-17051893D01*
X38609304Y-16800607D01*
X38707352Y-16563899D01*
X38707353Y-16563897D01*
X38849696Y-16350865D01*
X39030865Y-16169696D01*
X39243897Y-16027353D01*
X39243899Y-16027352D01*
X39480607Y-15929304D01*
X39731893Y-15879320D01*
X39988107Y-15879320D01*
X40239393Y-15929304D01*
X40239393Y-15929304D01*
G37*
G36*
X37350680Y-18480680D02*
G01*
X34749320Y-18480680D01*
X34749320Y-15879320D01*
X37350680Y-15879320D01*
X37350680Y-18480680D01*
X37350680Y-18480680D01*
G37*
G36*
X16525331Y-14268211D02*
G01*
X16853092Y-14403974D01*
X17148070Y-14601072D01*
X17398928Y-14851930D01*
X17596026Y-15146908D01*
X17731789Y-15474669D01*
X17801000Y-15822616D01*
X17801000Y-16177384D01*
X17731789Y-16525331D01*
X17596026Y-16853092D01*
X17398928Y-17148070D01*
X17148070Y-17398928D01*
X16853092Y-17596026D01*
X16525331Y-17731789D01*
X16177384Y-17801000D01*
X15822616Y-17801000D01*
X15474669Y-17731789D01*
X15146908Y-17596026D01*
X14851930Y-17398928D01*
X14601072Y-17148070D01*
X14403974Y-16853092D01*
X14268211Y-16525331D01*
X14199000Y-16177384D01*
X14199000Y-15822616D01*
X14268211Y-15474669D01*
X14403974Y-15146908D01*
X14601072Y-14851930D01*
X14851930Y-14601072D01*
X15146908Y-14403974D01*
X15474669Y-14268211D01*
X15822616Y-14199000D01*
X16177384Y-14199000D01*
X16525331Y-14268211D01*
X16525331Y-14268211D01*
G37*
G36*
X56525331Y-14268211D02*
G01*
X56853092Y-14403974D01*
X57148070Y-14601072D01*
X57398928Y-14851930D01*
X57596026Y-15146908D01*
X57731789Y-15474669D01*
X57801000Y-15822616D01*
X57801000Y-16177384D01*
X57731789Y-16525331D01*
X57596026Y-16853092D01*
X57398928Y-17148070D01*
X57148070Y-17398928D01*
X56853092Y-17596026D01*
X56525331Y-17731789D01*
X56177384Y-17801000D01*
X55822616Y-17801000D01*
X55474669Y-17731789D01*
X55146908Y-17596026D01*
X54851930Y-17398928D01*
X54601072Y-17148070D01*
X54403974Y-16853092D01*
X54268211Y-16525331D01*
X54199000Y-16177384D01*
X54199000Y-15822616D01*
X54268211Y-15474669D01*
X54403974Y-15146908D01*
X54601072Y-14851930D01*
X54851930Y-14601072D01*
X55146908Y-14403974D01*
X55474669Y-14268211D01*
X55822616Y-14199000D01*
X56177384Y-14199000D01*
X56525331Y-14268211D01*
X56525331Y-14268211D01*
G37*
M02*
