M48
; DRILL file {KiCad (5.1.2-1)-1} date Thursday, January 06, 2022 at 11:26:15 AM
; FORMAT={-:-/ absolute / inch / decimal}
; #@! TF.CreationDate,2022-01-06T11:26:15-05:00
; #@! TF.GenerationSoftware,Kicad,Pcbnew,(5.1.2-1)-1
FMAT,2
INCH
T1C0.0315
T2C0.0315
T3C0.0354
T4C0.0394
T5C0.0394
T6C0.1378
%
G90
G05
T1
X1.765Y-1.3232
X2.065Y-1.3232
X2.498Y-2.4734
X2.6006Y-2.7553
X1.4935Y-1.81
X1.789Y-1.7579
X3.2491Y-2.0024
X3.2833Y-2.1963
X2.9901Y-2.5422
X3.1839Y-2.508
X3.1808Y-1.6107
X3.2329Y-1.9061
X1.7665Y-1.5697
X2.0665Y-1.5697
X2.0083Y-2.2306
X2.1109Y-2.5125
X0.9915Y-1.8729
X1.2734Y-1.7703
X1.6583Y-1.0618
X1.6583Y-1.3618
X1.0291Y-2.6415
X1.1317Y-2.9234
X1.7559Y-2.3212
X1.8585Y-2.6031
X1.6602Y-1.4571
X1.6602Y-1.6539
X0.8716Y-2.3988
X1.0566Y-2.3315
X1.3268Y-2.7883
X1.6087Y-2.6857
X3.7594Y-1.5114
X3.7594Y-1.8114
X1.7642Y-1.0795
X2.0642Y-1.0795
X1.6123Y-2.8163
X1.7062Y-2.7821
X1.7149Y-3.0982
X1.8002Y-2.7479
X1.8088Y-3.064
X1.8942Y-2.7137
X1.9028Y-3.0298
X1.9881Y-2.6795
X1.9968Y-2.9956
X2.0821Y-2.6453
X2.0908Y-2.9614
X2.1761Y-2.6111
X2.1847Y-2.9272
X2.2701Y-2.5769
X2.2787Y-2.893
X2.3727Y-2.8588
X2.1717Y-1.1421
X2.1717Y-1.2421
X2.1717Y-1.3421
X2.1717Y-1.4421
X2.1717Y-1.5421
X2.1717Y-1.6421
X2.1717Y-1.7421
X2.1717Y-1.8421
X2.4717Y-1.1421
X2.4717Y-1.2421
X2.4717Y-1.3421
X2.4717Y-1.4421
X2.4717Y-1.5421
X2.4717Y-1.6421
X2.4717Y-1.7421
X2.4717Y-1.8421
X2.8752Y-2.4393
X3.1706Y-2.3872
X2.0469Y-3.1127
X2.2319Y-3.0454
X2.5807Y-1.1945
X2.8807Y-1.1945
X2.5878Y-1.6902
X2.7846Y-1.6902
X2.1239Y-2.1973
X2.1913Y-2.3823
X0.5849Y-2.243
X0.8668Y-2.1404
X2.5783Y-1.4421
X2.8783Y-1.4421
X1.2812Y-2.6712
X1.5632Y-2.5686
X2.1713Y-0.7106
X2.1713Y-0.8106
X2.1713Y-0.9106
X2.1713Y-1.0106
X2.4713Y-0.7106
X2.4713Y-0.8106
X2.4713Y-0.9106
X2.4713Y-1.0106
X3.5161Y-1.511
X3.5161Y-1.811
X1.1436Y-2.5981
X1.2462Y-2.88
X1.9016Y-1.6831
X1.9016Y-1.8799
X2.9136Y-1.8725
X3.1074Y-1.8383
X3.4988Y-1.4063
X3.7988Y-1.4063
X1.5407Y-2.0878
X1.608Y-2.2728
X1.4656Y-0.8325
X1.7611Y-0.7804
X3.6378Y-1.511
X3.6378Y-1.811
X0.8423Y-2.5955
X1.1242Y-2.4929
X0.8625Y-2.7048
X0.9651Y-2.9867
X2.6817Y-1.9357
X2.7338Y-2.2312
X2.5874Y-1.813
X2.7843Y-1.813
X2.5787Y-1.3201
X2.8787Y-1.3201
X1.7646Y-1.2008
X2.0646Y-1.2008
X2.0472Y-1.7213
X2.0472Y-1.9181
X3.1563Y-1.3098
X3.1563Y-1.4098
X3.1563Y-1.5098
X2.5783Y-1.5657
X2.8783Y-1.5657
X1.641Y-2.3635
X1.7436Y-2.6454
X1.1514Y-3.0281
X1.4333Y-2.9255
X1.7654Y-1.4457
X2.0654Y-1.4457
X0.7399Y-2.3165
X1.0218Y-2.2139
X3.5142Y-1.0024
X3.5142Y-1.3024
X1.0519Y-1.9846
X1.0861Y-2.0786
X1.1203Y-2.1726
X1.1545Y-2.2665
X1.1887Y-2.3605
X1.2229Y-2.4545
X1.2571Y-2.5484
X1.3338Y-1.882
X1.368Y-1.976
X1.4022Y-2.0699
X1.4364Y-2.1639
X1.4706Y-2.2579
X1.5048Y-2.3519
X1.539Y-2.4458
X2.822Y-2.0173
X2.8393Y-2.1158
X2.8567Y-2.2143
X2.8741Y-2.3128
X3.1174Y-1.9652
X3.1348Y-2.0637
X3.1522Y-2.1622
X3.1695Y-2.2607
X2.3832Y-2.5148
X2.4858Y-2.7967
X0.8674Y-1.8393
X0.9701Y-2.1212
X3.3457Y-1.311
X3.3457Y-1.411
X3.3457Y-1.511
X2.5811Y-1.0677
X2.8811Y-1.0677
T2
X1.5815Y-0.9575
X2.0484Y-0.9563
X3.3917Y-1.0205
X2.5941Y-0.739
X0.7283Y-2.0244
X0.7177Y-1.5874
X1.1445Y-1.4476
X1.2059Y-1.6531
X1.5626Y-1.9429
X3.0594Y-1.6728
X1.9252Y-2.4075
X2.402Y-2.1807
X2.0016Y-2.1201
X2.2937Y-1.9858
X1.3843Y-1.1106
X2.1878Y-2.0516
T3
X2.5322Y-1.9677
X2.5496Y-2.0662
X2.5661Y-2.16
X2.5835Y-2.2585
T4
X3.6169Y-1.2811
X3.7154Y-1.0843
X3.8138Y-1.2811
X0.9139Y-1.4304
X0.9532Y-1.3223
X1.3594Y-1.4677
X1.4579Y-1.6646
X1.5563Y-1.4677
X1.0913Y-1.0574
X1.1652Y-0.9693
T5
X0.6367Y-2.3645
X1.89Y-0.7453
X1.0488Y-3.0787
X3.7787Y-1.9252
X3.6378Y-1.9248
X2.9941Y-1.4445
X3.4969Y-1.9248
X1.5264Y-1.0913
X0.9598Y-1.1747
X1.1008Y-1.226
X1.7587Y-1.9291
X0.7708Y-2.4808
X1.2516Y-0.8213
X1.348Y-0.9362
X2.7444Y-2.3504
X0.8492Y-1.5886
X0.9992Y-1.5886
X1.9755Y-2.532
T6
X0.6299Y-0.6299
X0.6299Y-2.9134
X3.7008Y-2.9134
X3.7008Y-0.6299
T0
M30
