G04 #@! TF.GenerationSoftware,KiCad,Pcbnew,(5.1.2-1)-1*
G04 #@! TF.CreationDate,2022-01-06T11:26:16-05:00*
G04 #@! TF.ProjectId,MS20_Filter_Clone,4d533230-5f46-4696-9c74-65725f436c6f,rev?*
G04 #@! TF.SameCoordinates,Original*
G04 #@! TF.FileFunction,Copper,L2,Bot*
G04 #@! TF.FilePolarity,Positive*
%FSLAX46Y46*%
G04 Gerber Fmt 4.6, Leading zero omitted, Abs format (unit mm)*
G04 Created by KiCad (PCBNEW (5.1.2-1)-1) date 2022-01-06 11:26:16*
%MOMM*%
%LPD*%
G04 APERTURE LIST*
%ADD10C,1.998980*%
%ADD11C,2.499360*%
%ADD12R,1.500000X1.500000*%
%ADD13C,1.500000*%
%ADD14C,1.600000*%
%ADD15C,2.400000*%
%ADD16C,0.100000*%
%ADD17C,1.800000*%
%ADD18R,2.499360X2.499360*%
%ADD19C,1.600000*%
%ADD20O,1.600000X1.600000*%
%ADD21C,1.550000*%
%ADD22R,1.550000X1.550000*%
%ADD23R,1.600000X1.600000*%
%ADD24C,0.812800*%
G04 APERTURE END LIST*
D10*
X35160000Y-28210000D03*
X77710000Y-42490000D03*
X40170000Y-24320000D03*
X52030000Y-24290000D03*
X86150000Y-25920000D03*
X65890000Y-18770000D03*
X18500000Y-51420000D03*
X18230000Y-40320000D03*
X29070000Y-36770000D03*
X30630000Y-41990000D03*
X39690000Y-49350000D03*
X48900000Y-61150000D03*
X61010000Y-55390000D03*
X58260000Y-50440000D03*
X55570000Y-52110000D03*
X50840000Y-53850000D03*
D11*
X26640000Y-78200000D03*
X16171947Y-60058077D03*
X48006026Y-18929523D03*
D12*
X80170000Y-33270000D03*
D13*
X80170000Y-38350000D03*
X80170000Y-35810000D03*
D12*
X84979999Y-33300001D03*
D13*
X84979999Y-38380001D03*
X84979999Y-35840001D03*
D14*
X83395550Y-55784887D03*
X82527309Y-50860848D03*
X42170000Y-37010000D03*
X42170000Y-42010000D03*
X65730000Y-42930000D03*
X70730000Y-42930000D03*
X48300000Y-47750000D03*
X48300000Y-42750000D03*
X22139892Y-60929471D03*
X26838355Y-59219370D03*
X55657931Y-60510351D03*
X53947830Y-55811888D03*
X74004755Y-47560635D03*
X78928794Y-46692394D03*
X65720000Y-46050000D03*
X70720000Y-46050000D03*
D15*
X29595517Y-24620431D03*
D16*
G36*
X29447609Y-22929833D02*
G01*
X31286115Y-24472523D01*
X29743425Y-26311029D01*
X27904919Y-24768339D01*
X29447609Y-22929833D01*
X29447609Y-22929833D01*
G37*
D15*
X27717935Y-26858047D03*
D14*
X75948203Y-64571595D03*
X80872242Y-63703354D03*
X51992225Y-79062954D03*
X56690688Y-77352853D03*
X39133301Y-53031049D03*
X40843402Y-57729512D03*
X52000000Y-48720000D03*
X52000000Y-43720000D03*
D15*
X23212853Y-36332063D03*
X24211894Y-33587220D03*
D16*
G36*
X23494687Y-32049165D02*
G01*
X25749949Y-32870013D01*
X24929101Y-35125275D01*
X22673839Y-34304427D01*
X23494687Y-32049165D01*
X23494687Y-32049165D01*
G37*
D17*
X65619986Y-57365595D03*
D16*
G36*
X66662596Y-58095639D02*
G01*
X64889942Y-58408205D01*
X64577376Y-56635551D01*
X66350030Y-56322985D01*
X66662596Y-58095639D01*
X66662596Y-58095639D01*
G37*
D17*
X65178920Y-54864183D03*
X64317625Y-49979537D03*
X64758691Y-52480949D03*
D16*
G36*
X65801301Y-53210993D02*
G01*
X64028647Y-53523559D01*
X63716081Y-51750905D01*
X65488735Y-51438339D01*
X65801301Y-53210993D01*
X65801301Y-53210993D01*
G37*
D11*
X95980000Y-48900001D03*
X92400000Y-48889999D03*
X76050000Y-36690000D03*
X38770000Y-27720000D03*
X88819999Y-48890001D03*
X44670000Y-49000000D03*
X31790000Y-20860000D03*
D16*
G36*
X30029411Y-20705968D02*
G01*
X31944032Y-19099411D01*
X33550589Y-21014032D01*
X31635968Y-22620589D01*
X30029411Y-20705968D01*
X30029411Y-20705968D01*
G37*
D11*
X34239021Y-23778629D03*
X19577434Y-63011441D03*
X27959999Y-31140000D03*
X24379770Y-29836903D03*
D16*
G36*
X22778039Y-30583802D02*
G01*
X23632871Y-28235172D01*
X25981501Y-29090004D01*
X25126669Y-31438634D01*
X22778039Y-30583802D01*
X22778039Y-30583802D01*
G37*
D18*
X21570000Y-40350000D03*
D11*
X25380000Y-40350000D03*
X69707670Y-59701260D03*
X50178347Y-64313858D03*
D14*
X80793157Y-40910816D03*
X82116356Y-48415051D03*
D19*
X82116356Y-48415051D02*
X82116356Y-48415051D01*
D14*
X65500000Y-33530000D03*
D20*
X73120000Y-33530000D03*
D14*
X95490000Y-38390001D03*
D20*
X95490000Y-46010001D03*
X44840000Y-36720000D03*
D14*
X52460000Y-36720000D03*
D20*
X65490000Y-36630000D03*
D14*
X73110000Y-36630000D03*
D20*
X52450000Y-33610000D03*
D14*
X44830000Y-33610000D03*
D20*
X92400000Y-46000001D03*
D14*
X92400000Y-38380001D03*
X42120000Y-34590000D03*
D20*
X42120000Y-26970000D03*
D14*
X73110000Y-39770000D03*
D20*
X65490000Y-39770000D03*
X65550000Y-30340000D03*
D14*
X73170000Y-30340000D03*
X73180000Y-27120000D03*
D20*
X65560000Y-27120000D03*
D14*
X96490001Y-35720000D03*
D20*
X88870001Y-35720000D03*
D14*
X44870000Y-39870000D03*
D20*
X52490000Y-39870000D03*
X52440000Y-30500000D03*
D14*
X44820000Y-30500000D03*
X44810000Y-27420000D03*
D20*
X52430000Y-27420000D03*
X89260000Y-33080000D03*
D14*
X89260000Y-25460000D03*
X89309997Y-38380000D03*
D20*
X89309997Y-46000000D03*
D14*
X37935765Y-45973199D03*
D19*
X37935765Y-45973199D02*
X37935765Y-45973199D01*
D14*
X45440000Y-44650000D03*
X69437567Y-56672144D03*
D19*
X69437567Y-56672144D02*
X69437567Y-56672144D01*
D14*
X68114368Y-49167909D03*
X73030133Y-61958615D03*
X80534368Y-60635416D03*
D19*
X80534368Y-60635416D02*
X80534368Y-60635416D01*
D14*
X24639372Y-53879429D03*
D19*
X24639372Y-53879429D02*
X24639372Y-53879429D01*
D14*
X22033179Y-46718971D03*
X31654207Y-73152524D03*
X29048014Y-65992066D03*
D19*
X29048014Y-65992066D02*
X29048014Y-65992066D01*
D14*
X32345615Y-44966205D03*
X25185157Y-47572398D03*
D19*
X25185157Y-47572398D02*
X25185157Y-47572398D01*
D14*
X18792757Y-58838136D03*
D19*
X18792757Y-58838136D02*
X18792757Y-58838136D01*
D14*
X25953215Y-56231943D03*
X32543738Y-67848410D03*
X39704196Y-65242217D03*
D19*
X39704196Y-65242217D02*
X39704196Y-65242217D01*
D14*
X63449502Y-62825071D03*
D19*
X63449502Y-62825071D02*
X63449502Y-62825071D01*
D14*
X66055695Y-69985529D03*
X28554261Y-63319781D03*
D19*
X28554261Y-63319781D02*
X28554261Y-63319781D01*
D14*
X21393803Y-65925974D03*
X28745442Y-74253795D03*
D19*
X28745442Y-74253795D02*
X28745442Y-74253795D01*
D14*
X26139249Y-67093337D03*
X63139226Y-71036395D03*
D19*
X63139226Y-71036395D02*
X63139226Y-71036395D01*
D14*
X60533033Y-63875937D03*
X44731206Y-19821744D03*
X37226971Y-21144943D03*
D19*
X37226971Y-21144943D02*
X37226971Y-21144943D01*
D14*
X40861018Y-68215894D03*
X33700560Y-70822087D03*
D19*
X33700560Y-70822087D02*
X33700560Y-70822087D01*
D14*
X36405630Y-74307070D03*
X29245172Y-76913263D03*
D19*
X29245172Y-76913263D02*
X29245172Y-76913263D01*
D14*
X14857035Y-56971670D03*
D19*
X14857035Y-56971670D02*
X14857035Y-56971670D01*
D14*
X22017493Y-54365477D03*
X51009943Y-56657714D03*
D19*
X51009943Y-56657714D02*
X51009943Y-56657714D01*
D14*
X53616136Y-63818172D03*
X41681352Y-60031760D03*
D19*
X41681352Y-60031760D02*
X41681352Y-60031760D01*
D14*
X44287545Y-67192218D03*
X21907610Y-68702538D03*
X24513803Y-75862996D03*
D19*
X24513803Y-75862996D02*
X24513803Y-75862996D01*
D14*
X44600375Y-58958681D03*
X47206568Y-66119139D03*
D19*
X47206568Y-66119139D02*
X47206568Y-66119139D01*
D21*
X94370000Y-27540001D03*
D22*
X96870000Y-32540001D03*
D21*
X91870000Y-32540001D03*
X39530000Y-37280000D03*
D22*
X34530000Y-37280000D03*
D21*
X37030000Y-42280000D03*
D14*
X71678417Y-51240507D03*
D16*
G36*
X71029489Y-52167272D02*
G01*
X70751652Y-50591579D01*
X72327345Y-50313742D01*
X72605182Y-51889435D01*
X71029489Y-52167272D01*
X71029489Y-52167272D01*
G37*
D14*
X80505851Y-57421543D03*
D19*
X80505851Y-57421543D02*
X80505851Y-57421543D01*
D14*
X72119483Y-53741919D03*
D19*
X72119483Y-53741919D02*
X72119483Y-53741919D01*
D14*
X80064785Y-54920131D03*
D19*
X80064785Y-54920131D02*
X80064785Y-54920131D01*
D14*
X72560550Y-56243330D03*
D19*
X72560550Y-56243330D02*
X72560550Y-56243330D01*
D14*
X79623718Y-52418720D03*
D19*
X79623718Y-52418720D02*
X79623718Y-52418720D01*
D14*
X73001616Y-58744742D03*
D19*
X73001616Y-58744742D02*
X73001616Y-58744742D01*
D14*
X79182652Y-49917308D03*
D19*
X79182652Y-49917308D02*
X79182652Y-49917308D01*
D20*
X62780000Y-29010000D03*
X55160000Y-46790000D03*
X62780000Y-31550000D03*
X55160000Y-44250000D03*
X62780000Y-34090000D03*
X55160000Y-41710000D03*
X62780000Y-36630000D03*
X55160000Y-39170000D03*
X62780000Y-39170000D03*
X55160000Y-36630000D03*
X62780000Y-41710000D03*
X55160000Y-34090000D03*
X62780000Y-44250000D03*
X55160000Y-31550000D03*
X62780000Y-46790000D03*
D23*
X55160000Y-29010000D03*
D20*
X55150000Y-25670000D03*
X62770000Y-18050000D03*
X55150000Y-23130000D03*
X62770000Y-20590000D03*
X55150000Y-20590000D03*
X62770000Y-23130000D03*
X55150000Y-18050000D03*
D23*
X62770000Y-25670000D03*
D14*
X26717857Y-50409270D03*
D16*
G36*
X26239719Y-51434640D02*
G01*
X25692487Y-49931132D01*
X27195995Y-49383900D01*
X27743227Y-50887408D01*
X26239719Y-51434640D01*
X26239719Y-51434640D01*
G37*
D14*
X39090702Y-62123992D03*
D19*
X39090702Y-62123992D02*
X39090702Y-62123992D01*
D14*
X27586588Y-52796089D03*
D19*
X27586588Y-52796089D02*
X27586588Y-52796089D01*
D14*
X38221971Y-59737173D03*
D19*
X38221971Y-59737173D02*
X38221971Y-59737173D01*
D14*
X28455319Y-55182909D03*
D19*
X28455319Y-55182909D02*
X28455319Y-55182909D01*
D14*
X37353239Y-57350354D03*
D19*
X37353239Y-57350354D02*
X37353239Y-57350354D01*
D14*
X29324050Y-57569728D03*
D19*
X29324050Y-57569728D02*
X29324050Y-57569728D01*
D14*
X36484508Y-54963534D03*
D19*
X36484508Y-54963534D02*
X36484508Y-54963534D01*
D14*
X30192782Y-59956547D03*
D19*
X30192782Y-59956547D02*
X30192782Y-59956547D01*
D14*
X35615777Y-52576715D03*
D19*
X35615777Y-52576715D02*
X35615777Y-52576715D01*
D14*
X31061513Y-62343366D03*
D19*
X31061513Y-62343366D02*
X31061513Y-62343366D01*
D14*
X34747046Y-50189896D03*
D19*
X34747046Y-50189896D02*
X34747046Y-50189896D01*
D14*
X31930244Y-64730186D03*
D19*
X31930244Y-64730186D02*
X31930244Y-64730186D01*
D14*
X33878315Y-47803077D03*
D19*
X33878315Y-47803077D02*
X33878315Y-47803077D01*
D14*
X43557898Y-78695505D03*
D16*
G36*
X44583268Y-79173643D02*
G01*
X43079760Y-79720875D01*
X42532528Y-78217367D01*
X44036036Y-77670135D01*
X44583268Y-79173643D01*
X44583268Y-79173643D01*
G37*
D14*
X57659439Y-65453929D03*
D19*
X57659439Y-65453929D02*
X57659439Y-65453929D01*
D14*
X45944717Y-77826774D03*
D19*
X45944717Y-77826774D02*
X45944717Y-77826774D01*
D14*
X55272620Y-66322660D03*
D19*
X55272620Y-66322660D02*
X55272620Y-66322660D01*
D14*
X48331537Y-76958043D03*
D19*
X48331537Y-76958043D02*
X48331537Y-76958043D01*
D14*
X52885801Y-67191391D03*
D19*
X52885801Y-67191391D02*
X52885801Y-67191391D01*
D14*
X50718356Y-76089312D03*
D19*
X50718356Y-76089312D02*
X50718356Y-76089312D01*
D14*
X50498982Y-68060123D03*
D19*
X50498982Y-68060123D02*
X50498982Y-68060123D01*
D14*
X53105175Y-75220580D03*
D19*
X53105175Y-75220580D02*
X53105175Y-75220580D01*
D14*
X48112162Y-68928854D03*
D19*
X48112162Y-68928854D02*
X48112162Y-68928854D01*
D14*
X55491994Y-74351849D03*
D19*
X55491994Y-74351849D02*
X55491994Y-74351849D01*
D14*
X45725343Y-69797585D03*
D19*
X45725343Y-69797585D02*
X45725343Y-69797585D01*
D14*
X57878814Y-73483118D03*
D19*
X57878814Y-73483118D02*
X57878814Y-73483118D01*
D14*
X43338524Y-70666316D03*
D19*
X43338524Y-70666316D02*
X43338524Y-70666316D01*
D14*
X60265633Y-72614387D03*
D19*
X60265633Y-72614387D02*
X60265633Y-72614387D01*
D14*
X40951705Y-71535047D03*
D19*
X40951705Y-71535047D02*
X40951705Y-71535047D01*
D24*
X84979999Y-33300001D02*
X89259998Y-33080001D01*
X83395550Y-55784886D02*
X80064785Y-54920130D01*
X83395550Y-55784887D02*
X84900000Y-50310000D01*
X84900000Y-50310000D02*
X85670000Y-44530000D01*
X85670000Y-44530000D02*
X87370000Y-40980000D01*
X87370000Y-40980000D02*
X93840000Y-40680000D01*
X93840000Y-40680000D02*
X96770000Y-40440000D01*
X96770000Y-40440000D02*
X98850000Y-35430000D01*
X98850000Y-35430000D02*
X98850000Y-30810000D01*
X94840000Y-32320000D02*
X93380000Y-35100000D01*
X93380000Y-35100000D02*
X91910000Y-35100000D01*
X91910000Y-35100000D02*
X90990000Y-34870000D01*
X90990000Y-34870000D02*
X89260000Y-33080000D01*
X95658582Y-30438582D02*
X98017062Y-30407062D01*
X98850000Y-30810000D02*
X98017062Y-30407062D01*
X95658582Y-30438582D02*
X94840000Y-32320000D01*
X79623718Y-52418718D02*
X82527309Y-50860848D01*
X82527309Y-50860848D02*
X82116358Y-48415051D01*
X39530000Y-37280000D02*
X42170000Y-37010000D01*
X42170000Y-37010000D02*
X42120000Y-34590000D01*
X42170000Y-42010000D02*
X42540000Y-39940000D01*
X42540000Y-39940000D02*
X43140000Y-38890000D01*
X43140000Y-38890000D02*
X44210000Y-37260000D01*
X44210000Y-37260000D02*
X44840000Y-36720000D01*
X55150000Y-23130000D02*
X55150000Y-20590000D01*
X49980000Y-28940000D02*
X48640000Y-33880000D01*
X48640000Y-33880000D02*
X48170434Y-35210434D01*
X48170434Y-35210434D02*
X44840000Y-36720000D01*
X49980000Y-28940000D02*
X49440000Y-25770000D01*
X49440000Y-25770000D02*
X50100000Y-23470000D01*
X50100000Y-23470000D02*
X51170000Y-22560000D01*
X51170000Y-22560000D02*
X52020000Y-22430000D01*
X52020000Y-22430000D02*
X53800000Y-23110000D01*
X53800000Y-23110000D02*
X55150000Y-23130000D01*
X62780000Y-39170000D02*
X64520000Y-41210000D01*
X64520000Y-41210000D02*
X64950000Y-41690000D01*
X64950000Y-41690000D02*
X65730000Y-42930000D01*
X62770000Y-20590000D02*
X61030000Y-21060000D01*
X61030000Y-21060000D02*
X60480000Y-23350000D01*
X60480000Y-23350000D02*
X60480000Y-30650000D01*
X60480000Y-30650000D02*
X60620000Y-37700000D01*
X60620000Y-37700000D02*
X62780000Y-39170000D01*
X71678417Y-51240507D02*
X68114368Y-49167909D01*
X68114368Y-49167909D02*
X64317624Y-49979537D01*
X62512975Y-51262401D02*
X64317624Y-49979537D01*
X63947694Y-56634884D02*
X63306547Y-55762972D01*
X63306547Y-55762972D02*
X62512975Y-51262401D01*
X65619986Y-57365595D02*
X63947694Y-56634884D01*
X68114368Y-49167909D02*
X68610000Y-46860000D01*
X68610000Y-46860000D02*
X68630000Y-44890000D01*
X68630000Y-44890000D02*
X70730000Y-42930000D01*
X44670000Y-49000000D02*
X48300000Y-47750000D01*
X48300000Y-42750000D02*
X51750000Y-41880000D01*
X51750000Y-41880000D02*
X53340000Y-41410000D01*
X53340000Y-41410000D02*
X54050000Y-40640000D01*
X54050000Y-40640000D02*
X55160000Y-39170000D01*
X55160000Y-39170000D02*
X57350000Y-37450000D01*
X57350000Y-37450000D02*
X57350000Y-20200000D01*
X57350000Y-20200000D02*
X57140000Y-18670000D01*
X57140000Y-18670000D02*
X55150000Y-18050000D01*
X40843402Y-57729512D02*
X37353239Y-57350352D01*
X48112162Y-68928853D02*
X50718356Y-76089311D01*
X48331536Y-76958042D02*
X50718356Y-76089311D01*
X29245172Y-76913263D02*
X28745444Y-74253795D01*
X28745444Y-74253795D02*
X25696695Y-69999992D01*
X25696695Y-69999992D02*
X24156809Y-68868422D01*
X24156809Y-68868422D02*
X23479609Y-67007831D01*
X23479609Y-67007831D02*
X23663713Y-65525466D01*
X23663713Y-65525466D02*
X23325009Y-64244029D01*
X23325009Y-64244029D02*
X22401555Y-61706859D01*
X22401555Y-61706859D02*
X22139893Y-60929471D01*
X48112162Y-68928853D02*
X46371486Y-67742663D01*
X46371486Y-67742663D02*
X45836379Y-66798756D01*
X45836379Y-66798756D02*
X45212175Y-65025294D01*
X45212175Y-65025294D02*
X45552780Y-61166059D01*
X45552780Y-61166059D02*
X46463972Y-59780877D01*
X46463972Y-59780877D02*
X46297764Y-58213180D01*
X46297764Y-58213180D02*
X45536130Y-56851558D01*
X45536130Y-56851558D02*
X44217728Y-56416224D01*
X44217728Y-56416224D02*
X43256685Y-56787299D01*
X43256685Y-56787299D02*
X41696795Y-57355052D01*
X41696795Y-57355052D02*
X40843402Y-57729512D01*
X91870001Y-32540000D02*
X94370000Y-27539998D01*
X51992225Y-79062954D02*
X50718356Y-76089311D01*
X53947829Y-55811887D02*
X51009943Y-56657714D01*
X52000000Y-48720000D02*
X50270000Y-45740000D01*
X50270000Y-45740000D02*
X45440000Y-44390000D01*
X45440000Y-44390000D02*
X44870000Y-39870000D01*
X38110000Y-39200000D02*
X39100000Y-41170000D01*
X39100000Y-41170000D02*
X39620000Y-43100000D01*
X39620000Y-43100000D02*
X40650000Y-44550000D01*
X40650000Y-44550000D02*
X42110000Y-44590000D01*
X42110000Y-44590000D02*
X45440000Y-44390000D01*
X44820000Y-30500000D02*
X41930000Y-31590000D01*
X41930000Y-31590000D02*
X40020000Y-32850000D01*
X40020000Y-32850000D02*
X38500000Y-34310000D01*
X38500000Y-34310000D02*
X37570000Y-36150000D01*
X37570000Y-36150000D02*
X36853745Y-38526255D01*
X36853745Y-38526255D02*
X38110000Y-39200000D01*
X34530000Y-37280000D02*
X36853745Y-38526255D01*
X80534368Y-60635416D02*
X80505851Y-57421543D01*
X80872242Y-63703354D02*
X80534368Y-60635416D01*
X80505851Y-57421543D02*
X79121436Y-56883773D01*
X79121436Y-56883773D02*
X78275811Y-55946373D01*
X78275811Y-55946373D02*
X77834673Y-53962842D01*
X77834673Y-53962842D02*
X76670154Y-50928967D01*
X76670154Y-50928967D02*
X75697196Y-49211832D01*
X75697196Y-49211832D02*
X74004756Y-47560636D01*
X53947830Y-55811888D02*
X52000000Y-48720000D01*
X73110000Y-39770000D02*
X75880000Y-39730000D01*
X75880000Y-39730000D02*
X77820000Y-38570000D01*
X77820000Y-38570000D02*
X78920000Y-36440000D01*
X78920000Y-36440000D02*
X80170000Y-35810000D01*
X73170000Y-30340000D02*
X76420000Y-32820000D01*
X76420000Y-32820000D02*
X78920000Y-36440000D01*
X91870000Y-32540001D02*
X90490000Y-31110000D01*
X90490000Y-31110000D02*
X85820000Y-31340000D01*
X85820000Y-31340000D02*
X82920000Y-31790000D01*
X82920000Y-31790000D02*
X82280000Y-34010000D01*
X82280000Y-34010000D02*
X81920000Y-35140000D01*
X81920000Y-35140000D02*
X80170000Y-35810000D01*
X48331537Y-76958043D02*
X46360000Y-74740000D01*
X46360000Y-74740000D02*
X32520000Y-77100000D01*
X32520000Y-77100000D02*
X29245172Y-76913263D01*
X51992225Y-79062954D02*
X54750000Y-79870000D01*
X54750000Y-79870000D02*
X59960000Y-77910000D01*
X59960000Y-77910000D02*
X67860000Y-72210000D01*
X67860000Y-72210000D02*
X78030000Y-68310000D01*
X78030000Y-68310000D02*
X80872242Y-63703354D01*
X51009943Y-56657714D02*
X46297764Y-58213180D01*
X34530000Y-37280000D02*
X27959999Y-31140000D01*
X24379770Y-29836903D02*
X24211894Y-33587220D01*
X24211894Y-33587220D02*
X27959999Y-31140000D01*
X24991338Y-32138662D02*
X25090000Y-32510000D01*
X24379770Y-29836903D02*
X24991338Y-32138662D01*
X27959999Y-31140000D02*
X25570000Y-31200000D01*
X24211894Y-33587220D02*
X25965821Y-30414179D01*
X27959999Y-31140000D02*
X25965821Y-30414179D01*
X25984712Y-28404712D02*
X24379770Y-29836903D01*
X27959999Y-31140000D02*
X25984712Y-28404712D01*
X27860477Y-29379523D02*
X27717935Y-26858047D01*
X27959999Y-31140000D02*
X27860477Y-29379523D01*
X26703390Y-27763390D02*
X25984712Y-28404712D01*
X27717935Y-26858047D02*
X26703390Y-27763390D01*
X27959999Y-31140000D02*
X27366034Y-29543966D01*
X27366034Y-29543966D02*
X27717935Y-26858047D01*
X27062270Y-28727730D02*
X25965821Y-30414179D01*
X27062270Y-28727730D02*
X26703390Y-27763390D01*
X27173469Y-29026531D02*
X27062270Y-28727730D01*
X26483203Y-31636797D02*
X27173469Y-29026531D01*
X27366034Y-29543966D02*
X27173469Y-29026531D01*
X27959999Y-31140000D02*
X26483203Y-31636797D01*
X26483203Y-31636797D02*
X24991338Y-32138662D01*
X26511515Y-28678485D02*
X25415956Y-30214044D01*
X25415956Y-30214044D02*
X24379770Y-29836903D01*
X25984712Y-28404712D02*
X26511515Y-28678485D01*
X25965821Y-30414179D02*
X25415956Y-30214044D01*
X26511515Y-28678485D02*
X27860477Y-29379523D01*
X74004755Y-47560635D02*
X70720000Y-46050000D01*
X80534368Y-60635416D02*
X84190000Y-59000000D01*
X84190000Y-59000000D02*
X87030000Y-51680000D01*
X87030000Y-51680000D02*
X98610000Y-51570000D01*
X98610000Y-51570000D02*
X98610000Y-44470000D01*
X98610000Y-44470000D02*
X99490000Y-38020000D01*
X100250000Y-29170000D02*
X97300000Y-27860000D01*
X97300000Y-27860000D02*
X94370000Y-27540001D01*
X100250000Y-29170000D02*
X100170000Y-32290000D01*
X100170000Y-32290000D02*
X100050000Y-36270000D01*
X100050000Y-36270000D02*
X99490000Y-38020000D01*
X26838355Y-59219370D02*
X29324050Y-57569727D01*
X52885800Y-67191391D02*
X52207564Y-64713954D01*
X52207564Y-64713954D02*
X52036347Y-63541826D01*
X52036347Y-63541826D02*
X52266676Y-62361890D01*
X52266676Y-62361890D02*
X52958559Y-61865303D01*
X52958559Y-61865303D02*
X54196362Y-61319004D01*
X54196362Y-61319004D02*
X55657931Y-60510351D01*
X62780000Y-41710000D02*
X64220000Y-43440000D01*
X64220000Y-43440000D02*
X64480000Y-44060000D01*
X64480000Y-44060000D02*
X64840000Y-44630000D01*
X64840000Y-44630000D02*
X65720000Y-46050000D01*
X79182651Y-49917307D02*
X78928794Y-46692394D01*
X55657931Y-60510351D02*
X59040000Y-53660000D01*
X59040000Y-53660000D02*
X60570000Y-50130000D01*
X60570000Y-50130000D02*
X62440000Y-48990000D01*
X62440000Y-48990000D02*
X64600000Y-47840000D01*
X64600000Y-47840000D02*
X65720000Y-46050000D01*
X34239021Y-23778629D02*
X29595517Y-24620431D01*
X29595517Y-24620431D02*
X31790000Y-20860000D01*
X31790000Y-20860000D02*
X34239021Y-23778629D01*
X34239021Y-23778629D02*
X37226971Y-21144943D01*
X29324050Y-57569728D02*
X30410000Y-56390000D01*
X30410000Y-56390000D02*
X28240000Y-47900000D01*
X28240000Y-47900000D02*
X25760000Y-44060000D01*
X19090000Y-34550000D02*
X20780000Y-27490000D01*
X20780000Y-27490000D02*
X25440000Y-23110000D01*
X25440000Y-23110000D02*
X28830000Y-22970000D01*
X28830000Y-22970000D02*
X29595517Y-24620431D01*
X72750000Y-42060000D02*
X71650000Y-40960000D01*
X71650000Y-40960000D02*
X69040000Y-41050000D01*
X69040000Y-41050000D02*
X67620000Y-43520000D01*
X67620000Y-43520000D02*
X67090000Y-45690000D01*
X67090000Y-45690000D02*
X65720000Y-46050000D01*
X19090000Y-34550000D02*
X16390000Y-38470000D01*
X16390000Y-38470000D02*
X16100000Y-42760000D01*
X16100000Y-42760000D02*
X18820000Y-43690000D01*
X18820000Y-43690000D02*
X25760000Y-44060000D01*
X40170000Y-24320000D02*
X37226971Y-21144943D01*
X52030000Y-24290000D02*
X55150000Y-25670000D01*
X35160000Y-28210000D02*
X34239021Y-23778629D01*
X76384857Y-44785143D02*
X77710000Y-42490000D01*
X78928794Y-46692394D02*
X76384857Y-44785143D01*
X76384857Y-44785143D02*
X72750000Y-42060000D01*
X36484508Y-54963534D02*
X39133302Y-53031050D01*
X56690689Y-77352853D02*
X55491994Y-74351848D01*
X55491994Y-74351848D02*
X55928813Y-72277339D01*
X55928813Y-72277339D02*
X58543681Y-71187263D01*
X58543681Y-71187263D02*
X60592211Y-70441659D01*
X60592211Y-70441659D02*
X62770708Y-70053138D01*
X62770708Y-70053138D02*
X63139227Y-71036394D01*
X52000000Y-43720000D02*
X55160000Y-41710000D01*
X73001616Y-58744741D02*
X74930908Y-60932967D01*
X74930908Y-60932967D02*
X75948203Y-64571594D01*
X63139226Y-71036395D02*
X64390000Y-68720000D01*
X64390000Y-68720000D02*
X66620000Y-67500000D01*
X69950000Y-67380000D02*
X72180000Y-66660000D01*
X72180000Y-66660000D02*
X75948203Y-64571595D01*
X39133301Y-53031049D02*
X49640000Y-52590000D01*
X50840000Y-53850000D02*
X49640000Y-52590000D01*
X55570000Y-52110000D02*
X54100000Y-48420000D01*
X54100000Y-48420000D02*
X53150000Y-46490000D01*
X53150000Y-46490000D02*
X52000000Y-43720000D01*
X55160000Y-41710000D02*
X58880000Y-39550000D01*
X58880000Y-39550000D02*
X58950000Y-25440000D01*
X58950000Y-25440000D02*
X59020000Y-21050000D01*
X59020000Y-21050000D02*
X60900000Y-18710000D01*
X60900000Y-18710000D02*
X62770000Y-18050000D01*
X68414672Y-67435328D02*
X66310000Y-63240000D01*
X66620000Y-67500000D02*
X68414672Y-67435328D01*
X68414672Y-67435328D02*
X69950000Y-67380000D01*
X66310000Y-63240000D02*
X65010000Y-60340000D01*
X65010000Y-60340000D02*
X60810000Y-57740000D01*
X60810000Y-57740000D02*
X61010000Y-55390000D01*
X58260000Y-50440000D02*
X55570000Y-52110000D01*
X25380000Y-40350000D02*
X23212853Y-36332063D01*
X23212853Y-36332063D02*
X21570000Y-40350000D01*
X21570000Y-40350000D02*
X25380000Y-40350000D01*
X36484508Y-54963534D02*
X33320000Y-54100000D01*
X33320000Y-54100000D02*
X31150000Y-46900000D01*
X31150000Y-46900000D02*
X30040000Y-44140000D01*
X30040000Y-44140000D02*
X30460000Y-41870000D01*
X25380000Y-40350000D02*
X29070000Y-36770000D01*
X30630000Y-41990000D02*
X30040000Y-44140000D01*
X18230000Y-40320000D02*
X21570000Y-40350000D01*
X18500000Y-51420000D02*
X15320000Y-54070000D01*
X15320000Y-54070000D02*
X13740000Y-55500000D01*
X13740000Y-55500000D02*
X13030000Y-56570000D01*
X13030000Y-56570000D02*
X13810000Y-61370000D01*
X13810000Y-61370000D02*
X15960000Y-65300000D01*
X15960000Y-65300000D02*
X20540000Y-67380000D01*
X20540000Y-67380000D02*
X21643685Y-67276315D01*
X21643685Y-67276315D02*
X21393803Y-65925974D01*
X21907610Y-68702538D02*
X21643685Y-67276315D01*
X86150000Y-25920000D02*
X89260000Y-25460000D01*
X65890000Y-18770000D02*
X62770000Y-18050000D01*
X64758691Y-52480949D02*
X65178920Y-54864185D01*
X65178920Y-54864185D02*
X68103727Y-54866329D01*
X68103727Y-54866329D02*
X69437567Y-56672144D01*
X69437567Y-56672144D02*
X70356557Y-54915882D01*
X70356557Y-54915882D02*
X72119483Y-53741917D01*
X73030133Y-61958615D02*
X69979560Y-62394971D01*
X69979560Y-62394971D02*
X68017509Y-62497231D01*
X68017509Y-62497231D02*
X67126141Y-61415582D01*
X67126141Y-61415582D02*
X66996097Y-59295963D01*
X66996097Y-59295963D02*
X68095801Y-57700766D01*
X68095801Y-57700766D02*
X69437567Y-56672144D01*
X95489999Y-46010001D02*
X95980000Y-48900001D01*
X92400000Y-48889999D02*
X92400001Y-45999999D01*
X76050000Y-36690000D02*
X73110000Y-36630000D01*
X38770000Y-27720000D02*
X42120000Y-26970000D01*
X88819999Y-48890001D02*
X89309999Y-46000000D01*
X19577434Y-63011441D02*
X19410155Y-60709852D01*
X19410155Y-60709852D02*
X18792757Y-58838136D01*
X69707670Y-59701260D02*
X72560550Y-56243329D01*
X66055695Y-69985529D02*
X76260000Y-67250000D01*
X76260000Y-67250000D02*
X77990000Y-65400000D01*
X77990000Y-65400000D02*
X77270000Y-61650000D01*
X77270000Y-61650000D02*
X75510000Y-58160000D01*
X75510000Y-58160000D02*
X72560550Y-56243330D01*
X47206569Y-66119138D02*
X50178347Y-64313858D01*
X37935765Y-45713199D02*
X37030000Y-42280000D01*
X50178347Y-64313858D02*
X48900000Y-61150000D01*
X37935765Y-45973199D02*
X39690000Y-49350000D01*
X84980002Y-38380000D02*
X80170002Y-38349998D01*
X80170000Y-38350000D02*
X80793157Y-40910816D01*
X95490000Y-38390001D02*
X92400000Y-38380001D01*
X92400000Y-38380001D02*
X89309997Y-38380000D01*
X89309997Y-38380000D02*
X88870000Y-35719999D01*
X88870000Y-35719999D02*
X84980001Y-35840000D01*
X80170000Y-33270000D02*
X76610000Y-29410000D01*
X76610000Y-29410000D02*
X73180000Y-27120000D01*
X51470000Y-20010000D02*
X51340000Y-14240000D01*
X51340000Y-14240000D02*
X54050000Y-13760000D01*
X54050000Y-13760000D02*
X65030000Y-13830000D01*
X65030000Y-13830000D02*
X66770000Y-15910000D01*
X67810000Y-24250000D02*
X70240000Y-26960000D01*
X70240000Y-26960000D02*
X73180000Y-27120000D01*
X67810000Y-24250000D02*
X67650000Y-22740000D01*
X67650000Y-22740000D02*
X69310000Y-20800000D01*
X69310000Y-20800000D02*
X69690000Y-19280000D01*
X69690000Y-19280000D02*
X69690000Y-18000000D01*
X69690000Y-18000000D02*
X69340000Y-16790000D01*
X69340000Y-16790000D02*
X67820000Y-16070000D01*
X67820000Y-16070000D02*
X66770000Y-15910000D01*
X44810000Y-27420000D02*
X47160000Y-22920000D01*
X47160000Y-22920000D02*
X48420000Y-21000000D01*
X48420000Y-21000000D02*
X49250000Y-20700000D01*
X49250000Y-20700000D02*
X50150000Y-20180000D01*
X50150000Y-20180000D02*
X51470000Y-20010000D01*
X65490000Y-36630000D02*
X62780000Y-36630000D01*
X65490000Y-36630000D02*
X65500000Y-33530000D01*
X65490000Y-36630000D02*
X65490000Y-39770000D01*
X73120000Y-33530000D02*
X69650000Y-30610000D01*
X69650000Y-30610000D02*
X67830000Y-27090000D01*
X67830000Y-27090000D02*
X66200000Y-25460000D01*
X66200000Y-25460000D02*
X62770000Y-25670000D01*
X62770000Y-25670000D02*
X62770000Y-23130000D01*
X44830000Y-33610000D02*
X47100000Y-31410000D01*
X52730000Y-21120000D02*
X52730000Y-15420000D01*
X52730000Y-15420000D02*
X63920000Y-15280000D01*
X63920000Y-15280000D02*
X65170000Y-16330000D01*
X65170000Y-16330000D02*
X66200000Y-16930000D01*
X66200000Y-16930000D02*
X67300000Y-17280000D01*
X67300000Y-17280000D02*
X68170000Y-18070000D01*
X68170000Y-18070000D02*
X68170000Y-19770000D01*
X68170000Y-19770000D02*
X67410000Y-20980000D01*
X67410000Y-20980000D02*
X66040598Y-21889402D01*
X66040598Y-21889402D02*
X66200000Y-25460000D01*
X52730000Y-21120000D02*
X51600000Y-21300000D01*
X51600000Y-21300000D02*
X50430000Y-21470000D01*
X50430000Y-21470000D02*
X49470000Y-22320000D01*
X49470000Y-22320000D02*
X48940000Y-23140000D01*
X48940000Y-23140000D02*
X48480000Y-24920000D01*
X48480000Y-24920000D02*
X48230000Y-26790000D01*
X48230000Y-26790000D02*
X48260000Y-28460000D01*
X48260000Y-28460000D02*
X47100000Y-31410000D01*
X52490000Y-39870000D02*
X52460000Y-36720000D01*
X55160000Y-36630000D02*
X52460000Y-36720000D01*
X52460000Y-36720000D02*
X52450000Y-33610000D01*
X62780000Y-34090000D02*
X64180000Y-32510000D01*
X64180000Y-32510000D02*
X64800000Y-31770000D01*
X64800000Y-31770000D02*
X65550000Y-30340000D01*
X62780000Y-29010000D02*
X65560000Y-27120000D01*
X96870000Y-32540001D02*
X96490001Y-35720000D01*
X55160000Y-34090000D02*
X53750000Y-32510000D01*
X53750000Y-32510000D02*
X53380000Y-31920000D01*
X53380000Y-31920000D02*
X52440000Y-30500000D01*
X55160000Y-29010000D02*
X52430000Y-27420000D01*
X24639374Y-53879429D02*
X27586587Y-52796088D01*
X26717857Y-50409270D02*
X25185157Y-47572400D01*
X25185157Y-47572400D02*
X22033179Y-46718971D01*
X31654207Y-73152524D02*
X31345698Y-69965861D01*
X31345698Y-69965861D02*
X32543738Y-67848410D01*
X32543738Y-67848410D02*
X31930243Y-64730185D01*
X29048013Y-65992067D02*
X30165073Y-64500027D01*
X30165073Y-64500027D02*
X31061513Y-62343365D01*
X31061513Y-62343366D02*
X32620000Y-59550000D01*
X32620000Y-59550000D02*
X30960000Y-52510000D01*
X30960000Y-52510000D02*
X29340000Y-46040000D01*
X29340000Y-46040000D02*
X28410000Y-44020000D01*
X28410000Y-44020000D02*
X27870000Y-40770000D01*
X27870000Y-40770000D02*
X30220000Y-38900000D01*
X30220000Y-38900000D02*
X32030000Y-39490000D01*
X32030000Y-39490000D02*
X33040000Y-41400000D01*
X33040000Y-41400000D02*
X32345615Y-44966205D01*
X28455319Y-55182908D02*
X25953215Y-56231943D01*
X25953215Y-56231943D02*
X23723380Y-56362462D01*
X23723380Y-56362462D02*
X22017493Y-54365477D01*
X40951703Y-71535047D02*
X39284476Y-70258274D01*
X39284476Y-70258274D02*
X38915094Y-69243405D01*
X38915094Y-69243405D02*
X38834254Y-67442443D01*
X38834254Y-67442443D02*
X39704195Y-65242216D01*
X60533033Y-63875937D02*
X57659439Y-65453928D01*
X60533033Y-63875937D02*
X63449500Y-62825071D01*
X26139249Y-67093337D02*
X27521808Y-64898085D01*
X27521808Y-64898085D02*
X28554261Y-63319781D01*
X28554261Y-63319781D02*
X28944061Y-61145326D01*
X28944061Y-61145326D02*
X30192782Y-59956546D01*
X39090701Y-62123992D02*
X40411798Y-63005299D01*
X40411798Y-63005299D02*
X41156297Y-64202889D01*
X41156297Y-64202889D02*
X41693269Y-65678206D01*
X41693269Y-65678206D02*
X42320466Y-67779883D01*
X42320466Y-67779883D02*
X44287545Y-67192218D01*
X40861018Y-68215894D02*
X42320466Y-67779883D01*
X36405630Y-74307070D02*
X33700560Y-70822087D01*
X36405630Y-74307070D02*
X39097746Y-74423323D01*
X39097746Y-74423323D02*
X43063248Y-72979997D01*
X43063248Y-72979997D02*
X46056549Y-71730898D01*
X46056549Y-71730898D02*
X45725343Y-69797584D01*
X50498981Y-68060123D02*
X51915809Y-69087496D01*
X51915809Y-69087496D02*
X53187088Y-69071744D01*
X53187088Y-69071744D02*
X54520554Y-68437417D01*
X54520554Y-68437417D02*
X55272620Y-66322660D01*
X55272620Y-66322660D02*
X53616136Y-63818172D01*
X44600375Y-58958681D02*
X41681352Y-60031759D01*
X41681352Y-60031759D02*
X38221970Y-59737172D01*
X33878314Y-47803075D02*
X34747046Y-50189895D01*
X48006026Y-18929523D02*
X44731206Y-19821744D01*
X16171947Y-60058077D02*
X14857035Y-56971670D01*
X26640000Y-78200000D02*
X24513803Y-75862996D01*
M02*
