M48
; DRILL file {KiCad (5.1.4)-1} date Sat, 3/27/2021 3:16:08 AM
; FORMAT={-:-/ absolute / inch / decimal}
; #@! TF.CreationDate,2021-03-27T03:16:08-04:00
; #@! TF.GenerationSoftware,Kicad,Pcbnew,(5.1.4)-1
FMAT,2
INCH
T1C0.0157
T2C0.0217
T3C0.0295
T4C0.0315
T5C0.0394
T6C0.0472
T7C0.0787
T8C0.1693
%
G90
G05
T1
X4.587Y-3.0271
X4.7024Y-3.016
X5.8594Y-3.4567
X5.8658Y-5.3392
X5.8953Y-2.2007
X6.2163Y-2.8789
X6.3008Y-2.6448
X6.4482Y-4.0107
X6.7571Y-3.8355
X7.0261Y-3.9443
X7.0288Y-4.0567
X7.1884Y-4.2277
X7.1944Y-3.776
X7.2994Y-3.0732
T2
X4.5024Y-2.5591
X4.5276Y-3.1496
X4.6772Y-3.1496
X4.7024Y-2.5591
X4.0157Y-2.2441
X4.0157Y-2.3937
X4.6063Y-2.2189
X4.6063Y-2.4189
T3
X6.4173Y-5.0
X6.4673Y-5.0
X6.5173Y-5.0
T4
X6.5354Y-1.811
X6.5354Y-1.911
X6.5354Y-2.011
X6.5354Y-2.111
X6.8354Y-1.811
X6.8354Y-1.911
X6.8354Y-2.011
X6.8354Y-2.111
X7.0079Y-1.8057
X7.0079Y-1.9057
X7.0079Y-2.0057
X7.0079Y-2.1057
X7.3079Y-1.8057
X7.3079Y-1.9057
X7.3079Y-2.0057
X7.3079Y-2.1057
X5.6387Y-2.5537
X5.6387Y-2.6537
X5.6387Y-2.7537
X5.6387Y-2.8537
X5.6387Y-2.9537
X5.6387Y-3.0537
X5.6387Y-3.1537
X5.6387Y-3.2537
X5.9387Y-2.5537
X5.9387Y-2.6537
X5.9387Y-2.7537
X5.9387Y-2.8537
X5.9387Y-2.9537
X5.9387Y-3.0537
X5.9387Y-3.1537
X5.9387Y-3.2537
X5.6387Y-3.4218
X5.6387Y-3.5218
X5.6387Y-3.6218
X5.6387Y-3.7218
X5.6387Y-3.8218
X5.6387Y-3.9218
X5.6387Y-4.0218
X5.6387Y-4.1218
X5.9387Y-3.4218
X5.9387Y-3.5218
X5.9387Y-3.6218
X5.9387Y-3.7218
X5.9387Y-3.8218
X5.9387Y-3.9218
X5.9387Y-4.0218
X5.9387Y-4.1218
X5.6387Y-4.29
X5.6387Y-4.39
X5.6387Y-4.49
X5.6387Y-4.59
X5.6387Y-4.69
X5.6387Y-4.79
X5.6387Y-4.89
X5.9387Y-4.29
X5.9387Y-4.39
X5.9387Y-4.49
X5.9387Y-4.59
X5.9387Y-4.69
X5.9387Y-4.79
X5.9387Y-4.89
X6.1013Y-2.5537
X6.1013Y-2.6537
X6.1013Y-2.7537
X6.1013Y-2.8537
X6.1013Y-2.9537
X6.1013Y-3.0537
X6.1013Y-3.1537
X6.4013Y-2.5537
X6.4013Y-2.6537
X6.4013Y-2.7537
X6.4013Y-2.8537
X6.4013Y-2.9537
X6.4013Y-3.0537
X6.4013Y-3.1537
T5
X7.6378Y-3.0496
X7.6378Y-3.1496
X4.0157Y-4.9606
X4.2126Y-4.9606
X7.6772Y-5.0394
X7.6772Y-5.1394
X4.7638Y-3.5039
X4.9606Y-3.5039
X4.0157Y-4.3307
X4.2126Y-4.3307
X4.4488Y-5.2756
X4.6457Y-5.2756
X4.4882Y-3.937
X4.685Y-3.937
X4.8819Y-4.1339
X5.0787Y-4.1339
X4.0157Y-3.8583
X4.2126Y-3.8583
X4.0157Y-2.7953
X4.2126Y-2.7953
X5.1969Y-3.7402
X5.3937Y-3.7402
X5.1969Y-4.4094
X5.3937Y-4.4094
T6
X4.8819Y-4.8031
X5.4819Y-4.8031
X6.5599Y-2.977
X7.1599Y-2.977
X6.0973Y-3.3392
X6.6973Y-3.3392
X7.3688Y-2.2151
X7.3688Y-2.8151
X6.0973Y-4.353
X6.6973Y-4.353
X6.0973Y-4.5557
X6.6973Y-4.5557
X6.8528Y-3.788
X7.4528Y-3.788
X6.8528Y-4.1935
X7.4528Y-4.1935
X6.0973Y-3.7447
X6.6973Y-3.7447
X6.8528Y-3.9907
X7.4528Y-3.9907
X4.9118Y-2.8346
X5.5118Y-2.8346
X4.0945Y-3.3465
X4.3898Y-3.3465
X6.8528Y-3.1797
X7.4528Y-3.1797
X6.0973Y-3.9474
X6.6973Y-3.9474
X6.3902Y-4.7585
X6.9902Y-4.7585
X4.4094Y-4.6063
X4.7047Y-4.6063
X6.8528Y-4.3963
X7.4528Y-4.3963
X4.9312Y-5.2329
X5.5312Y-5.2329
X5.6347Y-5.0754
X6.2347Y-5.0754
X6.8528Y-3.3825
X7.4528Y-3.3825
X6.5599Y-2.7742
X7.1599Y-2.7742
X6.0973Y-3.5419
X6.6973Y-3.5419
X7.5716Y-2.2151
X7.5716Y-2.8151
X6.4567Y-2.3228
X7.0567Y-2.3228
X5.6347Y-5.2781
X6.2347Y-5.2781
X6.5599Y-2.5714
X7.1599Y-2.5714
X6.0973Y-4.1502
X6.6973Y-4.1502
X4.8524Y-5.0301
X5.4524Y-5.0301
X6.8528Y-3.5852
X7.4528Y-3.5852
T7
X6.378Y-5.5118
X6.603Y-5.5118
X6.828Y-5.5118
X5.0787Y-1.8504
X5.3037Y-1.8504
X5.5287Y-1.8504
X4.9824Y-5.4632
X5.2074Y-5.4632
X5.4324Y-5.4632
X5.748Y-2.3228
X5.973Y-2.3228
X6.198Y-2.3228
X7.6378Y-4.1169
X7.6378Y-4.3419
X7.6378Y-4.5669
X5.748Y-1.8504
X5.973Y-1.8504
X6.198Y-1.8504
X5.6805Y-5.5118
X5.9055Y-5.5118
X6.1305Y-5.5118
X6.9685Y-5.0787
X7.1935Y-5.0787
X7.4185Y-5.0787
X7.2047Y-4.8031
X7.4297Y-4.8031
X7.6547Y-4.8031
X5.0Y-2.0866
X5.225Y-2.0866
X5.45Y-2.0866
X4.9898Y-2.3228
X5.2148Y-2.3228
X5.4398Y-2.3228
X5.7087Y-2.0866
X5.9337Y-2.0866
X6.1587Y-2.0866
X5.0Y-2.5591
X5.225Y-2.5591
X5.45Y-2.5591
X4.3813Y-1.8504
X4.6063Y-1.8504
X4.8313Y-1.8504
X7.6378Y-3.4083
X7.6378Y-3.6333
X7.6378Y-3.8583
T8
X7.5591Y-5.4331
X7.5591Y-1.8898
X4.0157Y-1.8898
X4.0157Y-5.4331
T0
M30
