G04 #@! TF.GenerationSoftware,KiCad,Pcbnew,(5.1.2-1)-1*
G04 #@! TF.CreationDate,2021-05-12T23:47:19-04:00*
G04 #@! TF.ProjectId,Dual Micro Sample Hold - MFOS,4475616c-204d-4696-9372-6f2053616d70,rev?*
G04 #@! TF.SameCoordinates,Original*
G04 #@! TF.FileFunction,Copper,L2,Bot*
G04 #@! TF.FilePolarity,Positive*
%FSLAX46Y46*%
G04 Gerber Fmt 4.6, Leading zero omitted, Abs format (unit mm)*
G04 Created by KiCad (PCBNEW (5.1.2-1)-1) date 2021-05-12 23:47:19*
%MOMM*%
%LPD*%
G04 APERTURE LIST*
%ADD10C,7.000000*%
%ADD11R,1.200000X1.200000*%
%ADD12C,1.200000*%
%ADD13C,0.100000*%
%ADD14C,1.600000*%
%ADD15C,2.000000*%
%ADD16C,2.000000*%
%ADD17R,2.499360X2.499360*%
%ADD18C,2.499360*%
%ADD19C,1.050000*%
%ADD20O,1.600000X1.600000*%
%ADD21C,1.600000*%
%ADD22R,1.600000X1.600000*%
%ADD23C,0.800000*%
%ADD24C,0.812800*%
%ADD25C,0.406400*%
%ADD26C,0.254000*%
G04 APERTURE END LIST*
D10*
X17780000Y-53340000D03*
X64770000Y-53086000D03*
X64770000Y-17780000D03*
X17526000Y-17526000D03*
D11*
X66090800Y-31521400D03*
D12*
X66090800Y-33521400D03*
X64041704Y-42584216D03*
X64389000Y-40614600D03*
D13*
G36*
X63902304Y-39919526D02*
G01*
X65084074Y-40127904D01*
X64875696Y-41309674D01*
X63693926Y-41101296D01*
X63902304Y-39919526D01*
X63902304Y-39919526D01*
G37*
D12*
X39361911Y-21275375D03*
X40894000Y-19989800D03*
D13*
G36*
X40967954Y-19144501D02*
G01*
X41739299Y-20063754D01*
X40820046Y-20835099D01*
X40048701Y-19915846D01*
X40967954Y-19144501D01*
X40967954Y-19144501D01*
G37*
D14*
X35687000Y-49733200D03*
X40385463Y-48023099D03*
X29721800Y-46228000D03*
X34721800Y-46228000D03*
X56917600Y-41122600D03*
X51917600Y-41122600D03*
D15*
X47157538Y-31215039D03*
D16*
X47157538Y-31215039D02*
X47157538Y-31215039D01*
D15*
X48895000Y-26441400D03*
D13*
G36*
X48297328Y-25159687D02*
G01*
X50176713Y-25843728D01*
X49492672Y-27723113D01*
X47613287Y-27039072D01*
X48297328Y-25159687D01*
X48297328Y-25159687D01*
G37*
D15*
X27914600Y-51968400D03*
D13*
G36*
X27316928Y-53250113D02*
G01*
X26632887Y-51370728D01*
X28512272Y-50686687D01*
X29196313Y-52566072D01*
X27316928Y-53250113D01*
X27316928Y-53250113D01*
G37*
D15*
X32688239Y-50230938D03*
D16*
X32688239Y-50230938D02*
X32688239Y-50230938D01*
D15*
X52928294Y-26097039D03*
D16*
X52928294Y-26097039D02*
X52928294Y-26097039D01*
D15*
X56819800Y-29362400D03*
D13*
G36*
X58228632Y-29239143D02*
G01*
X56943057Y-30771232D01*
X55410968Y-29485657D01*
X56696543Y-27953568D01*
X58228632Y-29239143D01*
X58228632Y-29239143D01*
G37*
D17*
X64160400Y-28194000D03*
D18*
X67970400Y-28194000D03*
X68021200Y-37007800D03*
D17*
X64211200Y-37007800D03*
D18*
X60198000Y-44043600D03*
D13*
G36*
X58437411Y-44197632D02*
G01*
X60043968Y-42283011D01*
X61958589Y-43889568D01*
X60352032Y-45804189D01*
X58437411Y-44197632D01*
X58437411Y-44197632D01*
G37*
D18*
X63116629Y-46492621D03*
X23622000Y-29413200D03*
X48945800Y-19735800D03*
X51257200Y-29972000D03*
X53644800Y-37414200D03*
X42164000Y-55626000D03*
X47447200Y-39395400D03*
X56642000Y-33375600D03*
X28981400Y-55270400D03*
X51638200Y-46507400D03*
D13*
G36*
X18621505Y-35571232D02*
G01*
X18647097Y-35574176D01*
X18672277Y-35579614D01*
X18696803Y-35587495D01*
X18720438Y-35597741D01*
X18742955Y-35610254D01*
X18764137Y-35624915D01*
X18783780Y-35641581D01*
X18801695Y-35660092D01*
X18817709Y-35680270D01*
X18831669Y-35701920D01*
X19094169Y-36156584D01*
X19105939Y-36179499D01*
X19115406Y-36203456D01*
X19122480Y-36228227D01*
X19127091Y-36253571D01*
X19129196Y-36279245D01*
X19128775Y-36305002D01*
X19125831Y-36330594D01*
X19120392Y-36355774D01*
X19112512Y-36380300D01*
X19102266Y-36403935D01*
X19089752Y-36426452D01*
X19075092Y-36447634D01*
X19058426Y-36467277D01*
X19039915Y-36485192D01*
X19019737Y-36501206D01*
X18998087Y-36515166D01*
X18153713Y-37002666D01*
X18130799Y-37014436D01*
X18106841Y-37023903D01*
X18082071Y-37030977D01*
X18056726Y-37035588D01*
X18031052Y-37037693D01*
X18005295Y-37037272D01*
X17979703Y-37034328D01*
X17954523Y-37028890D01*
X17929997Y-37021009D01*
X17906362Y-37010763D01*
X17883845Y-36998250D01*
X17862663Y-36983589D01*
X17843020Y-36966923D01*
X17825105Y-36948412D01*
X17809091Y-36928234D01*
X17795131Y-36906584D01*
X17532631Y-36451920D01*
X17520861Y-36429005D01*
X17511394Y-36405048D01*
X17504320Y-36380277D01*
X17499709Y-36354933D01*
X17497604Y-36329259D01*
X17498025Y-36303502D01*
X17500969Y-36277910D01*
X17506408Y-36252730D01*
X17514288Y-36228204D01*
X17524534Y-36204569D01*
X17537048Y-36182052D01*
X17551708Y-36160870D01*
X17568374Y-36141227D01*
X17586885Y-36123312D01*
X17607063Y-36107298D01*
X17628713Y-36093338D01*
X18473087Y-35605838D01*
X18496001Y-35594068D01*
X18519959Y-35584601D01*
X18544729Y-35577527D01*
X18570074Y-35572916D01*
X18595748Y-35570811D01*
X18621505Y-35571232D01*
X18621505Y-35571232D01*
G37*
D19*
X18313400Y-36304252D03*
D13*
G36*
X19256505Y-36671085D02*
G01*
X19282097Y-36674029D01*
X19307277Y-36679467D01*
X19331803Y-36687348D01*
X19355438Y-36697594D01*
X19377955Y-36710107D01*
X19399137Y-36724768D01*
X19418780Y-36741434D01*
X19436695Y-36759945D01*
X19452709Y-36780123D01*
X19466669Y-36801773D01*
X19729169Y-37256437D01*
X19740939Y-37279352D01*
X19750406Y-37303309D01*
X19757480Y-37328080D01*
X19762091Y-37353424D01*
X19764196Y-37379098D01*
X19763775Y-37404855D01*
X19760831Y-37430447D01*
X19755392Y-37455627D01*
X19747512Y-37480153D01*
X19737266Y-37503788D01*
X19724752Y-37526305D01*
X19710092Y-37547487D01*
X19693426Y-37567130D01*
X19674915Y-37585045D01*
X19654737Y-37601059D01*
X19633087Y-37615019D01*
X18788713Y-38102519D01*
X18765799Y-38114289D01*
X18741841Y-38123756D01*
X18717071Y-38130830D01*
X18691726Y-38135441D01*
X18666052Y-38137546D01*
X18640295Y-38137125D01*
X18614703Y-38134181D01*
X18589523Y-38128743D01*
X18564997Y-38120862D01*
X18541362Y-38110616D01*
X18518845Y-38098103D01*
X18497663Y-38083442D01*
X18478020Y-38066776D01*
X18460105Y-38048265D01*
X18444091Y-38028087D01*
X18430131Y-38006437D01*
X18167631Y-37551773D01*
X18155861Y-37528858D01*
X18146394Y-37504901D01*
X18139320Y-37480130D01*
X18134709Y-37454786D01*
X18132604Y-37429112D01*
X18133025Y-37403355D01*
X18135969Y-37377763D01*
X18141408Y-37352583D01*
X18149288Y-37328057D01*
X18159534Y-37304422D01*
X18172048Y-37281905D01*
X18186708Y-37260723D01*
X18203374Y-37241080D01*
X18221885Y-37223165D01*
X18242063Y-37207151D01*
X18263713Y-37193191D01*
X19108087Y-36705691D01*
X19131001Y-36693921D01*
X19154959Y-36684454D01*
X19179729Y-36677380D01*
X19205074Y-36672769D01*
X19230748Y-36670664D01*
X19256505Y-36671085D01*
X19256505Y-36671085D01*
G37*
D19*
X18948400Y-37404105D03*
X17678400Y-35204400D03*
D13*
G36*
X16766381Y-35124737D02*
G01*
X18065419Y-34374737D01*
X18590419Y-35284063D01*
X17291381Y-36034063D01*
X16766381Y-35124737D01*
X16766381Y-35124737D01*
G37*
D14*
X21844000Y-32791400D03*
D20*
X29464000Y-32791400D03*
X28829000Y-43205400D03*
D14*
X28829000Y-35585400D03*
X40868600Y-24587200D03*
D20*
X33248600Y-24587200D03*
D14*
X42773600Y-43129200D03*
D20*
X42773600Y-35509200D03*
D14*
X31242000Y-21493286D03*
D21*
X31242000Y-21493286D02*
X31242000Y-21493286D01*
D14*
X27432000Y-28092400D03*
X43408600Y-22275800D03*
X50912835Y-23598999D03*
D21*
X50912835Y-23598999D02*
X50912835Y-23598999D01*
D14*
X42951400Y-32969200D03*
X44274599Y-25464965D03*
D21*
X44274599Y-25464965D02*
X44274599Y-25464965D01*
D14*
X14411807Y-36781542D03*
D21*
X14411807Y-36781542D02*
X14411807Y-36781542D01*
D14*
X17018000Y-43942000D03*
X21930207Y-44528542D03*
D21*
X21930207Y-44528542D02*
X21930207Y-44528542D01*
D14*
X24536400Y-51689000D03*
X53554435Y-33805001D03*
D21*
X53554435Y-33805001D02*
X53554435Y-33805001D01*
D14*
X46050200Y-35128200D03*
X16281400Y-31851600D03*
X21179442Y-26014341D03*
D21*
X21179442Y-26014341D02*
X21179442Y-26014341D01*
D14*
X59166607Y-38808858D03*
D21*
X59166607Y-38808858D02*
X59166607Y-38808858D01*
D14*
X61772800Y-31648400D03*
X25222200Y-36093400D03*
X20324158Y-41930659D03*
D21*
X20324158Y-41930659D02*
X20324158Y-41930659D01*
D14*
X43159486Y-47091600D03*
D21*
X43159486Y-47091600D02*
X43159486Y-47091600D01*
D14*
X49758600Y-43281600D03*
X24724207Y-42090142D03*
D21*
X24724207Y-42090142D02*
X24724207Y-42090142D01*
D14*
X27330400Y-49250600D03*
X31851600Y-54152800D03*
X39355835Y-52829601D03*
D21*
X39355835Y-52829601D02*
X39355835Y-52829601D01*
D14*
X48661514Y-47929800D03*
D21*
X48661514Y-47929800D02*
X48661514Y-47929800D01*
D14*
X42062400Y-51739800D03*
D22*
X32029400Y-27762200D03*
D20*
X39649400Y-43002200D03*
X32029400Y-30302200D03*
X39649400Y-40462200D03*
X32029400Y-32842200D03*
X39649400Y-37922200D03*
X32029400Y-35382200D03*
X39649400Y-35382200D03*
X32029400Y-37922200D03*
X39649400Y-32842200D03*
X32029400Y-40462200D03*
X39649400Y-30302200D03*
X32029400Y-43002200D03*
X39649400Y-27762200D03*
D23*
X37102288Y-44976288D03*
D24*
X60198000Y-44043600D02*
X57658000Y-43688000D01*
X57658000Y-43688000D02*
X54864000Y-43434000D01*
X54864000Y-43434000D02*
X54102000Y-41910000D01*
X54102000Y-41910000D02*
X54102000Y-40640000D01*
X54102000Y-40640000D02*
X53086000Y-39624000D01*
X53086000Y-39624000D02*
X52324000Y-39370000D01*
X52324000Y-39370000D02*
X51054000Y-38608000D01*
X51054000Y-38608000D02*
X50292000Y-37846000D01*
X50292000Y-37846000D02*
X49022000Y-37338000D01*
X49022000Y-37338000D02*
X47498000Y-36830000D01*
X47498000Y-36830000D02*
X45720000Y-36830000D01*
X45720000Y-36830000D02*
X44704000Y-37592000D01*
X44704000Y-37592000D02*
X43180000Y-37846000D01*
X43180000Y-37846000D02*
X42164000Y-37846000D01*
X42164000Y-37846000D02*
X41402000Y-37338000D01*
X41402000Y-37338000D02*
X41148000Y-36322000D01*
X41148000Y-36322000D02*
X40640000Y-36068000D01*
X40640000Y-36068000D02*
X39649400Y-35382200D01*
X39361911Y-21275375D02*
X37769800Y-20751800D01*
X37769800Y-20751800D02*
X36347400Y-20523200D01*
X36347400Y-20523200D02*
X35026600Y-20167600D01*
X35026600Y-20167600D02*
X34188400Y-20040600D01*
X34188400Y-20040600D02*
X33096200Y-19634200D01*
X33096200Y-19634200D02*
X32054800Y-19304000D01*
X32054800Y-19304000D02*
X30378400Y-18923000D01*
X30378400Y-18923000D02*
X29895800Y-19126200D01*
X29895800Y-19126200D02*
X28981400Y-19761200D01*
X28981400Y-19761200D02*
X28524200Y-20675600D01*
X28524200Y-20675600D02*
X28321000Y-21437600D01*
X28321000Y-21437600D02*
X27940000Y-21640800D01*
X27940000Y-21640800D02*
X27076400Y-21894800D01*
X27076400Y-21894800D02*
X26543000Y-22250400D01*
X26543000Y-22250400D02*
X25806400Y-22529800D01*
X25806400Y-22529800D02*
X25527000Y-23114000D01*
X25527000Y-23114000D02*
X25044400Y-23571200D01*
X25044400Y-23571200D02*
X23622000Y-24511000D01*
X23622000Y-24511000D02*
X23190200Y-24790400D01*
X23190200Y-24790400D02*
X22682200Y-25120600D01*
X22682200Y-25120600D02*
X21179442Y-26014341D01*
D25*
X43408600Y-22275800D02*
X40894000Y-19989800D01*
X24536400Y-51689000D02*
X27914600Y-51968400D01*
X24536400Y-51689000D02*
X21894800Y-47980600D01*
X21894800Y-47980600D02*
X19939000Y-47345600D01*
X19939000Y-47345600D02*
X18745200Y-45618400D01*
X18745200Y-45618400D02*
X17018000Y-43942000D01*
X46050200Y-35128200D02*
X47157538Y-31215039D01*
X51257200Y-29972000D02*
X52928294Y-26097039D01*
X51257200Y-29972000D02*
X47157538Y-31215039D01*
X44274599Y-25464965D02*
X47157538Y-31215039D01*
X44274599Y-25464965D02*
X39649400Y-27762200D01*
X37102288Y-44976288D02*
X37515800Y-46050200D01*
X37515800Y-46050200D02*
X38125400Y-46964600D01*
X38125400Y-46964600D02*
X39166800Y-47701200D01*
X39166800Y-47701200D02*
X40385463Y-48023099D01*
X34721800Y-46228000D02*
X34188400Y-42824400D01*
X34188400Y-42824400D02*
X34188400Y-40233600D01*
X34188400Y-40233600D02*
X33502600Y-38658800D01*
X33502600Y-38658800D02*
X32029400Y-37922200D01*
X32029400Y-37922200D02*
X29032200Y-39852600D01*
X29032200Y-39852600D02*
X25120600Y-39852600D01*
X25120600Y-39852600D02*
X22682200Y-39166800D01*
X22682200Y-39166800D02*
X20675600Y-36753800D01*
X20675600Y-36753800D02*
X19837400Y-36017200D01*
X19837400Y-36017200D02*
X18313400Y-36304252D01*
X43159486Y-47091600D02*
X41910000Y-45212000D01*
X41910000Y-45212000D02*
X41148000Y-43688000D01*
X41148000Y-43688000D02*
X41148000Y-42164000D01*
X41148000Y-42164000D02*
X41402000Y-40894000D01*
X41402000Y-40894000D02*
X41402000Y-39878000D01*
X41402000Y-39878000D02*
X41148000Y-38862000D01*
X41148000Y-38862000D02*
X39649400Y-37922200D01*
X51917600Y-41122600D02*
X51587400Y-43103800D01*
X51587400Y-43103800D02*
X51181000Y-44399200D01*
X51181000Y-44399200D02*
X50139600Y-44881800D01*
X50139600Y-44881800D02*
X47675800Y-44958000D01*
X47675800Y-44958000D02*
X45516800Y-45288200D01*
X45516800Y-45288200D02*
X43992800Y-45720000D01*
X43992800Y-45720000D02*
X43159486Y-47091600D01*
X50912835Y-23598999D02*
X48945800Y-19735800D01*
X50912835Y-23598999D02*
X48895000Y-26441400D01*
X56819800Y-29362400D02*
X56642000Y-33375600D01*
X56642000Y-33375600D02*
X61772800Y-31648400D01*
X21844000Y-32791400D02*
X23063200Y-31673800D01*
X23063200Y-31673800D02*
X23622000Y-29413200D01*
X53644800Y-37414200D02*
X53554435Y-33805001D01*
X42164000Y-55626000D02*
X38633400Y-55600600D01*
X38633400Y-55600600D02*
X35890200Y-54965600D01*
X35890200Y-54965600D02*
X33832800Y-54965600D01*
X33832800Y-54965600D02*
X31851600Y-54152800D01*
X31851600Y-54152800D02*
X30708600Y-51993800D01*
X30708600Y-51993800D02*
X29438600Y-50088800D01*
X29438600Y-50088800D02*
X27330400Y-49250600D01*
X32029400Y-43002200D02*
X31877000Y-45923200D01*
X31877000Y-45923200D02*
X31343600Y-47625000D01*
X31343600Y-47625000D02*
X30708600Y-49047400D01*
X30708600Y-49047400D02*
X29438600Y-50088800D01*
X49758600Y-43281600D02*
X47447200Y-39395400D01*
X51638200Y-46507400D02*
X48661514Y-47929800D01*
X18948400Y-37404105D02*
X17373600Y-37896800D01*
X17373600Y-37896800D02*
X15417800Y-37896800D01*
X15417800Y-37896800D02*
X14411807Y-36781542D01*
X14411807Y-36781542D02*
X16281400Y-31851600D01*
X17678400Y-35204400D02*
X20066000Y-34213800D01*
X20066000Y-34213800D02*
X21056600Y-34518600D01*
X21056600Y-34518600D02*
X21996400Y-34518600D01*
X21996400Y-34518600D02*
X23495000Y-34163000D01*
X23495000Y-34163000D02*
X24815800Y-32537400D01*
X24815800Y-32537400D02*
X25654000Y-32105600D01*
X25654000Y-32105600D02*
X27228800Y-31318200D01*
X28346400Y-30530800D02*
X29184600Y-28524200D01*
X29184600Y-28524200D02*
X32029400Y-27762200D01*
X27720544Y-30971744D02*
X26543000Y-30099000D01*
X27228800Y-31318200D02*
X27720544Y-30971744D01*
X27720544Y-30971744D02*
X28346400Y-30530800D01*
X26543000Y-30099000D02*
X25755600Y-29006800D01*
X25755600Y-29006800D02*
X25755600Y-26949400D01*
X25755600Y-26949400D02*
X26873200Y-25781000D01*
X26873200Y-25781000D02*
X28244800Y-24180800D01*
X28244800Y-24180800D02*
X31242000Y-21493286D01*
X29464000Y-32791400D02*
X28829000Y-35585400D01*
X29464000Y-32791400D02*
X32029400Y-32842200D01*
X32029400Y-30302200D02*
X34086800Y-29768800D01*
X34086800Y-29768800D02*
X34239200Y-28397200D01*
X34239200Y-28397200D02*
X34239200Y-27279600D01*
X34239200Y-27279600D02*
X34086800Y-26111200D01*
X34086800Y-26111200D02*
X33248600Y-24587200D01*
X33248600Y-24587200D02*
X30708600Y-25146000D01*
X30708600Y-25146000D02*
X29616400Y-26263600D01*
X29616400Y-26263600D02*
X28879800Y-27254200D01*
X28879800Y-27254200D02*
X27432000Y-28092400D01*
X42773600Y-35509200D02*
X42951400Y-32969200D01*
X42951400Y-32969200D02*
X39649400Y-32842200D01*
X20324158Y-41930659D02*
X24724207Y-42090142D01*
X24724207Y-42090142D02*
X32029400Y-40462200D01*
X39649400Y-40462200D02*
X39649400Y-43002200D01*
X42062400Y-51739800D02*
X42037000Y-48945800D01*
X42037000Y-48945800D02*
X41884600Y-47879000D01*
X41884600Y-47879000D02*
X41478200Y-46812200D01*
X41478200Y-46812200D02*
X41021000Y-46075600D01*
X41021000Y-46075600D02*
X40411400Y-45567600D01*
X40411400Y-45567600D02*
X39827200Y-44983400D01*
X39827200Y-44983400D02*
X39776400Y-44500800D01*
X39776400Y-44500800D02*
X39649400Y-43002200D01*
D26*
G36*
X69698001Y-27439890D02*
G01*
X69640582Y-27301269D01*
X69434326Y-26992587D01*
X69171813Y-26730074D01*
X68863131Y-26523818D01*
X68520141Y-26381747D01*
X68156025Y-26309320D01*
X67784775Y-26309320D01*
X67420659Y-26381747D01*
X67077669Y-26523818D01*
X66768987Y-26730074D01*
X66506474Y-26992587D01*
X66300218Y-27301269D01*
X66158147Y-27644259D01*
X66085720Y-28008375D01*
X66085720Y-28379625D01*
X66158147Y-28743741D01*
X66300218Y-29086731D01*
X66506474Y-29395413D01*
X66768987Y-29657926D01*
X67077669Y-29864182D01*
X67420659Y-30006253D01*
X67784775Y-30078680D01*
X68156025Y-30078680D01*
X68520141Y-30006253D01*
X68863131Y-29864182D01*
X69171813Y-29657926D01*
X69434326Y-29395413D01*
X69640582Y-29086731D01*
X69698001Y-28948110D01*
X69698000Y-36137385D01*
X69624515Y-35999904D01*
X69334577Y-35874029D01*
X68200805Y-37007800D01*
X69334577Y-38141571D01*
X69624515Y-38015696D01*
X69698000Y-37868499D01*
X69698000Y-58268000D01*
X12852000Y-58268000D01*
X12852000Y-52932738D01*
X13645000Y-52932738D01*
X13645000Y-53747262D01*
X13803906Y-54546135D01*
X14115611Y-55298657D01*
X14568136Y-55975909D01*
X15144091Y-56551864D01*
X15821343Y-57004389D01*
X16573865Y-57316094D01*
X17372738Y-57475000D01*
X18187262Y-57475000D01*
X18986135Y-57316094D01*
X19738657Y-57004389D01*
X20415909Y-56551864D01*
X20991864Y-55975909D01*
X21444389Y-55298657D01*
X21756094Y-54546135D01*
X21915000Y-53747262D01*
X21915000Y-52932738D01*
X21756094Y-52133865D01*
X21444389Y-51381343D01*
X20991864Y-50704091D01*
X20415909Y-50128136D01*
X19738657Y-49675611D01*
X18986135Y-49363906D01*
X18187262Y-49205000D01*
X17372738Y-49205000D01*
X16573865Y-49363906D01*
X15821343Y-49675611D01*
X15144091Y-50128136D01*
X14568136Y-50704091D01*
X14115611Y-51381343D01*
X13803906Y-52133865D01*
X13645000Y-52932738D01*
X12852000Y-52932738D01*
X12852000Y-36781542D01*
X12969864Y-36781542D01*
X12997571Y-37062851D01*
X13079625Y-37333350D01*
X13212875Y-37582643D01*
X13392199Y-37801150D01*
X13610706Y-37980474D01*
X13859999Y-38113724D01*
X14130498Y-38195778D01*
X14341315Y-38216542D01*
X14482299Y-38216542D01*
X14569637Y-38207940D01*
X14782294Y-38443694D01*
X14822236Y-38492364D01*
X14869377Y-38531051D01*
X14914463Y-38572111D01*
X14933073Y-38583325D01*
X14949868Y-38597109D01*
X15003651Y-38625857D01*
X15055881Y-38657331D01*
X15076320Y-38664699D01*
X15095483Y-38674942D01*
X15153840Y-38692645D01*
X15211208Y-38713325D01*
X15232693Y-38716564D01*
X15253484Y-38722871D01*
X15314179Y-38728849D01*
X15374473Y-38737939D01*
X15437351Y-38735000D01*
X17294730Y-38735000D01*
X17298332Y-38735684D01*
X17377085Y-38735000D01*
X17414770Y-38735000D01*
X17418415Y-38734641D01*
X17463436Y-38734250D01*
X17500369Y-38726569D01*
X17537916Y-38722871D01*
X17581011Y-38709798D01*
X17584585Y-38709055D01*
X17620406Y-38697848D01*
X17695917Y-38674942D01*
X17699159Y-38673209D01*
X18073418Y-38556118D01*
X18109230Y-38589659D01*
X18259151Y-38682886D01*
X18424378Y-38745073D01*
X18598563Y-38773831D01*
X18775012Y-38768054D01*
X18946943Y-38727966D01*
X19107749Y-38655105D01*
X19952123Y-38167605D01*
X20095625Y-38064773D01*
X20216308Y-37935921D01*
X20309535Y-37786000D01*
X20351371Y-37674845D01*
X22015133Y-39675571D01*
X22042140Y-39714262D01*
X22097450Y-39767366D01*
X22152108Y-39821320D01*
X22157013Y-39824551D01*
X22161243Y-39828613D01*
X22225868Y-39869917D01*
X22289984Y-39912159D01*
X22295423Y-39914371D01*
X22300366Y-39917530D01*
X22371839Y-39945444D01*
X22442933Y-39974354D01*
X22489280Y-39983261D01*
X24885467Y-40657189D01*
X24919116Y-40667396D01*
X24794699Y-40655142D01*
X24653715Y-40655142D01*
X24442898Y-40675906D01*
X24172399Y-40757960D01*
X23923106Y-40891210D01*
X23704599Y-41070534D01*
X23589913Y-41210279D01*
X21526255Y-41135480D01*
X21523090Y-41129558D01*
X21343766Y-40911051D01*
X21125259Y-40731727D01*
X20875966Y-40598477D01*
X20605467Y-40516423D01*
X20394650Y-40495659D01*
X20253666Y-40495659D01*
X20042849Y-40516423D01*
X19772350Y-40598477D01*
X19523057Y-40731727D01*
X19304550Y-40911051D01*
X19125226Y-41129558D01*
X18991976Y-41378851D01*
X18909922Y-41649350D01*
X18882215Y-41930659D01*
X18909922Y-42211968D01*
X18991976Y-42482467D01*
X19125226Y-42731760D01*
X19304550Y-42950267D01*
X19523057Y-43129591D01*
X19772350Y-43262841D01*
X20042849Y-43344895D01*
X20253666Y-43365659D01*
X20394650Y-43365659D01*
X20605467Y-43344895D01*
X20780578Y-43291776D01*
X21615211Y-43291776D01*
X22006111Y-44365764D01*
X23080766Y-43974622D01*
X23118795Y-43724491D01*
X22977605Y-43554440D01*
X27437091Y-43554440D01*
X27531930Y-43819281D01*
X27676615Y-44060531D01*
X27865586Y-44268919D01*
X28091580Y-44436437D01*
X28345913Y-44556646D01*
X28479961Y-44597304D01*
X28702000Y-44475315D01*
X28702000Y-43332400D01*
X28956000Y-43332400D01*
X28956000Y-44475315D01*
X29178039Y-44597304D01*
X29312087Y-44556646D01*
X29566420Y-44436437D01*
X29792414Y-44268919D01*
X29981385Y-44060531D01*
X30126070Y-43819281D01*
X30220909Y-43554440D01*
X30099624Y-43332400D01*
X28956000Y-43332400D01*
X28702000Y-43332400D01*
X27558376Y-43332400D01*
X27437091Y-43554440D01*
X22977605Y-43554440D01*
X22939094Y-43508058D01*
X22720623Y-43330843D01*
X22471775Y-43199654D01*
X22202116Y-43119533D01*
X21922007Y-43093561D01*
X21782137Y-43101202D01*
X21615211Y-43291776D01*
X20780578Y-43291776D01*
X20875966Y-43262841D01*
X21125259Y-43129591D01*
X21343766Y-42950267D01*
X21458452Y-42810522D01*
X23522110Y-42885321D01*
X23525275Y-42891243D01*
X23704599Y-43109750D01*
X23923106Y-43289074D01*
X24172399Y-43422324D01*
X24442898Y-43504378D01*
X24653715Y-43525142D01*
X24794699Y-43525142D01*
X25005516Y-43504378D01*
X25276015Y-43422324D01*
X25525308Y-43289074D01*
X25743815Y-43109750D01*
X25923139Y-42891243D01*
X26050273Y-42653392D01*
X27744012Y-42275947D01*
X27676615Y-42350269D01*
X27531930Y-42591519D01*
X27437091Y-42856360D01*
X27558376Y-43078400D01*
X28702000Y-43078400D01*
X28702000Y-43058400D01*
X28956000Y-43058400D01*
X28956000Y-43078400D01*
X30099624Y-43078400D01*
X30220909Y-42856360D01*
X30126070Y-42591519D01*
X29981385Y-42350269D01*
X29792414Y-42141881D01*
X29566420Y-41974363D01*
X29416118Y-41903323D01*
X31073393Y-41534004D01*
X31228299Y-41661132D01*
X31361258Y-41732200D01*
X31228299Y-41803268D01*
X31009792Y-41982592D01*
X30830468Y-42201099D01*
X30697218Y-42450392D01*
X30615164Y-42720891D01*
X30587457Y-43002200D01*
X30615164Y-43283509D01*
X30697218Y-43554008D01*
X30830468Y-43803301D01*
X31009792Y-44021808D01*
X31131646Y-44121811D01*
X31050283Y-45681278D01*
X31025403Y-45611708D01*
X30958471Y-45486486D01*
X30714502Y-45414903D01*
X29901405Y-46228000D01*
X29915548Y-46242143D01*
X29735943Y-46421748D01*
X29721800Y-46407605D01*
X28908703Y-47220702D01*
X28980286Y-47464671D01*
X29235796Y-47585571D01*
X29509984Y-47654300D01*
X29792312Y-47668217D01*
X30071930Y-47626787D01*
X30338092Y-47531603D01*
X30463314Y-47464671D01*
X30534897Y-47220704D01*
X30578307Y-47264114D01*
X30558345Y-47327800D01*
X30023952Y-48524840D01*
X29289166Y-49127365D01*
X28724329Y-48902792D01*
X28710253Y-48832026D01*
X28602080Y-48570873D01*
X28445037Y-48335841D01*
X28245159Y-48135963D01*
X28010127Y-47978920D01*
X27748974Y-47870747D01*
X27471735Y-47815600D01*
X27189065Y-47815600D01*
X26911826Y-47870747D01*
X26650673Y-47978920D01*
X26415641Y-48135963D01*
X26215763Y-48335841D01*
X26058720Y-48570873D01*
X25950547Y-48832026D01*
X25895400Y-49109265D01*
X25895400Y-49391935D01*
X25950547Y-49669174D01*
X26058720Y-49930327D01*
X26215763Y-50165359D01*
X26415641Y-50365237D01*
X26650673Y-50522280D01*
X26860074Y-50609017D01*
X26414653Y-50771137D01*
X26301872Y-50825233D01*
X26201812Y-50900292D01*
X26130549Y-50979785D01*
X25768362Y-50949830D01*
X25651037Y-50774241D01*
X25451159Y-50574363D01*
X25216127Y-50417320D01*
X24954974Y-50309147D01*
X24677735Y-50254000D01*
X24543322Y-50254000D01*
X22589486Y-47511115D01*
X22556121Y-47459019D01*
X22513083Y-47414277D01*
X22472290Y-47367496D01*
X22455963Y-47354894D01*
X22441659Y-47340024D01*
X22390722Y-47304540D01*
X22341583Y-47266613D01*
X22323105Y-47257436D01*
X22306181Y-47245646D01*
X22249306Y-47220783D01*
X22193706Y-47193169D01*
X22133998Y-47176990D01*
X20467390Y-46635883D01*
X20234207Y-46298512D01*
X28281583Y-46298512D01*
X28323013Y-46578130D01*
X28418197Y-46844292D01*
X28485129Y-46969514D01*
X28729098Y-47041097D01*
X29542195Y-46228000D01*
X28729098Y-45414903D01*
X28485129Y-45486486D01*
X28364229Y-45741996D01*
X28295500Y-46016184D01*
X28281583Y-46298512D01*
X20234207Y-46298512D01*
X19566586Y-45332593D01*
X20741619Y-45332593D01*
X20921320Y-45549026D01*
X21139791Y-45726241D01*
X21388639Y-45857430D01*
X21658298Y-45937551D01*
X21938407Y-45963523D01*
X22078277Y-45955882D01*
X22245203Y-45765308D01*
X21854303Y-44691320D01*
X20779648Y-45082462D01*
X20741619Y-45332593D01*
X19566586Y-45332593D01*
X19458333Y-45175973D01*
X19438448Y-45140069D01*
X19411502Y-45108216D01*
X19411317Y-45107949D01*
X19386037Y-45078115D01*
X19358528Y-45045597D01*
X19358274Y-45045350D01*
X19331321Y-45013542D01*
X19299210Y-44988024D01*
X18688532Y-44395307D01*
X20501400Y-44395307D01*
X20502862Y-44676613D01*
X20692774Y-44843780D01*
X21350339Y-44604446D01*
X22092985Y-44604446D01*
X22483884Y-45678435D01*
X22734256Y-45717126D01*
X22846314Y-45633072D01*
X23044195Y-45433126D01*
X23174897Y-45235298D01*
X28908703Y-45235298D01*
X29721800Y-46048395D01*
X30534897Y-45235298D01*
X30463314Y-44991329D01*
X30207804Y-44870429D01*
X29933616Y-44801700D01*
X29651288Y-44787783D01*
X29371670Y-44829213D01*
X29105508Y-44924397D01*
X28980286Y-44991329D01*
X28908703Y-45235298D01*
X23174897Y-45235298D01*
X23199265Y-45198416D01*
X23305567Y-44937963D01*
X23359014Y-44661777D01*
X23357552Y-44380471D01*
X23167640Y-44213304D01*
X22092985Y-44604446D01*
X21350339Y-44604446D01*
X21767429Y-44452638D01*
X21376530Y-43378649D01*
X21126158Y-43339958D01*
X21014100Y-43424012D01*
X20816219Y-43623958D01*
X20661149Y-43858668D01*
X20554847Y-44119121D01*
X20501400Y-44395307D01*
X18688532Y-44395307D01*
X18439100Y-44153212D01*
X18453000Y-44083335D01*
X18453000Y-43800665D01*
X18397853Y-43523426D01*
X18289680Y-43262273D01*
X18132637Y-43027241D01*
X17932759Y-42827363D01*
X17697727Y-42670320D01*
X17436574Y-42562147D01*
X17159335Y-42507000D01*
X16876665Y-42507000D01*
X16599426Y-42562147D01*
X16338273Y-42670320D01*
X16103241Y-42827363D01*
X15903363Y-43027241D01*
X15746320Y-43262273D01*
X15638147Y-43523426D01*
X15583000Y-43800665D01*
X15583000Y-44083335D01*
X15638147Y-44360574D01*
X15746320Y-44621727D01*
X15903363Y-44856759D01*
X16103241Y-45056637D01*
X16338273Y-45213680D01*
X16599426Y-45321853D01*
X16876665Y-45377000D01*
X17159335Y-45377000D01*
X17270263Y-45354935D01*
X18102423Y-46162620D01*
X19241132Y-47810116D01*
X19277679Y-47867180D01*
X19316579Y-47907621D01*
X19352878Y-47950459D01*
X19373706Y-47967010D01*
X19392141Y-47986176D01*
X19438190Y-48018255D01*
X19482142Y-48053183D01*
X19505799Y-48065353D01*
X19527619Y-48080554D01*
X19579039Y-48103032D01*
X19628963Y-48128716D01*
X19694153Y-48147376D01*
X21372691Y-48692356D01*
X23175879Y-51223755D01*
X23156547Y-51270426D01*
X23101400Y-51547665D01*
X23101400Y-51830335D01*
X23156547Y-52107574D01*
X23264720Y-52368727D01*
X23421763Y-52603759D01*
X23621641Y-52803637D01*
X23856673Y-52960680D01*
X24117826Y-53068853D01*
X24395065Y-53124000D01*
X24677735Y-53124000D01*
X24954974Y-53068853D01*
X25216127Y-52960680D01*
X25451159Y-52803637D01*
X25633959Y-52620837D01*
X26432919Y-52686917D01*
X26717337Y-53468347D01*
X26771433Y-53581128D01*
X26846492Y-53681188D01*
X26939630Y-53764683D01*
X27047267Y-53828403D01*
X27165268Y-53869899D01*
X27289096Y-53887578D01*
X27413994Y-53880759D01*
X27535162Y-53849704D01*
X27930800Y-53705703D01*
X27779987Y-53806474D01*
X27517474Y-54068987D01*
X27311218Y-54377669D01*
X27169147Y-54720659D01*
X27096720Y-55084775D01*
X27096720Y-55456025D01*
X27169147Y-55820141D01*
X27311218Y-56163131D01*
X27517474Y-56471813D01*
X27779987Y-56734326D01*
X28088669Y-56940582D01*
X28431659Y-57082653D01*
X28795775Y-57155080D01*
X29167025Y-57155080D01*
X29531141Y-57082653D01*
X29874131Y-56940582D01*
X30182813Y-56734326D01*
X30445326Y-56471813D01*
X30651582Y-56163131D01*
X30793653Y-55820141D01*
X30866080Y-55456025D01*
X30866080Y-55196676D01*
X30936841Y-55267437D01*
X31171873Y-55424480D01*
X31433026Y-55532653D01*
X31710265Y-55587800D01*
X31992935Y-55587800D01*
X32270174Y-55532653D01*
X32531327Y-55424480D01*
X32611833Y-55370687D01*
X33475251Y-55724910D01*
X33510483Y-55743742D01*
X33551432Y-55756164D01*
X33552744Y-55756702D01*
X33590697Y-55768075D01*
X33668484Y-55791671D01*
X33669913Y-55791812D01*
X33671279Y-55792221D01*
X33751743Y-55799871D01*
X33791630Y-55803800D01*
X33793062Y-55803800D01*
X33835648Y-55807849D01*
X33875381Y-55803800D01*
X35794455Y-55803800D01*
X38414056Y-56410189D01*
X38463146Y-56425467D01*
X38535278Y-56433096D01*
X38607188Y-56442446D01*
X38658478Y-56439002D01*
X40466180Y-56452007D01*
X40493818Y-56518731D01*
X40700074Y-56827413D01*
X40962587Y-57089926D01*
X41271269Y-57296182D01*
X41614259Y-57438253D01*
X41978375Y-57510680D01*
X42349625Y-57510680D01*
X42713741Y-57438253D01*
X43056731Y-57296182D01*
X43365413Y-57089926D01*
X43627926Y-56827413D01*
X43834182Y-56518731D01*
X43976253Y-56175741D01*
X44048680Y-55811625D01*
X44048680Y-55440375D01*
X43976253Y-55076259D01*
X43834182Y-54733269D01*
X43627926Y-54424587D01*
X43365413Y-54162074D01*
X43056731Y-53955818D01*
X42713741Y-53813747D01*
X42349625Y-53741320D01*
X41978375Y-53741320D01*
X41614259Y-53813747D01*
X41271269Y-53955818D01*
X40962587Y-54162074D01*
X40700074Y-54424587D01*
X40493818Y-54733269D01*
X40476269Y-54775637D01*
X38732121Y-54763089D01*
X36106616Y-54155333D01*
X36054516Y-54139529D01*
X35985315Y-54132713D01*
X35916411Y-54123754D01*
X35862114Y-54127400D01*
X33998056Y-54127400D01*
X33248492Y-53819887D01*
X33231453Y-53734226D01*
X33123280Y-53473073D01*
X32966237Y-53238041D01*
X32766359Y-53038163D01*
X32531327Y-52881120D01*
X32406949Y-52829601D01*
X37913892Y-52829601D01*
X37941599Y-53110910D01*
X38023653Y-53381409D01*
X38156903Y-53630702D01*
X38336227Y-53849209D01*
X38554734Y-54028533D01*
X38804027Y-54161783D01*
X39074526Y-54243837D01*
X39285343Y-54264601D01*
X39426327Y-54264601D01*
X39637144Y-54243837D01*
X39907643Y-54161783D01*
X40156936Y-54028533D01*
X40375443Y-53849209D01*
X40554767Y-53630702D01*
X40688017Y-53381409D01*
X40770071Y-53110910D01*
X40797778Y-52829601D01*
X40770071Y-52548292D01*
X40688017Y-52277793D01*
X40554767Y-52028500D01*
X40375443Y-51809993D01*
X40156936Y-51630669D01*
X39907643Y-51497419D01*
X39637144Y-51415365D01*
X39426327Y-51394601D01*
X39285343Y-51394601D01*
X39074526Y-51415365D01*
X38804027Y-51497419D01*
X38554734Y-51630669D01*
X38336227Y-51809993D01*
X38156903Y-52028500D01*
X38023653Y-52277793D01*
X37941599Y-52548292D01*
X37913892Y-52829601D01*
X32406949Y-52829601D01*
X32270174Y-52772947D01*
X32045888Y-52728333D01*
X31487434Y-51673477D01*
X31487078Y-51672297D01*
X31448975Y-51600831D01*
X31430128Y-51565231D01*
X31429444Y-51564198D01*
X31428861Y-51563105D01*
X31406494Y-51529555D01*
X31361790Y-51462072D01*
X31360923Y-51461198D01*
X31141647Y-51132283D01*
X31324127Y-51132283D01*
X31441181Y-51288333D01*
X31671430Y-51511305D01*
X31940756Y-51685072D01*
X32238806Y-51802959D01*
X32554127Y-51860433D01*
X32874603Y-51855287D01*
X33072117Y-51656958D01*
X32612335Y-50393716D01*
X31349597Y-50853314D01*
X31324127Y-51132283D01*
X31141647Y-51132283D01*
X30557159Y-50255553D01*
X31120276Y-49793797D01*
X31086314Y-49903712D01*
X31053256Y-50222520D01*
X31063895Y-50417301D01*
X31262724Y-50614632D01*
X32108371Y-50306842D01*
X32851017Y-50306842D01*
X33310799Y-51570085D01*
X33589587Y-51595054D01*
X33838394Y-51392999D01*
X34043000Y-51146286D01*
X34195544Y-50864396D01*
X34290164Y-50558164D01*
X34323222Y-50239356D01*
X34320153Y-50183174D01*
X34415320Y-50412927D01*
X34572363Y-50647959D01*
X34772241Y-50847837D01*
X35007273Y-51004880D01*
X35268426Y-51113053D01*
X35545665Y-51168200D01*
X35828335Y-51168200D01*
X36105574Y-51113053D01*
X36366727Y-51004880D01*
X36601759Y-50847837D01*
X36801637Y-50647959D01*
X36958680Y-50412927D01*
X37066853Y-50151774D01*
X37122000Y-49874535D01*
X37122000Y-49591865D01*
X37066853Y-49314626D01*
X36958680Y-49053473D01*
X36801637Y-48818441D01*
X36601759Y-48618563D01*
X36366727Y-48461520D01*
X36105574Y-48353347D01*
X35828335Y-48298200D01*
X35545665Y-48298200D01*
X35268426Y-48353347D01*
X35007273Y-48461520D01*
X34772241Y-48618563D01*
X34572363Y-48818441D01*
X34415320Y-49053473D01*
X34307147Y-49314626D01*
X34252000Y-49591865D01*
X34252000Y-49874535D01*
X34279241Y-50011485D01*
X34113754Y-49847244D01*
X32851017Y-50306842D01*
X32108371Y-50306842D01*
X32525461Y-50155034D01*
X32065679Y-48891791D01*
X31786891Y-48866822D01*
X31661796Y-48968411D01*
X31734783Y-48804918D01*
X32304361Y-48804918D01*
X32764143Y-50068160D01*
X34026881Y-49608562D01*
X34052351Y-49329593D01*
X33935297Y-49173543D01*
X33705048Y-48950571D01*
X33435722Y-48776804D01*
X33137672Y-48658917D01*
X32822351Y-48601443D01*
X32501875Y-48606589D01*
X32304361Y-48804918D01*
X31734783Y-48804918D01*
X32078438Y-48035133D01*
X32082714Y-48028860D01*
X32112042Y-47959861D01*
X32125775Y-47929099D01*
X32128164Y-47921932D01*
X32131119Y-47914979D01*
X32141194Y-47882835D01*
X32164900Y-47811706D01*
X32165849Y-47804173D01*
X32671457Y-46191041D01*
X32693387Y-46130333D01*
X32702280Y-46071615D01*
X32714403Y-46013472D01*
X32714998Y-45948921D01*
X32805489Y-44214501D01*
X32830501Y-44201132D01*
X33049008Y-44021808D01*
X33228332Y-43803301D01*
X33361582Y-43554008D01*
X33422724Y-43352448D01*
X33713368Y-45207036D01*
X33607163Y-45313241D01*
X33450120Y-45548273D01*
X33341947Y-45809426D01*
X33286800Y-46086665D01*
X33286800Y-46369335D01*
X33341947Y-46646574D01*
X33450120Y-46907727D01*
X33607163Y-47142759D01*
X33807041Y-47342637D01*
X34042073Y-47499680D01*
X34303226Y-47607853D01*
X34580465Y-47663000D01*
X34863135Y-47663000D01*
X35140374Y-47607853D01*
X35401527Y-47499680D01*
X35636559Y-47342637D01*
X35836437Y-47142759D01*
X35993480Y-46907727D01*
X36101653Y-46646574D01*
X36156800Y-46369335D01*
X36156800Y-46086665D01*
X36101653Y-45809426D01*
X35993480Y-45548273D01*
X35836437Y-45313241D01*
X35636559Y-45113363D01*
X35401527Y-44956320D01*
X35368813Y-44942770D01*
X35358091Y-44874349D01*
X36067288Y-44874349D01*
X36067288Y-45078227D01*
X36107062Y-45278186D01*
X36185083Y-45466544D01*
X36298351Y-45636062D01*
X36442514Y-45780225D01*
X36538299Y-45844226D01*
X36722430Y-46322426D01*
X36737322Y-46371702D01*
X36771408Y-46435633D01*
X36803948Y-46500376D01*
X36835595Y-46540978D01*
X37399186Y-47386364D01*
X37412906Y-47413760D01*
X37444867Y-47454885D01*
X37450813Y-47463805D01*
X37470130Y-47487393D01*
X37514223Y-47544130D01*
X37522377Y-47551193D01*
X37529213Y-47559540D01*
X37584720Y-47605191D01*
X37607758Y-47625145D01*
X37616506Y-47631333D01*
X37656736Y-47664419D01*
X37683745Y-47678892D01*
X38637032Y-48353168D01*
X38656448Y-48371224D01*
X38704269Y-48400726D01*
X38716381Y-48409293D01*
X38739312Y-48422345D01*
X38796969Y-48457915D01*
X38810952Y-48463121D01*
X38823923Y-48470504D01*
X38888221Y-48491890D01*
X38912934Y-48501091D01*
X38927269Y-48504877D01*
X38980595Y-48522614D01*
X39006909Y-48525914D01*
X39044631Y-48535878D01*
X39113783Y-48702826D01*
X39270826Y-48937858D01*
X39470704Y-49137736D01*
X39705736Y-49294779D01*
X39966889Y-49402952D01*
X40244128Y-49458099D01*
X40526798Y-49458099D01*
X40804037Y-49402952D01*
X41065190Y-49294779D01*
X41201113Y-49203958D01*
X41213632Y-50581069D01*
X41147641Y-50625163D01*
X40947763Y-50825041D01*
X40790720Y-51060073D01*
X40682547Y-51321226D01*
X40627400Y-51598465D01*
X40627400Y-51881135D01*
X40682547Y-52158374D01*
X40790720Y-52419527D01*
X40947763Y-52654559D01*
X41147641Y-52854437D01*
X41382673Y-53011480D01*
X41643826Y-53119653D01*
X41921065Y-53174800D01*
X42203735Y-53174800D01*
X42480974Y-53119653D01*
X42742127Y-53011480D01*
X42977159Y-52854437D01*
X43152858Y-52678738D01*
X60635000Y-52678738D01*
X60635000Y-53493262D01*
X60793906Y-54292135D01*
X61105611Y-55044657D01*
X61558136Y-55721909D01*
X62134091Y-56297864D01*
X62811343Y-56750389D01*
X63563865Y-57062094D01*
X64362738Y-57221000D01*
X65177262Y-57221000D01*
X65976135Y-57062094D01*
X66728657Y-56750389D01*
X67405909Y-56297864D01*
X67981864Y-55721909D01*
X68434389Y-55044657D01*
X68746094Y-54292135D01*
X68905000Y-53493262D01*
X68905000Y-52678738D01*
X68746094Y-51879865D01*
X68434389Y-51127343D01*
X67981864Y-50450091D01*
X67405909Y-49874136D01*
X66728657Y-49421611D01*
X65976135Y-49109906D01*
X65177262Y-48951000D01*
X64362738Y-48951000D01*
X63563865Y-49109906D01*
X62811343Y-49421611D01*
X62134091Y-49874136D01*
X61558136Y-50450091D01*
X61105611Y-51127343D01*
X60793906Y-51879865D01*
X60635000Y-52678738D01*
X43152858Y-52678738D01*
X43177037Y-52654559D01*
X43334080Y-52419527D01*
X43442253Y-52158374D01*
X43497400Y-51881135D01*
X43497400Y-51598465D01*
X43442253Y-51321226D01*
X43334080Y-51060073D01*
X43177037Y-50825041D01*
X42977159Y-50625163D01*
X42889972Y-50566906D01*
X42875783Y-49006094D01*
X42878006Y-48991640D01*
X42875034Y-48923691D01*
X42874791Y-48897013D01*
X42873234Y-48882552D01*
X42872598Y-48868017D01*
X42868824Y-48841600D01*
X42861543Y-48773982D01*
X42857171Y-48760027D01*
X42818261Y-48487661D01*
X42878177Y-48505836D01*
X43088994Y-48526600D01*
X43229978Y-48526600D01*
X43440795Y-48505836D01*
X43711294Y-48423782D01*
X43960587Y-48290532D01*
X44179094Y-48111208D01*
X44358418Y-47892701D01*
X44491668Y-47643408D01*
X44573722Y-47372909D01*
X44601429Y-47091600D01*
X44573722Y-46810291D01*
X44491668Y-46539792D01*
X44484105Y-46525642D01*
X44538155Y-46436677D01*
X45695097Y-46108877D01*
X47752393Y-45794232D01*
X49921428Y-45727148D01*
X49825947Y-45957659D01*
X49753520Y-46321775D01*
X49753520Y-46479008D01*
X49351141Y-46671284D01*
X49213322Y-46597618D01*
X48942823Y-46515564D01*
X48732006Y-46494800D01*
X48591022Y-46494800D01*
X48380205Y-46515564D01*
X48109706Y-46597618D01*
X47860413Y-46730868D01*
X47641906Y-46910192D01*
X47462582Y-47128699D01*
X47329332Y-47377992D01*
X47247278Y-47648491D01*
X47219571Y-47929800D01*
X47247278Y-48211109D01*
X47329332Y-48481608D01*
X47462582Y-48730901D01*
X47641906Y-48949408D01*
X47860413Y-49128732D01*
X48109706Y-49261982D01*
X48380205Y-49344036D01*
X48591022Y-49364800D01*
X48732006Y-49364800D01*
X48942823Y-49344036D01*
X49213322Y-49261982D01*
X49462615Y-49128732D01*
X49681122Y-48949408D01*
X49860446Y-48730901D01*
X49993696Y-48481608D01*
X50075750Y-48211109D01*
X50078656Y-48181604D01*
X50470945Y-47994150D01*
X50745469Y-48177582D01*
X51088459Y-48319653D01*
X51452575Y-48392080D01*
X51823825Y-48392080D01*
X52187941Y-48319653D01*
X52530931Y-48177582D01*
X52839613Y-47971326D01*
X53102126Y-47708813D01*
X53308382Y-47400131D01*
X53450453Y-47057141D01*
X53522880Y-46693025D01*
X53522880Y-46321775D01*
X53450453Y-45957659D01*
X53308382Y-45614669D01*
X53102126Y-45305987D01*
X52839613Y-45043474D01*
X52530931Y-44837218D01*
X52187941Y-44695147D01*
X51980881Y-44653960D01*
X51987129Y-44629820D01*
X52367598Y-43417078D01*
X52375218Y-43401685D01*
X52392264Y-43338455D01*
X52399489Y-43315425D01*
X52402980Y-43298706D01*
X52407427Y-43282209D01*
X52411396Y-43258394D01*
X52424779Y-43194295D01*
X52424942Y-43177121D01*
X52552307Y-42412928D01*
X52597327Y-42394280D01*
X52832359Y-42237237D01*
X53032237Y-42037359D01*
X53060144Y-41995594D01*
X53069238Y-42048852D01*
X53075669Y-42114149D01*
X53086464Y-42149735D01*
X53092723Y-42186391D01*
X53116171Y-42247666D01*
X53135217Y-42310453D01*
X53176873Y-42388386D01*
X53917774Y-43870189D01*
X53944858Y-43934209D01*
X53992312Y-44004086D01*
X54037321Y-44075586D01*
X54049863Y-44088830D01*
X54060105Y-44103912D01*
X54120259Y-44163169D01*
X54178371Y-44224535D01*
X54193261Y-44235081D01*
X54206245Y-44247872D01*
X54276810Y-44294260D01*
X54345772Y-44343105D01*
X54362426Y-44350541D01*
X54377663Y-44360557D01*
X54455960Y-44392301D01*
X54533087Y-44426737D01*
X54550864Y-44430779D01*
X54567769Y-44437633D01*
X54650766Y-44453495D01*
X54733119Y-44472220D01*
X54802599Y-44474112D01*
X57538607Y-44722840D01*
X58177214Y-44812245D01*
X59941887Y-46292981D01*
X60045127Y-46363604D01*
X60160160Y-46412729D01*
X60282567Y-46438469D01*
X60407644Y-46439833D01*
X60530583Y-46416770D01*
X60646661Y-46370166D01*
X60743469Y-46306996D01*
X61231949Y-46306996D01*
X61231949Y-46678246D01*
X61304376Y-47042362D01*
X61446447Y-47385352D01*
X61652703Y-47694034D01*
X61915216Y-47956547D01*
X62223898Y-48162803D01*
X62566888Y-48304874D01*
X62931004Y-48377301D01*
X63302254Y-48377301D01*
X63666370Y-48304874D01*
X64009360Y-48162803D01*
X64318042Y-47956547D01*
X64580555Y-47694034D01*
X64786811Y-47385352D01*
X64928882Y-47042362D01*
X65001309Y-46678246D01*
X65001309Y-46306996D01*
X64928882Y-45942880D01*
X64786811Y-45599890D01*
X64580555Y-45291208D01*
X64318042Y-45028695D01*
X64009360Y-44822439D01*
X63666370Y-44680368D01*
X63302254Y-44607941D01*
X62931004Y-44607941D01*
X62566888Y-44680368D01*
X62223898Y-44822439D01*
X61915216Y-45028695D01*
X61652703Y-45291208D01*
X61446447Y-45599890D01*
X61304376Y-45942880D01*
X61231949Y-46306996D01*
X60743469Y-46306996D01*
X60751416Y-46301811D01*
X60840824Y-46214334D01*
X62447381Y-44299713D01*
X62518004Y-44196473D01*
X62567129Y-44081440D01*
X62592869Y-43959033D01*
X62594233Y-43833956D01*
X62571170Y-43711017D01*
X62524566Y-43594939D01*
X62456211Y-43490184D01*
X62368734Y-43400776D01*
X61250634Y-42462579D01*
X62806704Y-42462579D01*
X62806704Y-42705853D01*
X62854164Y-42944452D01*
X62947261Y-43169208D01*
X63082417Y-43371483D01*
X63254437Y-43543503D01*
X63456712Y-43678659D01*
X63681468Y-43771756D01*
X63920067Y-43819216D01*
X64163341Y-43819216D01*
X64401940Y-43771756D01*
X64626696Y-43678659D01*
X64828971Y-43543503D01*
X65000991Y-43371483D01*
X65136147Y-43169208D01*
X65229244Y-42944452D01*
X65276704Y-42705853D01*
X65276704Y-42462579D01*
X65229244Y-42223980D01*
X65136147Y-41999224D01*
X65077674Y-41911713D01*
X65132677Y-41893708D01*
X65241679Y-41832351D01*
X65336615Y-41750909D01*
X65413840Y-41652510D01*
X65470384Y-41540936D01*
X65504074Y-41420474D01*
X65555618Y-41110464D01*
X65426846Y-40926559D01*
X64492017Y-40761724D01*
X64488544Y-40781420D01*
X64238403Y-40737313D01*
X64241876Y-40717617D01*
X63307047Y-40552782D01*
X63123142Y-40681553D01*
X63065548Y-40990496D01*
X63056006Y-41115215D01*
X63070979Y-41239400D01*
X63109892Y-41358277D01*
X63171249Y-41467279D01*
X63252691Y-41562215D01*
X63296656Y-41596719D01*
X63254437Y-41624929D01*
X63082417Y-41796949D01*
X62947261Y-41999224D01*
X62854164Y-42223980D01*
X62806704Y-42462579D01*
X61250634Y-42462579D01*
X60454113Y-41794219D01*
X60350873Y-41723596D01*
X60235840Y-41674471D01*
X60113433Y-41648731D01*
X59988356Y-41647367D01*
X59865417Y-41670430D01*
X59749339Y-41717034D01*
X59644584Y-41785389D01*
X59555176Y-41872866D01*
X58782374Y-42793857D01*
X57828026Y-42660248D01*
X57803226Y-42655508D01*
X57777405Y-42653161D01*
X57751729Y-42649566D01*
X57726503Y-42648533D01*
X55536019Y-42449399D01*
X55368971Y-42115302D01*
X56104503Y-42115302D01*
X56176086Y-42359271D01*
X56431596Y-42480171D01*
X56705784Y-42548900D01*
X56988112Y-42562817D01*
X57267730Y-42521387D01*
X57533892Y-42426203D01*
X57659114Y-42359271D01*
X57730697Y-42115302D01*
X56917600Y-41302205D01*
X56104503Y-42115302D01*
X55368971Y-42115302D01*
X55143400Y-41664161D01*
X55143400Y-41193112D01*
X55477383Y-41193112D01*
X55518813Y-41472730D01*
X55613997Y-41738892D01*
X55680929Y-41864114D01*
X55924898Y-41935697D01*
X56737995Y-41122600D01*
X57097205Y-41122600D01*
X57910302Y-41935697D01*
X58154271Y-41864114D01*
X58275171Y-41608604D01*
X58343900Y-41334416D01*
X58357817Y-41052088D01*
X58316387Y-40772470D01*
X58223090Y-40511583D01*
X64536124Y-40511583D01*
X65470953Y-40676418D01*
X65654858Y-40547647D01*
X65712452Y-40238704D01*
X65721994Y-40113985D01*
X65707021Y-39989800D01*
X65668108Y-39870923D01*
X65606751Y-39761921D01*
X65525309Y-39666985D01*
X65426910Y-39589760D01*
X65315336Y-39533216D01*
X65194874Y-39499526D01*
X64884864Y-39447982D01*
X64700959Y-39576754D01*
X64536124Y-40511583D01*
X58223090Y-40511583D01*
X58221203Y-40506308D01*
X58154271Y-40381086D01*
X57910302Y-40309503D01*
X57097205Y-41122600D01*
X56737995Y-41122600D01*
X55924898Y-40309503D01*
X55680929Y-40381086D01*
X55560029Y-40636596D01*
X55491300Y-40910784D01*
X55477383Y-41193112D01*
X55143400Y-41193112D01*
X55143400Y-40691141D01*
X55148437Y-40640000D01*
X55143400Y-40588858D01*
X55143400Y-40588848D01*
X55128331Y-40435850D01*
X55068783Y-40239546D01*
X55066994Y-40236198D01*
X55010175Y-40129898D01*
X56104503Y-40129898D01*
X56917600Y-40942995D01*
X57730697Y-40129898D01*
X57705971Y-40045624D01*
X58851611Y-40045624D01*
X59018537Y-40236198D01*
X59158407Y-40243839D01*
X59438516Y-40217867D01*
X59708175Y-40137746D01*
X59744234Y-40118736D01*
X63222382Y-40118736D01*
X63351154Y-40302641D01*
X64285983Y-40467476D01*
X64450818Y-39532647D01*
X64322047Y-39348742D01*
X64013104Y-39291148D01*
X63888385Y-39281606D01*
X63764200Y-39296579D01*
X63645323Y-39335492D01*
X63536321Y-39396849D01*
X63441385Y-39478291D01*
X63364160Y-39576690D01*
X63307616Y-39688264D01*
X63273926Y-39808726D01*
X63222382Y-40118736D01*
X59744234Y-40118736D01*
X59957023Y-40006557D01*
X60175494Y-39829342D01*
X60355195Y-39612909D01*
X60317166Y-39362778D01*
X59242511Y-38971636D01*
X58851611Y-40045624D01*
X57705971Y-40045624D01*
X57659114Y-39885929D01*
X57403604Y-39765029D01*
X57129416Y-39696300D01*
X56847088Y-39682383D01*
X56567470Y-39723813D01*
X56301308Y-39818997D01*
X56176086Y-39885929D01*
X56104503Y-40129898D01*
X55010175Y-40129898D01*
X54972081Y-40058630D01*
X54874550Y-39939788D01*
X54874547Y-39939785D01*
X54841943Y-39900057D01*
X54802214Y-39867452D01*
X54166744Y-39231982D01*
X54194541Y-39226453D01*
X54537531Y-39084382D01*
X54750480Y-38942093D01*
X57737800Y-38942093D01*
X57791247Y-39218279D01*
X57897549Y-39478732D01*
X58052619Y-39713442D01*
X58250500Y-39913388D01*
X58362558Y-39997442D01*
X58612930Y-39958751D01*
X59003829Y-38884762D01*
X58586740Y-38732954D01*
X59329385Y-38732954D01*
X60404040Y-39124096D01*
X60593952Y-38956929D01*
X60595414Y-38675623D01*
X60541967Y-38399437D01*
X60484029Y-38257480D01*
X62323448Y-38257480D01*
X62335708Y-38381962D01*
X62372018Y-38501660D01*
X62430983Y-38611974D01*
X62510335Y-38708665D01*
X62607026Y-38788017D01*
X62717340Y-38846982D01*
X62837038Y-38883292D01*
X62961520Y-38895552D01*
X63925450Y-38892480D01*
X64084200Y-38733730D01*
X64084200Y-37134800D01*
X64338200Y-37134800D01*
X64338200Y-38733730D01*
X64496950Y-38892480D01*
X65460880Y-38895552D01*
X65585362Y-38883292D01*
X65705060Y-38846982D01*
X65815374Y-38788017D01*
X65912065Y-38708665D01*
X65991417Y-38611974D01*
X66050382Y-38501660D01*
X66086692Y-38381962D01*
X66092678Y-38321177D01*
X66887429Y-38321177D01*
X67013304Y-38611115D01*
X67345462Y-38776939D01*
X67703587Y-38874775D01*
X68073919Y-38900865D01*
X68442225Y-38854205D01*
X68794351Y-38736589D01*
X69029096Y-38611115D01*
X69154971Y-38321177D01*
X68021200Y-37187405D01*
X66887429Y-38321177D01*
X66092678Y-38321177D01*
X66098952Y-38257480D01*
X66095880Y-37293550D01*
X65937130Y-37134800D01*
X64338200Y-37134800D01*
X64084200Y-37134800D01*
X62485270Y-37134800D01*
X62326520Y-37293550D01*
X62323448Y-38257480D01*
X60484029Y-38257480D01*
X60435665Y-38138984D01*
X60280595Y-37904274D01*
X60082714Y-37704328D01*
X59970656Y-37620274D01*
X59720284Y-37658965D01*
X59329385Y-38732954D01*
X58586740Y-38732954D01*
X57929174Y-38493620D01*
X57739262Y-38660787D01*
X57737800Y-38942093D01*
X54750480Y-38942093D01*
X54846213Y-38878126D01*
X55108726Y-38615613D01*
X55314982Y-38306931D01*
X55440125Y-38004807D01*
X57978019Y-38004807D01*
X58016048Y-38254938D01*
X59090703Y-38646080D01*
X59481603Y-37572092D01*
X59314677Y-37381518D01*
X59174807Y-37373877D01*
X58894698Y-37399849D01*
X58625039Y-37479970D01*
X58376191Y-37611159D01*
X58157720Y-37788374D01*
X57978019Y-38004807D01*
X55440125Y-38004807D01*
X55457053Y-37963941D01*
X55529480Y-37599825D01*
X55529480Y-37228575D01*
X55496052Y-37060519D01*
X66128135Y-37060519D01*
X66174795Y-37428825D01*
X66292411Y-37780951D01*
X66417885Y-38015696D01*
X66707823Y-38141571D01*
X67841595Y-37007800D01*
X66707823Y-35874029D01*
X66417885Y-35999904D01*
X66252061Y-36332062D01*
X66154225Y-36690187D01*
X66128135Y-37060519D01*
X55496052Y-37060519D01*
X55457053Y-36864459D01*
X55314982Y-36521469D01*
X55108726Y-36212787D01*
X54846213Y-35950274D01*
X54558637Y-35758120D01*
X62323448Y-35758120D01*
X62326520Y-36722050D01*
X62485270Y-36880800D01*
X64084200Y-36880800D01*
X64084200Y-35281870D01*
X64338200Y-35281870D01*
X64338200Y-36880800D01*
X65937130Y-36880800D01*
X66095880Y-36722050D01*
X66098952Y-35758120D01*
X66092679Y-35694423D01*
X66887429Y-35694423D01*
X68021200Y-36828195D01*
X69154971Y-35694423D01*
X69029096Y-35404485D01*
X68696938Y-35238661D01*
X68338813Y-35140825D01*
X67968481Y-35114735D01*
X67600175Y-35161395D01*
X67248049Y-35279011D01*
X67013304Y-35404485D01*
X66887429Y-35694423D01*
X66092679Y-35694423D01*
X66086692Y-35633638D01*
X66050382Y-35513940D01*
X65991417Y-35403626D01*
X65912065Y-35306935D01*
X65815374Y-35227583D01*
X65705060Y-35168618D01*
X65585362Y-35132308D01*
X65460880Y-35120048D01*
X64496950Y-35123120D01*
X64338200Y-35281870D01*
X64084200Y-35281870D01*
X63925450Y-35123120D01*
X62961520Y-35120048D01*
X62837038Y-35132308D01*
X62717340Y-35168618D01*
X62607026Y-35227583D01*
X62510335Y-35306935D01*
X62430983Y-35403626D01*
X62372018Y-35513940D01*
X62335708Y-35633638D01*
X62323448Y-35758120D01*
X54558637Y-35758120D01*
X54537531Y-35744018D01*
X54440438Y-35703801D01*
X54421558Y-34949750D01*
X54574043Y-34824609D01*
X54753367Y-34606102D01*
X54886617Y-34356809D01*
X54938128Y-34186997D01*
X54971818Y-34268331D01*
X55178074Y-34577013D01*
X55440587Y-34839526D01*
X55749269Y-35045782D01*
X56092259Y-35187853D01*
X56456375Y-35260280D01*
X56827625Y-35260280D01*
X57191741Y-35187853D01*
X57534731Y-35045782D01*
X57843413Y-34839526D01*
X58105926Y-34577013D01*
X58243470Y-34371164D01*
X65420641Y-34371164D01*
X65467948Y-34594748D01*
X65689316Y-34695637D01*
X65926113Y-34751400D01*
X66169238Y-34759895D01*
X66409349Y-34720795D01*
X66637218Y-34635602D01*
X66713652Y-34594748D01*
X66760959Y-34371164D01*
X66090800Y-33701005D01*
X65420641Y-34371164D01*
X58243470Y-34371164D01*
X58312182Y-34268331D01*
X58454253Y-33925341D01*
X58512962Y-33630190D01*
X58603125Y-33599838D01*
X64852305Y-33599838D01*
X64891405Y-33839949D01*
X64976598Y-34067818D01*
X65017452Y-34144252D01*
X65241036Y-34191559D01*
X65911195Y-33521400D01*
X65897053Y-33507258D01*
X66076658Y-33327653D01*
X66090800Y-33341795D01*
X66104943Y-33327653D01*
X66284548Y-33507258D01*
X66270405Y-33521400D01*
X66940564Y-34191559D01*
X67164148Y-34144252D01*
X67265037Y-33922884D01*
X67320800Y-33686087D01*
X67329295Y-33442962D01*
X67290195Y-33202851D01*
X67205002Y-32974982D01*
X67164148Y-32898548D01*
X66940566Y-32851242D01*
X67057672Y-32734136D01*
X66999794Y-32676258D01*
X67045294Y-32651937D01*
X67141985Y-32572585D01*
X67221337Y-32475894D01*
X67280302Y-32365580D01*
X67316612Y-32245882D01*
X67328872Y-32121400D01*
X67328872Y-30921400D01*
X67316612Y-30796918D01*
X67280302Y-30677220D01*
X67221337Y-30566906D01*
X67141985Y-30470215D01*
X67045294Y-30390863D01*
X66934980Y-30331898D01*
X66815282Y-30295588D01*
X66690800Y-30283328D01*
X65490800Y-30283328D01*
X65366318Y-30295588D01*
X65246620Y-30331898D01*
X65136306Y-30390863D01*
X65039615Y-30470215D01*
X64960263Y-30566906D01*
X64901298Y-30677220D01*
X64864988Y-30796918D01*
X64852728Y-30921400D01*
X64852728Y-32121400D01*
X64864988Y-32245882D01*
X64901298Y-32365580D01*
X64960263Y-32475894D01*
X65039615Y-32572585D01*
X65136306Y-32651937D01*
X65181806Y-32676258D01*
X65123928Y-32734136D01*
X65241034Y-32851242D01*
X65017452Y-32898548D01*
X64916563Y-33119916D01*
X64860800Y-33356713D01*
X64852305Y-33599838D01*
X58603125Y-33599838D01*
X60935390Y-32814720D01*
X61093073Y-32920080D01*
X61354226Y-33028253D01*
X61631465Y-33083400D01*
X61914135Y-33083400D01*
X62191374Y-33028253D01*
X62452527Y-32920080D01*
X62687559Y-32763037D01*
X62887437Y-32563159D01*
X63044480Y-32328127D01*
X63152653Y-32066974D01*
X63207800Y-31789735D01*
X63207800Y-31507065D01*
X63152653Y-31229826D01*
X63044480Y-30968673D01*
X62887437Y-30733641D01*
X62687559Y-30533763D01*
X62452527Y-30376720D01*
X62191374Y-30268547D01*
X61914135Y-30213400D01*
X61631465Y-30213400D01*
X61354226Y-30268547D01*
X61093073Y-30376720D01*
X60858041Y-30533763D01*
X60658163Y-30733641D01*
X60501120Y-30968673D01*
X60393592Y-31228269D01*
X57974392Y-32042653D01*
X57843413Y-31911674D01*
X57554434Y-31718583D01*
X57586394Y-30997198D01*
X58717424Y-29649288D01*
X58788047Y-29546048D01*
X58837172Y-29431015D01*
X58862912Y-29308608D01*
X58864276Y-29183531D01*
X58841213Y-29060592D01*
X58794609Y-28944514D01*
X58726254Y-28839759D01*
X58638777Y-28750351D01*
X57106688Y-27464776D01*
X57003448Y-27394153D01*
X56888415Y-27345028D01*
X56766008Y-27319288D01*
X56640931Y-27317924D01*
X56517992Y-27340987D01*
X56401914Y-27387591D01*
X56297159Y-27455946D01*
X56207751Y-27543423D01*
X54922176Y-29075512D01*
X54851553Y-29178752D01*
X54802428Y-29293785D01*
X54776688Y-29416192D01*
X54775324Y-29541269D01*
X54798387Y-29664208D01*
X54844991Y-29780286D01*
X54913346Y-29885041D01*
X55000823Y-29974449D01*
X55919510Y-30745319D01*
X55879361Y-31651532D01*
X55749269Y-31705418D01*
X55440587Y-31911674D01*
X55178074Y-32174187D01*
X54971818Y-32482869D01*
X54829747Y-32825859D01*
X54783222Y-33059755D01*
X54753367Y-33003900D01*
X54574043Y-32785393D01*
X54355536Y-32606069D01*
X54106243Y-32472819D01*
X53835744Y-32390765D01*
X53624927Y-32370001D01*
X53483943Y-32370001D01*
X53273126Y-32390765D01*
X53002627Y-32472819D01*
X52753334Y-32606069D01*
X52534827Y-32785393D01*
X52355503Y-33003900D01*
X52222253Y-33253193D01*
X52140199Y-33523692D01*
X52112492Y-33805001D01*
X52140199Y-34086310D01*
X52222253Y-34356809D01*
X52355503Y-34606102D01*
X52534827Y-34824609D01*
X52745837Y-34997781D01*
X52764393Y-35738913D01*
X52752069Y-35744018D01*
X52443387Y-35950274D01*
X52180874Y-36212787D01*
X51974618Y-36521469D01*
X51832547Y-36864459D01*
X51760120Y-37228575D01*
X51760120Y-37599825D01*
X51809219Y-37846661D01*
X51699730Y-37780968D01*
X51060050Y-37141289D01*
X51022866Y-37097090D01*
X50947745Y-37036958D01*
X50873369Y-36975919D01*
X50867718Y-36972899D01*
X50862718Y-36968896D01*
X50777325Y-36924582D01*
X50692455Y-36879218D01*
X50637184Y-36862452D01*
X49427806Y-36378700D01*
X49399846Y-36366217D01*
X49380352Y-36359719D01*
X49361272Y-36352087D01*
X49331866Y-36343557D01*
X47911061Y-35869956D01*
X47898454Y-35863217D01*
X47813875Y-35837560D01*
X47778792Y-35825866D01*
X47764944Y-35822717D01*
X47702150Y-35803669D01*
X47665134Y-35800023D01*
X47628880Y-35791780D01*
X47563306Y-35789994D01*
X47549152Y-35788600D01*
X47512122Y-35788600D01*
X47423820Y-35786195D01*
X47409736Y-35788600D01*
X47329885Y-35788600D01*
X47430053Y-35546774D01*
X47485200Y-35269535D01*
X47485200Y-34986865D01*
X47430053Y-34709626D01*
X47321880Y-34448473D01*
X47175608Y-34229561D01*
X47581562Y-32794983D01*
X47786253Y-32732891D01*
X48070290Y-32581070D01*
X48319252Y-32376753D01*
X48523569Y-32127791D01*
X48675390Y-31843754D01*
X48746566Y-31609119D01*
X49884080Y-31264219D01*
X50055787Y-31435926D01*
X50364469Y-31642182D01*
X50707459Y-31784253D01*
X51071575Y-31856680D01*
X51442825Y-31856680D01*
X51806941Y-31784253D01*
X52149931Y-31642182D01*
X52458613Y-31435926D01*
X52721126Y-31173413D01*
X52927382Y-30864731D01*
X53069453Y-30521741D01*
X53141880Y-30157625D01*
X53141880Y-29786375D01*
X53069453Y-29422259D01*
X52927382Y-29079269D01*
X52721126Y-28770587D01*
X52698077Y-28747538D01*
X53141666Y-27718935D01*
X53248810Y-27708382D01*
X53557009Y-27614891D01*
X53841046Y-27463070D01*
X54090008Y-27258753D01*
X54294325Y-27009791D01*
X54329319Y-26944320D01*
X62272648Y-26944320D01*
X62272648Y-29443680D01*
X62284908Y-29568162D01*
X62321218Y-29687860D01*
X62380183Y-29798174D01*
X62459535Y-29894865D01*
X62556226Y-29974217D01*
X62666540Y-30033182D01*
X62786238Y-30069492D01*
X62910720Y-30081752D01*
X65410080Y-30081752D01*
X65534562Y-30069492D01*
X65654260Y-30033182D01*
X65764574Y-29974217D01*
X65861265Y-29894865D01*
X65940617Y-29798174D01*
X65999582Y-29687860D01*
X66035892Y-29568162D01*
X66048152Y-29443680D01*
X66048152Y-26944320D01*
X66035892Y-26819838D01*
X65999582Y-26700140D01*
X65940617Y-26589826D01*
X65861265Y-26493135D01*
X65764574Y-26413783D01*
X65654260Y-26354818D01*
X65534562Y-26318508D01*
X65410080Y-26306248D01*
X62910720Y-26306248D01*
X62786238Y-26318508D01*
X62666540Y-26354818D01*
X62556226Y-26413783D01*
X62459535Y-26493135D01*
X62380183Y-26589826D01*
X62321218Y-26700140D01*
X62284908Y-26819838D01*
X62272648Y-26944320D01*
X54329319Y-26944320D01*
X54446146Y-26725754D01*
X54539637Y-26417555D01*
X54571205Y-26097039D01*
X54539637Y-25776523D01*
X54446146Y-25468324D01*
X54294325Y-25184287D01*
X54090008Y-24935325D01*
X53841046Y-24731008D01*
X53557009Y-24579187D01*
X53248810Y-24485696D01*
X53008616Y-24462039D01*
X52847972Y-24462039D01*
X52607778Y-24485696D01*
X52299579Y-24579187D01*
X52015542Y-24731008D01*
X51766580Y-24935325D01*
X51562263Y-25184287D01*
X51410442Y-25468324D01*
X51316951Y-25776523D01*
X51285383Y-26097039D01*
X51316951Y-26417555D01*
X51410442Y-26725754D01*
X51562263Y-27009791D01*
X51601319Y-27057381D01*
X51157154Y-28087320D01*
X51071575Y-28087320D01*
X50707459Y-28159747D01*
X50364469Y-28301818D01*
X50055787Y-28508074D01*
X49793274Y-28770587D01*
X49587018Y-29079269D01*
X49444947Y-29422259D01*
X49397670Y-29659938D01*
X48260166Y-30004835D01*
X48070290Y-29849008D01*
X47786253Y-29697187D01*
X47478054Y-29603696D01*
X47277395Y-29583933D01*
X46015422Y-27066904D01*
X46975822Y-27066904D01*
X46993501Y-27190732D01*
X47034997Y-27308733D01*
X47098717Y-27416370D01*
X47182212Y-27509508D01*
X47282272Y-27584567D01*
X47395053Y-27638663D01*
X49274438Y-28322704D01*
X49395606Y-28353759D01*
X49520504Y-28360578D01*
X49644332Y-28342899D01*
X49762333Y-28301403D01*
X49869970Y-28237683D01*
X49963108Y-28154188D01*
X50038167Y-28054128D01*
X50092263Y-27941347D01*
X50776304Y-26061962D01*
X50807359Y-25940794D01*
X50814178Y-25815896D01*
X50796499Y-25692068D01*
X50755003Y-25574067D01*
X50691283Y-25466430D01*
X50648753Y-25418988D01*
X50922058Y-25033999D01*
X50983327Y-25033999D01*
X51194144Y-25013235D01*
X51464643Y-24931181D01*
X51713936Y-24797931D01*
X51932443Y-24618607D01*
X52111767Y-24400100D01*
X52245017Y-24150807D01*
X52327071Y-23880308D01*
X52354778Y-23598999D01*
X52327071Y-23317690D01*
X52245017Y-23047191D01*
X52111767Y-22797898D01*
X51932443Y-22579391D01*
X51713936Y-22400067D01*
X51464643Y-22266817D01*
X51194144Y-22184763D01*
X51130134Y-22178458D01*
X50459895Y-20862130D01*
X50615982Y-20628531D01*
X50758053Y-20285541D01*
X50830480Y-19921425D01*
X50830480Y-19550175D01*
X50758053Y-19186059D01*
X50615982Y-18843069D01*
X50409726Y-18534387D01*
X50147213Y-18271874D01*
X49838531Y-18065618D01*
X49495541Y-17923547D01*
X49131425Y-17851120D01*
X48760175Y-17851120D01*
X48396059Y-17923547D01*
X48053069Y-18065618D01*
X47744387Y-18271874D01*
X47481874Y-18534387D01*
X47275618Y-18843069D01*
X47133547Y-19186059D01*
X47061120Y-19550175D01*
X47061120Y-19921425D01*
X47133547Y-20285541D01*
X47275618Y-20628531D01*
X47481874Y-20937213D01*
X47744387Y-21199726D01*
X48053069Y-21405982D01*
X48396059Y-21548053D01*
X48760175Y-21620480D01*
X48964828Y-21620480D01*
X49637304Y-22941204D01*
X49580653Y-23047191D01*
X49498599Y-23317690D01*
X49470892Y-23598999D01*
X49498599Y-23880308D01*
X49554462Y-24064465D01*
X49061539Y-24758816D01*
X48515562Y-24560096D01*
X48394394Y-24529041D01*
X48269496Y-24522222D01*
X48145668Y-24539901D01*
X48027667Y-24581397D01*
X47920030Y-24645117D01*
X47826892Y-24728612D01*
X47751833Y-24828672D01*
X47697737Y-24941453D01*
X47013696Y-26820838D01*
X46982641Y-26942006D01*
X46975822Y-27066904D01*
X46015422Y-27066904D01*
X45545962Y-26130558D01*
X45606781Y-26016773D01*
X45688835Y-25746274D01*
X45716542Y-25464965D01*
X45688835Y-25183656D01*
X45606781Y-24913157D01*
X45473531Y-24663864D01*
X45294207Y-24445357D01*
X45075700Y-24266033D01*
X44826407Y-24132783D01*
X44555908Y-24050729D01*
X44345091Y-24029965D01*
X44204107Y-24029965D01*
X43993290Y-24050729D01*
X43722791Y-24132783D01*
X43473498Y-24266033D01*
X43254991Y-24445357D01*
X43075667Y-24663864D01*
X42942417Y-24913157D01*
X42860363Y-25183656D01*
X42855409Y-25233952D01*
X40319729Y-26493369D01*
X40201208Y-26430018D01*
X39930709Y-26347964D01*
X39719892Y-26327200D01*
X39578908Y-26327200D01*
X39368091Y-26347964D01*
X39097592Y-26430018D01*
X38848299Y-26563268D01*
X38629792Y-26742592D01*
X38450468Y-26961099D01*
X38317218Y-27210392D01*
X38235164Y-27480891D01*
X38207457Y-27762200D01*
X38235164Y-28043509D01*
X38317218Y-28314008D01*
X38450468Y-28563301D01*
X38629792Y-28781808D01*
X38848299Y-28961132D01*
X38981258Y-29032200D01*
X38848299Y-29103268D01*
X38629792Y-29282592D01*
X38450468Y-29501099D01*
X38317218Y-29750392D01*
X38235164Y-30020891D01*
X38207457Y-30302200D01*
X38235164Y-30583509D01*
X38317218Y-30854008D01*
X38450468Y-31103301D01*
X38629792Y-31321808D01*
X38848299Y-31501132D01*
X38981258Y-31572200D01*
X38848299Y-31643268D01*
X38629792Y-31822592D01*
X38450468Y-32041099D01*
X38317218Y-32290392D01*
X38235164Y-32560891D01*
X38207457Y-32842200D01*
X38235164Y-33123509D01*
X38317218Y-33394008D01*
X38450468Y-33643301D01*
X38629792Y-33861808D01*
X38848299Y-34041132D01*
X38981258Y-34112200D01*
X38848299Y-34183268D01*
X38629792Y-34362592D01*
X38450468Y-34581099D01*
X38317218Y-34830392D01*
X38235164Y-35100891D01*
X38207457Y-35382200D01*
X38235164Y-35663509D01*
X38317218Y-35934008D01*
X38450468Y-36183301D01*
X38629792Y-36401808D01*
X38848299Y-36581132D01*
X38981258Y-36652200D01*
X38848299Y-36723268D01*
X38629792Y-36902592D01*
X38450468Y-37121099D01*
X38317218Y-37370392D01*
X38235164Y-37640891D01*
X38207457Y-37922200D01*
X38235164Y-38203509D01*
X38317218Y-38474008D01*
X38450468Y-38723301D01*
X38629792Y-38941808D01*
X38848299Y-39121132D01*
X38981258Y-39192200D01*
X38848299Y-39263268D01*
X38629792Y-39442592D01*
X38450468Y-39661099D01*
X38317218Y-39910392D01*
X38235164Y-40180891D01*
X38207457Y-40462200D01*
X38235164Y-40743509D01*
X38317218Y-41014008D01*
X38450468Y-41263301D01*
X38629792Y-41481808D01*
X38811200Y-41630686D01*
X38811201Y-41833714D01*
X38629792Y-41982592D01*
X38450468Y-42201099D01*
X38317218Y-42450392D01*
X38235164Y-42720891D01*
X38207457Y-43002200D01*
X38235164Y-43283509D01*
X38317218Y-43554008D01*
X38450468Y-43803301D01*
X38629792Y-44021808D01*
X38848299Y-44201132D01*
X38912719Y-44235565D01*
X38938439Y-44539063D01*
X38938496Y-44547602D01*
X38941915Y-44580083D01*
X38944671Y-44612603D01*
X38946222Y-44620994D01*
X38993323Y-45068461D01*
X39001129Y-45147715D01*
X39013959Y-45190011D01*
X39022870Y-45233289D01*
X39037862Y-45268808D01*
X39049058Y-45305716D01*
X39069893Y-45344696D01*
X39087076Y-45385405D01*
X39108712Y-45417320D01*
X39126891Y-45451331D01*
X39154930Y-45485496D01*
X39179725Y-45522072D01*
X39236346Y-45577939D01*
X39816640Y-46158234D01*
X39843170Y-46185166D01*
X39845582Y-46187176D01*
X39847814Y-46189408D01*
X39877200Y-46213525D01*
X40326688Y-46588099D01*
X40244128Y-46588099D01*
X39966889Y-46643246D01*
X39705736Y-46751419D01*
X39484509Y-46899238D01*
X38736494Y-46370155D01*
X38264682Y-45662437D01*
X38104058Y-45245288D01*
X38137288Y-45078227D01*
X38137288Y-44874349D01*
X38097514Y-44674390D01*
X38019493Y-44486032D01*
X37906225Y-44316514D01*
X37762062Y-44172351D01*
X37592544Y-44059083D01*
X37404186Y-43981062D01*
X37204227Y-43941288D01*
X37000349Y-43941288D01*
X36800390Y-43981062D01*
X36612032Y-44059083D01*
X36442514Y-44172351D01*
X36298351Y-44316514D01*
X36185083Y-44486032D01*
X36107062Y-44674390D01*
X36067288Y-44874349D01*
X35358091Y-44874349D01*
X35026600Y-42759122D01*
X35026600Y-40267198D01*
X35030518Y-40218425D01*
X35021825Y-40143945D01*
X35014471Y-40069284D01*
X35012259Y-40061991D01*
X35011376Y-40054428D01*
X34988326Y-39983094D01*
X34966542Y-39911283D01*
X34943471Y-39868120D01*
X34302496Y-38396251D01*
X34301633Y-38392455D01*
X34269566Y-38320633D01*
X34254653Y-38286389D01*
X34252767Y-38283009D01*
X34234319Y-38241690D01*
X34212635Y-38211075D01*
X34194364Y-38178327D01*
X34165043Y-38143884D01*
X34138885Y-38106953D01*
X34111645Y-38081157D01*
X34087337Y-38052603D01*
X34051858Y-38024541D01*
X34018999Y-37993424D01*
X33987249Y-37973438D01*
X33957837Y-37950174D01*
X33917567Y-37929573D01*
X33914278Y-37927503D01*
X33880731Y-37910730D01*
X33810844Y-37874978D01*
X33807107Y-37873917D01*
X33448950Y-37694839D01*
X33443636Y-37640891D01*
X33361582Y-37370392D01*
X33228332Y-37121099D01*
X33049008Y-36902592D01*
X32830501Y-36723268D01*
X32697542Y-36652200D01*
X32830501Y-36581132D01*
X33049008Y-36401808D01*
X33228332Y-36183301D01*
X33361582Y-35934008D01*
X33443636Y-35663509D01*
X33471343Y-35382200D01*
X33443636Y-35100891D01*
X33361582Y-34830392D01*
X33228332Y-34581099D01*
X33049008Y-34362592D01*
X32830501Y-34183268D01*
X32697542Y-34112200D01*
X32830501Y-34041132D01*
X33049008Y-33861808D01*
X33228332Y-33643301D01*
X33361582Y-33394008D01*
X33443636Y-33123509D01*
X33471343Y-32842200D01*
X33443636Y-32560891D01*
X33361582Y-32290392D01*
X33228332Y-32041099D01*
X33049008Y-31822592D01*
X32830501Y-31643268D01*
X32697542Y-31572200D01*
X32830501Y-31501132D01*
X33049008Y-31321808D01*
X33228332Y-31103301D01*
X33361582Y-30854008D01*
X33371880Y-30820061D01*
X34268830Y-30587518D01*
X34321214Y-30577776D01*
X34386840Y-30551548D01*
X34453169Y-30527197D01*
X34463401Y-30520949D01*
X34474533Y-30516500D01*
X34533774Y-30477978D01*
X34594086Y-30441149D01*
X34602902Y-30433025D01*
X34612952Y-30426490D01*
X34663549Y-30377141D01*
X34715507Y-30329263D01*
X34722567Y-30319579D01*
X34731151Y-30311206D01*
X34771137Y-30252950D01*
X34812768Y-30195841D01*
X34817806Y-30184957D01*
X34824588Y-30175077D01*
X34852432Y-30110159D01*
X34882130Y-30046006D01*
X34884948Y-30034348D01*
X34889672Y-30023335D01*
X34904317Y-29954230D01*
X34920928Y-29885518D01*
X34923104Y-29832278D01*
X35063739Y-28566567D01*
X35065271Y-28561516D01*
X35072849Y-28484572D01*
X35076819Y-28448846D01*
X35076884Y-28443604D01*
X35077400Y-28438370D01*
X35077400Y-28402316D01*
X35078364Y-28325113D01*
X35077400Y-28319929D01*
X35077400Y-27348823D01*
X35079584Y-27335692D01*
X35077400Y-27266431D01*
X35077400Y-27238430D01*
X35076101Y-27225244D01*
X35075684Y-27212011D01*
X35072066Y-27184271D01*
X35065271Y-27115284D01*
X35061405Y-27102540D01*
X34924347Y-26051761D01*
X34923950Y-26018617D01*
X34913697Y-25970111D01*
X34912634Y-25961964D01*
X34905183Y-25929835D01*
X34889803Y-25857076D01*
X34886546Y-25849472D01*
X34884679Y-25841421D01*
X34854085Y-25773682D01*
X34841084Y-25743329D01*
X34837122Y-25736125D01*
X34816717Y-25690947D01*
X34797444Y-25663983D01*
X34545259Y-25205466D01*
X34580782Y-25139008D01*
X34662836Y-24868509D01*
X34690543Y-24587200D01*
X34676623Y-24445865D01*
X39433600Y-24445865D01*
X39433600Y-24728535D01*
X39488747Y-25005774D01*
X39596920Y-25266927D01*
X39753963Y-25501959D01*
X39953841Y-25701837D01*
X40188873Y-25858880D01*
X40450026Y-25967053D01*
X40727265Y-26022200D01*
X41009935Y-26022200D01*
X41287174Y-25967053D01*
X41548327Y-25858880D01*
X41783359Y-25701837D01*
X41983237Y-25501959D01*
X42140280Y-25266927D01*
X42248453Y-25005774D01*
X42303600Y-24728535D01*
X42303600Y-24445865D01*
X42248453Y-24168626D01*
X42140280Y-23907473D01*
X41983237Y-23672441D01*
X41783359Y-23472563D01*
X41548327Y-23315520D01*
X41287174Y-23207347D01*
X41009935Y-23152200D01*
X40727265Y-23152200D01*
X40450026Y-23207347D01*
X40188873Y-23315520D01*
X39953841Y-23472563D01*
X39753963Y-23672441D01*
X39596920Y-23907473D01*
X39488747Y-24168626D01*
X39433600Y-24445865D01*
X34676623Y-24445865D01*
X34662836Y-24305891D01*
X34580782Y-24035392D01*
X34447532Y-23786099D01*
X34268208Y-23567592D01*
X34049701Y-23388268D01*
X33800408Y-23255018D01*
X33529909Y-23172964D01*
X33319092Y-23152200D01*
X33178108Y-23152200D01*
X32967291Y-23172964D01*
X32696792Y-23255018D01*
X32447499Y-23388268D01*
X32228992Y-23567592D01*
X32049668Y-23786099D01*
X31924508Y-24020256D01*
X30572290Y-24317744D01*
X30534801Y-24321872D01*
X30491861Y-24335438D01*
X30488295Y-24336223D01*
X30452675Y-24347819D01*
X30377360Y-24371614D01*
X30374128Y-24373390D01*
X30370631Y-24374528D01*
X30301889Y-24413076D01*
X30232650Y-24451115D01*
X30229827Y-24453486D01*
X30226618Y-24455286D01*
X30166722Y-24506501D01*
X30137905Y-24530710D01*
X30135341Y-24533334D01*
X30101128Y-24562588D01*
X30077804Y-24592209D01*
X29063898Y-25629695D01*
X29051556Y-25638825D01*
X29006286Y-25688647D01*
X28988156Y-25707199D01*
X28978616Y-25719100D01*
X28968342Y-25730407D01*
X28952841Y-25751253D01*
X28910759Y-25803749D01*
X28903681Y-25817365D01*
X28310287Y-26615378D01*
X28020719Y-26783023D01*
X27850574Y-26712547D01*
X27573335Y-26657400D01*
X27290665Y-26657400D01*
X27172292Y-26680946D01*
X27466302Y-26373572D01*
X27482815Y-26357751D01*
X27494717Y-26343865D01*
X27507375Y-26330632D01*
X27521505Y-26312612D01*
X28845381Y-24768093D01*
X30930547Y-22898378D01*
X30960691Y-22907522D01*
X31171508Y-22928286D01*
X31312492Y-22928286D01*
X31523309Y-22907522D01*
X31793808Y-22825468D01*
X32043101Y-22692218D01*
X32261608Y-22512894D01*
X32440932Y-22294387D01*
X32574182Y-22045094D01*
X32656236Y-21774595D01*
X32683943Y-21493286D01*
X32656236Y-21211977D01*
X32574182Y-20941478D01*
X32440932Y-20692185D01*
X32261608Y-20473678D01*
X32238555Y-20454759D01*
X32757030Y-20619153D01*
X33781939Y-21000515D01*
X33832804Y-21024766D01*
X33927404Y-21048775D01*
X34021817Y-21073693D01*
X34078062Y-21077167D01*
X34812551Y-21188454D01*
X35980405Y-21502876D01*
X35982981Y-21504133D01*
X36079221Y-21529481D01*
X36126056Y-21542090D01*
X36128880Y-21542560D01*
X36131649Y-21543289D01*
X36179483Y-21550977D01*
X36277711Y-21567315D01*
X36280581Y-21567224D01*
X37522969Y-21766894D01*
X38397085Y-22054352D01*
X38402624Y-22062642D01*
X38574644Y-22234662D01*
X38776919Y-22369818D01*
X39001675Y-22462915D01*
X39240274Y-22510375D01*
X39483548Y-22510375D01*
X39722147Y-22462915D01*
X39946903Y-22369818D01*
X40149178Y-22234662D01*
X40321198Y-22062642D01*
X40456354Y-21860367D01*
X40549451Y-21635611D01*
X40590875Y-21427357D01*
X40641495Y-21447680D01*
X40764434Y-21470743D01*
X40889511Y-21469379D01*
X41011918Y-21443639D01*
X41126952Y-21394514D01*
X41164704Y-21368688D01*
X41978724Y-22108707D01*
X41973600Y-22134465D01*
X41973600Y-22417135D01*
X42028747Y-22694374D01*
X42136920Y-22955527D01*
X42293963Y-23190559D01*
X42493841Y-23390437D01*
X42728873Y-23547480D01*
X42990026Y-23655653D01*
X43267265Y-23710800D01*
X43549935Y-23710800D01*
X43827174Y-23655653D01*
X44088327Y-23547480D01*
X44323359Y-23390437D01*
X44523237Y-23190559D01*
X44680280Y-22955527D01*
X44788453Y-22694374D01*
X44843600Y-22417135D01*
X44843600Y-22134465D01*
X44788453Y-21857226D01*
X44680280Y-21596073D01*
X44523237Y-21361041D01*
X44323359Y-21161163D01*
X44088327Y-21004120D01*
X43827174Y-20895947D01*
X43549935Y-20840800D01*
X43267265Y-20840800D01*
X43110480Y-20871987D01*
X42361488Y-20191086D01*
X42374943Y-20119366D01*
X42373579Y-19994289D01*
X42347839Y-19871882D01*
X42298714Y-19756848D01*
X42228090Y-19653609D01*
X41456745Y-18734356D01*
X41367338Y-18646879D01*
X41262583Y-18578524D01*
X41146505Y-18531920D01*
X41023566Y-18508857D01*
X40898489Y-18510221D01*
X40776082Y-18535961D01*
X40661048Y-18585086D01*
X40557809Y-18655710D01*
X39638556Y-19427055D01*
X39551079Y-19516462D01*
X39482724Y-19621217D01*
X39436120Y-19737295D01*
X39413057Y-19860234D01*
X39414421Y-19985311D01*
X39426000Y-20040375D01*
X39240274Y-20040375D01*
X39053196Y-20077587D01*
X38162579Y-19784702D01*
X38134220Y-19770867D01*
X38065362Y-19752731D01*
X38046538Y-19746541D01*
X38015909Y-19739707D01*
X37985551Y-19731711D01*
X37965980Y-19728566D01*
X37896490Y-19713060D01*
X37864948Y-19712328D01*
X36565981Y-19503566D01*
X35389043Y-19186698D01*
X35382196Y-19183434D01*
X35290135Y-19160069D01*
X35247943Y-19148710D01*
X35240497Y-19147472D01*
X35233182Y-19145615D01*
X35189975Y-19139068D01*
X35096288Y-19123486D01*
X35088708Y-19123725D01*
X34450757Y-19027066D01*
X33483277Y-18667073D01*
X33459716Y-18656966D01*
X33435363Y-18649244D01*
X33411430Y-18640339D01*
X33386653Y-18633800D01*
X32376772Y-18313594D01*
X32335475Y-18299833D01*
X32328047Y-18298145D01*
X32320797Y-18295846D01*
X32278261Y-18286830D01*
X30642300Y-17915021D01*
X30576569Y-17895499D01*
X30491542Y-17887624D01*
X30406783Y-17876947D01*
X30389527Y-17878175D01*
X30372305Y-17876580D01*
X30287355Y-17885447D01*
X30202164Y-17891510D01*
X30185482Y-17896080D01*
X30168276Y-17897876D01*
X30086681Y-17923147D01*
X30004316Y-17945712D01*
X29942987Y-17976384D01*
X29532991Y-18149014D01*
X29478067Y-18166757D01*
X29393999Y-18213650D01*
X29309374Y-18259519D01*
X29264972Y-18296394D01*
X28467623Y-18850109D01*
X28463173Y-18852096D01*
X28383492Y-18908533D01*
X28345376Y-18935003D01*
X28341681Y-18938148D01*
X28295772Y-18970665D01*
X28263758Y-19004472D01*
X28228303Y-19034649D01*
X28193400Y-19078769D01*
X28154721Y-19119614D01*
X28129919Y-19159015D01*
X28101031Y-19195531D01*
X28075406Y-19245614D01*
X28072820Y-19249721D01*
X28052072Y-19291216D01*
X28007590Y-19378153D01*
X28006258Y-19382844D01*
X27614057Y-20167246D01*
X27585125Y-20213897D01*
X27550331Y-20306679D01*
X27514923Y-20399209D01*
X27505684Y-20453319D01*
X27439213Y-20702582D01*
X26877204Y-20867879D01*
X26873323Y-20868257D01*
X26778884Y-20896797D01*
X26733479Y-20910151D01*
X26729885Y-20911604D01*
X26676957Y-20927599D01*
X26635011Y-20949963D01*
X26590950Y-20967778D01*
X26544724Y-20998102D01*
X26541297Y-20999929D01*
X26501862Y-21026219D01*
X26419425Y-21080297D01*
X26416645Y-21083030D01*
X26063431Y-21318506D01*
X25496235Y-21533649D01*
X25458125Y-21543021D01*
X25400597Y-21569926D01*
X25389237Y-21574235D01*
X25354203Y-21591624D01*
X25272306Y-21629926D01*
X25262471Y-21637155D01*
X25251528Y-21642586D01*
X25179873Y-21697862D01*
X25107010Y-21751414D01*
X25098774Y-21760423D01*
X25089103Y-21767883D01*
X25029620Y-21836064D01*
X24968594Y-21902814D01*
X24962272Y-21913259D01*
X24954243Y-21922462D01*
X24909218Y-22000914D01*
X24888988Y-22034337D01*
X24883751Y-22045287D01*
X24852132Y-22100380D01*
X24839611Y-22137581D01*
X24670746Y-22490660D01*
X24394317Y-22752541D01*
X23052084Y-23639373D01*
X22666500Y-23888869D01*
X22665538Y-23889368D01*
X22623445Y-23916728D01*
X22581513Y-23943861D01*
X22580670Y-23944532D01*
X22132066Y-24236125D01*
X21500029Y-24612020D01*
X21460751Y-24600105D01*
X21249934Y-24579341D01*
X21108950Y-24579341D01*
X20898133Y-24600105D01*
X20627634Y-24682159D01*
X20378341Y-24815409D01*
X20159834Y-24994733D01*
X19980510Y-25213240D01*
X19847260Y-25462533D01*
X19765206Y-25733032D01*
X19737499Y-26014341D01*
X19765206Y-26295650D01*
X19847260Y-26566149D01*
X19980510Y-26815442D01*
X20159834Y-27033949D01*
X20378341Y-27213273D01*
X20627634Y-27346523D01*
X20898133Y-27428577D01*
X21108950Y-27449341D01*
X21249934Y-27449341D01*
X21460751Y-27428577D01*
X21731250Y-27346523D01*
X21980543Y-27213273D01*
X22199050Y-27033949D01*
X22378374Y-26815442D01*
X22511624Y-26566149D01*
X22560643Y-26404552D01*
X23188437Y-26031182D01*
X23206862Y-26021632D01*
X23232333Y-26005076D01*
X23258489Y-25989520D01*
X23275228Y-25977194D01*
X23756851Y-25664139D01*
X24148985Y-25410405D01*
X24153401Y-25408074D01*
X24191950Y-25382604D01*
X24230687Y-25357539D01*
X24234588Y-25354432D01*
X25566288Y-24474560D01*
X25602050Y-24456670D01*
X25651639Y-24418167D01*
X25661157Y-24411879D01*
X25692077Y-24386771D01*
X25723483Y-24362386D01*
X25731750Y-24354554D01*
X25780501Y-24314966D01*
X25806036Y-24284177D01*
X26196076Y-23914666D01*
X26226389Y-23892387D01*
X26270355Y-23844297D01*
X26280351Y-23834827D01*
X26304878Y-23806536D01*
X26364806Y-23740986D01*
X26371978Y-23729136D01*
X26381057Y-23718664D01*
X26425048Y-23641456D01*
X26444412Y-23609463D01*
X26450347Y-23597054D01*
X26482610Y-23540429D01*
X26494500Y-23504733D01*
X26565860Y-23355528D01*
X26878703Y-23236863D01*
X26942442Y-23217601D01*
X27019582Y-23176472D01*
X27097872Y-23137614D01*
X27150589Y-23096947D01*
X27522242Y-22849178D01*
X28188558Y-22653203D01*
X28242846Y-22642456D01*
X28333980Y-22604805D01*
X28425450Y-22567822D01*
X28471729Y-22537464D01*
X28781975Y-22371999D01*
X28845303Y-22343214D01*
X28913872Y-22293954D01*
X28984111Y-22247115D01*
X28997053Y-22234197D01*
X29011905Y-22223527D01*
X29069547Y-22161836D01*
X29129298Y-22102194D01*
X29139471Y-22086999D01*
X29151957Y-22073636D01*
X29196463Y-22001873D01*
X29243423Y-21931732D01*
X29250434Y-21914849D01*
X29260075Y-21899304D01*
X29289727Y-21820232D01*
X29322099Y-21742282D01*
X29335731Y-21674076D01*
X29503103Y-21046433D01*
X29793897Y-20464847D01*
X30400326Y-20043715D01*
X30474017Y-20012687D01*
X30877307Y-20104344D01*
X30690192Y-20161104D01*
X30440899Y-20294354D01*
X30222392Y-20473678D01*
X30043068Y-20692185D01*
X29909818Y-20941478D01*
X29827764Y-21211977D01*
X29800057Y-21493286D01*
X29815183Y-21646858D01*
X27736299Y-23510942D01*
X27724535Y-23518443D01*
X27674908Y-23565990D01*
X27654570Y-23584226D01*
X27645216Y-23594437D01*
X27635184Y-23604048D01*
X27617353Y-23624851D01*
X27570982Y-23675468D01*
X27563753Y-23687385D01*
X26251683Y-25218135D01*
X25184795Y-26333518D01*
X25160037Y-26353836D01*
X25127879Y-26393021D01*
X25121424Y-26399769D01*
X25101745Y-26424865D01*
X25055292Y-26481468D01*
X25050865Y-26489750D01*
X25045068Y-26497143D01*
X25011982Y-26562495D01*
X24977459Y-26627083D01*
X24974732Y-26636071D01*
X24970490Y-26644451D01*
X24950790Y-26714998D01*
X24929530Y-26785084D01*
X24928609Y-26794431D01*
X24926083Y-26803478D01*
X24920525Y-26876514D01*
X24917401Y-26908230D01*
X24917401Y-26917562D01*
X24913554Y-26968112D01*
X24917401Y-26999911D01*
X24917400Y-28043261D01*
X24823413Y-27949274D01*
X24514731Y-27743018D01*
X24171741Y-27600947D01*
X23807625Y-27528520D01*
X23436375Y-27528520D01*
X23072259Y-27600947D01*
X22729269Y-27743018D01*
X22420587Y-27949274D01*
X22158074Y-28211787D01*
X21951818Y-28520469D01*
X21809747Y-28863459D01*
X21737320Y-29227575D01*
X21737320Y-29598825D01*
X21809747Y-29962941D01*
X21951818Y-30305931D01*
X22158074Y-30614613D01*
X22401437Y-30857976D01*
X22310230Y-31226946D01*
X22136258Y-31386421D01*
X21985335Y-31356400D01*
X21702665Y-31356400D01*
X21425426Y-31411547D01*
X21164273Y-31519720D01*
X20929241Y-31676763D01*
X20729363Y-31876641D01*
X20572320Y-32111673D01*
X20464147Y-32372826D01*
X20409000Y-32650065D01*
X20409000Y-32932735D01*
X20464147Y-33209974D01*
X20572320Y-33471127D01*
X20590390Y-33498170D01*
X20389557Y-33436376D01*
X20387864Y-33435472D01*
X20310923Y-33412181D01*
X20273153Y-33400559D01*
X20271268Y-33400176D01*
X20229836Y-33387634D01*
X20190561Y-33383789D01*
X20151886Y-33375936D01*
X20108593Y-33375764D01*
X20065510Y-33371546D01*
X20026240Y-33375437D01*
X19986777Y-33375280D01*
X19944287Y-33383556D01*
X19901204Y-33387825D01*
X19863441Y-33399304D01*
X19824712Y-33406848D01*
X19784659Y-33423252D01*
X19782811Y-33423814D01*
X19746208Y-33439000D01*
X19671920Y-33469426D01*
X19670320Y-33470486D01*
X18532780Y-33942444D01*
X18453853Y-33868520D01*
X18347631Y-33802468D01*
X18230564Y-33758407D01*
X18107151Y-33738031D01*
X17982134Y-33742124D01*
X17860317Y-33770527D01*
X17746383Y-33822150D01*
X16447345Y-34572150D01*
X16345671Y-34645009D01*
X16260164Y-34736304D01*
X16194112Y-34842525D01*
X16150051Y-34959592D01*
X16129675Y-35083005D01*
X16133768Y-35208022D01*
X16162171Y-35329839D01*
X16213795Y-35443773D01*
X16738795Y-36353099D01*
X16811653Y-36454773D01*
X16887525Y-36525835D01*
X16907184Y-36610149D01*
X16980044Y-36770956D01*
X17146115Y-37058600D01*
X15826462Y-37058600D01*
X15853750Y-36781542D01*
X15826043Y-36500233D01*
X15743989Y-36229734D01*
X15611511Y-35981886D01*
X16650859Y-33241223D01*
X16699974Y-33231453D01*
X16961127Y-33123280D01*
X17196159Y-32966237D01*
X17396037Y-32766359D01*
X17553080Y-32531327D01*
X17661253Y-32270174D01*
X17716400Y-31992935D01*
X17716400Y-31710265D01*
X17661253Y-31433026D01*
X17553080Y-31171873D01*
X17396037Y-30936841D01*
X17196159Y-30736963D01*
X16961127Y-30579920D01*
X16699974Y-30471747D01*
X16422735Y-30416600D01*
X16140065Y-30416600D01*
X15862826Y-30471747D01*
X15601673Y-30579920D01*
X15366641Y-30736963D01*
X15166763Y-30936841D01*
X15009720Y-31171873D01*
X14901547Y-31433026D01*
X14846400Y-31710265D01*
X14846400Y-31992935D01*
X14901547Y-32270174D01*
X15009720Y-32531327D01*
X15084649Y-32643467D01*
X14041437Y-35394322D01*
X13859999Y-35449360D01*
X13610706Y-35582610D01*
X13392199Y-35761934D01*
X13212875Y-35980441D01*
X13079625Y-36229734D01*
X12997571Y-36500233D01*
X12969864Y-36781542D01*
X12852000Y-36781542D01*
X12852000Y-17118738D01*
X13391000Y-17118738D01*
X13391000Y-17933262D01*
X13549906Y-18732135D01*
X13861611Y-19484657D01*
X14314136Y-20161909D01*
X14890091Y-20737864D01*
X15567343Y-21190389D01*
X16319865Y-21502094D01*
X17118738Y-21661000D01*
X17933262Y-21661000D01*
X18732135Y-21502094D01*
X19484657Y-21190389D01*
X20161909Y-20737864D01*
X20737864Y-20161909D01*
X21190389Y-19484657D01*
X21502094Y-18732135D01*
X21661000Y-17933262D01*
X21661000Y-17372738D01*
X60635000Y-17372738D01*
X60635000Y-18187262D01*
X60793906Y-18986135D01*
X61105611Y-19738657D01*
X61558136Y-20415909D01*
X62134091Y-20991864D01*
X62811343Y-21444389D01*
X63563865Y-21756094D01*
X64362738Y-21915000D01*
X65177262Y-21915000D01*
X65976135Y-21756094D01*
X66728657Y-21444389D01*
X67405909Y-20991864D01*
X67981864Y-20415909D01*
X68434389Y-19738657D01*
X68746094Y-18986135D01*
X68905000Y-18187262D01*
X68905000Y-17372738D01*
X68746094Y-16573865D01*
X68434389Y-15821343D01*
X67981864Y-15144091D01*
X67405909Y-14568136D01*
X66728657Y-14115611D01*
X65976135Y-13803906D01*
X65177262Y-13645000D01*
X64362738Y-13645000D01*
X63563865Y-13803906D01*
X62811343Y-14115611D01*
X62134091Y-14568136D01*
X61558136Y-15144091D01*
X61105611Y-15821343D01*
X60793906Y-16573865D01*
X60635000Y-17372738D01*
X21661000Y-17372738D01*
X21661000Y-17118738D01*
X21502094Y-16319865D01*
X21190389Y-15567343D01*
X20737864Y-14890091D01*
X20161909Y-14314136D01*
X19484657Y-13861611D01*
X18732135Y-13549906D01*
X17933262Y-13391000D01*
X17118738Y-13391000D01*
X16319865Y-13549906D01*
X15567343Y-13861611D01*
X14890091Y-14314136D01*
X14314136Y-14890091D01*
X13861611Y-15567343D01*
X13549906Y-16319865D01*
X13391000Y-17118738D01*
X12852000Y-17118738D01*
X12852000Y-12852000D01*
X69698001Y-12852000D01*
X69698001Y-27439890D01*
X69698001Y-27439890D01*
G37*
X69698001Y-27439890D02*
X69640582Y-27301269D01*
X69434326Y-26992587D01*
X69171813Y-26730074D01*
X68863131Y-26523818D01*
X68520141Y-26381747D01*
X68156025Y-26309320D01*
X67784775Y-26309320D01*
X67420659Y-26381747D01*
X67077669Y-26523818D01*
X66768987Y-26730074D01*
X66506474Y-26992587D01*
X66300218Y-27301269D01*
X66158147Y-27644259D01*
X66085720Y-28008375D01*
X66085720Y-28379625D01*
X66158147Y-28743741D01*
X66300218Y-29086731D01*
X66506474Y-29395413D01*
X66768987Y-29657926D01*
X67077669Y-29864182D01*
X67420659Y-30006253D01*
X67784775Y-30078680D01*
X68156025Y-30078680D01*
X68520141Y-30006253D01*
X68863131Y-29864182D01*
X69171813Y-29657926D01*
X69434326Y-29395413D01*
X69640582Y-29086731D01*
X69698001Y-28948110D01*
X69698000Y-36137385D01*
X69624515Y-35999904D01*
X69334577Y-35874029D01*
X68200805Y-37007800D01*
X69334577Y-38141571D01*
X69624515Y-38015696D01*
X69698000Y-37868499D01*
X69698000Y-58268000D01*
X12852000Y-58268000D01*
X12852000Y-52932738D01*
X13645000Y-52932738D01*
X13645000Y-53747262D01*
X13803906Y-54546135D01*
X14115611Y-55298657D01*
X14568136Y-55975909D01*
X15144091Y-56551864D01*
X15821343Y-57004389D01*
X16573865Y-57316094D01*
X17372738Y-57475000D01*
X18187262Y-57475000D01*
X18986135Y-57316094D01*
X19738657Y-57004389D01*
X20415909Y-56551864D01*
X20991864Y-55975909D01*
X21444389Y-55298657D01*
X21756094Y-54546135D01*
X21915000Y-53747262D01*
X21915000Y-52932738D01*
X21756094Y-52133865D01*
X21444389Y-51381343D01*
X20991864Y-50704091D01*
X20415909Y-50128136D01*
X19738657Y-49675611D01*
X18986135Y-49363906D01*
X18187262Y-49205000D01*
X17372738Y-49205000D01*
X16573865Y-49363906D01*
X15821343Y-49675611D01*
X15144091Y-50128136D01*
X14568136Y-50704091D01*
X14115611Y-51381343D01*
X13803906Y-52133865D01*
X13645000Y-52932738D01*
X12852000Y-52932738D01*
X12852000Y-36781542D01*
X12969864Y-36781542D01*
X12997571Y-37062851D01*
X13079625Y-37333350D01*
X13212875Y-37582643D01*
X13392199Y-37801150D01*
X13610706Y-37980474D01*
X13859999Y-38113724D01*
X14130498Y-38195778D01*
X14341315Y-38216542D01*
X14482299Y-38216542D01*
X14569637Y-38207940D01*
X14782294Y-38443694D01*
X14822236Y-38492364D01*
X14869377Y-38531051D01*
X14914463Y-38572111D01*
X14933073Y-38583325D01*
X14949868Y-38597109D01*
X15003651Y-38625857D01*
X15055881Y-38657331D01*
X15076320Y-38664699D01*
X15095483Y-38674942D01*
X15153840Y-38692645D01*
X15211208Y-38713325D01*
X15232693Y-38716564D01*
X15253484Y-38722871D01*
X15314179Y-38728849D01*
X15374473Y-38737939D01*
X15437351Y-38735000D01*
X17294730Y-38735000D01*
X17298332Y-38735684D01*
X17377085Y-38735000D01*
X17414770Y-38735000D01*
X17418415Y-38734641D01*
X17463436Y-38734250D01*
X17500369Y-38726569D01*
X17537916Y-38722871D01*
X17581011Y-38709798D01*
X17584585Y-38709055D01*
X17620406Y-38697848D01*
X17695917Y-38674942D01*
X17699159Y-38673209D01*
X18073418Y-38556118D01*
X18109230Y-38589659D01*
X18259151Y-38682886D01*
X18424378Y-38745073D01*
X18598563Y-38773831D01*
X18775012Y-38768054D01*
X18946943Y-38727966D01*
X19107749Y-38655105D01*
X19952123Y-38167605D01*
X20095625Y-38064773D01*
X20216308Y-37935921D01*
X20309535Y-37786000D01*
X20351371Y-37674845D01*
X22015133Y-39675571D01*
X22042140Y-39714262D01*
X22097450Y-39767366D01*
X22152108Y-39821320D01*
X22157013Y-39824551D01*
X22161243Y-39828613D01*
X22225868Y-39869917D01*
X22289984Y-39912159D01*
X22295423Y-39914371D01*
X22300366Y-39917530D01*
X22371839Y-39945444D01*
X22442933Y-39974354D01*
X22489280Y-39983261D01*
X24885467Y-40657189D01*
X24919116Y-40667396D01*
X24794699Y-40655142D01*
X24653715Y-40655142D01*
X24442898Y-40675906D01*
X24172399Y-40757960D01*
X23923106Y-40891210D01*
X23704599Y-41070534D01*
X23589913Y-41210279D01*
X21526255Y-41135480D01*
X21523090Y-41129558D01*
X21343766Y-40911051D01*
X21125259Y-40731727D01*
X20875966Y-40598477D01*
X20605467Y-40516423D01*
X20394650Y-40495659D01*
X20253666Y-40495659D01*
X20042849Y-40516423D01*
X19772350Y-40598477D01*
X19523057Y-40731727D01*
X19304550Y-40911051D01*
X19125226Y-41129558D01*
X18991976Y-41378851D01*
X18909922Y-41649350D01*
X18882215Y-41930659D01*
X18909922Y-42211968D01*
X18991976Y-42482467D01*
X19125226Y-42731760D01*
X19304550Y-42950267D01*
X19523057Y-43129591D01*
X19772350Y-43262841D01*
X20042849Y-43344895D01*
X20253666Y-43365659D01*
X20394650Y-43365659D01*
X20605467Y-43344895D01*
X20780578Y-43291776D01*
X21615211Y-43291776D01*
X22006111Y-44365764D01*
X23080766Y-43974622D01*
X23118795Y-43724491D01*
X22977605Y-43554440D01*
X27437091Y-43554440D01*
X27531930Y-43819281D01*
X27676615Y-44060531D01*
X27865586Y-44268919D01*
X28091580Y-44436437D01*
X28345913Y-44556646D01*
X28479961Y-44597304D01*
X28702000Y-44475315D01*
X28702000Y-43332400D01*
X28956000Y-43332400D01*
X28956000Y-44475315D01*
X29178039Y-44597304D01*
X29312087Y-44556646D01*
X29566420Y-44436437D01*
X29792414Y-44268919D01*
X29981385Y-44060531D01*
X30126070Y-43819281D01*
X30220909Y-43554440D01*
X30099624Y-43332400D01*
X28956000Y-43332400D01*
X28702000Y-43332400D01*
X27558376Y-43332400D01*
X27437091Y-43554440D01*
X22977605Y-43554440D01*
X22939094Y-43508058D01*
X22720623Y-43330843D01*
X22471775Y-43199654D01*
X22202116Y-43119533D01*
X21922007Y-43093561D01*
X21782137Y-43101202D01*
X21615211Y-43291776D01*
X20780578Y-43291776D01*
X20875966Y-43262841D01*
X21125259Y-43129591D01*
X21343766Y-42950267D01*
X21458452Y-42810522D01*
X23522110Y-42885321D01*
X23525275Y-42891243D01*
X23704599Y-43109750D01*
X23923106Y-43289074D01*
X24172399Y-43422324D01*
X24442898Y-43504378D01*
X24653715Y-43525142D01*
X24794699Y-43525142D01*
X25005516Y-43504378D01*
X25276015Y-43422324D01*
X25525308Y-43289074D01*
X25743815Y-43109750D01*
X25923139Y-42891243D01*
X26050273Y-42653392D01*
X27744012Y-42275947D01*
X27676615Y-42350269D01*
X27531930Y-42591519D01*
X27437091Y-42856360D01*
X27558376Y-43078400D01*
X28702000Y-43078400D01*
X28702000Y-43058400D01*
X28956000Y-43058400D01*
X28956000Y-43078400D01*
X30099624Y-43078400D01*
X30220909Y-42856360D01*
X30126070Y-42591519D01*
X29981385Y-42350269D01*
X29792414Y-42141881D01*
X29566420Y-41974363D01*
X29416118Y-41903323D01*
X31073393Y-41534004D01*
X31228299Y-41661132D01*
X31361258Y-41732200D01*
X31228299Y-41803268D01*
X31009792Y-41982592D01*
X30830468Y-42201099D01*
X30697218Y-42450392D01*
X30615164Y-42720891D01*
X30587457Y-43002200D01*
X30615164Y-43283509D01*
X30697218Y-43554008D01*
X30830468Y-43803301D01*
X31009792Y-44021808D01*
X31131646Y-44121811D01*
X31050283Y-45681278D01*
X31025403Y-45611708D01*
X30958471Y-45486486D01*
X30714502Y-45414903D01*
X29901405Y-46228000D01*
X29915548Y-46242143D01*
X29735943Y-46421748D01*
X29721800Y-46407605D01*
X28908703Y-47220702D01*
X28980286Y-47464671D01*
X29235796Y-47585571D01*
X29509984Y-47654300D01*
X29792312Y-47668217D01*
X30071930Y-47626787D01*
X30338092Y-47531603D01*
X30463314Y-47464671D01*
X30534897Y-47220704D01*
X30578307Y-47264114D01*
X30558345Y-47327800D01*
X30023952Y-48524840D01*
X29289166Y-49127365D01*
X28724329Y-48902792D01*
X28710253Y-48832026D01*
X28602080Y-48570873D01*
X28445037Y-48335841D01*
X28245159Y-48135963D01*
X28010127Y-47978920D01*
X27748974Y-47870747D01*
X27471735Y-47815600D01*
X27189065Y-47815600D01*
X26911826Y-47870747D01*
X26650673Y-47978920D01*
X26415641Y-48135963D01*
X26215763Y-48335841D01*
X26058720Y-48570873D01*
X25950547Y-48832026D01*
X25895400Y-49109265D01*
X25895400Y-49391935D01*
X25950547Y-49669174D01*
X26058720Y-49930327D01*
X26215763Y-50165359D01*
X26415641Y-50365237D01*
X26650673Y-50522280D01*
X26860074Y-50609017D01*
X26414653Y-50771137D01*
X26301872Y-50825233D01*
X26201812Y-50900292D01*
X26130549Y-50979785D01*
X25768362Y-50949830D01*
X25651037Y-50774241D01*
X25451159Y-50574363D01*
X25216127Y-50417320D01*
X24954974Y-50309147D01*
X24677735Y-50254000D01*
X24543322Y-50254000D01*
X22589486Y-47511115D01*
X22556121Y-47459019D01*
X22513083Y-47414277D01*
X22472290Y-47367496D01*
X22455963Y-47354894D01*
X22441659Y-47340024D01*
X22390722Y-47304540D01*
X22341583Y-47266613D01*
X22323105Y-47257436D01*
X22306181Y-47245646D01*
X22249306Y-47220783D01*
X22193706Y-47193169D01*
X22133998Y-47176990D01*
X20467390Y-46635883D01*
X20234207Y-46298512D01*
X28281583Y-46298512D01*
X28323013Y-46578130D01*
X28418197Y-46844292D01*
X28485129Y-46969514D01*
X28729098Y-47041097D01*
X29542195Y-46228000D01*
X28729098Y-45414903D01*
X28485129Y-45486486D01*
X28364229Y-45741996D01*
X28295500Y-46016184D01*
X28281583Y-46298512D01*
X20234207Y-46298512D01*
X19566586Y-45332593D01*
X20741619Y-45332593D01*
X20921320Y-45549026D01*
X21139791Y-45726241D01*
X21388639Y-45857430D01*
X21658298Y-45937551D01*
X21938407Y-45963523D01*
X22078277Y-45955882D01*
X22245203Y-45765308D01*
X21854303Y-44691320D01*
X20779648Y-45082462D01*
X20741619Y-45332593D01*
X19566586Y-45332593D01*
X19458333Y-45175973D01*
X19438448Y-45140069D01*
X19411502Y-45108216D01*
X19411317Y-45107949D01*
X19386037Y-45078115D01*
X19358528Y-45045597D01*
X19358274Y-45045350D01*
X19331321Y-45013542D01*
X19299210Y-44988024D01*
X18688532Y-44395307D01*
X20501400Y-44395307D01*
X20502862Y-44676613D01*
X20692774Y-44843780D01*
X21350339Y-44604446D01*
X22092985Y-44604446D01*
X22483884Y-45678435D01*
X22734256Y-45717126D01*
X22846314Y-45633072D01*
X23044195Y-45433126D01*
X23174897Y-45235298D01*
X28908703Y-45235298D01*
X29721800Y-46048395D01*
X30534897Y-45235298D01*
X30463314Y-44991329D01*
X30207804Y-44870429D01*
X29933616Y-44801700D01*
X29651288Y-44787783D01*
X29371670Y-44829213D01*
X29105508Y-44924397D01*
X28980286Y-44991329D01*
X28908703Y-45235298D01*
X23174897Y-45235298D01*
X23199265Y-45198416D01*
X23305567Y-44937963D01*
X23359014Y-44661777D01*
X23357552Y-44380471D01*
X23167640Y-44213304D01*
X22092985Y-44604446D01*
X21350339Y-44604446D01*
X21767429Y-44452638D01*
X21376530Y-43378649D01*
X21126158Y-43339958D01*
X21014100Y-43424012D01*
X20816219Y-43623958D01*
X20661149Y-43858668D01*
X20554847Y-44119121D01*
X20501400Y-44395307D01*
X18688532Y-44395307D01*
X18439100Y-44153212D01*
X18453000Y-44083335D01*
X18453000Y-43800665D01*
X18397853Y-43523426D01*
X18289680Y-43262273D01*
X18132637Y-43027241D01*
X17932759Y-42827363D01*
X17697727Y-42670320D01*
X17436574Y-42562147D01*
X17159335Y-42507000D01*
X16876665Y-42507000D01*
X16599426Y-42562147D01*
X16338273Y-42670320D01*
X16103241Y-42827363D01*
X15903363Y-43027241D01*
X15746320Y-43262273D01*
X15638147Y-43523426D01*
X15583000Y-43800665D01*
X15583000Y-44083335D01*
X15638147Y-44360574D01*
X15746320Y-44621727D01*
X15903363Y-44856759D01*
X16103241Y-45056637D01*
X16338273Y-45213680D01*
X16599426Y-45321853D01*
X16876665Y-45377000D01*
X17159335Y-45377000D01*
X17270263Y-45354935D01*
X18102423Y-46162620D01*
X19241132Y-47810116D01*
X19277679Y-47867180D01*
X19316579Y-47907621D01*
X19352878Y-47950459D01*
X19373706Y-47967010D01*
X19392141Y-47986176D01*
X19438190Y-48018255D01*
X19482142Y-48053183D01*
X19505799Y-48065353D01*
X19527619Y-48080554D01*
X19579039Y-48103032D01*
X19628963Y-48128716D01*
X19694153Y-48147376D01*
X21372691Y-48692356D01*
X23175879Y-51223755D01*
X23156547Y-51270426D01*
X23101400Y-51547665D01*
X23101400Y-51830335D01*
X23156547Y-52107574D01*
X23264720Y-52368727D01*
X23421763Y-52603759D01*
X23621641Y-52803637D01*
X23856673Y-52960680D01*
X24117826Y-53068853D01*
X24395065Y-53124000D01*
X24677735Y-53124000D01*
X24954974Y-53068853D01*
X25216127Y-52960680D01*
X25451159Y-52803637D01*
X25633959Y-52620837D01*
X26432919Y-52686917D01*
X26717337Y-53468347D01*
X26771433Y-53581128D01*
X26846492Y-53681188D01*
X26939630Y-53764683D01*
X27047267Y-53828403D01*
X27165268Y-53869899D01*
X27289096Y-53887578D01*
X27413994Y-53880759D01*
X27535162Y-53849704D01*
X27930800Y-53705703D01*
X27779987Y-53806474D01*
X27517474Y-54068987D01*
X27311218Y-54377669D01*
X27169147Y-54720659D01*
X27096720Y-55084775D01*
X27096720Y-55456025D01*
X27169147Y-55820141D01*
X27311218Y-56163131D01*
X27517474Y-56471813D01*
X27779987Y-56734326D01*
X28088669Y-56940582D01*
X28431659Y-57082653D01*
X28795775Y-57155080D01*
X29167025Y-57155080D01*
X29531141Y-57082653D01*
X29874131Y-56940582D01*
X30182813Y-56734326D01*
X30445326Y-56471813D01*
X30651582Y-56163131D01*
X30793653Y-55820141D01*
X30866080Y-55456025D01*
X30866080Y-55196676D01*
X30936841Y-55267437D01*
X31171873Y-55424480D01*
X31433026Y-55532653D01*
X31710265Y-55587800D01*
X31992935Y-55587800D01*
X32270174Y-55532653D01*
X32531327Y-55424480D01*
X32611833Y-55370687D01*
X33475251Y-55724910D01*
X33510483Y-55743742D01*
X33551432Y-55756164D01*
X33552744Y-55756702D01*
X33590697Y-55768075D01*
X33668484Y-55791671D01*
X33669913Y-55791812D01*
X33671279Y-55792221D01*
X33751743Y-55799871D01*
X33791630Y-55803800D01*
X33793062Y-55803800D01*
X33835648Y-55807849D01*
X33875381Y-55803800D01*
X35794455Y-55803800D01*
X38414056Y-56410189D01*
X38463146Y-56425467D01*
X38535278Y-56433096D01*
X38607188Y-56442446D01*
X38658478Y-56439002D01*
X40466180Y-56452007D01*
X40493818Y-56518731D01*
X40700074Y-56827413D01*
X40962587Y-57089926D01*
X41271269Y-57296182D01*
X41614259Y-57438253D01*
X41978375Y-57510680D01*
X42349625Y-57510680D01*
X42713741Y-57438253D01*
X43056731Y-57296182D01*
X43365413Y-57089926D01*
X43627926Y-56827413D01*
X43834182Y-56518731D01*
X43976253Y-56175741D01*
X44048680Y-55811625D01*
X44048680Y-55440375D01*
X43976253Y-55076259D01*
X43834182Y-54733269D01*
X43627926Y-54424587D01*
X43365413Y-54162074D01*
X43056731Y-53955818D01*
X42713741Y-53813747D01*
X42349625Y-53741320D01*
X41978375Y-53741320D01*
X41614259Y-53813747D01*
X41271269Y-53955818D01*
X40962587Y-54162074D01*
X40700074Y-54424587D01*
X40493818Y-54733269D01*
X40476269Y-54775637D01*
X38732121Y-54763089D01*
X36106616Y-54155333D01*
X36054516Y-54139529D01*
X35985315Y-54132713D01*
X35916411Y-54123754D01*
X35862114Y-54127400D01*
X33998056Y-54127400D01*
X33248492Y-53819887D01*
X33231453Y-53734226D01*
X33123280Y-53473073D01*
X32966237Y-53238041D01*
X32766359Y-53038163D01*
X32531327Y-52881120D01*
X32406949Y-52829601D01*
X37913892Y-52829601D01*
X37941599Y-53110910D01*
X38023653Y-53381409D01*
X38156903Y-53630702D01*
X38336227Y-53849209D01*
X38554734Y-54028533D01*
X38804027Y-54161783D01*
X39074526Y-54243837D01*
X39285343Y-54264601D01*
X39426327Y-54264601D01*
X39637144Y-54243837D01*
X39907643Y-54161783D01*
X40156936Y-54028533D01*
X40375443Y-53849209D01*
X40554767Y-53630702D01*
X40688017Y-53381409D01*
X40770071Y-53110910D01*
X40797778Y-52829601D01*
X40770071Y-52548292D01*
X40688017Y-52277793D01*
X40554767Y-52028500D01*
X40375443Y-51809993D01*
X40156936Y-51630669D01*
X39907643Y-51497419D01*
X39637144Y-51415365D01*
X39426327Y-51394601D01*
X39285343Y-51394601D01*
X39074526Y-51415365D01*
X38804027Y-51497419D01*
X38554734Y-51630669D01*
X38336227Y-51809993D01*
X38156903Y-52028500D01*
X38023653Y-52277793D01*
X37941599Y-52548292D01*
X37913892Y-52829601D01*
X32406949Y-52829601D01*
X32270174Y-52772947D01*
X32045888Y-52728333D01*
X31487434Y-51673477D01*
X31487078Y-51672297D01*
X31448975Y-51600831D01*
X31430128Y-51565231D01*
X31429444Y-51564198D01*
X31428861Y-51563105D01*
X31406494Y-51529555D01*
X31361790Y-51462072D01*
X31360923Y-51461198D01*
X31141647Y-51132283D01*
X31324127Y-51132283D01*
X31441181Y-51288333D01*
X31671430Y-51511305D01*
X31940756Y-51685072D01*
X32238806Y-51802959D01*
X32554127Y-51860433D01*
X32874603Y-51855287D01*
X33072117Y-51656958D01*
X32612335Y-50393716D01*
X31349597Y-50853314D01*
X31324127Y-51132283D01*
X31141647Y-51132283D01*
X30557159Y-50255553D01*
X31120276Y-49793797D01*
X31086314Y-49903712D01*
X31053256Y-50222520D01*
X31063895Y-50417301D01*
X31262724Y-50614632D01*
X32108371Y-50306842D01*
X32851017Y-50306842D01*
X33310799Y-51570085D01*
X33589587Y-51595054D01*
X33838394Y-51392999D01*
X34043000Y-51146286D01*
X34195544Y-50864396D01*
X34290164Y-50558164D01*
X34323222Y-50239356D01*
X34320153Y-50183174D01*
X34415320Y-50412927D01*
X34572363Y-50647959D01*
X34772241Y-50847837D01*
X35007273Y-51004880D01*
X35268426Y-51113053D01*
X35545665Y-51168200D01*
X35828335Y-51168200D01*
X36105574Y-51113053D01*
X36366727Y-51004880D01*
X36601759Y-50847837D01*
X36801637Y-50647959D01*
X36958680Y-50412927D01*
X37066853Y-50151774D01*
X37122000Y-49874535D01*
X37122000Y-49591865D01*
X37066853Y-49314626D01*
X36958680Y-49053473D01*
X36801637Y-48818441D01*
X36601759Y-48618563D01*
X36366727Y-48461520D01*
X36105574Y-48353347D01*
X35828335Y-48298200D01*
X35545665Y-48298200D01*
X35268426Y-48353347D01*
X35007273Y-48461520D01*
X34772241Y-48618563D01*
X34572363Y-48818441D01*
X34415320Y-49053473D01*
X34307147Y-49314626D01*
X34252000Y-49591865D01*
X34252000Y-49874535D01*
X34279241Y-50011485D01*
X34113754Y-49847244D01*
X32851017Y-50306842D01*
X32108371Y-50306842D01*
X32525461Y-50155034D01*
X32065679Y-48891791D01*
X31786891Y-48866822D01*
X31661796Y-48968411D01*
X31734783Y-48804918D01*
X32304361Y-48804918D01*
X32764143Y-50068160D01*
X34026881Y-49608562D01*
X34052351Y-49329593D01*
X33935297Y-49173543D01*
X33705048Y-48950571D01*
X33435722Y-48776804D01*
X33137672Y-48658917D01*
X32822351Y-48601443D01*
X32501875Y-48606589D01*
X32304361Y-48804918D01*
X31734783Y-48804918D01*
X32078438Y-48035133D01*
X32082714Y-48028860D01*
X32112042Y-47959861D01*
X32125775Y-47929099D01*
X32128164Y-47921932D01*
X32131119Y-47914979D01*
X32141194Y-47882835D01*
X32164900Y-47811706D01*
X32165849Y-47804173D01*
X32671457Y-46191041D01*
X32693387Y-46130333D01*
X32702280Y-46071615D01*
X32714403Y-46013472D01*
X32714998Y-45948921D01*
X32805489Y-44214501D01*
X32830501Y-44201132D01*
X33049008Y-44021808D01*
X33228332Y-43803301D01*
X33361582Y-43554008D01*
X33422724Y-43352448D01*
X33713368Y-45207036D01*
X33607163Y-45313241D01*
X33450120Y-45548273D01*
X33341947Y-45809426D01*
X33286800Y-46086665D01*
X33286800Y-46369335D01*
X33341947Y-46646574D01*
X33450120Y-46907727D01*
X33607163Y-47142759D01*
X33807041Y-47342637D01*
X34042073Y-47499680D01*
X34303226Y-47607853D01*
X34580465Y-47663000D01*
X34863135Y-47663000D01*
X35140374Y-47607853D01*
X35401527Y-47499680D01*
X35636559Y-47342637D01*
X35836437Y-47142759D01*
X35993480Y-46907727D01*
X36101653Y-46646574D01*
X36156800Y-46369335D01*
X36156800Y-46086665D01*
X36101653Y-45809426D01*
X35993480Y-45548273D01*
X35836437Y-45313241D01*
X35636559Y-45113363D01*
X35401527Y-44956320D01*
X35368813Y-44942770D01*
X35358091Y-44874349D01*
X36067288Y-44874349D01*
X36067288Y-45078227D01*
X36107062Y-45278186D01*
X36185083Y-45466544D01*
X36298351Y-45636062D01*
X36442514Y-45780225D01*
X36538299Y-45844226D01*
X36722430Y-46322426D01*
X36737322Y-46371702D01*
X36771408Y-46435633D01*
X36803948Y-46500376D01*
X36835595Y-46540978D01*
X37399186Y-47386364D01*
X37412906Y-47413760D01*
X37444867Y-47454885D01*
X37450813Y-47463805D01*
X37470130Y-47487393D01*
X37514223Y-47544130D01*
X37522377Y-47551193D01*
X37529213Y-47559540D01*
X37584720Y-47605191D01*
X37607758Y-47625145D01*
X37616506Y-47631333D01*
X37656736Y-47664419D01*
X37683745Y-47678892D01*
X38637032Y-48353168D01*
X38656448Y-48371224D01*
X38704269Y-48400726D01*
X38716381Y-48409293D01*
X38739312Y-48422345D01*
X38796969Y-48457915D01*
X38810952Y-48463121D01*
X38823923Y-48470504D01*
X38888221Y-48491890D01*
X38912934Y-48501091D01*
X38927269Y-48504877D01*
X38980595Y-48522614D01*
X39006909Y-48525914D01*
X39044631Y-48535878D01*
X39113783Y-48702826D01*
X39270826Y-48937858D01*
X39470704Y-49137736D01*
X39705736Y-49294779D01*
X39966889Y-49402952D01*
X40244128Y-49458099D01*
X40526798Y-49458099D01*
X40804037Y-49402952D01*
X41065190Y-49294779D01*
X41201113Y-49203958D01*
X41213632Y-50581069D01*
X41147641Y-50625163D01*
X40947763Y-50825041D01*
X40790720Y-51060073D01*
X40682547Y-51321226D01*
X40627400Y-51598465D01*
X40627400Y-51881135D01*
X40682547Y-52158374D01*
X40790720Y-52419527D01*
X40947763Y-52654559D01*
X41147641Y-52854437D01*
X41382673Y-53011480D01*
X41643826Y-53119653D01*
X41921065Y-53174800D01*
X42203735Y-53174800D01*
X42480974Y-53119653D01*
X42742127Y-53011480D01*
X42977159Y-52854437D01*
X43152858Y-52678738D01*
X60635000Y-52678738D01*
X60635000Y-53493262D01*
X60793906Y-54292135D01*
X61105611Y-55044657D01*
X61558136Y-55721909D01*
X62134091Y-56297864D01*
X62811343Y-56750389D01*
X63563865Y-57062094D01*
X64362738Y-57221000D01*
X65177262Y-57221000D01*
X65976135Y-57062094D01*
X66728657Y-56750389D01*
X67405909Y-56297864D01*
X67981864Y-55721909D01*
X68434389Y-55044657D01*
X68746094Y-54292135D01*
X68905000Y-53493262D01*
X68905000Y-52678738D01*
X68746094Y-51879865D01*
X68434389Y-51127343D01*
X67981864Y-50450091D01*
X67405909Y-49874136D01*
X66728657Y-49421611D01*
X65976135Y-49109906D01*
X65177262Y-48951000D01*
X64362738Y-48951000D01*
X63563865Y-49109906D01*
X62811343Y-49421611D01*
X62134091Y-49874136D01*
X61558136Y-50450091D01*
X61105611Y-51127343D01*
X60793906Y-51879865D01*
X60635000Y-52678738D01*
X43152858Y-52678738D01*
X43177037Y-52654559D01*
X43334080Y-52419527D01*
X43442253Y-52158374D01*
X43497400Y-51881135D01*
X43497400Y-51598465D01*
X43442253Y-51321226D01*
X43334080Y-51060073D01*
X43177037Y-50825041D01*
X42977159Y-50625163D01*
X42889972Y-50566906D01*
X42875783Y-49006094D01*
X42878006Y-48991640D01*
X42875034Y-48923691D01*
X42874791Y-48897013D01*
X42873234Y-48882552D01*
X42872598Y-48868017D01*
X42868824Y-48841600D01*
X42861543Y-48773982D01*
X42857171Y-48760027D01*
X42818261Y-48487661D01*
X42878177Y-48505836D01*
X43088994Y-48526600D01*
X43229978Y-48526600D01*
X43440795Y-48505836D01*
X43711294Y-48423782D01*
X43960587Y-48290532D01*
X44179094Y-48111208D01*
X44358418Y-47892701D01*
X44491668Y-47643408D01*
X44573722Y-47372909D01*
X44601429Y-47091600D01*
X44573722Y-46810291D01*
X44491668Y-46539792D01*
X44484105Y-46525642D01*
X44538155Y-46436677D01*
X45695097Y-46108877D01*
X47752393Y-45794232D01*
X49921428Y-45727148D01*
X49825947Y-45957659D01*
X49753520Y-46321775D01*
X49753520Y-46479008D01*
X49351141Y-46671284D01*
X49213322Y-46597618D01*
X48942823Y-46515564D01*
X48732006Y-46494800D01*
X48591022Y-46494800D01*
X48380205Y-46515564D01*
X48109706Y-46597618D01*
X47860413Y-46730868D01*
X47641906Y-46910192D01*
X47462582Y-47128699D01*
X47329332Y-47377992D01*
X47247278Y-47648491D01*
X47219571Y-47929800D01*
X47247278Y-48211109D01*
X47329332Y-48481608D01*
X47462582Y-48730901D01*
X47641906Y-48949408D01*
X47860413Y-49128732D01*
X48109706Y-49261982D01*
X48380205Y-49344036D01*
X48591022Y-49364800D01*
X48732006Y-49364800D01*
X48942823Y-49344036D01*
X49213322Y-49261982D01*
X49462615Y-49128732D01*
X49681122Y-48949408D01*
X49860446Y-48730901D01*
X49993696Y-48481608D01*
X50075750Y-48211109D01*
X50078656Y-48181604D01*
X50470945Y-47994150D01*
X50745469Y-48177582D01*
X51088459Y-48319653D01*
X51452575Y-48392080D01*
X51823825Y-48392080D01*
X52187941Y-48319653D01*
X52530931Y-48177582D01*
X52839613Y-47971326D01*
X53102126Y-47708813D01*
X53308382Y-47400131D01*
X53450453Y-47057141D01*
X53522880Y-46693025D01*
X53522880Y-46321775D01*
X53450453Y-45957659D01*
X53308382Y-45614669D01*
X53102126Y-45305987D01*
X52839613Y-45043474D01*
X52530931Y-44837218D01*
X52187941Y-44695147D01*
X51980881Y-44653960D01*
X51987129Y-44629820D01*
X52367598Y-43417078D01*
X52375218Y-43401685D01*
X52392264Y-43338455D01*
X52399489Y-43315425D01*
X52402980Y-43298706D01*
X52407427Y-43282209D01*
X52411396Y-43258394D01*
X52424779Y-43194295D01*
X52424942Y-43177121D01*
X52552307Y-42412928D01*
X52597327Y-42394280D01*
X52832359Y-42237237D01*
X53032237Y-42037359D01*
X53060144Y-41995594D01*
X53069238Y-42048852D01*
X53075669Y-42114149D01*
X53086464Y-42149735D01*
X53092723Y-42186391D01*
X53116171Y-42247666D01*
X53135217Y-42310453D01*
X53176873Y-42388386D01*
X53917774Y-43870189D01*
X53944858Y-43934209D01*
X53992312Y-44004086D01*
X54037321Y-44075586D01*
X54049863Y-44088830D01*
X54060105Y-44103912D01*
X54120259Y-44163169D01*
X54178371Y-44224535D01*
X54193261Y-44235081D01*
X54206245Y-44247872D01*
X54276810Y-44294260D01*
X54345772Y-44343105D01*
X54362426Y-44350541D01*
X54377663Y-44360557D01*
X54455960Y-44392301D01*
X54533087Y-44426737D01*
X54550864Y-44430779D01*
X54567769Y-44437633D01*
X54650766Y-44453495D01*
X54733119Y-44472220D01*
X54802599Y-44474112D01*
X57538607Y-44722840D01*
X58177214Y-44812245D01*
X59941887Y-46292981D01*
X60045127Y-46363604D01*
X60160160Y-46412729D01*
X60282567Y-46438469D01*
X60407644Y-46439833D01*
X60530583Y-46416770D01*
X60646661Y-46370166D01*
X60743469Y-46306996D01*
X61231949Y-46306996D01*
X61231949Y-46678246D01*
X61304376Y-47042362D01*
X61446447Y-47385352D01*
X61652703Y-47694034D01*
X61915216Y-47956547D01*
X62223898Y-48162803D01*
X62566888Y-48304874D01*
X62931004Y-48377301D01*
X63302254Y-48377301D01*
X63666370Y-48304874D01*
X64009360Y-48162803D01*
X64318042Y-47956547D01*
X64580555Y-47694034D01*
X64786811Y-47385352D01*
X64928882Y-47042362D01*
X65001309Y-46678246D01*
X65001309Y-46306996D01*
X64928882Y-45942880D01*
X64786811Y-45599890D01*
X64580555Y-45291208D01*
X64318042Y-45028695D01*
X64009360Y-44822439D01*
X63666370Y-44680368D01*
X63302254Y-44607941D01*
X62931004Y-44607941D01*
X62566888Y-44680368D01*
X62223898Y-44822439D01*
X61915216Y-45028695D01*
X61652703Y-45291208D01*
X61446447Y-45599890D01*
X61304376Y-45942880D01*
X61231949Y-46306996D01*
X60743469Y-46306996D01*
X60751416Y-46301811D01*
X60840824Y-46214334D01*
X62447381Y-44299713D01*
X62518004Y-44196473D01*
X62567129Y-44081440D01*
X62592869Y-43959033D01*
X62594233Y-43833956D01*
X62571170Y-43711017D01*
X62524566Y-43594939D01*
X62456211Y-43490184D01*
X62368734Y-43400776D01*
X61250634Y-42462579D01*
X62806704Y-42462579D01*
X62806704Y-42705853D01*
X62854164Y-42944452D01*
X62947261Y-43169208D01*
X63082417Y-43371483D01*
X63254437Y-43543503D01*
X63456712Y-43678659D01*
X63681468Y-43771756D01*
X63920067Y-43819216D01*
X64163341Y-43819216D01*
X64401940Y-43771756D01*
X64626696Y-43678659D01*
X64828971Y-43543503D01*
X65000991Y-43371483D01*
X65136147Y-43169208D01*
X65229244Y-42944452D01*
X65276704Y-42705853D01*
X65276704Y-42462579D01*
X65229244Y-42223980D01*
X65136147Y-41999224D01*
X65077674Y-41911713D01*
X65132677Y-41893708D01*
X65241679Y-41832351D01*
X65336615Y-41750909D01*
X65413840Y-41652510D01*
X65470384Y-41540936D01*
X65504074Y-41420474D01*
X65555618Y-41110464D01*
X65426846Y-40926559D01*
X64492017Y-40761724D01*
X64488544Y-40781420D01*
X64238403Y-40737313D01*
X64241876Y-40717617D01*
X63307047Y-40552782D01*
X63123142Y-40681553D01*
X63065548Y-40990496D01*
X63056006Y-41115215D01*
X63070979Y-41239400D01*
X63109892Y-41358277D01*
X63171249Y-41467279D01*
X63252691Y-41562215D01*
X63296656Y-41596719D01*
X63254437Y-41624929D01*
X63082417Y-41796949D01*
X62947261Y-41999224D01*
X62854164Y-42223980D01*
X62806704Y-42462579D01*
X61250634Y-42462579D01*
X60454113Y-41794219D01*
X60350873Y-41723596D01*
X60235840Y-41674471D01*
X60113433Y-41648731D01*
X59988356Y-41647367D01*
X59865417Y-41670430D01*
X59749339Y-41717034D01*
X59644584Y-41785389D01*
X59555176Y-41872866D01*
X58782374Y-42793857D01*
X57828026Y-42660248D01*
X57803226Y-42655508D01*
X57777405Y-42653161D01*
X57751729Y-42649566D01*
X57726503Y-42648533D01*
X55536019Y-42449399D01*
X55368971Y-42115302D01*
X56104503Y-42115302D01*
X56176086Y-42359271D01*
X56431596Y-42480171D01*
X56705784Y-42548900D01*
X56988112Y-42562817D01*
X57267730Y-42521387D01*
X57533892Y-42426203D01*
X57659114Y-42359271D01*
X57730697Y-42115302D01*
X56917600Y-41302205D01*
X56104503Y-42115302D01*
X55368971Y-42115302D01*
X55143400Y-41664161D01*
X55143400Y-41193112D01*
X55477383Y-41193112D01*
X55518813Y-41472730D01*
X55613997Y-41738892D01*
X55680929Y-41864114D01*
X55924898Y-41935697D01*
X56737995Y-41122600D01*
X57097205Y-41122600D01*
X57910302Y-41935697D01*
X58154271Y-41864114D01*
X58275171Y-41608604D01*
X58343900Y-41334416D01*
X58357817Y-41052088D01*
X58316387Y-40772470D01*
X58223090Y-40511583D01*
X64536124Y-40511583D01*
X65470953Y-40676418D01*
X65654858Y-40547647D01*
X65712452Y-40238704D01*
X65721994Y-40113985D01*
X65707021Y-39989800D01*
X65668108Y-39870923D01*
X65606751Y-39761921D01*
X65525309Y-39666985D01*
X65426910Y-39589760D01*
X65315336Y-39533216D01*
X65194874Y-39499526D01*
X64884864Y-39447982D01*
X64700959Y-39576754D01*
X64536124Y-40511583D01*
X58223090Y-40511583D01*
X58221203Y-40506308D01*
X58154271Y-40381086D01*
X57910302Y-40309503D01*
X57097205Y-41122600D01*
X56737995Y-41122600D01*
X55924898Y-40309503D01*
X55680929Y-40381086D01*
X55560029Y-40636596D01*
X55491300Y-40910784D01*
X55477383Y-41193112D01*
X55143400Y-41193112D01*
X55143400Y-40691141D01*
X55148437Y-40640000D01*
X55143400Y-40588858D01*
X55143400Y-40588848D01*
X55128331Y-40435850D01*
X55068783Y-40239546D01*
X55066994Y-40236198D01*
X55010175Y-40129898D01*
X56104503Y-40129898D01*
X56917600Y-40942995D01*
X57730697Y-40129898D01*
X57705971Y-40045624D01*
X58851611Y-40045624D01*
X59018537Y-40236198D01*
X59158407Y-40243839D01*
X59438516Y-40217867D01*
X59708175Y-40137746D01*
X59744234Y-40118736D01*
X63222382Y-40118736D01*
X63351154Y-40302641D01*
X64285983Y-40467476D01*
X64450818Y-39532647D01*
X64322047Y-39348742D01*
X64013104Y-39291148D01*
X63888385Y-39281606D01*
X63764200Y-39296579D01*
X63645323Y-39335492D01*
X63536321Y-39396849D01*
X63441385Y-39478291D01*
X63364160Y-39576690D01*
X63307616Y-39688264D01*
X63273926Y-39808726D01*
X63222382Y-40118736D01*
X59744234Y-40118736D01*
X59957023Y-40006557D01*
X60175494Y-39829342D01*
X60355195Y-39612909D01*
X60317166Y-39362778D01*
X59242511Y-38971636D01*
X58851611Y-40045624D01*
X57705971Y-40045624D01*
X57659114Y-39885929D01*
X57403604Y-39765029D01*
X57129416Y-39696300D01*
X56847088Y-39682383D01*
X56567470Y-39723813D01*
X56301308Y-39818997D01*
X56176086Y-39885929D01*
X56104503Y-40129898D01*
X55010175Y-40129898D01*
X54972081Y-40058630D01*
X54874550Y-39939788D01*
X54874547Y-39939785D01*
X54841943Y-39900057D01*
X54802214Y-39867452D01*
X54166744Y-39231982D01*
X54194541Y-39226453D01*
X54537531Y-39084382D01*
X54750480Y-38942093D01*
X57737800Y-38942093D01*
X57791247Y-39218279D01*
X57897549Y-39478732D01*
X58052619Y-39713442D01*
X58250500Y-39913388D01*
X58362558Y-39997442D01*
X58612930Y-39958751D01*
X59003829Y-38884762D01*
X58586740Y-38732954D01*
X59329385Y-38732954D01*
X60404040Y-39124096D01*
X60593952Y-38956929D01*
X60595414Y-38675623D01*
X60541967Y-38399437D01*
X60484029Y-38257480D01*
X62323448Y-38257480D01*
X62335708Y-38381962D01*
X62372018Y-38501660D01*
X62430983Y-38611974D01*
X62510335Y-38708665D01*
X62607026Y-38788017D01*
X62717340Y-38846982D01*
X62837038Y-38883292D01*
X62961520Y-38895552D01*
X63925450Y-38892480D01*
X64084200Y-38733730D01*
X64084200Y-37134800D01*
X64338200Y-37134800D01*
X64338200Y-38733730D01*
X64496950Y-38892480D01*
X65460880Y-38895552D01*
X65585362Y-38883292D01*
X65705060Y-38846982D01*
X65815374Y-38788017D01*
X65912065Y-38708665D01*
X65991417Y-38611974D01*
X66050382Y-38501660D01*
X66086692Y-38381962D01*
X66092678Y-38321177D01*
X66887429Y-38321177D01*
X67013304Y-38611115D01*
X67345462Y-38776939D01*
X67703587Y-38874775D01*
X68073919Y-38900865D01*
X68442225Y-38854205D01*
X68794351Y-38736589D01*
X69029096Y-38611115D01*
X69154971Y-38321177D01*
X68021200Y-37187405D01*
X66887429Y-38321177D01*
X66092678Y-38321177D01*
X66098952Y-38257480D01*
X66095880Y-37293550D01*
X65937130Y-37134800D01*
X64338200Y-37134800D01*
X64084200Y-37134800D01*
X62485270Y-37134800D01*
X62326520Y-37293550D01*
X62323448Y-38257480D01*
X60484029Y-38257480D01*
X60435665Y-38138984D01*
X60280595Y-37904274D01*
X60082714Y-37704328D01*
X59970656Y-37620274D01*
X59720284Y-37658965D01*
X59329385Y-38732954D01*
X58586740Y-38732954D01*
X57929174Y-38493620D01*
X57739262Y-38660787D01*
X57737800Y-38942093D01*
X54750480Y-38942093D01*
X54846213Y-38878126D01*
X55108726Y-38615613D01*
X55314982Y-38306931D01*
X55440125Y-38004807D01*
X57978019Y-38004807D01*
X58016048Y-38254938D01*
X59090703Y-38646080D01*
X59481603Y-37572092D01*
X59314677Y-37381518D01*
X59174807Y-37373877D01*
X58894698Y-37399849D01*
X58625039Y-37479970D01*
X58376191Y-37611159D01*
X58157720Y-37788374D01*
X57978019Y-38004807D01*
X55440125Y-38004807D01*
X55457053Y-37963941D01*
X55529480Y-37599825D01*
X55529480Y-37228575D01*
X55496052Y-37060519D01*
X66128135Y-37060519D01*
X66174795Y-37428825D01*
X66292411Y-37780951D01*
X66417885Y-38015696D01*
X66707823Y-38141571D01*
X67841595Y-37007800D01*
X66707823Y-35874029D01*
X66417885Y-35999904D01*
X66252061Y-36332062D01*
X66154225Y-36690187D01*
X66128135Y-37060519D01*
X55496052Y-37060519D01*
X55457053Y-36864459D01*
X55314982Y-36521469D01*
X55108726Y-36212787D01*
X54846213Y-35950274D01*
X54558637Y-35758120D01*
X62323448Y-35758120D01*
X62326520Y-36722050D01*
X62485270Y-36880800D01*
X64084200Y-36880800D01*
X64084200Y-35281870D01*
X64338200Y-35281870D01*
X64338200Y-36880800D01*
X65937130Y-36880800D01*
X66095880Y-36722050D01*
X66098952Y-35758120D01*
X66092679Y-35694423D01*
X66887429Y-35694423D01*
X68021200Y-36828195D01*
X69154971Y-35694423D01*
X69029096Y-35404485D01*
X68696938Y-35238661D01*
X68338813Y-35140825D01*
X67968481Y-35114735D01*
X67600175Y-35161395D01*
X67248049Y-35279011D01*
X67013304Y-35404485D01*
X66887429Y-35694423D01*
X66092679Y-35694423D01*
X66086692Y-35633638D01*
X66050382Y-35513940D01*
X65991417Y-35403626D01*
X65912065Y-35306935D01*
X65815374Y-35227583D01*
X65705060Y-35168618D01*
X65585362Y-35132308D01*
X65460880Y-35120048D01*
X64496950Y-35123120D01*
X64338200Y-35281870D01*
X64084200Y-35281870D01*
X63925450Y-35123120D01*
X62961520Y-35120048D01*
X62837038Y-35132308D01*
X62717340Y-35168618D01*
X62607026Y-35227583D01*
X62510335Y-35306935D01*
X62430983Y-35403626D01*
X62372018Y-35513940D01*
X62335708Y-35633638D01*
X62323448Y-35758120D01*
X54558637Y-35758120D01*
X54537531Y-35744018D01*
X54440438Y-35703801D01*
X54421558Y-34949750D01*
X54574043Y-34824609D01*
X54753367Y-34606102D01*
X54886617Y-34356809D01*
X54938128Y-34186997D01*
X54971818Y-34268331D01*
X55178074Y-34577013D01*
X55440587Y-34839526D01*
X55749269Y-35045782D01*
X56092259Y-35187853D01*
X56456375Y-35260280D01*
X56827625Y-35260280D01*
X57191741Y-35187853D01*
X57534731Y-35045782D01*
X57843413Y-34839526D01*
X58105926Y-34577013D01*
X58243470Y-34371164D01*
X65420641Y-34371164D01*
X65467948Y-34594748D01*
X65689316Y-34695637D01*
X65926113Y-34751400D01*
X66169238Y-34759895D01*
X66409349Y-34720795D01*
X66637218Y-34635602D01*
X66713652Y-34594748D01*
X66760959Y-34371164D01*
X66090800Y-33701005D01*
X65420641Y-34371164D01*
X58243470Y-34371164D01*
X58312182Y-34268331D01*
X58454253Y-33925341D01*
X58512962Y-33630190D01*
X58603125Y-33599838D01*
X64852305Y-33599838D01*
X64891405Y-33839949D01*
X64976598Y-34067818D01*
X65017452Y-34144252D01*
X65241036Y-34191559D01*
X65911195Y-33521400D01*
X65897053Y-33507258D01*
X66076658Y-33327653D01*
X66090800Y-33341795D01*
X66104943Y-33327653D01*
X66284548Y-33507258D01*
X66270405Y-33521400D01*
X66940564Y-34191559D01*
X67164148Y-34144252D01*
X67265037Y-33922884D01*
X67320800Y-33686087D01*
X67329295Y-33442962D01*
X67290195Y-33202851D01*
X67205002Y-32974982D01*
X67164148Y-32898548D01*
X66940566Y-32851242D01*
X67057672Y-32734136D01*
X66999794Y-32676258D01*
X67045294Y-32651937D01*
X67141985Y-32572585D01*
X67221337Y-32475894D01*
X67280302Y-32365580D01*
X67316612Y-32245882D01*
X67328872Y-32121400D01*
X67328872Y-30921400D01*
X67316612Y-30796918D01*
X67280302Y-30677220D01*
X67221337Y-30566906D01*
X67141985Y-30470215D01*
X67045294Y-30390863D01*
X66934980Y-30331898D01*
X66815282Y-30295588D01*
X66690800Y-30283328D01*
X65490800Y-30283328D01*
X65366318Y-30295588D01*
X65246620Y-30331898D01*
X65136306Y-30390863D01*
X65039615Y-30470215D01*
X64960263Y-30566906D01*
X64901298Y-30677220D01*
X64864988Y-30796918D01*
X64852728Y-30921400D01*
X64852728Y-32121400D01*
X64864988Y-32245882D01*
X64901298Y-32365580D01*
X64960263Y-32475894D01*
X65039615Y-32572585D01*
X65136306Y-32651937D01*
X65181806Y-32676258D01*
X65123928Y-32734136D01*
X65241034Y-32851242D01*
X65017452Y-32898548D01*
X64916563Y-33119916D01*
X64860800Y-33356713D01*
X64852305Y-33599838D01*
X58603125Y-33599838D01*
X60935390Y-32814720D01*
X61093073Y-32920080D01*
X61354226Y-33028253D01*
X61631465Y-33083400D01*
X61914135Y-33083400D01*
X62191374Y-33028253D01*
X62452527Y-32920080D01*
X62687559Y-32763037D01*
X62887437Y-32563159D01*
X63044480Y-32328127D01*
X63152653Y-32066974D01*
X63207800Y-31789735D01*
X63207800Y-31507065D01*
X63152653Y-31229826D01*
X63044480Y-30968673D01*
X62887437Y-30733641D01*
X62687559Y-30533763D01*
X62452527Y-30376720D01*
X62191374Y-30268547D01*
X61914135Y-30213400D01*
X61631465Y-30213400D01*
X61354226Y-30268547D01*
X61093073Y-30376720D01*
X60858041Y-30533763D01*
X60658163Y-30733641D01*
X60501120Y-30968673D01*
X60393592Y-31228269D01*
X57974392Y-32042653D01*
X57843413Y-31911674D01*
X57554434Y-31718583D01*
X57586394Y-30997198D01*
X58717424Y-29649288D01*
X58788047Y-29546048D01*
X58837172Y-29431015D01*
X58862912Y-29308608D01*
X58864276Y-29183531D01*
X58841213Y-29060592D01*
X58794609Y-28944514D01*
X58726254Y-28839759D01*
X58638777Y-28750351D01*
X57106688Y-27464776D01*
X57003448Y-27394153D01*
X56888415Y-27345028D01*
X56766008Y-27319288D01*
X56640931Y-27317924D01*
X56517992Y-27340987D01*
X56401914Y-27387591D01*
X56297159Y-27455946D01*
X56207751Y-27543423D01*
X54922176Y-29075512D01*
X54851553Y-29178752D01*
X54802428Y-29293785D01*
X54776688Y-29416192D01*
X54775324Y-29541269D01*
X54798387Y-29664208D01*
X54844991Y-29780286D01*
X54913346Y-29885041D01*
X55000823Y-29974449D01*
X55919510Y-30745319D01*
X55879361Y-31651532D01*
X55749269Y-31705418D01*
X55440587Y-31911674D01*
X55178074Y-32174187D01*
X54971818Y-32482869D01*
X54829747Y-32825859D01*
X54783222Y-33059755D01*
X54753367Y-33003900D01*
X54574043Y-32785393D01*
X54355536Y-32606069D01*
X54106243Y-32472819D01*
X53835744Y-32390765D01*
X53624927Y-32370001D01*
X53483943Y-32370001D01*
X53273126Y-32390765D01*
X53002627Y-32472819D01*
X52753334Y-32606069D01*
X52534827Y-32785393D01*
X52355503Y-33003900D01*
X52222253Y-33253193D01*
X52140199Y-33523692D01*
X52112492Y-33805001D01*
X52140199Y-34086310D01*
X52222253Y-34356809D01*
X52355503Y-34606102D01*
X52534827Y-34824609D01*
X52745837Y-34997781D01*
X52764393Y-35738913D01*
X52752069Y-35744018D01*
X52443387Y-35950274D01*
X52180874Y-36212787D01*
X51974618Y-36521469D01*
X51832547Y-36864459D01*
X51760120Y-37228575D01*
X51760120Y-37599825D01*
X51809219Y-37846661D01*
X51699730Y-37780968D01*
X51060050Y-37141289D01*
X51022866Y-37097090D01*
X50947745Y-37036958D01*
X50873369Y-36975919D01*
X50867718Y-36972899D01*
X50862718Y-36968896D01*
X50777325Y-36924582D01*
X50692455Y-36879218D01*
X50637184Y-36862452D01*
X49427806Y-36378700D01*
X49399846Y-36366217D01*
X49380352Y-36359719D01*
X49361272Y-36352087D01*
X49331866Y-36343557D01*
X47911061Y-35869956D01*
X47898454Y-35863217D01*
X47813875Y-35837560D01*
X47778792Y-35825866D01*
X47764944Y-35822717D01*
X47702150Y-35803669D01*
X47665134Y-35800023D01*
X47628880Y-35791780D01*
X47563306Y-35789994D01*
X47549152Y-35788600D01*
X47512122Y-35788600D01*
X47423820Y-35786195D01*
X47409736Y-35788600D01*
X47329885Y-35788600D01*
X47430053Y-35546774D01*
X47485200Y-35269535D01*
X47485200Y-34986865D01*
X47430053Y-34709626D01*
X47321880Y-34448473D01*
X47175608Y-34229561D01*
X47581562Y-32794983D01*
X47786253Y-32732891D01*
X48070290Y-32581070D01*
X48319252Y-32376753D01*
X48523569Y-32127791D01*
X48675390Y-31843754D01*
X48746566Y-31609119D01*
X49884080Y-31264219D01*
X50055787Y-31435926D01*
X50364469Y-31642182D01*
X50707459Y-31784253D01*
X51071575Y-31856680D01*
X51442825Y-31856680D01*
X51806941Y-31784253D01*
X52149931Y-31642182D01*
X52458613Y-31435926D01*
X52721126Y-31173413D01*
X52927382Y-30864731D01*
X53069453Y-30521741D01*
X53141880Y-30157625D01*
X53141880Y-29786375D01*
X53069453Y-29422259D01*
X52927382Y-29079269D01*
X52721126Y-28770587D01*
X52698077Y-28747538D01*
X53141666Y-27718935D01*
X53248810Y-27708382D01*
X53557009Y-27614891D01*
X53841046Y-27463070D01*
X54090008Y-27258753D01*
X54294325Y-27009791D01*
X54329319Y-26944320D01*
X62272648Y-26944320D01*
X62272648Y-29443680D01*
X62284908Y-29568162D01*
X62321218Y-29687860D01*
X62380183Y-29798174D01*
X62459535Y-29894865D01*
X62556226Y-29974217D01*
X62666540Y-30033182D01*
X62786238Y-30069492D01*
X62910720Y-30081752D01*
X65410080Y-30081752D01*
X65534562Y-30069492D01*
X65654260Y-30033182D01*
X65764574Y-29974217D01*
X65861265Y-29894865D01*
X65940617Y-29798174D01*
X65999582Y-29687860D01*
X66035892Y-29568162D01*
X66048152Y-29443680D01*
X66048152Y-26944320D01*
X66035892Y-26819838D01*
X65999582Y-26700140D01*
X65940617Y-26589826D01*
X65861265Y-26493135D01*
X65764574Y-26413783D01*
X65654260Y-26354818D01*
X65534562Y-26318508D01*
X65410080Y-26306248D01*
X62910720Y-26306248D01*
X62786238Y-26318508D01*
X62666540Y-26354818D01*
X62556226Y-26413783D01*
X62459535Y-26493135D01*
X62380183Y-26589826D01*
X62321218Y-26700140D01*
X62284908Y-26819838D01*
X62272648Y-26944320D01*
X54329319Y-26944320D01*
X54446146Y-26725754D01*
X54539637Y-26417555D01*
X54571205Y-26097039D01*
X54539637Y-25776523D01*
X54446146Y-25468324D01*
X54294325Y-25184287D01*
X54090008Y-24935325D01*
X53841046Y-24731008D01*
X53557009Y-24579187D01*
X53248810Y-24485696D01*
X53008616Y-24462039D01*
X52847972Y-24462039D01*
X52607778Y-24485696D01*
X52299579Y-24579187D01*
X52015542Y-24731008D01*
X51766580Y-24935325D01*
X51562263Y-25184287D01*
X51410442Y-25468324D01*
X51316951Y-25776523D01*
X51285383Y-26097039D01*
X51316951Y-26417555D01*
X51410442Y-26725754D01*
X51562263Y-27009791D01*
X51601319Y-27057381D01*
X51157154Y-28087320D01*
X51071575Y-28087320D01*
X50707459Y-28159747D01*
X50364469Y-28301818D01*
X50055787Y-28508074D01*
X49793274Y-28770587D01*
X49587018Y-29079269D01*
X49444947Y-29422259D01*
X49397670Y-29659938D01*
X48260166Y-30004835D01*
X48070290Y-29849008D01*
X47786253Y-29697187D01*
X47478054Y-29603696D01*
X47277395Y-29583933D01*
X46015422Y-27066904D01*
X46975822Y-27066904D01*
X46993501Y-27190732D01*
X47034997Y-27308733D01*
X47098717Y-27416370D01*
X47182212Y-27509508D01*
X47282272Y-27584567D01*
X47395053Y-27638663D01*
X49274438Y-28322704D01*
X49395606Y-28353759D01*
X49520504Y-28360578D01*
X49644332Y-28342899D01*
X49762333Y-28301403D01*
X49869970Y-28237683D01*
X49963108Y-28154188D01*
X50038167Y-28054128D01*
X50092263Y-27941347D01*
X50776304Y-26061962D01*
X50807359Y-25940794D01*
X50814178Y-25815896D01*
X50796499Y-25692068D01*
X50755003Y-25574067D01*
X50691283Y-25466430D01*
X50648753Y-25418988D01*
X50922058Y-25033999D01*
X50983327Y-25033999D01*
X51194144Y-25013235D01*
X51464643Y-24931181D01*
X51713936Y-24797931D01*
X51932443Y-24618607D01*
X52111767Y-24400100D01*
X52245017Y-24150807D01*
X52327071Y-23880308D01*
X52354778Y-23598999D01*
X52327071Y-23317690D01*
X52245017Y-23047191D01*
X52111767Y-22797898D01*
X51932443Y-22579391D01*
X51713936Y-22400067D01*
X51464643Y-22266817D01*
X51194144Y-22184763D01*
X51130134Y-22178458D01*
X50459895Y-20862130D01*
X50615982Y-20628531D01*
X50758053Y-20285541D01*
X50830480Y-19921425D01*
X50830480Y-19550175D01*
X50758053Y-19186059D01*
X50615982Y-18843069D01*
X50409726Y-18534387D01*
X50147213Y-18271874D01*
X49838531Y-18065618D01*
X49495541Y-17923547D01*
X49131425Y-17851120D01*
X48760175Y-17851120D01*
X48396059Y-17923547D01*
X48053069Y-18065618D01*
X47744387Y-18271874D01*
X47481874Y-18534387D01*
X47275618Y-18843069D01*
X47133547Y-19186059D01*
X47061120Y-19550175D01*
X47061120Y-19921425D01*
X47133547Y-20285541D01*
X47275618Y-20628531D01*
X47481874Y-20937213D01*
X47744387Y-21199726D01*
X48053069Y-21405982D01*
X48396059Y-21548053D01*
X48760175Y-21620480D01*
X48964828Y-21620480D01*
X49637304Y-22941204D01*
X49580653Y-23047191D01*
X49498599Y-23317690D01*
X49470892Y-23598999D01*
X49498599Y-23880308D01*
X49554462Y-24064465D01*
X49061539Y-24758816D01*
X48515562Y-24560096D01*
X48394394Y-24529041D01*
X48269496Y-24522222D01*
X48145668Y-24539901D01*
X48027667Y-24581397D01*
X47920030Y-24645117D01*
X47826892Y-24728612D01*
X47751833Y-24828672D01*
X47697737Y-24941453D01*
X47013696Y-26820838D01*
X46982641Y-26942006D01*
X46975822Y-27066904D01*
X46015422Y-27066904D01*
X45545962Y-26130558D01*
X45606781Y-26016773D01*
X45688835Y-25746274D01*
X45716542Y-25464965D01*
X45688835Y-25183656D01*
X45606781Y-24913157D01*
X45473531Y-24663864D01*
X45294207Y-24445357D01*
X45075700Y-24266033D01*
X44826407Y-24132783D01*
X44555908Y-24050729D01*
X44345091Y-24029965D01*
X44204107Y-24029965D01*
X43993290Y-24050729D01*
X43722791Y-24132783D01*
X43473498Y-24266033D01*
X43254991Y-24445357D01*
X43075667Y-24663864D01*
X42942417Y-24913157D01*
X42860363Y-25183656D01*
X42855409Y-25233952D01*
X40319729Y-26493369D01*
X40201208Y-26430018D01*
X39930709Y-26347964D01*
X39719892Y-26327200D01*
X39578908Y-26327200D01*
X39368091Y-26347964D01*
X39097592Y-26430018D01*
X38848299Y-26563268D01*
X38629792Y-26742592D01*
X38450468Y-26961099D01*
X38317218Y-27210392D01*
X38235164Y-27480891D01*
X38207457Y-27762200D01*
X38235164Y-28043509D01*
X38317218Y-28314008D01*
X38450468Y-28563301D01*
X38629792Y-28781808D01*
X38848299Y-28961132D01*
X38981258Y-29032200D01*
X38848299Y-29103268D01*
X38629792Y-29282592D01*
X38450468Y-29501099D01*
X38317218Y-29750392D01*
X38235164Y-30020891D01*
X38207457Y-30302200D01*
X38235164Y-30583509D01*
X38317218Y-30854008D01*
X38450468Y-31103301D01*
X38629792Y-31321808D01*
X38848299Y-31501132D01*
X38981258Y-31572200D01*
X38848299Y-31643268D01*
X38629792Y-31822592D01*
X38450468Y-32041099D01*
X38317218Y-32290392D01*
X38235164Y-32560891D01*
X38207457Y-32842200D01*
X38235164Y-33123509D01*
X38317218Y-33394008D01*
X38450468Y-33643301D01*
X38629792Y-33861808D01*
X38848299Y-34041132D01*
X38981258Y-34112200D01*
X38848299Y-34183268D01*
X38629792Y-34362592D01*
X38450468Y-34581099D01*
X38317218Y-34830392D01*
X38235164Y-35100891D01*
X38207457Y-35382200D01*
X38235164Y-35663509D01*
X38317218Y-35934008D01*
X38450468Y-36183301D01*
X38629792Y-36401808D01*
X38848299Y-36581132D01*
X38981258Y-36652200D01*
X38848299Y-36723268D01*
X38629792Y-36902592D01*
X38450468Y-37121099D01*
X38317218Y-37370392D01*
X38235164Y-37640891D01*
X38207457Y-37922200D01*
X38235164Y-38203509D01*
X38317218Y-38474008D01*
X38450468Y-38723301D01*
X38629792Y-38941808D01*
X38848299Y-39121132D01*
X38981258Y-39192200D01*
X38848299Y-39263268D01*
X38629792Y-39442592D01*
X38450468Y-39661099D01*
X38317218Y-39910392D01*
X38235164Y-40180891D01*
X38207457Y-40462200D01*
X38235164Y-40743509D01*
X38317218Y-41014008D01*
X38450468Y-41263301D01*
X38629792Y-41481808D01*
X38811200Y-41630686D01*
X38811201Y-41833714D01*
X38629792Y-41982592D01*
X38450468Y-42201099D01*
X38317218Y-42450392D01*
X38235164Y-42720891D01*
X38207457Y-43002200D01*
X38235164Y-43283509D01*
X38317218Y-43554008D01*
X38450468Y-43803301D01*
X38629792Y-44021808D01*
X38848299Y-44201132D01*
X38912719Y-44235565D01*
X38938439Y-44539063D01*
X38938496Y-44547602D01*
X38941915Y-44580083D01*
X38944671Y-44612603D01*
X38946222Y-44620994D01*
X38993323Y-45068461D01*
X39001129Y-45147715D01*
X39013959Y-45190011D01*
X39022870Y-45233289D01*
X39037862Y-45268808D01*
X39049058Y-45305716D01*
X39069893Y-45344696D01*
X39087076Y-45385405D01*
X39108712Y-45417320D01*
X39126891Y-45451331D01*
X39154930Y-45485496D01*
X39179725Y-45522072D01*
X39236346Y-45577939D01*
X39816640Y-46158234D01*
X39843170Y-46185166D01*
X39845582Y-46187176D01*
X39847814Y-46189408D01*
X39877200Y-46213525D01*
X40326688Y-46588099D01*
X40244128Y-46588099D01*
X39966889Y-46643246D01*
X39705736Y-46751419D01*
X39484509Y-46899238D01*
X38736494Y-46370155D01*
X38264682Y-45662437D01*
X38104058Y-45245288D01*
X38137288Y-45078227D01*
X38137288Y-44874349D01*
X38097514Y-44674390D01*
X38019493Y-44486032D01*
X37906225Y-44316514D01*
X37762062Y-44172351D01*
X37592544Y-44059083D01*
X37404186Y-43981062D01*
X37204227Y-43941288D01*
X37000349Y-43941288D01*
X36800390Y-43981062D01*
X36612032Y-44059083D01*
X36442514Y-44172351D01*
X36298351Y-44316514D01*
X36185083Y-44486032D01*
X36107062Y-44674390D01*
X36067288Y-44874349D01*
X35358091Y-44874349D01*
X35026600Y-42759122D01*
X35026600Y-40267198D01*
X35030518Y-40218425D01*
X35021825Y-40143945D01*
X35014471Y-40069284D01*
X35012259Y-40061991D01*
X35011376Y-40054428D01*
X34988326Y-39983094D01*
X34966542Y-39911283D01*
X34943471Y-39868120D01*
X34302496Y-38396251D01*
X34301633Y-38392455D01*
X34269566Y-38320633D01*
X34254653Y-38286389D01*
X34252767Y-38283009D01*
X34234319Y-38241690D01*
X34212635Y-38211075D01*
X34194364Y-38178327D01*
X34165043Y-38143884D01*
X34138885Y-38106953D01*
X34111645Y-38081157D01*
X34087337Y-38052603D01*
X34051858Y-38024541D01*
X34018999Y-37993424D01*
X33987249Y-37973438D01*
X33957837Y-37950174D01*
X33917567Y-37929573D01*
X33914278Y-37927503D01*
X33880731Y-37910730D01*
X33810844Y-37874978D01*
X33807107Y-37873917D01*
X33448950Y-37694839D01*
X33443636Y-37640891D01*
X33361582Y-37370392D01*
X33228332Y-37121099D01*
X33049008Y-36902592D01*
X32830501Y-36723268D01*
X32697542Y-36652200D01*
X32830501Y-36581132D01*
X33049008Y-36401808D01*
X33228332Y-36183301D01*
X33361582Y-35934008D01*
X33443636Y-35663509D01*
X33471343Y-35382200D01*
X33443636Y-35100891D01*
X33361582Y-34830392D01*
X33228332Y-34581099D01*
X33049008Y-34362592D01*
X32830501Y-34183268D01*
X32697542Y-34112200D01*
X32830501Y-34041132D01*
X33049008Y-33861808D01*
X33228332Y-33643301D01*
X33361582Y-33394008D01*
X33443636Y-33123509D01*
X33471343Y-32842200D01*
X33443636Y-32560891D01*
X33361582Y-32290392D01*
X33228332Y-32041099D01*
X33049008Y-31822592D01*
X32830501Y-31643268D01*
X32697542Y-31572200D01*
X32830501Y-31501132D01*
X33049008Y-31321808D01*
X33228332Y-31103301D01*
X33361582Y-30854008D01*
X33371880Y-30820061D01*
X34268830Y-30587518D01*
X34321214Y-30577776D01*
X34386840Y-30551548D01*
X34453169Y-30527197D01*
X34463401Y-30520949D01*
X34474533Y-30516500D01*
X34533774Y-30477978D01*
X34594086Y-30441149D01*
X34602902Y-30433025D01*
X34612952Y-30426490D01*
X34663549Y-30377141D01*
X34715507Y-30329263D01*
X34722567Y-30319579D01*
X34731151Y-30311206D01*
X34771137Y-30252950D01*
X34812768Y-30195841D01*
X34817806Y-30184957D01*
X34824588Y-30175077D01*
X34852432Y-30110159D01*
X34882130Y-30046006D01*
X34884948Y-30034348D01*
X34889672Y-30023335D01*
X34904317Y-29954230D01*
X34920928Y-29885518D01*
X34923104Y-29832278D01*
X35063739Y-28566567D01*
X35065271Y-28561516D01*
X35072849Y-28484572D01*
X35076819Y-28448846D01*
X35076884Y-28443604D01*
X35077400Y-28438370D01*
X35077400Y-28402316D01*
X35078364Y-28325113D01*
X35077400Y-28319929D01*
X35077400Y-27348823D01*
X35079584Y-27335692D01*
X35077400Y-27266431D01*
X35077400Y-27238430D01*
X35076101Y-27225244D01*
X35075684Y-27212011D01*
X35072066Y-27184271D01*
X35065271Y-27115284D01*
X35061405Y-27102540D01*
X34924347Y-26051761D01*
X34923950Y-26018617D01*
X34913697Y-25970111D01*
X34912634Y-25961964D01*
X34905183Y-25929835D01*
X34889803Y-25857076D01*
X34886546Y-25849472D01*
X34884679Y-25841421D01*
X34854085Y-25773682D01*
X34841084Y-25743329D01*
X34837122Y-25736125D01*
X34816717Y-25690947D01*
X34797444Y-25663983D01*
X34545259Y-25205466D01*
X34580782Y-25139008D01*
X34662836Y-24868509D01*
X34690543Y-24587200D01*
X34676623Y-24445865D01*
X39433600Y-24445865D01*
X39433600Y-24728535D01*
X39488747Y-25005774D01*
X39596920Y-25266927D01*
X39753963Y-25501959D01*
X39953841Y-25701837D01*
X40188873Y-25858880D01*
X40450026Y-25967053D01*
X40727265Y-26022200D01*
X41009935Y-26022200D01*
X41287174Y-25967053D01*
X41548327Y-25858880D01*
X41783359Y-25701837D01*
X41983237Y-25501959D01*
X42140280Y-25266927D01*
X42248453Y-25005774D01*
X42303600Y-24728535D01*
X42303600Y-24445865D01*
X42248453Y-24168626D01*
X42140280Y-23907473D01*
X41983237Y-23672441D01*
X41783359Y-23472563D01*
X41548327Y-23315520D01*
X41287174Y-23207347D01*
X41009935Y-23152200D01*
X40727265Y-23152200D01*
X40450026Y-23207347D01*
X40188873Y-23315520D01*
X39953841Y-23472563D01*
X39753963Y-23672441D01*
X39596920Y-23907473D01*
X39488747Y-24168626D01*
X39433600Y-24445865D01*
X34676623Y-24445865D01*
X34662836Y-24305891D01*
X34580782Y-24035392D01*
X34447532Y-23786099D01*
X34268208Y-23567592D01*
X34049701Y-23388268D01*
X33800408Y-23255018D01*
X33529909Y-23172964D01*
X33319092Y-23152200D01*
X33178108Y-23152200D01*
X32967291Y-23172964D01*
X32696792Y-23255018D01*
X32447499Y-23388268D01*
X32228992Y-23567592D01*
X32049668Y-23786099D01*
X31924508Y-24020256D01*
X30572290Y-24317744D01*
X30534801Y-24321872D01*
X30491861Y-24335438D01*
X30488295Y-24336223D01*
X30452675Y-24347819D01*
X30377360Y-24371614D01*
X30374128Y-24373390D01*
X30370631Y-24374528D01*
X30301889Y-24413076D01*
X30232650Y-24451115D01*
X30229827Y-24453486D01*
X30226618Y-24455286D01*
X30166722Y-24506501D01*
X30137905Y-24530710D01*
X30135341Y-24533334D01*
X30101128Y-24562588D01*
X30077804Y-24592209D01*
X29063898Y-25629695D01*
X29051556Y-25638825D01*
X29006286Y-25688647D01*
X28988156Y-25707199D01*
X28978616Y-25719100D01*
X28968342Y-25730407D01*
X28952841Y-25751253D01*
X28910759Y-25803749D01*
X28903681Y-25817365D01*
X28310287Y-26615378D01*
X28020719Y-26783023D01*
X27850574Y-26712547D01*
X27573335Y-26657400D01*
X27290665Y-26657400D01*
X27172292Y-26680946D01*
X27466302Y-26373572D01*
X27482815Y-26357751D01*
X27494717Y-26343865D01*
X27507375Y-26330632D01*
X27521505Y-26312612D01*
X28845381Y-24768093D01*
X30930547Y-22898378D01*
X30960691Y-22907522D01*
X31171508Y-22928286D01*
X31312492Y-22928286D01*
X31523309Y-22907522D01*
X31793808Y-22825468D01*
X32043101Y-22692218D01*
X32261608Y-22512894D01*
X32440932Y-22294387D01*
X32574182Y-22045094D01*
X32656236Y-21774595D01*
X32683943Y-21493286D01*
X32656236Y-21211977D01*
X32574182Y-20941478D01*
X32440932Y-20692185D01*
X32261608Y-20473678D01*
X32238555Y-20454759D01*
X32757030Y-20619153D01*
X33781939Y-21000515D01*
X33832804Y-21024766D01*
X33927404Y-21048775D01*
X34021817Y-21073693D01*
X34078062Y-21077167D01*
X34812551Y-21188454D01*
X35980405Y-21502876D01*
X35982981Y-21504133D01*
X36079221Y-21529481D01*
X36126056Y-21542090D01*
X36128880Y-21542560D01*
X36131649Y-21543289D01*
X36179483Y-21550977D01*
X36277711Y-21567315D01*
X36280581Y-21567224D01*
X37522969Y-21766894D01*
X38397085Y-22054352D01*
X38402624Y-22062642D01*
X38574644Y-22234662D01*
X38776919Y-22369818D01*
X39001675Y-22462915D01*
X39240274Y-22510375D01*
X39483548Y-22510375D01*
X39722147Y-22462915D01*
X39946903Y-22369818D01*
X40149178Y-22234662D01*
X40321198Y-22062642D01*
X40456354Y-21860367D01*
X40549451Y-21635611D01*
X40590875Y-21427357D01*
X40641495Y-21447680D01*
X40764434Y-21470743D01*
X40889511Y-21469379D01*
X41011918Y-21443639D01*
X41126952Y-21394514D01*
X41164704Y-21368688D01*
X41978724Y-22108707D01*
X41973600Y-22134465D01*
X41973600Y-22417135D01*
X42028747Y-22694374D01*
X42136920Y-22955527D01*
X42293963Y-23190559D01*
X42493841Y-23390437D01*
X42728873Y-23547480D01*
X42990026Y-23655653D01*
X43267265Y-23710800D01*
X43549935Y-23710800D01*
X43827174Y-23655653D01*
X44088327Y-23547480D01*
X44323359Y-23390437D01*
X44523237Y-23190559D01*
X44680280Y-22955527D01*
X44788453Y-22694374D01*
X44843600Y-22417135D01*
X44843600Y-22134465D01*
X44788453Y-21857226D01*
X44680280Y-21596073D01*
X44523237Y-21361041D01*
X44323359Y-21161163D01*
X44088327Y-21004120D01*
X43827174Y-20895947D01*
X43549935Y-20840800D01*
X43267265Y-20840800D01*
X43110480Y-20871987D01*
X42361488Y-20191086D01*
X42374943Y-20119366D01*
X42373579Y-19994289D01*
X42347839Y-19871882D01*
X42298714Y-19756848D01*
X42228090Y-19653609D01*
X41456745Y-18734356D01*
X41367338Y-18646879D01*
X41262583Y-18578524D01*
X41146505Y-18531920D01*
X41023566Y-18508857D01*
X40898489Y-18510221D01*
X40776082Y-18535961D01*
X40661048Y-18585086D01*
X40557809Y-18655710D01*
X39638556Y-19427055D01*
X39551079Y-19516462D01*
X39482724Y-19621217D01*
X39436120Y-19737295D01*
X39413057Y-19860234D01*
X39414421Y-19985311D01*
X39426000Y-20040375D01*
X39240274Y-20040375D01*
X39053196Y-20077587D01*
X38162579Y-19784702D01*
X38134220Y-19770867D01*
X38065362Y-19752731D01*
X38046538Y-19746541D01*
X38015909Y-19739707D01*
X37985551Y-19731711D01*
X37965980Y-19728566D01*
X37896490Y-19713060D01*
X37864948Y-19712328D01*
X36565981Y-19503566D01*
X35389043Y-19186698D01*
X35382196Y-19183434D01*
X35290135Y-19160069D01*
X35247943Y-19148710D01*
X35240497Y-19147472D01*
X35233182Y-19145615D01*
X35189975Y-19139068D01*
X35096288Y-19123486D01*
X35088708Y-19123725D01*
X34450757Y-19027066D01*
X33483277Y-18667073D01*
X33459716Y-18656966D01*
X33435363Y-18649244D01*
X33411430Y-18640339D01*
X33386653Y-18633800D01*
X32376772Y-18313594D01*
X32335475Y-18299833D01*
X32328047Y-18298145D01*
X32320797Y-18295846D01*
X32278261Y-18286830D01*
X30642300Y-17915021D01*
X30576569Y-17895499D01*
X30491542Y-17887624D01*
X30406783Y-17876947D01*
X30389527Y-17878175D01*
X30372305Y-17876580D01*
X30287355Y-17885447D01*
X30202164Y-17891510D01*
X30185482Y-17896080D01*
X30168276Y-17897876D01*
X30086681Y-17923147D01*
X30004316Y-17945712D01*
X29942987Y-17976384D01*
X29532991Y-18149014D01*
X29478067Y-18166757D01*
X29393999Y-18213650D01*
X29309374Y-18259519D01*
X29264972Y-18296394D01*
X28467623Y-18850109D01*
X28463173Y-18852096D01*
X28383492Y-18908533D01*
X28345376Y-18935003D01*
X28341681Y-18938148D01*
X28295772Y-18970665D01*
X28263758Y-19004472D01*
X28228303Y-19034649D01*
X28193400Y-19078769D01*
X28154721Y-19119614D01*
X28129919Y-19159015D01*
X28101031Y-19195531D01*
X28075406Y-19245614D01*
X28072820Y-19249721D01*
X28052072Y-19291216D01*
X28007590Y-19378153D01*
X28006258Y-19382844D01*
X27614057Y-20167246D01*
X27585125Y-20213897D01*
X27550331Y-20306679D01*
X27514923Y-20399209D01*
X27505684Y-20453319D01*
X27439213Y-20702582D01*
X26877204Y-20867879D01*
X26873323Y-20868257D01*
X26778884Y-20896797D01*
X26733479Y-20910151D01*
X26729885Y-20911604D01*
X26676957Y-20927599D01*
X26635011Y-20949963D01*
X26590950Y-20967778D01*
X26544724Y-20998102D01*
X26541297Y-20999929D01*
X26501862Y-21026219D01*
X26419425Y-21080297D01*
X26416645Y-21083030D01*
X26063431Y-21318506D01*
X25496235Y-21533649D01*
X25458125Y-21543021D01*
X25400597Y-21569926D01*
X25389237Y-21574235D01*
X25354203Y-21591624D01*
X25272306Y-21629926D01*
X25262471Y-21637155D01*
X25251528Y-21642586D01*
X25179873Y-21697862D01*
X25107010Y-21751414D01*
X25098774Y-21760423D01*
X25089103Y-21767883D01*
X25029620Y-21836064D01*
X24968594Y-21902814D01*
X24962272Y-21913259D01*
X24954243Y-21922462D01*
X24909218Y-22000914D01*
X24888988Y-22034337D01*
X24883751Y-22045287D01*
X24852132Y-22100380D01*
X24839611Y-22137581D01*
X24670746Y-22490660D01*
X24394317Y-22752541D01*
X23052084Y-23639373D01*
X22666500Y-23888869D01*
X22665538Y-23889368D01*
X22623445Y-23916728D01*
X22581513Y-23943861D01*
X22580670Y-23944532D01*
X22132066Y-24236125D01*
X21500029Y-24612020D01*
X21460751Y-24600105D01*
X21249934Y-24579341D01*
X21108950Y-24579341D01*
X20898133Y-24600105D01*
X20627634Y-24682159D01*
X20378341Y-24815409D01*
X20159834Y-24994733D01*
X19980510Y-25213240D01*
X19847260Y-25462533D01*
X19765206Y-25733032D01*
X19737499Y-26014341D01*
X19765206Y-26295650D01*
X19847260Y-26566149D01*
X19980510Y-26815442D01*
X20159834Y-27033949D01*
X20378341Y-27213273D01*
X20627634Y-27346523D01*
X20898133Y-27428577D01*
X21108950Y-27449341D01*
X21249934Y-27449341D01*
X21460751Y-27428577D01*
X21731250Y-27346523D01*
X21980543Y-27213273D01*
X22199050Y-27033949D01*
X22378374Y-26815442D01*
X22511624Y-26566149D01*
X22560643Y-26404552D01*
X23188437Y-26031182D01*
X23206862Y-26021632D01*
X23232333Y-26005076D01*
X23258489Y-25989520D01*
X23275228Y-25977194D01*
X23756851Y-25664139D01*
X24148985Y-25410405D01*
X24153401Y-25408074D01*
X24191950Y-25382604D01*
X24230687Y-25357539D01*
X24234588Y-25354432D01*
X25566288Y-24474560D01*
X25602050Y-24456670D01*
X25651639Y-24418167D01*
X25661157Y-24411879D01*
X25692077Y-24386771D01*
X25723483Y-24362386D01*
X25731750Y-24354554D01*
X25780501Y-24314966D01*
X25806036Y-24284177D01*
X26196076Y-23914666D01*
X26226389Y-23892387D01*
X26270355Y-23844297D01*
X26280351Y-23834827D01*
X26304878Y-23806536D01*
X26364806Y-23740986D01*
X26371978Y-23729136D01*
X26381057Y-23718664D01*
X26425048Y-23641456D01*
X26444412Y-23609463D01*
X26450347Y-23597054D01*
X26482610Y-23540429D01*
X26494500Y-23504733D01*
X26565860Y-23355528D01*
X26878703Y-23236863D01*
X26942442Y-23217601D01*
X27019582Y-23176472D01*
X27097872Y-23137614D01*
X27150589Y-23096947D01*
X27522242Y-22849178D01*
X28188558Y-22653203D01*
X28242846Y-22642456D01*
X28333980Y-22604805D01*
X28425450Y-22567822D01*
X28471729Y-22537464D01*
X28781975Y-22371999D01*
X28845303Y-22343214D01*
X28913872Y-22293954D01*
X28984111Y-22247115D01*
X28997053Y-22234197D01*
X29011905Y-22223527D01*
X29069547Y-22161836D01*
X29129298Y-22102194D01*
X29139471Y-22086999D01*
X29151957Y-22073636D01*
X29196463Y-22001873D01*
X29243423Y-21931732D01*
X29250434Y-21914849D01*
X29260075Y-21899304D01*
X29289727Y-21820232D01*
X29322099Y-21742282D01*
X29335731Y-21674076D01*
X29503103Y-21046433D01*
X29793897Y-20464847D01*
X30400326Y-20043715D01*
X30474017Y-20012687D01*
X30877307Y-20104344D01*
X30690192Y-20161104D01*
X30440899Y-20294354D01*
X30222392Y-20473678D01*
X30043068Y-20692185D01*
X29909818Y-20941478D01*
X29827764Y-21211977D01*
X29800057Y-21493286D01*
X29815183Y-21646858D01*
X27736299Y-23510942D01*
X27724535Y-23518443D01*
X27674908Y-23565990D01*
X27654570Y-23584226D01*
X27645216Y-23594437D01*
X27635184Y-23604048D01*
X27617353Y-23624851D01*
X27570982Y-23675468D01*
X27563753Y-23687385D01*
X26251683Y-25218135D01*
X25184795Y-26333518D01*
X25160037Y-26353836D01*
X25127879Y-26393021D01*
X25121424Y-26399769D01*
X25101745Y-26424865D01*
X25055292Y-26481468D01*
X25050865Y-26489750D01*
X25045068Y-26497143D01*
X25011982Y-26562495D01*
X24977459Y-26627083D01*
X24974732Y-26636071D01*
X24970490Y-26644451D01*
X24950790Y-26714998D01*
X24929530Y-26785084D01*
X24928609Y-26794431D01*
X24926083Y-26803478D01*
X24920525Y-26876514D01*
X24917401Y-26908230D01*
X24917401Y-26917562D01*
X24913554Y-26968112D01*
X24917401Y-26999911D01*
X24917400Y-28043261D01*
X24823413Y-27949274D01*
X24514731Y-27743018D01*
X24171741Y-27600947D01*
X23807625Y-27528520D01*
X23436375Y-27528520D01*
X23072259Y-27600947D01*
X22729269Y-27743018D01*
X22420587Y-27949274D01*
X22158074Y-28211787D01*
X21951818Y-28520469D01*
X21809747Y-28863459D01*
X21737320Y-29227575D01*
X21737320Y-29598825D01*
X21809747Y-29962941D01*
X21951818Y-30305931D01*
X22158074Y-30614613D01*
X22401437Y-30857976D01*
X22310230Y-31226946D01*
X22136258Y-31386421D01*
X21985335Y-31356400D01*
X21702665Y-31356400D01*
X21425426Y-31411547D01*
X21164273Y-31519720D01*
X20929241Y-31676763D01*
X20729363Y-31876641D01*
X20572320Y-32111673D01*
X20464147Y-32372826D01*
X20409000Y-32650065D01*
X20409000Y-32932735D01*
X20464147Y-33209974D01*
X20572320Y-33471127D01*
X20590390Y-33498170D01*
X20389557Y-33436376D01*
X20387864Y-33435472D01*
X20310923Y-33412181D01*
X20273153Y-33400559D01*
X20271268Y-33400176D01*
X20229836Y-33387634D01*
X20190561Y-33383789D01*
X20151886Y-33375936D01*
X20108593Y-33375764D01*
X20065510Y-33371546D01*
X20026240Y-33375437D01*
X19986777Y-33375280D01*
X19944287Y-33383556D01*
X19901204Y-33387825D01*
X19863441Y-33399304D01*
X19824712Y-33406848D01*
X19784659Y-33423252D01*
X19782811Y-33423814D01*
X19746208Y-33439000D01*
X19671920Y-33469426D01*
X19670320Y-33470486D01*
X18532780Y-33942444D01*
X18453853Y-33868520D01*
X18347631Y-33802468D01*
X18230564Y-33758407D01*
X18107151Y-33738031D01*
X17982134Y-33742124D01*
X17860317Y-33770527D01*
X17746383Y-33822150D01*
X16447345Y-34572150D01*
X16345671Y-34645009D01*
X16260164Y-34736304D01*
X16194112Y-34842525D01*
X16150051Y-34959592D01*
X16129675Y-35083005D01*
X16133768Y-35208022D01*
X16162171Y-35329839D01*
X16213795Y-35443773D01*
X16738795Y-36353099D01*
X16811653Y-36454773D01*
X16887525Y-36525835D01*
X16907184Y-36610149D01*
X16980044Y-36770956D01*
X17146115Y-37058600D01*
X15826462Y-37058600D01*
X15853750Y-36781542D01*
X15826043Y-36500233D01*
X15743989Y-36229734D01*
X15611511Y-35981886D01*
X16650859Y-33241223D01*
X16699974Y-33231453D01*
X16961127Y-33123280D01*
X17196159Y-32966237D01*
X17396037Y-32766359D01*
X17553080Y-32531327D01*
X17661253Y-32270174D01*
X17716400Y-31992935D01*
X17716400Y-31710265D01*
X17661253Y-31433026D01*
X17553080Y-31171873D01*
X17396037Y-30936841D01*
X17196159Y-30736963D01*
X16961127Y-30579920D01*
X16699974Y-30471747D01*
X16422735Y-30416600D01*
X16140065Y-30416600D01*
X15862826Y-30471747D01*
X15601673Y-30579920D01*
X15366641Y-30736963D01*
X15166763Y-30936841D01*
X15009720Y-31171873D01*
X14901547Y-31433026D01*
X14846400Y-31710265D01*
X14846400Y-31992935D01*
X14901547Y-32270174D01*
X15009720Y-32531327D01*
X15084649Y-32643467D01*
X14041437Y-35394322D01*
X13859999Y-35449360D01*
X13610706Y-35582610D01*
X13392199Y-35761934D01*
X13212875Y-35980441D01*
X13079625Y-36229734D01*
X12997571Y-36500233D01*
X12969864Y-36781542D01*
X12852000Y-36781542D01*
X12852000Y-17118738D01*
X13391000Y-17118738D01*
X13391000Y-17933262D01*
X13549906Y-18732135D01*
X13861611Y-19484657D01*
X14314136Y-20161909D01*
X14890091Y-20737864D01*
X15567343Y-21190389D01*
X16319865Y-21502094D01*
X17118738Y-21661000D01*
X17933262Y-21661000D01*
X18732135Y-21502094D01*
X19484657Y-21190389D01*
X20161909Y-20737864D01*
X20737864Y-20161909D01*
X21190389Y-19484657D01*
X21502094Y-18732135D01*
X21661000Y-17933262D01*
X21661000Y-17372738D01*
X60635000Y-17372738D01*
X60635000Y-18187262D01*
X60793906Y-18986135D01*
X61105611Y-19738657D01*
X61558136Y-20415909D01*
X62134091Y-20991864D01*
X62811343Y-21444389D01*
X63563865Y-21756094D01*
X64362738Y-21915000D01*
X65177262Y-21915000D01*
X65976135Y-21756094D01*
X66728657Y-21444389D01*
X67405909Y-20991864D01*
X67981864Y-20415909D01*
X68434389Y-19738657D01*
X68746094Y-18986135D01*
X68905000Y-18187262D01*
X68905000Y-17372738D01*
X68746094Y-16573865D01*
X68434389Y-15821343D01*
X67981864Y-15144091D01*
X67405909Y-14568136D01*
X66728657Y-14115611D01*
X65976135Y-13803906D01*
X65177262Y-13645000D01*
X64362738Y-13645000D01*
X63563865Y-13803906D01*
X62811343Y-14115611D01*
X62134091Y-14568136D01*
X61558136Y-15144091D01*
X61105611Y-15821343D01*
X60793906Y-16573865D01*
X60635000Y-17372738D01*
X21661000Y-17372738D01*
X21661000Y-17118738D01*
X21502094Y-16319865D01*
X21190389Y-15567343D01*
X20737864Y-14890091D01*
X20161909Y-14314136D01*
X19484657Y-13861611D01*
X18732135Y-13549906D01*
X17933262Y-13391000D01*
X17118738Y-13391000D01*
X16319865Y-13549906D01*
X15567343Y-13861611D01*
X14890091Y-14314136D01*
X14314136Y-14890091D01*
X13861611Y-15567343D01*
X13549906Y-16319865D01*
X13391000Y-17118738D01*
X12852000Y-17118738D01*
X12852000Y-12852000D01*
X69698001Y-12852000D01*
X69698001Y-27439890D01*
G36*
X46245787Y-37931474D02*
G01*
X45983274Y-38193987D01*
X45777018Y-38502669D01*
X45634947Y-38845659D01*
X45562520Y-39209775D01*
X45562520Y-39581025D01*
X45634947Y-39945141D01*
X45777018Y-40288131D01*
X45983274Y-40596813D01*
X46245787Y-40859326D01*
X46554469Y-41065582D01*
X46897459Y-41207653D01*
X47261575Y-41280080D01*
X47592901Y-41280080D01*
X48442643Y-42708768D01*
X48378747Y-42863026D01*
X48323600Y-43140265D01*
X48323600Y-43422935D01*
X48378747Y-43700174D01*
X48486920Y-43961327D01*
X48573979Y-44091621D01*
X47722820Y-44117946D01*
X47713339Y-44116583D01*
X47640430Y-44120494D01*
X47608739Y-44121474D01*
X47599290Y-44122701D01*
X47589775Y-44123211D01*
X47558431Y-44128005D01*
X47486027Y-44137404D01*
X47476952Y-44140466D01*
X45460748Y-44448827D01*
X45449703Y-44448623D01*
X45379285Y-44461286D01*
X45349382Y-44465859D01*
X45338730Y-44468578D01*
X45327915Y-44470523D01*
X45298829Y-44478764D01*
X45229485Y-44496466D01*
X45219516Y-44501236D01*
X43818746Y-44898121D01*
X43793046Y-44901776D01*
X43739502Y-44920573D01*
X43724694Y-44924769D01*
X43700654Y-44934212D01*
X43637257Y-44956468D01*
X43623931Y-44964347D01*
X43609519Y-44970008D01*
X43552976Y-45006300D01*
X43495130Y-45040502D01*
X43483593Y-45050833D01*
X43470567Y-45059194D01*
X43422202Y-45105809D01*
X43372129Y-45150649D01*
X43362828Y-45163034D01*
X43351685Y-45173774D01*
X43313348Y-45228922D01*
X43297822Y-45249596D01*
X43289822Y-45262763D01*
X43257440Y-45309345D01*
X43247069Y-45333134D01*
X43127671Y-45529657D01*
X42636621Y-44790970D01*
X42512739Y-44543206D01*
X42561784Y-44555500D01*
X42844112Y-44569417D01*
X43123730Y-44527987D01*
X43389892Y-44432803D01*
X43515114Y-44365871D01*
X43586697Y-44121902D01*
X42773600Y-43308805D01*
X42759458Y-43322948D01*
X42579853Y-43143343D01*
X42593995Y-43129200D01*
X42953205Y-43129200D01*
X43766302Y-43942297D01*
X44010271Y-43870714D01*
X44131171Y-43615204D01*
X44199900Y-43341016D01*
X44213817Y-43058688D01*
X44172387Y-42779070D01*
X44077203Y-42512908D01*
X44010271Y-42387686D01*
X43766302Y-42316103D01*
X42953205Y-43129200D01*
X42593995Y-43129200D01*
X42579853Y-43115058D01*
X42759458Y-42935453D01*
X42773600Y-42949595D01*
X43586697Y-42136498D01*
X43515114Y-41892529D01*
X43259604Y-41771629D01*
X42985416Y-41702900D01*
X42703088Y-41688983D01*
X42423470Y-41730413D01*
X42157308Y-41825597D01*
X42060086Y-41877563D01*
X42215933Y-41098331D01*
X42228071Y-41058316D01*
X42236179Y-40975994D01*
X42244254Y-40894881D01*
X42240200Y-40853275D01*
X42240200Y-39898750D01*
X42243259Y-39837058D01*
X42234166Y-39775562D01*
X42228071Y-39713684D01*
X42210138Y-39654566D01*
X42015973Y-38877907D01*
X42061838Y-38882376D01*
X42112848Y-38887400D01*
X42113400Y-38887400D01*
X42165094Y-38892437D01*
X42215692Y-38887400D01*
X43112552Y-38887400D01*
X43147356Y-38891928D01*
X43214861Y-38887400D01*
X43231152Y-38887400D01*
X43265935Y-38883974D01*
X43300749Y-38881639D01*
X43316792Y-38878965D01*
X43384150Y-38872331D01*
X43417748Y-38862139D01*
X44868893Y-38620282D01*
X44963706Y-38605698D01*
X45018151Y-38585887D01*
X45074100Y-38570804D01*
X45114315Y-38550896D01*
X45156478Y-38535554D01*
X45206015Y-38505501D01*
X45257943Y-38479794D01*
X45333965Y-38421276D01*
X46067132Y-37871400D01*
X46335694Y-37871400D01*
X46245787Y-37931474D01*
X46245787Y-37931474D01*
G37*
X46245787Y-37931474D02*
X45983274Y-38193987D01*
X45777018Y-38502669D01*
X45634947Y-38845659D01*
X45562520Y-39209775D01*
X45562520Y-39581025D01*
X45634947Y-39945141D01*
X45777018Y-40288131D01*
X45983274Y-40596813D01*
X46245787Y-40859326D01*
X46554469Y-41065582D01*
X46897459Y-41207653D01*
X47261575Y-41280080D01*
X47592901Y-41280080D01*
X48442643Y-42708768D01*
X48378747Y-42863026D01*
X48323600Y-43140265D01*
X48323600Y-43422935D01*
X48378747Y-43700174D01*
X48486920Y-43961327D01*
X48573979Y-44091621D01*
X47722820Y-44117946D01*
X47713339Y-44116583D01*
X47640430Y-44120494D01*
X47608739Y-44121474D01*
X47599290Y-44122701D01*
X47589775Y-44123211D01*
X47558431Y-44128005D01*
X47486027Y-44137404D01*
X47476952Y-44140466D01*
X45460748Y-44448827D01*
X45449703Y-44448623D01*
X45379285Y-44461286D01*
X45349382Y-44465859D01*
X45338730Y-44468578D01*
X45327915Y-44470523D01*
X45298829Y-44478764D01*
X45229485Y-44496466D01*
X45219516Y-44501236D01*
X43818746Y-44898121D01*
X43793046Y-44901776D01*
X43739502Y-44920573D01*
X43724694Y-44924769D01*
X43700654Y-44934212D01*
X43637257Y-44956468D01*
X43623931Y-44964347D01*
X43609519Y-44970008D01*
X43552976Y-45006300D01*
X43495130Y-45040502D01*
X43483593Y-45050833D01*
X43470567Y-45059194D01*
X43422202Y-45105809D01*
X43372129Y-45150649D01*
X43362828Y-45163034D01*
X43351685Y-45173774D01*
X43313348Y-45228922D01*
X43297822Y-45249596D01*
X43289822Y-45262763D01*
X43257440Y-45309345D01*
X43247069Y-45333134D01*
X43127671Y-45529657D01*
X42636621Y-44790970D01*
X42512739Y-44543206D01*
X42561784Y-44555500D01*
X42844112Y-44569417D01*
X43123730Y-44527987D01*
X43389892Y-44432803D01*
X43515114Y-44365871D01*
X43586697Y-44121902D01*
X42773600Y-43308805D01*
X42759458Y-43322948D01*
X42579853Y-43143343D01*
X42593995Y-43129200D01*
X42953205Y-43129200D01*
X43766302Y-43942297D01*
X44010271Y-43870714D01*
X44131171Y-43615204D01*
X44199900Y-43341016D01*
X44213817Y-43058688D01*
X44172387Y-42779070D01*
X44077203Y-42512908D01*
X44010271Y-42387686D01*
X43766302Y-42316103D01*
X42953205Y-43129200D01*
X42593995Y-43129200D01*
X42579853Y-43115058D01*
X42759458Y-42935453D01*
X42773600Y-42949595D01*
X43586697Y-42136498D01*
X43515114Y-41892529D01*
X43259604Y-41771629D01*
X42985416Y-41702900D01*
X42703088Y-41688983D01*
X42423470Y-41730413D01*
X42157308Y-41825597D01*
X42060086Y-41877563D01*
X42215933Y-41098331D01*
X42228071Y-41058316D01*
X42236179Y-40975994D01*
X42244254Y-40894881D01*
X42240200Y-40853275D01*
X42240200Y-39898750D01*
X42243259Y-39837058D01*
X42234166Y-39775562D01*
X42228071Y-39713684D01*
X42210138Y-39654566D01*
X42015973Y-38877907D01*
X42061838Y-38882376D01*
X42112848Y-38887400D01*
X42113400Y-38887400D01*
X42165094Y-38892437D01*
X42215692Y-38887400D01*
X43112552Y-38887400D01*
X43147356Y-38891928D01*
X43214861Y-38887400D01*
X43231152Y-38887400D01*
X43265935Y-38883974D01*
X43300749Y-38881639D01*
X43316792Y-38878965D01*
X43384150Y-38872331D01*
X43417748Y-38862139D01*
X44868893Y-38620282D01*
X44963706Y-38605698D01*
X45018151Y-38585887D01*
X45074100Y-38570804D01*
X45114315Y-38550896D01*
X45156478Y-38535554D01*
X45206015Y-38505501D01*
X45257943Y-38479794D01*
X45333965Y-38421276D01*
X46067132Y-37871400D01*
X46335694Y-37871400D01*
X46245787Y-37931474D01*
M02*
