M48
; DRILL file {KiCad (5.1.2-1)-1} date Wednesday, May 12, 2021 at 11:47:17 PM
; FORMAT={-:-/ absolute / inch / decimal}
; #@! TF.CreationDate,2021-05-12T23:47:17-04:00
; #@! TF.GenerationSoftware,Kicad,Pcbnew,(5.1.2-1)-1
FMAT,2
INCH
T1C0.0157
T2C0.0236
T3C0.0295
T4C0.0315
T5C0.0394
T6C0.0394
T7C0.1378
%
G90
G05
T1
X1.4607Y-1.7707
T2
X1.5497Y-0.8376
X1.61Y-0.787
X2.5213Y-1.6765
X2.535Y-1.599
X2.602Y-1.241
X2.602Y-1.3197
T3
X0.696Y-1.386
X0.721Y-1.4293
X0.746Y-1.4726
T4
X1.1701Y-1.82
X1.367Y-1.82
X0.8634Y-1.7531
X0.966Y-2.035
X1.6992Y-1.854
X1.959Y-1.704
X0.641Y-1.254
X0.8338Y-1.0242
X1.709Y-0.877
X2.0044Y-0.9291
X2.044Y-1.619
X2.2409Y-1.619
X1.254Y-2.132
X1.5494Y-2.0799
X0.8002Y-1.6508
X0.993Y-1.421
X0.5674Y-1.4481
X0.67Y-1.73
X1.261Y-1.093
X1.261Y-1.193
X1.261Y-1.293
X1.261Y-1.393
X1.261Y-1.493
X1.261Y-1.593
X1.261Y-1.693
X1.561Y-1.093
X1.561Y-1.193
X1.561Y-1.293
X1.561Y-1.393
X1.561Y-1.493
X1.561Y-1.593
X1.561Y-1.693
X1.405Y-1.958
X1.59Y-1.8907
X1.08Y-1.106
X1.23Y-0.8462
X1.684Y-1.398
X1.684Y-1.698
X1.813Y-1.383
X2.1084Y-1.3309
X1.135Y-1.401
X1.135Y-1.701
X0.9734Y-1.6571
X1.076Y-1.939
X2.3294Y-1.5279
X2.432Y-1.246
X1.691Y-1.298
X1.7431Y-1.0026
X0.86Y-1.291
X1.16Y-1.291
X1.656Y-2.037
X1.9158Y-1.887
X1.309Y-0.968
X1.609Y-0.968
T5
X2.0838Y-1.0274
X2.237Y-1.156
X1.099Y-2.046
X1.2869Y-1.9776
X1.8566Y-1.2289
X1.925Y-1.041
T6
X2.528Y-1.457
X2.678Y-1.457
X2.033Y-1.831
X2.23Y-1.314
X1.66Y-2.19
X2.018Y-1.18
X1.141Y-2.176
X2.37Y-1.734
X2.4849Y-1.8304
X0.93Y-1.158
X1.868Y-1.551
X2.526Y-1.11
X2.676Y-1.11
X2.112Y-1.473
X1.927Y-0.777
T7
X2.55Y-0.7
X0.7Y-2.1
X2.55Y-2.09
X0.69Y-0.69
T0
M30
