G04 #@! TF.GenerationSoftware,KiCad,Pcbnew,(5.1.2-1)-1*
G04 #@! TF.CreationDate,2021-05-12T23:47:19-04:00*
G04 #@! TF.ProjectId,Dual Micro Sample Hold - MFOS,4475616c-204d-4696-9372-6f2053616d70,rev?*
G04 #@! TF.SameCoordinates,Original*
G04 #@! TF.FileFunction,Copper,L1,Top*
G04 #@! TF.FilePolarity,Positive*
%FSLAX46Y46*%
G04 Gerber Fmt 4.6, Leading zero omitted, Abs format (unit mm)*
G04 Created by KiCad (PCBNEW (5.1.2-1)-1) date 2021-05-12 23:47:19*
%MOMM*%
%LPD*%
G04 APERTURE LIST*
%ADD10C,7.000000*%
%ADD11R,1.200000X1.200000*%
%ADD12C,1.200000*%
%ADD13C,0.100000*%
%ADD14C,1.600000*%
%ADD15C,2.000000*%
%ADD16C,2.000000*%
%ADD17R,2.499360X2.499360*%
%ADD18C,2.499360*%
%ADD19C,1.050000*%
%ADD20O,1.600000X1.600000*%
%ADD21C,1.600000*%
%ADD22R,1.600000X1.600000*%
%ADD23C,0.800000*%
%ADD24C,0.812800*%
%ADD25C,0.406400*%
%ADD26C,0.254000*%
G04 APERTURE END LIST*
D10*
X17780000Y-53340000D03*
X64770000Y-53086000D03*
X64770000Y-17780000D03*
X17526000Y-17526000D03*
D11*
X66090800Y-31521400D03*
D12*
X66090800Y-33521400D03*
X64041704Y-42584216D03*
X64389000Y-40614600D03*
D13*
G36*
X63902304Y-39919526D02*
G01*
X65084074Y-40127904D01*
X64875696Y-41309674D01*
X63693926Y-41101296D01*
X63902304Y-39919526D01*
X63902304Y-39919526D01*
G37*
D12*
X39361911Y-21275375D03*
X40894000Y-19989800D03*
D13*
G36*
X40967954Y-19144501D02*
G01*
X41739299Y-20063754D01*
X40820046Y-20835099D01*
X40048701Y-19915846D01*
X40967954Y-19144501D01*
X40967954Y-19144501D01*
G37*
D14*
X35687000Y-49733200D03*
X40385463Y-48023099D03*
X29721800Y-46228000D03*
X34721800Y-46228000D03*
X56917600Y-41122600D03*
X51917600Y-41122600D03*
D15*
X47157538Y-31215039D03*
D16*
X47157538Y-31215039D02*
X47157538Y-31215039D01*
D15*
X48895000Y-26441400D03*
D13*
G36*
X48297328Y-25159687D02*
G01*
X50176713Y-25843728D01*
X49492672Y-27723113D01*
X47613287Y-27039072D01*
X48297328Y-25159687D01*
X48297328Y-25159687D01*
G37*
D15*
X27914600Y-51968400D03*
D13*
G36*
X27316928Y-53250113D02*
G01*
X26632887Y-51370728D01*
X28512272Y-50686687D01*
X29196313Y-52566072D01*
X27316928Y-53250113D01*
X27316928Y-53250113D01*
G37*
D15*
X32688239Y-50230938D03*
D16*
X32688239Y-50230938D02*
X32688239Y-50230938D01*
D15*
X52928294Y-26097039D03*
D16*
X52928294Y-26097039D02*
X52928294Y-26097039D01*
D15*
X56819800Y-29362400D03*
D13*
G36*
X58228632Y-29239143D02*
G01*
X56943057Y-30771232D01*
X55410968Y-29485657D01*
X56696543Y-27953568D01*
X58228632Y-29239143D01*
X58228632Y-29239143D01*
G37*
D17*
X64160400Y-28194000D03*
D18*
X67970400Y-28194000D03*
X68021200Y-37007800D03*
D17*
X64211200Y-37007800D03*
D18*
X60198000Y-44043600D03*
D13*
G36*
X58437411Y-44197632D02*
G01*
X60043968Y-42283011D01*
X61958589Y-43889568D01*
X60352032Y-45804189D01*
X58437411Y-44197632D01*
X58437411Y-44197632D01*
G37*
D18*
X63116629Y-46492621D03*
X23622000Y-29413200D03*
X48945800Y-19735800D03*
X51257200Y-29972000D03*
X53644800Y-37414200D03*
X42164000Y-55626000D03*
X47447200Y-39395400D03*
X56642000Y-33375600D03*
X28981400Y-55270400D03*
X51638200Y-46507400D03*
D13*
G36*
X18621505Y-35571232D02*
G01*
X18647097Y-35574176D01*
X18672277Y-35579614D01*
X18696803Y-35587495D01*
X18720438Y-35597741D01*
X18742955Y-35610254D01*
X18764137Y-35624915D01*
X18783780Y-35641581D01*
X18801695Y-35660092D01*
X18817709Y-35680270D01*
X18831669Y-35701920D01*
X19094169Y-36156584D01*
X19105939Y-36179499D01*
X19115406Y-36203456D01*
X19122480Y-36228227D01*
X19127091Y-36253571D01*
X19129196Y-36279245D01*
X19128775Y-36305002D01*
X19125831Y-36330594D01*
X19120392Y-36355774D01*
X19112512Y-36380300D01*
X19102266Y-36403935D01*
X19089752Y-36426452D01*
X19075092Y-36447634D01*
X19058426Y-36467277D01*
X19039915Y-36485192D01*
X19019737Y-36501206D01*
X18998087Y-36515166D01*
X18153713Y-37002666D01*
X18130799Y-37014436D01*
X18106841Y-37023903D01*
X18082071Y-37030977D01*
X18056726Y-37035588D01*
X18031052Y-37037693D01*
X18005295Y-37037272D01*
X17979703Y-37034328D01*
X17954523Y-37028890D01*
X17929997Y-37021009D01*
X17906362Y-37010763D01*
X17883845Y-36998250D01*
X17862663Y-36983589D01*
X17843020Y-36966923D01*
X17825105Y-36948412D01*
X17809091Y-36928234D01*
X17795131Y-36906584D01*
X17532631Y-36451920D01*
X17520861Y-36429005D01*
X17511394Y-36405048D01*
X17504320Y-36380277D01*
X17499709Y-36354933D01*
X17497604Y-36329259D01*
X17498025Y-36303502D01*
X17500969Y-36277910D01*
X17506408Y-36252730D01*
X17514288Y-36228204D01*
X17524534Y-36204569D01*
X17537048Y-36182052D01*
X17551708Y-36160870D01*
X17568374Y-36141227D01*
X17586885Y-36123312D01*
X17607063Y-36107298D01*
X17628713Y-36093338D01*
X18473087Y-35605838D01*
X18496001Y-35594068D01*
X18519959Y-35584601D01*
X18544729Y-35577527D01*
X18570074Y-35572916D01*
X18595748Y-35570811D01*
X18621505Y-35571232D01*
X18621505Y-35571232D01*
G37*
D19*
X18313400Y-36304252D03*
D13*
G36*
X19256505Y-36671085D02*
G01*
X19282097Y-36674029D01*
X19307277Y-36679467D01*
X19331803Y-36687348D01*
X19355438Y-36697594D01*
X19377955Y-36710107D01*
X19399137Y-36724768D01*
X19418780Y-36741434D01*
X19436695Y-36759945D01*
X19452709Y-36780123D01*
X19466669Y-36801773D01*
X19729169Y-37256437D01*
X19740939Y-37279352D01*
X19750406Y-37303309D01*
X19757480Y-37328080D01*
X19762091Y-37353424D01*
X19764196Y-37379098D01*
X19763775Y-37404855D01*
X19760831Y-37430447D01*
X19755392Y-37455627D01*
X19747512Y-37480153D01*
X19737266Y-37503788D01*
X19724752Y-37526305D01*
X19710092Y-37547487D01*
X19693426Y-37567130D01*
X19674915Y-37585045D01*
X19654737Y-37601059D01*
X19633087Y-37615019D01*
X18788713Y-38102519D01*
X18765799Y-38114289D01*
X18741841Y-38123756D01*
X18717071Y-38130830D01*
X18691726Y-38135441D01*
X18666052Y-38137546D01*
X18640295Y-38137125D01*
X18614703Y-38134181D01*
X18589523Y-38128743D01*
X18564997Y-38120862D01*
X18541362Y-38110616D01*
X18518845Y-38098103D01*
X18497663Y-38083442D01*
X18478020Y-38066776D01*
X18460105Y-38048265D01*
X18444091Y-38028087D01*
X18430131Y-38006437D01*
X18167631Y-37551773D01*
X18155861Y-37528858D01*
X18146394Y-37504901D01*
X18139320Y-37480130D01*
X18134709Y-37454786D01*
X18132604Y-37429112D01*
X18133025Y-37403355D01*
X18135969Y-37377763D01*
X18141408Y-37352583D01*
X18149288Y-37328057D01*
X18159534Y-37304422D01*
X18172048Y-37281905D01*
X18186708Y-37260723D01*
X18203374Y-37241080D01*
X18221885Y-37223165D01*
X18242063Y-37207151D01*
X18263713Y-37193191D01*
X19108087Y-36705691D01*
X19131001Y-36693921D01*
X19154959Y-36684454D01*
X19179729Y-36677380D01*
X19205074Y-36672769D01*
X19230748Y-36670664D01*
X19256505Y-36671085D01*
X19256505Y-36671085D01*
G37*
D19*
X18948400Y-37404105D03*
X17678400Y-35204400D03*
D13*
G36*
X16766381Y-35124737D02*
G01*
X18065419Y-34374737D01*
X18590419Y-35284063D01*
X17291381Y-36034063D01*
X16766381Y-35124737D01*
X16766381Y-35124737D01*
G37*
D14*
X21844000Y-32791400D03*
D20*
X29464000Y-32791400D03*
X28829000Y-43205400D03*
D14*
X28829000Y-35585400D03*
X40868600Y-24587200D03*
D20*
X33248600Y-24587200D03*
D14*
X42773600Y-43129200D03*
D20*
X42773600Y-35509200D03*
D14*
X31242000Y-21493286D03*
D21*
X31242000Y-21493286D02*
X31242000Y-21493286D01*
D14*
X27432000Y-28092400D03*
X43408600Y-22275800D03*
X50912835Y-23598999D03*
D21*
X50912835Y-23598999D02*
X50912835Y-23598999D01*
D14*
X42951400Y-32969200D03*
X44274599Y-25464965D03*
D21*
X44274599Y-25464965D02*
X44274599Y-25464965D01*
D14*
X14411807Y-36781542D03*
D21*
X14411807Y-36781542D02*
X14411807Y-36781542D01*
D14*
X17018000Y-43942000D03*
X21930207Y-44528542D03*
D21*
X21930207Y-44528542D02*
X21930207Y-44528542D01*
D14*
X24536400Y-51689000D03*
X53554435Y-33805001D03*
D21*
X53554435Y-33805001D02*
X53554435Y-33805001D01*
D14*
X46050200Y-35128200D03*
X16281400Y-31851600D03*
X21179442Y-26014341D03*
D21*
X21179442Y-26014341D02*
X21179442Y-26014341D01*
D14*
X59166607Y-38808858D03*
D21*
X59166607Y-38808858D02*
X59166607Y-38808858D01*
D14*
X61772800Y-31648400D03*
X25222200Y-36093400D03*
X20324158Y-41930659D03*
D21*
X20324158Y-41930659D02*
X20324158Y-41930659D01*
D14*
X43159486Y-47091600D03*
D21*
X43159486Y-47091600D02*
X43159486Y-47091600D01*
D14*
X49758600Y-43281600D03*
X24724207Y-42090142D03*
D21*
X24724207Y-42090142D02*
X24724207Y-42090142D01*
D14*
X27330400Y-49250600D03*
X31851600Y-54152800D03*
X39355835Y-52829601D03*
D21*
X39355835Y-52829601D02*
X39355835Y-52829601D01*
D14*
X48661514Y-47929800D03*
D21*
X48661514Y-47929800D02*
X48661514Y-47929800D01*
D14*
X42062400Y-51739800D03*
D22*
X32029400Y-27762200D03*
D20*
X39649400Y-43002200D03*
X32029400Y-30302200D03*
X39649400Y-40462200D03*
X32029400Y-32842200D03*
X39649400Y-37922200D03*
X32029400Y-35382200D03*
X39649400Y-35382200D03*
X32029400Y-37922200D03*
X39649400Y-32842200D03*
X32029400Y-40462200D03*
X39649400Y-30302200D03*
X32029400Y-43002200D03*
X39649400Y-27762200D03*
D23*
X37102288Y-44976288D03*
D24*
X66090800Y-33521400D02*
X64211200Y-37007800D01*
X64211200Y-37007800D02*
X68021200Y-37007800D01*
X68021200Y-37007800D02*
X66090800Y-33521400D01*
X64211200Y-37007800D02*
X64389000Y-40614600D01*
X64211200Y-37007800D02*
X59166607Y-38808858D01*
X59166607Y-38808858D02*
X56917600Y-41122600D01*
X21930207Y-44528542D02*
X25654000Y-44196000D01*
X25654000Y-44196000D02*
X28829000Y-43205400D01*
X28829000Y-43205400D02*
X29721800Y-46228000D01*
X32688239Y-50230938D02*
X29721800Y-46228000D01*
X32688239Y-50230938D02*
X34290000Y-48260000D01*
X34290000Y-48260000D02*
X36068000Y-47752000D01*
X36068000Y-47752000D02*
X37846000Y-46990000D01*
X37846000Y-46990000D02*
X38862000Y-46228000D01*
X38862000Y-46228000D02*
X40132000Y-45720000D01*
X40132000Y-45720000D02*
X41402000Y-45466000D01*
X41402000Y-45466000D02*
X42773600Y-43129200D01*
X56134000Y-43180000D02*
X56917600Y-41122600D01*
X52832000Y-43942000D02*
X54610000Y-43942000D01*
X54610000Y-43942000D02*
X56134000Y-43180000D01*
X51054000Y-44450000D02*
X52832000Y-43942000D01*
X48768000Y-45212000D02*
X50038000Y-44958000D01*
X45466000Y-44196000D02*
X46228000Y-44704000D01*
X50038000Y-44958000D02*
X51054000Y-44450000D01*
X46228000Y-44704000D02*
X48768000Y-45212000D01*
X42773600Y-43129200D02*
X45466000Y-44196000D01*
X67970400Y-28194000D02*
X64160400Y-28194000D01*
X64160400Y-28194000D02*
X66090800Y-31521400D01*
X67970400Y-28194000D02*
X66090800Y-31521400D01*
X64160400Y-28194000D02*
X57404000Y-24638000D01*
X57404000Y-24638000D02*
X53848000Y-20066000D01*
X53848000Y-20066000D02*
X51816000Y-17018000D01*
X51816000Y-17018000D02*
X46736000Y-15494000D01*
X46736000Y-15494000D02*
X41656000Y-15494000D01*
X41656000Y-15494000D02*
X35814000Y-17018000D01*
X35814000Y-17018000D02*
X34544000Y-22352000D01*
X34544000Y-22352000D02*
X36576000Y-25908000D01*
X36576000Y-25908000D02*
X36322000Y-29464000D01*
X36322000Y-29464000D02*
X34544000Y-32004000D01*
X34544000Y-32004000D02*
X33528000Y-34798000D01*
X33528000Y-34798000D02*
X32029400Y-35382200D01*
X32029400Y-35382200D02*
X30988000Y-36322000D01*
X30988000Y-36322000D02*
X29972000Y-37084000D01*
X29972000Y-37084000D02*
X28702000Y-37846000D01*
X28702000Y-37846000D02*
X27686000Y-37846000D01*
X27686000Y-37846000D02*
X26670000Y-37338000D01*
X26670000Y-37338000D02*
X26162000Y-36830000D01*
X26162000Y-36830000D02*
X25222200Y-36093400D01*
X63116629Y-46492621D02*
X60198000Y-44043600D01*
X60198000Y-44043600D02*
X64041704Y-42584216D01*
X40868600Y-24587200D02*
X40081200Y-22834600D01*
X40081200Y-22834600D02*
X39361911Y-21275375D01*
X40868600Y-24587200D02*
X38582600Y-25400000D01*
X38582600Y-25400000D02*
X37973000Y-26390600D01*
X37973000Y-26390600D02*
X37820600Y-27787600D01*
X37820600Y-27787600D02*
X37668200Y-29311600D01*
X37668200Y-29311600D02*
X37541200Y-31242000D01*
X37541200Y-31242000D02*
X37465000Y-34086800D01*
X37465000Y-34086800D02*
X37820600Y-34899600D01*
X37820600Y-34899600D02*
X38709600Y-35458400D01*
X38709600Y-35458400D02*
X39649400Y-35382200D01*
D25*
X39649400Y-30302200D02*
X41960800Y-29184600D01*
X41960800Y-29184600D02*
X42519600Y-27813000D01*
X42519600Y-27813000D02*
X42570400Y-26593800D01*
X42570400Y-26593800D02*
X42519600Y-25095200D01*
X42519600Y-25095200D02*
X42646600Y-23977600D01*
X42646600Y-23977600D02*
X43408600Y-22275800D01*
X27914600Y-51968400D02*
X30632400Y-52324000D01*
X30632400Y-52324000D02*
X32435800Y-52324000D01*
X32435800Y-52324000D02*
X34798000Y-52070000D01*
X34798000Y-52070000D02*
X35814000Y-51054000D01*
X35814000Y-51054000D02*
X35687000Y-49733200D01*
X46050200Y-35128200D02*
X44424600Y-38811200D01*
X44424600Y-38811200D02*
X42189400Y-39446200D01*
X42189400Y-39446200D02*
X41224200Y-40894000D01*
X41224200Y-40894000D02*
X41148000Y-42545000D01*
X41148000Y-42545000D02*
X41275000Y-43916600D01*
X41275000Y-43916600D02*
X40005000Y-44653200D01*
X40005000Y-44653200D02*
X38760400Y-44907200D01*
X38760400Y-44907200D02*
X37102288Y-44976288D01*
X37102288Y-44976288D02*
X36931600Y-44983400D01*
X39355835Y-52829601D02*
X36296600Y-54635400D01*
X36296600Y-54635400D02*
X34315400Y-56007000D01*
X34315400Y-56007000D02*
X32181800Y-56286400D01*
X32181800Y-56286400D02*
X30353000Y-56286400D01*
X30353000Y-56286400D02*
X28981400Y-55270400D01*
D26*
G36*
X69698001Y-27439890D02*
G01*
X69640582Y-27301269D01*
X69434326Y-26992587D01*
X69171813Y-26730074D01*
X68863131Y-26523818D01*
X68520141Y-26381747D01*
X68156025Y-26309320D01*
X67784775Y-26309320D01*
X67420659Y-26381747D01*
X67077669Y-26523818D01*
X66768987Y-26730074D01*
X66506474Y-26992587D01*
X66399556Y-27152600D01*
X66048152Y-27152600D01*
X66048152Y-26944320D01*
X66035892Y-26819838D01*
X65999582Y-26700140D01*
X65940617Y-26589826D01*
X65861265Y-26493135D01*
X65764574Y-26413783D01*
X65654260Y-26354818D01*
X65534562Y-26318508D01*
X65410080Y-26306248D01*
X62910720Y-26306248D01*
X62825582Y-26314633D01*
X58087994Y-23821166D01*
X54693395Y-19456682D01*
X53304099Y-17372738D01*
X60635000Y-17372738D01*
X60635000Y-18187262D01*
X60793906Y-18986135D01*
X61105611Y-19738657D01*
X61558136Y-20415909D01*
X62134091Y-20991864D01*
X62811343Y-21444389D01*
X63563865Y-21756094D01*
X64362738Y-21915000D01*
X65177262Y-21915000D01*
X65976135Y-21756094D01*
X66728657Y-21444389D01*
X67405909Y-20991864D01*
X67981864Y-20415909D01*
X68434389Y-19738657D01*
X68746094Y-18986135D01*
X68905000Y-18187262D01*
X68905000Y-17372738D01*
X68746094Y-16573865D01*
X68434389Y-15821343D01*
X67981864Y-15144091D01*
X67405909Y-14568136D01*
X66728657Y-14115611D01*
X65976135Y-13803906D01*
X65177262Y-13645000D01*
X64362738Y-13645000D01*
X63563865Y-13803906D01*
X62811343Y-14115611D01*
X62134091Y-14568136D01*
X61558136Y-15144091D01*
X61105611Y-15821343D01*
X60793906Y-16573865D01*
X60635000Y-17372738D01*
X53304099Y-17372738D01*
X52738190Y-16523876D01*
X52737358Y-16521884D01*
X52681412Y-16438708D01*
X52654123Y-16397775D01*
X52652758Y-16396108D01*
X52622867Y-16351669D01*
X52587925Y-16316941D01*
X52556716Y-16278831D01*
X52515358Y-16244816D01*
X52477368Y-16207059D01*
X52436320Y-16179814D01*
X52398280Y-16148528D01*
X52351081Y-16123236D01*
X52306454Y-16093615D01*
X52260880Y-16074901D01*
X52217465Y-16051637D01*
X52166240Y-16036040D01*
X52164239Y-16035218D01*
X52116894Y-16021015D01*
X52021223Y-15991884D01*
X52019082Y-15991671D01*
X47036775Y-14496980D01*
X46940150Y-14467669D01*
X46887386Y-14462472D01*
X46835373Y-14452292D01*
X46734925Y-14452600D01*
X41676456Y-14452600D01*
X41594470Y-14449373D01*
X41523437Y-14460618D01*
X41451850Y-14467669D01*
X41373313Y-14491493D01*
X35649381Y-15984693D01*
X35648362Y-15984755D01*
X35550441Y-16010503D01*
X35501633Y-16023236D01*
X35500673Y-16023590D01*
X35449968Y-16036923D01*
X35404669Y-16059000D01*
X35357393Y-16076437D01*
X35312689Y-16103827D01*
X35265564Y-16126794D01*
X35225446Y-16157281D01*
X35182477Y-16183608D01*
X35143979Y-16219190D01*
X35102236Y-16250912D01*
X35068829Y-16288648D01*
X35031829Y-16322846D01*
X35001018Y-16365247D01*
X34966260Y-16404510D01*
X34940854Y-16448044D01*
X34911241Y-16488797D01*
X34889295Y-16536393D01*
X34862864Y-16581683D01*
X34846440Y-16629334D01*
X34825345Y-16675084D01*
X34813106Y-16726048D01*
X34812767Y-16727030D01*
X34800931Y-16776740D01*
X34777441Y-16874551D01*
X34777401Y-16875567D01*
X33546700Y-22044516D01*
X33534436Y-22076665D01*
X33523004Y-22144039D01*
X33519072Y-22160552D01*
X33514442Y-22194495D01*
X33500118Y-22278911D01*
X33500600Y-22295971D01*
X33498294Y-22312880D01*
X33503496Y-22398358D01*
X33505917Y-22483967D01*
X33509718Y-22500605D01*
X33510755Y-22517637D01*
X33532532Y-22600455D01*
X33551609Y-22683950D01*
X33558583Y-22699526D01*
X33562923Y-22716031D01*
X33600444Y-22793021D01*
X33614434Y-22824266D01*
X33622847Y-22838988D01*
X33652793Y-22900435D01*
X33673619Y-22927840D01*
X33887038Y-23301323D01*
X33800408Y-23255018D01*
X33529909Y-23172964D01*
X33319092Y-23152200D01*
X33178108Y-23152200D01*
X32967291Y-23172964D01*
X32696792Y-23255018D01*
X32447499Y-23388268D01*
X32228992Y-23567592D01*
X32049668Y-23786099D01*
X31916418Y-24035392D01*
X31834364Y-24305891D01*
X31806657Y-24587200D01*
X31834364Y-24868509D01*
X31916418Y-25139008D01*
X32049668Y-25388301D01*
X32228992Y-25606808D01*
X32447499Y-25786132D01*
X32696792Y-25919382D01*
X32967291Y-26001436D01*
X33178108Y-26022200D01*
X33319092Y-26022200D01*
X33529909Y-26001436D01*
X33800408Y-25919382D01*
X34049701Y-25786132D01*
X34268208Y-25606808D01*
X34447532Y-25388301D01*
X34580782Y-25139008D01*
X34662836Y-24868509D01*
X34680440Y-24689777D01*
X35514682Y-26149703D01*
X35303759Y-29102644D01*
X33700583Y-31392896D01*
X33649227Y-31461400D01*
X33619659Y-31523092D01*
X33586125Y-31582685D01*
X33559518Y-31664007D01*
X33343823Y-32257168D01*
X33228332Y-32041099D01*
X33049008Y-31822592D01*
X32830501Y-31643268D01*
X32697542Y-31572200D01*
X32830501Y-31501132D01*
X33049008Y-31321808D01*
X33228332Y-31103301D01*
X33361582Y-30854008D01*
X33443636Y-30583509D01*
X33471343Y-30302200D01*
X33443636Y-30020891D01*
X33361582Y-29750392D01*
X33228332Y-29501099D01*
X33049008Y-29282592D01*
X32935918Y-29189781D01*
X32953882Y-29188012D01*
X33073580Y-29151702D01*
X33183894Y-29092737D01*
X33280585Y-29013385D01*
X33359937Y-28916694D01*
X33418902Y-28806380D01*
X33455212Y-28686682D01*
X33467472Y-28562200D01*
X33467472Y-26962200D01*
X33455212Y-26837718D01*
X33418902Y-26718020D01*
X33359937Y-26607706D01*
X33280585Y-26511015D01*
X33183894Y-26431663D01*
X33073580Y-26372698D01*
X32953882Y-26336388D01*
X32829400Y-26324128D01*
X31229400Y-26324128D01*
X31104918Y-26336388D01*
X30985220Y-26372698D01*
X30874906Y-26431663D01*
X30778215Y-26511015D01*
X30698863Y-26607706D01*
X30639898Y-26718020D01*
X30603588Y-26837718D01*
X30591328Y-26962200D01*
X30591328Y-28562200D01*
X30603588Y-28686682D01*
X30639898Y-28806380D01*
X30698863Y-28916694D01*
X30778215Y-29013385D01*
X30874906Y-29092737D01*
X30985220Y-29151702D01*
X31104918Y-29188012D01*
X31122882Y-29189781D01*
X31009792Y-29282592D01*
X30830468Y-29501099D01*
X30697218Y-29750392D01*
X30615164Y-30020891D01*
X30587457Y-30302200D01*
X30615164Y-30583509D01*
X30697218Y-30854008D01*
X30830468Y-31103301D01*
X31009792Y-31321808D01*
X31228299Y-31501132D01*
X31361258Y-31572200D01*
X31228299Y-31643268D01*
X31009792Y-31822592D01*
X30830468Y-32041099D01*
X30760277Y-32172418D01*
X30662932Y-31990299D01*
X30483608Y-31771792D01*
X30265101Y-31592468D01*
X30015808Y-31459218D01*
X29745309Y-31377164D01*
X29534492Y-31356400D01*
X29393508Y-31356400D01*
X29182691Y-31377164D01*
X28912192Y-31459218D01*
X28662899Y-31592468D01*
X28444392Y-31771792D01*
X28265068Y-31990299D01*
X28131818Y-32239592D01*
X28049764Y-32510091D01*
X28022057Y-32791400D01*
X28049764Y-33072709D01*
X28131818Y-33343208D01*
X28265068Y-33592501D01*
X28444392Y-33811008D01*
X28662899Y-33990332D01*
X28912192Y-34123582D01*
X29058249Y-34167887D01*
X28970335Y-34150400D01*
X28687665Y-34150400D01*
X28410426Y-34205547D01*
X28149273Y-34313720D01*
X27914241Y-34470763D01*
X27714363Y-34670641D01*
X27557320Y-34905673D01*
X27449147Y-35166826D01*
X27394000Y-35444065D01*
X27394000Y-35726735D01*
X27449147Y-36003974D01*
X27557320Y-36265127D01*
X27714363Y-36500159D01*
X27914241Y-36700037D01*
X28070731Y-36804600D01*
X27931840Y-36804600D01*
X27286882Y-36482121D01*
X26962571Y-36157810D01*
X26955802Y-36148156D01*
X26890134Y-36085373D01*
X26862211Y-36057450D01*
X26853150Y-36050014D01*
X26844679Y-36041915D01*
X26813593Y-36017550D01*
X26743369Y-35959919D01*
X26732975Y-35954363D01*
X26643746Y-35884427D01*
X26602053Y-35674826D01*
X26493880Y-35413673D01*
X26336837Y-35178641D01*
X26136959Y-34978763D01*
X25901927Y-34821720D01*
X25640774Y-34713547D01*
X25363535Y-34658400D01*
X25080865Y-34658400D01*
X24803626Y-34713547D01*
X24542473Y-34821720D01*
X24307441Y-34978763D01*
X24107563Y-35178641D01*
X23950520Y-35413673D01*
X23842347Y-35674826D01*
X23787200Y-35952065D01*
X23787200Y-36234735D01*
X23842347Y-36511974D01*
X23950520Y-36773127D01*
X24107563Y-37008159D01*
X24307441Y-37208037D01*
X24542473Y-37365080D01*
X24803626Y-37473253D01*
X25080865Y-37528400D01*
X25363535Y-37528400D01*
X25364619Y-37528184D01*
X25470090Y-37610851D01*
X25871204Y-38011965D01*
X25879465Y-38023628D01*
X25943624Y-38084385D01*
X25969789Y-38110550D01*
X25980775Y-38119566D01*
X26028414Y-38164679D01*
X26059881Y-38184487D01*
X26088630Y-38208081D01*
X26146504Y-38239016D01*
X26158521Y-38246580D01*
X26191590Y-38263115D01*
X26269544Y-38304782D01*
X26283225Y-38308932D01*
X27207618Y-38771129D01*
X27285546Y-38812783D01*
X27348333Y-38831829D01*
X27409608Y-38855277D01*
X27446264Y-38861536D01*
X27481850Y-38872331D01*
X27547147Y-38878762D01*
X27611818Y-38889805D01*
X27700122Y-38887400D01*
X28625434Y-38887400D01*
X28651133Y-38891200D01*
X28727771Y-38887400D01*
X28753152Y-38887400D01*
X28778884Y-38884866D01*
X28856019Y-38881041D01*
X28880759Y-38874832D01*
X28906150Y-38872331D01*
X28980083Y-38849904D01*
X29054985Y-38831105D01*
X29078034Y-38820191D01*
X29102454Y-38812783D01*
X29170590Y-38776364D01*
X29193933Y-38765310D01*
X29215674Y-38752265D01*
X29283370Y-38716081D01*
X29303459Y-38699595D01*
X30422060Y-38028434D01*
X30424478Y-38027554D01*
X30509862Y-37975753D01*
X30551658Y-37950675D01*
X30553718Y-37949146D01*
X30555918Y-37947811D01*
X30587636Y-37924022D01*
X30615164Y-38203509D01*
X30697218Y-38474008D01*
X30830468Y-38723301D01*
X31009792Y-38941808D01*
X31228299Y-39121132D01*
X31361258Y-39192200D01*
X31228299Y-39263268D01*
X31009792Y-39442592D01*
X30830468Y-39661099D01*
X30697218Y-39910392D01*
X30615164Y-40180891D01*
X30587457Y-40462200D01*
X30615164Y-40743509D01*
X30697218Y-41014008D01*
X30830468Y-41263301D01*
X31009792Y-41481808D01*
X31228299Y-41661132D01*
X31361258Y-41732200D01*
X31228299Y-41803268D01*
X31009792Y-41982592D01*
X30830468Y-42201099D01*
X30697218Y-42450392D01*
X30615164Y-42720891D01*
X30587457Y-43002200D01*
X30615164Y-43283509D01*
X30697218Y-43554008D01*
X30830468Y-43803301D01*
X31009792Y-44021808D01*
X31228299Y-44201132D01*
X31477592Y-44334382D01*
X31748091Y-44416436D01*
X31958908Y-44437200D01*
X32099892Y-44437200D01*
X32310709Y-44416436D01*
X32581208Y-44334382D01*
X32830501Y-44201132D01*
X33049008Y-44021808D01*
X33228332Y-43803301D01*
X33361582Y-43554008D01*
X33443636Y-43283509D01*
X33471343Y-43002200D01*
X33443636Y-42720891D01*
X33361582Y-42450392D01*
X33228332Y-42201099D01*
X33049008Y-41982592D01*
X32830501Y-41803268D01*
X32697542Y-41732200D01*
X32830501Y-41661132D01*
X33049008Y-41481808D01*
X33228332Y-41263301D01*
X33361582Y-41014008D01*
X33443636Y-40743509D01*
X33471343Y-40462200D01*
X33443636Y-40180891D01*
X33361582Y-39910392D01*
X33228332Y-39661099D01*
X33049008Y-39442592D01*
X32830501Y-39263268D01*
X32697542Y-39192200D01*
X32830501Y-39121132D01*
X33049008Y-38941808D01*
X33228332Y-38723301D01*
X33361582Y-38474008D01*
X33443636Y-38203509D01*
X33471343Y-37922200D01*
X33443636Y-37640891D01*
X33361582Y-37370392D01*
X33228332Y-37121099D01*
X33049008Y-36902592D01*
X32830501Y-36723268D01*
X32697542Y-36652200D01*
X32830501Y-36581132D01*
X33049008Y-36401808D01*
X33228332Y-36183301D01*
X33330119Y-35992871D01*
X33890139Y-35774558D01*
X33970523Y-35746263D01*
X34029671Y-35711225D01*
X34090980Y-35680091D01*
X34117738Y-35659055D01*
X34147017Y-35641711D01*
X34198193Y-35595807D01*
X34252249Y-35553311D01*
X34274389Y-35527459D01*
X34299723Y-35504735D01*
X34340965Y-35449723D01*
X34385687Y-35397503D01*
X34402356Y-35367833D01*
X34422772Y-35340600D01*
X34452490Y-35278596D01*
X34486164Y-35218658D01*
X34512605Y-35137653D01*
X35475818Y-32488818D01*
X36513002Y-31007127D01*
X36504072Y-31142858D01*
X36501544Y-31162983D01*
X36500717Y-31193847D01*
X36498689Y-31224677D01*
X36499348Y-31244964D01*
X36424694Y-34032030D01*
X36418766Y-34107425D01*
X36427981Y-34185228D01*
X36433571Y-34263395D01*
X36440025Y-34286919D01*
X36442893Y-34311139D01*
X36467111Y-34385656D01*
X36487842Y-34461223D01*
X36521696Y-34528856D01*
X36847723Y-35274062D01*
X36865359Y-35326853D01*
X36914084Y-35412200D01*
X36962147Y-35498006D01*
X36964937Y-35501272D01*
X36967067Y-35505003D01*
X37031556Y-35579261D01*
X37095385Y-35653983D01*
X37098756Y-35656640D01*
X37101575Y-35659886D01*
X37179316Y-35720138D01*
X37256494Y-35780971D01*
X37306091Y-35806237D01*
X38135517Y-36327591D01*
X38200448Y-36372618D01*
X38269185Y-36402491D01*
X38336256Y-36435971D01*
X38363083Y-36443299D01*
X38388588Y-36454383D01*
X38461841Y-36470274D01*
X38534144Y-36490023D01*
X38561882Y-36491976D01*
X38589062Y-36497872D01*
X38664017Y-36499167D01*
X38738776Y-36504430D01*
X38752689Y-36502667D01*
X38848299Y-36581132D01*
X38981258Y-36652200D01*
X38848299Y-36723268D01*
X38629792Y-36902592D01*
X38450468Y-37121099D01*
X38317218Y-37370392D01*
X38235164Y-37640891D01*
X38207457Y-37922200D01*
X38235164Y-38203509D01*
X38317218Y-38474008D01*
X38450468Y-38723301D01*
X38629792Y-38941808D01*
X38848299Y-39121132D01*
X38981258Y-39192200D01*
X38848299Y-39263268D01*
X38629792Y-39442592D01*
X38450468Y-39661099D01*
X38317218Y-39910392D01*
X38235164Y-40180891D01*
X38207457Y-40462200D01*
X38235164Y-40743509D01*
X38317218Y-41014008D01*
X38450468Y-41263301D01*
X38629792Y-41481808D01*
X38848299Y-41661132D01*
X38981258Y-41732200D01*
X38848299Y-41803268D01*
X38629792Y-41982592D01*
X38450468Y-42201099D01*
X38317218Y-42450392D01*
X38235164Y-42720891D01*
X38207457Y-43002200D01*
X38235164Y-43283509D01*
X38317218Y-43554008D01*
X38450468Y-43803301D01*
X38629792Y-44021808D01*
X38684995Y-44067112D01*
X38658502Y-44072519D01*
X37674042Y-44113538D01*
X37592544Y-44059083D01*
X37404186Y-43981062D01*
X37204227Y-43941288D01*
X37000349Y-43941288D01*
X36800390Y-43981062D01*
X36612032Y-44059083D01*
X36442514Y-44172351D01*
X36298351Y-44316514D01*
X36185083Y-44486032D01*
X36107062Y-44674390D01*
X36067288Y-44874349D01*
X36067288Y-45078227D01*
X36107062Y-45278186D01*
X36185083Y-45466544D01*
X36298351Y-45636062D01*
X36442514Y-45780225D01*
X36612032Y-45893493D01*
X36800390Y-45971514D01*
X37000349Y-46011288D01*
X37204227Y-46011288D01*
X37404186Y-45971514D01*
X37592544Y-45893493D01*
X37750092Y-45788223D01*
X38738748Y-45747029D01*
X38764583Y-45749444D01*
X38821042Y-45743600D01*
X38836429Y-45742959D01*
X38861987Y-45739362D01*
X38887667Y-45736704D01*
X38902760Y-45733624D01*
X38958963Y-45725714D01*
X38983458Y-45717155D01*
X40104038Y-45488465D01*
X40116593Y-45488029D01*
X40184788Y-45471985D01*
X40212945Y-45466239D01*
X40224887Y-45462552D01*
X40277316Y-45450217D01*
X40303588Y-45438250D01*
X40331178Y-45429731D01*
X40378562Y-45404100D01*
X40389926Y-45398924D01*
X40414763Y-45384519D01*
X40476404Y-45351176D01*
X40486078Y-45343156D01*
X41645176Y-44670880D01*
X41667687Y-44661710D01*
X41716407Y-44629567D01*
X41731153Y-44621014D01*
X41750805Y-44606872D01*
X41805506Y-44570783D01*
X41817686Y-44558744D01*
X41831593Y-44548737D01*
X41876320Y-44500792D01*
X41922937Y-44454717D01*
X41932535Y-44440533D01*
X41944222Y-44428005D01*
X41978739Y-44372250D01*
X42015468Y-44317971D01*
X42016979Y-44314383D01*
X42032086Y-44365871D01*
X42287596Y-44486771D01*
X42561784Y-44555500D01*
X42844112Y-44569417D01*
X43123730Y-44527987D01*
X43389892Y-44432803D01*
X43515114Y-44365871D01*
X43586697Y-44121902D01*
X42773600Y-43308805D01*
X42759458Y-43322948D01*
X42579853Y-43143343D01*
X42593995Y-43129200D01*
X42953205Y-43129200D01*
X43766302Y-43942297D01*
X44010271Y-43870714D01*
X44131171Y-43615204D01*
X44199900Y-43341016D01*
X44209795Y-43140265D01*
X48323600Y-43140265D01*
X48323600Y-43422935D01*
X48378747Y-43700174D01*
X48486920Y-43961327D01*
X48643963Y-44196359D01*
X48843841Y-44396237D01*
X49078873Y-44553280D01*
X49340026Y-44661453D01*
X49617265Y-44716600D01*
X49899935Y-44716600D01*
X50177174Y-44661453D01*
X50438327Y-44553280D01*
X50673359Y-44396237D01*
X50816352Y-44253244D01*
X57801767Y-44253244D01*
X57824830Y-44376183D01*
X57871434Y-44492261D01*
X57939789Y-44597016D01*
X58027266Y-44686424D01*
X59941887Y-46292981D01*
X60045127Y-46363604D01*
X60160160Y-46412729D01*
X60282567Y-46438469D01*
X60407644Y-46439833D01*
X60530583Y-46416770D01*
X60646661Y-46370166D01*
X60751416Y-46301811D01*
X60840824Y-46214334D01*
X60974704Y-46054782D01*
X61238147Y-46275838D01*
X61231949Y-46306996D01*
X61231949Y-46678246D01*
X61304376Y-47042362D01*
X61446447Y-47385352D01*
X61652703Y-47694034D01*
X61915216Y-47956547D01*
X62223898Y-48162803D01*
X62566888Y-48304874D01*
X62931004Y-48377301D01*
X63302254Y-48377301D01*
X63666370Y-48304874D01*
X64009360Y-48162803D01*
X64318042Y-47956547D01*
X64580555Y-47694034D01*
X64786811Y-47385352D01*
X64928882Y-47042362D01*
X65001309Y-46678246D01*
X65001309Y-46306996D01*
X64928882Y-45942880D01*
X64786811Y-45599890D01*
X64580555Y-45291208D01*
X64318042Y-45028695D01*
X64009360Y-44822439D01*
X63666370Y-44680368D01*
X63302254Y-44607941D01*
X62931004Y-44607941D01*
X62575063Y-44678742D01*
X62313501Y-44459265D01*
X62442732Y-44305253D01*
X63790650Y-43793474D01*
X63920067Y-43819216D01*
X64163341Y-43819216D01*
X64401940Y-43771756D01*
X64626696Y-43678659D01*
X64828971Y-43543503D01*
X65000991Y-43371483D01*
X65136147Y-43169208D01*
X65229244Y-42944452D01*
X65276704Y-42705853D01*
X65276704Y-42462579D01*
X65229244Y-42223980D01*
X65136147Y-41999224D01*
X65077674Y-41911713D01*
X65132677Y-41893708D01*
X65241679Y-41832351D01*
X65336615Y-41750909D01*
X65413840Y-41652510D01*
X65470384Y-41540936D01*
X65504074Y-41420474D01*
X65555618Y-41110464D01*
X65426846Y-40926559D01*
X64492017Y-40761724D01*
X64488544Y-40781420D01*
X64238403Y-40737313D01*
X64241876Y-40717617D01*
X63307047Y-40552782D01*
X63123142Y-40681553D01*
X63065548Y-40990496D01*
X63056006Y-41115215D01*
X63070979Y-41239400D01*
X63109892Y-41358277D01*
X63171249Y-41467279D01*
X63252691Y-41562215D01*
X63296656Y-41596719D01*
X63254437Y-41624929D01*
X63082417Y-41796949D01*
X63048794Y-41847269D01*
X61305950Y-42508995D01*
X60454113Y-41794219D01*
X60350873Y-41723596D01*
X60235840Y-41674471D01*
X60113433Y-41648731D01*
X59988356Y-41647367D01*
X59865417Y-41670430D01*
X59749339Y-41717034D01*
X59644584Y-41785389D01*
X59555176Y-41872866D01*
X57948619Y-43787487D01*
X57877996Y-43890727D01*
X57828871Y-44005760D01*
X57803131Y-44128167D01*
X57801767Y-44253244D01*
X50816352Y-44253244D01*
X50873237Y-44196359D01*
X51030280Y-43961327D01*
X51138453Y-43700174D01*
X51193600Y-43422935D01*
X51193600Y-43140265D01*
X51138453Y-42863026D01*
X51030280Y-42601873D01*
X50873237Y-42366841D01*
X50673359Y-42166963D01*
X50438327Y-42009920D01*
X50177174Y-41901747D01*
X49899935Y-41846600D01*
X49617265Y-41846600D01*
X49340026Y-41901747D01*
X49078873Y-42009920D01*
X48843841Y-42166963D01*
X48643963Y-42366841D01*
X48486920Y-42601873D01*
X48378747Y-42863026D01*
X48323600Y-43140265D01*
X44209795Y-43140265D01*
X44213817Y-43058688D01*
X44172387Y-42779070D01*
X44077203Y-42512908D01*
X44010271Y-42387686D01*
X43766302Y-42316103D01*
X42953205Y-43129200D01*
X42593995Y-43129200D01*
X42579853Y-43115058D01*
X42759458Y-42935453D01*
X42773600Y-42949595D01*
X43586697Y-42136498D01*
X43515114Y-41892529D01*
X43259604Y-41771629D01*
X42985416Y-41702900D01*
X42703088Y-41688983D01*
X42423470Y-41730413D01*
X42157308Y-41825597D01*
X42032086Y-41892529D01*
X42014428Y-41952711D01*
X42050773Y-41165226D01*
X42715523Y-40168101D01*
X44651673Y-39618058D01*
X44728965Y-39596537D01*
X44767856Y-39576884D01*
X44808407Y-39560923D01*
X44841365Y-39539736D01*
X44876328Y-39522068D01*
X44910636Y-39495206D01*
X44947296Y-39471640D01*
X44975487Y-39444431D01*
X45006332Y-39420281D01*
X45034742Y-39387240D01*
X45066098Y-39356977D01*
X45088439Y-39324792D01*
X45113980Y-39295088D01*
X45135396Y-39257144D01*
X45160248Y-39221341D01*
X45165280Y-39209775D01*
X45562520Y-39209775D01*
X45562520Y-39581025D01*
X45634947Y-39945141D01*
X45777018Y-40288131D01*
X45983274Y-40596813D01*
X46245787Y-40859326D01*
X46554469Y-41065582D01*
X46897459Y-41207653D01*
X47261575Y-41280080D01*
X47632825Y-41280080D01*
X47996941Y-41207653D01*
X48339931Y-41065582D01*
X48466119Y-40981265D01*
X50482600Y-40981265D01*
X50482600Y-41263935D01*
X50537747Y-41541174D01*
X50645920Y-41802327D01*
X50802963Y-42037359D01*
X51002841Y-42237237D01*
X51237873Y-42394280D01*
X51499026Y-42502453D01*
X51776265Y-42557600D01*
X52058935Y-42557600D01*
X52336174Y-42502453D01*
X52597327Y-42394280D01*
X52832359Y-42237237D01*
X52954294Y-42115302D01*
X56104503Y-42115302D01*
X56176086Y-42359271D01*
X56431596Y-42480171D01*
X56705784Y-42548900D01*
X56988112Y-42562817D01*
X57267730Y-42521387D01*
X57533892Y-42426203D01*
X57659114Y-42359271D01*
X57730697Y-42115302D01*
X56917600Y-41302205D01*
X56104503Y-42115302D01*
X52954294Y-42115302D01*
X53032237Y-42037359D01*
X53189280Y-41802327D01*
X53297453Y-41541174D01*
X53352600Y-41263935D01*
X53352600Y-41193112D01*
X55477383Y-41193112D01*
X55518813Y-41472730D01*
X55613997Y-41738892D01*
X55680929Y-41864114D01*
X55924898Y-41935697D01*
X56737995Y-41122600D01*
X57097205Y-41122600D01*
X57910302Y-41935697D01*
X58154271Y-41864114D01*
X58275171Y-41608604D01*
X58343900Y-41334416D01*
X58357817Y-41052088D01*
X58316387Y-40772470D01*
X58223090Y-40511583D01*
X64536124Y-40511583D01*
X65470953Y-40676418D01*
X65654858Y-40547647D01*
X65712452Y-40238704D01*
X65721994Y-40113985D01*
X65707021Y-39989800D01*
X65668108Y-39870923D01*
X65606751Y-39761921D01*
X65525309Y-39666985D01*
X65426910Y-39589760D01*
X65315336Y-39533216D01*
X65194874Y-39499526D01*
X64884864Y-39447982D01*
X64700959Y-39576754D01*
X64536124Y-40511583D01*
X58223090Y-40511583D01*
X58221203Y-40506308D01*
X58154271Y-40381086D01*
X57910302Y-40309503D01*
X57097205Y-41122600D01*
X56737995Y-41122600D01*
X55924898Y-40309503D01*
X55680929Y-40381086D01*
X55560029Y-40636596D01*
X55491300Y-40910784D01*
X55477383Y-41193112D01*
X53352600Y-41193112D01*
X53352600Y-40981265D01*
X53297453Y-40704026D01*
X53189280Y-40442873D01*
X53032237Y-40207841D01*
X52954294Y-40129898D01*
X56104503Y-40129898D01*
X56917600Y-40942995D01*
X57730697Y-40129898D01*
X57705971Y-40045624D01*
X58851611Y-40045624D01*
X59018537Y-40236198D01*
X59158407Y-40243839D01*
X59438516Y-40217867D01*
X59708175Y-40137746D01*
X59744234Y-40118736D01*
X63222382Y-40118736D01*
X63351154Y-40302641D01*
X64285983Y-40467476D01*
X64450818Y-39532647D01*
X64322047Y-39348742D01*
X64013104Y-39291148D01*
X63888385Y-39281606D01*
X63764200Y-39296579D01*
X63645323Y-39335492D01*
X63536321Y-39396849D01*
X63441385Y-39478291D01*
X63364160Y-39576690D01*
X63307616Y-39688264D01*
X63273926Y-39808726D01*
X63222382Y-40118736D01*
X59744234Y-40118736D01*
X59957023Y-40006557D01*
X60175494Y-39829342D01*
X60355195Y-39612909D01*
X60317166Y-39362778D01*
X59242511Y-38971636D01*
X58851611Y-40045624D01*
X57705971Y-40045624D01*
X57659114Y-39885929D01*
X57403604Y-39765029D01*
X57129416Y-39696300D01*
X56847088Y-39682383D01*
X56567470Y-39723813D01*
X56301308Y-39818997D01*
X56176086Y-39885929D01*
X56104503Y-40129898D01*
X52954294Y-40129898D01*
X52832359Y-40007963D01*
X52597327Y-39850920D01*
X52336174Y-39742747D01*
X52058935Y-39687600D01*
X51776265Y-39687600D01*
X51499026Y-39742747D01*
X51237873Y-39850920D01*
X51002841Y-40007963D01*
X50802963Y-40207841D01*
X50645920Y-40442873D01*
X50537747Y-40704026D01*
X50482600Y-40981265D01*
X48466119Y-40981265D01*
X48648613Y-40859326D01*
X48911126Y-40596813D01*
X49117382Y-40288131D01*
X49259453Y-39945141D01*
X49331880Y-39581025D01*
X49331880Y-39209775D01*
X49259453Y-38845659D01*
X49117382Y-38502669D01*
X48911126Y-38193987D01*
X48648613Y-37931474D01*
X48339931Y-37725218D01*
X47996941Y-37583147D01*
X47632825Y-37510720D01*
X47261575Y-37510720D01*
X46897459Y-37583147D01*
X46554469Y-37725218D01*
X46245787Y-37931474D01*
X45983274Y-38193987D01*
X45777018Y-38502669D01*
X45634947Y-38845659D01*
X45562520Y-39209775D01*
X45165280Y-39209775D01*
X45192300Y-39147680D01*
X46039353Y-37228575D01*
X51760120Y-37228575D01*
X51760120Y-37599825D01*
X51832547Y-37963941D01*
X51974618Y-38306931D01*
X52180874Y-38615613D01*
X52443387Y-38878126D01*
X52752069Y-39084382D01*
X53095059Y-39226453D01*
X53459175Y-39298880D01*
X53830425Y-39298880D01*
X54194541Y-39226453D01*
X54537531Y-39084382D01*
X54750480Y-38942093D01*
X57737800Y-38942093D01*
X57791247Y-39218279D01*
X57897549Y-39478732D01*
X58052619Y-39713442D01*
X58250500Y-39913388D01*
X58362558Y-39997442D01*
X58612930Y-39958751D01*
X59003829Y-38884762D01*
X58586740Y-38732954D01*
X59329385Y-38732954D01*
X60404040Y-39124096D01*
X60593952Y-38956929D01*
X60595414Y-38675623D01*
X60541967Y-38399437D01*
X60484029Y-38257480D01*
X62323448Y-38257480D01*
X62335708Y-38381962D01*
X62372018Y-38501660D01*
X62430983Y-38611974D01*
X62510335Y-38708665D01*
X62607026Y-38788017D01*
X62717340Y-38846982D01*
X62837038Y-38883292D01*
X62961520Y-38895552D01*
X63925450Y-38892480D01*
X64084200Y-38733730D01*
X64084200Y-37134800D01*
X64338200Y-37134800D01*
X64338200Y-38733730D01*
X64496950Y-38892480D01*
X65460880Y-38895552D01*
X65585362Y-38883292D01*
X65705060Y-38846982D01*
X65815374Y-38788017D01*
X65912065Y-38708665D01*
X65991417Y-38611974D01*
X66050382Y-38501660D01*
X66086692Y-38381962D01*
X66092678Y-38321177D01*
X66887429Y-38321177D01*
X67013304Y-38611115D01*
X67345462Y-38776939D01*
X67703587Y-38874775D01*
X68073919Y-38900865D01*
X68442225Y-38854205D01*
X68794351Y-38736589D01*
X69029096Y-38611115D01*
X69154971Y-38321177D01*
X68021200Y-37187405D01*
X66887429Y-38321177D01*
X66092678Y-38321177D01*
X66098952Y-38257480D01*
X66095880Y-37293550D01*
X65937130Y-37134800D01*
X64338200Y-37134800D01*
X64084200Y-37134800D01*
X62485270Y-37134800D01*
X62326520Y-37293550D01*
X62323448Y-38257480D01*
X60484029Y-38257480D01*
X60435665Y-38138984D01*
X60280595Y-37904274D01*
X60082714Y-37704328D01*
X59970656Y-37620274D01*
X59720284Y-37658965D01*
X59329385Y-38732954D01*
X58586740Y-38732954D01*
X57929174Y-38493620D01*
X57739262Y-38660787D01*
X57737800Y-38942093D01*
X54750480Y-38942093D01*
X54846213Y-38878126D01*
X55108726Y-38615613D01*
X55314982Y-38306931D01*
X55440125Y-38004807D01*
X57978019Y-38004807D01*
X58016048Y-38254938D01*
X59090703Y-38646080D01*
X59481603Y-37572092D01*
X59314677Y-37381518D01*
X59174807Y-37373877D01*
X58894698Y-37399849D01*
X58625039Y-37479970D01*
X58376191Y-37611159D01*
X58157720Y-37788374D01*
X57978019Y-38004807D01*
X55440125Y-38004807D01*
X55457053Y-37963941D01*
X55529480Y-37599825D01*
X55529480Y-37228575D01*
X55496052Y-37060519D01*
X66128135Y-37060519D01*
X66174795Y-37428825D01*
X66292411Y-37780951D01*
X66417885Y-38015696D01*
X66707823Y-38141571D01*
X67841595Y-37007800D01*
X66707823Y-35874029D01*
X66417885Y-35999904D01*
X66252061Y-36332062D01*
X66154225Y-36690187D01*
X66128135Y-37060519D01*
X55496052Y-37060519D01*
X55457053Y-36864459D01*
X55314982Y-36521469D01*
X55108726Y-36212787D01*
X54846213Y-35950274D01*
X54558637Y-35758120D01*
X62323448Y-35758120D01*
X62326520Y-36722050D01*
X62485270Y-36880800D01*
X64084200Y-36880800D01*
X64084200Y-35281870D01*
X64338200Y-35281870D01*
X64338200Y-36880800D01*
X65937130Y-36880800D01*
X66095880Y-36722050D01*
X66098952Y-35758120D01*
X66092679Y-35694423D01*
X66887429Y-35694423D01*
X68021200Y-36828195D01*
X69154971Y-35694423D01*
X69029096Y-35404485D01*
X68696938Y-35238661D01*
X68338813Y-35140825D01*
X67968481Y-35114735D01*
X67600175Y-35161395D01*
X67248049Y-35279011D01*
X67013304Y-35404485D01*
X66887429Y-35694423D01*
X66092679Y-35694423D01*
X66086692Y-35633638D01*
X66050382Y-35513940D01*
X65991417Y-35403626D01*
X65912065Y-35306935D01*
X65815374Y-35227583D01*
X65705060Y-35168618D01*
X65585362Y-35132308D01*
X65460880Y-35120048D01*
X64496950Y-35123120D01*
X64338200Y-35281870D01*
X64084200Y-35281870D01*
X63925450Y-35123120D01*
X62961520Y-35120048D01*
X62837038Y-35132308D01*
X62717340Y-35168618D01*
X62607026Y-35227583D01*
X62510335Y-35306935D01*
X62430983Y-35403626D01*
X62372018Y-35513940D01*
X62335708Y-35633638D01*
X62323448Y-35758120D01*
X54558637Y-35758120D01*
X54537531Y-35744018D01*
X54194541Y-35601947D01*
X53830425Y-35529520D01*
X53459175Y-35529520D01*
X53095059Y-35601947D01*
X52752069Y-35744018D01*
X52443387Y-35950274D01*
X52180874Y-36212787D01*
X51974618Y-36521469D01*
X51832547Y-36864459D01*
X51760120Y-37228575D01*
X46039353Y-37228575D01*
X46346655Y-36532344D01*
X46468774Y-36508053D01*
X46729927Y-36399880D01*
X46964959Y-36242837D01*
X47164837Y-36042959D01*
X47321880Y-35807927D01*
X47430053Y-35546774D01*
X47485200Y-35269535D01*
X47485200Y-34986865D01*
X47430053Y-34709626D01*
X47321880Y-34448473D01*
X47164837Y-34213441D01*
X46964959Y-34013563D01*
X46729927Y-33856520D01*
X46605549Y-33805001D01*
X52112492Y-33805001D01*
X52140199Y-34086310D01*
X52222253Y-34356809D01*
X52355503Y-34606102D01*
X52534827Y-34824609D01*
X52753334Y-35003933D01*
X53002627Y-35137183D01*
X53273126Y-35219237D01*
X53483943Y-35240001D01*
X53624927Y-35240001D01*
X53835744Y-35219237D01*
X54106243Y-35137183D01*
X54355536Y-35003933D01*
X54574043Y-34824609D01*
X54753367Y-34606102D01*
X54886617Y-34356809D01*
X54938128Y-34186997D01*
X54971818Y-34268331D01*
X55178074Y-34577013D01*
X55440587Y-34839526D01*
X55749269Y-35045782D01*
X56092259Y-35187853D01*
X56456375Y-35260280D01*
X56827625Y-35260280D01*
X57191741Y-35187853D01*
X57534731Y-35045782D01*
X57843413Y-34839526D01*
X58105926Y-34577013D01*
X58243470Y-34371164D01*
X65420641Y-34371164D01*
X65467948Y-34594748D01*
X65689316Y-34695637D01*
X65926113Y-34751400D01*
X66169238Y-34759895D01*
X66409349Y-34720795D01*
X66637218Y-34635602D01*
X66713652Y-34594748D01*
X66760959Y-34371164D01*
X66090800Y-33701005D01*
X65420641Y-34371164D01*
X58243470Y-34371164D01*
X58312182Y-34268331D01*
X58454253Y-33925341D01*
X58526680Y-33561225D01*
X58526680Y-33189975D01*
X58454253Y-32825859D01*
X58312182Y-32482869D01*
X58105926Y-32174187D01*
X57843413Y-31911674D01*
X57534731Y-31705418D01*
X57191741Y-31563347D01*
X56908792Y-31507065D01*
X60337800Y-31507065D01*
X60337800Y-31789735D01*
X60392947Y-32066974D01*
X60501120Y-32328127D01*
X60658163Y-32563159D01*
X60858041Y-32763037D01*
X61093073Y-32920080D01*
X61354226Y-33028253D01*
X61631465Y-33083400D01*
X61914135Y-33083400D01*
X62191374Y-33028253D01*
X62452527Y-32920080D01*
X62687559Y-32763037D01*
X62887437Y-32563159D01*
X63044480Y-32328127D01*
X63152653Y-32066974D01*
X63207800Y-31789735D01*
X63207800Y-31507065D01*
X63152653Y-31229826D01*
X63044480Y-30968673D01*
X62887437Y-30733641D01*
X62687559Y-30533763D01*
X62452527Y-30376720D01*
X62191374Y-30268547D01*
X61914135Y-30213400D01*
X61631465Y-30213400D01*
X61354226Y-30268547D01*
X61093073Y-30376720D01*
X60858041Y-30533763D01*
X60658163Y-30733641D01*
X60501120Y-30968673D01*
X60392947Y-31229826D01*
X60337800Y-31507065D01*
X56908792Y-31507065D01*
X56827625Y-31490920D01*
X56456375Y-31490920D01*
X56092259Y-31563347D01*
X55749269Y-31705418D01*
X55440587Y-31911674D01*
X55178074Y-32174187D01*
X54971818Y-32482869D01*
X54829747Y-32825859D01*
X54783222Y-33059755D01*
X54753367Y-33003900D01*
X54574043Y-32785393D01*
X54355536Y-32606069D01*
X54106243Y-32472819D01*
X53835744Y-32390765D01*
X53624927Y-32370001D01*
X53483943Y-32370001D01*
X53273126Y-32390765D01*
X53002627Y-32472819D01*
X52753334Y-32606069D01*
X52534827Y-32785393D01*
X52355503Y-33003900D01*
X52222253Y-33253193D01*
X52140199Y-33523692D01*
X52112492Y-33805001D01*
X46605549Y-33805001D01*
X46468774Y-33748347D01*
X46191535Y-33693200D01*
X45908865Y-33693200D01*
X45631626Y-33748347D01*
X45370473Y-33856520D01*
X45135441Y-34013563D01*
X44935563Y-34213441D01*
X44778520Y-34448473D01*
X44670347Y-34709626D01*
X44615200Y-34986865D01*
X44615200Y-35269535D01*
X44670347Y-35546774D01*
X44778520Y-35807927D01*
X44811910Y-35857898D01*
X43816771Y-38112510D01*
X42032112Y-38619516D01*
X42024220Y-38620302D01*
X41952813Y-38642044D01*
X41920737Y-38651157D01*
X41913395Y-38654047D01*
X41866269Y-38668396D01*
X41836751Y-38684214D01*
X41805593Y-38696477D01*
X41764161Y-38723111D01*
X41720735Y-38746381D01*
X41694867Y-38767656D01*
X41666704Y-38785760D01*
X41631265Y-38819964D01*
X41593213Y-38851260D01*
X41571991Y-38877174D01*
X41547902Y-38900424D01*
X41519821Y-38940879D01*
X41514812Y-38946995D01*
X41496288Y-38974782D01*
X41453752Y-39036060D01*
X41450588Y-39043331D01*
X40933063Y-39819619D01*
X40848332Y-39661099D01*
X40669008Y-39442592D01*
X40450501Y-39263268D01*
X40317542Y-39192200D01*
X40450501Y-39121132D01*
X40669008Y-38941808D01*
X40848332Y-38723301D01*
X40981582Y-38474008D01*
X41063636Y-38203509D01*
X41091343Y-37922200D01*
X41063636Y-37640891D01*
X40981582Y-37370392D01*
X40848332Y-37121099D01*
X40669008Y-36902592D01*
X40450501Y-36723268D01*
X40317542Y-36652200D01*
X40450501Y-36581132D01*
X40669008Y-36401808D01*
X40848332Y-36183301D01*
X40981582Y-35934008D01*
X41063636Y-35663509D01*
X41078834Y-35509200D01*
X41331657Y-35509200D01*
X41359364Y-35790509D01*
X41441418Y-36061008D01*
X41574668Y-36310301D01*
X41753992Y-36528808D01*
X41972499Y-36708132D01*
X42221792Y-36841382D01*
X42492291Y-36923436D01*
X42703108Y-36944200D01*
X42844092Y-36944200D01*
X43054909Y-36923436D01*
X43325408Y-36841382D01*
X43574701Y-36708132D01*
X43793208Y-36528808D01*
X43972532Y-36310301D01*
X44105782Y-36061008D01*
X44187836Y-35790509D01*
X44215543Y-35509200D01*
X44187836Y-35227891D01*
X44105782Y-34957392D01*
X43972532Y-34708099D01*
X43793208Y-34489592D01*
X43574701Y-34310268D01*
X43526198Y-34284343D01*
X43631127Y-34240880D01*
X43866159Y-34083837D01*
X44066037Y-33883959D01*
X44223080Y-33648927D01*
X44331253Y-33387774D01*
X44386400Y-33110535D01*
X44386400Y-32827865D01*
X44331253Y-32550626D01*
X44223080Y-32289473D01*
X44066037Y-32054441D01*
X43866159Y-31854563D01*
X43631127Y-31697520D01*
X43369974Y-31589347D01*
X43092735Y-31534200D01*
X42810065Y-31534200D01*
X42532826Y-31589347D01*
X42271673Y-31697520D01*
X42036641Y-31854563D01*
X41836763Y-32054441D01*
X41679720Y-32289473D01*
X41571547Y-32550626D01*
X41516400Y-32827865D01*
X41516400Y-33110535D01*
X41571547Y-33387774D01*
X41679720Y-33648927D01*
X41836763Y-33883959D01*
X42036641Y-34083837D01*
X42196405Y-34190588D01*
X41972499Y-34310268D01*
X41753992Y-34489592D01*
X41574668Y-34708099D01*
X41441418Y-34957392D01*
X41359364Y-35227891D01*
X41331657Y-35509200D01*
X41078834Y-35509200D01*
X41091343Y-35382200D01*
X41063636Y-35100891D01*
X40981582Y-34830392D01*
X40848332Y-34581099D01*
X40669008Y-34362592D01*
X40450501Y-34183268D01*
X40317542Y-34112200D01*
X40450501Y-34041132D01*
X40669008Y-33861808D01*
X40848332Y-33643301D01*
X40981582Y-33394008D01*
X41063636Y-33123509D01*
X41091343Y-32842200D01*
X41063636Y-32560891D01*
X40981582Y-32290392D01*
X40848332Y-32041099D01*
X40669008Y-31822592D01*
X40450501Y-31643268D01*
X40317542Y-31572200D01*
X40450501Y-31501132D01*
X40669008Y-31321808D01*
X40756631Y-31215039D01*
X45514627Y-31215039D01*
X45546195Y-31535555D01*
X45639686Y-31843754D01*
X45791507Y-32127791D01*
X45995824Y-32376753D01*
X46244786Y-32581070D01*
X46528823Y-32732891D01*
X46837022Y-32826382D01*
X47077216Y-32850039D01*
X47237860Y-32850039D01*
X47478054Y-32826382D01*
X47786253Y-32732891D01*
X48070290Y-32581070D01*
X48319252Y-32376753D01*
X48523569Y-32127791D01*
X48675390Y-31843754D01*
X48768881Y-31535555D01*
X48800449Y-31215039D01*
X48768881Y-30894523D01*
X48675390Y-30586324D01*
X48523569Y-30302287D01*
X48319252Y-30053325D01*
X48070290Y-29849008D01*
X47953112Y-29786375D01*
X49372520Y-29786375D01*
X49372520Y-30157625D01*
X49444947Y-30521741D01*
X49587018Y-30864731D01*
X49793274Y-31173413D01*
X50055787Y-31435926D01*
X50364469Y-31642182D01*
X50707459Y-31784253D01*
X51071575Y-31856680D01*
X51442825Y-31856680D01*
X51806941Y-31784253D01*
X52149931Y-31642182D01*
X52458613Y-31435926D01*
X52721126Y-31173413D01*
X52927382Y-30864731D01*
X53069453Y-30521741D01*
X53141880Y-30157625D01*
X53141880Y-29786375D01*
X53093126Y-29541269D01*
X54775324Y-29541269D01*
X54798387Y-29664208D01*
X54844991Y-29780286D01*
X54913346Y-29885041D01*
X55000823Y-29974449D01*
X56532912Y-31260024D01*
X56636152Y-31330647D01*
X56751185Y-31379772D01*
X56873592Y-31405512D01*
X56998669Y-31406876D01*
X57121608Y-31383813D01*
X57237686Y-31337209D01*
X57342441Y-31268854D01*
X57431849Y-31181377D01*
X58717424Y-29649288D01*
X58788047Y-29546048D01*
X58837172Y-29431015D01*
X58862912Y-29308608D01*
X58864276Y-29183531D01*
X58841213Y-29060592D01*
X58794609Y-28944514D01*
X58726254Y-28839759D01*
X58638777Y-28750351D01*
X57106688Y-27464776D01*
X57003448Y-27394153D01*
X56888415Y-27345028D01*
X56766008Y-27319288D01*
X56640931Y-27317924D01*
X56517992Y-27340987D01*
X56401914Y-27387591D01*
X56297159Y-27455946D01*
X56207751Y-27543423D01*
X54922176Y-29075512D01*
X54851553Y-29178752D01*
X54802428Y-29293785D01*
X54776688Y-29416192D01*
X54775324Y-29541269D01*
X53093126Y-29541269D01*
X53069453Y-29422259D01*
X52927382Y-29079269D01*
X52721126Y-28770587D01*
X52458613Y-28508074D01*
X52149931Y-28301818D01*
X51806941Y-28159747D01*
X51442825Y-28087320D01*
X51071575Y-28087320D01*
X50707459Y-28159747D01*
X50364469Y-28301818D01*
X50055787Y-28508074D01*
X49793274Y-28770587D01*
X49587018Y-29079269D01*
X49444947Y-29422259D01*
X49372520Y-29786375D01*
X47953112Y-29786375D01*
X47786253Y-29697187D01*
X47478054Y-29603696D01*
X47237860Y-29580039D01*
X47077216Y-29580039D01*
X46837022Y-29603696D01*
X46528823Y-29697187D01*
X46244786Y-29849008D01*
X45995824Y-30053325D01*
X45791507Y-30302287D01*
X45639686Y-30586324D01*
X45546195Y-30894523D01*
X45514627Y-31215039D01*
X40756631Y-31215039D01*
X40848332Y-31103301D01*
X40981582Y-30854008D01*
X41063636Y-30583509D01*
X41067160Y-30547728D01*
X42268969Y-29966635D01*
X42287642Y-29960851D01*
X42343115Y-29930784D01*
X42362735Y-29921297D01*
X42379348Y-29911144D01*
X42432801Y-29882172D01*
X42449638Y-29868190D01*
X42468321Y-29856772D01*
X42513040Y-29815536D01*
X42559822Y-29776685D01*
X42573609Y-29759684D01*
X42589703Y-29744844D01*
X42625514Y-29695682D01*
X42663822Y-29648445D01*
X42674028Y-29629080D01*
X42686917Y-29611386D01*
X42712448Y-29556185D01*
X42721517Y-29538977D01*
X42729731Y-29518816D01*
X42756227Y-29461527D01*
X42760816Y-29442516D01*
X43272783Y-28185870D01*
X43283649Y-28167432D01*
X43303862Y-28109586D01*
X43311384Y-28091123D01*
X43317448Y-28070705D01*
X43338114Y-28011563D01*
X43340907Y-27991720D01*
X43346614Y-27972503D01*
X43352393Y-27910106D01*
X43355359Y-27889029D01*
X43356189Y-27869119D01*
X43361840Y-27808096D01*
X43359618Y-27786809D01*
X43389614Y-27066904D01*
X46975822Y-27066904D01*
X46993501Y-27190732D01*
X47034997Y-27308733D01*
X47098717Y-27416370D01*
X47182212Y-27509508D01*
X47282272Y-27584567D01*
X47395053Y-27638663D01*
X49274438Y-28322704D01*
X49395606Y-28353759D01*
X49520504Y-28360578D01*
X49644332Y-28342899D01*
X49762333Y-28301403D01*
X49869970Y-28237683D01*
X49963108Y-28154188D01*
X50038167Y-28054128D01*
X50092263Y-27941347D01*
X50763537Y-26097039D01*
X51285383Y-26097039D01*
X51316951Y-26417555D01*
X51410442Y-26725754D01*
X51562263Y-27009791D01*
X51766580Y-27258753D01*
X52015542Y-27463070D01*
X52299579Y-27614891D01*
X52607778Y-27708382D01*
X52847972Y-27732039D01*
X53008616Y-27732039D01*
X53248810Y-27708382D01*
X53557009Y-27614891D01*
X53841046Y-27463070D01*
X54090008Y-27258753D01*
X54294325Y-27009791D01*
X54446146Y-26725754D01*
X54539637Y-26417555D01*
X54571205Y-26097039D01*
X54539637Y-25776523D01*
X54446146Y-25468324D01*
X54294325Y-25184287D01*
X54090008Y-24935325D01*
X53841046Y-24731008D01*
X53557009Y-24579187D01*
X53248810Y-24485696D01*
X53008616Y-24462039D01*
X52847972Y-24462039D01*
X52607778Y-24485696D01*
X52299579Y-24579187D01*
X52015542Y-24731008D01*
X51766580Y-24935325D01*
X51562263Y-25184287D01*
X51410442Y-25468324D01*
X51316951Y-25776523D01*
X51285383Y-26097039D01*
X50763537Y-26097039D01*
X50776304Y-26061962D01*
X50807359Y-25940794D01*
X50814178Y-25815896D01*
X50796499Y-25692068D01*
X50755003Y-25574067D01*
X50691283Y-25466430D01*
X50607788Y-25373292D01*
X50507728Y-25298233D01*
X50394947Y-25244137D01*
X48515562Y-24560096D01*
X48394394Y-24529041D01*
X48269496Y-24522222D01*
X48145668Y-24539901D01*
X48027667Y-24581397D01*
X47920030Y-24645117D01*
X47826892Y-24728612D01*
X47751833Y-24828672D01*
X47697737Y-24941453D01*
X47013696Y-26820838D01*
X46982641Y-26942006D01*
X46975822Y-27066904D01*
X43389614Y-27066904D01*
X43407480Y-26638124D01*
X43409217Y-26611143D01*
X43473498Y-26663897D01*
X43722791Y-26797147D01*
X43993290Y-26879201D01*
X44204107Y-26899965D01*
X44345091Y-26899965D01*
X44555908Y-26879201D01*
X44826407Y-26797147D01*
X45075700Y-26663897D01*
X45294207Y-26484573D01*
X45473531Y-26266066D01*
X45606781Y-26016773D01*
X45688835Y-25746274D01*
X45716542Y-25464965D01*
X45688835Y-25183656D01*
X45606781Y-24913157D01*
X45473531Y-24663864D01*
X45294207Y-24445357D01*
X45075700Y-24266033D01*
X44826407Y-24132783D01*
X44555908Y-24050729D01*
X44345091Y-24029965D01*
X44204107Y-24029965D01*
X43993290Y-24050729D01*
X43722791Y-24132783D01*
X43473498Y-24266033D01*
X43455764Y-24280587D01*
X43464756Y-24201453D01*
X43697604Y-23681426D01*
X43827174Y-23655653D01*
X43963948Y-23598999D01*
X49470892Y-23598999D01*
X49498599Y-23880308D01*
X49580653Y-24150807D01*
X49713903Y-24400100D01*
X49893227Y-24618607D01*
X50111734Y-24797931D01*
X50361027Y-24931181D01*
X50631526Y-25013235D01*
X50842343Y-25033999D01*
X50983327Y-25033999D01*
X51194144Y-25013235D01*
X51464643Y-24931181D01*
X51713936Y-24797931D01*
X51932443Y-24618607D01*
X52111767Y-24400100D01*
X52245017Y-24150807D01*
X52327071Y-23880308D01*
X52354778Y-23598999D01*
X52327071Y-23317690D01*
X52245017Y-23047191D01*
X52111767Y-22797898D01*
X51932443Y-22579391D01*
X51713936Y-22400067D01*
X51464643Y-22266817D01*
X51194144Y-22184763D01*
X50983327Y-22163999D01*
X50842343Y-22163999D01*
X50631526Y-22184763D01*
X50361027Y-22266817D01*
X50111734Y-22400067D01*
X49893227Y-22579391D01*
X49713903Y-22797898D01*
X49580653Y-23047191D01*
X49498599Y-23317690D01*
X49470892Y-23598999D01*
X43963948Y-23598999D01*
X44088327Y-23547480D01*
X44323359Y-23390437D01*
X44523237Y-23190559D01*
X44680280Y-22955527D01*
X44788453Y-22694374D01*
X44843600Y-22417135D01*
X44843600Y-22134465D01*
X44788453Y-21857226D01*
X44680280Y-21596073D01*
X44523237Y-21361041D01*
X44323359Y-21161163D01*
X44088327Y-21004120D01*
X43827174Y-20895947D01*
X43549935Y-20840800D01*
X43267265Y-20840800D01*
X42990026Y-20895947D01*
X42728873Y-21004120D01*
X42493841Y-21161163D01*
X42293963Y-21361041D01*
X42136920Y-21596073D01*
X42028747Y-21857226D01*
X41973600Y-22134465D01*
X41973600Y-22417135D01*
X42028747Y-22694374D01*
X42136920Y-22955527D01*
X42166221Y-22999379D01*
X41913024Y-23564852D01*
X41909827Y-23569485D01*
X41900916Y-23590120D01*
X41783359Y-23472563D01*
X41548327Y-23315520D01*
X41413929Y-23259851D01*
X41049964Y-22449737D01*
X41048257Y-22444817D01*
X41028981Y-22403033D01*
X41010169Y-22361160D01*
X41007586Y-22356653D01*
X40587264Y-21445509D01*
X40590875Y-21427357D01*
X40641495Y-21447680D01*
X40764434Y-21470743D01*
X40889511Y-21469379D01*
X41011918Y-21443639D01*
X41126952Y-21394514D01*
X41230191Y-21323890D01*
X42149444Y-20552545D01*
X42236921Y-20463138D01*
X42305276Y-20358383D01*
X42351880Y-20242305D01*
X42374943Y-20119366D01*
X42373579Y-19994289D01*
X42347839Y-19871882D01*
X42298714Y-19756848D01*
X42228090Y-19653609D01*
X42141299Y-19550175D01*
X47061120Y-19550175D01*
X47061120Y-19921425D01*
X47133547Y-20285541D01*
X47275618Y-20628531D01*
X47481874Y-20937213D01*
X47744387Y-21199726D01*
X48053069Y-21405982D01*
X48396059Y-21548053D01*
X48760175Y-21620480D01*
X49131425Y-21620480D01*
X49495541Y-21548053D01*
X49838531Y-21405982D01*
X50147213Y-21199726D01*
X50409726Y-20937213D01*
X50615982Y-20628531D01*
X50758053Y-20285541D01*
X50830480Y-19921425D01*
X50830480Y-19550175D01*
X50758053Y-19186059D01*
X50615982Y-18843069D01*
X50409726Y-18534387D01*
X50147213Y-18271874D01*
X49838531Y-18065618D01*
X49495541Y-17923547D01*
X49131425Y-17851120D01*
X48760175Y-17851120D01*
X48396059Y-17923547D01*
X48053069Y-18065618D01*
X47744387Y-18271874D01*
X47481874Y-18534387D01*
X47275618Y-18843069D01*
X47133547Y-19186059D01*
X47061120Y-19550175D01*
X42141299Y-19550175D01*
X41456745Y-18734356D01*
X41367338Y-18646879D01*
X41262583Y-18578524D01*
X41146505Y-18531920D01*
X41023566Y-18508857D01*
X40898489Y-18510221D01*
X40776082Y-18535961D01*
X40661048Y-18585086D01*
X40557809Y-18655710D01*
X39638556Y-19427055D01*
X39551079Y-19516462D01*
X39482724Y-19621217D01*
X39436120Y-19737295D01*
X39413057Y-19860234D01*
X39414421Y-19985311D01*
X39426000Y-20040375D01*
X39240274Y-20040375D01*
X39001675Y-20087835D01*
X38776919Y-20180932D01*
X38574644Y-20316088D01*
X38402624Y-20488108D01*
X38267468Y-20690383D01*
X38174371Y-20915139D01*
X38126911Y-21153738D01*
X38126911Y-21397012D01*
X38174371Y-21635611D01*
X38267468Y-21860367D01*
X38402624Y-22062642D01*
X38574644Y-22234662D01*
X38694526Y-22314764D01*
X39133384Y-23266092D01*
X39456007Y-23984188D01*
X38238475Y-24417088D01*
X38146283Y-24448864D01*
X38097504Y-24477331D01*
X38046417Y-24501369D01*
X38009140Y-24528900D01*
X37969109Y-24552262D01*
X37926831Y-24589690D01*
X37881405Y-24623239D01*
X37850210Y-24657519D01*
X37815512Y-24688237D01*
X37781343Y-24733199D01*
X37743340Y-24774962D01*
X37693122Y-24858367D01*
X37424799Y-25294392D01*
X35652429Y-22192744D01*
X36682185Y-17867768D01*
X41789599Y-16535400D01*
X46583159Y-16535400D01*
X51157536Y-17907714D01*
X52974287Y-20632841D01*
X52994565Y-20664980D01*
X53002599Y-20675309D01*
X53009876Y-20686225D01*
X53034012Y-20715698D01*
X56561009Y-25250411D01*
X56599356Y-25307013D01*
X56660254Y-25367137D01*
X56719199Y-25429252D01*
X56733167Y-25439124D01*
X56745334Y-25451136D01*
X56816791Y-25498224D01*
X56886722Y-25547646D01*
X56949208Y-25575466D01*
X62272648Y-28377277D01*
X62272648Y-29443680D01*
X62284908Y-29568162D01*
X62321218Y-29687860D01*
X62380183Y-29798174D01*
X62459535Y-29894865D01*
X62556226Y-29974217D01*
X62666540Y-30033182D01*
X62786238Y-30069492D01*
X62910720Y-30081752D01*
X64051618Y-30081752D01*
X64852728Y-31462614D01*
X64852728Y-32121400D01*
X64864988Y-32245882D01*
X64901298Y-32365580D01*
X64960263Y-32475894D01*
X65039615Y-32572585D01*
X65136306Y-32651937D01*
X65181806Y-32676258D01*
X65123928Y-32734136D01*
X65241034Y-32851242D01*
X65017452Y-32898548D01*
X64916563Y-33119916D01*
X64860800Y-33356713D01*
X64852305Y-33599838D01*
X64891405Y-33839949D01*
X64976598Y-34067818D01*
X65017452Y-34144252D01*
X65241036Y-34191559D01*
X65911195Y-33521400D01*
X65897053Y-33507258D01*
X66076658Y-33327653D01*
X66090800Y-33341795D01*
X66104943Y-33327653D01*
X66284548Y-33507258D01*
X66270405Y-33521400D01*
X66940564Y-34191559D01*
X67164148Y-34144252D01*
X67265037Y-33922884D01*
X67320800Y-33686087D01*
X67329295Y-33442962D01*
X67290195Y-33202851D01*
X67205002Y-32974982D01*
X67164148Y-32898548D01*
X66940566Y-32851242D01*
X67057672Y-32734136D01*
X66999794Y-32676258D01*
X67045294Y-32651937D01*
X67141985Y-32572585D01*
X67221337Y-32475894D01*
X67280302Y-32365580D01*
X67316612Y-32245882D01*
X67328872Y-32121400D01*
X67328872Y-31447039D01*
X68101838Y-30078680D01*
X68156025Y-30078680D01*
X68520141Y-30006253D01*
X68863131Y-29864182D01*
X69171813Y-29657926D01*
X69434326Y-29395413D01*
X69640582Y-29086731D01*
X69698001Y-28948110D01*
X69698000Y-36137385D01*
X69624515Y-35999904D01*
X69334577Y-35874029D01*
X68200805Y-37007800D01*
X69334577Y-38141571D01*
X69624515Y-38015696D01*
X69698000Y-37868499D01*
X69698000Y-58268000D01*
X12852000Y-58268000D01*
X12852000Y-52932738D01*
X13645000Y-52932738D01*
X13645000Y-53747262D01*
X13803906Y-54546135D01*
X14115611Y-55298657D01*
X14568136Y-55975909D01*
X15144091Y-56551864D01*
X15821343Y-57004389D01*
X16573865Y-57316094D01*
X17372738Y-57475000D01*
X18187262Y-57475000D01*
X18986135Y-57316094D01*
X19738657Y-57004389D01*
X20415909Y-56551864D01*
X20991864Y-55975909D01*
X21444389Y-55298657D01*
X21756094Y-54546135D01*
X21915000Y-53747262D01*
X21915000Y-52932738D01*
X21756094Y-52133865D01*
X21513282Y-51547665D01*
X23101400Y-51547665D01*
X23101400Y-51830335D01*
X23156547Y-52107574D01*
X23264720Y-52368727D01*
X23421763Y-52603759D01*
X23621641Y-52803637D01*
X23856673Y-52960680D01*
X24117826Y-53068853D01*
X24395065Y-53124000D01*
X24677735Y-53124000D01*
X24954974Y-53068853D01*
X25216127Y-52960680D01*
X25451159Y-52803637D01*
X25651037Y-52603759D01*
X25808080Y-52368727D01*
X25916253Y-52107574D01*
X25971400Y-51830335D01*
X25971400Y-51547665D01*
X25916253Y-51270426D01*
X25808080Y-51009273D01*
X25651037Y-50774241D01*
X25451159Y-50574363D01*
X25216127Y-50417320D01*
X24954974Y-50309147D01*
X24677735Y-50254000D01*
X24395065Y-50254000D01*
X24117826Y-50309147D01*
X23856673Y-50417320D01*
X23621641Y-50574363D01*
X23421763Y-50774241D01*
X23264720Y-51009273D01*
X23156547Y-51270426D01*
X23101400Y-51547665D01*
X21513282Y-51547665D01*
X21444389Y-51381343D01*
X20991864Y-50704091D01*
X20415909Y-50128136D01*
X19738657Y-49675611D01*
X18986135Y-49363906D01*
X18187262Y-49205000D01*
X17372738Y-49205000D01*
X16573865Y-49363906D01*
X15821343Y-49675611D01*
X15144091Y-50128136D01*
X14568136Y-50704091D01*
X14115611Y-51381343D01*
X13803906Y-52133865D01*
X13645000Y-52932738D01*
X12852000Y-52932738D01*
X12852000Y-49109265D01*
X25895400Y-49109265D01*
X25895400Y-49391935D01*
X25950547Y-49669174D01*
X26058720Y-49930327D01*
X26215763Y-50165359D01*
X26415641Y-50365237D01*
X26650673Y-50522280D01*
X26860074Y-50609017D01*
X26414653Y-50771137D01*
X26301872Y-50825233D01*
X26201812Y-50900292D01*
X26118317Y-50993430D01*
X26054597Y-51101067D01*
X26013101Y-51219068D01*
X25995422Y-51342896D01*
X26002241Y-51467794D01*
X26033296Y-51588962D01*
X26717337Y-53468347D01*
X26771433Y-53581128D01*
X26846492Y-53681188D01*
X26939630Y-53764683D01*
X27047267Y-53828403D01*
X27165268Y-53869899D01*
X27289096Y-53887578D01*
X27413994Y-53880759D01*
X27535162Y-53849704D01*
X27930800Y-53705703D01*
X27779987Y-53806474D01*
X27517474Y-54068987D01*
X27311218Y-54377669D01*
X27169147Y-54720659D01*
X27096720Y-55084775D01*
X27096720Y-55456025D01*
X27169147Y-55820141D01*
X27311218Y-56163131D01*
X27517474Y-56471813D01*
X27779987Y-56734326D01*
X28088669Y-56940582D01*
X28431659Y-57082653D01*
X28795775Y-57155080D01*
X29167025Y-57155080D01*
X29531141Y-57082653D01*
X29844046Y-56953043D01*
X29885068Y-56986709D01*
X29939943Y-57016041D01*
X29993336Y-57048000D01*
X30012620Y-57054887D01*
X30030683Y-57064542D01*
X30090235Y-57082607D01*
X30148828Y-57103533D01*
X30169085Y-57106526D01*
X30188684Y-57112471D01*
X30250617Y-57118571D01*
X30312166Y-57127664D01*
X30373792Y-57124600D01*
X32112789Y-57124600D01*
X32126136Y-57126813D01*
X32195182Y-57124600D01*
X32222970Y-57124600D01*
X32236375Y-57123280D01*
X32249813Y-57122849D01*
X32277319Y-57119247D01*
X32346116Y-57112471D01*
X32359069Y-57108542D01*
X34417818Y-56838944D01*
X34493319Y-56830248D01*
X34538927Y-56815587D01*
X34585584Y-56804742D01*
X34617332Y-56790384D01*
X34650508Y-56779719D01*
X34692379Y-56756443D01*
X34736025Y-56736703D01*
X34797822Y-56692484D01*
X36606424Y-55440375D01*
X40279320Y-55440375D01*
X40279320Y-55811625D01*
X40351747Y-56175741D01*
X40493818Y-56518731D01*
X40700074Y-56827413D01*
X40962587Y-57089926D01*
X41271269Y-57296182D01*
X41614259Y-57438253D01*
X41978375Y-57510680D01*
X42349625Y-57510680D01*
X42713741Y-57438253D01*
X43056731Y-57296182D01*
X43365413Y-57089926D01*
X43627926Y-56827413D01*
X43834182Y-56518731D01*
X43976253Y-56175741D01*
X44048680Y-55811625D01*
X44048680Y-55440375D01*
X43976253Y-55076259D01*
X43834182Y-54733269D01*
X43627926Y-54424587D01*
X43365413Y-54162074D01*
X43056731Y-53955818D01*
X42713741Y-53813747D01*
X42349625Y-53741320D01*
X41978375Y-53741320D01*
X41614259Y-53813747D01*
X41271269Y-53955818D01*
X40962587Y-54162074D01*
X40700074Y-54424587D01*
X40493818Y-54733269D01*
X40351747Y-55076259D01*
X40279320Y-55440375D01*
X36606424Y-55440375D01*
X36748790Y-55341814D01*
X38774574Y-54146040D01*
X38804027Y-54161783D01*
X39074526Y-54243837D01*
X39285343Y-54264601D01*
X39426327Y-54264601D01*
X39637144Y-54243837D01*
X39907643Y-54161783D01*
X40156936Y-54028533D01*
X40375443Y-53849209D01*
X40554767Y-53630702D01*
X40688017Y-53381409D01*
X40770071Y-53110910D01*
X40797778Y-52829601D01*
X40770071Y-52548292D01*
X40688017Y-52277793D01*
X40554767Y-52028500D01*
X40375443Y-51809993D01*
X40156936Y-51630669D01*
X40096687Y-51598465D01*
X40627400Y-51598465D01*
X40627400Y-51881135D01*
X40682547Y-52158374D01*
X40790720Y-52419527D01*
X40947763Y-52654559D01*
X41147641Y-52854437D01*
X41382673Y-53011480D01*
X41643826Y-53119653D01*
X41921065Y-53174800D01*
X42203735Y-53174800D01*
X42480974Y-53119653D01*
X42742127Y-53011480D01*
X42977159Y-52854437D01*
X43152858Y-52678738D01*
X60635000Y-52678738D01*
X60635000Y-53493262D01*
X60793906Y-54292135D01*
X61105611Y-55044657D01*
X61558136Y-55721909D01*
X62134091Y-56297864D01*
X62811343Y-56750389D01*
X63563865Y-57062094D01*
X64362738Y-57221000D01*
X65177262Y-57221000D01*
X65976135Y-57062094D01*
X66728657Y-56750389D01*
X67405909Y-56297864D01*
X67981864Y-55721909D01*
X68434389Y-55044657D01*
X68746094Y-54292135D01*
X68905000Y-53493262D01*
X68905000Y-52678738D01*
X68746094Y-51879865D01*
X68434389Y-51127343D01*
X67981864Y-50450091D01*
X67405909Y-49874136D01*
X66728657Y-49421611D01*
X65976135Y-49109906D01*
X65177262Y-48951000D01*
X64362738Y-48951000D01*
X63563865Y-49109906D01*
X62811343Y-49421611D01*
X62134091Y-49874136D01*
X61558136Y-50450091D01*
X61105611Y-51127343D01*
X60793906Y-51879865D01*
X60635000Y-52678738D01*
X43152858Y-52678738D01*
X43177037Y-52654559D01*
X43334080Y-52419527D01*
X43442253Y-52158374D01*
X43497400Y-51881135D01*
X43497400Y-51598465D01*
X43442253Y-51321226D01*
X43334080Y-51060073D01*
X43177037Y-50825041D01*
X42977159Y-50625163D01*
X42742127Y-50468120D01*
X42480974Y-50359947D01*
X42203735Y-50304800D01*
X41921065Y-50304800D01*
X41643826Y-50359947D01*
X41382673Y-50468120D01*
X41147641Y-50625163D01*
X40947763Y-50825041D01*
X40790720Y-51060073D01*
X40682547Y-51321226D01*
X40627400Y-51598465D01*
X40096687Y-51598465D01*
X39907643Y-51497419D01*
X39637144Y-51415365D01*
X39426327Y-51394601D01*
X39285343Y-51394601D01*
X39074526Y-51415365D01*
X38804027Y-51497419D01*
X38554734Y-51630669D01*
X38336227Y-51809993D01*
X38156903Y-52028500D01*
X38023653Y-52277793D01*
X37941599Y-52548292D01*
X37926669Y-52699874D01*
X35879844Y-53908069D01*
X35853338Y-53922804D01*
X35844409Y-53928986D01*
X35835067Y-53934500D01*
X35810619Y-53952378D01*
X34005233Y-55202261D01*
X32585694Y-55388153D01*
X32766359Y-55267437D01*
X32966237Y-55067559D01*
X33123280Y-54832527D01*
X33231453Y-54571374D01*
X33286600Y-54294135D01*
X33286600Y-54011465D01*
X33231453Y-53734226D01*
X33123280Y-53473073D01*
X32966237Y-53238041D01*
X32850623Y-53122427D01*
X34883981Y-52903786D01*
X34962315Y-52896071D01*
X35005506Y-52882969D01*
X35049690Y-52873769D01*
X35084316Y-52859063D01*
X35120316Y-52848142D01*
X35160118Y-52826868D01*
X35201661Y-52809223D01*
X35232755Y-52788042D01*
X35265931Y-52770309D01*
X35300819Y-52741677D01*
X35338120Y-52716268D01*
X35393281Y-52660112D01*
X36406400Y-51646994D01*
X36463832Y-51589827D01*
X36487438Y-51554675D01*
X36514309Y-51521932D01*
X36533360Y-51486291D01*
X36555880Y-51452755D01*
X36572174Y-51413674D01*
X36592142Y-51376317D01*
X36603872Y-51337647D01*
X36619419Y-51300359D01*
X36627776Y-51258846D01*
X36640071Y-51218316D01*
X36644032Y-51178102D01*
X36652005Y-51138496D01*
X36652103Y-51096145D01*
X36656254Y-51054000D01*
X36648302Y-50973255D01*
X36633217Y-50816379D01*
X36801637Y-50647959D01*
X36958680Y-50412927D01*
X37066853Y-50151774D01*
X37122000Y-49874535D01*
X37122000Y-49591865D01*
X37066853Y-49314626D01*
X36958680Y-49053473D01*
X36801637Y-48818441D01*
X36601759Y-48618563D01*
X36366727Y-48461520D01*
X36105574Y-48353347D01*
X35828335Y-48298200D01*
X35545665Y-48298200D01*
X35268426Y-48353347D01*
X35007273Y-48461520D01*
X34772241Y-48618563D01*
X34572363Y-48818441D01*
X34415320Y-49053473D01*
X34307147Y-49314626D01*
X34252000Y-49591865D01*
X34252000Y-49874535D01*
X34279241Y-50011485D01*
X34113754Y-49847244D01*
X32851017Y-50306842D01*
X32857858Y-50325637D01*
X32619175Y-50412509D01*
X32612335Y-50393716D01*
X31349597Y-50853314D01*
X31324127Y-51132283D01*
X31441181Y-51288333D01*
X31645093Y-51485800D01*
X30686996Y-51485800D01*
X29421901Y-51320273D01*
X29111863Y-50468453D01*
X29057767Y-50355672D01*
X28982708Y-50255612D01*
X28945795Y-50222520D01*
X31053256Y-50222520D01*
X31063895Y-50417301D01*
X31262724Y-50614632D01*
X32525461Y-50155034D01*
X32065679Y-48891791D01*
X31786891Y-48866822D01*
X31538084Y-49068877D01*
X31333478Y-49315590D01*
X31180934Y-49597480D01*
X31086314Y-49903712D01*
X31053256Y-50222520D01*
X28945795Y-50222520D01*
X28889570Y-50172117D01*
X28781933Y-50108397D01*
X28663932Y-50066901D01*
X28540104Y-50049222D01*
X28521976Y-50050212D01*
X28602080Y-49930327D01*
X28710253Y-49669174D01*
X28765400Y-49391935D01*
X28765400Y-49109265D01*
X28710253Y-48832026D01*
X28699025Y-48804918D01*
X32304361Y-48804918D01*
X32764143Y-50068160D01*
X34026881Y-49608562D01*
X34052351Y-49329593D01*
X33935297Y-49173543D01*
X33705048Y-48950571D01*
X33435722Y-48776804D01*
X33137672Y-48658917D01*
X32822351Y-48601443D01*
X32501875Y-48606589D01*
X32304361Y-48804918D01*
X28699025Y-48804918D01*
X28602080Y-48570873D01*
X28445037Y-48335841D01*
X28245159Y-48135963D01*
X28010127Y-47978920D01*
X27775572Y-47881764D01*
X38950463Y-47881764D01*
X38950463Y-48164434D01*
X39005610Y-48441673D01*
X39113783Y-48702826D01*
X39270826Y-48937858D01*
X39470704Y-49137736D01*
X39705736Y-49294779D01*
X39966889Y-49402952D01*
X40244128Y-49458099D01*
X40526798Y-49458099D01*
X40804037Y-49402952D01*
X41065190Y-49294779D01*
X41300222Y-49137736D01*
X41500100Y-48937858D01*
X41657143Y-48702826D01*
X41765316Y-48441673D01*
X41820463Y-48164434D01*
X41820463Y-47881764D01*
X41765316Y-47604525D01*
X41657143Y-47343372D01*
X41500100Y-47108340D01*
X41483360Y-47091600D01*
X41717543Y-47091600D01*
X41745250Y-47372909D01*
X41827304Y-47643408D01*
X41960554Y-47892701D01*
X42139878Y-48111208D01*
X42358385Y-48290532D01*
X42607678Y-48423782D01*
X42878177Y-48505836D01*
X43088994Y-48526600D01*
X43229978Y-48526600D01*
X43440795Y-48505836D01*
X43711294Y-48423782D01*
X43960587Y-48290532D01*
X44179094Y-48111208D01*
X44327971Y-47929800D01*
X47219571Y-47929800D01*
X47247278Y-48211109D01*
X47329332Y-48481608D01*
X47462582Y-48730901D01*
X47641906Y-48949408D01*
X47860413Y-49128732D01*
X48109706Y-49261982D01*
X48380205Y-49344036D01*
X48591022Y-49364800D01*
X48732006Y-49364800D01*
X48942823Y-49344036D01*
X49213322Y-49261982D01*
X49462615Y-49128732D01*
X49681122Y-48949408D01*
X49860446Y-48730901D01*
X49993696Y-48481608D01*
X50075750Y-48211109D01*
X50103457Y-47929800D01*
X50075750Y-47648491D01*
X50027345Y-47488920D01*
X50174274Y-47708813D01*
X50436787Y-47971326D01*
X50745469Y-48177582D01*
X51088459Y-48319653D01*
X51452575Y-48392080D01*
X51823825Y-48392080D01*
X52187941Y-48319653D01*
X52530931Y-48177582D01*
X52839613Y-47971326D01*
X53102126Y-47708813D01*
X53308382Y-47400131D01*
X53450453Y-47057141D01*
X53522880Y-46693025D01*
X53522880Y-46321775D01*
X53450453Y-45957659D01*
X53308382Y-45614669D01*
X53102126Y-45305987D01*
X52839613Y-45043474D01*
X52530931Y-44837218D01*
X52187941Y-44695147D01*
X51823825Y-44622720D01*
X51452575Y-44622720D01*
X51088459Y-44695147D01*
X50745469Y-44837218D01*
X50436787Y-45043474D01*
X50174274Y-45305987D01*
X49968018Y-45614669D01*
X49825947Y-45957659D01*
X49753520Y-46321775D01*
X49753520Y-46693025D01*
X49825947Y-47057141D01*
X49850636Y-47116745D01*
X49681122Y-46910192D01*
X49462615Y-46730868D01*
X49213322Y-46597618D01*
X48942823Y-46515564D01*
X48732006Y-46494800D01*
X48591022Y-46494800D01*
X48380205Y-46515564D01*
X48109706Y-46597618D01*
X47860413Y-46730868D01*
X47641906Y-46910192D01*
X47462582Y-47128699D01*
X47329332Y-47377992D01*
X47247278Y-47648491D01*
X47219571Y-47929800D01*
X44327971Y-47929800D01*
X44358418Y-47892701D01*
X44491668Y-47643408D01*
X44573722Y-47372909D01*
X44601429Y-47091600D01*
X44573722Y-46810291D01*
X44491668Y-46539792D01*
X44358418Y-46290499D01*
X44179094Y-46071992D01*
X43960587Y-45892668D01*
X43711294Y-45759418D01*
X43440795Y-45677364D01*
X43229978Y-45656600D01*
X43088994Y-45656600D01*
X42878177Y-45677364D01*
X42607678Y-45759418D01*
X42358385Y-45892668D01*
X42139878Y-46071992D01*
X41960554Y-46290499D01*
X41827304Y-46539792D01*
X41745250Y-46810291D01*
X41717543Y-47091600D01*
X41483360Y-47091600D01*
X41300222Y-46908462D01*
X41065190Y-46751419D01*
X40804037Y-46643246D01*
X40526798Y-46588099D01*
X40244128Y-46588099D01*
X39966889Y-46643246D01*
X39705736Y-46751419D01*
X39470704Y-46908462D01*
X39270826Y-47108340D01*
X39113783Y-47343372D01*
X39005610Y-47604525D01*
X38950463Y-47881764D01*
X27775572Y-47881764D01*
X27748974Y-47870747D01*
X27471735Y-47815600D01*
X27189065Y-47815600D01*
X26911826Y-47870747D01*
X26650673Y-47978920D01*
X26415641Y-48135963D01*
X26215763Y-48335841D01*
X26058720Y-48570873D01*
X25950547Y-48832026D01*
X25895400Y-49109265D01*
X12852000Y-49109265D01*
X12852000Y-47220702D01*
X28908703Y-47220702D01*
X28980286Y-47464671D01*
X29235796Y-47585571D01*
X29509984Y-47654300D01*
X29792312Y-47668217D01*
X30071930Y-47626787D01*
X30338092Y-47531603D01*
X30463314Y-47464671D01*
X30534897Y-47220702D01*
X29721800Y-46407605D01*
X28908703Y-47220702D01*
X12852000Y-47220702D01*
X12852000Y-46298512D01*
X28281583Y-46298512D01*
X28323013Y-46578130D01*
X28418197Y-46844292D01*
X28485129Y-46969514D01*
X28729098Y-47041097D01*
X29542195Y-46228000D01*
X29901405Y-46228000D01*
X30714502Y-47041097D01*
X30958471Y-46969514D01*
X31079371Y-46714004D01*
X31148100Y-46439816D01*
X31162017Y-46157488D01*
X31151524Y-46086665D01*
X33286800Y-46086665D01*
X33286800Y-46369335D01*
X33341947Y-46646574D01*
X33450120Y-46907727D01*
X33607163Y-47142759D01*
X33807041Y-47342637D01*
X34042073Y-47499680D01*
X34303226Y-47607853D01*
X34580465Y-47663000D01*
X34863135Y-47663000D01*
X35140374Y-47607853D01*
X35401527Y-47499680D01*
X35636559Y-47342637D01*
X35836437Y-47142759D01*
X35993480Y-46907727D01*
X36101653Y-46646574D01*
X36156800Y-46369335D01*
X36156800Y-46086665D01*
X36101653Y-45809426D01*
X35993480Y-45548273D01*
X35836437Y-45313241D01*
X35636559Y-45113363D01*
X35401527Y-44956320D01*
X35140374Y-44848147D01*
X34863135Y-44793000D01*
X34580465Y-44793000D01*
X34303226Y-44848147D01*
X34042073Y-44956320D01*
X33807041Y-45113363D01*
X33607163Y-45313241D01*
X33450120Y-45548273D01*
X33341947Y-45809426D01*
X33286800Y-46086665D01*
X31151524Y-46086665D01*
X31120587Y-45877870D01*
X31025403Y-45611708D01*
X30958471Y-45486486D01*
X30714502Y-45414903D01*
X29901405Y-46228000D01*
X29542195Y-46228000D01*
X28729098Y-45414903D01*
X28485129Y-45486486D01*
X28364229Y-45741996D01*
X28295500Y-46016184D01*
X28281583Y-46298512D01*
X12852000Y-46298512D01*
X12852000Y-43800665D01*
X15583000Y-43800665D01*
X15583000Y-44083335D01*
X15638147Y-44360574D01*
X15746320Y-44621727D01*
X15903363Y-44856759D01*
X16103241Y-45056637D01*
X16338273Y-45213680D01*
X16599426Y-45321853D01*
X16876665Y-45377000D01*
X17159335Y-45377000D01*
X17382581Y-45332593D01*
X20741619Y-45332593D01*
X20921320Y-45549026D01*
X21139791Y-45726241D01*
X21388639Y-45857430D01*
X21658298Y-45937551D01*
X21938407Y-45963523D01*
X22078277Y-45955882D01*
X22245203Y-45765308D01*
X21854303Y-44691320D01*
X20779648Y-45082462D01*
X20741619Y-45332593D01*
X17382581Y-45332593D01*
X17436574Y-45321853D01*
X17697727Y-45213680D01*
X17932759Y-45056637D01*
X18132637Y-44856759D01*
X18289680Y-44621727D01*
X18383466Y-44395307D01*
X20501400Y-44395307D01*
X20502862Y-44676613D01*
X20692774Y-44843780D01*
X21350339Y-44604446D01*
X22092985Y-44604446D01*
X22483884Y-45678435D01*
X22734256Y-45717126D01*
X22846314Y-45633072D01*
X23044195Y-45433126D01*
X23174897Y-45235298D01*
X28908703Y-45235298D01*
X29721800Y-46048395D01*
X30534897Y-45235298D01*
X30463314Y-44991329D01*
X30207804Y-44870429D01*
X29933616Y-44801700D01*
X29651288Y-44787783D01*
X29371670Y-44829213D01*
X29105508Y-44924397D01*
X28980286Y-44991329D01*
X28908703Y-45235298D01*
X23174897Y-45235298D01*
X23199265Y-45198416D01*
X23305567Y-44937963D01*
X23359014Y-44661777D01*
X23357552Y-44380471D01*
X23167640Y-44213304D01*
X22092985Y-44604446D01*
X21350339Y-44604446D01*
X21767429Y-44452638D01*
X21376530Y-43378649D01*
X21126158Y-43339958D01*
X21014100Y-43424012D01*
X20816219Y-43623958D01*
X20661149Y-43858668D01*
X20554847Y-44119121D01*
X20501400Y-44395307D01*
X18383466Y-44395307D01*
X18397853Y-44360574D01*
X18453000Y-44083335D01*
X18453000Y-43800665D01*
X18397853Y-43523426D01*
X18289680Y-43262273D01*
X18132637Y-43027241D01*
X17932759Y-42827363D01*
X17697727Y-42670320D01*
X17436574Y-42562147D01*
X17159335Y-42507000D01*
X16876665Y-42507000D01*
X16599426Y-42562147D01*
X16338273Y-42670320D01*
X16103241Y-42827363D01*
X15903363Y-43027241D01*
X15746320Y-43262273D01*
X15638147Y-43523426D01*
X15583000Y-43800665D01*
X12852000Y-43800665D01*
X12852000Y-41930659D01*
X18882215Y-41930659D01*
X18909922Y-42211968D01*
X18991976Y-42482467D01*
X19125226Y-42731760D01*
X19304550Y-42950267D01*
X19523057Y-43129591D01*
X19772350Y-43262841D01*
X20042849Y-43344895D01*
X20253666Y-43365659D01*
X20394650Y-43365659D01*
X20605467Y-43344895D01*
X20780578Y-43291776D01*
X21615211Y-43291776D01*
X22006111Y-44365764D01*
X23080766Y-43974622D01*
X23118795Y-43724491D01*
X22977605Y-43554440D01*
X27437091Y-43554440D01*
X27531930Y-43819281D01*
X27676615Y-44060531D01*
X27865586Y-44268919D01*
X28091580Y-44436437D01*
X28345913Y-44556646D01*
X28479961Y-44597304D01*
X28702000Y-44475315D01*
X28702000Y-43332400D01*
X28956000Y-43332400D01*
X28956000Y-44475315D01*
X29178039Y-44597304D01*
X29312087Y-44556646D01*
X29566420Y-44436437D01*
X29792414Y-44268919D01*
X29981385Y-44060531D01*
X30126070Y-43819281D01*
X30220909Y-43554440D01*
X30099624Y-43332400D01*
X28956000Y-43332400D01*
X28702000Y-43332400D01*
X27558376Y-43332400D01*
X27437091Y-43554440D01*
X22977605Y-43554440D01*
X22939094Y-43508058D01*
X22720623Y-43330843D01*
X22471775Y-43199654D01*
X22202116Y-43119533D01*
X21922007Y-43093561D01*
X21782137Y-43101202D01*
X21615211Y-43291776D01*
X20780578Y-43291776D01*
X20875966Y-43262841D01*
X21125259Y-43129591D01*
X21343766Y-42950267D01*
X21523090Y-42731760D01*
X21656340Y-42482467D01*
X21738394Y-42211968D01*
X21750393Y-42090142D01*
X23282264Y-42090142D01*
X23309971Y-42371451D01*
X23392025Y-42641950D01*
X23525275Y-42891243D01*
X23704599Y-43109750D01*
X23923106Y-43289074D01*
X24172399Y-43422324D01*
X24442898Y-43504378D01*
X24653715Y-43525142D01*
X24794699Y-43525142D01*
X25005516Y-43504378D01*
X25276015Y-43422324D01*
X25525308Y-43289074D01*
X25743815Y-43109750D01*
X25923139Y-42891243D01*
X25941784Y-42856360D01*
X27437091Y-42856360D01*
X27558376Y-43078400D01*
X28702000Y-43078400D01*
X28702000Y-41935485D01*
X28956000Y-41935485D01*
X28956000Y-43078400D01*
X30099624Y-43078400D01*
X30220909Y-42856360D01*
X30126070Y-42591519D01*
X29981385Y-42350269D01*
X29792414Y-42141881D01*
X29566420Y-41974363D01*
X29312087Y-41854154D01*
X29178039Y-41813496D01*
X28956000Y-41935485D01*
X28702000Y-41935485D01*
X28479961Y-41813496D01*
X28345913Y-41854154D01*
X28091580Y-41974363D01*
X27865586Y-42141881D01*
X27676615Y-42350269D01*
X27531930Y-42591519D01*
X27437091Y-42856360D01*
X25941784Y-42856360D01*
X26056389Y-42641950D01*
X26138443Y-42371451D01*
X26166150Y-42090142D01*
X26138443Y-41808833D01*
X26056389Y-41538334D01*
X25923139Y-41289041D01*
X25743815Y-41070534D01*
X25525308Y-40891210D01*
X25276015Y-40757960D01*
X25005516Y-40675906D01*
X24794699Y-40655142D01*
X24653715Y-40655142D01*
X24442898Y-40675906D01*
X24172399Y-40757960D01*
X23923106Y-40891210D01*
X23704599Y-41070534D01*
X23525275Y-41289041D01*
X23392025Y-41538334D01*
X23309971Y-41808833D01*
X23282264Y-42090142D01*
X21750393Y-42090142D01*
X21766101Y-41930659D01*
X21738394Y-41649350D01*
X21656340Y-41378851D01*
X21523090Y-41129558D01*
X21343766Y-40911051D01*
X21125259Y-40731727D01*
X20875966Y-40598477D01*
X20605467Y-40516423D01*
X20394650Y-40495659D01*
X20253666Y-40495659D01*
X20042849Y-40516423D01*
X19772350Y-40598477D01*
X19523057Y-40731727D01*
X19304550Y-40911051D01*
X19125226Y-41129558D01*
X18991976Y-41378851D01*
X18909922Y-41649350D01*
X18882215Y-41930659D01*
X12852000Y-41930659D01*
X12852000Y-36781542D01*
X12969864Y-36781542D01*
X12997571Y-37062851D01*
X13079625Y-37333350D01*
X13212875Y-37582643D01*
X13392199Y-37801150D01*
X13610706Y-37980474D01*
X13859999Y-38113724D01*
X14130498Y-38195778D01*
X14341315Y-38216542D01*
X14482299Y-38216542D01*
X14693116Y-38195778D01*
X14963615Y-38113724D01*
X15212908Y-37980474D01*
X15431415Y-37801150D01*
X15610739Y-37582643D01*
X15743989Y-37333350D01*
X15826043Y-37062851D01*
X15853750Y-36781542D01*
X15826043Y-36500233D01*
X15743989Y-36229734D01*
X15610739Y-35980441D01*
X15431415Y-35761934D01*
X15212908Y-35582610D01*
X14963615Y-35449360D01*
X14693116Y-35367306D01*
X14482299Y-35346542D01*
X14341315Y-35346542D01*
X14130498Y-35367306D01*
X13859999Y-35449360D01*
X13610706Y-35582610D01*
X13392199Y-35761934D01*
X13212875Y-35980441D01*
X13079625Y-36229734D01*
X12997571Y-36500233D01*
X12969864Y-36781542D01*
X12852000Y-36781542D01*
X12852000Y-35083005D01*
X16129675Y-35083005D01*
X16133768Y-35208022D01*
X16162171Y-35329839D01*
X16213795Y-35443773D01*
X16738795Y-36353099D01*
X16811653Y-36454773D01*
X16887525Y-36525835D01*
X16907184Y-36610149D01*
X16980044Y-36770956D01*
X17242544Y-37225620D01*
X17345377Y-37369123D01*
X17474230Y-37489806D01*
X17501061Y-37506491D01*
X17502095Y-37538071D01*
X17542184Y-37710002D01*
X17615044Y-37870809D01*
X17877544Y-38325473D01*
X17980377Y-38468976D01*
X18109230Y-38589659D01*
X18259151Y-38682886D01*
X18424378Y-38745073D01*
X18598563Y-38773831D01*
X18775012Y-38768054D01*
X18946943Y-38727966D01*
X19107749Y-38655105D01*
X19952123Y-38167605D01*
X20095625Y-38064773D01*
X20216308Y-37935921D01*
X20309535Y-37786000D01*
X20371723Y-37620773D01*
X20400481Y-37446588D01*
X20394705Y-37270139D01*
X20354616Y-37098208D01*
X20281756Y-36937401D01*
X20019256Y-36482737D01*
X19916423Y-36339234D01*
X19787570Y-36218551D01*
X19760739Y-36201866D01*
X19759705Y-36170286D01*
X19719616Y-35998355D01*
X19646756Y-35837548D01*
X19384256Y-35382884D01*
X19281423Y-35239381D01*
X19218234Y-35180198D01*
X19194629Y-35078961D01*
X19143005Y-34965027D01*
X18618005Y-34055701D01*
X18545147Y-33954027D01*
X18453853Y-33868520D01*
X18347631Y-33802468D01*
X18230564Y-33758407D01*
X18107151Y-33738031D01*
X17982134Y-33742124D01*
X17860317Y-33770527D01*
X17746383Y-33822150D01*
X16447345Y-34572150D01*
X16345671Y-34645009D01*
X16260164Y-34736304D01*
X16194112Y-34842525D01*
X16150051Y-34959592D01*
X16129675Y-35083005D01*
X12852000Y-35083005D01*
X12852000Y-31710265D01*
X14846400Y-31710265D01*
X14846400Y-31992935D01*
X14901547Y-32270174D01*
X15009720Y-32531327D01*
X15166763Y-32766359D01*
X15366641Y-32966237D01*
X15601673Y-33123280D01*
X15862826Y-33231453D01*
X16140065Y-33286600D01*
X16422735Y-33286600D01*
X16699974Y-33231453D01*
X16961127Y-33123280D01*
X17196159Y-32966237D01*
X17396037Y-32766359D01*
X17473741Y-32650065D01*
X20409000Y-32650065D01*
X20409000Y-32932735D01*
X20464147Y-33209974D01*
X20572320Y-33471127D01*
X20729363Y-33706159D01*
X20929241Y-33906037D01*
X21164273Y-34063080D01*
X21425426Y-34171253D01*
X21702665Y-34226400D01*
X21985335Y-34226400D01*
X22262574Y-34171253D01*
X22523727Y-34063080D01*
X22758759Y-33906037D01*
X22958637Y-33706159D01*
X23115680Y-33471127D01*
X23223853Y-33209974D01*
X23279000Y-32932735D01*
X23279000Y-32650065D01*
X23223853Y-32372826D01*
X23115680Y-32111673D01*
X22958637Y-31876641D01*
X22758759Y-31676763D01*
X22523727Y-31519720D01*
X22262574Y-31411547D01*
X21985335Y-31356400D01*
X21702665Y-31356400D01*
X21425426Y-31411547D01*
X21164273Y-31519720D01*
X20929241Y-31676763D01*
X20729363Y-31876641D01*
X20572320Y-32111673D01*
X20464147Y-32372826D01*
X20409000Y-32650065D01*
X17473741Y-32650065D01*
X17553080Y-32531327D01*
X17661253Y-32270174D01*
X17716400Y-31992935D01*
X17716400Y-31710265D01*
X17661253Y-31433026D01*
X17553080Y-31171873D01*
X17396037Y-30936841D01*
X17196159Y-30736963D01*
X16961127Y-30579920D01*
X16699974Y-30471747D01*
X16422735Y-30416600D01*
X16140065Y-30416600D01*
X15862826Y-30471747D01*
X15601673Y-30579920D01*
X15366641Y-30736963D01*
X15166763Y-30936841D01*
X15009720Y-31171873D01*
X14901547Y-31433026D01*
X14846400Y-31710265D01*
X12852000Y-31710265D01*
X12852000Y-29227575D01*
X21737320Y-29227575D01*
X21737320Y-29598825D01*
X21809747Y-29962941D01*
X21951818Y-30305931D01*
X22158074Y-30614613D01*
X22420587Y-30877126D01*
X22729269Y-31083382D01*
X23072259Y-31225453D01*
X23436375Y-31297880D01*
X23807625Y-31297880D01*
X24171741Y-31225453D01*
X24514731Y-31083382D01*
X24823413Y-30877126D01*
X25085926Y-30614613D01*
X25292182Y-30305931D01*
X25434253Y-29962941D01*
X25506680Y-29598825D01*
X25506680Y-29227575D01*
X25434253Y-28863459D01*
X25292182Y-28520469D01*
X25085926Y-28211787D01*
X24825204Y-27951065D01*
X25997000Y-27951065D01*
X25997000Y-28233735D01*
X26052147Y-28510974D01*
X26160320Y-28772127D01*
X26317363Y-29007159D01*
X26517241Y-29207037D01*
X26752273Y-29364080D01*
X27013426Y-29472253D01*
X27290665Y-29527400D01*
X27573335Y-29527400D01*
X27850574Y-29472253D01*
X28111727Y-29364080D01*
X28346759Y-29207037D01*
X28546637Y-29007159D01*
X28703680Y-28772127D01*
X28811853Y-28510974D01*
X28867000Y-28233735D01*
X28867000Y-27951065D01*
X28811853Y-27673826D01*
X28703680Y-27412673D01*
X28546637Y-27177641D01*
X28346759Y-26977763D01*
X28111727Y-26820720D01*
X27850574Y-26712547D01*
X27573335Y-26657400D01*
X27290665Y-26657400D01*
X27013426Y-26712547D01*
X26752273Y-26820720D01*
X26517241Y-26977763D01*
X26317363Y-27177641D01*
X26160320Y-27412673D01*
X26052147Y-27673826D01*
X25997000Y-27951065D01*
X24825204Y-27951065D01*
X24823413Y-27949274D01*
X24514731Y-27743018D01*
X24171741Y-27600947D01*
X23807625Y-27528520D01*
X23436375Y-27528520D01*
X23072259Y-27600947D01*
X22729269Y-27743018D01*
X22420587Y-27949274D01*
X22158074Y-28211787D01*
X21951818Y-28520469D01*
X21809747Y-28863459D01*
X21737320Y-29227575D01*
X12852000Y-29227575D01*
X12852000Y-26014341D01*
X19737499Y-26014341D01*
X19765206Y-26295650D01*
X19847260Y-26566149D01*
X19980510Y-26815442D01*
X20159834Y-27033949D01*
X20378341Y-27213273D01*
X20627634Y-27346523D01*
X20898133Y-27428577D01*
X21108950Y-27449341D01*
X21249934Y-27449341D01*
X21460751Y-27428577D01*
X21731250Y-27346523D01*
X21980543Y-27213273D01*
X22199050Y-27033949D01*
X22378374Y-26815442D01*
X22511624Y-26566149D01*
X22593678Y-26295650D01*
X22621385Y-26014341D01*
X22593678Y-25733032D01*
X22511624Y-25462533D01*
X22378374Y-25213240D01*
X22199050Y-24994733D01*
X21980543Y-24815409D01*
X21731250Y-24682159D01*
X21460751Y-24600105D01*
X21249934Y-24579341D01*
X21108950Y-24579341D01*
X20898133Y-24600105D01*
X20627634Y-24682159D01*
X20378341Y-24815409D01*
X20159834Y-24994733D01*
X19980510Y-25213240D01*
X19847260Y-25462533D01*
X19765206Y-25733032D01*
X19737499Y-26014341D01*
X12852000Y-26014341D01*
X12852000Y-17118738D01*
X13391000Y-17118738D01*
X13391000Y-17933262D01*
X13549906Y-18732135D01*
X13861611Y-19484657D01*
X14314136Y-20161909D01*
X14890091Y-20737864D01*
X15567343Y-21190389D01*
X16319865Y-21502094D01*
X17118738Y-21661000D01*
X17933262Y-21661000D01*
X18732135Y-21502094D01*
X18753399Y-21493286D01*
X29800057Y-21493286D01*
X29827764Y-21774595D01*
X29909818Y-22045094D01*
X30043068Y-22294387D01*
X30222392Y-22512894D01*
X30440899Y-22692218D01*
X30690192Y-22825468D01*
X30960691Y-22907522D01*
X31171508Y-22928286D01*
X31312492Y-22928286D01*
X31523309Y-22907522D01*
X31793808Y-22825468D01*
X32043101Y-22692218D01*
X32261608Y-22512894D01*
X32440932Y-22294387D01*
X32574182Y-22045094D01*
X32656236Y-21774595D01*
X32683943Y-21493286D01*
X32656236Y-21211977D01*
X32574182Y-20941478D01*
X32440932Y-20692185D01*
X32261608Y-20473678D01*
X32043101Y-20294354D01*
X31793808Y-20161104D01*
X31523309Y-20079050D01*
X31312492Y-20058286D01*
X31171508Y-20058286D01*
X30960691Y-20079050D01*
X30690192Y-20161104D01*
X30440899Y-20294354D01*
X30222392Y-20473678D01*
X30043068Y-20692185D01*
X29909818Y-20941478D01*
X29827764Y-21211977D01*
X29800057Y-21493286D01*
X18753399Y-21493286D01*
X19484657Y-21190389D01*
X20161909Y-20737864D01*
X20737864Y-20161909D01*
X21190389Y-19484657D01*
X21502094Y-18732135D01*
X21661000Y-17933262D01*
X21661000Y-17118738D01*
X21502094Y-16319865D01*
X21190389Y-15567343D01*
X20737864Y-14890091D01*
X20161909Y-14314136D01*
X19484657Y-13861611D01*
X18732135Y-13549906D01*
X17933262Y-13391000D01*
X17118738Y-13391000D01*
X16319865Y-13549906D01*
X15567343Y-13861611D01*
X14890091Y-14314136D01*
X14314136Y-14890091D01*
X13861611Y-15567343D01*
X13549906Y-16319865D01*
X13391000Y-17118738D01*
X12852000Y-17118738D01*
X12852000Y-12852000D01*
X69698001Y-12852000D01*
X69698001Y-27439890D01*
X69698001Y-27439890D01*
G37*
X69698001Y-27439890D02*
X69640582Y-27301269D01*
X69434326Y-26992587D01*
X69171813Y-26730074D01*
X68863131Y-26523818D01*
X68520141Y-26381747D01*
X68156025Y-26309320D01*
X67784775Y-26309320D01*
X67420659Y-26381747D01*
X67077669Y-26523818D01*
X66768987Y-26730074D01*
X66506474Y-26992587D01*
X66399556Y-27152600D01*
X66048152Y-27152600D01*
X66048152Y-26944320D01*
X66035892Y-26819838D01*
X65999582Y-26700140D01*
X65940617Y-26589826D01*
X65861265Y-26493135D01*
X65764574Y-26413783D01*
X65654260Y-26354818D01*
X65534562Y-26318508D01*
X65410080Y-26306248D01*
X62910720Y-26306248D01*
X62825582Y-26314633D01*
X58087994Y-23821166D01*
X54693395Y-19456682D01*
X53304099Y-17372738D01*
X60635000Y-17372738D01*
X60635000Y-18187262D01*
X60793906Y-18986135D01*
X61105611Y-19738657D01*
X61558136Y-20415909D01*
X62134091Y-20991864D01*
X62811343Y-21444389D01*
X63563865Y-21756094D01*
X64362738Y-21915000D01*
X65177262Y-21915000D01*
X65976135Y-21756094D01*
X66728657Y-21444389D01*
X67405909Y-20991864D01*
X67981864Y-20415909D01*
X68434389Y-19738657D01*
X68746094Y-18986135D01*
X68905000Y-18187262D01*
X68905000Y-17372738D01*
X68746094Y-16573865D01*
X68434389Y-15821343D01*
X67981864Y-15144091D01*
X67405909Y-14568136D01*
X66728657Y-14115611D01*
X65976135Y-13803906D01*
X65177262Y-13645000D01*
X64362738Y-13645000D01*
X63563865Y-13803906D01*
X62811343Y-14115611D01*
X62134091Y-14568136D01*
X61558136Y-15144091D01*
X61105611Y-15821343D01*
X60793906Y-16573865D01*
X60635000Y-17372738D01*
X53304099Y-17372738D01*
X52738190Y-16523876D01*
X52737358Y-16521884D01*
X52681412Y-16438708D01*
X52654123Y-16397775D01*
X52652758Y-16396108D01*
X52622867Y-16351669D01*
X52587925Y-16316941D01*
X52556716Y-16278831D01*
X52515358Y-16244816D01*
X52477368Y-16207059D01*
X52436320Y-16179814D01*
X52398280Y-16148528D01*
X52351081Y-16123236D01*
X52306454Y-16093615D01*
X52260880Y-16074901D01*
X52217465Y-16051637D01*
X52166240Y-16036040D01*
X52164239Y-16035218D01*
X52116894Y-16021015D01*
X52021223Y-15991884D01*
X52019082Y-15991671D01*
X47036775Y-14496980D01*
X46940150Y-14467669D01*
X46887386Y-14462472D01*
X46835373Y-14452292D01*
X46734925Y-14452600D01*
X41676456Y-14452600D01*
X41594470Y-14449373D01*
X41523437Y-14460618D01*
X41451850Y-14467669D01*
X41373313Y-14491493D01*
X35649381Y-15984693D01*
X35648362Y-15984755D01*
X35550441Y-16010503D01*
X35501633Y-16023236D01*
X35500673Y-16023590D01*
X35449968Y-16036923D01*
X35404669Y-16059000D01*
X35357393Y-16076437D01*
X35312689Y-16103827D01*
X35265564Y-16126794D01*
X35225446Y-16157281D01*
X35182477Y-16183608D01*
X35143979Y-16219190D01*
X35102236Y-16250912D01*
X35068829Y-16288648D01*
X35031829Y-16322846D01*
X35001018Y-16365247D01*
X34966260Y-16404510D01*
X34940854Y-16448044D01*
X34911241Y-16488797D01*
X34889295Y-16536393D01*
X34862864Y-16581683D01*
X34846440Y-16629334D01*
X34825345Y-16675084D01*
X34813106Y-16726048D01*
X34812767Y-16727030D01*
X34800931Y-16776740D01*
X34777441Y-16874551D01*
X34777401Y-16875567D01*
X33546700Y-22044516D01*
X33534436Y-22076665D01*
X33523004Y-22144039D01*
X33519072Y-22160552D01*
X33514442Y-22194495D01*
X33500118Y-22278911D01*
X33500600Y-22295971D01*
X33498294Y-22312880D01*
X33503496Y-22398358D01*
X33505917Y-22483967D01*
X33509718Y-22500605D01*
X33510755Y-22517637D01*
X33532532Y-22600455D01*
X33551609Y-22683950D01*
X33558583Y-22699526D01*
X33562923Y-22716031D01*
X33600444Y-22793021D01*
X33614434Y-22824266D01*
X33622847Y-22838988D01*
X33652793Y-22900435D01*
X33673619Y-22927840D01*
X33887038Y-23301323D01*
X33800408Y-23255018D01*
X33529909Y-23172964D01*
X33319092Y-23152200D01*
X33178108Y-23152200D01*
X32967291Y-23172964D01*
X32696792Y-23255018D01*
X32447499Y-23388268D01*
X32228992Y-23567592D01*
X32049668Y-23786099D01*
X31916418Y-24035392D01*
X31834364Y-24305891D01*
X31806657Y-24587200D01*
X31834364Y-24868509D01*
X31916418Y-25139008D01*
X32049668Y-25388301D01*
X32228992Y-25606808D01*
X32447499Y-25786132D01*
X32696792Y-25919382D01*
X32967291Y-26001436D01*
X33178108Y-26022200D01*
X33319092Y-26022200D01*
X33529909Y-26001436D01*
X33800408Y-25919382D01*
X34049701Y-25786132D01*
X34268208Y-25606808D01*
X34447532Y-25388301D01*
X34580782Y-25139008D01*
X34662836Y-24868509D01*
X34680440Y-24689777D01*
X35514682Y-26149703D01*
X35303759Y-29102644D01*
X33700583Y-31392896D01*
X33649227Y-31461400D01*
X33619659Y-31523092D01*
X33586125Y-31582685D01*
X33559518Y-31664007D01*
X33343823Y-32257168D01*
X33228332Y-32041099D01*
X33049008Y-31822592D01*
X32830501Y-31643268D01*
X32697542Y-31572200D01*
X32830501Y-31501132D01*
X33049008Y-31321808D01*
X33228332Y-31103301D01*
X33361582Y-30854008D01*
X33443636Y-30583509D01*
X33471343Y-30302200D01*
X33443636Y-30020891D01*
X33361582Y-29750392D01*
X33228332Y-29501099D01*
X33049008Y-29282592D01*
X32935918Y-29189781D01*
X32953882Y-29188012D01*
X33073580Y-29151702D01*
X33183894Y-29092737D01*
X33280585Y-29013385D01*
X33359937Y-28916694D01*
X33418902Y-28806380D01*
X33455212Y-28686682D01*
X33467472Y-28562200D01*
X33467472Y-26962200D01*
X33455212Y-26837718D01*
X33418902Y-26718020D01*
X33359937Y-26607706D01*
X33280585Y-26511015D01*
X33183894Y-26431663D01*
X33073580Y-26372698D01*
X32953882Y-26336388D01*
X32829400Y-26324128D01*
X31229400Y-26324128D01*
X31104918Y-26336388D01*
X30985220Y-26372698D01*
X30874906Y-26431663D01*
X30778215Y-26511015D01*
X30698863Y-26607706D01*
X30639898Y-26718020D01*
X30603588Y-26837718D01*
X30591328Y-26962200D01*
X30591328Y-28562200D01*
X30603588Y-28686682D01*
X30639898Y-28806380D01*
X30698863Y-28916694D01*
X30778215Y-29013385D01*
X30874906Y-29092737D01*
X30985220Y-29151702D01*
X31104918Y-29188012D01*
X31122882Y-29189781D01*
X31009792Y-29282592D01*
X30830468Y-29501099D01*
X30697218Y-29750392D01*
X30615164Y-30020891D01*
X30587457Y-30302200D01*
X30615164Y-30583509D01*
X30697218Y-30854008D01*
X30830468Y-31103301D01*
X31009792Y-31321808D01*
X31228299Y-31501132D01*
X31361258Y-31572200D01*
X31228299Y-31643268D01*
X31009792Y-31822592D01*
X30830468Y-32041099D01*
X30760277Y-32172418D01*
X30662932Y-31990299D01*
X30483608Y-31771792D01*
X30265101Y-31592468D01*
X30015808Y-31459218D01*
X29745309Y-31377164D01*
X29534492Y-31356400D01*
X29393508Y-31356400D01*
X29182691Y-31377164D01*
X28912192Y-31459218D01*
X28662899Y-31592468D01*
X28444392Y-31771792D01*
X28265068Y-31990299D01*
X28131818Y-32239592D01*
X28049764Y-32510091D01*
X28022057Y-32791400D01*
X28049764Y-33072709D01*
X28131818Y-33343208D01*
X28265068Y-33592501D01*
X28444392Y-33811008D01*
X28662899Y-33990332D01*
X28912192Y-34123582D01*
X29058249Y-34167887D01*
X28970335Y-34150400D01*
X28687665Y-34150400D01*
X28410426Y-34205547D01*
X28149273Y-34313720D01*
X27914241Y-34470763D01*
X27714363Y-34670641D01*
X27557320Y-34905673D01*
X27449147Y-35166826D01*
X27394000Y-35444065D01*
X27394000Y-35726735D01*
X27449147Y-36003974D01*
X27557320Y-36265127D01*
X27714363Y-36500159D01*
X27914241Y-36700037D01*
X28070731Y-36804600D01*
X27931840Y-36804600D01*
X27286882Y-36482121D01*
X26962571Y-36157810D01*
X26955802Y-36148156D01*
X26890134Y-36085373D01*
X26862211Y-36057450D01*
X26853150Y-36050014D01*
X26844679Y-36041915D01*
X26813593Y-36017550D01*
X26743369Y-35959919D01*
X26732975Y-35954363D01*
X26643746Y-35884427D01*
X26602053Y-35674826D01*
X26493880Y-35413673D01*
X26336837Y-35178641D01*
X26136959Y-34978763D01*
X25901927Y-34821720D01*
X25640774Y-34713547D01*
X25363535Y-34658400D01*
X25080865Y-34658400D01*
X24803626Y-34713547D01*
X24542473Y-34821720D01*
X24307441Y-34978763D01*
X24107563Y-35178641D01*
X23950520Y-35413673D01*
X23842347Y-35674826D01*
X23787200Y-35952065D01*
X23787200Y-36234735D01*
X23842347Y-36511974D01*
X23950520Y-36773127D01*
X24107563Y-37008159D01*
X24307441Y-37208037D01*
X24542473Y-37365080D01*
X24803626Y-37473253D01*
X25080865Y-37528400D01*
X25363535Y-37528400D01*
X25364619Y-37528184D01*
X25470090Y-37610851D01*
X25871204Y-38011965D01*
X25879465Y-38023628D01*
X25943624Y-38084385D01*
X25969789Y-38110550D01*
X25980775Y-38119566D01*
X26028414Y-38164679D01*
X26059881Y-38184487D01*
X26088630Y-38208081D01*
X26146504Y-38239016D01*
X26158521Y-38246580D01*
X26191590Y-38263115D01*
X26269544Y-38304782D01*
X26283225Y-38308932D01*
X27207618Y-38771129D01*
X27285546Y-38812783D01*
X27348333Y-38831829D01*
X27409608Y-38855277D01*
X27446264Y-38861536D01*
X27481850Y-38872331D01*
X27547147Y-38878762D01*
X27611818Y-38889805D01*
X27700122Y-38887400D01*
X28625434Y-38887400D01*
X28651133Y-38891200D01*
X28727771Y-38887400D01*
X28753152Y-38887400D01*
X28778884Y-38884866D01*
X28856019Y-38881041D01*
X28880759Y-38874832D01*
X28906150Y-38872331D01*
X28980083Y-38849904D01*
X29054985Y-38831105D01*
X29078034Y-38820191D01*
X29102454Y-38812783D01*
X29170590Y-38776364D01*
X29193933Y-38765310D01*
X29215674Y-38752265D01*
X29283370Y-38716081D01*
X29303459Y-38699595D01*
X30422060Y-38028434D01*
X30424478Y-38027554D01*
X30509862Y-37975753D01*
X30551658Y-37950675D01*
X30553718Y-37949146D01*
X30555918Y-37947811D01*
X30587636Y-37924022D01*
X30615164Y-38203509D01*
X30697218Y-38474008D01*
X30830468Y-38723301D01*
X31009792Y-38941808D01*
X31228299Y-39121132D01*
X31361258Y-39192200D01*
X31228299Y-39263268D01*
X31009792Y-39442592D01*
X30830468Y-39661099D01*
X30697218Y-39910392D01*
X30615164Y-40180891D01*
X30587457Y-40462200D01*
X30615164Y-40743509D01*
X30697218Y-41014008D01*
X30830468Y-41263301D01*
X31009792Y-41481808D01*
X31228299Y-41661132D01*
X31361258Y-41732200D01*
X31228299Y-41803268D01*
X31009792Y-41982592D01*
X30830468Y-42201099D01*
X30697218Y-42450392D01*
X30615164Y-42720891D01*
X30587457Y-43002200D01*
X30615164Y-43283509D01*
X30697218Y-43554008D01*
X30830468Y-43803301D01*
X31009792Y-44021808D01*
X31228299Y-44201132D01*
X31477592Y-44334382D01*
X31748091Y-44416436D01*
X31958908Y-44437200D01*
X32099892Y-44437200D01*
X32310709Y-44416436D01*
X32581208Y-44334382D01*
X32830501Y-44201132D01*
X33049008Y-44021808D01*
X33228332Y-43803301D01*
X33361582Y-43554008D01*
X33443636Y-43283509D01*
X33471343Y-43002200D01*
X33443636Y-42720891D01*
X33361582Y-42450392D01*
X33228332Y-42201099D01*
X33049008Y-41982592D01*
X32830501Y-41803268D01*
X32697542Y-41732200D01*
X32830501Y-41661132D01*
X33049008Y-41481808D01*
X33228332Y-41263301D01*
X33361582Y-41014008D01*
X33443636Y-40743509D01*
X33471343Y-40462200D01*
X33443636Y-40180891D01*
X33361582Y-39910392D01*
X33228332Y-39661099D01*
X33049008Y-39442592D01*
X32830501Y-39263268D01*
X32697542Y-39192200D01*
X32830501Y-39121132D01*
X33049008Y-38941808D01*
X33228332Y-38723301D01*
X33361582Y-38474008D01*
X33443636Y-38203509D01*
X33471343Y-37922200D01*
X33443636Y-37640891D01*
X33361582Y-37370392D01*
X33228332Y-37121099D01*
X33049008Y-36902592D01*
X32830501Y-36723268D01*
X32697542Y-36652200D01*
X32830501Y-36581132D01*
X33049008Y-36401808D01*
X33228332Y-36183301D01*
X33330119Y-35992871D01*
X33890139Y-35774558D01*
X33970523Y-35746263D01*
X34029671Y-35711225D01*
X34090980Y-35680091D01*
X34117738Y-35659055D01*
X34147017Y-35641711D01*
X34198193Y-35595807D01*
X34252249Y-35553311D01*
X34274389Y-35527459D01*
X34299723Y-35504735D01*
X34340965Y-35449723D01*
X34385687Y-35397503D01*
X34402356Y-35367833D01*
X34422772Y-35340600D01*
X34452490Y-35278596D01*
X34486164Y-35218658D01*
X34512605Y-35137653D01*
X35475818Y-32488818D01*
X36513002Y-31007127D01*
X36504072Y-31142858D01*
X36501544Y-31162983D01*
X36500717Y-31193847D01*
X36498689Y-31224677D01*
X36499348Y-31244964D01*
X36424694Y-34032030D01*
X36418766Y-34107425D01*
X36427981Y-34185228D01*
X36433571Y-34263395D01*
X36440025Y-34286919D01*
X36442893Y-34311139D01*
X36467111Y-34385656D01*
X36487842Y-34461223D01*
X36521696Y-34528856D01*
X36847723Y-35274062D01*
X36865359Y-35326853D01*
X36914084Y-35412200D01*
X36962147Y-35498006D01*
X36964937Y-35501272D01*
X36967067Y-35505003D01*
X37031556Y-35579261D01*
X37095385Y-35653983D01*
X37098756Y-35656640D01*
X37101575Y-35659886D01*
X37179316Y-35720138D01*
X37256494Y-35780971D01*
X37306091Y-35806237D01*
X38135517Y-36327591D01*
X38200448Y-36372618D01*
X38269185Y-36402491D01*
X38336256Y-36435971D01*
X38363083Y-36443299D01*
X38388588Y-36454383D01*
X38461841Y-36470274D01*
X38534144Y-36490023D01*
X38561882Y-36491976D01*
X38589062Y-36497872D01*
X38664017Y-36499167D01*
X38738776Y-36504430D01*
X38752689Y-36502667D01*
X38848299Y-36581132D01*
X38981258Y-36652200D01*
X38848299Y-36723268D01*
X38629792Y-36902592D01*
X38450468Y-37121099D01*
X38317218Y-37370392D01*
X38235164Y-37640891D01*
X38207457Y-37922200D01*
X38235164Y-38203509D01*
X38317218Y-38474008D01*
X38450468Y-38723301D01*
X38629792Y-38941808D01*
X38848299Y-39121132D01*
X38981258Y-39192200D01*
X38848299Y-39263268D01*
X38629792Y-39442592D01*
X38450468Y-39661099D01*
X38317218Y-39910392D01*
X38235164Y-40180891D01*
X38207457Y-40462200D01*
X38235164Y-40743509D01*
X38317218Y-41014008D01*
X38450468Y-41263301D01*
X38629792Y-41481808D01*
X38848299Y-41661132D01*
X38981258Y-41732200D01*
X38848299Y-41803268D01*
X38629792Y-41982592D01*
X38450468Y-42201099D01*
X38317218Y-42450392D01*
X38235164Y-42720891D01*
X38207457Y-43002200D01*
X38235164Y-43283509D01*
X38317218Y-43554008D01*
X38450468Y-43803301D01*
X38629792Y-44021808D01*
X38684995Y-44067112D01*
X38658502Y-44072519D01*
X37674042Y-44113538D01*
X37592544Y-44059083D01*
X37404186Y-43981062D01*
X37204227Y-43941288D01*
X37000349Y-43941288D01*
X36800390Y-43981062D01*
X36612032Y-44059083D01*
X36442514Y-44172351D01*
X36298351Y-44316514D01*
X36185083Y-44486032D01*
X36107062Y-44674390D01*
X36067288Y-44874349D01*
X36067288Y-45078227D01*
X36107062Y-45278186D01*
X36185083Y-45466544D01*
X36298351Y-45636062D01*
X36442514Y-45780225D01*
X36612032Y-45893493D01*
X36800390Y-45971514D01*
X37000349Y-46011288D01*
X37204227Y-46011288D01*
X37404186Y-45971514D01*
X37592544Y-45893493D01*
X37750092Y-45788223D01*
X38738748Y-45747029D01*
X38764583Y-45749444D01*
X38821042Y-45743600D01*
X38836429Y-45742959D01*
X38861987Y-45739362D01*
X38887667Y-45736704D01*
X38902760Y-45733624D01*
X38958963Y-45725714D01*
X38983458Y-45717155D01*
X40104038Y-45488465D01*
X40116593Y-45488029D01*
X40184788Y-45471985D01*
X40212945Y-45466239D01*
X40224887Y-45462552D01*
X40277316Y-45450217D01*
X40303588Y-45438250D01*
X40331178Y-45429731D01*
X40378562Y-45404100D01*
X40389926Y-45398924D01*
X40414763Y-45384519D01*
X40476404Y-45351176D01*
X40486078Y-45343156D01*
X41645176Y-44670880D01*
X41667687Y-44661710D01*
X41716407Y-44629567D01*
X41731153Y-44621014D01*
X41750805Y-44606872D01*
X41805506Y-44570783D01*
X41817686Y-44558744D01*
X41831593Y-44548737D01*
X41876320Y-44500792D01*
X41922937Y-44454717D01*
X41932535Y-44440533D01*
X41944222Y-44428005D01*
X41978739Y-44372250D01*
X42015468Y-44317971D01*
X42016979Y-44314383D01*
X42032086Y-44365871D01*
X42287596Y-44486771D01*
X42561784Y-44555500D01*
X42844112Y-44569417D01*
X43123730Y-44527987D01*
X43389892Y-44432803D01*
X43515114Y-44365871D01*
X43586697Y-44121902D01*
X42773600Y-43308805D01*
X42759458Y-43322948D01*
X42579853Y-43143343D01*
X42593995Y-43129200D01*
X42953205Y-43129200D01*
X43766302Y-43942297D01*
X44010271Y-43870714D01*
X44131171Y-43615204D01*
X44199900Y-43341016D01*
X44209795Y-43140265D01*
X48323600Y-43140265D01*
X48323600Y-43422935D01*
X48378747Y-43700174D01*
X48486920Y-43961327D01*
X48643963Y-44196359D01*
X48843841Y-44396237D01*
X49078873Y-44553280D01*
X49340026Y-44661453D01*
X49617265Y-44716600D01*
X49899935Y-44716600D01*
X50177174Y-44661453D01*
X50438327Y-44553280D01*
X50673359Y-44396237D01*
X50816352Y-44253244D01*
X57801767Y-44253244D01*
X57824830Y-44376183D01*
X57871434Y-44492261D01*
X57939789Y-44597016D01*
X58027266Y-44686424D01*
X59941887Y-46292981D01*
X60045127Y-46363604D01*
X60160160Y-46412729D01*
X60282567Y-46438469D01*
X60407644Y-46439833D01*
X60530583Y-46416770D01*
X60646661Y-46370166D01*
X60751416Y-46301811D01*
X60840824Y-46214334D01*
X60974704Y-46054782D01*
X61238147Y-46275838D01*
X61231949Y-46306996D01*
X61231949Y-46678246D01*
X61304376Y-47042362D01*
X61446447Y-47385352D01*
X61652703Y-47694034D01*
X61915216Y-47956547D01*
X62223898Y-48162803D01*
X62566888Y-48304874D01*
X62931004Y-48377301D01*
X63302254Y-48377301D01*
X63666370Y-48304874D01*
X64009360Y-48162803D01*
X64318042Y-47956547D01*
X64580555Y-47694034D01*
X64786811Y-47385352D01*
X64928882Y-47042362D01*
X65001309Y-46678246D01*
X65001309Y-46306996D01*
X64928882Y-45942880D01*
X64786811Y-45599890D01*
X64580555Y-45291208D01*
X64318042Y-45028695D01*
X64009360Y-44822439D01*
X63666370Y-44680368D01*
X63302254Y-44607941D01*
X62931004Y-44607941D01*
X62575063Y-44678742D01*
X62313501Y-44459265D01*
X62442732Y-44305253D01*
X63790650Y-43793474D01*
X63920067Y-43819216D01*
X64163341Y-43819216D01*
X64401940Y-43771756D01*
X64626696Y-43678659D01*
X64828971Y-43543503D01*
X65000991Y-43371483D01*
X65136147Y-43169208D01*
X65229244Y-42944452D01*
X65276704Y-42705853D01*
X65276704Y-42462579D01*
X65229244Y-42223980D01*
X65136147Y-41999224D01*
X65077674Y-41911713D01*
X65132677Y-41893708D01*
X65241679Y-41832351D01*
X65336615Y-41750909D01*
X65413840Y-41652510D01*
X65470384Y-41540936D01*
X65504074Y-41420474D01*
X65555618Y-41110464D01*
X65426846Y-40926559D01*
X64492017Y-40761724D01*
X64488544Y-40781420D01*
X64238403Y-40737313D01*
X64241876Y-40717617D01*
X63307047Y-40552782D01*
X63123142Y-40681553D01*
X63065548Y-40990496D01*
X63056006Y-41115215D01*
X63070979Y-41239400D01*
X63109892Y-41358277D01*
X63171249Y-41467279D01*
X63252691Y-41562215D01*
X63296656Y-41596719D01*
X63254437Y-41624929D01*
X63082417Y-41796949D01*
X63048794Y-41847269D01*
X61305950Y-42508995D01*
X60454113Y-41794219D01*
X60350873Y-41723596D01*
X60235840Y-41674471D01*
X60113433Y-41648731D01*
X59988356Y-41647367D01*
X59865417Y-41670430D01*
X59749339Y-41717034D01*
X59644584Y-41785389D01*
X59555176Y-41872866D01*
X57948619Y-43787487D01*
X57877996Y-43890727D01*
X57828871Y-44005760D01*
X57803131Y-44128167D01*
X57801767Y-44253244D01*
X50816352Y-44253244D01*
X50873237Y-44196359D01*
X51030280Y-43961327D01*
X51138453Y-43700174D01*
X51193600Y-43422935D01*
X51193600Y-43140265D01*
X51138453Y-42863026D01*
X51030280Y-42601873D01*
X50873237Y-42366841D01*
X50673359Y-42166963D01*
X50438327Y-42009920D01*
X50177174Y-41901747D01*
X49899935Y-41846600D01*
X49617265Y-41846600D01*
X49340026Y-41901747D01*
X49078873Y-42009920D01*
X48843841Y-42166963D01*
X48643963Y-42366841D01*
X48486920Y-42601873D01*
X48378747Y-42863026D01*
X48323600Y-43140265D01*
X44209795Y-43140265D01*
X44213817Y-43058688D01*
X44172387Y-42779070D01*
X44077203Y-42512908D01*
X44010271Y-42387686D01*
X43766302Y-42316103D01*
X42953205Y-43129200D01*
X42593995Y-43129200D01*
X42579853Y-43115058D01*
X42759458Y-42935453D01*
X42773600Y-42949595D01*
X43586697Y-42136498D01*
X43515114Y-41892529D01*
X43259604Y-41771629D01*
X42985416Y-41702900D01*
X42703088Y-41688983D01*
X42423470Y-41730413D01*
X42157308Y-41825597D01*
X42032086Y-41892529D01*
X42014428Y-41952711D01*
X42050773Y-41165226D01*
X42715523Y-40168101D01*
X44651673Y-39618058D01*
X44728965Y-39596537D01*
X44767856Y-39576884D01*
X44808407Y-39560923D01*
X44841365Y-39539736D01*
X44876328Y-39522068D01*
X44910636Y-39495206D01*
X44947296Y-39471640D01*
X44975487Y-39444431D01*
X45006332Y-39420281D01*
X45034742Y-39387240D01*
X45066098Y-39356977D01*
X45088439Y-39324792D01*
X45113980Y-39295088D01*
X45135396Y-39257144D01*
X45160248Y-39221341D01*
X45165280Y-39209775D01*
X45562520Y-39209775D01*
X45562520Y-39581025D01*
X45634947Y-39945141D01*
X45777018Y-40288131D01*
X45983274Y-40596813D01*
X46245787Y-40859326D01*
X46554469Y-41065582D01*
X46897459Y-41207653D01*
X47261575Y-41280080D01*
X47632825Y-41280080D01*
X47996941Y-41207653D01*
X48339931Y-41065582D01*
X48466119Y-40981265D01*
X50482600Y-40981265D01*
X50482600Y-41263935D01*
X50537747Y-41541174D01*
X50645920Y-41802327D01*
X50802963Y-42037359D01*
X51002841Y-42237237D01*
X51237873Y-42394280D01*
X51499026Y-42502453D01*
X51776265Y-42557600D01*
X52058935Y-42557600D01*
X52336174Y-42502453D01*
X52597327Y-42394280D01*
X52832359Y-42237237D01*
X52954294Y-42115302D01*
X56104503Y-42115302D01*
X56176086Y-42359271D01*
X56431596Y-42480171D01*
X56705784Y-42548900D01*
X56988112Y-42562817D01*
X57267730Y-42521387D01*
X57533892Y-42426203D01*
X57659114Y-42359271D01*
X57730697Y-42115302D01*
X56917600Y-41302205D01*
X56104503Y-42115302D01*
X52954294Y-42115302D01*
X53032237Y-42037359D01*
X53189280Y-41802327D01*
X53297453Y-41541174D01*
X53352600Y-41263935D01*
X53352600Y-41193112D01*
X55477383Y-41193112D01*
X55518813Y-41472730D01*
X55613997Y-41738892D01*
X55680929Y-41864114D01*
X55924898Y-41935697D01*
X56737995Y-41122600D01*
X57097205Y-41122600D01*
X57910302Y-41935697D01*
X58154271Y-41864114D01*
X58275171Y-41608604D01*
X58343900Y-41334416D01*
X58357817Y-41052088D01*
X58316387Y-40772470D01*
X58223090Y-40511583D01*
X64536124Y-40511583D01*
X65470953Y-40676418D01*
X65654858Y-40547647D01*
X65712452Y-40238704D01*
X65721994Y-40113985D01*
X65707021Y-39989800D01*
X65668108Y-39870923D01*
X65606751Y-39761921D01*
X65525309Y-39666985D01*
X65426910Y-39589760D01*
X65315336Y-39533216D01*
X65194874Y-39499526D01*
X64884864Y-39447982D01*
X64700959Y-39576754D01*
X64536124Y-40511583D01*
X58223090Y-40511583D01*
X58221203Y-40506308D01*
X58154271Y-40381086D01*
X57910302Y-40309503D01*
X57097205Y-41122600D01*
X56737995Y-41122600D01*
X55924898Y-40309503D01*
X55680929Y-40381086D01*
X55560029Y-40636596D01*
X55491300Y-40910784D01*
X55477383Y-41193112D01*
X53352600Y-41193112D01*
X53352600Y-40981265D01*
X53297453Y-40704026D01*
X53189280Y-40442873D01*
X53032237Y-40207841D01*
X52954294Y-40129898D01*
X56104503Y-40129898D01*
X56917600Y-40942995D01*
X57730697Y-40129898D01*
X57705971Y-40045624D01*
X58851611Y-40045624D01*
X59018537Y-40236198D01*
X59158407Y-40243839D01*
X59438516Y-40217867D01*
X59708175Y-40137746D01*
X59744234Y-40118736D01*
X63222382Y-40118736D01*
X63351154Y-40302641D01*
X64285983Y-40467476D01*
X64450818Y-39532647D01*
X64322047Y-39348742D01*
X64013104Y-39291148D01*
X63888385Y-39281606D01*
X63764200Y-39296579D01*
X63645323Y-39335492D01*
X63536321Y-39396849D01*
X63441385Y-39478291D01*
X63364160Y-39576690D01*
X63307616Y-39688264D01*
X63273926Y-39808726D01*
X63222382Y-40118736D01*
X59744234Y-40118736D01*
X59957023Y-40006557D01*
X60175494Y-39829342D01*
X60355195Y-39612909D01*
X60317166Y-39362778D01*
X59242511Y-38971636D01*
X58851611Y-40045624D01*
X57705971Y-40045624D01*
X57659114Y-39885929D01*
X57403604Y-39765029D01*
X57129416Y-39696300D01*
X56847088Y-39682383D01*
X56567470Y-39723813D01*
X56301308Y-39818997D01*
X56176086Y-39885929D01*
X56104503Y-40129898D01*
X52954294Y-40129898D01*
X52832359Y-40007963D01*
X52597327Y-39850920D01*
X52336174Y-39742747D01*
X52058935Y-39687600D01*
X51776265Y-39687600D01*
X51499026Y-39742747D01*
X51237873Y-39850920D01*
X51002841Y-40007963D01*
X50802963Y-40207841D01*
X50645920Y-40442873D01*
X50537747Y-40704026D01*
X50482600Y-40981265D01*
X48466119Y-40981265D01*
X48648613Y-40859326D01*
X48911126Y-40596813D01*
X49117382Y-40288131D01*
X49259453Y-39945141D01*
X49331880Y-39581025D01*
X49331880Y-39209775D01*
X49259453Y-38845659D01*
X49117382Y-38502669D01*
X48911126Y-38193987D01*
X48648613Y-37931474D01*
X48339931Y-37725218D01*
X47996941Y-37583147D01*
X47632825Y-37510720D01*
X47261575Y-37510720D01*
X46897459Y-37583147D01*
X46554469Y-37725218D01*
X46245787Y-37931474D01*
X45983274Y-38193987D01*
X45777018Y-38502669D01*
X45634947Y-38845659D01*
X45562520Y-39209775D01*
X45165280Y-39209775D01*
X45192300Y-39147680D01*
X46039353Y-37228575D01*
X51760120Y-37228575D01*
X51760120Y-37599825D01*
X51832547Y-37963941D01*
X51974618Y-38306931D01*
X52180874Y-38615613D01*
X52443387Y-38878126D01*
X52752069Y-39084382D01*
X53095059Y-39226453D01*
X53459175Y-39298880D01*
X53830425Y-39298880D01*
X54194541Y-39226453D01*
X54537531Y-39084382D01*
X54750480Y-38942093D01*
X57737800Y-38942093D01*
X57791247Y-39218279D01*
X57897549Y-39478732D01*
X58052619Y-39713442D01*
X58250500Y-39913388D01*
X58362558Y-39997442D01*
X58612930Y-39958751D01*
X59003829Y-38884762D01*
X58586740Y-38732954D01*
X59329385Y-38732954D01*
X60404040Y-39124096D01*
X60593952Y-38956929D01*
X60595414Y-38675623D01*
X60541967Y-38399437D01*
X60484029Y-38257480D01*
X62323448Y-38257480D01*
X62335708Y-38381962D01*
X62372018Y-38501660D01*
X62430983Y-38611974D01*
X62510335Y-38708665D01*
X62607026Y-38788017D01*
X62717340Y-38846982D01*
X62837038Y-38883292D01*
X62961520Y-38895552D01*
X63925450Y-38892480D01*
X64084200Y-38733730D01*
X64084200Y-37134800D01*
X64338200Y-37134800D01*
X64338200Y-38733730D01*
X64496950Y-38892480D01*
X65460880Y-38895552D01*
X65585362Y-38883292D01*
X65705060Y-38846982D01*
X65815374Y-38788017D01*
X65912065Y-38708665D01*
X65991417Y-38611974D01*
X66050382Y-38501660D01*
X66086692Y-38381962D01*
X66092678Y-38321177D01*
X66887429Y-38321177D01*
X67013304Y-38611115D01*
X67345462Y-38776939D01*
X67703587Y-38874775D01*
X68073919Y-38900865D01*
X68442225Y-38854205D01*
X68794351Y-38736589D01*
X69029096Y-38611115D01*
X69154971Y-38321177D01*
X68021200Y-37187405D01*
X66887429Y-38321177D01*
X66092678Y-38321177D01*
X66098952Y-38257480D01*
X66095880Y-37293550D01*
X65937130Y-37134800D01*
X64338200Y-37134800D01*
X64084200Y-37134800D01*
X62485270Y-37134800D01*
X62326520Y-37293550D01*
X62323448Y-38257480D01*
X60484029Y-38257480D01*
X60435665Y-38138984D01*
X60280595Y-37904274D01*
X60082714Y-37704328D01*
X59970656Y-37620274D01*
X59720284Y-37658965D01*
X59329385Y-38732954D01*
X58586740Y-38732954D01*
X57929174Y-38493620D01*
X57739262Y-38660787D01*
X57737800Y-38942093D01*
X54750480Y-38942093D01*
X54846213Y-38878126D01*
X55108726Y-38615613D01*
X55314982Y-38306931D01*
X55440125Y-38004807D01*
X57978019Y-38004807D01*
X58016048Y-38254938D01*
X59090703Y-38646080D01*
X59481603Y-37572092D01*
X59314677Y-37381518D01*
X59174807Y-37373877D01*
X58894698Y-37399849D01*
X58625039Y-37479970D01*
X58376191Y-37611159D01*
X58157720Y-37788374D01*
X57978019Y-38004807D01*
X55440125Y-38004807D01*
X55457053Y-37963941D01*
X55529480Y-37599825D01*
X55529480Y-37228575D01*
X55496052Y-37060519D01*
X66128135Y-37060519D01*
X66174795Y-37428825D01*
X66292411Y-37780951D01*
X66417885Y-38015696D01*
X66707823Y-38141571D01*
X67841595Y-37007800D01*
X66707823Y-35874029D01*
X66417885Y-35999904D01*
X66252061Y-36332062D01*
X66154225Y-36690187D01*
X66128135Y-37060519D01*
X55496052Y-37060519D01*
X55457053Y-36864459D01*
X55314982Y-36521469D01*
X55108726Y-36212787D01*
X54846213Y-35950274D01*
X54558637Y-35758120D01*
X62323448Y-35758120D01*
X62326520Y-36722050D01*
X62485270Y-36880800D01*
X64084200Y-36880800D01*
X64084200Y-35281870D01*
X64338200Y-35281870D01*
X64338200Y-36880800D01*
X65937130Y-36880800D01*
X66095880Y-36722050D01*
X66098952Y-35758120D01*
X66092679Y-35694423D01*
X66887429Y-35694423D01*
X68021200Y-36828195D01*
X69154971Y-35694423D01*
X69029096Y-35404485D01*
X68696938Y-35238661D01*
X68338813Y-35140825D01*
X67968481Y-35114735D01*
X67600175Y-35161395D01*
X67248049Y-35279011D01*
X67013304Y-35404485D01*
X66887429Y-35694423D01*
X66092679Y-35694423D01*
X66086692Y-35633638D01*
X66050382Y-35513940D01*
X65991417Y-35403626D01*
X65912065Y-35306935D01*
X65815374Y-35227583D01*
X65705060Y-35168618D01*
X65585362Y-35132308D01*
X65460880Y-35120048D01*
X64496950Y-35123120D01*
X64338200Y-35281870D01*
X64084200Y-35281870D01*
X63925450Y-35123120D01*
X62961520Y-35120048D01*
X62837038Y-35132308D01*
X62717340Y-35168618D01*
X62607026Y-35227583D01*
X62510335Y-35306935D01*
X62430983Y-35403626D01*
X62372018Y-35513940D01*
X62335708Y-35633638D01*
X62323448Y-35758120D01*
X54558637Y-35758120D01*
X54537531Y-35744018D01*
X54194541Y-35601947D01*
X53830425Y-35529520D01*
X53459175Y-35529520D01*
X53095059Y-35601947D01*
X52752069Y-35744018D01*
X52443387Y-35950274D01*
X52180874Y-36212787D01*
X51974618Y-36521469D01*
X51832547Y-36864459D01*
X51760120Y-37228575D01*
X46039353Y-37228575D01*
X46346655Y-36532344D01*
X46468774Y-36508053D01*
X46729927Y-36399880D01*
X46964959Y-36242837D01*
X47164837Y-36042959D01*
X47321880Y-35807927D01*
X47430053Y-35546774D01*
X47485200Y-35269535D01*
X47485200Y-34986865D01*
X47430053Y-34709626D01*
X47321880Y-34448473D01*
X47164837Y-34213441D01*
X46964959Y-34013563D01*
X46729927Y-33856520D01*
X46605549Y-33805001D01*
X52112492Y-33805001D01*
X52140199Y-34086310D01*
X52222253Y-34356809D01*
X52355503Y-34606102D01*
X52534827Y-34824609D01*
X52753334Y-35003933D01*
X53002627Y-35137183D01*
X53273126Y-35219237D01*
X53483943Y-35240001D01*
X53624927Y-35240001D01*
X53835744Y-35219237D01*
X54106243Y-35137183D01*
X54355536Y-35003933D01*
X54574043Y-34824609D01*
X54753367Y-34606102D01*
X54886617Y-34356809D01*
X54938128Y-34186997D01*
X54971818Y-34268331D01*
X55178074Y-34577013D01*
X55440587Y-34839526D01*
X55749269Y-35045782D01*
X56092259Y-35187853D01*
X56456375Y-35260280D01*
X56827625Y-35260280D01*
X57191741Y-35187853D01*
X57534731Y-35045782D01*
X57843413Y-34839526D01*
X58105926Y-34577013D01*
X58243470Y-34371164D01*
X65420641Y-34371164D01*
X65467948Y-34594748D01*
X65689316Y-34695637D01*
X65926113Y-34751400D01*
X66169238Y-34759895D01*
X66409349Y-34720795D01*
X66637218Y-34635602D01*
X66713652Y-34594748D01*
X66760959Y-34371164D01*
X66090800Y-33701005D01*
X65420641Y-34371164D01*
X58243470Y-34371164D01*
X58312182Y-34268331D01*
X58454253Y-33925341D01*
X58526680Y-33561225D01*
X58526680Y-33189975D01*
X58454253Y-32825859D01*
X58312182Y-32482869D01*
X58105926Y-32174187D01*
X57843413Y-31911674D01*
X57534731Y-31705418D01*
X57191741Y-31563347D01*
X56908792Y-31507065D01*
X60337800Y-31507065D01*
X60337800Y-31789735D01*
X60392947Y-32066974D01*
X60501120Y-32328127D01*
X60658163Y-32563159D01*
X60858041Y-32763037D01*
X61093073Y-32920080D01*
X61354226Y-33028253D01*
X61631465Y-33083400D01*
X61914135Y-33083400D01*
X62191374Y-33028253D01*
X62452527Y-32920080D01*
X62687559Y-32763037D01*
X62887437Y-32563159D01*
X63044480Y-32328127D01*
X63152653Y-32066974D01*
X63207800Y-31789735D01*
X63207800Y-31507065D01*
X63152653Y-31229826D01*
X63044480Y-30968673D01*
X62887437Y-30733641D01*
X62687559Y-30533763D01*
X62452527Y-30376720D01*
X62191374Y-30268547D01*
X61914135Y-30213400D01*
X61631465Y-30213400D01*
X61354226Y-30268547D01*
X61093073Y-30376720D01*
X60858041Y-30533763D01*
X60658163Y-30733641D01*
X60501120Y-30968673D01*
X60392947Y-31229826D01*
X60337800Y-31507065D01*
X56908792Y-31507065D01*
X56827625Y-31490920D01*
X56456375Y-31490920D01*
X56092259Y-31563347D01*
X55749269Y-31705418D01*
X55440587Y-31911674D01*
X55178074Y-32174187D01*
X54971818Y-32482869D01*
X54829747Y-32825859D01*
X54783222Y-33059755D01*
X54753367Y-33003900D01*
X54574043Y-32785393D01*
X54355536Y-32606069D01*
X54106243Y-32472819D01*
X53835744Y-32390765D01*
X53624927Y-32370001D01*
X53483943Y-32370001D01*
X53273126Y-32390765D01*
X53002627Y-32472819D01*
X52753334Y-32606069D01*
X52534827Y-32785393D01*
X52355503Y-33003900D01*
X52222253Y-33253193D01*
X52140199Y-33523692D01*
X52112492Y-33805001D01*
X46605549Y-33805001D01*
X46468774Y-33748347D01*
X46191535Y-33693200D01*
X45908865Y-33693200D01*
X45631626Y-33748347D01*
X45370473Y-33856520D01*
X45135441Y-34013563D01*
X44935563Y-34213441D01*
X44778520Y-34448473D01*
X44670347Y-34709626D01*
X44615200Y-34986865D01*
X44615200Y-35269535D01*
X44670347Y-35546774D01*
X44778520Y-35807927D01*
X44811910Y-35857898D01*
X43816771Y-38112510D01*
X42032112Y-38619516D01*
X42024220Y-38620302D01*
X41952813Y-38642044D01*
X41920737Y-38651157D01*
X41913395Y-38654047D01*
X41866269Y-38668396D01*
X41836751Y-38684214D01*
X41805593Y-38696477D01*
X41764161Y-38723111D01*
X41720735Y-38746381D01*
X41694867Y-38767656D01*
X41666704Y-38785760D01*
X41631265Y-38819964D01*
X41593213Y-38851260D01*
X41571991Y-38877174D01*
X41547902Y-38900424D01*
X41519821Y-38940879D01*
X41514812Y-38946995D01*
X41496288Y-38974782D01*
X41453752Y-39036060D01*
X41450588Y-39043331D01*
X40933063Y-39819619D01*
X40848332Y-39661099D01*
X40669008Y-39442592D01*
X40450501Y-39263268D01*
X40317542Y-39192200D01*
X40450501Y-39121132D01*
X40669008Y-38941808D01*
X40848332Y-38723301D01*
X40981582Y-38474008D01*
X41063636Y-38203509D01*
X41091343Y-37922200D01*
X41063636Y-37640891D01*
X40981582Y-37370392D01*
X40848332Y-37121099D01*
X40669008Y-36902592D01*
X40450501Y-36723268D01*
X40317542Y-36652200D01*
X40450501Y-36581132D01*
X40669008Y-36401808D01*
X40848332Y-36183301D01*
X40981582Y-35934008D01*
X41063636Y-35663509D01*
X41078834Y-35509200D01*
X41331657Y-35509200D01*
X41359364Y-35790509D01*
X41441418Y-36061008D01*
X41574668Y-36310301D01*
X41753992Y-36528808D01*
X41972499Y-36708132D01*
X42221792Y-36841382D01*
X42492291Y-36923436D01*
X42703108Y-36944200D01*
X42844092Y-36944200D01*
X43054909Y-36923436D01*
X43325408Y-36841382D01*
X43574701Y-36708132D01*
X43793208Y-36528808D01*
X43972532Y-36310301D01*
X44105782Y-36061008D01*
X44187836Y-35790509D01*
X44215543Y-35509200D01*
X44187836Y-35227891D01*
X44105782Y-34957392D01*
X43972532Y-34708099D01*
X43793208Y-34489592D01*
X43574701Y-34310268D01*
X43526198Y-34284343D01*
X43631127Y-34240880D01*
X43866159Y-34083837D01*
X44066037Y-33883959D01*
X44223080Y-33648927D01*
X44331253Y-33387774D01*
X44386400Y-33110535D01*
X44386400Y-32827865D01*
X44331253Y-32550626D01*
X44223080Y-32289473D01*
X44066037Y-32054441D01*
X43866159Y-31854563D01*
X43631127Y-31697520D01*
X43369974Y-31589347D01*
X43092735Y-31534200D01*
X42810065Y-31534200D01*
X42532826Y-31589347D01*
X42271673Y-31697520D01*
X42036641Y-31854563D01*
X41836763Y-32054441D01*
X41679720Y-32289473D01*
X41571547Y-32550626D01*
X41516400Y-32827865D01*
X41516400Y-33110535D01*
X41571547Y-33387774D01*
X41679720Y-33648927D01*
X41836763Y-33883959D01*
X42036641Y-34083837D01*
X42196405Y-34190588D01*
X41972499Y-34310268D01*
X41753992Y-34489592D01*
X41574668Y-34708099D01*
X41441418Y-34957392D01*
X41359364Y-35227891D01*
X41331657Y-35509200D01*
X41078834Y-35509200D01*
X41091343Y-35382200D01*
X41063636Y-35100891D01*
X40981582Y-34830392D01*
X40848332Y-34581099D01*
X40669008Y-34362592D01*
X40450501Y-34183268D01*
X40317542Y-34112200D01*
X40450501Y-34041132D01*
X40669008Y-33861808D01*
X40848332Y-33643301D01*
X40981582Y-33394008D01*
X41063636Y-33123509D01*
X41091343Y-32842200D01*
X41063636Y-32560891D01*
X40981582Y-32290392D01*
X40848332Y-32041099D01*
X40669008Y-31822592D01*
X40450501Y-31643268D01*
X40317542Y-31572200D01*
X40450501Y-31501132D01*
X40669008Y-31321808D01*
X40756631Y-31215039D01*
X45514627Y-31215039D01*
X45546195Y-31535555D01*
X45639686Y-31843754D01*
X45791507Y-32127791D01*
X45995824Y-32376753D01*
X46244786Y-32581070D01*
X46528823Y-32732891D01*
X46837022Y-32826382D01*
X47077216Y-32850039D01*
X47237860Y-32850039D01*
X47478054Y-32826382D01*
X47786253Y-32732891D01*
X48070290Y-32581070D01*
X48319252Y-32376753D01*
X48523569Y-32127791D01*
X48675390Y-31843754D01*
X48768881Y-31535555D01*
X48800449Y-31215039D01*
X48768881Y-30894523D01*
X48675390Y-30586324D01*
X48523569Y-30302287D01*
X48319252Y-30053325D01*
X48070290Y-29849008D01*
X47953112Y-29786375D01*
X49372520Y-29786375D01*
X49372520Y-30157625D01*
X49444947Y-30521741D01*
X49587018Y-30864731D01*
X49793274Y-31173413D01*
X50055787Y-31435926D01*
X50364469Y-31642182D01*
X50707459Y-31784253D01*
X51071575Y-31856680D01*
X51442825Y-31856680D01*
X51806941Y-31784253D01*
X52149931Y-31642182D01*
X52458613Y-31435926D01*
X52721126Y-31173413D01*
X52927382Y-30864731D01*
X53069453Y-30521741D01*
X53141880Y-30157625D01*
X53141880Y-29786375D01*
X53093126Y-29541269D01*
X54775324Y-29541269D01*
X54798387Y-29664208D01*
X54844991Y-29780286D01*
X54913346Y-29885041D01*
X55000823Y-29974449D01*
X56532912Y-31260024D01*
X56636152Y-31330647D01*
X56751185Y-31379772D01*
X56873592Y-31405512D01*
X56998669Y-31406876D01*
X57121608Y-31383813D01*
X57237686Y-31337209D01*
X57342441Y-31268854D01*
X57431849Y-31181377D01*
X58717424Y-29649288D01*
X58788047Y-29546048D01*
X58837172Y-29431015D01*
X58862912Y-29308608D01*
X58864276Y-29183531D01*
X58841213Y-29060592D01*
X58794609Y-28944514D01*
X58726254Y-28839759D01*
X58638777Y-28750351D01*
X57106688Y-27464776D01*
X57003448Y-27394153D01*
X56888415Y-27345028D01*
X56766008Y-27319288D01*
X56640931Y-27317924D01*
X56517992Y-27340987D01*
X56401914Y-27387591D01*
X56297159Y-27455946D01*
X56207751Y-27543423D01*
X54922176Y-29075512D01*
X54851553Y-29178752D01*
X54802428Y-29293785D01*
X54776688Y-29416192D01*
X54775324Y-29541269D01*
X53093126Y-29541269D01*
X53069453Y-29422259D01*
X52927382Y-29079269D01*
X52721126Y-28770587D01*
X52458613Y-28508074D01*
X52149931Y-28301818D01*
X51806941Y-28159747D01*
X51442825Y-28087320D01*
X51071575Y-28087320D01*
X50707459Y-28159747D01*
X50364469Y-28301818D01*
X50055787Y-28508074D01*
X49793274Y-28770587D01*
X49587018Y-29079269D01*
X49444947Y-29422259D01*
X49372520Y-29786375D01*
X47953112Y-29786375D01*
X47786253Y-29697187D01*
X47478054Y-29603696D01*
X47237860Y-29580039D01*
X47077216Y-29580039D01*
X46837022Y-29603696D01*
X46528823Y-29697187D01*
X46244786Y-29849008D01*
X45995824Y-30053325D01*
X45791507Y-30302287D01*
X45639686Y-30586324D01*
X45546195Y-30894523D01*
X45514627Y-31215039D01*
X40756631Y-31215039D01*
X40848332Y-31103301D01*
X40981582Y-30854008D01*
X41063636Y-30583509D01*
X41067160Y-30547728D01*
X42268969Y-29966635D01*
X42287642Y-29960851D01*
X42343115Y-29930784D01*
X42362735Y-29921297D01*
X42379348Y-29911144D01*
X42432801Y-29882172D01*
X42449638Y-29868190D01*
X42468321Y-29856772D01*
X42513040Y-29815536D01*
X42559822Y-29776685D01*
X42573609Y-29759684D01*
X42589703Y-29744844D01*
X42625514Y-29695682D01*
X42663822Y-29648445D01*
X42674028Y-29629080D01*
X42686917Y-29611386D01*
X42712448Y-29556185D01*
X42721517Y-29538977D01*
X42729731Y-29518816D01*
X42756227Y-29461527D01*
X42760816Y-29442516D01*
X43272783Y-28185870D01*
X43283649Y-28167432D01*
X43303862Y-28109586D01*
X43311384Y-28091123D01*
X43317448Y-28070705D01*
X43338114Y-28011563D01*
X43340907Y-27991720D01*
X43346614Y-27972503D01*
X43352393Y-27910106D01*
X43355359Y-27889029D01*
X43356189Y-27869119D01*
X43361840Y-27808096D01*
X43359618Y-27786809D01*
X43389614Y-27066904D01*
X46975822Y-27066904D01*
X46993501Y-27190732D01*
X47034997Y-27308733D01*
X47098717Y-27416370D01*
X47182212Y-27509508D01*
X47282272Y-27584567D01*
X47395053Y-27638663D01*
X49274438Y-28322704D01*
X49395606Y-28353759D01*
X49520504Y-28360578D01*
X49644332Y-28342899D01*
X49762333Y-28301403D01*
X49869970Y-28237683D01*
X49963108Y-28154188D01*
X50038167Y-28054128D01*
X50092263Y-27941347D01*
X50763537Y-26097039D01*
X51285383Y-26097039D01*
X51316951Y-26417555D01*
X51410442Y-26725754D01*
X51562263Y-27009791D01*
X51766580Y-27258753D01*
X52015542Y-27463070D01*
X52299579Y-27614891D01*
X52607778Y-27708382D01*
X52847972Y-27732039D01*
X53008616Y-27732039D01*
X53248810Y-27708382D01*
X53557009Y-27614891D01*
X53841046Y-27463070D01*
X54090008Y-27258753D01*
X54294325Y-27009791D01*
X54446146Y-26725754D01*
X54539637Y-26417555D01*
X54571205Y-26097039D01*
X54539637Y-25776523D01*
X54446146Y-25468324D01*
X54294325Y-25184287D01*
X54090008Y-24935325D01*
X53841046Y-24731008D01*
X53557009Y-24579187D01*
X53248810Y-24485696D01*
X53008616Y-24462039D01*
X52847972Y-24462039D01*
X52607778Y-24485696D01*
X52299579Y-24579187D01*
X52015542Y-24731008D01*
X51766580Y-24935325D01*
X51562263Y-25184287D01*
X51410442Y-25468324D01*
X51316951Y-25776523D01*
X51285383Y-26097039D01*
X50763537Y-26097039D01*
X50776304Y-26061962D01*
X50807359Y-25940794D01*
X50814178Y-25815896D01*
X50796499Y-25692068D01*
X50755003Y-25574067D01*
X50691283Y-25466430D01*
X50607788Y-25373292D01*
X50507728Y-25298233D01*
X50394947Y-25244137D01*
X48515562Y-24560096D01*
X48394394Y-24529041D01*
X48269496Y-24522222D01*
X48145668Y-24539901D01*
X48027667Y-24581397D01*
X47920030Y-24645117D01*
X47826892Y-24728612D01*
X47751833Y-24828672D01*
X47697737Y-24941453D01*
X47013696Y-26820838D01*
X46982641Y-26942006D01*
X46975822Y-27066904D01*
X43389614Y-27066904D01*
X43407480Y-26638124D01*
X43409217Y-26611143D01*
X43473498Y-26663897D01*
X43722791Y-26797147D01*
X43993290Y-26879201D01*
X44204107Y-26899965D01*
X44345091Y-26899965D01*
X44555908Y-26879201D01*
X44826407Y-26797147D01*
X45075700Y-26663897D01*
X45294207Y-26484573D01*
X45473531Y-26266066D01*
X45606781Y-26016773D01*
X45688835Y-25746274D01*
X45716542Y-25464965D01*
X45688835Y-25183656D01*
X45606781Y-24913157D01*
X45473531Y-24663864D01*
X45294207Y-24445357D01*
X45075700Y-24266033D01*
X44826407Y-24132783D01*
X44555908Y-24050729D01*
X44345091Y-24029965D01*
X44204107Y-24029965D01*
X43993290Y-24050729D01*
X43722791Y-24132783D01*
X43473498Y-24266033D01*
X43455764Y-24280587D01*
X43464756Y-24201453D01*
X43697604Y-23681426D01*
X43827174Y-23655653D01*
X43963948Y-23598999D01*
X49470892Y-23598999D01*
X49498599Y-23880308D01*
X49580653Y-24150807D01*
X49713903Y-24400100D01*
X49893227Y-24618607D01*
X50111734Y-24797931D01*
X50361027Y-24931181D01*
X50631526Y-25013235D01*
X50842343Y-25033999D01*
X50983327Y-25033999D01*
X51194144Y-25013235D01*
X51464643Y-24931181D01*
X51713936Y-24797931D01*
X51932443Y-24618607D01*
X52111767Y-24400100D01*
X52245017Y-24150807D01*
X52327071Y-23880308D01*
X52354778Y-23598999D01*
X52327071Y-23317690D01*
X52245017Y-23047191D01*
X52111767Y-22797898D01*
X51932443Y-22579391D01*
X51713936Y-22400067D01*
X51464643Y-22266817D01*
X51194144Y-22184763D01*
X50983327Y-22163999D01*
X50842343Y-22163999D01*
X50631526Y-22184763D01*
X50361027Y-22266817D01*
X50111734Y-22400067D01*
X49893227Y-22579391D01*
X49713903Y-22797898D01*
X49580653Y-23047191D01*
X49498599Y-23317690D01*
X49470892Y-23598999D01*
X43963948Y-23598999D01*
X44088327Y-23547480D01*
X44323359Y-23390437D01*
X44523237Y-23190559D01*
X44680280Y-22955527D01*
X44788453Y-22694374D01*
X44843600Y-22417135D01*
X44843600Y-22134465D01*
X44788453Y-21857226D01*
X44680280Y-21596073D01*
X44523237Y-21361041D01*
X44323359Y-21161163D01*
X44088327Y-21004120D01*
X43827174Y-20895947D01*
X43549935Y-20840800D01*
X43267265Y-20840800D01*
X42990026Y-20895947D01*
X42728873Y-21004120D01*
X42493841Y-21161163D01*
X42293963Y-21361041D01*
X42136920Y-21596073D01*
X42028747Y-21857226D01*
X41973600Y-22134465D01*
X41973600Y-22417135D01*
X42028747Y-22694374D01*
X42136920Y-22955527D01*
X42166221Y-22999379D01*
X41913024Y-23564852D01*
X41909827Y-23569485D01*
X41900916Y-23590120D01*
X41783359Y-23472563D01*
X41548327Y-23315520D01*
X41413929Y-23259851D01*
X41049964Y-22449737D01*
X41048257Y-22444817D01*
X41028981Y-22403033D01*
X41010169Y-22361160D01*
X41007586Y-22356653D01*
X40587264Y-21445509D01*
X40590875Y-21427357D01*
X40641495Y-21447680D01*
X40764434Y-21470743D01*
X40889511Y-21469379D01*
X41011918Y-21443639D01*
X41126952Y-21394514D01*
X41230191Y-21323890D01*
X42149444Y-20552545D01*
X42236921Y-20463138D01*
X42305276Y-20358383D01*
X42351880Y-20242305D01*
X42374943Y-20119366D01*
X42373579Y-19994289D01*
X42347839Y-19871882D01*
X42298714Y-19756848D01*
X42228090Y-19653609D01*
X42141299Y-19550175D01*
X47061120Y-19550175D01*
X47061120Y-19921425D01*
X47133547Y-20285541D01*
X47275618Y-20628531D01*
X47481874Y-20937213D01*
X47744387Y-21199726D01*
X48053069Y-21405982D01*
X48396059Y-21548053D01*
X48760175Y-21620480D01*
X49131425Y-21620480D01*
X49495541Y-21548053D01*
X49838531Y-21405982D01*
X50147213Y-21199726D01*
X50409726Y-20937213D01*
X50615982Y-20628531D01*
X50758053Y-20285541D01*
X50830480Y-19921425D01*
X50830480Y-19550175D01*
X50758053Y-19186059D01*
X50615982Y-18843069D01*
X50409726Y-18534387D01*
X50147213Y-18271874D01*
X49838531Y-18065618D01*
X49495541Y-17923547D01*
X49131425Y-17851120D01*
X48760175Y-17851120D01*
X48396059Y-17923547D01*
X48053069Y-18065618D01*
X47744387Y-18271874D01*
X47481874Y-18534387D01*
X47275618Y-18843069D01*
X47133547Y-19186059D01*
X47061120Y-19550175D01*
X42141299Y-19550175D01*
X41456745Y-18734356D01*
X41367338Y-18646879D01*
X41262583Y-18578524D01*
X41146505Y-18531920D01*
X41023566Y-18508857D01*
X40898489Y-18510221D01*
X40776082Y-18535961D01*
X40661048Y-18585086D01*
X40557809Y-18655710D01*
X39638556Y-19427055D01*
X39551079Y-19516462D01*
X39482724Y-19621217D01*
X39436120Y-19737295D01*
X39413057Y-19860234D01*
X39414421Y-19985311D01*
X39426000Y-20040375D01*
X39240274Y-20040375D01*
X39001675Y-20087835D01*
X38776919Y-20180932D01*
X38574644Y-20316088D01*
X38402624Y-20488108D01*
X38267468Y-20690383D01*
X38174371Y-20915139D01*
X38126911Y-21153738D01*
X38126911Y-21397012D01*
X38174371Y-21635611D01*
X38267468Y-21860367D01*
X38402624Y-22062642D01*
X38574644Y-22234662D01*
X38694526Y-22314764D01*
X39133384Y-23266092D01*
X39456007Y-23984188D01*
X38238475Y-24417088D01*
X38146283Y-24448864D01*
X38097504Y-24477331D01*
X38046417Y-24501369D01*
X38009140Y-24528900D01*
X37969109Y-24552262D01*
X37926831Y-24589690D01*
X37881405Y-24623239D01*
X37850210Y-24657519D01*
X37815512Y-24688237D01*
X37781343Y-24733199D01*
X37743340Y-24774962D01*
X37693122Y-24858367D01*
X37424799Y-25294392D01*
X35652429Y-22192744D01*
X36682185Y-17867768D01*
X41789599Y-16535400D01*
X46583159Y-16535400D01*
X51157536Y-17907714D01*
X52974287Y-20632841D01*
X52994565Y-20664980D01*
X53002599Y-20675309D01*
X53009876Y-20686225D01*
X53034012Y-20715698D01*
X56561009Y-25250411D01*
X56599356Y-25307013D01*
X56660254Y-25367137D01*
X56719199Y-25429252D01*
X56733167Y-25439124D01*
X56745334Y-25451136D01*
X56816791Y-25498224D01*
X56886722Y-25547646D01*
X56949208Y-25575466D01*
X62272648Y-28377277D01*
X62272648Y-29443680D01*
X62284908Y-29568162D01*
X62321218Y-29687860D01*
X62380183Y-29798174D01*
X62459535Y-29894865D01*
X62556226Y-29974217D01*
X62666540Y-30033182D01*
X62786238Y-30069492D01*
X62910720Y-30081752D01*
X64051618Y-30081752D01*
X64852728Y-31462614D01*
X64852728Y-32121400D01*
X64864988Y-32245882D01*
X64901298Y-32365580D01*
X64960263Y-32475894D01*
X65039615Y-32572585D01*
X65136306Y-32651937D01*
X65181806Y-32676258D01*
X65123928Y-32734136D01*
X65241034Y-32851242D01*
X65017452Y-32898548D01*
X64916563Y-33119916D01*
X64860800Y-33356713D01*
X64852305Y-33599838D01*
X64891405Y-33839949D01*
X64976598Y-34067818D01*
X65017452Y-34144252D01*
X65241036Y-34191559D01*
X65911195Y-33521400D01*
X65897053Y-33507258D01*
X66076658Y-33327653D01*
X66090800Y-33341795D01*
X66104943Y-33327653D01*
X66284548Y-33507258D01*
X66270405Y-33521400D01*
X66940564Y-34191559D01*
X67164148Y-34144252D01*
X67265037Y-33922884D01*
X67320800Y-33686087D01*
X67329295Y-33442962D01*
X67290195Y-33202851D01*
X67205002Y-32974982D01*
X67164148Y-32898548D01*
X66940566Y-32851242D01*
X67057672Y-32734136D01*
X66999794Y-32676258D01*
X67045294Y-32651937D01*
X67141985Y-32572585D01*
X67221337Y-32475894D01*
X67280302Y-32365580D01*
X67316612Y-32245882D01*
X67328872Y-32121400D01*
X67328872Y-31447039D01*
X68101838Y-30078680D01*
X68156025Y-30078680D01*
X68520141Y-30006253D01*
X68863131Y-29864182D01*
X69171813Y-29657926D01*
X69434326Y-29395413D01*
X69640582Y-29086731D01*
X69698001Y-28948110D01*
X69698000Y-36137385D01*
X69624515Y-35999904D01*
X69334577Y-35874029D01*
X68200805Y-37007800D01*
X69334577Y-38141571D01*
X69624515Y-38015696D01*
X69698000Y-37868499D01*
X69698000Y-58268000D01*
X12852000Y-58268000D01*
X12852000Y-52932738D01*
X13645000Y-52932738D01*
X13645000Y-53747262D01*
X13803906Y-54546135D01*
X14115611Y-55298657D01*
X14568136Y-55975909D01*
X15144091Y-56551864D01*
X15821343Y-57004389D01*
X16573865Y-57316094D01*
X17372738Y-57475000D01*
X18187262Y-57475000D01*
X18986135Y-57316094D01*
X19738657Y-57004389D01*
X20415909Y-56551864D01*
X20991864Y-55975909D01*
X21444389Y-55298657D01*
X21756094Y-54546135D01*
X21915000Y-53747262D01*
X21915000Y-52932738D01*
X21756094Y-52133865D01*
X21513282Y-51547665D01*
X23101400Y-51547665D01*
X23101400Y-51830335D01*
X23156547Y-52107574D01*
X23264720Y-52368727D01*
X23421763Y-52603759D01*
X23621641Y-52803637D01*
X23856673Y-52960680D01*
X24117826Y-53068853D01*
X24395065Y-53124000D01*
X24677735Y-53124000D01*
X24954974Y-53068853D01*
X25216127Y-52960680D01*
X25451159Y-52803637D01*
X25651037Y-52603759D01*
X25808080Y-52368727D01*
X25916253Y-52107574D01*
X25971400Y-51830335D01*
X25971400Y-51547665D01*
X25916253Y-51270426D01*
X25808080Y-51009273D01*
X25651037Y-50774241D01*
X25451159Y-50574363D01*
X25216127Y-50417320D01*
X24954974Y-50309147D01*
X24677735Y-50254000D01*
X24395065Y-50254000D01*
X24117826Y-50309147D01*
X23856673Y-50417320D01*
X23621641Y-50574363D01*
X23421763Y-50774241D01*
X23264720Y-51009273D01*
X23156547Y-51270426D01*
X23101400Y-51547665D01*
X21513282Y-51547665D01*
X21444389Y-51381343D01*
X20991864Y-50704091D01*
X20415909Y-50128136D01*
X19738657Y-49675611D01*
X18986135Y-49363906D01*
X18187262Y-49205000D01*
X17372738Y-49205000D01*
X16573865Y-49363906D01*
X15821343Y-49675611D01*
X15144091Y-50128136D01*
X14568136Y-50704091D01*
X14115611Y-51381343D01*
X13803906Y-52133865D01*
X13645000Y-52932738D01*
X12852000Y-52932738D01*
X12852000Y-49109265D01*
X25895400Y-49109265D01*
X25895400Y-49391935D01*
X25950547Y-49669174D01*
X26058720Y-49930327D01*
X26215763Y-50165359D01*
X26415641Y-50365237D01*
X26650673Y-50522280D01*
X26860074Y-50609017D01*
X26414653Y-50771137D01*
X26301872Y-50825233D01*
X26201812Y-50900292D01*
X26118317Y-50993430D01*
X26054597Y-51101067D01*
X26013101Y-51219068D01*
X25995422Y-51342896D01*
X26002241Y-51467794D01*
X26033296Y-51588962D01*
X26717337Y-53468347D01*
X26771433Y-53581128D01*
X26846492Y-53681188D01*
X26939630Y-53764683D01*
X27047267Y-53828403D01*
X27165268Y-53869899D01*
X27289096Y-53887578D01*
X27413994Y-53880759D01*
X27535162Y-53849704D01*
X27930800Y-53705703D01*
X27779987Y-53806474D01*
X27517474Y-54068987D01*
X27311218Y-54377669D01*
X27169147Y-54720659D01*
X27096720Y-55084775D01*
X27096720Y-55456025D01*
X27169147Y-55820141D01*
X27311218Y-56163131D01*
X27517474Y-56471813D01*
X27779987Y-56734326D01*
X28088669Y-56940582D01*
X28431659Y-57082653D01*
X28795775Y-57155080D01*
X29167025Y-57155080D01*
X29531141Y-57082653D01*
X29844046Y-56953043D01*
X29885068Y-56986709D01*
X29939943Y-57016041D01*
X29993336Y-57048000D01*
X30012620Y-57054887D01*
X30030683Y-57064542D01*
X30090235Y-57082607D01*
X30148828Y-57103533D01*
X30169085Y-57106526D01*
X30188684Y-57112471D01*
X30250617Y-57118571D01*
X30312166Y-57127664D01*
X30373792Y-57124600D01*
X32112789Y-57124600D01*
X32126136Y-57126813D01*
X32195182Y-57124600D01*
X32222970Y-57124600D01*
X32236375Y-57123280D01*
X32249813Y-57122849D01*
X32277319Y-57119247D01*
X32346116Y-57112471D01*
X32359069Y-57108542D01*
X34417818Y-56838944D01*
X34493319Y-56830248D01*
X34538927Y-56815587D01*
X34585584Y-56804742D01*
X34617332Y-56790384D01*
X34650508Y-56779719D01*
X34692379Y-56756443D01*
X34736025Y-56736703D01*
X34797822Y-56692484D01*
X36606424Y-55440375D01*
X40279320Y-55440375D01*
X40279320Y-55811625D01*
X40351747Y-56175741D01*
X40493818Y-56518731D01*
X40700074Y-56827413D01*
X40962587Y-57089926D01*
X41271269Y-57296182D01*
X41614259Y-57438253D01*
X41978375Y-57510680D01*
X42349625Y-57510680D01*
X42713741Y-57438253D01*
X43056731Y-57296182D01*
X43365413Y-57089926D01*
X43627926Y-56827413D01*
X43834182Y-56518731D01*
X43976253Y-56175741D01*
X44048680Y-55811625D01*
X44048680Y-55440375D01*
X43976253Y-55076259D01*
X43834182Y-54733269D01*
X43627926Y-54424587D01*
X43365413Y-54162074D01*
X43056731Y-53955818D01*
X42713741Y-53813747D01*
X42349625Y-53741320D01*
X41978375Y-53741320D01*
X41614259Y-53813747D01*
X41271269Y-53955818D01*
X40962587Y-54162074D01*
X40700074Y-54424587D01*
X40493818Y-54733269D01*
X40351747Y-55076259D01*
X40279320Y-55440375D01*
X36606424Y-55440375D01*
X36748790Y-55341814D01*
X38774574Y-54146040D01*
X38804027Y-54161783D01*
X39074526Y-54243837D01*
X39285343Y-54264601D01*
X39426327Y-54264601D01*
X39637144Y-54243837D01*
X39907643Y-54161783D01*
X40156936Y-54028533D01*
X40375443Y-53849209D01*
X40554767Y-53630702D01*
X40688017Y-53381409D01*
X40770071Y-53110910D01*
X40797778Y-52829601D01*
X40770071Y-52548292D01*
X40688017Y-52277793D01*
X40554767Y-52028500D01*
X40375443Y-51809993D01*
X40156936Y-51630669D01*
X40096687Y-51598465D01*
X40627400Y-51598465D01*
X40627400Y-51881135D01*
X40682547Y-52158374D01*
X40790720Y-52419527D01*
X40947763Y-52654559D01*
X41147641Y-52854437D01*
X41382673Y-53011480D01*
X41643826Y-53119653D01*
X41921065Y-53174800D01*
X42203735Y-53174800D01*
X42480974Y-53119653D01*
X42742127Y-53011480D01*
X42977159Y-52854437D01*
X43152858Y-52678738D01*
X60635000Y-52678738D01*
X60635000Y-53493262D01*
X60793906Y-54292135D01*
X61105611Y-55044657D01*
X61558136Y-55721909D01*
X62134091Y-56297864D01*
X62811343Y-56750389D01*
X63563865Y-57062094D01*
X64362738Y-57221000D01*
X65177262Y-57221000D01*
X65976135Y-57062094D01*
X66728657Y-56750389D01*
X67405909Y-56297864D01*
X67981864Y-55721909D01*
X68434389Y-55044657D01*
X68746094Y-54292135D01*
X68905000Y-53493262D01*
X68905000Y-52678738D01*
X68746094Y-51879865D01*
X68434389Y-51127343D01*
X67981864Y-50450091D01*
X67405909Y-49874136D01*
X66728657Y-49421611D01*
X65976135Y-49109906D01*
X65177262Y-48951000D01*
X64362738Y-48951000D01*
X63563865Y-49109906D01*
X62811343Y-49421611D01*
X62134091Y-49874136D01*
X61558136Y-50450091D01*
X61105611Y-51127343D01*
X60793906Y-51879865D01*
X60635000Y-52678738D01*
X43152858Y-52678738D01*
X43177037Y-52654559D01*
X43334080Y-52419527D01*
X43442253Y-52158374D01*
X43497400Y-51881135D01*
X43497400Y-51598465D01*
X43442253Y-51321226D01*
X43334080Y-51060073D01*
X43177037Y-50825041D01*
X42977159Y-50625163D01*
X42742127Y-50468120D01*
X42480974Y-50359947D01*
X42203735Y-50304800D01*
X41921065Y-50304800D01*
X41643826Y-50359947D01*
X41382673Y-50468120D01*
X41147641Y-50625163D01*
X40947763Y-50825041D01*
X40790720Y-51060073D01*
X40682547Y-51321226D01*
X40627400Y-51598465D01*
X40096687Y-51598465D01*
X39907643Y-51497419D01*
X39637144Y-51415365D01*
X39426327Y-51394601D01*
X39285343Y-51394601D01*
X39074526Y-51415365D01*
X38804027Y-51497419D01*
X38554734Y-51630669D01*
X38336227Y-51809993D01*
X38156903Y-52028500D01*
X38023653Y-52277793D01*
X37941599Y-52548292D01*
X37926669Y-52699874D01*
X35879844Y-53908069D01*
X35853338Y-53922804D01*
X35844409Y-53928986D01*
X35835067Y-53934500D01*
X35810619Y-53952378D01*
X34005233Y-55202261D01*
X32585694Y-55388153D01*
X32766359Y-55267437D01*
X32966237Y-55067559D01*
X33123280Y-54832527D01*
X33231453Y-54571374D01*
X33286600Y-54294135D01*
X33286600Y-54011465D01*
X33231453Y-53734226D01*
X33123280Y-53473073D01*
X32966237Y-53238041D01*
X32850623Y-53122427D01*
X34883981Y-52903786D01*
X34962315Y-52896071D01*
X35005506Y-52882969D01*
X35049690Y-52873769D01*
X35084316Y-52859063D01*
X35120316Y-52848142D01*
X35160118Y-52826868D01*
X35201661Y-52809223D01*
X35232755Y-52788042D01*
X35265931Y-52770309D01*
X35300819Y-52741677D01*
X35338120Y-52716268D01*
X35393281Y-52660112D01*
X36406400Y-51646994D01*
X36463832Y-51589827D01*
X36487438Y-51554675D01*
X36514309Y-51521932D01*
X36533360Y-51486291D01*
X36555880Y-51452755D01*
X36572174Y-51413674D01*
X36592142Y-51376317D01*
X36603872Y-51337647D01*
X36619419Y-51300359D01*
X36627776Y-51258846D01*
X36640071Y-51218316D01*
X36644032Y-51178102D01*
X36652005Y-51138496D01*
X36652103Y-51096145D01*
X36656254Y-51054000D01*
X36648302Y-50973255D01*
X36633217Y-50816379D01*
X36801637Y-50647959D01*
X36958680Y-50412927D01*
X37066853Y-50151774D01*
X37122000Y-49874535D01*
X37122000Y-49591865D01*
X37066853Y-49314626D01*
X36958680Y-49053473D01*
X36801637Y-48818441D01*
X36601759Y-48618563D01*
X36366727Y-48461520D01*
X36105574Y-48353347D01*
X35828335Y-48298200D01*
X35545665Y-48298200D01*
X35268426Y-48353347D01*
X35007273Y-48461520D01*
X34772241Y-48618563D01*
X34572363Y-48818441D01*
X34415320Y-49053473D01*
X34307147Y-49314626D01*
X34252000Y-49591865D01*
X34252000Y-49874535D01*
X34279241Y-50011485D01*
X34113754Y-49847244D01*
X32851017Y-50306842D01*
X32857858Y-50325637D01*
X32619175Y-50412509D01*
X32612335Y-50393716D01*
X31349597Y-50853314D01*
X31324127Y-51132283D01*
X31441181Y-51288333D01*
X31645093Y-51485800D01*
X30686996Y-51485800D01*
X29421901Y-51320273D01*
X29111863Y-50468453D01*
X29057767Y-50355672D01*
X28982708Y-50255612D01*
X28945795Y-50222520D01*
X31053256Y-50222520D01*
X31063895Y-50417301D01*
X31262724Y-50614632D01*
X32525461Y-50155034D01*
X32065679Y-48891791D01*
X31786891Y-48866822D01*
X31538084Y-49068877D01*
X31333478Y-49315590D01*
X31180934Y-49597480D01*
X31086314Y-49903712D01*
X31053256Y-50222520D01*
X28945795Y-50222520D01*
X28889570Y-50172117D01*
X28781933Y-50108397D01*
X28663932Y-50066901D01*
X28540104Y-50049222D01*
X28521976Y-50050212D01*
X28602080Y-49930327D01*
X28710253Y-49669174D01*
X28765400Y-49391935D01*
X28765400Y-49109265D01*
X28710253Y-48832026D01*
X28699025Y-48804918D01*
X32304361Y-48804918D01*
X32764143Y-50068160D01*
X34026881Y-49608562D01*
X34052351Y-49329593D01*
X33935297Y-49173543D01*
X33705048Y-48950571D01*
X33435722Y-48776804D01*
X33137672Y-48658917D01*
X32822351Y-48601443D01*
X32501875Y-48606589D01*
X32304361Y-48804918D01*
X28699025Y-48804918D01*
X28602080Y-48570873D01*
X28445037Y-48335841D01*
X28245159Y-48135963D01*
X28010127Y-47978920D01*
X27775572Y-47881764D01*
X38950463Y-47881764D01*
X38950463Y-48164434D01*
X39005610Y-48441673D01*
X39113783Y-48702826D01*
X39270826Y-48937858D01*
X39470704Y-49137736D01*
X39705736Y-49294779D01*
X39966889Y-49402952D01*
X40244128Y-49458099D01*
X40526798Y-49458099D01*
X40804037Y-49402952D01*
X41065190Y-49294779D01*
X41300222Y-49137736D01*
X41500100Y-48937858D01*
X41657143Y-48702826D01*
X41765316Y-48441673D01*
X41820463Y-48164434D01*
X41820463Y-47881764D01*
X41765316Y-47604525D01*
X41657143Y-47343372D01*
X41500100Y-47108340D01*
X41483360Y-47091600D01*
X41717543Y-47091600D01*
X41745250Y-47372909D01*
X41827304Y-47643408D01*
X41960554Y-47892701D01*
X42139878Y-48111208D01*
X42358385Y-48290532D01*
X42607678Y-48423782D01*
X42878177Y-48505836D01*
X43088994Y-48526600D01*
X43229978Y-48526600D01*
X43440795Y-48505836D01*
X43711294Y-48423782D01*
X43960587Y-48290532D01*
X44179094Y-48111208D01*
X44327971Y-47929800D01*
X47219571Y-47929800D01*
X47247278Y-48211109D01*
X47329332Y-48481608D01*
X47462582Y-48730901D01*
X47641906Y-48949408D01*
X47860413Y-49128732D01*
X48109706Y-49261982D01*
X48380205Y-49344036D01*
X48591022Y-49364800D01*
X48732006Y-49364800D01*
X48942823Y-49344036D01*
X49213322Y-49261982D01*
X49462615Y-49128732D01*
X49681122Y-48949408D01*
X49860446Y-48730901D01*
X49993696Y-48481608D01*
X50075750Y-48211109D01*
X50103457Y-47929800D01*
X50075750Y-47648491D01*
X50027345Y-47488920D01*
X50174274Y-47708813D01*
X50436787Y-47971326D01*
X50745469Y-48177582D01*
X51088459Y-48319653D01*
X51452575Y-48392080D01*
X51823825Y-48392080D01*
X52187941Y-48319653D01*
X52530931Y-48177582D01*
X52839613Y-47971326D01*
X53102126Y-47708813D01*
X53308382Y-47400131D01*
X53450453Y-47057141D01*
X53522880Y-46693025D01*
X53522880Y-46321775D01*
X53450453Y-45957659D01*
X53308382Y-45614669D01*
X53102126Y-45305987D01*
X52839613Y-45043474D01*
X52530931Y-44837218D01*
X52187941Y-44695147D01*
X51823825Y-44622720D01*
X51452575Y-44622720D01*
X51088459Y-44695147D01*
X50745469Y-44837218D01*
X50436787Y-45043474D01*
X50174274Y-45305987D01*
X49968018Y-45614669D01*
X49825947Y-45957659D01*
X49753520Y-46321775D01*
X49753520Y-46693025D01*
X49825947Y-47057141D01*
X49850636Y-47116745D01*
X49681122Y-46910192D01*
X49462615Y-46730868D01*
X49213322Y-46597618D01*
X48942823Y-46515564D01*
X48732006Y-46494800D01*
X48591022Y-46494800D01*
X48380205Y-46515564D01*
X48109706Y-46597618D01*
X47860413Y-46730868D01*
X47641906Y-46910192D01*
X47462582Y-47128699D01*
X47329332Y-47377992D01*
X47247278Y-47648491D01*
X47219571Y-47929800D01*
X44327971Y-47929800D01*
X44358418Y-47892701D01*
X44491668Y-47643408D01*
X44573722Y-47372909D01*
X44601429Y-47091600D01*
X44573722Y-46810291D01*
X44491668Y-46539792D01*
X44358418Y-46290499D01*
X44179094Y-46071992D01*
X43960587Y-45892668D01*
X43711294Y-45759418D01*
X43440795Y-45677364D01*
X43229978Y-45656600D01*
X43088994Y-45656600D01*
X42878177Y-45677364D01*
X42607678Y-45759418D01*
X42358385Y-45892668D01*
X42139878Y-46071992D01*
X41960554Y-46290499D01*
X41827304Y-46539792D01*
X41745250Y-46810291D01*
X41717543Y-47091600D01*
X41483360Y-47091600D01*
X41300222Y-46908462D01*
X41065190Y-46751419D01*
X40804037Y-46643246D01*
X40526798Y-46588099D01*
X40244128Y-46588099D01*
X39966889Y-46643246D01*
X39705736Y-46751419D01*
X39470704Y-46908462D01*
X39270826Y-47108340D01*
X39113783Y-47343372D01*
X39005610Y-47604525D01*
X38950463Y-47881764D01*
X27775572Y-47881764D01*
X27748974Y-47870747D01*
X27471735Y-47815600D01*
X27189065Y-47815600D01*
X26911826Y-47870747D01*
X26650673Y-47978920D01*
X26415641Y-48135963D01*
X26215763Y-48335841D01*
X26058720Y-48570873D01*
X25950547Y-48832026D01*
X25895400Y-49109265D01*
X12852000Y-49109265D01*
X12852000Y-47220702D01*
X28908703Y-47220702D01*
X28980286Y-47464671D01*
X29235796Y-47585571D01*
X29509984Y-47654300D01*
X29792312Y-47668217D01*
X30071930Y-47626787D01*
X30338092Y-47531603D01*
X30463314Y-47464671D01*
X30534897Y-47220702D01*
X29721800Y-46407605D01*
X28908703Y-47220702D01*
X12852000Y-47220702D01*
X12852000Y-46298512D01*
X28281583Y-46298512D01*
X28323013Y-46578130D01*
X28418197Y-46844292D01*
X28485129Y-46969514D01*
X28729098Y-47041097D01*
X29542195Y-46228000D01*
X29901405Y-46228000D01*
X30714502Y-47041097D01*
X30958471Y-46969514D01*
X31079371Y-46714004D01*
X31148100Y-46439816D01*
X31162017Y-46157488D01*
X31151524Y-46086665D01*
X33286800Y-46086665D01*
X33286800Y-46369335D01*
X33341947Y-46646574D01*
X33450120Y-46907727D01*
X33607163Y-47142759D01*
X33807041Y-47342637D01*
X34042073Y-47499680D01*
X34303226Y-47607853D01*
X34580465Y-47663000D01*
X34863135Y-47663000D01*
X35140374Y-47607853D01*
X35401527Y-47499680D01*
X35636559Y-47342637D01*
X35836437Y-47142759D01*
X35993480Y-46907727D01*
X36101653Y-46646574D01*
X36156800Y-46369335D01*
X36156800Y-46086665D01*
X36101653Y-45809426D01*
X35993480Y-45548273D01*
X35836437Y-45313241D01*
X35636559Y-45113363D01*
X35401527Y-44956320D01*
X35140374Y-44848147D01*
X34863135Y-44793000D01*
X34580465Y-44793000D01*
X34303226Y-44848147D01*
X34042073Y-44956320D01*
X33807041Y-45113363D01*
X33607163Y-45313241D01*
X33450120Y-45548273D01*
X33341947Y-45809426D01*
X33286800Y-46086665D01*
X31151524Y-46086665D01*
X31120587Y-45877870D01*
X31025403Y-45611708D01*
X30958471Y-45486486D01*
X30714502Y-45414903D01*
X29901405Y-46228000D01*
X29542195Y-46228000D01*
X28729098Y-45414903D01*
X28485129Y-45486486D01*
X28364229Y-45741996D01*
X28295500Y-46016184D01*
X28281583Y-46298512D01*
X12852000Y-46298512D01*
X12852000Y-43800665D01*
X15583000Y-43800665D01*
X15583000Y-44083335D01*
X15638147Y-44360574D01*
X15746320Y-44621727D01*
X15903363Y-44856759D01*
X16103241Y-45056637D01*
X16338273Y-45213680D01*
X16599426Y-45321853D01*
X16876665Y-45377000D01*
X17159335Y-45377000D01*
X17382581Y-45332593D01*
X20741619Y-45332593D01*
X20921320Y-45549026D01*
X21139791Y-45726241D01*
X21388639Y-45857430D01*
X21658298Y-45937551D01*
X21938407Y-45963523D01*
X22078277Y-45955882D01*
X22245203Y-45765308D01*
X21854303Y-44691320D01*
X20779648Y-45082462D01*
X20741619Y-45332593D01*
X17382581Y-45332593D01*
X17436574Y-45321853D01*
X17697727Y-45213680D01*
X17932759Y-45056637D01*
X18132637Y-44856759D01*
X18289680Y-44621727D01*
X18383466Y-44395307D01*
X20501400Y-44395307D01*
X20502862Y-44676613D01*
X20692774Y-44843780D01*
X21350339Y-44604446D01*
X22092985Y-44604446D01*
X22483884Y-45678435D01*
X22734256Y-45717126D01*
X22846314Y-45633072D01*
X23044195Y-45433126D01*
X23174897Y-45235298D01*
X28908703Y-45235298D01*
X29721800Y-46048395D01*
X30534897Y-45235298D01*
X30463314Y-44991329D01*
X30207804Y-44870429D01*
X29933616Y-44801700D01*
X29651288Y-44787783D01*
X29371670Y-44829213D01*
X29105508Y-44924397D01*
X28980286Y-44991329D01*
X28908703Y-45235298D01*
X23174897Y-45235298D01*
X23199265Y-45198416D01*
X23305567Y-44937963D01*
X23359014Y-44661777D01*
X23357552Y-44380471D01*
X23167640Y-44213304D01*
X22092985Y-44604446D01*
X21350339Y-44604446D01*
X21767429Y-44452638D01*
X21376530Y-43378649D01*
X21126158Y-43339958D01*
X21014100Y-43424012D01*
X20816219Y-43623958D01*
X20661149Y-43858668D01*
X20554847Y-44119121D01*
X20501400Y-44395307D01*
X18383466Y-44395307D01*
X18397853Y-44360574D01*
X18453000Y-44083335D01*
X18453000Y-43800665D01*
X18397853Y-43523426D01*
X18289680Y-43262273D01*
X18132637Y-43027241D01*
X17932759Y-42827363D01*
X17697727Y-42670320D01*
X17436574Y-42562147D01*
X17159335Y-42507000D01*
X16876665Y-42507000D01*
X16599426Y-42562147D01*
X16338273Y-42670320D01*
X16103241Y-42827363D01*
X15903363Y-43027241D01*
X15746320Y-43262273D01*
X15638147Y-43523426D01*
X15583000Y-43800665D01*
X12852000Y-43800665D01*
X12852000Y-41930659D01*
X18882215Y-41930659D01*
X18909922Y-42211968D01*
X18991976Y-42482467D01*
X19125226Y-42731760D01*
X19304550Y-42950267D01*
X19523057Y-43129591D01*
X19772350Y-43262841D01*
X20042849Y-43344895D01*
X20253666Y-43365659D01*
X20394650Y-43365659D01*
X20605467Y-43344895D01*
X20780578Y-43291776D01*
X21615211Y-43291776D01*
X22006111Y-44365764D01*
X23080766Y-43974622D01*
X23118795Y-43724491D01*
X22977605Y-43554440D01*
X27437091Y-43554440D01*
X27531930Y-43819281D01*
X27676615Y-44060531D01*
X27865586Y-44268919D01*
X28091580Y-44436437D01*
X28345913Y-44556646D01*
X28479961Y-44597304D01*
X28702000Y-44475315D01*
X28702000Y-43332400D01*
X28956000Y-43332400D01*
X28956000Y-44475315D01*
X29178039Y-44597304D01*
X29312087Y-44556646D01*
X29566420Y-44436437D01*
X29792414Y-44268919D01*
X29981385Y-44060531D01*
X30126070Y-43819281D01*
X30220909Y-43554440D01*
X30099624Y-43332400D01*
X28956000Y-43332400D01*
X28702000Y-43332400D01*
X27558376Y-43332400D01*
X27437091Y-43554440D01*
X22977605Y-43554440D01*
X22939094Y-43508058D01*
X22720623Y-43330843D01*
X22471775Y-43199654D01*
X22202116Y-43119533D01*
X21922007Y-43093561D01*
X21782137Y-43101202D01*
X21615211Y-43291776D01*
X20780578Y-43291776D01*
X20875966Y-43262841D01*
X21125259Y-43129591D01*
X21343766Y-42950267D01*
X21523090Y-42731760D01*
X21656340Y-42482467D01*
X21738394Y-42211968D01*
X21750393Y-42090142D01*
X23282264Y-42090142D01*
X23309971Y-42371451D01*
X23392025Y-42641950D01*
X23525275Y-42891243D01*
X23704599Y-43109750D01*
X23923106Y-43289074D01*
X24172399Y-43422324D01*
X24442898Y-43504378D01*
X24653715Y-43525142D01*
X24794699Y-43525142D01*
X25005516Y-43504378D01*
X25276015Y-43422324D01*
X25525308Y-43289074D01*
X25743815Y-43109750D01*
X25923139Y-42891243D01*
X25941784Y-42856360D01*
X27437091Y-42856360D01*
X27558376Y-43078400D01*
X28702000Y-43078400D01*
X28702000Y-41935485D01*
X28956000Y-41935485D01*
X28956000Y-43078400D01*
X30099624Y-43078400D01*
X30220909Y-42856360D01*
X30126070Y-42591519D01*
X29981385Y-42350269D01*
X29792414Y-42141881D01*
X29566420Y-41974363D01*
X29312087Y-41854154D01*
X29178039Y-41813496D01*
X28956000Y-41935485D01*
X28702000Y-41935485D01*
X28479961Y-41813496D01*
X28345913Y-41854154D01*
X28091580Y-41974363D01*
X27865586Y-42141881D01*
X27676615Y-42350269D01*
X27531930Y-42591519D01*
X27437091Y-42856360D01*
X25941784Y-42856360D01*
X26056389Y-42641950D01*
X26138443Y-42371451D01*
X26166150Y-42090142D01*
X26138443Y-41808833D01*
X26056389Y-41538334D01*
X25923139Y-41289041D01*
X25743815Y-41070534D01*
X25525308Y-40891210D01*
X25276015Y-40757960D01*
X25005516Y-40675906D01*
X24794699Y-40655142D01*
X24653715Y-40655142D01*
X24442898Y-40675906D01*
X24172399Y-40757960D01*
X23923106Y-40891210D01*
X23704599Y-41070534D01*
X23525275Y-41289041D01*
X23392025Y-41538334D01*
X23309971Y-41808833D01*
X23282264Y-42090142D01*
X21750393Y-42090142D01*
X21766101Y-41930659D01*
X21738394Y-41649350D01*
X21656340Y-41378851D01*
X21523090Y-41129558D01*
X21343766Y-40911051D01*
X21125259Y-40731727D01*
X20875966Y-40598477D01*
X20605467Y-40516423D01*
X20394650Y-40495659D01*
X20253666Y-40495659D01*
X20042849Y-40516423D01*
X19772350Y-40598477D01*
X19523057Y-40731727D01*
X19304550Y-40911051D01*
X19125226Y-41129558D01*
X18991976Y-41378851D01*
X18909922Y-41649350D01*
X18882215Y-41930659D01*
X12852000Y-41930659D01*
X12852000Y-36781542D01*
X12969864Y-36781542D01*
X12997571Y-37062851D01*
X13079625Y-37333350D01*
X13212875Y-37582643D01*
X13392199Y-37801150D01*
X13610706Y-37980474D01*
X13859999Y-38113724D01*
X14130498Y-38195778D01*
X14341315Y-38216542D01*
X14482299Y-38216542D01*
X14693116Y-38195778D01*
X14963615Y-38113724D01*
X15212908Y-37980474D01*
X15431415Y-37801150D01*
X15610739Y-37582643D01*
X15743989Y-37333350D01*
X15826043Y-37062851D01*
X15853750Y-36781542D01*
X15826043Y-36500233D01*
X15743989Y-36229734D01*
X15610739Y-35980441D01*
X15431415Y-35761934D01*
X15212908Y-35582610D01*
X14963615Y-35449360D01*
X14693116Y-35367306D01*
X14482299Y-35346542D01*
X14341315Y-35346542D01*
X14130498Y-35367306D01*
X13859999Y-35449360D01*
X13610706Y-35582610D01*
X13392199Y-35761934D01*
X13212875Y-35980441D01*
X13079625Y-36229734D01*
X12997571Y-36500233D01*
X12969864Y-36781542D01*
X12852000Y-36781542D01*
X12852000Y-35083005D01*
X16129675Y-35083005D01*
X16133768Y-35208022D01*
X16162171Y-35329839D01*
X16213795Y-35443773D01*
X16738795Y-36353099D01*
X16811653Y-36454773D01*
X16887525Y-36525835D01*
X16907184Y-36610149D01*
X16980044Y-36770956D01*
X17242544Y-37225620D01*
X17345377Y-37369123D01*
X17474230Y-37489806D01*
X17501061Y-37506491D01*
X17502095Y-37538071D01*
X17542184Y-37710002D01*
X17615044Y-37870809D01*
X17877544Y-38325473D01*
X17980377Y-38468976D01*
X18109230Y-38589659D01*
X18259151Y-38682886D01*
X18424378Y-38745073D01*
X18598563Y-38773831D01*
X18775012Y-38768054D01*
X18946943Y-38727966D01*
X19107749Y-38655105D01*
X19952123Y-38167605D01*
X20095625Y-38064773D01*
X20216308Y-37935921D01*
X20309535Y-37786000D01*
X20371723Y-37620773D01*
X20400481Y-37446588D01*
X20394705Y-37270139D01*
X20354616Y-37098208D01*
X20281756Y-36937401D01*
X20019256Y-36482737D01*
X19916423Y-36339234D01*
X19787570Y-36218551D01*
X19760739Y-36201866D01*
X19759705Y-36170286D01*
X19719616Y-35998355D01*
X19646756Y-35837548D01*
X19384256Y-35382884D01*
X19281423Y-35239381D01*
X19218234Y-35180198D01*
X19194629Y-35078961D01*
X19143005Y-34965027D01*
X18618005Y-34055701D01*
X18545147Y-33954027D01*
X18453853Y-33868520D01*
X18347631Y-33802468D01*
X18230564Y-33758407D01*
X18107151Y-33738031D01*
X17982134Y-33742124D01*
X17860317Y-33770527D01*
X17746383Y-33822150D01*
X16447345Y-34572150D01*
X16345671Y-34645009D01*
X16260164Y-34736304D01*
X16194112Y-34842525D01*
X16150051Y-34959592D01*
X16129675Y-35083005D01*
X12852000Y-35083005D01*
X12852000Y-31710265D01*
X14846400Y-31710265D01*
X14846400Y-31992935D01*
X14901547Y-32270174D01*
X15009720Y-32531327D01*
X15166763Y-32766359D01*
X15366641Y-32966237D01*
X15601673Y-33123280D01*
X15862826Y-33231453D01*
X16140065Y-33286600D01*
X16422735Y-33286600D01*
X16699974Y-33231453D01*
X16961127Y-33123280D01*
X17196159Y-32966237D01*
X17396037Y-32766359D01*
X17473741Y-32650065D01*
X20409000Y-32650065D01*
X20409000Y-32932735D01*
X20464147Y-33209974D01*
X20572320Y-33471127D01*
X20729363Y-33706159D01*
X20929241Y-33906037D01*
X21164273Y-34063080D01*
X21425426Y-34171253D01*
X21702665Y-34226400D01*
X21985335Y-34226400D01*
X22262574Y-34171253D01*
X22523727Y-34063080D01*
X22758759Y-33906037D01*
X22958637Y-33706159D01*
X23115680Y-33471127D01*
X23223853Y-33209974D01*
X23279000Y-32932735D01*
X23279000Y-32650065D01*
X23223853Y-32372826D01*
X23115680Y-32111673D01*
X22958637Y-31876641D01*
X22758759Y-31676763D01*
X22523727Y-31519720D01*
X22262574Y-31411547D01*
X21985335Y-31356400D01*
X21702665Y-31356400D01*
X21425426Y-31411547D01*
X21164273Y-31519720D01*
X20929241Y-31676763D01*
X20729363Y-31876641D01*
X20572320Y-32111673D01*
X20464147Y-32372826D01*
X20409000Y-32650065D01*
X17473741Y-32650065D01*
X17553080Y-32531327D01*
X17661253Y-32270174D01*
X17716400Y-31992935D01*
X17716400Y-31710265D01*
X17661253Y-31433026D01*
X17553080Y-31171873D01*
X17396037Y-30936841D01*
X17196159Y-30736963D01*
X16961127Y-30579920D01*
X16699974Y-30471747D01*
X16422735Y-30416600D01*
X16140065Y-30416600D01*
X15862826Y-30471747D01*
X15601673Y-30579920D01*
X15366641Y-30736963D01*
X15166763Y-30936841D01*
X15009720Y-31171873D01*
X14901547Y-31433026D01*
X14846400Y-31710265D01*
X12852000Y-31710265D01*
X12852000Y-29227575D01*
X21737320Y-29227575D01*
X21737320Y-29598825D01*
X21809747Y-29962941D01*
X21951818Y-30305931D01*
X22158074Y-30614613D01*
X22420587Y-30877126D01*
X22729269Y-31083382D01*
X23072259Y-31225453D01*
X23436375Y-31297880D01*
X23807625Y-31297880D01*
X24171741Y-31225453D01*
X24514731Y-31083382D01*
X24823413Y-30877126D01*
X25085926Y-30614613D01*
X25292182Y-30305931D01*
X25434253Y-29962941D01*
X25506680Y-29598825D01*
X25506680Y-29227575D01*
X25434253Y-28863459D01*
X25292182Y-28520469D01*
X25085926Y-28211787D01*
X24825204Y-27951065D01*
X25997000Y-27951065D01*
X25997000Y-28233735D01*
X26052147Y-28510974D01*
X26160320Y-28772127D01*
X26317363Y-29007159D01*
X26517241Y-29207037D01*
X26752273Y-29364080D01*
X27013426Y-29472253D01*
X27290665Y-29527400D01*
X27573335Y-29527400D01*
X27850574Y-29472253D01*
X28111727Y-29364080D01*
X28346759Y-29207037D01*
X28546637Y-29007159D01*
X28703680Y-28772127D01*
X28811853Y-28510974D01*
X28867000Y-28233735D01*
X28867000Y-27951065D01*
X28811853Y-27673826D01*
X28703680Y-27412673D01*
X28546637Y-27177641D01*
X28346759Y-26977763D01*
X28111727Y-26820720D01*
X27850574Y-26712547D01*
X27573335Y-26657400D01*
X27290665Y-26657400D01*
X27013426Y-26712547D01*
X26752273Y-26820720D01*
X26517241Y-26977763D01*
X26317363Y-27177641D01*
X26160320Y-27412673D01*
X26052147Y-27673826D01*
X25997000Y-27951065D01*
X24825204Y-27951065D01*
X24823413Y-27949274D01*
X24514731Y-27743018D01*
X24171741Y-27600947D01*
X23807625Y-27528520D01*
X23436375Y-27528520D01*
X23072259Y-27600947D01*
X22729269Y-27743018D01*
X22420587Y-27949274D01*
X22158074Y-28211787D01*
X21951818Y-28520469D01*
X21809747Y-28863459D01*
X21737320Y-29227575D01*
X12852000Y-29227575D01*
X12852000Y-26014341D01*
X19737499Y-26014341D01*
X19765206Y-26295650D01*
X19847260Y-26566149D01*
X19980510Y-26815442D01*
X20159834Y-27033949D01*
X20378341Y-27213273D01*
X20627634Y-27346523D01*
X20898133Y-27428577D01*
X21108950Y-27449341D01*
X21249934Y-27449341D01*
X21460751Y-27428577D01*
X21731250Y-27346523D01*
X21980543Y-27213273D01*
X22199050Y-27033949D01*
X22378374Y-26815442D01*
X22511624Y-26566149D01*
X22593678Y-26295650D01*
X22621385Y-26014341D01*
X22593678Y-25733032D01*
X22511624Y-25462533D01*
X22378374Y-25213240D01*
X22199050Y-24994733D01*
X21980543Y-24815409D01*
X21731250Y-24682159D01*
X21460751Y-24600105D01*
X21249934Y-24579341D01*
X21108950Y-24579341D01*
X20898133Y-24600105D01*
X20627634Y-24682159D01*
X20378341Y-24815409D01*
X20159834Y-24994733D01*
X19980510Y-25213240D01*
X19847260Y-25462533D01*
X19765206Y-25733032D01*
X19737499Y-26014341D01*
X12852000Y-26014341D01*
X12852000Y-17118738D01*
X13391000Y-17118738D01*
X13391000Y-17933262D01*
X13549906Y-18732135D01*
X13861611Y-19484657D01*
X14314136Y-20161909D01*
X14890091Y-20737864D01*
X15567343Y-21190389D01*
X16319865Y-21502094D01*
X17118738Y-21661000D01*
X17933262Y-21661000D01*
X18732135Y-21502094D01*
X18753399Y-21493286D01*
X29800057Y-21493286D01*
X29827764Y-21774595D01*
X29909818Y-22045094D01*
X30043068Y-22294387D01*
X30222392Y-22512894D01*
X30440899Y-22692218D01*
X30690192Y-22825468D01*
X30960691Y-22907522D01*
X31171508Y-22928286D01*
X31312492Y-22928286D01*
X31523309Y-22907522D01*
X31793808Y-22825468D01*
X32043101Y-22692218D01*
X32261608Y-22512894D01*
X32440932Y-22294387D01*
X32574182Y-22045094D01*
X32656236Y-21774595D01*
X32683943Y-21493286D01*
X32656236Y-21211977D01*
X32574182Y-20941478D01*
X32440932Y-20692185D01*
X32261608Y-20473678D01*
X32043101Y-20294354D01*
X31793808Y-20161104D01*
X31523309Y-20079050D01*
X31312492Y-20058286D01*
X31171508Y-20058286D01*
X30960691Y-20079050D01*
X30690192Y-20161104D01*
X30440899Y-20294354D01*
X30222392Y-20473678D01*
X30043068Y-20692185D01*
X29909818Y-20941478D01*
X29827764Y-21211977D01*
X29800057Y-21493286D01*
X18753399Y-21493286D01*
X19484657Y-21190389D01*
X20161909Y-20737864D01*
X20737864Y-20161909D01*
X21190389Y-19484657D01*
X21502094Y-18732135D01*
X21661000Y-17933262D01*
X21661000Y-17118738D01*
X21502094Y-16319865D01*
X21190389Y-15567343D01*
X20737864Y-14890091D01*
X20161909Y-14314136D01*
X19484657Y-13861611D01*
X18732135Y-13549906D01*
X17933262Y-13391000D01*
X17118738Y-13391000D01*
X16319865Y-13549906D01*
X15567343Y-13861611D01*
X14890091Y-14314136D01*
X14314136Y-14890091D01*
X13861611Y-15567343D01*
X13549906Y-16319865D01*
X13391000Y-17118738D01*
X12852000Y-17118738D01*
X12852000Y-12852000D01*
X69698001Y-12852000D01*
X69698001Y-27439890D01*
M02*
