G04 #@! TF.GenerationSoftware,KiCad,Pcbnew,(5.1.2-1)-1*
G04 #@! TF.CreationDate,2021-05-20T21:43:18-04:00*
G04 #@! TF.ProjectId,B_to_UHJ_Converter,425f746f-5f55-4484-9a5f-436f6e766572,rev?*
G04 #@! TF.SameCoordinates,Original*
G04 #@! TF.FileFunction,Copper,L1,Top*
G04 #@! TF.FilePolarity,Positive*
%FSLAX46Y46*%
G04 Gerber Fmt 4.6, Leading zero omitted, Abs format (unit mm)*
G04 Created by KiCad (PCBNEW (5.1.2-1)-1) date 2021-05-20 21:43:18*
%MOMM*%
%LPD*%
G04 APERTURE LIST*
%ADD10C,7.000000*%
%ADD11C,1.600000*%
%ADD12C,1.600000*%
%ADD13C,0.100000*%
%ADD14R,1.600000X1.600000*%
%ADD15C,1.700000*%
%ADD16C,1.700000*%
%ADD17O,1.600000X1.600000*%
%ADD18C,0.800000*%
%ADD19C,0.406400*%
%ADD20C,0.812800*%
G04 APERTURE END LIST*
D10*
X101092000Y-115824000D03*
X17780000Y-115824000D03*
X101092000Y-17780000D03*
X17780000Y-17780000D03*
D11*
X25109194Y-83239601D03*
X32269652Y-85845794D03*
D12*
X32269652Y-85845794D02*
X32269652Y-85845794D01*
D11*
X86122857Y-81589033D03*
D12*
X86122857Y-81589033D02*
X86122857Y-81589033D01*
D11*
X87143743Y-98597260D03*
D12*
X87143743Y-98597260D02*
X87143743Y-98597260D01*
D11*
X87392857Y-83788738D03*
D12*
X87392857Y-83788738D02*
X87392857Y-83788738D01*
D11*
X85873743Y-96397556D03*
D12*
X85873743Y-96397556D02*
X85873743Y-96397556D01*
D11*
X88662857Y-85988442D03*
D12*
X88662857Y-85988442D02*
X88662857Y-85988442D01*
D11*
X84603743Y-94197851D03*
D12*
X84603743Y-94197851D02*
X84603743Y-94197851D01*
D11*
X89932857Y-88188147D03*
D12*
X89932857Y-88188147D02*
X89932857Y-88188147D01*
D11*
X83333743Y-91998147D03*
D12*
X83333743Y-91998147D02*
X83333743Y-91998147D01*
D11*
X91202857Y-90387851D03*
D12*
X91202857Y-90387851D02*
X91202857Y-90387851D01*
D11*
X82063743Y-89798442D03*
D12*
X82063743Y-89798442D02*
X82063743Y-89798442D01*
D11*
X92472857Y-92587556D03*
D12*
X92472857Y-92587556D02*
X92472857Y-92587556D01*
D11*
X80793743Y-87598738D03*
D12*
X80793743Y-87598738D02*
X80793743Y-87598738D01*
D11*
X93742857Y-94787260D03*
D12*
X93742857Y-94787260D02*
X93742857Y-94787260D01*
D11*
X79523743Y-85399033D03*
D13*
G36*
X79230923Y-86491853D02*
G01*
X78430923Y-85106213D01*
X79816563Y-84306213D01*
X80616563Y-85691853D01*
X79230923Y-86491853D01*
X79230923Y-86491853D01*
G37*
D11*
X46814839Y-87871813D03*
D12*
X46814839Y-87871813D02*
X46814839Y-87871813D01*
D11*
X30242280Y-91830637D03*
D12*
X30242280Y-91830637D02*
X30242280Y-91830637D01*
D11*
X44869086Y-89504493D03*
D12*
X44869086Y-89504493D02*
X44869086Y-89504493D01*
D11*
X32188033Y-90197957D03*
D12*
X32188033Y-90197957D02*
X32188033Y-90197957D01*
D11*
X42923333Y-91137174D03*
D12*
X42923333Y-91137174D02*
X42923333Y-91137174D01*
D11*
X34133785Y-88565276D03*
D12*
X34133785Y-88565276D02*
X34133785Y-88565276D01*
D11*
X40977580Y-92769854D03*
D12*
X40977580Y-92769854D02*
X40977580Y-92769854D01*
D11*
X36079538Y-86932596D03*
D12*
X36079538Y-86932596D02*
X36079538Y-86932596D01*
D11*
X39031827Y-94402535D03*
D12*
X39031827Y-94402535D02*
X39031827Y-94402535D01*
D11*
X38025291Y-85299915D03*
D12*
X38025291Y-85299915D02*
X38025291Y-85299915D01*
D11*
X37086074Y-96035215D03*
D12*
X37086074Y-96035215D02*
X37086074Y-96035215D01*
D11*
X39971044Y-83667235D03*
D12*
X39971044Y-83667235D02*
X39971044Y-83667235D01*
D11*
X35140321Y-97667896D03*
D12*
X35140321Y-97667896D02*
X35140321Y-97667896D01*
D11*
X41916797Y-82034554D03*
D13*
G36*
X40789731Y-81935949D02*
G01*
X42015402Y-80907488D01*
X43043863Y-82133159D01*
X41818192Y-83161620D01*
X40789731Y-81935949D01*
X40789731Y-81935949D01*
G37*
D11*
X59801590Y-28697013D03*
X57301590Y-33027140D03*
X29895885Y-56751928D03*
X29027644Y-51827889D03*
X30286878Y-71671668D03*
X33500816Y-75501890D03*
X47419106Y-108729144D03*
X42419106Y-108729144D03*
X72544548Y-91123711D03*
X68214421Y-93623711D03*
X63940102Y-26064038D03*
X59016063Y-25195797D03*
X25227204Y-47082045D03*
X20303165Y-46213804D03*
X30318589Y-65920456D03*
X27104651Y-69750678D03*
X35817418Y-106867897D03*
X33317418Y-111198024D03*
X60675718Y-91183497D03*
X63175718Y-95513624D03*
X49764664Y-21925986D03*
X45066201Y-20215885D03*
X39425875Y-62519621D03*
X41925875Y-58189494D03*
X21515174Y-75037324D03*
X19015174Y-79367451D03*
X50134491Y-99728449D03*
X50134491Y-94728449D03*
X70862050Y-104224262D03*
X73362050Y-108554389D03*
X37841706Y-25182285D03*
X32917667Y-24314044D03*
X37838478Y-66945478D03*
X35338478Y-62615351D03*
X20530244Y-88056623D03*
X18030244Y-92386750D03*
X59007212Y-103026462D03*
X54308749Y-104736563D03*
X83516345Y-108880306D03*
X87346567Y-112094244D03*
X78333600Y-31078800D03*
D14*
X78333600Y-33578800D03*
D11*
X72847200Y-39725600D03*
D13*
G36*
X73325338Y-38700230D02*
G01*
X73872570Y-40203738D01*
X72369062Y-40750970D01*
X71821830Y-39247462D01*
X73325338Y-38700230D01*
X73325338Y-38700230D01*
G37*
D11*
X70497968Y-40580650D03*
D13*
G36*
X80597598Y-47886529D02*
G01*
X80621686Y-47891184D01*
X80645202Y-47898178D01*
X80667920Y-47907443D01*
X80689619Y-47918890D01*
X80710092Y-47932409D01*
X80729142Y-47947869D01*
X80746584Y-47965122D01*
X80762252Y-47984002D01*
X80775993Y-48004327D01*
X80787676Y-48025900D01*
X80797188Y-48048515D01*
X81207612Y-49176146D01*
X81214862Y-49199584D01*
X81219779Y-49223620D01*
X81222317Y-49248022D01*
X81222451Y-49272556D01*
X81220180Y-49296984D01*
X81215525Y-49321072D01*
X81208531Y-49344588D01*
X81199266Y-49367306D01*
X81187819Y-49389005D01*
X81174300Y-49409478D01*
X81158840Y-49428528D01*
X81141587Y-49445970D01*
X81122707Y-49461638D01*
X81102382Y-49475379D01*
X81080809Y-49487062D01*
X81058194Y-49496574D01*
X79695640Y-49992503D01*
X79672202Y-49999753D01*
X79648166Y-50004670D01*
X79623764Y-50007208D01*
X79599230Y-50007342D01*
X79574802Y-50005071D01*
X79550714Y-50000416D01*
X79527198Y-49993422D01*
X79504480Y-49984157D01*
X79482781Y-49972710D01*
X79462308Y-49959191D01*
X79443258Y-49943731D01*
X79425816Y-49926478D01*
X79410148Y-49907598D01*
X79396407Y-49887273D01*
X79384724Y-49865700D01*
X79375212Y-49843085D01*
X78964788Y-48715454D01*
X78957538Y-48692016D01*
X78952621Y-48667980D01*
X78950083Y-48643578D01*
X78949949Y-48619044D01*
X78952220Y-48594616D01*
X78956875Y-48570528D01*
X78963869Y-48547012D01*
X78973134Y-48524294D01*
X78984581Y-48502595D01*
X78998100Y-48482122D01*
X79013560Y-48463072D01*
X79030813Y-48445630D01*
X79049693Y-48429962D01*
X79070018Y-48416221D01*
X79091591Y-48404538D01*
X79114206Y-48395026D01*
X80476760Y-47899097D01*
X80500198Y-47891847D01*
X80524234Y-47886930D01*
X80548636Y-47884392D01*
X80573170Y-47884258D01*
X80597598Y-47886529D01*
X80597598Y-47886529D01*
G37*
D15*
X80086200Y-48945800D03*
X80941250Y-51295032D03*
D16*
X81058712Y-51252279D02*
X80823788Y-51337785D01*
D15*
X81796301Y-53644263D03*
D16*
X81913763Y-53601510D02*
X81678839Y-53687016D01*
D15*
X82651351Y-55993495D03*
D16*
X82768813Y-55950742D02*
X82533889Y-56036248D01*
D15*
X83506401Y-58342726D03*
D16*
X83623863Y-58299973D02*
X83388939Y-58385479D01*
D15*
X68134662Y-34005422D03*
D16*
X68230418Y-34085770D02*
X68038906Y-33925074D01*
D15*
X69741631Y-32090311D03*
D16*
X69837387Y-32170659D02*
X69645875Y-32009963D01*
D13*
G36*
X71206107Y-29001038D02*
G01*
X71230334Y-29004902D01*
X71254066Y-29011123D01*
X71277075Y-29019639D01*
X71299137Y-29030370D01*
X71320042Y-29043212D01*
X71339587Y-29058041D01*
X72450352Y-29990083D01*
X72468349Y-30006756D01*
X72484626Y-30025113D01*
X72499025Y-30044977D01*
X72511408Y-30066157D01*
X72521655Y-30088448D01*
X72529667Y-30111637D01*
X72535369Y-30135499D01*
X72538704Y-30159805D01*
X72539640Y-30184321D01*
X72538169Y-30208811D01*
X72534305Y-30233038D01*
X72528084Y-30256770D01*
X72519568Y-30279779D01*
X72508837Y-30301841D01*
X72495995Y-30322746D01*
X72481166Y-30342291D01*
X71709821Y-31261545D01*
X71693148Y-31279542D01*
X71674791Y-31295819D01*
X71654927Y-31310218D01*
X71633747Y-31322601D01*
X71611456Y-31332848D01*
X71588267Y-31340860D01*
X71564405Y-31346562D01*
X71540099Y-31349897D01*
X71515583Y-31350833D01*
X71491093Y-31349362D01*
X71466866Y-31345498D01*
X71443134Y-31339277D01*
X71420125Y-31330761D01*
X71398063Y-31320030D01*
X71377158Y-31307188D01*
X71357613Y-31292359D01*
X70246848Y-30360317D01*
X70228851Y-30343644D01*
X70212574Y-30325287D01*
X70198175Y-30305423D01*
X70185792Y-30284243D01*
X70175545Y-30261952D01*
X70167533Y-30238763D01*
X70161831Y-30214901D01*
X70158496Y-30190595D01*
X70157560Y-30166079D01*
X70159031Y-30141589D01*
X70162895Y-30117362D01*
X70169116Y-30093630D01*
X70177632Y-30070621D01*
X70188363Y-30048559D01*
X70201205Y-30027654D01*
X70216034Y-30008109D01*
X70987379Y-29088855D01*
X71004052Y-29070858D01*
X71022409Y-29054581D01*
X71042273Y-29040182D01*
X71063453Y-29027799D01*
X71085744Y-29017552D01*
X71108933Y-29009540D01*
X71132795Y-29003838D01*
X71157101Y-29000503D01*
X71181617Y-28999567D01*
X71206107Y-29001038D01*
X71206107Y-29001038D01*
G37*
D15*
X71348600Y-30175200D03*
D13*
G36*
X92438811Y-63783631D02*
G01*
X92463038Y-63787495D01*
X92486770Y-63793716D01*
X92509779Y-63802232D01*
X92531841Y-63812963D01*
X92552746Y-63825805D01*
X92572291Y-63840634D01*
X93491545Y-64611979D01*
X93509542Y-64628652D01*
X93525819Y-64647009D01*
X93540218Y-64666873D01*
X93552601Y-64688053D01*
X93562848Y-64710344D01*
X93570860Y-64733533D01*
X93576562Y-64757395D01*
X93579897Y-64781701D01*
X93580833Y-64806217D01*
X93579362Y-64830707D01*
X93575498Y-64854934D01*
X93569277Y-64878666D01*
X93560761Y-64901675D01*
X93550030Y-64923737D01*
X93537188Y-64944642D01*
X93522359Y-64964187D01*
X92590317Y-66074952D01*
X92573644Y-66092949D01*
X92555287Y-66109226D01*
X92535423Y-66123625D01*
X92514243Y-66136008D01*
X92491952Y-66146255D01*
X92468763Y-66154267D01*
X92444901Y-66159969D01*
X92420595Y-66163304D01*
X92396079Y-66164240D01*
X92371589Y-66162769D01*
X92347362Y-66158905D01*
X92323630Y-66152684D01*
X92300621Y-66144168D01*
X92278559Y-66133437D01*
X92257654Y-66120595D01*
X92238109Y-66105766D01*
X91318855Y-65334421D01*
X91300858Y-65317748D01*
X91284581Y-65299391D01*
X91270182Y-65279527D01*
X91257799Y-65258347D01*
X91247552Y-65236056D01*
X91239540Y-65212867D01*
X91233838Y-65189005D01*
X91230503Y-65164699D01*
X91229567Y-65140183D01*
X91231038Y-65115693D01*
X91234902Y-65091466D01*
X91241123Y-65067734D01*
X91249639Y-65044725D01*
X91260370Y-65022663D01*
X91273212Y-65001758D01*
X91288041Y-64982213D01*
X92220083Y-63871448D01*
X92236756Y-63853451D01*
X92255113Y-63837174D01*
X92274977Y-63822775D01*
X92296157Y-63810392D01*
X92318448Y-63800145D01*
X92341637Y-63792133D01*
X92365499Y-63786431D01*
X92389805Y-63783096D01*
X92414321Y-63782160D01*
X92438811Y-63783631D01*
X92438811Y-63783631D01*
G37*
D15*
X92405200Y-64973200D03*
X94320311Y-66580169D03*
D16*
X94400659Y-66484413D02*
X94239963Y-66675925D01*
D15*
X96235422Y-68187138D03*
D16*
X96315770Y-68091382D02*
X96155074Y-68282894D01*
D11*
X63191963Y-29599432D03*
D12*
X63191963Y-29599432D02*
X63191963Y-29599432D01*
D11*
X59381963Y-36198546D03*
X18759389Y-53407832D03*
X26263624Y-54731031D03*
D12*
X26263624Y-54731031D02*
X26263624Y-54731031D01*
D11*
X31977779Y-68490534D03*
D12*
X31977779Y-68490534D02*
X31977779Y-68490534D01*
D11*
X36875821Y-74327793D03*
X42991012Y-119131500D03*
D17*
X42991012Y-111511500D03*
D11*
X71108922Y-88345056D03*
D12*
X71108922Y-88345056D02*
X71108922Y-88345056D01*
D11*
X64509808Y-92155056D03*
X52976428Y-29132641D03*
X54299627Y-36636876D03*
D12*
X54299627Y-36636876D02*
X54299627Y-36636876D01*
D11*
X17976282Y-49577135D03*
D12*
X17976282Y-49577135D02*
X17976282Y-49577135D01*
D11*
X25480517Y-50900334D03*
X48684099Y-26983681D03*
D12*
X48684099Y-26983681D02*
X48684099Y-26983681D01*
D11*
X56188334Y-25660482D03*
X21986651Y-43246042D03*
X29490886Y-44569241D03*
D12*
X29490886Y-44569241D02*
X29490886Y-44569241D01*
D11*
X28272750Y-77352220D03*
X35433208Y-79958413D03*
D12*
X35433208Y-79958413D02*
X35433208Y-79958413D01*
D11*
X24389903Y-80146114D03*
D12*
X24389903Y-80146114D02*
X24389903Y-80146114D01*
D11*
X26996096Y-72985656D03*
D17*
X38996253Y-116648251D03*
D11*
X38996253Y-109028251D03*
X77983202Y-90294860D03*
X74173202Y-96893974D03*
D12*
X74173202Y-96893974D02*
X74173202Y-96893974D01*
D11*
X31207300Y-108249448D03*
X35017300Y-101650334D03*
D12*
X35017300Y-101650334D02*
X35017300Y-101650334D01*
D11*
X73078207Y-99638275D03*
D12*
X73078207Y-99638275D02*
X73078207Y-99638275D01*
D11*
X65917749Y-97032082D03*
X49397325Y-29644091D03*
X50720524Y-37148326D03*
D12*
X50720524Y-37148326D02*
X50720524Y-37148326D01*
D11*
X35105085Y-46220734D03*
D12*
X35105085Y-46220734D02*
X35105085Y-46220734D01*
D11*
X27944627Y-48826927D03*
X27223187Y-80487609D03*
X34383645Y-83093802D03*
D12*
X34383645Y-83093802D02*
X34383645Y-83093802D01*
D17*
X39410067Y-98574218D03*
D11*
X39410067Y-106194218D03*
X76238561Y-99942569D03*
X80048561Y-93343455D03*
D12*
X80048561Y-93343455D02*
X80048561Y-93343455D01*
D11*
X52894901Y-39740897D03*
D17*
X60514901Y-39740897D03*
D11*
X25811583Y-57901586D03*
D12*
X25811583Y-57901586D02*
X25811583Y-57901586D01*
D11*
X18307348Y-56578387D03*
X38330521Y-80368612D03*
X40936714Y-73208154D03*
D12*
X40936714Y-73208154D02*
X40936714Y-73208154D01*
D17*
X46719558Y-111592508D03*
D11*
X46719558Y-119212508D03*
X76339009Y-87548631D03*
X69739895Y-83738631D03*
D12*
X69739895Y-83738631D02*
X69739895Y-83738631D01*
D17*
X55921364Y-42938119D03*
D11*
X63541364Y-42938119D03*
X24864993Y-39276610D03*
X32025451Y-41882803D03*
D12*
X32025451Y-41882803D02*
X32025451Y-41882803D01*
D11*
X42302387Y-78594216D03*
D12*
X42302387Y-78594216D02*
X42302387Y-78594216D01*
D11*
X44908580Y-71433758D03*
X28638677Y-106120847D03*
X32448677Y-99521733D03*
D12*
X32448677Y-99521733D02*
X32448677Y-99521733D01*
D11*
X75440178Y-83284172D03*
D12*
X75440178Y-83284172D02*
X75440178Y-83284172D01*
D11*
X68841064Y-79474172D03*
X55168473Y-46356993D03*
D17*
X62788473Y-46356993D03*
D11*
X26265942Y-36382807D03*
D12*
X26265942Y-36382807D02*
X26265942Y-36382807D01*
D11*
X33426400Y-38989000D03*
X45147655Y-80550365D03*
X47753848Y-73389907D03*
D12*
X47753848Y-73389907D02*
X47753848Y-73389907D01*
D11*
X26448752Y-103475740D03*
D12*
X26448752Y-103475740D02*
X26448752Y-103475740D01*
D11*
X30258752Y-96876626D03*
X78055193Y-80991074D03*
X71456079Y-77181074D03*
D12*
X71456079Y-77181074D02*
X71456079Y-77181074D01*
D11*
X40392597Y-16761487D03*
D17*
X48012597Y-16761487D03*
D11*
X41106807Y-65958166D03*
D12*
X41106807Y-65958166D02*
X41106807Y-65958166D01*
D11*
X44916807Y-59359052D03*
X13860807Y-83672583D03*
X16467000Y-76512125D03*
D12*
X16467000Y-76512125D02*
X16467000Y-76512125D01*
D11*
X58479626Y-99742273D03*
D12*
X58479626Y-99742273D02*
X58479626Y-99742273D01*
D11*
X53581584Y-93905014D03*
X74212522Y-114799739D03*
X69314480Y-108962480D03*
D12*
X69314480Y-108962480D02*
X69314480Y-108962480D01*
D11*
X39559142Y-20321644D03*
D12*
X39559142Y-20321644D02*
X39559142Y-20321644D01*
D11*
X45396401Y-25219686D03*
X36005022Y-55592314D03*
X43509257Y-54269115D03*
D12*
X43509257Y-54269115D02*
X43509257Y-54269115D01*
D11*
X30467341Y-27083864D03*
X37971576Y-28407063D03*
D12*
X37971576Y-28407063D02*
X37971576Y-28407063D01*
D11*
X32406699Y-52435110D03*
D12*
X32406699Y-52435110D02*
X32406699Y-52435110D01*
D11*
X33729898Y-59939345D03*
X15344371Y-86910599D03*
D12*
X15344371Y-86910599D02*
X15344371Y-86910599D01*
D11*
X21181630Y-82012557D03*
X19690027Y-95764480D03*
X23500027Y-89165366D03*
D12*
X23500027Y-89165366D02*
X23500027Y-89165366D01*
D11*
X46871004Y-102314444D03*
D17*
X46871004Y-94694444D03*
D11*
X77778799Y-113113444D03*
D12*
X77778799Y-113113444D02*
X77778799Y-113113444D01*
D11*
X76455600Y-105609209D03*
D17*
X43529186Y-105468827D03*
D11*
X51149186Y-105468827D03*
X89877232Y-110012001D03*
X84039973Y-105113959D03*
D12*
X84039973Y-105113959D02*
X84039973Y-105113959D01*
D11*
X42222737Y-33689398D03*
D12*
X42222737Y-33689398D02*
X42222737Y-33689398D01*
D11*
X40899538Y-26185163D03*
X35336793Y-52126925D03*
X42841028Y-50803726D03*
D12*
X42841028Y-50803726D02*
X42841028Y-50803726D01*
D11*
X29449564Y-88198867D03*
D12*
X29449564Y-88198867D02*
X29449564Y-88198867D01*
D11*
X22289106Y-85592674D03*
X43557784Y-102720500D03*
D17*
X43557784Y-95100500D03*
D11*
X83880593Y-99513371D03*
D12*
X83880593Y-99513371D02*
X83880593Y-99513371D01*
D11*
X80070593Y-106112485D03*
X45582420Y-28742177D03*
X46905619Y-36246412D03*
D12*
X46905619Y-36246412D02*
X46905619Y-36246412D01*
D11*
X48693777Y-59716466D03*
D12*
X48693777Y-59716466D02*
X48693777Y-59716466D01*
D11*
X46087584Y-52556008D03*
X55627210Y-90225616D03*
D12*
X55627210Y-90225616D02*
X55627210Y-90225616D01*
D11*
X48122975Y-91548815D03*
X78193764Y-103054761D03*
X82003764Y-96455647D03*
D12*
X82003764Y-96455647D02*
X82003764Y-96455647D01*
D11*
X31173671Y-30483264D03*
X38677906Y-31806463D03*
D12*
X38677906Y-31806463D02*
X38677906Y-31806463D01*
D11*
X49986980Y-53228337D03*
D12*
X49986980Y-53228337D02*
X49986980Y-53228337D01*
D11*
X52593173Y-60388795D03*
X24171440Y-100923451D03*
X27981440Y-94324337D03*
D12*
X27981440Y-94324337D02*
X27981440Y-94324337D01*
D11*
X50266267Y-87986408D03*
D12*
X50266267Y-87986408D02*
X50266267Y-87986408D01*
D11*
X57770502Y-86663209D03*
X95587202Y-106328202D03*
X89749943Y-101430160D03*
D12*
X89749943Y-101430160D02*
X89749943Y-101430160D01*
D11*
X28265416Y-33543991D03*
D12*
X28265416Y-33543991D02*
X28265416Y-33543991D01*
D11*
X35769651Y-34867190D03*
X52622413Y-50990943D03*
X55228606Y-58151401D03*
D12*
X55228606Y-58151401D02*
X55228606Y-58151401D01*
D11*
X22331302Y-97659899D03*
D12*
X22331302Y-97659899D02*
X22331302Y-97659899D01*
D11*
X26141302Y-91060785D03*
X48743666Y-84701571D03*
X56247901Y-83378372D03*
D12*
X56247901Y-83378372D02*
X56247901Y-83378372D01*
D11*
X91814982Y-107312615D03*
D12*
X91814982Y-107312615D02*
X91814982Y-107312615D01*
D11*
X85977723Y-102414573D03*
D17*
X58836560Y-49494440D03*
D11*
X66456560Y-49494440D03*
X60528200Y-63042800D03*
X57922007Y-55882342D03*
D12*
X57922007Y-55882342D02*
X57922007Y-55882342D01*
D11*
X48437800Y-81198914D03*
D12*
X48437800Y-81198914D02*
X48437800Y-81198914D01*
D11*
X52247800Y-74599800D03*
X65938400Y-81483200D03*
X61040358Y-87320459D03*
D12*
X61040358Y-87320459D02*
X61040358Y-87320459D01*
D11*
X85826600Y-74091800D03*
X79227486Y-77901800D03*
D12*
X79227486Y-77901800D02*
X79227486Y-77901800D01*
D17*
X58905140Y-52682140D03*
D11*
X66525140Y-52682140D03*
X63957200Y-63017400D03*
X61351007Y-55856942D03*
D12*
X61351007Y-55856942D02*
X61351007Y-55856942D01*
D11*
X52603400Y-80462314D03*
D12*
X52603400Y-80462314D02*
X52603400Y-80462314D01*
D11*
X56413400Y-73863200D03*
X64287400Y-76403200D03*
X59389358Y-82240459D03*
D12*
X59389358Y-82240459D02*
X59389358Y-82240459D01*
D11*
X101650800Y-97967800D03*
X95051686Y-101777800D03*
D12*
X95051686Y-101777800D02*
X95051686Y-101777800D01*
D17*
X66212720Y-46766480D03*
D11*
X66212720Y-39146480D03*
X56738714Y-61366400D03*
D12*
X56738714Y-61366400D02*
X56738714Y-61366400D01*
D11*
X50139600Y-65176400D03*
X53771800Y-71729600D03*
X46611342Y-69123407D03*
D12*
X46611342Y-69123407D02*
X46611342Y-69123407D01*
D11*
X67745958Y-76144459D03*
D12*
X67745958Y-76144459D02*
X67745958Y-76144459D01*
D11*
X72644000Y-70307200D03*
X82727800Y-72212200D03*
X76128686Y-76022200D03*
D12*
X76128686Y-76022200D02*
X76128686Y-76022200D01*
D17*
X69367400Y-53136800D03*
D11*
X69367400Y-45516800D03*
X64754607Y-55856942D03*
D12*
X64754607Y-55856942D02*
X64754607Y-55856942D01*
D11*
X67360800Y-63017400D03*
X60325000Y-73507600D03*
X56515000Y-80106714D03*
D12*
X56515000Y-80106714D02*
X56515000Y-80106714D01*
D11*
X65180558Y-74061659D03*
D12*
X65180558Y-74061659D02*
X65180558Y-74061659D01*
D11*
X70078600Y-68224400D03*
X104368600Y-100330000D03*
X97769486Y-104140000D03*
D12*
X97769486Y-104140000D02*
X97769486Y-104140000D01*
D11*
X97711067Y-80840741D03*
X91111953Y-84650741D03*
D12*
X91111953Y-84650741D02*
X91111953Y-84650741D01*
D11*
X93572430Y-89097799D03*
D12*
X93572430Y-89097799D02*
X93572430Y-89097799D01*
D11*
X100171544Y-85287799D03*
X88028085Y-76517142D03*
D12*
X88028085Y-76517142D02*
X88028085Y-76517142D01*
D11*
X81428971Y-80327142D03*
X98948694Y-95589153D03*
D12*
X98948694Y-95589153D02*
X98948694Y-95589153D01*
D11*
X92349580Y-99399153D03*
X52435271Y-43491889D03*
D13*
G36*
X52142451Y-42399069D02*
G01*
X53528091Y-43199069D01*
X52728091Y-44584709D01*
X51342451Y-43784709D01*
X52142451Y-42399069D01*
X52142451Y-42399069D01*
G37*
D11*
X35427044Y-42471003D03*
D12*
X35427044Y-42471003D02*
X35427044Y-42471003D01*
D11*
X50235566Y-42221889D03*
D12*
X50235566Y-42221889D02*
X50235566Y-42221889D01*
D11*
X37626748Y-43741003D03*
D12*
X37626748Y-43741003D02*
X37626748Y-43741003D01*
D11*
X48035862Y-40951889D03*
D12*
X48035862Y-40951889D02*
X48035862Y-40951889D01*
D11*
X39826453Y-45011003D03*
D12*
X39826453Y-45011003D02*
X39826453Y-45011003D01*
D11*
X45836157Y-39681889D03*
D12*
X45836157Y-39681889D02*
X45836157Y-39681889D01*
D11*
X42026157Y-46281003D03*
D12*
X42026157Y-46281003D02*
X42026157Y-46281003D01*
D11*
X43636453Y-38411889D03*
D12*
X43636453Y-38411889D02*
X43636453Y-38411889D01*
D11*
X44225862Y-47551003D03*
D12*
X44225862Y-47551003D02*
X44225862Y-47551003D01*
D11*
X41436748Y-37141889D03*
D12*
X41436748Y-37141889D02*
X41436748Y-37141889D01*
D11*
X46425566Y-48821003D03*
D12*
X46425566Y-48821003D02*
X46425566Y-48821003D01*
D11*
X39237044Y-35871889D03*
D12*
X39237044Y-35871889D02*
X39237044Y-35871889D01*
D11*
X48625271Y-50091003D03*
D12*
X48625271Y-50091003D02*
X48625271Y-50091003D01*
D18*
X73583800Y-63373000D03*
X78071012Y-60333588D03*
X75692000Y-66167000D03*
X82008579Y-98696379D03*
X55829200Y-48717200D03*
X35687000Y-91084400D03*
X99212400Y-89382600D03*
X70789800Y-61112400D03*
X93853000Y-83286600D03*
X73914000Y-81762600D03*
D19*
X83506401Y-58342726D02*
X77139800Y-56921400D01*
X77139800Y-56921400D02*
X70942200Y-49885600D01*
X70942200Y-49885600D02*
X67919600Y-46126400D01*
X67919600Y-46126400D02*
X66014600Y-43002200D01*
X66014600Y-43002200D02*
X63804800Y-40386000D01*
X63804800Y-40386000D02*
X62179200Y-40030400D01*
X62179200Y-40030400D02*
X60514901Y-39740897D01*
X73583800Y-63373000D02*
X69164200Y-65862200D01*
X69164200Y-65862200D02*
X66598800Y-68148200D01*
X66598800Y-68148200D02*
X64338200Y-71297800D01*
X64338200Y-71297800D02*
X62509400Y-74396600D01*
X62509400Y-74396600D02*
X59740800Y-76885800D01*
X59740800Y-76885800D02*
X53594000Y-76885800D01*
X53594000Y-76885800D02*
X48768000Y-76403200D01*
X48768000Y-76403200D02*
X45669200Y-74498200D01*
X45669200Y-74498200D02*
X42849800Y-73609200D01*
X42849800Y-73609200D02*
X40936714Y-73208154D01*
X69739895Y-83738631D02*
X72110600Y-81000600D01*
X72110600Y-81000600D02*
X73329800Y-77317600D01*
X73329800Y-77317600D02*
X73964800Y-72110600D01*
X73964800Y-72110600D02*
X75641200Y-68986400D01*
X75641200Y-68986400D02*
X75692000Y-66167000D01*
X75692000Y-66167000D02*
X75692000Y-66167000D01*
D20*
X37841706Y-25182285D02*
X36569459Y-26471480D01*
X36569459Y-26471480D02*
X35042302Y-28405398D01*
X35042302Y-28405398D02*
X33424840Y-32222919D01*
X33424840Y-32222919D02*
X31126140Y-36204384D01*
X31126140Y-36204384D02*
X29476964Y-38654439D01*
X29476964Y-38654439D02*
X27727100Y-41075696D01*
X27727100Y-41075696D02*
X25893984Y-44504743D01*
X25893984Y-44504743D02*
X25227204Y-47082045D01*
X37841706Y-25182285D02*
X41382629Y-23824428D01*
X41382629Y-23824428D02*
X44427583Y-22766811D01*
X44427583Y-22766811D02*
X47976157Y-23935701D01*
X47976157Y-23935701D02*
X51089106Y-24589115D01*
X51089106Y-24589115D02*
X54223628Y-23935165D01*
X54223628Y-23935165D02*
X57135688Y-23006126D01*
X57135688Y-23006126D02*
X59911877Y-23582430D01*
X59911877Y-23582430D02*
X62007490Y-24880322D01*
X62007490Y-24880322D02*
X63940102Y-26064038D01*
X25227204Y-47082045D02*
X26369648Y-49472072D01*
X26369648Y-49472072D02*
X26880561Y-50060340D01*
X26880561Y-50060340D02*
X27431158Y-50935486D01*
X27431158Y-50935486D02*
X27272617Y-51870483D01*
X27272617Y-51870483D02*
X27407758Y-52652411D01*
X27407758Y-52652411D02*
X28268803Y-53853440D01*
X28268803Y-53853440D02*
X29630130Y-54492755D01*
X29630130Y-54492755D02*
X31277416Y-55297171D01*
X31277416Y-55297171D02*
X32223466Y-57925760D01*
X32223466Y-57925760D02*
X31199751Y-60003690D01*
X31199751Y-60003690D02*
X32303850Y-63222128D01*
X32303850Y-63222128D02*
X33933881Y-65072440D01*
X33933881Y-65072440D02*
X34879752Y-65618540D01*
X34879752Y-65618540D02*
X36119304Y-66011573D01*
X36119304Y-66011573D02*
X37838478Y-66945478D01*
X20530244Y-88056623D02*
X24373957Y-94858145D01*
X24373957Y-94858145D02*
X28700977Y-101287282D01*
X28700977Y-101287282D02*
X31698666Y-104693823D01*
X31698666Y-104693823D02*
X35817418Y-106867897D01*
X35817418Y-106867897D02*
X37265380Y-110347995D01*
X37265380Y-110347995D02*
X41821254Y-113872831D01*
X41821254Y-113872831D02*
X46018261Y-113998431D01*
X46018261Y-113998431D02*
X50178481Y-112483768D01*
X50178481Y-112483768D02*
X54615021Y-108635073D01*
X54615021Y-108635073D02*
X56588446Y-105573301D01*
X56588446Y-105573301D02*
X58279951Y-103961647D01*
X58279951Y-103961647D02*
X59007212Y-103026462D01*
X30318589Y-65920456D02*
X27241893Y-67311762D01*
X27241893Y-67311762D02*
X24724937Y-69291110D01*
X24724937Y-69291110D02*
X24125895Y-71975520D01*
X24125895Y-71975520D02*
X24129056Y-74824397D01*
X24129056Y-74824397D02*
X23377616Y-77643314D01*
X23377616Y-77643314D02*
X22171217Y-79603904D01*
X22171217Y-79603904D02*
X22620012Y-80944872D01*
X22620012Y-80944872D02*
X23341078Y-82017587D01*
X23341078Y-82017587D02*
X22932437Y-83308779D01*
X22932437Y-83308779D02*
X22000798Y-83818625D01*
X22000798Y-83818625D02*
X20898780Y-84338807D01*
X20898780Y-84338807D02*
X20306161Y-85466065D01*
X20306161Y-85466065D02*
X20407171Y-86289818D01*
X20407171Y-86289818D02*
X20530244Y-88056623D01*
X60675718Y-91183497D02*
X60387865Y-93895479D01*
X60387865Y-93895479D02*
X61649858Y-96985556D01*
X61649858Y-96985556D02*
X64540281Y-101687115D01*
X64540281Y-101687115D02*
X67020909Y-104073610D01*
X67020909Y-104073610D02*
X69094275Y-105703905D01*
X69094275Y-105703905D02*
X70853179Y-106759055D01*
X70853179Y-106759055D02*
X72114131Y-106077971D01*
X72114131Y-106077971D02*
X73751004Y-106047999D01*
X73751004Y-106047999D02*
X74872894Y-107107247D01*
X74872894Y-107107247D02*
X77150625Y-108502233D01*
X77150625Y-108502233D02*
X79850554Y-109195927D01*
X79850554Y-109195927D02*
X81999667Y-109016861D01*
X81999667Y-109016861D02*
X83516345Y-108880306D01*
X59007212Y-103026462D02*
X64540281Y-101687115D01*
X67691000Y-29337000D02*
X65684400Y-27432000D01*
X65684400Y-27432000D02*
X63940102Y-26064038D01*
X69741631Y-32090311D02*
X67691000Y-29337000D01*
X30318589Y-65920456D02*
X32303850Y-63222128D01*
X83516345Y-108880306D02*
X88773000Y-106273600D01*
X88773000Y-106273600D02*
X92278200Y-104343200D01*
X92278200Y-104343200D02*
X95148400Y-104140000D01*
X95148400Y-104140000D02*
X96367600Y-103174800D01*
X96367600Y-103174800D02*
X97586800Y-101244400D01*
X97586800Y-101244400D02*
X98018600Y-99771200D01*
X98018600Y-99771200D02*
X100279200Y-96951800D01*
X100279200Y-96951800D02*
X101244400Y-94818200D01*
X101244400Y-94818200D02*
X101219000Y-90932000D01*
X101219000Y-90932000D02*
X100888800Y-88341200D01*
X100888800Y-88341200D02*
X100171544Y-85287799D01*
X100171544Y-85287799D02*
X97711067Y-80840741D01*
X78333600Y-31078800D02*
X75590400Y-28194000D01*
X75590400Y-28194000D02*
X72110600Y-26492200D01*
X72110600Y-26492200D02*
X69494400Y-26847800D01*
X69494400Y-26847800D02*
X68580000Y-27889200D01*
X68580000Y-27889200D02*
X67691000Y-29337000D01*
X96235422Y-68187138D02*
X97205800Y-72542400D01*
X97205800Y-72542400D02*
X97282000Y-76174600D01*
X97282000Y-76174600D02*
X97711067Y-80840741D01*
X71348600Y-30175200D02*
X72263000Y-32893000D01*
X72263000Y-32893000D02*
X70916800Y-35814000D01*
X70916800Y-35814000D02*
X67894200Y-36957000D01*
X67894200Y-36957000D02*
X63449200Y-37439600D01*
X63449200Y-37439600D02*
X59994800Y-37871400D01*
X59994800Y-37871400D02*
X55651400Y-38252400D01*
X55651400Y-38252400D02*
X54381400Y-38379400D01*
X54381400Y-38379400D02*
X53492400Y-38227000D01*
X53492400Y-38227000D02*
X53060600Y-37896800D01*
X53060600Y-37896800D02*
X51917600Y-38277800D01*
X51917600Y-38277800D02*
X51079400Y-38785800D01*
X51079400Y-38785800D02*
X50241200Y-39090600D01*
X50241200Y-39090600D02*
X48844200Y-38836600D01*
X48844200Y-38836600D02*
X47498000Y-38658800D01*
X47498000Y-38658800D02*
X45836157Y-39681889D01*
X78333600Y-33578800D02*
X73558400Y-33375600D01*
X73558400Y-33375600D02*
X72263000Y-32893000D01*
X83333743Y-91998147D02*
X80467200Y-91389200D01*
X80467200Y-91389200D02*
X78943200Y-91871800D01*
X78943200Y-91871800D02*
X76987400Y-92329000D01*
X76987400Y-92329000D02*
X75387200Y-91211400D01*
X75387200Y-91211400D02*
X73482200Y-87706200D01*
X73482200Y-87706200D02*
X70739000Y-85928200D01*
X51181000Y-86385400D02*
X49936400Y-86334600D01*
X49936400Y-86334600D02*
X48234600Y-86436200D01*
X48234600Y-86436200D02*
X45897800Y-86309200D01*
X45897800Y-86309200D02*
X42316400Y-87147400D01*
X42316400Y-87147400D02*
X39522400Y-87528400D01*
X39522400Y-87528400D02*
X38354000Y-87477600D01*
X38354000Y-87477600D02*
X36079538Y-86932596D01*
X51181000Y-86385400D02*
X55600600Y-85471000D01*
X55600600Y-85471000D02*
X57632600Y-84886800D01*
X57632600Y-84886800D02*
X61798200Y-84378800D01*
X61798200Y-84378800D02*
X66522600Y-84759800D01*
X66522600Y-84759800D02*
X69189600Y-85572600D01*
X69189600Y-85572600D02*
X70739000Y-85928200D01*
X36079538Y-86932596D02*
X36550600Y-83489800D01*
X36550600Y-83489800D02*
X38404800Y-82448400D01*
X38404800Y-82448400D02*
X39700200Y-81432400D01*
X39700200Y-81432400D02*
X40386000Y-79959200D01*
X40386000Y-79959200D02*
X40335200Y-77241400D01*
X40335200Y-77241400D02*
X39344600Y-74574400D01*
X39344600Y-74574400D02*
X38354000Y-72898000D01*
X38354000Y-72898000D02*
X40792400Y-67894200D01*
X40792400Y-67894200D02*
X43205400Y-67259200D01*
X43205400Y-67259200D02*
X45974000Y-63423800D01*
X45974000Y-63423800D02*
X46609000Y-60528200D01*
X46609000Y-60528200D02*
X47167800Y-56896000D01*
X47167800Y-56896000D02*
X50596800Y-55067200D01*
X50596800Y-55067200D02*
X52425600Y-53695600D01*
X52425600Y-53695600D02*
X51333400Y-52120800D01*
X51333400Y-52120800D02*
X50698400Y-50723800D01*
X50698400Y-50723800D02*
X50444400Y-47726600D01*
X50444400Y-47726600D02*
X49301400Y-45466000D01*
X49301400Y-45466000D02*
X46532800Y-43027600D01*
X46532800Y-43027600D02*
X45897800Y-41884600D01*
X45897800Y-41884600D02*
X45897800Y-41478200D01*
X45897800Y-41478200D02*
X45836157Y-39681889D01*
X68134662Y-34005422D02*
X62560200Y-32486600D01*
X62560200Y-32486600D02*
X57454800Y-30048200D01*
X57454800Y-30048200D02*
X54813200Y-30683200D01*
X54813200Y-30683200D02*
X49936400Y-31546800D01*
X49936400Y-31546800D02*
X45212000Y-31445200D01*
X45212000Y-31445200D02*
X41732200Y-30657800D01*
X41732200Y-30657800D02*
X39852600Y-29972000D01*
X39852600Y-29972000D02*
X38836600Y-29997400D01*
X38836600Y-29997400D02*
X37261800Y-30429200D01*
X37261800Y-30429200D02*
X35509200Y-31775400D01*
X35509200Y-31775400D02*
X34036000Y-33959800D01*
X34036000Y-33959800D02*
X33959800Y-36245800D01*
X33959800Y-36245800D02*
X35915600Y-38862000D01*
X35915600Y-38862000D02*
X38227000Y-40894000D01*
X38227000Y-40894000D02*
X40487600Y-42291000D01*
X40487600Y-42291000D02*
X41402000Y-43053000D01*
X41402000Y-43053000D02*
X42164000Y-44475400D01*
X42164000Y-44475400D02*
X42026157Y-46281003D01*
X40977580Y-92769854D02*
X44094400Y-92938600D01*
X44094400Y-92938600D02*
X46075600Y-91109800D01*
X46075600Y-91109800D02*
X47726600Y-89535000D01*
X47726600Y-89535000D02*
X49707800Y-89763600D01*
X49707800Y-89763600D02*
X52273200Y-89712800D01*
X52273200Y-89712800D02*
X54381400Y-88671400D01*
X54381400Y-88671400D02*
X55981600Y-88036400D01*
X55981600Y-88036400D02*
X58013600Y-88646000D01*
X58013600Y-88646000D02*
X60985400Y-89154000D01*
X60985400Y-89154000D02*
X62738000Y-89255600D01*
X62738000Y-89255600D02*
X67030600Y-89484200D01*
X67030600Y-89484200D02*
X70561200Y-92354400D01*
X70561200Y-92354400D02*
X72898000Y-94310200D01*
X72898000Y-94310200D02*
X75412600Y-94589600D01*
X75412600Y-94589600D02*
X77368400Y-96113600D01*
X77368400Y-96113600D02*
X79806800Y-98933000D01*
X79806800Y-98933000D02*
X81330800Y-101168200D01*
X81330800Y-101168200D02*
X83439000Y-101828600D01*
X83439000Y-101828600D02*
X85217000Y-100863400D01*
X85217000Y-100863400D02*
X86791800Y-100406200D01*
X86791800Y-100406200D02*
X87807800Y-100406200D01*
X87807800Y-100406200D02*
X88976200Y-99771200D01*
X88976200Y-99771200D02*
X90322400Y-96697800D01*
X90322400Y-96697800D02*
X89865200Y-93268800D01*
X89865200Y-93268800D02*
X89077800Y-91211400D01*
X89077800Y-91211400D02*
X88595200Y-90017600D01*
X88595200Y-90017600D02*
X88747600Y-89128600D01*
X88747600Y-89128600D02*
X89932857Y-88188147D01*
X89932857Y-88188147D02*
X96291400Y-84023200D01*
X96291400Y-84023200D02*
X94615000Y-76377800D01*
X94615000Y-76377800D02*
X93370400Y-69697600D01*
X93370400Y-69697600D02*
X88900000Y-66497200D01*
X88900000Y-66497200D02*
X88900000Y-61341000D01*
X88900000Y-61341000D02*
X87249000Y-44119800D01*
X87249000Y-44119800D02*
X79070200Y-42240200D01*
X79070200Y-42240200D02*
X71678800Y-41833800D01*
X71678800Y-41833800D02*
X70497968Y-40580650D01*
D19*
X32188033Y-90197957D02*
X31532483Y-87923023D01*
X31532483Y-87923023D02*
X30116165Y-86100768D01*
X30116165Y-86100768D02*
X28611689Y-84750375D01*
X28611689Y-84750375D02*
X27050994Y-84083776D01*
X27050994Y-84083776D02*
X25109194Y-83239601D01*
X85873743Y-96397557D02*
X83284825Y-97780817D01*
X82008579Y-98696379D02*
X83284825Y-97780817D01*
X58836560Y-49494440D02*
X55829200Y-48717200D01*
X55829200Y-48717200D02*
X55829200Y-48717200D01*
X57922007Y-55882342D02*
X52622413Y-50990943D01*
X48437800Y-81198914D02*
X52603400Y-80462314D01*
X35687000Y-91084400D02*
X32740600Y-92024200D01*
X32740600Y-92024200D02*
X31800800Y-92024200D01*
X31800800Y-92024200D02*
X30242280Y-91830637D01*
X48743666Y-84701571D02*
X52857400Y-82981800D01*
X52857400Y-82981800D02*
X54457600Y-82118200D01*
X54457600Y-82118200D02*
X56286400Y-81864200D01*
X56286400Y-81864200D02*
X58140600Y-81864200D01*
X58140600Y-81864200D02*
X59389358Y-82240459D01*
X87143743Y-98597260D02*
X88290400Y-96240600D01*
X88290400Y-96240600D02*
X86563200Y-91490800D01*
X86563200Y-91490800D02*
X85217000Y-89585800D01*
X85217000Y-89585800D02*
X86995000Y-85598000D01*
X86995000Y-85598000D02*
X87782400Y-85013800D01*
X87782400Y-85013800D02*
X88569800Y-84632800D01*
X88569800Y-84632800D02*
X88976200Y-83845400D01*
X88976200Y-83845400D02*
X88823800Y-82194400D01*
X88823800Y-82194400D02*
X88087200Y-81635600D01*
X88087200Y-81635600D02*
X86868000Y-80365600D01*
X86868000Y-80365600D02*
X84124800Y-78943200D01*
X84124800Y-78943200D02*
X82321400Y-78511400D01*
X82321400Y-78511400D02*
X79227486Y-77901800D01*
X92472857Y-92587556D02*
X99212400Y-89382600D01*
X99212400Y-89382600D02*
X99212400Y-89382600D01*
X70789800Y-61112400D02*
X75006200Y-61468000D01*
X75006200Y-61468000D02*
X81838800Y-64389000D01*
X81838800Y-64389000D02*
X87147400Y-68453000D01*
X87147400Y-68453000D02*
X90779600Y-72440800D01*
X90779600Y-72440800D02*
X92532200Y-76301600D01*
X92532200Y-76301600D02*
X93472000Y-80365600D01*
X93472000Y-80365600D02*
X93853000Y-83286600D01*
X93853000Y-83286600D02*
X93853000Y-83286600D01*
X60325000Y-73507600D02*
X64008000Y-68986400D01*
X64008000Y-68986400D02*
X65913000Y-65227200D01*
X65913000Y-65227200D02*
X67360800Y-63017400D01*
X87392857Y-83788738D02*
X82372200Y-83286600D01*
X82372200Y-83286600D02*
X79527400Y-83159600D01*
X79527400Y-83159600D02*
X77241400Y-82321400D01*
X77241400Y-82321400D02*
X75107800Y-80949800D01*
X75107800Y-80949800D02*
X73914000Y-81762600D01*
X73914000Y-81762600D02*
X73914000Y-81762600D01*
X70078600Y-68224400D02*
X72440800Y-66065400D01*
X72440800Y-66065400D02*
X75285600Y-64566800D01*
X75285600Y-64566800D02*
X79044800Y-65557400D01*
X79044800Y-65557400D02*
X83642200Y-68656200D01*
X83642200Y-68656200D02*
X87071200Y-72263000D01*
X87071200Y-72263000D02*
X89154000Y-74472800D01*
X89154000Y-74472800D02*
X90728800Y-78079600D01*
X90728800Y-78079600D02*
X90678000Y-80873600D01*
X90678000Y-80873600D02*
X90779600Y-83286600D01*
X90779600Y-83286600D02*
X91111953Y-84650741D01*
M02*
