G04 #@! TF.GenerationSoftware,KiCad,Pcbnew,(5.1.2-1)-1*
G04 #@! TF.CreationDate,2021-05-20T21:43:18-04:00*
G04 #@! TF.ProjectId,B_to_UHJ_Converter,425f746f-5f55-4484-9a5f-436f6e766572,rev?*
G04 #@! TF.SameCoordinates,Original*
G04 #@! TF.FileFunction,Legend,Top*
G04 #@! TF.FilePolarity,Positive*
%FSLAX46Y46*%
G04 Gerber Fmt 4.6, Leading zero omitted, Abs format (unit mm)*
G04 Created by KiCad (PCBNEW (5.1.2-1)-1) date 2021-05-20 21:43:18*
%MOMM*%
%LPD*%
G04 APERTURE LIST*
%ADD10C,0.350000*%
%ADD11C,0.150000*%
%ADD12C,0.120000*%
G04 APERTURE END LIST*
D10*
X99339400Y-51993800D02*
X103327200Y-51714400D01*
X97078800Y-56972200D02*
X97078800Y-56007000D01*
X99822000Y-59029600D02*
X97078800Y-56972200D01*
X100711000Y-57556400D02*
X99822000Y-59029600D01*
X100711000Y-51993800D02*
X100711000Y-57556400D01*
X96012000Y-59512200D02*
X96012000Y-51206400D01*
X96012000Y-55016400D02*
X96012000Y-59512200D01*
X94157800Y-54635400D02*
X96012000Y-55016400D01*
X94157800Y-59131200D02*
X94157800Y-54635400D01*
X94157800Y-52298600D02*
X94157800Y-59131200D01*
X92684600Y-57073800D02*
X92684600Y-52298600D01*
X91236800Y-58039000D02*
X92684600Y-57073800D01*
X89179400Y-57962800D02*
X91236800Y-58039000D01*
X89179400Y-52197000D02*
X89179400Y-57962800D01*
X96316800Y-45059600D02*
X95326200Y-44958000D01*
X96316800Y-47117000D02*
X96316800Y-45059600D01*
X94056200Y-48082200D02*
X96316800Y-47117000D01*
X92887800Y-45745400D02*
X94056200Y-48082200D01*
X95326200Y-44780200D02*
X92887800Y-45745400D01*
X88976200Y-44678600D02*
X91236800Y-44272200D01*
X89560400Y-44475400D02*
X89560400Y-48183800D01*
X92405200Y-40182800D02*
X100025200Y-40182800D01*
X89179400Y-37058600D02*
X86842600Y-35687000D01*
X90043000Y-38023800D02*
X89179400Y-37058600D01*
X90043000Y-39014400D02*
X90043000Y-38023800D01*
X87122000Y-39776400D02*
X90043000Y-39014400D01*
X89281000Y-40868600D02*
X87122000Y-39776400D01*
X89281000Y-42621200D02*
X89281000Y-40868600D01*
X86639400Y-43205400D02*
X89281000Y-42621200D01*
X87020400Y-35788600D02*
X86639400Y-43205400D01*
X92303600Y-24561800D02*
X95910400Y-24358600D01*
X91516200Y-30708600D02*
X96316800Y-30708600D01*
X94157800Y-30708600D02*
X91516200Y-30708600D01*
X94157800Y-24358600D02*
X94157800Y-30708600D01*
X87909400Y-21031200D02*
X84201000Y-20345400D01*
X87909400Y-21920200D02*
X87909400Y-21031200D01*
X84582000Y-23672800D02*
X87909400Y-21920200D01*
X87020400Y-23469600D02*
X84582000Y-23672800D01*
X88493600Y-25323800D02*
X87020400Y-23469600D01*
X84480400Y-27863800D02*
X88493600Y-25323800D01*
X84480400Y-20167600D02*
X84480400Y-27863800D01*
X80670400Y-15468600D02*
X80670400Y-22199600D01*
X77952600Y-19177000D02*
X80670400Y-15468600D01*
X76098400Y-15087600D02*
X77952600Y-19177000D01*
X75107800Y-21437600D02*
X76098400Y-15087600D01*
X71602600Y-18211800D02*
X67589400Y-17526000D01*
X72466200Y-21717000D02*
X71602600Y-18211800D01*
X70434200Y-13944600D02*
X72466200Y-21717000D01*
X67691000Y-20828000D02*
X70434200Y-13944600D01*
D11*
X67475409Y-25395180D02*
X67475409Y-24395180D01*
X67856361Y-24395180D01*
X67951600Y-24442800D01*
X67999219Y-24490419D01*
X68046838Y-24585657D01*
X68046838Y-24728514D01*
X67999219Y-24823752D01*
X67951600Y-24871371D01*
X67856361Y-24918990D01*
X67475409Y-24918990D01*
X68380171Y-24395180D02*
X68618266Y-25395180D01*
X68808742Y-24680895D01*
X68999219Y-25395180D01*
X69237314Y-24395180D01*
X70189695Y-25395180D02*
X69856361Y-24918990D01*
X69618266Y-25395180D02*
X69618266Y-24395180D01*
X69999219Y-24395180D01*
X70094457Y-24442800D01*
X70142076Y-24490419D01*
X70189695Y-24585657D01*
X70189695Y-24728514D01*
X70142076Y-24823752D01*
X70094457Y-24871371D01*
X69999219Y-24918990D01*
X69618266Y-24918990D01*
X70380171Y-25490419D02*
X71142076Y-25490419D01*
X71380171Y-25395180D02*
X71380171Y-24395180D01*
X71856361Y-25395180D02*
X71856361Y-24395180D01*
X72427790Y-25395180D01*
X72427790Y-24395180D01*
X78575304Y-62691971D02*
X78718161Y-62739590D01*
X78765780Y-62787209D01*
X78813400Y-62882447D01*
X78813400Y-63025304D01*
X78765780Y-63120542D01*
X78718161Y-63168161D01*
X78622923Y-63215780D01*
X78241971Y-63215780D01*
X78241971Y-62215780D01*
X78575304Y-62215780D01*
X78670542Y-62263400D01*
X78718161Y-62311019D01*
X78765780Y-62406257D01*
X78765780Y-62501495D01*
X78718161Y-62596733D01*
X78670542Y-62644352D01*
X78575304Y-62691971D01*
X78241971Y-62691971D01*
X79003876Y-63311019D02*
X79765780Y-63311019D01*
X80337209Y-62691971D02*
X80003876Y-62691971D01*
X80003876Y-63215780D02*
X80003876Y-62215780D01*
X80480066Y-62215780D01*
X81003876Y-63215780D02*
X80908638Y-63168161D01*
X80861019Y-63120542D01*
X80813400Y-63025304D01*
X80813400Y-62739590D01*
X80861019Y-62644352D01*
X80908638Y-62596733D01*
X81003876Y-62549114D01*
X81146733Y-62549114D01*
X81241971Y-62596733D01*
X81289590Y-62644352D01*
X81337209Y-62739590D01*
X81337209Y-63025304D01*
X81289590Y-63120542D01*
X81241971Y-63168161D01*
X81146733Y-63215780D01*
X81003876Y-63215780D01*
X81765780Y-63215780D02*
X81765780Y-62549114D01*
X81765780Y-62739590D02*
X81813400Y-62644352D01*
X81861019Y-62596733D01*
X81956257Y-62549114D01*
X82051495Y-62549114D01*
X82384828Y-63215780D02*
X82384828Y-62549114D01*
X82384828Y-62644352D02*
X82432447Y-62596733D01*
X82527685Y-62549114D01*
X82670542Y-62549114D01*
X82765780Y-62596733D01*
X82813400Y-62691971D01*
X82813400Y-63215780D01*
X82813400Y-62691971D02*
X82861019Y-62596733D01*
X82956257Y-62549114D01*
X83099114Y-62549114D01*
X83194352Y-62596733D01*
X83241971Y-62691971D01*
X83241971Y-63215780D01*
X83480066Y-63311019D02*
X84241971Y-63311019D01*
X84480066Y-63215780D02*
X84480066Y-62215780D01*
X84956257Y-62549114D02*
X84956257Y-63215780D01*
X84956257Y-62644352D02*
X85003876Y-62596733D01*
X85099114Y-62549114D01*
X85241971Y-62549114D01*
X85337209Y-62596733D01*
X85384828Y-62691971D01*
X85384828Y-63215780D01*
X92000866Y-73810761D02*
X92143723Y-73858380D01*
X92381819Y-73858380D01*
X92477057Y-73810761D01*
X92524676Y-73763142D01*
X92572295Y-73667904D01*
X92572295Y-73572666D01*
X92524676Y-73477428D01*
X92477057Y-73429809D01*
X92381819Y-73382190D01*
X92191342Y-73334571D01*
X92096104Y-73286952D01*
X92048485Y-73239333D01*
X92000866Y-73144095D01*
X92000866Y-73048857D01*
X92048485Y-72953619D01*
X92096104Y-72906000D01*
X92191342Y-72858380D01*
X92429438Y-72858380D01*
X92572295Y-72906000D01*
X92858009Y-73191714D02*
X93238961Y-73191714D01*
X93000866Y-72858380D02*
X93000866Y-73715523D01*
X93048485Y-73810761D01*
X93143723Y-73858380D01*
X93238961Y-73858380D01*
X93953247Y-73810761D02*
X93858009Y-73858380D01*
X93667533Y-73858380D01*
X93572295Y-73810761D01*
X93524676Y-73715523D01*
X93524676Y-73334571D01*
X93572295Y-73239333D01*
X93667533Y-73191714D01*
X93858009Y-73191714D01*
X93953247Y-73239333D01*
X94000866Y-73334571D01*
X94000866Y-73429809D01*
X93524676Y-73525047D01*
X94429438Y-73858380D02*
X94429438Y-73191714D01*
X94429438Y-73382190D02*
X94477057Y-73286952D01*
X94524676Y-73239333D01*
X94619914Y-73191714D01*
X94715152Y-73191714D01*
X95429438Y-73810761D02*
X95334200Y-73858380D01*
X95143723Y-73858380D01*
X95048485Y-73810761D01*
X95000866Y-73715523D01*
X95000866Y-73334571D01*
X95048485Y-73239333D01*
X95143723Y-73191714D01*
X95334200Y-73191714D01*
X95429438Y-73239333D01*
X95477057Y-73334571D01*
X95477057Y-73429809D01*
X95000866Y-73525047D01*
X96048485Y-73858380D02*
X95953247Y-73810761D01*
X95905628Y-73763142D01*
X95858009Y-73667904D01*
X95858009Y-73382190D01*
X95905628Y-73286952D01*
X95953247Y-73239333D01*
X96048485Y-73191714D01*
X96191342Y-73191714D01*
X96286580Y-73239333D01*
X96334200Y-73286952D01*
X96381819Y-73382190D01*
X96381819Y-73667904D01*
X96334200Y-73763142D01*
X96286580Y-73810761D01*
X96191342Y-73858380D01*
X96048485Y-73858380D01*
X96572295Y-73953619D02*
X97334200Y-73953619D01*
X97762771Y-72858380D02*
X97953247Y-72858380D01*
X98048485Y-72906000D01*
X98143723Y-73001238D01*
X98191342Y-73191714D01*
X98191342Y-73525047D01*
X98143723Y-73715523D01*
X98048485Y-73810761D01*
X97953247Y-73858380D01*
X97762771Y-73858380D01*
X97667533Y-73810761D01*
X97572295Y-73715523D01*
X97524676Y-73525047D01*
X97524676Y-73191714D01*
X97572295Y-73001238D01*
X97667533Y-72906000D01*
X97762771Y-72858380D01*
X99048485Y-73191714D02*
X99048485Y-73858380D01*
X98619914Y-73191714D02*
X98619914Y-73715523D01*
X98667533Y-73810761D01*
X98762771Y-73858380D01*
X98905628Y-73858380D01*
X99000866Y-73810761D01*
X99048485Y-73763142D01*
X99381819Y-73191714D02*
X99762771Y-73191714D01*
X99524676Y-72858380D02*
X99524676Y-73715523D01*
X99572295Y-73810761D01*
X99667533Y-73858380D01*
X99762771Y-73858380D01*
X86257328Y-87807041D02*
X86543042Y-88301913D01*
X85534159Y-88554477D02*
X86400185Y-88054477D01*
X86081778Y-89502981D02*
X85843683Y-89090588D01*
X86709709Y-88590588D01*
X87209709Y-89456613D02*
X87257328Y-89539092D01*
X87263707Y-89645380D01*
X87246278Y-89710429D01*
X87187609Y-89799287D01*
X87046461Y-89935764D01*
X86840264Y-90054812D01*
X86651498Y-90108811D01*
X86545209Y-90115191D01*
X86480161Y-90097761D01*
X86391302Y-90039092D01*
X86343683Y-89956613D01*
X86337304Y-89850325D01*
X86354733Y-89785276D01*
X86413402Y-89696418D01*
X86554550Y-89559940D01*
X86760747Y-89440893D01*
X86949513Y-89386894D01*
X87055801Y-89380514D01*
X87120850Y-89397944D01*
X87209709Y-89456613D01*
X87543042Y-90033963D02*
X87876375Y-90611314D01*
X86796064Y-90740160D01*
X87992462Y-91479048D02*
X87415112Y-91812382D01*
X88203329Y-91082376D02*
X87465692Y-91233322D01*
X87775216Y-91769433D01*
X36581912Y-90985597D02*
X37019652Y-90618289D01*
X37443570Y-91567987D02*
X36800782Y-90801943D01*
X38282571Y-90863982D02*
X37917788Y-91170071D01*
X37275000Y-90404027D01*
X38041044Y-89761239D02*
X38114001Y-89700021D01*
X38217567Y-89675282D01*
X38284654Y-89681151D01*
X38382350Y-89723499D01*
X38541264Y-89838803D01*
X38694309Y-90021195D01*
X38780266Y-90197717D01*
X38805006Y-90301282D01*
X38799136Y-90368370D01*
X38756789Y-90466066D01*
X38683832Y-90527284D01*
X38580266Y-90552023D01*
X38513179Y-90546154D01*
X38415483Y-90503806D01*
X38256569Y-90388502D01*
X38103524Y-90206110D01*
X38017567Y-90029588D01*
X37992827Y-89926023D01*
X37998697Y-89858935D01*
X38041044Y-89761239D01*
X38551741Y-89332714D02*
X39062437Y-88904189D01*
X39376920Y-89945714D01*
X39896831Y-88639185D02*
X40325356Y-89149882D01*
X39469568Y-88500404D02*
X39746310Y-89200623D01*
X40220528Y-88802707D01*
X42355260Y-41366824D02*
X42850132Y-41652538D01*
X42102696Y-42375706D02*
X42602696Y-41509681D01*
X43051200Y-42923325D02*
X42638807Y-42685230D01*
X43138807Y-41819205D01*
X44004832Y-42319205D02*
X44087311Y-42366824D01*
X44145980Y-42455682D01*
X44163410Y-42520731D01*
X44157030Y-42627019D01*
X44103031Y-42815786D01*
X43983983Y-43021982D01*
X43847506Y-43163130D01*
X43758648Y-43221799D01*
X43693599Y-43239229D01*
X43587311Y-43232849D01*
X43504832Y-43185230D01*
X43446163Y-43096372D01*
X43428733Y-43031323D01*
X43435113Y-42925035D01*
X43489112Y-42736268D01*
X43608159Y-42530071D01*
X43744637Y-42388924D01*
X43833495Y-42330255D01*
X43898544Y-42312825D01*
X44004832Y-42319205D01*
X44582182Y-42652538D02*
X45159533Y-42985871D01*
X44288379Y-43637611D01*
X45693934Y-43679308D02*
X45360601Y-44256659D01*
X45678214Y-43230346D02*
X45114874Y-43729888D01*
X45650985Y-44039412D01*
D12*
X25972329Y-82447012D02*
X26085196Y-82136913D01*
X26085196Y-82136913D02*
X32230785Y-84373725D01*
X32230785Y-84373725D02*
X32117919Y-84683823D01*
X25260927Y-84401572D02*
X25148060Y-84711671D01*
X25148060Y-84711671D02*
X31293650Y-86948483D01*
X31293650Y-86948483D02*
X31406517Y-86638384D01*
X86579670Y-79720258D02*
X77676929Y-84860258D01*
X95589670Y-95326035D02*
X86579670Y-79720258D01*
X86686929Y-100466035D02*
X95589670Y-95326035D01*
X77676929Y-84860258D02*
X86686929Y-100466035D01*
X84453267Y-81017219D02*
X83024325Y-81842219D01*
X93403267Y-96519074D02*
X84453267Y-81017219D01*
X88813332Y-99169074D02*
X93403267Y-96519074D01*
X79863332Y-83667219D02*
X88813332Y-99169074D01*
X81292274Y-82842219D02*
X79863332Y-83667219D01*
X83024326Y-81842219D02*
G75*
G02X81292274Y-82842219I-866026J-500000D01*
G01*
X48734548Y-87997177D02*
X42126691Y-80122240D01*
X34930427Y-99580210D02*
X48734548Y-87997177D01*
X28322570Y-91705273D02*
X34930427Y-99580210D01*
X42126691Y-80122240D02*
X28322570Y-91705273D01*
X47088044Y-86128294D02*
X46027445Y-84864320D01*
X33375849Y-97634192D02*
X47088044Y-86128294D01*
X29969074Y-93574156D02*
X33375849Y-97634192D01*
X43681270Y-82068258D02*
X29969074Y-93574156D01*
X44741869Y-83332231D02*
X43681270Y-82068258D01*
X46027445Y-84864321D02*
G75*
G02X44741869Y-83332231I-642788J766045D01*
G01*
X59175135Y-27042065D02*
X61548045Y-28412065D01*
X55555135Y-33312088D02*
X57928045Y-34682088D01*
X57928045Y-34682088D02*
X61548045Y-28412065D01*
X55555135Y-33312088D02*
X59175135Y-27042065D01*
X31439557Y-57617014D02*
X28741184Y-58092810D01*
X30182345Y-50487006D02*
X27483971Y-50962802D01*
X27483971Y-50962802D02*
X28741184Y-58092810D01*
X30182345Y-50487006D02*
X31439557Y-57617014D01*
X28517475Y-71694317D02*
X30616437Y-69933079D01*
X33171257Y-77240479D02*
X35270219Y-75479241D01*
X35270219Y-75479241D02*
X30616437Y-69933079D01*
X33171257Y-77240479D02*
X28517475Y-71694317D01*
X48539106Y-107359144D02*
X48539106Y-110099144D01*
X41299106Y-107359144D02*
X41299106Y-110099144D01*
X41299106Y-110099144D02*
X48539106Y-110099144D01*
X41299106Y-107359144D02*
X48539106Y-107359144D01*
X72829496Y-89377256D02*
X74199496Y-91750166D01*
X66559473Y-92997256D02*
X67929473Y-95370166D01*
X67929473Y-95370166D02*
X74199496Y-91750166D01*
X66559473Y-92997256D02*
X72829496Y-89377256D01*
X64805189Y-27607711D02*
X57675181Y-26350498D01*
X65280985Y-24909337D02*
X58150977Y-23652125D01*
X64805189Y-27607711D02*
X65280985Y-24909337D01*
X57675181Y-26350498D02*
X58150977Y-23652125D01*
X26092291Y-48625718D02*
X18962283Y-47368505D01*
X26568087Y-45927344D02*
X19438079Y-44670132D01*
X26092291Y-48625718D02*
X26568087Y-45927344D01*
X18962283Y-47368505D02*
X19438079Y-44670132D01*
X32087992Y-65943105D02*
X27434210Y-71489267D01*
X29989030Y-64181867D02*
X25335248Y-69728029D01*
X32087992Y-65943105D02*
X29989030Y-64181867D01*
X27434210Y-71489267D02*
X25335248Y-69728029D01*
X37563873Y-106582949D02*
X33943873Y-112852972D01*
X35190963Y-105212949D02*
X31570963Y-111482972D01*
X37563873Y-106582949D02*
X35190963Y-105212949D01*
X33943873Y-112852972D02*
X31570963Y-111482972D01*
X61302173Y-89528549D02*
X64922173Y-95798572D01*
X58929263Y-90898549D02*
X62549263Y-97168572D01*
X61302173Y-89528549D02*
X58929263Y-90898549D01*
X64922173Y-95798572D02*
X62549263Y-97168572D01*
X51285687Y-21021669D02*
X50348552Y-23596427D01*
X44482313Y-18545444D02*
X43545178Y-21120201D01*
X43545178Y-21120201D02*
X50348552Y-23596427D01*
X44482313Y-18545444D02*
X51285687Y-21021669D01*
X40052330Y-64174569D02*
X37679420Y-62804569D01*
X43672330Y-57904546D02*
X41299420Y-56534546D01*
X41299420Y-56534546D02*
X37679420Y-62804569D01*
X43672330Y-57904546D02*
X40052330Y-64174569D01*
X20888719Y-73382376D02*
X23261629Y-74752376D01*
X17268719Y-79652399D02*
X19641629Y-81022399D01*
X19641629Y-81022399D02*
X23261629Y-74752376D01*
X17268719Y-79652399D02*
X20888719Y-73382376D01*
X51504491Y-100848449D02*
X48764491Y-100848449D01*
X51504491Y-93608449D02*
X48764491Y-93608449D01*
X48764491Y-93608449D02*
X48764491Y-100848449D01*
X51504491Y-93608449D02*
X51504491Y-100848449D01*
X69115595Y-103939314D02*
X71488505Y-102569314D01*
X72735595Y-110209337D02*
X75108505Y-108839337D01*
X75108505Y-108839337D02*
X71488505Y-102569314D01*
X72735595Y-110209337D02*
X69115595Y-103939314D01*
X38706793Y-26725958D02*
X31576785Y-25468745D01*
X39182589Y-24027584D02*
X32052581Y-22770372D01*
X38706793Y-26725958D02*
X39182589Y-24027584D01*
X31576785Y-25468745D02*
X32052581Y-22770372D01*
X37212023Y-68600426D02*
X33592023Y-62330403D01*
X39584933Y-67230426D02*
X35964933Y-60960403D01*
X37212023Y-68600426D02*
X39584933Y-67230426D01*
X33592023Y-62330403D02*
X35964933Y-60960403D01*
X22276699Y-87771675D02*
X18656699Y-94041698D01*
X19903789Y-86401675D02*
X16283789Y-92671698D01*
X22276699Y-87771675D02*
X19903789Y-86401675D01*
X18656699Y-94041698D02*
X16283789Y-92671698D01*
X60528235Y-103930778D02*
X53724861Y-106407004D01*
X59591100Y-101356021D02*
X52787726Y-103832246D01*
X60528235Y-103930778D02*
X59591100Y-101356021D01*
X53724861Y-106407004D02*
X52787726Y-103832246D01*
X83538994Y-107110903D02*
X89085156Y-111764685D01*
X81777756Y-109209865D02*
X87323918Y-113863647D01*
X83538994Y-107110903D02*
X81777756Y-109209865D01*
X89085156Y-111764685D02*
X87323918Y-113863647D01*
X76179600Y-35514041D02*
X76809600Y-35514041D01*
X76494600Y-35829041D02*
X76494600Y-35199041D01*
X77931600Y-29087800D02*
X78735600Y-29087800D01*
X77700600Y-29127800D02*
X78966600Y-29127800D01*
X77531600Y-29167800D02*
X79135600Y-29167800D01*
X77393600Y-29207800D02*
X79273600Y-29207800D01*
X77274600Y-29247800D02*
X79392600Y-29247800D01*
X77168600Y-29287800D02*
X79498600Y-29287800D01*
X77071600Y-29327800D02*
X79595600Y-29327800D01*
X76983600Y-29367800D02*
X79683600Y-29367800D01*
X76901600Y-29407800D02*
X79765600Y-29407800D01*
X76824600Y-29447800D02*
X79842600Y-29447800D01*
X76752600Y-29487800D02*
X79914600Y-29487800D01*
X76683600Y-29527800D02*
X79983600Y-29527800D01*
X76619600Y-29567800D02*
X80047600Y-29567800D01*
X76557600Y-29607800D02*
X80109600Y-29607800D01*
X76499600Y-29647800D02*
X80167600Y-29647800D01*
X76443600Y-29687800D02*
X80223600Y-29687800D01*
X76389600Y-29727800D02*
X80277600Y-29727800D01*
X76338600Y-29767800D02*
X80328600Y-29767800D01*
X76289600Y-29807800D02*
X80377600Y-29807800D01*
X76241600Y-29847800D02*
X80425600Y-29847800D01*
X76196600Y-29887800D02*
X80470600Y-29887800D01*
X76151600Y-29927800D02*
X80515600Y-29927800D01*
X76109600Y-29967800D02*
X80557600Y-29967800D01*
X76068600Y-30007800D02*
X80598600Y-30007800D01*
X79373600Y-30047800D02*
X80638600Y-30047800D01*
X76028600Y-30047800D02*
X77293600Y-30047800D01*
X79373600Y-30087800D02*
X80676600Y-30087800D01*
X75990600Y-30087800D02*
X77293600Y-30087800D01*
X79373600Y-30127800D02*
X80713600Y-30127800D01*
X75953600Y-30127800D02*
X77293600Y-30127800D01*
X79373600Y-30167800D02*
X80749600Y-30167800D01*
X75917600Y-30167800D02*
X77293600Y-30167800D01*
X79373600Y-30207800D02*
X80783600Y-30207800D01*
X75883600Y-30207800D02*
X77293600Y-30207800D01*
X79373600Y-30247800D02*
X80817600Y-30247800D01*
X75849600Y-30247800D02*
X77293600Y-30247800D01*
X79373600Y-30287800D02*
X80849600Y-30287800D01*
X75817600Y-30287800D02*
X77293600Y-30287800D01*
X79373600Y-30327800D02*
X80881600Y-30327800D01*
X75785600Y-30327800D02*
X77293600Y-30327800D01*
X79373600Y-30367800D02*
X80911600Y-30367800D01*
X75755600Y-30367800D02*
X77293600Y-30367800D01*
X79373600Y-30407800D02*
X80940600Y-30407800D01*
X75726600Y-30407800D02*
X77293600Y-30407800D01*
X79373600Y-30447800D02*
X80969600Y-30447800D01*
X75697600Y-30447800D02*
X77293600Y-30447800D01*
X79373600Y-30487800D02*
X80997600Y-30487800D01*
X75669600Y-30487800D02*
X77293600Y-30487800D01*
X79373600Y-30527800D02*
X81023600Y-30527800D01*
X75643600Y-30527800D02*
X77293600Y-30527800D01*
X79373600Y-30567800D02*
X81049600Y-30567800D01*
X75617600Y-30567800D02*
X77293600Y-30567800D01*
X79373600Y-30607800D02*
X81075600Y-30607800D01*
X75591600Y-30607800D02*
X77293600Y-30607800D01*
X79373600Y-30647800D02*
X81099600Y-30647800D01*
X75567600Y-30647800D02*
X77293600Y-30647800D01*
X79373600Y-30687800D02*
X81123600Y-30687800D01*
X75543600Y-30687800D02*
X77293600Y-30687800D01*
X79373600Y-30727800D02*
X81145600Y-30727800D01*
X75521600Y-30727800D02*
X77293600Y-30727800D01*
X79373600Y-30767800D02*
X81167600Y-30767800D01*
X75499600Y-30767800D02*
X77293600Y-30767800D01*
X79373600Y-30807800D02*
X81189600Y-30807800D01*
X75477600Y-30807800D02*
X77293600Y-30807800D01*
X79373600Y-30847800D02*
X81209600Y-30847800D01*
X75457600Y-30847800D02*
X77293600Y-30847800D01*
X79373600Y-30887800D02*
X81229600Y-30887800D01*
X75437600Y-30887800D02*
X77293600Y-30887800D01*
X79373600Y-30927800D02*
X81249600Y-30927800D01*
X75417600Y-30927800D02*
X77293600Y-30927800D01*
X79373600Y-30967800D02*
X81267600Y-30967800D01*
X75399600Y-30967800D02*
X77293600Y-30967800D01*
X79373600Y-31007800D02*
X81285600Y-31007800D01*
X75381600Y-31007800D02*
X77293600Y-31007800D01*
X79373600Y-31047800D02*
X81303600Y-31047800D01*
X75363600Y-31047800D02*
X77293600Y-31047800D01*
X79373600Y-31087800D02*
X81319600Y-31087800D01*
X75347600Y-31087800D02*
X77293600Y-31087800D01*
X79373600Y-31127800D02*
X81335600Y-31127800D01*
X75331600Y-31127800D02*
X77293600Y-31127800D01*
X79373600Y-31167800D02*
X81351600Y-31167800D01*
X75315600Y-31167800D02*
X77293600Y-31167800D01*
X79373600Y-31207800D02*
X81366600Y-31207800D01*
X75300600Y-31207800D02*
X77293600Y-31207800D01*
X79373600Y-31247800D02*
X81380600Y-31247800D01*
X75286600Y-31247800D02*
X77293600Y-31247800D01*
X79373600Y-31287800D02*
X81394600Y-31287800D01*
X75272600Y-31287800D02*
X77293600Y-31287800D01*
X79373600Y-31327800D02*
X81407600Y-31327800D01*
X75259600Y-31327800D02*
X77293600Y-31327800D01*
X79373600Y-31367800D02*
X81419600Y-31367800D01*
X75247600Y-31367800D02*
X77293600Y-31367800D01*
X79373600Y-31407800D02*
X81431600Y-31407800D01*
X75235600Y-31407800D02*
X77293600Y-31407800D01*
X79373600Y-31447800D02*
X81443600Y-31447800D01*
X75223600Y-31447800D02*
X77293600Y-31447800D01*
X79373600Y-31487800D02*
X81454600Y-31487800D01*
X75212600Y-31487800D02*
X77293600Y-31487800D01*
X79373600Y-31527800D02*
X81464600Y-31527800D01*
X75202600Y-31527800D02*
X77293600Y-31527800D01*
X79373600Y-31567800D02*
X81474600Y-31567800D01*
X75192600Y-31567800D02*
X77293600Y-31567800D01*
X79373600Y-31607800D02*
X81483600Y-31607800D01*
X75183600Y-31607800D02*
X77293600Y-31607800D01*
X79373600Y-31648800D02*
X81492600Y-31648800D01*
X75174600Y-31648800D02*
X77293600Y-31648800D01*
X79373600Y-31688800D02*
X81500600Y-31688800D01*
X75166600Y-31688800D02*
X77293600Y-31688800D01*
X79373600Y-31728800D02*
X81508600Y-31728800D01*
X75158600Y-31728800D02*
X77293600Y-31728800D01*
X79373600Y-31768800D02*
X81515600Y-31768800D01*
X75151600Y-31768800D02*
X77293600Y-31768800D01*
X79373600Y-31808800D02*
X81522600Y-31808800D01*
X75144600Y-31808800D02*
X77293600Y-31808800D01*
X79373600Y-31848800D02*
X81528600Y-31848800D01*
X75138600Y-31848800D02*
X77293600Y-31848800D01*
X79373600Y-31888800D02*
X81534600Y-31888800D01*
X75132600Y-31888800D02*
X77293600Y-31888800D01*
X79373600Y-31928800D02*
X81539600Y-31928800D01*
X75127600Y-31928800D02*
X77293600Y-31928800D01*
X79373600Y-31968800D02*
X81544600Y-31968800D01*
X75122600Y-31968800D02*
X77293600Y-31968800D01*
X79373600Y-32008800D02*
X81548600Y-32008800D01*
X75118600Y-32008800D02*
X77293600Y-32008800D01*
X79373600Y-32048800D02*
X81551600Y-32048800D01*
X75115600Y-32048800D02*
X77293600Y-32048800D01*
X79373600Y-32088800D02*
X81555600Y-32088800D01*
X75111600Y-32088800D02*
X77293600Y-32088800D01*
X75109600Y-32128800D02*
X81557600Y-32128800D01*
X75106600Y-32168800D02*
X81560600Y-32168800D01*
X75105600Y-32208800D02*
X81561600Y-32208800D01*
X75103600Y-32248800D02*
X81563600Y-32248800D01*
X75103600Y-32288800D02*
X81563600Y-32288800D01*
X75103600Y-32328800D02*
X81563600Y-32328800D01*
X81603600Y-32328800D02*
G75*
G03X81603600Y-32328800I-3270000J0D01*
G01*
X74942584Y-40153125D02*
G75*
G03X74942584Y-40153125I-3270000J0D01*
G01*
X72777309Y-43188332D02*
X70567859Y-37117918D01*
X72739722Y-43202013D02*
X70530271Y-37131599D01*
X72702134Y-43215694D02*
X70492684Y-37145280D01*
X72663862Y-43227495D02*
X70455780Y-37160840D01*
X72625932Y-43240236D02*
X70418534Y-37175460D01*
X72587319Y-43251098D02*
X70381973Y-37191960D01*
X72549047Y-43262900D02*
X71802759Y-41212490D01*
X71091357Y-39257930D02*
X70345069Y-37207520D01*
X72510091Y-43272822D02*
X71765171Y-41226171D01*
X71053769Y-39271610D02*
X70308849Y-37224960D01*
X72471477Y-43283683D02*
X71727584Y-41239852D01*
X71016182Y-39285291D02*
X70272288Y-37241460D01*
X72432522Y-43293605D02*
X71689996Y-41253533D01*
X70978594Y-39298972D02*
X70236068Y-37258899D01*
X72393224Y-43302588D02*
X71652408Y-41267214D01*
X70941006Y-39312653D02*
X70200191Y-37277279D01*
X72353926Y-43311570D02*
X71614820Y-41280894D01*
X70903419Y-39326334D02*
X70164313Y-37295658D01*
X72314286Y-43319613D02*
X71577233Y-41294575D01*
X70865831Y-39340015D02*
X70128777Y-37314977D01*
X72274646Y-43327655D02*
X71539645Y-41308256D01*
X70828243Y-39353695D02*
X70093242Y-37334296D01*
X72234664Y-43334758D02*
X71502057Y-41321937D01*
X70790655Y-39367376D02*
X70058048Y-37354555D01*
X72194683Y-43341861D02*
X71464470Y-41335618D01*
X70753068Y-39381057D02*
X70022855Y-37374813D01*
X72154359Y-43348025D02*
X71426882Y-41349298D01*
X70715480Y-39394738D02*
X69988003Y-37396012D01*
X72114035Y-43354188D02*
X71389294Y-41362979D01*
X70677892Y-39408419D02*
X69953152Y-37417210D01*
X72072429Y-43359753D02*
X71350767Y-41377002D01*
X70639365Y-39422441D02*
X69917702Y-37439690D01*
X72031763Y-43364977D02*
X71313179Y-41390683D01*
X70601777Y-39436122D02*
X69883193Y-37461828D01*
X71990756Y-43369261D02*
X71275591Y-41404364D01*
X70564189Y-39449803D02*
X69849025Y-37484906D01*
X71949748Y-43373545D02*
X71238004Y-41418044D01*
X70526602Y-39463484D02*
X69814858Y-37507983D01*
X71908398Y-43376889D02*
X71200416Y-41431725D01*
X70489014Y-39477165D02*
X69781032Y-37532001D01*
X71866706Y-43379293D02*
X71162828Y-41445406D01*
X70451426Y-39490845D02*
X69747549Y-37556958D01*
X71825014Y-43381698D02*
X71125241Y-41459087D01*
X70413839Y-39504526D02*
X69714065Y-37581915D01*
X71783322Y-43384102D02*
X71087653Y-41472768D01*
X70376251Y-39518207D02*
X69680582Y-37606872D01*
X71741288Y-43385567D02*
X71050065Y-41486448D01*
X70338663Y-39531888D02*
X69647441Y-37632769D01*
X71698912Y-43386092D02*
X71012477Y-41500129D01*
X70301076Y-39545569D02*
X69614641Y-37659606D01*
X71656536Y-43386617D02*
X70974890Y-41513810D01*
X70263488Y-39559249D02*
X69581842Y-37686442D01*
X71613818Y-43386203D02*
X70937302Y-41527491D01*
X70225900Y-39572930D02*
X69549384Y-37714218D01*
X71570758Y-43384849D02*
X70899714Y-41541172D01*
X70188312Y-39586611D02*
X69517269Y-37742934D01*
X71527698Y-43383494D02*
X70862127Y-41554853D01*
X70150725Y-39600292D02*
X69485154Y-37771650D01*
X71484638Y-43382140D02*
X70824539Y-41568533D01*
X70113137Y-39613973D02*
X69453038Y-37800366D01*
X71440894Y-43378906D02*
X70786951Y-41582214D01*
X70075549Y-39627653D02*
X69421607Y-37830961D01*
X71397150Y-43375673D02*
X70749364Y-41595895D01*
X70037962Y-39641334D02*
X69390175Y-37861556D01*
X71353406Y-43372439D02*
X70711776Y-41609576D01*
X70000374Y-39655015D02*
X69358744Y-37892152D01*
X71308977Y-43367326D02*
X70674188Y-41623257D01*
X69962786Y-39668696D02*
X69327997Y-37924626D01*
X71264549Y-43362213D02*
X70636600Y-41636937D01*
X69925199Y-39682377D02*
X69297250Y-37957101D01*
X71220121Y-43357100D02*
X70599013Y-41650618D01*
X69887611Y-39696057D02*
X69266502Y-37989576D01*
X71175009Y-43350108D02*
X70561425Y-41664299D01*
X69850023Y-39709738D02*
X69236439Y-38023930D01*
X71129897Y-43343115D02*
X70523837Y-41677980D01*
X69812435Y-39723419D02*
X69206376Y-38058284D01*
X71084785Y-43336123D02*
X70486250Y-41691661D01*
X69774848Y-39737100D02*
X69176312Y-38092638D01*
X71038989Y-43327251D02*
X70448662Y-41705341D01*
X69737260Y-39750781D02*
X69146933Y-38128871D01*
X70993192Y-43318379D02*
X70411074Y-41719022D01*
X69699672Y-39764462D02*
X69117554Y-38165105D01*
X70946712Y-43307628D02*
X70373486Y-41732703D01*
X69662085Y-39778142D02*
X69088859Y-38203217D01*
X70900232Y-43296877D02*
X70335899Y-41746384D01*
X69624497Y-39791823D02*
X69060164Y-38241330D01*
X70853752Y-43286125D02*
X70298311Y-41760065D01*
X69586909Y-39805504D02*
X69031468Y-38279443D01*
X70806588Y-43273495D02*
X70260723Y-41773745D01*
X69549321Y-39819185D02*
X69003457Y-38319435D01*
X70759081Y-43259925D02*
X70223136Y-41787426D01*
X69511734Y-39832866D02*
X68975788Y-38360367D01*
X70711575Y-43246354D02*
X70185548Y-41801107D01*
X69474146Y-39846546D02*
X68948119Y-38401299D01*
X70663727Y-43231844D02*
X70147960Y-41814788D01*
X69436558Y-39860227D02*
X68920792Y-38443171D01*
X70615194Y-43215455D02*
X70110373Y-41828469D01*
X69398971Y-39873908D02*
X68894149Y-38486922D01*
X70566662Y-43199066D02*
X70072785Y-41842149D01*
X69361383Y-39887589D02*
X68867506Y-38530673D01*
X70517446Y-43180797D02*
X70035197Y-41855830D01*
X69323795Y-39901270D02*
X68841547Y-38576303D01*
X70468229Y-43162528D02*
X69997609Y-41869511D01*
X69286208Y-39914950D02*
X68815588Y-38621933D01*
X70418329Y-43142380D02*
X69960022Y-41883192D01*
X69248620Y-39928631D02*
X68790313Y-38669443D01*
X70368086Y-43121292D02*
X69922434Y-41896873D01*
X69211032Y-39942312D02*
X68765380Y-38717893D01*
X70317502Y-43099265D02*
X69884846Y-41910553D01*
X69173444Y-39955993D02*
X68740789Y-38767282D01*
X70266233Y-43075358D02*
X68716882Y-38818550D01*
X70214623Y-43050511D02*
X68693317Y-38870758D01*
X70162670Y-43024725D02*
X68670094Y-38923906D01*
X70109692Y-42996119D02*
X68647897Y-38979873D01*
X70056713Y-42967514D02*
X68625701Y-39035840D01*
X70002708Y-42936090D02*
X68604530Y-39094626D01*
X69948362Y-42903726D02*
X68583701Y-39154352D01*
X69893331Y-42869482D02*
X68563557Y-39215957D01*
X69837274Y-42832419D02*
X68544438Y-39280381D01*
X69780533Y-42793477D02*
X68526003Y-39346685D01*
X69723108Y-42752656D02*
X68508253Y-39414868D01*
X69664315Y-42708076D02*
X68491870Y-39486810D01*
X69604838Y-42661616D02*
X68476172Y-39560631D01*
X69543651Y-42610458D02*
X68462184Y-39639150D01*
X69481438Y-42556481D02*
X68449221Y-39720489D01*
X69417515Y-42497806D02*
X68437969Y-39806526D01*
X69351882Y-42434432D02*
X68428427Y-39897262D01*
X69284196Y-42365420D02*
X68420937Y-39993636D01*
X69213432Y-42287950D02*
X68416525Y-40098467D01*
X69139591Y-42202024D02*
X68415192Y-40211755D01*
X69061302Y-42103881D02*
X68418305Y-40337259D01*
X68976516Y-41987884D02*
X68427916Y-40480617D01*
X68881127Y-41842757D02*
X68448129Y-40653106D01*
X68764533Y-41639369D02*
X68489548Y-40883856D01*
X75590710Y-40684067D02*
X74998704Y-40899540D01*
X75402443Y-41087807D02*
X75186970Y-40495800D01*
X81522272Y-45698817D02*
X75912307Y-47740678D01*
X75912307Y-47740678D02*
X81083652Y-61948830D01*
X81083652Y-61948830D02*
X86693617Y-59906970D01*
X86693617Y-59906970D02*
X81522272Y-45698817D01*
X82644962Y-48812620D02*
X81940193Y-49069135D01*
X81940193Y-49069135D02*
X84847364Y-57056522D01*
X84847364Y-57056522D02*
X85552133Y-56800007D01*
X85552133Y-56800007D02*
X82644962Y-48812620D01*
X81516296Y-45711634D02*
X80811526Y-45968150D01*
X80811526Y-45968150D02*
X81427162Y-47659596D01*
X81427162Y-47659596D02*
X82131932Y-47403081D01*
X82131932Y-47403081D02*
X81516296Y-45711634D01*
X86065163Y-58209546D02*
X85360394Y-58466061D01*
X85360394Y-58466061D02*
X85976030Y-60157508D01*
X85976030Y-60157508D02*
X86680800Y-59900993D01*
X86680800Y-59900993D02*
X86065163Y-58209546D01*
X79401987Y-46481180D02*
X79658502Y-47185949D01*
X79658502Y-47185949D02*
X76886409Y-48194909D01*
X76886409Y-48194909D02*
X79212146Y-54584818D01*
X84566491Y-60670538D02*
X84309976Y-59965769D01*
X84309976Y-59965769D02*
X81537883Y-60974728D01*
X81537883Y-60974728D02*
X79212146Y-54584818D01*
X82123122Y-46501736D02*
X81695597Y-45327121D01*
X81695597Y-45327121D02*
X80520982Y-45754646D01*
X75287167Y-29759639D02*
X74329611Y-28956155D01*
X74483682Y-30717195D02*
X75287167Y-29759639D01*
X64871022Y-33616636D02*
X67635009Y-30322645D01*
X67130853Y-35512860D02*
X64871022Y-33616636D01*
X66648762Y-36087393D02*
X67130853Y-35512860D01*
X70398995Y-27028654D02*
X67635009Y-30322645D01*
X72658827Y-28924878D02*
X70398995Y-27028654D01*
X73140917Y-28350344D02*
X72658827Y-28924878D01*
X68372362Y-37533665D02*
X69529380Y-36154785D01*
X67797829Y-37051574D02*
X68372362Y-37533665D01*
X68954847Y-35672694D02*
X67797829Y-37051574D01*
X69529380Y-36154785D02*
X68954847Y-35672694D01*
X73707500Y-31175496D02*
X74864517Y-29796616D01*
X73132966Y-30693406D02*
X73707500Y-31175496D01*
X74289984Y-29314526D02*
X73132966Y-30693406D01*
X74864517Y-29796616D02*
X74289984Y-29314526D01*
X70493562Y-35005719D02*
X72743318Y-32324563D01*
X69919028Y-34523628D02*
X70493562Y-35005719D01*
X72168785Y-31842472D02*
X69919028Y-34523628D01*
X72743318Y-32324563D02*
X72168785Y-31842472D01*
X68373595Y-37547754D02*
X74878606Y-29795384D01*
X63800310Y-33710311D02*
X68373595Y-37547754D01*
X70305320Y-25957942D02*
X63800310Y-33710311D01*
X74878606Y-29795384D02*
X70305320Y-25957942D01*
X92025384Y-61443194D02*
X88187942Y-66016480D01*
X88187942Y-66016480D02*
X95940311Y-72521490D01*
X95940311Y-72521490D02*
X99777754Y-67948205D01*
X99777754Y-67948205D02*
X92025384Y-61443194D01*
X94554563Y-63578482D02*
X94072472Y-64153015D01*
X94072472Y-64153015D02*
X96753628Y-66402772D01*
X96753628Y-66402772D02*
X97235719Y-65828238D01*
X97235719Y-65828238D02*
X94554563Y-63578482D01*
X92026616Y-61457283D02*
X91544526Y-62031816D01*
X91544526Y-62031816D02*
X92923406Y-63188834D01*
X92923406Y-63188834D02*
X93405496Y-62614300D01*
X93405496Y-62614300D02*
X92026616Y-61457283D01*
X98384785Y-66792420D02*
X97902694Y-67366953D01*
X97902694Y-67366953D02*
X99281574Y-68523971D01*
X99281574Y-68523971D02*
X99763665Y-67949438D01*
X99763665Y-67949438D02*
X98384785Y-66792420D01*
X90580344Y-63180883D02*
X91154878Y-63662973D01*
X91154878Y-63662973D02*
X89258654Y-65922805D01*
X89258654Y-65922805D02*
X92552645Y-68686791D01*
X98317393Y-69673038D02*
X97742860Y-69190947D01*
X97742860Y-69190947D02*
X95846636Y-71450778D01*
X95846636Y-71450778D02*
X92552645Y-68686791D01*
X92947195Y-61838118D02*
X91989639Y-61034633D01*
X91989639Y-61034633D02*
X91186155Y-61992189D01*
X64108418Y-30752086D02*
X63822629Y-30587086D01*
X60838418Y-36415892D02*
X64108418Y-30752086D01*
X60552629Y-36250892D02*
X60838418Y-36415892D01*
X61735508Y-29382086D02*
X62021297Y-29547086D01*
X58465508Y-35045892D02*
X61735508Y-29382086D01*
X58751297Y-35210892D02*
X58465508Y-35045892D01*
X19471779Y-52477402D02*
X19529083Y-52152415D01*
X19529083Y-52152415D02*
X25969726Y-53288074D01*
X25969726Y-53288074D02*
X25912422Y-53613061D01*
X19110591Y-54525802D02*
X19053287Y-54850789D01*
X19053287Y-54850789D02*
X25493930Y-55986448D01*
X25493930Y-55986448D02*
X25551234Y-55661461D01*
X33374366Y-68023579D02*
X33121571Y-68235699D01*
X37578197Y-73033510D02*
X33374366Y-68023579D01*
X37325402Y-73245630D02*
X37578197Y-73033510D01*
X31275404Y-69784817D02*
X31528199Y-69572697D01*
X35479235Y-74794748D02*
X31275404Y-69784817D01*
X35732029Y-74582628D02*
X35479235Y-74794748D01*
X41951012Y-118591500D02*
X41621012Y-118591500D01*
X41621012Y-118591500D02*
X41621012Y-112051500D01*
X41621012Y-112051500D02*
X41951012Y-112051500D01*
X44031012Y-118591500D02*
X44361012Y-118591500D01*
X44361012Y-118591500D02*
X44361012Y-112051500D01*
X44361012Y-112051500D02*
X44031012Y-112051500D01*
X71326268Y-89801511D02*
X71161268Y-89515722D01*
X65662462Y-93071511D02*
X71326268Y-89801511D01*
X65497462Y-92785722D02*
X65662462Y-93071511D01*
X69956268Y-87428601D02*
X70121268Y-87714390D01*
X64292462Y-90698601D02*
X69956268Y-87428601D01*
X64457462Y-90984390D02*
X64292462Y-90698601D01*
X54094398Y-29483843D02*
X54419385Y-29426539D01*
X54419385Y-29426539D02*
X55555044Y-35867182D01*
X55555044Y-35867182D02*
X55230057Y-35924486D01*
X52045998Y-29845031D02*
X51721011Y-29902335D01*
X51721011Y-29902335D02*
X52856670Y-36342978D01*
X52856670Y-36342978D02*
X53181657Y-36285674D01*
X18745976Y-48321718D02*
X18688672Y-48646705D01*
X25186619Y-49457377D02*
X18745976Y-48321718D01*
X25129315Y-49782364D02*
X25186619Y-49457377D01*
X18270180Y-51020092D02*
X18327484Y-50695105D01*
X24710823Y-52155751D02*
X18270180Y-51020092D01*
X24768127Y-51830764D02*
X24710823Y-52155751D01*
X48977997Y-25540724D02*
X49035301Y-25865711D01*
X55418640Y-24405065D02*
X48977997Y-25540724D01*
X55475944Y-24730052D02*
X55418640Y-24405065D01*
X49453793Y-28239098D02*
X49396489Y-27914111D01*
X55894436Y-27103439D02*
X49453793Y-28239098D01*
X55837132Y-26778452D02*
X55894436Y-27103439D01*
X22699041Y-42315612D02*
X22756345Y-41990625D01*
X22756345Y-41990625D02*
X29196988Y-43126284D01*
X29196988Y-43126284D02*
X29139684Y-43451271D01*
X22337853Y-44364012D02*
X22280549Y-44688999D01*
X22280549Y-44688999D02*
X28721192Y-45824658D01*
X28721192Y-45824658D02*
X28778496Y-45499671D01*
X29135885Y-76559631D02*
X29248752Y-76249532D01*
X29248752Y-76249532D02*
X35394341Y-78486344D01*
X35394341Y-78486344D02*
X35281475Y-78796442D01*
X28424483Y-78514191D02*
X28311616Y-78824290D01*
X28311616Y-78824290D02*
X34457206Y-81061102D01*
X34457206Y-81061102D02*
X34570073Y-80751003D01*
X23287214Y-79170112D02*
X23597313Y-79282979D01*
X25524026Y-73024522D02*
X23287214Y-79170112D01*
X25834125Y-73137389D02*
X25524026Y-73024522D01*
X25861972Y-80107247D02*
X25551874Y-79994381D01*
X28098784Y-73961658D02*
X25861972Y-80107247D01*
X27788685Y-73848791D02*
X28098784Y-73961658D01*
X37626253Y-116108251D02*
X37956253Y-116108251D01*
X37626253Y-109568251D02*
X37626253Y-116108251D01*
X37956253Y-109568251D02*
X37626253Y-109568251D01*
X40366253Y-116108251D02*
X40036253Y-116108251D01*
X40366253Y-109568251D02*
X40366253Y-116108251D01*
X40036253Y-109568251D02*
X40366253Y-109568251D01*
X78613868Y-91282514D02*
X78899657Y-91447514D01*
X78899657Y-91447514D02*
X75629657Y-97111320D01*
X75629657Y-97111320D02*
X75343868Y-96946320D01*
X76812536Y-90242514D02*
X76526747Y-90077514D01*
X76526747Y-90077514D02*
X73256747Y-95741320D01*
X73256747Y-95741320D02*
X73542536Y-95906320D01*
X30576634Y-107261794D02*
X30290845Y-107096794D01*
X30290845Y-107096794D02*
X33560845Y-101432988D01*
X33560845Y-101432988D02*
X33846634Y-101597988D01*
X32377966Y-108301794D02*
X32663755Y-108466794D01*
X32663755Y-108466794D02*
X35933755Y-102802988D01*
X35933755Y-102802988D02*
X35647966Y-102637988D01*
X72102205Y-100740964D02*
X72215072Y-100430865D01*
X65956615Y-98504152D02*
X72102205Y-100740964D01*
X66069482Y-98194053D02*
X65956615Y-98504152D01*
X73039340Y-98166206D02*
X72926474Y-98476304D01*
X66893751Y-95929394D02*
X73039340Y-98166206D01*
X66780884Y-96239493D02*
X66893751Y-95929394D01*
X50515295Y-29995293D02*
X50840282Y-29937989D01*
X50840282Y-29937989D02*
X51975941Y-36378632D01*
X51975941Y-36378632D02*
X51650954Y-36435936D01*
X48466895Y-30356481D02*
X48141908Y-30413785D01*
X48141908Y-30413785D02*
X49277567Y-36854428D01*
X49277567Y-36854428D02*
X49602554Y-36797124D01*
X35066218Y-47692803D02*
X34953352Y-47382705D01*
X28920629Y-49929615D02*
X35066218Y-47692803D01*
X28807762Y-49619516D02*
X28920629Y-49929615D01*
X34129083Y-45118045D02*
X34241950Y-45428144D01*
X27983493Y-47354857D02*
X34129083Y-45118045D01*
X28096360Y-47664956D02*
X27983493Y-47354857D01*
X28086322Y-79695020D02*
X28199189Y-79384921D01*
X28199189Y-79384921D02*
X34344778Y-81621733D01*
X34344778Y-81621733D02*
X34231912Y-81931831D01*
X27374920Y-81649580D02*
X27262053Y-81959679D01*
X27262053Y-81959679D02*
X33407643Y-84196491D01*
X33407643Y-84196491D02*
X33520510Y-83886392D01*
X40780067Y-99114218D02*
X40450067Y-99114218D01*
X40780067Y-105654218D02*
X40780067Y-99114218D01*
X40450067Y-105654218D02*
X40780067Y-105654218D01*
X38040067Y-99114218D02*
X38370067Y-99114218D01*
X38040067Y-105654218D02*
X38040067Y-99114218D01*
X38370067Y-105654218D02*
X38040067Y-105654218D01*
X75607895Y-98954915D02*
X75322106Y-98789915D01*
X75322106Y-98789915D02*
X78592106Y-93126109D01*
X78592106Y-93126109D02*
X78877895Y-93291109D01*
X77409227Y-99994915D02*
X77695016Y-100159915D01*
X77695016Y-100159915D02*
X80965016Y-94496109D01*
X80965016Y-94496109D02*
X80679227Y-94331109D01*
X53434901Y-38700897D02*
X53434901Y-38370897D01*
X53434901Y-38370897D02*
X59974901Y-38370897D01*
X59974901Y-38370897D02*
X59974901Y-38700897D01*
X53434901Y-40780897D02*
X53434901Y-41110897D01*
X53434901Y-41110897D02*
X59974901Y-41110897D01*
X59974901Y-41110897D02*
X59974901Y-40780897D01*
X25041889Y-59157003D02*
X25099193Y-58832016D01*
X18601246Y-58021344D02*
X25041889Y-59157003D01*
X18658550Y-57696357D02*
X18601246Y-58021344D01*
X25517685Y-56458629D02*
X25460381Y-56783616D01*
X19077042Y-55322970D02*
X25517685Y-56458629D01*
X19019738Y-55647957D02*
X19077042Y-55322970D01*
X37537932Y-79505477D02*
X37227833Y-79392610D01*
X37227833Y-79392610D02*
X39464645Y-73247021D01*
X39464645Y-73247021D02*
X39774743Y-73359887D01*
X39492492Y-80216879D02*
X39802591Y-80329746D01*
X39802591Y-80329746D02*
X42039403Y-74184156D01*
X42039403Y-74184156D02*
X41729304Y-74071289D01*
X48089558Y-112132508D02*
X47759558Y-112132508D01*
X48089558Y-118672508D02*
X48089558Y-112132508D01*
X47759558Y-118672508D02*
X48089558Y-118672508D01*
X45349558Y-112132508D02*
X45679558Y-112132508D01*
X45349558Y-118672508D02*
X45349558Y-112132508D01*
X45679558Y-118672508D02*
X45349558Y-118672508D01*
X75351355Y-88179297D02*
X75186355Y-88465086D01*
X75186355Y-88465086D02*
X69522549Y-85195086D01*
X69522549Y-85195086D02*
X69687549Y-84909297D01*
X76391355Y-86377965D02*
X76556355Y-86092176D01*
X76556355Y-86092176D02*
X70892549Y-82822176D01*
X70892549Y-82822176D02*
X70727549Y-83107965D01*
X56461364Y-41568119D02*
X56461364Y-41898119D01*
X63001364Y-41568119D02*
X56461364Y-41568119D01*
X63001364Y-41898119D02*
X63001364Y-41568119D01*
X56461364Y-44308119D02*
X56461364Y-43978119D01*
X63001364Y-44308119D02*
X56461364Y-44308119D01*
X63001364Y-43978119D02*
X63001364Y-44308119D01*
X25728128Y-38484021D02*
X25840995Y-38173922D01*
X25840995Y-38173922D02*
X31986584Y-40410734D01*
X31986584Y-40410734D02*
X31873718Y-40720832D01*
X25016726Y-40438581D02*
X24903859Y-40748680D01*
X24903859Y-40748680D02*
X31049449Y-42985492D01*
X31049449Y-42985492D02*
X31162316Y-42675393D01*
X41199698Y-77618214D02*
X41509797Y-77731081D01*
X43436510Y-71472624D02*
X41199698Y-77618214D01*
X43746609Y-71585491D02*
X43436510Y-71472624D01*
X43774456Y-78555349D02*
X43464358Y-78442483D01*
X46011268Y-72409760D02*
X43774456Y-78555349D01*
X45701169Y-72296893D02*
X46011268Y-72409760D01*
X28008011Y-105133193D02*
X27722222Y-104968193D01*
X27722222Y-104968193D02*
X30992222Y-99304387D01*
X30992222Y-99304387D02*
X31278011Y-99469387D01*
X29809343Y-106173193D02*
X30095132Y-106338193D01*
X30095132Y-106338193D02*
X33365132Y-100674387D01*
X33365132Y-100674387D02*
X33079343Y-100509387D01*
X74287524Y-84200627D02*
X74452524Y-83914838D01*
X68623718Y-80930627D02*
X74287524Y-84200627D01*
X68788718Y-80644838D02*
X68623718Y-80930627D01*
X75657524Y-81827717D02*
X75492524Y-82113506D01*
X69993718Y-78557717D02*
X75657524Y-81827717D01*
X69828718Y-78843506D02*
X69993718Y-78557717D01*
X55708473Y-45316993D02*
X55708473Y-44986993D01*
X55708473Y-44986993D02*
X62248473Y-44986993D01*
X62248473Y-44986993D02*
X62248473Y-45316993D01*
X55708473Y-47396993D02*
X55708473Y-47726993D01*
X55708473Y-47726993D02*
X62248473Y-47726993D01*
X62248473Y-47726993D02*
X62248473Y-47396993D01*
X27241944Y-35280118D02*
X27129077Y-35590217D01*
X33387534Y-37516930D02*
X27241944Y-35280118D01*
X33274667Y-37827029D02*
X33387534Y-37516930D01*
X26304809Y-37854876D02*
X26417675Y-37544778D01*
X32450398Y-40091688D02*
X26304809Y-37854876D01*
X32563265Y-39781589D02*
X32450398Y-40091688D01*
X44355066Y-79687230D02*
X44044967Y-79574363D01*
X44044967Y-79574363D02*
X46281779Y-73428774D01*
X46281779Y-73428774D02*
X46591877Y-73541640D01*
X46309626Y-80398632D02*
X46619725Y-80511499D01*
X46619725Y-80511499D02*
X48856537Y-74365909D01*
X48856537Y-74365909D02*
X48546438Y-74253042D01*
X25532297Y-102323086D02*
X25818086Y-102488086D01*
X28802297Y-96659280D02*
X25532297Y-102323086D01*
X29088086Y-96824280D02*
X28802297Y-96659280D01*
X27905207Y-103693086D02*
X27619418Y-103528086D01*
X31175207Y-98029280D02*
X27905207Y-103693086D01*
X30889418Y-97864280D02*
X31175207Y-98029280D01*
X77067539Y-81621740D02*
X76902539Y-81907529D01*
X76902539Y-81907529D02*
X71238733Y-78637529D01*
X71238733Y-78637529D02*
X71403733Y-78351740D01*
X78107539Y-79820408D02*
X78272539Y-79534619D01*
X78272539Y-79534619D02*
X72608733Y-76264619D01*
X72608733Y-76264619D02*
X72443733Y-76550408D01*
X40932597Y-15721487D02*
X40932597Y-15391487D01*
X40932597Y-15391487D02*
X47472597Y-15391487D01*
X47472597Y-15391487D02*
X47472597Y-15721487D01*
X40932597Y-17801487D02*
X40932597Y-18131487D01*
X40932597Y-18131487D02*
X47472597Y-18131487D01*
X47472597Y-18131487D02*
X47472597Y-17801487D01*
X40190352Y-64805512D02*
X40476141Y-64970512D01*
X43460352Y-59141706D02*
X40190352Y-64805512D01*
X43746141Y-59306706D02*
X43460352Y-59141706D01*
X42563262Y-66175512D02*
X42277473Y-66010512D01*
X45833262Y-60511706D02*
X42563262Y-66175512D01*
X45547473Y-60346706D02*
X45833262Y-60511706D01*
X13068218Y-82809448D02*
X12758119Y-82696581D01*
X12758119Y-82696581D02*
X14994931Y-76550992D01*
X14994931Y-76550992D02*
X15305029Y-76663858D01*
X15022778Y-83520850D02*
X15332877Y-83633717D01*
X15332877Y-83633717D02*
X17569689Y-77488127D01*
X17569689Y-77488127D02*
X17259590Y-77375260D01*
X57083039Y-100209228D02*
X57335834Y-99997108D01*
X52879208Y-95199297D02*
X57083039Y-100209228D01*
X53132003Y-94987177D02*
X52879208Y-95199297D01*
X59182001Y-98447990D02*
X58929206Y-98660110D01*
X54978170Y-93438059D02*
X59182001Y-98447990D01*
X54725376Y-93650179D02*
X54978170Y-93438059D01*
X73068730Y-115054574D02*
X72815936Y-115266694D01*
X72815936Y-115266694D02*
X68612105Y-110256763D01*
X68612105Y-110256763D02*
X68864900Y-110044643D01*
X74662103Y-113717576D02*
X74914898Y-113505456D01*
X74914898Y-113505456D02*
X70711067Y-108495525D01*
X70711067Y-108495525D02*
X70458272Y-108707645D01*
X40853425Y-19619269D02*
X40641305Y-19872064D01*
X45863356Y-23823100D02*
X40853425Y-19619269D01*
X45651236Y-24075894D02*
X45863356Y-23823100D01*
X39092187Y-21718231D02*
X39304307Y-21465436D01*
X44102118Y-25922062D02*
X39092187Y-21718231D01*
X44314238Y-25669267D02*
X44102118Y-25922062D01*
X36356224Y-54474344D02*
X36298920Y-54149357D01*
X36298920Y-54149357D02*
X42739563Y-53013698D01*
X42739563Y-53013698D02*
X42796867Y-53338685D01*
X36717412Y-56522744D02*
X36774716Y-56847731D01*
X36774716Y-56847731D02*
X43215359Y-55712072D01*
X43215359Y-55712072D02*
X43158055Y-55387085D01*
X31179731Y-26153434D02*
X31237035Y-25828447D01*
X31237035Y-25828447D02*
X37677678Y-26964106D01*
X37677678Y-26964106D02*
X37620374Y-27289093D01*
X30818543Y-28201834D02*
X30761239Y-28526821D01*
X30761239Y-28526821D02*
X37201882Y-29662480D01*
X37201882Y-29662480D02*
X37259186Y-29337493D01*
X33849656Y-52729008D02*
X33524669Y-52786312D01*
X34985315Y-59169651D02*
X33849656Y-52729008D01*
X34660328Y-59226955D02*
X34985315Y-59169651D01*
X31151282Y-53204804D02*
X31476269Y-53147500D01*
X32286941Y-59645447D02*
X31151282Y-53204804D01*
X32611928Y-59588143D02*
X32286941Y-59645447D01*
X14877416Y-85514012D02*
X15089536Y-85766807D01*
X19887347Y-81310181D02*
X14877416Y-85514012D01*
X20099467Y-81562976D02*
X19887347Y-81310181D01*
X16638654Y-87612974D02*
X16426534Y-87360179D01*
X21648585Y-83409143D02*
X16638654Y-87612974D01*
X21436465Y-83156349D02*
X21648585Y-83409143D01*
X19059361Y-94776826D02*
X18773572Y-94611826D01*
X18773572Y-94611826D02*
X22043572Y-88948020D01*
X22043572Y-88948020D02*
X22329361Y-89113020D01*
X20860693Y-95816826D02*
X21146482Y-95981826D01*
X21146482Y-95981826D02*
X24416482Y-90318020D01*
X24416482Y-90318020D02*
X24130693Y-90153020D01*
X45831004Y-101774444D02*
X45501004Y-101774444D01*
X45501004Y-101774444D02*
X45501004Y-95234444D01*
X45501004Y-95234444D02*
X45831004Y-95234444D01*
X47911004Y-101774444D02*
X48241004Y-101774444D01*
X48241004Y-101774444D02*
X48241004Y-95234444D01*
X48241004Y-95234444D02*
X47911004Y-95234444D01*
X76335842Y-112819546D02*
X76660829Y-112762242D01*
X75200183Y-106378903D02*
X76335842Y-112819546D01*
X75525170Y-106321599D02*
X75200183Y-106378903D01*
X79034216Y-112343750D02*
X78709229Y-112401054D01*
X77898557Y-105903107D02*
X79034216Y-112343750D01*
X77573570Y-105960411D02*
X77898557Y-105903107D01*
X44069186Y-104098827D02*
X44069186Y-104428827D01*
X50609186Y-104098827D02*
X44069186Y-104098827D01*
X50609186Y-104428827D02*
X50609186Y-104098827D01*
X44069186Y-106838827D02*
X44069186Y-106508827D01*
X50609186Y-106838827D02*
X44069186Y-106838827D01*
X50609186Y-106508827D02*
X50609186Y-106838827D01*
X88795069Y-110461582D02*
X88582949Y-110714377D01*
X88582949Y-110714377D02*
X83573018Y-106510546D01*
X83573018Y-106510546D02*
X83785138Y-106257751D01*
X90132067Y-108868209D02*
X90344187Y-108615415D01*
X90344187Y-108615415D02*
X85334256Y-104411584D01*
X85334256Y-104411584D02*
X85122136Y-104664379D01*
X40779780Y-33395500D02*
X41104767Y-33338196D01*
X39644121Y-26954857D02*
X40779780Y-33395500D01*
X39969108Y-26897553D02*
X39644121Y-26954857D01*
X43478154Y-32919704D02*
X43153167Y-32977008D01*
X42342495Y-26479061D02*
X43478154Y-32919704D01*
X42017508Y-26536365D02*
X42342495Y-26479061D01*
X35687995Y-51008955D02*
X35630691Y-50683968D01*
X35630691Y-50683968D02*
X42071334Y-49548309D01*
X42071334Y-49548309D02*
X42128638Y-49873296D01*
X36049183Y-53057355D02*
X36106487Y-53382342D01*
X36106487Y-53382342D02*
X42547130Y-52246683D01*
X42547130Y-52246683D02*
X42489826Y-51921696D01*
X28473562Y-89301556D02*
X28586429Y-88991457D01*
X22327972Y-87064744D02*
X28473562Y-89301556D01*
X22440839Y-86754645D02*
X22327972Y-87064744D01*
X29410697Y-86726798D02*
X29297831Y-87036896D01*
X23265108Y-84489986D02*
X29410697Y-86726798D01*
X23152241Y-84800085D02*
X23265108Y-84489986D01*
X42517784Y-102180500D02*
X42187784Y-102180500D01*
X42187784Y-102180500D02*
X42187784Y-95640500D01*
X42187784Y-95640500D02*
X42517784Y-95640500D01*
X44597784Y-102180500D02*
X44927784Y-102180500D01*
X44927784Y-102180500D02*
X44927784Y-95640500D01*
X44927784Y-95640500D02*
X44597784Y-95640500D01*
X84797048Y-100666025D02*
X84511259Y-100501025D01*
X81527048Y-106329831D02*
X84797048Y-100666025D01*
X81241259Y-106164831D02*
X81527048Y-106329831D01*
X82424138Y-99296025D02*
X82709927Y-99461025D01*
X79154138Y-104959831D02*
X82424138Y-99296025D01*
X79439927Y-105124831D02*
X79154138Y-104959831D01*
X46700390Y-29093379D02*
X47025377Y-29036075D01*
X47025377Y-29036075D02*
X48161036Y-35476718D01*
X48161036Y-35476718D02*
X47836049Y-35534022D01*
X44651990Y-29454567D02*
X44327003Y-29511871D01*
X44327003Y-29511871D02*
X45462662Y-35952514D01*
X45462662Y-35952514D02*
X45787649Y-35895210D01*
X47221708Y-59677599D02*
X47531806Y-59564733D01*
X44984896Y-53532010D02*
X47221708Y-59677599D01*
X45294995Y-53419143D02*
X44984896Y-53532010D01*
X49796466Y-58740464D02*
X49486367Y-58853331D01*
X47559654Y-52594874D02*
X49796466Y-58740464D01*
X47249555Y-52707741D02*
X47559654Y-52594874D01*
X55333312Y-91668573D02*
X55276008Y-91343586D01*
X48892669Y-92804232D02*
X55333312Y-91668573D01*
X48835365Y-92479245D02*
X48892669Y-92804232D01*
X54857516Y-88970199D02*
X54914820Y-89295186D01*
X48416873Y-90105858D02*
X54857516Y-88970199D01*
X48474177Y-90430845D02*
X48416873Y-90105858D01*
X77563098Y-102067107D02*
X77277309Y-101902107D01*
X77277309Y-101902107D02*
X80547309Y-96238301D01*
X80547309Y-96238301D02*
X80833098Y-96403301D01*
X79364430Y-103107107D02*
X79650219Y-103272107D01*
X79650219Y-103272107D02*
X82920219Y-97608301D01*
X82920219Y-97608301D02*
X82634430Y-97443301D01*
X31886061Y-29552834D02*
X31943365Y-29227847D01*
X31943365Y-29227847D02*
X38384008Y-30363506D01*
X38384008Y-30363506D02*
X38326704Y-30688493D01*
X31524873Y-31601234D02*
X31467569Y-31926221D01*
X31467569Y-31926221D02*
X37908212Y-33061880D01*
X37908212Y-33061880D02*
X37965516Y-32736893D01*
X51459049Y-53267204D02*
X51148951Y-53380070D01*
X53695861Y-59412793D02*
X51459049Y-53267204D01*
X53385762Y-59525660D02*
X53695861Y-59412793D01*
X48884291Y-54204339D02*
X49194390Y-54091472D01*
X51121103Y-60349929D02*
X48884291Y-54204339D01*
X51431202Y-60237062D02*
X51121103Y-60349929D01*
X23540774Y-99935797D02*
X23254985Y-99770797D01*
X23254985Y-99770797D02*
X26524985Y-94106991D01*
X26524985Y-94106991D02*
X26810774Y-94271991D01*
X25342106Y-100975797D02*
X25627895Y-101140797D01*
X25627895Y-101140797D02*
X28897895Y-95476991D01*
X28897895Y-95476991D02*
X28612106Y-95311991D01*
X50560165Y-86543451D02*
X50617469Y-86868438D01*
X57000808Y-85407792D02*
X50560165Y-86543451D01*
X57058112Y-85732779D02*
X57000808Y-85407792D01*
X51035961Y-89241825D02*
X50978657Y-88916838D01*
X57476604Y-88106166D02*
X51035961Y-89241825D01*
X57419300Y-87781179D02*
X57476604Y-88106166D01*
X94505039Y-106777783D02*
X94292919Y-107030578D01*
X94292919Y-107030578D02*
X89282988Y-102826747D01*
X89282988Y-102826747D02*
X89495108Y-102573952D01*
X95842037Y-105184410D02*
X96054157Y-104931616D01*
X96054157Y-104931616D02*
X91044226Y-100727785D01*
X91044226Y-100727785D02*
X90832106Y-100980580D01*
X29035110Y-32288574D02*
X28977806Y-32613561D01*
X35475753Y-33424233D02*
X29035110Y-32288574D01*
X35418449Y-33749220D02*
X35475753Y-33424233D01*
X28559314Y-34986948D02*
X28616618Y-34661961D01*
X34999957Y-36122607D02*
X28559314Y-34986948D01*
X35057261Y-35797620D02*
X34999957Y-36122607D01*
X53784384Y-51142676D02*
X54094483Y-51029809D01*
X54094483Y-51029809D02*
X56331295Y-57175399D01*
X56331295Y-57175399D02*
X56021196Y-57288266D01*
X51829824Y-51854078D02*
X51519725Y-51966945D01*
X51519725Y-51966945D02*
X53756537Y-58112534D01*
X53756537Y-58112534D02*
X54066635Y-57999668D01*
X21414847Y-96507245D02*
X21700636Y-96672245D01*
X24684847Y-90843439D02*
X21414847Y-96507245D01*
X24970636Y-91008439D02*
X24684847Y-90843439D01*
X23787757Y-97877245D02*
X23501968Y-97712245D01*
X27057757Y-92213439D02*
X23787757Y-97877245D01*
X26771968Y-92048439D02*
X27057757Y-92213439D01*
X49094868Y-83583601D02*
X49037564Y-83258614D01*
X49037564Y-83258614D02*
X55478207Y-82122955D01*
X55478207Y-82122955D02*
X55535511Y-82447942D01*
X49456056Y-85632001D02*
X49513360Y-85956988D01*
X49513360Y-85956988D02*
X55954003Y-84821329D01*
X55954003Y-84821329D02*
X55896699Y-84496342D01*
X90520699Y-108014990D02*
X90732819Y-107762195D01*
X85510768Y-103811159D02*
X90520699Y-108014990D01*
X85722888Y-103558365D02*
X85510768Y-103811159D01*
X92281937Y-105916028D02*
X92069817Y-106168823D01*
X87272006Y-101712197D02*
X92281937Y-105916028D01*
X87059886Y-101964992D02*
X87272006Y-101712197D01*
X59376560Y-48124440D02*
X59376560Y-48454440D01*
X65916560Y-48124440D02*
X59376560Y-48124440D01*
X65916560Y-48454440D02*
X65916560Y-48124440D01*
X59376560Y-50864440D02*
X59376560Y-50534440D01*
X65916560Y-50864440D02*
X59376560Y-50864440D01*
X65916560Y-50534440D02*
X65916560Y-50864440D01*
X59366229Y-62891067D02*
X59056130Y-63003934D01*
X59056130Y-63003934D02*
X56819318Y-56858344D01*
X56819318Y-56858344D02*
X57129417Y-56745477D01*
X61320789Y-62179665D02*
X61630888Y-62066798D01*
X61630888Y-62066798D02*
X59394076Y-55921209D01*
X59394076Y-55921209D02*
X59083978Y-56034075D01*
X47521345Y-80046260D02*
X47807134Y-80211260D01*
X50791345Y-74382454D02*
X47521345Y-80046260D01*
X51077134Y-74547454D02*
X50791345Y-74382454D01*
X49894255Y-81416260D02*
X49608466Y-81251260D01*
X53164255Y-75752454D02*
X49894255Y-81416260D01*
X52878466Y-75587454D02*
X53164255Y-75752454D01*
X66387981Y-82565363D02*
X66640776Y-82777483D01*
X66640776Y-82777483D02*
X62436945Y-87787414D01*
X62436945Y-87787414D02*
X62184150Y-87575294D01*
X64794608Y-81228365D02*
X64541814Y-81016245D01*
X64541814Y-81016245D02*
X60337983Y-86026176D01*
X60337983Y-86026176D02*
X60590778Y-86238296D01*
X85878946Y-75262466D02*
X86043946Y-75548255D01*
X86043946Y-75548255D02*
X80380140Y-78818255D01*
X80380140Y-78818255D02*
X80215140Y-78532466D01*
X84838946Y-73461134D02*
X84673946Y-73175345D01*
X84673946Y-73175345D02*
X79010140Y-76445345D01*
X79010140Y-76445345D02*
X79175140Y-76731134D01*
X59445140Y-51312140D02*
X59445140Y-51642140D01*
X65985140Y-51312140D02*
X59445140Y-51312140D01*
X65985140Y-51642140D02*
X65985140Y-51312140D01*
X59445140Y-54052140D02*
X59445140Y-53722140D01*
X65985140Y-54052140D02*
X59445140Y-54052140D01*
X65985140Y-53722140D02*
X65985140Y-54052140D01*
X62795229Y-62865667D02*
X62485130Y-62978534D01*
X62485130Y-62978534D02*
X60248318Y-56832944D01*
X60248318Y-56832944D02*
X60558417Y-56720077D01*
X64749789Y-62154265D02*
X65059888Y-62041398D01*
X65059888Y-62041398D02*
X62823076Y-55895809D01*
X62823076Y-55895809D02*
X62512978Y-56008675D01*
X51686945Y-79309660D02*
X51972734Y-79474660D01*
X54956945Y-73645854D02*
X51686945Y-79309660D01*
X55242734Y-73810854D02*
X54956945Y-73645854D01*
X54059855Y-80679660D02*
X53774066Y-80514660D01*
X57329855Y-75015854D02*
X54059855Y-80679660D01*
X57044066Y-74850854D02*
X57329855Y-75015854D01*
X64736981Y-77485363D02*
X64989776Y-77697483D01*
X64989776Y-77697483D02*
X60785945Y-82707414D01*
X60785945Y-82707414D02*
X60533150Y-82495294D01*
X63143608Y-76148365D02*
X62890814Y-75936245D01*
X62890814Y-75936245D02*
X58686983Y-80946176D01*
X58686983Y-80946176D02*
X58939778Y-81158296D01*
X101703146Y-99138466D02*
X101868146Y-99424255D01*
X101868146Y-99424255D02*
X96204340Y-102694255D01*
X96204340Y-102694255D02*
X96039340Y-102408466D01*
X100663146Y-97337134D02*
X100498146Y-97051345D01*
X100498146Y-97051345D02*
X94834340Y-100321345D01*
X94834340Y-100321345D02*
X94999340Y-100607134D01*
X64842720Y-46226480D02*
X65172720Y-46226480D01*
X64842720Y-39686480D02*
X64842720Y-46226480D01*
X65172720Y-39686480D02*
X64842720Y-39686480D01*
X67582720Y-46226480D02*
X67252720Y-46226480D01*
X67582720Y-39686480D02*
X67582720Y-46226480D01*
X67252720Y-39686480D02*
X67582720Y-39686480D01*
X56956060Y-62822855D02*
X56791060Y-62537066D01*
X51292254Y-66092855D02*
X56956060Y-62822855D01*
X51127254Y-65807066D02*
X51292254Y-66092855D01*
X55586060Y-60449945D02*
X55751060Y-60735734D01*
X49922254Y-63719945D02*
X55586060Y-60449945D01*
X50087254Y-64005734D02*
X49922254Y-63719945D01*
X52908665Y-72522189D02*
X52795798Y-72832288D01*
X52795798Y-72832288D02*
X46650209Y-70595476D01*
X46650209Y-70595476D02*
X46763075Y-70285378D01*
X53620067Y-70567629D02*
X53732934Y-70257530D01*
X53732934Y-70257530D02*
X47587344Y-68020718D01*
X47587344Y-68020718D02*
X47474477Y-68330817D01*
X67043583Y-74850176D02*
X67296378Y-75062296D01*
X71247414Y-69840245D02*
X67043583Y-74850176D01*
X71500208Y-70052365D02*
X71247414Y-69840245D01*
X69142545Y-76611414D02*
X68889750Y-76399294D01*
X73346376Y-71601483D02*
X69142545Y-76611414D01*
X73093581Y-71389363D02*
X73346376Y-71601483D01*
X82780146Y-73382866D02*
X82945146Y-73668655D01*
X82945146Y-73668655D02*
X77281340Y-76938655D01*
X77281340Y-76938655D02*
X77116340Y-76652866D01*
X81740146Y-71581534D02*
X81575146Y-71295745D01*
X81575146Y-71295745D02*
X75911340Y-74565745D01*
X75911340Y-74565745D02*
X76076340Y-74851534D01*
X67997400Y-52596800D02*
X68327400Y-52596800D01*
X67997400Y-46056800D02*
X67997400Y-52596800D01*
X68327400Y-46056800D02*
X67997400Y-46056800D01*
X70737400Y-52596800D02*
X70407400Y-52596800D01*
X70737400Y-46056800D02*
X70737400Y-52596800D01*
X70407400Y-46056800D02*
X70737400Y-46056800D01*
X66226676Y-55895809D02*
X65916578Y-56008675D01*
X68463488Y-62041398D02*
X66226676Y-55895809D01*
X68153389Y-62154265D02*
X68463488Y-62041398D01*
X63651918Y-56832944D02*
X63962017Y-56720077D01*
X65888730Y-62978534D02*
X63651918Y-56832944D01*
X66198829Y-62865667D02*
X65888730Y-62978534D01*
X60955666Y-74495254D02*
X61241455Y-74660254D01*
X61241455Y-74660254D02*
X57971455Y-80324060D01*
X57971455Y-80324060D02*
X57685666Y-80159060D01*
X59154334Y-73455254D02*
X58868545Y-73290254D01*
X58868545Y-73290254D02*
X55598545Y-78954060D01*
X55598545Y-78954060D02*
X55884334Y-79119060D01*
X64478183Y-72767376D02*
X64730978Y-72979496D01*
X68682014Y-67757445D02*
X64478183Y-72767376D01*
X68934808Y-67969565D02*
X68682014Y-67757445D01*
X66577145Y-74528614D02*
X66324350Y-74316494D01*
X70780976Y-69518683D02*
X66577145Y-74528614D01*
X70528181Y-69306563D02*
X70780976Y-69518683D01*
X104420946Y-101500666D02*
X104585946Y-101786455D01*
X104585946Y-101786455D02*
X98922140Y-105056455D01*
X98922140Y-105056455D02*
X98757140Y-104770666D01*
X103380946Y-99699334D02*
X103215946Y-99413545D01*
X103215946Y-99413545D02*
X97552140Y-102683545D01*
X97552140Y-102683545D02*
X97717140Y-102969334D01*
X97763413Y-82011407D02*
X97928413Y-82297196D01*
X97928413Y-82297196D02*
X92264607Y-85567196D01*
X92264607Y-85567196D02*
X92099607Y-85281407D01*
X96723413Y-80210075D02*
X96558413Y-79924286D01*
X96558413Y-79924286D02*
X90894607Y-83194286D01*
X90894607Y-83194286D02*
X91059607Y-83480075D01*
X93355084Y-87641344D02*
X93520084Y-87927133D01*
X99018890Y-84371344D02*
X93355084Y-87641344D01*
X99183890Y-84657133D02*
X99018890Y-84371344D01*
X94725084Y-90014254D02*
X94560084Y-89728465D01*
X100388890Y-86744254D02*
X94725084Y-90014254D01*
X100223890Y-86458465D02*
X100388890Y-86744254D01*
X88245431Y-77973597D02*
X88080431Y-77687808D01*
X82581625Y-81243597D02*
X88245431Y-77973597D01*
X82416625Y-80957808D02*
X82581625Y-81243597D01*
X86875431Y-75600687D02*
X87040431Y-75886476D01*
X81211625Y-78870687D02*
X86875431Y-75600687D01*
X81376625Y-79156476D02*
X81211625Y-78870687D01*
X99166040Y-97045608D02*
X99001040Y-96759819D01*
X93502234Y-100315608D02*
X99166040Y-97045608D01*
X93337234Y-100029819D02*
X93502234Y-100315608D01*
X97796040Y-94672698D02*
X97961040Y-94958487D01*
X92132234Y-97942698D02*
X97796040Y-94672698D01*
X92297234Y-98228487D02*
X92132234Y-97942698D01*
X51182085Y-48322472D02*
G75*
G02X52182085Y-46590420I500000J866026D01*
G01*
X52182085Y-46590420D02*
X53007085Y-45161478D01*
X53007085Y-45161478D02*
X37505230Y-36211478D01*
X37505230Y-36211478D02*
X34855230Y-40801413D01*
X34855230Y-40801413D02*
X50357085Y-49751413D01*
X50357085Y-49751413D02*
X51182085Y-48322471D01*
X54304046Y-43035075D02*
X38698269Y-34025075D01*
X38698269Y-34025075D02*
X33558269Y-42927816D01*
X33558269Y-42927816D02*
X49164046Y-51937816D01*
X49164046Y-51937816D02*
X54304046Y-43035075D01*
D11*
X27841588Y-84685628D02*
X27691224Y-84124149D01*
X27304621Y-84490188D02*
X27646641Y-83550496D01*
X28004619Y-83680789D01*
X28077827Y-83758110D01*
X28106288Y-83819144D01*
X28118461Y-83924925D01*
X28069601Y-84059167D01*
X27992281Y-84132375D01*
X27931247Y-84160835D01*
X27825466Y-84173009D01*
X27467488Y-84042716D01*
X29033806Y-84055383D02*
X28586334Y-83892516D01*
X28378720Y-84323702D01*
X28439753Y-84295241D01*
X28545535Y-84283067D01*
X28769271Y-84364501D01*
X28842479Y-84441821D01*
X28870939Y-84502855D01*
X28883113Y-84608637D01*
X28801680Y-84832373D01*
X28724359Y-84905581D01*
X28663325Y-84934041D01*
X28557544Y-84946215D01*
X28333808Y-84864782D01*
X28260600Y-84787461D01*
X28232139Y-84726427D01*
X29468941Y-84669835D02*
X29395733Y-84592514D01*
X29367272Y-84531480D01*
X29355098Y-84425699D01*
X29371385Y-84380952D01*
X29448706Y-84307744D01*
X29509739Y-84279283D01*
X29615521Y-84267109D01*
X29794510Y-84332256D01*
X29867718Y-84409577D01*
X29896178Y-84470611D01*
X29908352Y-84576392D01*
X29892065Y-84621139D01*
X29814745Y-84694347D01*
X29753711Y-84722808D01*
X29647930Y-84734981D01*
X29468941Y-84669835D01*
X29363159Y-84682009D01*
X29302125Y-84710469D01*
X29224805Y-84783677D01*
X29159658Y-84962666D01*
X29171832Y-85068447D01*
X29200293Y-85129481D01*
X29273501Y-85206802D01*
X29452490Y-85271949D01*
X29558271Y-85259775D01*
X29619305Y-85231314D01*
X29696625Y-85158106D01*
X29761772Y-84979117D01*
X29749598Y-84873336D01*
X29721138Y-84812302D01*
X29647930Y-84734981D01*
X79355761Y-82228100D02*
X79760523Y-82929168D01*
X79849381Y-82987837D01*
X79914430Y-83005267D01*
X80020718Y-82998887D01*
X80185676Y-82903649D01*
X80244345Y-82814791D01*
X80261774Y-82749742D01*
X80255395Y-82643454D01*
X79850633Y-81942386D01*
X80180547Y-81751909D02*
X80716658Y-81442386D01*
X80618459Y-81938967D01*
X80742177Y-81867538D01*
X80848465Y-81861158D01*
X80913514Y-81878588D01*
X81002372Y-81937257D01*
X81121420Y-82143454D01*
X81127800Y-82249742D01*
X81110370Y-82314791D01*
X81051701Y-82403649D01*
X80804265Y-82546506D01*
X80697977Y-82552886D01*
X80632928Y-82535456D01*
X46080458Y-82519832D02*
X45460327Y-83040184D01*
X45417979Y-83137880D01*
X45412110Y-83204967D01*
X45436849Y-83308533D01*
X45559285Y-83454446D01*
X45656981Y-83496794D01*
X45724069Y-83502663D01*
X45827634Y-83477923D01*
X46447765Y-82957572D01*
X46650289Y-83347094D02*
X46717376Y-83352964D01*
X46815072Y-83395311D01*
X46968117Y-83577703D01*
X46992857Y-83681268D01*
X46986987Y-83748356D01*
X46944640Y-83846052D01*
X46871683Y-83907270D01*
X46731639Y-83962618D01*
X45926592Y-83892186D01*
X46324508Y-84366404D01*
X58798361Y-30980708D02*
X58815791Y-31045757D01*
X58785601Y-31193285D01*
X58737982Y-31275763D01*
X58625315Y-31375672D01*
X58495217Y-31410531D01*
X58388929Y-31404152D01*
X58200162Y-31350153D01*
X58076444Y-31278724D01*
X57935296Y-31142247D01*
X57876627Y-31053388D01*
X57841768Y-30923291D01*
X57871957Y-30775763D01*
X57919576Y-30693285D01*
X58032244Y-30593376D01*
X58097293Y-30575947D01*
X59357030Y-30203541D02*
X59071316Y-30698413D01*
X59214173Y-30450977D02*
X58348147Y-29950977D01*
X58424246Y-30104884D01*
X58459106Y-30234982D01*
X58452726Y-30341270D01*
X29032541Y-54126882D02*
X28977377Y-54088255D01*
X28905674Y-53955838D01*
X28889136Y-53862046D01*
X28911225Y-53713091D01*
X28988478Y-53602761D01*
X29074000Y-53539328D01*
X29253314Y-53459356D01*
X29394001Y-53434550D01*
X29589852Y-53448369D01*
X29691912Y-53478727D01*
X29802241Y-53555980D01*
X29873944Y-53688398D01*
X29890482Y-53782189D01*
X29868393Y-53931145D01*
X29829766Y-53986310D01*
X29895918Y-54361475D02*
X29951083Y-54400101D01*
X30014516Y-54485624D01*
X30055861Y-54720102D01*
X30025503Y-54822162D01*
X29986877Y-54877326D01*
X29901354Y-54940760D01*
X29807563Y-54957298D01*
X29658607Y-54935209D01*
X28996633Y-54471689D01*
X29104129Y-55081332D01*
X31597881Y-73507892D02*
X31530794Y-73502023D01*
X31402489Y-73423197D01*
X31341271Y-73350240D01*
X31285922Y-73210197D01*
X31297661Y-73076022D01*
X31340009Y-72978326D01*
X31455313Y-72819412D01*
X31564748Y-72727585D01*
X31741270Y-72641628D01*
X31844836Y-72616888D01*
X31979010Y-72628627D01*
X32107315Y-72707453D01*
X32168533Y-72780409D01*
X32223882Y-72920453D01*
X32218012Y-72987541D01*
X32505231Y-73181671D02*
X32903147Y-73655889D01*
X32397058Y-73645412D01*
X32488885Y-73754847D01*
X32513625Y-73858413D01*
X32507755Y-73925500D01*
X32465408Y-74023196D01*
X32283016Y-74176241D01*
X32179451Y-74200980D01*
X32112363Y-74195111D01*
X32014667Y-74152763D01*
X31831014Y-73933893D01*
X31806274Y-73830328D01*
X31812143Y-73763241D01*
X44740533Y-109094542D02*
X44692914Y-109142161D01*
X44550057Y-109189780D01*
X44454819Y-109189780D01*
X44311961Y-109142161D01*
X44216723Y-109046923D01*
X44169104Y-108951685D01*
X44121485Y-108761209D01*
X44121485Y-108618352D01*
X44169104Y-108427876D01*
X44216723Y-108332638D01*
X44311961Y-108237400D01*
X44454819Y-108189780D01*
X44550057Y-108189780D01*
X44692914Y-108237400D01*
X44740533Y-108285019D01*
X45597676Y-108523114D02*
X45597676Y-109189780D01*
X45359580Y-108142161D02*
X45121485Y-108856447D01*
X45740533Y-108856447D01*
X70417633Y-92747028D02*
X70400204Y-92812076D01*
X70300295Y-92924744D01*
X70217817Y-92972363D01*
X70070289Y-93002553D01*
X69940191Y-92967693D01*
X69851333Y-92909024D01*
X69714856Y-92767876D01*
X69643427Y-92644158D01*
X69589428Y-92455392D01*
X69583049Y-92349104D01*
X69617908Y-92219006D01*
X69717817Y-92106338D01*
X69800295Y-92058719D01*
X69947823Y-92028530D01*
X70012871Y-92045959D01*
X70748799Y-91511100D02*
X70336406Y-91749195D01*
X70533262Y-92185398D01*
X70550692Y-92120349D01*
X70609361Y-92031491D01*
X70815557Y-91912443D01*
X70921846Y-91906063D01*
X70986894Y-91923493D01*
X71075753Y-91982162D01*
X71194800Y-92188359D01*
X71201180Y-92294647D01*
X71183750Y-92359695D01*
X71125081Y-92448554D01*
X70918885Y-92567601D01*
X70812597Y-92573981D01*
X70747548Y-92556551D01*
X61267248Y-26052975D02*
X61212083Y-26091602D01*
X61063127Y-26113691D01*
X60969336Y-26097153D01*
X60836918Y-26025450D01*
X60759665Y-25915121D01*
X60729307Y-25813061D01*
X60715487Y-25617209D01*
X60740294Y-25476523D01*
X60820266Y-25297209D01*
X60883699Y-25211687D01*
X60994028Y-25134434D01*
X61142984Y-25112345D01*
X61236775Y-25128883D01*
X61369193Y-25200585D01*
X61407820Y-25255750D01*
X62268479Y-25310800D02*
X62080896Y-25277724D01*
X61978836Y-25308082D01*
X61923672Y-25346708D01*
X61805074Y-25470857D01*
X61725102Y-25650171D01*
X61658950Y-26025336D01*
X61689308Y-26127396D01*
X61727935Y-26182560D01*
X61813457Y-26245994D01*
X62001039Y-26279070D01*
X62103100Y-26248712D01*
X62158264Y-26210085D01*
X62221698Y-26124563D01*
X62263043Y-25890085D01*
X62232685Y-25788025D01*
X62194058Y-25732860D01*
X62108536Y-25669427D01*
X61920954Y-25636351D01*
X61818893Y-25666709D01*
X61763729Y-25705335D01*
X61700295Y-25790858D01*
X22557648Y-47007975D02*
X22502483Y-47046602D01*
X22353527Y-47068691D01*
X22259736Y-47052153D01*
X22127318Y-46980450D01*
X22050065Y-46870121D01*
X22019707Y-46768061D01*
X22005887Y-46572209D01*
X22030694Y-46431523D01*
X22110666Y-46252209D01*
X22174099Y-46166687D01*
X22284428Y-46089434D01*
X22433384Y-46067345D01*
X22527175Y-46083883D01*
X22659593Y-46155585D01*
X22698220Y-46210750D01*
X23043027Y-46174841D02*
X23699566Y-46290607D01*
X23103857Y-47200994D01*
X28995456Y-68048241D02*
X29001325Y-68115328D01*
X28945976Y-68255372D01*
X28884759Y-68328328D01*
X28756453Y-68407154D01*
X28622279Y-68418893D01*
X28518713Y-68394153D01*
X28342191Y-68308196D01*
X28232756Y-68216369D01*
X28117452Y-68057455D01*
X28075104Y-67959759D01*
X28063366Y-67825585D01*
X28118714Y-67685541D01*
X28179932Y-67612584D01*
X28308237Y-67533758D01*
X28375324Y-67527889D01*
X28997980Y-67304412D02*
X28900283Y-67346759D01*
X28833196Y-67352629D01*
X28729631Y-67327889D01*
X28693152Y-67297280D01*
X28650805Y-67199584D01*
X28644935Y-67132497D01*
X28669675Y-67028931D01*
X28792111Y-66883018D01*
X28889807Y-66840670D01*
X28956894Y-66834801D01*
X29060460Y-66859540D01*
X29096938Y-66890149D01*
X29139286Y-66987846D01*
X29145155Y-67054933D01*
X29120415Y-67158498D01*
X28997980Y-67304412D01*
X28973240Y-67407977D01*
X28979109Y-67475064D01*
X29021457Y-67572761D01*
X29167370Y-67695196D01*
X29270936Y-67719936D01*
X29338023Y-67714066D01*
X29435719Y-67671719D01*
X29558155Y-67525806D01*
X29582895Y-67422240D01*
X29577025Y-67355153D01*
X29534678Y-67257457D01*
X29388764Y-67135021D01*
X29285199Y-67110281D01*
X29218112Y-67116151D01*
X29120415Y-67158498D01*
X34871561Y-109441308D02*
X34888991Y-109506357D01*
X34858801Y-109653885D01*
X34811182Y-109736363D01*
X34698515Y-109836272D01*
X34568417Y-109871131D01*
X34462129Y-109864752D01*
X34273362Y-109810753D01*
X34149644Y-109739324D01*
X34008496Y-109602847D01*
X33949827Y-109513988D01*
X33914968Y-109383891D01*
X33945157Y-109236363D01*
X33992776Y-109153885D01*
X34105444Y-109053976D01*
X34170493Y-109036547D01*
X35192135Y-109076534D02*
X35287373Y-108911577D01*
X35293753Y-108805289D01*
X35276323Y-108740240D01*
X35200224Y-108586333D01*
X35059076Y-108449856D01*
X34729162Y-108259380D01*
X34622874Y-108253000D01*
X34557825Y-108270430D01*
X34468967Y-108329099D01*
X34373728Y-108494056D01*
X34367349Y-108600344D01*
X34384778Y-108665393D01*
X34443448Y-108754251D01*
X34649644Y-108873299D01*
X34755932Y-108879679D01*
X34820981Y-108862249D01*
X34909839Y-108803580D01*
X35005078Y-108638622D01*
X35011457Y-108532334D01*
X34994027Y-108467286D01*
X34935358Y-108378427D01*
X61294477Y-92966840D02*
X61229428Y-92949411D01*
X61116760Y-92849502D01*
X61069141Y-92767024D01*
X61038952Y-92619496D01*
X61073812Y-92489398D01*
X61132481Y-92400540D01*
X61273628Y-92264063D01*
X61397346Y-92192634D01*
X61586113Y-92138635D01*
X61692401Y-92132256D01*
X61822499Y-92167115D01*
X61935167Y-92267024D01*
X61982786Y-92349502D01*
X62012975Y-92497030D01*
X61995545Y-92562078D01*
X61688189Y-93839245D02*
X61402475Y-93344374D01*
X61545332Y-93591810D02*
X62411357Y-93091810D01*
X62240020Y-93080760D01*
X62109923Y-93045900D01*
X62021064Y-92987231D01*
X62863738Y-93875356D02*
X62911357Y-93957835D01*
X62917737Y-94064123D01*
X62900307Y-94129172D01*
X62841638Y-94218030D01*
X62700490Y-94354508D01*
X62494294Y-94473555D01*
X62305527Y-94527554D01*
X62199239Y-94533934D01*
X62134190Y-94516504D01*
X62045332Y-94457835D01*
X61997713Y-94375356D01*
X61991333Y-94269068D01*
X62008763Y-94204019D01*
X62067432Y-94115161D01*
X62208580Y-93978684D01*
X62414776Y-93859636D01*
X62603543Y-93805637D01*
X62709831Y-93799258D01*
X62774880Y-93816687D01*
X62863738Y-93875356D01*
X46822561Y-21248534D02*
X46761527Y-21276995D01*
X46610999Y-21272882D01*
X46521504Y-21240308D01*
X46403549Y-21146701D01*
X46346628Y-21024633D01*
X46334454Y-20918852D01*
X46354854Y-20723576D01*
X46403714Y-20589334D01*
X46513608Y-20426632D01*
X46590928Y-20353424D01*
X46712996Y-20296503D01*
X46863525Y-20300616D01*
X46953019Y-20333189D01*
X47070974Y-20426796D01*
X47099435Y-20487830D01*
X47684933Y-21663762D02*
X47147966Y-21468322D01*
X47416450Y-21566042D02*
X47758470Y-20626349D01*
X47620115Y-20728018D01*
X47498047Y-20784939D01*
X47392266Y-20797113D01*
X48579879Y-21989495D02*
X48042911Y-21794055D01*
X48311395Y-21891775D02*
X48653415Y-20952083D01*
X48515061Y-21053751D01*
X48392993Y-21110672D01*
X48287212Y-21122846D01*
X40704066Y-61085702D02*
X40721495Y-61150750D01*
X40691306Y-61298278D01*
X40643687Y-61380756D01*
X40531019Y-61480665D01*
X40400922Y-61515524D01*
X40294634Y-61509145D01*
X40105867Y-61455146D01*
X39982149Y-61383717D01*
X39841001Y-61247240D01*
X39782332Y-61158382D01*
X39747473Y-61028284D01*
X39777662Y-60880756D01*
X39825281Y-60798278D01*
X39937949Y-60698369D01*
X40002998Y-60680940D01*
X41262735Y-60308534D02*
X40977021Y-60803406D01*
X41119878Y-60555970D02*
X40253852Y-60055970D01*
X40329951Y-60209878D01*
X40364811Y-60339975D01*
X40358431Y-60446263D01*
X40669664Y-59526239D02*
X40652234Y-59461190D01*
X40658614Y-59354902D01*
X40777662Y-59148706D01*
X40866520Y-59090037D01*
X40931569Y-59072607D01*
X41037857Y-59078986D01*
X41120336Y-59126606D01*
X41220244Y-59239273D01*
X41429401Y-60019859D01*
X41738925Y-59483748D01*
X20358666Y-78002102D02*
X20376095Y-78067150D01*
X20345906Y-78214678D01*
X20298287Y-78297156D01*
X20185619Y-78397065D01*
X20055522Y-78431924D01*
X19949234Y-78425545D01*
X19760467Y-78371546D01*
X19636749Y-78300117D01*
X19495601Y-78163640D01*
X19436932Y-78074782D01*
X19402073Y-77944684D01*
X19432262Y-77797156D01*
X19479881Y-77714678D01*
X19592549Y-77614769D01*
X19657598Y-77597340D01*
X20917335Y-77224934D02*
X20631621Y-77719806D01*
X20774478Y-77472370D02*
X19908452Y-76972370D01*
X19984551Y-77126278D01*
X20019411Y-77256375D01*
X20013031Y-77362663D01*
X20217976Y-76436259D02*
X20527500Y-75900148D01*
X20690748Y-76379300D01*
X20762176Y-76255582D01*
X20851035Y-76196913D01*
X20916083Y-76179483D01*
X21022372Y-76185863D01*
X21228568Y-76304910D01*
X21287237Y-76393769D01*
X21304667Y-76458817D01*
X21298287Y-76565106D01*
X21155430Y-76812541D01*
X21066572Y-76871211D01*
X21001523Y-76888640D01*
X50496742Y-97874057D02*
X50544361Y-97921676D01*
X50591980Y-98064533D01*
X50591980Y-98159771D01*
X50544361Y-98302628D01*
X50449123Y-98397866D01*
X50353885Y-98445485D01*
X50163409Y-98493104D01*
X50020552Y-98493104D01*
X49830076Y-98445485D01*
X49734838Y-98397866D01*
X49639600Y-98302628D01*
X49591980Y-98159771D01*
X49591980Y-98064533D01*
X49639600Y-97921676D01*
X49687219Y-97874057D01*
X50591980Y-96921676D02*
X50591980Y-97493104D01*
X50591980Y-97207390D02*
X49591980Y-97207390D01*
X49734838Y-97302628D01*
X49830076Y-97397866D01*
X49877695Y-97493104D01*
X49925314Y-96064533D02*
X50591980Y-96064533D01*
X49544361Y-96302628D02*
X50258647Y-96540723D01*
X50258647Y-95921676D01*
X71352876Y-106047840D02*
X71287827Y-106030411D01*
X71175159Y-105930502D01*
X71127540Y-105848024D01*
X71097351Y-105700496D01*
X71132211Y-105570398D01*
X71190880Y-105481540D01*
X71332027Y-105345063D01*
X71455745Y-105273634D01*
X71644512Y-105219635D01*
X71750800Y-105213256D01*
X71880898Y-105248115D01*
X71993566Y-105348024D01*
X72041185Y-105430502D01*
X72071374Y-105578030D01*
X72053944Y-105643078D01*
X71746588Y-106920245D02*
X71460874Y-106425374D01*
X71603731Y-106672810D02*
X72469756Y-106172810D01*
X72298419Y-106161760D01*
X72168322Y-106126900D01*
X72079463Y-106068231D01*
X73064994Y-107203792D02*
X72826899Y-106791399D01*
X72390697Y-106988255D01*
X72455745Y-107005685D01*
X72544604Y-107064354D01*
X72663651Y-107270551D01*
X72670031Y-107376839D01*
X72652601Y-107441887D01*
X72593932Y-107530746D01*
X72387736Y-107649793D01*
X72281448Y-107656173D01*
X72216399Y-107638743D01*
X72127540Y-107580074D01*
X72008493Y-107373878D01*
X72002113Y-107267590D01*
X72019543Y-107202541D01*
X35296692Y-22871486D02*
X35241527Y-22910112D01*
X35092571Y-22932201D01*
X34998780Y-22915663D01*
X34866362Y-22843961D01*
X34789109Y-22733631D01*
X34758751Y-22631571D01*
X34744931Y-22435720D01*
X34769738Y-22295033D01*
X34849710Y-22115720D01*
X34913143Y-22030197D01*
X35023472Y-21952944D01*
X35172428Y-21930855D01*
X35266219Y-21947393D01*
X35398637Y-22019096D01*
X35437264Y-22074260D01*
X36218066Y-23130656D02*
X35655319Y-23031428D01*
X35936692Y-23081042D02*
X36110340Y-22096234D01*
X35991742Y-22220383D01*
X35881413Y-22297637D01*
X35779353Y-22327994D01*
X37235835Y-22294690D02*
X37048252Y-22261614D01*
X36946192Y-22291971D01*
X36891028Y-22330598D01*
X36772430Y-22454747D01*
X36692458Y-22634060D01*
X36626307Y-23009225D01*
X36656664Y-23111285D01*
X36695291Y-23166450D01*
X36780813Y-23229884D01*
X36968396Y-23262959D01*
X37070456Y-23232602D01*
X37125620Y-23193975D01*
X37189054Y-23108453D01*
X37230399Y-22873975D01*
X37200041Y-22771915D01*
X37161414Y-22716750D01*
X37075892Y-22653316D01*
X36888310Y-22620241D01*
X36786249Y-22650598D01*
X36731085Y-22689225D01*
X36667651Y-22774747D01*
X35843676Y-64391840D02*
X35778627Y-64374411D01*
X35665959Y-64274502D01*
X35618340Y-64192024D01*
X35588151Y-64044496D01*
X35623011Y-63914398D01*
X35681680Y-63825540D01*
X35822827Y-63689063D01*
X35946545Y-63617634D01*
X36135312Y-63563635D01*
X36241600Y-63557256D01*
X36371698Y-63592115D01*
X36484366Y-63692024D01*
X36531985Y-63774502D01*
X36562174Y-63922030D01*
X36544744Y-63987078D01*
X36237388Y-65264245D02*
X35951674Y-64769374D01*
X36094531Y-65016810D02*
X36960556Y-64516810D01*
X36789219Y-64505760D01*
X36659122Y-64470900D01*
X36570263Y-64412231D01*
X37270080Y-65052921D02*
X37603413Y-65630271D01*
X36523102Y-65759117D01*
X19368066Y-90981502D02*
X19385495Y-91046550D01*
X19355306Y-91194078D01*
X19307687Y-91276556D01*
X19195019Y-91376465D01*
X19064922Y-91411324D01*
X18958634Y-91404945D01*
X18769867Y-91350946D01*
X18646149Y-91279517D01*
X18505001Y-91143040D01*
X18446332Y-91054182D01*
X18411473Y-90924084D01*
X18441662Y-90776556D01*
X18489281Y-90694078D01*
X18601949Y-90594169D01*
X18666998Y-90576740D01*
X19926735Y-90204334D02*
X19641021Y-90699206D01*
X19783878Y-90451770D02*
X18917852Y-89951770D01*
X18993951Y-90105678D01*
X19028811Y-90235775D01*
X19022431Y-90342063D01*
X19717577Y-89423749D02*
X19628719Y-89482418D01*
X19563670Y-89499847D01*
X19457382Y-89493468D01*
X19416143Y-89469658D01*
X19357474Y-89380800D01*
X19340044Y-89315751D01*
X19346424Y-89209463D01*
X19441662Y-89044506D01*
X19530520Y-88985837D01*
X19595569Y-88968407D01*
X19701857Y-88974786D01*
X19743096Y-88998596D01*
X19801765Y-89087454D01*
X19819195Y-89152503D01*
X19812816Y-89258791D01*
X19717577Y-89423749D01*
X19711198Y-89530037D01*
X19728627Y-89595086D01*
X19787297Y-89683944D01*
X19952254Y-89779182D01*
X20058542Y-89785562D01*
X20123591Y-89768132D01*
X20212449Y-89709463D01*
X20307687Y-89544506D01*
X20314067Y-89438217D01*
X20296637Y-89373169D01*
X20237968Y-89284310D01*
X20073011Y-89189072D01*
X19966723Y-89182692D01*
X19901674Y-89200122D01*
X19812816Y-89258791D01*
X56210861Y-104568474D02*
X56182401Y-104629508D01*
X56064446Y-104723115D01*
X55974951Y-104755689D01*
X55824423Y-104759801D01*
X55702355Y-104702880D01*
X55625034Y-104629672D01*
X55515140Y-104466970D01*
X55466280Y-104332728D01*
X55445881Y-104137452D01*
X55458055Y-104031671D01*
X55514976Y-103909603D01*
X55632931Y-103815996D01*
X55722426Y-103783423D01*
X55872954Y-103779310D01*
X55933988Y-103807771D01*
X57138380Y-104332235D02*
X56601413Y-104527675D01*
X56869897Y-104429955D02*
X56527876Y-103490263D01*
X56487242Y-103657078D01*
X56430321Y-103779146D01*
X56357113Y-103856466D01*
X57585853Y-104169368D02*
X57764842Y-104104222D01*
X57838050Y-104026901D01*
X57866510Y-103965867D01*
X57907145Y-103799052D01*
X57886745Y-103603776D01*
X57756452Y-103245798D01*
X57679131Y-103172590D01*
X57618097Y-103144130D01*
X57512316Y-103131956D01*
X57333327Y-103197102D01*
X57260119Y-103274423D01*
X57231659Y-103335457D01*
X57219485Y-103441238D01*
X57300918Y-103664975D01*
X57378239Y-103738182D01*
X57439273Y-103766643D01*
X57545054Y-103778817D01*
X57724043Y-103713670D01*
X57797251Y-103636350D01*
X57825711Y-103575316D01*
X57837885Y-103469534D01*
X84799775Y-110324966D02*
X84732688Y-110330836D01*
X84592644Y-110275487D01*
X84519688Y-110214269D01*
X84440862Y-110085964D01*
X84429123Y-109951790D01*
X84453862Y-109848224D01*
X84539820Y-109671702D01*
X84631647Y-109562267D01*
X84790561Y-109446963D01*
X84888257Y-109404615D01*
X85022431Y-109392876D01*
X85162475Y-109448225D01*
X85235432Y-109509443D01*
X85314258Y-109637748D01*
X85320127Y-109704835D01*
X85611954Y-109949706D02*
X85679041Y-109943837D01*
X85782606Y-109968577D01*
X85964998Y-110121621D01*
X86007346Y-110219317D01*
X86013215Y-110286405D01*
X85988475Y-110389970D01*
X85927258Y-110462927D01*
X85798953Y-110541753D01*
X84993906Y-110612185D01*
X85468124Y-111010101D01*
X86585129Y-110641973D02*
X86658086Y-110703191D01*
X86700434Y-110800887D01*
X86706303Y-110867974D01*
X86681563Y-110971540D01*
X86595606Y-111148062D01*
X86442561Y-111330454D01*
X86283647Y-111445758D01*
X86185951Y-111488106D01*
X86118864Y-111493975D01*
X86015298Y-111469235D01*
X85942342Y-111408018D01*
X85899994Y-111310321D01*
X85894125Y-111243234D01*
X85918864Y-111139669D01*
X86004822Y-110963147D01*
X86157866Y-110780755D01*
X86316780Y-110665451D01*
X86414476Y-110623103D01*
X86481564Y-110617234D01*
X86585129Y-110641973D01*
X82135742Y-30583142D02*
X82088123Y-30630761D01*
X81945266Y-30678380D01*
X81850028Y-30678380D01*
X81707171Y-30630761D01*
X81611933Y-30535523D01*
X81564314Y-30440285D01*
X81516695Y-30249809D01*
X81516695Y-30106952D01*
X81564314Y-29916476D01*
X81611933Y-29821238D01*
X81707171Y-29726000D01*
X81850028Y-29678380D01*
X81945266Y-29678380D01*
X82088123Y-29726000D01*
X82135742Y-29773619D01*
X82516695Y-29773619D02*
X82564314Y-29726000D01*
X82659552Y-29678380D01*
X82897647Y-29678380D01*
X82992885Y-29726000D01*
X83040504Y-29773619D01*
X83088123Y-29868857D01*
X83088123Y-29964095D01*
X83040504Y-30106952D01*
X82469076Y-30678380D01*
X83088123Y-30678380D01*
X84040504Y-30678380D02*
X83469076Y-30678380D01*
X83754790Y-30678380D02*
X83754790Y-29678380D01*
X83659552Y-29821238D01*
X83564314Y-29916476D01*
X83469076Y-29964095D01*
X75023742Y-43105343D02*
X74976123Y-43152962D01*
X74833266Y-43200581D01*
X74738028Y-43200581D01*
X74595171Y-43152962D01*
X74499933Y-43057724D01*
X74452314Y-42962486D01*
X74404695Y-42772010D01*
X74404695Y-42629153D01*
X74452314Y-42438677D01*
X74499933Y-42343439D01*
X74595171Y-42248201D01*
X74738028Y-42200581D01*
X74833266Y-42200581D01*
X74976123Y-42248201D01*
X75023742Y-42295820D01*
X75404695Y-42295820D02*
X75452314Y-42248201D01*
X75547552Y-42200581D01*
X75785647Y-42200581D01*
X75880885Y-42248201D01*
X75928504Y-42295820D01*
X75976123Y-42391058D01*
X75976123Y-42486296D01*
X75928504Y-42629153D01*
X75357076Y-43200581D01*
X75976123Y-43200581D01*
X76357076Y-42295820D02*
X76404695Y-42248201D01*
X76499933Y-42200581D01*
X76738028Y-42200581D01*
X76833266Y-42248201D01*
X76880885Y-42295820D01*
X76928504Y-42391058D01*
X76928504Y-42486296D01*
X76880885Y-42629153D01*
X76309457Y-43200581D01*
X76928504Y-43200581D01*
X84798876Y-51882473D02*
X84798876Y-52596759D01*
X84751257Y-52739616D01*
X84656019Y-52834854D01*
X84513162Y-52882473D01*
X84417924Y-52882473D01*
X85798876Y-52882473D02*
X85227448Y-52882473D01*
X85513162Y-52882473D02*
X85513162Y-51882473D01*
X85417924Y-52025331D01*
X85322686Y-52120569D01*
X85227448Y-52168188D01*
X72127755Y-33824587D02*
X72127755Y-34538873D01*
X72080136Y-34681730D01*
X71984898Y-34776968D01*
X71842041Y-34824587D01*
X71746803Y-34824587D01*
X72556327Y-33919826D02*
X72603946Y-33872207D01*
X72699184Y-33824587D01*
X72937279Y-33824587D01*
X73032517Y-33872207D01*
X73080136Y-33919826D01*
X73127755Y-34015064D01*
X73127755Y-34110302D01*
X73080136Y-34253159D01*
X72508708Y-34824587D01*
X73127755Y-34824587D01*
X96268873Y-63313091D02*
X96268873Y-64027377D01*
X96221254Y-64170234D01*
X96126016Y-64265472D01*
X95983159Y-64313091D01*
X95887921Y-64313091D01*
X97221254Y-63313091D02*
X96745064Y-63313091D01*
X96697445Y-63789282D01*
X96745064Y-63741663D01*
X96840302Y-63694044D01*
X97078397Y-63694044D01*
X97173635Y-63741663D01*
X97221254Y-63789282D01*
X97268873Y-63884520D01*
X97268873Y-64122615D01*
X97221254Y-64217853D01*
X97173635Y-64265472D01*
X97078397Y-64313091D01*
X96840302Y-64313091D01*
X96745064Y-64265472D01*
X96697445Y-64217853D01*
X61700240Y-32933328D02*
X61121180Y-32983907D01*
X61414525Y-33428199D02*
X60548500Y-32928199D01*
X60738976Y-32598285D01*
X60827834Y-32539616D01*
X60892883Y-32522186D01*
X60999171Y-32528566D01*
X61122889Y-32599994D01*
X61181558Y-32688853D01*
X61198988Y-32753901D01*
X61192608Y-32860190D01*
X61002132Y-33190104D01*
X62176430Y-32108541D02*
X61890716Y-32603413D01*
X62033573Y-32355977D02*
X61167547Y-31855977D01*
X61243646Y-32009884D01*
X61278506Y-32139982D01*
X61272126Y-32246270D01*
X22337910Y-54442366D02*
X22092330Y-53915528D01*
X21775162Y-54343139D02*
X21948811Y-53358331D01*
X22323975Y-53424483D01*
X22409498Y-53487916D01*
X22448124Y-53543081D01*
X22478482Y-53645141D01*
X22453675Y-53785828D01*
X22390242Y-53871350D01*
X22335077Y-53909977D01*
X22233017Y-53940334D01*
X21857852Y-53874183D01*
X22870185Y-53617502D02*
X22925349Y-53578875D01*
X23027410Y-53548517D01*
X23261888Y-53589862D01*
X23347410Y-53653296D01*
X23386037Y-53708460D01*
X23416394Y-53810520D01*
X23399856Y-53904312D01*
X23328154Y-54036729D01*
X22666179Y-54500249D01*
X23275822Y-54607746D01*
X33836324Y-71511710D02*
X33986845Y-70950273D01*
X33469017Y-71073971D02*
X34235062Y-70431183D01*
X34479933Y-70723009D01*
X34504673Y-70826575D01*
X34498803Y-70893662D01*
X34456456Y-70991358D01*
X34347021Y-71083185D01*
X34243455Y-71107925D01*
X34176368Y-71102055D01*
X34078672Y-71059708D01*
X33833800Y-70767881D01*
X34816631Y-71124271D02*
X35214547Y-71598489D01*
X34708458Y-71588012D01*
X34800285Y-71697447D01*
X34825025Y-71801013D01*
X34819155Y-71868100D01*
X34776808Y-71965796D01*
X34594416Y-72118841D01*
X34490851Y-72143580D01*
X34423763Y-72137711D01*
X34326067Y-72095363D01*
X34142414Y-71876493D01*
X34117674Y-71772928D01*
X34123543Y-71705841D01*
X43556180Y-115254066D02*
X43079990Y-115587400D01*
X43556180Y-115825495D02*
X42556180Y-115825495D01*
X42556180Y-115444542D01*
X42603800Y-115349304D01*
X42651419Y-115301685D01*
X42746657Y-115254066D01*
X42889514Y-115254066D01*
X42984752Y-115301685D01*
X43032371Y-115349304D01*
X43079990Y-115444542D01*
X43079990Y-115825495D01*
X42889514Y-114396923D02*
X43556180Y-114396923D01*
X42508561Y-114635019D02*
X43222847Y-114873114D01*
X43222847Y-114254066D01*
X68052252Y-90721306D02*
X67525482Y-90475580D01*
X67557381Y-91007021D02*
X67057381Y-90140995D01*
X67387295Y-89950519D01*
X67493583Y-89944139D01*
X67558632Y-89961569D01*
X67647491Y-90020238D01*
X67718919Y-90143956D01*
X67725299Y-90250244D01*
X67707869Y-90315293D01*
X67649200Y-90404151D01*
X67319286Y-90594627D01*
X68335799Y-89402900D02*
X67923406Y-89640995D01*
X68120262Y-90077198D01*
X68137692Y-90012149D01*
X68196361Y-89923291D01*
X68402557Y-89804243D01*
X68508846Y-89797863D01*
X68573894Y-89815293D01*
X68662753Y-89873962D01*
X68781800Y-90080159D01*
X68788180Y-90186447D01*
X68770750Y-90251495D01*
X68712081Y-90340354D01*
X68505885Y-90459401D01*
X68399597Y-90465781D01*
X68334548Y-90448351D01*
X53068750Y-32477220D02*
X53479823Y-32066261D01*
X52969522Y-31914473D02*
X53954330Y-31740825D01*
X54020482Y-32115989D01*
X53990124Y-32218050D01*
X53951497Y-32273214D01*
X53865975Y-32336648D01*
X53725288Y-32361455D01*
X53623228Y-32331097D01*
X53568064Y-32292470D01*
X53504630Y-32206948D01*
X53438478Y-31831783D01*
X54202399Y-33147693D02*
X54169323Y-32960110D01*
X54105890Y-32874588D01*
X54050725Y-32835961D01*
X53893500Y-32766977D01*
X53697649Y-32753157D01*
X53322484Y-32819309D01*
X53236962Y-32882743D01*
X53198335Y-32937907D01*
X53167977Y-33039967D01*
X53201053Y-33227550D01*
X53264487Y-33313072D01*
X53319651Y-33351699D01*
X53421712Y-33382056D01*
X53656190Y-33340712D01*
X53741712Y-33277278D01*
X53780338Y-33222113D01*
X53810696Y-33120053D01*
X53777620Y-32932471D01*
X53714187Y-32846949D01*
X53659022Y-32808322D01*
X53556962Y-32777964D01*
X21575910Y-50733966D02*
X21330330Y-50207128D01*
X21013162Y-50634739D02*
X21186811Y-49649931D01*
X21561975Y-49716083D01*
X21647498Y-49779516D01*
X21686124Y-49834681D01*
X21716482Y-49936741D01*
X21691675Y-50077428D01*
X21628242Y-50162950D01*
X21573077Y-50201577D01*
X21471017Y-50231934D01*
X21095852Y-50165783D01*
X22077827Y-49807041D02*
X22734366Y-49922807D01*
X22138657Y-50833194D01*
X52467020Y-26915849D02*
X52056061Y-26504776D01*
X51904273Y-27015077D02*
X51730625Y-26030269D01*
X52105789Y-25964117D01*
X52207850Y-25994475D01*
X52263014Y-26033102D01*
X52326448Y-26118624D01*
X52351255Y-26259311D01*
X52320897Y-26361371D01*
X52282270Y-26416535D01*
X52196748Y-26479969D01*
X51821583Y-26546121D01*
X52930540Y-26253874D02*
X52828480Y-26223517D01*
X52773315Y-26184890D01*
X52709881Y-26099368D01*
X52701613Y-26052472D01*
X52731970Y-25950412D01*
X52770597Y-25895247D01*
X52856119Y-25831814D01*
X53043702Y-25798738D01*
X53145762Y-25829096D01*
X53200926Y-25867722D01*
X53264360Y-25953245D01*
X53272629Y-26000140D01*
X53242271Y-26102200D01*
X53203644Y-26157365D01*
X53118122Y-26220798D01*
X52930540Y-26253874D01*
X52845018Y-26317308D01*
X52806391Y-26372472D01*
X52776033Y-26474533D01*
X52809109Y-26662115D01*
X52872543Y-26747637D01*
X52927707Y-26786264D01*
X53029767Y-26816622D01*
X53217350Y-26783546D01*
X53302872Y-26720112D01*
X53341499Y-26664948D01*
X53371856Y-26562887D01*
X53338780Y-26375305D01*
X53275347Y-26289783D01*
X53220182Y-26251156D01*
X53118122Y-26220798D01*
X25665310Y-44282366D02*
X25419730Y-43755528D01*
X25102562Y-44183139D02*
X25276211Y-43198331D01*
X25651375Y-43264483D01*
X25736898Y-43327916D01*
X25775524Y-43383081D01*
X25805882Y-43485141D01*
X25781075Y-43625828D01*
X25717642Y-43711350D01*
X25662477Y-43749977D01*
X25560417Y-43780334D01*
X25185252Y-43714183D01*
X26134266Y-44365056D02*
X26321848Y-44398132D01*
X26423908Y-44367774D01*
X26479073Y-44329148D01*
X26597671Y-44204999D01*
X26677643Y-44025685D01*
X26743794Y-43650520D01*
X26713437Y-43548460D01*
X26674810Y-43493296D01*
X26589288Y-43429862D01*
X26401705Y-43396786D01*
X26299645Y-43427144D01*
X26244480Y-43465771D01*
X26181047Y-43551293D01*
X26139702Y-43785771D01*
X26170060Y-43887831D01*
X26208686Y-43942996D01*
X26294209Y-44006429D01*
X26481791Y-44039505D01*
X26583851Y-44009147D01*
X26639016Y-43970521D01*
X26702449Y-43884998D01*
X31219788Y-78894428D02*
X31069424Y-78332949D01*
X30682821Y-78698988D02*
X31024841Y-77759296D01*
X31382819Y-77889589D01*
X31456027Y-77966910D01*
X31484488Y-78027944D01*
X31496661Y-78133725D01*
X31447801Y-78267967D01*
X31370481Y-78341175D01*
X31309447Y-78369635D01*
X31203666Y-78381809D01*
X30845688Y-78251516D01*
X32114733Y-79220162D02*
X31577766Y-79024722D01*
X31846250Y-79122442D02*
X32188270Y-78182749D01*
X32049915Y-78284418D01*
X31927847Y-78341339D01*
X31822066Y-78353513D01*
X33038468Y-78492196D02*
X33127962Y-78524769D01*
X33201170Y-78602090D01*
X33229631Y-78663124D01*
X33241805Y-78768905D01*
X33221405Y-78964181D01*
X33139972Y-79187917D01*
X33030078Y-79350620D01*
X32952758Y-79423828D01*
X32891724Y-79452288D01*
X32785942Y-79464462D01*
X32696448Y-79431889D01*
X32623240Y-79354568D01*
X32594779Y-79293534D01*
X32582605Y-79187753D01*
X32603005Y-78992477D01*
X32684438Y-78768741D01*
X32794332Y-78606038D01*
X32871653Y-78532831D01*
X32932687Y-78504370D01*
X33038468Y-78492196D01*
X26113228Y-76958811D02*
X25551749Y-77109175D01*
X25917788Y-77495778D02*
X24978096Y-77153758D01*
X25108389Y-76795780D01*
X25185710Y-76722572D01*
X25246744Y-76694111D01*
X25352525Y-76681938D01*
X25486767Y-76730798D01*
X25559975Y-76808118D01*
X25588435Y-76869152D01*
X25600609Y-76974933D01*
X25470316Y-77332911D01*
X26438962Y-76063866D02*
X26243522Y-76600833D01*
X26341242Y-76332349D02*
X25401549Y-75990329D01*
X25503218Y-76128684D01*
X25560139Y-76250752D01*
X25572313Y-76356533D01*
X26764695Y-75168920D02*
X26569255Y-75705888D01*
X26666975Y-75437404D02*
X25727283Y-75095384D01*
X25828951Y-75233738D01*
X25885872Y-75355806D01*
X25898046Y-75461587D01*
X39619180Y-113266457D02*
X39142990Y-113599790D01*
X39619180Y-113837885D02*
X38619180Y-113837885D01*
X38619180Y-113456933D01*
X38666800Y-113361695D01*
X38714419Y-113314076D01*
X38809657Y-113266457D01*
X38952514Y-113266457D01*
X39047752Y-113314076D01*
X39095371Y-113361695D01*
X39142990Y-113456933D01*
X39142990Y-113837885D01*
X39619180Y-112314076D02*
X39619180Y-112885504D01*
X39619180Y-112599790D02*
X38619180Y-112599790D01*
X38762038Y-112695028D01*
X38857276Y-112790266D01*
X38904895Y-112885504D01*
X38714419Y-111933123D02*
X38666800Y-111885504D01*
X38619180Y-111790266D01*
X38619180Y-111552171D01*
X38666800Y-111456933D01*
X38714419Y-111409314D01*
X38809657Y-111361695D01*
X38904895Y-111361695D01*
X39047752Y-111409314D01*
X39619180Y-111980742D01*
X39619180Y-111361695D01*
X76194144Y-94305721D02*
X75615085Y-94356300D01*
X75908430Y-94800592D02*
X75042405Y-94300592D01*
X75232881Y-93970678D01*
X75321739Y-93912009D01*
X75386788Y-93894579D01*
X75493076Y-93900959D01*
X75616794Y-93972387D01*
X75675463Y-94061246D01*
X75692893Y-94126294D01*
X75686513Y-94232583D01*
X75496037Y-94562497D01*
X76670335Y-93480934D02*
X76384621Y-93975806D01*
X76527478Y-93728370D02*
X75661452Y-93228370D01*
X75737551Y-93382278D01*
X75772411Y-93512375D01*
X75766031Y-93618663D01*
X75970976Y-92692259D02*
X76280500Y-92156148D01*
X76443748Y-92635300D01*
X76515176Y-92511582D01*
X76604035Y-92452913D01*
X76669083Y-92435483D01*
X76775372Y-92441863D01*
X76981568Y-92560910D01*
X77040237Y-92649769D01*
X77057667Y-92714817D01*
X77051287Y-92821106D01*
X76908430Y-93068541D01*
X76819572Y-93127211D01*
X76754523Y-93144640D01*
X33344344Y-105507121D02*
X32765285Y-105557700D01*
X33058630Y-106001992D02*
X32192605Y-105501992D01*
X32383081Y-105172078D01*
X32471939Y-105113409D01*
X32536988Y-105095979D01*
X32643276Y-105102359D01*
X32766994Y-105173787D01*
X32825663Y-105262646D01*
X32843093Y-105327694D01*
X32836713Y-105433983D01*
X32646237Y-105763897D01*
X33820535Y-104682334D02*
X33534821Y-105177206D01*
X33677678Y-104929770D02*
X32811652Y-104429770D01*
X32887751Y-104583678D01*
X32922611Y-104713775D01*
X32916231Y-104820063D01*
X33671756Y-103606694D02*
X34249106Y-103940027D01*
X33222794Y-103622414D02*
X33722336Y-104185753D01*
X34031860Y-103649642D01*
X68659388Y-98427027D02*
X68509024Y-97865548D01*
X68122421Y-98231587D02*
X68464441Y-97291895D01*
X68822419Y-97422188D01*
X68895627Y-97499509D01*
X68924088Y-97560543D01*
X68936261Y-97666324D01*
X68887401Y-97800566D01*
X68810081Y-97873774D01*
X68749047Y-97902234D01*
X68643266Y-97914408D01*
X68285288Y-97784115D01*
X69554333Y-98752761D02*
X69017366Y-98557321D01*
X69285850Y-98655041D02*
X69627870Y-97715348D01*
X69489515Y-97817017D01*
X69367447Y-97873938D01*
X69261666Y-97886112D01*
X70746552Y-98122515D02*
X70299079Y-97959648D01*
X70091465Y-98390834D01*
X70152499Y-98362374D01*
X70258280Y-98350200D01*
X70482016Y-98431633D01*
X70555224Y-98508954D01*
X70583685Y-98569988D01*
X70595859Y-98675769D01*
X70514425Y-98899505D01*
X70437105Y-98972713D01*
X70376071Y-99001174D01*
X70270290Y-99013348D01*
X70046553Y-98931914D01*
X69973345Y-98854594D01*
X69944885Y-98793560D01*
X49430060Y-32617864D02*
X49841134Y-32206905D01*
X49330833Y-32055117D02*
X50315640Y-31881468D01*
X50381792Y-32256633D01*
X50351434Y-32358693D01*
X50312808Y-32413858D01*
X50227286Y-32477292D01*
X50086599Y-32502098D01*
X49984539Y-32471741D01*
X49929374Y-32433114D01*
X49865940Y-32347592D01*
X49799789Y-31972427D01*
X49595439Y-33555776D02*
X49496212Y-32993029D01*
X49545826Y-33274402D02*
X50530633Y-33100754D01*
X50373409Y-33031770D01*
X50263080Y-32954517D01*
X50199646Y-32868994D01*
X50729089Y-34226249D02*
X50696013Y-34038666D01*
X50632579Y-33953144D01*
X50577415Y-33914517D01*
X50420190Y-33845533D01*
X50224338Y-33831713D01*
X49849174Y-33897865D01*
X49763651Y-33961299D01*
X49725025Y-34016463D01*
X49694667Y-34118523D01*
X49727743Y-34306106D01*
X49791176Y-34391628D01*
X49846341Y-34430255D01*
X49948401Y-34460612D01*
X50182879Y-34419268D01*
X50268401Y-34355834D01*
X50307028Y-34300669D01*
X50337386Y-34198609D01*
X50304310Y-34011027D01*
X50240876Y-33925505D01*
X50185712Y-33886878D01*
X50083652Y-33856520D01*
X31376835Y-48066769D02*
X30900737Y-47733303D01*
X30839868Y-48262209D02*
X30497847Y-47322516D01*
X30855826Y-47192223D01*
X30961607Y-47204397D01*
X31022641Y-47232857D01*
X31099961Y-47306065D01*
X31148821Y-47440307D01*
X31136647Y-47546088D01*
X31108187Y-47607122D01*
X31034979Y-47684443D01*
X30677001Y-47814736D01*
X32271780Y-47741035D02*
X31734813Y-47936475D01*
X32003297Y-47838755D02*
X31661276Y-46899063D01*
X31620642Y-47065878D01*
X31563721Y-47187946D01*
X31490513Y-47265266D01*
X32242991Y-46687336D02*
X32869453Y-46459322D01*
X32808747Y-47545595D01*
X30076788Y-81942428D02*
X29926424Y-81380949D01*
X29539821Y-81746988D02*
X29881841Y-80807296D01*
X30239819Y-80937589D01*
X30313027Y-81014910D01*
X30341488Y-81075944D01*
X30353661Y-81181725D01*
X30304801Y-81315967D01*
X30227481Y-81389175D01*
X30166447Y-81417635D01*
X30060666Y-81429809D01*
X29702688Y-81299516D01*
X30971733Y-82268162D02*
X30434766Y-82072722D01*
X30703250Y-82170442D02*
X31045270Y-81230749D01*
X30906915Y-81332418D01*
X30784847Y-81389339D01*
X30679066Y-81401513D01*
X31704141Y-81926635D02*
X31630933Y-81849314D01*
X31602472Y-81788280D01*
X31590298Y-81682499D01*
X31606585Y-81637752D01*
X31683906Y-81564544D01*
X31744939Y-81536083D01*
X31850721Y-81523909D01*
X32029710Y-81589056D01*
X32102918Y-81666377D01*
X32131378Y-81727411D01*
X32143552Y-81833192D01*
X32127265Y-81877939D01*
X32049945Y-81951147D01*
X31988911Y-81979608D01*
X31883130Y-81991781D01*
X31704141Y-81926635D01*
X31598359Y-81938809D01*
X31537325Y-81967269D01*
X31460005Y-82040477D01*
X31394858Y-82219466D01*
X31407032Y-82325247D01*
X31435493Y-82386281D01*
X31508701Y-82463602D01*
X31687690Y-82528749D01*
X31793471Y-82516575D01*
X31854505Y-82488114D01*
X31931825Y-82414906D01*
X31996972Y-82235917D01*
X31984798Y-82130136D01*
X31956338Y-82069102D01*
X31883130Y-81991781D01*
X39923980Y-102827057D02*
X39447790Y-103160390D01*
X39923980Y-103398485D02*
X38923980Y-103398485D01*
X38923980Y-103017533D01*
X38971600Y-102922295D01*
X39019219Y-102874676D01*
X39114457Y-102827057D01*
X39257314Y-102827057D01*
X39352552Y-102874676D01*
X39400171Y-102922295D01*
X39447790Y-103017533D01*
X39447790Y-103398485D01*
X39923980Y-101874676D02*
X39923980Y-102446104D01*
X39923980Y-102160390D02*
X38923980Y-102160390D01*
X39066838Y-102255628D01*
X39162076Y-102350866D01*
X39209695Y-102446104D01*
X39923980Y-101398485D02*
X39923980Y-101208009D01*
X39876361Y-101112771D01*
X39828742Y-101065152D01*
X39685885Y-100969914D01*
X39495409Y-100922295D01*
X39114457Y-100922295D01*
X39019219Y-100969914D01*
X38971600Y-101017533D01*
X38923980Y-101112771D01*
X38923980Y-101303247D01*
X38971600Y-101398485D01*
X39019219Y-101446104D01*
X39114457Y-101493723D01*
X39352552Y-101493723D01*
X39447790Y-101446104D01*
X39495409Y-101398485D01*
X39543028Y-101303247D01*
X39543028Y-101112771D01*
X39495409Y-101017533D01*
X39447790Y-100969914D01*
X39352552Y-100922295D01*
X78302344Y-97252121D02*
X77723285Y-97302700D01*
X78016630Y-97746992D02*
X77150605Y-97246992D01*
X77341081Y-96917078D01*
X77429939Y-96858409D01*
X77494988Y-96840979D01*
X77601276Y-96847359D01*
X77724994Y-96918787D01*
X77783663Y-97007646D01*
X77801093Y-97072694D01*
X77794713Y-97178983D01*
X77604237Y-97508897D01*
X77709274Y-96469825D02*
X77691844Y-96404776D01*
X77698224Y-96298488D01*
X77817271Y-96092292D01*
X77906130Y-96033623D01*
X77971178Y-96016193D01*
X78077467Y-96022573D01*
X78159945Y-96070192D01*
X78259854Y-96182860D01*
X78469011Y-96963445D01*
X78778535Y-96427334D01*
X78222033Y-95391224D02*
X78269652Y-95308745D01*
X78358511Y-95250076D01*
X78423559Y-95232646D01*
X78529848Y-95239026D01*
X78718614Y-95293025D01*
X78924811Y-95412072D01*
X79065959Y-95548550D01*
X79124628Y-95637408D01*
X79142057Y-95702457D01*
X79135678Y-95808745D01*
X79088059Y-95891224D01*
X78999200Y-95949893D01*
X78934151Y-95967322D01*
X78827863Y-95960943D01*
X78639097Y-95906944D01*
X78432900Y-95787896D01*
X78291752Y-95651419D01*
X78233083Y-95562560D01*
X78215653Y-95497512D01*
X78222033Y-95391224D01*
X56100742Y-40127180D02*
X55767409Y-39650990D01*
X55529314Y-40127180D02*
X55529314Y-39127180D01*
X55910266Y-39127180D01*
X56005504Y-39174800D01*
X56053123Y-39222419D01*
X56100742Y-39317657D01*
X56100742Y-39460514D01*
X56053123Y-39555752D01*
X56005504Y-39603371D01*
X55910266Y-39650990D01*
X55529314Y-39650990D01*
X56481695Y-39222419D02*
X56529314Y-39174800D01*
X56624552Y-39127180D01*
X56862647Y-39127180D01*
X56957885Y-39174800D01*
X57005504Y-39222419D01*
X57053123Y-39317657D01*
X57053123Y-39412895D01*
X57005504Y-39555752D01*
X56434076Y-40127180D01*
X57053123Y-40127180D01*
X58005504Y-40127180D02*
X57434076Y-40127180D01*
X57719790Y-40127180D02*
X57719790Y-39127180D01*
X57624552Y-39270038D01*
X57529314Y-39365276D01*
X57434076Y-39412895D01*
X21462554Y-57534677D02*
X21216974Y-57007838D01*
X20899806Y-57435449D02*
X21073455Y-56450642D01*
X21448619Y-56516793D01*
X21534142Y-56580227D01*
X21572768Y-56635391D01*
X21603126Y-56737451D01*
X21578319Y-56878138D01*
X21514886Y-56963661D01*
X21459721Y-57002287D01*
X21357661Y-57032645D01*
X20982496Y-56966493D01*
X21994829Y-56709812D02*
X22049993Y-56671185D01*
X22152054Y-56640828D01*
X22386532Y-56682172D01*
X22472054Y-56745606D01*
X22510680Y-56800771D01*
X22541038Y-56902831D01*
X22524500Y-56996622D01*
X22452798Y-57129040D01*
X21790823Y-57592560D01*
X22400466Y-57700056D01*
X22932741Y-56875191D02*
X22987906Y-56836565D01*
X23089966Y-56806207D01*
X23324444Y-56847552D01*
X23409966Y-56910985D01*
X23448593Y-56966150D01*
X23478950Y-57068210D01*
X23462412Y-57162001D01*
X23390710Y-57294419D01*
X22728735Y-57757939D01*
X23338378Y-57865435D01*
X40108628Y-77314411D02*
X39547149Y-77464775D01*
X39913188Y-77851378D02*
X38973496Y-77509358D01*
X39103789Y-77151380D01*
X39181110Y-77078172D01*
X39242144Y-77049711D01*
X39347925Y-77037538D01*
X39482167Y-77086398D01*
X39555375Y-77163718D01*
X39583835Y-77224752D01*
X39596009Y-77330533D01*
X39465716Y-77688511D01*
X39388724Y-76646986D02*
X39360263Y-76585952D01*
X39348089Y-76480171D01*
X39429523Y-76256435D01*
X39506843Y-76183227D01*
X39567877Y-76154766D01*
X39673658Y-76142592D01*
X39763153Y-76175166D01*
X39881108Y-76268773D01*
X40222635Y-77001180D01*
X40434362Y-76419466D01*
X39608676Y-75764215D02*
X39820403Y-75182500D01*
X40064374Y-75626024D01*
X40113234Y-75491783D01*
X40190555Y-75418575D01*
X40251589Y-75390114D01*
X40357370Y-75377940D01*
X40581106Y-75459374D01*
X40654314Y-75536694D01*
X40682775Y-75597728D01*
X40694949Y-75703509D01*
X40597229Y-75971993D01*
X40519908Y-76045201D01*
X40458874Y-76073661D01*
X47112180Y-115730257D02*
X46635990Y-116063590D01*
X47112180Y-116301685D02*
X46112180Y-116301685D01*
X46112180Y-115920733D01*
X46159800Y-115825495D01*
X46207419Y-115777876D01*
X46302657Y-115730257D01*
X46445514Y-115730257D01*
X46540752Y-115777876D01*
X46588371Y-115825495D01*
X46635990Y-115920733D01*
X46635990Y-116301685D01*
X46207419Y-115349304D02*
X46159800Y-115301685D01*
X46112180Y-115206447D01*
X46112180Y-114968352D01*
X46159800Y-114873114D01*
X46207419Y-114825495D01*
X46302657Y-114777876D01*
X46397895Y-114777876D01*
X46540752Y-114825495D01*
X47112180Y-115396923D01*
X47112180Y-114777876D01*
X46445514Y-113920733D02*
X47112180Y-113920733D01*
X46064561Y-114158828D02*
X46778847Y-114396923D01*
X46778847Y-113777876D01*
X72292878Y-85719145D02*
X72242299Y-85140086D01*
X71798007Y-85433431D02*
X72298007Y-84567406D01*
X72627921Y-84757882D01*
X72686590Y-84846740D01*
X72704020Y-84911789D01*
X72697640Y-85018077D01*
X72626212Y-85141795D01*
X72537353Y-85200464D01*
X72472305Y-85217894D01*
X72366016Y-85211514D01*
X72036102Y-85021038D01*
X73075174Y-85126075D02*
X73140223Y-85108645D01*
X73246511Y-85115025D01*
X73452707Y-85234072D01*
X73511376Y-85322931D01*
X73528806Y-85387979D01*
X73522426Y-85494268D01*
X73474807Y-85576746D01*
X73362139Y-85676655D01*
X72581554Y-85885812D01*
X73117665Y-86195336D01*
X74401211Y-85781691D02*
X73988818Y-85543596D01*
X73709484Y-85932180D01*
X73774533Y-85914750D01*
X73880821Y-85921130D01*
X74087017Y-86040177D01*
X74145686Y-86129036D01*
X74163116Y-86194084D01*
X74156736Y-86300373D01*
X74037689Y-86506569D01*
X73948830Y-86565238D01*
X73883782Y-86582668D01*
X73777493Y-86576288D01*
X73571297Y-86457241D01*
X73512628Y-86368382D01*
X73495198Y-86303333D01*
X59021742Y-43479980D02*
X58688409Y-43003790D01*
X58450314Y-43479980D02*
X58450314Y-42479980D01*
X58831266Y-42479980D01*
X58926504Y-42527600D01*
X58974123Y-42575219D01*
X59021742Y-42670457D01*
X59021742Y-42813314D01*
X58974123Y-42908552D01*
X58926504Y-42956171D01*
X58831266Y-43003790D01*
X58450314Y-43003790D01*
X59402695Y-42575219D02*
X59450314Y-42527600D01*
X59545552Y-42479980D01*
X59783647Y-42479980D01*
X59878885Y-42527600D01*
X59926504Y-42575219D01*
X59974123Y-42670457D01*
X59974123Y-42765695D01*
X59926504Y-42908552D01*
X59355076Y-43479980D01*
X59974123Y-43479980D01*
X60831266Y-42479980D02*
X60640790Y-42479980D01*
X60545552Y-42527600D01*
X60497933Y-42575219D01*
X60402695Y-42718076D01*
X60355076Y-42908552D01*
X60355076Y-43289504D01*
X60402695Y-43384742D01*
X60450314Y-43432361D01*
X60545552Y-43479980D01*
X60736028Y-43479980D01*
X60831266Y-43432361D01*
X60878885Y-43384742D01*
X60926504Y-43289504D01*
X60926504Y-43051409D01*
X60878885Y-42956171D01*
X60831266Y-42908552D01*
X60736028Y-42860933D01*
X60545552Y-42860933D01*
X60450314Y-42908552D01*
X60402695Y-42956171D01*
X60355076Y-43051409D01*
X27714588Y-40870628D02*
X27564224Y-40309149D01*
X27177621Y-40675188D02*
X27519641Y-39735496D01*
X27877619Y-39865789D01*
X27950827Y-39943110D01*
X27979288Y-40004144D01*
X27991461Y-40109925D01*
X27942601Y-40244167D01*
X27865281Y-40317375D01*
X27804247Y-40345835D01*
X27698466Y-40358009D01*
X27340488Y-40227716D01*
X28382013Y-40150724D02*
X28443047Y-40122263D01*
X28548828Y-40110089D01*
X28772564Y-40191523D01*
X28845772Y-40268843D01*
X28874233Y-40329877D01*
X28886407Y-40435658D01*
X28853833Y-40525153D01*
X28760226Y-40643108D01*
X28027819Y-40984635D01*
X28609533Y-41196362D01*
X29264784Y-40370676D02*
X29891246Y-40598689D01*
X29146501Y-41391802D01*
X43944028Y-75841211D02*
X43382549Y-75991575D01*
X43748588Y-76378178D02*
X42808896Y-76036158D01*
X42939189Y-75678180D01*
X43016510Y-75604972D01*
X43077544Y-75576511D01*
X43183325Y-75564338D01*
X43317567Y-75613198D01*
X43390775Y-75690518D01*
X43419235Y-75751552D01*
X43431409Y-75857333D01*
X43301116Y-76215311D01*
X43224124Y-75173786D02*
X43195663Y-75112752D01*
X43183489Y-75006971D01*
X43264923Y-74783235D01*
X43342243Y-74710027D01*
X43403277Y-74681566D01*
X43509058Y-74669392D01*
X43598553Y-74701966D01*
X43716508Y-74795573D01*
X44058035Y-75527980D01*
X44269762Y-74946266D01*
X43928235Y-74213858D02*
X43850914Y-74287066D01*
X43789880Y-74315527D01*
X43684099Y-74327701D01*
X43639352Y-74311414D01*
X43566144Y-74234093D01*
X43537683Y-74173060D01*
X43525509Y-74067278D01*
X43590656Y-73888289D01*
X43667977Y-73815081D01*
X43729011Y-73786621D01*
X43834792Y-73774447D01*
X43879539Y-73790734D01*
X43952747Y-73868054D01*
X43981208Y-73929088D01*
X43993381Y-74034869D01*
X43928235Y-74213858D01*
X43940409Y-74319640D01*
X43968869Y-74380674D01*
X44042077Y-74457994D01*
X44221066Y-74523141D01*
X44326847Y-74510967D01*
X44387881Y-74482506D01*
X44465202Y-74409298D01*
X44530349Y-74230309D01*
X44518175Y-74124528D01*
X44489714Y-74063494D01*
X44416506Y-73986174D01*
X44237517Y-73921027D01*
X44131736Y-73933201D01*
X44070702Y-73961661D01*
X43993381Y-74034869D01*
X30677344Y-103525921D02*
X30098285Y-103576500D01*
X30391630Y-104020792D02*
X29525605Y-103520792D01*
X29716081Y-103190878D01*
X29804939Y-103132209D01*
X29869988Y-103114779D01*
X29976276Y-103121159D01*
X30099994Y-103192587D01*
X30158663Y-103281446D01*
X30176093Y-103346494D01*
X30169713Y-103452783D01*
X29979237Y-103782697D01*
X30084274Y-102743625D02*
X30066844Y-102678576D01*
X30073224Y-102572288D01*
X30192271Y-102366092D01*
X30281130Y-102307423D01*
X30346178Y-102289993D01*
X30452467Y-102296373D01*
X30534945Y-102343992D01*
X30634854Y-102456660D01*
X30844011Y-103237245D01*
X31153535Y-102701134D01*
X31391630Y-102288741D02*
X31486868Y-102123784D01*
X31493248Y-102017496D01*
X31475818Y-101952447D01*
X31399719Y-101798540D01*
X31258572Y-101662063D01*
X30928657Y-101471586D01*
X30822369Y-101465207D01*
X30757320Y-101482637D01*
X30668462Y-101541306D01*
X30573224Y-101706263D01*
X30566844Y-101812551D01*
X30584274Y-101877600D01*
X30642943Y-101966458D01*
X30849139Y-102085506D01*
X30955427Y-102091886D01*
X31020476Y-102074456D01*
X31109335Y-102015787D01*
X31204573Y-101850829D01*
X31210952Y-101744541D01*
X31193523Y-101679492D01*
X31134854Y-101590634D01*
X71480079Y-81528144D02*
X71429500Y-80949085D01*
X70985208Y-81242430D02*
X71485208Y-80376405D01*
X71815122Y-80566881D01*
X71873791Y-80655739D01*
X71891221Y-80720788D01*
X71884841Y-80827076D01*
X71813413Y-80950794D01*
X71724554Y-81009463D01*
X71659506Y-81026893D01*
X71553217Y-81020513D01*
X71223303Y-80830037D01*
X72268755Y-80828786D02*
X72804866Y-81138309D01*
X72325714Y-81301557D01*
X72449432Y-81372986D01*
X72508101Y-81461844D01*
X72525531Y-81526893D01*
X72519151Y-81633181D01*
X72400104Y-81839378D01*
X72311245Y-81898047D01*
X72246196Y-81915476D01*
X72139908Y-81909097D01*
X71892472Y-81766240D01*
X71833803Y-81677381D01*
X71816374Y-81612332D01*
X73340976Y-81447833D02*
X73423455Y-81495452D01*
X73482124Y-81584311D01*
X73499554Y-81649359D01*
X73493174Y-81755648D01*
X73439175Y-81944414D01*
X73320128Y-82150611D01*
X73183650Y-82291759D01*
X73094792Y-82350428D01*
X73029743Y-82367857D01*
X72923455Y-82361478D01*
X72840976Y-82313859D01*
X72782307Y-82225000D01*
X72764878Y-82159951D01*
X72771257Y-82053663D01*
X72825256Y-81864897D01*
X72944304Y-81658700D01*
X73080781Y-81517552D01*
X73169640Y-81458883D01*
X73234688Y-81441453D01*
X73340976Y-81447833D01*
X58539142Y-46781980D02*
X58205809Y-46305790D01*
X57967714Y-46781980D02*
X57967714Y-45781980D01*
X58348666Y-45781980D01*
X58443904Y-45829600D01*
X58491523Y-45877219D01*
X58539142Y-45972457D01*
X58539142Y-46115314D01*
X58491523Y-46210552D01*
X58443904Y-46258171D01*
X58348666Y-46305790D01*
X57967714Y-46305790D01*
X58872476Y-45781980D02*
X59491523Y-45781980D01*
X59158190Y-46162933D01*
X59301047Y-46162933D01*
X59396285Y-46210552D01*
X59443904Y-46258171D01*
X59491523Y-46353409D01*
X59491523Y-46591504D01*
X59443904Y-46686742D01*
X59396285Y-46734361D01*
X59301047Y-46781980D01*
X59015333Y-46781980D01*
X58920095Y-46734361D01*
X58872476Y-46686742D01*
X60443904Y-46781980D02*
X59872476Y-46781980D01*
X60158190Y-46781980D02*
X60158190Y-45781980D01*
X60062952Y-45924838D01*
X59967714Y-46020076D01*
X59872476Y-46067695D01*
X29060788Y-37975028D02*
X28910424Y-37413549D01*
X28523821Y-37779588D02*
X28865841Y-36839896D01*
X29223819Y-36970189D01*
X29297027Y-37047510D01*
X29325488Y-37108544D01*
X29337661Y-37214325D01*
X29288801Y-37348567D01*
X29211481Y-37421775D01*
X29150447Y-37450235D01*
X29044666Y-37462409D01*
X28686688Y-37332116D01*
X29716039Y-37149343D02*
X30297753Y-37361069D01*
X29854229Y-37605041D01*
X29988471Y-37653901D01*
X30061679Y-37731221D01*
X30090139Y-37792255D01*
X30102313Y-37898037D01*
X30020880Y-38121773D01*
X29943559Y-38194981D01*
X29882525Y-38223441D01*
X29776744Y-38235615D01*
X29508261Y-38137895D01*
X29435053Y-38060575D01*
X29406592Y-37999541D01*
X30623158Y-37580857D02*
X30684192Y-37552397D01*
X30789973Y-37540223D01*
X31013710Y-37621656D01*
X31086918Y-37698977D01*
X31115378Y-37760011D01*
X31127552Y-37865792D01*
X31094979Y-37955286D01*
X31001372Y-38073242D01*
X30268964Y-38414769D01*
X30850679Y-38626495D01*
X46788828Y-77543011D02*
X46227349Y-77693375D01*
X46593388Y-78079978D02*
X45653696Y-77737958D01*
X45783989Y-77379980D01*
X45861310Y-77306772D01*
X45922344Y-77278311D01*
X46028125Y-77266138D01*
X46162367Y-77314998D01*
X46235575Y-77392318D01*
X46264035Y-77453352D01*
X46276209Y-77559133D01*
X46145916Y-77917111D01*
X45963143Y-76887760D02*
X46174869Y-76306046D01*
X46418841Y-76749570D01*
X46467701Y-76615328D01*
X46545021Y-76542120D01*
X46606055Y-76513660D01*
X46711837Y-76501486D01*
X46935573Y-76582919D01*
X47008781Y-76660240D01*
X47037241Y-76721274D01*
X47049415Y-76827055D01*
X46951695Y-77095538D01*
X46874375Y-77168746D01*
X46813341Y-77197207D01*
X46288876Y-75992815D02*
X46500603Y-75411100D01*
X46744574Y-75854624D01*
X46793434Y-75720383D01*
X46870755Y-75647175D01*
X46931789Y-75618714D01*
X47037570Y-75606540D01*
X47261306Y-75687974D01*
X47334514Y-75765294D01*
X47362975Y-75826328D01*
X47375149Y-75932109D01*
X47277429Y-76200593D01*
X47200108Y-76273801D01*
X47139074Y-76302261D01*
X28619944Y-100884321D02*
X28040885Y-100934900D01*
X28334230Y-101379192D02*
X27468205Y-100879192D01*
X27658681Y-100549278D01*
X27747539Y-100490609D01*
X27812588Y-100473179D01*
X27918876Y-100479559D01*
X28042594Y-100550987D01*
X28101263Y-100639846D01*
X28118693Y-100704894D01*
X28112313Y-100811183D01*
X27921837Y-101141097D01*
X27920586Y-100095645D02*
X28230109Y-99559534D01*
X28393357Y-100038686D01*
X28464786Y-99914968D01*
X28553644Y-99856299D01*
X28618693Y-99838869D01*
X28724981Y-99845249D01*
X28931178Y-99964296D01*
X28989847Y-100053155D01*
X29007276Y-100118204D01*
X29000897Y-100224492D01*
X28858040Y-100471928D01*
X28769181Y-100530597D01*
X28704132Y-100548026D01*
X28947356Y-98983894D02*
X29524706Y-99317227D01*
X28498394Y-98999614D02*
X28997936Y-99562953D01*
X29307460Y-99026842D01*
X74020078Y-79292944D02*
X73969499Y-78713885D01*
X73525207Y-79007230D02*
X74025207Y-78141205D01*
X74355121Y-78331681D01*
X74413790Y-78420539D01*
X74431220Y-78485588D01*
X74424840Y-78591876D01*
X74353412Y-78715594D01*
X74264553Y-78774263D01*
X74199505Y-78791693D01*
X74093216Y-78785313D01*
X73763302Y-78594837D01*
X74808754Y-78593586D02*
X75344865Y-78903109D01*
X74865713Y-79066357D01*
X74989431Y-79137786D01*
X75048100Y-79226644D01*
X75065530Y-79291693D01*
X75059150Y-79397981D01*
X74940103Y-79604178D01*
X74851244Y-79662847D01*
X74786195Y-79680276D01*
X74679907Y-79673897D01*
X74432471Y-79531040D01*
X74373802Y-79442181D01*
X74356373Y-79377132D01*
X76128411Y-79355490D02*
X75716018Y-79117395D01*
X75436684Y-79505979D01*
X75501733Y-79488549D01*
X75608021Y-79494929D01*
X75814217Y-79613976D01*
X75872886Y-79702835D01*
X75890316Y-79767883D01*
X75883936Y-79874172D01*
X75764889Y-80080368D01*
X75676030Y-80139037D01*
X75610982Y-80156467D01*
X75504693Y-80150087D01*
X75298497Y-80031040D01*
X75239828Y-79942181D01*
X75222398Y-79877132D01*
X43680142Y-17165580D02*
X43346809Y-16689390D01*
X43108714Y-17165580D02*
X43108714Y-16165580D01*
X43489666Y-16165580D01*
X43584904Y-16213200D01*
X43632523Y-16260819D01*
X43680142Y-16356057D01*
X43680142Y-16498914D01*
X43632523Y-16594152D01*
X43584904Y-16641771D01*
X43489666Y-16689390D01*
X43108714Y-16689390D01*
X44013476Y-16165580D02*
X44632523Y-16165580D01*
X44299190Y-16546533D01*
X44442047Y-16546533D01*
X44537285Y-16594152D01*
X44584904Y-16641771D01*
X44632523Y-16737009D01*
X44632523Y-16975104D01*
X44584904Y-17070342D01*
X44537285Y-17117961D01*
X44442047Y-17165580D01*
X44156333Y-17165580D01*
X44061095Y-17117961D01*
X44013476Y-17070342D01*
X45489666Y-16165580D02*
X45299190Y-16165580D01*
X45203952Y-16213200D01*
X45156333Y-16260819D01*
X45061095Y-16403676D01*
X45013476Y-16594152D01*
X45013476Y-16975104D01*
X45061095Y-17070342D01*
X45108714Y-17117961D01*
X45203952Y-17165580D01*
X45394428Y-17165580D01*
X45489666Y-17117961D01*
X45537285Y-17070342D01*
X45584904Y-16975104D01*
X45584904Y-16737009D01*
X45537285Y-16641771D01*
X45489666Y-16594152D01*
X45394428Y-16546533D01*
X45203952Y-16546533D01*
X45108714Y-16594152D01*
X45061095Y-16641771D01*
X45013476Y-16737009D01*
X43326544Y-63190721D02*
X42747485Y-63241300D01*
X43040830Y-63685592D02*
X42174805Y-63185592D01*
X42365281Y-62855678D01*
X42454139Y-62797009D01*
X42519188Y-62779579D01*
X42625476Y-62785959D01*
X42749194Y-62857387D01*
X42807863Y-62946246D01*
X42825293Y-63011294D01*
X42818913Y-63117583D01*
X42628437Y-63447497D01*
X42627186Y-62402045D02*
X42936709Y-61865934D01*
X43099957Y-62345086D01*
X43171386Y-62221368D01*
X43260244Y-62162699D01*
X43325293Y-62145269D01*
X43431581Y-62151649D01*
X43637778Y-62270696D01*
X43696447Y-62359555D01*
X43713876Y-62424604D01*
X43707497Y-62530892D01*
X43564640Y-62778328D01*
X43475781Y-62836997D01*
X43410732Y-62854426D01*
X43103376Y-61577259D02*
X43436709Y-60999909D01*
X44088449Y-61871063D01*
X15546828Y-80514811D02*
X14985349Y-80665175D01*
X15351388Y-81051778D02*
X14411696Y-80709758D01*
X14541989Y-80351780D01*
X14619310Y-80278572D01*
X14680344Y-80250111D01*
X14786125Y-80237938D01*
X14920367Y-80286798D01*
X14993575Y-80364118D01*
X15022035Y-80425152D01*
X15034209Y-80530933D01*
X14903916Y-80888911D01*
X14721143Y-79859560D02*
X14932869Y-79277846D01*
X15176841Y-79721370D01*
X15225701Y-79587128D01*
X15303021Y-79513920D01*
X15364055Y-79485460D01*
X15469837Y-79473286D01*
X15693573Y-79554719D01*
X15766781Y-79632040D01*
X15795241Y-79693074D01*
X15807415Y-79798855D01*
X15709695Y-80067338D01*
X15632375Y-80140546D01*
X15571341Y-80169007D01*
X15531035Y-78887458D02*
X15453714Y-78960666D01*
X15392680Y-78989127D01*
X15286899Y-79001301D01*
X15242152Y-78985014D01*
X15168944Y-78907693D01*
X15140483Y-78846660D01*
X15128309Y-78740878D01*
X15193456Y-78561889D01*
X15270777Y-78488681D01*
X15331811Y-78460221D01*
X15437592Y-78448047D01*
X15482339Y-78464334D01*
X15555547Y-78541654D01*
X15584008Y-78602688D01*
X15596181Y-78708469D01*
X15531035Y-78887458D01*
X15543209Y-78993240D01*
X15571669Y-79054274D01*
X15644877Y-79131594D01*
X15823866Y-79196741D01*
X15929647Y-79184567D01*
X15990681Y-79156106D01*
X16068002Y-79082898D01*
X16133149Y-78903909D01*
X16120975Y-78798128D01*
X16092514Y-78737094D01*
X16019306Y-78659774D01*
X15840317Y-78594627D01*
X15734536Y-78606801D01*
X15673502Y-78635261D01*
X15596181Y-78708469D01*
X55272635Y-96546927D02*
X55423156Y-95985490D01*
X54905328Y-96109188D02*
X55671372Y-95466400D01*
X55916244Y-95758226D01*
X55940983Y-95861792D01*
X55935114Y-95928879D01*
X55892766Y-96026575D01*
X55783331Y-96118402D01*
X55679766Y-96143142D01*
X55612678Y-96137272D01*
X55514982Y-96094925D01*
X55270111Y-95803098D01*
X56252942Y-96159488D02*
X56650858Y-96633706D01*
X56144769Y-96623229D01*
X56236596Y-96732664D01*
X56261335Y-96836230D01*
X56255466Y-96903317D01*
X56213118Y-97001013D01*
X56030727Y-97154058D01*
X55927161Y-97178797D01*
X55860074Y-97172928D01*
X55762378Y-97130580D01*
X55578724Y-96911710D01*
X55553985Y-96808145D01*
X55559854Y-96741058D01*
X56190903Y-97641276D02*
X56313339Y-97787190D01*
X56411035Y-97829537D01*
X56478122Y-97835407D01*
X56648775Y-97816537D01*
X56825297Y-97730579D01*
X57117124Y-97485708D01*
X57159471Y-97388011D01*
X57165341Y-97320924D01*
X57140601Y-97217359D01*
X57018165Y-97071445D01*
X56920469Y-97029098D01*
X56853382Y-97023228D01*
X56749816Y-97047968D01*
X56567425Y-97201013D01*
X56525077Y-97298709D01*
X56519208Y-97365796D01*
X56543947Y-97469362D01*
X56666383Y-97615275D01*
X56764079Y-97657622D01*
X56831166Y-97663492D01*
X56934732Y-97638752D01*
X70944435Y-111583727D02*
X71094956Y-111022290D01*
X70577128Y-111145988D02*
X71343172Y-110503200D01*
X71588044Y-110795026D01*
X71612783Y-110898592D01*
X71606914Y-110965679D01*
X71564566Y-111063375D01*
X71455131Y-111155202D01*
X71351566Y-111179942D01*
X71284478Y-111174072D01*
X71186782Y-111131725D01*
X70941911Y-110839898D01*
X72006092Y-111811812D02*
X71495396Y-112240337D01*
X72144874Y-111384549D02*
X71444655Y-111661291D01*
X71842571Y-112135509D01*
X72720574Y-112144724D02*
X72781792Y-112217680D01*
X72806532Y-112321246D01*
X72800662Y-112388333D01*
X72758315Y-112486029D01*
X72643010Y-112644943D01*
X72460619Y-112797988D01*
X72284097Y-112883945D01*
X72180531Y-112908685D01*
X72113444Y-112902816D01*
X72015748Y-112860468D01*
X71954530Y-112787511D01*
X71929790Y-112683946D01*
X71935660Y-112616859D01*
X71978007Y-112519162D01*
X72093312Y-112360248D01*
X72275703Y-112207204D01*
X72452225Y-112121246D01*
X72555791Y-112096507D01*
X72622878Y-112102376D01*
X72720574Y-112144724D01*
X41660157Y-22666323D02*
X41710899Y-22087277D01*
X41222418Y-22299016D02*
X41865205Y-21532971D01*
X42157032Y-21777843D01*
X42199380Y-21875539D01*
X42205249Y-21942626D01*
X42180509Y-22046192D01*
X42088683Y-22155627D01*
X41990986Y-22197974D01*
X41923899Y-22203844D01*
X41820334Y-22179104D01*
X41528507Y-21934233D01*
X42745292Y-22706587D02*
X42316767Y-23217284D01*
X42807772Y-22261716D02*
X42166246Y-22655846D01*
X42640464Y-23053762D01*
X43119290Y-23890680D02*
X42681550Y-23523373D01*
X42900420Y-23707027D02*
X43543208Y-22940982D01*
X43378424Y-22989199D01*
X43244250Y-23000938D01*
X43140684Y-22976198D01*
X39298064Y-55446539D02*
X38887105Y-55035465D01*
X38735317Y-55545766D02*
X38561668Y-54560959D01*
X38936833Y-54494807D01*
X39038893Y-54525165D01*
X39094058Y-54563791D01*
X39157492Y-54649313D01*
X39182298Y-54790000D01*
X39151941Y-54892060D01*
X39113314Y-54947225D01*
X39027792Y-55010659D01*
X38652627Y-55076810D01*
X40026419Y-54641159D02*
X40142185Y-55297697D01*
X39725790Y-54307339D02*
X39615346Y-55052118D01*
X40224989Y-54944621D01*
X40454031Y-54323991D02*
X40492657Y-54268827D01*
X40578180Y-54205393D01*
X40812658Y-54164048D01*
X40914718Y-54194406D01*
X40969882Y-54233033D01*
X41033316Y-54318555D01*
X41049854Y-54412346D01*
X41027765Y-54561302D01*
X40564245Y-55223277D01*
X41173888Y-55115780D01*
X33552954Y-28121478D02*
X33307374Y-27594639D01*
X32990206Y-28022250D02*
X33163855Y-27037443D01*
X33539019Y-27103594D01*
X33624542Y-27167028D01*
X33663168Y-27222192D01*
X33693526Y-27324252D01*
X33668719Y-27464939D01*
X33605286Y-27550462D01*
X33550121Y-27589088D01*
X33448061Y-27619446D01*
X33072896Y-27553294D01*
X34512840Y-27613781D02*
X34397075Y-28270319D01*
X34344514Y-27197271D02*
X33986001Y-27859360D01*
X34595644Y-27966857D01*
X34992783Y-27359932D02*
X35602426Y-27467428D01*
X35208005Y-27784711D01*
X35348692Y-27809517D01*
X35434214Y-27872951D01*
X35472841Y-27928116D01*
X35503199Y-28030176D01*
X35461854Y-28264654D01*
X35398420Y-28350176D01*
X35343256Y-28388803D01*
X35241196Y-28419160D01*
X34959822Y-28369547D01*
X34874300Y-28306113D01*
X34835673Y-28250949D01*
X32539060Y-55731864D02*
X32950134Y-55320905D01*
X32439833Y-55169117D02*
X33424640Y-54995468D01*
X33490792Y-55370633D01*
X33460434Y-55472693D01*
X33421808Y-55527858D01*
X33336286Y-55591292D01*
X33195599Y-55616098D01*
X33093539Y-55585741D01*
X33038374Y-55547114D01*
X32974940Y-55461592D01*
X32908789Y-55086427D01*
X33344440Y-56460219D02*
X32687902Y-56575985D01*
X33678260Y-56159590D02*
X32933481Y-56049146D01*
X33040978Y-56658789D01*
X33509819Y-57398132D02*
X32853281Y-57513897D01*
X33843639Y-57097502D02*
X33098860Y-56987058D01*
X33206357Y-57596701D01*
X18264127Y-84960765D02*
X17702690Y-84810244D01*
X17826388Y-85328072D02*
X17183600Y-84562028D01*
X17475426Y-84317156D01*
X17578992Y-84292417D01*
X17646079Y-84298286D01*
X17743775Y-84340634D01*
X17835602Y-84450069D01*
X17860342Y-84553634D01*
X17854472Y-84620722D01*
X17812125Y-84718418D01*
X17520298Y-84963289D01*
X18492212Y-83899108D02*
X18920737Y-84409804D01*
X18064949Y-83760326D02*
X18341691Y-84460545D01*
X18815909Y-84062629D01*
X19043994Y-83000972D02*
X18679211Y-83307061D01*
X18948822Y-83702453D01*
X18954691Y-83635366D01*
X18997039Y-83537670D01*
X19179430Y-83384625D01*
X19282996Y-83359886D01*
X19350083Y-83365755D01*
X19447779Y-83408103D01*
X19600824Y-83590494D01*
X19625563Y-83694060D01*
X19619694Y-83761147D01*
X19577346Y-83858843D01*
X19394955Y-84011888D01*
X19291389Y-84036628D01*
X19224302Y-84030758D01*
X21812744Y-93086521D02*
X21233685Y-93137100D01*
X21527030Y-93581392D02*
X20661005Y-93081392D01*
X20851481Y-92751478D01*
X20940339Y-92692809D01*
X21005388Y-92675379D01*
X21111676Y-92681759D01*
X21235394Y-92753187D01*
X21294063Y-92842046D01*
X21311493Y-92907094D01*
X21305113Y-93013383D01*
X21114637Y-93343297D01*
X21663965Y-92010880D02*
X22241316Y-92344213D01*
X21215003Y-92026600D02*
X21714545Y-92589939D01*
X22024069Y-92053829D01*
X21851481Y-91019427D02*
X21756243Y-91184384D01*
X21749863Y-91290672D01*
X21767293Y-91355721D01*
X21843392Y-91509628D01*
X21984539Y-91646106D01*
X22314454Y-91836582D01*
X22420742Y-91842962D01*
X22485791Y-91825532D01*
X22574649Y-91766863D01*
X22669887Y-91601906D01*
X22676267Y-91495617D01*
X22658837Y-91430569D01*
X22600168Y-91341710D01*
X22393972Y-91222663D01*
X22287683Y-91216283D01*
X22222635Y-91233713D01*
X22133776Y-91292382D01*
X22038538Y-91457339D01*
X22032158Y-91563627D01*
X22049588Y-91628676D01*
X22108257Y-91717534D01*
X47467780Y-98915457D02*
X46991590Y-99248790D01*
X47467780Y-99486885D02*
X46467780Y-99486885D01*
X46467780Y-99105933D01*
X46515400Y-99010695D01*
X46563019Y-98963076D01*
X46658257Y-98915457D01*
X46801114Y-98915457D01*
X46896352Y-98963076D01*
X46943971Y-99010695D01*
X46991590Y-99105933D01*
X46991590Y-99486885D01*
X46801114Y-98058314D02*
X47467780Y-98058314D01*
X46420161Y-98296409D02*
X47134447Y-98534504D01*
X47134447Y-97915457D01*
X46467780Y-97629742D02*
X46467780Y-96963076D01*
X47467780Y-97391647D01*
X76608060Y-108767064D02*
X77019134Y-108356105D01*
X76508833Y-108204317D02*
X77493640Y-108030668D01*
X77559792Y-108405833D01*
X77529434Y-108507893D01*
X77490808Y-108563058D01*
X77405286Y-108626492D01*
X77264599Y-108651298D01*
X77162539Y-108620941D01*
X77107374Y-108582314D01*
X77043940Y-108496792D01*
X76977789Y-108121627D01*
X77413440Y-109495419D02*
X76756902Y-109611185D01*
X77747260Y-109194790D02*
X77002481Y-109084346D01*
X77109978Y-109693989D01*
X77435414Y-110168496D02*
X77465772Y-110066436D01*
X77504399Y-110011271D01*
X77589921Y-109947838D01*
X77636816Y-109939569D01*
X77738877Y-109969926D01*
X77794041Y-110008553D01*
X77857475Y-110094075D01*
X77890551Y-110281658D01*
X77860193Y-110383718D01*
X77821566Y-110438882D01*
X77736044Y-110502316D01*
X77689148Y-110510585D01*
X77587088Y-110480227D01*
X77531924Y-110441601D01*
X77468490Y-110356078D01*
X77435414Y-110168496D01*
X77371981Y-110082974D01*
X77316816Y-110044347D01*
X77214756Y-110013989D01*
X77027174Y-110047065D01*
X76941651Y-110110499D01*
X76903025Y-110165663D01*
X76872667Y-110267723D01*
X76905743Y-110455306D01*
X76969176Y-110540828D01*
X77024341Y-110579455D01*
X77126401Y-110609812D01*
X77313984Y-110576737D01*
X77399506Y-110513303D01*
X77438132Y-110458138D01*
X77468490Y-110356078D01*
X46626542Y-105938580D02*
X46293209Y-105462390D01*
X46055114Y-105938580D02*
X46055114Y-104938580D01*
X46436066Y-104938580D01*
X46531304Y-104986200D01*
X46578923Y-105033819D01*
X46626542Y-105129057D01*
X46626542Y-105271914D01*
X46578923Y-105367152D01*
X46531304Y-105414771D01*
X46436066Y-105462390D01*
X46055114Y-105462390D01*
X47483685Y-105271914D02*
X47483685Y-105938580D01*
X47245590Y-104890961D02*
X47007495Y-105605247D01*
X47626542Y-105605247D01*
X48055114Y-105938580D02*
X48245590Y-105938580D01*
X48340828Y-105890961D01*
X48388447Y-105843342D01*
X48483685Y-105700485D01*
X48531304Y-105510009D01*
X48531304Y-105129057D01*
X48483685Y-105033819D01*
X48436066Y-104986200D01*
X48340828Y-104938580D01*
X48150352Y-104938580D01*
X48055114Y-104986200D01*
X48007495Y-105033819D01*
X47959876Y-105129057D01*
X47959876Y-105367152D01*
X48007495Y-105462390D01*
X48055114Y-105510009D01*
X48150352Y-105557628D01*
X48340828Y-105557628D01*
X48436066Y-105510009D01*
X48483685Y-105462390D01*
X48531304Y-105367152D01*
X86110157Y-107476922D02*
X86160899Y-106897876D01*
X85672418Y-107109615D02*
X86315205Y-106343570D01*
X86607032Y-106588442D01*
X86649380Y-106686138D01*
X86655249Y-106753225D01*
X86630509Y-106856791D01*
X86538683Y-106966226D01*
X86440986Y-107008573D01*
X86373899Y-107014443D01*
X86270334Y-106989703D01*
X85978507Y-106744832D01*
X87446033Y-107292447D02*
X87081250Y-106986358D01*
X86738682Y-107320532D01*
X86805769Y-107314663D01*
X86909335Y-107339402D01*
X87091727Y-107492447D01*
X87134074Y-107590143D01*
X87139944Y-107657230D01*
X87115204Y-107760796D01*
X86962159Y-107943187D01*
X86864463Y-107985535D01*
X86797376Y-107991404D01*
X86693810Y-107966665D01*
X86511419Y-107813620D01*
X86469071Y-107715924D01*
X86463202Y-107648837D01*
X87956729Y-107720972D02*
X88029686Y-107782190D01*
X88072034Y-107879886D01*
X88077903Y-107946973D01*
X88053163Y-108050539D01*
X87967206Y-108227061D01*
X87814161Y-108409453D01*
X87655247Y-108524757D01*
X87557551Y-108567105D01*
X87490464Y-108572974D01*
X87386898Y-108548234D01*
X87313942Y-108487017D01*
X87271594Y-108389320D01*
X87265725Y-108322233D01*
X87290464Y-108218668D01*
X87376422Y-108042146D01*
X87529466Y-107859754D01*
X87688380Y-107744450D01*
X87786076Y-107702102D01*
X87853164Y-107696233D01*
X87956729Y-107720972D01*
X40946460Y-29239664D02*
X41357534Y-28828705D01*
X40847233Y-28676917D02*
X41832040Y-28503268D01*
X41898192Y-28878433D01*
X41867834Y-28980493D01*
X41829208Y-29035658D01*
X41743686Y-29099092D01*
X41602999Y-29123898D01*
X41500939Y-29093541D01*
X41445774Y-29054914D01*
X41382340Y-28969392D01*
X41316189Y-28594227D01*
X42088378Y-29957032D02*
X42005689Y-29488076D01*
X41528464Y-29523870D01*
X41583628Y-29562497D01*
X41647062Y-29648019D01*
X41688407Y-29882497D01*
X41658049Y-29984557D01*
X41619422Y-30039722D01*
X41533900Y-30103155D01*
X41299422Y-30144500D01*
X41197362Y-30114143D01*
X41142197Y-30075516D01*
X41078764Y-29989994D01*
X41037419Y-29755516D01*
X41067777Y-29653455D01*
X41106403Y-29598291D01*
X41277219Y-31115488D02*
X41177991Y-30552741D01*
X41227605Y-30834115D02*
X42212413Y-30660466D01*
X42055188Y-30591482D01*
X41944859Y-30514229D01*
X41881425Y-30428707D01*
X38612264Y-51890539D02*
X38201305Y-51479465D01*
X38049517Y-51989766D02*
X37875868Y-51004959D01*
X38251033Y-50938807D01*
X38353093Y-50969165D01*
X38408258Y-51007791D01*
X38471692Y-51093313D01*
X38496498Y-51234000D01*
X38466141Y-51336060D01*
X38427514Y-51391225D01*
X38341992Y-51454659D01*
X37966827Y-51520810D01*
X39329632Y-50748621D02*
X38860676Y-50831310D01*
X38896470Y-51308535D01*
X38935097Y-51253371D01*
X39020619Y-51189937D01*
X39255097Y-51148592D01*
X39357157Y-51178950D01*
X39412322Y-51217577D01*
X39475755Y-51303099D01*
X39517100Y-51537577D01*
X39486743Y-51639637D01*
X39448116Y-51694802D01*
X39362594Y-51758235D01*
X39128116Y-51799580D01*
X39026055Y-51769222D01*
X38970891Y-51730596D01*
X39768231Y-50767991D02*
X39806857Y-50712827D01*
X39892380Y-50649393D01*
X40126858Y-50608048D01*
X40228918Y-50638406D01*
X40284082Y-50677033D01*
X40347516Y-50762555D01*
X40364054Y-50856346D01*
X40341965Y-51005302D01*
X39878445Y-51667277D01*
X40488088Y-51559780D01*
X25276188Y-87047828D02*
X25125824Y-86486349D01*
X24739221Y-86852388D02*
X25081241Y-85912696D01*
X25439219Y-86042989D01*
X25512427Y-86120310D01*
X25540888Y-86181344D01*
X25553061Y-86287125D01*
X25504201Y-86421367D01*
X25426881Y-86494575D01*
X25365847Y-86523035D01*
X25260066Y-86535209D01*
X24902088Y-86404916D01*
X26468406Y-86417583D02*
X26020934Y-86254716D01*
X25813320Y-86685902D01*
X25874353Y-86657441D01*
X25980135Y-86645267D01*
X26203871Y-86726701D01*
X26277079Y-86804021D01*
X26305539Y-86865055D01*
X26317713Y-86970837D01*
X26236280Y-87194573D01*
X26158959Y-87267781D01*
X26097925Y-87296241D01*
X25992144Y-87308415D01*
X25768408Y-87226982D01*
X25695200Y-87149661D01*
X25666739Y-87088627D01*
X26826384Y-86547876D02*
X27408099Y-86759603D01*
X26964575Y-87003574D01*
X27098816Y-87052434D01*
X27172024Y-87129755D01*
X27200485Y-87190789D01*
X27212659Y-87296570D01*
X27131225Y-87520306D01*
X27053905Y-87593514D01*
X26992871Y-87621975D01*
X26887090Y-87634149D01*
X26618606Y-87536429D01*
X26545398Y-87459108D01*
X26516938Y-87398074D01*
X44013380Y-99525057D02*
X43537190Y-99858390D01*
X44013380Y-100096485D02*
X43013380Y-100096485D01*
X43013380Y-99715533D01*
X43061000Y-99620295D01*
X43108619Y-99572676D01*
X43203857Y-99525057D01*
X43346714Y-99525057D01*
X43441952Y-99572676D01*
X43489571Y-99620295D01*
X43537190Y-99715533D01*
X43537190Y-100096485D01*
X43013380Y-98620295D02*
X43013380Y-99096485D01*
X43489571Y-99144104D01*
X43441952Y-99096485D01*
X43394333Y-99001247D01*
X43394333Y-98763152D01*
X43441952Y-98667914D01*
X43489571Y-98620295D01*
X43584809Y-98572676D01*
X43822904Y-98572676D01*
X43918142Y-98620295D01*
X43965761Y-98667914D01*
X44013380Y-98763152D01*
X44013380Y-99001247D01*
X43965761Y-99096485D01*
X43918142Y-99144104D01*
X43346714Y-97715533D02*
X44013380Y-97715533D01*
X42965761Y-97953628D02*
X43680047Y-98191723D01*
X43680047Y-97572676D01*
X82290144Y-103297320D02*
X81711085Y-103347899D01*
X82004430Y-103792191D02*
X81138405Y-103292191D01*
X81328881Y-102962277D01*
X81417739Y-102903608D01*
X81482788Y-102886178D01*
X81589076Y-102892558D01*
X81712794Y-102963986D01*
X81771463Y-103052845D01*
X81788893Y-103117893D01*
X81782513Y-103224182D01*
X81592037Y-103554096D01*
X81876500Y-102013773D02*
X81638405Y-102426166D01*
X82026988Y-102705500D01*
X82009558Y-102640452D01*
X82015938Y-102534163D01*
X82134986Y-102327967D01*
X82223844Y-102269298D01*
X82288893Y-102251868D01*
X82395181Y-102258248D01*
X82601378Y-102377295D01*
X82660047Y-102466154D01*
X82677476Y-102531203D01*
X82671097Y-102637491D01*
X82552049Y-102843687D01*
X82463191Y-102902356D01*
X82398142Y-102919786D01*
X82352690Y-101188987D02*
X82114595Y-101601380D01*
X82503179Y-101880714D01*
X82485749Y-101815665D01*
X82492129Y-101709377D01*
X82611176Y-101503181D01*
X82700035Y-101444512D01*
X82765083Y-101427082D01*
X82871372Y-101433462D01*
X83077568Y-101552509D01*
X83136237Y-101641368D01*
X83153667Y-101706416D01*
X83147287Y-101812705D01*
X83028240Y-102018901D01*
X82939381Y-102077570D01*
X82874332Y-102095000D01*
X45620060Y-31728864D02*
X46031134Y-31317905D01*
X45520833Y-31166117D02*
X46505640Y-30992468D01*
X46571792Y-31367633D01*
X46541434Y-31469693D01*
X46502808Y-31524858D01*
X46417286Y-31588292D01*
X46276599Y-31613098D01*
X46174539Y-31582741D01*
X46119374Y-31544114D01*
X46055940Y-31458592D01*
X45989789Y-31083427D01*
X46761978Y-32446232D02*
X46679289Y-31977276D01*
X46202064Y-32013070D01*
X46257228Y-32051697D01*
X46320662Y-32137219D01*
X46362007Y-32371697D01*
X46331649Y-32473757D01*
X46293022Y-32528922D01*
X46207500Y-32592355D01*
X45973022Y-32633700D01*
X45870962Y-32603343D01*
X45815797Y-32564716D01*
X45752364Y-32479194D01*
X45711019Y-32244716D01*
X45741377Y-32142655D01*
X45780003Y-32087491D01*
X46919089Y-33337249D02*
X46886013Y-33149666D01*
X46822579Y-33064144D01*
X46767415Y-33025517D01*
X46610190Y-32956533D01*
X46414338Y-32942713D01*
X46039174Y-33008865D01*
X45953651Y-33072299D01*
X45915025Y-33127463D01*
X45884667Y-33229523D01*
X45917743Y-33417106D01*
X45981176Y-33502628D01*
X46036341Y-33541255D01*
X46138401Y-33571612D01*
X46372879Y-33530268D01*
X46458401Y-33466834D01*
X46497028Y-33411669D01*
X46527386Y-33309609D01*
X46494310Y-33122027D01*
X46430876Y-33036505D01*
X46375712Y-32997878D01*
X46273652Y-32967520D01*
X46751430Y-55684635D02*
X47084896Y-55208537D01*
X46555990Y-55147668D02*
X47495683Y-54805647D01*
X47625976Y-55163626D01*
X47613802Y-55269407D01*
X47585342Y-55330441D01*
X47512134Y-55407761D01*
X47377892Y-55456621D01*
X47272111Y-55444447D01*
X47211077Y-55415987D01*
X47133756Y-55342779D01*
X47003463Y-54984801D01*
X48000570Y-56192813D02*
X47837703Y-55745340D01*
X47373944Y-55863460D01*
X47434978Y-55891920D01*
X47512298Y-55965128D01*
X47593732Y-56188864D01*
X47581558Y-56294646D01*
X47553097Y-56355679D01*
X47479889Y-56433000D01*
X47256153Y-56514433D01*
X47150372Y-56502260D01*
X47089338Y-56473799D01*
X47012017Y-56400591D01*
X46930584Y-56176855D01*
X46942758Y-56071074D01*
X46971218Y-56010040D01*
X48130863Y-56550791D02*
X48358877Y-57177253D01*
X47272604Y-57116547D01*
X51490064Y-91463739D02*
X51079105Y-91052665D01*
X50927317Y-91562966D02*
X50753668Y-90578159D01*
X51128833Y-90512007D01*
X51230893Y-90542365D01*
X51286058Y-90580991D01*
X51349492Y-90666513D01*
X51374298Y-90807200D01*
X51343941Y-90909260D01*
X51305314Y-90964425D01*
X51219792Y-91027859D01*
X50844627Y-91094010D01*
X52207432Y-90321821D02*
X51738476Y-90404510D01*
X51774270Y-90881735D01*
X51812897Y-90826571D01*
X51898419Y-90763137D01*
X52132897Y-90721792D01*
X52234957Y-90752150D01*
X52290122Y-90790777D01*
X52353555Y-90876299D01*
X52394900Y-91110777D01*
X52364543Y-91212837D01*
X52325916Y-91268002D01*
X52240394Y-91331435D01*
X52005916Y-91372780D01*
X51903855Y-91342422D01*
X51848691Y-91303796D01*
X52896932Y-91215670D02*
X53084515Y-91182594D01*
X53170037Y-91119161D01*
X53208663Y-91063996D01*
X53277648Y-90906771D01*
X53291468Y-90710920D01*
X53225316Y-90335755D01*
X53161882Y-90250233D01*
X53106718Y-90211606D01*
X53004658Y-90181248D01*
X52817075Y-90214324D01*
X52731553Y-90277758D01*
X52692926Y-90332922D01*
X52662569Y-90434983D01*
X52703913Y-90669461D01*
X52767347Y-90754983D01*
X52822512Y-90793609D01*
X52924572Y-90823967D01*
X53112154Y-90790891D01*
X53197676Y-90727458D01*
X53236303Y-90672293D01*
X53266661Y-90570233D01*
X80258144Y-100274721D02*
X79679085Y-100325300D01*
X79972430Y-100769592D02*
X79106405Y-100269592D01*
X79296881Y-99939678D01*
X79385739Y-99881009D01*
X79450788Y-99863579D01*
X79557076Y-99869959D01*
X79680794Y-99941387D01*
X79739463Y-100030246D01*
X79756893Y-100095294D01*
X79750513Y-100201583D01*
X79560037Y-100531497D01*
X79820690Y-99032413D02*
X79725452Y-99197370D01*
X79719073Y-99303658D01*
X79736502Y-99368707D01*
X79812601Y-99522614D01*
X79953749Y-99659092D01*
X80283663Y-99849568D01*
X80389951Y-99855948D01*
X80455000Y-99838518D01*
X80543859Y-99779849D01*
X80639097Y-99614892D01*
X80645476Y-99508604D01*
X80628047Y-99443555D01*
X80569378Y-99354696D01*
X80363181Y-99235649D01*
X80256893Y-99229269D01*
X80191844Y-99246699D01*
X80102986Y-99305368D01*
X80007748Y-99470325D01*
X80001368Y-99576613D01*
X80018798Y-99641662D01*
X80077467Y-99730520D01*
X80177833Y-98413824D02*
X80225452Y-98331345D01*
X80314311Y-98272676D01*
X80379359Y-98255246D01*
X80485648Y-98261626D01*
X80674414Y-98315625D01*
X80880611Y-98434672D01*
X81021759Y-98571150D01*
X81080428Y-98660008D01*
X81097857Y-98725057D01*
X81091478Y-98831345D01*
X81043859Y-98913824D01*
X80955000Y-98972493D01*
X80889951Y-98989922D01*
X80783663Y-98983543D01*
X80594897Y-98929544D01*
X80388700Y-98810496D01*
X80247552Y-98674019D01*
X80188883Y-98585160D01*
X80171453Y-98520112D01*
X80177833Y-98413824D01*
X34416554Y-31499677D02*
X34170974Y-30972838D01*
X33853806Y-31400449D02*
X34027455Y-30415642D01*
X34402619Y-30481793D01*
X34488142Y-30545227D01*
X34526768Y-30600391D01*
X34557126Y-30702451D01*
X34532319Y-30843138D01*
X34468886Y-30928661D01*
X34413721Y-30967287D01*
X34311661Y-30997645D01*
X33936496Y-30931493D01*
X35434323Y-30663710D02*
X35246740Y-30630634D01*
X35144680Y-30660992D01*
X35089516Y-30699619D01*
X34970918Y-30823768D01*
X34890946Y-31003081D01*
X34824794Y-31378246D01*
X34855152Y-31480306D01*
X34893779Y-31535471D01*
X34979301Y-31598904D01*
X35166883Y-31631980D01*
X35268944Y-31601622D01*
X35324108Y-31562996D01*
X35387542Y-31477474D01*
X35428886Y-31242996D01*
X35398529Y-31140935D01*
X35359902Y-31085771D01*
X35274380Y-31022337D01*
X35086797Y-30989261D01*
X34984737Y-31019619D01*
X34929573Y-31058246D01*
X34866139Y-31143768D01*
X36292378Y-31830435D02*
X35729631Y-31731208D01*
X36011004Y-31780821D02*
X36184652Y-30796014D01*
X36066054Y-30920163D01*
X35955725Y-30997416D01*
X35853665Y-31027774D01*
X50637630Y-56243435D02*
X50971096Y-55767337D01*
X50442190Y-55706468D02*
X51381883Y-55364447D01*
X51512176Y-55722426D01*
X51500002Y-55828207D01*
X51471542Y-55889241D01*
X51398334Y-55966561D01*
X51264092Y-56015421D01*
X51158311Y-56003247D01*
X51097277Y-55974787D01*
X51019956Y-55901579D01*
X50889663Y-55543601D01*
X51870483Y-56706865D02*
X51805336Y-56527876D01*
X51728016Y-56454669D01*
X51666982Y-56426208D01*
X51500167Y-56385573D01*
X51304891Y-56405973D01*
X50946913Y-56536266D01*
X50873705Y-56613587D01*
X50845244Y-56674621D01*
X50833070Y-56780402D01*
X50898217Y-56959391D01*
X50975538Y-57032599D01*
X51036572Y-57061060D01*
X51142353Y-57073233D01*
X51366089Y-56991800D01*
X51439297Y-56914479D01*
X51467758Y-56853446D01*
X51479932Y-56747664D01*
X51414785Y-56568675D01*
X51337464Y-56495467D01*
X51276430Y-56467007D01*
X51170649Y-56454833D01*
X51943855Y-57186911D02*
X52004889Y-57215372D01*
X52082210Y-57288580D01*
X52163643Y-57512316D01*
X52151469Y-57618097D01*
X52123009Y-57679131D01*
X52049801Y-57756452D01*
X51960306Y-57789025D01*
X51809778Y-57793138D01*
X51077371Y-57451611D01*
X51289097Y-58033325D01*
X26308544Y-98268121D02*
X25729485Y-98318700D01*
X26022830Y-98762992D02*
X25156805Y-98262992D01*
X25347281Y-97933078D01*
X25436139Y-97874409D01*
X25501188Y-97856979D01*
X25607476Y-97863359D01*
X25731194Y-97934787D01*
X25789863Y-98023646D01*
X25807293Y-98088694D01*
X25800913Y-98194983D01*
X25610437Y-98524897D01*
X25871090Y-97025813D02*
X25775852Y-97190770D01*
X25769473Y-97297058D01*
X25786902Y-97362107D01*
X25863001Y-97516014D01*
X26004149Y-97652492D01*
X26334063Y-97842968D01*
X26440351Y-97849348D01*
X26505400Y-97831918D01*
X26594259Y-97773249D01*
X26689497Y-97608292D01*
X26695876Y-97502004D01*
X26678447Y-97436955D01*
X26619778Y-97348096D01*
X26413581Y-97229049D01*
X26307293Y-97222669D01*
X26242244Y-97240099D01*
X26153386Y-97298768D01*
X26058148Y-97463725D01*
X26051768Y-97570013D01*
X26069198Y-97635062D01*
X26127867Y-97723920D01*
X26085376Y-96654659D02*
X26394900Y-96118548D01*
X26558148Y-96597700D01*
X26629576Y-96473982D01*
X26718435Y-96415313D01*
X26783483Y-96397883D01*
X26889772Y-96404263D01*
X27095968Y-96523310D01*
X27154637Y-96612169D01*
X27172067Y-96677217D01*
X27165687Y-96783506D01*
X27022830Y-97030941D01*
X26933972Y-97089611D01*
X26868923Y-97107040D01*
X53496664Y-87933139D02*
X53085705Y-87522065D01*
X52933917Y-88032366D02*
X52760268Y-87047559D01*
X53135433Y-86981407D01*
X53237493Y-87011765D01*
X53292658Y-87050391D01*
X53356092Y-87135913D01*
X53380898Y-87276600D01*
X53350541Y-87378660D01*
X53311914Y-87433825D01*
X53226392Y-87497259D01*
X52851227Y-87563410D01*
X54167137Y-86799490D02*
X53979554Y-86832566D01*
X53894032Y-86895999D01*
X53855405Y-86951164D01*
X53786421Y-87108388D01*
X53772601Y-87304240D01*
X53838753Y-87679405D01*
X53902186Y-87764927D01*
X53957351Y-87803554D01*
X54059411Y-87833911D01*
X54246994Y-87800835D01*
X54332516Y-87737402D01*
X54371143Y-87682237D01*
X54401500Y-87580177D01*
X54360155Y-87345699D01*
X54296722Y-87260177D01*
X54241557Y-87221550D01*
X54139497Y-87191192D01*
X53951915Y-87224268D01*
X53866392Y-87287702D01*
X53827766Y-87342866D01*
X53797408Y-87444927D01*
X55162932Y-86962380D02*
X55278697Y-87618918D01*
X54862302Y-86628560D02*
X54751858Y-87373339D01*
X55361501Y-87265842D01*
X91698157Y-103768523D02*
X91748899Y-103189477D01*
X91260418Y-103401216D02*
X91903205Y-102635171D01*
X92195032Y-102880043D01*
X92237380Y-102977739D01*
X92243249Y-103044826D01*
X92218509Y-103148392D01*
X92126683Y-103257827D01*
X92028986Y-103300174D01*
X91961899Y-103306044D01*
X91858334Y-103281304D01*
X91566507Y-103036433D01*
X92997555Y-103553439D02*
X92851641Y-103431003D01*
X92748076Y-103406264D01*
X92680989Y-103412133D01*
X92516205Y-103460350D01*
X92357291Y-103575655D01*
X92112420Y-103867481D01*
X92087680Y-103971047D01*
X92093549Y-104038134D01*
X92135897Y-104135830D01*
X92281810Y-104258266D01*
X92385376Y-104283005D01*
X92452463Y-104277136D01*
X92550159Y-104234788D01*
X92703204Y-104052397D01*
X92727944Y-103948831D01*
X92722074Y-103881744D01*
X92679727Y-103784048D01*
X92533813Y-103661612D01*
X92430248Y-103636872D01*
X92363161Y-103642742D01*
X92265464Y-103685090D01*
X93763599Y-104196227D02*
X93398816Y-103890137D01*
X93056248Y-104224312D01*
X93123336Y-104218442D01*
X93226901Y-104243182D01*
X93409293Y-104396226D01*
X93451640Y-104493923D01*
X93457510Y-104561010D01*
X93432770Y-104664575D01*
X93279725Y-104846967D01*
X93182029Y-104889315D01*
X93114942Y-104895184D01*
X93011377Y-104870444D01*
X92828985Y-104717400D01*
X92786637Y-104619704D01*
X92780768Y-104552616D01*
X31190754Y-34573077D02*
X30945174Y-34046238D01*
X30628006Y-34473849D02*
X30801655Y-33489042D01*
X31176819Y-33555193D01*
X31262342Y-33618627D01*
X31300968Y-33673791D01*
X31331326Y-33775851D01*
X31306519Y-33916538D01*
X31243086Y-34002061D01*
X31187921Y-34040687D01*
X31085861Y-34071045D01*
X30710696Y-34004893D01*
X32208523Y-33737110D02*
X32020940Y-33704034D01*
X31918880Y-33734392D01*
X31863716Y-33773019D01*
X31745118Y-33897168D01*
X31665146Y-34076481D01*
X31598994Y-34451646D01*
X31629352Y-34553706D01*
X31667979Y-34608871D01*
X31753501Y-34672304D01*
X31941083Y-34705380D01*
X32043144Y-34675022D01*
X32098308Y-34636396D01*
X32161742Y-34550874D01*
X32203086Y-34316396D01*
X32172729Y-34214335D01*
X32134102Y-34159171D01*
X32048580Y-34095737D01*
X31860997Y-34062661D01*
X31758937Y-34093019D01*
X31703773Y-34131646D01*
X31640339Y-34217168D01*
X33146435Y-33902490D02*
X32958852Y-33869414D01*
X32856792Y-33899771D01*
X32801628Y-33938398D01*
X32683030Y-34062547D01*
X32603058Y-34241860D01*
X32536907Y-34617025D01*
X32567264Y-34719085D01*
X32605891Y-34774250D01*
X32691413Y-34837684D01*
X32878996Y-34870759D01*
X32981056Y-34840402D01*
X33036220Y-34801775D01*
X33099654Y-34716253D01*
X33140999Y-34481775D01*
X33110641Y-34379715D01*
X33072014Y-34324550D01*
X32986492Y-34261116D01*
X32798910Y-34228041D01*
X32696849Y-34258398D01*
X32641685Y-34297025D01*
X32578251Y-34382547D01*
X53203030Y-54084435D02*
X53536496Y-53608337D01*
X53007590Y-53547468D02*
X53947283Y-53205447D01*
X54077576Y-53563426D01*
X54065402Y-53669207D01*
X54036942Y-53730241D01*
X53963734Y-53807561D01*
X53829492Y-53856421D01*
X53723711Y-53844247D01*
X53662677Y-53815787D01*
X53585356Y-53742579D01*
X53455063Y-53384601D01*
X54435883Y-54547865D02*
X54370736Y-54368876D01*
X54293416Y-54295669D01*
X54232382Y-54267208D01*
X54065567Y-54226573D01*
X53870291Y-54246973D01*
X53512313Y-54377266D01*
X53439105Y-54454587D01*
X53410644Y-54515621D01*
X53398470Y-54621402D01*
X53463617Y-54800391D01*
X53540938Y-54873599D01*
X53601972Y-54902060D01*
X53707753Y-54914233D01*
X53931489Y-54832800D01*
X54004697Y-54755479D01*
X54033158Y-54694446D01*
X54045332Y-54588664D01*
X53980185Y-54409675D01*
X53902864Y-54336467D01*
X53841830Y-54308007D01*
X53736049Y-54295833D01*
X54582463Y-54950591D02*
X54810477Y-55577053D01*
X53724204Y-55516347D01*
X24505144Y-95042321D02*
X23926085Y-95092900D01*
X24219430Y-95537192D02*
X23353405Y-95037192D01*
X23543881Y-94707278D01*
X23632739Y-94648609D01*
X23697788Y-94631179D01*
X23804076Y-94637559D01*
X23927794Y-94708987D01*
X23986463Y-94797846D01*
X24003893Y-94862894D01*
X23997513Y-94969183D01*
X23807037Y-95299097D01*
X24067690Y-93800013D02*
X23972452Y-93964970D01*
X23966073Y-94071258D01*
X23983502Y-94136307D01*
X24059601Y-94290214D01*
X24200749Y-94426692D01*
X24530663Y-94617168D01*
X24636951Y-94623548D01*
X24702000Y-94606118D01*
X24790859Y-94547449D01*
X24886097Y-94382492D01*
X24892476Y-94276204D01*
X24875047Y-94211155D01*
X24816378Y-94122296D01*
X24610181Y-94003249D01*
X24503893Y-93996869D01*
X24438844Y-94014299D01*
X24349986Y-94072968D01*
X24254748Y-94237925D01*
X24248368Y-94344213D01*
X24265798Y-94409262D01*
X24324467Y-94498120D01*
X24772177Y-93436949D02*
X24683319Y-93495618D01*
X24618270Y-93513047D01*
X24511982Y-93506668D01*
X24470743Y-93482858D01*
X24412074Y-93394000D01*
X24394644Y-93328951D01*
X24401024Y-93222663D01*
X24496262Y-93057706D01*
X24585120Y-92999037D01*
X24650169Y-92981607D01*
X24756457Y-92987986D01*
X24797696Y-93011796D01*
X24856365Y-93100654D01*
X24873795Y-93165703D01*
X24867416Y-93271991D01*
X24772177Y-93436949D01*
X24765798Y-93543237D01*
X24783227Y-93608286D01*
X24841897Y-93697144D01*
X25006854Y-93792382D01*
X25113142Y-93798762D01*
X25178191Y-93781332D01*
X25267049Y-93722663D01*
X25362287Y-93557706D01*
X25368667Y-93451417D01*
X25351237Y-93386369D01*
X25292568Y-93297510D01*
X25127611Y-93202272D01*
X25021323Y-93195892D01*
X24956274Y-93213322D01*
X24867416Y-93271991D01*
X52099664Y-84554939D02*
X51688705Y-84143865D01*
X51536917Y-84654166D02*
X51363268Y-83669359D01*
X51738433Y-83603207D01*
X51840493Y-83633565D01*
X51895658Y-83672191D01*
X51959092Y-83757713D01*
X51983898Y-83898400D01*
X51953541Y-84000460D01*
X51914914Y-84055625D01*
X51829392Y-84119059D01*
X51454227Y-84185210D01*
X52770137Y-83421290D02*
X52582554Y-83454366D01*
X52497032Y-83517799D01*
X52458405Y-83572964D01*
X52389421Y-83730188D01*
X52375601Y-83926040D01*
X52441753Y-84301205D01*
X52505186Y-84386727D01*
X52560351Y-84425354D01*
X52662411Y-84455711D01*
X52849994Y-84422635D01*
X52935516Y-84359202D01*
X52974143Y-84304037D01*
X53004500Y-84201977D01*
X52963155Y-83967499D01*
X52899722Y-83881977D01*
X52844557Y-83843350D01*
X52742497Y-83812992D01*
X52554915Y-83846068D01*
X52469392Y-83909502D01*
X52430766Y-83964666D01*
X52400408Y-84066727D01*
X53506532Y-84306870D02*
X53694115Y-84273794D01*
X53779637Y-84210361D01*
X53818263Y-84155196D01*
X53887248Y-83997971D01*
X53901068Y-83802120D01*
X53834916Y-83426955D01*
X53771482Y-83341433D01*
X53716318Y-83302806D01*
X53614258Y-83272448D01*
X53426675Y-83305524D01*
X53341153Y-83368958D01*
X53302526Y-83424122D01*
X53272169Y-83526183D01*
X53313513Y-83760661D01*
X53376947Y-83846183D01*
X53432112Y-83884809D01*
X53534172Y-83915167D01*
X53721754Y-83882091D01*
X53807276Y-83818658D01*
X53845903Y-83763493D01*
X53876261Y-83661433D01*
X88091357Y-104784523D02*
X88142099Y-104205477D01*
X87653618Y-104417216D02*
X88296405Y-103651171D01*
X88588232Y-103896043D01*
X88630580Y-103993739D01*
X88636449Y-104060826D01*
X88611709Y-104164392D01*
X88519883Y-104273827D01*
X88422186Y-104316174D01*
X88355099Y-104322044D01*
X88251534Y-104297304D01*
X87959707Y-104052433D01*
X88989493Y-104232741D02*
X89500190Y-104661266D01*
X88529097Y-105151830D01*
X89937929Y-105028573D02*
X90010886Y-105089791D01*
X90053234Y-105187487D01*
X90059103Y-105254574D01*
X90034363Y-105358140D01*
X89948406Y-105534662D01*
X89795361Y-105717054D01*
X89636447Y-105832358D01*
X89538751Y-105874706D01*
X89471664Y-105880575D01*
X89368098Y-105855835D01*
X89295142Y-105794618D01*
X89252794Y-105696921D01*
X89246925Y-105629834D01*
X89271664Y-105526269D01*
X89357622Y-105349747D01*
X89510666Y-105167355D01*
X89669580Y-105052051D01*
X89767276Y-105009703D01*
X89834364Y-105003834D01*
X89937929Y-105028573D01*
X62196742Y-49982380D02*
X61863409Y-49506190D01*
X61625314Y-49982380D02*
X61625314Y-48982380D01*
X62006266Y-48982380D01*
X62101504Y-49030000D01*
X62149123Y-49077619D01*
X62196742Y-49172857D01*
X62196742Y-49315714D01*
X62149123Y-49410952D01*
X62101504Y-49458571D01*
X62006266Y-49506190D01*
X61625314Y-49506190D01*
X62530076Y-48982380D02*
X63196742Y-48982380D01*
X62768171Y-49982380D01*
X64101504Y-49982380D02*
X63530076Y-49982380D01*
X63815790Y-49982380D02*
X63815790Y-48982380D01*
X63720552Y-49125238D01*
X63625314Y-49220476D01*
X63530076Y-49268095D01*
X58537030Y-58910435D02*
X58870496Y-58434337D01*
X58341590Y-58373468D02*
X59281283Y-58031447D01*
X59411576Y-58389426D01*
X59399402Y-58495207D01*
X59370942Y-58556241D01*
X59297734Y-58633561D01*
X59163492Y-58682421D01*
X59057711Y-58670247D01*
X58996677Y-58641787D01*
X58919356Y-58568579D01*
X58789063Y-58210601D01*
X59590730Y-58881646D02*
X59818743Y-59508107D01*
X58732470Y-59447402D01*
X59843255Y-59853911D02*
X59904289Y-59882372D01*
X59981610Y-59955580D01*
X60063043Y-60179316D01*
X60050869Y-60285097D01*
X60022409Y-60346131D01*
X59949201Y-60423452D01*
X59859706Y-60456025D01*
X59709178Y-60460138D01*
X58976771Y-60118611D01*
X59188497Y-60700325D01*
X50717944Y-78532321D02*
X50138885Y-78582900D01*
X50432230Y-79027192D02*
X49566205Y-78527192D01*
X49756681Y-78197278D01*
X49845539Y-78138609D01*
X49910588Y-78121179D01*
X50016876Y-78127559D01*
X50140594Y-78198987D01*
X50199263Y-78287846D01*
X50216693Y-78352894D01*
X50210313Y-78459183D01*
X50019837Y-78789097D01*
X50018586Y-77743645D02*
X50351919Y-77166295D01*
X51003659Y-78037449D01*
X50494776Y-76918859D02*
X50804300Y-76382748D01*
X50967548Y-76861900D01*
X51038976Y-76738182D01*
X51127835Y-76679513D01*
X51192883Y-76662083D01*
X51299172Y-76668463D01*
X51505368Y-76787510D01*
X51564037Y-76876369D01*
X51581467Y-76941417D01*
X51575087Y-77047706D01*
X51432230Y-77295141D01*
X51343372Y-77353811D01*
X51278323Y-77371240D01*
X63814323Y-85136642D02*
X63235277Y-85085900D01*
X63447016Y-85574381D02*
X62680971Y-84931594D01*
X62925843Y-84639767D01*
X63023539Y-84597419D01*
X63090626Y-84591550D01*
X63194192Y-84616290D01*
X63303627Y-84708116D01*
X63345974Y-84805813D01*
X63351844Y-84872900D01*
X63327104Y-84976465D01*
X63082233Y-85268292D01*
X63262541Y-84238506D02*
X63691066Y-83727809D01*
X64181630Y-84698902D01*
X64466766Y-83321941D02*
X64977462Y-83750466D01*
X64021895Y-83259461D02*
X64416025Y-83900986D01*
X64813941Y-83426768D01*
X82422659Y-76735400D02*
X81895889Y-76489674D01*
X81927788Y-77021115D02*
X81427788Y-76155089D01*
X81757702Y-75964613D01*
X81863990Y-75958233D01*
X81929039Y-75975663D01*
X82017897Y-76034332D01*
X82089326Y-76158050D01*
X82095706Y-76264338D01*
X82078276Y-76329387D01*
X82019607Y-76418246D01*
X81689692Y-76608722D01*
X82211334Y-75702708D02*
X82788685Y-75369375D01*
X82917531Y-76449686D01*
X83530992Y-74940804D02*
X83118599Y-75178899D01*
X83315455Y-75615101D01*
X83332885Y-75550053D01*
X83391554Y-75461194D01*
X83597751Y-75342147D01*
X83704039Y-75335767D01*
X83769087Y-75353197D01*
X83857946Y-75411866D01*
X83976993Y-75618062D01*
X83983373Y-75724350D01*
X83965943Y-75789399D01*
X83907274Y-75878258D01*
X83701078Y-75997305D01*
X83594790Y-76003685D01*
X83529741Y-75986255D01*
X62272942Y-53233580D02*
X61939609Y-52757390D01*
X61701514Y-53233580D02*
X61701514Y-52233580D01*
X62082466Y-52233580D01*
X62177704Y-52281200D01*
X62225323Y-52328819D01*
X62272942Y-52424057D01*
X62272942Y-52566914D01*
X62225323Y-52662152D01*
X62177704Y-52709771D01*
X62082466Y-52757390D01*
X61701514Y-52757390D01*
X62606276Y-52233580D02*
X63272942Y-52233580D01*
X62844371Y-53233580D01*
X64082466Y-52233580D02*
X63891990Y-52233580D01*
X63796752Y-52281200D01*
X63749133Y-52328819D01*
X63653895Y-52471676D01*
X63606276Y-52662152D01*
X63606276Y-53043104D01*
X63653895Y-53138342D01*
X63701514Y-53185961D01*
X63796752Y-53233580D01*
X63987228Y-53233580D01*
X64082466Y-53185961D01*
X64130085Y-53138342D01*
X64177704Y-53043104D01*
X64177704Y-52805009D01*
X64130085Y-52709771D01*
X64082466Y-52662152D01*
X63987228Y-52614533D01*
X63796752Y-52614533D01*
X63701514Y-52662152D01*
X63653895Y-52709771D01*
X63606276Y-52805009D01*
X61889829Y-58961235D02*
X62223295Y-58485137D01*
X61694389Y-58424268D02*
X62634082Y-58082247D01*
X62764375Y-58440226D01*
X62752201Y-58546007D01*
X62723741Y-58607041D01*
X62650533Y-58684361D01*
X62516291Y-58733221D01*
X62410510Y-58721047D01*
X62349476Y-58692587D01*
X62272155Y-58619379D01*
X62141862Y-58261401D01*
X62943529Y-58932446D02*
X63171542Y-59558907D01*
X62085269Y-59498202D01*
X63269262Y-59827391D02*
X63497276Y-60453853D01*
X62411003Y-60393147D01*
X54756544Y-77871921D02*
X54177485Y-77922500D01*
X54470830Y-78366792D02*
X53604805Y-77866792D01*
X53795281Y-77536878D01*
X53884139Y-77478209D01*
X53949188Y-77460779D01*
X54055476Y-77467159D01*
X54179194Y-77538587D01*
X54237863Y-77627446D01*
X54255293Y-77692494D01*
X54248913Y-77798783D01*
X54058437Y-78128697D01*
X54057186Y-77083245D02*
X54390519Y-76505895D01*
X55042259Y-77377049D01*
X55023577Y-76266549D02*
X54934719Y-76325218D01*
X54869670Y-76342647D01*
X54763382Y-76336268D01*
X54722143Y-76312458D01*
X54663474Y-76223600D01*
X54646044Y-76158551D01*
X54652424Y-76052263D01*
X54747662Y-75887306D01*
X54836520Y-75828637D01*
X54901569Y-75811207D01*
X55007857Y-75817586D01*
X55049096Y-75841396D01*
X55107765Y-75930254D01*
X55125195Y-75995303D01*
X55118816Y-76101591D01*
X55023577Y-76266549D01*
X55017198Y-76372837D01*
X55034627Y-76437886D01*
X55093297Y-76526744D01*
X55258254Y-76621982D01*
X55364542Y-76628362D01*
X55429591Y-76610932D01*
X55518449Y-76552263D01*
X55613687Y-76387306D01*
X55620067Y-76281017D01*
X55602637Y-76215969D01*
X55543968Y-76127110D01*
X55379011Y-76031872D01*
X55272723Y-76025492D01*
X55207674Y-76042922D01*
X55118816Y-76101591D01*
X61807723Y-80132842D02*
X61228677Y-80082100D01*
X61440416Y-80570581D02*
X60674371Y-79927794D01*
X60919243Y-79635967D01*
X61016939Y-79593619D01*
X61084026Y-79587750D01*
X61187592Y-79612490D01*
X61297027Y-79704316D01*
X61339374Y-79802013D01*
X61345244Y-79869100D01*
X61320504Y-79972665D01*
X61075633Y-80264492D01*
X61255941Y-79234706D02*
X61684466Y-78724009D01*
X62175030Y-79695102D01*
X62725991Y-79038492D02*
X62848427Y-78892579D01*
X62873166Y-78789014D01*
X62867297Y-78721926D01*
X62819080Y-78557143D01*
X62703775Y-78398229D01*
X62411949Y-78153357D01*
X62308383Y-78128618D01*
X62241296Y-78134487D01*
X62143600Y-78176835D01*
X62021164Y-78322748D01*
X61996425Y-78426314D01*
X62002294Y-78493401D01*
X62044642Y-78591097D01*
X62227033Y-78744142D01*
X62330599Y-78768881D01*
X62397686Y-78763012D01*
X62495382Y-78720664D01*
X62617818Y-78574751D01*
X62642558Y-78471185D01*
X62636688Y-78404098D01*
X62594340Y-78306402D01*
X98119858Y-100636801D02*
X97593088Y-100391075D01*
X97624987Y-100922516D02*
X97124987Y-100056490D01*
X97454901Y-99866014D01*
X97561189Y-99859634D01*
X97626238Y-99877064D01*
X97715096Y-99935733D01*
X97786525Y-100059451D01*
X97792905Y-100165739D01*
X97775475Y-100230788D01*
X97716806Y-100319647D01*
X97386891Y-100510123D01*
X98329016Y-99856216D02*
X98222728Y-99862595D01*
X98157679Y-99845165D01*
X98068820Y-99786496D01*
X98045011Y-99745257D01*
X98038631Y-99638969D01*
X98056061Y-99573920D01*
X98114730Y-99485062D01*
X98279687Y-99389824D01*
X98385975Y-99383444D01*
X98451024Y-99400874D01*
X98539883Y-99459543D01*
X98563692Y-99500782D01*
X98570072Y-99607070D01*
X98552642Y-99672119D01*
X98493973Y-99760977D01*
X98329016Y-99856216D01*
X98270347Y-99945074D01*
X98252917Y-100010123D01*
X98259297Y-100116411D01*
X98354535Y-100281368D01*
X98443393Y-100340037D01*
X98508442Y-100357467D01*
X98614730Y-100351087D01*
X98779687Y-100255849D01*
X98838356Y-100166991D01*
X98855786Y-100101942D01*
X98849406Y-99995654D01*
X98754168Y-99830697D01*
X98665310Y-99772027D01*
X98600261Y-99754598D01*
X98493973Y-99760977D01*
X98980755Y-98985062D02*
X99063234Y-98937443D01*
X99169522Y-98931063D01*
X99234571Y-98948493D01*
X99323429Y-99007162D01*
X99459907Y-99148310D01*
X99578954Y-99354506D01*
X99632953Y-99543273D01*
X99639333Y-99649561D01*
X99621903Y-99714610D01*
X99563234Y-99803468D01*
X99480755Y-99851087D01*
X99374467Y-99857467D01*
X99309418Y-99840037D01*
X99220560Y-99781368D01*
X99084083Y-99640220D01*
X98965035Y-99434024D01*
X98911036Y-99245257D01*
X98904657Y-99138969D01*
X98922086Y-99073920D01*
X98980755Y-98985062D01*
X66797180Y-43543457D02*
X66320990Y-43876790D01*
X66797180Y-44114885D02*
X65797180Y-44114885D01*
X65797180Y-43733933D01*
X65844800Y-43638695D01*
X65892419Y-43591076D01*
X65987657Y-43543457D01*
X66130514Y-43543457D01*
X66225752Y-43591076D01*
X66273371Y-43638695D01*
X66320990Y-43733933D01*
X66320990Y-44114885D01*
X66225752Y-42972028D02*
X66178133Y-43067266D01*
X66130514Y-43114885D01*
X66035276Y-43162504D01*
X65987657Y-43162504D01*
X65892419Y-43114885D01*
X65844800Y-43067266D01*
X65797180Y-42972028D01*
X65797180Y-42781552D01*
X65844800Y-42686314D01*
X65892419Y-42638695D01*
X65987657Y-42591076D01*
X66035276Y-42591076D01*
X66130514Y-42638695D01*
X66178133Y-42686314D01*
X66225752Y-42781552D01*
X66225752Y-42972028D01*
X66273371Y-43067266D01*
X66320990Y-43114885D01*
X66416228Y-43162504D01*
X66606704Y-43162504D01*
X66701942Y-43114885D01*
X66749561Y-43067266D01*
X66797180Y-42972028D01*
X66797180Y-42781552D01*
X66749561Y-42686314D01*
X66701942Y-42638695D01*
X66606704Y-42591076D01*
X66416228Y-42591076D01*
X66320990Y-42638695D01*
X66273371Y-42686314D01*
X66225752Y-42781552D01*
X66797180Y-41638695D02*
X66797180Y-42210123D01*
X66797180Y-41924409D02*
X65797180Y-41924409D01*
X65940038Y-42019647D01*
X66035276Y-42114885D01*
X66082895Y-42210123D01*
X53390459Y-63756001D02*
X52863689Y-63510275D01*
X52895588Y-64041716D02*
X52395588Y-63175690D01*
X52725502Y-62985214D01*
X52831790Y-62978834D01*
X52896839Y-62996264D01*
X52985697Y-63054933D01*
X53057126Y-63178651D01*
X53063506Y-63284939D01*
X53046076Y-63349988D01*
X52987407Y-63438847D01*
X52657492Y-63629323D01*
X53599617Y-62975416D02*
X53493329Y-62981795D01*
X53428280Y-62964365D01*
X53339421Y-62905696D01*
X53315612Y-62864457D01*
X53309232Y-62758169D01*
X53326662Y-62693120D01*
X53385331Y-62604262D01*
X53550288Y-62509024D01*
X53656576Y-62502644D01*
X53721625Y-62520074D01*
X53810484Y-62578743D01*
X53834293Y-62619982D01*
X53840673Y-62726270D01*
X53823243Y-62791319D01*
X53764574Y-62880177D01*
X53599617Y-62975416D01*
X53540948Y-63064274D01*
X53523518Y-63129323D01*
X53529898Y-63235611D01*
X53625136Y-63400568D01*
X53713994Y-63459237D01*
X53779043Y-63476667D01*
X53885331Y-63470287D01*
X54050288Y-63375049D01*
X54108957Y-63286191D01*
X54126387Y-63221142D01*
X54120007Y-63114854D01*
X54024769Y-62949897D01*
X53935911Y-62891227D01*
X53870862Y-62873798D01*
X53764574Y-62880177D01*
X54092779Y-62305788D02*
X54110209Y-62240739D01*
X54168878Y-62151881D01*
X54375074Y-62032833D01*
X54481362Y-62026453D01*
X54546411Y-62043883D01*
X54635270Y-62102552D01*
X54682889Y-62185031D01*
X54713078Y-62332558D01*
X54503921Y-63113144D01*
X55040032Y-62803621D01*
X49355388Y-70588628D02*
X49205024Y-70027149D01*
X48818421Y-70393188D02*
X49160441Y-69453496D01*
X49518419Y-69583789D01*
X49591627Y-69661110D01*
X49620088Y-69722144D01*
X49632261Y-69827925D01*
X49583401Y-69962167D01*
X49506081Y-70035375D01*
X49445047Y-70063835D01*
X49339266Y-70076009D01*
X48981288Y-69945716D01*
X50087795Y-70247101D02*
X50014587Y-70169781D01*
X49986127Y-70108747D01*
X49973953Y-70002966D01*
X49990240Y-69958218D01*
X50067560Y-69885010D01*
X50128594Y-69856550D01*
X50234375Y-69844376D01*
X50413364Y-69909523D01*
X50486572Y-69986843D01*
X50515033Y-70047877D01*
X50527207Y-70153658D01*
X50510920Y-70198406D01*
X50433600Y-70271613D01*
X50372566Y-70300074D01*
X50266784Y-70312248D01*
X50087795Y-70247101D01*
X49982014Y-70259275D01*
X49920980Y-70287736D01*
X49843660Y-70360944D01*
X49778513Y-70539933D01*
X49790687Y-70645714D01*
X49819147Y-70706748D01*
X49892355Y-70784069D01*
X50071344Y-70849215D01*
X50177125Y-70837041D01*
X50238159Y-70808581D01*
X50315480Y-70735373D01*
X50380627Y-70556384D01*
X50368453Y-70450603D01*
X50339992Y-70389569D01*
X50266784Y-70312248D01*
X50905584Y-70088676D02*
X51487299Y-70300403D01*
X51043775Y-70544374D01*
X51178016Y-70593234D01*
X51251224Y-70670555D01*
X51279685Y-70731589D01*
X51291859Y-70837370D01*
X51210425Y-71061106D01*
X51133105Y-71134314D01*
X51072071Y-71162775D01*
X50966290Y-71174949D01*
X50697806Y-71077229D01*
X50624598Y-70999908D01*
X50596138Y-70938874D01*
X70240524Y-73935242D02*
X69661478Y-73884500D01*
X69873217Y-74372981D02*
X69107172Y-73730194D01*
X69352044Y-73438367D01*
X69449740Y-73396019D01*
X69516827Y-73390150D01*
X69620393Y-73414890D01*
X69729828Y-73506716D01*
X69772175Y-73604413D01*
X69778045Y-73671500D01*
X69753305Y-73775065D01*
X69508434Y-74066892D01*
X70170091Y-73130195D02*
X70072395Y-73172542D01*
X70005308Y-73178412D01*
X69901742Y-73153672D01*
X69865264Y-73123063D01*
X69822916Y-73025367D01*
X69817047Y-72958280D01*
X69841787Y-72854714D01*
X69964222Y-72708801D01*
X70061918Y-72666453D01*
X70129006Y-72660584D01*
X70232571Y-72685324D01*
X70269050Y-72715932D01*
X70311397Y-72813629D01*
X70317267Y-72880716D01*
X70292527Y-72984281D01*
X70170091Y-73130195D01*
X70145352Y-73233760D01*
X70151221Y-73300847D01*
X70193569Y-73398544D01*
X70339482Y-73520979D01*
X70443048Y-73545719D01*
X70510135Y-73539850D01*
X70607831Y-73497502D01*
X70730267Y-73351589D01*
X70755006Y-73248023D01*
X70749137Y-73180936D01*
X70706789Y-73083240D01*
X70560876Y-72960804D01*
X70457310Y-72936064D01*
X70390223Y-72941934D01*
X70292527Y-72984281D01*
X70892967Y-72120541D02*
X71403663Y-72549066D01*
X70448096Y-72058061D02*
X70842226Y-72699586D01*
X71240142Y-72225368D01*
X79273058Y-74754201D02*
X78746288Y-74508475D01*
X78778187Y-75039916D02*
X78278187Y-74173890D01*
X78608101Y-73983414D01*
X78714389Y-73977034D01*
X78779438Y-73994464D01*
X78868296Y-74053133D01*
X78939725Y-74176851D01*
X78946105Y-74283139D01*
X78928675Y-74348188D01*
X78870006Y-74437047D01*
X78540091Y-74627523D01*
X79482216Y-73973616D02*
X79375928Y-73979995D01*
X79310879Y-73962565D01*
X79222020Y-73903896D01*
X79198211Y-73862657D01*
X79191831Y-73756369D01*
X79209261Y-73691320D01*
X79267930Y-73602462D01*
X79432887Y-73507224D01*
X79539175Y-73500844D01*
X79604224Y-73518274D01*
X79693083Y-73576943D01*
X79716892Y-73618182D01*
X79723272Y-73724470D01*
X79705842Y-73789519D01*
X79647173Y-73878377D01*
X79482216Y-73973616D01*
X79423547Y-74062474D01*
X79406117Y-74127523D01*
X79412497Y-74233811D01*
X79507735Y-74398768D01*
X79596593Y-74457437D01*
X79661642Y-74474867D01*
X79767930Y-74468487D01*
X79932887Y-74373249D01*
X79991556Y-74284391D01*
X80008986Y-74219342D01*
X80002606Y-74113054D01*
X79907368Y-73948097D01*
X79818510Y-73889427D01*
X79753461Y-73871998D01*
X79647173Y-73878377D01*
X80381391Y-72959605D02*
X79968998Y-73197700D01*
X80165854Y-73633902D01*
X80183284Y-73568854D01*
X80241953Y-73479995D01*
X80448150Y-73360948D01*
X80554438Y-73354568D01*
X80619486Y-73371998D01*
X80708345Y-73430667D01*
X80827392Y-73636863D01*
X80833772Y-73743151D01*
X80816342Y-73808200D01*
X80757673Y-73897059D01*
X80551477Y-74016106D01*
X80445189Y-74022486D01*
X80380140Y-74005056D01*
X69870580Y-49741057D02*
X69394390Y-50074390D01*
X69870580Y-50312485D02*
X68870580Y-50312485D01*
X68870580Y-49931533D01*
X68918200Y-49836295D01*
X68965819Y-49788676D01*
X69061057Y-49741057D01*
X69203914Y-49741057D01*
X69299152Y-49788676D01*
X69346771Y-49836295D01*
X69394390Y-49931533D01*
X69394390Y-50312485D01*
X69299152Y-49169628D02*
X69251533Y-49264866D01*
X69203914Y-49312485D01*
X69108676Y-49360104D01*
X69061057Y-49360104D01*
X68965819Y-49312485D01*
X68918200Y-49264866D01*
X68870580Y-49169628D01*
X68870580Y-48979152D01*
X68918200Y-48883914D01*
X68965819Y-48836295D01*
X69061057Y-48788676D01*
X69108676Y-48788676D01*
X69203914Y-48836295D01*
X69251533Y-48883914D01*
X69299152Y-48979152D01*
X69299152Y-49169628D01*
X69346771Y-49264866D01*
X69394390Y-49312485D01*
X69489628Y-49360104D01*
X69680104Y-49360104D01*
X69775342Y-49312485D01*
X69822961Y-49264866D01*
X69870580Y-49169628D01*
X69870580Y-48979152D01*
X69822961Y-48883914D01*
X69775342Y-48836295D01*
X69680104Y-48788676D01*
X69489628Y-48788676D01*
X69394390Y-48836295D01*
X69346771Y-48883914D01*
X69299152Y-48979152D01*
X68870580Y-47931533D02*
X68870580Y-48122009D01*
X68918200Y-48217247D01*
X68965819Y-48264866D01*
X69108676Y-48360104D01*
X69299152Y-48407723D01*
X69680104Y-48407723D01*
X69775342Y-48360104D01*
X69822961Y-48312485D01*
X69870580Y-48217247D01*
X69870580Y-48026771D01*
X69822961Y-47931533D01*
X69775342Y-47883914D01*
X69680104Y-47836295D01*
X69442009Y-47836295D01*
X69346771Y-47883914D01*
X69299152Y-47931533D01*
X69251533Y-48026771D01*
X69251533Y-48217247D01*
X69299152Y-48312485D01*
X69346771Y-48360104D01*
X69442009Y-48407723D01*
X65395030Y-59012035D02*
X65728496Y-58535937D01*
X65199590Y-58475068D02*
X66139283Y-58133047D01*
X66269576Y-58491026D01*
X66257402Y-58596807D01*
X66228942Y-58657841D01*
X66155734Y-58735161D01*
X66021492Y-58784021D01*
X65915711Y-58771847D01*
X65854677Y-58743387D01*
X65777356Y-58670179D01*
X65647063Y-58312201D01*
X66127438Y-59353562D02*
X66139612Y-59247781D01*
X66168072Y-59186747D01*
X66241280Y-59109426D01*
X66286027Y-59093139D01*
X66391809Y-59105313D01*
X66452842Y-59133774D01*
X66530163Y-59206982D01*
X66595310Y-59385971D01*
X66583136Y-59491752D01*
X66554675Y-59552786D01*
X66481467Y-59630107D01*
X66436720Y-59646393D01*
X66330939Y-59634219D01*
X66269905Y-59605759D01*
X66192584Y-59532551D01*
X66127438Y-59353562D01*
X66050117Y-59280354D01*
X65989083Y-59251893D01*
X65883302Y-59239720D01*
X65704313Y-59304866D01*
X65631105Y-59382187D01*
X65602644Y-59443221D01*
X65590470Y-59549002D01*
X65655617Y-59727991D01*
X65732938Y-59801199D01*
X65793972Y-59829660D01*
X65899753Y-59841833D01*
X66078742Y-59776687D01*
X66151950Y-59699366D01*
X66180410Y-59638332D01*
X66192584Y-59532551D01*
X66774463Y-59878191D02*
X67002477Y-60504653D01*
X65916204Y-60443947D01*
X58642744Y-77617921D02*
X58063685Y-77668500D01*
X58357030Y-78112792D02*
X57491005Y-77612792D01*
X57681481Y-77282878D01*
X57770339Y-77224209D01*
X57835388Y-77206779D01*
X57941676Y-77213159D01*
X58065394Y-77284587D01*
X58124063Y-77373446D01*
X58141493Y-77438494D01*
X58135113Y-77544783D01*
X57944637Y-77874697D01*
X58433587Y-76837335D02*
X58344729Y-76896004D01*
X58279680Y-76913434D01*
X58173392Y-76907054D01*
X58132152Y-76883244D01*
X58073483Y-76794386D01*
X58056053Y-76729337D01*
X58062433Y-76623049D01*
X58157671Y-76458092D01*
X58246530Y-76399423D01*
X58311578Y-76381993D01*
X58417867Y-76388373D01*
X58459106Y-76412182D01*
X58517775Y-76501040D01*
X58535205Y-76566089D01*
X58528825Y-76672377D01*
X58433587Y-76837335D01*
X58427207Y-76943623D01*
X58444637Y-77008672D01*
X58503306Y-77097530D01*
X58668263Y-77192768D01*
X58774551Y-77199148D01*
X58839600Y-77181718D01*
X58928459Y-77123049D01*
X59023697Y-76958092D01*
X59030076Y-76851804D01*
X59012647Y-76786755D01*
X58953978Y-76697896D01*
X58789020Y-76602658D01*
X58682732Y-76596279D01*
X58617683Y-76613708D01*
X58528825Y-76672377D01*
X58909777Y-76012549D02*
X58820919Y-76071218D01*
X58755870Y-76088647D01*
X58649582Y-76082268D01*
X58608343Y-76058458D01*
X58549674Y-75969600D01*
X58532244Y-75904551D01*
X58538624Y-75798263D01*
X58633862Y-75633306D01*
X58722720Y-75574637D01*
X58787769Y-75557207D01*
X58894057Y-75563586D01*
X58935296Y-75587396D01*
X58993965Y-75676254D01*
X59011395Y-75741303D01*
X59005016Y-75847591D01*
X58909777Y-76012549D01*
X58903398Y-76118837D01*
X58920827Y-76183886D01*
X58979497Y-76272744D01*
X59144454Y-76367982D01*
X59250742Y-76374362D01*
X59315791Y-76356932D01*
X59404649Y-76298263D01*
X59499887Y-76133306D01*
X59506267Y-76027017D01*
X59488837Y-75961969D01*
X59430168Y-75873110D01*
X59265211Y-75777872D01*
X59158923Y-75771492D01*
X59093874Y-75788922D01*
X59005016Y-75847591D01*
X67827523Y-71776242D02*
X67248477Y-71725500D01*
X67460216Y-72213981D02*
X66694171Y-71571194D01*
X66939043Y-71279367D01*
X67036739Y-71237019D01*
X67103826Y-71231150D01*
X67207392Y-71255890D01*
X67316827Y-71347716D01*
X67359174Y-71445413D01*
X67365044Y-71512500D01*
X67340304Y-71616065D01*
X67095433Y-71907892D01*
X67757090Y-70971195D02*
X67659394Y-71013542D01*
X67592307Y-71019412D01*
X67488741Y-70994672D01*
X67452263Y-70964063D01*
X67409915Y-70866367D01*
X67404046Y-70799280D01*
X67428786Y-70695714D01*
X67551221Y-70549801D01*
X67648917Y-70507453D01*
X67716005Y-70501584D01*
X67819570Y-70526324D01*
X67856049Y-70556932D01*
X67898396Y-70654629D01*
X67904266Y-70721716D01*
X67879526Y-70825281D01*
X67757090Y-70971195D01*
X67732351Y-71074760D01*
X67738220Y-71141847D01*
X67780568Y-71239544D01*
X67926481Y-71361979D01*
X68030047Y-71386719D01*
X68097134Y-71380850D01*
X68194830Y-71338502D01*
X68317266Y-71192589D01*
X68342005Y-71089023D01*
X68336136Y-71021936D01*
X68293788Y-70924240D01*
X68147875Y-70801804D01*
X68044309Y-70777064D01*
X67977222Y-70782934D01*
X67879526Y-70825281D01*
X68745791Y-70681892D02*
X68868227Y-70535979D01*
X68892966Y-70432414D01*
X68887097Y-70365326D01*
X68838880Y-70200543D01*
X68723575Y-70041629D01*
X68431749Y-69796757D01*
X68328183Y-69772018D01*
X68261096Y-69777887D01*
X68163400Y-69820235D01*
X68040964Y-69966148D01*
X68016225Y-70069714D01*
X68022094Y-70136801D01*
X68064442Y-70234497D01*
X68246833Y-70387542D01*
X68350399Y-70412281D01*
X68417486Y-70406412D01*
X68515182Y-70364064D01*
X68637618Y-70218151D01*
X68662358Y-70114585D01*
X68656488Y-70047498D01*
X68614140Y-69949802D01*
X100888458Y-102973601D02*
X100361688Y-102727875D01*
X100393587Y-103259316D02*
X99893587Y-102393290D01*
X100223501Y-102202814D01*
X100329789Y-102196434D01*
X100394838Y-102213864D01*
X100483696Y-102272533D01*
X100555125Y-102396251D01*
X100561505Y-102502539D01*
X100544075Y-102567588D01*
X100485406Y-102656447D01*
X100155491Y-102846923D01*
X101300851Y-102735506D02*
X101465809Y-102640268D01*
X101524478Y-102551410D01*
X101541907Y-102486361D01*
X101552958Y-102315024D01*
X101498959Y-102126257D01*
X101308483Y-101796343D01*
X101219624Y-101737674D01*
X101154575Y-101720244D01*
X101048287Y-101726624D01*
X100883330Y-101821862D01*
X100824661Y-101910720D01*
X100807231Y-101975769D01*
X100813611Y-102082057D01*
X100932659Y-102288254D01*
X101021517Y-102346923D01*
X101086566Y-102364352D01*
X101192854Y-102357973D01*
X101357811Y-102262735D01*
X101416480Y-102173876D01*
X101433910Y-102108827D01*
X101427530Y-102002539D01*
X101749355Y-101321862D02*
X101831834Y-101274243D01*
X101938122Y-101267863D01*
X102003171Y-101285293D01*
X102092029Y-101343962D01*
X102228507Y-101485110D01*
X102347554Y-101691306D01*
X102401553Y-101880073D01*
X102407933Y-101986361D01*
X102390503Y-102051410D01*
X102331834Y-102140268D01*
X102249355Y-102187887D01*
X102143067Y-102194267D01*
X102078018Y-102176837D01*
X101989160Y-102118168D01*
X101852683Y-101977020D01*
X101733635Y-101770824D01*
X101679636Y-101582057D01*
X101673257Y-101475769D01*
X101690686Y-101410720D01*
X101749355Y-101321862D01*
X94436859Y-83339401D02*
X93910089Y-83093675D01*
X93941988Y-83625116D02*
X93441988Y-82759090D01*
X93771902Y-82568614D01*
X93878190Y-82562234D01*
X93943239Y-82579664D01*
X94032097Y-82638333D01*
X94103526Y-82762051D01*
X94109906Y-82868339D01*
X94092476Y-82933388D01*
X94033807Y-83022247D01*
X93703892Y-83212723D01*
X94849252Y-83101306D02*
X95014210Y-83006068D01*
X95072879Y-82917210D01*
X95090308Y-82852161D01*
X95101359Y-82680824D01*
X95047360Y-82492057D01*
X94856884Y-82162143D01*
X94768025Y-82103474D01*
X94702976Y-82086044D01*
X94596688Y-82092424D01*
X94431731Y-82187662D01*
X94373062Y-82276520D01*
X94355632Y-82341569D01*
X94362012Y-82447857D01*
X94481060Y-82654054D01*
X94569918Y-82712723D01*
X94634967Y-82730152D01*
X94741255Y-82723773D01*
X94906212Y-82628535D01*
X94964881Y-82539676D01*
X94982311Y-82474627D01*
X94975931Y-82368339D01*
X96086432Y-82387021D02*
X95591560Y-82672735D01*
X95838996Y-82529878D02*
X95338996Y-81663852D01*
X95327946Y-81835189D01*
X95293086Y-81965287D01*
X95234417Y-82054145D01*
X96748260Y-87759001D02*
X96221490Y-87513275D01*
X96253389Y-88044716D02*
X95753389Y-87178690D01*
X96083303Y-86988214D01*
X96189591Y-86981834D01*
X96254640Y-86999264D01*
X96343498Y-87057933D01*
X96414927Y-87181651D01*
X96421307Y-87287939D01*
X96403877Y-87352988D01*
X96345208Y-87441847D01*
X96015293Y-87632323D01*
X97160653Y-87520906D02*
X97325611Y-87425668D01*
X97384280Y-87336810D01*
X97401709Y-87271761D01*
X97412760Y-87100424D01*
X97358761Y-86911657D01*
X97168285Y-86581743D01*
X97079426Y-86523074D01*
X97014377Y-86505644D01*
X96908089Y-86512024D01*
X96743132Y-86607262D01*
X96684463Y-86696120D01*
X96667033Y-86761169D01*
X96673413Y-86867457D01*
X96792461Y-87073654D01*
X96881319Y-87132323D01*
X96946368Y-87149752D01*
X97052656Y-87143373D01*
X97217613Y-87048135D01*
X97276282Y-86959276D01*
X97293712Y-86894227D01*
X97287332Y-86787939D01*
X97450580Y-86308788D02*
X97468010Y-86243739D01*
X97526679Y-86154881D01*
X97732875Y-86035833D01*
X97839163Y-86029453D01*
X97904212Y-86046883D01*
X97993071Y-86105552D01*
X98040690Y-86188031D01*
X98070879Y-86335558D01*
X97861722Y-87116144D01*
X98397833Y-86806621D01*
X84454660Y-79123001D02*
X83927890Y-78877275D01*
X83959789Y-79408716D02*
X83459789Y-78542690D01*
X83789703Y-78352214D01*
X83895991Y-78345834D01*
X83961040Y-78363264D01*
X84049898Y-78421933D01*
X84121327Y-78545651D01*
X84127707Y-78651939D01*
X84110277Y-78716988D01*
X84051608Y-78805847D01*
X83721693Y-78996323D01*
X84867053Y-78884906D02*
X85032011Y-78789668D01*
X85090680Y-78700810D01*
X85108109Y-78635761D01*
X85119160Y-78464424D01*
X85065161Y-78275657D01*
X84874685Y-77945743D01*
X84785826Y-77887074D01*
X84720777Y-77869644D01*
X84614489Y-77876024D01*
X84449532Y-77971262D01*
X84390863Y-78060120D01*
X84373433Y-78125169D01*
X84379813Y-78231457D01*
X84498861Y-78437654D01*
X84587719Y-78496323D01*
X84652768Y-78513752D01*
X84759056Y-78507373D01*
X84924013Y-78412135D01*
X84982682Y-78323276D01*
X85000112Y-78258227D01*
X84993732Y-78151939D01*
X85068122Y-77614119D02*
X85604233Y-77304595D01*
X85506034Y-77801176D01*
X85629752Y-77729748D01*
X85736040Y-77723368D01*
X85801088Y-77740798D01*
X85889947Y-77799467D01*
X86008994Y-78005663D01*
X86015374Y-78111951D01*
X85997944Y-78177000D01*
X85939275Y-78265859D01*
X85691840Y-78408716D01*
X85585551Y-78415095D01*
X85520503Y-78397666D01*
X95656059Y-98122201D02*
X95129289Y-97876475D01*
X95161188Y-98407916D02*
X94661188Y-97541890D01*
X94991102Y-97351414D01*
X95097390Y-97345034D01*
X95162439Y-97362464D01*
X95251297Y-97421133D01*
X95322726Y-97544851D01*
X95329106Y-97651139D01*
X95311676Y-97716188D01*
X95253007Y-97805047D01*
X94923092Y-97995523D01*
X96068452Y-97884106D02*
X96233410Y-97788868D01*
X96292079Y-97700010D01*
X96309508Y-97634961D01*
X96320559Y-97463624D01*
X96266560Y-97274857D01*
X96076084Y-96944943D01*
X95987225Y-96886274D01*
X95922176Y-96868844D01*
X95815888Y-96875224D01*
X95650931Y-96970462D01*
X95592262Y-97059320D01*
X95574832Y-97124369D01*
X95581212Y-97230657D01*
X95700260Y-97436854D01*
X95789118Y-97495523D01*
X95854167Y-97512952D01*
X95960455Y-97506573D01*
X96125412Y-97411335D01*
X96184081Y-97322476D01*
X96201511Y-97257427D01*
X96195131Y-97151139D01*
X96889820Y-96640089D02*
X97223153Y-97217440D01*
X96493147Y-96429222D02*
X96644093Y-97166860D01*
X97180204Y-96857336D01*
X51692905Y-48342465D02*
X52393973Y-48747227D01*
X52500261Y-48753607D01*
X52565310Y-48736177D01*
X52654169Y-48677508D01*
X52749407Y-48512550D01*
X52755786Y-48406262D01*
X52738357Y-48341213D01*
X52679688Y-48252355D01*
X51978619Y-47847593D01*
X53344645Y-47481568D02*
X53058931Y-47976439D01*
X53201788Y-47729004D02*
X52335762Y-47229004D01*
X52411861Y-47382911D01*
X52446721Y-47513008D01*
X52440341Y-47619297D01*
M02*
