M48
; DRILL file {KiCad (5.1.2-1)-1} date Tuesday, October 12, 2021 at 12:57:46 PM
; FORMAT={-:-/ absolute / inch / decimal}
; #@! TF.CreationDate,2021-10-12T12:57:46-04:00
; #@! TF.GenerationSoftware,Kicad,Pcbnew,(5.1.2-1)-1
FMAT,2
INCH
T1C0.0315
T2C0.0394
T3C0.1378
%
G90
G05
T1
X1.0Y-0.88
X1.0Y-1.18
X1.13Y-0.88
X1.13Y-1.18
X1.57Y-1.08
X1.57Y-1.2769
X1.6996Y-0.8559
X1.6996Y-1.0528
X2.43Y-0.94
X2.43Y-1.24
X1.1Y-0.77
X1.4Y-0.77
X1.39Y-0.88
X1.39Y-1.18
X1.84Y-0.95
X1.84Y-1.05
X1.84Y-1.15
X1.84Y-1.25
X2.14Y-0.95
X2.14Y-1.05
X2.14Y-1.15
X2.14Y-1.25
X0.74Y-0.88
X0.74Y-1.18
X0.87Y-0.88
X0.87Y-1.18
X1.84Y-0.82
X2.14Y-0.82
X1.26Y-0.88
X1.26Y-1.18
X2.3Y-0.94
X2.3Y-1.24
T2
X2.42Y-1.4067
X1.17Y-1.42
X0.89Y-1.42
X1.59Y-1.42
X1.74Y-1.43
X1.74Y-1.58
X2.28Y-1.4067
X1.03Y-1.42
X2.04Y-1.43
X2.04Y-1.58
X1.31Y-1.42
X1.45Y-1.42
X1.89Y-1.43
X1.89Y-1.58
T3
X0.65Y-1.52
X0.65Y-0.66
T0
M30
