G04 #@! TF.GenerationSoftware,KiCad,Pcbnew,(5.1.2-1)-1*
G04 #@! TF.CreationDate,2021-10-12T12:57:45-04:00*
G04 #@! TF.ProjectId,DCMixer - CGS04,44434d69-7865-4722-902d-204347533034,rev?*
G04 #@! TF.SameCoordinates,Original*
G04 #@! TF.FileFunction,Legend,Top*
G04 #@! TF.FilePolarity,Positive*
%FSLAX46Y46*%
G04 Gerber Fmt 4.6, Leading zero omitted, Abs format (unit mm)*
G04 Created by KiCad (PCBNEW (5.1.2-1)-1) date 2021-10-12 12:57:45*
%MOMM*%
%LPD*%
G04 APERTURE LIST*
%ADD10C,0.120000*%
%ADD11C,0.150000*%
G04 APERTURE END LIST*
D10*
X44540000Y-20620000D02*
X44540000Y-27860000D01*
X41800000Y-20620000D02*
X41800000Y-27860000D01*
X44540000Y-20620000D02*
X41800000Y-20620000D01*
X44540000Y-27860000D02*
X41800000Y-27860000D01*
X41248000Y-33552000D02*
X38508000Y-33552000D01*
X41248000Y-26312000D02*
X38508000Y-26312000D01*
X38508000Y-26312000D02*
X38508000Y-33552000D01*
X41248000Y-26312000D02*
X41248000Y-33552000D01*
X33044000Y-22892000D02*
X33374000Y-22892000D01*
X33374000Y-22892000D02*
X33374000Y-29432000D01*
X33374000Y-29432000D02*
X33044000Y-29432000D01*
X30964000Y-22892000D02*
X30634000Y-22892000D01*
X30634000Y-22892000D02*
X30634000Y-29432000D01*
X30634000Y-29432000D02*
X30964000Y-29432000D01*
X33936000Y-29432000D02*
X34266000Y-29432000D01*
X33936000Y-22892000D02*
X33936000Y-29432000D01*
X34266000Y-22892000D02*
X33936000Y-22892000D01*
X36676000Y-29432000D02*
X36346000Y-29432000D01*
X36676000Y-22892000D02*
X36676000Y-29432000D01*
X36346000Y-22892000D02*
X36676000Y-22892000D01*
X29742000Y-22892000D02*
X30072000Y-22892000D01*
X30072000Y-22892000D02*
X30072000Y-29432000D01*
X30072000Y-29432000D02*
X29742000Y-29432000D01*
X27662000Y-22892000D02*
X27332000Y-22892000D01*
X27332000Y-22892000D02*
X27332000Y-29432000D01*
X27332000Y-29432000D02*
X27662000Y-29432000D01*
X17426000Y-29432000D02*
X17756000Y-29432000D01*
X17426000Y-22892000D02*
X17426000Y-29432000D01*
X17756000Y-22892000D02*
X17426000Y-22892000D01*
X20166000Y-29432000D02*
X19836000Y-29432000D01*
X20166000Y-22892000D02*
X20166000Y-29432000D01*
X19836000Y-22892000D02*
X20166000Y-22892000D01*
X23138000Y-22892000D02*
X23468000Y-22892000D01*
X23468000Y-22892000D02*
X23468000Y-29432000D01*
X23468000Y-29432000D02*
X23138000Y-29432000D01*
X21058000Y-22892000D02*
X20728000Y-22892000D01*
X20728000Y-22892000D02*
X20728000Y-29432000D01*
X20728000Y-29432000D02*
X21058000Y-29432000D01*
X24030000Y-29432000D02*
X24360000Y-29432000D01*
X24030000Y-22892000D02*
X24030000Y-29432000D01*
X24360000Y-22892000D02*
X24030000Y-22892000D01*
X26770000Y-29432000D02*
X26440000Y-29432000D01*
X26770000Y-22892000D02*
X26770000Y-29432000D01*
X26440000Y-22892000D02*
X26770000Y-22892000D01*
X35020000Y-20598000D02*
X35020000Y-20928000D01*
X35020000Y-20928000D02*
X28480000Y-20928000D01*
X28480000Y-20928000D02*
X28480000Y-20598000D01*
X35020000Y-18518000D02*
X35020000Y-18188000D01*
X35020000Y-18188000D02*
X28480000Y-18188000D01*
X28480000Y-18188000D02*
X28480000Y-18518000D01*
X47276000Y-19458000D02*
X47276000Y-19788000D01*
X53816000Y-19458000D02*
X47276000Y-19458000D01*
X53816000Y-19788000D02*
X53816000Y-19458000D01*
X47276000Y-22198000D02*
X47276000Y-21868000D01*
X53816000Y-22198000D02*
X47276000Y-22198000D01*
X53816000Y-21868000D02*
X53816000Y-22198000D01*
X60682000Y-30956000D02*
X60352000Y-30956000D01*
X60352000Y-30956000D02*
X60352000Y-24416000D01*
X60352000Y-24416000D02*
X60682000Y-24416000D01*
X62762000Y-30956000D02*
X63092000Y-30956000D01*
X63092000Y-30956000D02*
X63092000Y-24416000D01*
X63092000Y-24416000D02*
X62762000Y-24416000D01*
X59790000Y-24416000D02*
X59460000Y-24416000D01*
X59790000Y-30956000D02*
X59790000Y-24416000D01*
X59460000Y-30956000D02*
X59790000Y-30956000D01*
X57050000Y-24416000D02*
X57380000Y-24416000D01*
X57050000Y-30956000D02*
X57050000Y-24416000D01*
X57380000Y-30956000D02*
X57050000Y-30956000D01*
X51546000Y-22800000D02*
G75*
G02X49546000Y-22800000I-1000000J0D01*
G01*
X49546000Y-22800000D02*
X47896000Y-22800000D01*
X47896000Y-22800000D02*
X47896000Y-33080000D01*
X47896000Y-33080000D02*
X53196000Y-33080000D01*
X53196000Y-33080000D02*
X53196000Y-22800000D01*
X53196000Y-22800000D02*
X51546000Y-22800000D01*
X45406000Y-22740000D02*
X45406000Y-33140000D01*
X45406000Y-33140000D02*
X55686000Y-33140000D01*
X55686000Y-33140000D02*
X55686000Y-22740000D01*
X55686000Y-22740000D02*
X45406000Y-22740000D01*
D11*
X43527142Y-24446666D02*
X43574761Y-24494285D01*
X43622380Y-24637142D01*
X43622380Y-24732380D01*
X43574761Y-24875238D01*
X43479523Y-24970476D01*
X43384285Y-25018095D01*
X43193809Y-25065714D01*
X43050952Y-25065714D01*
X42860476Y-25018095D01*
X42765238Y-24970476D01*
X42670000Y-24875238D01*
X42622380Y-24732380D01*
X42622380Y-24637142D01*
X42670000Y-24494285D01*
X42717619Y-24446666D01*
X43622380Y-23494285D02*
X43622380Y-24065714D01*
X43622380Y-23780000D02*
X42622380Y-23780000D01*
X42765238Y-23875238D01*
X42860476Y-23970476D01*
X42908095Y-24065714D01*
X40235142Y-30098666D02*
X40282761Y-30146285D01*
X40330380Y-30289142D01*
X40330380Y-30384380D01*
X40282761Y-30527238D01*
X40187523Y-30622476D01*
X40092285Y-30670095D01*
X39901809Y-30717714D01*
X39758952Y-30717714D01*
X39568476Y-30670095D01*
X39473238Y-30622476D01*
X39378000Y-30527238D01*
X39330380Y-30384380D01*
X39330380Y-30289142D01*
X39378000Y-30146285D01*
X39425619Y-30098666D01*
X39425619Y-29717714D02*
X39378000Y-29670095D01*
X39330380Y-29574857D01*
X39330380Y-29336761D01*
X39378000Y-29241523D01*
X39425619Y-29193904D01*
X39520857Y-29146285D01*
X39616095Y-29146285D01*
X39758952Y-29193904D01*
X40330380Y-29765333D01*
X40330380Y-29146285D01*
X53046380Y-38433333D02*
X53760666Y-38433333D01*
X53903523Y-38480952D01*
X53998761Y-38576190D01*
X54046380Y-38719047D01*
X54046380Y-38814285D01*
X54046380Y-37433333D02*
X54046380Y-38004761D01*
X54046380Y-37719047D02*
X53046380Y-37719047D01*
X53189238Y-37814285D01*
X53284476Y-37909523D01*
X53332095Y-38004761D01*
X46442380Y-43259333D02*
X47156666Y-43259333D01*
X47299523Y-43306952D01*
X47394761Y-43402190D01*
X47442380Y-43545047D01*
X47442380Y-43640285D01*
X46537619Y-42830761D02*
X46490000Y-42783142D01*
X46442380Y-42687904D01*
X46442380Y-42449809D01*
X46490000Y-42354571D01*
X46537619Y-42306952D01*
X46632857Y-42259333D01*
X46728095Y-42259333D01*
X46870952Y-42306952D01*
X47442380Y-42878380D01*
X47442380Y-42259333D01*
X41322666Y-40346380D02*
X41322666Y-41060666D01*
X41275047Y-41203523D01*
X41179809Y-41298761D01*
X41036952Y-41346380D01*
X40941714Y-41346380D01*
X41703619Y-40346380D02*
X42322666Y-40346380D01*
X41989333Y-40727333D01*
X42132190Y-40727333D01*
X42227428Y-40774952D01*
X42275047Y-40822571D01*
X42322666Y-40917809D01*
X42322666Y-41155904D01*
X42275047Y-41251142D01*
X42227428Y-41298761D01*
X42132190Y-41346380D01*
X41846476Y-41346380D01*
X41751238Y-41298761D01*
X41703619Y-41251142D01*
X36496666Y-32980380D02*
X36496666Y-33694666D01*
X36449047Y-33837523D01*
X36353809Y-33932761D01*
X36210952Y-33980380D01*
X36115714Y-33980380D01*
X37401428Y-33313714D02*
X37401428Y-33980380D01*
X37163333Y-32932761D02*
X36925238Y-33647047D01*
X37544285Y-33647047D01*
X39798666Y-38314380D02*
X39798666Y-39028666D01*
X39751047Y-39171523D01*
X39655809Y-39266761D01*
X39512952Y-39314380D01*
X39417714Y-39314380D01*
X40751047Y-38314380D02*
X40274857Y-38314380D01*
X40227238Y-38790571D01*
X40274857Y-38742952D01*
X40370095Y-38695333D01*
X40608190Y-38695333D01*
X40703428Y-38742952D01*
X40751047Y-38790571D01*
X40798666Y-38885809D01*
X40798666Y-39123904D01*
X40751047Y-39219142D01*
X40703428Y-39266761D01*
X40608190Y-39314380D01*
X40370095Y-39314380D01*
X40274857Y-39266761D01*
X40227238Y-39219142D01*
X32940666Y-32980380D02*
X32940666Y-33694666D01*
X32893047Y-33837523D01*
X32797809Y-33932761D01*
X32654952Y-33980380D01*
X32559714Y-33980380D01*
X33845428Y-32980380D02*
X33654952Y-32980380D01*
X33559714Y-33028000D01*
X33512095Y-33075619D01*
X33416857Y-33218476D01*
X33369238Y-33408952D01*
X33369238Y-33789904D01*
X33416857Y-33885142D01*
X33464476Y-33932761D01*
X33559714Y-33980380D01*
X33750190Y-33980380D01*
X33845428Y-33932761D01*
X33893047Y-33885142D01*
X33940666Y-33789904D01*
X33940666Y-33551809D01*
X33893047Y-33456571D01*
X33845428Y-33408952D01*
X33750190Y-33361333D01*
X33559714Y-33361333D01*
X33464476Y-33408952D01*
X33416857Y-33456571D01*
X33369238Y-33551809D01*
X22272666Y-32980380D02*
X22272666Y-33694666D01*
X22225047Y-33837523D01*
X22129809Y-33932761D01*
X21986952Y-33980380D01*
X21891714Y-33980380D01*
X22653619Y-32980380D02*
X23320285Y-32980380D01*
X22891714Y-33980380D01*
X25828666Y-32980380D02*
X25828666Y-33694666D01*
X25781047Y-33837523D01*
X25685809Y-33932761D01*
X25542952Y-33980380D01*
X25447714Y-33980380D01*
X26447714Y-33408952D02*
X26352476Y-33361333D01*
X26304857Y-33313714D01*
X26257238Y-33218476D01*
X26257238Y-33170857D01*
X26304857Y-33075619D01*
X26352476Y-33028000D01*
X26447714Y-32980380D01*
X26638190Y-32980380D01*
X26733428Y-33028000D01*
X26781047Y-33075619D01*
X26828666Y-33170857D01*
X26828666Y-33218476D01*
X26781047Y-33313714D01*
X26733428Y-33361333D01*
X26638190Y-33408952D01*
X26447714Y-33408952D01*
X26352476Y-33456571D01*
X26304857Y-33504190D01*
X26257238Y-33599428D01*
X26257238Y-33789904D01*
X26304857Y-33885142D01*
X26352476Y-33932761D01*
X26447714Y-33980380D01*
X26638190Y-33980380D01*
X26733428Y-33932761D01*
X26781047Y-33885142D01*
X26828666Y-33789904D01*
X26828666Y-33599428D01*
X26781047Y-33504190D01*
X26733428Y-33456571D01*
X26638190Y-33408952D01*
X29384666Y-32980380D02*
X29384666Y-33694666D01*
X29337047Y-33837523D01*
X29241809Y-33932761D01*
X29098952Y-33980380D01*
X29003714Y-33980380D01*
X29908476Y-33980380D02*
X30098952Y-33980380D01*
X30194190Y-33932761D01*
X30241809Y-33885142D01*
X30337047Y-33742285D01*
X30384666Y-33551809D01*
X30384666Y-33170857D01*
X30337047Y-33075619D01*
X30289428Y-33028000D01*
X30194190Y-32980380D01*
X30003714Y-32980380D01*
X29908476Y-33028000D01*
X29860857Y-33075619D01*
X29813238Y-33170857D01*
X29813238Y-33408952D01*
X29860857Y-33504190D01*
X29908476Y-33551809D01*
X30003714Y-33599428D01*
X30194190Y-33599428D01*
X30289428Y-33551809D01*
X30337047Y-33504190D01*
X30384666Y-33408952D01*
X57102476Y-37806380D02*
X57102476Y-38520666D01*
X57054857Y-38663523D01*
X56959619Y-38758761D01*
X56816761Y-38806380D01*
X56721523Y-38806380D01*
X58102476Y-38806380D02*
X57531047Y-38806380D01*
X57816761Y-38806380D02*
X57816761Y-37806380D01*
X57721523Y-37949238D01*
X57626285Y-38044476D01*
X57531047Y-38092095D01*
X58721523Y-37806380D02*
X58816761Y-37806380D01*
X58912000Y-37854000D01*
X58959619Y-37901619D01*
X59007238Y-37996857D01*
X59054857Y-38187333D01*
X59054857Y-38425428D01*
X59007238Y-38615904D01*
X58959619Y-38711142D01*
X58912000Y-38758761D01*
X58816761Y-38806380D01*
X58721523Y-38806380D01*
X58626285Y-38758761D01*
X58578666Y-38711142D01*
X58531047Y-38615904D01*
X58483428Y-38425428D01*
X58483428Y-38187333D01*
X58531047Y-37996857D01*
X58578666Y-37901619D01*
X58626285Y-37854000D01*
X58721523Y-37806380D01*
X60658476Y-37806380D02*
X60658476Y-38520666D01*
X60610857Y-38663523D01*
X60515619Y-38758761D01*
X60372761Y-38806380D01*
X60277523Y-38806380D01*
X61658476Y-38806380D02*
X61087047Y-38806380D01*
X61372761Y-38806380D02*
X61372761Y-37806380D01*
X61277523Y-37949238D01*
X61182285Y-38044476D01*
X61087047Y-38092095D01*
X62610857Y-38806380D02*
X62039428Y-38806380D01*
X62325142Y-38806380D02*
X62325142Y-37806380D01*
X62229904Y-37949238D01*
X62134666Y-38044476D01*
X62039428Y-38092095D01*
X32456380Y-26328666D02*
X31980190Y-26662000D01*
X32456380Y-26900095D02*
X31456380Y-26900095D01*
X31456380Y-26519142D01*
X31504000Y-26423904D01*
X31551619Y-26376285D01*
X31646857Y-26328666D01*
X31789714Y-26328666D01*
X31884952Y-26376285D01*
X31932571Y-26423904D01*
X31980190Y-26519142D01*
X31980190Y-26900095D01*
X32456380Y-25376285D02*
X32456380Y-25947714D01*
X32456380Y-25662000D02*
X31456380Y-25662000D01*
X31599238Y-25757238D01*
X31694476Y-25852476D01*
X31742095Y-25947714D01*
X35758380Y-26328666D02*
X35282190Y-26662000D01*
X35758380Y-26900095D02*
X34758380Y-26900095D01*
X34758380Y-26519142D01*
X34806000Y-26423904D01*
X34853619Y-26376285D01*
X34948857Y-26328666D01*
X35091714Y-26328666D01*
X35186952Y-26376285D01*
X35234571Y-26423904D01*
X35282190Y-26519142D01*
X35282190Y-26900095D01*
X34853619Y-25947714D02*
X34806000Y-25900095D01*
X34758380Y-25804857D01*
X34758380Y-25566761D01*
X34806000Y-25471523D01*
X34853619Y-25423904D01*
X34948857Y-25376285D01*
X35044095Y-25376285D01*
X35186952Y-25423904D01*
X35758380Y-25995333D01*
X35758380Y-25376285D01*
X29154380Y-26328666D02*
X28678190Y-26662000D01*
X29154380Y-26900095D02*
X28154380Y-26900095D01*
X28154380Y-26519142D01*
X28202000Y-26423904D01*
X28249619Y-26376285D01*
X28344857Y-26328666D01*
X28487714Y-26328666D01*
X28582952Y-26376285D01*
X28630571Y-26423904D01*
X28678190Y-26519142D01*
X28678190Y-26900095D01*
X28154380Y-25995333D02*
X28154380Y-25376285D01*
X28535333Y-25709619D01*
X28535333Y-25566761D01*
X28582952Y-25471523D01*
X28630571Y-25423904D01*
X28725809Y-25376285D01*
X28963904Y-25376285D01*
X29059142Y-25423904D01*
X29106761Y-25471523D01*
X29154380Y-25566761D01*
X29154380Y-25852476D01*
X29106761Y-25947714D01*
X29059142Y-25995333D01*
X19248380Y-26328666D02*
X18772190Y-26662000D01*
X19248380Y-26900095D02*
X18248380Y-26900095D01*
X18248380Y-26519142D01*
X18296000Y-26423904D01*
X18343619Y-26376285D01*
X18438857Y-26328666D01*
X18581714Y-26328666D01*
X18676952Y-26376285D01*
X18724571Y-26423904D01*
X18772190Y-26519142D01*
X18772190Y-26900095D01*
X18581714Y-25471523D02*
X19248380Y-25471523D01*
X18200761Y-25709619D02*
X18915047Y-25947714D01*
X18915047Y-25328666D01*
X22550380Y-26328666D02*
X22074190Y-26662000D01*
X22550380Y-26900095D02*
X21550380Y-26900095D01*
X21550380Y-26519142D01*
X21598000Y-26423904D01*
X21645619Y-26376285D01*
X21740857Y-26328666D01*
X21883714Y-26328666D01*
X21978952Y-26376285D01*
X22026571Y-26423904D01*
X22074190Y-26519142D01*
X22074190Y-26900095D01*
X21550380Y-25423904D02*
X21550380Y-25900095D01*
X22026571Y-25947714D01*
X21978952Y-25900095D01*
X21931333Y-25804857D01*
X21931333Y-25566761D01*
X21978952Y-25471523D01*
X22026571Y-25423904D01*
X22121809Y-25376285D01*
X22359904Y-25376285D01*
X22455142Y-25423904D01*
X22502761Y-25471523D01*
X22550380Y-25566761D01*
X22550380Y-25804857D01*
X22502761Y-25900095D01*
X22455142Y-25947714D01*
X25852380Y-26328666D02*
X25376190Y-26662000D01*
X25852380Y-26900095D02*
X24852380Y-26900095D01*
X24852380Y-26519142D01*
X24900000Y-26423904D01*
X24947619Y-26376285D01*
X25042857Y-26328666D01*
X25185714Y-26328666D01*
X25280952Y-26376285D01*
X25328571Y-26423904D01*
X25376190Y-26519142D01*
X25376190Y-26900095D01*
X24852380Y-25471523D02*
X24852380Y-25662000D01*
X24900000Y-25757238D01*
X24947619Y-25804857D01*
X25090476Y-25900095D01*
X25280952Y-25947714D01*
X25661904Y-25947714D01*
X25757142Y-25900095D01*
X25804761Y-25852476D01*
X25852380Y-25757238D01*
X25852380Y-25566761D01*
X25804761Y-25471523D01*
X25757142Y-25423904D01*
X25661904Y-25376285D01*
X25423809Y-25376285D01*
X25328571Y-25423904D01*
X25280952Y-25471523D01*
X25233333Y-25566761D01*
X25233333Y-25757238D01*
X25280952Y-25852476D01*
X25328571Y-25900095D01*
X25423809Y-25947714D01*
X31583333Y-20010380D02*
X31250000Y-19534190D01*
X31011904Y-20010380D02*
X31011904Y-19010380D01*
X31392857Y-19010380D01*
X31488095Y-19058000D01*
X31535714Y-19105619D01*
X31583333Y-19200857D01*
X31583333Y-19343714D01*
X31535714Y-19438952D01*
X31488095Y-19486571D01*
X31392857Y-19534190D01*
X31011904Y-19534190D01*
X31916666Y-19010380D02*
X32583333Y-19010380D01*
X32154761Y-20010380D01*
X50379333Y-21280380D02*
X50046000Y-20804190D01*
X49807904Y-21280380D02*
X49807904Y-20280380D01*
X50188857Y-20280380D01*
X50284095Y-20328000D01*
X50331714Y-20375619D01*
X50379333Y-20470857D01*
X50379333Y-20613714D01*
X50331714Y-20708952D01*
X50284095Y-20756571D01*
X50188857Y-20804190D01*
X49807904Y-20804190D01*
X50950761Y-20708952D02*
X50855523Y-20661333D01*
X50807904Y-20613714D01*
X50760285Y-20518476D01*
X50760285Y-20470857D01*
X50807904Y-20375619D01*
X50855523Y-20328000D01*
X50950761Y-20280380D01*
X51141238Y-20280380D01*
X51236476Y-20328000D01*
X51284095Y-20375619D01*
X51331714Y-20470857D01*
X51331714Y-20518476D01*
X51284095Y-20613714D01*
X51236476Y-20661333D01*
X51141238Y-20708952D01*
X50950761Y-20708952D01*
X50855523Y-20756571D01*
X50807904Y-20804190D01*
X50760285Y-20899428D01*
X50760285Y-21089904D01*
X50807904Y-21185142D01*
X50855523Y-21232761D01*
X50950761Y-21280380D01*
X51141238Y-21280380D01*
X51236476Y-21232761D01*
X51284095Y-21185142D01*
X51331714Y-21089904D01*
X51331714Y-20899428D01*
X51284095Y-20804190D01*
X51236476Y-20756571D01*
X51141238Y-20708952D01*
X62174380Y-27852666D02*
X61698190Y-28186000D01*
X62174380Y-28424095D02*
X61174380Y-28424095D01*
X61174380Y-28043142D01*
X61222000Y-27947904D01*
X61269619Y-27900285D01*
X61364857Y-27852666D01*
X61507714Y-27852666D01*
X61602952Y-27900285D01*
X61650571Y-27947904D01*
X61698190Y-28043142D01*
X61698190Y-28424095D01*
X62174380Y-27376476D02*
X62174380Y-27186000D01*
X62126761Y-27090761D01*
X62079142Y-27043142D01*
X61936285Y-26947904D01*
X61745809Y-26900285D01*
X61364857Y-26900285D01*
X61269619Y-26947904D01*
X61222000Y-26995523D01*
X61174380Y-27090761D01*
X61174380Y-27281238D01*
X61222000Y-27376476D01*
X61269619Y-27424095D01*
X61364857Y-27471714D01*
X61602952Y-27471714D01*
X61698190Y-27424095D01*
X61745809Y-27376476D01*
X61793428Y-27281238D01*
X61793428Y-27090761D01*
X61745809Y-26995523D01*
X61698190Y-26947904D01*
X61602952Y-26900285D01*
X58872380Y-28328857D02*
X58396190Y-28662190D01*
X58872380Y-28900285D02*
X57872380Y-28900285D01*
X57872380Y-28519333D01*
X57920000Y-28424095D01*
X57967619Y-28376476D01*
X58062857Y-28328857D01*
X58205714Y-28328857D01*
X58300952Y-28376476D01*
X58348571Y-28424095D01*
X58396190Y-28519333D01*
X58396190Y-28900285D01*
X58872380Y-27376476D02*
X58872380Y-27947904D01*
X58872380Y-27662190D02*
X57872380Y-27662190D01*
X58015238Y-27757428D01*
X58110476Y-27852666D01*
X58158095Y-27947904D01*
X57872380Y-26757428D02*
X57872380Y-26662190D01*
X57920000Y-26566952D01*
X57967619Y-26519333D01*
X58062857Y-26471714D01*
X58253333Y-26424095D01*
X58491428Y-26424095D01*
X58681904Y-26471714D01*
X58777142Y-26519333D01*
X58824761Y-26566952D01*
X58872380Y-26662190D01*
X58872380Y-26757428D01*
X58824761Y-26852666D01*
X58777142Y-26900285D01*
X58681904Y-26947904D01*
X58491428Y-26995523D01*
X58253333Y-26995523D01*
X58062857Y-26947904D01*
X57967619Y-26900285D01*
X57920000Y-26852666D01*
X57872380Y-26757428D01*
X49784095Y-27392380D02*
X49784095Y-28201904D01*
X49831714Y-28297142D01*
X49879333Y-28344761D01*
X49974571Y-28392380D01*
X50165047Y-28392380D01*
X50260285Y-28344761D01*
X50307904Y-28297142D01*
X50355523Y-28201904D01*
X50355523Y-27392380D01*
X51355523Y-28392380D02*
X50784095Y-28392380D01*
X51069809Y-28392380D02*
X51069809Y-27392380D01*
X50974571Y-27535238D01*
X50879333Y-27630476D01*
X50784095Y-27678095D01*
M02*
