M48
;GenerationSoftware,Autodesk,EAGLE,9.6.2*%
;CreationDate,2021-05-09T21:45:49Z*%
FMAT,2
ICI,OFF
METRIC,TZ,000.000
T7C0.350
T6C0.600
T5C0.711
T4C0.813
T3C1.118
T2C1.676
T1C3.600
%
G90
M71
T1
X6000Y94000
X6000Y18000
X80000Y18000
X80000Y94000
T2
X8860Y28869
X8860Y40756
X8860Y36794
X8860Y32832
T3
X61195Y83312
X61195Y93472
T4
X51377Y76699
X48866Y26538
X44879Y23389
X45027Y93777
X42487Y88697
X39947Y93777
X76919Y69461
X78731Y74207
X65125Y68024
X65125Y62944
X65189Y48150
X65189Y43070
X27724Y34911
X22644Y34911
X42366Y37131
X13739Y69843
X4401Y65841
X71475Y60404
X68935Y60404
X56235Y60404
X56235Y52784
X66395Y60404
X63855Y60404
X58775Y60404
X61315Y60404
X58775Y52784
X61315Y52784
X63855Y52784
X66395Y52784
X68935Y52784
X71475Y52784
X33465Y42578
X32481Y40236
X39506Y37283
X40490Y39625
X31497Y37895
X30512Y35553
X38521Y34942
X37537Y32600
X40052Y32609
X30482Y48868
X25402Y48868
X58775Y40084
X3780Y24653
X13940Y24653
X3780Y44973
X13940Y44973
X49709Y90401
X51614Y91671
X49709Y92941
X16415Y89333
X14425Y79370
X26468Y59350
X30372Y68730
X26716Y68144
X30124Y77716
X25168Y77917
X31672Y85723
X29524Y26772
X23961Y18271
X28094Y27727
X19468Y22358
X19777Y37910
X29937Y37910
X21955Y44582
X31967Y46312
X32906Y44481
X23568Y40478
X39908Y28950
X36450Y19397
X62785Y82161
X69765Y89543
X81385Y75650
X74003Y82630
X68935Y73104
X68935Y62944
X71475Y62944
X71475Y73104
X74015Y62944
X74015Y73104
X66395Y75644
X76555Y75644
X49509Y78336
X57504Y84605
X61315Y73104
X61315Y62944
X58775Y62944
X58775Y73104
X56235Y62944
X56235Y73104
X10116Y87937
X13104Y78227
X61093Y79669
X39850Y51340
X50881Y30832
X57247Y22914
X61315Y40084
X61315Y50244
X58775Y50244
X50021Y20977
X56235Y50244
X56235Y40084
X59429Y32984
X50126Y37068
X80798Y36664
X71531Y32499
X68935Y40084
X68935Y50244
X71475Y50244
X71475Y40084
X74015Y50244
X74015Y40084
X5478Y82864
X12662Y75680
X66495Y35569
X76510Y37281
X13410Y93922
X18490Y93922
X15950Y93922
X25520Y94040
X20440Y94040
X22980Y94040
X29056Y93820
X31596Y88740
X34136Y93820
X12670Y50053
X10130Y55133
X7590Y50053
X22616Y86869
X15844Y79295
X2914Y76854
X12686Y74070
X2751Y71094
X12849Y72209
X22632Y82475
X19224Y72904
X28435Y51497
X30945Y61343
X34770Y80550
X36924Y79204
X32616Y81896
X34770Y74200
X36989Y72965
X32551Y75435
X34770Y66580
X36949Y65276
X32591Y67884
X34770Y58960
X36949Y57656
X32591Y60264
X34770Y52610
X37043Y51477
X32497Y53743
X16690Y75462
X14785Y74192
X16690Y72922
X51388Y74153
X53462Y69516
X51449Y39009
X53401Y43699
X78563Y38924
X77087Y43784
X39850Y46260
X41120Y60230
X41120Y55150
X41120Y69120
X41120Y64040
X43660Y76740
X36298Y28815
X34378Y24111
X33472Y30668
X31735Y25894
X43660Y71660
T5
X61696Y76914
X63474Y76914
X60143Y35504
X61921Y35504
X65255Y38707
X65255Y40485
X52981Y63520
X67012Y78130
X67012Y79908
X78416Y64820
X77234Y66148
X51869Y64908
X53054Y48333
X51796Y47076
X16480Y28844
X16480Y30622
X16480Y39004
X16480Y40782
X23765Y75479
X23765Y73701
X77131Y47148
X78519Y48260
X65005Y90551
X65005Y88773
T6
X71749Y95025
X18519Y96944
X2258Y79312
X3582Y84402
X16081Y16447
X20654Y16430
X71411Y18283
X57102Y18207
X57573Y95007
T7
X47806Y43696
X58922Y65498
X49885Y56629
M30