G04 #@! TF.GenerationSoftware,KiCad,Pcbnew,(5.1.2-1)-1*
G04 #@! TF.CreationDate,2021-10-10T15:57:48-04:00*
G04 #@! TF.ProjectId,my_fav_reverb,6d795f66-6176-45f7-9265-766572622e6b,rev?*
G04 #@! TF.SameCoordinates,Original*
G04 #@! TF.FileFunction,Legend,Top*
G04 #@! TF.FilePolarity,Positive*
%FSLAX46Y46*%
G04 Gerber Fmt 4.6, Leading zero omitted, Abs format (unit mm)*
G04 Created by KiCad (PCBNEW (5.1.2-1)-1) date 2021-10-10 15:57:48*
%MOMM*%
%LPD*%
G04 APERTURE LIST*
%ADD10C,0.120000*%
%ADD11C,0.150000*%
G04 APERTURE END LIST*
D10*
X60074739Y-62976014D02*
X58896562Y-61987406D01*
X57303190Y-60650408D02*
X56125014Y-59661801D01*
X60047495Y-63005370D02*
X58870851Y-62018048D01*
X57277478Y-60681050D02*
X56100834Y-59693728D01*
X60019485Y-63034083D02*
X58845139Y-62048690D01*
X57251767Y-60711692D02*
X56077421Y-59726298D01*
X59990710Y-63062154D02*
X58819428Y-62079332D01*
X57226055Y-60742333D02*
X56054773Y-59759511D01*
X59961934Y-63090225D02*
X58793716Y-62109974D01*
X57200344Y-60772975D02*
X56032126Y-59792724D01*
X59933158Y-63118295D02*
X58768005Y-62140615D01*
X57174632Y-60803617D02*
X56009479Y-59825937D01*
X59903617Y-63145723D02*
X58742293Y-62171257D01*
X57148921Y-60834259D02*
X55987597Y-59859793D01*
X59873309Y-63172508D02*
X58716582Y-62201899D01*
X57123209Y-60864901D02*
X55966482Y-59894291D01*
X59842235Y-63198650D02*
X58690870Y-62232541D01*
X57097498Y-60895542D02*
X55946133Y-59929433D01*
X59811161Y-63224793D02*
X58665159Y-62263182D01*
X57071786Y-60926184D02*
X55925784Y-59964574D01*
X59779321Y-63250292D02*
X58639447Y-62293824D01*
X56659759Y-61417219D02*
X55672328Y-60588665D01*
X59200297Y-63601199D02*
X58227420Y-62784859D01*
X56634048Y-61447860D02*
X55661172Y-60631520D01*
X59159264Y-63618985D02*
X58201709Y-62815500D01*
X56608336Y-61478502D02*
X55650781Y-60675018D01*
X59116700Y-63635485D02*
X58175997Y-62846142D01*
X56582625Y-61509144D02*
X55641922Y-60719801D01*
X59074902Y-63652629D02*
X58150286Y-62876784D01*
X56556913Y-61539786D02*
X55632298Y-60763941D01*
X59031571Y-63668486D02*
X58124574Y-62907426D01*
X56531202Y-61570428D02*
X55624205Y-60809367D01*
X58987474Y-63683701D02*
X58098863Y-62938068D01*
X56505490Y-61601069D02*
X55616879Y-60855436D01*
X58942612Y-63698273D02*
X58073151Y-62968709D01*
X56479779Y-61631711D02*
X55610318Y-60902147D01*
X58896983Y-63712203D02*
X58047440Y-62999351D01*
X60127694Y-62916016D02*
X58947985Y-61926123D01*
X60101216Y-62946015D02*
X58922274Y-61956765D01*
X57328901Y-60619766D02*
X56149959Y-59630516D01*
X56454067Y-61662353D02*
X55604524Y-60949501D01*
X58850588Y-63725489D02*
X58021728Y-63029993D01*
X56428356Y-61692995D02*
X55599496Y-60997498D01*
X58804194Y-63738776D02*
X57996017Y-63060635D01*
X56402644Y-61723636D02*
X55594468Y-61045496D01*
X58755501Y-63750134D02*
X57970305Y-63091276D01*
X56376933Y-61754278D02*
X55591737Y-61095421D01*
X58706808Y-63761492D02*
X57944594Y-63121918D01*
X56351221Y-61784920D02*
X55589007Y-61145346D01*
X57380324Y-60558483D02*
X56200616Y-59568590D01*
X57046075Y-60956826D02*
X55906201Y-60000358D01*
X59747482Y-63275792D02*
X58613736Y-62324466D01*
X57020363Y-60987468D02*
X55886618Y-60036142D01*
X59714876Y-63300648D02*
X58588024Y-62355108D01*
X56994652Y-61018109D02*
X55867800Y-60072569D01*
X59681504Y-63324862D02*
X58562313Y-62385750D01*
X56968940Y-61048751D02*
X55849749Y-60109639D01*
X59648132Y-63349076D02*
X58536601Y-62416391D01*
X58657349Y-63772207D02*
X57918882Y-63152560D01*
X56325510Y-61815562D02*
X55587043Y-61195915D01*
X58606358Y-63781637D02*
X57893171Y-63183202D01*
X56299798Y-61846204D02*
X55586611Y-61247768D01*
X58554601Y-63790424D02*
X57867459Y-63213844D01*
X56274087Y-61876845D02*
X55586945Y-61300265D01*
X58501312Y-63797925D02*
X57841748Y-63244485D01*
X56248375Y-61907487D02*
X55588811Y-61354047D01*
X58447257Y-63804784D02*
X57816036Y-63275127D01*
X56222664Y-61938129D02*
X55591443Y-61408472D01*
X58392436Y-63811000D02*
X57790325Y-63305769D01*
X56196952Y-61968771D02*
X55594841Y-61463540D01*
X58335316Y-63815287D02*
X57764613Y-63336411D01*
X56171241Y-61999412D02*
X55600538Y-61520536D01*
X58277431Y-63818932D02*
X57738902Y-63367052D01*
X56145529Y-62030054D02*
X55607000Y-61578175D01*
X58218014Y-63821291D02*
X57713190Y-63397694D01*
X56119818Y-62060696D02*
X55614995Y-61637099D01*
X58157064Y-63822365D02*
X57687479Y-63428336D01*
X56094106Y-62091338D02*
X55624521Y-61697309D01*
X58094582Y-63822153D02*
X55635580Y-61758805D01*
X58029803Y-63820012D02*
X55648937Y-61822228D01*
X57962725Y-63815944D02*
X55664591Y-61887581D01*
X57893349Y-63809947D02*
X55682544Y-61954861D01*
X57821675Y-63802021D02*
X55702796Y-62024071D01*
X57746936Y-63791524D02*
X55726111Y-62095851D01*
X57669134Y-63778457D02*
X55752490Y-62170202D01*
X57587501Y-63762175D02*
X55782700Y-62247767D01*
X57500506Y-63741394D02*
X55818272Y-62329832D01*
X57408148Y-63716113D02*
X55859207Y-62416396D01*
X57308897Y-63685047D02*
X55907035Y-62508746D01*
X57198920Y-63644982D02*
X55965589Y-62610094D01*
X57075155Y-63593347D02*
X56037931Y-62723013D01*
X56927643Y-63521786D02*
X56134021Y-62855858D01*
X56722677Y-63402015D02*
X56287563Y-63036912D01*
X61451990Y-59816282D02*
X61130597Y-60199305D01*
X61482805Y-60168490D02*
X61099782Y-59847097D01*
X57354613Y-60589125D02*
X56174904Y-59599232D01*
X60153405Y-62885374D02*
X58973697Y-61895481D01*
X56943229Y-61079393D02*
X55831698Y-60146708D01*
X59613351Y-63373413D02*
X58510247Y-62447799D01*
X56916875Y-61110801D02*
X55813771Y-60185187D01*
X59578447Y-63396342D02*
X58484535Y-62478441D01*
X56891163Y-61141443D02*
X55797252Y-60223542D01*
X59542777Y-63418627D02*
X58458824Y-62509083D01*
X56865451Y-61172084D02*
X55781499Y-60262540D01*
X59507107Y-63440913D02*
X58433112Y-62539724D01*
X56839740Y-61202726D02*
X55765746Y-60301538D01*
X59470671Y-63462555D02*
X58407401Y-62570366D01*
X56814028Y-61233368D02*
X55750759Y-60341179D01*
X59434234Y-63484198D02*
X58381689Y-62601008D01*
X56788317Y-61264010D02*
X55735772Y-60380820D01*
X59396266Y-63504555D02*
X58355978Y-62631650D01*
X56762605Y-61294652D02*
X55722317Y-60421746D01*
X59358298Y-63524913D02*
X58330266Y-62662292D01*
X56736894Y-61325293D02*
X55708862Y-60462672D01*
X59319564Y-63544627D02*
X58304555Y-62692933D01*
X56711182Y-61355935D02*
X55696174Y-60504242D01*
X59280830Y-63564341D02*
X58278843Y-62723575D01*
X56685471Y-61386577D02*
X55683485Y-60545811D01*
X59240563Y-63582770D02*
X58253132Y-62754217D01*
X61077011Y-61226982D02*
G75*
G03X61077011Y-61226982I-2900000J0D01*
G01*
X60276360Y-54698550D02*
X58761726Y-54431479D01*
X56713326Y-54070291D02*
X55198691Y-53803220D01*
X60267444Y-54737595D02*
X58754780Y-54470871D01*
X56706380Y-54109683D02*
X55193715Y-53842959D01*
X60257544Y-54776466D02*
X58747834Y-54510264D01*
X56699434Y-54149075D02*
X55189723Y-53882873D01*
X60246659Y-54815164D02*
X58740888Y-54549656D01*
X56692488Y-54188468D02*
X55186717Y-53922960D01*
X60235774Y-54853862D02*
X58733942Y-54589048D01*
X56685542Y-54227860D02*
X55183710Y-53963046D01*
X60224889Y-54892559D02*
X58726996Y-54628440D01*
X56678596Y-54267252D02*
X55180703Y-54003133D01*
X60213019Y-54931083D02*
X58720050Y-54667833D01*
X56671650Y-54306645D02*
X55178681Y-54043394D01*
X60200164Y-54969434D02*
X58713104Y-54707225D01*
X56664704Y-54346037D02*
X55177644Y-54083828D01*
X60186324Y-55007611D02*
X58706158Y-54746617D01*
X56657758Y-54385429D02*
X55177592Y-54124436D01*
X60172485Y-55045787D02*
X58699212Y-54786010D01*
X56650812Y-54424821D02*
X55177540Y-54165044D01*
X60157660Y-55083790D02*
X58692266Y-54825402D01*
X56539504Y-55056083D02*
X55270087Y-54832251D01*
X59831664Y-55677197D02*
X58580958Y-55456664D01*
X56532558Y-55095476D02*
X55281852Y-54874942D01*
X59805022Y-55713116D02*
X58574012Y-55496056D01*
X56525612Y-55134868D02*
X55294602Y-54917808D01*
X59776410Y-55748688D02*
X58567066Y-55535448D01*
X56518666Y-55174260D02*
X55309322Y-54961020D01*
X59748783Y-55784434D02*
X58560120Y-55574841D01*
X56511720Y-55213652D02*
X55323057Y-55004059D01*
X59719187Y-55819832D02*
X58553174Y-55614233D01*
X56504774Y-55253045D02*
X55338762Y-55047445D01*
X59688605Y-55855057D02*
X58546228Y-55653625D01*
X56497828Y-55292437D02*
X55355451Y-55091005D01*
X59657039Y-55890108D02*
X58539282Y-55693018D01*
X56490882Y-55331829D02*
X55373125Y-55134739D01*
X59624488Y-55924986D02*
X58532336Y-55732410D01*
X60292221Y-54620112D02*
X58775618Y-54352694D01*
X60284291Y-54659331D02*
X58768672Y-54392087D01*
X56720271Y-54030898D02*
X55204652Y-53763654D01*
X56483936Y-55371222D02*
X55391785Y-55178646D01*
X59590953Y-55959690D02*
X58525391Y-55771802D01*
X56476990Y-55410614D02*
X55411428Y-55222727D01*
X59557417Y-55994393D02*
X58518445Y-55811195D01*
X56470044Y-55450006D02*
X55431072Y-55266808D01*
X59520927Y-56028576D02*
X58511499Y-55850587D01*
X56463099Y-55489399D02*
X55453671Y-55311409D01*
X59484436Y-56062759D02*
X58504553Y-55889979D01*
X56456153Y-55528791D02*
X55476269Y-55356011D01*
X56734163Y-53952114D02*
X55217559Y-53684696D01*
X56643866Y-54464214D02*
X55178472Y-54205825D01*
X60142836Y-55121794D02*
X58685320Y-54864794D01*
X56636920Y-54503606D02*
X55179405Y-54246607D01*
X60127027Y-55159623D02*
X58678375Y-54904187D01*
X56629974Y-54542998D02*
X55181322Y-54287562D01*
X60110233Y-55197279D02*
X58671429Y-54943579D01*
X56623029Y-54582391D02*
X55184224Y-54328691D01*
X60093439Y-55234935D02*
X58664483Y-54982971D01*
X59446961Y-56096768D02*
X58497607Y-55929371D01*
X56449207Y-55568183D02*
X55499852Y-55400786D01*
X59407517Y-56130430D02*
X58490661Y-55968764D01*
X56442261Y-55607576D02*
X55525405Y-55445909D01*
X59367088Y-56163919D02*
X58483715Y-56008156D01*
X56435315Y-55646968D02*
X55551942Y-55491205D01*
X59324689Y-56197059D02*
X58476769Y-56047548D01*
X56428369Y-55686360D02*
X55580449Y-55536849D01*
X59281305Y-56230027D02*
X58469823Y-56086941D01*
X56421423Y-55725753D02*
X55609941Y-55582666D01*
X59236936Y-56262820D02*
X58462877Y-56126333D01*
X56414477Y-55765145D02*
X55640418Y-55628657D01*
X59189613Y-56295093D02*
X58455931Y-56165725D01*
X56407531Y-55804537D02*
X55673849Y-55675169D01*
X59141305Y-56327192D02*
X58448985Y-56205118D01*
X56400585Y-55843929D02*
X55708265Y-55721855D01*
X59091028Y-56358944D02*
X58442039Y-56244510D01*
X56393639Y-55883322D02*
X55744651Y-55768888D01*
X59038781Y-56390349D02*
X58435093Y-56283902D01*
X56386693Y-55922714D02*
X55783006Y-55816268D01*
X58984564Y-56421406D02*
X55823331Y-55863995D01*
X58927393Y-56451942D02*
X55866610Y-55912244D01*
X58867267Y-56481957D02*
X55912844Y-55961013D01*
X58804187Y-56511452D02*
X55962032Y-56010303D01*
X58738153Y-56540425D02*
X56014175Y-56060114D01*
X58668179Y-56568704D02*
X56070256Y-56110620D01*
X58594266Y-56596288D02*
X56130277Y-56161820D01*
X58515430Y-56623004D02*
X56195222Y-56213889D01*
X58429699Y-56648505D02*
X56267061Y-56267173D01*
X58337075Y-56672790D02*
X56345793Y-56321673D01*
X58235587Y-56695512D02*
X56433389Y-56377735D01*
X58120313Y-56715803D02*
X56534772Y-56436229D01*
X57987311Y-56732968D02*
X56653882Y-56497848D01*
X57823781Y-56744750D02*
X56803520Y-56564851D01*
X57586390Y-56743509D02*
X57027019Y-56644877D01*
X59889229Y-51273516D02*
X59802405Y-51765920D01*
X60092019Y-51563130D02*
X59599615Y-51476306D01*
X56727217Y-53991506D02*
X55210613Y-53724088D01*
X60299167Y-54580720D02*
X58782563Y-54313302D01*
X56616083Y-54621783D02*
X55187127Y-54369820D01*
X60075486Y-55273402D02*
X58657363Y-55023348D01*
X56608963Y-54662160D02*
X55190840Y-54412107D01*
X60056723Y-55310710D02*
X58650417Y-55062741D01*
X56602017Y-54701552D02*
X55195712Y-54453583D01*
X60036974Y-55347845D02*
X58643471Y-55102133D01*
X56595071Y-54740945D02*
X55201568Y-54495233D01*
X60017226Y-55384980D02*
X58636525Y-55141525D01*
X56588125Y-54780337D02*
X55207425Y-54536882D01*
X59996493Y-55421941D02*
X58629579Y-55180918D01*
X56581179Y-54819729D02*
X55214266Y-54578706D01*
X59975759Y-55458902D02*
X58622634Y-55220310D01*
X56574233Y-54859122D02*
X55221108Y-54620529D01*
X59953057Y-55495516D02*
X58615688Y-55259702D01*
X56567287Y-54898514D02*
X55229919Y-54662700D01*
X59930354Y-55532130D02*
X58608742Y-55299095D01*
X56560342Y-54937906D02*
X55238730Y-54704870D01*
X59906666Y-55568571D02*
X58601796Y-55338487D01*
X56553396Y-54977299D02*
X55248525Y-54747215D01*
X59882978Y-55605011D02*
X58594850Y-55377879D01*
X56546450Y-55016691D02*
X55258321Y-54789559D01*
X59857321Y-55641104D02*
X58587904Y-55417271D01*
X60658362Y-54132708D02*
G75*
G03X60658362Y-54132708I-2899999J0D01*
G01*
X51213500Y-70390800D02*
X51213500Y-68852800D01*
X51213500Y-66772800D02*
X51213500Y-65234800D01*
X51173500Y-70388800D02*
X51173500Y-68852800D01*
X51173500Y-66772800D02*
X51173500Y-65236800D01*
X51133500Y-70385800D02*
X51133500Y-68852800D01*
X51133500Y-66772800D02*
X51133500Y-65239800D01*
X51093500Y-70381800D02*
X51093500Y-68852800D01*
X51093500Y-66772800D02*
X51093500Y-65243800D01*
X51053500Y-70377800D02*
X51053500Y-68852800D01*
X51053500Y-66772800D02*
X51053500Y-65247800D01*
X51013500Y-70373800D02*
X51013500Y-68852800D01*
X51013500Y-66772800D02*
X51013500Y-65251800D01*
X50973500Y-70368800D02*
X50973500Y-68852800D01*
X50973500Y-66772800D02*
X50973500Y-65256800D01*
X50933500Y-70362800D02*
X50933500Y-68852800D01*
X50933500Y-66772800D02*
X50933500Y-65262800D01*
X50893500Y-70355800D02*
X50893500Y-68852800D01*
X50893500Y-66772800D02*
X50893500Y-65269800D01*
X50853500Y-70348800D02*
X50853500Y-68852800D01*
X50853500Y-66772800D02*
X50853500Y-65276800D01*
X50813500Y-70340800D02*
X50813500Y-68852800D01*
X50212500Y-66772800D02*
X50212500Y-65483800D01*
X50172500Y-70122800D02*
X50172500Y-68852800D01*
X50172500Y-66772800D02*
X50172500Y-65502800D01*
X50132500Y-70102800D02*
X50132500Y-68852800D01*
X50132500Y-66772800D02*
X50132500Y-65522800D01*
X50092500Y-70080800D02*
X50092500Y-68852800D01*
X50092500Y-66772800D02*
X50092500Y-65544800D01*
X50052500Y-70059800D02*
X50052500Y-68852800D01*
X50052500Y-66772800D02*
X50052500Y-65565800D01*
X50012500Y-70036800D02*
X50012500Y-68852800D01*
X50012500Y-66772800D02*
X50012500Y-65588800D01*
X49972500Y-70012800D02*
X49972500Y-68852800D01*
X49972500Y-66772800D02*
X49972500Y-65612800D01*
X49932500Y-69987800D02*
X49932500Y-68852800D01*
X49932500Y-66772800D02*
X49932500Y-65637800D01*
X49892500Y-69961800D02*
X49892500Y-68852800D01*
X51293500Y-70392800D02*
X51293500Y-68852800D01*
X51253500Y-70391800D02*
X51253500Y-68852800D01*
X51253500Y-66772800D02*
X51253500Y-65233800D01*
X49892500Y-66772800D02*
X49892500Y-65663800D01*
X49852500Y-69934800D02*
X49852500Y-68852800D01*
X49852500Y-66772800D02*
X49852500Y-65690800D01*
X49812500Y-69907800D02*
X49812500Y-68852800D01*
X49812500Y-66772800D02*
X49812500Y-65717800D01*
X49772500Y-69877800D02*
X49772500Y-68852800D01*
X49772500Y-66772800D02*
X49772500Y-65747800D01*
X49732500Y-69847800D02*
X49732500Y-68852800D01*
X49732500Y-66772800D02*
X49732500Y-65777800D01*
X51333500Y-66772800D02*
X51333500Y-65232800D01*
X50813500Y-66772800D02*
X50813500Y-65284800D01*
X50773500Y-70332800D02*
X50773500Y-68852800D01*
X50773500Y-66772800D02*
X50773500Y-65292800D01*
X50733500Y-70323800D02*
X50733500Y-68852800D01*
X50733500Y-66772800D02*
X50733500Y-65301800D01*
X50693500Y-70313800D02*
X50693500Y-68852800D01*
X50693500Y-66772800D02*
X50693500Y-65311800D01*
X50653500Y-70303800D02*
X50653500Y-68852800D01*
X49692500Y-69816800D02*
X49692500Y-68852800D01*
X49692500Y-66772800D02*
X49692500Y-65808800D01*
X49652500Y-69783800D02*
X49652500Y-68852800D01*
X49652500Y-66772800D02*
X49652500Y-65841800D01*
X49612500Y-69749800D02*
X49612500Y-68852800D01*
X49612500Y-66772800D02*
X49612500Y-65875800D01*
X49572500Y-69713800D02*
X49572500Y-68852800D01*
X49572500Y-66772800D02*
X49572500Y-65911800D01*
X49532500Y-69676800D02*
X49532500Y-68852800D01*
X49532500Y-66772800D02*
X49532500Y-65948800D01*
X49492500Y-69638800D02*
X49492500Y-68852800D01*
X49492500Y-66772800D02*
X49492500Y-65986800D01*
X49452500Y-69597800D02*
X49452500Y-68852800D01*
X49452500Y-66772800D02*
X49452500Y-66027800D01*
X49412500Y-69555800D02*
X49412500Y-68852800D01*
X49412500Y-66772800D02*
X49412500Y-66069800D01*
X49372500Y-69511800D02*
X49372500Y-68852800D01*
X49372500Y-66772800D02*
X49372500Y-66113800D01*
X49332500Y-69465800D02*
X49332500Y-68852800D01*
X49332500Y-66772800D02*
X49332500Y-66159800D01*
X49292500Y-69417800D02*
X49292500Y-66207800D01*
X49252500Y-69366800D02*
X49252500Y-66258800D01*
X49212500Y-69312800D02*
X49212500Y-66312800D01*
X49172500Y-69255800D02*
X49172500Y-66369800D01*
X49132500Y-69195800D02*
X49132500Y-66429800D01*
X49092500Y-69131800D02*
X49092500Y-66493800D01*
X49052500Y-69063800D02*
X49052500Y-66561800D01*
X49012500Y-68990800D02*
X49012500Y-66634800D01*
X48972500Y-68910800D02*
X48972500Y-66714800D01*
X48932500Y-68823800D02*
X48932500Y-66801800D01*
X48892500Y-68727800D02*
X48892500Y-66897800D01*
X48852500Y-68617800D02*
X48852500Y-67007800D01*
X48812500Y-68489800D02*
X48812500Y-67135800D01*
X48772500Y-68330800D02*
X48772500Y-67294800D01*
X48732500Y-68096800D02*
X48732500Y-67528800D01*
X54519275Y-69414800D02*
X54019275Y-69414800D01*
X54269275Y-69664800D02*
X54269275Y-69164800D01*
X51293500Y-66772800D02*
X51293500Y-65232800D01*
X51333500Y-70392800D02*
X51333500Y-68852800D01*
X50653500Y-66772800D02*
X50653500Y-65321800D01*
X50612500Y-70292800D02*
X50612500Y-68852800D01*
X50612500Y-66772800D02*
X50612500Y-65332800D01*
X50572500Y-70280800D02*
X50572500Y-68852800D01*
X50572500Y-66772800D02*
X50572500Y-65344800D01*
X50532500Y-70267800D02*
X50532500Y-68852800D01*
X50532500Y-66772800D02*
X50532500Y-65357800D01*
X50492500Y-70254800D02*
X50492500Y-68852800D01*
X50492500Y-66772800D02*
X50492500Y-65370800D01*
X50452500Y-70240800D02*
X50452500Y-68852800D01*
X50452500Y-66772800D02*
X50452500Y-65384800D01*
X50412500Y-70226800D02*
X50412500Y-68852800D01*
X50412500Y-66772800D02*
X50412500Y-65398800D01*
X50372500Y-70210800D02*
X50372500Y-68852800D01*
X50372500Y-66772800D02*
X50372500Y-65414800D01*
X50332500Y-70194800D02*
X50332500Y-68852800D01*
X50332500Y-66772800D02*
X50332500Y-65430800D01*
X50292500Y-70177800D02*
X50292500Y-68852800D01*
X50292500Y-66772800D02*
X50292500Y-65447800D01*
X50252500Y-70160800D02*
X50252500Y-68852800D01*
X50252500Y-66772800D02*
X50252500Y-65464800D01*
X50212500Y-70141800D02*
X50212500Y-68852800D01*
X54233500Y-67812800D02*
G75*
G03X54233500Y-67812800I-2900000J0D01*
G01*
X32513500Y-74360800D02*
X32513500Y-72822800D01*
X32513500Y-70742800D02*
X32513500Y-69204800D01*
X32473500Y-74358800D02*
X32473500Y-72822800D01*
X32473500Y-70742800D02*
X32473500Y-69206800D01*
X32433500Y-74355800D02*
X32433500Y-72822800D01*
X32433500Y-70742800D02*
X32433500Y-69209800D01*
X32393500Y-74351800D02*
X32393500Y-72822800D01*
X32393500Y-70742800D02*
X32393500Y-69213800D01*
X32353500Y-74347800D02*
X32353500Y-72822800D01*
X32353500Y-70742800D02*
X32353500Y-69217800D01*
X32313500Y-74343800D02*
X32313500Y-72822800D01*
X32313500Y-70742800D02*
X32313500Y-69221800D01*
X32273500Y-74338800D02*
X32273500Y-72822800D01*
X32273500Y-70742800D02*
X32273500Y-69226800D01*
X32233500Y-74332800D02*
X32233500Y-72822800D01*
X32233500Y-70742800D02*
X32233500Y-69232800D01*
X32193500Y-74325800D02*
X32193500Y-72822800D01*
X32193500Y-70742800D02*
X32193500Y-69239800D01*
X32153500Y-74318800D02*
X32153500Y-72822800D01*
X32153500Y-70742800D02*
X32153500Y-69246800D01*
X32113500Y-74310800D02*
X32113500Y-72822800D01*
X31512500Y-70742800D02*
X31512500Y-69453800D01*
X31472500Y-74092800D02*
X31472500Y-72822800D01*
X31472500Y-70742800D02*
X31472500Y-69472800D01*
X31432500Y-74072800D02*
X31432500Y-72822800D01*
X31432500Y-70742800D02*
X31432500Y-69492800D01*
X31392500Y-74050800D02*
X31392500Y-72822800D01*
X31392500Y-70742800D02*
X31392500Y-69514800D01*
X31352500Y-74029800D02*
X31352500Y-72822800D01*
X31352500Y-70742800D02*
X31352500Y-69535800D01*
X31312500Y-74006800D02*
X31312500Y-72822800D01*
X31312500Y-70742800D02*
X31312500Y-69558800D01*
X31272500Y-73982800D02*
X31272500Y-72822800D01*
X31272500Y-70742800D02*
X31272500Y-69582800D01*
X31232500Y-73957800D02*
X31232500Y-72822800D01*
X31232500Y-70742800D02*
X31232500Y-69607800D01*
X31192500Y-73931800D02*
X31192500Y-72822800D01*
X32593500Y-74362800D02*
X32593500Y-72822800D01*
X32553500Y-74361800D02*
X32553500Y-72822800D01*
X32553500Y-70742800D02*
X32553500Y-69203800D01*
X31192500Y-70742800D02*
X31192500Y-69633800D01*
X31152500Y-73904800D02*
X31152500Y-72822800D01*
X31152500Y-70742800D02*
X31152500Y-69660800D01*
X31112500Y-73877800D02*
X31112500Y-72822800D01*
X31112500Y-70742800D02*
X31112500Y-69687800D01*
X31072500Y-73847800D02*
X31072500Y-72822800D01*
X31072500Y-70742800D02*
X31072500Y-69717800D01*
X31032500Y-73817800D02*
X31032500Y-72822800D01*
X31032500Y-70742800D02*
X31032500Y-69747800D01*
X32633500Y-70742800D02*
X32633500Y-69202800D01*
X32113500Y-70742800D02*
X32113500Y-69254800D01*
X32073500Y-74302800D02*
X32073500Y-72822800D01*
X32073500Y-70742800D02*
X32073500Y-69262800D01*
X32033500Y-74293800D02*
X32033500Y-72822800D01*
X32033500Y-70742800D02*
X32033500Y-69271800D01*
X31993500Y-74283800D02*
X31993500Y-72822800D01*
X31993500Y-70742800D02*
X31993500Y-69281800D01*
X31953500Y-74273800D02*
X31953500Y-72822800D01*
X30992500Y-73786800D02*
X30992500Y-72822800D01*
X30992500Y-70742800D02*
X30992500Y-69778800D01*
X30952500Y-73753800D02*
X30952500Y-72822800D01*
X30952500Y-70742800D02*
X30952500Y-69811800D01*
X30912500Y-73719800D02*
X30912500Y-72822800D01*
X30912500Y-70742800D02*
X30912500Y-69845800D01*
X30872500Y-73683800D02*
X30872500Y-72822800D01*
X30872500Y-70742800D02*
X30872500Y-69881800D01*
X30832500Y-73646800D02*
X30832500Y-72822800D01*
X30832500Y-70742800D02*
X30832500Y-69918800D01*
X30792500Y-73608800D02*
X30792500Y-72822800D01*
X30792500Y-70742800D02*
X30792500Y-69956800D01*
X30752500Y-73567800D02*
X30752500Y-72822800D01*
X30752500Y-70742800D02*
X30752500Y-69997800D01*
X30712500Y-73525800D02*
X30712500Y-72822800D01*
X30712500Y-70742800D02*
X30712500Y-70039800D01*
X30672500Y-73481800D02*
X30672500Y-72822800D01*
X30672500Y-70742800D02*
X30672500Y-70083800D01*
X30632500Y-73435800D02*
X30632500Y-72822800D01*
X30632500Y-70742800D02*
X30632500Y-70129800D01*
X30592500Y-73387800D02*
X30592500Y-70177800D01*
X30552500Y-73336800D02*
X30552500Y-70228800D01*
X30512500Y-73282800D02*
X30512500Y-70282800D01*
X30472500Y-73225800D02*
X30472500Y-70339800D01*
X30432500Y-73165800D02*
X30432500Y-70399800D01*
X30392500Y-73101800D02*
X30392500Y-70463800D01*
X30352500Y-73033800D02*
X30352500Y-70531800D01*
X30312500Y-72960800D02*
X30312500Y-70604800D01*
X30272500Y-72880800D02*
X30272500Y-70684800D01*
X30232500Y-72793800D02*
X30232500Y-70771800D01*
X30192500Y-72697800D02*
X30192500Y-70867800D01*
X30152500Y-72587800D02*
X30152500Y-70977800D01*
X30112500Y-72459800D02*
X30112500Y-71105800D01*
X30072500Y-72300800D02*
X30072500Y-71264800D01*
X30032500Y-72066800D02*
X30032500Y-71498800D01*
X35819275Y-73384800D02*
X35319275Y-73384800D01*
X35569275Y-73634800D02*
X35569275Y-73134800D01*
X32593500Y-70742800D02*
X32593500Y-69202800D01*
X32633500Y-74362800D02*
X32633500Y-72822800D01*
X31953500Y-70742800D02*
X31953500Y-69291800D01*
X31912500Y-74262800D02*
X31912500Y-72822800D01*
X31912500Y-70742800D02*
X31912500Y-69302800D01*
X31872500Y-74250800D02*
X31872500Y-72822800D01*
X31872500Y-70742800D02*
X31872500Y-69314800D01*
X31832500Y-74237800D02*
X31832500Y-72822800D01*
X31832500Y-70742800D02*
X31832500Y-69327800D01*
X31792500Y-74224800D02*
X31792500Y-72822800D01*
X31792500Y-70742800D02*
X31792500Y-69340800D01*
X31752500Y-74210800D02*
X31752500Y-72822800D01*
X31752500Y-70742800D02*
X31752500Y-69354800D01*
X31712500Y-74196800D02*
X31712500Y-72822800D01*
X31712500Y-70742800D02*
X31712500Y-69368800D01*
X31672500Y-74180800D02*
X31672500Y-72822800D01*
X31672500Y-70742800D02*
X31672500Y-69384800D01*
X31632500Y-74164800D02*
X31632500Y-72822800D01*
X31632500Y-70742800D02*
X31632500Y-69400800D01*
X31592500Y-74147800D02*
X31592500Y-72822800D01*
X31592500Y-70742800D02*
X31592500Y-69417800D01*
X31552500Y-74130800D02*
X31552500Y-72822800D01*
X31552500Y-70742800D02*
X31552500Y-69434800D01*
X31512500Y-74111800D02*
X31512500Y-72822800D01*
X35533500Y-71782800D02*
G75*
G03X35533500Y-71782800I-2900000J0D01*
G01*
X39383500Y-71020800D02*
X39383500Y-69482800D01*
X39383500Y-67402800D02*
X39383500Y-65864800D01*
X39343500Y-71018800D02*
X39343500Y-69482800D01*
X39343500Y-67402800D02*
X39343500Y-65866800D01*
X39303500Y-71015800D02*
X39303500Y-69482800D01*
X39303500Y-67402800D02*
X39303500Y-65869800D01*
X39263500Y-71011800D02*
X39263500Y-69482800D01*
X39263500Y-67402800D02*
X39263500Y-65873800D01*
X39223500Y-71007800D02*
X39223500Y-69482800D01*
X39223500Y-67402800D02*
X39223500Y-65877800D01*
X39183500Y-71003800D02*
X39183500Y-69482800D01*
X39183500Y-67402800D02*
X39183500Y-65881800D01*
X39143500Y-70998800D02*
X39143500Y-69482800D01*
X39143500Y-67402800D02*
X39143500Y-65886800D01*
X39103500Y-70992800D02*
X39103500Y-69482800D01*
X39103500Y-67402800D02*
X39103500Y-65892800D01*
X39063500Y-70985800D02*
X39063500Y-69482800D01*
X39063500Y-67402800D02*
X39063500Y-65899800D01*
X39023500Y-70978800D02*
X39023500Y-69482800D01*
X39023500Y-67402800D02*
X39023500Y-65906800D01*
X38983500Y-70970800D02*
X38983500Y-69482800D01*
X38382500Y-67402800D02*
X38382500Y-66113800D01*
X38342500Y-70752800D02*
X38342500Y-69482800D01*
X38342500Y-67402800D02*
X38342500Y-66132800D01*
X38302500Y-70732800D02*
X38302500Y-69482800D01*
X38302500Y-67402800D02*
X38302500Y-66152800D01*
X38262500Y-70710800D02*
X38262500Y-69482800D01*
X38262500Y-67402800D02*
X38262500Y-66174800D01*
X38222500Y-70689800D02*
X38222500Y-69482800D01*
X38222500Y-67402800D02*
X38222500Y-66195800D01*
X38182500Y-70666800D02*
X38182500Y-69482800D01*
X38182500Y-67402800D02*
X38182500Y-66218800D01*
X38142500Y-70642800D02*
X38142500Y-69482800D01*
X38142500Y-67402800D02*
X38142500Y-66242800D01*
X38102500Y-70617800D02*
X38102500Y-69482800D01*
X38102500Y-67402800D02*
X38102500Y-66267800D01*
X38062500Y-70591800D02*
X38062500Y-69482800D01*
X39463500Y-71022800D02*
X39463500Y-69482800D01*
X39423500Y-71021800D02*
X39423500Y-69482800D01*
X39423500Y-67402800D02*
X39423500Y-65863800D01*
X38062500Y-67402800D02*
X38062500Y-66293800D01*
X38022500Y-70564800D02*
X38022500Y-69482800D01*
X38022500Y-67402800D02*
X38022500Y-66320800D01*
X37982500Y-70537800D02*
X37982500Y-69482800D01*
X37982500Y-67402800D02*
X37982500Y-66347800D01*
X37942500Y-70507800D02*
X37942500Y-69482800D01*
X37942500Y-67402800D02*
X37942500Y-66377800D01*
X37902500Y-70477800D02*
X37902500Y-69482800D01*
X37902500Y-67402800D02*
X37902500Y-66407800D01*
X39503500Y-67402800D02*
X39503500Y-65862800D01*
X38983500Y-67402800D02*
X38983500Y-65914800D01*
X38943500Y-70962800D02*
X38943500Y-69482800D01*
X38943500Y-67402800D02*
X38943500Y-65922800D01*
X38903500Y-70953800D02*
X38903500Y-69482800D01*
X38903500Y-67402800D02*
X38903500Y-65931800D01*
X38863500Y-70943800D02*
X38863500Y-69482800D01*
X38863500Y-67402800D02*
X38863500Y-65941800D01*
X38823500Y-70933800D02*
X38823500Y-69482800D01*
X37862500Y-70446800D02*
X37862500Y-69482800D01*
X37862500Y-67402800D02*
X37862500Y-66438800D01*
X37822500Y-70413800D02*
X37822500Y-69482800D01*
X37822500Y-67402800D02*
X37822500Y-66471800D01*
X37782500Y-70379800D02*
X37782500Y-69482800D01*
X37782500Y-67402800D02*
X37782500Y-66505800D01*
X37742500Y-70343800D02*
X37742500Y-69482800D01*
X37742500Y-67402800D02*
X37742500Y-66541800D01*
X37702500Y-70306800D02*
X37702500Y-69482800D01*
X37702500Y-67402800D02*
X37702500Y-66578800D01*
X37662500Y-70268800D02*
X37662500Y-69482800D01*
X37662500Y-67402800D02*
X37662500Y-66616800D01*
X37622500Y-70227800D02*
X37622500Y-69482800D01*
X37622500Y-67402800D02*
X37622500Y-66657800D01*
X37582500Y-70185800D02*
X37582500Y-69482800D01*
X37582500Y-67402800D02*
X37582500Y-66699800D01*
X37542500Y-70141800D02*
X37542500Y-69482800D01*
X37542500Y-67402800D02*
X37542500Y-66743800D01*
X37502500Y-70095800D02*
X37502500Y-69482800D01*
X37502500Y-67402800D02*
X37502500Y-66789800D01*
X37462500Y-70047800D02*
X37462500Y-66837800D01*
X37422500Y-69996800D02*
X37422500Y-66888800D01*
X37382500Y-69942800D02*
X37382500Y-66942800D01*
X37342500Y-69885800D02*
X37342500Y-66999800D01*
X37302500Y-69825800D02*
X37302500Y-67059800D01*
X37262500Y-69761800D02*
X37262500Y-67123800D01*
X37222500Y-69693800D02*
X37222500Y-67191800D01*
X37182500Y-69620800D02*
X37182500Y-67264800D01*
X37142500Y-69540800D02*
X37142500Y-67344800D01*
X37102500Y-69453800D02*
X37102500Y-67431800D01*
X37062500Y-69357800D02*
X37062500Y-67527800D01*
X37022500Y-69247800D02*
X37022500Y-67637800D01*
X36982500Y-69119800D02*
X36982500Y-67765800D01*
X36942500Y-68960800D02*
X36942500Y-67924800D01*
X36902500Y-68726800D02*
X36902500Y-68158800D01*
X42689275Y-70044800D02*
X42189275Y-70044800D01*
X42439275Y-70294800D02*
X42439275Y-69794800D01*
X39463500Y-67402800D02*
X39463500Y-65862800D01*
X39503500Y-71022800D02*
X39503500Y-69482800D01*
X38823500Y-67402800D02*
X38823500Y-65951800D01*
X38782500Y-70922800D02*
X38782500Y-69482800D01*
X38782500Y-67402800D02*
X38782500Y-65962800D01*
X38742500Y-70910800D02*
X38742500Y-69482800D01*
X38742500Y-67402800D02*
X38742500Y-65974800D01*
X38702500Y-70897800D02*
X38702500Y-69482800D01*
X38702500Y-67402800D02*
X38702500Y-65987800D01*
X38662500Y-70884800D02*
X38662500Y-69482800D01*
X38662500Y-67402800D02*
X38662500Y-66000800D01*
X38622500Y-70870800D02*
X38622500Y-69482800D01*
X38622500Y-67402800D02*
X38622500Y-66014800D01*
X38582500Y-70856800D02*
X38582500Y-69482800D01*
X38582500Y-67402800D02*
X38582500Y-66028800D01*
X38542500Y-70840800D02*
X38542500Y-69482800D01*
X38542500Y-67402800D02*
X38542500Y-66044800D01*
X38502500Y-70824800D02*
X38502500Y-69482800D01*
X38502500Y-67402800D02*
X38502500Y-66060800D01*
X38462500Y-70807800D02*
X38462500Y-69482800D01*
X38462500Y-67402800D02*
X38462500Y-66077800D01*
X38422500Y-70790800D02*
X38422500Y-69482800D01*
X38422500Y-67402800D02*
X38422500Y-66094800D01*
X38382500Y-70771800D02*
X38382500Y-69482800D01*
X42403500Y-68442800D02*
G75*
G03X42403500Y-68442800I-2900000J0D01*
G01*
X61848267Y-37747046D02*
X61961134Y-38057145D01*
X61961134Y-38057145D02*
X55815544Y-40293957D01*
X55815544Y-40293957D02*
X55702677Y-39983858D01*
X61136865Y-35792486D02*
X61023998Y-35482387D01*
X61023998Y-35482387D02*
X54878409Y-37719199D01*
X54878409Y-37719199D02*
X54991275Y-38029297D01*
X57341000Y-19125100D02*
X61659000Y-19125100D01*
X54708100Y-19418100D02*
X64448100Y-19418100D01*
X54708100Y-23708100D02*
X54708100Y-19418100D01*
X64448100Y-23708100D02*
X64448100Y-19418100D01*
X54708100Y-23708100D02*
X64448100Y-23708100D01*
X26762900Y-19125100D02*
X31080900Y-19125100D01*
X24130000Y-19418100D02*
X33870000Y-19418100D01*
X24130000Y-23708100D02*
X24130000Y-19418100D01*
X33870000Y-23708100D02*
X33870000Y-19418100D01*
X24130000Y-23708100D02*
X33870000Y-23708100D01*
X62082795Y-78828816D02*
G75*
G02X62810000Y-79353000I-1122795J-2324184D01*
G01*
X59861629Y-78797543D02*
G75*
G03X58610000Y-80043000I1098371J-2355457D01*
G01*
X59856158Y-83520199D02*
G75*
G02X58610000Y-82293000I1103842J2367199D01*
G01*
X62082795Y-83477184D02*
G75*
G03X62810000Y-82953000I-1122795J2324184D01*
G01*
X62810000Y-82953000D02*
X62810000Y-79353000D01*
X74101000Y-32646000D02*
X63821000Y-32646000D01*
X74101000Y-43046000D02*
X74101000Y-32646000D01*
X63821000Y-43046000D02*
X74101000Y-43046000D01*
X63821000Y-32646000D02*
X63821000Y-43046000D01*
X71611000Y-32706000D02*
X69961000Y-32706000D01*
X71611000Y-42986000D02*
X71611000Y-32706000D01*
X66311000Y-42986000D02*
X71611000Y-42986000D01*
X66311000Y-32706000D02*
X66311000Y-42986000D01*
X67961000Y-32706000D02*
X66311000Y-32706000D01*
X69961000Y-32706000D02*
G75*
G02X67961000Y-32706000I-1000000J0D01*
G01*
X28932000Y-32358000D02*
X28932000Y-29618000D01*
X36172000Y-32358000D02*
X36172000Y-29618000D01*
X36172000Y-29618000D02*
X28932000Y-29618000D01*
X36172000Y-32358000D02*
X28932000Y-32358000D01*
X65508000Y-46201000D02*
X65508000Y-43461000D01*
X72748000Y-46201000D02*
X72748000Y-43461000D01*
X72748000Y-43461000D02*
X65508000Y-43461000D01*
X72748000Y-46201000D02*
X65508000Y-46201000D01*
X72748000Y-32104000D02*
X65508000Y-32104000D01*
X72748000Y-29364000D02*
X65508000Y-29364000D01*
X72748000Y-32104000D02*
X72748000Y-29364000D01*
X65508000Y-32104000D02*
X65508000Y-29364000D01*
X36426000Y-46455000D02*
X29186000Y-46455000D01*
X36426000Y-43715000D02*
X29186000Y-43715000D01*
X36426000Y-46455000D02*
X36426000Y-43715000D01*
X29186000Y-46455000D02*
X29186000Y-43715000D01*
X61392112Y-48494559D02*
X68195486Y-50970784D01*
X60454977Y-51069316D02*
X67258351Y-53545542D01*
X61392112Y-48494559D02*
X60454977Y-51069316D01*
X68195486Y-50970784D02*
X67258351Y-53545542D01*
X58574000Y-65889000D02*
X61314000Y-65889000D01*
X58574000Y-73129000D02*
X61314000Y-73129000D01*
X61314000Y-73129000D02*
X61314000Y-65889000D01*
X58574000Y-73129000D02*
X58574000Y-65889000D01*
X66063000Y-75338000D02*
X73303000Y-75338000D01*
X66063000Y-78078000D02*
X73303000Y-78078000D01*
X66063000Y-75338000D02*
X66063000Y-78078000D01*
X73303000Y-75338000D02*
X73303000Y-78078000D01*
X18828000Y-35714000D02*
X18828000Y-36044000D01*
X25368000Y-35714000D02*
X18828000Y-35714000D01*
X25368000Y-36044000D02*
X25368000Y-35714000D01*
X18828000Y-38454000D02*
X18828000Y-38124000D01*
X25368000Y-38454000D02*
X18828000Y-38454000D01*
X25368000Y-38124000D02*
X25368000Y-38454000D01*
X25368000Y-41299000D02*
X25368000Y-41629000D01*
X25368000Y-41629000D02*
X18828000Y-41629000D01*
X18828000Y-41629000D02*
X18828000Y-41299000D01*
X25368000Y-39219000D02*
X25368000Y-38889000D01*
X25368000Y-38889000D02*
X18828000Y-38889000D01*
X18828000Y-38889000D02*
X18828000Y-39219000D01*
X18828000Y-42064000D02*
X18828000Y-42394000D01*
X25368000Y-42064000D02*
X18828000Y-42064000D01*
X25368000Y-42394000D02*
X25368000Y-42064000D01*
X18828000Y-44804000D02*
X18828000Y-44474000D01*
X25368000Y-44804000D02*
X18828000Y-44804000D01*
X25368000Y-44474000D02*
X25368000Y-44804000D01*
X71342000Y-84098000D02*
X71342000Y-84428000D01*
X71342000Y-84428000D02*
X64802000Y-84428000D01*
X64802000Y-84428000D02*
X64802000Y-84098000D01*
X71342000Y-82018000D02*
X71342000Y-81688000D01*
X71342000Y-81688000D02*
X64802000Y-81688000D01*
X64802000Y-81688000D02*
X64802000Y-82018000D01*
X56539000Y-74200000D02*
X56869000Y-74200000D01*
X56869000Y-74200000D02*
X56869000Y-80740000D01*
X56869000Y-80740000D02*
X56539000Y-80740000D01*
X54459000Y-74200000D02*
X54129000Y-74200000D01*
X54129000Y-74200000D02*
X54129000Y-80740000D01*
X54129000Y-80740000D02*
X54459000Y-80740000D01*
X36036000Y-49300000D02*
X36036000Y-49630000D01*
X36036000Y-49630000D02*
X29496000Y-49630000D01*
X29496000Y-49630000D02*
X29496000Y-49300000D01*
X36036000Y-47220000D02*
X36036000Y-46890000D01*
X36036000Y-46890000D02*
X29496000Y-46890000D01*
X29496000Y-46890000D02*
X29496000Y-47220000D01*
X46069000Y-40410000D02*
X46069000Y-40740000D01*
X46069000Y-40740000D02*
X39529000Y-40740000D01*
X39529000Y-40740000D02*
X39529000Y-40410000D01*
X46069000Y-38330000D02*
X46069000Y-38000000D01*
X46069000Y-38000000D02*
X39529000Y-38000000D01*
X39529000Y-38000000D02*
X39529000Y-38330000D01*
X39529000Y-41175000D02*
X39529000Y-41505000D01*
X46069000Y-41175000D02*
X39529000Y-41175000D01*
X46069000Y-41505000D02*
X46069000Y-41175000D01*
X39529000Y-43915000D02*
X39529000Y-43585000D01*
X46069000Y-43915000D02*
X39529000Y-43915000D01*
X46069000Y-43585000D02*
X46069000Y-43915000D01*
X71215000Y-80923000D02*
X71215000Y-81253000D01*
X71215000Y-81253000D02*
X64675000Y-81253000D01*
X64675000Y-81253000D02*
X64675000Y-80923000D01*
X71215000Y-78843000D02*
X71215000Y-78513000D01*
X71215000Y-78513000D02*
X64675000Y-78513000D01*
X64675000Y-78513000D02*
X64675000Y-78843000D01*
X46069000Y-47090000D02*
X46069000Y-46760000D01*
X39529000Y-47090000D02*
X46069000Y-47090000D01*
X39529000Y-46760000D02*
X39529000Y-47090000D01*
X46069000Y-44350000D02*
X46069000Y-44680000D01*
X39529000Y-44350000D02*
X46069000Y-44350000D01*
X39529000Y-44680000D02*
X39529000Y-44350000D01*
X46069000Y-34060000D02*
X46069000Y-34390000D01*
X46069000Y-34390000D02*
X39529000Y-34390000D01*
X39529000Y-34390000D02*
X39529000Y-34060000D01*
X46069000Y-31980000D02*
X46069000Y-31650000D01*
X46069000Y-31650000D02*
X39529000Y-31650000D01*
X39529000Y-31650000D02*
X39529000Y-31980000D01*
X39529000Y-34825000D02*
X39529000Y-35155000D01*
X46069000Y-34825000D02*
X39529000Y-34825000D01*
X46069000Y-35155000D02*
X46069000Y-34825000D01*
X39529000Y-37565000D02*
X39529000Y-37235000D01*
X46069000Y-37565000D02*
X39529000Y-37565000D01*
X46069000Y-37235000D02*
X46069000Y-37565000D01*
X61749000Y-75914000D02*
X62079000Y-75914000D01*
X61749000Y-69374000D02*
X61749000Y-75914000D01*
X62079000Y-69374000D02*
X61749000Y-69374000D01*
X64489000Y-75914000D02*
X64159000Y-75914000D01*
X64489000Y-69374000D02*
X64489000Y-75914000D01*
X64159000Y-69374000D02*
X64489000Y-69374000D01*
X82518000Y-40486000D02*
X82518000Y-40156000D01*
X75978000Y-40486000D02*
X82518000Y-40486000D01*
X75978000Y-40156000D02*
X75978000Y-40486000D01*
X82518000Y-37746000D02*
X82518000Y-38076000D01*
X75978000Y-37746000D02*
X82518000Y-37746000D01*
X75978000Y-38076000D02*
X75978000Y-37746000D01*
X60764229Y-33248534D02*
X60877096Y-32938435D01*
X54618639Y-31011722D02*
X60764229Y-33248534D01*
X54731506Y-30701623D02*
X54618639Y-31011722D01*
X61701364Y-30673776D02*
X61588498Y-30983874D01*
X55555775Y-28436964D02*
X61701364Y-30673776D01*
X55442908Y-28747063D02*
X55555775Y-28436964D01*
X82518000Y-36981000D02*
X82518000Y-37311000D01*
X82518000Y-37311000D02*
X75978000Y-37311000D01*
X75978000Y-37311000D02*
X75978000Y-36981000D01*
X82518000Y-34901000D02*
X82518000Y-34571000D01*
X82518000Y-34571000D02*
X75978000Y-34571000D01*
X75978000Y-34571000D02*
X75978000Y-34901000D01*
X35774000Y-73438000D02*
X46014000Y-73438000D01*
X35774000Y-78079000D02*
X46014000Y-78079000D01*
X35774000Y-73438000D02*
X35774000Y-78079000D01*
X46014000Y-73438000D02*
X46014000Y-78079000D01*
X35774000Y-74948000D02*
X46014000Y-74948000D01*
X39044000Y-73438000D02*
X39044000Y-74948000D01*
X42745000Y-73438000D02*
X42745000Y-74948000D01*
X33512000Y-32960000D02*
G75*
G02X31512000Y-32960000I-1000000J0D01*
G01*
X31512000Y-32960000D02*
X29862000Y-32960000D01*
X29862000Y-32960000D02*
X29862000Y-43240000D01*
X29862000Y-43240000D02*
X35162000Y-43240000D01*
X35162000Y-43240000D02*
X35162000Y-32960000D01*
X35162000Y-32960000D02*
X33512000Y-32960000D01*
X27372000Y-32900000D02*
X27372000Y-43300000D01*
X27372000Y-43300000D02*
X37652000Y-43300000D01*
X37652000Y-43300000D02*
X37652000Y-32900000D01*
X37652000Y-32900000D02*
X27372000Y-32900000D01*
X71231000Y-54423000D02*
G75*
G02X69231000Y-54423000I-1000000J0D01*
G01*
X69231000Y-54423000D02*
X67581000Y-54423000D01*
X67581000Y-54423000D02*
X67581000Y-74863000D01*
X67581000Y-74863000D02*
X72881000Y-74863000D01*
X72881000Y-74863000D02*
X72881000Y-54423000D01*
X72881000Y-54423000D02*
X71231000Y-54423000D01*
X65091000Y-54363000D02*
X65091000Y-74923000D01*
X65091000Y-74923000D02*
X75371000Y-74923000D01*
X75371000Y-74923000D02*
X75371000Y-54363000D01*
X75371000Y-54363000D02*
X65091000Y-54363000D01*
D11*
X44026666Y-78382380D02*
X43693333Y-77906190D01*
X43455238Y-78382380D02*
X43455238Y-77382380D01*
X43836190Y-77382380D01*
X43931428Y-77430000D01*
X43979047Y-77477619D01*
X44026666Y-77572857D01*
X44026666Y-77715714D01*
X43979047Y-77810952D01*
X43931428Y-77858571D01*
X43836190Y-77906190D01*
X43455238Y-77906190D01*
X44455238Y-77858571D02*
X44788571Y-77858571D01*
X44931428Y-78382380D02*
X44455238Y-78382380D01*
X44455238Y-77382380D01*
X44931428Y-77382380D01*
X45693333Y-77858571D02*
X45360000Y-77858571D01*
X45360000Y-78382380D02*
X45360000Y-77382380D01*
X45836190Y-77382380D01*
X46360000Y-77382380D02*
X46360000Y-77620476D01*
X46121904Y-77525238D02*
X46360000Y-77620476D01*
X46598095Y-77525238D01*
X46217142Y-77810952D02*
X46360000Y-77620476D01*
X46502857Y-77810952D01*
X47121904Y-77382380D02*
X47121904Y-77620476D01*
X46883809Y-77525238D02*
X47121904Y-77620476D01*
X47360000Y-77525238D01*
X46979047Y-77810952D02*
X47121904Y-77620476D01*
X47264761Y-77810952D01*
X33286666Y-78152380D02*
X32953333Y-77676190D01*
X32715238Y-78152380D02*
X32715238Y-77152380D01*
X33096190Y-77152380D01*
X33191428Y-77200000D01*
X33239047Y-77247619D01*
X33286666Y-77342857D01*
X33286666Y-77485714D01*
X33239047Y-77580952D01*
X33191428Y-77628571D01*
X33096190Y-77676190D01*
X32715238Y-77676190D01*
X33715238Y-77628571D02*
X34048571Y-77628571D01*
X34191428Y-78152380D02*
X33715238Y-78152380D01*
X33715238Y-77152380D01*
X34191428Y-77152380D01*
X34953333Y-77628571D02*
X34620000Y-77628571D01*
X34620000Y-78152380D02*
X34620000Y-77152380D01*
X35096190Y-77152380D01*
X35620000Y-77152380D02*
X35620000Y-77390476D01*
X35381904Y-77295238D02*
X35620000Y-77390476D01*
X35858095Y-77295238D01*
X35477142Y-77580952D02*
X35620000Y-77390476D01*
X35762857Y-77580952D01*
X36381904Y-77152380D02*
X36381904Y-77390476D01*
X36143809Y-77295238D02*
X36381904Y-77390476D01*
X36620000Y-77295238D01*
X36239047Y-77580952D02*
X36381904Y-77390476D01*
X36524761Y-77580952D01*
X55078822Y-60100781D02*
X55084692Y-60167868D01*
X55029343Y-60307912D01*
X54968125Y-60380868D01*
X54839820Y-60459694D01*
X54705646Y-60471433D01*
X54602080Y-60446694D01*
X54425558Y-60360736D01*
X54316123Y-60268909D01*
X54200819Y-60109995D01*
X54158471Y-60012299D01*
X54146732Y-59878125D01*
X54202081Y-59738081D01*
X54263299Y-59665124D01*
X54391604Y-59586298D01*
X54458691Y-59580429D01*
X55763957Y-59432432D02*
X55396650Y-59870172D01*
X55580304Y-59651302D02*
X54814259Y-59008515D01*
X54862476Y-59173298D01*
X54874215Y-59307473D01*
X54849476Y-59411038D01*
X55315741Y-58559036D02*
X55309872Y-58491949D01*
X55334611Y-58388383D01*
X55487656Y-58205992D01*
X55585352Y-58163644D01*
X55652439Y-58157775D01*
X55756005Y-58182514D01*
X55828962Y-58243732D01*
X55907788Y-58372037D01*
X55978220Y-59177084D01*
X56376136Y-58702866D01*
X54512154Y-54706483D02*
X54550780Y-54761648D01*
X54572869Y-54910604D01*
X54556331Y-55004395D01*
X54484629Y-55136813D01*
X54374299Y-55214066D01*
X54272239Y-55244424D01*
X54076388Y-55258244D01*
X53935701Y-55233437D01*
X53756388Y-55153465D01*
X53670865Y-55090032D01*
X53593612Y-54979703D01*
X53571523Y-54830747D01*
X53588061Y-54736956D01*
X53659764Y-54604538D01*
X53714928Y-54565911D01*
X54771324Y-53785109D02*
X54672096Y-54347856D01*
X54721710Y-54066483D02*
X53736902Y-53892835D01*
X53861051Y-54011433D01*
X53938305Y-54121762D01*
X53968662Y-54223822D01*
X53894013Y-53001818D02*
X53910551Y-52908027D01*
X53973984Y-52822505D01*
X54029149Y-52783878D01*
X54131209Y-52753520D01*
X54327060Y-52739701D01*
X54561538Y-52781045D01*
X54740852Y-52861017D01*
X54826374Y-52924450D01*
X54865001Y-52979615D01*
X54895358Y-53081675D01*
X54878821Y-53175466D01*
X54815387Y-53260989D01*
X54760222Y-53299615D01*
X54658162Y-53329973D01*
X54462311Y-53343793D01*
X54227833Y-53302448D01*
X54048519Y-53222476D01*
X53962997Y-53159043D01*
X53924370Y-53103878D01*
X53894013Y-53001818D01*
X50680933Y-64715542D02*
X50633314Y-64763161D01*
X50490457Y-64810780D01*
X50395219Y-64810780D01*
X50252361Y-64763161D01*
X50157123Y-64667923D01*
X50109504Y-64572685D01*
X50061885Y-64382209D01*
X50061885Y-64239352D01*
X50109504Y-64048876D01*
X50157123Y-63953638D01*
X50252361Y-63858400D01*
X50395219Y-63810780D01*
X50490457Y-63810780D01*
X50633314Y-63858400D01*
X50680933Y-63906019D01*
X51538076Y-63810780D02*
X51347600Y-63810780D01*
X51252361Y-63858400D01*
X51204742Y-63906019D01*
X51109504Y-64048876D01*
X51061885Y-64239352D01*
X51061885Y-64620304D01*
X51109504Y-64715542D01*
X51157123Y-64763161D01*
X51252361Y-64810780D01*
X51442838Y-64810780D01*
X51538076Y-64763161D01*
X51585695Y-64715542D01*
X51633314Y-64620304D01*
X51633314Y-64382209D01*
X51585695Y-64286971D01*
X51538076Y-64239352D01*
X51442838Y-64191733D01*
X51252361Y-64191733D01*
X51157123Y-64239352D01*
X51109504Y-64286971D01*
X51061885Y-64382209D01*
X31980933Y-68685542D02*
X31933314Y-68733161D01*
X31790457Y-68780780D01*
X31695219Y-68780780D01*
X31552361Y-68733161D01*
X31457123Y-68637923D01*
X31409504Y-68542685D01*
X31361885Y-68352209D01*
X31361885Y-68209352D01*
X31409504Y-68018876D01*
X31457123Y-67923638D01*
X31552361Y-67828400D01*
X31695219Y-67780780D01*
X31790457Y-67780780D01*
X31933314Y-67828400D01*
X31980933Y-67876019D01*
X32314266Y-67780780D02*
X32933314Y-67780780D01*
X32599980Y-68161733D01*
X32742838Y-68161733D01*
X32838076Y-68209352D01*
X32885695Y-68256971D01*
X32933314Y-68352209D01*
X32933314Y-68590304D01*
X32885695Y-68685542D01*
X32838076Y-68733161D01*
X32742838Y-68780780D01*
X32457123Y-68780780D01*
X32361885Y-68733161D01*
X32314266Y-68685542D01*
X38850933Y-65345542D02*
X38803314Y-65393161D01*
X38660457Y-65440780D01*
X38565219Y-65440780D01*
X38422361Y-65393161D01*
X38327123Y-65297923D01*
X38279504Y-65202685D01*
X38231885Y-65012209D01*
X38231885Y-64869352D01*
X38279504Y-64678876D01*
X38327123Y-64583638D01*
X38422361Y-64488400D01*
X38565219Y-64440780D01*
X38660457Y-64440780D01*
X38803314Y-64488400D01*
X38850933Y-64536019D01*
X39803314Y-65440780D02*
X39231885Y-65440780D01*
X39517600Y-65440780D02*
X39517600Y-64440780D01*
X39422361Y-64583638D01*
X39327123Y-64678876D01*
X39231885Y-64726495D01*
X20666666Y-64952380D02*
X20333333Y-64476190D01*
X20095238Y-64952380D02*
X20095238Y-63952380D01*
X20476190Y-63952380D01*
X20571428Y-64000000D01*
X20619047Y-64047619D01*
X20666666Y-64142857D01*
X20666666Y-64285714D01*
X20619047Y-64380952D01*
X20571428Y-64428571D01*
X20476190Y-64476190D01*
X20095238Y-64476190D01*
X21095238Y-64428571D02*
X21428571Y-64428571D01*
X21571428Y-64952380D02*
X21095238Y-64952380D01*
X21095238Y-63952380D01*
X21571428Y-63952380D01*
X22333333Y-64428571D02*
X22000000Y-64428571D01*
X22000000Y-64952380D02*
X22000000Y-63952380D01*
X22476190Y-63952380D01*
X23000000Y-63952380D02*
X23000000Y-64190476D01*
X22761904Y-64095238D02*
X23000000Y-64190476D01*
X23238095Y-64095238D01*
X22857142Y-64380952D02*
X23000000Y-64190476D01*
X23142857Y-64380952D01*
X23761904Y-63952380D02*
X23761904Y-64190476D01*
X23523809Y-64095238D02*
X23761904Y-64190476D01*
X24000000Y-64095238D01*
X23619047Y-64380952D02*
X23761904Y-64190476D01*
X23904761Y-64380952D01*
X79166666Y-64952380D02*
X78833333Y-64476190D01*
X78595238Y-64952380D02*
X78595238Y-63952380D01*
X78976190Y-63952380D01*
X79071428Y-64000000D01*
X79119047Y-64047619D01*
X79166666Y-64142857D01*
X79166666Y-64285714D01*
X79119047Y-64380952D01*
X79071428Y-64428571D01*
X78976190Y-64476190D01*
X78595238Y-64476190D01*
X79595238Y-64428571D02*
X79928571Y-64428571D01*
X80071428Y-64952380D02*
X79595238Y-64952380D01*
X79595238Y-63952380D01*
X80071428Y-63952380D01*
X80833333Y-64428571D02*
X80500000Y-64428571D01*
X80500000Y-64952380D02*
X80500000Y-63952380D01*
X80976190Y-63952380D01*
X81500000Y-63952380D02*
X81500000Y-64190476D01*
X81261904Y-64095238D02*
X81500000Y-64190476D01*
X81738095Y-64095238D01*
X81357142Y-64380952D02*
X81500000Y-64190476D01*
X81642857Y-64380952D01*
X82261904Y-63952380D02*
X82261904Y-64190476D01*
X82023809Y-64095238D02*
X82261904Y-64190476D01*
X82500000Y-64095238D01*
X82119047Y-64380952D02*
X82261904Y-64190476D01*
X82404761Y-64380952D01*
X48166666Y-46142380D02*
X47833333Y-45666190D01*
X47595238Y-46142380D02*
X47595238Y-45142380D01*
X47976190Y-45142380D01*
X48071428Y-45190000D01*
X48119047Y-45237619D01*
X48166666Y-45332857D01*
X48166666Y-45475714D01*
X48119047Y-45570952D01*
X48071428Y-45618571D01*
X47976190Y-45666190D01*
X47595238Y-45666190D01*
X48595238Y-45618571D02*
X48928571Y-45618571D01*
X49071428Y-46142380D02*
X48595238Y-46142380D01*
X48595238Y-45142380D01*
X49071428Y-45142380D01*
X49833333Y-45618571D02*
X49500000Y-45618571D01*
X49500000Y-46142380D02*
X49500000Y-45142380D01*
X49976190Y-45142380D01*
X50500000Y-45142380D02*
X50500000Y-45380476D01*
X50261904Y-45285238D02*
X50500000Y-45380476D01*
X50738095Y-45285238D01*
X50357142Y-45570952D02*
X50500000Y-45380476D01*
X50642857Y-45570952D01*
X51261904Y-45142380D02*
X51261904Y-45380476D01*
X51023809Y-45285238D02*
X51261904Y-45380476D01*
X51500000Y-45285238D01*
X51119047Y-45570952D02*
X51261904Y-45380476D01*
X51404761Y-45570952D01*
X51166666Y-18142380D02*
X50833333Y-17666190D01*
X50595238Y-18142380D02*
X50595238Y-17142380D01*
X50976190Y-17142380D01*
X51071428Y-17190000D01*
X51119047Y-17237619D01*
X51166666Y-17332857D01*
X51166666Y-17475714D01*
X51119047Y-17570952D01*
X51071428Y-17618571D01*
X50976190Y-17666190D01*
X50595238Y-17666190D01*
X51595238Y-17618571D02*
X51928571Y-17618571D01*
X52071428Y-18142380D02*
X51595238Y-18142380D01*
X51595238Y-17142380D01*
X52071428Y-17142380D01*
X52833333Y-17618571D02*
X52500000Y-17618571D01*
X52500000Y-18142380D02*
X52500000Y-17142380D01*
X52976190Y-17142380D01*
X53500000Y-17142380D02*
X53500000Y-17380476D01*
X53261904Y-17285238D02*
X53500000Y-17380476D01*
X53738095Y-17285238D01*
X53357142Y-17570952D02*
X53500000Y-17380476D01*
X53642857Y-17570952D01*
X54261904Y-17142380D02*
X54261904Y-17380476D01*
X54023809Y-17285238D02*
X54261904Y-17380476D01*
X54500000Y-17285238D01*
X54119047Y-17570952D02*
X54261904Y-17380476D01*
X54404761Y-17570952D01*
X67166666Y-19642380D02*
X66833333Y-19166190D01*
X66595238Y-19642380D02*
X66595238Y-18642380D01*
X66976190Y-18642380D01*
X67071428Y-18690000D01*
X67119047Y-18737619D01*
X67166666Y-18832857D01*
X67166666Y-18975714D01*
X67119047Y-19070952D01*
X67071428Y-19118571D01*
X66976190Y-19166190D01*
X66595238Y-19166190D01*
X67595238Y-19118571D02*
X67928571Y-19118571D01*
X68071428Y-19642380D02*
X67595238Y-19642380D01*
X67595238Y-18642380D01*
X68071428Y-18642380D01*
X68833333Y-19118571D02*
X68500000Y-19118571D01*
X68500000Y-19642380D02*
X68500000Y-18642380D01*
X68976190Y-18642380D01*
X69500000Y-18642380D02*
X69500000Y-18880476D01*
X69261904Y-18785238D02*
X69500000Y-18880476D01*
X69738095Y-18785238D01*
X69357142Y-19070952D02*
X69500000Y-18880476D01*
X69642857Y-19070952D01*
X70261904Y-18642380D02*
X70261904Y-18880476D01*
X70023809Y-18785238D02*
X70261904Y-18880476D01*
X70500000Y-18785238D01*
X70119047Y-19070952D02*
X70261904Y-18880476D01*
X70404761Y-19070952D01*
X45666666Y-25142380D02*
X45333333Y-24666190D01*
X45095238Y-25142380D02*
X45095238Y-24142380D01*
X45476190Y-24142380D01*
X45571428Y-24190000D01*
X45619047Y-24237619D01*
X45666666Y-24332857D01*
X45666666Y-24475714D01*
X45619047Y-24570952D01*
X45571428Y-24618571D01*
X45476190Y-24666190D01*
X45095238Y-24666190D01*
X46095238Y-24618571D02*
X46428571Y-24618571D01*
X46571428Y-25142380D02*
X46095238Y-25142380D01*
X46095238Y-24142380D01*
X46571428Y-24142380D01*
X47333333Y-24618571D02*
X47000000Y-24618571D01*
X47000000Y-25142380D02*
X47000000Y-24142380D01*
X47476190Y-24142380D01*
X48000000Y-24142380D02*
X48000000Y-24380476D01*
X47761904Y-24285238D02*
X48000000Y-24380476D01*
X48238095Y-24285238D01*
X47857142Y-24570952D02*
X48000000Y-24380476D01*
X48142857Y-24570952D01*
X48761904Y-24142380D02*
X48761904Y-24380476D01*
X48523809Y-24285238D02*
X48761904Y-24380476D01*
X49000000Y-24285238D01*
X48619047Y-24570952D02*
X48761904Y-24380476D01*
X48904761Y-24570952D01*
X43666666Y-52142380D02*
X43333333Y-51666190D01*
X43095238Y-52142380D02*
X43095238Y-51142380D01*
X43476190Y-51142380D01*
X43571428Y-51190000D01*
X43619047Y-51237619D01*
X43666666Y-51332857D01*
X43666666Y-51475714D01*
X43619047Y-51570952D01*
X43571428Y-51618571D01*
X43476190Y-51666190D01*
X43095238Y-51666190D01*
X44095238Y-51618571D02*
X44428571Y-51618571D01*
X44571428Y-52142380D02*
X44095238Y-52142380D01*
X44095238Y-51142380D01*
X44571428Y-51142380D01*
X45333333Y-51618571D02*
X45000000Y-51618571D01*
X45000000Y-52142380D02*
X45000000Y-51142380D01*
X45476190Y-51142380D01*
X46000000Y-51142380D02*
X46000000Y-51380476D01*
X45761904Y-51285238D02*
X46000000Y-51380476D01*
X46238095Y-51285238D01*
X45857142Y-51570952D02*
X46000000Y-51380476D01*
X46142857Y-51570952D01*
X46761904Y-51142380D02*
X46761904Y-51380476D01*
X46523809Y-51285238D02*
X46761904Y-51380476D01*
X47000000Y-51285238D01*
X46619047Y-51570952D02*
X46761904Y-51380476D01*
X46904761Y-51570952D01*
X40166666Y-25142380D02*
X39833333Y-24666190D01*
X39595238Y-25142380D02*
X39595238Y-24142380D01*
X39976190Y-24142380D01*
X40071428Y-24190000D01*
X40119047Y-24237619D01*
X40166666Y-24332857D01*
X40166666Y-24475714D01*
X40119047Y-24570952D01*
X40071428Y-24618571D01*
X39976190Y-24666190D01*
X39595238Y-24666190D01*
X40595238Y-24618571D02*
X40928571Y-24618571D01*
X41071428Y-25142380D02*
X40595238Y-25142380D01*
X40595238Y-24142380D01*
X41071428Y-24142380D01*
X41833333Y-24618571D02*
X41500000Y-24618571D01*
X41500000Y-25142380D02*
X41500000Y-24142380D01*
X41976190Y-24142380D01*
X42500000Y-24142380D02*
X42500000Y-24380476D01*
X42261904Y-24285238D02*
X42500000Y-24380476D01*
X42738095Y-24285238D01*
X42357142Y-24570952D02*
X42500000Y-24380476D01*
X42642857Y-24570952D01*
X43261904Y-24142380D02*
X43261904Y-24380476D01*
X43023809Y-24285238D02*
X43261904Y-24380476D01*
X43500000Y-24285238D01*
X43119047Y-24570952D02*
X43261904Y-24380476D01*
X43404761Y-24570952D01*
X29666666Y-22642380D02*
X29333333Y-22166190D01*
X29095238Y-22642380D02*
X29095238Y-21642380D01*
X29476190Y-21642380D01*
X29571428Y-21690000D01*
X29619047Y-21737619D01*
X29666666Y-21832857D01*
X29666666Y-21975714D01*
X29619047Y-22070952D01*
X29571428Y-22118571D01*
X29476190Y-22166190D01*
X29095238Y-22166190D01*
X30095238Y-22118571D02*
X30428571Y-22118571D01*
X30571428Y-22642380D02*
X30095238Y-22642380D01*
X30095238Y-21642380D01*
X30571428Y-21642380D01*
X31333333Y-22118571D02*
X31000000Y-22118571D01*
X31000000Y-22642380D02*
X31000000Y-21642380D01*
X31476190Y-21642380D01*
X32000000Y-21642380D02*
X32000000Y-21880476D01*
X31761904Y-21785238D02*
X32000000Y-21880476D01*
X32238095Y-21785238D01*
X31857142Y-22070952D02*
X32000000Y-21880476D01*
X32142857Y-22070952D01*
X32761904Y-21642380D02*
X32761904Y-21880476D01*
X32523809Y-21785238D02*
X32761904Y-21880476D01*
X33000000Y-21785238D01*
X32619047Y-22070952D02*
X32761904Y-21880476D01*
X32904761Y-22070952D01*
X20666666Y-24142380D02*
X20333333Y-23666190D01*
X20095238Y-24142380D02*
X20095238Y-23142380D01*
X20476190Y-23142380D01*
X20571428Y-23190000D01*
X20619047Y-23237619D01*
X20666666Y-23332857D01*
X20666666Y-23475714D01*
X20619047Y-23570952D01*
X20571428Y-23618571D01*
X20476190Y-23666190D01*
X20095238Y-23666190D01*
X21095238Y-23618571D02*
X21428571Y-23618571D01*
X21571428Y-24142380D02*
X21095238Y-24142380D01*
X21095238Y-23142380D01*
X21571428Y-23142380D01*
X22333333Y-23618571D02*
X22000000Y-23618571D01*
X22000000Y-24142380D02*
X22000000Y-23142380D01*
X22476190Y-23142380D01*
X23000000Y-23142380D02*
X23000000Y-23380476D01*
X22761904Y-23285238D02*
X23000000Y-23380476D01*
X23238095Y-23285238D01*
X22857142Y-23570952D02*
X23000000Y-23380476D01*
X23142857Y-23570952D01*
X23761904Y-23142380D02*
X23761904Y-23380476D01*
X23523809Y-23285238D02*
X23761904Y-23380476D01*
X24000000Y-23285238D01*
X23619047Y-23570952D02*
X23761904Y-23380476D01*
X23904761Y-23570952D01*
X51666666Y-42142380D02*
X51333333Y-41666190D01*
X51095238Y-42142380D02*
X51095238Y-41142380D01*
X51476190Y-41142380D01*
X51571428Y-41190000D01*
X51619047Y-41237619D01*
X51666666Y-41332857D01*
X51666666Y-41475714D01*
X51619047Y-41570952D01*
X51571428Y-41618571D01*
X51476190Y-41666190D01*
X51095238Y-41666190D01*
X52095238Y-41618571D02*
X52428571Y-41618571D01*
X52571428Y-42142380D02*
X52095238Y-42142380D01*
X52095238Y-41142380D01*
X52571428Y-41142380D01*
X53333333Y-41618571D02*
X53000000Y-41618571D01*
X53000000Y-42142380D02*
X53000000Y-41142380D01*
X53476190Y-41142380D01*
X54000000Y-41142380D02*
X54000000Y-41380476D01*
X53761904Y-41285238D02*
X54000000Y-41380476D01*
X54238095Y-41285238D01*
X53857142Y-41570952D02*
X54000000Y-41380476D01*
X54142857Y-41570952D01*
X54761904Y-41142380D02*
X54761904Y-41380476D01*
X54523809Y-41285238D02*
X54761904Y-41380476D01*
X55000000Y-41285238D01*
X54619047Y-41570952D02*
X54761904Y-41380476D01*
X54904761Y-41570952D01*
X74666666Y-44642380D02*
X74333333Y-44166190D01*
X74095238Y-44642380D02*
X74095238Y-43642380D01*
X74476190Y-43642380D01*
X74571428Y-43690000D01*
X74619047Y-43737619D01*
X74666666Y-43832857D01*
X74666666Y-43975714D01*
X74619047Y-44070952D01*
X74571428Y-44118571D01*
X74476190Y-44166190D01*
X74095238Y-44166190D01*
X75095238Y-44118571D02*
X75428571Y-44118571D01*
X75571428Y-44642380D02*
X75095238Y-44642380D01*
X75095238Y-43642380D01*
X75571428Y-43642380D01*
X76333333Y-44118571D02*
X76000000Y-44118571D01*
X76000000Y-44642380D02*
X76000000Y-43642380D01*
X76476190Y-43642380D01*
X77000000Y-43642380D02*
X77000000Y-43880476D01*
X76761904Y-43785238D02*
X77000000Y-43880476D01*
X77238095Y-43785238D01*
X76857142Y-44070952D02*
X77000000Y-43880476D01*
X77142857Y-44070952D01*
X77761904Y-43642380D02*
X77761904Y-43880476D01*
X77523809Y-43785238D02*
X77761904Y-43880476D01*
X78000000Y-43785238D01*
X77619047Y-44070952D02*
X77761904Y-43880476D01*
X77904761Y-44070952D01*
X36166666Y-50642380D02*
X35833333Y-50166190D01*
X35595238Y-50642380D02*
X35595238Y-49642380D01*
X35976190Y-49642380D01*
X36071428Y-49690000D01*
X36119047Y-49737619D01*
X36166666Y-49832857D01*
X36166666Y-49975714D01*
X36119047Y-50070952D01*
X36071428Y-50118571D01*
X35976190Y-50166190D01*
X35595238Y-50166190D01*
X36595238Y-50118571D02*
X36928571Y-50118571D01*
X37071428Y-50642380D02*
X36595238Y-50642380D01*
X36595238Y-49642380D01*
X37071428Y-49642380D01*
X37833333Y-50118571D02*
X37500000Y-50118571D01*
X37500000Y-50642380D02*
X37500000Y-49642380D01*
X37976190Y-49642380D01*
X38500000Y-49642380D02*
X38500000Y-49880476D01*
X38261904Y-49785238D02*
X38500000Y-49880476D01*
X38738095Y-49785238D01*
X38357142Y-50070952D02*
X38500000Y-49880476D01*
X38642857Y-50070952D01*
X39261904Y-49642380D02*
X39261904Y-49880476D01*
X39023809Y-49785238D02*
X39261904Y-49880476D01*
X39500000Y-49785238D01*
X39119047Y-50070952D02*
X39261904Y-49880476D01*
X39404761Y-50070952D01*
X58780994Y-40760212D02*
X58304896Y-40426746D01*
X58244027Y-40955652D02*
X57902006Y-40015959D01*
X58259985Y-39885666D01*
X58365766Y-39897840D01*
X58426800Y-39926300D01*
X58504120Y-39999508D01*
X58552980Y-40133750D01*
X58540806Y-40239531D01*
X58512346Y-40300565D01*
X58439138Y-40377886D01*
X58081160Y-40508179D01*
X59675939Y-40434478D02*
X59138972Y-40629918D01*
X59407456Y-40532198D02*
X59065435Y-39592506D01*
X59024801Y-39759321D01*
X58967880Y-39881389D01*
X58894672Y-39958709D01*
X60184117Y-39185339D02*
X59736644Y-39348205D01*
X59854764Y-39811965D01*
X59883224Y-39750931D01*
X59956432Y-39673610D01*
X60180169Y-39592177D01*
X60285950Y-39604351D01*
X60346984Y-39632811D01*
X60424304Y-39706019D01*
X60505738Y-39929756D01*
X60493564Y-40035537D01*
X60465103Y-40096571D01*
X60391895Y-40173891D01*
X60168159Y-40255325D01*
X60062378Y-40243151D01*
X60001344Y-40214690D01*
X23666666Y-50142380D02*
X23333333Y-49666190D01*
X23095238Y-50142380D02*
X23095238Y-49142380D01*
X23476190Y-49142380D01*
X23571428Y-49190000D01*
X23619047Y-49237619D01*
X23666666Y-49332857D01*
X23666666Y-49475714D01*
X23619047Y-49570952D01*
X23571428Y-49618571D01*
X23476190Y-49666190D01*
X23095238Y-49666190D01*
X24095238Y-49618571D02*
X24428571Y-49618571D01*
X24571428Y-50142380D02*
X24095238Y-50142380D01*
X24095238Y-49142380D01*
X24571428Y-49142380D01*
X25333333Y-49618571D02*
X25000000Y-49618571D01*
X25000000Y-50142380D02*
X25000000Y-49142380D01*
X25476190Y-49142380D01*
X26000000Y-49142380D02*
X26000000Y-49380476D01*
X25761904Y-49285238D02*
X26000000Y-49380476D01*
X26238095Y-49285238D01*
X25857142Y-49570952D02*
X26000000Y-49380476D01*
X26142857Y-49570952D01*
X26761904Y-49142380D02*
X26761904Y-49380476D01*
X26523809Y-49285238D02*
X26761904Y-49380476D01*
X27000000Y-49285238D01*
X26619047Y-49570952D02*
X26761904Y-49380476D01*
X26904761Y-49570952D01*
X65404761Y-21952380D02*
X65071428Y-21476190D01*
X64833333Y-21952380D02*
X64833333Y-20952380D01*
X65214285Y-20952380D01*
X65309523Y-21000000D01*
X65357142Y-21047619D01*
X65404761Y-21142857D01*
X65404761Y-21285714D01*
X65357142Y-21380952D01*
X65309523Y-21428571D01*
X65214285Y-21476190D01*
X64833333Y-21476190D01*
X65690476Y-20952380D02*
X66023809Y-21952380D01*
X66357142Y-20952380D01*
X66595238Y-20952380D02*
X67214285Y-20952380D01*
X66880952Y-21333333D01*
X67023809Y-21333333D01*
X67119047Y-21380952D01*
X67166666Y-21428571D01*
X67214285Y-21523809D01*
X67214285Y-21761904D01*
X67166666Y-21857142D01*
X67119047Y-21904761D01*
X67023809Y-21952380D01*
X66738095Y-21952380D01*
X66642857Y-21904761D01*
X66595238Y-21857142D01*
X21722661Y-21698380D02*
X21389328Y-21222190D01*
X21151233Y-21698380D02*
X21151233Y-20698380D01*
X21532185Y-20698380D01*
X21627423Y-20746000D01*
X21675042Y-20793619D01*
X21722661Y-20888857D01*
X21722661Y-21031714D01*
X21675042Y-21126952D01*
X21627423Y-21174571D01*
X21532185Y-21222190D01*
X21151233Y-21222190D01*
X22008376Y-20698380D02*
X22341709Y-21698380D01*
X22675042Y-20698380D01*
X23532185Y-21698380D02*
X22960757Y-21698380D01*
X23246471Y-21698380D02*
X23246471Y-20698380D01*
X23151233Y-20841238D01*
X23055995Y-20936476D01*
X22960757Y-20984095D01*
X57317619Y-81238238D02*
X57270000Y-81333476D01*
X57174761Y-81428714D01*
X57031904Y-81571571D01*
X56984285Y-81666809D01*
X56984285Y-81762047D01*
X57222380Y-81714428D02*
X57174761Y-81809666D01*
X57079523Y-81904904D01*
X56889047Y-81952523D01*
X56555714Y-81952523D01*
X56365238Y-81904904D01*
X56270000Y-81809666D01*
X56222380Y-81714428D01*
X56222380Y-81523952D01*
X56270000Y-81428714D01*
X56365238Y-81333476D01*
X56555714Y-81285857D01*
X56889047Y-81285857D01*
X57079523Y-81333476D01*
X57174761Y-81428714D01*
X57222380Y-81523952D01*
X57222380Y-81714428D01*
X57222380Y-80333476D02*
X57222380Y-80904904D01*
X57222380Y-80619190D02*
X56222380Y-80619190D01*
X56365238Y-80714428D01*
X56460476Y-80809666D01*
X56508095Y-80904904D01*
X68199095Y-31158380D02*
X68199095Y-31967904D01*
X68246714Y-32063142D01*
X68294333Y-32110761D01*
X68389571Y-32158380D01*
X68580047Y-32158380D01*
X68675285Y-32110761D01*
X68722904Y-32063142D01*
X68770523Y-31967904D01*
X68770523Y-31158380D01*
X69675285Y-31491714D02*
X69675285Y-32158380D01*
X69437190Y-31110761D02*
X69199095Y-31825047D01*
X69818142Y-31825047D01*
X32385333Y-33845142D02*
X32337714Y-33892761D01*
X32194857Y-33940380D01*
X32099619Y-33940380D01*
X31956761Y-33892761D01*
X31861523Y-33797523D01*
X31813904Y-33702285D01*
X31766285Y-33511809D01*
X31766285Y-33368952D01*
X31813904Y-33178476D01*
X31861523Y-33083238D01*
X31956761Y-32988000D01*
X32099619Y-32940380D01*
X32194857Y-32940380D01*
X32337714Y-32988000D01*
X32385333Y-33035619D01*
X33242476Y-33273714D02*
X33242476Y-33940380D01*
X33004380Y-32892761D02*
X32766285Y-33607047D01*
X33385333Y-33607047D01*
X68961333Y-47688142D02*
X68913714Y-47735761D01*
X68770857Y-47783380D01*
X68675619Y-47783380D01*
X68532761Y-47735761D01*
X68437523Y-47640523D01*
X68389904Y-47545285D01*
X68342285Y-47354809D01*
X68342285Y-47211952D01*
X68389904Y-47021476D01*
X68437523Y-46926238D01*
X68532761Y-46831000D01*
X68675619Y-46783380D01*
X68770857Y-46783380D01*
X68913714Y-46831000D01*
X68961333Y-46878619D01*
X69866095Y-46783380D02*
X69389904Y-46783380D01*
X69342285Y-47259571D01*
X69389904Y-47211952D01*
X69485142Y-47164333D01*
X69723238Y-47164333D01*
X69818476Y-47211952D01*
X69866095Y-47259571D01*
X69913714Y-47354809D01*
X69913714Y-47592904D01*
X69866095Y-47688142D01*
X69818476Y-47735761D01*
X69723238Y-47783380D01*
X69485142Y-47783380D01*
X69389904Y-47735761D01*
X69342285Y-47688142D01*
X68961333Y-33591142D02*
X68913714Y-33638761D01*
X68770857Y-33686380D01*
X68675619Y-33686380D01*
X68532761Y-33638761D01*
X68437523Y-33543523D01*
X68389904Y-33448285D01*
X68342285Y-33257809D01*
X68342285Y-33114952D01*
X68389904Y-32924476D01*
X68437523Y-32829238D01*
X68532761Y-32734000D01*
X68675619Y-32686380D01*
X68770857Y-32686380D01*
X68913714Y-32734000D01*
X68961333Y-32781619D01*
X69294666Y-32686380D02*
X69961333Y-32686380D01*
X69532761Y-33686380D01*
X32639333Y-47942142D02*
X32591714Y-47989761D01*
X32448857Y-48037380D01*
X32353619Y-48037380D01*
X32210761Y-47989761D01*
X32115523Y-47894523D01*
X32067904Y-47799285D01*
X32020285Y-47608809D01*
X32020285Y-47465952D01*
X32067904Y-47275476D01*
X32115523Y-47180238D01*
X32210761Y-47085000D01*
X32353619Y-47037380D01*
X32448857Y-47037380D01*
X32591714Y-47085000D01*
X32639333Y-47132619D01*
X33210761Y-47465952D02*
X33115523Y-47418333D01*
X33067904Y-47370714D01*
X33020285Y-47275476D01*
X33020285Y-47227857D01*
X33067904Y-47132619D01*
X33115523Y-47085000D01*
X33210761Y-47037380D01*
X33401238Y-47037380D01*
X33496476Y-47085000D01*
X33544095Y-47132619D01*
X33591714Y-47227857D01*
X33591714Y-47275476D01*
X33544095Y-47370714D01*
X33496476Y-47418333D01*
X33401238Y-47465952D01*
X33210761Y-47465952D01*
X33115523Y-47513571D01*
X33067904Y-47561190D01*
X33020285Y-47656428D01*
X33020285Y-47846904D01*
X33067904Y-47942142D01*
X33115523Y-47989761D01*
X33210761Y-48037380D01*
X33401238Y-48037380D01*
X33496476Y-47989761D01*
X33544095Y-47942142D01*
X33591714Y-47846904D01*
X33591714Y-47656428D01*
X33544095Y-47561190D01*
X33496476Y-47513571D01*
X33401238Y-47465952D01*
X64901516Y-48949420D02*
X64840482Y-48977880D01*
X64689954Y-48973767D01*
X64600459Y-48941194D01*
X64482504Y-48847587D01*
X64425583Y-48725519D01*
X64413409Y-48619738D01*
X64433808Y-48424462D01*
X64482668Y-48290220D01*
X64592562Y-48127518D01*
X64669883Y-48054310D01*
X64791951Y-47997389D01*
X64942479Y-48001502D01*
X65031974Y-48034075D01*
X65149929Y-48127682D01*
X65178389Y-48188716D01*
X65316415Y-49201781D02*
X65495404Y-49266928D01*
X65601186Y-49254754D01*
X65662220Y-49226293D01*
X65800574Y-49124625D01*
X65910468Y-48961922D01*
X66040761Y-48603944D01*
X66028588Y-48498163D01*
X66000127Y-48437129D01*
X65926919Y-48359808D01*
X65747930Y-48294662D01*
X65642149Y-48306836D01*
X65581115Y-48335296D01*
X65503794Y-48408504D01*
X65422361Y-48632240D01*
X65434535Y-48738022D01*
X65462995Y-48799056D01*
X65536203Y-48876376D01*
X65715192Y-48941523D01*
X65820974Y-48929349D01*
X65882007Y-48900888D01*
X65959328Y-48827680D01*
X57801142Y-70151857D02*
X57848761Y-70199476D01*
X57896380Y-70342333D01*
X57896380Y-70437571D01*
X57848761Y-70580428D01*
X57753523Y-70675666D01*
X57658285Y-70723285D01*
X57467809Y-70770904D01*
X57324952Y-70770904D01*
X57134476Y-70723285D01*
X57039238Y-70675666D01*
X56944000Y-70580428D01*
X56896380Y-70437571D01*
X56896380Y-70342333D01*
X56944000Y-70199476D01*
X56991619Y-70151857D01*
X57896380Y-69199476D02*
X57896380Y-69770904D01*
X57896380Y-69485190D02*
X56896380Y-69485190D01*
X57039238Y-69580428D01*
X57134476Y-69675666D01*
X57182095Y-69770904D01*
X57896380Y-68247095D02*
X57896380Y-68818523D01*
X57896380Y-68532809D02*
X56896380Y-68532809D01*
X57039238Y-68628047D01*
X57134476Y-68723285D01*
X57182095Y-68818523D01*
X69040142Y-74565142D02*
X68992523Y-74612761D01*
X68849666Y-74660380D01*
X68754428Y-74660380D01*
X68611571Y-74612761D01*
X68516333Y-74517523D01*
X68468714Y-74422285D01*
X68421095Y-74231809D01*
X68421095Y-74088952D01*
X68468714Y-73898476D01*
X68516333Y-73803238D01*
X68611571Y-73708000D01*
X68754428Y-73660380D01*
X68849666Y-73660380D01*
X68992523Y-73708000D01*
X69040142Y-73755619D01*
X69992523Y-74660380D02*
X69421095Y-74660380D01*
X69706809Y-74660380D02*
X69706809Y-73660380D01*
X69611571Y-73803238D01*
X69516333Y-73898476D01*
X69421095Y-73946095D01*
X70325857Y-73660380D02*
X70944904Y-73660380D01*
X70611571Y-74041333D01*
X70754428Y-74041333D01*
X70849666Y-74088952D01*
X70897285Y-74136571D01*
X70944904Y-74231809D01*
X70944904Y-74469904D01*
X70897285Y-74565142D01*
X70849666Y-74612761D01*
X70754428Y-74660380D01*
X70468714Y-74660380D01*
X70373476Y-74612761D01*
X70325857Y-74565142D01*
X33869380Y-61420333D02*
X34583666Y-61420333D01*
X34726523Y-61467952D01*
X34821761Y-61563190D01*
X34869380Y-61706047D01*
X34869380Y-61801285D01*
X34869380Y-60420333D02*
X34869380Y-60991761D01*
X34869380Y-60706047D02*
X33869380Y-60706047D01*
X34012238Y-60801285D01*
X34107476Y-60896523D01*
X34155095Y-60991761D01*
X29551380Y-61420333D02*
X30265666Y-61420333D01*
X30408523Y-61467952D01*
X30503761Y-61563190D01*
X30551380Y-61706047D01*
X30551380Y-61801285D01*
X29646619Y-60991761D02*
X29599000Y-60944142D01*
X29551380Y-60848904D01*
X29551380Y-60610809D01*
X29599000Y-60515571D01*
X29646619Y-60467952D01*
X29741857Y-60420333D01*
X29837095Y-60420333D01*
X29979952Y-60467952D01*
X30551380Y-61039380D01*
X30551380Y-60420333D01*
X25106380Y-61420333D02*
X25820666Y-61420333D01*
X25963523Y-61467952D01*
X26058761Y-61563190D01*
X26106380Y-61706047D01*
X26106380Y-61801285D01*
X25106380Y-61039380D02*
X25106380Y-60420333D01*
X25487333Y-60753666D01*
X25487333Y-60610809D01*
X25534952Y-60515571D01*
X25582571Y-60467952D01*
X25677809Y-60420333D01*
X25915904Y-60420333D01*
X26011142Y-60467952D01*
X26058761Y-60515571D01*
X26106380Y-60610809D01*
X26106380Y-60896523D01*
X26058761Y-60991761D01*
X26011142Y-61039380D01*
X15033666Y-32218380D02*
X15033666Y-32932666D01*
X14986047Y-33075523D01*
X14890809Y-33170761D01*
X14747952Y-33218380D01*
X14652714Y-33218380D01*
X15938428Y-32551714D02*
X15938428Y-33218380D01*
X15700333Y-32170761D02*
X15462238Y-32885047D01*
X16081285Y-32885047D01*
X15033666Y-35901380D02*
X15033666Y-36615666D01*
X14986047Y-36758523D01*
X14890809Y-36853761D01*
X14747952Y-36901380D01*
X14652714Y-36901380D01*
X15986047Y-35901380D02*
X15509857Y-35901380D01*
X15462238Y-36377571D01*
X15509857Y-36329952D01*
X15605095Y-36282333D01*
X15843190Y-36282333D01*
X15938428Y-36329952D01*
X15986047Y-36377571D01*
X16033666Y-36472809D01*
X16033666Y-36710904D01*
X15986047Y-36806142D01*
X15938428Y-36853761D01*
X15843190Y-36901380D01*
X15605095Y-36901380D01*
X15509857Y-36853761D01*
X15462238Y-36806142D01*
X59229666Y-70953380D02*
X59229666Y-71667666D01*
X59182047Y-71810523D01*
X59086809Y-71905761D01*
X58943952Y-71953380D01*
X58848714Y-71953380D01*
X60134428Y-70953380D02*
X59943952Y-70953380D01*
X59848714Y-71001000D01*
X59801095Y-71048619D01*
X59705857Y-71191476D01*
X59658238Y-71381952D01*
X59658238Y-71762904D01*
X59705857Y-71858142D01*
X59753476Y-71905761D01*
X59848714Y-71953380D01*
X60039190Y-71953380D01*
X60134428Y-71905761D01*
X60182047Y-71858142D01*
X60229666Y-71762904D01*
X60229666Y-71524809D01*
X60182047Y-71429571D01*
X60134428Y-71381952D01*
X60039190Y-71334333D01*
X59848714Y-71334333D01*
X59753476Y-71381952D01*
X59705857Y-71429571D01*
X59658238Y-71524809D01*
X62785666Y-59523380D02*
X62785666Y-60237666D01*
X62738047Y-60380523D01*
X62642809Y-60475761D01*
X62499952Y-60523380D01*
X62404714Y-60523380D01*
X63166619Y-59523380D02*
X63833285Y-59523380D01*
X63404714Y-60523380D01*
X39290666Y-44791380D02*
X39290666Y-45505666D01*
X39243047Y-45648523D01*
X39147809Y-45743761D01*
X39004952Y-45791380D01*
X38909714Y-45791380D01*
X39909714Y-45219952D02*
X39814476Y-45172333D01*
X39766857Y-45124714D01*
X39719238Y-45029476D01*
X39719238Y-44981857D01*
X39766857Y-44886619D01*
X39814476Y-44839000D01*
X39909714Y-44791380D01*
X40100190Y-44791380D01*
X40195428Y-44839000D01*
X40243047Y-44886619D01*
X40290666Y-44981857D01*
X40290666Y-45029476D01*
X40243047Y-45124714D01*
X40195428Y-45172333D01*
X40100190Y-45219952D01*
X39909714Y-45219952D01*
X39814476Y-45267571D01*
X39766857Y-45315190D01*
X39719238Y-45410428D01*
X39719238Y-45600904D01*
X39766857Y-45696142D01*
X39814476Y-45743761D01*
X39909714Y-45791380D01*
X40100190Y-45791380D01*
X40195428Y-45743761D01*
X40243047Y-45696142D01*
X40290666Y-45600904D01*
X40290666Y-45410428D01*
X40243047Y-45315190D01*
X40195428Y-45267571D01*
X40100190Y-45219952D01*
X54515798Y-38432659D02*
X54760098Y-39103868D01*
X54764211Y-39254396D01*
X54707290Y-39376464D01*
X54589334Y-39470071D01*
X54499840Y-39502645D01*
X55350038Y-39193198D02*
X55529027Y-39128051D01*
X55602235Y-39050731D01*
X55630695Y-38989697D01*
X55671330Y-38822881D01*
X55650931Y-38627606D01*
X55520637Y-38269628D01*
X55443317Y-38196420D01*
X55382283Y-38167959D01*
X55276501Y-38155785D01*
X55097512Y-38220932D01*
X55024304Y-38298252D01*
X54995844Y-38359286D01*
X54983670Y-38465068D01*
X55065103Y-38688804D01*
X55142424Y-38762012D01*
X55203458Y-38790472D01*
X55309239Y-38802646D01*
X55488228Y-38737500D01*
X55561436Y-38660179D01*
X55589897Y-38599145D01*
X55602071Y-38493364D01*
X81613476Y-38187380D02*
X81613476Y-38901666D01*
X81565857Y-39044523D01*
X81470619Y-39139761D01*
X81327761Y-39187380D01*
X81232523Y-39187380D01*
X82613476Y-39187380D02*
X82042047Y-39187380D01*
X82327761Y-39187380D02*
X82327761Y-38187380D01*
X82232523Y-38330238D01*
X82137285Y-38425476D01*
X82042047Y-38473095D01*
X83232523Y-38187380D02*
X83327761Y-38187380D01*
X83423000Y-38235000D01*
X83470619Y-38282619D01*
X83518238Y-38377857D01*
X83565857Y-38568333D01*
X83565857Y-38806428D01*
X83518238Y-38996904D01*
X83470619Y-39092142D01*
X83423000Y-39139761D01*
X83327761Y-39187380D01*
X83232523Y-39187380D01*
X83137285Y-39139761D01*
X83089666Y-39092142D01*
X83042047Y-38996904D01*
X82994428Y-38806428D01*
X82994428Y-38568333D01*
X83042047Y-38377857D01*
X83089666Y-38282619D01*
X83137285Y-38235000D01*
X83232523Y-38187380D01*
X55766204Y-21685129D02*
X55521904Y-22356338D01*
X55428296Y-22474294D01*
X55306228Y-22531215D01*
X55155700Y-22527102D01*
X55066205Y-22494529D01*
X56363876Y-22966842D02*
X55826909Y-22771402D01*
X56095393Y-22869122D02*
X56437413Y-21929430D01*
X56299058Y-22031098D01*
X56176990Y-22088019D01*
X56071209Y-22100193D01*
X57258822Y-23292576D02*
X56721854Y-23097136D01*
X56990338Y-23194856D02*
X57332358Y-22255163D01*
X57194004Y-22356832D01*
X57071936Y-22413753D01*
X56966154Y-22425927D01*
X81613476Y-28154380D02*
X81613476Y-28868666D01*
X81565857Y-29011523D01*
X81470619Y-29106761D01*
X81327761Y-29154380D01*
X81232523Y-29154380D01*
X82613476Y-29154380D02*
X82042047Y-29154380D01*
X82327761Y-29154380D02*
X82327761Y-28154380D01*
X82232523Y-28297238D01*
X82137285Y-28392476D01*
X82042047Y-28440095D01*
X82994428Y-28249619D02*
X83042047Y-28202000D01*
X83137285Y-28154380D01*
X83375380Y-28154380D01*
X83470619Y-28202000D01*
X83518238Y-28249619D01*
X83565857Y-28344857D01*
X83565857Y-28440095D01*
X83518238Y-28582952D01*
X82946809Y-29154380D01*
X83565857Y-29154380D01*
X74247476Y-78319380D02*
X74247476Y-79033666D01*
X74199857Y-79176523D01*
X74104619Y-79271761D01*
X73961761Y-79319380D01*
X73866523Y-79319380D01*
X75247476Y-79319380D02*
X74676047Y-79319380D01*
X74961761Y-79319380D02*
X74961761Y-78319380D01*
X74866523Y-78462238D01*
X74771285Y-78557476D01*
X74676047Y-78605095D01*
X75580809Y-78319380D02*
X76199857Y-78319380D01*
X75866523Y-78700333D01*
X76009380Y-78700333D01*
X76104619Y-78747952D01*
X76152238Y-78795571D01*
X76199857Y-78890809D01*
X76199857Y-79128904D01*
X76152238Y-79224142D01*
X76104619Y-79271761D01*
X76009380Y-79319380D01*
X75723666Y-79319380D01*
X75628428Y-79271761D01*
X75580809Y-79224142D01*
X60190476Y-38142380D02*
X60190476Y-38856666D01*
X60142857Y-38999523D01*
X60047619Y-39094761D01*
X59904761Y-39142380D01*
X59809523Y-39142380D01*
X61190476Y-39142380D02*
X60619047Y-39142380D01*
X60904761Y-39142380D02*
X60904761Y-38142380D01*
X60809523Y-38285238D01*
X60714285Y-38380476D01*
X60619047Y-38428095D01*
X62047619Y-38475714D02*
X62047619Y-39142380D01*
X61809523Y-38094761D02*
X61571428Y-38809047D01*
X62190476Y-38809047D01*
X75390476Y-38187380D02*
X75390476Y-38901666D01*
X75342857Y-39044523D01*
X75247619Y-39139761D01*
X75104761Y-39187380D01*
X75009523Y-39187380D01*
X76390476Y-39187380D02*
X75819047Y-39187380D01*
X76104761Y-39187380D02*
X76104761Y-38187380D01*
X76009523Y-38330238D01*
X75914285Y-38425476D01*
X75819047Y-38473095D01*
X77295238Y-38187380D02*
X76819047Y-38187380D01*
X76771428Y-38663571D01*
X76819047Y-38615952D01*
X76914285Y-38568333D01*
X77152380Y-38568333D01*
X77247619Y-38615952D01*
X77295238Y-38663571D01*
X77342857Y-38758809D01*
X77342857Y-38996904D01*
X77295238Y-39092142D01*
X77247619Y-39139761D01*
X77152380Y-39187380D01*
X76914285Y-39187380D01*
X76819047Y-39139761D01*
X76771428Y-39092142D01*
X75390476Y-28154380D02*
X75390476Y-28868666D01*
X75342857Y-29011523D01*
X75247619Y-29106761D01*
X75104761Y-29154380D01*
X75009523Y-29154380D01*
X76390476Y-29154380D02*
X75819047Y-29154380D01*
X76104761Y-29154380D02*
X76104761Y-28154380D01*
X76009523Y-28297238D01*
X75914285Y-28392476D01*
X75819047Y-28440095D01*
X77247619Y-28154380D02*
X77057142Y-28154380D01*
X76961904Y-28202000D01*
X76914285Y-28249619D01*
X76819047Y-28392476D01*
X76771428Y-28582952D01*
X76771428Y-28963904D01*
X76819047Y-29059142D01*
X76866666Y-29106761D01*
X76961904Y-29154380D01*
X77152380Y-29154380D01*
X77247619Y-29106761D01*
X77295238Y-29059142D01*
X77342857Y-28963904D01*
X77342857Y-28725809D01*
X77295238Y-28630571D01*
X77247619Y-28582952D01*
X77152380Y-28535333D01*
X76961904Y-28535333D01*
X76866666Y-28582952D01*
X76819047Y-28630571D01*
X76771428Y-28725809D01*
X62690476Y-22642380D02*
X62690476Y-23356666D01*
X62642857Y-23499523D01*
X62547619Y-23594761D01*
X62404761Y-23642380D01*
X62309523Y-23642380D01*
X63690476Y-23642380D02*
X63119047Y-23642380D01*
X63404761Y-23642380D02*
X63404761Y-22642380D01*
X63309523Y-22785238D01*
X63214285Y-22880476D01*
X63119047Y-22928095D01*
X64023809Y-22642380D02*
X64690476Y-22642380D01*
X64261904Y-23642380D01*
X21931333Y-39906380D02*
X21598000Y-39430190D01*
X21359904Y-39906380D02*
X21359904Y-38906380D01*
X21740857Y-38906380D01*
X21836095Y-38954000D01*
X21883714Y-39001619D01*
X21931333Y-39096857D01*
X21931333Y-39239714D01*
X21883714Y-39334952D01*
X21836095Y-39382571D01*
X21740857Y-39430190D01*
X21359904Y-39430190D01*
X22883714Y-39906380D02*
X22312285Y-39906380D01*
X22598000Y-39906380D02*
X22598000Y-38906380D01*
X22502761Y-39049238D01*
X22407523Y-39144476D01*
X22312285Y-39192095D01*
X21931333Y-43081380D02*
X21598000Y-42605190D01*
X21359904Y-43081380D02*
X21359904Y-42081380D01*
X21740857Y-42081380D01*
X21836095Y-42129000D01*
X21883714Y-42176619D01*
X21931333Y-42271857D01*
X21931333Y-42414714D01*
X21883714Y-42509952D01*
X21836095Y-42557571D01*
X21740857Y-42605190D01*
X21359904Y-42605190D01*
X22312285Y-42176619D02*
X22359904Y-42129000D01*
X22455142Y-42081380D01*
X22693238Y-42081380D01*
X22788476Y-42129000D01*
X22836095Y-42176619D01*
X22883714Y-42271857D01*
X22883714Y-42367095D01*
X22836095Y-42509952D01*
X22264666Y-43081380D01*
X22883714Y-43081380D01*
X21931333Y-46256380D02*
X21598000Y-45780190D01*
X21359904Y-46256380D02*
X21359904Y-45256380D01*
X21740857Y-45256380D01*
X21836095Y-45304000D01*
X21883714Y-45351619D01*
X21931333Y-45446857D01*
X21931333Y-45589714D01*
X21883714Y-45684952D01*
X21836095Y-45732571D01*
X21740857Y-45780190D01*
X21359904Y-45780190D01*
X22264666Y-45256380D02*
X22883714Y-45256380D01*
X22550380Y-45637333D01*
X22693238Y-45637333D01*
X22788476Y-45684952D01*
X22836095Y-45732571D01*
X22883714Y-45827809D01*
X22883714Y-46065904D01*
X22836095Y-46161142D01*
X22788476Y-46208761D01*
X22693238Y-46256380D01*
X22407523Y-46256380D01*
X22312285Y-46208761D01*
X22264666Y-46161142D01*
X67905333Y-85880380D02*
X67572000Y-85404190D01*
X67333904Y-85880380D02*
X67333904Y-84880380D01*
X67714857Y-84880380D01*
X67810095Y-84928000D01*
X67857714Y-84975619D01*
X67905333Y-85070857D01*
X67905333Y-85213714D01*
X67857714Y-85308952D01*
X67810095Y-85356571D01*
X67714857Y-85404190D01*
X67333904Y-85404190D01*
X68810095Y-84880380D02*
X68333904Y-84880380D01*
X68286285Y-85356571D01*
X68333904Y-85308952D01*
X68429142Y-85261333D01*
X68667238Y-85261333D01*
X68762476Y-85308952D01*
X68810095Y-85356571D01*
X68857714Y-85451809D01*
X68857714Y-85689904D01*
X68810095Y-85785142D01*
X68762476Y-85832761D01*
X68667238Y-85880380D01*
X68429142Y-85880380D01*
X68333904Y-85832761D01*
X68286285Y-85785142D01*
X58321380Y-77636666D02*
X57845190Y-77970000D01*
X58321380Y-78208095D02*
X57321380Y-78208095D01*
X57321380Y-77827142D01*
X57369000Y-77731904D01*
X57416619Y-77684285D01*
X57511857Y-77636666D01*
X57654714Y-77636666D01*
X57749952Y-77684285D01*
X57797571Y-77731904D01*
X57845190Y-77827142D01*
X57845190Y-78208095D01*
X57321380Y-76779523D02*
X57321380Y-76970000D01*
X57369000Y-77065238D01*
X57416619Y-77112857D01*
X57559476Y-77208095D01*
X57749952Y-77255714D01*
X58130904Y-77255714D01*
X58226142Y-77208095D01*
X58273761Y-77160476D01*
X58321380Y-77065238D01*
X58321380Y-76874761D01*
X58273761Y-76779523D01*
X58226142Y-76731904D01*
X58130904Y-76684285D01*
X57892809Y-76684285D01*
X57797571Y-76731904D01*
X57749952Y-76779523D01*
X57702333Y-76874761D01*
X57702333Y-77065238D01*
X57749952Y-77160476D01*
X57797571Y-77208095D01*
X57892809Y-77255714D01*
X32599333Y-51082380D02*
X32266000Y-50606190D01*
X32027904Y-51082380D02*
X32027904Y-50082380D01*
X32408857Y-50082380D01*
X32504095Y-50130000D01*
X32551714Y-50177619D01*
X32599333Y-50272857D01*
X32599333Y-50415714D01*
X32551714Y-50510952D01*
X32504095Y-50558571D01*
X32408857Y-50606190D01*
X32027904Y-50606190D01*
X32932666Y-50082380D02*
X33599333Y-50082380D01*
X33170761Y-51082380D01*
X42632333Y-42192380D02*
X42299000Y-41716190D01*
X42060904Y-42192380D02*
X42060904Y-41192380D01*
X42441857Y-41192380D01*
X42537095Y-41240000D01*
X42584714Y-41287619D01*
X42632333Y-41382857D01*
X42632333Y-41525714D01*
X42584714Y-41620952D01*
X42537095Y-41668571D01*
X42441857Y-41716190D01*
X42060904Y-41716190D01*
X43203761Y-41620952D02*
X43108523Y-41573333D01*
X43060904Y-41525714D01*
X43013285Y-41430476D01*
X43013285Y-41382857D01*
X43060904Y-41287619D01*
X43108523Y-41240000D01*
X43203761Y-41192380D01*
X43394238Y-41192380D01*
X43489476Y-41240000D01*
X43537095Y-41287619D01*
X43584714Y-41382857D01*
X43584714Y-41430476D01*
X43537095Y-41525714D01*
X43489476Y-41573333D01*
X43394238Y-41620952D01*
X43203761Y-41620952D01*
X43108523Y-41668571D01*
X43060904Y-41716190D01*
X43013285Y-41811428D01*
X43013285Y-42001904D01*
X43060904Y-42097142D01*
X43108523Y-42144761D01*
X43203761Y-42192380D01*
X43394238Y-42192380D01*
X43489476Y-42144761D01*
X43537095Y-42097142D01*
X43584714Y-42001904D01*
X43584714Y-41811428D01*
X43537095Y-41716190D01*
X43489476Y-41668571D01*
X43394238Y-41620952D01*
X42632333Y-45367380D02*
X42299000Y-44891190D01*
X42060904Y-45367380D02*
X42060904Y-44367380D01*
X42441857Y-44367380D01*
X42537095Y-44415000D01*
X42584714Y-44462619D01*
X42632333Y-44557857D01*
X42632333Y-44700714D01*
X42584714Y-44795952D01*
X42537095Y-44843571D01*
X42441857Y-44891190D01*
X42060904Y-44891190D01*
X43108523Y-45367380D02*
X43299000Y-45367380D01*
X43394238Y-45319761D01*
X43441857Y-45272142D01*
X43537095Y-45129285D01*
X43584714Y-44938809D01*
X43584714Y-44557857D01*
X43537095Y-44462619D01*
X43489476Y-44415000D01*
X43394238Y-44367380D01*
X43203761Y-44367380D01*
X43108523Y-44415000D01*
X43060904Y-44462619D01*
X43013285Y-44557857D01*
X43013285Y-44795952D01*
X43060904Y-44891190D01*
X43108523Y-44938809D01*
X43203761Y-44986428D01*
X43394238Y-44986428D01*
X43489476Y-44938809D01*
X43537095Y-44891190D01*
X43584714Y-44795952D01*
X67302142Y-82705380D02*
X66968809Y-82229190D01*
X66730714Y-82705380D02*
X66730714Y-81705380D01*
X67111666Y-81705380D01*
X67206904Y-81753000D01*
X67254523Y-81800619D01*
X67302142Y-81895857D01*
X67302142Y-82038714D01*
X67254523Y-82133952D01*
X67206904Y-82181571D01*
X67111666Y-82229190D01*
X66730714Y-82229190D01*
X68254523Y-82705380D02*
X67683095Y-82705380D01*
X67968809Y-82705380D02*
X67968809Y-81705380D01*
X67873571Y-81848238D01*
X67778333Y-81943476D01*
X67683095Y-81991095D01*
X68873571Y-81705380D02*
X68968809Y-81705380D01*
X69064047Y-81753000D01*
X69111666Y-81800619D01*
X69159285Y-81895857D01*
X69206904Y-82086333D01*
X69206904Y-82324428D01*
X69159285Y-82514904D01*
X69111666Y-82610142D01*
X69064047Y-82657761D01*
X68968809Y-82705380D01*
X68873571Y-82705380D01*
X68778333Y-82657761D01*
X68730714Y-82610142D01*
X68683095Y-82514904D01*
X68635476Y-82324428D01*
X68635476Y-82086333D01*
X68683095Y-81895857D01*
X68730714Y-81800619D01*
X68778333Y-81753000D01*
X68873571Y-81705380D01*
X42156142Y-43802380D02*
X41822809Y-43326190D01*
X41584714Y-43802380D02*
X41584714Y-42802380D01*
X41965666Y-42802380D01*
X42060904Y-42850000D01*
X42108523Y-42897619D01*
X42156142Y-42992857D01*
X42156142Y-43135714D01*
X42108523Y-43230952D01*
X42060904Y-43278571D01*
X41965666Y-43326190D01*
X41584714Y-43326190D01*
X43108523Y-43802380D02*
X42537095Y-43802380D01*
X42822809Y-43802380D02*
X42822809Y-42802380D01*
X42727571Y-42945238D01*
X42632333Y-43040476D01*
X42537095Y-43088095D01*
X44060904Y-43802380D02*
X43489476Y-43802380D01*
X43775190Y-43802380D02*
X43775190Y-42802380D01*
X43679952Y-42945238D01*
X43584714Y-43040476D01*
X43489476Y-43088095D01*
X42156142Y-35842380D02*
X41822809Y-35366190D01*
X41584714Y-35842380D02*
X41584714Y-34842380D01*
X41965666Y-34842380D01*
X42060904Y-34890000D01*
X42108523Y-34937619D01*
X42156142Y-35032857D01*
X42156142Y-35175714D01*
X42108523Y-35270952D01*
X42060904Y-35318571D01*
X41965666Y-35366190D01*
X41584714Y-35366190D01*
X43108523Y-35842380D02*
X42537095Y-35842380D01*
X42822809Y-35842380D02*
X42822809Y-34842380D01*
X42727571Y-34985238D01*
X42632333Y-35080476D01*
X42537095Y-35128095D01*
X43489476Y-34937619D02*
X43537095Y-34890000D01*
X43632333Y-34842380D01*
X43870428Y-34842380D01*
X43965666Y-34890000D01*
X44013285Y-34937619D01*
X44060904Y-35032857D01*
X44060904Y-35128095D01*
X44013285Y-35270952D01*
X43441857Y-35842380D01*
X44060904Y-35842380D01*
X42156142Y-39017380D02*
X41822809Y-38541190D01*
X41584714Y-39017380D02*
X41584714Y-38017380D01*
X41965666Y-38017380D01*
X42060904Y-38065000D01*
X42108523Y-38112619D01*
X42156142Y-38207857D01*
X42156142Y-38350714D01*
X42108523Y-38445952D01*
X42060904Y-38493571D01*
X41965666Y-38541190D01*
X41584714Y-38541190D01*
X43108523Y-39017380D02*
X42537095Y-39017380D01*
X42822809Y-39017380D02*
X42822809Y-38017380D01*
X42727571Y-38160238D01*
X42632333Y-38255476D01*
X42537095Y-38303095D01*
X43441857Y-38017380D02*
X44060904Y-38017380D01*
X43727571Y-38398333D01*
X43870428Y-38398333D01*
X43965666Y-38445952D01*
X44013285Y-38493571D01*
X44060904Y-38588809D01*
X44060904Y-38826904D01*
X44013285Y-38922142D01*
X43965666Y-38969761D01*
X43870428Y-39017380D01*
X43584714Y-39017380D01*
X43489476Y-38969761D01*
X43441857Y-38922142D01*
X65941380Y-73286857D02*
X65465190Y-73620190D01*
X65941380Y-73858285D02*
X64941380Y-73858285D01*
X64941380Y-73477333D01*
X64989000Y-73382095D01*
X65036619Y-73334476D01*
X65131857Y-73286857D01*
X65274714Y-73286857D01*
X65369952Y-73334476D01*
X65417571Y-73382095D01*
X65465190Y-73477333D01*
X65465190Y-73858285D01*
X65941380Y-72334476D02*
X65941380Y-72905904D01*
X65941380Y-72620190D02*
X64941380Y-72620190D01*
X65084238Y-72715428D01*
X65179476Y-72810666D01*
X65227095Y-72905904D01*
X65274714Y-71477333D02*
X65941380Y-71477333D01*
X64893761Y-71715428D02*
X65608047Y-71953523D01*
X65608047Y-71334476D01*
X78605142Y-39568380D02*
X78271809Y-39092190D01*
X78033714Y-39568380D02*
X78033714Y-38568380D01*
X78414666Y-38568380D01*
X78509904Y-38616000D01*
X78557523Y-38663619D01*
X78605142Y-38758857D01*
X78605142Y-38901714D01*
X78557523Y-38996952D01*
X78509904Y-39044571D01*
X78414666Y-39092190D01*
X78033714Y-39092190D01*
X79557523Y-39568380D02*
X78986095Y-39568380D01*
X79271809Y-39568380D02*
X79271809Y-38568380D01*
X79176571Y-38711238D01*
X79081333Y-38806476D01*
X78986095Y-38854095D01*
X80414666Y-38568380D02*
X80224190Y-38568380D01*
X80128952Y-38616000D01*
X80081333Y-38663619D01*
X79986095Y-38806476D01*
X79938476Y-38996952D01*
X79938476Y-39377904D01*
X79986095Y-39473142D01*
X80033714Y-39520761D01*
X80128952Y-39568380D01*
X80319428Y-39568380D01*
X80414666Y-39520761D01*
X80462285Y-39473142D01*
X80509904Y-39377904D01*
X80509904Y-39139809D01*
X80462285Y-39044571D01*
X80414666Y-38996952D01*
X80319428Y-38949333D01*
X80128952Y-38949333D01*
X80033714Y-38996952D01*
X79986095Y-39044571D01*
X79938476Y-39139809D01*
X58211778Y-28820905D02*
X58061414Y-28259426D01*
X57674811Y-28625465D02*
X58016831Y-27685773D01*
X58374809Y-27816066D01*
X58448017Y-27893387D01*
X58476478Y-27954421D01*
X58488651Y-28060202D01*
X58439791Y-28194444D01*
X58362471Y-28267652D01*
X58301437Y-28296112D01*
X58195656Y-28308286D01*
X57837678Y-28177993D01*
X59106723Y-29146639D02*
X58569756Y-28951199D01*
X58838240Y-29048919D02*
X59180260Y-28109226D01*
X59041905Y-28210895D01*
X58919837Y-28267816D01*
X58814056Y-28279990D01*
X59761974Y-28320953D02*
X60388436Y-28548966D01*
X59643691Y-29342079D01*
X78605142Y-36393380D02*
X78271809Y-35917190D01*
X78033714Y-36393380D02*
X78033714Y-35393380D01*
X78414666Y-35393380D01*
X78509904Y-35441000D01*
X78557523Y-35488619D01*
X78605142Y-35583857D01*
X78605142Y-35726714D01*
X78557523Y-35821952D01*
X78509904Y-35869571D01*
X78414666Y-35917190D01*
X78033714Y-35917190D01*
X79557523Y-36393380D02*
X78986095Y-36393380D01*
X79271809Y-36393380D02*
X79271809Y-35393380D01*
X79176571Y-35536238D01*
X79081333Y-35631476D01*
X78986095Y-35679095D01*
X80128952Y-35821952D02*
X80033714Y-35774333D01*
X79986095Y-35726714D01*
X79938476Y-35631476D01*
X79938476Y-35583857D01*
X79986095Y-35488619D01*
X80033714Y-35441000D01*
X80128952Y-35393380D01*
X80319428Y-35393380D01*
X80414666Y-35441000D01*
X80462285Y-35488619D01*
X80509904Y-35583857D01*
X80509904Y-35631476D01*
X80462285Y-35726714D01*
X80414666Y-35774333D01*
X80319428Y-35821952D01*
X80128952Y-35821952D01*
X80033714Y-35869571D01*
X79986095Y-35917190D01*
X79938476Y-36012428D01*
X79938476Y-36202904D01*
X79986095Y-36298142D01*
X80033714Y-36345761D01*
X80128952Y-36393380D01*
X80319428Y-36393380D01*
X80414666Y-36345761D01*
X80462285Y-36298142D01*
X80509904Y-36202904D01*
X80509904Y-36012428D01*
X80462285Y-35917190D01*
X80414666Y-35869571D01*
X80319428Y-35821952D01*
X40132095Y-71890380D02*
X40132095Y-72699904D01*
X40179714Y-72795142D01*
X40227333Y-72842761D01*
X40322571Y-72890380D01*
X40513047Y-72890380D01*
X40608285Y-72842761D01*
X40655904Y-72795142D01*
X40703523Y-72699904D01*
X40703523Y-71890380D01*
X41703523Y-72890380D02*
X41132095Y-72890380D01*
X41417809Y-72890380D02*
X41417809Y-71890380D01*
X41322571Y-72033238D01*
X41227333Y-72128476D01*
X41132095Y-72176095D01*
X31750095Y-31412380D02*
X31750095Y-32221904D01*
X31797714Y-32317142D01*
X31845333Y-32364761D01*
X31940571Y-32412380D01*
X32131047Y-32412380D01*
X32226285Y-32364761D01*
X32273904Y-32317142D01*
X32321523Y-32221904D01*
X32321523Y-31412380D01*
X32750095Y-31507619D02*
X32797714Y-31460000D01*
X32892952Y-31412380D01*
X33131047Y-31412380D01*
X33226285Y-31460000D01*
X33273904Y-31507619D01*
X33321523Y-31602857D01*
X33321523Y-31698095D01*
X33273904Y-31840952D01*
X32702476Y-32412380D01*
X33321523Y-32412380D01*
X69469095Y-52875380D02*
X69469095Y-53684904D01*
X69516714Y-53780142D01*
X69564333Y-53827761D01*
X69659571Y-53875380D01*
X69850047Y-53875380D01*
X69945285Y-53827761D01*
X69992904Y-53780142D01*
X70040523Y-53684904D01*
X70040523Y-52875380D01*
X70421476Y-52875380D02*
X71040523Y-52875380D01*
X70707190Y-53256333D01*
X70850047Y-53256333D01*
X70945285Y-53303952D01*
X70992904Y-53351571D01*
X71040523Y-53446809D01*
X71040523Y-53684904D01*
X70992904Y-53780142D01*
X70945285Y-53827761D01*
X70850047Y-53875380D01*
X70564333Y-53875380D01*
X70469095Y-53827761D01*
X70421476Y-53780142D01*
M02*
