M48
; DRILL file {KiCad (5.1.2-1)-1} date Sunday, October 10, 2021 at 03:57:46 PM
; FORMAT={-:-/ absolute / inch / decimal}
; #@! TF.CreationDate,2021-10-10T15:57:46-04:00
; #@! TF.GenerationSoftware,Kicad,Pcbnew,(5.1.2-1)-1
FMAT,2
INCH
T1C0.0157
T2C0.0315
T3C0.0394
T4C0.0394
T5C0.0433
T6C0.0472
T7C0.1378
%
G90
G05
T1
X0.8661Y-1.0827
X0.9843Y-2.1063
X1.2205Y-1.0236
X1.3583Y-3.2087
X1.4764Y-2.126
X1.6339Y-1.122
X1.7717Y-2.185
X1.7848Y-3.2152
X1.8504Y-1.122
X1.9488Y-1.9488
X2.0669Y-0.8465
X2.0866Y-1.7913
X2.6969Y-0.9055
X2.9921Y-1.8898
T2
X1.535Y-1.55
X1.835Y-1.55
X1.1931Y-1.775
X1.39Y-1.775
X2.97Y-1.54
X3.27Y-1.54
X2.485Y-2.71
X2.485Y-3.01
X1.535Y-1.8
X1.835Y-1.8
X2.185Y-2.9
X2.185Y-3.2
X1.535Y-1.675
X1.835Y-1.675
X0.72Y-1.585
X1.02Y-1.585
X0.72Y-1.71
X1.02Y-1.71
X2.36Y-2.6381
X2.36Y-2.835
X2.159Y-1.543
X2.4409Y-1.4404
X2.615Y-2.195
X2.615Y-2.295
X2.615Y-2.395
X2.615Y-2.495
X2.615Y-2.595
X2.615Y-2.695
X2.615Y-2.795
X2.615Y-2.895
X2.915Y-2.195
X2.915Y-2.295
X2.915Y-2.395
X2.915Y-2.495
X2.915Y-2.595
X2.915Y-2.695
X2.915Y-2.795
X2.915Y-2.895
X2.44Y-1.975
X2.625Y-2.0423
X2.97Y-1.415
X3.27Y-1.415
X1.1831Y-1.22
X1.38Y-1.22
X1.13Y-1.35
X1.13Y-1.45
X1.13Y-1.55
X1.13Y-1.65
X1.43Y-1.35
X1.43Y-1.45
X1.43Y-1.55
X1.43Y-1.65
X2.1488Y-1.163
X2.4307Y-1.2656
X2.3Y-3.195
X2.4Y-3.095
X2.4Y-3.295
X2.645Y-3.02
X2.8419Y-3.02
X2.6231Y-1.765
X2.82Y-1.765
X2.53Y-3.27
X2.83Y-3.27
X0.72Y-1.46
X1.02Y-1.46
X2.565Y-1.34
X2.565Y-1.44
X2.565Y-1.54
X2.565Y-1.64
X2.865Y-1.34
X2.865Y-1.44
X2.865Y-1.54
X2.865Y-1.64
X1.535Y-1.3
X1.835Y-1.3
X1.14Y-1.9
X1.44Y-1.9
X2.525Y-3.145
X2.825Y-3.145
X1.535Y-1.425
X1.835Y-1.425
X2.6231Y-1.21
X2.82Y-1.21
T3
X2.2639Y-2.1885
X2.2838Y-2.0752
X2.2472Y-0.848
X2.3456Y-0.848
X2.444Y-0.848
X1.0433Y-0.848
X1.1417Y-0.848
X1.2402Y-0.848
X1.4971Y-2.6946
X1.6121Y-2.6946
X1.9629Y-2.6698
X2.0779Y-2.6698
X2.2531Y-2.455
X2.327Y-2.3669
X1.2267Y-2.8261
X1.3417Y-2.8261
T4
X0.9843Y-2.1063
X0.605Y-1.585
X2.955Y-3.255
X2.1668Y-1.0259
X1.363Y-3.2091
X2.2173Y-1.6698
X1.8504Y-1.122
X1.7858Y-3.2181
X2.5Y-1.063
X3.245Y-1.28
X2.485Y-2.515
X1.2205Y-1.0236
X0.8661Y-1.0827
X1.6339Y-1.122
X0.605Y-1.44
X1.4764Y-2.126
X2.0669Y-0.8465
X1.9488Y-1.9488
X2.4016Y-1.6732
X3.245Y-1.675
X2.6969Y-0.9055
X2.345Y-2.965
X1.56Y-1.935
X1.7717Y-2.185
X2.9921Y-1.8898
X3.0Y-1.28
X2.0866Y-1.7913
X3.0Y-1.675
T5
X1.51Y-3.02
X1.61Y-3.02
X1.71Y-3.02
T6
X1.16Y-2.33
X1.16Y-2.48
X1.505Y-2.33
X1.505Y-2.48
X1.335Y-2.33
X1.335Y-2.48
T7
X3.1693Y-2.7165
X0.8661Y-2.7165
T0
M30
