G04 #@! TF.GenerationSoftware,KiCad,Pcbnew,(5.1.2-1)-1*
G04 #@! TF.CreationDate,2021-10-10T15:57:48-04:00*
G04 #@! TF.ProjectId,my_fav_reverb,6d795f66-6176-45f7-9265-766572622e6b,rev?*
G04 #@! TF.SameCoordinates,Original*
G04 #@! TF.FileFunction,Copper,L1,Top*
G04 #@! TF.FilePolarity,Positive*
%FSLAX46Y46*%
G04 Gerber Fmt 4.6, Leading zero omitted, Abs format (unit mm)*
G04 Created by KiCad (PCBNEW (5.1.2-1)-1) date 2021-10-10 15:57:48*
%MOMM*%
%LPD*%
G04 APERTURE LIST*
%ADD10C,2.499360*%
%ADD11C,2.400000*%
%ADD12C,0.100000*%
%ADD13R,2.400000X2.400000*%
%ADD14C,1.600000*%
%ADD15C,1.600000*%
%ADD16C,1.800000*%
%ADD17R,1.500000X1.500000*%
%ADD18C,1.500000*%
%ADD19O,1.600000X1.600000*%
%ADD20R,1.600000X1.600000*%
%ADD21R,2.999740X2.999740*%
%ADD22C,2.999740*%
%ADD23R,1.905000X2.000000*%
%ADD24O,1.905000X2.000000*%
%ADD25C,0.800000*%
%ADD26C,0.812800*%
%ADD27C,0.250000*%
G04 APERTURE END LIST*
D10*
X45360000Y-81740000D03*
X34620000Y-81510000D03*
D11*
X57227935Y-62358047D03*
X59105517Y-60120431D03*
D12*
G36*
X58957609Y-58429833D02*
G01*
X60796115Y-59972523D01*
X59253425Y-61811029D01*
X57414919Y-60268339D01*
X58957609Y-58429833D01*
X58957609Y-58429833D01*
G37*
D11*
X57501972Y-55586777D03*
X58009198Y-52710153D03*
D12*
G36*
X57035807Y-51320006D02*
G01*
X59399345Y-51736762D01*
X58982589Y-54100300D01*
X56619051Y-53683544D01*
X57035807Y-51320006D01*
X57035807Y-51320006D01*
G37*
D11*
X49857000Y-67812800D03*
D13*
X52778000Y-67812800D03*
D11*
X31157000Y-71782800D03*
D13*
X34078000Y-71782800D03*
D11*
X38027000Y-68442800D03*
D13*
X40948000Y-68442800D03*
D10*
X49500000Y-49500000D03*
X52500000Y-21500000D03*
X68500000Y-23000000D03*
X47000000Y-28500000D03*
X45000000Y-55500000D03*
X41500000Y-28500000D03*
X31000000Y-26000000D03*
X22000000Y-27500000D03*
X53000000Y-45500000D03*
X76000000Y-48000000D03*
X37500000Y-54000000D03*
D14*
X62000000Y-36585075D03*
X54839542Y-39191268D03*
D15*
X54839542Y-39191268D02*
X54839542Y-39191268D01*
D10*
X25000000Y-53500000D03*
D16*
X59578100Y-21538100D03*
X62078100Y-21538100D03*
X57078100Y-21538100D03*
X29000000Y-21538100D03*
X31500000Y-21538100D03*
X26500000Y-21538100D03*
D17*
X60960000Y-83693000D03*
D18*
X60960000Y-78613000D03*
X58420000Y-81153000D03*
D19*
X72771000Y-34036000D03*
X65151000Y-41656000D03*
X72771000Y-36576000D03*
X65151000Y-39116000D03*
X72771000Y-39116000D03*
X65151000Y-36576000D03*
X72771000Y-41656000D03*
D20*
X65151000Y-34036000D03*
D14*
X30052000Y-30988000D03*
X35052000Y-30988000D03*
X66628000Y-44831000D03*
X71628000Y-44831000D03*
X71628000Y-30734000D03*
X66628000Y-30734000D03*
X35306000Y-45085000D03*
X30306000Y-45085000D03*
X61976000Y-50165000D03*
X66674463Y-51875101D03*
X59944000Y-67009000D03*
X59944000Y-72009000D03*
X67183000Y-76708000D03*
X72183000Y-76708000D03*
D21*
X38227000Y-62992000D03*
D22*
X38227000Y-59182000D03*
X33909000Y-59182000D03*
D21*
X33909000Y-62992000D03*
X29464000Y-62992000D03*
D22*
X29464000Y-59182000D03*
D10*
X15367000Y-36576000D03*
X15367000Y-40259000D03*
X59563000Y-75311000D03*
X63119000Y-63881000D03*
X39624000Y-49149000D03*
X56319423Y-42413475D03*
X82423000Y-42545000D03*
X55036514Y-26056826D03*
X82423000Y-32512000D03*
X75057000Y-82677000D03*
X61000000Y-42500000D03*
X76200000Y-42545000D03*
X76200000Y-32512000D03*
X63500000Y-27000000D03*
D19*
X18288000Y-37084000D03*
D14*
X25908000Y-37084000D03*
X25908000Y-40259000D03*
D19*
X18288000Y-40259000D03*
X18288000Y-43434000D03*
D14*
X25908000Y-43434000D03*
X71882000Y-83058000D03*
D19*
X64262000Y-83058000D03*
D14*
X55499000Y-73660000D03*
D19*
X55499000Y-81280000D03*
D14*
X36576000Y-48260000D03*
D19*
X28956000Y-48260000D03*
D14*
X46609000Y-39370000D03*
D19*
X38989000Y-39370000D03*
X38989000Y-42545000D03*
D14*
X46609000Y-42545000D03*
X71755000Y-79883000D03*
D19*
X64135000Y-79883000D03*
X46609000Y-45720000D03*
D14*
X38989000Y-45720000D03*
X46609000Y-33020000D03*
D19*
X38989000Y-33020000D03*
X38989000Y-36195000D03*
D14*
X46609000Y-36195000D03*
D19*
X63119000Y-76454000D03*
D14*
X63119000Y-68834000D03*
D19*
X83058000Y-39116000D03*
D14*
X75438000Y-39116000D03*
X61740231Y-32145845D03*
D15*
X61740231Y-32145845D02*
X61740231Y-32145845D01*
D14*
X54579773Y-29539652D03*
X83058000Y-35941000D03*
D19*
X75438000Y-35941000D03*
D23*
X38354000Y-76708000D03*
D24*
X40894000Y-76708000D03*
X43434000Y-76708000D03*
D20*
X28702000Y-34290000D03*
D19*
X36322000Y-41910000D03*
X28702000Y-36830000D03*
X36322000Y-39370000D03*
X28702000Y-39370000D03*
X36322000Y-36830000D03*
X28702000Y-41910000D03*
X36322000Y-34290000D03*
D20*
X66421000Y-55753000D03*
D19*
X74041000Y-73533000D03*
X66421000Y-58293000D03*
X74041000Y-70993000D03*
X66421000Y-60833000D03*
X74041000Y-68453000D03*
X66421000Y-63373000D03*
X74041000Y-65913000D03*
X66421000Y-65913000D03*
X74041000Y-63373000D03*
X66421000Y-68453000D03*
X74041000Y-60833000D03*
X66421000Y-70993000D03*
X74041000Y-58293000D03*
X66421000Y-73533000D03*
X74041000Y-55753000D03*
D25*
X45000000Y-55500000D03*
X41500000Y-28500000D03*
X45333781Y-81666219D03*
X34500000Y-81500000D03*
X37500000Y-54000000D03*
X25000000Y-53500000D03*
X31000000Y-26000000D03*
X22000000Y-27500000D03*
X47000000Y-28500000D03*
X68500000Y-23000000D03*
X49500000Y-49500000D03*
X52500000Y-21500000D03*
X53000000Y-45500000D03*
X76000000Y-48000000D03*
D26*
X45000000Y-55500000D02*
X43500000Y-48000000D01*
X43500000Y-48000000D02*
X41500000Y-28500000D01*
X41500000Y-28500000D02*
X41500000Y-28500000D01*
X45333781Y-81666219D02*
X34500000Y-81500000D01*
X34500000Y-81500000D02*
X34500000Y-81500000D01*
X37500000Y-54000000D02*
X25000000Y-53500000D01*
X25000000Y-53500000D02*
X25000000Y-53500000D01*
X31000000Y-26000000D02*
X22000000Y-27500000D01*
X22000000Y-27500000D02*
X22000000Y-27500000D01*
D27*
X47000000Y-28500000D02*
X51500000Y-31500000D01*
X51500000Y-31500000D02*
X56000000Y-32500000D01*
X56000000Y-32500000D02*
X60500000Y-28500000D01*
X60500000Y-28500000D02*
X61500000Y-25000000D01*
X61500000Y-25000000D02*
X63500000Y-24500000D01*
X63500000Y-24500000D02*
X68500000Y-24000000D01*
X68500000Y-24000000D02*
X68500000Y-23000000D01*
X68500000Y-23000000D02*
X68500000Y-23000000D01*
X49500000Y-49500000D02*
X47000000Y-48500000D01*
X47000000Y-48500000D02*
X45000000Y-47000000D01*
X45000000Y-47000000D02*
X44500000Y-41000000D01*
X44500000Y-41000000D02*
X44500000Y-24000000D01*
X44500000Y-24000000D02*
X52500000Y-21500000D01*
X52500000Y-21500000D02*
X52500000Y-21500000D01*
D26*
X53000000Y-45500000D02*
X59500000Y-47000000D01*
X59500000Y-47000000D02*
X76000000Y-48000000D01*
X76000000Y-48000000D02*
X76000000Y-48000000D01*
M02*
