M48
; DRILL file {KiCad (5.1.2-1)-1} date Wednesday, May 12, 2021 at 11:48:52 PM
; FORMAT={-:-/ absolute / inch / decimal}
; #@! TF.CreationDate,2021-05-12T23:48:52-04:00
; #@! TF.GenerationSoftware,Kicad,Pcbnew,(5.1.2-1)-1
FMAT,2
INCH
T1C0.0157
T2C0.0236
T3C0.0295
T4C0.0315
T5C0.0394
T6C0.0394
T7C0.1378
%
G90
G05
T1
X1.833Y-2.59
T2
X1.109Y-2.3281
X1.183Y-2.355
X3.193Y-1.997
X3.193Y-2.0561
X3.199Y-1.618
X3.199Y-1.6771
T3
X1.392Y-2.468
X1.4241Y-2.5063
X1.4563Y-2.5446
X0.769Y-2.021
X0.819Y-2.021
X0.869Y-2.021
T4
X2.1014Y-1.6969
X2.204Y-1.415
X2.3362Y-1.5698
X2.529Y-1.34
X1.2855Y-2.0518
X1.412Y-1.901
X2.134Y-2.572
X2.434Y-2.572
X1.366Y-1.247
X1.551Y-1.1797
X1.1992Y-2.4762
X1.392Y-2.706
X1.511Y-2.68
X1.811Y-2.68
X1.4634Y-1.3531
X1.566Y-1.635
X2.81Y-1.3652
X2.96Y-1.625
X0.586Y-2.286
X0.886Y-2.286
X1.3665Y-2.1682
X1.493Y-2.319
X0.757Y-1.18
X0.757Y-1.28
X0.757Y-1.38
X0.757Y-1.48
X0.757Y-1.58
X0.757Y-1.68
X0.757Y-1.78
X1.057Y-1.18
X1.057Y-1.28
X1.057Y-1.38
X1.057Y-1.48
X1.057Y-1.58
X1.057Y-1.68
X1.057Y-1.78
X1.574Y-1.029
X1.8559Y-1.1316
X1.924Y-2.568
X1.924Y-2.868
X2.776Y-1.796
X2.776Y-2.096
X2.753Y-2.191
X2.753Y-2.3879
X1.806Y-1.721
X2.0658Y-1.871
X1.7014Y-1.5339
X1.7356Y-1.4399
X1.7698Y-1.346
X1.804Y-1.252
X1.9833Y-1.6365
X2.0175Y-1.5425
X2.0517Y-1.4486
X2.0859Y-1.3546
X1.5042Y-2.1618
X1.734Y-1.969
X1.9671Y-0.8604
X2.0013Y-0.7664
X2.0355Y-0.6725
X2.0697Y-0.5785
X2.249Y-0.963
X2.2832Y-0.869
X2.3174Y-0.7751
X2.3516Y-0.6811
X1.07Y-0.94
X1.2998Y-1.1328
X0.991Y-2.067
X0.991Y-2.367
X1.764Y-2.141
X1.764Y-2.241
X1.764Y-2.341
X1.764Y-2.441
X2.064Y-2.141
X2.064Y-2.241
X2.064Y-2.341
X2.064Y-2.441
X2.4304Y-1.2529
X2.533Y-0.971
X1.6257Y-1.383
X1.693Y-1.198
X2.194Y-1.871
X2.194Y-2.171
X2.506Y-2.138
X2.506Y-2.438
X2.348Y-1.708
X2.348Y-2.008
X2.448Y-1.708
X2.448Y-2.008
X2.548Y-1.708
X2.548Y-2.008
X2.648Y-1.708
X2.648Y-2.008
X2.5541Y-1.5732
X2.748Y-1.539
X1.5606Y-0.7559
X1.856Y-0.808
X1.51Y-2.809
X1.81Y-2.809
X1.64Y-2.272
X1.64Y-2.572
X1.4772Y-2.0255
X1.628Y-1.899
X2.629Y-2.137
X2.629Y-2.437
X2.65Y-1.237
X2.6842Y-1.4309
X1.779Y-1.853
X2.0388Y-2.003
X2.5366Y-2.5691
X2.832Y-2.517
X2.1941Y-2.696
X2.391Y-2.696
X1.395Y-1.758
X1.695Y-1.758
X2.922Y-1.741
X2.922Y-2.041
X2.259Y-1.33
X2.3616Y-1.0481
X1.1702Y-2.1272
X1.363Y-2.357
X0.586Y-2.164
X0.886Y-2.164
X1.6111Y-0.9014
X1.893Y-1.004
X2.514Y-0.636
X2.664Y-0.8958
T5
X1.947Y-1.165
X2.1349Y-1.2334
X1.9921Y-1.0436
X2.18Y-1.112
X2.194Y-2.2601
X2.194Y-2.457
X2.3909Y-2.3586
X1.405Y-0.744
X1.4734Y-0.9319
T6
X0.639Y-2.031
X1.189Y-1.68
X2.786Y-1.68
X1.19Y-1.338
X1.783Y-2.946
X2.889Y-2.371
X0.623Y-1.313
X1.435Y-1.08
X2.442Y-0.83
X0.623Y-1.596
X3.125Y-1.42
X3.275Y-1.42
X3.114Y-2.212
X3.264Y-2.212
X0.858Y-2.417
X1.19Y-1.48
X0.717Y-2.417
X1.37Y-1.51
X2.68Y-1.053
X0.623Y-1.454
X2.058Y-2.841
X3.124Y-1.833
X3.274Y-1.833
X0.623Y-1.738
X2.912Y-2.157
T7
X0.7Y-2.94
X0.7Y-0.7
X3.15Y-0.7
X3.15Y-2.94
T0
M30
