G04 #@! TF.GenerationSoftware,KiCad,Pcbnew,(5.1.2-1)-1*
G04 #@! TF.CreationDate,2021-05-12T23:48:54-04:00*
G04 #@! TF.ProjectId,Noise Cornucopia - MFOS,4e6f6973-6520-4436-9f72-6e75636f7069,rev?*
G04 #@! TF.SameCoordinates,Original*
G04 #@! TF.FileFunction,Legend,Top*
G04 #@! TF.FilePolarity,Positive*
%FSLAX46Y46*%
G04 Gerber Fmt 4.6, Leading zero omitted, Abs format (unit mm)*
G04 Created by KiCad (PCBNEW (5.1.2-1)-1) date 2021-05-12 23:48:54*
%MOMM*%
%LPD*%
G04 APERTURE LIST*
%ADD10C,0.120000*%
%ADD11C,0.150000*%
G04 APERTURE END LIST*
D10*
X80695800Y-27406600D02*
X80746600Y-27355800D01*
X80619600Y-27432000D02*
X80695800Y-27406600D01*
X80543400Y-27381200D02*
X80619600Y-27432000D01*
X80518000Y-27279600D02*
X80543400Y-27381200D01*
X49301400Y-78816200D02*
X49834800Y-79425800D01*
X49225200Y-79603600D02*
X49301400Y-78816200D01*
X48514000Y-79222600D02*
X49225200Y-79603600D01*
X48183800Y-79349600D02*
X48514000Y-79222600D01*
X47574200Y-78155800D02*
X48183800Y-79349600D01*
X47371000Y-79222600D02*
X47574200Y-78155800D01*
X47244000Y-78409800D02*
X47371000Y-79222600D01*
X46812200Y-78486000D02*
X47244000Y-78409800D01*
X46532800Y-77978000D02*
X46888400Y-79476600D01*
X46329600Y-79070200D02*
X46532800Y-77978000D01*
X45694600Y-79121000D02*
X46329600Y-79070200D01*
X45567600Y-77698600D02*
X45694600Y-79121000D01*
X45186600Y-79756000D02*
X45567600Y-77698600D01*
X45135800Y-78790800D02*
X45186600Y-79756000D01*
X45186600Y-77470000D02*
X45135800Y-78790800D01*
X44246800Y-78486000D02*
X45186600Y-77470000D01*
X44272200Y-77470000D02*
X44246800Y-78486000D01*
X43916600Y-78435200D02*
X44272200Y-77470000D01*
X43535600Y-78587600D02*
X43916600Y-78435200D01*
X43535600Y-77851000D02*
X43535600Y-78587600D01*
X43332400Y-77952600D02*
X43535600Y-77851000D01*
X43027600Y-78663800D02*
X43332400Y-77952600D01*
X42900600Y-77876400D02*
X43027600Y-78663800D01*
X42240200Y-78714600D02*
X42900600Y-77876400D01*
X41884600Y-78130400D02*
X42240200Y-78714600D01*
X41681400Y-78714600D02*
X41884600Y-78130400D01*
X41351200Y-78079600D02*
X41681400Y-78714600D01*
X41148000Y-78765400D02*
X41351200Y-78079600D01*
X40589200Y-78054200D02*
X41148000Y-78765400D01*
X40309800Y-78841600D02*
X40589200Y-78054200D01*
X39344600Y-78867000D02*
X40309800Y-78841600D01*
X38963600Y-78206600D02*
X39344600Y-78867000D01*
X38506400Y-78841600D02*
X38963600Y-78206600D01*
X38227000Y-78206600D02*
X38506400Y-78841600D01*
X37820600Y-78638400D02*
X38227000Y-78206600D01*
X37592000Y-78206600D02*
X37820600Y-78638400D01*
X37084000Y-78765400D02*
X37592000Y-78206600D01*
X36830000Y-78282800D02*
X37084000Y-78765400D01*
X36525200Y-78740000D02*
X36830000Y-78282800D01*
X36347400Y-78181200D02*
X36525200Y-78740000D01*
X35864800Y-78765400D02*
X36347400Y-78181200D01*
X35560000Y-78282800D02*
X35864800Y-78765400D01*
X35229800Y-78790800D02*
X35560000Y-78282800D01*
X35026600Y-78206600D02*
X35229800Y-78790800D01*
X34366200Y-78765400D02*
X35026600Y-78206600D01*
X34315400Y-78232000D02*
X34366200Y-78765400D01*
X33680400Y-78765400D02*
X34315400Y-78232000D01*
X33502600Y-78232000D02*
X33680400Y-78765400D01*
X33147000Y-78816200D02*
X33502600Y-78232000D01*
X30073600Y-74701400D02*
X30581600Y-74676000D01*
X30861000Y-75920600D02*
X30073600Y-74701400D01*
X30200600Y-75996800D02*
X30861000Y-75920600D01*
X30429200Y-75971400D02*
X30200600Y-75996800D01*
X29921200Y-75514200D02*
X30429200Y-75971400D01*
X30149800Y-74574400D02*
X29921200Y-75514200D01*
X30175200Y-74726800D02*
X30149800Y-74574400D01*
X30327600Y-75311000D02*
X30175200Y-74726800D01*
X30556200Y-76047600D02*
X30327600Y-75311000D01*
X30607000Y-75946000D02*
X30556200Y-76047600D01*
X30327600Y-75539600D02*
X30607000Y-75946000D01*
X30353000Y-75260200D02*
X30327600Y-75539600D01*
X28778200Y-73075800D02*
X28854400Y-73710800D01*
X28829000Y-73228200D02*
X28778200Y-73075800D01*
X28956000Y-73660000D02*
X28829000Y-73228200D01*
X29235400Y-74066400D02*
X28956000Y-73660000D01*
X29006800Y-74193400D02*
X29235400Y-74066400D01*
X28905200Y-73939400D02*
X29006800Y-74193400D01*
X28956000Y-73660000D02*
X28905200Y-73939400D01*
X29464000Y-72923400D02*
X29260800Y-73329800D01*
X29718000Y-73152000D02*
X29464000Y-72923400D01*
X29794200Y-73660000D02*
X29718000Y-73152000D01*
X29819600Y-73863200D02*
X29794200Y-73660000D01*
X29997400Y-74193400D02*
X29819600Y-73863200D01*
X29718000Y-74320400D02*
X29997400Y-74193400D01*
X29667200Y-74117200D02*
X29718000Y-74320400D01*
X29870400Y-73660000D02*
X29667200Y-74117200D01*
X30302200Y-73228200D02*
X29895800Y-72745600D01*
X29997400Y-73228200D02*
X30302200Y-73228200D01*
X29845000Y-72923400D02*
X29997400Y-73228200D01*
X30175200Y-73050400D02*
X29845000Y-72923400D01*
X30581600Y-73177400D02*
X30175200Y-73050400D01*
X30683200Y-73380600D02*
X30581600Y-73177400D01*
X30708600Y-73634600D02*
X30683200Y-73380600D01*
X30861000Y-73939400D02*
X30708600Y-73634600D01*
X30937200Y-74117200D02*
X30861000Y-73939400D01*
X30759400Y-74447400D02*
X30937200Y-74117200D01*
X30480000Y-74295000D02*
X30759400Y-74447400D01*
X30505400Y-74091800D02*
X30480000Y-74295000D01*
X30607000Y-73837800D02*
X30505400Y-74091800D01*
X30657800Y-73329800D02*
X30607000Y-73837800D01*
X28117800Y-73152000D02*
X28244800Y-73202800D01*
X27940000Y-73355200D02*
X28117800Y-73152000D01*
X27863800Y-73177400D02*
X27940000Y-73355200D01*
X23114000Y-72593200D02*
X23342600Y-72466200D01*
X22961600Y-72390000D02*
X23114000Y-72593200D01*
X26974800Y-75082400D02*
X27076400Y-75158600D01*
X26822400Y-75412600D02*
X26974800Y-75082400D01*
X26720800Y-74930000D02*
X26822400Y-75412600D01*
X24511000Y-75133200D02*
X24511000Y-74701400D01*
X24866600Y-74980800D02*
X24511000Y-75133200D01*
X24942800Y-75031600D02*
X24866600Y-74980800D01*
X24968200Y-74701400D02*
X24942800Y-75031600D01*
X25019000Y-74650600D02*
X24968200Y-74701400D01*
X25120600Y-74193400D02*
X25019000Y-74650600D01*
X26593800Y-73660000D02*
X26695400Y-73812400D01*
X26416000Y-73634600D02*
X26593800Y-73660000D01*
X26339800Y-73406000D02*
X26416000Y-73634600D01*
X24993600Y-73126600D02*
X25196800Y-72898000D01*
X24917400Y-73050400D02*
X24993600Y-73126600D01*
X24765000Y-73152000D02*
X24917400Y-73050400D01*
X24663400Y-72847200D02*
X24765000Y-73152000D01*
X21386800Y-71577200D02*
X22225000Y-71831200D01*
X20980400Y-70688200D02*
X21386800Y-71577200D01*
X19964400Y-69545200D02*
X20980400Y-70688200D01*
X20320000Y-68478400D02*
X19964400Y-69545200D01*
X20980400Y-67360800D02*
X20320000Y-68478400D01*
X20523200Y-66700400D02*
X20980400Y-67360800D01*
X22987000Y-65481200D02*
X20523200Y-66700400D01*
X20116800Y-66014600D02*
X22987000Y-65481200D01*
X20878800Y-64998600D02*
X20116800Y-66014600D01*
X19710400Y-65405000D02*
X20878800Y-64998600D01*
X19989800Y-64262000D02*
X19710400Y-65405000D01*
X19278600Y-65328800D02*
X19989800Y-64262000D01*
X18110200Y-64363600D02*
X19278600Y-65328800D01*
X18389600Y-65354200D02*
X18110200Y-64363600D01*
X19354800Y-65684400D02*
X18389600Y-65354200D01*
X19354800Y-68351400D02*
X19354800Y-65684400D01*
X19253200Y-70078600D02*
X19354800Y-68351400D01*
X21513800Y-72059800D02*
X19253200Y-70078600D01*
X23368000Y-72923400D02*
X21513800Y-72059800D01*
X23901400Y-74904600D02*
X23368000Y-72923400D01*
X23622000Y-75946000D02*
X23901400Y-74904600D01*
X22834600Y-76809600D02*
X23622000Y-75946000D01*
X24917400Y-77622400D02*
X22834600Y-76809600D01*
X25831800Y-75717400D02*
X24917400Y-77622400D01*
X26644600Y-76098400D02*
X25831800Y-75717400D01*
X28067000Y-77444600D02*
X26644600Y-76098400D01*
X30480000Y-76581000D02*
X28067000Y-77444600D01*
X27355800Y-75336400D02*
X30480000Y-76581000D01*
X27406600Y-73660000D02*
X27355800Y-75336400D01*
X30302200Y-73609200D02*
X27406600Y-73660000D01*
X30886400Y-73101200D02*
X30302200Y-73609200D01*
X30378400Y-72644000D02*
X30886400Y-73101200D01*
X28625800Y-72542400D02*
X30378400Y-72644000D01*
X27432000Y-72745600D02*
X28625800Y-72542400D01*
X26898600Y-71551800D02*
X27432000Y-72745600D01*
X24815800Y-67208400D02*
X24663400Y-67005200D01*
X24841200Y-66649600D02*
X24815800Y-67208400D01*
X25323800Y-66294000D02*
X24841200Y-66649600D01*
X26416000Y-66090800D02*
X25323800Y-66294000D01*
X27787600Y-65684400D02*
X26416000Y-66090800D01*
X28702000Y-65786000D02*
X27787600Y-65684400D01*
X29210000Y-66802000D02*
X28702000Y-65786000D01*
X29260800Y-67513200D02*
X29210000Y-66802000D01*
X27965400Y-68072000D02*
X29260800Y-67513200D01*
X28473400Y-68580000D02*
X27965400Y-68072000D01*
X28549600Y-69418200D02*
X28473400Y-68580000D01*
X28321000Y-70002400D02*
X28549600Y-69418200D01*
X27711400Y-70612000D02*
X28321000Y-70002400D01*
X26797000Y-71729600D02*
X27000200Y-71297800D01*
X23647400Y-72161400D02*
X26797000Y-71729600D01*
X22250400Y-71856600D02*
X23647400Y-72161400D01*
X22072600Y-71120000D02*
X22250400Y-71856600D01*
X22199600Y-69875400D02*
X22072600Y-71120000D01*
X22428200Y-69646800D02*
X22199600Y-69875400D01*
X22250400Y-69392800D02*
X22428200Y-69646800D01*
X21717000Y-68630800D02*
X22250400Y-69392800D01*
X21717000Y-67995800D02*
X21717000Y-68630800D01*
X21793200Y-67157600D02*
X21717000Y-67995800D01*
X22123400Y-66776600D02*
X21793200Y-67157600D01*
X22606000Y-66548000D02*
X22123400Y-66776600D01*
X23114000Y-66421000D02*
X22606000Y-66548000D01*
X23901400Y-66522600D02*
X23114000Y-66421000D01*
X24714200Y-67005200D02*
X23901400Y-66522600D01*
X27101800Y-67513200D02*
X26644600Y-66979800D01*
X26797000Y-67640200D02*
X27101800Y-67513200D01*
X26263600Y-67462400D02*
X26797000Y-67640200D01*
X26314400Y-67157600D02*
X26263600Y-67462400D01*
X26670000Y-66903600D02*
X26314400Y-67157600D01*
X23469600Y-67538600D02*
X22987000Y-67487800D01*
X23698200Y-67995800D02*
X23469600Y-67538600D01*
X23317200Y-68173600D02*
X23698200Y-67995800D01*
X22987000Y-67919600D02*
X23317200Y-68173600D01*
X22961600Y-67513200D02*
X22987000Y-67919600D01*
X25527000Y-67564000D02*
X25120600Y-67487800D01*
X27559000Y-67843400D02*
X25527000Y-67564000D01*
X28219400Y-67437000D02*
X27559000Y-67843400D01*
X27863800Y-66878200D02*
X28219400Y-67437000D01*
X26517600Y-66598800D02*
X27863800Y-66878200D01*
X25273000Y-66649600D02*
X26517600Y-66598800D01*
X25171400Y-67564000D02*
X25273000Y-66649600D01*
X24282400Y-67081400D02*
X23012400Y-67208400D01*
X24307800Y-67589400D02*
X24282400Y-67081400D01*
X23977600Y-68122800D02*
X24307800Y-67589400D01*
X23190200Y-68656200D02*
X23977600Y-68122800D01*
X22428200Y-68986400D02*
X23190200Y-68656200D01*
X22174200Y-68630800D02*
X22428200Y-68986400D01*
X22377400Y-67767200D02*
X22174200Y-68630800D01*
X22987000Y-67233800D02*
X22377400Y-67767200D01*
X34925000Y-72796400D02*
X35229800Y-73456800D01*
X34264600Y-72263000D02*
X34925000Y-72796400D01*
X33477200Y-72110600D02*
X34264600Y-72263000D01*
X32994600Y-71983600D02*
X33477200Y-72110600D01*
X32105600Y-71653400D02*
X32994600Y-71983600D01*
X31064200Y-71399400D02*
X32105600Y-71653400D01*
X30048200Y-71348600D02*
X31064200Y-71399400D01*
X28752800Y-71221600D02*
X30048200Y-71348600D01*
X27990800Y-71094600D02*
X28752800Y-71221600D01*
X27076400Y-70916800D02*
X27990800Y-71094600D01*
X26466800Y-70612000D02*
X27076400Y-70916800D01*
X26263600Y-70307200D02*
X26466800Y-70612000D01*
X25069800Y-67894200D02*
X24358600Y-68300600D01*
X26263600Y-67894200D02*
X25069800Y-67894200D01*
X27076400Y-68021200D02*
X26263600Y-67894200D01*
X27609800Y-68478400D02*
X27076400Y-68021200D01*
X27965400Y-69138800D02*
X27609800Y-68478400D01*
X27584400Y-70078600D02*
X27965400Y-69138800D01*
X27051000Y-70459600D02*
X27584400Y-70078600D01*
X25450800Y-71247000D02*
X26289000Y-70789800D01*
X24815800Y-71450200D02*
X25450800Y-71247000D01*
X24206200Y-71501000D02*
X24815800Y-71450200D01*
X23469600Y-71526400D02*
X24206200Y-71501000D01*
X23266400Y-71120000D02*
X23469600Y-71526400D01*
X23037800Y-70459600D02*
X23266400Y-71120000D01*
X23215600Y-69697600D02*
X23037800Y-70459600D01*
X23520400Y-69164200D02*
X23215600Y-69697600D01*
X23825200Y-68732400D02*
X23520400Y-69164200D01*
X24460200Y-68275200D02*
X23825200Y-68732400D01*
X25654000Y-70688200D02*
X26060400Y-70612000D01*
X25247600Y-70942200D02*
X25654000Y-70688200D01*
X24612600Y-71018400D02*
X25247600Y-70942200D01*
X23774400Y-71247000D02*
X24612600Y-71018400D01*
X23545800Y-70485000D02*
X23774400Y-71247000D01*
X23647400Y-69773800D02*
X23545800Y-70485000D01*
X23825200Y-69342000D02*
X23647400Y-69773800D01*
X27406600Y-69875400D02*
X26847800Y-70358000D01*
X27559000Y-69367400D02*
X27406600Y-69875400D01*
X27432000Y-68859400D02*
X27559000Y-69367400D01*
X26974800Y-68326000D02*
X27432000Y-68859400D01*
X26568400Y-68249800D02*
X26974800Y-68326000D01*
X26085800Y-68173600D02*
X26568400Y-68249800D01*
X25628600Y-68173600D02*
X26085800Y-68173600D01*
X25095200Y-68300600D02*
X25628600Y-68173600D01*
X24638000Y-68580000D02*
X25095200Y-68300600D01*
X24358600Y-68834000D02*
X24638000Y-68580000D01*
X23876000Y-69291200D02*
X24358600Y-68834000D01*
X25654000Y-70358000D02*
X25831800Y-70434200D01*
X25476200Y-70434200D02*
X25654000Y-70358000D01*
X25196800Y-70586600D02*
X25476200Y-70434200D01*
X25019000Y-70485000D02*
X25196800Y-70586600D01*
X24917400Y-70764400D02*
X25019000Y-70485000D01*
X24612600Y-70180200D02*
X24917400Y-70764400D01*
X24409400Y-70840600D02*
X24612600Y-70180200D01*
X23901400Y-70764400D02*
X24409400Y-70840600D01*
X23774400Y-70408800D02*
X23901400Y-70764400D01*
X24155400Y-70612000D02*
X23774400Y-70408800D01*
X23926800Y-70434200D02*
X24155400Y-70612000D01*
X24231600Y-70459600D02*
X23926800Y-70434200D01*
X24028400Y-69799200D02*
X24231600Y-70459600D01*
X24307800Y-70129400D02*
X24028400Y-69799200D01*
X24282400Y-69723000D02*
X24307800Y-70129400D01*
X24307800Y-69265800D02*
X24282400Y-69723000D01*
X26873200Y-70129400D02*
X26619200Y-69977000D01*
X26670000Y-69773800D02*
X26873200Y-70129400D01*
X26593800Y-69443600D02*
X26670000Y-69773800D01*
X26847800Y-69646800D02*
X26593800Y-69443600D01*
X27152600Y-69418200D02*
X26847800Y-69646800D01*
X27178000Y-69037200D02*
X27152600Y-69418200D01*
X26873200Y-69113400D02*
X27178000Y-69037200D01*
X26441400Y-69240400D02*
X26873200Y-69113400D01*
X26543000Y-69037200D02*
X26441400Y-69240400D01*
X26568400Y-68300600D02*
X26543000Y-69037200D01*
X26314400Y-68656200D02*
X26568400Y-68300600D01*
X26162000Y-69316600D02*
X26314400Y-68656200D01*
X25933400Y-69443600D02*
X26162000Y-69316600D01*
X25958800Y-69113400D02*
X25933400Y-69443600D01*
X25704800Y-68402200D02*
X25958800Y-69113400D01*
X25577800Y-69469000D02*
X25704800Y-68402200D01*
X25400000Y-69596000D02*
X25577800Y-69469000D01*
X25146000Y-68986400D02*
X25400000Y-69596000D01*
X24917400Y-68732400D02*
X25146000Y-68986400D01*
X25120600Y-69748400D02*
X24917400Y-68732400D01*
X25019000Y-70053200D02*
X25120600Y-69748400D01*
X24790400Y-69799200D02*
X25019000Y-70053200D01*
X24587200Y-69977000D02*
X24790400Y-69799200D01*
X24257000Y-69062600D02*
X24587200Y-69977000D01*
X26289000Y-69773800D02*
X26416000Y-69494400D01*
X25196800Y-70205600D02*
X25069800Y-70281800D01*
X25654000Y-70180200D02*
X25196800Y-70205600D01*
X26619200Y-71120000D02*
X25654000Y-70180200D01*
X27813000Y-71602600D02*
X26619200Y-71120000D01*
X29032200Y-71653400D02*
X27813000Y-71602600D01*
X30403800Y-71856600D02*
X29032200Y-71653400D01*
X31953200Y-72161400D02*
X30403800Y-71856600D01*
X33096200Y-72390000D02*
X31953200Y-72161400D01*
X34112200Y-72567800D02*
X33096200Y-72390000D01*
X34747200Y-73279000D02*
X34112200Y-72567800D01*
X35153600Y-74066400D02*
X34747200Y-73279000D01*
X35534600Y-73761600D02*
X35153600Y-74066400D01*
X35509200Y-73075800D02*
X35534600Y-73761600D01*
X34798000Y-72186800D02*
X35509200Y-73075800D01*
X32588200Y-71247000D02*
X34798000Y-72186800D01*
X31089600Y-71094600D02*
X32588200Y-71247000D01*
X28270200Y-70713600D02*
X31089600Y-71094600D01*
X27025600Y-70485000D02*
X28270200Y-70713600D01*
X26720800Y-70332600D02*
X27025600Y-70485000D01*
X26314400Y-69748400D02*
X26720800Y-70332600D01*
X50063400Y-14325600D02*
X50825400Y-13258800D01*
X49098200Y-15367000D02*
X50063400Y-14325600D01*
X49225200Y-14554200D02*
X48158400Y-13436600D01*
X47345600Y-16814800D02*
X49225200Y-14554200D01*
X42265600Y-13208000D02*
X45339000Y-13716000D01*
X41529000Y-13995400D02*
X42265600Y-13208000D01*
X40817800Y-14274800D02*
X40436800Y-13004800D01*
X42240200Y-14757400D02*
X40817800Y-14274800D01*
X41960800Y-16535400D02*
X42240200Y-14757400D01*
X37033200Y-14071600D02*
X37973000Y-13563600D01*
X36830000Y-14782800D02*
X37033200Y-14071600D01*
X37541200Y-15367000D02*
X34671000Y-13843000D01*
X37871400Y-17627600D02*
X37541200Y-15367000D01*
X22885400Y-22326600D02*
X23545800Y-21564600D01*
X23037800Y-24206200D02*
X22885400Y-22326600D01*
X23545800Y-25095200D02*
X20980400Y-24257000D01*
X24892000Y-27101800D02*
X23545800Y-25095200D01*
X18415000Y-22301200D02*
X17500600Y-22555200D01*
X19304000Y-23418800D02*
X18415000Y-22301200D01*
X19431000Y-24333200D02*
X20497800Y-21920200D01*
X19761200Y-26873200D02*
X19431000Y-24333200D01*
X16205200Y-26797000D02*
X16103600Y-27432000D01*
X16078200Y-23139400D02*
X16205200Y-26797000D01*
X15646400Y-26238200D02*
X13563600Y-23926800D01*
X16052800Y-29667200D02*
X15646400Y-26238200D01*
X31826200Y-49403000D02*
X31877000Y-48895000D01*
X32207200Y-49657000D02*
X31826200Y-49403000D01*
X32359600Y-49301400D02*
X32207200Y-49657000D01*
X32385000Y-48387000D02*
X32359600Y-49301400D01*
X32867600Y-48310800D02*
X32385000Y-48387000D01*
X33070800Y-48133000D02*
X32867600Y-48310800D01*
X33020000Y-47879000D02*
X33070800Y-48133000D01*
X32816800Y-47853600D02*
X33020000Y-47879000D01*
X32359600Y-48056800D02*
X32816800Y-47853600D01*
X30708600Y-49022000D02*
X31318200Y-48818800D01*
X30454600Y-48742600D02*
X30708600Y-49022000D01*
X30759400Y-48361600D02*
X30454600Y-48742600D01*
X31191200Y-48209200D02*
X30759400Y-48361600D01*
X31623000Y-47955200D02*
X31191200Y-48209200D01*
X31521400Y-47675800D02*
X31623000Y-47955200D01*
X31521400Y-47396400D02*
X31521400Y-47675800D01*
X31623000Y-47345600D02*
X31521400Y-47396400D01*
X31953200Y-47294800D02*
X31623000Y-47345600D01*
X32080200Y-47802800D02*
X31953200Y-47294800D01*
X31369000Y-49250600D02*
X32308800Y-47802800D01*
X32791400Y-45923200D02*
X32816800Y-45796200D01*
X32994600Y-46177200D02*
X32791400Y-45923200D01*
X33274000Y-46101000D02*
X32994600Y-46177200D01*
X33401000Y-45821600D02*
X33274000Y-46101000D01*
X33299400Y-45542200D02*
X33401000Y-45821600D01*
X33172400Y-45161200D02*
X33299400Y-45542200D01*
X33553400Y-45237400D02*
X33172400Y-45161200D01*
X33680400Y-45161200D02*
X33553400Y-45237400D01*
X33756600Y-44932600D02*
X33680400Y-45161200D01*
X33502600Y-44678600D02*
X33756600Y-44932600D01*
X33147000Y-44881800D02*
X33502600Y-44678600D01*
X32080200Y-46024800D02*
X32461200Y-45745400D01*
X31750000Y-45974000D02*
X32080200Y-46024800D01*
X31699200Y-45694600D02*
X31750000Y-45974000D01*
X32131000Y-45339000D02*
X31699200Y-45694600D01*
X32562800Y-45110400D02*
X32131000Y-45339000D01*
X32385000Y-45085000D02*
X32562800Y-45110400D01*
X32054800Y-44856400D02*
X32385000Y-45085000D01*
X32156400Y-44551600D02*
X32054800Y-44856400D01*
X32461200Y-44475400D02*
X32156400Y-44551600D01*
X32689800Y-44424600D02*
X32461200Y-44475400D01*
X32816800Y-44831000D02*
X32689800Y-44424600D01*
X33096200Y-44653200D02*
X32537400Y-46050200D01*
X30861000Y-47599600D02*
X30403800Y-47548800D01*
X31064200Y-47371000D02*
X30861000Y-47599600D01*
X30861000Y-47142400D02*
X31064200Y-47371000D01*
X30302200Y-47117000D02*
X30861000Y-47142400D01*
X30429200Y-47040800D02*
X30302200Y-47117000D01*
X30784800Y-46659800D02*
X30429200Y-47040800D01*
X30632400Y-46532800D02*
X30784800Y-46659800D01*
X30429200Y-46532800D02*
X30632400Y-46532800D01*
X29997400Y-46659800D02*
X30429200Y-46532800D01*
X30175200Y-47472600D02*
X30327600Y-47929800D01*
X29819600Y-46583600D02*
X30175200Y-47472600D01*
X29845000Y-48133000D02*
X30048200Y-47929800D01*
X29387800Y-48158400D02*
X29845000Y-48133000D01*
X29514800Y-47828200D02*
X29387800Y-48158400D01*
X29768800Y-47472600D02*
X29514800Y-47828200D01*
X29235400Y-47625000D02*
X29768800Y-47472600D01*
X29133800Y-47447200D02*
X29235400Y-47625000D01*
X29260800Y-47091600D02*
X29133800Y-47447200D01*
X29591000Y-46786800D02*
X29260800Y-47091600D01*
X23672800Y-49276000D02*
X24180800Y-50850800D01*
X24663400Y-50673000D02*
X23672800Y-49276000D01*
X23901400Y-47675800D02*
X24663400Y-50673000D01*
X27609800Y-53746400D02*
X26924000Y-52679600D01*
X27178000Y-52171600D02*
X27609800Y-53746400D01*
X28168600Y-53187600D02*
X27178000Y-52171600D01*
X27609800Y-51943000D02*
X28168600Y-53187600D01*
X29616400Y-52171600D02*
X27609800Y-51943000D01*
X27736800Y-51511200D02*
X29616400Y-52171600D01*
X30124400Y-51308000D02*
X27736800Y-51511200D01*
X28067000Y-50850800D02*
X30124400Y-51308000D01*
X29514800Y-49987200D02*
X28067000Y-50850800D01*
X27736800Y-50419000D02*
X29514800Y-49987200D01*
X29006800Y-48666400D02*
X27736800Y-50419000D01*
X27254200Y-50139600D02*
X29006800Y-48666400D01*
X27965400Y-47879000D02*
X27254200Y-50139600D01*
X26746200Y-49987200D02*
X27965400Y-47879000D01*
X26720800Y-47726600D02*
X26746200Y-49987200D01*
X26187400Y-50241200D02*
X26720800Y-47726600D01*
X25831800Y-47726600D02*
X26187400Y-50241200D01*
X25882600Y-50038000D02*
X25831800Y-47726600D01*
X25019000Y-47574200D02*
X25882600Y-50038000D01*
X25374600Y-50469800D02*
X25019000Y-47574200D01*
X23876000Y-47650400D02*
X25374600Y-50469800D01*
X84353400Y-61137800D02*
X78486000Y-60299600D01*
X84175600Y-64135000D02*
X84353400Y-61137800D01*
X78587600Y-63347600D02*
X84175600Y-64135000D01*
X78511400Y-60325000D02*
X78587600Y-63347600D01*
X50977800Y-75692000D02*
X48742600Y-74650600D01*
X52349400Y-77978000D02*
X50977800Y-75692000D01*
X48437800Y-78562200D02*
X52349400Y-77978000D01*
X48717200Y-74701400D02*
X48437800Y-78562200D01*
X53416200Y-79400400D02*
X54000400Y-76962000D01*
X62712600Y-78206600D02*
X53416200Y-79400400D01*
X62712600Y-76352400D02*
X62712600Y-78206600D01*
X54152800Y-76885800D02*
X62712600Y-76352400D01*
X75285600Y-75463400D02*
X69900800Y-75895200D01*
X75361800Y-77571600D02*
X75285600Y-75463400D01*
X69824600Y-77520800D02*
X75361800Y-77571600D01*
X69850000Y-75895200D02*
X69824600Y-77520800D01*
X65659000Y-76657200D02*
X67945000Y-76276200D01*
X65506600Y-78435200D02*
X65659000Y-76657200D01*
X67818000Y-78359000D02*
X65506600Y-78435200D01*
X67970400Y-76225400D02*
X67818000Y-78359000D01*
X75514200Y-70840600D02*
X66192400Y-73736200D01*
X75539600Y-74853800D02*
X75514200Y-70840600D01*
X66217800Y-75641200D02*
X75539600Y-74853800D01*
X66268600Y-73710800D02*
X66217800Y-75641200D01*
X65430400Y-74320400D02*
X63347600Y-74650600D01*
X64693800Y-78409800D02*
X65430400Y-74320400D01*
X63271400Y-78943200D02*
X64693800Y-78409800D01*
X63398400Y-74625200D02*
X63271400Y-78943200D01*
X61036200Y-71145400D02*
X56819800Y-70789800D01*
X60604400Y-73050400D02*
X61036200Y-71145400D01*
X56591200Y-72593200D02*
X60604400Y-73050400D01*
X56743600Y-70612000D02*
X56591200Y-72593200D01*
X72059800Y-66090800D02*
X64084200Y-68199000D01*
X71678800Y-69545200D02*
X72059800Y-66090800D01*
X64084200Y-69951600D02*
X71678800Y-69545200D01*
X64109600Y-68122800D02*
X64084200Y-69951600D01*
X83108800Y-70891400D02*
X83159600Y-71196200D01*
X83337400Y-70764400D02*
X83540600Y-70891400D01*
X83591400Y-70535800D02*
X83820000Y-70662800D01*
X83718400Y-70205600D02*
X84074000Y-70408800D01*
X83743800Y-70002400D02*
X84201000Y-69951600D01*
X83286600Y-70789800D02*
X82727800Y-70866000D01*
X83566000Y-70408800D02*
X83286600Y-70789800D01*
X83616800Y-70129400D02*
X83566000Y-70408800D01*
X83642200Y-69900800D02*
X83616800Y-70129400D01*
X81407000Y-69824600D02*
X81000600Y-69342000D01*
X81788000Y-70281800D02*
X81407000Y-69824600D01*
X82677000Y-70561200D02*
X81788000Y-70281800D01*
X82778600Y-71043800D02*
X82677000Y-70561200D01*
X82702400Y-71602600D02*
X82778600Y-71043800D01*
X83007200Y-72059800D02*
X82702400Y-71602600D01*
X83235800Y-71399400D02*
X83007200Y-72059800D01*
X83591400Y-71094600D02*
X83235800Y-71399400D01*
X83947000Y-70891400D02*
X83591400Y-71094600D01*
X84201000Y-70510400D02*
X83947000Y-70891400D01*
X84455000Y-70078600D02*
X84201000Y-70510400D01*
X84455000Y-69342000D02*
X84455000Y-70078600D01*
X84175600Y-69519800D02*
X84455000Y-69342000D01*
X83489800Y-69951600D02*
X84175600Y-69519800D01*
X82270600Y-69900800D02*
X83489800Y-69951600D01*
X81635600Y-69011800D02*
X82270600Y-69900800D01*
X81635600Y-68148200D02*
X81635600Y-69011800D01*
X82092800Y-67741800D02*
X81635600Y-68148200D01*
X82473800Y-67589400D02*
X82092800Y-67741800D01*
X82651600Y-67132200D02*
X82473800Y-67589400D01*
X83058000Y-67005200D02*
X82651600Y-67132200D01*
X83464400Y-66548000D02*
X83058000Y-67005200D01*
X82981800Y-66725800D02*
X83464400Y-66548000D01*
X83210400Y-66344800D02*
X82981800Y-66725800D01*
X83388200Y-65938400D02*
X83210400Y-66344800D01*
X83134200Y-65963800D02*
X83388200Y-65938400D01*
X82880200Y-66243200D02*
X83134200Y-65963800D01*
X82931000Y-65811400D02*
X82880200Y-66243200D01*
X82804000Y-65481200D02*
X82931000Y-65811400D01*
X82524600Y-66243200D02*
X82804000Y-65481200D01*
X82296000Y-66878200D02*
X82524600Y-66243200D01*
X81762600Y-67183000D02*
X82296000Y-66878200D01*
X81534000Y-67259200D02*
X81762600Y-67183000D01*
X81026000Y-67462400D02*
X81534000Y-67259200D01*
X80924400Y-67259200D02*
X81026000Y-67462400D01*
X80670400Y-66497200D02*
X80924400Y-67259200D01*
X81026000Y-66446400D02*
X80670400Y-66497200D01*
X81508600Y-66268600D02*
X81026000Y-66446400D01*
X81661000Y-65887600D02*
X81508600Y-66268600D01*
X81584800Y-65506600D02*
X81661000Y-65887600D01*
X81203800Y-65074800D02*
X81584800Y-65506600D01*
X80848200Y-64693800D02*
X81203800Y-65074800D01*
X80441800Y-64617600D02*
X80848200Y-64693800D01*
X80137000Y-64617600D02*
X80441800Y-64617600D01*
X79832200Y-64668400D02*
X80137000Y-64617600D01*
X79679800Y-64770000D02*
X79832200Y-64668400D01*
X79298800Y-65201800D02*
X79679800Y-64770000D01*
X78917800Y-65481200D02*
X79298800Y-65201800D01*
X78816200Y-64998600D02*
X78917800Y-65481200D01*
X78790800Y-64109600D02*
X78816200Y-64998600D01*
X78486000Y-63830200D02*
X78790800Y-64109600D01*
X78079600Y-63627000D02*
X78486000Y-63830200D01*
X77876400Y-63652400D02*
X78079600Y-63627000D01*
X77520800Y-64058800D02*
X77876400Y-63652400D01*
X77266800Y-64465200D02*
X77520800Y-64058800D01*
X77190600Y-64770000D02*
X77266800Y-64465200D01*
X77317600Y-65049400D02*
X77190600Y-64770000D01*
X77749400Y-65024000D02*
X77317600Y-65049400D01*
X78155800Y-65125600D02*
X77749400Y-65024000D01*
X78435200Y-65405000D02*
X78155800Y-65125600D01*
X78130400Y-65963800D02*
X78435200Y-65405000D01*
X77800200Y-66040000D02*
X78130400Y-65963800D01*
X77546200Y-66243200D02*
X77800200Y-66040000D01*
X77190600Y-66548000D02*
X77546200Y-66243200D01*
X76860400Y-66598800D02*
X77190600Y-66548000D01*
X76428600Y-66624200D02*
X76860400Y-66598800D01*
X76225400Y-66141600D02*
X76428600Y-66624200D01*
X75793600Y-65786000D02*
X76225400Y-66141600D01*
X75514200Y-65786000D02*
X75793600Y-65786000D01*
X75336400Y-65811400D02*
X75514200Y-65786000D01*
X80772000Y-68808600D02*
X80949800Y-69316600D01*
X80594200Y-67843400D02*
X80772000Y-68808600D01*
X80010000Y-66421000D02*
X80594200Y-67843400D01*
X79476600Y-66243200D02*
X80010000Y-66421000D01*
X78968600Y-65963800D02*
X79476600Y-66243200D01*
X78689200Y-66116200D02*
X78968600Y-65963800D01*
X78892400Y-66548000D02*
X78689200Y-66116200D01*
X78689200Y-67157600D02*
X78892400Y-66548000D01*
X78130400Y-67538600D02*
X78689200Y-67157600D01*
X77774800Y-67691000D02*
X78130400Y-67538600D01*
X77749400Y-67894200D02*
X77774800Y-67691000D01*
X77800200Y-68046600D02*
X77749400Y-67894200D01*
X77927200Y-68148200D02*
X77800200Y-68046600D01*
X78232000Y-68351400D02*
X77927200Y-68148200D01*
X78435200Y-68529200D02*
X78232000Y-68351400D01*
X78536800Y-68961000D02*
X78435200Y-68529200D01*
X78536800Y-69697600D02*
X78536800Y-68961000D01*
X78206600Y-70256400D02*
X78536800Y-69697600D01*
X77292200Y-70281800D02*
X78206600Y-70256400D01*
X76631800Y-69850000D02*
X77292200Y-70281800D01*
X76530200Y-69316600D02*
X76631800Y-69850000D01*
X76555600Y-68656200D02*
X76530200Y-69316600D01*
X76860400Y-68224400D02*
X76555600Y-68656200D01*
X77368400Y-67462400D02*
X76860400Y-68224400D01*
X77266800Y-67183000D02*
X77368400Y-67462400D01*
X76784200Y-66979800D02*
X77266800Y-67183000D01*
X76479400Y-67056000D02*
X76784200Y-66979800D01*
X76250800Y-67386200D02*
X76479400Y-67056000D01*
X75666600Y-67691000D02*
X76250800Y-67386200D01*
X74853800Y-67513200D02*
X75666600Y-67691000D01*
X74447400Y-67132200D02*
X74853800Y-67513200D01*
X74676000Y-66192400D02*
X74447400Y-67132200D01*
X75285600Y-65760600D02*
X74676000Y-66192400D01*
X77495400Y-69392800D02*
X77597000Y-69621400D01*
X77647800Y-69037200D02*
X77495400Y-69392800D01*
X78130400Y-68935600D02*
X78054200Y-68834000D01*
X78206600Y-69494400D02*
X78130400Y-68935600D01*
X77851000Y-69977000D02*
X78206600Y-69494400D01*
X76987400Y-69723000D02*
X77851000Y-69977000D01*
X76784200Y-69037200D02*
X76987400Y-69723000D01*
X78054200Y-68783200D02*
X76784200Y-69037200D01*
X80238600Y-65659000D02*
X80391000Y-65913000D01*
X80187800Y-65354200D02*
X80238600Y-65659000D01*
X80289400Y-65074800D02*
X80187800Y-65354200D01*
X80543400Y-64947800D02*
X80111600Y-64846200D01*
X81076800Y-65354200D02*
X80543400Y-64947800D01*
X81000600Y-66014600D02*
X81076800Y-65354200D01*
X79984600Y-66040000D02*
X81000600Y-66014600D01*
X79603600Y-65582800D02*
X79984600Y-66040000D01*
X80111600Y-64897000D02*
X79603600Y-65582800D01*
X77800200Y-66878200D02*
X77952600Y-67056000D01*
X77927200Y-66598800D02*
X77800200Y-66878200D01*
X77851000Y-66395600D02*
X77520800Y-66725800D01*
X78257400Y-66522600D02*
X77851000Y-66395600D01*
X78359000Y-66878200D02*
X78257400Y-66522600D01*
X78206600Y-67132200D02*
X78359000Y-66878200D01*
X77825600Y-67310000D02*
X78206600Y-67132200D01*
X77495400Y-67157600D02*
X77825600Y-67310000D01*
X77647800Y-66675000D02*
X77495400Y-67157600D01*
X75361800Y-66624200D02*
X75412600Y-66751200D01*
X75387200Y-66344800D02*
X75361800Y-66624200D01*
X77978000Y-64592200D02*
X78054200Y-64643000D01*
X77952600Y-64312800D02*
X77978000Y-64592200D01*
X78130400Y-64160400D02*
X77927200Y-64160400D01*
X78536800Y-64389000D02*
X78130400Y-64160400D01*
X78460600Y-64693800D02*
X78536800Y-64389000D01*
X78206600Y-64820800D02*
X78460600Y-64693800D01*
X77673200Y-64897000D02*
X78206600Y-64820800D01*
X77673200Y-64516000D02*
X77673200Y-64897000D01*
X77927200Y-64058800D02*
X77673200Y-64516000D01*
X75869800Y-66776600D02*
X75641200Y-66090800D01*
X75692000Y-66979800D02*
X75869800Y-66776600D01*
X74879200Y-66954400D02*
X75692000Y-66979800D01*
X74930000Y-66294000D02*
X74879200Y-66954400D01*
X75615800Y-66014600D02*
X74930000Y-66294000D01*
X77495400Y-34061400D02*
X74879200Y-36017200D01*
X81889600Y-32029400D02*
X81203800Y-32715200D01*
X80975200Y-31699200D02*
X80137000Y-32893000D01*
X76657200Y-33578800D02*
X73329800Y-34340800D01*
X80238600Y-32232600D02*
X78003400Y-33223200D01*
X77139800Y-32537400D02*
X74472800Y-33147000D01*
X77114400Y-31521400D02*
X74777600Y-32080200D01*
X78968600Y-32105600D02*
X77139800Y-32943800D01*
X79197200Y-31242000D02*
X76581000Y-32308800D01*
X84251800Y-32842200D02*
X83997800Y-33655000D01*
X84150200Y-31546800D02*
X84810600Y-32893000D01*
X83718400Y-31445200D02*
X84124800Y-32410400D01*
X83286600Y-31496000D02*
X83235800Y-32334200D01*
X82931000Y-31496000D02*
X82270600Y-32054800D01*
X83108800Y-31089600D02*
X81864200Y-31496000D01*
X83312000Y-30022800D02*
X82626200Y-30734000D01*
X82296000Y-30784800D02*
X80975200Y-31369000D01*
X81864200Y-31165800D02*
X81381600Y-31826200D01*
X81127600Y-30988000D02*
X80238600Y-31496000D01*
X79883000Y-30353000D02*
X78994000Y-30937200D01*
X80289400Y-30353000D02*
X79476600Y-31318200D01*
X80975200Y-30429200D02*
X79756000Y-31318200D01*
X81940400Y-29616400D02*
X80441800Y-29946600D01*
X82372200Y-30022800D02*
X80975200Y-30124400D01*
X82727800Y-30124400D02*
X81610200Y-30480000D01*
X83642200Y-30454600D02*
X82448400Y-31191200D01*
X83845400Y-30581600D02*
X83540600Y-31496000D01*
X84302600Y-30632400D02*
X84429600Y-31496000D01*
X84099400Y-30073600D02*
X84048600Y-31318200D01*
X84861400Y-29184600D02*
X84582000Y-30734000D01*
X84734400Y-28879800D02*
X84429600Y-30149800D01*
X84277200Y-29083000D02*
X83743800Y-29768800D01*
X83845400Y-28854400D02*
X83058000Y-29133800D01*
X83616800Y-29083000D02*
X82905600Y-29692600D01*
X83972400Y-29108400D02*
X83439000Y-29565600D01*
X84302600Y-27787600D02*
X83845400Y-28651200D01*
X84582000Y-29032200D02*
X84023200Y-29819600D01*
X84455000Y-28143200D02*
X84150200Y-28752800D01*
X84937600Y-27940000D02*
X84277200Y-28752800D01*
X85242400Y-28219400D02*
X84709000Y-28727400D01*
X85242400Y-27457400D02*
X85293200Y-27940000D01*
X84937600Y-27279600D02*
X85090000Y-27686000D01*
X84455000Y-27203400D02*
X84785200Y-27635200D01*
X84582000Y-26441400D02*
X84861400Y-27000200D01*
X84734400Y-25730200D02*
X84810600Y-26263600D01*
X84836000Y-26619200D02*
X85166200Y-27330400D01*
X84099400Y-26898600D02*
X84607400Y-26924000D01*
X84632800Y-27127200D02*
X84810600Y-27381200D01*
X84226400Y-27127200D02*
X84404200Y-27508200D01*
X84302600Y-26441400D02*
X84353400Y-26670000D01*
X84150200Y-25882600D02*
X84505800Y-26187400D01*
X84048600Y-25476200D02*
X84505800Y-25806400D01*
X83540600Y-25222200D02*
X84709000Y-25298400D01*
X82600800Y-24866600D02*
X83032600Y-24790400D01*
X82829400Y-25247600D02*
X83235800Y-24968200D01*
X83058000Y-25527000D02*
X83667600Y-25476200D01*
X82804000Y-25781000D02*
X83718400Y-25781000D01*
X83388200Y-26314400D02*
X83997800Y-26162000D01*
X83439000Y-26619200D02*
X83896200Y-26619200D01*
X83261200Y-26822400D02*
X83693000Y-27051000D01*
X82804000Y-26898600D02*
X83312000Y-27203400D01*
X82524600Y-26974800D02*
X82880200Y-27381200D01*
X82016600Y-27051000D02*
X82473800Y-27381200D01*
X82372200Y-26492200D02*
X83159600Y-26619200D01*
X82321400Y-26111200D02*
X83540600Y-25933400D01*
X81661000Y-25654000D02*
X82397600Y-25196800D01*
X81864200Y-25273000D02*
X82321400Y-24892000D01*
X82296000Y-25527000D02*
X82550000Y-25247600D01*
X82143600Y-26314400D02*
X82753200Y-26314400D01*
X81965800Y-26543000D02*
X82473800Y-26720800D01*
X81864200Y-26822400D02*
X82296000Y-27000200D01*
X81635600Y-27000200D02*
X82067400Y-27381200D01*
X81254600Y-26873200D02*
X81762600Y-27508200D01*
X79425800Y-26543000D02*
X78917800Y-26593800D01*
X79959200Y-27051000D02*
X79654400Y-27559000D01*
X79806800Y-26898600D02*
X79349600Y-27508200D01*
X81330800Y-25349200D02*
X81559400Y-24917400D01*
X81330800Y-26035000D02*
X81915000Y-25755600D01*
X81711800Y-26187400D02*
X82296000Y-25933400D01*
X81203800Y-27609800D02*
X81203800Y-27736800D01*
X81178400Y-27406600D02*
X81203800Y-27609800D01*
X81051400Y-27203400D02*
X81178400Y-27406600D01*
X80848200Y-27203400D02*
X81051400Y-27203400D01*
X80035400Y-27432000D02*
X80111600Y-27711400D01*
X80187800Y-27152600D02*
X80035400Y-27432000D01*
X80391000Y-27076400D02*
X80187800Y-27152600D01*
X79654400Y-26619200D02*
X79349600Y-26974800D01*
X81280000Y-25476200D02*
X81584800Y-25450800D01*
X81076800Y-25755600D02*
X81280000Y-25476200D01*
X81026000Y-25222200D02*
X81127600Y-25222200D01*
X80822800Y-25501600D02*
X81026000Y-25222200D01*
X80670400Y-25806400D02*
X80822800Y-25501600D01*
X80543400Y-25577800D02*
X80543400Y-25755600D01*
X80543400Y-25577800D02*
X80441800Y-25120600D01*
X80187800Y-25425400D02*
X80187800Y-25069800D01*
X80314800Y-25704800D02*
X80187800Y-25425400D01*
X79654400Y-25806400D02*
X79298800Y-25527000D01*
X79806800Y-25577800D02*
X79806800Y-25247600D01*
X80010000Y-25933400D02*
X79806800Y-25577800D01*
X79578200Y-26035000D02*
X79273400Y-26009600D01*
X79832200Y-26314400D02*
X79578200Y-26035000D01*
X81051400Y-26517600D02*
X81076800Y-26670000D01*
X80238600Y-26568400D02*
X80264000Y-26670000D01*
X80670400Y-26949400D02*
X80695800Y-26847800D01*
X80594200Y-26949400D02*
X80670400Y-26949400D01*
X80695800Y-26822400D02*
X80594200Y-26949400D01*
X81203800Y-26314400D02*
X81026000Y-26314400D01*
X81330800Y-26390600D02*
X81203800Y-26314400D01*
X81330800Y-26568400D02*
X81330800Y-26390600D01*
X81203800Y-26720800D02*
X81330800Y-26568400D01*
X80949800Y-26746200D02*
X81203800Y-26720800D01*
X80822800Y-26593800D02*
X80949800Y-26746200D01*
X80822800Y-26339800D02*
X80822800Y-26593800D01*
X80975200Y-26314400D02*
X80822800Y-26339800D01*
X80289400Y-26365200D02*
X80238600Y-26390600D01*
X80467200Y-26492200D02*
X80289400Y-26365200D01*
X80467200Y-26670000D02*
X80467200Y-26492200D01*
X80314800Y-26847800D02*
X80467200Y-26670000D01*
X80035400Y-26847800D02*
X80314800Y-26847800D01*
X79908400Y-26593800D02*
X80035400Y-26847800D01*
X80162400Y-26365200D02*
X79908400Y-26593800D01*
X70434200Y-17856200D02*
X70459600Y-17957800D01*
X70358000Y-17754600D02*
X70434200Y-17856200D01*
X70281800Y-17754600D02*
X70358000Y-17754600D01*
X70180200Y-17780000D02*
X70281800Y-17754600D01*
X70078600Y-18008600D02*
X70180200Y-17780000D01*
X70789800Y-16738600D02*
X70739000Y-17170400D01*
X69367400Y-16941800D02*
X69367400Y-17348200D01*
X70332600Y-16433800D02*
X70256400Y-16535400D01*
X70866000Y-16510000D02*
X70332600Y-16433800D01*
X71247000Y-16789400D02*
X70866000Y-16510000D01*
X71170800Y-17399000D02*
X71247000Y-16789400D01*
X70586600Y-17653000D02*
X71170800Y-17399000D01*
X70281800Y-17322800D02*
X70586600Y-17653000D01*
X70256400Y-16484600D02*
X70281800Y-17322800D01*
X69850000Y-16967200D02*
X69418200Y-16611600D01*
X70002400Y-17322800D02*
X69850000Y-16967200D01*
X69773800Y-17703800D02*
X70002400Y-17322800D01*
X69088000Y-17703800D02*
X69773800Y-17703800D01*
X68834000Y-17322800D02*
X69088000Y-17703800D01*
X68834000Y-16840200D02*
X68834000Y-17322800D01*
X69342000Y-16586200D02*
X68834000Y-16840200D01*
X68046600Y-14173200D02*
X67894200Y-14071600D01*
X68402200Y-14376400D02*
X68046600Y-14173200D01*
X68757800Y-14757400D02*
X68402200Y-14376400D01*
X69113400Y-15468600D02*
X68757800Y-14757400D01*
X69570600Y-16078200D02*
X69113400Y-15468600D01*
X69519800Y-15824200D02*
X69570600Y-16078200D01*
X69469000Y-14884400D02*
X69519800Y-15824200D01*
X69900800Y-13411200D02*
X69469000Y-14884400D01*
X70434200Y-14757400D02*
X69900800Y-13411200D01*
X70866000Y-16002000D02*
X70434200Y-14757400D01*
X71170800Y-16078200D02*
X70866000Y-16002000D01*
X71729600Y-16129000D02*
X71170800Y-16078200D01*
X72186800Y-16510000D02*
X71729600Y-16129000D01*
X72161400Y-16916400D02*
X72186800Y-16510000D01*
X72009000Y-17322800D02*
X72161400Y-16916400D01*
X71678800Y-17653000D02*
X72009000Y-17322800D01*
X71653400Y-18186400D02*
X71678800Y-17653000D01*
X72415400Y-18338800D02*
X71653400Y-18186400D01*
X73406000Y-18999200D02*
X72415400Y-18338800D01*
X73990200Y-19735800D02*
X73406000Y-18999200D01*
X74625200Y-20904200D02*
X73990200Y-19735800D01*
X75336400Y-21793200D02*
X74625200Y-20904200D01*
X75590400Y-21793200D02*
X75336400Y-21793200D01*
X76123800Y-21564600D02*
X75590400Y-21793200D01*
X76606400Y-21590000D02*
X76123800Y-21564600D01*
X76428600Y-21767800D02*
X76606400Y-21590000D01*
X76225400Y-21996400D02*
X76428600Y-21767800D01*
X76809600Y-21818600D02*
X76225400Y-21996400D01*
X77063600Y-21996400D02*
X76809600Y-21818600D01*
X76657200Y-22148800D02*
X77063600Y-21996400D01*
X76022200Y-22428200D02*
X76657200Y-22148800D01*
X76123800Y-22453600D02*
X76022200Y-22428200D01*
X76657200Y-22352000D02*
X76123800Y-22453600D01*
X76936600Y-22377400D02*
X76657200Y-22352000D01*
X76784200Y-22656800D02*
X76936600Y-22377400D01*
X76301600Y-22885400D02*
X76784200Y-22656800D01*
X75641200Y-22809200D02*
X76301600Y-22885400D01*
X75361800Y-22707600D02*
X75641200Y-22809200D01*
X74980800Y-22148800D02*
X75361800Y-22707600D01*
X74447400Y-21717000D02*
X74980800Y-22148800D01*
X74015600Y-20828000D02*
X74447400Y-21717000D01*
X73126600Y-19659600D02*
X74015600Y-20828000D01*
X73304400Y-19939000D02*
X73126600Y-19659600D01*
X73482200Y-20853400D02*
X73304400Y-19939000D01*
X74117200Y-22047200D02*
X73482200Y-20853400D01*
X74853800Y-22707600D02*
X74117200Y-22047200D01*
X75133200Y-23952200D02*
X74853800Y-22707600D01*
X75946000Y-24892000D02*
X75133200Y-23952200D01*
X76555600Y-25323800D02*
X75946000Y-24892000D01*
X76174600Y-25552400D02*
X76555600Y-25323800D01*
X76022200Y-26568400D02*
X76174600Y-25552400D01*
X75946000Y-28270200D02*
X76022200Y-26568400D01*
X75793600Y-29032200D02*
X75946000Y-28270200D01*
X75819000Y-29591000D02*
X75793600Y-29032200D01*
X75539600Y-30175200D02*
X75819000Y-29591000D01*
X75488800Y-29667200D02*
X75539600Y-30175200D01*
X75311000Y-30302200D02*
X75488800Y-29667200D01*
X74904600Y-30632400D02*
X75311000Y-30302200D01*
X74904600Y-30302200D02*
X74904600Y-30632400D01*
X74930000Y-30048200D02*
X74701400Y-30505400D01*
X74650600Y-30149800D02*
X74676000Y-30530800D01*
X74549000Y-30403800D02*
X74650600Y-30149800D01*
X74117200Y-30505400D02*
X74549000Y-30403800D01*
X74142600Y-30378400D02*
X74117200Y-30505400D01*
X74599800Y-29489400D02*
X74142600Y-30378400D01*
X74625200Y-29159200D02*
X74599800Y-29489400D01*
X75006200Y-28727400D02*
X74625200Y-29159200D01*
X74904600Y-28295600D02*
X75006200Y-28727400D01*
X75006200Y-27101800D02*
X74904600Y-28295600D01*
X75260200Y-26111200D02*
X75006200Y-27101800D01*
X74244200Y-24028400D02*
X75260200Y-26111200D01*
X73126600Y-22910800D02*
X74244200Y-24028400D01*
X73279000Y-24003000D02*
X73126600Y-22910800D01*
X74041000Y-25095200D02*
X73279000Y-24003000D01*
X73863200Y-25984200D02*
X74041000Y-25095200D01*
X73837800Y-27076400D02*
X73863200Y-25984200D01*
X73685400Y-28270200D02*
X73837800Y-27076400D01*
X73533000Y-29057600D02*
X73685400Y-28270200D01*
X73228200Y-29692600D02*
X73533000Y-29057600D01*
X72720200Y-30073600D02*
X73228200Y-29692600D01*
X72491600Y-30810200D02*
X72720200Y-30073600D01*
X72390000Y-30607000D02*
X72491600Y-30810200D01*
X71526400Y-31115000D02*
X72390000Y-30607000D01*
X71907400Y-30454600D02*
X71526400Y-31115000D01*
X71170800Y-30988000D02*
X71907400Y-30454600D01*
X71221600Y-30327600D02*
X71170800Y-30988000D01*
X70688200Y-31013400D02*
X71221600Y-30327600D01*
X70840600Y-30454600D02*
X70688200Y-31013400D01*
X71094600Y-30099000D02*
X70840600Y-30454600D01*
X71704200Y-29895800D02*
X71094600Y-30099000D01*
X72085200Y-29768800D02*
X71704200Y-29895800D01*
X72771000Y-28981400D02*
X72085200Y-29768800D01*
X72847200Y-28879800D02*
X72771000Y-28981400D01*
X73228200Y-28168600D02*
X72847200Y-28879800D01*
X73406000Y-27254200D02*
X73228200Y-28168600D01*
X73329800Y-26136600D02*
X73406000Y-27254200D01*
X72694800Y-24968200D02*
X73329800Y-26136600D01*
X71577200Y-23672800D02*
X72694800Y-24968200D01*
X71247000Y-22402800D02*
X71577200Y-23672800D01*
X70510400Y-20040600D02*
X71247000Y-22402800D01*
X70586600Y-20980400D02*
X70510400Y-20040600D01*
X70713600Y-21793200D02*
X70586600Y-20980400D01*
X70840600Y-22301200D02*
X70713600Y-21793200D01*
X70891400Y-22961600D02*
X70840600Y-22301200D01*
X70662800Y-23291800D02*
X70891400Y-22961600D01*
X70510400Y-23723600D02*
X70662800Y-23291800D01*
X70281800Y-24358600D02*
X70510400Y-23723600D01*
X70078600Y-24155400D02*
X70281800Y-24358600D01*
X70154800Y-23545800D02*
X70078600Y-24155400D01*
X69824600Y-24155400D02*
X70154800Y-23545800D01*
X69443600Y-24307800D02*
X69824600Y-24155400D01*
X69469000Y-24104600D02*
X69443600Y-24307800D01*
X69748400Y-23698200D02*
X69469000Y-24104600D01*
X69291200Y-23825200D02*
X69748400Y-23698200D01*
X68808600Y-23952200D02*
X69291200Y-23825200D01*
X69011800Y-23622000D02*
X68808600Y-23952200D01*
X69291200Y-23444200D02*
X69011800Y-23622000D01*
X69646800Y-23317200D02*
X69291200Y-23444200D01*
X69977000Y-23139400D02*
X69646800Y-23317200D01*
X70104000Y-22885400D02*
X69977000Y-23139400D01*
X70053200Y-22148800D02*
X70104000Y-22885400D01*
X69418200Y-19481800D02*
X70053200Y-22148800D01*
X69367400Y-18821400D02*
X69418200Y-19481800D01*
X68707000Y-18161000D02*
X69367400Y-18821400D01*
X68275200Y-18110200D02*
X68707000Y-18161000D01*
X67945000Y-18135600D02*
X68275200Y-18110200D01*
X67589400Y-17983200D02*
X67945000Y-18135600D01*
X67538600Y-17627600D02*
X67589400Y-17983200D01*
X67614800Y-17322800D02*
X67538600Y-17627600D01*
X67792600Y-16840200D02*
X67614800Y-17322800D01*
X67868800Y-14046200D02*
X67792600Y-16840200D01*
X31292800Y-21132800D02*
X32359600Y-19583400D01*
X31343600Y-20701000D02*
X29133800Y-19989800D01*
X32207200Y-23215600D02*
X31343600Y-20701000D01*
X31851600Y-16586200D02*
X31318200Y-14224000D01*
X30911800Y-16992600D02*
X32740600Y-15773400D01*
X30327600Y-18923000D02*
X30911800Y-16992600D01*
X28397200Y-14808200D02*
X29743400Y-14681200D01*
X27279600Y-16560800D02*
X28397200Y-14808200D01*
X26746200Y-18440400D02*
X27279600Y-16560800D01*
X26390600Y-18211800D02*
X26060400Y-20345400D01*
X26263600Y-16154400D02*
X26390600Y-18211800D01*
X25933400Y-14300200D02*
X26263600Y-16154400D01*
D11*
X60593552Y-46670980D02*
X61164980Y-46670980D01*
X60879266Y-47670980D02*
X60879266Y-46670980D01*
X61974504Y-47670980D02*
X61498314Y-47670980D01*
X61498314Y-46670980D01*
X62498314Y-46670980D02*
X62593552Y-46670980D01*
X62688790Y-46718600D01*
X62736409Y-46766219D01*
X62784028Y-46861457D01*
X62831647Y-47051933D01*
X62831647Y-47290028D01*
X62784028Y-47480504D01*
X62736409Y-47575742D01*
X62688790Y-47623361D01*
X62593552Y-47670980D01*
X62498314Y-47670980D01*
X62403076Y-47623361D01*
X62355457Y-47575742D01*
X62307838Y-47480504D01*
X62260219Y-47290028D01*
X62260219Y-47051933D01*
X62307838Y-46861457D01*
X62355457Y-46766219D01*
X62403076Y-46718600D01*
X62498314Y-46670980D01*
X63164980Y-46670980D02*
X63831647Y-46670980D01*
X63403076Y-47670980D01*
X64164980Y-46766219D02*
X64212600Y-46718600D01*
X64307838Y-46670980D01*
X64545933Y-46670980D01*
X64641171Y-46718600D01*
X64688790Y-46766219D01*
X64736409Y-46861457D01*
X64736409Y-46956695D01*
X64688790Y-47099552D01*
X64117361Y-47670980D01*
X64736409Y-47670980D01*
X48169580Y-61199447D02*
X48169580Y-60628019D01*
X49169580Y-60913733D02*
X48169580Y-60913733D01*
X49169580Y-59818495D02*
X49169580Y-60294685D01*
X48169580Y-60294685D01*
X48169580Y-59294685D02*
X48169580Y-59199447D01*
X48217200Y-59104209D01*
X48264819Y-59056590D01*
X48360057Y-59008971D01*
X48550533Y-58961352D01*
X48788628Y-58961352D01*
X48979104Y-59008971D01*
X49074342Y-59056590D01*
X49121961Y-59104209D01*
X49169580Y-59199447D01*
X49169580Y-59294685D01*
X49121961Y-59389923D01*
X49074342Y-59437542D01*
X48979104Y-59485161D01*
X48788628Y-59532780D01*
X48550533Y-59532780D01*
X48360057Y-59485161D01*
X48264819Y-59437542D01*
X48217200Y-59389923D01*
X48169580Y-59294685D01*
X48169580Y-58628019D02*
X48169580Y-57961352D01*
X49169580Y-58389923D01*
X48264819Y-57628019D02*
X48217200Y-57580400D01*
X48169580Y-57485161D01*
X48169580Y-57247066D01*
X48217200Y-57151828D01*
X48264819Y-57104209D01*
X48360057Y-57056590D01*
X48455295Y-57056590D01*
X48598152Y-57104209D01*
X49169580Y-57675638D01*
X49169580Y-57056590D01*
X23445742Y-39992038D02*
X23493361Y-40039657D01*
X23540980Y-40182514D01*
X23540980Y-40277752D01*
X23493361Y-40420609D01*
X23398123Y-40515847D01*
X23302885Y-40563466D01*
X23112409Y-40611085D01*
X22969552Y-40611085D01*
X22779076Y-40563466D01*
X22683838Y-40515847D01*
X22588600Y-40420609D01*
X22540980Y-40277752D01*
X22540980Y-40182514D01*
X22588600Y-40039657D01*
X22636219Y-39992038D01*
X23540980Y-39563466D02*
X22540980Y-39563466D01*
X22540980Y-39325371D01*
X22588600Y-39182514D01*
X22683838Y-39087276D01*
X22779076Y-39039657D01*
X22969552Y-38992038D01*
X23112409Y-38992038D01*
X23302885Y-39039657D01*
X23398123Y-39087276D01*
X23493361Y-39182514D01*
X23540980Y-39325371D01*
X23540980Y-39563466D01*
X22874314Y-38134895D02*
X23540980Y-38134895D01*
X22493361Y-38372990D02*
X23207647Y-38611085D01*
X23207647Y-37992038D01*
X22540980Y-37420609D02*
X22540980Y-37325371D01*
X22588600Y-37230133D01*
X22636219Y-37182514D01*
X22731457Y-37134895D01*
X22921933Y-37087276D01*
X23160028Y-37087276D01*
X23350504Y-37134895D01*
X23445742Y-37182514D01*
X23493361Y-37230133D01*
X23540980Y-37325371D01*
X23540980Y-37420609D01*
X23493361Y-37515847D01*
X23445742Y-37563466D01*
X23350504Y-37611085D01*
X23160028Y-37658704D01*
X22921933Y-37658704D01*
X22731457Y-37611085D01*
X22636219Y-37563466D01*
X22588600Y-37515847D01*
X22540980Y-37420609D01*
X22636219Y-36706323D02*
X22588600Y-36658704D01*
X22540980Y-36563466D01*
X22540980Y-36325371D01*
X22588600Y-36230133D01*
X22636219Y-36182514D01*
X22731457Y-36134895D01*
X22826695Y-36134895D01*
X22969552Y-36182514D01*
X23540980Y-36753942D01*
X23540980Y-36134895D01*
X22874314Y-35277752D02*
X23540980Y-35277752D01*
X22493361Y-35515847D02*
X23207647Y-35753942D01*
X23207647Y-35134895D01*
X53929449Y-20447556D02*
X54124889Y-19910589D01*
X54966862Y-20521093D02*
X54027169Y-20179073D01*
X55341455Y-19491906D02*
X55178588Y-19939378D01*
X54238896Y-19597358D01*
X54580916Y-18657665D02*
X54613489Y-18568171D01*
X54690810Y-18494963D01*
X54751844Y-18466502D01*
X54857625Y-18454329D01*
X55052901Y-18474728D01*
X55276637Y-18556161D01*
X55439339Y-18666055D01*
X55512547Y-18743376D01*
X55541008Y-18804410D01*
X55553182Y-18910191D01*
X55520609Y-18999686D01*
X55443288Y-19072893D01*
X55382254Y-19101354D01*
X55276473Y-19113528D01*
X55081197Y-19093129D01*
X54857461Y-19011695D01*
X54694758Y-18901801D01*
X54621550Y-18824481D01*
X54593090Y-18763447D01*
X54580916Y-18657665D01*
X54808929Y-18031204D02*
X55036943Y-17404742D01*
X55830055Y-18149488D01*
X55240444Y-17124084D02*
X55211983Y-17063050D01*
X55199809Y-16957269D01*
X55281243Y-16733533D01*
X55358563Y-16660325D01*
X55419597Y-16631864D01*
X55525379Y-16619691D01*
X55614873Y-16652264D01*
X55732828Y-16745871D01*
X56074355Y-17478279D01*
X56286082Y-16896564D01*
X46690449Y-39218156D02*
X46885889Y-38681189D01*
X47727862Y-39291693D02*
X46788169Y-38949673D01*
X48102455Y-38262506D02*
X47939588Y-38709978D01*
X46999896Y-38367958D01*
X47341916Y-37428265D02*
X47374489Y-37338771D01*
X47451810Y-37265563D01*
X47512844Y-37237102D01*
X47618625Y-37224929D01*
X47813901Y-37245328D01*
X48037637Y-37326761D01*
X48200339Y-37436655D01*
X48273547Y-37513976D01*
X48302008Y-37575010D01*
X48314182Y-37680791D01*
X48281609Y-37770286D01*
X48204288Y-37843493D01*
X48143254Y-37871954D01*
X48037473Y-37884128D01*
X47842197Y-37863729D01*
X47618461Y-37782295D01*
X47455758Y-37672401D01*
X47382550Y-37595081D01*
X47354090Y-37534047D01*
X47341916Y-37428265D01*
X47569929Y-36801804D02*
X47797943Y-36175342D01*
X48591055Y-36920088D01*
X48001444Y-35894684D02*
X47972983Y-35833650D01*
X47960809Y-35727869D01*
X48042243Y-35504133D01*
X48119563Y-35430925D01*
X48180597Y-35402464D01*
X48286379Y-35390291D01*
X48375873Y-35422864D01*
X48493828Y-35516471D01*
X48835355Y-36248879D01*
X49047082Y-35667164D01*
X30206961Y-40679619D02*
X30111723Y-40632000D01*
X30016485Y-40536761D01*
X29873628Y-40393904D01*
X29778390Y-40346285D01*
X29683152Y-40346285D01*
X29730771Y-40584380D02*
X29635533Y-40536761D01*
X29540295Y-40441523D01*
X29492676Y-40251047D01*
X29492676Y-39917714D01*
X29540295Y-39727238D01*
X29635533Y-39632000D01*
X29730771Y-39584380D01*
X29921247Y-39584380D01*
X30016485Y-39632000D01*
X30111723Y-39727238D01*
X30159342Y-39917714D01*
X30159342Y-40251047D01*
X30111723Y-40441523D01*
X30016485Y-40536761D01*
X29921247Y-40584380D01*
X29730771Y-40584380D01*
X31111723Y-40584380D02*
X30540295Y-40584380D01*
X30826009Y-40584380D02*
X30826009Y-39584380D01*
X30730771Y-39727238D01*
X30635533Y-39822476D01*
X30540295Y-39870095D01*
X30156161Y-45937419D02*
X30060923Y-45889800D01*
X29965685Y-45794561D01*
X29822828Y-45651704D01*
X29727590Y-45604085D01*
X29632352Y-45604085D01*
X29679971Y-45842180D02*
X29584733Y-45794561D01*
X29489495Y-45699323D01*
X29441876Y-45508847D01*
X29441876Y-45175514D01*
X29489495Y-44985038D01*
X29584733Y-44889800D01*
X29679971Y-44842180D01*
X29870447Y-44842180D01*
X29965685Y-44889800D01*
X30060923Y-44985038D01*
X30108542Y-45175514D01*
X30108542Y-45508847D01*
X30060923Y-45699323D01*
X29965685Y-45794561D01*
X29870447Y-45842180D01*
X29679971Y-45842180D01*
X30489495Y-44937419D02*
X30537114Y-44889800D01*
X30632352Y-44842180D01*
X30870447Y-44842180D01*
X30965685Y-44889800D01*
X31013304Y-44937419D01*
X31060923Y-45032657D01*
X31060923Y-45127895D01*
X31013304Y-45270752D01*
X30441876Y-45842180D01*
X31060923Y-45842180D01*
X32823161Y-34456619D02*
X32727923Y-34409000D01*
X32632685Y-34313761D01*
X32489828Y-34170904D01*
X32394590Y-34123285D01*
X32299352Y-34123285D01*
X32346971Y-34361380D02*
X32251733Y-34313761D01*
X32156495Y-34218523D01*
X32108876Y-34028047D01*
X32108876Y-33694714D01*
X32156495Y-33504238D01*
X32251733Y-33409000D01*
X32346971Y-33361380D01*
X32537447Y-33361380D01*
X32632685Y-33409000D01*
X32727923Y-33504238D01*
X32775542Y-33694714D01*
X32775542Y-34028047D01*
X32727923Y-34218523D01*
X32632685Y-34313761D01*
X32537447Y-34361380D01*
X32346971Y-34361380D01*
X33394590Y-33361380D02*
X33489828Y-33361380D01*
X33585066Y-33409000D01*
X33632685Y-33456619D01*
X33680304Y-33551857D01*
X33727923Y-33742333D01*
X33727923Y-33980428D01*
X33680304Y-34170904D01*
X33632685Y-34266142D01*
X33585066Y-34313761D01*
X33489828Y-34361380D01*
X33394590Y-34361380D01*
X33299352Y-34313761D01*
X33251733Y-34266142D01*
X33204114Y-34170904D01*
X33156495Y-33980428D01*
X33156495Y-33742333D01*
X33204114Y-33551857D01*
X33251733Y-33456619D01*
X33299352Y-33409000D01*
X33394590Y-33361380D01*
X13214361Y-34101019D02*
X13119123Y-34053400D01*
X13023885Y-33958161D01*
X12881028Y-33815304D01*
X12785790Y-33767685D01*
X12690552Y-33767685D01*
X12738171Y-34005780D02*
X12642933Y-33958161D01*
X12547695Y-33862923D01*
X12500076Y-33672447D01*
X12500076Y-33339114D01*
X12547695Y-33148638D01*
X12642933Y-33053400D01*
X12738171Y-33005780D01*
X12928647Y-33005780D01*
X13023885Y-33053400D01*
X13119123Y-33148638D01*
X13166742Y-33339114D01*
X13166742Y-33672447D01*
X13119123Y-33862923D01*
X13023885Y-33958161D01*
X12928647Y-34005780D01*
X12738171Y-34005780D01*
X14023885Y-33005780D02*
X13833409Y-33005780D01*
X13738171Y-33053400D01*
X13690552Y-33101019D01*
X13595314Y-33243876D01*
X13547695Y-33434352D01*
X13547695Y-33815304D01*
X13595314Y-33910542D01*
X13642933Y-33958161D01*
X13738171Y-34005780D01*
X13928647Y-34005780D01*
X14023885Y-33958161D01*
X14071504Y-33910542D01*
X14119123Y-33815304D01*
X14119123Y-33577209D01*
X14071504Y-33481971D01*
X14023885Y-33434352D01*
X13928647Y-33386733D01*
X13738171Y-33386733D01*
X13642933Y-33434352D01*
X13595314Y-33481971D01*
X13547695Y-33577209D01*
X13239761Y-44845219D02*
X13144523Y-44797600D01*
X13049285Y-44702361D01*
X12906428Y-44559504D01*
X12811190Y-44511885D01*
X12715952Y-44511885D01*
X12763571Y-44749980D02*
X12668333Y-44702361D01*
X12573095Y-44607123D01*
X12525476Y-44416647D01*
X12525476Y-44083314D01*
X12573095Y-43892838D01*
X12668333Y-43797600D01*
X12763571Y-43749980D01*
X12954047Y-43749980D01*
X13049285Y-43797600D01*
X13144523Y-43892838D01*
X13192142Y-44083314D01*
X13192142Y-44416647D01*
X13144523Y-44607123D01*
X13049285Y-44702361D01*
X12954047Y-44749980D01*
X12763571Y-44749980D01*
X13525476Y-43749980D02*
X14144523Y-43749980D01*
X13811190Y-44130933D01*
X13954047Y-44130933D01*
X14049285Y-44178552D01*
X14096904Y-44226171D01*
X14144523Y-44321409D01*
X14144523Y-44559504D01*
X14096904Y-44654742D01*
X14049285Y-44702361D01*
X13954047Y-44749980D01*
X13668333Y-44749980D01*
X13573095Y-44702361D01*
X13525476Y-44654742D01*
X13265161Y-37606219D02*
X13169923Y-37558600D01*
X13074685Y-37463361D01*
X12931828Y-37320504D01*
X12836590Y-37272885D01*
X12741352Y-37272885D01*
X12788971Y-37510980D02*
X12693733Y-37463361D01*
X12598495Y-37368123D01*
X12550876Y-37177647D01*
X12550876Y-36844314D01*
X12598495Y-36653838D01*
X12693733Y-36558600D01*
X12788971Y-36510980D01*
X12979447Y-36510980D01*
X13074685Y-36558600D01*
X13169923Y-36653838D01*
X13217542Y-36844314D01*
X13217542Y-37177647D01*
X13169923Y-37368123D01*
X13074685Y-37463361D01*
X12979447Y-37510980D01*
X12788971Y-37510980D01*
X14122304Y-36510980D02*
X13646114Y-36510980D01*
X13598495Y-36987171D01*
X13646114Y-36939552D01*
X13741352Y-36891933D01*
X13979447Y-36891933D01*
X14074685Y-36939552D01*
X14122304Y-36987171D01*
X14169923Y-37082409D01*
X14169923Y-37320504D01*
X14122304Y-37415742D01*
X14074685Y-37463361D01*
X13979447Y-37510980D01*
X13741352Y-37510980D01*
X13646114Y-37463361D01*
X13598495Y-37415742D01*
X13265161Y-41111419D02*
X13169923Y-41063800D01*
X13074685Y-40968561D01*
X12931828Y-40825704D01*
X12836590Y-40778085D01*
X12741352Y-40778085D01*
X12788971Y-41016180D02*
X12693733Y-40968561D01*
X12598495Y-40873323D01*
X12550876Y-40682847D01*
X12550876Y-40349514D01*
X12598495Y-40159038D01*
X12693733Y-40063800D01*
X12788971Y-40016180D01*
X12979447Y-40016180D01*
X13074685Y-40063800D01*
X13169923Y-40159038D01*
X13217542Y-40349514D01*
X13217542Y-40682847D01*
X13169923Y-40873323D01*
X13074685Y-40968561D01*
X12979447Y-41016180D01*
X12788971Y-41016180D01*
X14074685Y-40349514D02*
X14074685Y-41016180D01*
X13836590Y-39968561D02*
X13598495Y-40682847D01*
X14217542Y-40682847D01*
X32949508Y-25362720D02*
X32843727Y-25350546D01*
X32709485Y-25399406D01*
X32591530Y-25493013D01*
X32534608Y-25615081D01*
X32522434Y-25720863D01*
X32542834Y-25916138D01*
X32591694Y-26050380D01*
X32701588Y-26213082D01*
X32778909Y-26286290D01*
X32900976Y-26343212D01*
X33051505Y-26339099D01*
X33140999Y-26306525D01*
X33258955Y-26212918D01*
X33287415Y-26151884D01*
X33173408Y-25838653D01*
X32994419Y-25903800D01*
X33722714Y-26094799D02*
X33494700Y-25468337D01*
X33559847Y-25647326D02*
X33572021Y-25541545D01*
X33600482Y-25480511D01*
X33673690Y-25403190D01*
X33763184Y-25370617D01*
X34707154Y-25736492D02*
X34528000Y-25244272D01*
X34450680Y-25171064D01*
X34344899Y-25158890D01*
X34165909Y-25224037D01*
X34092702Y-25301357D01*
X34690867Y-25691745D02*
X34617659Y-25769065D01*
X34393923Y-25850499D01*
X34288142Y-25838325D01*
X34210821Y-25765117D01*
X34178248Y-25675622D01*
X34190422Y-25569841D01*
X34263630Y-25492520D01*
X34487366Y-25411087D01*
X34560574Y-25333766D01*
X35154626Y-25573625D02*
X34926613Y-24947163D01*
X34812606Y-24633932D02*
X34784146Y-24694966D01*
X34845180Y-24723427D01*
X34873640Y-24662393D01*
X34812606Y-24633932D01*
X34845180Y-24723427D01*
X35374086Y-24784297D02*
X35602099Y-25410758D01*
X35406659Y-24873791D02*
X35435120Y-24812757D01*
X35508327Y-24735437D01*
X35642569Y-24686577D01*
X35748351Y-24698750D01*
X35825671Y-24771958D01*
X36004825Y-25264178D01*
X32657283Y-39714329D02*
X32584076Y-39637009D01*
X32449834Y-39588149D01*
X32299305Y-39584036D01*
X32177237Y-39640957D01*
X32099917Y-39714165D01*
X31990023Y-39876868D01*
X31941163Y-40011109D01*
X31920763Y-40206385D01*
X31932937Y-40312166D01*
X31989859Y-40434234D01*
X32107814Y-40527841D01*
X32197308Y-40560415D01*
X32347837Y-40564528D01*
X32408871Y-40536067D01*
X32522877Y-40222836D01*
X32343888Y-40157689D01*
X32779023Y-40772142D02*
X33007036Y-40145680D01*
X32941889Y-40324669D02*
X33019210Y-40251461D01*
X33080244Y-40223000D01*
X33186025Y-40210827D01*
X33275520Y-40243400D01*
X33763463Y-41130448D02*
X33942616Y-40638228D01*
X33930442Y-40532447D01*
X33857234Y-40455127D01*
X33678245Y-40389980D01*
X33572464Y-40402154D01*
X33779749Y-41085701D02*
X33673968Y-41097875D01*
X33450232Y-41016442D01*
X33377024Y-40939121D01*
X33364850Y-40833340D01*
X33397423Y-40743845D01*
X33474744Y-40670637D01*
X33580525Y-40658464D01*
X33804261Y-40739897D01*
X33910043Y-40727723D01*
X34210935Y-41293315D02*
X34438949Y-40666853D01*
X34552955Y-40353623D02*
X34491921Y-40382083D01*
X34520382Y-40443117D01*
X34581416Y-40414656D01*
X34552955Y-40353623D01*
X34520382Y-40443117D01*
X34886421Y-40829720D02*
X34658408Y-41456182D01*
X34853848Y-40919215D02*
X34914882Y-40890754D01*
X35020663Y-40878580D01*
X35154905Y-40927440D01*
X35228113Y-41004761D01*
X35240287Y-41110542D01*
X35061133Y-41602762D01*
X35252296Y-41773690D02*
X35968253Y-42034277D01*
X36224562Y-42026215D02*
X36566582Y-41086523D01*
X36403716Y-41533995D02*
X36940683Y-41729436D01*
X36761530Y-42221656D02*
X37103550Y-41281963D01*
X37209002Y-42384522D02*
X37551022Y-41444830D01*
X37909000Y-41575123D01*
X37982208Y-41652444D01*
X38010669Y-41713478D01*
X38022843Y-41819259D01*
X37973983Y-41953501D01*
X37896662Y-42026708D01*
X37835628Y-42055169D01*
X37729847Y-42067343D01*
X37371869Y-41937050D01*
X15359142Y-49525180D02*
X14882952Y-49525180D01*
X14882952Y-48525180D01*
X15692476Y-49001371D02*
X16025809Y-49001371D01*
X16168666Y-49525180D02*
X15692476Y-49525180D01*
X15692476Y-48525180D01*
X16168666Y-48525180D01*
X16597238Y-49525180D02*
X16597238Y-48525180D01*
X16835333Y-48525180D01*
X16978190Y-48572800D01*
X17073428Y-48668038D01*
X17121047Y-48763276D01*
X17168666Y-48953752D01*
X17168666Y-49096609D01*
X17121047Y-49287085D01*
X17073428Y-49382323D01*
X16978190Y-49477561D01*
X16835333Y-49525180D01*
X16597238Y-49525180D01*
X13419485Y-63508000D02*
X13324247Y-63460380D01*
X13181390Y-63460380D01*
X13038533Y-63508000D01*
X12943295Y-63603238D01*
X12895676Y-63698476D01*
X12848057Y-63888952D01*
X12848057Y-64031809D01*
X12895676Y-64222285D01*
X12943295Y-64317523D01*
X13038533Y-64412761D01*
X13181390Y-64460380D01*
X13276628Y-64460380D01*
X13419485Y-64412761D01*
X13467104Y-64365142D01*
X13467104Y-64031809D01*
X13276628Y-64031809D01*
X14324247Y-64460380D02*
X14324247Y-63936571D01*
X14276628Y-63841333D01*
X14181390Y-63793714D01*
X13990914Y-63793714D01*
X13895676Y-63841333D01*
X14324247Y-64412761D02*
X14229009Y-64460380D01*
X13990914Y-64460380D01*
X13895676Y-64412761D01*
X13848057Y-64317523D01*
X13848057Y-64222285D01*
X13895676Y-64127047D01*
X13990914Y-64079428D01*
X14229009Y-64079428D01*
X14324247Y-64031809D01*
X14657580Y-63793714D02*
X15038533Y-63793714D01*
X14800438Y-63460380D02*
X14800438Y-64317523D01*
X14848057Y-64412761D01*
X14943295Y-64460380D01*
X15038533Y-64460380D01*
X15752819Y-64412761D02*
X15657580Y-64460380D01*
X15467104Y-64460380D01*
X15371866Y-64412761D01*
X15324247Y-64317523D01*
X15324247Y-63936571D01*
X15371866Y-63841333D01*
X15467104Y-63793714D01*
X15657580Y-63793714D01*
X15752819Y-63841333D01*
X15800438Y-63936571D01*
X15800438Y-64031809D01*
X15324247Y-64127047D01*
X15990914Y-64555619D02*
X16752819Y-64555619D01*
X17276628Y-63460380D02*
X17276628Y-64174666D01*
X17229009Y-64317523D01*
X17133771Y-64412761D01*
X16990914Y-64460380D01*
X16895676Y-64460380D01*
X17752819Y-64460380D02*
X17752819Y-63793714D01*
X17752819Y-63888952D02*
X17800438Y-63841333D01*
X17895676Y-63793714D01*
X18038533Y-63793714D01*
X18133771Y-63841333D01*
X18181390Y-63936571D01*
X18181390Y-64460380D01*
X18181390Y-63936571D02*
X18229009Y-63841333D01*
X18324247Y-63793714D01*
X18467104Y-63793714D01*
X18562342Y-63841333D01*
X18609961Y-63936571D01*
X18609961Y-64460380D01*
X19086152Y-63793714D02*
X19086152Y-64793714D01*
X19086152Y-63841333D02*
X19181390Y-63793714D01*
X19371866Y-63793714D01*
X19467104Y-63841333D01*
X19514723Y-63888952D01*
X19562342Y-63984190D01*
X19562342Y-64269904D01*
X19514723Y-64365142D01*
X19467104Y-64412761D01*
X19371866Y-64460380D01*
X19181390Y-64460380D01*
X19086152Y-64412761D01*
X21379180Y-63660400D02*
X21283942Y-63612780D01*
X21141085Y-63612780D01*
X20998228Y-63660400D01*
X20902990Y-63755638D01*
X20855371Y-63850876D01*
X20807752Y-64041352D01*
X20807752Y-64184209D01*
X20855371Y-64374685D01*
X20902990Y-64469923D01*
X20998228Y-64565161D01*
X21141085Y-64612780D01*
X21236323Y-64612780D01*
X21379180Y-64565161D01*
X21426800Y-64517542D01*
X21426800Y-64184209D01*
X21236323Y-64184209D01*
X22283942Y-64612780D02*
X22283942Y-64088971D01*
X22236323Y-63993733D01*
X22141085Y-63946114D01*
X21950609Y-63946114D01*
X21855371Y-63993733D01*
X22283942Y-64565161D02*
X22188704Y-64612780D01*
X21950609Y-64612780D01*
X21855371Y-64565161D01*
X21807752Y-64469923D01*
X21807752Y-64374685D01*
X21855371Y-64279447D01*
X21950609Y-64231828D01*
X22188704Y-64231828D01*
X22283942Y-64184209D01*
X22617276Y-63946114D02*
X22998228Y-63946114D01*
X22760133Y-63612780D02*
X22760133Y-64469923D01*
X22807752Y-64565161D01*
X22902990Y-64612780D01*
X22998228Y-64612780D01*
X23712514Y-64565161D02*
X23617276Y-64612780D01*
X23426800Y-64612780D01*
X23331561Y-64565161D01*
X23283942Y-64469923D01*
X23283942Y-64088971D01*
X23331561Y-63993733D01*
X23426800Y-63946114D01*
X23617276Y-63946114D01*
X23712514Y-63993733D01*
X23760133Y-64088971D01*
X23760133Y-64184209D01*
X23283942Y-64279447D01*
X23950609Y-64708019D02*
X24712514Y-64708019D01*
X25141085Y-63612780D02*
X25331561Y-63612780D01*
X25426800Y-63660400D01*
X25522038Y-63755638D01*
X25569657Y-63946114D01*
X25569657Y-64279447D01*
X25522038Y-64469923D01*
X25426800Y-64565161D01*
X25331561Y-64612780D01*
X25141085Y-64612780D01*
X25045847Y-64565161D01*
X24950609Y-64469923D01*
X24902990Y-64279447D01*
X24902990Y-63946114D01*
X24950609Y-63755638D01*
X25045847Y-63660400D01*
X25141085Y-63612780D01*
X26426800Y-63946114D02*
X26426800Y-64612780D01*
X25998228Y-63946114D02*
X25998228Y-64469923D01*
X26045847Y-64565161D01*
X26141085Y-64612780D01*
X26283942Y-64612780D01*
X26379180Y-64565161D01*
X26426800Y-64517542D01*
X26760133Y-63946114D02*
X27141085Y-63946114D01*
X26902990Y-63612780D02*
X26902990Y-64469923D01*
X26950609Y-64565161D01*
X27045847Y-64612780D01*
X27141085Y-64612780D01*
X36150942Y-74582400D02*
X36055704Y-74534780D01*
X35912847Y-74534780D01*
X35769990Y-74582400D01*
X35674752Y-74677638D01*
X35627133Y-74772876D01*
X35579514Y-74963352D01*
X35579514Y-75106209D01*
X35627133Y-75296685D01*
X35674752Y-75391923D01*
X35769990Y-75487161D01*
X35912847Y-75534780D01*
X36008085Y-75534780D01*
X36150942Y-75487161D01*
X36198561Y-75439542D01*
X36198561Y-75106209D01*
X36008085Y-75106209D01*
X37055704Y-75534780D02*
X37055704Y-75010971D01*
X37008085Y-74915733D01*
X36912847Y-74868114D01*
X36722371Y-74868114D01*
X36627133Y-74915733D01*
X37055704Y-75487161D02*
X36960466Y-75534780D01*
X36722371Y-75534780D01*
X36627133Y-75487161D01*
X36579514Y-75391923D01*
X36579514Y-75296685D01*
X36627133Y-75201447D01*
X36722371Y-75153828D01*
X36960466Y-75153828D01*
X37055704Y-75106209D01*
X37389038Y-74868114D02*
X37769990Y-74868114D01*
X37531895Y-74534780D02*
X37531895Y-75391923D01*
X37579514Y-75487161D01*
X37674752Y-75534780D01*
X37769990Y-75534780D01*
X38484276Y-75487161D02*
X38389038Y-75534780D01*
X38198561Y-75534780D01*
X38103323Y-75487161D01*
X38055704Y-75391923D01*
X38055704Y-75010971D01*
X38103323Y-74915733D01*
X38198561Y-74868114D01*
X38389038Y-74868114D01*
X38484276Y-74915733D01*
X38531895Y-75010971D01*
X38531895Y-75106209D01*
X38055704Y-75201447D01*
X38722371Y-75630019D02*
X39484276Y-75630019D01*
X40055704Y-75010971D02*
X39722371Y-75010971D01*
X39722371Y-75534780D02*
X39722371Y-74534780D01*
X40198561Y-74534780D01*
X40341419Y-75630019D02*
X41103323Y-75630019D01*
X41246180Y-74534780D02*
X41484276Y-75534780D01*
X41674752Y-74820495D01*
X41865228Y-75534780D01*
X42103323Y-74534780D01*
X43008085Y-75534780D02*
X42436657Y-75534780D01*
X42722371Y-75534780D02*
X42722371Y-74534780D01*
X42627133Y-74677638D01*
X42531895Y-74772876D01*
X42436657Y-74820495D01*
X52140171Y-74176000D02*
X52044933Y-74128380D01*
X51902076Y-74128380D01*
X51759219Y-74176000D01*
X51663980Y-74271238D01*
X51616361Y-74366476D01*
X51568742Y-74556952D01*
X51568742Y-74699809D01*
X51616361Y-74890285D01*
X51663980Y-74985523D01*
X51759219Y-75080761D01*
X51902076Y-75128380D01*
X51997314Y-75128380D01*
X52140171Y-75080761D01*
X52187790Y-75033142D01*
X52187790Y-74699809D01*
X51997314Y-74699809D01*
X53044933Y-75128380D02*
X53044933Y-74604571D01*
X52997314Y-74509333D01*
X52902076Y-74461714D01*
X52711600Y-74461714D01*
X52616361Y-74509333D01*
X53044933Y-75080761D02*
X52949695Y-75128380D01*
X52711600Y-75128380D01*
X52616361Y-75080761D01*
X52568742Y-74985523D01*
X52568742Y-74890285D01*
X52616361Y-74795047D01*
X52711600Y-74747428D01*
X52949695Y-74747428D01*
X53044933Y-74699809D01*
X53378266Y-74461714D02*
X53759219Y-74461714D01*
X53521123Y-74128380D02*
X53521123Y-74985523D01*
X53568742Y-75080761D01*
X53663980Y-75128380D01*
X53759219Y-75128380D01*
X54473504Y-75080761D02*
X54378266Y-75128380D01*
X54187790Y-75128380D01*
X54092552Y-75080761D01*
X54044933Y-74985523D01*
X54044933Y-74604571D01*
X54092552Y-74509333D01*
X54187790Y-74461714D01*
X54378266Y-74461714D01*
X54473504Y-74509333D01*
X54521123Y-74604571D01*
X54521123Y-74699809D01*
X54044933Y-74795047D01*
X54711600Y-75223619D02*
X55473504Y-75223619D01*
X56044933Y-74604571D02*
X55711600Y-74604571D01*
X55711600Y-75128380D02*
X55711600Y-74128380D01*
X56187790Y-74128380D01*
X56330647Y-75223619D02*
X57092552Y-75223619D01*
X57235409Y-74128380D02*
X57854457Y-74128380D01*
X57521123Y-74509333D01*
X57663980Y-74509333D01*
X57759219Y-74556952D01*
X57806838Y-74604571D01*
X57854457Y-74699809D01*
X57854457Y-74937904D01*
X57806838Y-75033142D01*
X57759219Y-75080761D01*
X57663980Y-75128380D01*
X57378266Y-75128380D01*
X57283028Y-75080761D01*
X57235409Y-75033142D01*
X71618756Y-56804978D02*
X71960777Y-55865285D01*
X71797910Y-56312758D02*
X72334877Y-56508198D01*
X72155724Y-57000418D02*
X72497744Y-56060726D01*
X72603196Y-57163285D02*
X72945216Y-56223592D01*
X73303195Y-56353886D01*
X73376402Y-56431206D01*
X73404863Y-56492240D01*
X73417037Y-56598021D01*
X73368177Y-56732263D01*
X73290856Y-56805471D01*
X73229822Y-56833932D01*
X73124041Y-56846106D01*
X72766063Y-56715812D01*
X73286579Y-57513366D02*
X74002536Y-57773953D01*
X74511371Y-56793626D02*
X74393087Y-57814752D01*
X74816376Y-57208690D01*
X74751065Y-57945045D01*
X75316822Y-57086786D01*
X75332780Y-58156772D02*
X75674800Y-57217079D01*
X75735505Y-58303352D02*
X75914658Y-57811132D01*
X75902485Y-57705351D01*
X75829277Y-57628030D01*
X75695035Y-57579170D01*
X75589254Y-57591344D01*
X75528220Y-57619805D01*
X76182978Y-58466219D02*
X76410991Y-57839757D01*
X76524998Y-57526526D02*
X76463964Y-57554987D01*
X76492425Y-57616021D01*
X76553458Y-57587560D01*
X76524998Y-57526526D01*
X76492425Y-57616021D01*
X76724222Y-57953764D02*
X77082200Y-58084057D01*
X76972471Y-57689393D02*
X76679310Y-58494844D01*
X76691484Y-58600625D01*
X76764692Y-58677946D01*
X76854187Y-58710519D01*
X77541682Y-58910072D02*
X77435901Y-58922246D01*
X77256912Y-58857099D01*
X77183704Y-58779778D01*
X77171530Y-58673997D01*
X77301824Y-58316019D01*
X77379144Y-58242811D01*
X77484926Y-58230637D01*
X77663915Y-58295784D01*
X77737123Y-58373105D01*
X77749296Y-58478886D01*
X77716723Y-58568380D01*
X77236677Y-58495008D01*
X73147466Y-62469780D02*
X73385561Y-63469780D01*
X73576038Y-62755495D01*
X73766514Y-63469780D01*
X74004609Y-62469780D01*
X74385561Y-63469780D02*
X74385561Y-62469780D01*
X74814133Y-63469780D02*
X74814133Y-62945971D01*
X74766514Y-62850733D01*
X74671276Y-62803114D01*
X74528419Y-62803114D01*
X74433180Y-62850733D01*
X74385561Y-62898352D01*
X75290323Y-63469780D02*
X75290323Y-62803114D01*
X75290323Y-62469780D02*
X75242704Y-62517400D01*
X75290323Y-62565019D01*
X75337942Y-62517400D01*
X75290323Y-62469780D01*
X75290323Y-62565019D01*
X75623657Y-62803114D02*
X76004609Y-62803114D01*
X75766514Y-62469780D02*
X75766514Y-63326923D01*
X75814133Y-63422161D01*
X75909371Y-63469780D01*
X76004609Y-63469780D01*
X76718895Y-63422161D02*
X76623657Y-63469780D01*
X76433180Y-63469780D01*
X76337942Y-63422161D01*
X76290323Y-63326923D01*
X76290323Y-62945971D01*
X76337942Y-62850733D01*
X76433180Y-62803114D01*
X76623657Y-62803114D01*
X76718895Y-62850733D01*
X76766514Y-62945971D01*
X76766514Y-63041209D01*
X76290323Y-63136447D01*
X77216095Y-43467400D02*
X77120857Y-43419780D01*
X76978000Y-43419780D01*
X76835142Y-43467400D01*
X76739904Y-43562638D01*
X76692285Y-43657876D01*
X76644666Y-43848352D01*
X76644666Y-43991209D01*
X76692285Y-44181685D01*
X76739904Y-44276923D01*
X76835142Y-44372161D01*
X76978000Y-44419780D01*
X77073238Y-44419780D01*
X77216095Y-44372161D01*
X77263714Y-44324542D01*
X77263714Y-43991209D01*
X77073238Y-43991209D01*
X77692285Y-44419780D02*
X77692285Y-43419780D01*
X78263714Y-44419780D01*
X78263714Y-43419780D01*
X78739904Y-44419780D02*
X78739904Y-43419780D01*
X78978000Y-43419780D01*
X79120857Y-43467400D01*
X79216095Y-43562638D01*
X79263714Y-43657876D01*
X79311333Y-43848352D01*
X79311333Y-43991209D01*
X79263714Y-44181685D01*
X79216095Y-44276923D01*
X79120857Y-44372161D01*
X78978000Y-44419780D01*
X78739904Y-44419780D01*
X78832295Y-59151828D02*
X79594200Y-59151828D01*
X80594200Y-59532780D02*
X80022771Y-59532780D01*
X80308485Y-59532780D02*
X80308485Y-58532780D01*
X80213247Y-58675638D01*
X80118009Y-58770876D01*
X80022771Y-58818495D01*
X80975152Y-58628019D02*
X81022771Y-58580400D01*
X81118009Y-58532780D01*
X81356104Y-58532780D01*
X81451342Y-58580400D01*
X81498961Y-58628019D01*
X81546580Y-58723257D01*
X81546580Y-58818495D01*
X81498961Y-58961352D01*
X80927533Y-59532780D01*
X81546580Y-59532780D01*
X81832295Y-58532780D02*
X82165628Y-59532780D01*
X82498961Y-58532780D01*
X79238695Y-33472428D02*
X80000600Y-33472428D01*
X79619647Y-33853380D02*
X79619647Y-33091476D01*
X81000600Y-33853380D02*
X80429171Y-33853380D01*
X80714885Y-33853380D02*
X80714885Y-32853380D01*
X80619647Y-32996238D01*
X80524409Y-33091476D01*
X80429171Y-33139095D01*
X81381552Y-32948619D02*
X81429171Y-32901000D01*
X81524409Y-32853380D01*
X81762504Y-32853380D01*
X81857742Y-32901000D01*
X81905361Y-32948619D01*
X81952980Y-33043857D01*
X81952980Y-33139095D01*
X81905361Y-33281952D01*
X81333933Y-33853380D01*
X81952980Y-33853380D01*
X82238695Y-32853380D02*
X82572028Y-33853380D01*
X82905361Y-32853380D01*
X60720314Y-23376000D02*
X60625076Y-23328380D01*
X60482219Y-23328380D01*
X60339361Y-23376000D01*
X60244123Y-23471238D01*
X60196504Y-23566476D01*
X60148885Y-23756952D01*
X60148885Y-23899809D01*
X60196504Y-24090285D01*
X60244123Y-24185523D01*
X60339361Y-24280761D01*
X60482219Y-24328380D01*
X60577457Y-24328380D01*
X60720314Y-24280761D01*
X60767933Y-24233142D01*
X60767933Y-23899809D01*
X60577457Y-23899809D01*
X61101266Y-23328380D02*
X61720314Y-23328380D01*
X61386980Y-23709333D01*
X61529838Y-23709333D01*
X61625076Y-23756952D01*
X61672695Y-23804571D01*
X61720314Y-23899809D01*
X61720314Y-24137904D01*
X61672695Y-24233142D01*
X61625076Y-24280761D01*
X61529838Y-24328380D01*
X61244123Y-24328380D01*
X61148885Y-24280761D01*
X61101266Y-24233142D01*
X70734323Y-26271600D02*
X70639085Y-26223980D01*
X70496228Y-26223980D01*
X70353371Y-26271600D01*
X70258133Y-26366838D01*
X70210514Y-26462076D01*
X70162895Y-26652552D01*
X70162895Y-26795409D01*
X70210514Y-26985885D01*
X70258133Y-27081123D01*
X70353371Y-27176361D01*
X70496228Y-27223980D01*
X70591466Y-27223980D01*
X70734323Y-27176361D01*
X70781942Y-27128742D01*
X70781942Y-26795409D01*
X70591466Y-26795409D01*
X70972419Y-27319219D02*
X71734323Y-27319219D01*
X71877180Y-26223980D02*
X72115276Y-27223980D01*
X72305752Y-26509695D01*
X72496228Y-27223980D01*
X72734323Y-26223980D01*
D10*
X69113400Y-71170800D02*
X69443600Y-70459600D01*
X69113400Y-71780400D02*
X69621400Y-71247000D01*
X69088000Y-72390000D02*
X69723000Y-71983600D01*
X69011800Y-71196200D02*
X69088000Y-72390000D01*
X68630800Y-72390000D02*
X67945000Y-72415400D01*
X67894200Y-71983600D02*
X68630800Y-72390000D01*
X68224400Y-71399400D02*
X67894200Y-71983600D01*
X65887600Y-72999600D02*
X67284600Y-72745600D01*
X66344800Y-72872600D02*
X65887600Y-72999600D01*
X66344800Y-71729600D02*
X66344800Y-72872600D01*
X65862200Y-72009000D02*
X66827400Y-71653400D01*
X65455800Y-73075800D02*
X64465200Y-71983600D01*
X65278000Y-73736200D02*
X65455800Y-73075800D01*
X64338200Y-73126600D02*
X65278000Y-73736200D01*
X64465200Y-72009000D02*
X64338200Y-73126600D01*
X63576200Y-73939400D02*
X63728600Y-71374000D01*
X62153800Y-71856600D02*
X63576200Y-73939400D01*
X61772800Y-74676000D02*
X62153800Y-71856600D01*
X31228507Y-59474980D02*
G75*
G03X31228507Y-59474980I-2120000J0D01*
G01*
X28397105Y-61429541D02*
X29819909Y-57520419D01*
X28359518Y-61415860D02*
X29782322Y-57506738D01*
X28322272Y-61401239D02*
X29744392Y-57493997D01*
X28285368Y-61385679D02*
X29706120Y-57482196D01*
X28248807Y-61369179D02*
X29667506Y-57471334D01*
X28212245Y-61352679D02*
X28633272Y-60195918D01*
X29207866Y-58617234D02*
X29628893Y-57460472D01*
X28176026Y-61335240D02*
X28595684Y-60182237D01*
X29170278Y-58603553D02*
X29589937Y-57450550D01*
X28140148Y-61316860D02*
X28558097Y-60168556D01*
X29132690Y-58589872D02*
X29550639Y-57441568D01*
X28104612Y-61297541D02*
X28520509Y-60154875D01*
X29095103Y-58576192D02*
X29510999Y-57433525D01*
X28069077Y-61278222D02*
X28482921Y-60141194D01*
X29057515Y-58562511D02*
X29471359Y-57425483D01*
X28034225Y-61257024D02*
X28445333Y-60127514D01*
X29019927Y-58548830D02*
X29431035Y-57419319D01*
X27999374Y-61235826D02*
X28407746Y-60113833D01*
X28982340Y-58535149D02*
X29390712Y-57413156D01*
X27964864Y-61213688D02*
X28370158Y-60100152D01*
X28944752Y-58521468D02*
X29350046Y-57407933D01*
X27930355Y-61191550D02*
X28332570Y-60086471D01*
X28907164Y-58507788D02*
X29309380Y-57402709D01*
X27896529Y-61167532D02*
X28294983Y-60072790D01*
X28869576Y-58494107D02*
X29268030Y-57399365D01*
X27862704Y-61143515D02*
X28257395Y-60059110D01*
X28831989Y-58480426D02*
X29226680Y-57396021D01*
X27829220Y-61118558D02*
X28219807Y-60045429D01*
X28794401Y-58466745D02*
X29184988Y-57393616D01*
X27796421Y-61091721D02*
X28182219Y-60031748D01*
X28756813Y-58453064D02*
X29142612Y-57393091D01*
X27762682Y-61064543D02*
X28143692Y-60017725D01*
X28718286Y-58439042D02*
X29099296Y-57392224D01*
X27729882Y-61037706D02*
X28106104Y-60004044D01*
X28680698Y-58425361D02*
X29056920Y-57391699D01*
X27697767Y-61008990D02*
X28068517Y-59990364D01*
X28643111Y-58411680D02*
X29013860Y-57393053D01*
X27665993Y-60979335D02*
X28030929Y-59976683D01*
X28605523Y-58397999D02*
X28970458Y-57395347D01*
X27634562Y-60948739D02*
X27993341Y-59963002D01*
X28567935Y-58384318D02*
X28926714Y-57398581D01*
X27603473Y-60917205D02*
X27955754Y-59949321D01*
X28530347Y-58370638D02*
X28882628Y-57402754D01*
X27572383Y-60885670D02*
X27918166Y-59935640D01*
X28492760Y-58356957D02*
X28838542Y-57406927D01*
X27541978Y-60852255D02*
X27880578Y-59921959D01*
X28455172Y-58343276D02*
X28793772Y-57412980D01*
X27511915Y-60817901D02*
X27842990Y-59908279D01*
X28417584Y-58329595D02*
X28748660Y-57419973D01*
X27482194Y-60782607D02*
X27805403Y-59894598D01*
X28379997Y-58315914D02*
X28703206Y-57427905D01*
X27453156Y-60745434D02*
X27767815Y-59880917D01*
X28342409Y-58302233D02*
X28657067Y-57437716D01*
X27424119Y-60708261D02*
X27730227Y-59867236D01*
X28304821Y-58288553D02*
X28610929Y-57447528D01*
X27395766Y-60669209D02*
X27692640Y-59853555D01*
X28267233Y-58274872D02*
X28564107Y-57459219D01*
X27367755Y-60629216D02*
X27655052Y-59839875D01*
X28229646Y-58261191D02*
X28516943Y-57471849D01*
X27340428Y-60587345D02*
X27617464Y-59826194D01*
X28192058Y-58247510D02*
X28469094Y-57486359D01*
X27313443Y-60544534D02*
X27579877Y-59812513D01*
X28154470Y-58233829D02*
X28420904Y-57501809D01*
X27286800Y-60500783D02*
X27542289Y-59798832D01*
X28116883Y-58220149D02*
X28372372Y-57518198D01*
X27261183Y-60454213D02*
X27504701Y-59785151D01*
X28079295Y-58206468D02*
X28322813Y-57537407D01*
X27235908Y-60406703D02*
X27467113Y-59771471D01*
X28041707Y-58192787D02*
X28272913Y-57557555D01*
X27211317Y-60357314D02*
X27429526Y-59757790D01*
X28004120Y-58179106D02*
X28222328Y-57579582D01*
X27187410Y-60306045D02*
X27391938Y-59744109D01*
X27966532Y-58165425D02*
X28171060Y-57603489D01*
X27164187Y-60252897D02*
X27354350Y-59730428D01*
X27928944Y-58151745D02*
X28119107Y-57629276D01*
X27141990Y-60196930D02*
X27316763Y-59716747D01*
X27891356Y-58138064D02*
X28066129Y-57657881D01*
X27120478Y-60139084D02*
X27279175Y-59703067D01*
X27853769Y-58124383D02*
X28012466Y-57688366D01*
X27099991Y-60078419D02*
X27241587Y-59689386D01*
X27816181Y-58110702D02*
X27957777Y-57721669D01*
X27080872Y-60013994D02*
X27203999Y-59675705D01*
X27778593Y-58097021D02*
X27901721Y-57758732D01*
X27063122Y-59945811D02*
X27166412Y-59662024D01*
X27741006Y-58083341D02*
X27844296Y-57799553D01*
X27046739Y-59873870D02*
X27128824Y-59648343D01*
X27703418Y-58069660D02*
X27785503Y-57844134D01*
X27032067Y-59797229D02*
X27725000Y-57893412D01*
X27019447Y-59714951D02*
X27662444Y-57948329D01*
X27009563Y-59625155D02*
X27597153Y-58010763D01*
X27003099Y-59525962D02*
X27528442Y-58082594D01*
X27001081Y-59414553D02*
X27455284Y-58166642D01*
X27006930Y-59281532D02*
X27374260Y-58272302D01*
X27026460Y-59110922D02*
X27279554Y-58415550D01*
X30832709Y-61374230D02*
X30456832Y-61237422D01*
X30576366Y-61493765D02*
X30713174Y-61117888D01*
X32980421Y-53854211D02*
X30881459Y-52092973D01*
X37634203Y-48308049D02*
X35535241Y-46546811D01*
X35535241Y-46546811D02*
X30881459Y-52092973D01*
X37634203Y-48308049D02*
X32980421Y-53854211D01*
X37592641Y-60641189D02*
X32938859Y-55095027D01*
X39691603Y-58879951D02*
X35037821Y-53333789D01*
X37592641Y-60641189D02*
X39691603Y-58879951D01*
X32938859Y-55095027D02*
X35037821Y-53333789D01*
X44672641Y-29845312D02*
X42196416Y-36648686D01*
X42097884Y-28908177D02*
X39621658Y-35711551D01*
X44672641Y-29845312D02*
X42097884Y-28908177D01*
X42196416Y-36648686D02*
X39621658Y-35711551D01*
X37543627Y-53217941D02*
X35782389Y-51118979D01*
X43089789Y-48564159D02*
X41328551Y-46465197D01*
X41328551Y-46465197D02*
X35782389Y-51118979D01*
X43089789Y-48564159D02*
X37543627Y-53217941D01*
X61851400Y-69848400D02*
X54611400Y-69848400D01*
X61851400Y-67108400D02*
X54611400Y-67108400D01*
X61851400Y-69848400D02*
X61851400Y-67108400D01*
X54611400Y-69848400D02*
X54611400Y-67108400D01*
X33175377Y-30769484D02*
X39978751Y-28293258D01*
X34112512Y-33344241D02*
X40915886Y-30868016D01*
X33175377Y-30769484D02*
X34112512Y-33344241D01*
X39978751Y-28293258D02*
X40915886Y-30868016D01*
X71296200Y-61771400D02*
X68556200Y-61771400D01*
X71296200Y-54531400D02*
X68556200Y-54531400D01*
X68556200Y-54531400D02*
X68556200Y-61771400D01*
X71296200Y-54531400D02*
X71296200Y-61771400D01*
X64010075Y-41502513D02*
X63534279Y-38804140D01*
X71140083Y-40245301D02*
X70664287Y-37546927D01*
X70664287Y-37546927D02*
X63534279Y-38804140D01*
X71140083Y-40245301D02*
X64010075Y-41502513D01*
X68464701Y-30078917D02*
X69721913Y-37208925D01*
X65766327Y-30554713D02*
X67023540Y-37684721D01*
X68464701Y-30078917D02*
X65766327Y-30554713D01*
X69721913Y-37208925D02*
X67023540Y-37684721D01*
X83374600Y-41847200D02*
G75*
G03X83374600Y-41847200I-2120000J0D01*
G01*
X80414600Y-41847200D02*
X79174600Y-41847200D01*
X83334600Y-41847200D02*
X82094600Y-41847200D01*
X80414600Y-41887200D02*
X79174600Y-41887200D01*
X83334600Y-41887200D02*
X82094600Y-41887200D01*
X80414600Y-41927200D02*
X79175600Y-41927200D01*
X83333600Y-41927200D02*
X82094600Y-41927200D01*
X83331600Y-41967200D02*
X82094600Y-41967200D01*
X80414600Y-41967200D02*
X79177600Y-41967200D01*
X83328600Y-42007200D02*
X82094600Y-42007200D01*
X80414600Y-42007200D02*
X79180600Y-42007200D01*
X83325600Y-42047200D02*
X82094600Y-42047200D01*
X80414600Y-42047200D02*
X79183600Y-42047200D01*
X83321600Y-42087200D02*
X82094600Y-42087200D01*
X80414600Y-42087200D02*
X79187600Y-42087200D01*
X83316600Y-42127200D02*
X82094600Y-42127200D01*
X80414600Y-42127200D02*
X79192600Y-42127200D01*
X83310600Y-42167200D02*
X82094600Y-42167200D01*
X80414600Y-42167200D02*
X79198600Y-42167200D01*
X83304600Y-42207200D02*
X82094600Y-42207200D01*
X80414600Y-42207200D02*
X79204600Y-42207200D01*
X83296600Y-42247200D02*
X82094600Y-42247200D01*
X80414600Y-42247200D02*
X79212600Y-42247200D01*
X83288600Y-42287200D02*
X82094600Y-42287200D01*
X80414600Y-42287200D02*
X79220600Y-42287200D01*
X83279600Y-42327200D02*
X82094600Y-42327200D01*
X80414600Y-42327200D02*
X79229600Y-42327200D01*
X83270600Y-42367200D02*
X82094600Y-42367200D01*
X80414600Y-42367200D02*
X79238600Y-42367200D01*
X83259600Y-42407200D02*
X82094600Y-42407200D01*
X80414600Y-42407200D02*
X79249600Y-42407200D01*
X83248600Y-42447200D02*
X82094600Y-42447200D01*
X80414600Y-42447200D02*
X79260600Y-42447200D01*
X83236600Y-42487200D02*
X82094600Y-42487200D01*
X80414600Y-42487200D02*
X79272600Y-42487200D01*
X83222600Y-42527200D02*
X82094600Y-42527200D01*
X80414600Y-42527200D02*
X79286600Y-42527200D01*
X83208600Y-42568200D02*
X82094600Y-42568200D01*
X80414600Y-42568200D02*
X79300600Y-42568200D01*
X83194600Y-42608200D02*
X82094600Y-42608200D01*
X80414600Y-42608200D02*
X79314600Y-42608200D01*
X83178600Y-42648200D02*
X82094600Y-42648200D01*
X80414600Y-42648200D02*
X79330600Y-42648200D01*
X83161600Y-42688200D02*
X82094600Y-42688200D01*
X80414600Y-42688200D02*
X79347600Y-42688200D01*
X83143600Y-42728200D02*
X82094600Y-42728200D01*
X80414600Y-42728200D02*
X79365600Y-42728200D01*
X83124600Y-42768200D02*
X82094600Y-42768200D01*
X80414600Y-42768200D02*
X79384600Y-42768200D01*
X83105600Y-42808200D02*
X82094600Y-42808200D01*
X80414600Y-42808200D02*
X79403600Y-42808200D01*
X83084600Y-42848200D02*
X82094600Y-42848200D01*
X80414600Y-42848200D02*
X79424600Y-42848200D01*
X83062600Y-42888200D02*
X82094600Y-42888200D01*
X80414600Y-42888200D02*
X79446600Y-42888200D01*
X83039600Y-42928200D02*
X82094600Y-42928200D01*
X80414600Y-42928200D02*
X79469600Y-42928200D01*
X83014600Y-42968200D02*
X82094600Y-42968200D01*
X80414600Y-42968200D02*
X79494600Y-42968200D01*
X82989600Y-43008200D02*
X82094600Y-43008200D01*
X80414600Y-43008200D02*
X79519600Y-43008200D01*
X82962600Y-43048200D02*
X82094600Y-43048200D01*
X80414600Y-43048200D02*
X79546600Y-43048200D01*
X82934600Y-43088200D02*
X82094600Y-43088200D01*
X80414600Y-43088200D02*
X79574600Y-43088200D01*
X82904600Y-43128200D02*
X82094600Y-43128200D01*
X80414600Y-43128200D02*
X79604600Y-43128200D01*
X82873600Y-43168200D02*
X82094600Y-43168200D01*
X80414600Y-43168200D02*
X79635600Y-43168200D01*
X82841600Y-43208200D02*
X82094600Y-43208200D01*
X80414600Y-43208200D02*
X79667600Y-43208200D01*
X82806600Y-43248200D02*
X82094600Y-43248200D01*
X80414600Y-43248200D02*
X79702600Y-43248200D01*
X82770600Y-43288200D02*
X82094600Y-43288200D01*
X80414600Y-43288200D02*
X79738600Y-43288200D01*
X82732600Y-43328200D02*
X82094600Y-43328200D01*
X80414600Y-43328200D02*
X79776600Y-43328200D01*
X82692600Y-43368200D02*
X82094600Y-43368200D01*
X80414600Y-43368200D02*
X79816600Y-43368200D01*
X82650600Y-43408200D02*
X82094600Y-43408200D01*
X80414600Y-43408200D02*
X79858600Y-43408200D01*
X82605600Y-43448200D02*
X79903600Y-43448200D01*
X82558600Y-43488200D02*
X79950600Y-43488200D01*
X82508600Y-43528200D02*
X80000600Y-43528200D01*
X82454600Y-43568200D02*
X80054600Y-43568200D01*
X82396600Y-43608200D02*
X80112600Y-43608200D01*
X82334600Y-43648200D02*
X80174600Y-43648200D01*
X82267600Y-43688200D02*
X80241600Y-43688200D01*
X82194600Y-43728200D02*
X80314600Y-43728200D01*
X82113600Y-43768200D02*
X80395600Y-43768200D01*
X82022600Y-43808200D02*
X80486600Y-43808200D01*
X81918600Y-43848200D02*
X80590600Y-43848200D01*
X81791600Y-43888200D02*
X80717600Y-43888200D01*
X81624600Y-43928200D02*
X80884600Y-43928200D01*
X82449600Y-39577399D02*
X82449600Y-39977399D01*
X82649600Y-39777399D02*
X82249600Y-39777399D01*
X82497200Y-49403999D02*
X82097200Y-49403999D01*
X82297200Y-49203999D02*
X82297200Y-49603999D01*
X81472200Y-53554800D02*
X80732200Y-53554800D01*
X81639200Y-53514800D02*
X80565200Y-53514800D01*
X81766200Y-53474800D02*
X80438200Y-53474800D01*
X81870200Y-53434800D02*
X80334200Y-53434800D01*
X81961200Y-53394800D02*
X80243200Y-53394800D01*
X82042200Y-53354800D02*
X80162200Y-53354800D01*
X82115200Y-53314800D02*
X80089200Y-53314800D01*
X82182200Y-53274800D02*
X80022200Y-53274800D01*
X82244200Y-53234800D02*
X79960200Y-53234800D01*
X82302200Y-53194800D02*
X79902200Y-53194800D01*
X82356200Y-53154800D02*
X79848200Y-53154800D01*
X82406200Y-53114800D02*
X79798200Y-53114800D01*
X82453200Y-53074800D02*
X79751200Y-53074800D01*
X80262200Y-53034800D02*
X79706200Y-53034800D01*
X82498200Y-53034800D02*
X81942200Y-53034800D01*
X80262200Y-52994800D02*
X79664200Y-52994800D01*
X82540200Y-52994800D02*
X81942200Y-52994800D01*
X80262200Y-52954800D02*
X79624200Y-52954800D01*
X82580200Y-52954800D02*
X81942200Y-52954800D01*
X80262200Y-52914800D02*
X79586200Y-52914800D01*
X82618200Y-52914800D02*
X81942200Y-52914800D01*
X80262200Y-52874800D02*
X79550200Y-52874800D01*
X82654200Y-52874800D02*
X81942200Y-52874800D01*
X80262200Y-52834800D02*
X79515200Y-52834800D01*
X82689200Y-52834800D02*
X81942200Y-52834800D01*
X80262200Y-52794800D02*
X79483200Y-52794800D01*
X82721200Y-52794800D02*
X81942200Y-52794800D01*
X80262200Y-52754800D02*
X79452200Y-52754800D01*
X82752200Y-52754800D02*
X81942200Y-52754800D01*
X80262200Y-52714800D02*
X79422200Y-52714800D01*
X82782200Y-52714800D02*
X81942200Y-52714800D01*
X80262200Y-52674800D02*
X79394200Y-52674800D01*
X82810200Y-52674800D02*
X81942200Y-52674800D01*
X80262200Y-52634800D02*
X79367200Y-52634800D01*
X82837200Y-52634800D02*
X81942200Y-52634800D01*
X80262200Y-52594800D02*
X79342200Y-52594800D01*
X82862200Y-52594800D02*
X81942200Y-52594800D01*
X80262200Y-52554800D02*
X79317200Y-52554800D01*
X82887200Y-52554800D02*
X81942200Y-52554800D01*
X80262200Y-52514800D02*
X79294200Y-52514800D01*
X82910200Y-52514800D02*
X81942200Y-52514800D01*
X80262200Y-52474800D02*
X79272200Y-52474800D01*
X82932200Y-52474800D02*
X81942200Y-52474800D01*
X80262200Y-52434800D02*
X79251200Y-52434800D01*
X82953200Y-52434800D02*
X81942200Y-52434800D01*
X80262200Y-52394800D02*
X79232200Y-52394800D01*
X82972200Y-52394800D02*
X81942200Y-52394800D01*
X80262200Y-52354800D02*
X79213200Y-52354800D01*
X82991200Y-52354800D02*
X81942200Y-52354800D01*
X80262200Y-52314800D02*
X79195200Y-52314800D01*
X83009200Y-52314800D02*
X81942200Y-52314800D01*
X80262200Y-52274800D02*
X79178200Y-52274800D01*
X83026200Y-52274800D02*
X81942200Y-52274800D01*
X80262200Y-52234800D02*
X79162200Y-52234800D01*
X83042200Y-52234800D02*
X81942200Y-52234800D01*
X80262200Y-52194800D02*
X79148200Y-52194800D01*
X83056200Y-52194800D02*
X81942200Y-52194800D01*
X80262200Y-52153800D02*
X79134200Y-52153800D01*
X83070200Y-52153800D02*
X81942200Y-52153800D01*
X80262200Y-52113800D02*
X79120200Y-52113800D01*
X83084200Y-52113800D02*
X81942200Y-52113800D01*
X80262200Y-52073800D02*
X79108200Y-52073800D01*
X83096200Y-52073800D02*
X81942200Y-52073800D01*
X80262200Y-52033800D02*
X79097200Y-52033800D01*
X83107200Y-52033800D02*
X81942200Y-52033800D01*
X80262200Y-51993800D02*
X79086200Y-51993800D01*
X83118200Y-51993800D02*
X81942200Y-51993800D01*
X80262200Y-51953800D02*
X79077200Y-51953800D01*
X83127200Y-51953800D02*
X81942200Y-51953800D01*
X80262200Y-51913800D02*
X79068200Y-51913800D01*
X83136200Y-51913800D02*
X81942200Y-51913800D01*
X80262200Y-51873800D02*
X79060200Y-51873800D01*
X83144200Y-51873800D02*
X81942200Y-51873800D01*
X80262200Y-51833800D02*
X79052200Y-51833800D01*
X83152200Y-51833800D02*
X81942200Y-51833800D01*
X80262200Y-51793800D02*
X79046200Y-51793800D01*
X83158200Y-51793800D02*
X81942200Y-51793800D01*
X80262200Y-51753800D02*
X79040200Y-51753800D01*
X83164200Y-51753800D02*
X81942200Y-51753800D01*
X80262200Y-51713800D02*
X79035200Y-51713800D01*
X83169200Y-51713800D02*
X81942200Y-51713800D01*
X80262200Y-51673800D02*
X79031200Y-51673800D01*
X83173200Y-51673800D02*
X81942200Y-51673800D01*
X80262200Y-51633800D02*
X79028200Y-51633800D01*
X83176200Y-51633800D02*
X81942200Y-51633800D01*
X80262200Y-51593800D02*
X79025200Y-51593800D01*
X83179200Y-51593800D02*
X81942200Y-51593800D01*
X83181200Y-51553800D02*
X81942200Y-51553800D01*
X80262200Y-51553800D02*
X79023200Y-51553800D01*
X83182200Y-51513800D02*
X81942200Y-51513800D01*
X80262200Y-51513800D02*
X79022200Y-51513800D01*
X83182200Y-51473800D02*
X81942200Y-51473800D01*
X80262200Y-51473800D02*
X79022200Y-51473800D01*
X83222200Y-51473800D02*
G75*
G03X83222200Y-51473800I-2120000J0D01*
G01*
X50648453Y-28706238D02*
X50710017Y-28537093D01*
X50710017Y-28537093D02*
X53942559Y-29713642D01*
X53942559Y-29713642D02*
X53880996Y-29882787D01*
X49800243Y-31036675D02*
X49738679Y-31205820D01*
X49738679Y-31205820D02*
X52971222Y-32382369D01*
X52971222Y-32382369D02*
X53032786Y-32213225D01*
X51273832Y-28742305D02*
X50302495Y-31411032D01*
X51386595Y-28783347D02*
X50415258Y-31452075D01*
X51161069Y-28701263D02*
X50189732Y-31369990D01*
X54177347Y-29129562D02*
X54115783Y-29298707D01*
X54115783Y-29298707D02*
X50883241Y-28122158D01*
X50883241Y-28122158D02*
X50944804Y-27953013D01*
X55025557Y-26799125D02*
X55087121Y-26629980D01*
X55087121Y-26629980D02*
X51854578Y-25453431D01*
X51854578Y-25453431D02*
X51793014Y-25622575D01*
X53551968Y-29093495D02*
X54523305Y-26424768D01*
X53439205Y-29052453D02*
X54410542Y-26383725D01*
X53664731Y-29134537D02*
X54636068Y-26465810D01*
X37465990Y-19633532D02*
X34797263Y-20604869D01*
X37548075Y-19859058D02*
X34879347Y-20830395D01*
X37507032Y-19746295D02*
X34838305Y-20717632D01*
X35809642Y-23386359D02*
X35978787Y-23324796D01*
X34633093Y-20153817D02*
X35809642Y-23386359D01*
X34802238Y-20092253D02*
X34633093Y-20153817D01*
X38478369Y-22415022D02*
X38309225Y-22476586D01*
X37301820Y-19182479D02*
X38478369Y-22415022D01*
X37132675Y-19244043D02*
X37301820Y-19182479D01*
X33598940Y-63470354D02*
X35912976Y-66228114D01*
X33583034Y-63433470D02*
G75*
G02X38164856Y-61988829I2590106J-226606D01*
G01*
X35946534Y-66250182D02*
G75*
G03X38164856Y-61988829I226606J2590106D01*
G01*
X22641078Y-53171878D02*
G75*
G03X20802600Y-48733400I-1838478J1838478D01*
G01*
X18964122Y-53171878D02*
G75*
G02X20802600Y-48733400I1838478J1838478D01*
G01*
X19002600Y-53183400D02*
X22602600Y-53183400D01*
X31855345Y-62428186D02*
X31602550Y-62640306D01*
X36059176Y-67438117D02*
X31855345Y-62428186D01*
X35806381Y-67650237D02*
X36059176Y-67438117D01*
X29756383Y-64189424D02*
X30009178Y-63977304D01*
X33960214Y-69199355D02*
X29756383Y-64189424D01*
X34213008Y-68987235D02*
X33960214Y-69199355D01*
X31118745Y-53563586D02*
X30865950Y-53775706D01*
X35322576Y-58573517D02*
X31118745Y-53563586D01*
X35069781Y-58785637D02*
X35322576Y-58573517D01*
X29019783Y-55324824D02*
X29272578Y-55112704D01*
X33223614Y-60334755D02*
X29019783Y-55324824D01*
X33476408Y-60122635D02*
X33223614Y-60334755D01*
X61087482Y-27597544D02*
X60777383Y-27484677D01*
X58850670Y-33743134D02*
X61087482Y-27597544D01*
X58540571Y-33630267D02*
X58850670Y-33743134D01*
X58512724Y-26660409D02*
X58822822Y-26773275D01*
X56275912Y-32805998D02*
X58512724Y-26660409D01*
X56586011Y-32918865D02*
X56275912Y-32805998D01*
X65130789Y-25526535D02*
X65440888Y-25639402D01*
X65440888Y-25639402D02*
X63204076Y-31784991D01*
X63204076Y-31784991D02*
X62893978Y-31672125D01*
X63176229Y-24815133D02*
X62866130Y-24702266D01*
X62866130Y-24702266D02*
X60629318Y-30847856D01*
X60629318Y-30847856D02*
X60939417Y-30960723D01*
X66209145Y-22970860D02*
X66494934Y-22805860D01*
X62939145Y-17307054D02*
X66209145Y-22970860D01*
X63224934Y-17142054D02*
X62939145Y-17307054D01*
X68582055Y-21600860D02*
X68296266Y-21765860D01*
X65312055Y-15937054D02*
X68582055Y-21600860D01*
X65026266Y-16102054D02*
X65312055Y-15937054D01*
X38894000Y-69978600D02*
X38894000Y-70308600D01*
X45434000Y-69978600D02*
X38894000Y-69978600D01*
X45434000Y-70308600D02*
X45434000Y-69978600D01*
X38894000Y-72718600D02*
X38894000Y-72388600D01*
X45434000Y-72718600D02*
X38894000Y-72718600D01*
X45434000Y-72388600D02*
X45434000Y-72718600D01*
X49909600Y-65767200D02*
X50239600Y-65767200D01*
X50239600Y-65767200D02*
X50239600Y-72307200D01*
X50239600Y-72307200D02*
X49909600Y-72307200D01*
X47829600Y-65767200D02*
X47499600Y-65767200D01*
X47499600Y-65767200D02*
X47499600Y-72307200D01*
X47499600Y-72307200D02*
X47829600Y-72307200D01*
X45459400Y-69442000D02*
X45459400Y-69112000D01*
X38919400Y-69442000D02*
X45459400Y-69442000D01*
X38919400Y-69112000D02*
X38919400Y-69442000D01*
X45459400Y-66702000D02*
X45459400Y-67032000D01*
X38919400Y-66702000D02*
X45459400Y-66702000D01*
X38919400Y-67032000D02*
X38919400Y-66702000D01*
X42513000Y-46023200D02*
X42513000Y-45693200D01*
X35973000Y-46023200D02*
X42513000Y-46023200D01*
X35973000Y-45693200D02*
X35973000Y-46023200D01*
X42513000Y-43283200D02*
X42513000Y-43613200D01*
X35973000Y-43283200D02*
X42513000Y-43283200D01*
X35973000Y-43613200D02*
X35973000Y-43283200D01*
X46860054Y-43082734D02*
X47025054Y-42796945D01*
X47025054Y-42796945D02*
X52688860Y-46066945D01*
X52688860Y-46066945D02*
X52523860Y-46352734D01*
X45820054Y-44884066D02*
X45655054Y-45169855D01*
X45655054Y-45169855D02*
X51318860Y-48439855D01*
X51318860Y-48439855D02*
X51483860Y-48154066D01*
X52272718Y-42125456D02*
X52582817Y-42238323D01*
X54509530Y-35979866D02*
X52272718Y-42125456D01*
X54819629Y-36092733D02*
X54509530Y-35979866D01*
X54847476Y-43062591D02*
X54537378Y-42949725D01*
X57084288Y-36917002D02*
X54847476Y-43062591D01*
X56774189Y-36804135D02*
X57084288Y-36917002D01*
X42696000Y-58248800D02*
X43026000Y-58248800D01*
X43026000Y-58248800D02*
X43026000Y-64788800D01*
X43026000Y-64788800D02*
X42696000Y-64788800D01*
X40616000Y-58248800D02*
X40286000Y-58248800D01*
X40286000Y-58248800D02*
X40286000Y-64788800D01*
X40286000Y-64788800D02*
X40616000Y-64788800D01*
X38642276Y-34407409D02*
X38332178Y-34520275D01*
X40879088Y-40552998D02*
X38642276Y-34407409D01*
X40568989Y-40665865D02*
X40879088Y-40552998D01*
X36067518Y-35344544D02*
X36377617Y-35231677D01*
X38304330Y-41490134D02*
X36067518Y-35344544D01*
X38614429Y-41377267D02*
X38304330Y-41490134D01*
X46174254Y-46435534D02*
X46339254Y-46149745D01*
X46339254Y-46149745D02*
X52003060Y-49419745D01*
X52003060Y-49419745D02*
X51838060Y-49705534D01*
X45134254Y-48236866D02*
X44969254Y-48522655D01*
X44969254Y-48522655D02*
X50633060Y-51792655D01*
X50633060Y-51792655D02*
X50798060Y-51506866D01*
X44298435Y-51156392D02*
X44510555Y-51409186D01*
X44510555Y-51409186D02*
X39500624Y-55613017D01*
X39500624Y-55613017D02*
X39288504Y-55360222D01*
X42961437Y-49563019D02*
X42749317Y-49310224D01*
X42749317Y-49310224D02*
X37739386Y-53514055D01*
X37739386Y-53514055D02*
X37951506Y-53766850D01*
X46164056Y-29845482D02*
X46276923Y-29535383D01*
X40018466Y-27608670D02*
X46164056Y-29845482D01*
X40131333Y-27298571D02*
X40018466Y-27608670D01*
X47101191Y-27270724D02*
X46988325Y-27580822D01*
X40955602Y-25033912D02*
X47101191Y-27270724D01*
X40842735Y-25344011D02*
X40955602Y-25033912D01*
X47219065Y-26294189D02*
X47106198Y-26604288D01*
X47106198Y-26604288D02*
X40960609Y-24367476D01*
X40960609Y-24367476D02*
X41073475Y-24057378D01*
X47930467Y-24339629D02*
X48043334Y-24029530D01*
X48043334Y-24029530D02*
X41897744Y-21792718D01*
X41897744Y-21792718D02*
X41784877Y-22102817D01*
X40407859Y-17944584D02*
X40350555Y-18269571D01*
X46848502Y-19080243D02*
X40407859Y-17944584D01*
X46791198Y-19405230D02*
X46848502Y-19080243D01*
X39932063Y-20642958D02*
X39989367Y-20317971D01*
X46372706Y-21778617D02*
X39932063Y-20642958D01*
X46430010Y-21453630D02*
X46372706Y-21778617D01*
X54743600Y-64288800D02*
X54743600Y-63958800D01*
X54743600Y-63958800D02*
X61283600Y-63958800D01*
X61283600Y-63958800D02*
X61283600Y-64288800D01*
X54743600Y-66368800D02*
X54743600Y-66698800D01*
X54743600Y-66698800D02*
X61283600Y-66698800D01*
X61283600Y-66698800D02*
X61283600Y-66368800D01*
X31720976Y-29476417D02*
X31933096Y-29223622D01*
X26711045Y-25272586D02*
X31720976Y-29476417D01*
X26923165Y-25019792D02*
X26711045Y-25272586D01*
X33482214Y-27377455D02*
X33270094Y-27630250D01*
X28472283Y-23173624D02*
X33482214Y-27377455D01*
X28260163Y-23426419D02*
X28472283Y-23173624D01*
X56767600Y-48063400D02*
X57097600Y-48063400D01*
X57097600Y-48063400D02*
X57097600Y-54603400D01*
X57097600Y-54603400D02*
X56767600Y-54603400D01*
X54687600Y-48063400D02*
X54357600Y-48063400D01*
X54357600Y-48063400D02*
X54357600Y-54603400D01*
X54357600Y-54603400D02*
X54687600Y-54603400D01*
X64692400Y-54845200D02*
X65022400Y-54845200D01*
X65022400Y-54845200D02*
X65022400Y-61385200D01*
X65022400Y-61385200D02*
X64692400Y-61385200D01*
X62612400Y-54845200D02*
X62282400Y-54845200D01*
X62282400Y-54845200D02*
X62282400Y-61385200D01*
X62282400Y-61385200D02*
X62612400Y-61385200D01*
X64686181Y-35118163D02*
X64938976Y-35330283D01*
X64938976Y-35330283D02*
X60735145Y-40340214D01*
X60735145Y-40340214D02*
X60482350Y-40128094D01*
X63092808Y-33781165D02*
X62840014Y-33569045D01*
X62840014Y-33569045D02*
X58636183Y-38578976D01*
X58636183Y-38578976D02*
X58888978Y-38791096D01*
X67816600Y-54819800D02*
X68146600Y-54819800D01*
X68146600Y-54819800D02*
X68146600Y-61359800D01*
X68146600Y-61359800D02*
X67816600Y-61359800D01*
X65736600Y-54819800D02*
X65406600Y-54819800D01*
X65406600Y-54819800D02*
X65406600Y-61359800D01*
X65406600Y-61359800D02*
X65736600Y-61359800D01*
X74013334Y-41327346D02*
X73727545Y-41492346D01*
X73727545Y-41492346D02*
X70457545Y-35828540D01*
X70457545Y-35828540D02*
X70743334Y-35663540D01*
X75814666Y-40287346D02*
X76100455Y-40122346D01*
X76100455Y-40122346D02*
X72830455Y-34458540D01*
X72830455Y-34458540D02*
X72544666Y-34623540D01*
X64722463Y-63812042D02*
X64779767Y-64137029D01*
X71163106Y-62676383D02*
X64722463Y-63812042D01*
X71220410Y-63001370D02*
X71163106Y-62676383D01*
X65198259Y-66510416D02*
X65140955Y-66185429D01*
X71638902Y-65374757D02*
X65198259Y-66510416D01*
X71581598Y-65049770D02*
X71638902Y-65374757D01*
X71550400Y-46158400D02*
X71880400Y-46158400D01*
X71880400Y-46158400D02*
X71880400Y-52698400D01*
X71880400Y-52698400D02*
X71550400Y-52698400D01*
X69470400Y-46158400D02*
X69140400Y-46158400D01*
X69140400Y-46158400D02*
X69140400Y-52698400D01*
X69140400Y-52698400D02*
X69470400Y-52698400D01*
X21964400Y-56335600D02*
X21964400Y-56005600D01*
X15424400Y-56335600D02*
X21964400Y-56335600D01*
X15424400Y-56005600D02*
X15424400Y-56335600D01*
X21964400Y-53595600D02*
X21964400Y-53925600D01*
X15424400Y-53595600D02*
X21964400Y-53595600D01*
X15424400Y-53925600D02*
X15424400Y-53595600D01*
X21964400Y-59434400D02*
X21964400Y-59104400D01*
X15424400Y-59434400D02*
X21964400Y-59434400D01*
X15424400Y-59104400D02*
X15424400Y-59434400D01*
X21964400Y-56694400D02*
X21964400Y-57024400D01*
X15424400Y-56694400D02*
X21964400Y-56694400D01*
X15424400Y-57024400D02*
X15424400Y-56694400D01*
X73178800Y-51301400D02*
X72848800Y-51301400D01*
X72848800Y-51301400D02*
X72848800Y-44761400D01*
X72848800Y-44761400D02*
X73178800Y-44761400D01*
X75258800Y-51301400D02*
X75588800Y-51301400D01*
X75588800Y-51301400D02*
X75588800Y-44761400D01*
X75588800Y-44761400D02*
X75258800Y-44761400D01*
X26211400Y-53041800D02*
X26541400Y-53041800D01*
X26541400Y-53041800D02*
X26541400Y-59581800D01*
X26541400Y-59581800D02*
X26211400Y-59581800D01*
X24131400Y-53041800D02*
X23801400Y-53041800D01*
X23801400Y-53041800D02*
X23801400Y-59581800D01*
X23801400Y-59581800D02*
X24131400Y-59581800D01*
X54517600Y-56597800D02*
X55207600Y-56597800D01*
X54517600Y-56697800D02*
X54517600Y-56597800D01*
X54517600Y-63217800D02*
X54767600Y-63217800D01*
X54517600Y-63117800D02*
X54517600Y-63217800D01*
X54317600Y-63117800D02*
X54517600Y-63117800D01*
X54517600Y-61697800D02*
X54317600Y-61697800D01*
X60227600Y-56597800D02*
G75*
G02X61537600Y-57907800I0J-1310000D01*
G01*
X61537600Y-61907800D02*
G75*
G02X60227600Y-63217800I-1310000J0D01*
G01*
X61537600Y-57907800D02*
X61537600Y-59397800D01*
X56247600Y-56597800D02*
X60227600Y-56597800D01*
X60227600Y-63217800D02*
X56687600Y-63217800D01*
X61537600Y-60417800D02*
X61537600Y-61907800D01*
X54317600Y-56697800D02*
X54517600Y-56697800D01*
X54317600Y-58117800D02*
X54317600Y-56697800D01*
X54517600Y-58117800D02*
X54317600Y-58117800D01*
X54517600Y-61697800D02*
X54517600Y-58117800D01*
X54317600Y-63117800D02*
X54317600Y-61697800D01*
X55207600Y-56597800D02*
X56247600Y-56597800D01*
X54767600Y-63217800D02*
X56687600Y-63217800D01*
X61537600Y-59397800D02*
X61537600Y-60417800D01*
X48238943Y-22705292D02*
X57898983Y-26221260D01*
X51795953Y-12932489D02*
X48238943Y-22705292D01*
X61455993Y-16448456D02*
X51795953Y-12932489D01*
X57898983Y-26221260D02*
X61455993Y-16448456D01*
X50599299Y-23500541D02*
X52149792Y-24064874D01*
X54115266Y-13840501D02*
X50599299Y-23500541D01*
X59095637Y-15653208D02*
X54115266Y-13840501D01*
X55579670Y-25313248D02*
X59095637Y-15653208D01*
X54029177Y-24748915D02*
X55579670Y-25313248D01*
X52149791Y-24064873D02*
G75*
G02X54029177Y-24748915I939693J-342021D01*
G01*
X50796409Y-32196127D02*
G75*
G02X48917023Y-31512085I-939693J342021D01*
G01*
X48917023Y-31512085D02*
X47366530Y-30947752D01*
X47366530Y-30947752D02*
X43850563Y-40607792D01*
X43850563Y-40607792D02*
X48830934Y-42420499D01*
X48830934Y-42420499D02*
X52346901Y-32760459D01*
X52346901Y-32760459D02*
X50796408Y-32196126D01*
X45047217Y-30039740D02*
X41490207Y-39812544D01*
X41490207Y-39812544D02*
X51150247Y-43328511D01*
X51150247Y-43328511D02*
X54707257Y-33555708D01*
X54707257Y-33555708D02*
X45047217Y-30039740D01*
X53755600Y-52991400D02*
X43475600Y-52991400D01*
X53755600Y-63391400D02*
X53755600Y-52991400D01*
X43475600Y-63391400D02*
X53755600Y-63391400D01*
X43475600Y-52991400D02*
X43475600Y-63391400D01*
X51265600Y-53051400D02*
X49615600Y-53051400D01*
X51265600Y-63331400D02*
X51265600Y-53051400D01*
X45965600Y-63331400D02*
X51265600Y-63331400D01*
X45965600Y-53051400D02*
X45965600Y-63331400D01*
X47615600Y-53051400D02*
X45965600Y-53051400D01*
X49615600Y-53051400D02*
G75*
G02X47615600Y-53051400I-1000000J0D01*
G01*
X24037800Y-28642000D02*
G75*
G02X22037800Y-28642000I-1000000J0D01*
G01*
X22037800Y-28642000D02*
X20387800Y-28642000D01*
X20387800Y-28642000D02*
X20387800Y-46542000D01*
X20387800Y-46542000D02*
X25687800Y-46542000D01*
X25687800Y-46542000D02*
X25687800Y-28642000D01*
X25687800Y-28642000D02*
X24037800Y-28642000D01*
X17897800Y-28582000D02*
X17897800Y-46602000D01*
X17897800Y-46602000D02*
X28177800Y-46602000D01*
X28177800Y-46602000D02*
X28177800Y-28582000D01*
X28177800Y-28582000D02*
X17897800Y-28582000D01*
X68589200Y-48193200D02*
G75*
G02X68589200Y-46193200I0J1000000D01*
G01*
X68589200Y-46193200D02*
X68589200Y-44543200D01*
X68589200Y-44543200D02*
X58309200Y-44543200D01*
X58309200Y-44543200D02*
X58309200Y-49843200D01*
X58309200Y-49843200D02*
X68589200Y-49843200D01*
X68589200Y-49843200D02*
X68589200Y-48193200D01*
X68649200Y-42053200D02*
X58249200Y-42053200D01*
X58249200Y-42053200D02*
X58249200Y-52333200D01*
X58249200Y-52333200D02*
X68649200Y-52333200D01*
X68649200Y-52333200D02*
X68649200Y-42053200D01*
D11*
X27493933Y-62688742D02*
X27446314Y-62736361D01*
X27303457Y-62783980D01*
X27208219Y-62783980D01*
X27065361Y-62736361D01*
X26970123Y-62641123D01*
X26922504Y-62545885D01*
X26874885Y-62355409D01*
X26874885Y-62212552D01*
X26922504Y-62022076D01*
X26970123Y-61926838D01*
X27065361Y-61831600D01*
X27208219Y-61783980D01*
X27303457Y-61783980D01*
X27446314Y-61831600D01*
X27493933Y-61879219D01*
X28446314Y-62783980D02*
X27874885Y-62783980D01*
X28160600Y-62783980D02*
X28160600Y-61783980D01*
X28065361Y-61926838D01*
X27970123Y-62022076D01*
X27874885Y-62069695D01*
X34634256Y-50573041D02*
X34640125Y-50640128D01*
X34584776Y-50780172D01*
X34523559Y-50853128D01*
X34395253Y-50931954D01*
X34261079Y-50943693D01*
X34157513Y-50918953D01*
X33980991Y-50832996D01*
X33871556Y-50741169D01*
X33756252Y-50582255D01*
X33713904Y-50484559D01*
X33702166Y-50350385D01*
X33757514Y-50210341D01*
X33818732Y-50137384D01*
X33947037Y-50058558D01*
X34014124Y-50052689D01*
X34258996Y-49760862D02*
X34253126Y-49693775D01*
X34277866Y-49590209D01*
X34430911Y-49407818D01*
X34528607Y-49365470D01*
X34595694Y-49359601D01*
X34699260Y-49384340D01*
X34772216Y-49445558D01*
X34851042Y-49573863D01*
X34921475Y-50378910D01*
X35319391Y-49904692D01*
X35865081Y-57251892D02*
X35797994Y-57246023D01*
X35669689Y-57167197D01*
X35608471Y-57094240D01*
X35553122Y-56954197D01*
X35564861Y-56820022D01*
X35607209Y-56722326D01*
X35722513Y-56563412D01*
X35831948Y-56471585D01*
X36008470Y-56385628D01*
X36112036Y-56360888D01*
X36246210Y-56372627D01*
X36374515Y-56451453D01*
X36435733Y-56524409D01*
X36491082Y-56664453D01*
X36485212Y-56731541D01*
X36772431Y-56925671D02*
X37170347Y-57399889D01*
X36664258Y-57389412D01*
X36756085Y-57498847D01*
X36780825Y-57602413D01*
X36774955Y-57669500D01*
X36732608Y-57767196D01*
X36550216Y-57920241D01*
X36446651Y-57944980D01*
X36379563Y-57939111D01*
X36281867Y-57896763D01*
X36098214Y-57677893D01*
X36073474Y-57574328D01*
X36079343Y-57507241D01*
X42620401Y-32993965D02*
X42648861Y-33054999D01*
X42644748Y-33205527D01*
X42612175Y-33295022D01*
X42518568Y-33412977D01*
X42396500Y-33469898D01*
X42290719Y-33482072D01*
X42095443Y-33461673D01*
X41961201Y-33412813D01*
X41798499Y-33302919D01*
X41725291Y-33225598D01*
X41668370Y-33103530D01*
X41672483Y-32953002D01*
X41705056Y-32863507D01*
X41798663Y-32745552D01*
X41859697Y-32717092D01*
X42376594Y-31993074D02*
X43003055Y-32221088D01*
X41937182Y-32086517D02*
X42526958Y-32554553D01*
X42738684Y-31972839D01*
X39598892Y-50291718D02*
X39593023Y-50358805D01*
X39514197Y-50487110D01*
X39441240Y-50548328D01*
X39301197Y-50603677D01*
X39167022Y-50591938D01*
X39069326Y-50549590D01*
X38910412Y-50434286D01*
X38818585Y-50324851D01*
X38732628Y-50148329D01*
X38707888Y-50044763D01*
X38719627Y-49910589D01*
X38798453Y-49782284D01*
X38871409Y-49721066D01*
X39011453Y-49665717D01*
X39078541Y-49671587D01*
X39710411Y-49017060D02*
X39345627Y-49323150D01*
X39615238Y-49718542D01*
X39621108Y-49651455D01*
X39663456Y-49553758D01*
X39845847Y-49400714D01*
X39949413Y-49375974D01*
X40016500Y-49381844D01*
X40114196Y-49424191D01*
X40267241Y-49606583D01*
X40291980Y-49710148D01*
X40286111Y-49777236D01*
X40243763Y-49874932D01*
X40061372Y-50027976D01*
X39957806Y-50052716D01*
X39890719Y-50046847D01*
X58100933Y-68784742D02*
X58053314Y-68832361D01*
X57910457Y-68879980D01*
X57815219Y-68879980D01*
X57672361Y-68832361D01*
X57577123Y-68737123D01*
X57529504Y-68641885D01*
X57481885Y-68451409D01*
X57481885Y-68308552D01*
X57529504Y-68118076D01*
X57577123Y-68022838D01*
X57672361Y-67927600D01*
X57815219Y-67879980D01*
X57910457Y-67879980D01*
X58053314Y-67927600D01*
X58100933Y-67975219D01*
X58958076Y-67879980D02*
X58767600Y-67879980D01*
X58672361Y-67927600D01*
X58624742Y-67975219D01*
X58529504Y-68118076D01*
X58481885Y-68308552D01*
X58481885Y-68689504D01*
X58529504Y-68784742D01*
X58577123Y-68832361D01*
X58672361Y-68879980D01*
X58862838Y-68879980D01*
X58958076Y-68832361D01*
X59005695Y-68784742D01*
X59053314Y-68689504D01*
X59053314Y-68451409D01*
X59005695Y-68356171D01*
X58958076Y-68308552D01*
X58862838Y-68260933D01*
X58672361Y-68260933D01*
X58577123Y-68308552D01*
X58529504Y-68356171D01*
X58481885Y-68451409D01*
X37201934Y-30999607D02*
X37173474Y-31060641D01*
X37055518Y-31154249D01*
X36966024Y-31186822D01*
X36815495Y-31190935D01*
X36693427Y-31134014D01*
X36616107Y-31060806D01*
X36506213Y-30898103D01*
X36457353Y-30763861D01*
X36436953Y-30568586D01*
X36449127Y-30462804D01*
X36506049Y-30340737D01*
X36624004Y-30247129D01*
X36713498Y-30214556D01*
X36864027Y-30210443D01*
X36925061Y-30238904D01*
X37205718Y-30035403D02*
X37832180Y-29807389D01*
X37771475Y-30893662D01*
X70283342Y-58256466D02*
X70330961Y-58304085D01*
X70378580Y-58446942D01*
X70378580Y-58542180D01*
X70330961Y-58685038D01*
X70235723Y-58780276D01*
X70140485Y-58827895D01*
X69950009Y-58875514D01*
X69807152Y-58875514D01*
X69616676Y-58827895D01*
X69521438Y-58780276D01*
X69426200Y-58685038D01*
X69378580Y-58542180D01*
X69378580Y-58446942D01*
X69426200Y-58304085D01*
X69473819Y-58256466D01*
X69807152Y-57685038D02*
X69759533Y-57780276D01*
X69711914Y-57827895D01*
X69616676Y-57875514D01*
X69569057Y-57875514D01*
X69473819Y-57827895D01*
X69426200Y-57780276D01*
X69378580Y-57685038D01*
X69378580Y-57494561D01*
X69426200Y-57399323D01*
X69473819Y-57351704D01*
X69569057Y-57304085D01*
X69616676Y-57304085D01*
X69711914Y-57351704D01*
X69759533Y-57399323D01*
X69807152Y-57494561D01*
X69807152Y-57685038D01*
X69854771Y-57780276D01*
X69902390Y-57827895D01*
X69997628Y-57875514D01*
X70188104Y-57875514D01*
X70283342Y-57827895D01*
X70330961Y-57780276D01*
X70378580Y-57685038D01*
X70378580Y-57494561D01*
X70330961Y-57399323D01*
X70283342Y-57351704D01*
X70188104Y-57304085D01*
X69997628Y-57304085D01*
X69902390Y-57351704D01*
X69854771Y-57399323D01*
X69807152Y-57494561D01*
X67182482Y-40055458D02*
X67143855Y-40110622D01*
X67011438Y-40182325D01*
X66917646Y-40198863D01*
X66768691Y-40176774D01*
X66658361Y-40099521D01*
X66594928Y-40013999D01*
X66514956Y-39834685D01*
X66490150Y-39693998D01*
X66503969Y-39498147D01*
X66534327Y-39396087D01*
X66611580Y-39285758D01*
X66743998Y-39214055D01*
X66837789Y-39197517D01*
X66986745Y-39219606D01*
X67041910Y-39258233D01*
X67667976Y-40066560D02*
X67855559Y-40033484D01*
X67941081Y-39970050D01*
X67979707Y-39914886D01*
X68048692Y-39757661D01*
X68062512Y-39561809D01*
X67996360Y-39186645D01*
X67932926Y-39101122D01*
X67877762Y-39062496D01*
X67775702Y-39032138D01*
X67588119Y-39065214D01*
X67502597Y-39128647D01*
X67463970Y-39183812D01*
X67433613Y-39285872D01*
X67474957Y-39520350D01*
X67538391Y-39605872D01*
X67593555Y-39644499D01*
X67695616Y-39674857D01*
X67883198Y-39641781D01*
X67968720Y-39578347D01*
X68007347Y-39523183D01*
X68037705Y-39421123D01*
X67227651Y-33312526D02*
X67172487Y-33273899D01*
X67100784Y-33141482D01*
X67084246Y-33047690D01*
X67106335Y-32898735D01*
X67183589Y-32788405D01*
X67269111Y-32724972D01*
X67448424Y-32645000D01*
X67589111Y-32620194D01*
X67784962Y-32634013D01*
X67887023Y-32664371D01*
X67997352Y-32741624D01*
X68069054Y-32874042D01*
X68085592Y-32967833D01*
X68063503Y-33116789D01*
X68024877Y-33171954D01*
X67299239Y-34266976D02*
X67200012Y-33704229D01*
X67249626Y-33985602D02*
X68234433Y-33811954D01*
X68077209Y-33742970D01*
X67966880Y-33665717D01*
X67903446Y-33580194D01*
X68391544Y-34702971D02*
X68408082Y-34796762D01*
X68377724Y-34898822D01*
X68339097Y-34953987D01*
X68253575Y-35017420D01*
X68074262Y-35097392D01*
X67839784Y-35138737D01*
X67643932Y-35124917D01*
X67541872Y-35094559D01*
X67486707Y-35055932D01*
X67423274Y-34970410D01*
X67406736Y-34876619D01*
X67437094Y-34774559D01*
X67475720Y-34719394D01*
X67561243Y-34655961D01*
X67740556Y-34575989D01*
X67975034Y-34534644D01*
X68170885Y-34548464D01*
X68272946Y-34578822D01*
X68328110Y-34617449D01*
X68391544Y-34702971D01*
X84861742Y-42490057D02*
X84909361Y-42537676D01*
X84956980Y-42680533D01*
X84956980Y-42775771D01*
X84909361Y-42918628D01*
X84814123Y-43013866D01*
X84718885Y-43061485D01*
X84528409Y-43109104D01*
X84385552Y-43109104D01*
X84195076Y-43061485D01*
X84099838Y-43013866D01*
X84004600Y-42918628D01*
X83956980Y-42775771D01*
X83956980Y-42680533D01*
X84004600Y-42537676D01*
X84052219Y-42490057D01*
X84956980Y-41537676D02*
X84956980Y-42109104D01*
X84956980Y-41823390D02*
X83956980Y-41823390D01*
X84099838Y-41918628D01*
X84195076Y-42013866D01*
X84242695Y-42109104D01*
X83956980Y-41204342D02*
X83956980Y-40537676D01*
X84956980Y-40966247D01*
X84709342Y-52116657D02*
X84756961Y-52164276D01*
X84804580Y-52307133D01*
X84804580Y-52402371D01*
X84756961Y-52545228D01*
X84661723Y-52640466D01*
X84566485Y-52688085D01*
X84376009Y-52735704D01*
X84233152Y-52735704D01*
X84042676Y-52688085D01*
X83947438Y-52640466D01*
X83852200Y-52545228D01*
X83804580Y-52402371D01*
X83804580Y-52307133D01*
X83852200Y-52164276D01*
X83899819Y-52116657D01*
X84804580Y-51164276D02*
X84804580Y-51735704D01*
X84804580Y-51449990D02*
X83804580Y-51449990D01*
X83947438Y-51545228D01*
X84042676Y-51640466D01*
X84090295Y-51735704D01*
X84233152Y-50592847D02*
X84185533Y-50688085D01*
X84137914Y-50735704D01*
X84042676Y-50783323D01*
X83995057Y-50783323D01*
X83899819Y-50735704D01*
X83852200Y-50688085D01*
X83804580Y-50592847D01*
X83804580Y-50402371D01*
X83852200Y-50307133D01*
X83899819Y-50259514D01*
X83995057Y-50211895D01*
X84042676Y-50211895D01*
X84137914Y-50259514D01*
X84185533Y-50307133D01*
X84233152Y-50402371D01*
X84233152Y-50592847D01*
X84280771Y-50688085D01*
X84328390Y-50735704D01*
X84423628Y-50783323D01*
X84614104Y-50783323D01*
X84709342Y-50735704D01*
X84756961Y-50688085D01*
X84804580Y-50592847D01*
X84804580Y-50402371D01*
X84756961Y-50307133D01*
X84709342Y-50259514D01*
X84614104Y-50211895D01*
X84423628Y-50211895D01*
X84328390Y-50259514D01*
X84280771Y-50307133D01*
X84233152Y-50402371D01*
X51297893Y-30576455D02*
X51639914Y-29636762D01*
X51863650Y-29718196D01*
X51981605Y-29811803D01*
X52038526Y-29933871D01*
X52050700Y-30039652D01*
X52030301Y-30234928D01*
X51981441Y-30369170D01*
X51871547Y-30531872D01*
X51794226Y-30605080D01*
X51672158Y-30662001D01*
X51521630Y-30657888D01*
X51297893Y-30576455D01*
X52729806Y-31097629D02*
X52192839Y-30902189D01*
X52461322Y-30999909D02*
X52803343Y-30060216D01*
X52664988Y-30161884D01*
X52542920Y-30218806D01*
X52437139Y-30230980D01*
X51932893Y-27579255D02*
X52274914Y-26639562D01*
X52498650Y-26720996D01*
X52616605Y-26814603D01*
X52673526Y-26936671D01*
X52685700Y-27042452D01*
X52665301Y-27237728D01*
X52616441Y-27371970D01*
X52506547Y-27534672D01*
X52429226Y-27607880D01*
X52307158Y-27664801D01*
X52156630Y-27660688D01*
X51932893Y-27579255D01*
X53137286Y-27054790D02*
X53198320Y-27026330D01*
X53304101Y-27014156D01*
X53527837Y-27095589D01*
X53601045Y-27172910D01*
X53629506Y-27233944D01*
X53641679Y-27339725D01*
X53609106Y-27429220D01*
X53515499Y-27547175D01*
X52783092Y-27888702D01*
X53364806Y-28100429D01*
X36050857Y-20873340D02*
X36990550Y-20531320D01*
X37071983Y-20755056D01*
X37076096Y-20905585D01*
X37019175Y-21027653D01*
X36945967Y-21104973D01*
X36783264Y-21214867D01*
X36649023Y-21263727D01*
X36453747Y-21284127D01*
X36347966Y-21271953D01*
X36225898Y-21215032D01*
X36132290Y-21097077D01*
X36050857Y-20873340D01*
X37299996Y-21381518D02*
X37511723Y-21963233D01*
X37039738Y-21780295D01*
X37088598Y-21914537D01*
X37076424Y-22020318D01*
X37047964Y-22081352D01*
X36974756Y-22158673D01*
X36751020Y-22240106D01*
X36645238Y-22227932D01*
X36584204Y-22199472D01*
X36506884Y-22126264D01*
X36409164Y-21857780D01*
X36421338Y-21751999D01*
X36449798Y-21690965D01*
X38419539Y-61650799D02*
X38394800Y-61547233D01*
X38406538Y-61413059D01*
X38424146Y-61211797D01*
X38399407Y-61108231D01*
X38338189Y-61035275D01*
X38186406Y-61224798D02*
X38161667Y-61121232D01*
X38173406Y-60987058D01*
X38288710Y-60828144D01*
X38544058Y-60613881D01*
X38720580Y-60527924D01*
X38854755Y-60539662D01*
X38952451Y-60582010D01*
X39074887Y-60727923D01*
X39099626Y-60831489D01*
X39087887Y-60965663D01*
X38972583Y-61124577D01*
X38717235Y-61338840D01*
X38540713Y-61424797D01*
X38406538Y-61413059D01*
X38308842Y-61370711D01*
X38186406Y-61224798D01*
X39074065Y-62282669D02*
X38706758Y-61844929D01*
X38890412Y-62063799D02*
X39656456Y-61421011D01*
X39485804Y-61439881D01*
X39351629Y-61428143D01*
X39253933Y-61385795D01*
X20707361Y-48321019D02*
X20612123Y-48273400D01*
X20516885Y-48178161D01*
X20374028Y-48035304D01*
X20278790Y-47987685D01*
X20183552Y-47987685D01*
X20231171Y-48225780D02*
X20135933Y-48178161D01*
X20040695Y-48082923D01*
X19993076Y-47892447D01*
X19993076Y-47559114D01*
X20040695Y-47368638D01*
X20135933Y-47273400D01*
X20231171Y-47225780D01*
X20421647Y-47225780D01*
X20516885Y-47273400D01*
X20612123Y-47368638D01*
X20659742Y-47559114D01*
X20659742Y-47892447D01*
X20612123Y-48082923D01*
X20516885Y-48178161D01*
X20421647Y-48225780D01*
X20231171Y-48225780D01*
X21040695Y-47321019D02*
X21088314Y-47273400D01*
X21183552Y-47225780D01*
X21421647Y-47225780D01*
X21516885Y-47273400D01*
X21564504Y-47321019D01*
X21612123Y-47416257D01*
X21612123Y-47511495D01*
X21564504Y-47654352D01*
X20993076Y-48225780D01*
X21612123Y-48225780D01*
X32490124Y-66076110D02*
X32640645Y-65514673D01*
X32122817Y-65638371D02*
X32888862Y-64995583D01*
X33133733Y-65287409D01*
X33158473Y-65390975D01*
X33152603Y-65458062D01*
X33110256Y-65555758D01*
X33000821Y-65647585D01*
X32897255Y-65672325D01*
X32830168Y-65666455D01*
X32732472Y-65624108D01*
X32487600Y-65332281D01*
X33102303Y-66805676D02*
X32734996Y-66367937D01*
X32918649Y-66586807D02*
X33684694Y-65944019D01*
X33514041Y-65962889D01*
X33379867Y-65951150D01*
X33282170Y-65908803D01*
X31677324Y-57186110D02*
X31827845Y-56624673D01*
X31310017Y-56748371D02*
X32076062Y-56105583D01*
X32320933Y-56397409D01*
X32345673Y-56500975D01*
X32339803Y-56568062D01*
X32297456Y-56665758D01*
X32188021Y-56757585D01*
X32084455Y-56782325D01*
X32017368Y-56776455D01*
X31919672Y-56734108D01*
X31674800Y-56442281D01*
X32615284Y-56896367D02*
X32682371Y-56902236D01*
X32780067Y-56944584D01*
X32933112Y-57126976D01*
X32957851Y-57230541D01*
X32951982Y-57297628D01*
X32909634Y-57395325D01*
X32836678Y-57456542D01*
X32696634Y-57511891D01*
X31891587Y-57441458D01*
X32289503Y-57915676D01*
X59194495Y-30257938D02*
X58633016Y-30408302D01*
X58999055Y-30794906D02*
X58059362Y-30452885D01*
X58189656Y-30094907D01*
X58266976Y-30021699D01*
X58328010Y-29993239D01*
X58433792Y-29981065D01*
X58568033Y-30029925D01*
X58641241Y-30107246D01*
X58669702Y-30168279D01*
X58681876Y-30274061D01*
X58551582Y-30632039D01*
X58368809Y-29602687D02*
X58580536Y-29020973D01*
X58824507Y-29464497D01*
X58873367Y-29330255D01*
X58950688Y-29257047D01*
X59011722Y-29228587D01*
X59117503Y-29216413D01*
X59341240Y-29297846D01*
X59414447Y-29375167D01*
X59442908Y-29436201D01*
X59455082Y-29541982D01*
X59357362Y-29810466D01*
X59280041Y-29883674D01*
X59219007Y-29912134D01*
X63512495Y-28327538D02*
X62951016Y-28477902D01*
X63317055Y-28864506D02*
X62377362Y-28522485D01*
X62507656Y-28164507D01*
X62584976Y-28091299D01*
X62646010Y-28062839D01*
X62751792Y-28050665D01*
X62886033Y-28099525D01*
X62959241Y-28176846D01*
X62987702Y-28237879D01*
X62999876Y-28343661D01*
X62869582Y-28701639D01*
X63179194Y-27294074D02*
X63805655Y-27522088D01*
X62739782Y-27387517D02*
X63329558Y-27855553D01*
X63541284Y-27273839D01*
X65387093Y-19487452D02*
X65632819Y-18960682D01*
X65101378Y-18992581D02*
X65967404Y-18492581D01*
X66157880Y-18822495D01*
X66164260Y-18928783D01*
X66146830Y-18993832D01*
X66088161Y-19082691D01*
X65964443Y-19154119D01*
X65858155Y-19160499D01*
X65793106Y-19143069D01*
X65704248Y-19084400D01*
X65513772Y-18754486D01*
X66705499Y-19770999D02*
X66467404Y-19358606D01*
X66031201Y-19555462D01*
X66096250Y-19572892D01*
X66185108Y-19631561D01*
X66304156Y-19837757D01*
X66310536Y-19944046D01*
X66293106Y-20009094D01*
X66234437Y-20097953D01*
X66028240Y-20217000D01*
X65921952Y-20223380D01*
X65856904Y-20205950D01*
X65768045Y-20147281D01*
X65648998Y-19941085D01*
X65642618Y-19834797D01*
X65660048Y-19769748D01*
X42098933Y-71877180D02*
X41765600Y-71400990D01*
X41527504Y-71877180D02*
X41527504Y-70877180D01*
X41908457Y-70877180D01*
X42003695Y-70924800D01*
X42051314Y-70972419D01*
X42098933Y-71067657D01*
X42098933Y-71210514D01*
X42051314Y-71305752D01*
X42003695Y-71353371D01*
X41908457Y-71400990D01*
X41527504Y-71400990D01*
X42956076Y-70877180D02*
X42765600Y-70877180D01*
X42670361Y-70924800D01*
X42622742Y-70972419D01*
X42527504Y-71115276D01*
X42479885Y-71305752D01*
X42479885Y-71686704D01*
X42527504Y-71781942D01*
X42575123Y-71829561D01*
X42670361Y-71877180D01*
X42860838Y-71877180D01*
X42956076Y-71829561D01*
X43003695Y-71781942D01*
X43051314Y-71686704D01*
X43051314Y-71448609D01*
X43003695Y-71353371D01*
X42956076Y-71305752D01*
X42860838Y-71258133D01*
X42670361Y-71258133D01*
X42575123Y-71305752D01*
X42527504Y-71353371D01*
X42479885Y-71448609D01*
X49499780Y-69305466D02*
X49023590Y-69638800D01*
X49499780Y-69876895D02*
X48499780Y-69876895D01*
X48499780Y-69495942D01*
X48547400Y-69400704D01*
X48595019Y-69353085D01*
X48690257Y-69305466D01*
X48833114Y-69305466D01*
X48928352Y-69353085D01*
X48975971Y-69400704D01*
X49023590Y-69495942D01*
X49023590Y-69876895D01*
X48499780Y-68972133D02*
X48499780Y-68305466D01*
X49499780Y-68734038D01*
X42251333Y-68448180D02*
X41918000Y-67971990D01*
X41679904Y-68448180D02*
X41679904Y-67448180D01*
X42060857Y-67448180D01*
X42156095Y-67495800D01*
X42203714Y-67543419D01*
X42251333Y-67638657D01*
X42251333Y-67781514D01*
X42203714Y-67876752D01*
X42156095Y-67924371D01*
X42060857Y-67971990D01*
X41679904Y-67971990D01*
X42822761Y-67876752D02*
X42727523Y-67829133D01*
X42679904Y-67781514D01*
X42632285Y-67686276D01*
X42632285Y-67638657D01*
X42679904Y-67543419D01*
X42727523Y-67495800D01*
X42822761Y-67448180D01*
X43013238Y-67448180D01*
X43108476Y-67495800D01*
X43156095Y-67543419D01*
X43203714Y-67638657D01*
X43203714Y-67686276D01*
X43156095Y-67781514D01*
X43108476Y-67829133D01*
X43013238Y-67876752D01*
X42822761Y-67876752D01*
X42727523Y-67924371D01*
X42679904Y-67971990D01*
X42632285Y-68067228D01*
X42632285Y-68257704D01*
X42679904Y-68352942D01*
X42727523Y-68400561D01*
X42822761Y-68448180D01*
X43013238Y-68448180D01*
X43108476Y-68400561D01*
X43156095Y-68352942D01*
X43203714Y-68257704D01*
X43203714Y-68067228D01*
X43156095Y-67971990D01*
X43108476Y-67924371D01*
X43013238Y-67876752D01*
X39152533Y-45130980D02*
X38819200Y-44654790D01*
X38581104Y-45130980D02*
X38581104Y-44130980D01*
X38962057Y-44130980D01*
X39057295Y-44178600D01*
X39104914Y-44226219D01*
X39152533Y-44321457D01*
X39152533Y-44464314D01*
X39104914Y-44559552D01*
X39057295Y-44607171D01*
X38962057Y-44654790D01*
X38581104Y-44654790D01*
X39628723Y-45130980D02*
X39819200Y-45130980D01*
X39914438Y-45083361D01*
X39962057Y-45035742D01*
X40057295Y-44892885D01*
X40104914Y-44702409D01*
X40104914Y-44321457D01*
X40057295Y-44226219D01*
X40009676Y-44178600D01*
X39914438Y-44130980D01*
X39723961Y-44130980D01*
X39628723Y-44178600D01*
X39581104Y-44226219D01*
X39533485Y-44321457D01*
X39533485Y-44559552D01*
X39581104Y-44654790D01*
X39628723Y-44702409D01*
X39723961Y-44750028D01*
X39914438Y-44750028D01*
X40009676Y-44702409D01*
X40057295Y-44654790D01*
X40104914Y-44559552D01*
X48569278Y-45612544D02*
X48518699Y-45033485D01*
X48074407Y-45326830D02*
X48574407Y-44460805D01*
X48904321Y-44651281D01*
X48962990Y-44740139D01*
X48980420Y-44805188D01*
X48974040Y-44911476D01*
X48902612Y-45035194D01*
X48813753Y-45093863D01*
X48748705Y-45111293D01*
X48642416Y-45104913D01*
X48312502Y-44914437D01*
X49394065Y-46088735D02*
X48899193Y-45803021D01*
X49146629Y-45945878D02*
X49646629Y-45079852D01*
X49492721Y-45155951D01*
X49362624Y-45190811D01*
X49256336Y-45184431D01*
X50430175Y-45532233D02*
X50512654Y-45579852D01*
X50571323Y-45668711D01*
X50588753Y-45733759D01*
X50582373Y-45840048D01*
X50528374Y-46028814D01*
X50409327Y-46235011D01*
X50272849Y-46376159D01*
X50183991Y-46434828D01*
X50118942Y-46452257D01*
X50012654Y-46445878D01*
X49930175Y-46398259D01*
X49871506Y-46309400D01*
X49854077Y-46244351D01*
X49860456Y-46138063D01*
X49914455Y-45949297D01*
X50033503Y-45743100D01*
X50169980Y-45601952D01*
X50258839Y-45543283D01*
X50323887Y-45525853D01*
X50430175Y-45532233D01*
X54840628Y-40306611D02*
X54279149Y-40456975D01*
X54645188Y-40843578D02*
X53705496Y-40501558D01*
X53835789Y-40143580D01*
X53913110Y-40070372D01*
X53974144Y-40041911D01*
X54079925Y-40029738D01*
X54214167Y-40078598D01*
X54287375Y-40155918D01*
X54315835Y-40216952D01*
X54328009Y-40322733D01*
X54197716Y-40680711D01*
X55166362Y-39411666D02*
X54970922Y-39948633D01*
X55068642Y-39680149D02*
X54128949Y-39338129D01*
X54230618Y-39476484D01*
X54287539Y-39598552D01*
X54299713Y-39704333D01*
X55492095Y-38516720D02*
X55296655Y-39053688D01*
X55394375Y-38785204D02*
X54454683Y-38443184D01*
X54556351Y-38581538D01*
X54613272Y-38703606D01*
X54625446Y-38809387D01*
X42184580Y-61882257D02*
X41708390Y-62215590D01*
X42184580Y-62453685D02*
X41184580Y-62453685D01*
X41184580Y-62072733D01*
X41232200Y-61977495D01*
X41279819Y-61929876D01*
X41375057Y-61882257D01*
X41517914Y-61882257D01*
X41613152Y-61929876D01*
X41660771Y-61977495D01*
X41708390Y-62072733D01*
X41708390Y-62453685D01*
X42184580Y-60929876D02*
X42184580Y-61501304D01*
X42184580Y-61215590D02*
X41184580Y-61215590D01*
X41327438Y-61310828D01*
X41422676Y-61406066D01*
X41470295Y-61501304D01*
X41279819Y-60548923D02*
X41232200Y-60501304D01*
X41184580Y-60406066D01*
X41184580Y-60167971D01*
X41232200Y-60072733D01*
X41279819Y-60025114D01*
X41375057Y-59977495D01*
X41470295Y-59977495D01*
X41613152Y-60025114D01*
X42184580Y-60596542D01*
X42184580Y-59977495D01*
X37836030Y-37574436D02*
X38169496Y-37098338D01*
X37640590Y-37037469D02*
X38580283Y-36695448D01*
X38710576Y-37053427D01*
X38698402Y-37159208D01*
X38669942Y-37220242D01*
X38596734Y-37297562D01*
X38462492Y-37346422D01*
X38356711Y-37334248D01*
X38295677Y-37305788D01*
X38218356Y-37232580D01*
X38088063Y-36874602D01*
X38161764Y-38469381D02*
X37966324Y-37932414D01*
X38064044Y-38200898D02*
X39003736Y-37858877D01*
X38836921Y-37818243D01*
X38714853Y-37761322D01*
X38637533Y-37688114D01*
X39215463Y-38440592D02*
X39427190Y-39022306D01*
X38955205Y-38839369D01*
X39004065Y-38973611D01*
X38991891Y-39079392D01*
X38963431Y-39140426D01*
X38890223Y-39217746D01*
X38666486Y-39299180D01*
X38560705Y-39287006D01*
X38499671Y-39258545D01*
X38422351Y-39185337D01*
X38324631Y-38916854D01*
X38336804Y-38811073D01*
X38365265Y-38750039D01*
X47756478Y-48939944D02*
X47705899Y-48360885D01*
X47261607Y-48654230D02*
X47761607Y-47788205D01*
X48091521Y-47978681D01*
X48150190Y-48067539D01*
X48167620Y-48132588D01*
X48161240Y-48238876D01*
X48089812Y-48362594D01*
X48000953Y-48421263D01*
X47935905Y-48438693D01*
X47829616Y-48432313D01*
X47499702Y-48241837D01*
X48581265Y-49416135D02*
X48086393Y-49130421D01*
X48333829Y-49273278D02*
X48833829Y-48407252D01*
X48679921Y-48483351D01*
X48549824Y-48518211D01*
X48443536Y-48511831D01*
X49656905Y-49267356D02*
X49323572Y-49844706D01*
X49641185Y-48818394D02*
X49077846Y-49317936D01*
X49613957Y-49627460D01*
X41149527Y-53007564D02*
X40588090Y-52857043D01*
X40711788Y-53374871D02*
X40069000Y-52608827D01*
X40360826Y-52363955D01*
X40464392Y-52339216D01*
X40531479Y-52345085D01*
X40629175Y-52387433D01*
X40721002Y-52496868D01*
X40745742Y-52600433D01*
X40739872Y-52667521D01*
X40697525Y-52765217D01*
X40405698Y-53010088D01*
X41879093Y-52395385D02*
X41441354Y-52762693D01*
X41660224Y-52579039D02*
X41017436Y-51812995D01*
X41036306Y-51983647D01*
X41024567Y-52117822D01*
X40982220Y-52215518D01*
X41929394Y-51047771D02*
X41564611Y-51353860D01*
X41834222Y-51749252D01*
X41840091Y-51682165D01*
X41882439Y-51584469D01*
X42064830Y-51431424D01*
X42168396Y-51406685D01*
X42235483Y-51412554D01*
X42333179Y-51454902D01*
X42486224Y-51637293D01*
X42510963Y-51740859D01*
X42505094Y-51807946D01*
X42462746Y-51905642D01*
X42280355Y-52058687D01*
X42176789Y-52083427D01*
X42109702Y-52077557D01*
X42878388Y-27510228D02*
X42728024Y-26948749D01*
X42341421Y-27314788D02*
X42683441Y-26375096D01*
X43041419Y-26505389D01*
X43114627Y-26582710D01*
X43143088Y-26643744D01*
X43155261Y-26749525D01*
X43106401Y-26883767D01*
X43029081Y-26956975D01*
X42968047Y-26985435D01*
X42862266Y-26997609D01*
X42504288Y-26867316D01*
X43773333Y-27835962D02*
X43236366Y-27640522D01*
X43504850Y-27738242D02*
X43846870Y-26798549D01*
X43708515Y-26900218D01*
X43586447Y-26957139D01*
X43480666Y-26969313D01*
X44920804Y-27189429D02*
X44741815Y-27124283D01*
X44636034Y-27136457D01*
X44575000Y-27164917D01*
X44436646Y-27266586D01*
X44326752Y-27429288D01*
X44196458Y-27787266D01*
X44208632Y-27893047D01*
X44237093Y-27954081D01*
X44310301Y-28031402D01*
X44489290Y-28096549D01*
X44595071Y-28084375D01*
X44656105Y-28055914D01*
X44733425Y-27982706D01*
X44814859Y-27758970D01*
X44802685Y-27653189D01*
X44774224Y-27592155D01*
X44701016Y-27514834D01*
X44522027Y-27449688D01*
X44416246Y-27461861D01*
X44355212Y-27490322D01*
X44277892Y-27563530D01*
X43919788Y-24487628D02*
X43769424Y-23926149D01*
X43382821Y-24292188D02*
X43724841Y-23352496D01*
X44082819Y-23482789D01*
X44156027Y-23560110D01*
X44184488Y-23621144D01*
X44196661Y-23726925D01*
X44147801Y-23861167D01*
X44070481Y-23934375D01*
X44009447Y-23962835D01*
X43903666Y-23975009D01*
X43545688Y-23844716D01*
X44814733Y-24813362D02*
X44277766Y-24617922D01*
X44546250Y-24715642D02*
X44888270Y-23775949D01*
X44749915Y-23877618D01*
X44627847Y-23934539D01*
X44522066Y-23946713D01*
X45469984Y-23987676D02*
X46096446Y-24215689D01*
X45351701Y-25008802D01*
X42823954Y-20222077D02*
X42578374Y-19695238D01*
X42261206Y-20122849D02*
X42434855Y-19138042D01*
X42810019Y-19204193D01*
X42895542Y-19267627D01*
X42934168Y-19322791D01*
X42964526Y-19424851D01*
X42939719Y-19565538D01*
X42876286Y-19651061D01*
X42821121Y-19689687D01*
X42719061Y-19720045D01*
X42343896Y-19653893D01*
X43761866Y-20387456D02*
X43199119Y-20288228D01*
X43480492Y-20337842D02*
X43654140Y-19353034D01*
X43535542Y-19477183D01*
X43425213Y-19554437D01*
X43323153Y-19584794D01*
X44423841Y-19923936D02*
X44338318Y-19860503D01*
X44299692Y-19805338D01*
X44269334Y-19703278D01*
X44277603Y-19656382D01*
X44341037Y-19570860D01*
X44396201Y-19532233D01*
X44498261Y-19501876D01*
X44685844Y-19534952D01*
X44771366Y-19598385D01*
X44809993Y-19653550D01*
X44840350Y-19755610D01*
X44832081Y-19802506D01*
X44768648Y-19888028D01*
X44713483Y-19926654D01*
X44611423Y-19957012D01*
X44423841Y-19923936D01*
X44321780Y-19954294D01*
X44266616Y-19992921D01*
X44203182Y-20078443D01*
X44170107Y-20266025D01*
X44200464Y-20368085D01*
X44239091Y-20423250D01*
X44324613Y-20486684D01*
X44512196Y-20519759D01*
X44614256Y-20489402D01*
X44669420Y-20450775D01*
X44732854Y-20365253D01*
X44765930Y-20177670D01*
X44735572Y-20075610D01*
X44696945Y-20020446D01*
X44611423Y-19957012D01*
X57624742Y-65628780D02*
X57291409Y-65152590D01*
X57053314Y-65628780D02*
X57053314Y-64628780D01*
X57434266Y-64628780D01*
X57529504Y-64676400D01*
X57577123Y-64724019D01*
X57624742Y-64819257D01*
X57624742Y-64962114D01*
X57577123Y-65057352D01*
X57529504Y-65104971D01*
X57434266Y-65152590D01*
X57053314Y-65152590D01*
X58577123Y-65628780D02*
X58005695Y-65628780D01*
X58291409Y-65628780D02*
X58291409Y-64628780D01*
X58196171Y-64771638D01*
X58100933Y-64866876D01*
X58005695Y-64914495D01*
X59053314Y-65628780D02*
X59243790Y-65628780D01*
X59339028Y-65581161D01*
X59386647Y-65533542D01*
X59481885Y-65390685D01*
X59529504Y-65200209D01*
X59529504Y-64819257D01*
X59481885Y-64724019D01*
X59434266Y-64676400D01*
X59339028Y-64628780D01*
X59148552Y-64628780D01*
X59053314Y-64676400D01*
X59005695Y-64724019D01*
X58958076Y-64819257D01*
X58958076Y-65057352D01*
X59005695Y-65152590D01*
X59053314Y-65200209D01*
X59148552Y-65247828D01*
X59339028Y-65247828D01*
X59434266Y-65200209D01*
X59481885Y-65152590D01*
X59529504Y-65057352D01*
X29468158Y-26349323D02*
X29518900Y-25770277D01*
X29030419Y-25982016D02*
X29673206Y-25215971D01*
X29965033Y-25460843D01*
X30007381Y-25558539D01*
X30013250Y-25625626D01*
X29988510Y-25729192D01*
X29896684Y-25838627D01*
X29798987Y-25880974D01*
X29731900Y-25886844D01*
X29628335Y-25862104D01*
X29336508Y-25617233D01*
X30341555Y-25901106D02*
X30408642Y-25895237D01*
X30512207Y-25919977D01*
X30694599Y-26073021D01*
X30736947Y-26170717D01*
X30742816Y-26237805D01*
X30718076Y-26341370D01*
X30656859Y-26414327D01*
X30528554Y-26493153D01*
X29723507Y-26563585D01*
X30197725Y-26961501D01*
X31314730Y-26593373D02*
X31387687Y-26654591D01*
X31430035Y-26752287D01*
X31435904Y-26819374D01*
X31411164Y-26922940D01*
X31325207Y-27099462D01*
X31172162Y-27281854D01*
X31013248Y-27397158D01*
X30915552Y-27439506D01*
X30848465Y-27445375D01*
X30744899Y-27420635D01*
X30671943Y-27359418D01*
X30629595Y-27261721D01*
X30623726Y-27194634D01*
X30648465Y-27091069D01*
X30734423Y-26914547D01*
X30887467Y-26732155D01*
X31046381Y-26616851D01*
X31144077Y-26574503D01*
X31211165Y-26568634D01*
X31314730Y-26593373D01*
X56383180Y-51646057D02*
X55906990Y-51979390D01*
X56383180Y-52217485D02*
X55383180Y-52217485D01*
X55383180Y-51836533D01*
X55430800Y-51741295D01*
X55478419Y-51693676D01*
X55573657Y-51646057D01*
X55716514Y-51646057D01*
X55811752Y-51693676D01*
X55859371Y-51741295D01*
X55906990Y-51836533D01*
X55906990Y-52217485D01*
X55478419Y-51265104D02*
X55430800Y-51217485D01*
X55383180Y-51122247D01*
X55383180Y-50884152D01*
X55430800Y-50788914D01*
X55478419Y-50741295D01*
X55573657Y-50693676D01*
X55668895Y-50693676D01*
X55811752Y-50741295D01*
X56383180Y-51312723D01*
X56383180Y-50693676D01*
X56383180Y-49741295D02*
X56383180Y-50312723D01*
X56383180Y-50027009D02*
X55383180Y-50027009D01*
X55526038Y-50122247D01*
X55621276Y-50217485D01*
X55668895Y-50312723D01*
X64130180Y-58580257D02*
X63653990Y-58913590D01*
X64130180Y-59151685D02*
X63130180Y-59151685D01*
X63130180Y-58770733D01*
X63177800Y-58675495D01*
X63225419Y-58627876D01*
X63320657Y-58580257D01*
X63463514Y-58580257D01*
X63558752Y-58627876D01*
X63606371Y-58675495D01*
X63653990Y-58770733D01*
X63653990Y-59151685D01*
X63225419Y-58199304D02*
X63177800Y-58151685D01*
X63130180Y-58056447D01*
X63130180Y-57818352D01*
X63177800Y-57723114D01*
X63225419Y-57675495D01*
X63320657Y-57627876D01*
X63415895Y-57627876D01*
X63558752Y-57675495D01*
X64130180Y-58246923D01*
X64130180Y-57627876D01*
X63225419Y-57246923D02*
X63177800Y-57199304D01*
X63130180Y-57104066D01*
X63130180Y-56865971D01*
X63177800Y-56770733D01*
X63225419Y-56723114D01*
X63320657Y-56675495D01*
X63415895Y-56675495D01*
X63558752Y-56723114D01*
X64130180Y-57294542D01*
X64130180Y-56675495D01*
X62010923Y-37537042D02*
X61431877Y-37486300D01*
X61643616Y-37974781D02*
X60877571Y-37331994D01*
X61122443Y-37040167D01*
X61220139Y-36997819D01*
X61287226Y-36991950D01*
X61390792Y-37016690D01*
X61500227Y-37108516D01*
X61542574Y-37206213D01*
X61548444Y-37273300D01*
X61523704Y-37376865D01*
X61278833Y-37668692D01*
X61562706Y-36663645D02*
X61556837Y-36596558D01*
X61581577Y-36492993D01*
X61734621Y-36310601D01*
X61832317Y-36268253D01*
X61899405Y-36262384D01*
X62002970Y-36287124D01*
X62075927Y-36348341D01*
X62154753Y-36476646D01*
X62225185Y-37281693D01*
X62623101Y-36807475D01*
X62071320Y-35909340D02*
X62469236Y-35435122D01*
X62546800Y-35935341D01*
X62638626Y-35825906D01*
X62736323Y-35783559D01*
X62803410Y-35777689D01*
X62906975Y-35802429D01*
X63089367Y-35955474D01*
X63131715Y-36053170D01*
X63137584Y-36120257D01*
X63112844Y-36223822D01*
X62929191Y-36442692D01*
X62831495Y-36485040D01*
X62764407Y-36490909D01*
X67178180Y-58656457D02*
X66701990Y-58989790D01*
X67178180Y-59227885D02*
X66178180Y-59227885D01*
X66178180Y-58846933D01*
X66225800Y-58751695D01*
X66273419Y-58704076D01*
X66368657Y-58656457D01*
X66511514Y-58656457D01*
X66606752Y-58704076D01*
X66654371Y-58751695D01*
X66701990Y-58846933D01*
X66701990Y-59227885D01*
X66273419Y-58275504D02*
X66225800Y-58227885D01*
X66178180Y-58132647D01*
X66178180Y-57894552D01*
X66225800Y-57799314D01*
X66273419Y-57751695D01*
X66368657Y-57704076D01*
X66463895Y-57704076D01*
X66606752Y-57751695D01*
X67178180Y-58323123D01*
X67178180Y-57704076D01*
X66511514Y-56846933D02*
X67178180Y-56846933D01*
X66130561Y-57085028D02*
X66844847Y-57323123D01*
X66844847Y-56704076D01*
X72489598Y-37490059D02*
X72735324Y-36963289D01*
X72203883Y-36995188D02*
X73069909Y-36495188D01*
X73260385Y-36825102D01*
X73266765Y-36931390D01*
X73249335Y-36996439D01*
X73190666Y-37085297D01*
X73066948Y-37156726D01*
X72960660Y-37163106D01*
X72895611Y-37145676D01*
X72806752Y-37087007D01*
X72616276Y-36757092D01*
X73463621Y-37367593D02*
X73528669Y-37385023D01*
X73617528Y-37443692D01*
X73736575Y-37649888D01*
X73742955Y-37756176D01*
X73725525Y-37821225D01*
X73666856Y-37910084D01*
X73584378Y-37957703D01*
X73436850Y-37987892D01*
X72656264Y-37778734D01*
X72965788Y-38314845D01*
X74284194Y-38598392D02*
X74046099Y-38185999D01*
X73609897Y-38382855D01*
X73674945Y-38400285D01*
X73763804Y-38458954D01*
X73882851Y-38665151D01*
X73889231Y-38771439D01*
X73871801Y-38836487D01*
X73813132Y-38925346D01*
X73606936Y-39044393D01*
X73500648Y-39050773D01*
X73435599Y-39033343D01*
X73346740Y-38974674D01*
X73227693Y-38768478D01*
X73221313Y-38662190D01*
X73238743Y-38597141D01*
X67923864Y-65200139D02*
X67512905Y-64789065D01*
X67361117Y-65299366D02*
X67187468Y-64314559D01*
X67562633Y-64248407D01*
X67664693Y-64278765D01*
X67719858Y-64317391D01*
X67783292Y-64402913D01*
X67808098Y-64543600D01*
X67777741Y-64645660D01*
X67739114Y-64700825D01*
X67653592Y-64764259D01*
X67278427Y-64830410D01*
X68141919Y-64242971D02*
X68180545Y-64187806D01*
X68266067Y-64124372D01*
X68500545Y-64083028D01*
X68602606Y-64113385D01*
X68657770Y-64152012D01*
X68721204Y-64237534D01*
X68737742Y-64331325D01*
X68715653Y-64480281D01*
X68252133Y-65142256D01*
X68861776Y-65034760D01*
X69532249Y-63901110D02*
X69344666Y-63934186D01*
X69259144Y-63997620D01*
X69220517Y-64052784D01*
X69151533Y-64210009D01*
X69137713Y-64405861D01*
X69203865Y-64781025D01*
X69267299Y-64866548D01*
X69322463Y-64905174D01*
X69424523Y-64935532D01*
X69612106Y-64902456D01*
X69697628Y-64839023D01*
X69736255Y-64783858D01*
X69766612Y-64681798D01*
X69725268Y-64447320D01*
X69661834Y-64361798D01*
X69606669Y-64323171D01*
X69504609Y-64292813D01*
X69317027Y-64325889D01*
X69231505Y-64389323D01*
X69192878Y-64444487D01*
X69162520Y-64546547D01*
X71140580Y-49944257D02*
X70664390Y-50277590D01*
X71140580Y-50515685D02*
X70140580Y-50515685D01*
X70140580Y-50134733D01*
X70188200Y-50039495D01*
X70235819Y-49991876D01*
X70331057Y-49944257D01*
X70473914Y-49944257D01*
X70569152Y-49991876D01*
X70616771Y-50039495D01*
X70664390Y-50134733D01*
X70664390Y-50515685D01*
X70235819Y-49563304D02*
X70188200Y-49515685D01*
X70140580Y-49420447D01*
X70140580Y-49182352D01*
X70188200Y-49087114D01*
X70235819Y-49039495D01*
X70331057Y-48991876D01*
X70426295Y-48991876D01*
X70569152Y-49039495D01*
X71140580Y-49610923D01*
X71140580Y-48991876D01*
X70140580Y-48658542D02*
X70140580Y-47991876D01*
X71140580Y-48420447D01*
X18305542Y-55367180D02*
X17972209Y-54890990D01*
X17734114Y-55367180D02*
X17734114Y-54367180D01*
X18115066Y-54367180D01*
X18210304Y-54414800D01*
X18257923Y-54462419D01*
X18305542Y-54557657D01*
X18305542Y-54700514D01*
X18257923Y-54795752D01*
X18210304Y-54843371D01*
X18115066Y-54890990D01*
X17734114Y-54890990D01*
X18686495Y-54462419D02*
X18734114Y-54414800D01*
X18829352Y-54367180D01*
X19067447Y-54367180D01*
X19162685Y-54414800D01*
X19210304Y-54462419D01*
X19257923Y-54557657D01*
X19257923Y-54652895D01*
X19210304Y-54795752D01*
X18638876Y-55367180D01*
X19257923Y-55367180D01*
X19829352Y-54795752D02*
X19734114Y-54748133D01*
X19686495Y-54700514D01*
X19638876Y-54605276D01*
X19638876Y-54557657D01*
X19686495Y-54462419D01*
X19734114Y-54414800D01*
X19829352Y-54367180D01*
X20019828Y-54367180D01*
X20115066Y-54414800D01*
X20162685Y-54462419D01*
X20210304Y-54557657D01*
X20210304Y-54605276D01*
X20162685Y-54700514D01*
X20115066Y-54748133D01*
X20019828Y-54795752D01*
X19829352Y-54795752D01*
X19734114Y-54843371D01*
X19686495Y-54890990D01*
X19638876Y-54986228D01*
X19638876Y-55176704D01*
X19686495Y-55271942D01*
X19734114Y-55319561D01*
X19829352Y-55367180D01*
X20019828Y-55367180D01*
X20115066Y-55319561D01*
X20162685Y-55271942D01*
X20210304Y-55176704D01*
X20210304Y-54986228D01*
X20162685Y-54890990D01*
X20115066Y-54843371D01*
X20019828Y-54795752D01*
X18280142Y-58465980D02*
X17946809Y-57989790D01*
X17708714Y-58465980D02*
X17708714Y-57465980D01*
X18089666Y-57465980D01*
X18184904Y-57513600D01*
X18232523Y-57561219D01*
X18280142Y-57656457D01*
X18280142Y-57799314D01*
X18232523Y-57894552D01*
X18184904Y-57942171D01*
X18089666Y-57989790D01*
X17708714Y-57989790D01*
X18661095Y-57561219D02*
X18708714Y-57513600D01*
X18803952Y-57465980D01*
X19042047Y-57465980D01*
X19137285Y-57513600D01*
X19184904Y-57561219D01*
X19232523Y-57656457D01*
X19232523Y-57751695D01*
X19184904Y-57894552D01*
X18613476Y-58465980D01*
X19232523Y-58465980D01*
X19708714Y-58465980D02*
X19899190Y-58465980D01*
X19994428Y-58418361D01*
X20042047Y-58370742D01*
X20137285Y-58227885D01*
X20184904Y-58037409D01*
X20184904Y-57656457D01*
X20137285Y-57561219D01*
X20089666Y-57513600D01*
X19994428Y-57465980D01*
X19803952Y-57465980D01*
X19708714Y-57513600D01*
X19661095Y-57561219D01*
X19613476Y-57656457D01*
X19613476Y-57894552D01*
X19661095Y-57989790D01*
X19708714Y-58037409D01*
X19803952Y-58085028D01*
X19994428Y-58085028D01*
X20089666Y-58037409D01*
X20137285Y-57989790D01*
X20184904Y-57894552D01*
X74721980Y-48598057D02*
X74245790Y-48931390D01*
X74721980Y-49169485D02*
X73721980Y-49169485D01*
X73721980Y-48788533D01*
X73769600Y-48693295D01*
X73817219Y-48645676D01*
X73912457Y-48598057D01*
X74055314Y-48598057D01*
X74150552Y-48645676D01*
X74198171Y-48693295D01*
X74245790Y-48788533D01*
X74245790Y-49169485D01*
X73721980Y-48264723D02*
X73721980Y-47645676D01*
X74102933Y-47979009D01*
X74102933Y-47836152D01*
X74150552Y-47740914D01*
X74198171Y-47693295D01*
X74293409Y-47645676D01*
X74531504Y-47645676D01*
X74626742Y-47693295D01*
X74674361Y-47740914D01*
X74721980Y-47836152D01*
X74721980Y-48121866D01*
X74674361Y-48217104D01*
X74626742Y-48264723D01*
X73721980Y-47026628D02*
X73721980Y-46931390D01*
X73769600Y-46836152D01*
X73817219Y-46788533D01*
X73912457Y-46740914D01*
X74102933Y-46693295D01*
X74341028Y-46693295D01*
X74531504Y-46740914D01*
X74626742Y-46788533D01*
X74674361Y-46836152D01*
X74721980Y-46931390D01*
X74721980Y-47026628D01*
X74674361Y-47121866D01*
X74626742Y-47169485D01*
X74531504Y-47217104D01*
X74341028Y-47264723D01*
X74102933Y-47264723D01*
X73912457Y-47217104D01*
X73817219Y-47169485D01*
X73769600Y-47121866D01*
X73721980Y-47026628D01*
X25522180Y-57030857D02*
X25045990Y-57364190D01*
X25522180Y-57602285D02*
X24522180Y-57602285D01*
X24522180Y-57221333D01*
X24569800Y-57126095D01*
X24617419Y-57078476D01*
X24712657Y-57030857D01*
X24855514Y-57030857D01*
X24950752Y-57078476D01*
X24998371Y-57126095D01*
X25045990Y-57221333D01*
X25045990Y-57602285D01*
X24522180Y-56697523D02*
X24522180Y-56078476D01*
X24903133Y-56411809D01*
X24903133Y-56268952D01*
X24950752Y-56173714D01*
X24998371Y-56126095D01*
X25093609Y-56078476D01*
X25331704Y-56078476D01*
X25426942Y-56126095D01*
X25474561Y-56173714D01*
X25522180Y-56268952D01*
X25522180Y-56554666D01*
X25474561Y-56649904D01*
X25426942Y-56697523D01*
X25522180Y-55126095D02*
X25522180Y-55697523D01*
X25522180Y-55411809D02*
X24522180Y-55411809D01*
X24665038Y-55507047D01*
X24760276Y-55602285D01*
X24807895Y-55697523D01*
X58567580Y-60412238D02*
X58091390Y-60745571D01*
X58567580Y-60983666D02*
X57567580Y-60983666D01*
X57567580Y-60602714D01*
X57615200Y-60507476D01*
X57662819Y-60459857D01*
X57758057Y-60412238D01*
X57900914Y-60412238D01*
X57996152Y-60459857D01*
X58043771Y-60507476D01*
X58091390Y-60602714D01*
X58091390Y-60983666D01*
X57567580Y-60126523D02*
X58567580Y-59793190D01*
X57567580Y-59459857D01*
X57567580Y-59221761D02*
X57567580Y-58602714D01*
X57948533Y-58936047D01*
X57948533Y-58793190D01*
X57996152Y-58697952D01*
X58043771Y-58650333D01*
X58139009Y-58602714D01*
X58377104Y-58602714D01*
X58472342Y-58650333D01*
X58519961Y-58697952D01*
X58567580Y-58793190D01*
X58567580Y-59078904D01*
X58519961Y-59174142D01*
X58472342Y-59221761D01*
X53243140Y-21754620D02*
X52966267Y-22515324D01*
X52978440Y-22621105D01*
X53006901Y-22682139D01*
X53080109Y-22759459D01*
X53259098Y-22824606D01*
X53364879Y-22812432D01*
X53425913Y-22783972D01*
X53503234Y-22710764D01*
X53780107Y-21950060D01*
X54377780Y-23231773D02*
X53840812Y-23036333D01*
X54109296Y-23134053D02*
X54451316Y-22194360D01*
X54312962Y-22296029D01*
X54190894Y-22352950D01*
X54085113Y-22365124D01*
X48594940Y-33032219D02*
X48318067Y-33792923D01*
X48330240Y-33898704D01*
X48358701Y-33959738D01*
X48431909Y-34037058D01*
X48610898Y-34102205D01*
X48716679Y-34090031D01*
X48777713Y-34061571D01*
X48855034Y-33988363D01*
X49131907Y-33227659D01*
X49502059Y-33463734D02*
X49563093Y-33435273D01*
X49668874Y-33423099D01*
X49892611Y-33504533D01*
X49965819Y-33581853D01*
X49994279Y-33642887D01*
X50006453Y-33748668D01*
X49973880Y-33838163D01*
X49880272Y-33956118D01*
X49147865Y-34297645D01*
X49729580Y-34509372D01*
X47828295Y-54748180D02*
X47828295Y-55557704D01*
X47875914Y-55652942D01*
X47923533Y-55700561D01*
X48018771Y-55748180D01*
X48209247Y-55748180D01*
X48304485Y-55700561D01*
X48352104Y-55652942D01*
X48399723Y-55557704D01*
X48399723Y-54748180D01*
X48780676Y-54748180D02*
X49399723Y-54748180D01*
X49066390Y-55129133D01*
X49209247Y-55129133D01*
X49304485Y-55176752D01*
X49352104Y-55224371D01*
X49399723Y-55319609D01*
X49399723Y-55557704D01*
X49352104Y-55652942D01*
X49304485Y-55700561D01*
X49209247Y-55748180D01*
X48923533Y-55748180D01*
X48828295Y-55700561D01*
X48780676Y-55652942D01*
X22275895Y-30262580D02*
X22275895Y-31072104D01*
X22323514Y-31167342D01*
X22371133Y-31214961D01*
X22466371Y-31262580D01*
X22656847Y-31262580D01*
X22752085Y-31214961D01*
X22799704Y-31167342D01*
X22847323Y-31072104D01*
X22847323Y-30262580D01*
X23752085Y-30595914D02*
X23752085Y-31262580D01*
X23513990Y-30214961D02*
X23275895Y-30929247D01*
X23894942Y-30929247D01*
X66254380Y-47980504D02*
X67063904Y-47980504D01*
X67159142Y-47932885D01*
X67206761Y-47885266D01*
X67254380Y-47790028D01*
X67254380Y-47599552D01*
X67206761Y-47504314D01*
X67159142Y-47456695D01*
X67063904Y-47409076D01*
X66254380Y-47409076D01*
X66254380Y-46456695D02*
X66254380Y-46932885D01*
X66730571Y-46980504D01*
X66682952Y-46932885D01*
X66635333Y-46837647D01*
X66635333Y-46599552D01*
X66682952Y-46504314D01*
X66730571Y-46456695D01*
X66825809Y-46409076D01*
X67063904Y-46409076D01*
X67159142Y-46456695D01*
X67206761Y-46504314D01*
X67254380Y-46599552D01*
X67254380Y-46837647D01*
X67206761Y-46932885D01*
X67159142Y-46980504D01*
M02*
