G04 #@! TF.GenerationSoftware,KiCad,Pcbnew,(5.1.2-1)-1*
G04 #@! TF.CreationDate,2021-07-21T12:11:00-04:00*
G04 #@! TF.ProjectId,Power Supply,506f7765-7220-4537-9570-706c792e6b69,rev?*
G04 #@! TF.SameCoordinates,Original*
G04 #@! TF.FileFunction,Legend,Top*
G04 #@! TF.FilePolarity,Positive*
%FSLAX46Y46*%
G04 Gerber Fmt 4.6, Leading zero omitted, Abs format (unit mm)*
G04 Created by KiCad (PCBNEW (5.1.2-1)-1) date 2021-07-21 12:11:00*
%MOMM*%
%LPD*%
G04 APERTURE LIST*
%ADD10C,0.300000*%
%ADD11C,0.150000*%
%ADD12C,0.120000*%
G04 APERTURE END LIST*
D10*
X98872314Y-21736857D02*
X99086600Y-21808285D01*
X99158028Y-21879714D01*
X99229457Y-22022571D01*
X99229457Y-22236857D01*
X99158028Y-22379714D01*
X99086600Y-22451142D01*
X98943742Y-22522571D01*
X98372314Y-22522571D01*
X98372314Y-21022571D01*
X98872314Y-21022571D01*
X99015171Y-21094000D01*
X99086600Y-21165428D01*
X99158028Y-21308285D01*
X99158028Y-21451142D01*
X99086600Y-21594000D01*
X99015171Y-21665428D01*
X98872314Y-21736857D01*
X98372314Y-21736857D01*
X100515171Y-21522571D02*
X100515171Y-22522571D01*
X99872314Y-21522571D02*
X99872314Y-22308285D01*
X99943742Y-22451142D01*
X100086600Y-22522571D01*
X100300885Y-22522571D01*
X100443742Y-22451142D01*
X100515171Y-22379714D01*
X101015171Y-21522571D02*
X101586600Y-21522571D01*
X101229457Y-21022571D02*
X101229457Y-22308285D01*
X101300885Y-22451142D01*
X101443742Y-22522571D01*
X101586600Y-22522571D01*
X101872314Y-21522571D02*
X102443742Y-21522571D01*
X102086600Y-21022571D02*
X102086600Y-22308285D01*
X102158028Y-22451142D01*
X102300885Y-22522571D01*
X102443742Y-22522571D01*
X104086600Y-21022571D02*
X104086600Y-22236857D01*
X104158028Y-22379714D01*
X104229457Y-22451142D01*
X104372314Y-22522571D01*
X104658028Y-22522571D01*
X104800885Y-22451142D01*
X104872314Y-22379714D01*
X104943742Y-22236857D01*
X104943742Y-21022571D01*
X105658028Y-21522571D02*
X105658028Y-23022571D01*
X105658028Y-21594000D02*
X105800885Y-21522571D01*
X106086600Y-21522571D01*
X106229457Y-21594000D01*
X106300885Y-21665428D01*
X106372314Y-21808285D01*
X106372314Y-22236857D01*
X106300885Y-22379714D01*
X106229457Y-22451142D01*
X106086600Y-22522571D01*
X105800885Y-22522571D01*
X105658028Y-22451142D01*
X78446845Y-101213269D02*
X78492129Y-101434560D01*
X78465984Y-101532133D01*
X78377981Y-101665421D01*
X78192404Y-101772563D01*
X78032972Y-101782133D01*
X77935398Y-101755988D01*
X77802111Y-101667985D01*
X77516397Y-101173113D01*
X78815435Y-100423113D01*
X79065435Y-100856126D01*
X79075004Y-101015558D01*
X79048860Y-101113131D01*
X78960856Y-101246419D01*
X78837138Y-101317847D01*
X78677706Y-101327417D01*
X78580133Y-101301272D01*
X78446845Y-101213269D01*
X78196845Y-100780256D01*
X79453851Y-102528882D02*
X78587825Y-103028882D01*
X79132422Y-101972151D02*
X78451973Y-102365008D01*
X78363970Y-102498296D01*
X78373539Y-102657728D01*
X78480682Y-102843305D01*
X78613970Y-102931309D01*
X78711543Y-102957453D01*
X79703851Y-102961895D02*
X79989565Y-103456766D01*
X80244006Y-102897471D02*
X79130545Y-103540329D01*
X79042541Y-103673616D01*
X79052111Y-103833048D01*
X79123539Y-103956766D01*
X80132422Y-103704202D02*
X80418136Y-104199074D01*
X80672578Y-103639779D02*
X79559116Y-104282636D01*
X79471113Y-104415924D01*
X79480682Y-104575356D01*
X79552111Y-104699074D01*
X81672578Y-105371830D02*
X80620975Y-105978973D01*
X80532972Y-106112260D01*
X80506827Y-106209833D01*
X80516397Y-106369266D01*
X80659254Y-106616701D01*
X80792541Y-106704705D01*
X80890114Y-106730850D01*
X81049547Y-106721280D01*
X82101149Y-106114137D01*
X82025279Y-106982727D02*
X80726241Y-107732727D01*
X81963420Y-107018441D02*
X82096708Y-107106445D01*
X82239565Y-107353880D01*
X82249134Y-107513313D01*
X82222990Y-107610886D01*
X82134986Y-107744173D01*
X81763832Y-107958459D01*
X81604400Y-107968029D01*
X81506827Y-107941884D01*
X81373539Y-107853880D01*
X81230682Y-107606445D01*
X81221113Y-107447012D01*
D11*
X24035428Y-92146380D02*
X24035428Y-91146380D01*
X24273523Y-91146380D01*
X24416380Y-91194000D01*
X24511619Y-91289238D01*
X24559238Y-91384476D01*
X24606857Y-91574952D01*
X24606857Y-91717809D01*
X24559238Y-91908285D01*
X24511619Y-92003523D01*
X24416380Y-92098761D01*
X24273523Y-92146380D01*
X24035428Y-92146380D01*
X25035428Y-91622571D02*
X25368761Y-91622571D01*
X25511619Y-92146380D02*
X25035428Y-92146380D01*
X25035428Y-91146380D01*
X25511619Y-91146380D01*
X25940190Y-92146380D02*
X25940190Y-91146380D01*
X26511619Y-92146380D01*
X26511619Y-91146380D01*
X26844952Y-91146380D02*
X27416380Y-91146380D01*
X27130666Y-92146380D02*
X27130666Y-91146380D01*
X28368761Y-91146380D02*
X28940190Y-91146380D01*
X28654476Y-92146380D02*
X28654476Y-91146380D01*
X29273523Y-92146380D02*
X29273523Y-91146380D01*
X29273523Y-91622571D02*
X29844952Y-91622571D01*
X29844952Y-92146380D02*
X29844952Y-91146380D01*
X30321142Y-92146380D02*
X30321142Y-91146380D01*
X30749714Y-92098761D02*
X30892571Y-92146380D01*
X31130666Y-92146380D01*
X31225904Y-92098761D01*
X31273523Y-92051142D01*
X31321142Y-91955904D01*
X31321142Y-91860666D01*
X31273523Y-91765428D01*
X31225904Y-91717809D01*
X31130666Y-91670190D01*
X30940190Y-91622571D01*
X30844952Y-91574952D01*
X30797333Y-91527333D01*
X30749714Y-91432095D01*
X30749714Y-91336857D01*
X30797333Y-91241619D01*
X30844952Y-91194000D01*
X30940190Y-91146380D01*
X31178285Y-91146380D01*
X31321142Y-91194000D01*
X32416380Y-91146380D02*
X32654476Y-92146380D01*
X32844952Y-91432095D01*
X33035428Y-92146380D01*
X33273523Y-91146380D01*
X33606857Y-91860666D02*
X34083047Y-91860666D01*
X33511619Y-92146380D02*
X33844952Y-91146380D01*
X34178285Y-92146380D01*
X34702095Y-91670190D02*
X34702095Y-92146380D01*
X34368761Y-91146380D02*
X34702095Y-91670190D01*
X35035428Y-91146380D01*
X21780714Y-100099761D02*
X21923571Y-100147380D01*
X22161666Y-100147380D01*
X22256904Y-100099761D01*
X22304523Y-100052142D01*
X22352142Y-99956904D01*
X22352142Y-99861666D01*
X22304523Y-99766428D01*
X22256904Y-99718809D01*
X22161666Y-99671190D01*
X21971190Y-99623571D01*
X21875952Y-99575952D01*
X21828333Y-99528333D01*
X21780714Y-99433095D01*
X21780714Y-99337857D01*
X21828333Y-99242619D01*
X21875952Y-99195000D01*
X21971190Y-99147380D01*
X22209285Y-99147380D01*
X22352142Y-99195000D01*
X22780714Y-99623571D02*
X23114047Y-99623571D01*
X23256904Y-100147380D02*
X22780714Y-100147380D01*
X22780714Y-99147380D01*
X23256904Y-99147380D01*
X24256904Y-100052142D02*
X24209285Y-100099761D01*
X24066428Y-100147380D01*
X23971190Y-100147380D01*
X23828333Y-100099761D01*
X23733095Y-100004523D01*
X23685476Y-99909285D01*
X23637857Y-99718809D01*
X23637857Y-99575952D01*
X23685476Y-99385476D01*
X23733095Y-99290238D01*
X23828333Y-99195000D01*
X23971190Y-99147380D01*
X24066428Y-99147380D01*
X24209285Y-99195000D01*
X24256904Y-99242619D01*
X25209285Y-100147380D02*
X24637857Y-100147380D01*
X24923571Y-100147380D02*
X24923571Y-99147380D01*
X24828333Y-99290238D01*
X24733095Y-99385476D01*
X24637857Y-99433095D01*
X21907714Y-95273761D02*
X22050571Y-95321380D01*
X22288666Y-95321380D01*
X22383904Y-95273761D01*
X22431523Y-95226142D01*
X22479142Y-95130904D01*
X22479142Y-95035666D01*
X22431523Y-94940428D01*
X22383904Y-94892809D01*
X22288666Y-94845190D01*
X22098190Y-94797571D01*
X22002952Y-94749952D01*
X21955333Y-94702333D01*
X21907714Y-94607095D01*
X21907714Y-94511857D01*
X21955333Y-94416619D01*
X22002952Y-94369000D01*
X22098190Y-94321380D01*
X22336285Y-94321380D01*
X22479142Y-94369000D01*
X22907714Y-94797571D02*
X23241047Y-94797571D01*
X23383904Y-95321380D02*
X22907714Y-95321380D01*
X22907714Y-94321380D01*
X23383904Y-94321380D01*
X24383904Y-95226142D02*
X24336285Y-95273761D01*
X24193428Y-95321380D01*
X24098190Y-95321380D01*
X23955333Y-95273761D01*
X23860095Y-95178523D01*
X23812476Y-95083285D01*
X23764857Y-94892809D01*
X23764857Y-94749952D01*
X23812476Y-94559476D01*
X23860095Y-94464238D01*
X23955333Y-94369000D01*
X24098190Y-94321380D01*
X24193428Y-94321380D01*
X24336285Y-94369000D01*
X24383904Y-94416619D01*
X24764857Y-94416619D02*
X24812476Y-94369000D01*
X24907714Y-94321380D01*
X25145809Y-94321380D01*
X25241047Y-94369000D01*
X25288666Y-94416619D01*
X25336285Y-94511857D01*
X25336285Y-94607095D01*
X25288666Y-94749952D01*
X24717238Y-95321380D01*
X25336285Y-95321380D01*
X21987000Y-90654142D02*
X21939380Y-90701761D01*
X21796523Y-90749380D01*
X21701285Y-90749380D01*
X21558428Y-90701761D01*
X21463190Y-90606523D01*
X21415571Y-90511285D01*
X21367952Y-90320809D01*
X21367952Y-90177952D01*
X21415571Y-89987476D01*
X21463190Y-89892238D01*
X21558428Y-89797000D01*
X21701285Y-89749380D01*
X21796523Y-89749380D01*
X21939380Y-89797000D01*
X21987000Y-89844619D01*
X22272714Y-89749380D02*
X22844142Y-89749380D01*
X22558428Y-90749380D02*
X22558428Y-89749380D01*
X23129857Y-90463666D02*
X23606047Y-90463666D01*
X23034619Y-90749380D02*
X23367952Y-89749380D01*
X23701285Y-90749380D01*
X24034619Y-90749380D02*
X24034619Y-89749380D01*
X24415571Y-89749380D01*
X24510809Y-89797000D01*
X24558428Y-89844619D01*
X24606047Y-89939857D01*
X24606047Y-90082714D01*
X24558428Y-90177952D01*
X24510809Y-90225571D01*
X24415571Y-90273190D01*
X24034619Y-90273190D01*
X103492419Y-51852580D02*
X103825752Y-52852580D01*
X104159085Y-51852580D01*
X104492419Y-52471628D02*
X105254323Y-52471628D01*
X104873371Y-52852580D02*
X104873371Y-52090676D01*
X98653695Y-80424400D02*
X98558457Y-80376780D01*
X98415600Y-80376780D01*
X98272742Y-80424400D01*
X98177504Y-80519638D01*
X98129885Y-80614876D01*
X98082266Y-80805352D01*
X98082266Y-80948209D01*
X98129885Y-81138685D01*
X98177504Y-81233923D01*
X98272742Y-81329161D01*
X98415600Y-81376780D01*
X98510838Y-81376780D01*
X98653695Y-81329161D01*
X98701314Y-81281542D01*
X98701314Y-80948209D01*
X98510838Y-80948209D01*
X99129885Y-81376780D02*
X99129885Y-80376780D01*
X99701314Y-81376780D01*
X99701314Y-80376780D01*
X100177504Y-81376780D02*
X100177504Y-80376780D01*
X100415600Y-80376780D01*
X100558457Y-80424400D01*
X100653695Y-80519638D01*
X100701314Y-80614876D01*
X100748933Y-80805352D01*
X100748933Y-80948209D01*
X100701314Y-81138685D01*
X100653695Y-81233923D01*
X100558457Y-81329161D01*
X100415600Y-81376780D01*
X100177504Y-81376780D01*
X100749219Y-100950780D02*
X101082552Y-101950780D01*
X101415885Y-100950780D01*
X101749219Y-101569828D02*
X102511123Y-101569828D01*
X403812542Y-123437931D02*
X403350407Y-123101833D01*
X403581475Y-123269882D02*
X404169646Y-122461146D01*
X404008599Y-122520664D01*
X403875561Y-122541670D01*
X403770530Y-122524165D01*
X404652788Y-122930283D02*
X404719307Y-122919780D01*
X404824338Y-122937285D01*
X405016894Y-123077326D01*
X405065908Y-123171854D01*
X405076411Y-123238373D01*
X405058906Y-123343404D01*
X405002890Y-123420426D01*
X404880354Y-123507952D01*
X404082121Y-123633989D01*
X404582767Y-123998095D01*
X405671585Y-123553465D02*
X405748607Y-123609481D01*
X405797622Y-123704009D01*
X405808125Y-123770528D01*
X405790620Y-123875559D01*
X405717098Y-124057612D01*
X405577057Y-124250168D01*
X405426513Y-124376205D01*
X405331986Y-124425220D01*
X405265466Y-124435723D01*
X405160436Y-124418217D01*
X405083413Y-124362201D01*
X405034399Y-124267674D01*
X405023896Y-124201154D01*
X405041401Y-124096123D01*
X405114922Y-123914070D01*
X405254963Y-123721514D01*
X405405507Y-123595477D01*
X405500035Y-123546463D01*
X405566554Y-123535960D01*
X405671585Y-123553465D01*
X405755609Y-124733309D02*
X405766113Y-124799829D01*
X405699593Y-124810332D01*
X405689090Y-124743813D01*
X405755609Y-124733309D01*
X405699593Y-124810332D01*
X406123217Y-125118422D02*
X406277262Y-125230455D01*
X406382292Y-125247960D01*
X406448812Y-125237457D01*
X406609859Y-125177939D01*
X406760403Y-125051902D01*
X406984468Y-124743813D01*
X407001973Y-124638782D01*
X406991470Y-124572262D01*
X406942456Y-124477735D01*
X406788411Y-124365702D01*
X406683380Y-124348197D01*
X406616861Y-124358700D01*
X406522333Y-124407714D01*
X406382292Y-124600271D01*
X406364787Y-124705301D01*
X406375290Y-124771821D01*
X406424305Y-124866348D01*
X406578350Y-124978381D01*
X406683380Y-124995886D01*
X406749900Y-124985383D01*
X406844427Y-124936369D01*
X407278554Y-125958667D02*
X406816419Y-125622569D01*
X407047487Y-125790618D02*
X407635658Y-124981882D01*
X407474611Y-125041399D01*
X407341572Y-125062406D01*
X407236542Y-125044900D01*
X408136304Y-125345988D02*
X408675462Y-125738103D01*
X407740689Y-126294765D01*
X409011560Y-127219035D02*
X409403674Y-126679878D01*
X409347658Y-126756900D02*
X409414177Y-126746397D01*
X409519208Y-126763902D01*
X409634742Y-126847927D01*
X409683756Y-126942454D01*
X409666251Y-127047485D01*
X409358161Y-127471109D01*
X409666251Y-127047485D02*
X409760779Y-126998471D01*
X409865809Y-127015976D01*
X409981343Y-127100000D01*
X410030357Y-127194528D01*
X410012852Y-127299559D01*
X409704762Y-127723182D01*
X410089875Y-128003264D02*
X410481989Y-127464107D01*
X410425973Y-127541129D02*
X410492492Y-127530626D01*
X410597523Y-127548131D01*
X410713057Y-127632156D01*
X410762071Y-127726683D01*
X410744566Y-127831714D01*
X410436476Y-128255338D01*
X410744566Y-127831714D02*
X410839093Y-127782700D01*
X410944124Y-127800205D01*
X411059658Y-127884229D01*
X411108672Y-127978757D01*
X411091167Y-128083788D01*
X410783077Y-128507411D01*
D12*
X359204054Y-88865675D02*
X456994054Y-159985675D01*
X392430000Y-43180000D02*
X358859138Y-89339935D01*
X490220000Y-114300000D02*
X456649138Y-160459935D01*
X456994054Y-159985675D02*
X455738094Y-159797357D01*
X456994054Y-159985675D02*
X456427926Y-158848838D01*
X359204054Y-88865675D02*
X359770182Y-90002512D01*
X359204054Y-88865675D02*
X360460014Y-89053993D01*
X71206366Y-94428854D02*
X76326366Y-103296955D01*
X62987785Y-99173854D02*
X68107785Y-108041955D01*
X71206366Y-94428854D02*
X62987785Y-99173854D01*
X76326366Y-103296955D02*
X68107785Y-108041955D01*
X57445223Y-102373854D02*
X58045223Y-103413085D01*
X58644723Y-104451449D02*
X59245223Y-105491546D01*
X59845223Y-106530776D02*
X60445223Y-107570007D01*
X61045223Y-108609237D02*
X61645223Y-109648468D01*
X62245223Y-110687698D02*
X62565223Y-111241955D01*
X62779939Y-99293854D02*
X61740709Y-99893854D01*
X60701478Y-100493854D02*
X59662248Y-101093854D01*
X58623017Y-101693854D02*
X57583787Y-102293854D01*
X67899939Y-108161955D02*
X66860709Y-108761955D01*
X65821478Y-109361955D02*
X64782248Y-109961955D01*
X63743017Y-110561955D02*
X62703787Y-111161955D01*
X75966071Y-97592905D02*
X73766366Y-98862905D01*
X71757443Y-95623348D02*
X73957148Y-94353348D01*
X73957148Y-94353348D02*
X74067133Y-94289848D01*
X75677428Y-102158961D02*
X77877133Y-100888961D01*
X55811000Y-47525131D02*
X58811000Y-47525131D01*
X57311000Y-49025131D02*
X57311000Y-46025131D01*
X65746000Y-17726000D02*
X65826000Y-17726000D01*
X64726000Y-17766000D02*
X66846000Y-17766000D01*
X64272000Y-17806000D02*
X67300000Y-17806000D01*
X63924000Y-17846000D02*
X67648000Y-17846000D01*
X63632000Y-17886000D02*
X67940000Y-17886000D01*
X63374000Y-17926000D02*
X68198000Y-17926000D01*
X63142000Y-17966000D02*
X68430000Y-17966000D01*
X62929000Y-18006000D02*
X68643000Y-18006000D01*
X62731000Y-18046000D02*
X68841000Y-18046000D01*
X62546000Y-18086000D02*
X69026000Y-18086000D01*
X62371000Y-18126000D02*
X69201000Y-18126000D01*
X62204000Y-18166000D02*
X69368000Y-18166000D01*
X62046000Y-18206000D02*
X69526000Y-18206000D01*
X61894000Y-18246000D02*
X69678000Y-18246000D01*
X61749000Y-18286000D02*
X69823000Y-18286000D01*
X61608000Y-18326000D02*
X69964000Y-18326000D01*
X61473000Y-18366000D02*
X70099000Y-18366000D01*
X61342000Y-18406000D02*
X70230000Y-18406000D01*
X61215000Y-18446000D02*
X70357000Y-18446000D01*
X61092000Y-18486000D02*
X70480000Y-18486000D01*
X60972000Y-18526000D02*
X70600000Y-18526000D01*
X60856000Y-18566000D02*
X70716000Y-18566000D01*
X60743000Y-18606000D02*
X70829000Y-18606000D01*
X60632000Y-18646000D02*
X70940000Y-18646000D01*
X60524000Y-18686000D02*
X71048000Y-18686000D01*
X60418000Y-18726000D02*
X71154000Y-18726000D01*
X60315000Y-18766000D02*
X71257000Y-18766000D01*
X60214000Y-18806000D02*
X71358000Y-18806000D01*
X60115000Y-18846000D02*
X71457000Y-18846000D01*
X60018000Y-18886000D02*
X71554000Y-18886000D01*
X59922000Y-18926000D02*
X71650000Y-18926000D01*
X59829000Y-18966000D02*
X71743000Y-18966000D01*
X59737000Y-19006000D02*
X71835000Y-19006000D01*
X59647000Y-19046000D02*
X71925000Y-19046000D01*
X59558000Y-19086000D02*
X72014000Y-19086000D01*
X59471000Y-19126000D02*
X72101000Y-19126000D01*
X59386000Y-19166000D02*
X72186000Y-19166000D01*
X59301000Y-19206000D02*
X72271000Y-19206000D01*
X59218000Y-19246000D02*
X72354000Y-19246000D01*
X59137000Y-19286000D02*
X72435000Y-19286000D01*
X59056000Y-19326000D02*
X72516000Y-19326000D01*
X58977000Y-19366000D02*
X72595000Y-19366000D01*
X58899000Y-19406000D02*
X72673000Y-19406000D01*
X58822000Y-19446000D02*
X72750000Y-19446000D01*
X58746000Y-19486000D02*
X72826000Y-19486000D01*
X58671000Y-19526000D02*
X72901000Y-19526000D01*
X58597000Y-19566000D02*
X72975000Y-19566000D01*
X58524000Y-19606000D02*
X73048000Y-19606000D01*
X58452000Y-19646000D02*
X73120000Y-19646000D01*
X58380000Y-19686000D02*
X73192000Y-19686000D01*
X58310000Y-19726000D02*
X73262000Y-19726000D01*
X58241000Y-19766000D02*
X73331000Y-19766000D01*
X58172000Y-19806000D02*
X73400000Y-19806000D01*
X58104000Y-19846000D02*
X73468000Y-19846000D01*
X58038000Y-19886000D02*
X73534000Y-19886000D01*
X57971000Y-19926000D02*
X73601000Y-19926000D01*
X57906000Y-19966000D02*
X73666000Y-19966000D01*
X57841000Y-20006000D02*
X73731000Y-20006000D01*
X57777000Y-20046000D02*
X73795000Y-20046000D01*
X57714000Y-20086000D02*
X73858000Y-20086000D01*
X57651000Y-20126000D02*
X73921000Y-20126000D01*
X57589000Y-20166000D02*
X73983000Y-20166000D01*
X57528000Y-20206000D02*
X74044000Y-20206000D01*
X57468000Y-20246000D02*
X74104000Y-20246000D01*
X57408000Y-20286000D02*
X74164000Y-20286000D01*
X57348000Y-20326000D02*
X74224000Y-20326000D01*
X57289000Y-20366000D02*
X74283000Y-20366000D01*
X57231000Y-20406000D02*
X74341000Y-20406000D01*
X57174000Y-20446000D02*
X74398000Y-20446000D01*
X57117000Y-20486000D02*
X74455000Y-20486000D01*
X57060000Y-20526000D02*
X74512000Y-20526000D01*
X57004000Y-20566000D02*
X74568000Y-20566000D01*
X56949000Y-20606000D02*
X74623000Y-20606000D01*
X56894000Y-20646000D02*
X74678000Y-20646000D01*
X56839000Y-20686000D02*
X74733000Y-20686000D01*
X56786000Y-20726000D02*
X74786000Y-20726000D01*
X56732000Y-20766000D02*
X74840000Y-20766000D01*
X56679000Y-20806000D02*
X74893000Y-20806000D01*
X56627000Y-20846000D02*
X74945000Y-20846000D01*
X56575000Y-20886000D02*
X74997000Y-20886000D01*
X56523000Y-20926000D02*
X75049000Y-20926000D01*
X56472000Y-20966000D02*
X75100000Y-20966000D01*
X56422000Y-21006000D02*
X75150000Y-21006000D01*
X56372000Y-21046000D02*
X75200000Y-21046000D01*
X56322000Y-21086000D02*
X75250000Y-21086000D01*
X56273000Y-21126000D02*
X75299000Y-21126000D01*
X56224000Y-21166000D02*
X75348000Y-21166000D01*
X56175000Y-21206000D02*
X75397000Y-21206000D01*
X56127000Y-21246000D02*
X75445000Y-21246000D01*
X56080000Y-21286000D02*
X75492000Y-21286000D01*
X56032000Y-21326000D02*
X75540000Y-21326000D01*
X55986000Y-21366000D02*
X75586000Y-21366000D01*
X55939000Y-21406000D02*
X75633000Y-21406000D01*
X55893000Y-21446000D02*
X75679000Y-21446000D01*
X55847000Y-21486000D02*
X75725000Y-21486000D01*
X55802000Y-21526000D02*
X75770000Y-21526000D01*
X55757000Y-21566000D02*
X75815000Y-21566000D01*
X55712000Y-21606000D02*
X75860000Y-21606000D01*
X55668000Y-21646000D02*
X75904000Y-21646000D01*
X55624000Y-21686000D02*
X75948000Y-21686000D01*
X55581000Y-21726000D02*
X75991000Y-21726000D01*
X55537000Y-21766000D02*
X76035000Y-21766000D01*
X55494000Y-21806000D02*
X76078000Y-21806000D01*
X55452000Y-21846000D02*
X76120000Y-21846000D01*
X55410000Y-21886000D02*
X76162000Y-21886000D01*
X55368000Y-21926000D02*
X76204000Y-21926000D01*
X55326000Y-21966000D02*
X76246000Y-21966000D01*
X55285000Y-22006000D02*
X76287000Y-22006000D01*
X55244000Y-22046000D02*
X76328000Y-22046000D01*
X55203000Y-22086000D02*
X76369000Y-22086000D01*
X55163000Y-22126000D02*
X76409000Y-22126000D01*
X55123000Y-22166000D02*
X76449000Y-22166000D01*
X55083000Y-22206000D02*
X76489000Y-22206000D01*
X55043000Y-22246000D02*
X76529000Y-22246000D01*
X55004000Y-22286000D02*
X76568000Y-22286000D01*
X54965000Y-22326000D02*
X76607000Y-22326000D01*
X54927000Y-22366000D02*
X76645000Y-22366000D01*
X54888000Y-22406000D02*
X76684000Y-22406000D01*
X54850000Y-22446000D02*
X76722000Y-22446000D01*
X54813000Y-22486000D02*
X76759000Y-22486000D01*
X54775000Y-22526000D02*
X76797000Y-22526000D01*
X54738000Y-22566000D02*
X76834000Y-22566000D01*
X54701000Y-22606000D02*
X76871000Y-22606000D01*
X54664000Y-22646000D02*
X76908000Y-22646000D01*
X54628000Y-22686000D02*
X76944000Y-22686000D01*
X54592000Y-22726000D02*
X76980000Y-22726000D01*
X54556000Y-22766000D02*
X77016000Y-22766000D01*
X54520000Y-22806000D02*
X77052000Y-22806000D01*
X54485000Y-22846000D02*
X77087000Y-22846000D01*
X54450000Y-22886000D02*
X77122000Y-22886000D01*
X54415000Y-22926000D02*
X77157000Y-22926000D01*
X54380000Y-22966000D02*
X77192000Y-22966000D01*
X54346000Y-23006000D02*
X77226000Y-23006000D01*
X54311000Y-23046000D02*
X77261000Y-23046000D01*
X54277000Y-23086000D02*
X77295000Y-23086000D01*
X54244000Y-23126000D02*
X77328000Y-23126000D01*
X54210000Y-23166000D02*
X77362000Y-23166000D01*
X54177000Y-23206000D02*
X77395000Y-23206000D01*
X54144000Y-23246000D02*
X77428000Y-23246000D01*
X54111000Y-23286000D02*
X77461000Y-23286000D01*
X54079000Y-23326000D02*
X77493000Y-23326000D01*
X54047000Y-23366000D02*
X77525000Y-23366000D01*
X54014000Y-23406000D02*
X77558000Y-23406000D01*
X53983000Y-23446000D02*
X77589000Y-23446000D01*
X53951000Y-23486000D02*
X77621000Y-23486000D01*
X53920000Y-23526000D02*
X77652000Y-23526000D01*
X53888000Y-23566000D02*
X77684000Y-23566000D01*
X53857000Y-23606000D02*
X77715000Y-23606000D01*
X53827000Y-23646000D02*
X77745000Y-23646000D01*
X53796000Y-23686000D02*
X77776000Y-23686000D01*
X53766000Y-23726000D02*
X77806000Y-23726000D01*
X53736000Y-23766000D02*
X77836000Y-23766000D01*
X53706000Y-23806000D02*
X77866000Y-23806000D01*
X53676000Y-23846000D02*
X77896000Y-23846000D01*
X53646000Y-23886000D02*
X77926000Y-23886000D01*
X53617000Y-23926000D02*
X77955000Y-23926000D01*
X53588000Y-23966000D02*
X77984000Y-23966000D01*
X53559000Y-24006000D02*
X78013000Y-24006000D01*
X53530000Y-24046000D02*
X78042000Y-24046000D01*
X53502000Y-24086000D02*
X78070000Y-24086000D01*
X53473000Y-24126000D02*
X78099000Y-24126000D01*
X53445000Y-24166000D02*
X78127000Y-24166000D01*
X53417000Y-24206000D02*
X78155000Y-24206000D01*
X53389000Y-24246000D02*
X78183000Y-24246000D01*
X53362000Y-24286000D02*
X78210000Y-24286000D01*
X53335000Y-24326000D02*
X78237000Y-24326000D01*
X53307000Y-24366000D02*
X78265000Y-24366000D01*
X53280000Y-24406000D02*
X78292000Y-24406000D01*
X53254000Y-24446000D02*
X78318000Y-24446000D01*
X53227000Y-24486000D02*
X78345000Y-24486000D01*
X53200000Y-24526000D02*
X78372000Y-24526000D01*
X53174000Y-24566000D02*
X78398000Y-24566000D01*
X53148000Y-24606000D02*
X78424000Y-24606000D01*
X53122000Y-24646000D02*
X78450000Y-24646000D01*
X53096000Y-24685000D02*
X78476000Y-24685000D01*
X53071000Y-24725000D02*
X78501000Y-24725000D01*
X53046000Y-24765000D02*
X78526000Y-24765000D01*
X53020000Y-24805000D02*
X78552000Y-24805000D01*
X52995000Y-24845000D02*
X78577000Y-24845000D01*
X52970000Y-24885000D02*
X78602000Y-24885000D01*
X52946000Y-24925000D02*
X78626000Y-24925000D01*
X52921000Y-24965000D02*
X78651000Y-24965000D01*
X52897000Y-25005000D02*
X78675000Y-25005000D01*
X52873000Y-25045000D02*
X78699000Y-25045000D01*
X52849000Y-25085000D02*
X78723000Y-25085000D01*
X52825000Y-25125000D02*
X78747000Y-25125000D01*
X52801000Y-25165000D02*
X78771000Y-25165000D01*
X52778000Y-25205000D02*
X78794000Y-25205000D01*
X52754000Y-25245000D02*
X78818000Y-25245000D01*
X52731000Y-25285000D02*
X78841000Y-25285000D01*
X52708000Y-25325000D02*
X78864000Y-25325000D01*
X52685000Y-25365000D02*
X78887000Y-25365000D01*
X52663000Y-25405000D02*
X78909000Y-25405000D01*
X52640000Y-25445000D02*
X78932000Y-25445000D01*
X52618000Y-25485000D02*
X78954000Y-25485000D01*
X52596000Y-25525000D02*
X78976000Y-25525000D01*
X52573000Y-25565000D02*
X78999000Y-25565000D01*
X52552000Y-25605000D02*
X79020000Y-25605000D01*
X68026000Y-25645000D02*
X79042000Y-25645000D01*
X52530000Y-25645000D02*
X63546000Y-25645000D01*
X68026000Y-25685000D02*
X79064000Y-25685000D01*
X52508000Y-25685000D02*
X63546000Y-25685000D01*
X68026000Y-25725000D02*
X79085000Y-25725000D01*
X52487000Y-25725000D02*
X63546000Y-25725000D01*
X68026000Y-25765000D02*
X79106000Y-25765000D01*
X52466000Y-25765000D02*
X63546000Y-25765000D01*
X68026000Y-25805000D02*
X79128000Y-25805000D01*
X52444000Y-25805000D02*
X63546000Y-25805000D01*
X68026000Y-25845000D02*
X79149000Y-25845000D01*
X52423000Y-25845000D02*
X63546000Y-25845000D01*
X68026000Y-25885000D02*
X79169000Y-25885000D01*
X52403000Y-25885000D02*
X63546000Y-25885000D01*
X68026000Y-25925000D02*
X79190000Y-25925000D01*
X52382000Y-25925000D02*
X63546000Y-25925000D01*
X68026000Y-25965000D02*
X79211000Y-25965000D01*
X52361000Y-25965000D02*
X63546000Y-25965000D01*
X68026000Y-26005000D02*
X79231000Y-26005000D01*
X52341000Y-26005000D02*
X63546000Y-26005000D01*
X68026000Y-26045000D02*
X79251000Y-26045000D01*
X52321000Y-26045000D02*
X63546000Y-26045000D01*
X68026000Y-26085000D02*
X79271000Y-26085000D01*
X52301000Y-26085000D02*
X63546000Y-26085000D01*
X68026000Y-26125000D02*
X79291000Y-26125000D01*
X52281000Y-26125000D02*
X63546000Y-26125000D01*
X68026000Y-26165000D02*
X79311000Y-26165000D01*
X52261000Y-26165000D02*
X63546000Y-26165000D01*
X68026000Y-26205000D02*
X79330000Y-26205000D01*
X52242000Y-26205000D02*
X63546000Y-26205000D01*
X68026000Y-26245000D02*
X79350000Y-26245000D01*
X52222000Y-26245000D02*
X63546000Y-26245000D01*
X68026000Y-26285000D02*
X79369000Y-26285000D01*
X52203000Y-26285000D02*
X63546000Y-26285000D01*
X68026000Y-26325000D02*
X79388000Y-26325000D01*
X52184000Y-26325000D02*
X63546000Y-26325000D01*
X68026000Y-26365000D02*
X79408000Y-26365000D01*
X52164000Y-26365000D02*
X63546000Y-26365000D01*
X68026000Y-26405000D02*
X79426000Y-26405000D01*
X52146000Y-26405000D02*
X63546000Y-26405000D01*
X68026000Y-26445000D02*
X79445000Y-26445000D01*
X52127000Y-26445000D02*
X63546000Y-26445000D01*
X68026000Y-26485000D02*
X79464000Y-26485000D01*
X52108000Y-26485000D02*
X63546000Y-26485000D01*
X68026000Y-26525000D02*
X79482000Y-26525000D01*
X52090000Y-26525000D02*
X63546000Y-26525000D01*
X68026000Y-26565000D02*
X79501000Y-26565000D01*
X52071000Y-26565000D02*
X63546000Y-26565000D01*
X68026000Y-26605000D02*
X79519000Y-26605000D01*
X52053000Y-26605000D02*
X63546000Y-26605000D01*
X68026000Y-26645000D02*
X79537000Y-26645000D01*
X52035000Y-26645000D02*
X63546000Y-26645000D01*
X68026000Y-26685000D02*
X79555000Y-26685000D01*
X52017000Y-26685000D02*
X63546000Y-26685000D01*
X68026000Y-26725000D02*
X79573000Y-26725000D01*
X51999000Y-26725000D02*
X63546000Y-26725000D01*
X68026000Y-26765000D02*
X79590000Y-26765000D01*
X51982000Y-26765000D02*
X63546000Y-26765000D01*
X68026000Y-26805000D02*
X79608000Y-26805000D01*
X51964000Y-26805000D02*
X63546000Y-26805000D01*
X68026000Y-26845000D02*
X79625000Y-26845000D01*
X51947000Y-26845000D02*
X63546000Y-26845000D01*
X68026000Y-26885000D02*
X79642000Y-26885000D01*
X51930000Y-26885000D02*
X63546000Y-26885000D01*
X68026000Y-26925000D02*
X79659000Y-26925000D01*
X51913000Y-26925000D02*
X63546000Y-26925000D01*
X68026000Y-26965000D02*
X79676000Y-26965000D01*
X51896000Y-26965000D02*
X63546000Y-26965000D01*
X68026000Y-27005000D02*
X79693000Y-27005000D01*
X51879000Y-27005000D02*
X63546000Y-27005000D01*
X68026000Y-27045000D02*
X79710000Y-27045000D01*
X51862000Y-27045000D02*
X63546000Y-27045000D01*
X68026000Y-27085000D02*
X79726000Y-27085000D01*
X51846000Y-27085000D02*
X63546000Y-27085000D01*
X68026000Y-27125000D02*
X79743000Y-27125000D01*
X51829000Y-27125000D02*
X63546000Y-27125000D01*
X68026000Y-27165000D02*
X79759000Y-27165000D01*
X51813000Y-27165000D02*
X63546000Y-27165000D01*
X68026000Y-27205000D02*
X79775000Y-27205000D01*
X51797000Y-27205000D02*
X63546000Y-27205000D01*
X68026000Y-27245000D02*
X79791000Y-27245000D01*
X51781000Y-27245000D02*
X63546000Y-27245000D01*
X68026000Y-27285000D02*
X79807000Y-27285000D01*
X51765000Y-27285000D02*
X63546000Y-27285000D01*
X68026000Y-27325000D02*
X79823000Y-27325000D01*
X51749000Y-27325000D02*
X63546000Y-27325000D01*
X68026000Y-27365000D02*
X79838000Y-27365000D01*
X51734000Y-27365000D02*
X63546000Y-27365000D01*
X68026000Y-27405000D02*
X79854000Y-27405000D01*
X51718000Y-27405000D02*
X63546000Y-27405000D01*
X68026000Y-27445000D02*
X79869000Y-27445000D01*
X51703000Y-27445000D02*
X63546000Y-27445000D01*
X68026000Y-27485000D02*
X79885000Y-27485000D01*
X51687000Y-27485000D02*
X63546000Y-27485000D01*
X68026000Y-27525000D02*
X79900000Y-27525000D01*
X51672000Y-27525000D02*
X63546000Y-27525000D01*
X68026000Y-27565000D02*
X79915000Y-27565000D01*
X51657000Y-27565000D02*
X63546000Y-27565000D01*
X68026000Y-27605000D02*
X79929000Y-27605000D01*
X51643000Y-27605000D02*
X63546000Y-27605000D01*
X68026000Y-27645000D02*
X79944000Y-27645000D01*
X51628000Y-27645000D02*
X63546000Y-27645000D01*
X68026000Y-27685000D02*
X79959000Y-27685000D01*
X51613000Y-27685000D02*
X63546000Y-27685000D01*
X68026000Y-27725000D02*
X79973000Y-27725000D01*
X51599000Y-27725000D02*
X63546000Y-27725000D01*
X68026000Y-27765000D02*
X79988000Y-27765000D01*
X51584000Y-27765000D02*
X63546000Y-27765000D01*
X68026000Y-27805000D02*
X80002000Y-27805000D01*
X51570000Y-27805000D02*
X63546000Y-27805000D01*
X68026000Y-27845000D02*
X80016000Y-27845000D01*
X51556000Y-27845000D02*
X63546000Y-27845000D01*
X68026000Y-27885000D02*
X80030000Y-27885000D01*
X51542000Y-27885000D02*
X63546000Y-27885000D01*
X68026000Y-27925000D02*
X80044000Y-27925000D01*
X51528000Y-27925000D02*
X63546000Y-27925000D01*
X68026000Y-27965000D02*
X80057000Y-27965000D01*
X51515000Y-27965000D02*
X63546000Y-27965000D01*
X68026000Y-28005000D02*
X80071000Y-28005000D01*
X51501000Y-28005000D02*
X63546000Y-28005000D01*
X68026000Y-28045000D02*
X80084000Y-28045000D01*
X51488000Y-28045000D02*
X63546000Y-28045000D01*
X68026000Y-28085000D02*
X80098000Y-28085000D01*
X51474000Y-28085000D02*
X63546000Y-28085000D01*
X68026000Y-28125000D02*
X80111000Y-28125000D01*
X51461000Y-28125000D02*
X63546000Y-28125000D01*
X68026000Y-28165000D02*
X80124000Y-28165000D01*
X51448000Y-28165000D02*
X63546000Y-28165000D01*
X68026000Y-28205000D02*
X80137000Y-28205000D01*
X51435000Y-28205000D02*
X63546000Y-28205000D01*
X68026000Y-28245000D02*
X80150000Y-28245000D01*
X51422000Y-28245000D02*
X63546000Y-28245000D01*
X68026000Y-28285000D02*
X80162000Y-28285000D01*
X51410000Y-28285000D02*
X63546000Y-28285000D01*
X68026000Y-28325000D02*
X80175000Y-28325000D01*
X51397000Y-28325000D02*
X63546000Y-28325000D01*
X68026000Y-28365000D02*
X80188000Y-28365000D01*
X51384000Y-28365000D02*
X63546000Y-28365000D01*
X68026000Y-28405000D02*
X80200000Y-28405000D01*
X51372000Y-28405000D02*
X63546000Y-28405000D01*
X68026000Y-28445000D02*
X80212000Y-28445000D01*
X51360000Y-28445000D02*
X63546000Y-28445000D01*
X68026000Y-28485000D02*
X80224000Y-28485000D01*
X51348000Y-28485000D02*
X63546000Y-28485000D01*
X68026000Y-28525000D02*
X80236000Y-28525000D01*
X51336000Y-28525000D02*
X63546000Y-28525000D01*
X68026000Y-28565000D02*
X80248000Y-28565000D01*
X51324000Y-28565000D02*
X63546000Y-28565000D01*
X68026000Y-28605000D02*
X80260000Y-28605000D01*
X51312000Y-28605000D02*
X63546000Y-28605000D01*
X68026000Y-28645000D02*
X80271000Y-28645000D01*
X51301000Y-28645000D02*
X63546000Y-28645000D01*
X68026000Y-28685000D02*
X80283000Y-28685000D01*
X51289000Y-28685000D02*
X63546000Y-28685000D01*
X68026000Y-28725000D02*
X80294000Y-28725000D01*
X51278000Y-28725000D02*
X63546000Y-28725000D01*
X68026000Y-28765000D02*
X80306000Y-28765000D01*
X51266000Y-28765000D02*
X63546000Y-28765000D01*
X68026000Y-28805000D02*
X80317000Y-28805000D01*
X51255000Y-28805000D02*
X63546000Y-28805000D01*
X68026000Y-28845000D02*
X80328000Y-28845000D01*
X51244000Y-28845000D02*
X63546000Y-28845000D01*
X68026000Y-28885000D02*
X80339000Y-28885000D01*
X51233000Y-28885000D02*
X63546000Y-28885000D01*
X68026000Y-28925000D02*
X80350000Y-28925000D01*
X51222000Y-28925000D02*
X63546000Y-28925000D01*
X68026000Y-28965000D02*
X80360000Y-28965000D01*
X51212000Y-28965000D02*
X63546000Y-28965000D01*
X68026000Y-29005000D02*
X80371000Y-29005000D01*
X51201000Y-29005000D02*
X63546000Y-29005000D01*
X68026000Y-29045000D02*
X80381000Y-29045000D01*
X51191000Y-29045000D02*
X63546000Y-29045000D01*
X68026000Y-29085000D02*
X80392000Y-29085000D01*
X51180000Y-29085000D02*
X63546000Y-29085000D01*
X68026000Y-29125000D02*
X80402000Y-29125000D01*
X51170000Y-29125000D02*
X63546000Y-29125000D01*
X68026000Y-29165000D02*
X80412000Y-29165000D01*
X51160000Y-29165000D02*
X63546000Y-29165000D01*
X68026000Y-29205000D02*
X80422000Y-29205000D01*
X51150000Y-29205000D02*
X63546000Y-29205000D01*
X68026000Y-29245000D02*
X80432000Y-29245000D01*
X51140000Y-29245000D02*
X63546000Y-29245000D01*
X68026000Y-29285000D02*
X80441000Y-29285000D01*
X51131000Y-29285000D02*
X63546000Y-29285000D01*
X68026000Y-29325000D02*
X80451000Y-29325000D01*
X51121000Y-29325000D02*
X63546000Y-29325000D01*
X68026000Y-29365000D02*
X80461000Y-29365000D01*
X51111000Y-29365000D02*
X63546000Y-29365000D01*
X68026000Y-29405000D02*
X80470000Y-29405000D01*
X51102000Y-29405000D02*
X63546000Y-29405000D01*
X68026000Y-29445000D02*
X80479000Y-29445000D01*
X51093000Y-29445000D02*
X63546000Y-29445000D01*
X68026000Y-29485000D02*
X80488000Y-29485000D01*
X51084000Y-29485000D02*
X63546000Y-29485000D01*
X68026000Y-29525000D02*
X80497000Y-29525000D01*
X51075000Y-29525000D02*
X63546000Y-29525000D01*
X68026000Y-29565000D02*
X80506000Y-29565000D01*
X51066000Y-29565000D02*
X63546000Y-29565000D01*
X68026000Y-29605000D02*
X80515000Y-29605000D01*
X51057000Y-29605000D02*
X63546000Y-29605000D01*
X68026000Y-29645000D02*
X80524000Y-29645000D01*
X51048000Y-29645000D02*
X63546000Y-29645000D01*
X68026000Y-29685000D02*
X80533000Y-29685000D01*
X51039000Y-29685000D02*
X63546000Y-29685000D01*
X68026000Y-29725000D02*
X80541000Y-29725000D01*
X51031000Y-29725000D02*
X63546000Y-29725000D01*
X68026000Y-29765000D02*
X80549000Y-29765000D01*
X51023000Y-29765000D02*
X63546000Y-29765000D01*
X68026000Y-29805000D02*
X80558000Y-29805000D01*
X51014000Y-29805000D02*
X63546000Y-29805000D01*
X68026000Y-29845000D02*
X80566000Y-29845000D01*
X51006000Y-29845000D02*
X63546000Y-29845000D01*
X68026000Y-29885000D02*
X80574000Y-29885000D01*
X50998000Y-29885000D02*
X63546000Y-29885000D01*
X68026000Y-29925000D02*
X80582000Y-29925000D01*
X50990000Y-29925000D02*
X63546000Y-29925000D01*
X68026000Y-29965000D02*
X80590000Y-29965000D01*
X50982000Y-29965000D02*
X63546000Y-29965000D01*
X68026000Y-30005000D02*
X80597000Y-30005000D01*
X50975000Y-30005000D02*
X63546000Y-30005000D01*
X68026000Y-30045000D02*
X80605000Y-30045000D01*
X50967000Y-30045000D02*
X63546000Y-30045000D01*
X68026000Y-30085000D02*
X80612000Y-30085000D01*
X50960000Y-30085000D02*
X63546000Y-30085000D01*
X50952000Y-30125000D02*
X80620000Y-30125000D01*
X50945000Y-30165000D02*
X80627000Y-30165000D01*
X50938000Y-30205000D02*
X80634000Y-30205000D01*
X50931000Y-30245000D02*
X80641000Y-30245000D01*
X50924000Y-30285000D02*
X80648000Y-30285000D01*
X50917000Y-30325000D02*
X80655000Y-30325000D01*
X50910000Y-30365000D02*
X80662000Y-30365000D01*
X50904000Y-30405000D02*
X80668000Y-30405000D01*
X50897000Y-30445000D02*
X80675000Y-30445000D01*
X50891000Y-30485000D02*
X80681000Y-30485000D01*
X50885000Y-30525000D02*
X80687000Y-30525000D01*
X50878000Y-30565000D02*
X80694000Y-30565000D01*
X50872000Y-30605000D02*
X80700000Y-30605000D01*
X50866000Y-30645000D02*
X80706000Y-30645000D01*
X50861000Y-30685000D02*
X80711000Y-30685000D01*
X50855000Y-30725000D02*
X80717000Y-30725000D01*
X50849000Y-30765000D02*
X80723000Y-30765000D01*
X50844000Y-30805000D02*
X80728000Y-30805000D01*
X50838000Y-30845000D02*
X80734000Y-30845000D01*
X50833000Y-30885000D02*
X80739000Y-30885000D01*
X50828000Y-30925000D02*
X80744000Y-30925000D01*
X50823000Y-30965000D02*
X80749000Y-30965000D01*
X50818000Y-31005000D02*
X80754000Y-31005000D01*
X50813000Y-31045000D02*
X80759000Y-31045000D01*
X50808000Y-31085000D02*
X80764000Y-31085000D01*
X50804000Y-31125000D02*
X80768000Y-31125000D01*
X50799000Y-31165000D02*
X80773000Y-31165000D01*
X50795000Y-31205000D02*
X80777000Y-31205000D01*
X50790000Y-31245000D02*
X80782000Y-31245000D01*
X50786000Y-31285000D02*
X80786000Y-31285000D01*
X50782000Y-31325000D02*
X80790000Y-31325000D01*
X50778000Y-31365000D02*
X80794000Y-31365000D01*
X50774000Y-31405000D02*
X80798000Y-31405000D01*
X50770000Y-31445000D02*
X80802000Y-31445000D01*
X50767000Y-31485000D02*
X80805000Y-31485000D01*
X50763000Y-31525000D02*
X80809000Y-31525000D01*
X50760000Y-31565000D02*
X80812000Y-31565000D01*
X50756000Y-31605000D02*
X80816000Y-31605000D01*
X50753000Y-31645000D02*
X80819000Y-31645000D01*
X50750000Y-31685000D02*
X80822000Y-31685000D01*
X50747000Y-31725000D02*
X80825000Y-31725000D01*
X50744000Y-31765000D02*
X80828000Y-31765000D01*
X50741000Y-31805000D02*
X80831000Y-31805000D01*
X50739000Y-31845000D02*
X80833000Y-31845000D01*
X50736000Y-31885000D02*
X80836000Y-31885000D01*
X50734000Y-31925000D02*
X80838000Y-31925000D01*
X50731000Y-31965000D02*
X80841000Y-31965000D01*
X50729000Y-32005000D02*
X80843000Y-32005000D01*
X50727000Y-32045000D02*
X80845000Y-32045000D01*
X50725000Y-32085000D02*
X80847000Y-32085000D01*
X50723000Y-32125000D02*
X80849000Y-32125000D01*
X50721000Y-32166000D02*
X80851000Y-32166000D01*
X50719000Y-32206000D02*
X80853000Y-32206000D01*
X50717000Y-32246000D02*
X80855000Y-32246000D01*
X50716000Y-32286000D02*
X80856000Y-32286000D01*
X50714000Y-32326000D02*
X80858000Y-32326000D01*
X50713000Y-32366000D02*
X80859000Y-32366000D01*
X50712000Y-32406000D02*
X80860000Y-32406000D01*
X50711000Y-32446000D02*
X80861000Y-32446000D01*
X50710000Y-32486000D02*
X80862000Y-32486000D01*
X50709000Y-32526000D02*
X80863000Y-32526000D01*
X50708000Y-32566000D02*
X80864000Y-32566000D01*
X50707000Y-32606000D02*
X80865000Y-32606000D01*
X50707000Y-32646000D02*
X80865000Y-32646000D01*
X50706000Y-32686000D02*
X80866000Y-32686000D01*
X50706000Y-32726000D02*
X80866000Y-32726000D01*
X50706000Y-32766000D02*
X80866000Y-32766000D01*
X50706000Y-32806000D02*
X80866000Y-32806000D01*
X50705000Y-32846000D02*
X80867000Y-32846000D01*
X80906000Y-32846000D02*
G75*
G03X80906000Y-32846000I-15120000J0D01*
G01*
X46870000Y-32846000D02*
G75*
G03X46870000Y-32846000I-15120000J0D01*
G01*
X16669000Y-32846000D02*
X46831000Y-32846000D01*
X16670000Y-32806000D02*
X46830000Y-32806000D01*
X16670000Y-32766000D02*
X46830000Y-32766000D01*
X16670000Y-32726000D02*
X46830000Y-32726000D01*
X16670000Y-32686000D02*
X46830000Y-32686000D01*
X16671000Y-32646000D02*
X46829000Y-32646000D01*
X16671000Y-32606000D02*
X46829000Y-32606000D01*
X16672000Y-32566000D02*
X46828000Y-32566000D01*
X16673000Y-32526000D02*
X46827000Y-32526000D01*
X16674000Y-32486000D02*
X46826000Y-32486000D01*
X16675000Y-32446000D02*
X46825000Y-32446000D01*
X16676000Y-32406000D02*
X46824000Y-32406000D01*
X16677000Y-32366000D02*
X46823000Y-32366000D01*
X16678000Y-32326000D02*
X46822000Y-32326000D01*
X16680000Y-32286000D02*
X46820000Y-32286000D01*
X16681000Y-32246000D02*
X46819000Y-32246000D01*
X16683000Y-32206000D02*
X46817000Y-32206000D01*
X16685000Y-32166000D02*
X46815000Y-32166000D01*
X16687000Y-32125000D02*
X46813000Y-32125000D01*
X16689000Y-32085000D02*
X46811000Y-32085000D01*
X16691000Y-32045000D02*
X46809000Y-32045000D01*
X16693000Y-32005000D02*
X46807000Y-32005000D01*
X16695000Y-31965000D02*
X46805000Y-31965000D01*
X16698000Y-31925000D02*
X46802000Y-31925000D01*
X16700000Y-31885000D02*
X46800000Y-31885000D01*
X16703000Y-31845000D02*
X46797000Y-31845000D01*
X16705000Y-31805000D02*
X46795000Y-31805000D01*
X16708000Y-31765000D02*
X46792000Y-31765000D01*
X16711000Y-31725000D02*
X46789000Y-31725000D01*
X16714000Y-31685000D02*
X46786000Y-31685000D01*
X16717000Y-31645000D02*
X46783000Y-31645000D01*
X16720000Y-31605000D02*
X46780000Y-31605000D01*
X16724000Y-31565000D02*
X46776000Y-31565000D01*
X16727000Y-31525000D02*
X46773000Y-31525000D01*
X16731000Y-31485000D02*
X46769000Y-31485000D01*
X16734000Y-31445000D02*
X46766000Y-31445000D01*
X16738000Y-31405000D02*
X46762000Y-31405000D01*
X16742000Y-31365000D02*
X46758000Y-31365000D01*
X16746000Y-31325000D02*
X46754000Y-31325000D01*
X16750000Y-31285000D02*
X46750000Y-31285000D01*
X16754000Y-31245000D02*
X46746000Y-31245000D01*
X16759000Y-31205000D02*
X46741000Y-31205000D01*
X16763000Y-31165000D02*
X46737000Y-31165000D01*
X16768000Y-31125000D02*
X46732000Y-31125000D01*
X16772000Y-31085000D02*
X46728000Y-31085000D01*
X16777000Y-31045000D02*
X46723000Y-31045000D01*
X16782000Y-31005000D02*
X46718000Y-31005000D01*
X16787000Y-30965000D02*
X46713000Y-30965000D01*
X16792000Y-30925000D02*
X46708000Y-30925000D01*
X16797000Y-30885000D02*
X46703000Y-30885000D01*
X16802000Y-30845000D02*
X46698000Y-30845000D01*
X16808000Y-30805000D02*
X46692000Y-30805000D01*
X16813000Y-30765000D02*
X46687000Y-30765000D01*
X16819000Y-30725000D02*
X46681000Y-30725000D01*
X16825000Y-30685000D02*
X46675000Y-30685000D01*
X16830000Y-30645000D02*
X46670000Y-30645000D01*
X16836000Y-30605000D02*
X46664000Y-30605000D01*
X16842000Y-30565000D02*
X46658000Y-30565000D01*
X16849000Y-30525000D02*
X46651000Y-30525000D01*
X16855000Y-30485000D02*
X46645000Y-30485000D01*
X16861000Y-30445000D02*
X46639000Y-30445000D01*
X16868000Y-30405000D02*
X46632000Y-30405000D01*
X16874000Y-30365000D02*
X46626000Y-30365000D01*
X16881000Y-30325000D02*
X46619000Y-30325000D01*
X16888000Y-30285000D02*
X46612000Y-30285000D01*
X16895000Y-30245000D02*
X46605000Y-30245000D01*
X16902000Y-30205000D02*
X46598000Y-30205000D01*
X16909000Y-30165000D02*
X46591000Y-30165000D01*
X16916000Y-30125000D02*
X46584000Y-30125000D01*
X16924000Y-30085000D02*
X29510000Y-30085000D01*
X33990000Y-30085000D02*
X46576000Y-30085000D01*
X16931000Y-30045000D02*
X29510000Y-30045000D01*
X33990000Y-30045000D02*
X46569000Y-30045000D01*
X16939000Y-30005000D02*
X29510000Y-30005000D01*
X33990000Y-30005000D02*
X46561000Y-30005000D01*
X16946000Y-29965000D02*
X29510000Y-29965000D01*
X33990000Y-29965000D02*
X46554000Y-29965000D01*
X16954000Y-29925000D02*
X29510000Y-29925000D01*
X33990000Y-29925000D02*
X46546000Y-29925000D01*
X16962000Y-29885000D02*
X29510000Y-29885000D01*
X33990000Y-29885000D02*
X46538000Y-29885000D01*
X16970000Y-29845000D02*
X29510000Y-29845000D01*
X33990000Y-29845000D02*
X46530000Y-29845000D01*
X16978000Y-29805000D02*
X29510000Y-29805000D01*
X33990000Y-29805000D02*
X46522000Y-29805000D01*
X16987000Y-29765000D02*
X29510000Y-29765000D01*
X33990000Y-29765000D02*
X46513000Y-29765000D01*
X16995000Y-29725000D02*
X29510000Y-29725000D01*
X33990000Y-29725000D02*
X46505000Y-29725000D01*
X17003000Y-29685000D02*
X29510000Y-29685000D01*
X33990000Y-29685000D02*
X46497000Y-29685000D01*
X17012000Y-29645000D02*
X29510000Y-29645000D01*
X33990000Y-29645000D02*
X46488000Y-29645000D01*
X17021000Y-29605000D02*
X29510000Y-29605000D01*
X33990000Y-29605000D02*
X46479000Y-29605000D01*
X17030000Y-29565000D02*
X29510000Y-29565000D01*
X33990000Y-29565000D02*
X46470000Y-29565000D01*
X17039000Y-29525000D02*
X29510000Y-29525000D01*
X33990000Y-29525000D02*
X46461000Y-29525000D01*
X17048000Y-29485000D02*
X29510000Y-29485000D01*
X33990000Y-29485000D02*
X46452000Y-29485000D01*
X17057000Y-29445000D02*
X29510000Y-29445000D01*
X33990000Y-29445000D02*
X46443000Y-29445000D01*
X17066000Y-29405000D02*
X29510000Y-29405000D01*
X33990000Y-29405000D02*
X46434000Y-29405000D01*
X17075000Y-29365000D02*
X29510000Y-29365000D01*
X33990000Y-29365000D02*
X46425000Y-29365000D01*
X17085000Y-29325000D02*
X29510000Y-29325000D01*
X33990000Y-29325000D02*
X46415000Y-29325000D01*
X17095000Y-29285000D02*
X29510000Y-29285000D01*
X33990000Y-29285000D02*
X46405000Y-29285000D01*
X17104000Y-29245000D02*
X29510000Y-29245000D01*
X33990000Y-29245000D02*
X46396000Y-29245000D01*
X17114000Y-29205000D02*
X29510000Y-29205000D01*
X33990000Y-29205000D02*
X46386000Y-29205000D01*
X17124000Y-29165000D02*
X29510000Y-29165000D01*
X33990000Y-29165000D02*
X46376000Y-29165000D01*
X17134000Y-29125000D02*
X29510000Y-29125000D01*
X33990000Y-29125000D02*
X46366000Y-29125000D01*
X17144000Y-29085000D02*
X29510000Y-29085000D01*
X33990000Y-29085000D02*
X46356000Y-29085000D01*
X17155000Y-29045000D02*
X29510000Y-29045000D01*
X33990000Y-29045000D02*
X46345000Y-29045000D01*
X17165000Y-29005000D02*
X29510000Y-29005000D01*
X33990000Y-29005000D02*
X46335000Y-29005000D01*
X17176000Y-28965000D02*
X29510000Y-28965000D01*
X33990000Y-28965000D02*
X46324000Y-28965000D01*
X17186000Y-28925000D02*
X29510000Y-28925000D01*
X33990000Y-28925000D02*
X46314000Y-28925000D01*
X17197000Y-28885000D02*
X29510000Y-28885000D01*
X33990000Y-28885000D02*
X46303000Y-28885000D01*
X17208000Y-28845000D02*
X29510000Y-28845000D01*
X33990000Y-28845000D02*
X46292000Y-28845000D01*
X17219000Y-28805000D02*
X29510000Y-28805000D01*
X33990000Y-28805000D02*
X46281000Y-28805000D01*
X17230000Y-28765000D02*
X29510000Y-28765000D01*
X33990000Y-28765000D02*
X46270000Y-28765000D01*
X17242000Y-28725000D02*
X29510000Y-28725000D01*
X33990000Y-28725000D02*
X46258000Y-28725000D01*
X17253000Y-28685000D02*
X29510000Y-28685000D01*
X33990000Y-28685000D02*
X46247000Y-28685000D01*
X17265000Y-28645000D02*
X29510000Y-28645000D01*
X33990000Y-28645000D02*
X46235000Y-28645000D01*
X17276000Y-28605000D02*
X29510000Y-28605000D01*
X33990000Y-28605000D02*
X46224000Y-28605000D01*
X17288000Y-28565000D02*
X29510000Y-28565000D01*
X33990000Y-28565000D02*
X46212000Y-28565000D01*
X17300000Y-28525000D02*
X29510000Y-28525000D01*
X33990000Y-28525000D02*
X46200000Y-28525000D01*
X17312000Y-28485000D02*
X29510000Y-28485000D01*
X33990000Y-28485000D02*
X46188000Y-28485000D01*
X17324000Y-28445000D02*
X29510000Y-28445000D01*
X33990000Y-28445000D02*
X46176000Y-28445000D01*
X17336000Y-28405000D02*
X29510000Y-28405000D01*
X33990000Y-28405000D02*
X46164000Y-28405000D01*
X17348000Y-28365000D02*
X29510000Y-28365000D01*
X33990000Y-28365000D02*
X46152000Y-28365000D01*
X17361000Y-28325000D02*
X29510000Y-28325000D01*
X33990000Y-28325000D02*
X46139000Y-28325000D01*
X17374000Y-28285000D02*
X29510000Y-28285000D01*
X33990000Y-28285000D02*
X46126000Y-28285000D01*
X17386000Y-28245000D02*
X29510000Y-28245000D01*
X33990000Y-28245000D02*
X46114000Y-28245000D01*
X17399000Y-28205000D02*
X29510000Y-28205000D01*
X33990000Y-28205000D02*
X46101000Y-28205000D01*
X17412000Y-28165000D02*
X29510000Y-28165000D01*
X33990000Y-28165000D02*
X46088000Y-28165000D01*
X17425000Y-28125000D02*
X29510000Y-28125000D01*
X33990000Y-28125000D02*
X46075000Y-28125000D01*
X17438000Y-28085000D02*
X29510000Y-28085000D01*
X33990000Y-28085000D02*
X46062000Y-28085000D01*
X17452000Y-28045000D02*
X29510000Y-28045000D01*
X33990000Y-28045000D02*
X46048000Y-28045000D01*
X17465000Y-28005000D02*
X29510000Y-28005000D01*
X33990000Y-28005000D02*
X46035000Y-28005000D01*
X17479000Y-27965000D02*
X29510000Y-27965000D01*
X33990000Y-27965000D02*
X46021000Y-27965000D01*
X17492000Y-27925000D02*
X29510000Y-27925000D01*
X33990000Y-27925000D02*
X46008000Y-27925000D01*
X17506000Y-27885000D02*
X29510000Y-27885000D01*
X33990000Y-27885000D02*
X45994000Y-27885000D01*
X17520000Y-27845000D02*
X29510000Y-27845000D01*
X33990000Y-27845000D02*
X45980000Y-27845000D01*
X17534000Y-27805000D02*
X29510000Y-27805000D01*
X33990000Y-27805000D02*
X45966000Y-27805000D01*
X17548000Y-27765000D02*
X29510000Y-27765000D01*
X33990000Y-27765000D02*
X45952000Y-27765000D01*
X17563000Y-27725000D02*
X29510000Y-27725000D01*
X33990000Y-27725000D02*
X45937000Y-27725000D01*
X17577000Y-27685000D02*
X29510000Y-27685000D01*
X33990000Y-27685000D02*
X45923000Y-27685000D01*
X17592000Y-27645000D02*
X29510000Y-27645000D01*
X33990000Y-27645000D02*
X45908000Y-27645000D01*
X17607000Y-27605000D02*
X29510000Y-27605000D01*
X33990000Y-27605000D02*
X45893000Y-27605000D01*
X17621000Y-27565000D02*
X29510000Y-27565000D01*
X33990000Y-27565000D02*
X45879000Y-27565000D01*
X17636000Y-27525000D02*
X29510000Y-27525000D01*
X33990000Y-27525000D02*
X45864000Y-27525000D01*
X17651000Y-27485000D02*
X29510000Y-27485000D01*
X33990000Y-27485000D02*
X45849000Y-27485000D01*
X17667000Y-27445000D02*
X29510000Y-27445000D01*
X33990000Y-27445000D02*
X45833000Y-27445000D01*
X17682000Y-27405000D02*
X29510000Y-27405000D01*
X33990000Y-27405000D02*
X45818000Y-27405000D01*
X17698000Y-27365000D02*
X29510000Y-27365000D01*
X33990000Y-27365000D02*
X45802000Y-27365000D01*
X17713000Y-27325000D02*
X29510000Y-27325000D01*
X33990000Y-27325000D02*
X45787000Y-27325000D01*
X17729000Y-27285000D02*
X29510000Y-27285000D01*
X33990000Y-27285000D02*
X45771000Y-27285000D01*
X17745000Y-27245000D02*
X29510000Y-27245000D01*
X33990000Y-27245000D02*
X45755000Y-27245000D01*
X17761000Y-27205000D02*
X29510000Y-27205000D01*
X33990000Y-27205000D02*
X45739000Y-27205000D01*
X17777000Y-27165000D02*
X29510000Y-27165000D01*
X33990000Y-27165000D02*
X45723000Y-27165000D01*
X17793000Y-27125000D02*
X29510000Y-27125000D01*
X33990000Y-27125000D02*
X45707000Y-27125000D01*
X17810000Y-27085000D02*
X29510000Y-27085000D01*
X33990000Y-27085000D02*
X45690000Y-27085000D01*
X17826000Y-27045000D02*
X29510000Y-27045000D01*
X33990000Y-27045000D02*
X45674000Y-27045000D01*
X17843000Y-27005000D02*
X29510000Y-27005000D01*
X33990000Y-27005000D02*
X45657000Y-27005000D01*
X17860000Y-26965000D02*
X29510000Y-26965000D01*
X33990000Y-26965000D02*
X45640000Y-26965000D01*
X17877000Y-26925000D02*
X29510000Y-26925000D01*
X33990000Y-26925000D02*
X45623000Y-26925000D01*
X17894000Y-26885000D02*
X29510000Y-26885000D01*
X33990000Y-26885000D02*
X45606000Y-26885000D01*
X17911000Y-26845000D02*
X29510000Y-26845000D01*
X33990000Y-26845000D02*
X45589000Y-26845000D01*
X17928000Y-26805000D02*
X29510000Y-26805000D01*
X33990000Y-26805000D02*
X45572000Y-26805000D01*
X17946000Y-26765000D02*
X29510000Y-26765000D01*
X33990000Y-26765000D02*
X45554000Y-26765000D01*
X17963000Y-26725000D02*
X29510000Y-26725000D01*
X33990000Y-26725000D02*
X45537000Y-26725000D01*
X17981000Y-26685000D02*
X29510000Y-26685000D01*
X33990000Y-26685000D02*
X45519000Y-26685000D01*
X17999000Y-26645000D02*
X29510000Y-26645000D01*
X33990000Y-26645000D02*
X45501000Y-26645000D01*
X18017000Y-26605000D02*
X29510000Y-26605000D01*
X33990000Y-26605000D02*
X45483000Y-26605000D01*
X18035000Y-26565000D02*
X29510000Y-26565000D01*
X33990000Y-26565000D02*
X45465000Y-26565000D01*
X18054000Y-26525000D02*
X29510000Y-26525000D01*
X33990000Y-26525000D02*
X45446000Y-26525000D01*
X18072000Y-26485000D02*
X29510000Y-26485000D01*
X33990000Y-26485000D02*
X45428000Y-26485000D01*
X18091000Y-26445000D02*
X29510000Y-26445000D01*
X33990000Y-26445000D02*
X45409000Y-26445000D01*
X18110000Y-26405000D02*
X29510000Y-26405000D01*
X33990000Y-26405000D02*
X45390000Y-26405000D01*
X18128000Y-26365000D02*
X29510000Y-26365000D01*
X33990000Y-26365000D02*
X45372000Y-26365000D01*
X18148000Y-26325000D02*
X29510000Y-26325000D01*
X33990000Y-26325000D02*
X45352000Y-26325000D01*
X18167000Y-26285000D02*
X29510000Y-26285000D01*
X33990000Y-26285000D02*
X45333000Y-26285000D01*
X18186000Y-26245000D02*
X29510000Y-26245000D01*
X33990000Y-26245000D02*
X45314000Y-26245000D01*
X18206000Y-26205000D02*
X29510000Y-26205000D01*
X33990000Y-26205000D02*
X45294000Y-26205000D01*
X18225000Y-26165000D02*
X29510000Y-26165000D01*
X33990000Y-26165000D02*
X45275000Y-26165000D01*
X18245000Y-26125000D02*
X29510000Y-26125000D01*
X33990000Y-26125000D02*
X45255000Y-26125000D01*
X18265000Y-26085000D02*
X29510000Y-26085000D01*
X33990000Y-26085000D02*
X45235000Y-26085000D01*
X18285000Y-26045000D02*
X29510000Y-26045000D01*
X33990000Y-26045000D02*
X45215000Y-26045000D01*
X18305000Y-26005000D02*
X29510000Y-26005000D01*
X33990000Y-26005000D02*
X45195000Y-26005000D01*
X18325000Y-25965000D02*
X29510000Y-25965000D01*
X33990000Y-25965000D02*
X45175000Y-25965000D01*
X18346000Y-25925000D02*
X29510000Y-25925000D01*
X33990000Y-25925000D02*
X45154000Y-25925000D01*
X18367000Y-25885000D02*
X29510000Y-25885000D01*
X33990000Y-25885000D02*
X45133000Y-25885000D01*
X18387000Y-25845000D02*
X29510000Y-25845000D01*
X33990000Y-25845000D02*
X45113000Y-25845000D01*
X18408000Y-25805000D02*
X29510000Y-25805000D01*
X33990000Y-25805000D02*
X45092000Y-25805000D01*
X18430000Y-25765000D02*
X29510000Y-25765000D01*
X33990000Y-25765000D02*
X45070000Y-25765000D01*
X18451000Y-25725000D02*
X29510000Y-25725000D01*
X33990000Y-25725000D02*
X45049000Y-25725000D01*
X18472000Y-25685000D02*
X29510000Y-25685000D01*
X33990000Y-25685000D02*
X45028000Y-25685000D01*
X18494000Y-25645000D02*
X29510000Y-25645000D01*
X33990000Y-25645000D02*
X45006000Y-25645000D01*
X18516000Y-25605000D02*
X44984000Y-25605000D01*
X18537000Y-25565000D02*
X44963000Y-25565000D01*
X18560000Y-25525000D02*
X44940000Y-25525000D01*
X18582000Y-25485000D02*
X44918000Y-25485000D01*
X18604000Y-25445000D02*
X44896000Y-25445000D01*
X18627000Y-25405000D02*
X44873000Y-25405000D01*
X18649000Y-25365000D02*
X44851000Y-25365000D01*
X18672000Y-25325000D02*
X44828000Y-25325000D01*
X18695000Y-25285000D02*
X44805000Y-25285000D01*
X18718000Y-25245000D02*
X44782000Y-25245000D01*
X18742000Y-25205000D02*
X44758000Y-25205000D01*
X18765000Y-25165000D02*
X44735000Y-25165000D01*
X18789000Y-25125000D02*
X44711000Y-25125000D01*
X18813000Y-25085000D02*
X44687000Y-25085000D01*
X18837000Y-25045000D02*
X44663000Y-25045000D01*
X18861000Y-25005000D02*
X44639000Y-25005000D01*
X18885000Y-24965000D02*
X44615000Y-24965000D01*
X18910000Y-24925000D02*
X44590000Y-24925000D01*
X18934000Y-24885000D02*
X44566000Y-24885000D01*
X18959000Y-24845000D02*
X44541000Y-24845000D01*
X18984000Y-24805000D02*
X44516000Y-24805000D01*
X19010000Y-24765000D02*
X44490000Y-24765000D01*
X19035000Y-24725000D02*
X44465000Y-24725000D01*
X19060000Y-24685000D02*
X44440000Y-24685000D01*
X19086000Y-24646000D02*
X44414000Y-24646000D01*
X19112000Y-24606000D02*
X44388000Y-24606000D01*
X19138000Y-24566000D02*
X44362000Y-24566000D01*
X19164000Y-24526000D02*
X44336000Y-24526000D01*
X19191000Y-24486000D02*
X44309000Y-24486000D01*
X19218000Y-24446000D02*
X44282000Y-24446000D01*
X19244000Y-24406000D02*
X44256000Y-24406000D01*
X19271000Y-24366000D02*
X44229000Y-24366000D01*
X19299000Y-24326000D02*
X44201000Y-24326000D01*
X19326000Y-24286000D02*
X44174000Y-24286000D01*
X19353000Y-24246000D02*
X44147000Y-24246000D01*
X19381000Y-24206000D02*
X44119000Y-24206000D01*
X19409000Y-24166000D02*
X44091000Y-24166000D01*
X19437000Y-24126000D02*
X44063000Y-24126000D01*
X19466000Y-24086000D02*
X44034000Y-24086000D01*
X19494000Y-24046000D02*
X44006000Y-24046000D01*
X19523000Y-24006000D02*
X43977000Y-24006000D01*
X19552000Y-23966000D02*
X43948000Y-23966000D01*
X19581000Y-23926000D02*
X43919000Y-23926000D01*
X19610000Y-23886000D02*
X43890000Y-23886000D01*
X19640000Y-23846000D02*
X43860000Y-23846000D01*
X19670000Y-23806000D02*
X43830000Y-23806000D01*
X19700000Y-23766000D02*
X43800000Y-23766000D01*
X19730000Y-23726000D02*
X43770000Y-23726000D01*
X19760000Y-23686000D02*
X43740000Y-23686000D01*
X19791000Y-23646000D02*
X43709000Y-23646000D01*
X19821000Y-23606000D02*
X43679000Y-23606000D01*
X19852000Y-23566000D02*
X43648000Y-23566000D01*
X19884000Y-23526000D02*
X43616000Y-23526000D01*
X19915000Y-23486000D02*
X43585000Y-23486000D01*
X19947000Y-23446000D02*
X43553000Y-23446000D01*
X19978000Y-23406000D02*
X43522000Y-23406000D01*
X20011000Y-23366000D02*
X43489000Y-23366000D01*
X20043000Y-23326000D02*
X43457000Y-23326000D01*
X20075000Y-23286000D02*
X43425000Y-23286000D01*
X20108000Y-23246000D02*
X43392000Y-23246000D01*
X20141000Y-23206000D02*
X43359000Y-23206000D01*
X20174000Y-23166000D02*
X43326000Y-23166000D01*
X20208000Y-23126000D02*
X43292000Y-23126000D01*
X20241000Y-23086000D02*
X43259000Y-23086000D01*
X20275000Y-23046000D02*
X43225000Y-23046000D01*
X20310000Y-23006000D02*
X43190000Y-23006000D01*
X20344000Y-22966000D02*
X43156000Y-22966000D01*
X20379000Y-22926000D02*
X43121000Y-22926000D01*
X20414000Y-22886000D02*
X43086000Y-22886000D01*
X20449000Y-22846000D02*
X43051000Y-22846000D01*
X20484000Y-22806000D02*
X43016000Y-22806000D01*
X20520000Y-22766000D02*
X42980000Y-22766000D01*
X20556000Y-22726000D02*
X42944000Y-22726000D01*
X20592000Y-22686000D02*
X42908000Y-22686000D01*
X20628000Y-22646000D02*
X42872000Y-22646000D01*
X20665000Y-22606000D02*
X42835000Y-22606000D01*
X20702000Y-22566000D02*
X42798000Y-22566000D01*
X20739000Y-22526000D02*
X42761000Y-22526000D01*
X20777000Y-22486000D02*
X42723000Y-22486000D01*
X20814000Y-22446000D02*
X42686000Y-22446000D01*
X20852000Y-22406000D02*
X42648000Y-22406000D01*
X20891000Y-22366000D02*
X42609000Y-22366000D01*
X20929000Y-22326000D02*
X42571000Y-22326000D01*
X20968000Y-22286000D02*
X42532000Y-22286000D01*
X21007000Y-22246000D02*
X42493000Y-22246000D01*
X21047000Y-22206000D02*
X42453000Y-22206000D01*
X21087000Y-22166000D02*
X42413000Y-22166000D01*
X21127000Y-22126000D02*
X42373000Y-22126000D01*
X21167000Y-22086000D02*
X42333000Y-22086000D01*
X21208000Y-22046000D02*
X42292000Y-22046000D01*
X21249000Y-22006000D02*
X42251000Y-22006000D01*
X21290000Y-21966000D02*
X42210000Y-21966000D01*
X21332000Y-21926000D02*
X42168000Y-21926000D01*
X21374000Y-21886000D02*
X42126000Y-21886000D01*
X21416000Y-21846000D02*
X42084000Y-21846000D01*
X21458000Y-21806000D02*
X42042000Y-21806000D01*
X21501000Y-21766000D02*
X41999000Y-21766000D01*
X21545000Y-21726000D02*
X41955000Y-21726000D01*
X21588000Y-21686000D02*
X41912000Y-21686000D01*
X21632000Y-21646000D02*
X41868000Y-21646000D01*
X21676000Y-21606000D02*
X41824000Y-21606000D01*
X21721000Y-21566000D02*
X41779000Y-21566000D01*
X21766000Y-21526000D02*
X41734000Y-21526000D01*
X21811000Y-21486000D02*
X41689000Y-21486000D01*
X21857000Y-21446000D02*
X41643000Y-21446000D01*
X21903000Y-21406000D02*
X41597000Y-21406000D01*
X21950000Y-21366000D02*
X41550000Y-21366000D01*
X21996000Y-21326000D02*
X41504000Y-21326000D01*
X22044000Y-21286000D02*
X41456000Y-21286000D01*
X22091000Y-21246000D02*
X41409000Y-21246000D01*
X22139000Y-21206000D02*
X41361000Y-21206000D01*
X22188000Y-21166000D02*
X41312000Y-21166000D01*
X22237000Y-21126000D02*
X41263000Y-21126000D01*
X22286000Y-21086000D02*
X41214000Y-21086000D01*
X22336000Y-21046000D02*
X41164000Y-21046000D01*
X22386000Y-21006000D02*
X41114000Y-21006000D01*
X22436000Y-20966000D02*
X41064000Y-20966000D01*
X22487000Y-20926000D02*
X41013000Y-20926000D01*
X22539000Y-20886000D02*
X40961000Y-20886000D01*
X22591000Y-20846000D02*
X40909000Y-20846000D01*
X22643000Y-20806000D02*
X40857000Y-20806000D01*
X22696000Y-20766000D02*
X40804000Y-20766000D01*
X22750000Y-20726000D02*
X40750000Y-20726000D01*
X22803000Y-20686000D02*
X40697000Y-20686000D01*
X22858000Y-20646000D02*
X40642000Y-20646000D01*
X22913000Y-20606000D02*
X40587000Y-20606000D01*
X22968000Y-20566000D02*
X40532000Y-20566000D01*
X23024000Y-20526000D02*
X40476000Y-20526000D01*
X23081000Y-20486000D02*
X40419000Y-20486000D01*
X23138000Y-20446000D02*
X40362000Y-20446000D01*
X23195000Y-20406000D02*
X40305000Y-20406000D01*
X23253000Y-20366000D02*
X40247000Y-20366000D01*
X23312000Y-20326000D02*
X40188000Y-20326000D01*
X23372000Y-20286000D02*
X40128000Y-20286000D01*
X23432000Y-20246000D02*
X40068000Y-20246000D01*
X23492000Y-20206000D02*
X40008000Y-20206000D01*
X23553000Y-20166000D02*
X39947000Y-20166000D01*
X23615000Y-20126000D02*
X39885000Y-20126000D01*
X23678000Y-20086000D02*
X39822000Y-20086000D01*
X23741000Y-20046000D02*
X39759000Y-20046000D01*
X23805000Y-20006000D02*
X39695000Y-20006000D01*
X23870000Y-19966000D02*
X39630000Y-19966000D01*
X23935000Y-19926000D02*
X39565000Y-19926000D01*
X24002000Y-19886000D02*
X39498000Y-19886000D01*
X24068000Y-19846000D02*
X39432000Y-19846000D01*
X24136000Y-19806000D02*
X39364000Y-19806000D01*
X24205000Y-19766000D02*
X39295000Y-19766000D01*
X24274000Y-19726000D02*
X39226000Y-19726000D01*
X24344000Y-19686000D02*
X39156000Y-19686000D01*
X24416000Y-19646000D02*
X39084000Y-19646000D01*
X24488000Y-19606000D02*
X39012000Y-19606000D01*
X24561000Y-19566000D02*
X38939000Y-19566000D01*
X24635000Y-19526000D02*
X38865000Y-19526000D01*
X24710000Y-19486000D02*
X38790000Y-19486000D01*
X24786000Y-19446000D02*
X38714000Y-19446000D01*
X24863000Y-19406000D02*
X38637000Y-19406000D01*
X24941000Y-19366000D02*
X38559000Y-19366000D01*
X25020000Y-19326000D02*
X38480000Y-19326000D01*
X25101000Y-19286000D02*
X38399000Y-19286000D01*
X25182000Y-19246000D02*
X38318000Y-19246000D01*
X25265000Y-19206000D02*
X38235000Y-19206000D01*
X25350000Y-19166000D02*
X38150000Y-19166000D01*
X25435000Y-19126000D02*
X38065000Y-19126000D01*
X25522000Y-19086000D02*
X37978000Y-19086000D01*
X25611000Y-19046000D02*
X37889000Y-19046000D01*
X25701000Y-19006000D02*
X37799000Y-19006000D01*
X25793000Y-18966000D02*
X37707000Y-18966000D01*
X25886000Y-18926000D02*
X37614000Y-18926000D01*
X25982000Y-18886000D02*
X37518000Y-18886000D01*
X26079000Y-18846000D02*
X37421000Y-18846000D01*
X26178000Y-18806000D02*
X37322000Y-18806000D01*
X26279000Y-18766000D02*
X37221000Y-18766000D01*
X26382000Y-18726000D02*
X37118000Y-18726000D01*
X26488000Y-18686000D02*
X37012000Y-18686000D01*
X26596000Y-18646000D02*
X36904000Y-18646000D01*
X26707000Y-18606000D02*
X36793000Y-18606000D01*
X26820000Y-18566000D02*
X36680000Y-18566000D01*
X26936000Y-18526000D02*
X36564000Y-18526000D01*
X27056000Y-18486000D02*
X36444000Y-18486000D01*
X27179000Y-18446000D02*
X36321000Y-18446000D01*
X27306000Y-18406000D02*
X36194000Y-18406000D01*
X27437000Y-18366000D02*
X36063000Y-18366000D01*
X27572000Y-18326000D02*
X35928000Y-18326000D01*
X27713000Y-18286000D02*
X35787000Y-18286000D01*
X27858000Y-18246000D02*
X35642000Y-18246000D01*
X28010000Y-18206000D02*
X35490000Y-18206000D01*
X28168000Y-18166000D02*
X35332000Y-18166000D01*
X28335000Y-18126000D02*
X35165000Y-18126000D01*
X28510000Y-18086000D02*
X34990000Y-18086000D01*
X28695000Y-18046000D02*
X34805000Y-18046000D01*
X28893000Y-18006000D02*
X34607000Y-18006000D01*
X29106000Y-17966000D02*
X34394000Y-17966000D01*
X29338000Y-17926000D02*
X34162000Y-17926000D01*
X29596000Y-17886000D02*
X33904000Y-17886000D01*
X29888000Y-17846000D02*
X33612000Y-17846000D01*
X30236000Y-17806000D02*
X33264000Y-17806000D01*
X30690000Y-17766000D02*
X32810000Y-17766000D01*
X31710000Y-17726000D02*
X31790000Y-17726000D01*
X23275000Y-49025131D02*
X23275000Y-46025131D01*
X21775000Y-47525131D02*
X24775000Y-47525131D01*
X96075600Y-67887600D02*
X95055600Y-67887600D01*
X92255600Y-61117600D02*
X92255600Y-63037600D01*
X98875600Y-61557600D02*
X98875600Y-62597600D01*
X92355600Y-60667600D02*
X93775600Y-60667600D01*
X93775600Y-60867600D02*
X97355600Y-60867600D01*
X97355600Y-60867600D02*
X97355600Y-60667600D01*
X97355600Y-60667600D02*
X98775600Y-60667600D01*
X98775600Y-60667600D02*
X98775600Y-60867600D01*
X95055600Y-67887600D02*
X93565600Y-67887600D01*
X92255600Y-66577600D02*
X92255600Y-63037600D01*
X98875600Y-62597600D02*
X98875600Y-66577600D01*
X97565600Y-67887600D02*
X96075600Y-67887600D01*
X93565600Y-67887600D02*
G75*
G02X92255600Y-66577600I0J1310000D01*
G01*
X98875600Y-66577600D02*
G75*
G02X97565600Y-67887600I-1310000J0D01*
G01*
X93775600Y-60867600D02*
X93775600Y-60667600D01*
X92355600Y-60667600D02*
X92355600Y-60867600D01*
X92355600Y-60867600D02*
X92255600Y-60867600D01*
X92255600Y-60867600D02*
X92255600Y-61117600D01*
X98775600Y-60867600D02*
X98875600Y-60867600D01*
X98875600Y-60867600D02*
X98875600Y-61557600D01*
X89513592Y-86893336D02*
X89003592Y-86009991D01*
X93466584Y-80200119D02*
X91803816Y-81160119D01*
X96395533Y-86153208D02*
X95494867Y-86673208D01*
X93906296Y-80061722D02*
X94616296Y-81291478D01*
X94443091Y-81391478D02*
X96233091Y-84491849D01*
X96233091Y-84491849D02*
X96406296Y-84391849D01*
X96406296Y-84391849D02*
X97116296Y-85621605D01*
X97116296Y-85621605D02*
X96943091Y-85721605D01*
X89003592Y-86009991D02*
X88258592Y-84719613D01*
X88738086Y-82930119D02*
X91803816Y-81160119D01*
X95494867Y-86673208D02*
X92048086Y-88663208D01*
X90258592Y-88183714D02*
X89513592Y-86893336D01*
X88258592Y-84719613D02*
G75*
G02X88738086Y-82930119I1134494J655000D01*
G01*
X92048086Y-88663208D02*
G75*
G02X90258592Y-88183714I-655000J1134494D01*
G01*
X94443091Y-81391478D02*
X94616296Y-81291478D01*
X93906296Y-80061722D02*
X93733091Y-80161722D01*
X93733091Y-80161722D02*
X93683091Y-80075119D01*
X93683091Y-80075119D02*
X93466584Y-80200119D01*
X96943091Y-85721605D02*
X96993091Y-85808208D01*
X96993091Y-85808208D02*
X96395533Y-86153208D01*
X90183800Y-61509132D02*
G75*
G03X90183800Y-61509132I-2620000J0D01*
G01*
X89798146Y-62799132D02*
X85329454Y-60219132D01*
X89778146Y-62833773D02*
X85309454Y-60253773D01*
X89757280Y-62867914D02*
X85290320Y-60288914D01*
X89736413Y-62902055D02*
X85271187Y-60324055D01*
X89714681Y-62935696D02*
X85252919Y-60359696D01*
X89692083Y-62968837D02*
X85235517Y-60395837D01*
X89668619Y-63001478D02*
X88344466Y-62236978D01*
X86543134Y-61196978D02*
X85218981Y-60432478D01*
X89645155Y-63034119D02*
X88324466Y-62271619D01*
X86523134Y-61231619D02*
X85202445Y-60469119D01*
X89621691Y-63066760D02*
X88304466Y-62306260D01*
X86503134Y-61266260D02*
X85185909Y-60505760D01*
X89597361Y-63098901D02*
X88284466Y-62340901D01*
X86483134Y-61300901D02*
X85170239Y-60542901D01*
X89572165Y-63130542D02*
X88264466Y-62375542D01*
X86463134Y-61335542D02*
X85155435Y-60580542D01*
X89546103Y-63161683D02*
X88244466Y-62410183D01*
X86443134Y-61370183D02*
X85141497Y-60618683D01*
X89520040Y-63192824D02*
X88224466Y-62444824D01*
X86423134Y-61404824D02*
X85127560Y-60656824D01*
X89493112Y-63223465D02*
X88204466Y-62479465D01*
X86403134Y-61439465D02*
X85114488Y-60695465D01*
X89466184Y-63254106D02*
X88184466Y-62514106D01*
X86383134Y-61474106D02*
X85101416Y-60734106D01*
X89438390Y-63284247D02*
X88164466Y-62548747D01*
X86363134Y-61508747D02*
X85089210Y-60773247D01*
X89409730Y-63313888D02*
X88144466Y-62583388D01*
X86343134Y-61543388D02*
X85077870Y-60812888D01*
X89381069Y-63343529D02*
X88124466Y-62618029D01*
X86323134Y-61578029D02*
X85066531Y-60852529D01*
X89351043Y-63373536D02*
X88103966Y-62653536D01*
X86302634Y-61613536D02*
X85055557Y-60893536D01*
X89320651Y-63402177D02*
X88083966Y-62688177D01*
X86282634Y-61648177D02*
X85045949Y-60934177D01*
X89289392Y-63430318D02*
X88063966Y-62722818D01*
X86262634Y-61682818D02*
X85037208Y-60975318D01*
X89258134Y-63458459D02*
X88043966Y-62757459D01*
X86242634Y-61717459D02*
X85028466Y-61016459D01*
X89226010Y-63486100D02*
X88023966Y-62792100D01*
X86222634Y-61752100D02*
X85020590Y-61058100D01*
X89193885Y-63513741D02*
X88003966Y-62826741D01*
X86202634Y-61786741D02*
X85012715Y-61099741D01*
X89160029Y-63540382D02*
X87983966Y-62861382D01*
X86182634Y-61821382D02*
X85006571Y-61142382D01*
X89126173Y-63567023D02*
X87963966Y-62896023D01*
X86162634Y-61856023D02*
X85000427Y-61185023D01*
X89091450Y-63593164D02*
X87943966Y-62930664D01*
X86142634Y-61890664D02*
X84995150Y-61228164D01*
X89056728Y-63619305D02*
X87923966Y-62965305D01*
X86122634Y-61925305D02*
X84989872Y-61271305D01*
X89020273Y-63644446D02*
X87903966Y-62999946D01*
X86102634Y-61959946D02*
X84986327Y-61315446D01*
X88983819Y-63669587D02*
X87883966Y-63034587D01*
X86082634Y-61994587D02*
X84982781Y-61359587D01*
X88946498Y-63694228D02*
X87863966Y-63069228D01*
X86062634Y-62029228D02*
X84980102Y-61404228D01*
X88907446Y-63717869D02*
X87843966Y-63103869D01*
X86042634Y-62063869D02*
X84979154Y-61449869D01*
X88869259Y-63742010D02*
X87823966Y-63138510D01*
X86022634Y-62098510D02*
X84977341Y-61495010D01*
X88829340Y-63765151D02*
X87803966Y-63173151D01*
X86002634Y-62133151D02*
X84977260Y-61541151D01*
X88788556Y-63787792D02*
X87783966Y-63207792D01*
X85982634Y-62167792D02*
X84978044Y-61587792D01*
X88746905Y-63809933D02*
X87763966Y-63242433D01*
X85962634Y-62202433D02*
X84979695Y-61634933D01*
X88704389Y-63831574D02*
X87743966Y-63277074D01*
X85942634Y-62237074D02*
X84982211Y-61682574D01*
X88661006Y-63852715D02*
X87723966Y-63311715D01*
X85922634Y-62271715D02*
X84985594Y-61730715D01*
X88617623Y-63873856D02*
X87703966Y-63346356D01*
X85902634Y-62306356D02*
X84988977Y-61778856D01*
X88571642Y-63893497D02*
X87683966Y-63380997D01*
X85882634Y-62340997D02*
X84994958Y-61828497D01*
X88525662Y-63913138D02*
X87663966Y-63415638D01*
X85862634Y-62375638D02*
X85000938Y-61878138D01*
X88478815Y-63932279D02*
X87643966Y-63450279D01*
X85842634Y-62410279D02*
X85007785Y-61928279D01*
X88430236Y-63950420D02*
X87623966Y-63484920D01*
X85822634Y-62444920D02*
X85016364Y-61979420D01*
X88380791Y-63968061D02*
X87603966Y-63519561D01*
X85802634Y-62479561D02*
X85025809Y-62031061D01*
X88329614Y-63984702D02*
X87583966Y-63554202D01*
X85782634Y-62514202D02*
X85036986Y-62083702D01*
X88277571Y-64000844D02*
X87563966Y-63588844D01*
X85762634Y-62548844D02*
X85049029Y-62136844D01*
X88224662Y-64016485D02*
X87543966Y-63623485D01*
X85742634Y-62583485D02*
X85061938Y-62190485D01*
X88169155Y-64030626D02*
X87523966Y-63658126D01*
X85722634Y-62618126D02*
X85077445Y-62245626D01*
X88112782Y-64044267D02*
X87503966Y-63692767D01*
X85702634Y-62652767D02*
X85093818Y-62301267D01*
X88054677Y-64056908D02*
X87483966Y-63727408D01*
X85682634Y-62687408D02*
X85111923Y-62357908D01*
X87994840Y-64068549D02*
X87463966Y-63762049D01*
X85662634Y-62722049D02*
X85131760Y-62415549D01*
X87933271Y-64079190D02*
X87443966Y-63796690D01*
X85642634Y-62756690D02*
X85153329Y-62474190D01*
X87869103Y-64088331D02*
X87423966Y-63831331D01*
X85622634Y-62791331D02*
X85177497Y-62534331D01*
X87802338Y-64095972D02*
X87403966Y-63865972D01*
X85602634Y-62825972D02*
X85204262Y-62595972D01*
X87732975Y-64102113D02*
X87383966Y-63900613D01*
X85582634Y-62860613D02*
X85233625Y-62659113D01*
X87661013Y-64106754D02*
X87363966Y-63935254D01*
X85562634Y-62895254D02*
X85265587Y-62723754D01*
X87585588Y-64109395D02*
X87343966Y-63969895D01*
X85542634Y-62929895D02*
X85301012Y-62790395D01*
X87506698Y-64110036D02*
X87323966Y-64004536D01*
X85522634Y-62964536D02*
X85339902Y-62859036D01*
X87423478Y-64108177D02*
X85383122Y-62930177D01*
X87334196Y-64102818D02*
X85432404Y-63004818D01*
X87238852Y-64093959D02*
X85487748Y-63082959D01*
X87135713Y-64080600D02*
X85550887Y-63165600D01*
X87020450Y-64060241D02*
X85626150Y-63255241D01*
X86889599Y-64030882D02*
X85717001Y-63353882D01*
X86731901Y-63986023D02*
X85834699Y-63468023D01*
X86509251Y-63903664D02*
X86017349Y-63619664D01*
X90243575Y-59817625D02*
X89993575Y-60250638D01*
X90335081Y-60159132D02*
X89902069Y-59909132D01*
X86019057Y-39408820D02*
X83472943Y-40878820D01*
X83472943Y-40878820D02*
X86192943Y-45589998D01*
X86192943Y-45589998D02*
X88739057Y-44119998D01*
X88739057Y-44119998D02*
X86019057Y-39408820D01*
X84236000Y-39260474D02*
X84746000Y-40143820D01*
X87976000Y-45738344D02*
X87466000Y-44854998D01*
X86469057Y-40188243D02*
X83922943Y-41658243D01*
X86529057Y-40292166D02*
X83982943Y-41762166D01*
X86409057Y-40084320D02*
X83862943Y-41554320D01*
X46870000Y-65960000D02*
G75*
G03X46870000Y-65960000I-15120000J0D01*
G01*
X46831000Y-65960000D02*
X16669000Y-65960000D01*
X46830000Y-66000000D02*
X16670000Y-66000000D01*
X46830000Y-66040000D02*
X16670000Y-66040000D01*
X46830000Y-66080000D02*
X16670000Y-66080000D01*
X46830000Y-66120000D02*
X16670000Y-66120000D01*
X46829000Y-66160000D02*
X16671000Y-66160000D01*
X46829000Y-66200000D02*
X16671000Y-66200000D01*
X46828000Y-66240000D02*
X16672000Y-66240000D01*
X46827000Y-66280000D02*
X16673000Y-66280000D01*
X46826000Y-66320000D02*
X16674000Y-66320000D01*
X46825000Y-66360000D02*
X16675000Y-66360000D01*
X46824000Y-66400000D02*
X16676000Y-66400000D01*
X46823000Y-66440000D02*
X16677000Y-66440000D01*
X46822000Y-66480000D02*
X16678000Y-66480000D01*
X46820000Y-66520000D02*
X16680000Y-66520000D01*
X46819000Y-66560000D02*
X16681000Y-66560000D01*
X46817000Y-66600000D02*
X16683000Y-66600000D01*
X46815000Y-66640000D02*
X16685000Y-66640000D01*
X46813000Y-66681000D02*
X16687000Y-66681000D01*
X46811000Y-66721000D02*
X16689000Y-66721000D01*
X46809000Y-66761000D02*
X16691000Y-66761000D01*
X46807000Y-66801000D02*
X16693000Y-66801000D01*
X46805000Y-66841000D02*
X16695000Y-66841000D01*
X46802000Y-66881000D02*
X16698000Y-66881000D01*
X46800000Y-66921000D02*
X16700000Y-66921000D01*
X46797000Y-66961000D02*
X16703000Y-66961000D01*
X46795000Y-67001000D02*
X16705000Y-67001000D01*
X46792000Y-67041000D02*
X16708000Y-67041000D01*
X46789000Y-67081000D02*
X16711000Y-67081000D01*
X46786000Y-67121000D02*
X16714000Y-67121000D01*
X46783000Y-67161000D02*
X16717000Y-67161000D01*
X46780000Y-67201000D02*
X16720000Y-67201000D01*
X46776000Y-67241000D02*
X16724000Y-67241000D01*
X46773000Y-67281000D02*
X16727000Y-67281000D01*
X46769000Y-67321000D02*
X16731000Y-67321000D01*
X46766000Y-67361000D02*
X16734000Y-67361000D01*
X46762000Y-67401000D02*
X16738000Y-67401000D01*
X46758000Y-67441000D02*
X16742000Y-67441000D01*
X46754000Y-67481000D02*
X16746000Y-67481000D01*
X46750000Y-67521000D02*
X16750000Y-67521000D01*
X46746000Y-67561000D02*
X16754000Y-67561000D01*
X46741000Y-67601000D02*
X16759000Y-67601000D01*
X46737000Y-67641000D02*
X16763000Y-67641000D01*
X46732000Y-67681000D02*
X16768000Y-67681000D01*
X46728000Y-67721000D02*
X16772000Y-67721000D01*
X46723000Y-67761000D02*
X16777000Y-67761000D01*
X46718000Y-67801000D02*
X16782000Y-67801000D01*
X46713000Y-67841000D02*
X16787000Y-67841000D01*
X46708000Y-67881000D02*
X16792000Y-67881000D01*
X46703000Y-67921000D02*
X16797000Y-67921000D01*
X46698000Y-67961000D02*
X16802000Y-67961000D01*
X46692000Y-68001000D02*
X16808000Y-68001000D01*
X46687000Y-68041000D02*
X16813000Y-68041000D01*
X46681000Y-68081000D02*
X16819000Y-68081000D01*
X46675000Y-68121000D02*
X16825000Y-68121000D01*
X46670000Y-68161000D02*
X16830000Y-68161000D01*
X46664000Y-68201000D02*
X16836000Y-68201000D01*
X46658000Y-68241000D02*
X16842000Y-68241000D01*
X46651000Y-68281000D02*
X16849000Y-68281000D01*
X46645000Y-68321000D02*
X16855000Y-68321000D01*
X46639000Y-68361000D02*
X16861000Y-68361000D01*
X46632000Y-68401000D02*
X16868000Y-68401000D01*
X46626000Y-68441000D02*
X16874000Y-68441000D01*
X46619000Y-68481000D02*
X16881000Y-68481000D01*
X46612000Y-68521000D02*
X16888000Y-68521000D01*
X46605000Y-68561000D02*
X16895000Y-68561000D01*
X46598000Y-68601000D02*
X16902000Y-68601000D01*
X46591000Y-68641000D02*
X16909000Y-68641000D01*
X46584000Y-68681000D02*
X16916000Y-68681000D01*
X46576000Y-68721000D02*
X33990000Y-68721000D01*
X29510000Y-68721000D02*
X16924000Y-68721000D01*
X46569000Y-68761000D02*
X33990000Y-68761000D01*
X29510000Y-68761000D02*
X16931000Y-68761000D01*
X46561000Y-68801000D02*
X33990000Y-68801000D01*
X29510000Y-68801000D02*
X16939000Y-68801000D01*
X46554000Y-68841000D02*
X33990000Y-68841000D01*
X29510000Y-68841000D02*
X16946000Y-68841000D01*
X46546000Y-68881000D02*
X33990000Y-68881000D01*
X29510000Y-68881000D02*
X16954000Y-68881000D01*
X46538000Y-68921000D02*
X33990000Y-68921000D01*
X29510000Y-68921000D02*
X16962000Y-68921000D01*
X46530000Y-68961000D02*
X33990000Y-68961000D01*
X29510000Y-68961000D02*
X16970000Y-68961000D01*
X46522000Y-69001000D02*
X33990000Y-69001000D01*
X29510000Y-69001000D02*
X16978000Y-69001000D01*
X46513000Y-69041000D02*
X33990000Y-69041000D01*
X29510000Y-69041000D02*
X16987000Y-69041000D01*
X46505000Y-69081000D02*
X33990000Y-69081000D01*
X29510000Y-69081000D02*
X16995000Y-69081000D01*
X46497000Y-69121000D02*
X33990000Y-69121000D01*
X29510000Y-69121000D02*
X17003000Y-69121000D01*
X46488000Y-69161000D02*
X33990000Y-69161000D01*
X29510000Y-69161000D02*
X17012000Y-69161000D01*
X46479000Y-69201000D02*
X33990000Y-69201000D01*
X29510000Y-69201000D02*
X17021000Y-69201000D01*
X46470000Y-69241000D02*
X33990000Y-69241000D01*
X29510000Y-69241000D02*
X17030000Y-69241000D01*
X46461000Y-69281000D02*
X33990000Y-69281000D01*
X29510000Y-69281000D02*
X17039000Y-69281000D01*
X46452000Y-69321000D02*
X33990000Y-69321000D01*
X29510000Y-69321000D02*
X17048000Y-69321000D01*
X46443000Y-69361000D02*
X33990000Y-69361000D01*
X29510000Y-69361000D02*
X17057000Y-69361000D01*
X46434000Y-69401000D02*
X33990000Y-69401000D01*
X29510000Y-69401000D02*
X17066000Y-69401000D01*
X46425000Y-69441000D02*
X33990000Y-69441000D01*
X29510000Y-69441000D02*
X17075000Y-69441000D01*
X46415000Y-69481000D02*
X33990000Y-69481000D01*
X29510000Y-69481000D02*
X17085000Y-69481000D01*
X46405000Y-69521000D02*
X33990000Y-69521000D01*
X29510000Y-69521000D02*
X17095000Y-69521000D01*
X46396000Y-69561000D02*
X33990000Y-69561000D01*
X29510000Y-69561000D02*
X17104000Y-69561000D01*
X46386000Y-69601000D02*
X33990000Y-69601000D01*
X29510000Y-69601000D02*
X17114000Y-69601000D01*
X46376000Y-69641000D02*
X33990000Y-69641000D01*
X29510000Y-69641000D02*
X17124000Y-69641000D01*
X46366000Y-69681000D02*
X33990000Y-69681000D01*
X29510000Y-69681000D02*
X17134000Y-69681000D01*
X46356000Y-69721000D02*
X33990000Y-69721000D01*
X29510000Y-69721000D02*
X17144000Y-69721000D01*
X46345000Y-69761000D02*
X33990000Y-69761000D01*
X29510000Y-69761000D02*
X17155000Y-69761000D01*
X46335000Y-69801000D02*
X33990000Y-69801000D01*
X29510000Y-69801000D02*
X17165000Y-69801000D01*
X46324000Y-69841000D02*
X33990000Y-69841000D01*
X29510000Y-69841000D02*
X17176000Y-69841000D01*
X46314000Y-69881000D02*
X33990000Y-69881000D01*
X29510000Y-69881000D02*
X17186000Y-69881000D01*
X46303000Y-69921000D02*
X33990000Y-69921000D01*
X29510000Y-69921000D02*
X17197000Y-69921000D01*
X46292000Y-69961000D02*
X33990000Y-69961000D01*
X29510000Y-69961000D02*
X17208000Y-69961000D01*
X46281000Y-70001000D02*
X33990000Y-70001000D01*
X29510000Y-70001000D02*
X17219000Y-70001000D01*
X46270000Y-70041000D02*
X33990000Y-70041000D01*
X29510000Y-70041000D02*
X17230000Y-70041000D01*
X46258000Y-70081000D02*
X33990000Y-70081000D01*
X29510000Y-70081000D02*
X17242000Y-70081000D01*
X46247000Y-70121000D02*
X33990000Y-70121000D01*
X29510000Y-70121000D02*
X17253000Y-70121000D01*
X46235000Y-70161000D02*
X33990000Y-70161000D01*
X29510000Y-70161000D02*
X17265000Y-70161000D01*
X46224000Y-70201000D02*
X33990000Y-70201000D01*
X29510000Y-70201000D02*
X17276000Y-70201000D01*
X46212000Y-70241000D02*
X33990000Y-70241000D01*
X29510000Y-70241000D02*
X17288000Y-70241000D01*
X46200000Y-70281000D02*
X33990000Y-70281000D01*
X29510000Y-70281000D02*
X17300000Y-70281000D01*
X46188000Y-70321000D02*
X33990000Y-70321000D01*
X29510000Y-70321000D02*
X17312000Y-70321000D01*
X46176000Y-70361000D02*
X33990000Y-70361000D01*
X29510000Y-70361000D02*
X17324000Y-70361000D01*
X46164000Y-70401000D02*
X33990000Y-70401000D01*
X29510000Y-70401000D02*
X17336000Y-70401000D01*
X46152000Y-70441000D02*
X33990000Y-70441000D01*
X29510000Y-70441000D02*
X17348000Y-70441000D01*
X46139000Y-70481000D02*
X33990000Y-70481000D01*
X29510000Y-70481000D02*
X17361000Y-70481000D01*
X46126000Y-70521000D02*
X33990000Y-70521000D01*
X29510000Y-70521000D02*
X17374000Y-70521000D01*
X46114000Y-70561000D02*
X33990000Y-70561000D01*
X29510000Y-70561000D02*
X17386000Y-70561000D01*
X46101000Y-70601000D02*
X33990000Y-70601000D01*
X29510000Y-70601000D02*
X17399000Y-70601000D01*
X46088000Y-70641000D02*
X33990000Y-70641000D01*
X29510000Y-70641000D02*
X17412000Y-70641000D01*
X46075000Y-70681000D02*
X33990000Y-70681000D01*
X29510000Y-70681000D02*
X17425000Y-70681000D01*
X46062000Y-70721000D02*
X33990000Y-70721000D01*
X29510000Y-70721000D02*
X17438000Y-70721000D01*
X46048000Y-70761000D02*
X33990000Y-70761000D01*
X29510000Y-70761000D02*
X17452000Y-70761000D01*
X46035000Y-70801000D02*
X33990000Y-70801000D01*
X29510000Y-70801000D02*
X17465000Y-70801000D01*
X46021000Y-70841000D02*
X33990000Y-70841000D01*
X29510000Y-70841000D02*
X17479000Y-70841000D01*
X46008000Y-70881000D02*
X33990000Y-70881000D01*
X29510000Y-70881000D02*
X17492000Y-70881000D01*
X45994000Y-70921000D02*
X33990000Y-70921000D01*
X29510000Y-70921000D02*
X17506000Y-70921000D01*
X45980000Y-70961000D02*
X33990000Y-70961000D01*
X29510000Y-70961000D02*
X17520000Y-70961000D01*
X45966000Y-71001000D02*
X33990000Y-71001000D01*
X29510000Y-71001000D02*
X17534000Y-71001000D01*
X45952000Y-71041000D02*
X33990000Y-71041000D01*
X29510000Y-71041000D02*
X17548000Y-71041000D01*
X45937000Y-71081000D02*
X33990000Y-71081000D01*
X29510000Y-71081000D02*
X17563000Y-71081000D01*
X45923000Y-71121000D02*
X33990000Y-71121000D01*
X29510000Y-71121000D02*
X17577000Y-71121000D01*
X45908000Y-71161000D02*
X33990000Y-71161000D01*
X29510000Y-71161000D02*
X17592000Y-71161000D01*
X45893000Y-71201000D02*
X33990000Y-71201000D01*
X29510000Y-71201000D02*
X17607000Y-71201000D01*
X45879000Y-71241000D02*
X33990000Y-71241000D01*
X29510000Y-71241000D02*
X17621000Y-71241000D01*
X45864000Y-71281000D02*
X33990000Y-71281000D01*
X29510000Y-71281000D02*
X17636000Y-71281000D01*
X45849000Y-71321000D02*
X33990000Y-71321000D01*
X29510000Y-71321000D02*
X17651000Y-71321000D01*
X45833000Y-71361000D02*
X33990000Y-71361000D01*
X29510000Y-71361000D02*
X17667000Y-71361000D01*
X45818000Y-71401000D02*
X33990000Y-71401000D01*
X29510000Y-71401000D02*
X17682000Y-71401000D01*
X45802000Y-71441000D02*
X33990000Y-71441000D01*
X29510000Y-71441000D02*
X17698000Y-71441000D01*
X45787000Y-71481000D02*
X33990000Y-71481000D01*
X29510000Y-71481000D02*
X17713000Y-71481000D01*
X45771000Y-71521000D02*
X33990000Y-71521000D01*
X29510000Y-71521000D02*
X17729000Y-71521000D01*
X45755000Y-71561000D02*
X33990000Y-71561000D01*
X29510000Y-71561000D02*
X17745000Y-71561000D01*
X45739000Y-71601000D02*
X33990000Y-71601000D01*
X29510000Y-71601000D02*
X17761000Y-71601000D01*
X45723000Y-71641000D02*
X33990000Y-71641000D01*
X29510000Y-71641000D02*
X17777000Y-71641000D01*
X45707000Y-71681000D02*
X33990000Y-71681000D01*
X29510000Y-71681000D02*
X17793000Y-71681000D01*
X45690000Y-71721000D02*
X33990000Y-71721000D01*
X29510000Y-71721000D02*
X17810000Y-71721000D01*
X45674000Y-71761000D02*
X33990000Y-71761000D01*
X29510000Y-71761000D02*
X17826000Y-71761000D01*
X45657000Y-71801000D02*
X33990000Y-71801000D01*
X29510000Y-71801000D02*
X17843000Y-71801000D01*
X45640000Y-71841000D02*
X33990000Y-71841000D01*
X29510000Y-71841000D02*
X17860000Y-71841000D01*
X45623000Y-71881000D02*
X33990000Y-71881000D01*
X29510000Y-71881000D02*
X17877000Y-71881000D01*
X45606000Y-71921000D02*
X33990000Y-71921000D01*
X29510000Y-71921000D02*
X17894000Y-71921000D01*
X45589000Y-71961000D02*
X33990000Y-71961000D01*
X29510000Y-71961000D02*
X17911000Y-71961000D01*
X45572000Y-72001000D02*
X33990000Y-72001000D01*
X29510000Y-72001000D02*
X17928000Y-72001000D01*
X45554000Y-72041000D02*
X33990000Y-72041000D01*
X29510000Y-72041000D02*
X17946000Y-72041000D01*
X45537000Y-72081000D02*
X33990000Y-72081000D01*
X29510000Y-72081000D02*
X17963000Y-72081000D01*
X45519000Y-72121000D02*
X33990000Y-72121000D01*
X29510000Y-72121000D02*
X17981000Y-72121000D01*
X45501000Y-72161000D02*
X33990000Y-72161000D01*
X29510000Y-72161000D02*
X17999000Y-72161000D01*
X45483000Y-72201000D02*
X33990000Y-72201000D01*
X29510000Y-72201000D02*
X18017000Y-72201000D01*
X45465000Y-72241000D02*
X33990000Y-72241000D01*
X29510000Y-72241000D02*
X18035000Y-72241000D01*
X45446000Y-72281000D02*
X33990000Y-72281000D01*
X29510000Y-72281000D02*
X18054000Y-72281000D01*
X45428000Y-72321000D02*
X33990000Y-72321000D01*
X29510000Y-72321000D02*
X18072000Y-72321000D01*
X45409000Y-72361000D02*
X33990000Y-72361000D01*
X29510000Y-72361000D02*
X18091000Y-72361000D01*
X45390000Y-72401000D02*
X33990000Y-72401000D01*
X29510000Y-72401000D02*
X18110000Y-72401000D01*
X45372000Y-72441000D02*
X33990000Y-72441000D01*
X29510000Y-72441000D02*
X18128000Y-72441000D01*
X45352000Y-72481000D02*
X33990000Y-72481000D01*
X29510000Y-72481000D02*
X18148000Y-72481000D01*
X45333000Y-72521000D02*
X33990000Y-72521000D01*
X29510000Y-72521000D02*
X18167000Y-72521000D01*
X45314000Y-72561000D02*
X33990000Y-72561000D01*
X29510000Y-72561000D02*
X18186000Y-72561000D01*
X45294000Y-72601000D02*
X33990000Y-72601000D01*
X29510000Y-72601000D02*
X18206000Y-72601000D01*
X45275000Y-72641000D02*
X33990000Y-72641000D01*
X29510000Y-72641000D02*
X18225000Y-72641000D01*
X45255000Y-72681000D02*
X33990000Y-72681000D01*
X29510000Y-72681000D02*
X18245000Y-72681000D01*
X45235000Y-72721000D02*
X33990000Y-72721000D01*
X29510000Y-72721000D02*
X18265000Y-72721000D01*
X45215000Y-72761000D02*
X33990000Y-72761000D01*
X29510000Y-72761000D02*
X18285000Y-72761000D01*
X45195000Y-72801000D02*
X33990000Y-72801000D01*
X29510000Y-72801000D02*
X18305000Y-72801000D01*
X45175000Y-72841000D02*
X33990000Y-72841000D01*
X29510000Y-72841000D02*
X18325000Y-72841000D01*
X45154000Y-72881000D02*
X33990000Y-72881000D01*
X29510000Y-72881000D02*
X18346000Y-72881000D01*
X45133000Y-72921000D02*
X33990000Y-72921000D01*
X29510000Y-72921000D02*
X18367000Y-72921000D01*
X45113000Y-72961000D02*
X33990000Y-72961000D01*
X29510000Y-72961000D02*
X18387000Y-72961000D01*
X45092000Y-73001000D02*
X33990000Y-73001000D01*
X29510000Y-73001000D02*
X18408000Y-73001000D01*
X45070000Y-73041000D02*
X33990000Y-73041000D01*
X29510000Y-73041000D02*
X18430000Y-73041000D01*
X45049000Y-73081000D02*
X33990000Y-73081000D01*
X29510000Y-73081000D02*
X18451000Y-73081000D01*
X45028000Y-73121000D02*
X33990000Y-73121000D01*
X29510000Y-73121000D02*
X18472000Y-73121000D01*
X45006000Y-73161000D02*
X33990000Y-73161000D01*
X29510000Y-73161000D02*
X18494000Y-73161000D01*
X44984000Y-73201000D02*
X18516000Y-73201000D01*
X44963000Y-73241000D02*
X18537000Y-73241000D01*
X44940000Y-73281000D02*
X18560000Y-73281000D01*
X44918000Y-73321000D02*
X18582000Y-73321000D01*
X44896000Y-73361000D02*
X18604000Y-73361000D01*
X44873000Y-73401000D02*
X18627000Y-73401000D01*
X44851000Y-73441000D02*
X18649000Y-73441000D01*
X44828000Y-73481000D02*
X18672000Y-73481000D01*
X44805000Y-73521000D02*
X18695000Y-73521000D01*
X44782000Y-73561000D02*
X18718000Y-73561000D01*
X44758000Y-73601000D02*
X18742000Y-73601000D01*
X44735000Y-73641000D02*
X18765000Y-73641000D01*
X44711000Y-73681000D02*
X18789000Y-73681000D01*
X44687000Y-73721000D02*
X18813000Y-73721000D01*
X44663000Y-73761000D02*
X18837000Y-73761000D01*
X44639000Y-73801000D02*
X18861000Y-73801000D01*
X44615000Y-73841000D02*
X18885000Y-73841000D01*
X44590000Y-73881000D02*
X18910000Y-73881000D01*
X44566000Y-73921000D02*
X18934000Y-73921000D01*
X44541000Y-73961000D02*
X18959000Y-73961000D01*
X44516000Y-74001000D02*
X18984000Y-74001000D01*
X44490000Y-74041000D02*
X19010000Y-74041000D01*
X44465000Y-74081000D02*
X19035000Y-74081000D01*
X44440000Y-74121000D02*
X19060000Y-74121000D01*
X44414000Y-74160000D02*
X19086000Y-74160000D01*
X44388000Y-74200000D02*
X19112000Y-74200000D01*
X44362000Y-74240000D02*
X19138000Y-74240000D01*
X44336000Y-74280000D02*
X19164000Y-74280000D01*
X44309000Y-74320000D02*
X19191000Y-74320000D01*
X44282000Y-74360000D02*
X19218000Y-74360000D01*
X44256000Y-74400000D02*
X19244000Y-74400000D01*
X44229000Y-74440000D02*
X19271000Y-74440000D01*
X44201000Y-74480000D02*
X19299000Y-74480000D01*
X44174000Y-74520000D02*
X19326000Y-74520000D01*
X44147000Y-74560000D02*
X19353000Y-74560000D01*
X44119000Y-74600000D02*
X19381000Y-74600000D01*
X44091000Y-74640000D02*
X19409000Y-74640000D01*
X44063000Y-74680000D02*
X19437000Y-74680000D01*
X44034000Y-74720000D02*
X19466000Y-74720000D01*
X44006000Y-74760000D02*
X19494000Y-74760000D01*
X43977000Y-74800000D02*
X19523000Y-74800000D01*
X43948000Y-74840000D02*
X19552000Y-74840000D01*
X43919000Y-74880000D02*
X19581000Y-74880000D01*
X43890000Y-74920000D02*
X19610000Y-74920000D01*
X43860000Y-74960000D02*
X19640000Y-74960000D01*
X43830000Y-75000000D02*
X19670000Y-75000000D01*
X43800000Y-75040000D02*
X19700000Y-75040000D01*
X43770000Y-75080000D02*
X19730000Y-75080000D01*
X43740000Y-75120000D02*
X19760000Y-75120000D01*
X43709000Y-75160000D02*
X19791000Y-75160000D01*
X43679000Y-75200000D02*
X19821000Y-75200000D01*
X43648000Y-75240000D02*
X19852000Y-75240000D01*
X43616000Y-75280000D02*
X19884000Y-75280000D01*
X43585000Y-75320000D02*
X19915000Y-75320000D01*
X43553000Y-75360000D02*
X19947000Y-75360000D01*
X43522000Y-75400000D02*
X19978000Y-75400000D01*
X43489000Y-75440000D02*
X20011000Y-75440000D01*
X43457000Y-75480000D02*
X20043000Y-75480000D01*
X43425000Y-75520000D02*
X20075000Y-75520000D01*
X43392000Y-75560000D02*
X20108000Y-75560000D01*
X43359000Y-75600000D02*
X20141000Y-75600000D01*
X43326000Y-75640000D02*
X20174000Y-75640000D01*
X43292000Y-75680000D02*
X20208000Y-75680000D01*
X43259000Y-75720000D02*
X20241000Y-75720000D01*
X43225000Y-75760000D02*
X20275000Y-75760000D01*
X43190000Y-75800000D02*
X20310000Y-75800000D01*
X43156000Y-75840000D02*
X20344000Y-75840000D01*
X43121000Y-75880000D02*
X20379000Y-75880000D01*
X43086000Y-75920000D02*
X20414000Y-75920000D01*
X43051000Y-75960000D02*
X20449000Y-75960000D01*
X43016000Y-76000000D02*
X20484000Y-76000000D01*
X42980000Y-76040000D02*
X20520000Y-76040000D01*
X42944000Y-76080000D02*
X20556000Y-76080000D01*
X42908000Y-76120000D02*
X20592000Y-76120000D01*
X42872000Y-76160000D02*
X20628000Y-76160000D01*
X42835000Y-76200000D02*
X20665000Y-76200000D01*
X42798000Y-76240000D02*
X20702000Y-76240000D01*
X42761000Y-76280000D02*
X20739000Y-76280000D01*
X42723000Y-76320000D02*
X20777000Y-76320000D01*
X42686000Y-76360000D02*
X20814000Y-76360000D01*
X42648000Y-76400000D02*
X20852000Y-76400000D01*
X42609000Y-76440000D02*
X20891000Y-76440000D01*
X42571000Y-76480000D02*
X20929000Y-76480000D01*
X42532000Y-76520000D02*
X20968000Y-76520000D01*
X42493000Y-76560000D02*
X21007000Y-76560000D01*
X42453000Y-76600000D02*
X21047000Y-76600000D01*
X42413000Y-76640000D02*
X21087000Y-76640000D01*
X42373000Y-76680000D02*
X21127000Y-76680000D01*
X42333000Y-76720000D02*
X21167000Y-76720000D01*
X42292000Y-76760000D02*
X21208000Y-76760000D01*
X42251000Y-76800000D02*
X21249000Y-76800000D01*
X42210000Y-76840000D02*
X21290000Y-76840000D01*
X42168000Y-76880000D02*
X21332000Y-76880000D01*
X42126000Y-76920000D02*
X21374000Y-76920000D01*
X42084000Y-76960000D02*
X21416000Y-76960000D01*
X42042000Y-77000000D02*
X21458000Y-77000000D01*
X41999000Y-77040000D02*
X21501000Y-77040000D01*
X41955000Y-77080000D02*
X21545000Y-77080000D01*
X41912000Y-77120000D02*
X21588000Y-77120000D01*
X41868000Y-77160000D02*
X21632000Y-77160000D01*
X41824000Y-77200000D02*
X21676000Y-77200000D01*
X41779000Y-77240000D02*
X21721000Y-77240000D01*
X41734000Y-77280000D02*
X21766000Y-77280000D01*
X41689000Y-77320000D02*
X21811000Y-77320000D01*
X41643000Y-77360000D02*
X21857000Y-77360000D01*
X41597000Y-77400000D02*
X21903000Y-77400000D01*
X41550000Y-77440000D02*
X21950000Y-77440000D01*
X41504000Y-77480000D02*
X21996000Y-77480000D01*
X41456000Y-77520000D02*
X22044000Y-77520000D01*
X41409000Y-77560000D02*
X22091000Y-77560000D01*
X41361000Y-77600000D02*
X22139000Y-77600000D01*
X41312000Y-77640000D02*
X22188000Y-77640000D01*
X41263000Y-77680000D02*
X22237000Y-77680000D01*
X41214000Y-77720000D02*
X22286000Y-77720000D01*
X41164000Y-77760000D02*
X22336000Y-77760000D01*
X41114000Y-77800000D02*
X22386000Y-77800000D01*
X41064000Y-77840000D02*
X22436000Y-77840000D01*
X41013000Y-77880000D02*
X22487000Y-77880000D01*
X40961000Y-77920000D02*
X22539000Y-77920000D01*
X40909000Y-77960000D02*
X22591000Y-77960000D01*
X40857000Y-78000000D02*
X22643000Y-78000000D01*
X40804000Y-78040000D02*
X22696000Y-78040000D01*
X40750000Y-78080000D02*
X22750000Y-78080000D01*
X40697000Y-78120000D02*
X22803000Y-78120000D01*
X40642000Y-78160000D02*
X22858000Y-78160000D01*
X40587000Y-78200000D02*
X22913000Y-78200000D01*
X40532000Y-78240000D02*
X22968000Y-78240000D01*
X40476000Y-78280000D02*
X23024000Y-78280000D01*
X40419000Y-78320000D02*
X23081000Y-78320000D01*
X40362000Y-78360000D02*
X23138000Y-78360000D01*
X40305000Y-78400000D02*
X23195000Y-78400000D01*
X40247000Y-78440000D02*
X23253000Y-78440000D01*
X40188000Y-78480000D02*
X23312000Y-78480000D01*
X40128000Y-78520000D02*
X23372000Y-78520000D01*
X40068000Y-78560000D02*
X23432000Y-78560000D01*
X40008000Y-78600000D02*
X23492000Y-78600000D01*
X39947000Y-78640000D02*
X23553000Y-78640000D01*
X39885000Y-78680000D02*
X23615000Y-78680000D01*
X39822000Y-78720000D02*
X23678000Y-78720000D01*
X39759000Y-78760000D02*
X23741000Y-78760000D01*
X39695000Y-78800000D02*
X23805000Y-78800000D01*
X39630000Y-78840000D02*
X23870000Y-78840000D01*
X39565000Y-78880000D02*
X23935000Y-78880000D01*
X39498000Y-78920000D02*
X24002000Y-78920000D01*
X39432000Y-78960000D02*
X24068000Y-78960000D01*
X39364000Y-79000000D02*
X24136000Y-79000000D01*
X39295000Y-79040000D02*
X24205000Y-79040000D01*
X39226000Y-79080000D02*
X24274000Y-79080000D01*
X39156000Y-79120000D02*
X24344000Y-79120000D01*
X39084000Y-79160000D02*
X24416000Y-79160000D01*
X39012000Y-79200000D02*
X24488000Y-79200000D01*
X38939000Y-79240000D02*
X24561000Y-79240000D01*
X38865000Y-79280000D02*
X24635000Y-79280000D01*
X38790000Y-79320000D02*
X24710000Y-79320000D01*
X38714000Y-79360000D02*
X24786000Y-79360000D01*
X38637000Y-79400000D02*
X24863000Y-79400000D01*
X38559000Y-79440000D02*
X24941000Y-79440000D01*
X38480000Y-79480000D02*
X25020000Y-79480000D01*
X38399000Y-79520000D02*
X25101000Y-79520000D01*
X38318000Y-79560000D02*
X25182000Y-79560000D01*
X38235000Y-79600000D02*
X25265000Y-79600000D01*
X38150000Y-79640000D02*
X25350000Y-79640000D01*
X38065000Y-79680000D02*
X25435000Y-79680000D01*
X37978000Y-79720000D02*
X25522000Y-79720000D01*
X37889000Y-79760000D02*
X25611000Y-79760000D01*
X37799000Y-79800000D02*
X25701000Y-79800000D01*
X37707000Y-79840000D02*
X25793000Y-79840000D01*
X37614000Y-79880000D02*
X25886000Y-79880000D01*
X37518000Y-79920000D02*
X25982000Y-79920000D01*
X37421000Y-79960000D02*
X26079000Y-79960000D01*
X37322000Y-80000000D02*
X26178000Y-80000000D01*
X37221000Y-80040000D02*
X26279000Y-80040000D01*
X37118000Y-80080000D02*
X26382000Y-80080000D01*
X37012000Y-80120000D02*
X26488000Y-80120000D01*
X36904000Y-80160000D02*
X26596000Y-80160000D01*
X36793000Y-80200000D02*
X26707000Y-80200000D01*
X36680000Y-80240000D02*
X26820000Y-80240000D01*
X36564000Y-80280000D02*
X26936000Y-80280000D01*
X36444000Y-80320000D02*
X27056000Y-80320000D01*
X36321000Y-80360000D02*
X27179000Y-80360000D01*
X36194000Y-80400000D02*
X27306000Y-80400000D01*
X36063000Y-80440000D02*
X27437000Y-80440000D01*
X35928000Y-80480000D02*
X27572000Y-80480000D01*
X35787000Y-80520000D02*
X27713000Y-80520000D01*
X35642000Y-80560000D02*
X27858000Y-80560000D01*
X35490000Y-80600000D02*
X28010000Y-80600000D01*
X35332000Y-80640000D02*
X28168000Y-80640000D01*
X35165000Y-80680000D02*
X28335000Y-80680000D01*
X34990000Y-80720000D02*
X28510000Y-80720000D01*
X34805000Y-80760000D02*
X28695000Y-80760000D01*
X34607000Y-80800000D02*
X28893000Y-80800000D01*
X34394000Y-80840000D02*
X29106000Y-80840000D01*
X34162000Y-80880000D02*
X29338000Y-80880000D01*
X33904000Y-80920000D02*
X29596000Y-80920000D01*
X33612000Y-80960000D02*
X29888000Y-80960000D01*
X33264000Y-81000000D02*
X30236000Y-81000000D01*
X32810000Y-81040000D02*
X30690000Y-81040000D01*
X31790000Y-81080000D02*
X31710000Y-81080000D01*
X40225000Y-49780869D02*
X40225000Y-52780869D01*
X41725000Y-51280869D02*
X38725000Y-51280869D01*
X74491000Y-51280869D02*
X71491000Y-51280869D01*
X72991000Y-49780869D02*
X72991000Y-52780869D01*
X64556000Y-81080000D02*
X64476000Y-81080000D01*
X65576000Y-81040000D02*
X63456000Y-81040000D01*
X66030000Y-81000000D02*
X63002000Y-81000000D01*
X66378000Y-80960000D02*
X62654000Y-80960000D01*
X66670000Y-80920000D02*
X62362000Y-80920000D01*
X66928000Y-80880000D02*
X62104000Y-80880000D01*
X67160000Y-80840000D02*
X61872000Y-80840000D01*
X67373000Y-80800000D02*
X61659000Y-80800000D01*
X67571000Y-80760000D02*
X61461000Y-80760000D01*
X67756000Y-80720000D02*
X61276000Y-80720000D01*
X67931000Y-80680000D02*
X61101000Y-80680000D01*
X68098000Y-80640000D02*
X60934000Y-80640000D01*
X68256000Y-80600000D02*
X60776000Y-80600000D01*
X68408000Y-80560000D02*
X60624000Y-80560000D01*
X68553000Y-80520000D02*
X60479000Y-80520000D01*
X68694000Y-80480000D02*
X60338000Y-80480000D01*
X68829000Y-80440000D02*
X60203000Y-80440000D01*
X68960000Y-80400000D02*
X60072000Y-80400000D01*
X69087000Y-80360000D02*
X59945000Y-80360000D01*
X69210000Y-80320000D02*
X59822000Y-80320000D01*
X69330000Y-80280000D02*
X59702000Y-80280000D01*
X69446000Y-80240000D02*
X59586000Y-80240000D01*
X69559000Y-80200000D02*
X59473000Y-80200000D01*
X69670000Y-80160000D02*
X59362000Y-80160000D01*
X69778000Y-80120000D02*
X59254000Y-80120000D01*
X69884000Y-80080000D02*
X59148000Y-80080000D01*
X69987000Y-80040000D02*
X59045000Y-80040000D01*
X70088000Y-80000000D02*
X58944000Y-80000000D01*
X70187000Y-79960000D02*
X58845000Y-79960000D01*
X70284000Y-79920000D02*
X58748000Y-79920000D01*
X70380000Y-79880000D02*
X58652000Y-79880000D01*
X70473000Y-79840000D02*
X58559000Y-79840000D01*
X70565000Y-79800000D02*
X58467000Y-79800000D01*
X70655000Y-79760000D02*
X58377000Y-79760000D01*
X70744000Y-79720000D02*
X58288000Y-79720000D01*
X70831000Y-79680000D02*
X58201000Y-79680000D01*
X70916000Y-79640000D02*
X58116000Y-79640000D01*
X71001000Y-79600000D02*
X58031000Y-79600000D01*
X71084000Y-79560000D02*
X57948000Y-79560000D01*
X71165000Y-79520000D02*
X57867000Y-79520000D01*
X71246000Y-79480000D02*
X57786000Y-79480000D01*
X71325000Y-79440000D02*
X57707000Y-79440000D01*
X71403000Y-79400000D02*
X57629000Y-79400000D01*
X71480000Y-79360000D02*
X57552000Y-79360000D01*
X71556000Y-79320000D02*
X57476000Y-79320000D01*
X71631000Y-79280000D02*
X57401000Y-79280000D01*
X71705000Y-79240000D02*
X57327000Y-79240000D01*
X71778000Y-79200000D02*
X57254000Y-79200000D01*
X71850000Y-79160000D02*
X57182000Y-79160000D01*
X71922000Y-79120000D02*
X57110000Y-79120000D01*
X71992000Y-79080000D02*
X57040000Y-79080000D01*
X72061000Y-79040000D02*
X56971000Y-79040000D01*
X72130000Y-79000000D02*
X56902000Y-79000000D01*
X72198000Y-78960000D02*
X56834000Y-78960000D01*
X72264000Y-78920000D02*
X56768000Y-78920000D01*
X72331000Y-78880000D02*
X56701000Y-78880000D01*
X72396000Y-78840000D02*
X56636000Y-78840000D01*
X72461000Y-78800000D02*
X56571000Y-78800000D01*
X72525000Y-78760000D02*
X56507000Y-78760000D01*
X72588000Y-78720000D02*
X56444000Y-78720000D01*
X72651000Y-78680000D02*
X56381000Y-78680000D01*
X72713000Y-78640000D02*
X56319000Y-78640000D01*
X72774000Y-78600000D02*
X56258000Y-78600000D01*
X72834000Y-78560000D02*
X56198000Y-78560000D01*
X72894000Y-78520000D02*
X56138000Y-78520000D01*
X72954000Y-78480000D02*
X56078000Y-78480000D01*
X73013000Y-78440000D02*
X56019000Y-78440000D01*
X73071000Y-78400000D02*
X55961000Y-78400000D01*
X73128000Y-78360000D02*
X55904000Y-78360000D01*
X73185000Y-78320000D02*
X55847000Y-78320000D01*
X73242000Y-78280000D02*
X55790000Y-78280000D01*
X73298000Y-78240000D02*
X55734000Y-78240000D01*
X73353000Y-78200000D02*
X55679000Y-78200000D01*
X73408000Y-78160000D02*
X55624000Y-78160000D01*
X73463000Y-78120000D02*
X55569000Y-78120000D01*
X73516000Y-78080000D02*
X55516000Y-78080000D01*
X73570000Y-78040000D02*
X55462000Y-78040000D01*
X73623000Y-78000000D02*
X55409000Y-78000000D01*
X73675000Y-77960000D02*
X55357000Y-77960000D01*
X73727000Y-77920000D02*
X55305000Y-77920000D01*
X73779000Y-77880000D02*
X55253000Y-77880000D01*
X73830000Y-77840000D02*
X55202000Y-77840000D01*
X73880000Y-77800000D02*
X55152000Y-77800000D01*
X73930000Y-77760000D02*
X55102000Y-77760000D01*
X73980000Y-77720000D02*
X55052000Y-77720000D01*
X74029000Y-77680000D02*
X55003000Y-77680000D01*
X74078000Y-77640000D02*
X54954000Y-77640000D01*
X74127000Y-77600000D02*
X54905000Y-77600000D01*
X74175000Y-77560000D02*
X54857000Y-77560000D01*
X74222000Y-77520000D02*
X54810000Y-77520000D01*
X74270000Y-77480000D02*
X54762000Y-77480000D01*
X74316000Y-77440000D02*
X54716000Y-77440000D01*
X74363000Y-77400000D02*
X54669000Y-77400000D01*
X74409000Y-77360000D02*
X54623000Y-77360000D01*
X74455000Y-77320000D02*
X54577000Y-77320000D01*
X74500000Y-77280000D02*
X54532000Y-77280000D01*
X74545000Y-77240000D02*
X54487000Y-77240000D01*
X74590000Y-77200000D02*
X54442000Y-77200000D01*
X74634000Y-77160000D02*
X54398000Y-77160000D01*
X74678000Y-77120000D02*
X54354000Y-77120000D01*
X74721000Y-77080000D02*
X54311000Y-77080000D01*
X74765000Y-77040000D02*
X54267000Y-77040000D01*
X74808000Y-77000000D02*
X54224000Y-77000000D01*
X74850000Y-76960000D02*
X54182000Y-76960000D01*
X74892000Y-76920000D02*
X54140000Y-76920000D01*
X74934000Y-76880000D02*
X54098000Y-76880000D01*
X74976000Y-76840000D02*
X54056000Y-76840000D01*
X75017000Y-76800000D02*
X54015000Y-76800000D01*
X75058000Y-76760000D02*
X53974000Y-76760000D01*
X75099000Y-76720000D02*
X53933000Y-76720000D01*
X75139000Y-76680000D02*
X53893000Y-76680000D01*
X75179000Y-76640000D02*
X53853000Y-76640000D01*
X75219000Y-76600000D02*
X53813000Y-76600000D01*
X75259000Y-76560000D02*
X53773000Y-76560000D01*
X75298000Y-76520000D02*
X53734000Y-76520000D01*
X75337000Y-76480000D02*
X53695000Y-76480000D01*
X75375000Y-76440000D02*
X53657000Y-76440000D01*
X75414000Y-76400000D02*
X53618000Y-76400000D01*
X75452000Y-76360000D02*
X53580000Y-76360000D01*
X75489000Y-76320000D02*
X53543000Y-76320000D01*
X75527000Y-76280000D02*
X53505000Y-76280000D01*
X75564000Y-76240000D02*
X53468000Y-76240000D01*
X75601000Y-76200000D02*
X53431000Y-76200000D01*
X75638000Y-76160000D02*
X53394000Y-76160000D01*
X75674000Y-76120000D02*
X53358000Y-76120000D01*
X75710000Y-76080000D02*
X53322000Y-76080000D01*
X75746000Y-76040000D02*
X53286000Y-76040000D01*
X75782000Y-76000000D02*
X53250000Y-76000000D01*
X75817000Y-75960000D02*
X53215000Y-75960000D01*
X75852000Y-75920000D02*
X53180000Y-75920000D01*
X75887000Y-75880000D02*
X53145000Y-75880000D01*
X75922000Y-75840000D02*
X53110000Y-75840000D01*
X75956000Y-75800000D02*
X53076000Y-75800000D01*
X75991000Y-75760000D02*
X53041000Y-75760000D01*
X76025000Y-75720000D02*
X53007000Y-75720000D01*
X76058000Y-75680000D02*
X52974000Y-75680000D01*
X76092000Y-75640000D02*
X52940000Y-75640000D01*
X76125000Y-75600000D02*
X52907000Y-75600000D01*
X76158000Y-75560000D02*
X52874000Y-75560000D01*
X76191000Y-75520000D02*
X52841000Y-75520000D01*
X76223000Y-75480000D02*
X52809000Y-75480000D01*
X76255000Y-75440000D02*
X52777000Y-75440000D01*
X76288000Y-75400000D02*
X52744000Y-75400000D01*
X76319000Y-75360000D02*
X52713000Y-75360000D01*
X76351000Y-75320000D02*
X52681000Y-75320000D01*
X76382000Y-75280000D02*
X52650000Y-75280000D01*
X76414000Y-75240000D02*
X52618000Y-75240000D01*
X76445000Y-75200000D02*
X52587000Y-75200000D01*
X76475000Y-75160000D02*
X52557000Y-75160000D01*
X76506000Y-75120000D02*
X52526000Y-75120000D01*
X76536000Y-75080000D02*
X52496000Y-75080000D01*
X76566000Y-75040000D02*
X52466000Y-75040000D01*
X76596000Y-75000000D02*
X52436000Y-75000000D01*
X76626000Y-74960000D02*
X52406000Y-74960000D01*
X76656000Y-74920000D02*
X52376000Y-74920000D01*
X76685000Y-74880000D02*
X52347000Y-74880000D01*
X76714000Y-74840000D02*
X52318000Y-74840000D01*
X76743000Y-74800000D02*
X52289000Y-74800000D01*
X76772000Y-74760000D02*
X52260000Y-74760000D01*
X76800000Y-74720000D02*
X52232000Y-74720000D01*
X76829000Y-74680000D02*
X52203000Y-74680000D01*
X76857000Y-74640000D02*
X52175000Y-74640000D01*
X76885000Y-74600000D02*
X52147000Y-74600000D01*
X76913000Y-74560000D02*
X52119000Y-74560000D01*
X76940000Y-74520000D02*
X52092000Y-74520000D01*
X76967000Y-74480000D02*
X52065000Y-74480000D01*
X76995000Y-74440000D02*
X52037000Y-74440000D01*
X77022000Y-74400000D02*
X52010000Y-74400000D01*
X77048000Y-74360000D02*
X51984000Y-74360000D01*
X77075000Y-74320000D02*
X51957000Y-74320000D01*
X77102000Y-74280000D02*
X51930000Y-74280000D01*
X77128000Y-74240000D02*
X51904000Y-74240000D01*
X77154000Y-74200000D02*
X51878000Y-74200000D01*
X77180000Y-74160000D02*
X51852000Y-74160000D01*
X77206000Y-74121000D02*
X51826000Y-74121000D01*
X77231000Y-74081000D02*
X51801000Y-74081000D01*
X77256000Y-74041000D02*
X51776000Y-74041000D01*
X77282000Y-74001000D02*
X51750000Y-74001000D01*
X77307000Y-73961000D02*
X51725000Y-73961000D01*
X77332000Y-73921000D02*
X51700000Y-73921000D01*
X77356000Y-73881000D02*
X51676000Y-73881000D01*
X77381000Y-73841000D02*
X51651000Y-73841000D01*
X77405000Y-73801000D02*
X51627000Y-73801000D01*
X77429000Y-73761000D02*
X51603000Y-73761000D01*
X77453000Y-73721000D02*
X51579000Y-73721000D01*
X77477000Y-73681000D02*
X51555000Y-73681000D01*
X77501000Y-73641000D02*
X51531000Y-73641000D01*
X77524000Y-73601000D02*
X51508000Y-73601000D01*
X77548000Y-73561000D02*
X51484000Y-73561000D01*
X77571000Y-73521000D02*
X51461000Y-73521000D01*
X77594000Y-73481000D02*
X51438000Y-73481000D01*
X77617000Y-73441000D02*
X51415000Y-73441000D01*
X77639000Y-73401000D02*
X51393000Y-73401000D01*
X77662000Y-73361000D02*
X51370000Y-73361000D01*
X77684000Y-73321000D02*
X51348000Y-73321000D01*
X77706000Y-73281000D02*
X51326000Y-73281000D01*
X77729000Y-73241000D02*
X51303000Y-73241000D01*
X77750000Y-73201000D02*
X51282000Y-73201000D01*
X62276000Y-73161000D02*
X51260000Y-73161000D01*
X77772000Y-73161000D02*
X66756000Y-73161000D01*
X62276000Y-73121000D02*
X51238000Y-73121000D01*
X77794000Y-73121000D02*
X66756000Y-73121000D01*
X62276000Y-73081000D02*
X51217000Y-73081000D01*
X77815000Y-73081000D02*
X66756000Y-73081000D01*
X62276000Y-73041000D02*
X51196000Y-73041000D01*
X77836000Y-73041000D02*
X66756000Y-73041000D01*
X62276000Y-73001000D02*
X51174000Y-73001000D01*
X77858000Y-73001000D02*
X66756000Y-73001000D01*
X62276000Y-72961000D02*
X51153000Y-72961000D01*
X77879000Y-72961000D02*
X66756000Y-72961000D01*
X62276000Y-72921000D02*
X51133000Y-72921000D01*
X77899000Y-72921000D02*
X66756000Y-72921000D01*
X62276000Y-72881000D02*
X51112000Y-72881000D01*
X77920000Y-72881000D02*
X66756000Y-72881000D01*
X62276000Y-72841000D02*
X51091000Y-72841000D01*
X77941000Y-72841000D02*
X66756000Y-72841000D01*
X62276000Y-72801000D02*
X51071000Y-72801000D01*
X77961000Y-72801000D02*
X66756000Y-72801000D01*
X62276000Y-72761000D02*
X51051000Y-72761000D01*
X77981000Y-72761000D02*
X66756000Y-72761000D01*
X62276000Y-72721000D02*
X51031000Y-72721000D01*
X78001000Y-72721000D02*
X66756000Y-72721000D01*
X62276000Y-72681000D02*
X51011000Y-72681000D01*
X78021000Y-72681000D02*
X66756000Y-72681000D01*
X62276000Y-72641000D02*
X50991000Y-72641000D01*
X78041000Y-72641000D02*
X66756000Y-72641000D01*
X62276000Y-72601000D02*
X50972000Y-72601000D01*
X78060000Y-72601000D02*
X66756000Y-72601000D01*
X62276000Y-72561000D02*
X50952000Y-72561000D01*
X78080000Y-72561000D02*
X66756000Y-72561000D01*
X62276000Y-72521000D02*
X50933000Y-72521000D01*
X78099000Y-72521000D02*
X66756000Y-72521000D01*
X62276000Y-72481000D02*
X50914000Y-72481000D01*
X78118000Y-72481000D02*
X66756000Y-72481000D01*
X62276000Y-72441000D02*
X50894000Y-72441000D01*
X78138000Y-72441000D02*
X66756000Y-72441000D01*
X62276000Y-72401000D02*
X50876000Y-72401000D01*
X78156000Y-72401000D02*
X66756000Y-72401000D01*
X62276000Y-72361000D02*
X50857000Y-72361000D01*
X78175000Y-72361000D02*
X66756000Y-72361000D01*
X62276000Y-72321000D02*
X50838000Y-72321000D01*
X78194000Y-72321000D02*
X66756000Y-72321000D01*
X62276000Y-72281000D02*
X50820000Y-72281000D01*
X78212000Y-72281000D02*
X66756000Y-72281000D01*
X62276000Y-72241000D02*
X50801000Y-72241000D01*
X78231000Y-72241000D02*
X66756000Y-72241000D01*
X62276000Y-72201000D02*
X50783000Y-72201000D01*
X78249000Y-72201000D02*
X66756000Y-72201000D01*
X62276000Y-72161000D02*
X50765000Y-72161000D01*
X78267000Y-72161000D02*
X66756000Y-72161000D01*
X62276000Y-72121000D02*
X50747000Y-72121000D01*
X78285000Y-72121000D02*
X66756000Y-72121000D01*
X62276000Y-72081000D02*
X50729000Y-72081000D01*
X78303000Y-72081000D02*
X66756000Y-72081000D01*
X62276000Y-72041000D02*
X50712000Y-72041000D01*
X78320000Y-72041000D02*
X66756000Y-72041000D01*
X62276000Y-72001000D02*
X50694000Y-72001000D01*
X78338000Y-72001000D02*
X66756000Y-72001000D01*
X62276000Y-71961000D02*
X50677000Y-71961000D01*
X78355000Y-71961000D02*
X66756000Y-71961000D01*
X62276000Y-71921000D02*
X50660000Y-71921000D01*
X78372000Y-71921000D02*
X66756000Y-71921000D01*
X62276000Y-71881000D02*
X50643000Y-71881000D01*
X78389000Y-71881000D02*
X66756000Y-71881000D01*
X62276000Y-71841000D02*
X50626000Y-71841000D01*
X78406000Y-71841000D02*
X66756000Y-71841000D01*
X62276000Y-71801000D02*
X50609000Y-71801000D01*
X78423000Y-71801000D02*
X66756000Y-71801000D01*
X62276000Y-71761000D02*
X50592000Y-71761000D01*
X78440000Y-71761000D02*
X66756000Y-71761000D01*
X62276000Y-71721000D02*
X50576000Y-71721000D01*
X78456000Y-71721000D02*
X66756000Y-71721000D01*
X62276000Y-71681000D02*
X50559000Y-71681000D01*
X78473000Y-71681000D02*
X66756000Y-71681000D01*
X62276000Y-71641000D02*
X50543000Y-71641000D01*
X78489000Y-71641000D02*
X66756000Y-71641000D01*
X62276000Y-71601000D02*
X50527000Y-71601000D01*
X78505000Y-71601000D02*
X66756000Y-71601000D01*
X62276000Y-71561000D02*
X50511000Y-71561000D01*
X78521000Y-71561000D02*
X66756000Y-71561000D01*
X62276000Y-71521000D02*
X50495000Y-71521000D01*
X78537000Y-71521000D02*
X66756000Y-71521000D01*
X62276000Y-71481000D02*
X50479000Y-71481000D01*
X78553000Y-71481000D02*
X66756000Y-71481000D01*
X62276000Y-71441000D02*
X50464000Y-71441000D01*
X78568000Y-71441000D02*
X66756000Y-71441000D01*
X62276000Y-71401000D02*
X50448000Y-71401000D01*
X78584000Y-71401000D02*
X66756000Y-71401000D01*
X62276000Y-71361000D02*
X50433000Y-71361000D01*
X78599000Y-71361000D02*
X66756000Y-71361000D01*
X62276000Y-71321000D02*
X50417000Y-71321000D01*
X78615000Y-71321000D02*
X66756000Y-71321000D01*
X62276000Y-71281000D02*
X50402000Y-71281000D01*
X78630000Y-71281000D02*
X66756000Y-71281000D01*
X62276000Y-71241000D02*
X50387000Y-71241000D01*
X78645000Y-71241000D02*
X66756000Y-71241000D01*
X62276000Y-71201000D02*
X50373000Y-71201000D01*
X78659000Y-71201000D02*
X66756000Y-71201000D01*
X62276000Y-71161000D02*
X50358000Y-71161000D01*
X78674000Y-71161000D02*
X66756000Y-71161000D01*
X62276000Y-71121000D02*
X50343000Y-71121000D01*
X78689000Y-71121000D02*
X66756000Y-71121000D01*
X62276000Y-71081000D02*
X50329000Y-71081000D01*
X78703000Y-71081000D02*
X66756000Y-71081000D01*
X62276000Y-71041000D02*
X50314000Y-71041000D01*
X78718000Y-71041000D02*
X66756000Y-71041000D01*
X62276000Y-71001000D02*
X50300000Y-71001000D01*
X78732000Y-71001000D02*
X66756000Y-71001000D01*
X62276000Y-70961000D02*
X50286000Y-70961000D01*
X78746000Y-70961000D02*
X66756000Y-70961000D01*
X62276000Y-70921000D02*
X50272000Y-70921000D01*
X78760000Y-70921000D02*
X66756000Y-70921000D01*
X62276000Y-70881000D02*
X50258000Y-70881000D01*
X78774000Y-70881000D02*
X66756000Y-70881000D01*
X62276000Y-70841000D02*
X50245000Y-70841000D01*
X78787000Y-70841000D02*
X66756000Y-70841000D01*
X62276000Y-70801000D02*
X50231000Y-70801000D01*
X78801000Y-70801000D02*
X66756000Y-70801000D01*
X62276000Y-70761000D02*
X50218000Y-70761000D01*
X78814000Y-70761000D02*
X66756000Y-70761000D01*
X62276000Y-70721000D02*
X50204000Y-70721000D01*
X78828000Y-70721000D02*
X66756000Y-70721000D01*
X62276000Y-70681000D02*
X50191000Y-70681000D01*
X78841000Y-70681000D02*
X66756000Y-70681000D01*
X62276000Y-70641000D02*
X50178000Y-70641000D01*
X78854000Y-70641000D02*
X66756000Y-70641000D01*
X62276000Y-70601000D02*
X50165000Y-70601000D01*
X78867000Y-70601000D02*
X66756000Y-70601000D01*
X62276000Y-70561000D02*
X50152000Y-70561000D01*
X78880000Y-70561000D02*
X66756000Y-70561000D01*
X62276000Y-70521000D02*
X50140000Y-70521000D01*
X78892000Y-70521000D02*
X66756000Y-70521000D01*
X62276000Y-70481000D02*
X50127000Y-70481000D01*
X78905000Y-70481000D02*
X66756000Y-70481000D01*
X62276000Y-70441000D02*
X50114000Y-70441000D01*
X78918000Y-70441000D02*
X66756000Y-70441000D01*
X62276000Y-70401000D02*
X50102000Y-70401000D01*
X78930000Y-70401000D02*
X66756000Y-70401000D01*
X62276000Y-70361000D02*
X50090000Y-70361000D01*
X78942000Y-70361000D02*
X66756000Y-70361000D01*
X62276000Y-70321000D02*
X50078000Y-70321000D01*
X78954000Y-70321000D02*
X66756000Y-70321000D01*
X62276000Y-70281000D02*
X50066000Y-70281000D01*
X78966000Y-70281000D02*
X66756000Y-70281000D01*
X62276000Y-70241000D02*
X50054000Y-70241000D01*
X78978000Y-70241000D02*
X66756000Y-70241000D01*
X62276000Y-70201000D02*
X50042000Y-70201000D01*
X78990000Y-70201000D02*
X66756000Y-70201000D01*
X62276000Y-70161000D02*
X50031000Y-70161000D01*
X79001000Y-70161000D02*
X66756000Y-70161000D01*
X62276000Y-70121000D02*
X50019000Y-70121000D01*
X79013000Y-70121000D02*
X66756000Y-70121000D01*
X62276000Y-70081000D02*
X50008000Y-70081000D01*
X79024000Y-70081000D02*
X66756000Y-70081000D01*
X62276000Y-70041000D02*
X49996000Y-70041000D01*
X79036000Y-70041000D02*
X66756000Y-70041000D01*
X62276000Y-70001000D02*
X49985000Y-70001000D01*
X79047000Y-70001000D02*
X66756000Y-70001000D01*
X62276000Y-69961000D02*
X49974000Y-69961000D01*
X79058000Y-69961000D02*
X66756000Y-69961000D01*
X62276000Y-69921000D02*
X49963000Y-69921000D01*
X79069000Y-69921000D02*
X66756000Y-69921000D01*
X62276000Y-69881000D02*
X49952000Y-69881000D01*
X79080000Y-69881000D02*
X66756000Y-69881000D01*
X62276000Y-69841000D02*
X49942000Y-69841000D01*
X79090000Y-69841000D02*
X66756000Y-69841000D01*
X62276000Y-69801000D02*
X49931000Y-69801000D01*
X79101000Y-69801000D02*
X66756000Y-69801000D01*
X62276000Y-69761000D02*
X49921000Y-69761000D01*
X79111000Y-69761000D02*
X66756000Y-69761000D01*
X62276000Y-69721000D02*
X49910000Y-69721000D01*
X79122000Y-69721000D02*
X66756000Y-69721000D01*
X62276000Y-69681000D02*
X49900000Y-69681000D01*
X79132000Y-69681000D02*
X66756000Y-69681000D01*
X62276000Y-69641000D02*
X49890000Y-69641000D01*
X79142000Y-69641000D02*
X66756000Y-69641000D01*
X62276000Y-69601000D02*
X49880000Y-69601000D01*
X79152000Y-69601000D02*
X66756000Y-69601000D01*
X62276000Y-69561000D02*
X49870000Y-69561000D01*
X79162000Y-69561000D02*
X66756000Y-69561000D01*
X62276000Y-69521000D02*
X49861000Y-69521000D01*
X79171000Y-69521000D02*
X66756000Y-69521000D01*
X62276000Y-69481000D02*
X49851000Y-69481000D01*
X79181000Y-69481000D02*
X66756000Y-69481000D01*
X62276000Y-69441000D02*
X49841000Y-69441000D01*
X79191000Y-69441000D02*
X66756000Y-69441000D01*
X62276000Y-69401000D02*
X49832000Y-69401000D01*
X79200000Y-69401000D02*
X66756000Y-69401000D01*
X62276000Y-69361000D02*
X49823000Y-69361000D01*
X79209000Y-69361000D02*
X66756000Y-69361000D01*
X62276000Y-69321000D02*
X49814000Y-69321000D01*
X79218000Y-69321000D02*
X66756000Y-69321000D01*
X62276000Y-69281000D02*
X49805000Y-69281000D01*
X79227000Y-69281000D02*
X66756000Y-69281000D01*
X62276000Y-69241000D02*
X49796000Y-69241000D01*
X79236000Y-69241000D02*
X66756000Y-69241000D01*
X62276000Y-69201000D02*
X49787000Y-69201000D01*
X79245000Y-69201000D02*
X66756000Y-69201000D01*
X62276000Y-69161000D02*
X49778000Y-69161000D01*
X79254000Y-69161000D02*
X66756000Y-69161000D01*
X62276000Y-69121000D02*
X49769000Y-69121000D01*
X79263000Y-69121000D02*
X66756000Y-69121000D01*
X62276000Y-69081000D02*
X49761000Y-69081000D01*
X79271000Y-69081000D02*
X66756000Y-69081000D01*
X62276000Y-69041000D02*
X49753000Y-69041000D01*
X79279000Y-69041000D02*
X66756000Y-69041000D01*
X62276000Y-69001000D02*
X49744000Y-69001000D01*
X79288000Y-69001000D02*
X66756000Y-69001000D01*
X62276000Y-68961000D02*
X49736000Y-68961000D01*
X79296000Y-68961000D02*
X66756000Y-68961000D01*
X62276000Y-68921000D02*
X49728000Y-68921000D01*
X79304000Y-68921000D02*
X66756000Y-68921000D01*
X62276000Y-68881000D02*
X49720000Y-68881000D01*
X79312000Y-68881000D02*
X66756000Y-68881000D01*
X62276000Y-68841000D02*
X49712000Y-68841000D01*
X79320000Y-68841000D02*
X66756000Y-68841000D01*
X62276000Y-68801000D02*
X49705000Y-68801000D01*
X79327000Y-68801000D02*
X66756000Y-68801000D01*
X62276000Y-68761000D02*
X49697000Y-68761000D01*
X79335000Y-68761000D02*
X66756000Y-68761000D01*
X62276000Y-68721000D02*
X49690000Y-68721000D01*
X79342000Y-68721000D02*
X66756000Y-68721000D01*
X79350000Y-68681000D02*
X49682000Y-68681000D01*
X79357000Y-68641000D02*
X49675000Y-68641000D01*
X79364000Y-68601000D02*
X49668000Y-68601000D01*
X79371000Y-68561000D02*
X49661000Y-68561000D01*
X79378000Y-68521000D02*
X49654000Y-68521000D01*
X79385000Y-68481000D02*
X49647000Y-68481000D01*
X79392000Y-68441000D02*
X49640000Y-68441000D01*
X79398000Y-68401000D02*
X49634000Y-68401000D01*
X79405000Y-68361000D02*
X49627000Y-68361000D01*
X79411000Y-68321000D02*
X49621000Y-68321000D01*
X79417000Y-68281000D02*
X49615000Y-68281000D01*
X79424000Y-68241000D02*
X49608000Y-68241000D01*
X79430000Y-68201000D02*
X49602000Y-68201000D01*
X79436000Y-68161000D02*
X49596000Y-68161000D01*
X79441000Y-68121000D02*
X49591000Y-68121000D01*
X79447000Y-68081000D02*
X49585000Y-68081000D01*
X79453000Y-68041000D02*
X49579000Y-68041000D01*
X79458000Y-68001000D02*
X49574000Y-68001000D01*
X79464000Y-67961000D02*
X49568000Y-67961000D01*
X79469000Y-67921000D02*
X49563000Y-67921000D01*
X79474000Y-67881000D02*
X49558000Y-67881000D01*
X79479000Y-67841000D02*
X49553000Y-67841000D01*
X79484000Y-67801000D02*
X49548000Y-67801000D01*
X79489000Y-67761000D02*
X49543000Y-67761000D01*
X79494000Y-67721000D02*
X49538000Y-67721000D01*
X79498000Y-67681000D02*
X49534000Y-67681000D01*
X79503000Y-67641000D02*
X49529000Y-67641000D01*
X79507000Y-67601000D02*
X49525000Y-67601000D01*
X79512000Y-67561000D02*
X49520000Y-67561000D01*
X79516000Y-67521000D02*
X49516000Y-67521000D01*
X79520000Y-67481000D02*
X49512000Y-67481000D01*
X79524000Y-67441000D02*
X49508000Y-67441000D01*
X79528000Y-67401000D02*
X49504000Y-67401000D01*
X79532000Y-67361000D02*
X49500000Y-67361000D01*
X79535000Y-67321000D02*
X49497000Y-67321000D01*
X79539000Y-67281000D02*
X49493000Y-67281000D01*
X79542000Y-67241000D02*
X49490000Y-67241000D01*
X79546000Y-67201000D02*
X49486000Y-67201000D01*
X79549000Y-67161000D02*
X49483000Y-67161000D01*
X79552000Y-67121000D02*
X49480000Y-67121000D01*
X79555000Y-67081000D02*
X49477000Y-67081000D01*
X79558000Y-67041000D02*
X49474000Y-67041000D01*
X79561000Y-67001000D02*
X49471000Y-67001000D01*
X79563000Y-66961000D02*
X49469000Y-66961000D01*
X79566000Y-66921000D02*
X49466000Y-66921000D01*
X79568000Y-66881000D02*
X49464000Y-66881000D01*
X79571000Y-66841000D02*
X49461000Y-66841000D01*
X79573000Y-66801000D02*
X49459000Y-66801000D01*
X79575000Y-66761000D02*
X49457000Y-66761000D01*
X79577000Y-66721000D02*
X49455000Y-66721000D01*
X79579000Y-66681000D02*
X49453000Y-66681000D01*
X79581000Y-66640000D02*
X49451000Y-66640000D01*
X79583000Y-66600000D02*
X49449000Y-66600000D01*
X79585000Y-66560000D02*
X49447000Y-66560000D01*
X79586000Y-66520000D02*
X49446000Y-66520000D01*
X79588000Y-66480000D02*
X49444000Y-66480000D01*
X79589000Y-66440000D02*
X49443000Y-66440000D01*
X79590000Y-66400000D02*
X49442000Y-66400000D01*
X79591000Y-66360000D02*
X49441000Y-66360000D01*
X79592000Y-66320000D02*
X49440000Y-66320000D01*
X79593000Y-66280000D02*
X49439000Y-66280000D01*
X79594000Y-66240000D02*
X49438000Y-66240000D01*
X79595000Y-66200000D02*
X49437000Y-66200000D01*
X79595000Y-66160000D02*
X49437000Y-66160000D01*
X79596000Y-66120000D02*
X49436000Y-66120000D01*
X79596000Y-66080000D02*
X49436000Y-66080000D01*
X79596000Y-66040000D02*
X49436000Y-66040000D01*
X79596000Y-66000000D02*
X49436000Y-66000000D01*
X79597000Y-65960000D02*
X49435000Y-65960000D01*
X79636000Y-65960000D02*
G75*
G03X79636000Y-65960000I-15120000J0D01*
G01*
X85291000Y-67783225D02*
X84791000Y-67783225D01*
X85041000Y-67533225D02*
X85041000Y-68033225D01*
X83850000Y-72939000D02*
X83282000Y-72939000D01*
X84084000Y-72899000D02*
X83048000Y-72899000D01*
X84243000Y-72859000D02*
X82889000Y-72859000D01*
X84371000Y-72819000D02*
X82761000Y-72819000D01*
X84481000Y-72779000D02*
X82651000Y-72779000D01*
X84577000Y-72739000D02*
X82555000Y-72739000D01*
X84664000Y-72699000D02*
X82468000Y-72699000D01*
X84744000Y-72659000D02*
X82388000Y-72659000D01*
X82526000Y-72619000D02*
X82315000Y-72619000D01*
X84817000Y-72619000D02*
X84606000Y-72619000D01*
X82526000Y-72579000D02*
X82247000Y-72579000D01*
X84885000Y-72579000D02*
X84606000Y-72579000D01*
X82526000Y-72539000D02*
X82183000Y-72539000D01*
X84949000Y-72539000D02*
X84606000Y-72539000D01*
X82526000Y-72499000D02*
X82123000Y-72499000D01*
X85009000Y-72499000D02*
X84606000Y-72499000D01*
X82526000Y-72459000D02*
X82066000Y-72459000D01*
X85066000Y-72459000D02*
X84606000Y-72459000D01*
X82526000Y-72419000D02*
X82012000Y-72419000D01*
X85120000Y-72419000D02*
X84606000Y-72419000D01*
X82526000Y-72379000D02*
X81961000Y-72379000D01*
X85171000Y-72379000D02*
X84606000Y-72379000D01*
X82526000Y-72339000D02*
X81913000Y-72339000D01*
X85219000Y-72339000D02*
X84606000Y-72339000D01*
X82526000Y-72299000D02*
X81867000Y-72299000D01*
X85265000Y-72299000D02*
X84606000Y-72299000D01*
X82526000Y-72259000D02*
X81823000Y-72259000D01*
X85309000Y-72259000D02*
X84606000Y-72259000D01*
X82526000Y-72219000D02*
X81781000Y-72219000D01*
X85351000Y-72219000D02*
X84606000Y-72219000D01*
X82526000Y-72179000D02*
X81740000Y-72179000D01*
X85392000Y-72179000D02*
X84606000Y-72179000D01*
X82526000Y-72139000D02*
X81702000Y-72139000D01*
X85430000Y-72139000D02*
X84606000Y-72139000D01*
X82526000Y-72099000D02*
X81665000Y-72099000D01*
X85467000Y-72099000D02*
X84606000Y-72099000D01*
X82526000Y-72059000D02*
X81629000Y-72059000D01*
X85503000Y-72059000D02*
X84606000Y-72059000D01*
X82526000Y-72019000D02*
X81595000Y-72019000D01*
X85537000Y-72019000D02*
X84606000Y-72019000D01*
X82526000Y-71979000D02*
X81562000Y-71979000D01*
X85570000Y-71979000D02*
X84606000Y-71979000D01*
X82526000Y-71939000D02*
X81531000Y-71939000D01*
X85601000Y-71939000D02*
X84606000Y-71939000D01*
X82526000Y-71899000D02*
X81501000Y-71899000D01*
X85631000Y-71899000D02*
X84606000Y-71899000D01*
X82526000Y-71859000D02*
X81471000Y-71859000D01*
X85661000Y-71859000D02*
X84606000Y-71859000D01*
X82526000Y-71819000D02*
X81444000Y-71819000D01*
X85688000Y-71819000D02*
X84606000Y-71819000D01*
X82526000Y-71779000D02*
X81417000Y-71779000D01*
X85715000Y-71779000D02*
X84606000Y-71779000D01*
X82526000Y-71739000D02*
X81391000Y-71739000D01*
X85741000Y-71739000D02*
X84606000Y-71739000D01*
X82526000Y-71699000D02*
X81366000Y-71699000D01*
X85766000Y-71699000D02*
X84606000Y-71699000D01*
X82526000Y-71659000D02*
X81342000Y-71659000D01*
X85790000Y-71659000D02*
X84606000Y-71659000D01*
X82526000Y-71619000D02*
X81319000Y-71619000D01*
X85813000Y-71619000D02*
X84606000Y-71619000D01*
X82526000Y-71579000D02*
X81298000Y-71579000D01*
X85834000Y-71579000D02*
X84606000Y-71579000D01*
X82526000Y-71539000D02*
X81276000Y-71539000D01*
X85856000Y-71539000D02*
X84606000Y-71539000D01*
X82526000Y-71499000D02*
X81256000Y-71499000D01*
X85876000Y-71499000D02*
X84606000Y-71499000D01*
X82526000Y-71459000D02*
X81237000Y-71459000D01*
X85895000Y-71459000D02*
X84606000Y-71459000D01*
X82526000Y-71419000D02*
X81218000Y-71419000D01*
X85914000Y-71419000D02*
X84606000Y-71419000D01*
X82526000Y-71379000D02*
X81201000Y-71379000D01*
X85931000Y-71379000D02*
X84606000Y-71379000D01*
X82526000Y-71339000D02*
X81184000Y-71339000D01*
X85948000Y-71339000D02*
X84606000Y-71339000D01*
X82526000Y-71299000D02*
X81168000Y-71299000D01*
X85964000Y-71299000D02*
X84606000Y-71299000D01*
X82526000Y-71259000D02*
X81152000Y-71259000D01*
X85980000Y-71259000D02*
X84606000Y-71259000D01*
X82526000Y-71219000D02*
X81138000Y-71219000D01*
X85994000Y-71219000D02*
X84606000Y-71219000D01*
X82526000Y-71179000D02*
X81124000Y-71179000D01*
X86008000Y-71179000D02*
X84606000Y-71179000D01*
X82526000Y-71139000D02*
X81111000Y-71139000D01*
X86021000Y-71139000D02*
X84606000Y-71139000D01*
X82526000Y-71099000D02*
X81098000Y-71099000D01*
X86034000Y-71099000D02*
X84606000Y-71099000D01*
X82526000Y-71059000D02*
X81086000Y-71059000D01*
X86046000Y-71059000D02*
X84606000Y-71059000D01*
X82526000Y-71018000D02*
X81075000Y-71018000D01*
X86057000Y-71018000D02*
X84606000Y-71018000D01*
X82526000Y-70978000D02*
X81065000Y-70978000D01*
X86067000Y-70978000D02*
X84606000Y-70978000D01*
X82526000Y-70938000D02*
X81055000Y-70938000D01*
X86077000Y-70938000D02*
X84606000Y-70938000D01*
X82526000Y-70898000D02*
X81046000Y-70898000D01*
X86086000Y-70898000D02*
X84606000Y-70898000D01*
X82526000Y-70858000D02*
X81038000Y-70858000D01*
X86094000Y-70858000D02*
X84606000Y-70858000D01*
X82526000Y-70818000D02*
X81030000Y-70818000D01*
X86102000Y-70818000D02*
X84606000Y-70818000D01*
X82526000Y-70778000D02*
X81023000Y-70778000D01*
X86109000Y-70778000D02*
X84606000Y-70778000D01*
X82526000Y-70738000D02*
X81016000Y-70738000D01*
X86116000Y-70738000D02*
X84606000Y-70738000D01*
X82526000Y-70698000D02*
X81010000Y-70698000D01*
X86122000Y-70698000D02*
X84606000Y-70698000D01*
X82526000Y-70658000D02*
X81005000Y-70658000D01*
X86127000Y-70658000D02*
X84606000Y-70658000D01*
X82526000Y-70618000D02*
X81001000Y-70618000D01*
X86131000Y-70618000D02*
X84606000Y-70618000D01*
X82526000Y-70578000D02*
X80997000Y-70578000D01*
X86135000Y-70578000D02*
X84606000Y-70578000D01*
X86139000Y-70538000D02*
X80993000Y-70538000D01*
X86142000Y-70498000D02*
X80990000Y-70498000D01*
X86144000Y-70458000D02*
X80988000Y-70458000D01*
X86145000Y-70418000D02*
X80987000Y-70418000D01*
X86146000Y-70378000D02*
X80986000Y-70378000D01*
X86146000Y-70338000D02*
X80986000Y-70338000D01*
X86186000Y-70338000D02*
G75*
G03X86186000Y-70338000I-2620000J0D01*
G01*
X86186000Y-54082000D02*
G75*
G03X86186000Y-54082000I-2620000J0D01*
G01*
X86146000Y-54082000D02*
X80986000Y-54082000D01*
X86146000Y-54122000D02*
X80986000Y-54122000D01*
X86145000Y-54162000D02*
X80987000Y-54162000D01*
X86144000Y-54202000D02*
X80988000Y-54202000D01*
X86142000Y-54242000D02*
X80990000Y-54242000D01*
X86139000Y-54282000D02*
X80993000Y-54282000D01*
X86135000Y-54322000D02*
X84606000Y-54322000D01*
X82526000Y-54322000D02*
X80997000Y-54322000D01*
X86131000Y-54362000D02*
X84606000Y-54362000D01*
X82526000Y-54362000D02*
X81001000Y-54362000D01*
X86127000Y-54402000D02*
X84606000Y-54402000D01*
X82526000Y-54402000D02*
X81005000Y-54402000D01*
X86122000Y-54442000D02*
X84606000Y-54442000D01*
X82526000Y-54442000D02*
X81010000Y-54442000D01*
X86116000Y-54482000D02*
X84606000Y-54482000D01*
X82526000Y-54482000D02*
X81016000Y-54482000D01*
X86109000Y-54522000D02*
X84606000Y-54522000D01*
X82526000Y-54522000D02*
X81023000Y-54522000D01*
X86102000Y-54562000D02*
X84606000Y-54562000D01*
X82526000Y-54562000D02*
X81030000Y-54562000D01*
X86094000Y-54602000D02*
X84606000Y-54602000D01*
X82526000Y-54602000D02*
X81038000Y-54602000D01*
X86086000Y-54642000D02*
X84606000Y-54642000D01*
X82526000Y-54642000D02*
X81046000Y-54642000D01*
X86077000Y-54682000D02*
X84606000Y-54682000D01*
X82526000Y-54682000D02*
X81055000Y-54682000D01*
X86067000Y-54722000D02*
X84606000Y-54722000D01*
X82526000Y-54722000D02*
X81065000Y-54722000D01*
X86057000Y-54762000D02*
X84606000Y-54762000D01*
X82526000Y-54762000D02*
X81075000Y-54762000D01*
X86046000Y-54803000D02*
X84606000Y-54803000D01*
X82526000Y-54803000D02*
X81086000Y-54803000D01*
X86034000Y-54843000D02*
X84606000Y-54843000D01*
X82526000Y-54843000D02*
X81098000Y-54843000D01*
X86021000Y-54883000D02*
X84606000Y-54883000D01*
X82526000Y-54883000D02*
X81111000Y-54883000D01*
X86008000Y-54923000D02*
X84606000Y-54923000D01*
X82526000Y-54923000D02*
X81124000Y-54923000D01*
X85994000Y-54963000D02*
X84606000Y-54963000D01*
X82526000Y-54963000D02*
X81138000Y-54963000D01*
X85980000Y-55003000D02*
X84606000Y-55003000D01*
X82526000Y-55003000D02*
X81152000Y-55003000D01*
X85964000Y-55043000D02*
X84606000Y-55043000D01*
X82526000Y-55043000D02*
X81168000Y-55043000D01*
X85948000Y-55083000D02*
X84606000Y-55083000D01*
X82526000Y-55083000D02*
X81184000Y-55083000D01*
X85931000Y-55123000D02*
X84606000Y-55123000D01*
X82526000Y-55123000D02*
X81201000Y-55123000D01*
X85914000Y-55163000D02*
X84606000Y-55163000D01*
X82526000Y-55163000D02*
X81218000Y-55163000D01*
X85895000Y-55203000D02*
X84606000Y-55203000D01*
X82526000Y-55203000D02*
X81237000Y-55203000D01*
X85876000Y-55243000D02*
X84606000Y-55243000D01*
X82526000Y-55243000D02*
X81256000Y-55243000D01*
X85856000Y-55283000D02*
X84606000Y-55283000D01*
X82526000Y-55283000D02*
X81276000Y-55283000D01*
X85834000Y-55323000D02*
X84606000Y-55323000D01*
X82526000Y-55323000D02*
X81298000Y-55323000D01*
X85813000Y-55363000D02*
X84606000Y-55363000D01*
X82526000Y-55363000D02*
X81319000Y-55363000D01*
X85790000Y-55403000D02*
X84606000Y-55403000D01*
X82526000Y-55403000D02*
X81342000Y-55403000D01*
X85766000Y-55443000D02*
X84606000Y-55443000D01*
X82526000Y-55443000D02*
X81366000Y-55443000D01*
X85741000Y-55483000D02*
X84606000Y-55483000D01*
X82526000Y-55483000D02*
X81391000Y-55483000D01*
X85715000Y-55523000D02*
X84606000Y-55523000D01*
X82526000Y-55523000D02*
X81417000Y-55523000D01*
X85688000Y-55563000D02*
X84606000Y-55563000D01*
X82526000Y-55563000D02*
X81444000Y-55563000D01*
X85661000Y-55603000D02*
X84606000Y-55603000D01*
X82526000Y-55603000D02*
X81471000Y-55603000D01*
X85631000Y-55643000D02*
X84606000Y-55643000D01*
X82526000Y-55643000D02*
X81501000Y-55643000D01*
X85601000Y-55683000D02*
X84606000Y-55683000D01*
X82526000Y-55683000D02*
X81531000Y-55683000D01*
X85570000Y-55723000D02*
X84606000Y-55723000D01*
X82526000Y-55723000D02*
X81562000Y-55723000D01*
X85537000Y-55763000D02*
X84606000Y-55763000D01*
X82526000Y-55763000D02*
X81595000Y-55763000D01*
X85503000Y-55803000D02*
X84606000Y-55803000D01*
X82526000Y-55803000D02*
X81629000Y-55803000D01*
X85467000Y-55843000D02*
X84606000Y-55843000D01*
X82526000Y-55843000D02*
X81665000Y-55843000D01*
X85430000Y-55883000D02*
X84606000Y-55883000D01*
X82526000Y-55883000D02*
X81702000Y-55883000D01*
X85392000Y-55923000D02*
X84606000Y-55923000D01*
X82526000Y-55923000D02*
X81740000Y-55923000D01*
X85351000Y-55963000D02*
X84606000Y-55963000D01*
X82526000Y-55963000D02*
X81781000Y-55963000D01*
X85309000Y-56003000D02*
X84606000Y-56003000D01*
X82526000Y-56003000D02*
X81823000Y-56003000D01*
X85265000Y-56043000D02*
X84606000Y-56043000D01*
X82526000Y-56043000D02*
X81867000Y-56043000D01*
X85219000Y-56083000D02*
X84606000Y-56083000D01*
X82526000Y-56083000D02*
X81913000Y-56083000D01*
X85171000Y-56123000D02*
X84606000Y-56123000D01*
X82526000Y-56123000D02*
X81961000Y-56123000D01*
X85120000Y-56163000D02*
X84606000Y-56163000D01*
X82526000Y-56163000D02*
X82012000Y-56163000D01*
X85066000Y-56203000D02*
X84606000Y-56203000D01*
X82526000Y-56203000D02*
X82066000Y-56203000D01*
X85009000Y-56243000D02*
X84606000Y-56243000D01*
X82526000Y-56243000D02*
X82123000Y-56243000D01*
X84949000Y-56283000D02*
X84606000Y-56283000D01*
X82526000Y-56283000D02*
X82183000Y-56283000D01*
X84885000Y-56323000D02*
X84606000Y-56323000D01*
X82526000Y-56323000D02*
X82247000Y-56323000D01*
X84817000Y-56363000D02*
X84606000Y-56363000D01*
X82526000Y-56363000D02*
X82315000Y-56363000D01*
X84744000Y-56403000D02*
X82388000Y-56403000D01*
X84664000Y-56443000D02*
X82468000Y-56443000D01*
X84577000Y-56483000D02*
X82555000Y-56483000D01*
X84481000Y-56523000D02*
X82651000Y-56523000D01*
X84371000Y-56563000D02*
X82761000Y-56563000D01*
X84243000Y-56603000D02*
X82889000Y-56603000D01*
X84084000Y-56643000D02*
X83048000Y-56643000D01*
X83850000Y-56683000D02*
X83282000Y-56683000D01*
X85041000Y-51277225D02*
X85041000Y-51777225D01*
X85291000Y-51527225D02*
X84791000Y-51527225D01*
X62776505Y-83511084D02*
X63782044Y-86273781D01*
X63782044Y-86273781D02*
X68893972Y-84413191D01*
X68893972Y-84413191D02*
X67888433Y-81650495D01*
X67888433Y-81650495D02*
X62776505Y-83511084D01*
X62320788Y-85241293D02*
X63279275Y-84892432D01*
X69349689Y-82682982D02*
X68391202Y-83031843D01*
X63622228Y-83203266D02*
X64627768Y-85965962D01*
X63734991Y-83162224D02*
X64740531Y-85924920D01*
X63509465Y-83244309D02*
X64515004Y-86007005D01*
X82497457Y-79454320D02*
X79951343Y-80924320D01*
X82617457Y-79662166D02*
X80071343Y-81132166D01*
X82557457Y-79558243D02*
X80011343Y-81028243D01*
X84064400Y-85108344D02*
X83554400Y-84224998D01*
X80324400Y-78630474D02*
X80834400Y-79513820D01*
X84827457Y-83489998D02*
X82107457Y-78778820D01*
X82281343Y-84959998D02*
X84827457Y-83489998D01*
X79561343Y-80248820D02*
X82281343Y-84959998D01*
X82107457Y-78778820D02*
X79561343Y-80248820D01*
X93906405Y-49300404D02*
X91143709Y-48294865D01*
X93824320Y-49525931D02*
X91061624Y-48520391D01*
X93865362Y-49413168D02*
X91102666Y-48407628D01*
X90582382Y-54135089D02*
X90931243Y-53176602D01*
X93140693Y-47106188D02*
X92791832Y-48064675D01*
X92312591Y-53679372D02*
X94173181Y-48567444D01*
X89549895Y-52673833D02*
X92312591Y-53679372D01*
X91410484Y-47561905D02*
X89549895Y-52673833D01*
X94173181Y-48567444D02*
X91410484Y-47561905D01*
X17454000Y-98268000D02*
X21154000Y-98268000D01*
X21154000Y-98268000D02*
X21154000Y-100868000D01*
X21154000Y-100868000D02*
X17454000Y-100868000D01*
X17454000Y-98268000D02*
X17454000Y-100868000D01*
X17200000Y-88870000D02*
X17200000Y-91470000D01*
X20900000Y-91470000D02*
X17200000Y-91470000D01*
X20900000Y-88870000D02*
X20900000Y-91470000D01*
X17200000Y-88870000D02*
X20900000Y-88870000D01*
X17454000Y-93569000D02*
X21154000Y-93569000D01*
X21154000Y-93569000D02*
X21154000Y-96169000D01*
X21154000Y-96169000D02*
X17454000Y-96169000D01*
X17454000Y-93569000D02*
X17454000Y-96169000D01*
X99724600Y-96515400D02*
X103424600Y-96515400D01*
X103424600Y-96515400D02*
X103424600Y-99115400D01*
X103424600Y-99115400D02*
X99724600Y-99115400D01*
X99724600Y-96515400D02*
X99724600Y-99115400D01*
X102594800Y-47671200D02*
X102594800Y-50271200D01*
X106294800Y-50271200D02*
X102594800Y-50271200D01*
X106294800Y-47671200D02*
X106294800Y-50271200D01*
X102594800Y-47671200D02*
X106294800Y-47671200D01*
X93176460Y-79231255D02*
X93011460Y-78945466D01*
X87512654Y-82501255D02*
X93176460Y-79231255D01*
X87347654Y-82215466D02*
X87512654Y-82501255D01*
X91806460Y-76858345D02*
X91971460Y-77144134D01*
X86142654Y-80128345D02*
X91806460Y-76858345D01*
X86307654Y-80414134D02*
X86142654Y-80128345D01*
X98875600Y-60094800D02*
X98875600Y-59764800D01*
X92335600Y-60094800D02*
X98875600Y-60094800D01*
X92335600Y-59764800D02*
X92335600Y-60094800D01*
X98875600Y-57354800D02*
X98875600Y-57684800D01*
X92335600Y-57354800D02*
X98875600Y-57354800D01*
X92335600Y-57684800D02*
X92335600Y-57354800D01*
X63677133Y-87966629D02*
X63564266Y-87656530D01*
X63564266Y-87656530D02*
X69709856Y-85419718D01*
X69709856Y-85419718D02*
X69822723Y-85729817D01*
X64388535Y-89921189D02*
X64501402Y-90231288D01*
X64501402Y-90231288D02*
X70646991Y-87994476D01*
X70646991Y-87994476D02*
X70534125Y-87684378D01*
X99840800Y-56361200D02*
X99840800Y-56691200D01*
X99840800Y-56691200D02*
X93300800Y-56691200D01*
X93300800Y-56691200D02*
X93300800Y-56361200D01*
X99840800Y-54281200D02*
X99840800Y-53951200D01*
X99840800Y-53951200D02*
X93300800Y-53951200D01*
X93300800Y-53951200D02*
X93300800Y-54281200D01*
X102944600Y-85655400D02*
X102614600Y-85655400D01*
X102944600Y-92195400D02*
X102944600Y-85655400D01*
X102614600Y-92195400D02*
X102944600Y-92195400D01*
X100204600Y-85655400D02*
X100534600Y-85655400D01*
X100204600Y-92195400D02*
X100204600Y-85655400D01*
X100534600Y-92195400D02*
X100204600Y-92195400D01*
X105484800Y-56369200D02*
X105814800Y-56369200D01*
X105814800Y-56369200D02*
X105814800Y-62909200D01*
X105814800Y-62909200D02*
X105484800Y-62909200D01*
X103404800Y-56369200D02*
X103074800Y-56369200D01*
X103074800Y-56369200D02*
X103074800Y-62909200D01*
X103074800Y-62909200D02*
X103404800Y-62909200D01*
X92577965Y-68839191D02*
X92085561Y-68752366D01*
X92375175Y-68549577D02*
X92288351Y-69041980D01*
X90263566Y-73666411D02*
X89704195Y-73567779D01*
X90500957Y-73667652D02*
X89480696Y-73487753D01*
X90664488Y-73655870D02*
X89331058Y-73420750D01*
X90797489Y-73638705D02*
X89211948Y-73359131D01*
X90912764Y-73618413D02*
X89110565Y-73300637D01*
X91014251Y-73595691D02*
X89022970Y-73244575D01*
X91106875Y-73571406D02*
X88944238Y-73190075D01*
X91192606Y-73545906D02*
X88872399Y-73136791D01*
X89015248Y-73121362D02*
X88807454Y-73084722D01*
X91271443Y-73519190D02*
X91063648Y-73482550D01*
X89022194Y-73081970D02*
X88747433Y-73033522D01*
X91345356Y-73491606D02*
X91070594Y-73443158D01*
X89029140Y-73042577D02*
X88691351Y-72983016D01*
X91415329Y-73463327D02*
X91077540Y-73403766D01*
X89036086Y-73003185D02*
X88639208Y-72933205D01*
X91481364Y-73434354D02*
X91084486Y-73364373D01*
X89043032Y-72963793D02*
X88590020Y-72883915D01*
X91544444Y-73404859D02*
X91091432Y-73324981D01*
X89049978Y-72924401D02*
X88543787Y-72835145D01*
X91604569Y-73374844D02*
X91098378Y-73285589D01*
X89056924Y-72885008D02*
X88500507Y-72786897D01*
X91661740Y-73344308D02*
X91105324Y-73246196D01*
X89063870Y-72845616D02*
X88460183Y-72739170D01*
X91715957Y-73313250D02*
X91112270Y-73206804D01*
X89070816Y-72806224D02*
X88421827Y-72691789D01*
X91768204Y-73281846D02*
X91119216Y-73167412D01*
X89077762Y-72766831D02*
X88385442Y-72644757D01*
X91818482Y-73250094D02*
X91126162Y-73128019D01*
X89084707Y-72727439D02*
X88351026Y-72598071D01*
X91866789Y-73217995D02*
X91133108Y-73088627D01*
X89091653Y-72688047D02*
X88317595Y-72551559D01*
X91914112Y-73185722D02*
X91140054Y-73049235D01*
X89098599Y-72648654D02*
X88287118Y-72505568D01*
X91958481Y-73152929D02*
X91146999Y-73009843D01*
X89105545Y-72609262D02*
X88257626Y-72459751D01*
X92001865Y-73119961D02*
X91153945Y-72970450D01*
X89112491Y-72569870D02*
X88229119Y-72414107D01*
X92044264Y-73086820D02*
X91160891Y-72931058D01*
X89119437Y-72530477D02*
X88202581Y-72368811D01*
X92084693Y-73053332D02*
X91167837Y-72891666D01*
X89126383Y-72491085D02*
X88177028Y-72323688D01*
X92124138Y-73019670D02*
X91174783Y-72852273D01*
X89133329Y-72451693D02*
X88153445Y-72278913D01*
X92161613Y-72985661D02*
X91181729Y-72812881D01*
X89140275Y-72412300D02*
X88130847Y-72234311D01*
X92198103Y-72951478D02*
X91188675Y-72773489D01*
X89147221Y-72372908D02*
X88108249Y-72189709D01*
X92234593Y-72917295D02*
X91195621Y-72734096D01*
X89154167Y-72333516D02*
X88088605Y-72145629D01*
X92268129Y-72882591D02*
X91202567Y-72694704D01*
X89161113Y-72294124D02*
X88068961Y-72101548D01*
X92301665Y-72847888D02*
X91209513Y-72655312D01*
X89168059Y-72254731D02*
X88050302Y-72057641D01*
X92334216Y-72813010D02*
X91216459Y-72615919D01*
X89175005Y-72215339D02*
X88032628Y-72013907D01*
X92365782Y-72777959D02*
X91223405Y-72576527D01*
X89181950Y-72175947D02*
X88015938Y-71970347D01*
X92396363Y-72742734D02*
X91230351Y-72537135D01*
X89188896Y-72136554D02*
X88000233Y-71926961D01*
X92425959Y-72707336D02*
X91237297Y-72497743D01*
X89195842Y-72097162D02*
X87986498Y-71883922D01*
X92453586Y-72671590D02*
X91244242Y-72458350D01*
X89202788Y-72057770D02*
X87971779Y-71840709D01*
X92482198Y-72636018D02*
X91251188Y-72418958D01*
X89209734Y-72018377D02*
X87959028Y-71797844D01*
X92508840Y-72600099D02*
X91258134Y-72379566D01*
X89216680Y-71978985D02*
X87947263Y-71755153D01*
X92534497Y-72564006D02*
X91265080Y-72340173D01*
X89223626Y-71939593D02*
X87935497Y-71712461D01*
X92560155Y-72527913D02*
X91272026Y-72300781D01*
X89230572Y-71900200D02*
X87925702Y-71670117D01*
X92583842Y-72491473D02*
X91278972Y-72261389D01*
X89237518Y-71860808D02*
X87915906Y-71627772D01*
X92607530Y-72455032D02*
X91285918Y-72221996D01*
X89244464Y-71821416D02*
X87907095Y-71585602D01*
X92630233Y-72418418D02*
X91292864Y-72182604D01*
X89251410Y-71782024D02*
X87898284Y-71543431D01*
X92652936Y-72381804D02*
X91299810Y-72143212D01*
X89258356Y-71742631D02*
X87891443Y-71501608D01*
X92673669Y-72344843D02*
X91306756Y-72103819D01*
X89265302Y-71703239D02*
X87884601Y-71459784D01*
X92694402Y-72307882D02*
X91313702Y-72064427D01*
X89272248Y-71663847D02*
X87878745Y-71418134D01*
X92714151Y-72270747D02*
X91320648Y-72025035D01*
X89279193Y-71624454D02*
X87872888Y-71376485D01*
X92733899Y-72233612D02*
X91327594Y-71985642D01*
X89286139Y-71585062D02*
X87868016Y-71335009D01*
X92752663Y-72196304D02*
X91334540Y-71946250D01*
X89293259Y-71544685D02*
X87864303Y-71292721D01*
X92770615Y-72157837D02*
X91341659Y-71905873D01*
X89300205Y-71505293D02*
X87861401Y-71251593D01*
X92787409Y-72120181D02*
X91348605Y-71866481D01*
X89307151Y-71465900D02*
X87858499Y-71210464D01*
X92804203Y-72082525D02*
X91355551Y-71827088D01*
X89314097Y-71426508D02*
X87856581Y-71169509D01*
X92820012Y-72044695D02*
X91362497Y-71787696D01*
X89321043Y-71387116D02*
X87855649Y-71128727D01*
X92834837Y-72006692D02*
X91369443Y-71748304D01*
X89327989Y-71347723D02*
X87854716Y-71087946D01*
X92849661Y-71968689D02*
X91376389Y-71708912D01*
X89334935Y-71308331D02*
X87854768Y-71047338D01*
X92863501Y-71930512D02*
X91383335Y-71669519D01*
X89341880Y-71268939D02*
X87854821Y-71006730D01*
X92877340Y-71892336D02*
X91390281Y-71630127D01*
X89348826Y-71229546D02*
X87855858Y-70966296D01*
X92890195Y-71853985D02*
X91397226Y-71590735D01*
X89355772Y-71190154D02*
X87857880Y-70926035D01*
X92902065Y-71815461D02*
X91404172Y-71551342D01*
X89362718Y-71150762D02*
X87860886Y-70885948D01*
X92912950Y-71776763D02*
X91411118Y-71511950D01*
X89369664Y-71111369D02*
X87863893Y-70845861D01*
X92923835Y-71738066D02*
X91418064Y-71472558D01*
X92934720Y-71699368D02*
X87866900Y-70805774D01*
X92944621Y-71660497D02*
X87870891Y-70765861D01*
X92953536Y-71621452D02*
X87875868Y-70726122D01*
X92961467Y-71582233D02*
X87881829Y-70686556D01*
X92969398Y-71543014D02*
X87887790Y-70646990D01*
X92976344Y-71503622D02*
X87894736Y-70607597D01*
X93055540Y-71055610D02*
G75*
G03X93055540Y-71055610I-2620000J0D01*
G01*
X96685514Y-91330756D02*
G75*
G03X96685514Y-91330756I-2619999J0D01*
G01*
X96041910Y-92989148D02*
X92089121Y-89672364D01*
X96016199Y-93019789D02*
X92063409Y-89703005D01*
X95989721Y-93049788D02*
X92038464Y-89734290D01*
X95963244Y-93079787D02*
X92013518Y-89765574D01*
X95936000Y-93109144D02*
X91989339Y-89797502D01*
X95907990Y-93137857D02*
X91965926Y-89830072D01*
X95879215Y-93165928D02*
X94707933Y-92183105D01*
X93114560Y-90846107D02*
X91943278Y-89863285D01*
X95850439Y-93193998D02*
X94682221Y-92213747D01*
X93088849Y-90876749D02*
X91920631Y-89896498D01*
X95821663Y-93222069D02*
X94656510Y-92244389D01*
X93063137Y-90907391D02*
X91897984Y-89929711D01*
X95792122Y-93249497D02*
X94630798Y-92275031D01*
X93037426Y-90938032D02*
X91876102Y-89963566D01*
X95761814Y-93276282D02*
X94605087Y-92305672D01*
X93011714Y-90968674D02*
X91854987Y-89998065D01*
X95730740Y-93302424D02*
X94579375Y-92336314D01*
X92986003Y-90999316D02*
X91834638Y-90033206D01*
X95699666Y-93328566D02*
X94553664Y-92366956D01*
X92960291Y-91029958D02*
X91814289Y-90068348D01*
X95667826Y-93354066D02*
X94527952Y-92397598D01*
X92934580Y-91060600D02*
X91794706Y-90104132D01*
X95635986Y-93379565D02*
X94502241Y-92428240D01*
X92908868Y-91091241D02*
X91775122Y-90139916D01*
X95603381Y-93404422D02*
X94476529Y-92458881D01*
X92883157Y-91121883D02*
X91756305Y-90176343D01*
X95570009Y-93428636D02*
X94450818Y-92489523D01*
X92857445Y-91152525D02*
X91738254Y-90213412D01*
X95536637Y-93452850D02*
X94425106Y-92520165D01*
X92831734Y-91183167D02*
X91720203Y-90250482D01*
X95501856Y-93477187D02*
X94398752Y-92551573D01*
X92805379Y-91214574D02*
X91702275Y-90288960D01*
X95466952Y-93500115D02*
X94373040Y-92582214D01*
X92779668Y-91245216D02*
X91685756Y-90327316D01*
X95431282Y-93522401D02*
X94347329Y-92612856D01*
X92753956Y-91275858D02*
X91670004Y-90366314D01*
X95395612Y-93544686D02*
X94321617Y-92643498D01*
X92728245Y-91306500D02*
X91654251Y-90405312D01*
X95359176Y-93566329D02*
X94295906Y-92674140D01*
X92702533Y-91337142D02*
X91639264Y-90444952D01*
X95322739Y-93587972D02*
X94270194Y-92704782D01*
X92676822Y-91367783D02*
X91624277Y-90484593D01*
X95284771Y-93608329D02*
X94244483Y-92735423D01*
X92651110Y-91398425D02*
X91610822Y-90525520D01*
X95246803Y-93628686D02*
X94218771Y-92766065D01*
X92625399Y-91429067D02*
X91597367Y-90566446D01*
X95208069Y-93648401D02*
X94193060Y-92796707D01*
X92599687Y-91459709D02*
X91584678Y-90608015D01*
X95169334Y-93668115D02*
X94167348Y-92827349D01*
X92573976Y-91490350D02*
X91571990Y-90649584D01*
X95129068Y-93686544D02*
X94141637Y-92857990D01*
X92548264Y-91520992D02*
X91560833Y-90692439D01*
X95088802Y-93704973D02*
X94115925Y-92888632D01*
X92522553Y-91551634D02*
X91549676Y-90735294D01*
X95047769Y-93722759D02*
X94090214Y-92919274D01*
X92496841Y-91582276D02*
X91539286Y-90778791D01*
X95005205Y-93739259D02*
X94064502Y-92949916D01*
X92471130Y-91612918D02*
X91530427Y-90823574D01*
X94963406Y-93756402D02*
X94038791Y-92980558D01*
X92445418Y-91643559D02*
X91520803Y-90867715D01*
X94920076Y-93772260D02*
X94013079Y-93011199D01*
X92419707Y-91674201D02*
X91512710Y-90913141D01*
X94875979Y-93787475D02*
X93987368Y-93041841D01*
X92393995Y-91704843D02*
X91505384Y-90959209D01*
X94831117Y-93802047D02*
X93961656Y-93072483D01*
X92368284Y-91735485D02*
X91498823Y-91005921D01*
X94785488Y-93815976D02*
X93935945Y-93103125D01*
X92342572Y-91766126D02*
X91493029Y-91053275D01*
X94739093Y-93829263D02*
X93910233Y-93133766D01*
X92316861Y-91796768D02*
X91488001Y-91101272D01*
X94692699Y-93842549D02*
X93884522Y-93164408D01*
X92291149Y-91827410D02*
X91482972Y-91149269D01*
X94644006Y-93853907D02*
X93858810Y-93195050D01*
X92265438Y-91858052D02*
X91480242Y-91199195D01*
X94595313Y-93865265D02*
X93833099Y-93225692D01*
X92239726Y-91888694D02*
X91477512Y-91249120D01*
X94545854Y-93875981D02*
X93807387Y-93256334D01*
X92214015Y-91919335D02*
X91475548Y-91299688D01*
X94494863Y-93885411D02*
X93781676Y-93286975D01*
X92188303Y-91949977D02*
X91475116Y-91351542D01*
X94443106Y-93894198D02*
X93755964Y-93317617D01*
X92162592Y-91980619D02*
X91475450Y-91404038D01*
X94389817Y-93901699D02*
X93730253Y-93348259D01*
X92136880Y-92011261D02*
X91477316Y-91457821D01*
X94335762Y-93908558D02*
X93704541Y-93378901D01*
X92111169Y-92041902D02*
X91479948Y-91512245D01*
X94280941Y-93914774D02*
X93678830Y-93409542D01*
X92085457Y-92072544D02*
X91483346Y-91567313D01*
X94223821Y-93919061D02*
X93653118Y-93440184D01*
X92059746Y-92103186D02*
X91489043Y-91624309D01*
X94165936Y-93922706D02*
X93627407Y-93470826D01*
X92034034Y-92133828D02*
X91495505Y-91681948D01*
X94106518Y-93925065D02*
X93601695Y-93501468D01*
X92008323Y-92164470D02*
X91503499Y-91740873D01*
X94045569Y-93926138D02*
X93575984Y-93532110D01*
X91982611Y-92195111D02*
X91513026Y-91801083D01*
X93983087Y-93925926D02*
X93550272Y-93562751D01*
X91956900Y-92225753D02*
X91524085Y-91862578D01*
X93918308Y-93923786D02*
X93524561Y-93593393D01*
X91931188Y-92256395D02*
X91537441Y-91926002D01*
X93851230Y-93919717D02*
X93498849Y-93624035D01*
X91905477Y-92287037D02*
X91553096Y-91991354D01*
X93781854Y-93913720D02*
X93473138Y-93654677D01*
X91879765Y-92317678D02*
X91571049Y-92058635D01*
X93710179Y-93905795D02*
X93447426Y-93685318D01*
X91854054Y-92348320D02*
X91591300Y-92127844D01*
X93635441Y-93895298D02*
X93421715Y-93715960D01*
X91828342Y-92378962D02*
X91614616Y-92199624D01*
X93557639Y-93882230D02*
X93396003Y-93746602D01*
X91802631Y-92409604D02*
X91640995Y-92273976D01*
X93476006Y-93865949D02*
X91671205Y-92351541D01*
X93389011Y-93845167D02*
X91706777Y-92433606D01*
X93296653Y-93819887D02*
X91747712Y-92520170D01*
X93197402Y-93788821D02*
X91795540Y-92612519D01*
X93087425Y-93748756D02*
X91854094Y-92713868D01*
X92963660Y-93697121D02*
X91926436Y-92826786D01*
X92816147Y-93625559D02*
X92022525Y-92959631D01*
X92611182Y-93505789D02*
X92176068Y-93140685D01*
X96998306Y-90130285D02*
X96676912Y-90513307D01*
X97029120Y-90482493D02*
X96646098Y-90161099D01*
X100992600Y-33994575D02*
X101492600Y-33994575D01*
X101242600Y-34244575D02*
X101242600Y-33744575D01*
X102433600Y-28838800D02*
X103001600Y-28838800D01*
X102199600Y-28878800D02*
X103235600Y-28878800D01*
X102040600Y-28918800D02*
X103394600Y-28918800D01*
X101912600Y-28958800D02*
X103522600Y-28958800D01*
X101802600Y-28998800D02*
X103632600Y-28998800D01*
X101706600Y-29038800D02*
X103728600Y-29038800D01*
X101619600Y-29078800D02*
X103815600Y-29078800D01*
X101539600Y-29118800D02*
X103895600Y-29118800D01*
X103757600Y-29158800D02*
X103968600Y-29158800D01*
X101466600Y-29158800D02*
X101677600Y-29158800D01*
X103757600Y-29198800D02*
X104036600Y-29198800D01*
X101398600Y-29198800D02*
X101677600Y-29198800D01*
X103757600Y-29238800D02*
X104100600Y-29238800D01*
X101334600Y-29238800D02*
X101677600Y-29238800D01*
X103757600Y-29278800D02*
X104160600Y-29278800D01*
X101274600Y-29278800D02*
X101677600Y-29278800D01*
X103757600Y-29318800D02*
X104217600Y-29318800D01*
X101217600Y-29318800D02*
X101677600Y-29318800D01*
X103757600Y-29358800D02*
X104271600Y-29358800D01*
X101163600Y-29358800D02*
X101677600Y-29358800D01*
X103757600Y-29398800D02*
X104322600Y-29398800D01*
X101112600Y-29398800D02*
X101677600Y-29398800D01*
X103757600Y-29438800D02*
X104370600Y-29438800D01*
X101064600Y-29438800D02*
X101677600Y-29438800D01*
X103757600Y-29478800D02*
X104416600Y-29478800D01*
X101018600Y-29478800D02*
X101677600Y-29478800D01*
X103757600Y-29518800D02*
X104460600Y-29518800D01*
X100974600Y-29518800D02*
X101677600Y-29518800D01*
X103757600Y-29558800D02*
X104502600Y-29558800D01*
X100932600Y-29558800D02*
X101677600Y-29558800D01*
X103757600Y-29598800D02*
X104543600Y-29598800D01*
X100891600Y-29598800D02*
X101677600Y-29598800D01*
X103757600Y-29638800D02*
X104581600Y-29638800D01*
X100853600Y-29638800D02*
X101677600Y-29638800D01*
X103757600Y-29678800D02*
X104618600Y-29678800D01*
X100816600Y-29678800D02*
X101677600Y-29678800D01*
X103757600Y-29718800D02*
X104654600Y-29718800D01*
X100780600Y-29718800D02*
X101677600Y-29718800D01*
X103757600Y-29758800D02*
X104688600Y-29758800D01*
X100746600Y-29758800D02*
X101677600Y-29758800D01*
X103757600Y-29798800D02*
X104721600Y-29798800D01*
X100713600Y-29798800D02*
X101677600Y-29798800D01*
X103757600Y-29838800D02*
X104752600Y-29838800D01*
X100682600Y-29838800D02*
X101677600Y-29838800D01*
X103757600Y-29878800D02*
X104782600Y-29878800D01*
X100652600Y-29878800D02*
X101677600Y-29878800D01*
X103757600Y-29918800D02*
X104812600Y-29918800D01*
X100622600Y-29918800D02*
X101677600Y-29918800D01*
X103757600Y-29958800D02*
X104839600Y-29958800D01*
X100595600Y-29958800D02*
X101677600Y-29958800D01*
X103757600Y-29998800D02*
X104866600Y-29998800D01*
X100568600Y-29998800D02*
X101677600Y-29998800D01*
X103757600Y-30038800D02*
X104892600Y-30038800D01*
X100542600Y-30038800D02*
X101677600Y-30038800D01*
X103757600Y-30078800D02*
X104917600Y-30078800D01*
X100517600Y-30078800D02*
X101677600Y-30078800D01*
X103757600Y-30118800D02*
X104941600Y-30118800D01*
X100493600Y-30118800D02*
X101677600Y-30118800D01*
X103757600Y-30158800D02*
X104964600Y-30158800D01*
X100470600Y-30158800D02*
X101677600Y-30158800D01*
X103757600Y-30198800D02*
X104985600Y-30198800D01*
X100449600Y-30198800D02*
X101677600Y-30198800D01*
X103757600Y-30238800D02*
X105007600Y-30238800D01*
X100427600Y-30238800D02*
X101677600Y-30238800D01*
X103757600Y-30278800D02*
X105027600Y-30278800D01*
X100407600Y-30278800D02*
X101677600Y-30278800D01*
X103757600Y-30318800D02*
X105046600Y-30318800D01*
X100388600Y-30318800D02*
X101677600Y-30318800D01*
X103757600Y-30358800D02*
X105065600Y-30358800D01*
X100369600Y-30358800D02*
X101677600Y-30358800D01*
X103757600Y-30398800D02*
X105082600Y-30398800D01*
X100352600Y-30398800D02*
X101677600Y-30398800D01*
X103757600Y-30438800D02*
X105099600Y-30438800D01*
X100335600Y-30438800D02*
X101677600Y-30438800D01*
X103757600Y-30478800D02*
X105115600Y-30478800D01*
X100319600Y-30478800D02*
X101677600Y-30478800D01*
X103757600Y-30518800D02*
X105131600Y-30518800D01*
X100303600Y-30518800D02*
X101677600Y-30518800D01*
X103757600Y-30558800D02*
X105145600Y-30558800D01*
X100289600Y-30558800D02*
X101677600Y-30558800D01*
X103757600Y-30598800D02*
X105159600Y-30598800D01*
X100275600Y-30598800D02*
X101677600Y-30598800D01*
X103757600Y-30638800D02*
X105172600Y-30638800D01*
X100262600Y-30638800D02*
X101677600Y-30638800D01*
X103757600Y-30678800D02*
X105185600Y-30678800D01*
X100249600Y-30678800D02*
X101677600Y-30678800D01*
X103757600Y-30718800D02*
X105197600Y-30718800D01*
X100237600Y-30718800D02*
X101677600Y-30718800D01*
X103757600Y-30759800D02*
X105208600Y-30759800D01*
X100226600Y-30759800D02*
X101677600Y-30759800D01*
X103757600Y-30799800D02*
X105218600Y-30799800D01*
X100216600Y-30799800D02*
X101677600Y-30799800D01*
X103757600Y-30839800D02*
X105228600Y-30839800D01*
X100206600Y-30839800D02*
X101677600Y-30839800D01*
X103757600Y-30879800D02*
X105237600Y-30879800D01*
X100197600Y-30879800D02*
X101677600Y-30879800D01*
X103757600Y-30919800D02*
X105245600Y-30919800D01*
X100189600Y-30919800D02*
X101677600Y-30919800D01*
X103757600Y-30959800D02*
X105253600Y-30959800D01*
X100181600Y-30959800D02*
X101677600Y-30959800D01*
X103757600Y-30999800D02*
X105260600Y-30999800D01*
X100174600Y-30999800D02*
X101677600Y-30999800D01*
X103757600Y-31039800D02*
X105267600Y-31039800D01*
X100167600Y-31039800D02*
X101677600Y-31039800D01*
X103757600Y-31079800D02*
X105273600Y-31079800D01*
X100161600Y-31079800D02*
X101677600Y-31079800D01*
X103757600Y-31119800D02*
X105278600Y-31119800D01*
X100156600Y-31119800D02*
X101677600Y-31119800D01*
X103757600Y-31159800D02*
X105282600Y-31159800D01*
X100152600Y-31159800D02*
X101677600Y-31159800D01*
X103757600Y-31199800D02*
X105286600Y-31199800D01*
X100148600Y-31199800D02*
X101677600Y-31199800D01*
X100144600Y-31239800D02*
X105290600Y-31239800D01*
X100141600Y-31279800D02*
X105293600Y-31279800D01*
X100139600Y-31319800D02*
X105295600Y-31319800D01*
X100138600Y-31359800D02*
X105296600Y-31359800D01*
X100137600Y-31399800D02*
X105297600Y-31399800D01*
X100137600Y-31439800D02*
X105297600Y-31439800D01*
X105337600Y-31439800D02*
G75*
G03X105337600Y-31439800I-2620000J0D01*
G01*
X87285200Y-31616000D02*
X97525200Y-31616000D01*
X87285200Y-15726000D02*
X97525200Y-15726000D01*
X87285200Y-15726000D02*
X87285200Y-31616000D01*
X97525200Y-15726000D02*
X97525200Y-31616000D01*
X92405200Y-31616000D02*
X92405200Y-34156000D01*
X96215200Y-31623000D02*
X96215200Y-34163000D01*
X88595200Y-34163000D02*
X88595200Y-31623000D01*
X50446603Y-86134366D02*
X50753021Y-86391481D01*
X54055889Y-82766420D02*
X53284544Y-83685674D01*
X53060031Y-81930797D02*
X54055889Y-82766420D01*
X47688843Y-83820330D02*
X45084292Y-81634852D01*
X53774123Y-82791072D02*
X48105394Y-78034443D01*
X38732892Y-100716512D02*
X53774123Y-82791072D01*
X33064164Y-95959883D02*
X38732892Y-100716512D01*
X48105394Y-78034443D02*
X33064164Y-95959883D01*
X97692600Y-76068400D02*
X101392600Y-76068400D01*
X101392600Y-76068400D02*
X101392600Y-78668400D01*
X101392600Y-78668400D02*
X97692600Y-78668400D01*
X97692600Y-76068400D02*
X97692600Y-78668400D01*
D11*
X59232496Y-106374266D02*
X58531428Y-106779028D01*
X58472759Y-106867886D01*
X58455329Y-106932935D01*
X58461709Y-107039223D01*
X58556947Y-107204181D01*
X58645805Y-107262850D01*
X58710854Y-107280279D01*
X58817142Y-107273900D01*
X59518210Y-106869138D01*
X59152185Y-108235163D02*
X58866471Y-107740292D01*
X59009328Y-107987727D02*
X59875353Y-107487727D01*
X59704016Y-107476677D01*
X59573919Y-107441818D01*
X59485060Y-107383149D01*
X82256333Y-32615142D02*
X82208714Y-32662761D01*
X82065857Y-32710380D01*
X81970619Y-32710380D01*
X81827761Y-32662761D01*
X81732523Y-32567523D01*
X81684904Y-32472285D01*
X81637285Y-32281809D01*
X81637285Y-32138952D01*
X81684904Y-31948476D01*
X81732523Y-31853238D01*
X81827761Y-31758000D01*
X81970619Y-31710380D01*
X82065857Y-31710380D01*
X82208714Y-31758000D01*
X82256333Y-31805619D01*
X82589666Y-31710380D02*
X83208714Y-31710380D01*
X82875380Y-32091333D01*
X83018238Y-32091333D01*
X83113476Y-32138952D01*
X83161095Y-32186571D01*
X83208714Y-32281809D01*
X83208714Y-32519904D01*
X83161095Y-32615142D01*
X83113476Y-32662761D01*
X83018238Y-32710380D01*
X82732523Y-32710380D01*
X82637285Y-32662761D01*
X82589666Y-32615142D01*
X15333333Y-33203142D02*
X15285714Y-33250761D01*
X15142857Y-33298380D01*
X15047619Y-33298380D01*
X14904761Y-33250761D01*
X14809523Y-33155523D01*
X14761904Y-33060285D01*
X14714285Y-32869809D01*
X14714285Y-32726952D01*
X14761904Y-32536476D01*
X14809523Y-32441238D01*
X14904761Y-32346000D01*
X15047619Y-32298380D01*
X15142857Y-32298380D01*
X15285714Y-32346000D01*
X15333333Y-32393619D01*
X16285714Y-33298380D02*
X15714285Y-33298380D01*
X16000000Y-33298380D02*
X16000000Y-32298380D01*
X15904761Y-32441238D01*
X15809523Y-32536476D01*
X15714285Y-32584095D01*
X95010361Y-64434980D02*
X94677028Y-63958790D01*
X94438933Y-64434980D02*
X94438933Y-63434980D01*
X94819885Y-63434980D01*
X94915123Y-63482600D01*
X94962742Y-63530219D01*
X95010361Y-63625457D01*
X95010361Y-63768314D01*
X94962742Y-63863552D01*
X94915123Y-63911171D01*
X94819885Y-63958790D01*
X94438933Y-63958790D01*
X95296076Y-63434980D02*
X95629409Y-64434980D01*
X95962742Y-63434980D01*
X96248457Y-63530219D02*
X96296076Y-63482600D01*
X96391314Y-63434980D01*
X96629409Y-63434980D01*
X96724647Y-63482600D01*
X96772266Y-63530219D01*
X96819885Y-63625457D01*
X96819885Y-63720695D01*
X96772266Y-63863552D01*
X96200838Y-64434980D01*
X96819885Y-64434980D01*
X92144514Y-84290989D02*
X92390240Y-83764218D01*
X91858800Y-83796117D02*
X92724825Y-83296117D01*
X92915301Y-83626031D01*
X92921681Y-83732320D01*
X92904251Y-83797368D01*
X92845582Y-83886227D01*
X92721864Y-83957655D01*
X92615576Y-83964035D01*
X92550527Y-83946605D01*
X92461669Y-83887936D01*
X92271193Y-83558022D01*
X93153397Y-84038424D02*
X92454038Y-84827100D01*
X93486730Y-84615775D01*
X93049276Y-85858082D02*
X92763562Y-85363211D01*
X92906419Y-85610646D02*
X93772444Y-85110646D01*
X93601107Y-85099596D01*
X93471010Y-85064737D01*
X93382151Y-85006068D01*
X88979421Y-58215871D02*
X88914372Y-58233301D01*
X88766844Y-58203111D01*
X88684366Y-58155492D01*
X88584457Y-58042825D01*
X88549598Y-57912727D01*
X88555977Y-57806439D01*
X88609976Y-57617672D01*
X88681405Y-57493954D01*
X88817882Y-57352806D01*
X88906741Y-57294137D01*
X89036838Y-57259278D01*
X89184366Y-57289467D01*
X89266844Y-57337086D01*
X89366753Y-57449754D01*
X89384182Y-57514803D01*
X89712387Y-58089192D02*
X89653718Y-58000334D01*
X89636289Y-57935285D01*
X89642668Y-57828997D01*
X89666478Y-57787758D01*
X89755336Y-57729088D01*
X89820385Y-57711659D01*
X89926673Y-57718038D01*
X90091630Y-57813277D01*
X90150299Y-57902135D01*
X90167729Y-57967184D01*
X90161349Y-58073472D01*
X90137540Y-58114711D01*
X90048682Y-58173380D01*
X89983633Y-58190810D01*
X89877345Y-58184430D01*
X89712387Y-58089192D01*
X89606099Y-58082812D01*
X89541050Y-58100242D01*
X89452192Y-58158911D01*
X89356954Y-58323869D01*
X89350574Y-58430157D01*
X89368004Y-58495205D01*
X89426673Y-58584064D01*
X89591630Y-58679302D01*
X89697918Y-58685682D01*
X89762967Y-58668252D01*
X89851826Y-58609583D01*
X89947064Y-58444626D01*
X89953443Y-58338337D01*
X89936014Y-58273289D01*
X89877345Y-58184430D01*
X85582163Y-42242861D02*
X86448189Y-41742861D01*
X86567237Y-41949057D01*
X86597426Y-42096585D01*
X86562566Y-42226682D01*
X86503897Y-42315541D01*
X86362749Y-42452018D01*
X86239032Y-42523447D01*
X86050265Y-42577445D01*
X85943977Y-42583825D01*
X85813879Y-42548966D01*
X85701211Y-42449057D01*
X85582163Y-42242861D01*
X86900570Y-42526408D02*
X87210094Y-43062519D01*
X86713513Y-42964320D01*
X86784941Y-43088037D01*
X86791321Y-43194326D01*
X86773891Y-43259374D01*
X86715222Y-43348233D01*
X86509025Y-43467280D01*
X86402737Y-43473660D01*
X86337689Y-43456230D01*
X86248830Y-43397561D01*
X86105973Y-43150125D01*
X86099593Y-43043837D01*
X86117023Y-42978788D01*
X15200333Y-67286142D02*
X15152714Y-67333761D01*
X15009857Y-67381380D01*
X14914619Y-67381380D01*
X14771761Y-67333761D01*
X14676523Y-67238523D01*
X14628904Y-67143285D01*
X14581285Y-66952809D01*
X14581285Y-66809952D01*
X14628904Y-66619476D01*
X14676523Y-66524238D01*
X14771761Y-66429000D01*
X14914619Y-66381380D01*
X15009857Y-66381380D01*
X15152714Y-66429000D01*
X15200333Y-66476619D01*
X15581285Y-66476619D02*
X15628904Y-66429000D01*
X15724142Y-66381380D01*
X15962238Y-66381380D01*
X16057476Y-66429000D01*
X16105095Y-66476619D01*
X16152714Y-66571857D01*
X16152714Y-66667095D01*
X16105095Y-66809952D01*
X15533666Y-67381380D01*
X16152714Y-67381380D01*
X80663882Y-66340658D02*
X80625255Y-66395822D01*
X80492838Y-66467525D01*
X80399046Y-66484063D01*
X80250091Y-66461974D01*
X80139761Y-66384721D01*
X80076328Y-66299199D01*
X79996356Y-66119885D01*
X79971550Y-65979198D01*
X79985369Y-65783347D01*
X80015727Y-65681287D01*
X80092980Y-65570958D01*
X80225398Y-65499255D01*
X80319189Y-65482717D01*
X80468145Y-65504806D01*
X80523310Y-65543433D01*
X81408775Y-65629069D02*
X81524541Y-66285608D01*
X81108146Y-65295249D02*
X80997702Y-66040028D01*
X81607345Y-65932532D01*
X83653333Y-74779142D02*
X83605714Y-74826761D01*
X83462857Y-74874380D01*
X83367619Y-74874380D01*
X83224761Y-74826761D01*
X83129523Y-74731523D01*
X83081904Y-74636285D01*
X83034285Y-74445809D01*
X83034285Y-74302952D01*
X83081904Y-74112476D01*
X83129523Y-74017238D01*
X83224761Y-73922000D01*
X83367619Y-73874380D01*
X83462857Y-73874380D01*
X83605714Y-73922000D01*
X83653333Y-73969619D01*
X84558095Y-73874380D02*
X84081904Y-73874380D01*
X84034285Y-74350571D01*
X84081904Y-74302952D01*
X84177142Y-74255333D01*
X84415238Y-74255333D01*
X84510476Y-74302952D01*
X84558095Y-74350571D01*
X84605714Y-74445809D01*
X84605714Y-74683904D01*
X84558095Y-74779142D01*
X84510476Y-74826761D01*
X84415238Y-74874380D01*
X84177142Y-74874380D01*
X84081904Y-74826761D01*
X84034285Y-74779142D01*
X83399333Y-58396142D02*
X83351714Y-58443761D01*
X83208857Y-58491380D01*
X83113619Y-58491380D01*
X82970761Y-58443761D01*
X82875523Y-58348523D01*
X82827904Y-58253285D01*
X82780285Y-58062809D01*
X82780285Y-57919952D01*
X82827904Y-57729476D01*
X82875523Y-57634238D01*
X82970761Y-57539000D01*
X83113619Y-57491380D01*
X83208857Y-57491380D01*
X83351714Y-57539000D01*
X83399333Y-57586619D01*
X84256476Y-57491380D02*
X84066000Y-57491380D01*
X83970761Y-57539000D01*
X83923142Y-57586619D01*
X83827904Y-57729476D01*
X83780285Y-57919952D01*
X83780285Y-58300904D01*
X83827904Y-58396142D01*
X83875523Y-58443761D01*
X83970761Y-58491380D01*
X84161238Y-58491380D01*
X84256476Y-58443761D01*
X84304095Y-58396142D01*
X84351714Y-58300904D01*
X84351714Y-58062809D01*
X84304095Y-57967571D01*
X84256476Y-57919952D01*
X84161238Y-57872333D01*
X83970761Y-57872333D01*
X83875523Y-57919952D01*
X83827904Y-57967571D01*
X83780285Y-58062809D01*
X65697838Y-84628711D02*
X65355818Y-83689018D01*
X65579554Y-83607585D01*
X65730083Y-83603472D01*
X65852151Y-83660393D01*
X65929471Y-83733601D01*
X66039365Y-83896304D01*
X66088225Y-84030545D01*
X66108625Y-84225821D01*
X66096451Y-84331602D01*
X66039530Y-84453670D01*
X65921575Y-84547278D01*
X65697838Y-84628711D01*
X66283337Y-83452779D02*
X66311797Y-83391745D01*
X66385005Y-83314425D01*
X66608742Y-83232992D01*
X66714523Y-83245165D01*
X66775557Y-83273626D01*
X66852877Y-83346834D01*
X66885451Y-83436328D01*
X66889563Y-83586857D01*
X66548036Y-84319264D01*
X67129751Y-84107537D01*
X81780548Y-81549361D02*
X82646574Y-81049361D01*
X82765622Y-81255557D01*
X82795811Y-81403085D01*
X82760951Y-81533182D01*
X82702282Y-81622041D01*
X82561134Y-81758518D01*
X82437417Y-81829947D01*
X82248650Y-81883945D01*
X82142362Y-81890325D01*
X82012264Y-81855466D01*
X81899596Y-81755557D01*
X81780548Y-81549361D01*
X83072184Y-82453207D02*
X82494834Y-82786540D01*
X83283051Y-82056534D02*
X82545414Y-82207480D01*
X82854938Y-82743591D01*
X80950327Y-76419374D02*
X81816352Y-75919374D01*
X81236041Y-76914245D02*
X81516627Y-76257377D01*
X82102066Y-76414245D02*
X81321480Y-76205088D01*
X92142565Y-51913841D02*
X91202872Y-51571820D01*
X91284306Y-51348084D01*
X91377913Y-51230129D01*
X91499981Y-51173208D01*
X91605762Y-51161034D01*
X91801038Y-51181433D01*
X91935280Y-51230293D01*
X92097982Y-51340187D01*
X92171190Y-51417508D01*
X92228111Y-51539576D01*
X92223998Y-51690104D01*
X92142565Y-51913841D01*
X91707759Y-50184655D02*
X91544893Y-50632128D01*
X91976079Y-50839742D01*
X91947618Y-50778708D01*
X91935444Y-50672927D01*
X92016877Y-50449190D01*
X92094198Y-50375982D01*
X92155232Y-50347522D01*
X92261013Y-50335348D01*
X92484750Y-50416781D01*
X92557957Y-50494102D01*
X92586418Y-50555136D01*
X92598592Y-50660917D01*
X92517159Y-50884653D01*
X92439838Y-50957861D01*
X92378804Y-50986322D01*
X18970666Y-101070380D02*
X18970666Y-101784666D01*
X18923047Y-101927523D01*
X18827809Y-102022761D01*
X18684952Y-102070380D01*
X18589714Y-102070380D01*
X19970666Y-102070380D02*
X19399238Y-102070380D01*
X19684952Y-102070380D02*
X19684952Y-101070380D01*
X19589714Y-101213238D01*
X19494476Y-101308476D01*
X19399238Y-101356095D01*
X18716666Y-91672380D02*
X18716666Y-92386666D01*
X18669047Y-92529523D01*
X18573809Y-92624761D01*
X18430952Y-92672380D01*
X18335714Y-92672380D01*
X19145238Y-91767619D02*
X19192857Y-91720000D01*
X19288095Y-91672380D01*
X19526190Y-91672380D01*
X19621428Y-91720000D01*
X19669047Y-91767619D01*
X19716666Y-91862857D01*
X19716666Y-91958095D01*
X19669047Y-92100952D01*
X19097619Y-92672380D01*
X19716666Y-92672380D01*
X18970666Y-96371380D02*
X18970666Y-97085666D01*
X18923047Y-97228523D01*
X18827809Y-97323761D01*
X18684952Y-97371380D01*
X18589714Y-97371380D01*
X19351619Y-96371380D02*
X19970666Y-96371380D01*
X19637333Y-96752333D01*
X19780190Y-96752333D01*
X19875428Y-96799952D01*
X19923047Y-96847571D01*
X19970666Y-96942809D01*
X19970666Y-97180904D01*
X19923047Y-97276142D01*
X19875428Y-97323761D01*
X19780190Y-97371380D01*
X19494476Y-97371380D01*
X19399238Y-97323761D01*
X19351619Y-97276142D01*
X101241266Y-99317780D02*
X101241266Y-100032066D01*
X101193647Y-100174923D01*
X101098409Y-100270161D01*
X100955552Y-100317780D01*
X100860314Y-100317780D01*
X102146028Y-99651114D02*
X102146028Y-100317780D01*
X101907933Y-99270161D02*
X101669838Y-99984447D01*
X102288885Y-99984447D01*
X104111466Y-50473580D02*
X104111466Y-51187866D01*
X104063847Y-51330723D01*
X103968609Y-51425961D01*
X103825752Y-51473580D01*
X103730514Y-51473580D01*
X105063847Y-50473580D02*
X104587657Y-50473580D01*
X104540038Y-50949771D01*
X104587657Y-50902152D01*
X104682895Y-50854533D01*
X104920990Y-50854533D01*
X105016228Y-50902152D01*
X105063847Y-50949771D01*
X105111466Y-51045009D01*
X105111466Y-51283104D01*
X105063847Y-51378342D01*
X105016228Y-51425961D01*
X104920990Y-51473580D01*
X104682895Y-51473580D01*
X104587657Y-51425961D01*
X104540038Y-51378342D01*
X89724394Y-79871436D02*
X89197624Y-79625710D01*
X89229523Y-80157151D02*
X88729523Y-79291125D01*
X89059437Y-79100649D01*
X89165725Y-79094269D01*
X89230774Y-79111699D01*
X89319633Y-79170368D01*
X89391061Y-79294086D01*
X89397441Y-79400374D01*
X89380011Y-79465423D01*
X89321342Y-79554281D01*
X88991428Y-79744757D01*
X90549181Y-79395246D02*
X90054309Y-79680960D01*
X90301745Y-79538103D02*
X89801745Y-78672077D01*
X89790695Y-78843414D01*
X89755835Y-78973512D01*
X89697166Y-79062370D01*
X95565933Y-59177180D02*
X95232600Y-58700990D01*
X94994504Y-59177180D02*
X94994504Y-58177180D01*
X95375457Y-58177180D01*
X95470695Y-58224800D01*
X95518314Y-58272419D01*
X95565933Y-58367657D01*
X95565933Y-58510514D01*
X95518314Y-58605752D01*
X95470695Y-58653371D01*
X95375457Y-58700990D01*
X94994504Y-58700990D01*
X95946885Y-58272419D02*
X95994504Y-58224800D01*
X96089742Y-58177180D01*
X96327838Y-58177180D01*
X96423076Y-58224800D01*
X96470695Y-58272419D01*
X96518314Y-58367657D01*
X96518314Y-58462895D01*
X96470695Y-58605752D01*
X95899266Y-59177180D01*
X96518314Y-59177180D01*
X67103736Y-88307605D02*
X66627639Y-87974139D01*
X66566769Y-88503045D02*
X66224749Y-87563352D01*
X66582727Y-87433059D01*
X66688508Y-87445233D01*
X66749542Y-87473693D01*
X66826863Y-87546901D01*
X66875723Y-87681143D01*
X66863549Y-87786924D01*
X66835089Y-87847958D01*
X66761881Y-87925279D01*
X66403903Y-88055572D01*
X67074947Y-87253906D02*
X67656662Y-87042179D01*
X67473724Y-87514164D01*
X67607966Y-87465304D01*
X67713747Y-87477478D01*
X67774781Y-87505938D01*
X67852102Y-87579146D01*
X67933535Y-87802882D01*
X67921361Y-87908664D01*
X67892901Y-87969698D01*
X67819693Y-88047018D01*
X67551209Y-88144738D01*
X67445428Y-88132564D01*
X67384394Y-88104104D01*
X96658133Y-55900580D02*
X96324800Y-55424390D01*
X96086704Y-55900580D02*
X96086704Y-54900580D01*
X96467657Y-54900580D01*
X96562895Y-54948200D01*
X96610514Y-54995819D01*
X96658133Y-55091057D01*
X96658133Y-55233914D01*
X96610514Y-55329152D01*
X96562895Y-55376771D01*
X96467657Y-55424390D01*
X96086704Y-55424390D01*
X97515276Y-55233914D02*
X97515276Y-55900580D01*
X97277180Y-54852961D02*
X97039085Y-55567247D01*
X97658133Y-55567247D01*
X102026980Y-89219066D02*
X101550790Y-89552400D01*
X102026980Y-89790495D02*
X101026980Y-89790495D01*
X101026980Y-89409542D01*
X101074600Y-89314304D01*
X101122219Y-89266685D01*
X101217457Y-89219066D01*
X101360314Y-89219066D01*
X101455552Y-89266685D01*
X101503171Y-89314304D01*
X101550790Y-89409542D01*
X101550790Y-89790495D01*
X101026980Y-88314304D02*
X101026980Y-88790495D01*
X101503171Y-88838114D01*
X101455552Y-88790495D01*
X101407933Y-88695257D01*
X101407933Y-88457161D01*
X101455552Y-88361923D01*
X101503171Y-88314304D01*
X101598409Y-88266685D01*
X101836504Y-88266685D01*
X101931742Y-88314304D01*
X101979361Y-88361923D01*
X102026980Y-88457161D01*
X102026980Y-88695257D01*
X101979361Y-88790495D01*
X101931742Y-88838114D01*
X104897180Y-59805866D02*
X104420990Y-60139200D01*
X104897180Y-60377295D02*
X103897180Y-60377295D01*
X103897180Y-59996342D01*
X103944800Y-59901104D01*
X103992419Y-59853485D01*
X104087657Y-59805866D01*
X104230514Y-59805866D01*
X104325752Y-59853485D01*
X104373371Y-59901104D01*
X104420990Y-59996342D01*
X104420990Y-60377295D01*
X103897180Y-58948723D02*
X103897180Y-59139200D01*
X103944800Y-59234438D01*
X103992419Y-59282057D01*
X104135276Y-59377295D01*
X104325752Y-59424914D01*
X104706704Y-59424914D01*
X104801942Y-59377295D01*
X104849561Y-59329676D01*
X104897180Y-59234438D01*
X104897180Y-59043961D01*
X104849561Y-58948723D01*
X104801942Y-58901104D01*
X104706704Y-58853485D01*
X104468609Y-58853485D01*
X104373371Y-58901104D01*
X104325752Y-58948723D01*
X104278133Y-59043961D01*
X104278133Y-59234438D01*
X104325752Y-59329676D01*
X104373371Y-59377295D01*
X104468609Y-59424914D01*
X89963634Y-74966217D02*
X89908469Y-75004844D01*
X89759513Y-75026933D01*
X89665722Y-75010395D01*
X89533304Y-74938692D01*
X89456051Y-74828363D01*
X89425693Y-74726303D01*
X89411873Y-74530451D01*
X89436680Y-74389765D01*
X89516652Y-74210451D01*
X89580085Y-74124929D01*
X89690414Y-74047676D01*
X89839370Y-74025587D01*
X89933161Y-74042125D01*
X90065579Y-74113827D01*
X90104206Y-74168992D01*
X90449013Y-74133083D02*
X91105552Y-74248849D01*
X90509843Y-75159236D01*
X91604240Y-94399855D02*
X91537153Y-94405724D01*
X91397109Y-94350375D01*
X91324153Y-94289158D01*
X91245327Y-94160852D01*
X91233588Y-94026678D01*
X91258328Y-93923112D01*
X91344285Y-93746590D01*
X91436112Y-93637155D01*
X91595026Y-93521851D01*
X91692722Y-93479503D01*
X91826896Y-93467765D01*
X91966940Y-93523113D01*
X92039897Y-93584331D01*
X92118723Y-93712636D01*
X92124592Y-93779723D01*
X91907806Y-94778900D02*
X92053719Y-94901336D01*
X92157284Y-94926076D01*
X92224372Y-94920206D01*
X92389155Y-94871989D01*
X92548069Y-94756685D01*
X92792941Y-94464859D01*
X92817680Y-94361293D01*
X92811811Y-94294206D01*
X92769463Y-94196510D01*
X92623550Y-94074074D01*
X92519984Y-94049334D01*
X92452897Y-94055204D01*
X92355201Y-94097551D01*
X92202156Y-94279943D01*
X92177417Y-94383508D01*
X92183286Y-94450596D01*
X92225634Y-94548292D01*
X92371547Y-94670728D01*
X92475112Y-94695467D01*
X92542200Y-94689598D01*
X92639896Y-94647250D01*
X102074742Y-28093942D02*
X102027123Y-28141561D01*
X101884266Y-28189180D01*
X101789028Y-28189180D01*
X101646171Y-28141561D01*
X101550933Y-28046323D01*
X101503314Y-27951085D01*
X101455695Y-27760609D01*
X101455695Y-27617752D01*
X101503314Y-27427276D01*
X101550933Y-27332038D01*
X101646171Y-27236800D01*
X101789028Y-27189180D01*
X101884266Y-27189180D01*
X102027123Y-27236800D01*
X102074742Y-27284419D01*
X103027123Y-28189180D02*
X102455695Y-28189180D01*
X102741409Y-28189180D02*
X102741409Y-27189180D01*
X102646171Y-27332038D01*
X102550933Y-27427276D01*
X102455695Y-27474895D01*
X103646171Y-27189180D02*
X103741409Y-27189180D01*
X103836647Y-27236800D01*
X103884266Y-27284419D01*
X103931885Y-27379657D01*
X103979504Y-27570133D01*
X103979504Y-27808228D01*
X103931885Y-27998704D01*
X103884266Y-28093942D01*
X103836647Y-28141561D01*
X103741409Y-28189180D01*
X103646171Y-28189180D01*
X103550933Y-28141561D01*
X103503314Y-28093942D01*
X103455695Y-27998704D01*
X103408076Y-27808228D01*
X103408076Y-27570133D01*
X103455695Y-27379657D01*
X103503314Y-27284419D01*
X103550933Y-27236800D01*
X103646171Y-27189180D01*
X91643295Y-14178380D02*
X91643295Y-14987904D01*
X91690914Y-15083142D01*
X91738533Y-15130761D01*
X91833771Y-15178380D01*
X92024247Y-15178380D01*
X92119485Y-15130761D01*
X92167104Y-15083142D01*
X92214723Y-14987904D01*
X92214723Y-14178380D01*
X92643295Y-14273619D02*
X92690914Y-14226000D01*
X92786152Y-14178380D01*
X93024247Y-14178380D01*
X93119485Y-14226000D01*
X93167104Y-14273619D01*
X93214723Y-14368857D01*
X93214723Y-14464095D01*
X93167104Y-14606952D01*
X92595676Y-15178380D01*
X93214723Y-15178380D01*
X46763099Y-93405986D02*
X45997054Y-92763199D01*
X46150099Y-92580807D01*
X46278404Y-92501981D01*
X46412579Y-92490242D01*
X46516144Y-92514982D01*
X46692666Y-92600939D01*
X46802101Y-92692766D01*
X46917406Y-92851680D01*
X46959753Y-92949376D01*
X46971492Y-93083551D01*
X46916144Y-93223595D01*
X46763099Y-93405986D01*
X47742585Y-92238680D02*
X47375278Y-92676420D01*
X47558931Y-92457550D02*
X46792887Y-91814763D01*
X46841104Y-91979546D01*
X46852843Y-92113720D01*
X46828103Y-92217286D01*
X99209266Y-78870780D02*
X99209266Y-79585066D01*
X99161647Y-79727923D01*
X99066409Y-79823161D01*
X98923552Y-79870780D01*
X98828314Y-79870780D01*
X100114028Y-78870780D02*
X99923552Y-78870780D01*
X99828314Y-78918400D01*
X99780695Y-78966019D01*
X99685457Y-79108876D01*
X99637838Y-79299352D01*
X99637838Y-79680304D01*
X99685457Y-79775542D01*
X99733076Y-79823161D01*
X99828314Y-79870780D01*
X100018790Y-79870780D01*
X100114028Y-79823161D01*
X100161647Y-79775542D01*
X100209266Y-79680304D01*
X100209266Y-79442209D01*
X100161647Y-79346971D01*
X100114028Y-79299352D01*
X100018790Y-79251733D01*
X99828314Y-79251733D01*
X99733076Y-79299352D01*
X99685457Y-79346971D01*
X99637838Y-79442209D01*
M02*
