G04 #@! TF.GenerationSoftware,KiCad,Pcbnew,(5.1.2-1)-1*
G04 #@! TF.CreationDate,2021-07-21T12:11:00-04:00*
G04 #@! TF.ProjectId,Power Supply,506f7765-7220-4537-9570-706c792e6b69,rev?*
G04 #@! TF.SameCoordinates,Original*
G04 #@! TF.FileFunction,Copper,L2,Bot*
G04 #@! TF.FilePolarity,Positive*
%FSLAX46Y46*%
G04 Gerber Fmt 4.6, Leading zero omitted, Abs format (unit mm)*
G04 Created by KiCad (PCBNEW (5.1.2-1)-1) date 2021-07-21 12:11:00*
%MOMM*%
%LPD*%
G04 APERTURE LIST*
%ADD10C,1.905000*%
%ADD11C,0.100000*%
%ADD12C,1.905000*%
%ADD13C,4.000000*%
%ADD14R,4.000000X4.000000*%
%ADD15C,1.550000*%
%ADD16R,1.550000X1.550000*%
%ADD17C,1.600000*%
%ADD18C,2.200000*%
%ADD19C,2.200000*%
%ADD20R,1.600000X1.600000*%
%ADD21C,1.600000*%
%ADD22O,1.600000X1.600000*%
%ADD23R,1.905000X2.000000*%
%ADD24O,1.905000X2.000000*%
%ADD25C,2.800000*%
%ADD26C,0.812800*%
G04 APERTURE END LIST*
D10*
X75057000Y-93718348D03*
D11*
G36*
X73714725Y-93393459D02*
G01*
X75446775Y-92393459D01*
X76399275Y-94043237D01*
X74667225Y-95043237D01*
X73714725Y-93393459D01*
X73714725Y-93393459D01*
G37*
D10*
X76962000Y-97017905D03*
D12*
X77003136Y-96994155D02*
X76920864Y-97041655D01*
D10*
X78867000Y-100317461D03*
D12*
X78908136Y-100293711D02*
X78825864Y-100341211D01*
D13*
X65786000Y-27846000D03*
D14*
X65786000Y-37846000D03*
X31750000Y-37846000D03*
D13*
X31750000Y-27846000D03*
D15*
X95565600Y-67077600D03*
D16*
X93065600Y-62077600D03*
D15*
X98065600Y-62077600D03*
X89960073Y-86046664D03*
X93040200Y-81381600D03*
D11*
G36*
X91981530Y-81097930D02*
G01*
X93323870Y-80322930D01*
X94098870Y-81665270D01*
X92756530Y-82440270D01*
X91981530Y-81097930D01*
X91981530Y-81097930D01*
G37*
D15*
X95540200Y-85711727D03*
D17*
X88188800Y-60426600D03*
D11*
G36*
X87895980Y-59333780D02*
G01*
X89281620Y-60133780D01*
X88481620Y-61519420D01*
X87095980Y-60719420D01*
X87895980Y-59333780D01*
X87895980Y-59333780D01*
G37*
D17*
X86938800Y-62591664D03*
D18*
X83566000Y-38100000D03*
D11*
G36*
X82063372Y-37697372D02*
G01*
X83968628Y-36597372D01*
X85068628Y-38502628D01*
X83163372Y-39602628D01*
X82063372Y-37697372D01*
X82063372Y-37697372D01*
G37*
D18*
X88646000Y-46898818D03*
D19*
X88646000Y-46898818D02*
X88646000Y-46898818D01*
D14*
X31750000Y-60960000D03*
D13*
X31750000Y-70960000D03*
X64516000Y-70960000D03*
D14*
X64516000Y-60960000D03*
D17*
X83566000Y-71588000D03*
D20*
X83566000Y-69088000D03*
X83566000Y-52832000D03*
D17*
X83566000Y-55332000D03*
D18*
X61061600Y-85699600D03*
D11*
G36*
X60404160Y-87109484D02*
G01*
X59651716Y-85042160D01*
X61719040Y-84289716D01*
X62471484Y-86357040D01*
X60404160Y-87109484D01*
X60404160Y-87109484D01*
G37*
D18*
X70608877Y-82224675D03*
D19*
X70608877Y-82224675D02*
X70608877Y-82224675D01*
D18*
X84734400Y-86268818D03*
D19*
X84734400Y-86268818D02*
X84734400Y-86268818D01*
D18*
X79654400Y-77470000D03*
D11*
G36*
X78151772Y-77067372D02*
G01*
X80057028Y-75967372D01*
X81157028Y-77872628D01*
X79251772Y-78972628D01*
X78151772Y-77067372D01*
X78151772Y-77067372D01*
G37*
D18*
X90124075Y-55394277D03*
D19*
X90124075Y-55394277D02*
X90124075Y-55394277D01*
D18*
X93599000Y-45847000D03*
D11*
G36*
X92941560Y-44437116D02*
G01*
X95008884Y-45189560D01*
X94256440Y-47256884D01*
X92189116Y-46504440D01*
X92941560Y-44437116D01*
X92941560Y-44437116D01*
G37*
D18*
X19304000Y-99568000D03*
X19050000Y-90170000D03*
X19304000Y-94869000D03*
X101574600Y-97815400D03*
X104444800Y-48971200D03*
D17*
X92959114Y-77774800D03*
D21*
X92959114Y-77774800D02*
X92959114Y-77774800D01*
D17*
X86360000Y-81584800D03*
D22*
X99415600Y-58724800D03*
D17*
X91795600Y-58724800D03*
X63525400Y-89128600D03*
X70685858Y-86522407D03*
D21*
X70685858Y-86522407D02*
X70685858Y-86522407D01*
D17*
X100380800Y-55321200D03*
D22*
X92760800Y-55321200D03*
X101574600Y-85115400D03*
D17*
X101574600Y-92735400D03*
X104444800Y-55829200D03*
D22*
X104444800Y-63449200D03*
D17*
X90218480Y-72286619D03*
X90652600Y-69824600D03*
D11*
G36*
X90003672Y-68897835D02*
G01*
X91579365Y-69175672D01*
X91301528Y-70751365D01*
X89725835Y-70473528D01*
X90003672Y-68897835D01*
X90003672Y-68897835D01*
G37*
D17*
X94869000Y-90373200D03*
D11*
G36*
X94770395Y-89246134D02*
G01*
X95996066Y-90274595D01*
X94967605Y-91500266D01*
X93741934Y-90471805D01*
X94770395Y-89246134D01*
X94770395Y-89246134D01*
G37*
D17*
X93262031Y-92288311D03*
X102717600Y-30189800D03*
D20*
X102717600Y-32689800D03*
D23*
X88595200Y-35306000D03*
D24*
X92405200Y-35306000D03*
X96215200Y-35306000D03*
D25*
X39733917Y-96256517D03*
X42999278Y-92365012D03*
X46264639Y-88473506D03*
X49530000Y-84582000D03*
D11*
G36*
X49357440Y-82609635D02*
G01*
X51502365Y-84409440D01*
X49702560Y-86554365D01*
X47557635Y-84754560D01*
X49357440Y-82609635D01*
X49357440Y-82609635D01*
G37*
D18*
X99542600Y-77368400D03*
D26*
X65786000Y-37846000D02*
X31750000Y-37846000D01*
X32918400Y-85191600D02*
X24257000Y-79730600D01*
X24257000Y-79730600D02*
X24790400Y-67665600D01*
X27660600Y-46736000D02*
X31750000Y-37846000D01*
X25008390Y-66076010D02*
X34137600Y-65989200D01*
X24790400Y-67665600D02*
X25008390Y-66076010D01*
X25008390Y-66076010D02*
X27660600Y-46736000D01*
X34137600Y-65989200D02*
X50317400Y-65989200D01*
X50317400Y-65989200D02*
X69545200Y-65608200D01*
X69545200Y-65608200D02*
X77495400Y-62433200D01*
X77495400Y-62433200D02*
X79578200Y-57277000D01*
X79578200Y-57277000D02*
X79578200Y-53365400D01*
X79578200Y-53365400D02*
X79933800Y-52781200D01*
X79933800Y-52781200D02*
X83566000Y-52832000D01*
X79933800Y-52781200D02*
X79679800Y-48793400D01*
X79679800Y-48793400D02*
X79679800Y-41706800D01*
X79679800Y-41706800D02*
X83566000Y-38100000D01*
X83566000Y-38100000D02*
X84531200Y-32842200D01*
X84531200Y-32842200D02*
X88087200Y-31013400D01*
X88087200Y-31013400D02*
X96291400Y-31165800D01*
X96291400Y-31165800D02*
X96443800Y-32054800D01*
X32918400Y-85191600D02*
X39733917Y-96256517D01*
X96443800Y-32054800D02*
X96215200Y-35306000D01*
X19050000Y-90170000D02*
X18796000Y-38049200D01*
X18796000Y-38049200D02*
X23190200Y-30276800D01*
X23190200Y-30276800D02*
X31750000Y-27846000D01*
X31750000Y-27846000D02*
X65786000Y-27846000D01*
X31750000Y-60960000D02*
X64516000Y-60960000D01*
X64516000Y-60960000D02*
X75260200Y-57810400D01*
X75260200Y-57810400D02*
X75539600Y-47421800D01*
X75539600Y-47421800D02*
X75361800Y-36855400D01*
X75361800Y-36855400D02*
X74980800Y-30251400D01*
X73948832Y-29981432D02*
X87553800Y-25781000D01*
X74980800Y-30251400D02*
X73948832Y-29981432D01*
X73948832Y-29981432D02*
X65786000Y-27846000D01*
X87553800Y-25781000D02*
X102031800Y-25781000D01*
X102031800Y-25781000D02*
X102895400Y-27508200D01*
X102895400Y-27508200D02*
X102717600Y-30189800D01*
X86938800Y-62591664D02*
X84963000Y-60731400D01*
X84963000Y-60731400D02*
X83566000Y-55332000D01*
X83566000Y-69088000D02*
X86938800Y-62591664D01*
X90652600Y-69824600D02*
X83566000Y-69088000D01*
X93700600Y-70916800D02*
X90652600Y-69824600D01*
X95704262Y-73129538D02*
X99060000Y-68326000D01*
X99542600Y-77368400D02*
X95704262Y-73129538D01*
X95704262Y-73129538D02*
X93700600Y-70916800D01*
X99060000Y-68326000D02*
X100075622Y-62509778D01*
X100075622Y-62509778D02*
X98065600Y-62077600D01*
X104444800Y-63449200D02*
X100075622Y-62509778D01*
X94869000Y-90373200D02*
X95540200Y-85711727D01*
X101574600Y-85115400D02*
X95540200Y-85711727D01*
X101574600Y-85115400D02*
X99542600Y-77368400D01*
X104444800Y-63449200D02*
X106553000Y-60198000D01*
X106553000Y-60198000D02*
X107594400Y-56489600D01*
X107594400Y-56489600D02*
X107746800Y-47294800D01*
X107746800Y-47294800D02*
X106629200Y-36931600D01*
X106629200Y-36931600D02*
X106019600Y-30632400D01*
X106019600Y-30632400D02*
X102717600Y-30189800D01*
X49530000Y-84582000D02*
X49715400Y-70960000D01*
X49715400Y-70960000D02*
X64516000Y-70960000D01*
X31750000Y-70960000D02*
X49715400Y-70960000D01*
X83566000Y-71588000D02*
X75057000Y-71653400D01*
X68707000Y-71094600D02*
X64516000Y-70960000D01*
X70608877Y-82224675D02*
X69748400Y-73482200D01*
X69748400Y-73482200D02*
X69197258Y-71137742D01*
X69197258Y-71137742D02*
X68707000Y-71094600D01*
X75057000Y-71653400D02*
X69197258Y-71137742D01*
X76962000Y-97017905D02*
X74676000Y-97942400D01*
X74676000Y-97942400D02*
X71297800Y-93649800D01*
X71297800Y-93649800D02*
X68707000Y-89839800D01*
X68707000Y-89839800D02*
X66878200Y-85775800D01*
X66878200Y-85775800D02*
X67868800Y-83058000D01*
X67868800Y-83058000D02*
X70608877Y-82224675D01*
X91795600Y-58724800D02*
X89916000Y-55880000D01*
X92760800Y-55321200D02*
X89916000Y-55880000D01*
X88188800Y-60426600D02*
X91795600Y-58724800D01*
X89916000Y-55880000D02*
X86614000Y-51257200D01*
X86131400Y-41529000D02*
X88569800Y-39293800D01*
X86614000Y-51257200D02*
X84556600Y-48437800D01*
X84556600Y-48437800D02*
X84505800Y-44754800D01*
X84505800Y-44754800D02*
X86131400Y-41529000D01*
X88569800Y-39293800D02*
X88595200Y-35306000D01*
X61061600Y-85699600D02*
X63525400Y-89128600D01*
X78867000Y-100317461D02*
X73710800Y-101930200D01*
X73710800Y-101930200D02*
X68834000Y-98221800D01*
X68834000Y-98221800D02*
X65506600Y-92964000D01*
X65506600Y-92964000D02*
X63525400Y-89128600D01*
X78867000Y-100317461D02*
X84734400Y-86268818D01*
X84734400Y-86268818D02*
X93262031Y-92288311D01*
X101574600Y-97815400D02*
X101574600Y-92735400D01*
X101574600Y-92735400D02*
X96139000Y-93700600D01*
X95312366Y-94016966D02*
X93855347Y-93880747D01*
X93855347Y-93880747D02*
X93262031Y-92288311D01*
X96139000Y-93700600D02*
X95312366Y-94016966D01*
X46264639Y-88473506D02*
X48260000Y-96266000D01*
X48260000Y-96266000D02*
X48006000Y-102362000D01*
X48006000Y-102362000D02*
X44450000Y-104902000D01*
X44450000Y-104902000D02*
X33782000Y-104648000D01*
X33782000Y-104648000D02*
X24892000Y-102362000D01*
X24892000Y-102362000D02*
X19304000Y-99568000D01*
X92959114Y-77774800D02*
X93040200Y-81381600D01*
X93040200Y-81381600D02*
X89960073Y-86046664D01*
X95565600Y-67077600D02*
X93065600Y-62077600D01*
X93065600Y-62077600D02*
X99415600Y-58724800D01*
X86360000Y-81584800D02*
X90218480Y-72286619D01*
X86360000Y-81584800D02*
X79654400Y-77470000D01*
X79654400Y-77470000D02*
X75184000Y-83947000D01*
X75184000Y-83947000D02*
X70685858Y-86522407D01*
X75057000Y-93718348D02*
X70685858Y-86522407D01*
X104444800Y-55829200D02*
X100380800Y-55321200D01*
X104444800Y-48971200D02*
X104444800Y-55829200D01*
X100380800Y-55321200D02*
X95986600Y-50850800D01*
X91511289Y-38476089D02*
X99288600Y-39928800D01*
X99288600Y-39928800D02*
X102616000Y-38328600D01*
X102616000Y-38328600D02*
X102717600Y-32689800D01*
X88646000Y-46898818D02*
X93599000Y-45847000D01*
X93599000Y-45847000D02*
X91511289Y-38476089D01*
X95986600Y-50850800D02*
X93599000Y-45847000D01*
X92405200Y-35306000D02*
X91511289Y-38476089D01*
X42999278Y-92365012D02*
X43434000Y-96774000D01*
X43434000Y-96774000D02*
X42672000Y-100838000D01*
X42672000Y-100838000D02*
X35560000Y-100838000D01*
X35560000Y-100838000D02*
X27432000Y-97282000D01*
X27432000Y-97282000D02*
X23622000Y-95504000D01*
X23622000Y-95504000D02*
X19304000Y-94869000D01*
M02*
