G04 #@! TF.GenerationSoftware,KiCad,Pcbnew,(5.1.2-1)-1*
G04 #@! TF.CreationDate,2021-01-05T14:52:28-05:00*
G04 #@! TF.ProjectId,Power Supply,506f7765-7220-4537-9570-706c792e6b69,rev?*
G04 #@! TF.SameCoordinates,Original*
G04 #@! TF.FileFunction,Soldermask,Bot*
G04 #@! TF.FilePolarity,Negative*
%FSLAX46Y46*%
G04 Gerber Fmt 4.6, Leading zero omitted, Abs format (unit mm)*
G04 Created by KiCad (PCBNEW (5.1.2-1)-1) date 2021-01-05 14:52:28*
%MOMM*%
%LPD*%
G04 APERTURE LIST*
%ADD10C,0.100000*%
G04 APERTURE END LIST*
D10*
G36*
X135655787Y-105805462D02*
G01*
X135655790Y-105805463D01*
X135655789Y-105805463D01*
X136302029Y-106073144D01*
X136883631Y-106461758D01*
X137378242Y-106956369D01*
X137766856Y-107537971D01*
X137766856Y-107537972D01*
X138034538Y-108184213D01*
X138171000Y-108870256D01*
X138171000Y-109569744D01*
X138034538Y-110255787D01*
X138034537Y-110255789D01*
X137766856Y-110902029D01*
X137378242Y-111483631D01*
X136883631Y-111978242D01*
X136302029Y-112366856D01*
X135845068Y-112556135D01*
X135655787Y-112634538D01*
X134969744Y-112771000D01*
X134270256Y-112771000D01*
X133584213Y-112634538D01*
X133394932Y-112556135D01*
X132937971Y-112366856D01*
X132356369Y-111978242D01*
X131861758Y-111483631D01*
X131473144Y-110902029D01*
X131205463Y-110255789D01*
X131205462Y-110255787D01*
X131069000Y-109569744D01*
X131069000Y-108870256D01*
X131205462Y-108184213D01*
X131473144Y-107537972D01*
X131473144Y-107537971D01*
X131861758Y-106956369D01*
X132356369Y-106461758D01*
X132937971Y-106073144D01*
X133584211Y-105805463D01*
X133584210Y-105805463D01*
X133584213Y-105805462D01*
X134270256Y-105669000D01*
X134969744Y-105669000D01*
X135655787Y-105805462D01*
X135655787Y-105805462D01*
G37*
G36*
X18688787Y-105805462D02*
G01*
X18688790Y-105805463D01*
X18688789Y-105805463D01*
X19335029Y-106073144D01*
X19916631Y-106461758D01*
X20411242Y-106956369D01*
X20799856Y-107537971D01*
X20799856Y-107537972D01*
X21067538Y-108184213D01*
X21204000Y-108870256D01*
X21204000Y-109569744D01*
X21067538Y-110255787D01*
X21067537Y-110255789D01*
X20799856Y-110902029D01*
X20411242Y-111483631D01*
X19916631Y-111978242D01*
X19335029Y-112366856D01*
X18878068Y-112556135D01*
X18688787Y-112634538D01*
X18002744Y-112771000D01*
X17303256Y-112771000D01*
X16617213Y-112634538D01*
X16427932Y-112556135D01*
X15970971Y-112366856D01*
X15389369Y-111978242D01*
X14894758Y-111483631D01*
X14506144Y-110902029D01*
X14238463Y-110255789D01*
X14238462Y-110255787D01*
X14102000Y-109569744D01*
X14102000Y-108870256D01*
X14238462Y-108184213D01*
X14506144Y-107537972D01*
X14506144Y-107537971D01*
X14894758Y-106956369D01*
X15389369Y-106461758D01*
X15970971Y-106073144D01*
X16617211Y-105805463D01*
X16617210Y-105805463D01*
X16617213Y-105805462D01*
X17303256Y-105669000D01*
X18002744Y-105669000D01*
X18688787Y-105805462D01*
X18688787Y-105805462D01*
G37*
G36*
X99236669Y-98687686D02*
G01*
X99413058Y-98705059D01*
X99752548Y-98808042D01*
X99752550Y-98808043D01*
X100065422Y-98975277D01*
X100339661Y-99200339D01*
X100564723Y-99474578D01*
X100675253Y-99681364D01*
X100731958Y-99787452D01*
X100834941Y-100126942D01*
X100869714Y-100480000D01*
X100834941Y-100833058D01*
X100731958Y-101172548D01*
X100731957Y-101172550D01*
X100564723Y-101485422D01*
X100339661Y-101759661D01*
X100065422Y-101984723D01*
X99752550Y-102151957D01*
X99752548Y-102151958D01*
X99413058Y-102254941D01*
X99236669Y-102272314D01*
X99148476Y-102281000D01*
X98971524Y-102281000D01*
X98883331Y-102272314D01*
X98706942Y-102254941D01*
X98367452Y-102151958D01*
X98367450Y-102151957D01*
X98054578Y-101984723D01*
X97780339Y-101759661D01*
X97555277Y-101485422D01*
X97388043Y-101172550D01*
X97388042Y-101172548D01*
X97285059Y-100833058D01*
X97250286Y-100480000D01*
X97285059Y-100126942D01*
X97388042Y-99787452D01*
X97444747Y-99681364D01*
X97555277Y-99474578D01*
X97780339Y-99200339D01*
X98054578Y-98975277D01*
X98367450Y-98808043D01*
X98367452Y-98808042D01*
X98706942Y-98705059D01*
X98883331Y-98687686D01*
X98971524Y-98679000D01*
X99148476Y-98679000D01*
X99236669Y-98687686D01*
X99236669Y-98687686D01*
G37*
G36*
X49953241Y-98426760D02*
G01*
X50217305Y-98536139D01*
X50454958Y-98694934D01*
X50657066Y-98897042D01*
X50815861Y-99134695D01*
X50925240Y-99398759D01*
X50981000Y-99679088D01*
X50981000Y-99964912D01*
X50925240Y-100245241D01*
X50815861Y-100509305D01*
X50657066Y-100746958D01*
X50454958Y-100949066D01*
X50217305Y-101107861D01*
X49953241Y-101217240D01*
X49672912Y-101273000D01*
X49387088Y-101273000D01*
X49106759Y-101217240D01*
X48842695Y-101107861D01*
X48605042Y-100949066D01*
X48402934Y-100746958D01*
X48244139Y-100509305D01*
X48134760Y-100245241D01*
X48079000Y-99964912D01*
X48079000Y-99679088D01*
X48134760Y-99398759D01*
X48244139Y-99134695D01*
X48402934Y-98897042D01*
X48605042Y-98694934D01*
X48842695Y-98536139D01*
X49106759Y-98426760D01*
X49387088Y-98371000D01*
X49672912Y-98371000D01*
X49953241Y-98426760D01*
X49953241Y-98426760D01*
G37*
G36*
X19528549Y-98439116D02*
G01*
X19639734Y-98461232D01*
X19787850Y-98522584D01*
X19820576Y-98536139D01*
X19849203Y-98547997D01*
X20037720Y-98673960D01*
X20198040Y-98834280D01*
X20324003Y-99022797D01*
X20324004Y-99022799D01*
X20410768Y-99232267D01*
X20443886Y-99398759D01*
X20455000Y-99454636D01*
X20455000Y-99681364D01*
X20410768Y-99903734D01*
X20324003Y-100113203D01*
X20198040Y-100301720D01*
X20037720Y-100462040D01*
X19849203Y-100588003D01*
X19639734Y-100674768D01*
X19528549Y-100696884D01*
X19417365Y-100719000D01*
X19190635Y-100719000D01*
X19079451Y-100696884D01*
X18968266Y-100674768D01*
X18758797Y-100588003D01*
X18570280Y-100462040D01*
X18409960Y-100301720D01*
X18283997Y-100113203D01*
X18197232Y-99903734D01*
X18153000Y-99681364D01*
X18153000Y-99454636D01*
X18164115Y-99398759D01*
X18197232Y-99232267D01*
X18283996Y-99022799D01*
X18283997Y-99022797D01*
X18409960Y-98834280D01*
X18570280Y-98673960D01*
X18758797Y-98547997D01*
X18787425Y-98536139D01*
X18820150Y-98522584D01*
X18968266Y-98461232D01*
X19079451Y-98439116D01*
X19190635Y-98417000D01*
X19417365Y-98417000D01*
X19528549Y-98439116D01*
X19528549Y-98439116D01*
G37*
G36*
X49953241Y-93346760D02*
G01*
X50217305Y-93456139D01*
X50454958Y-93614934D01*
X50657066Y-93817042D01*
X50815861Y-94054695D01*
X50925240Y-94318759D01*
X50981000Y-94599088D01*
X50981000Y-94884912D01*
X50925240Y-95165241D01*
X50815861Y-95429305D01*
X50657066Y-95666958D01*
X50454958Y-95869066D01*
X50217305Y-96027861D01*
X49953241Y-96137240D01*
X49672912Y-96193000D01*
X49387088Y-96193000D01*
X49106759Y-96137240D01*
X48842695Y-96027861D01*
X48605042Y-95869066D01*
X48402934Y-95666958D01*
X48244139Y-95429305D01*
X48134760Y-95165241D01*
X48079000Y-94884912D01*
X48079000Y-94599088D01*
X48134760Y-94318759D01*
X48244139Y-94054695D01*
X48402934Y-93817042D01*
X48605042Y-93614934D01*
X48842695Y-93456139D01*
X49106759Y-93346760D01*
X49387088Y-93291000D01*
X49672912Y-93291000D01*
X49953241Y-93346760D01*
X49953241Y-93346760D01*
G37*
G36*
X19528549Y-93740116D02*
G01*
X19639734Y-93762232D01*
X19849203Y-93848997D01*
X20037720Y-93974960D01*
X20198040Y-94135280D01*
X20324003Y-94323797D01*
X20410768Y-94533266D01*
X20455000Y-94755636D01*
X20455000Y-94982364D01*
X20410768Y-95204734D01*
X20324003Y-95414203D01*
X20198040Y-95602720D01*
X20037720Y-95763040D01*
X19849203Y-95889003D01*
X19639734Y-95975768D01*
X19528549Y-95997884D01*
X19417365Y-96020000D01*
X19190635Y-96020000D01*
X19079451Y-95997884D01*
X18968266Y-95975768D01*
X18758797Y-95889003D01*
X18570280Y-95763040D01*
X18409960Y-95602720D01*
X18283997Y-95414203D01*
X18197232Y-95204734D01*
X18153000Y-94982364D01*
X18153000Y-94755636D01*
X18197232Y-94533266D01*
X18283997Y-94323797D01*
X18409960Y-94135280D01*
X18570280Y-93974960D01*
X18758797Y-93848997D01*
X18968266Y-93762232D01*
X19079451Y-93740116D01*
X19190635Y-93718000D01*
X19417365Y-93718000D01*
X19528549Y-93740116D01*
X19528549Y-93740116D01*
G37*
G36*
X84971000Y-92591000D02*
G01*
X82669000Y-92591000D01*
X82669000Y-90289000D01*
X84971000Y-90289000D01*
X84971000Y-92591000D01*
X84971000Y-92591000D01*
G37*
G36*
X19274549Y-89041116D02*
G01*
X19385734Y-89063232D01*
X19595203Y-89149997D01*
X19783720Y-89275960D01*
X19944040Y-89436280D01*
X20070003Y-89624797D01*
X20156768Y-89834266D01*
X20201000Y-90056636D01*
X20201000Y-90283364D01*
X20156768Y-90505734D01*
X20070003Y-90715203D01*
X19944040Y-90903720D01*
X19783720Y-91064040D01*
X19595203Y-91190003D01*
X19385734Y-91276768D01*
X19274549Y-91298884D01*
X19163365Y-91321000D01*
X18936635Y-91321000D01*
X18825451Y-91298884D01*
X18714266Y-91276768D01*
X18504797Y-91190003D01*
X18316280Y-91064040D01*
X18155960Y-90903720D01*
X18029997Y-90715203D01*
X17943232Y-90505734D01*
X17899000Y-90283364D01*
X17899000Y-90056636D01*
X17943232Y-89834266D01*
X18029997Y-89624797D01*
X18155960Y-89436280D01*
X18316280Y-89275960D01*
X18504797Y-89149997D01*
X18714266Y-89063232D01*
X18825451Y-89041116D01*
X18936635Y-89019000D01*
X19163365Y-89019000D01*
X19274549Y-89041116D01*
X19274549Y-89041116D01*
G37*
G36*
X49953241Y-88266760D02*
G01*
X50217305Y-88376139D01*
X50454958Y-88534934D01*
X50657066Y-88737042D01*
X50815861Y-88974695D01*
X50925240Y-89238759D01*
X50981000Y-89519088D01*
X50981000Y-89804912D01*
X50925240Y-90085241D01*
X50815861Y-90349305D01*
X50657066Y-90586958D01*
X50454958Y-90789066D01*
X50217305Y-90947861D01*
X49953241Y-91057240D01*
X49672912Y-91113000D01*
X49387088Y-91113000D01*
X49106759Y-91057240D01*
X48842695Y-90947861D01*
X48605042Y-90789066D01*
X48402934Y-90586958D01*
X48244139Y-90349305D01*
X48134760Y-90085241D01*
X48079000Y-89804912D01*
X48079000Y-89519088D01*
X48134760Y-89238759D01*
X48244139Y-88974695D01*
X48402934Y-88737042D01*
X48605042Y-88534934D01*
X48842695Y-88376139D01*
X49106759Y-88266760D01*
X49387088Y-88211000D01*
X49672912Y-88211000D01*
X49953241Y-88266760D01*
X49953241Y-88266760D01*
G37*
G36*
X112945271Y-88522103D02*
G01*
X113001635Y-88527654D01*
X113218600Y-88593470D01*
X113218602Y-88593471D01*
X113418555Y-88700347D01*
X113593818Y-88844182D01*
X113737653Y-89019445D01*
X113844529Y-89219398D01*
X113844530Y-89219400D01*
X113910346Y-89436365D01*
X113932569Y-89662000D01*
X113910346Y-89887635D01*
X113850403Y-90085241D01*
X113844529Y-90104602D01*
X113737653Y-90304555D01*
X113593818Y-90479818D01*
X113418555Y-90623653D01*
X113247279Y-90715201D01*
X113218600Y-90730530D01*
X113001635Y-90796346D01*
X112945271Y-90801897D01*
X112832545Y-90813000D01*
X112719455Y-90813000D01*
X112606729Y-90801897D01*
X112550365Y-90796346D01*
X112333400Y-90730530D01*
X112304721Y-90715201D01*
X112133445Y-90623653D01*
X111958182Y-90479818D01*
X111814347Y-90304555D01*
X111707471Y-90104602D01*
X111701598Y-90085241D01*
X111641654Y-89887635D01*
X111619431Y-89662000D01*
X111641654Y-89436365D01*
X111707470Y-89219400D01*
X111707471Y-89219398D01*
X111814347Y-89019445D01*
X111958182Y-88844182D01*
X112133445Y-88700347D01*
X112333398Y-88593471D01*
X112333400Y-88593470D01*
X112550365Y-88527654D01*
X112606729Y-88522103D01*
X112719455Y-88511000D01*
X112832545Y-88511000D01*
X112945271Y-88522103D01*
X112945271Y-88522103D01*
G37*
G36*
X50981000Y-86033000D02*
G01*
X48079000Y-86033000D01*
X48079000Y-83131000D01*
X50981000Y-83131000D01*
X50981000Y-86033000D01*
X50981000Y-86033000D01*
G37*
G36*
X99256719Y-82783520D02*
G01*
X99445880Y-82840901D01*
X99445883Y-82840902D01*
X99538333Y-82890318D01*
X99620212Y-82934083D01*
X99773015Y-83059485D01*
X99898417Y-83212288D01*
X99991599Y-83386619D01*
X100048980Y-83575780D01*
X100063500Y-83723206D01*
X100063500Y-83916793D01*
X100048980Y-84064219D01*
X99991599Y-84253380D01*
X99991598Y-84253383D01*
X99942182Y-84345833D01*
X99898417Y-84427712D01*
X99773015Y-84580515D01*
X99620212Y-84705917D01*
X99445881Y-84799099D01*
X99256720Y-84856480D01*
X99060000Y-84875855D01*
X98863281Y-84856480D01*
X98674120Y-84799099D01*
X98499788Y-84705917D01*
X98346985Y-84580515D01*
X98221583Y-84427712D01*
X98128401Y-84253381D01*
X98071020Y-84064220D01*
X98056500Y-83916794D01*
X98056500Y-83723207D01*
X98071020Y-83575781D01*
X98128401Y-83386620D01*
X98128402Y-83386617D01*
X98177818Y-83294167D01*
X98221583Y-83212288D01*
X98346985Y-83059485D01*
X98499788Y-82934083D01*
X98674119Y-82840901D01*
X98863280Y-82783520D01*
X99060000Y-82764145D01*
X99256719Y-82783520D01*
X99256719Y-82783520D01*
G37*
G36*
X103066719Y-82783520D02*
G01*
X103255880Y-82840901D01*
X103255883Y-82840902D01*
X103348333Y-82890318D01*
X103430212Y-82934083D01*
X103583015Y-83059485D01*
X103708417Y-83212288D01*
X103801599Y-83386619D01*
X103858980Y-83575780D01*
X103873500Y-83723206D01*
X103873500Y-83916793D01*
X103858980Y-84064219D01*
X103801599Y-84253380D01*
X103801598Y-84253383D01*
X103752182Y-84345833D01*
X103708417Y-84427712D01*
X103583015Y-84580515D01*
X103430212Y-84705917D01*
X103255881Y-84799099D01*
X103066720Y-84856480D01*
X102870000Y-84875855D01*
X102673281Y-84856480D01*
X102484120Y-84799099D01*
X102309788Y-84705917D01*
X102156985Y-84580515D01*
X102031583Y-84427712D01*
X101938401Y-84253381D01*
X101881020Y-84064220D01*
X101866500Y-83916794D01*
X101866500Y-83723207D01*
X101881020Y-83575781D01*
X101938401Y-83386620D01*
X101938402Y-83386617D01*
X101987818Y-83294167D01*
X102031583Y-83212288D01*
X102156985Y-83059485D01*
X102309788Y-82934083D01*
X102484119Y-82840901D01*
X102673280Y-82783520D01*
X102870000Y-82764145D01*
X103066719Y-82783520D01*
X103066719Y-82783520D01*
G37*
G36*
X96253500Y-84871000D02*
G01*
X94246500Y-84871000D01*
X94246500Y-82769000D01*
X96253500Y-82769000D01*
X96253500Y-84871000D01*
X96253500Y-84871000D01*
G37*
G36*
X83989271Y-80140103D02*
G01*
X84045635Y-80145654D01*
X84262600Y-80211470D01*
X84262602Y-80211471D01*
X84462555Y-80318347D01*
X84637818Y-80462182D01*
X84781653Y-80637445D01*
X84833688Y-80734797D01*
X84888530Y-80837400D01*
X84954346Y-81054365D01*
X84976569Y-81280000D01*
X84954346Y-81505635D01*
X84920948Y-81615734D01*
X84888529Y-81722602D01*
X84781653Y-81922555D01*
X84637818Y-82097818D01*
X84462555Y-82241653D01*
X84262602Y-82348529D01*
X84262600Y-82348530D01*
X84045635Y-82414346D01*
X83989271Y-82419897D01*
X83876545Y-82431000D01*
X83763455Y-82431000D01*
X83650729Y-82419897D01*
X83594365Y-82414346D01*
X83377400Y-82348530D01*
X83377398Y-82348529D01*
X83177445Y-82241653D01*
X83002182Y-82097818D01*
X82858347Y-81922555D01*
X82751471Y-81722602D01*
X82719053Y-81615734D01*
X82685654Y-81505635D01*
X82663431Y-81280000D01*
X82685654Y-81054365D01*
X82751470Y-80837400D01*
X82806312Y-80734797D01*
X82858347Y-80637445D01*
X83002182Y-80462182D01*
X83177445Y-80318347D01*
X83377398Y-80211471D01*
X83377400Y-80211470D01*
X83594365Y-80145654D01*
X83650729Y-80140103D01*
X83763455Y-80129000D01*
X83876545Y-80129000D01*
X83989271Y-80140103D01*
X83989271Y-80140103D01*
G37*
G36*
X132277090Y-80145654D02*
G01*
X132415734Y-80173232D01*
X132625203Y-80259997D01*
X132813720Y-80385960D01*
X132974040Y-80546280D01*
X133100003Y-80734797D01*
X133186768Y-80944266D01*
X133231000Y-81166636D01*
X133231000Y-81393364D01*
X133186768Y-81615734D01*
X133100003Y-81825203D01*
X132974040Y-82013720D01*
X132813720Y-82174040D01*
X132625203Y-82300003D01*
X132415734Y-82386768D01*
X132304549Y-82408884D01*
X132193365Y-82431000D01*
X131966635Y-82431000D01*
X131855451Y-82408884D01*
X131744266Y-82386768D01*
X131534797Y-82300003D01*
X131346280Y-82174040D01*
X131185960Y-82013720D01*
X131059997Y-81825203D01*
X130973232Y-81615734D01*
X130929000Y-81393364D01*
X130929000Y-81166636D01*
X130973232Y-80944266D01*
X131059997Y-80734797D01*
X131185960Y-80546280D01*
X131346280Y-80385960D01*
X131534797Y-80259997D01*
X131744266Y-80173232D01*
X131882910Y-80145654D01*
X131966635Y-80129000D01*
X132193365Y-80129000D01*
X132277090Y-80145654D01*
X132277090Y-80145654D01*
G37*
G36*
X113927000Y-80653000D02*
G01*
X111625000Y-80653000D01*
X111625000Y-78351000D01*
X113927000Y-78351000D01*
X113927000Y-80653000D01*
X113927000Y-80653000D01*
G37*
G36*
X132328228Y-75381703D02*
G01*
X132483100Y-75445853D01*
X132622481Y-75538985D01*
X132741015Y-75657519D01*
X132834147Y-75796900D01*
X132898297Y-75951772D01*
X132931000Y-76116184D01*
X132931000Y-76283816D01*
X132898297Y-76448228D01*
X132834147Y-76603100D01*
X132741015Y-76742481D01*
X132622481Y-76861015D01*
X132483100Y-76954147D01*
X132328228Y-77018297D01*
X132163816Y-77051000D01*
X131996184Y-77051000D01*
X131831772Y-77018297D01*
X131676900Y-76954147D01*
X131537519Y-76861015D01*
X131418985Y-76742481D01*
X131325853Y-76603100D01*
X131261703Y-76448228D01*
X131229000Y-76283816D01*
X131229000Y-76116184D01*
X131261703Y-75951772D01*
X131325853Y-75796900D01*
X131418985Y-75657519D01*
X131537519Y-75538985D01*
X131676900Y-75445853D01*
X131831772Y-75381703D01*
X131996184Y-75349000D01*
X132163816Y-75349000D01*
X132328228Y-75381703D01*
X132328228Y-75381703D01*
G37*
G36*
X125978228Y-75341703D02*
G01*
X126133100Y-75405853D01*
X126272481Y-75498985D01*
X126391015Y-75617519D01*
X126484147Y-75756900D01*
X126548297Y-75911772D01*
X126581000Y-76076184D01*
X126581000Y-76243816D01*
X126548297Y-76408228D01*
X126484147Y-76563100D01*
X126391015Y-76702481D01*
X126272481Y-76821015D01*
X126133100Y-76914147D01*
X125978228Y-76978297D01*
X125813816Y-77011000D01*
X125646184Y-77011000D01*
X125481772Y-76978297D01*
X125326900Y-76914147D01*
X125187519Y-76821015D01*
X125068985Y-76702481D01*
X124975853Y-76563100D01*
X124911703Y-76408228D01*
X124879000Y-76243816D01*
X124879000Y-76076184D01*
X124911703Y-75911772D01*
X124975853Y-75756900D01*
X125068985Y-75617519D01*
X125187519Y-75498985D01*
X125326900Y-75405853D01*
X125481772Y-75341703D01*
X125646184Y-75309000D01*
X125813816Y-75309000D01*
X125978228Y-75341703D01*
X125978228Y-75341703D01*
G37*
G36*
X87624228Y-74873703D02*
G01*
X87779100Y-74937853D01*
X87918481Y-75030985D01*
X88037015Y-75149519D01*
X88130147Y-75288900D01*
X88194297Y-75443772D01*
X88227000Y-75608184D01*
X88227000Y-75775816D01*
X88194297Y-75940228D01*
X88130147Y-76095100D01*
X88037015Y-76234481D01*
X87918481Y-76353015D01*
X87779100Y-76446147D01*
X87624228Y-76510297D01*
X87459816Y-76543000D01*
X87292184Y-76543000D01*
X87127772Y-76510297D01*
X86972900Y-76446147D01*
X86833519Y-76353015D01*
X86714985Y-76234481D01*
X86621853Y-76095100D01*
X86557703Y-75940228D01*
X86525000Y-75775816D01*
X86525000Y-75608184D01*
X86557703Y-75443772D01*
X86621853Y-75288900D01*
X86714985Y-75149519D01*
X86833519Y-75030985D01*
X86972900Y-74937853D01*
X87127772Y-74873703D01*
X87292184Y-74841000D01*
X87459816Y-74841000D01*
X87624228Y-74873703D01*
X87624228Y-74873703D01*
G37*
G36*
X95162823Y-74853313D02*
G01*
X95323242Y-74901976D01*
X95390361Y-74937852D01*
X95471078Y-74980996D01*
X95600659Y-75087341D01*
X95707004Y-75216922D01*
X95707005Y-75216924D01*
X95786024Y-75364758D01*
X95834687Y-75525177D01*
X95851117Y-75692000D01*
X95834687Y-75858823D01*
X95786024Y-76019242D01*
X95745477Y-76095100D01*
X95707004Y-76167078D01*
X95600659Y-76296659D01*
X95471078Y-76403004D01*
X95461303Y-76408229D01*
X95323242Y-76482024D01*
X95162823Y-76530687D01*
X95037804Y-76543000D01*
X94954196Y-76543000D01*
X94829177Y-76530687D01*
X94668758Y-76482024D01*
X94530697Y-76408229D01*
X94520922Y-76403004D01*
X94391341Y-76296659D01*
X94284996Y-76167078D01*
X94246523Y-76095100D01*
X94205976Y-76019242D01*
X94157313Y-75858823D01*
X94140883Y-75692000D01*
X94157313Y-75525177D01*
X94205976Y-75364758D01*
X94284995Y-75216924D01*
X94284996Y-75216922D01*
X94391341Y-75087341D01*
X94520922Y-74980996D01*
X94601639Y-74937852D01*
X94668758Y-74901976D01*
X94829177Y-74853313D01*
X94954196Y-74841000D01*
X95037804Y-74841000D01*
X95162823Y-74853313D01*
X95162823Y-74853313D01*
G37*
G36*
X126581000Y-74511000D02*
G01*
X124879000Y-74511000D01*
X124879000Y-72809000D01*
X126581000Y-72809000D01*
X126581000Y-74511000D01*
X126581000Y-74511000D01*
G37*
G36*
X118056935Y-72277742D02*
G01*
X118207258Y-72340008D01*
X118342545Y-72430404D01*
X118457596Y-72545455D01*
X118547992Y-72680742D01*
X118610258Y-72831065D01*
X118642000Y-72990646D01*
X118642000Y-73153354D01*
X118610258Y-73312935D01*
X118547992Y-73463258D01*
X118457596Y-73598545D01*
X118342545Y-73713596D01*
X118207258Y-73803992D01*
X118056935Y-73866258D01*
X117897354Y-73898000D01*
X117734646Y-73898000D01*
X117575065Y-73866258D01*
X117424742Y-73803992D01*
X117289455Y-73713596D01*
X117174404Y-73598545D01*
X117084008Y-73463258D01*
X117021742Y-73312935D01*
X116990000Y-73153354D01*
X116990000Y-72990646D01*
X117021742Y-72831065D01*
X117084008Y-72680742D01*
X117174404Y-72545455D01*
X117289455Y-72430404D01*
X117424742Y-72340008D01*
X117575065Y-72277742D01*
X117734646Y-72246000D01*
X117897354Y-72246000D01*
X118056935Y-72277742D01*
X118056935Y-72277742D01*
G37*
G36*
X32348254Y-68987818D02*
G01*
X32721511Y-69142426D01*
X32721513Y-69142427D01*
X33057436Y-69366884D01*
X33343116Y-69652564D01*
X33534507Y-69939000D01*
X33567574Y-69988489D01*
X33722182Y-70361746D01*
X33801000Y-70757993D01*
X33801000Y-71162007D01*
X33722182Y-71558254D01*
X33675143Y-71671816D01*
X33567573Y-71931513D01*
X33343116Y-72267436D01*
X33057436Y-72553116D01*
X32721513Y-72777573D01*
X32721512Y-72777574D01*
X32721511Y-72777574D01*
X32348254Y-72932182D01*
X31952007Y-73011000D01*
X31547993Y-73011000D01*
X31151746Y-72932182D01*
X30778489Y-72777574D01*
X30778488Y-72777574D01*
X30778487Y-72777573D01*
X30442564Y-72553116D01*
X30156884Y-72267436D01*
X29932427Y-71931513D01*
X29824857Y-71671816D01*
X29777818Y-71558254D01*
X29699000Y-71162007D01*
X29699000Y-70757993D01*
X29777818Y-70361746D01*
X29932426Y-69988489D01*
X29965494Y-69939000D01*
X30156884Y-69652564D01*
X30442564Y-69366884D01*
X30778487Y-69142427D01*
X30778489Y-69142426D01*
X31151746Y-68987818D01*
X31547993Y-68909000D01*
X31952007Y-68909000D01*
X32348254Y-68987818D01*
X32348254Y-68987818D01*
G37*
G36*
X65114254Y-68987818D02*
G01*
X65487511Y-69142426D01*
X65487513Y-69142427D01*
X65823436Y-69366884D01*
X66109116Y-69652564D01*
X66300507Y-69939000D01*
X66333574Y-69988489D01*
X66488182Y-70361746D01*
X66567000Y-70757993D01*
X66567000Y-71162007D01*
X66488182Y-71558254D01*
X66441143Y-71671816D01*
X66333573Y-71931513D01*
X66109116Y-72267436D01*
X65823436Y-72553116D01*
X65487513Y-72777573D01*
X65487512Y-72777574D01*
X65487511Y-72777574D01*
X65114254Y-72932182D01*
X64718007Y-73011000D01*
X64313993Y-73011000D01*
X63917746Y-72932182D01*
X63544489Y-72777574D01*
X63544488Y-72777574D01*
X63544487Y-72777573D01*
X63208564Y-72553116D01*
X62922884Y-72267436D01*
X62698427Y-71931513D01*
X62590857Y-71671816D01*
X62543818Y-71558254D01*
X62465000Y-71162007D01*
X62465000Y-70757993D01*
X62543818Y-70361746D01*
X62698426Y-69988489D01*
X62731494Y-69939000D01*
X62922884Y-69652564D01*
X63208564Y-69366884D01*
X63544487Y-69142427D01*
X63544489Y-69142426D01*
X63917746Y-68987818D01*
X64313993Y-68909000D01*
X64718007Y-68909000D01*
X65114254Y-68987818D01*
X65114254Y-68987818D01*
G37*
G36*
X83814228Y-70769703D02*
G01*
X83969100Y-70833853D01*
X84108481Y-70926985D01*
X84227015Y-71045519D01*
X84320147Y-71184900D01*
X84384297Y-71339772D01*
X84417000Y-71504184D01*
X84417000Y-71671816D01*
X84384297Y-71836228D01*
X84320147Y-71991100D01*
X84227015Y-72130481D01*
X84108481Y-72249015D01*
X83969100Y-72342147D01*
X83814228Y-72406297D01*
X83649816Y-72439000D01*
X83482184Y-72439000D01*
X83317772Y-72406297D01*
X83162900Y-72342147D01*
X83023519Y-72249015D01*
X82904985Y-72130481D01*
X82811853Y-71991100D01*
X82747703Y-71836228D01*
X82715000Y-71671816D01*
X82715000Y-71504184D01*
X82747703Y-71339772D01*
X82811853Y-71184900D01*
X82904985Y-71045519D01*
X83023519Y-70926985D01*
X83162900Y-70833853D01*
X83317772Y-70769703D01*
X83482184Y-70737000D01*
X83649816Y-70737000D01*
X83814228Y-70769703D01*
X83814228Y-70769703D01*
G37*
G36*
X84417000Y-69939000D02*
G01*
X82715000Y-69939000D01*
X82715000Y-68237000D01*
X84417000Y-68237000D01*
X84417000Y-69939000D01*
X84417000Y-69939000D01*
G37*
G36*
X132246823Y-67741313D02*
G01*
X132407242Y-67789976D01*
X132484114Y-67831065D01*
X132555078Y-67868996D01*
X132684659Y-67975341D01*
X132791004Y-68104922D01*
X132791005Y-68104924D01*
X132870024Y-68252758D01*
X132918687Y-68413177D01*
X132935117Y-68580000D01*
X132918687Y-68746823D01*
X132870024Y-68907242D01*
X132799114Y-69039906D01*
X132791004Y-69055078D01*
X132684659Y-69184659D01*
X132555078Y-69291004D01*
X132555076Y-69291005D01*
X132407242Y-69370024D01*
X132246823Y-69418687D01*
X132121804Y-69431000D01*
X132038196Y-69431000D01*
X131913177Y-69418687D01*
X131752758Y-69370024D01*
X131604924Y-69291005D01*
X131604922Y-69291004D01*
X131475341Y-69184659D01*
X131368996Y-69055078D01*
X131360886Y-69039906D01*
X131289976Y-68907242D01*
X131241313Y-68746823D01*
X131224883Y-68580000D01*
X131241313Y-68413177D01*
X131289976Y-68252758D01*
X131368995Y-68104924D01*
X131368996Y-68104922D01*
X131475341Y-67975341D01*
X131604922Y-67868996D01*
X131675886Y-67831065D01*
X131752758Y-67789976D01*
X131913177Y-67741313D01*
X132038196Y-67729000D01*
X132121804Y-67729000D01*
X132246823Y-67741313D01*
X132246823Y-67741313D01*
G37*
G36*
X104134228Y-67253703D02*
G01*
X104289100Y-67317853D01*
X104428481Y-67410985D01*
X104547015Y-67529519D01*
X104640147Y-67668900D01*
X104704297Y-67823772D01*
X104737000Y-67988184D01*
X104737000Y-68155816D01*
X104704297Y-68320228D01*
X104640147Y-68475100D01*
X104547015Y-68614481D01*
X104428481Y-68733015D01*
X104289100Y-68826147D01*
X104134228Y-68890297D01*
X103969816Y-68923000D01*
X103802184Y-68923000D01*
X103637772Y-68890297D01*
X103482900Y-68826147D01*
X103343519Y-68733015D01*
X103224985Y-68614481D01*
X103131853Y-68475100D01*
X103067703Y-68320228D01*
X103035000Y-68155816D01*
X103035000Y-67988184D01*
X103067703Y-67823772D01*
X103131853Y-67668900D01*
X103224985Y-67529519D01*
X103343519Y-67410985D01*
X103482900Y-67317853D01*
X103637772Y-67253703D01*
X103802184Y-67221000D01*
X103969816Y-67221000D01*
X104134228Y-67253703D01*
X104134228Y-67253703D01*
G37*
G36*
X111672823Y-67233313D02*
G01*
X111803380Y-67272917D01*
X111819285Y-67277742D01*
X111833242Y-67281976D01*
X111900361Y-67317852D01*
X111981078Y-67360996D01*
X112110659Y-67467341D01*
X112217004Y-67596922D01*
X112217005Y-67596924D01*
X112296024Y-67744758D01*
X112344687Y-67905177D01*
X112361117Y-68072000D01*
X112344687Y-68238823D01*
X112296024Y-68399242D01*
X112255477Y-68475100D01*
X112217004Y-68547078D01*
X112110659Y-68676659D01*
X111981078Y-68783004D01*
X111981076Y-68783005D01*
X111833242Y-68862024D01*
X111833239Y-68862025D01*
X111803380Y-68871083D01*
X111672823Y-68910687D01*
X111547804Y-68923000D01*
X111464196Y-68923000D01*
X111339177Y-68910687D01*
X111208620Y-68871083D01*
X111178761Y-68862025D01*
X111178758Y-68862024D01*
X111030924Y-68783005D01*
X111030922Y-68783004D01*
X110901341Y-68676659D01*
X110794996Y-68547078D01*
X110756523Y-68475100D01*
X110715976Y-68399242D01*
X110667313Y-68238823D01*
X110650883Y-68072000D01*
X110667313Y-67905177D01*
X110715976Y-67744758D01*
X110794995Y-67596924D01*
X110794996Y-67596922D01*
X110901341Y-67467341D01*
X111030922Y-67360996D01*
X111111639Y-67317852D01*
X111178758Y-67281976D01*
X111192716Y-67277742D01*
X111208620Y-67272917D01*
X111339177Y-67233313D01*
X111464196Y-67221000D01*
X111547804Y-67221000D01*
X111672823Y-67233313D01*
X111672823Y-67233313D01*
G37*
G36*
X116142000Y-68898000D02*
G01*
X114490000Y-68898000D01*
X114490000Y-67246000D01*
X116142000Y-67246000D01*
X116142000Y-68898000D01*
X116142000Y-68898000D01*
G37*
G36*
X120556935Y-67277742D02*
G01*
X120707258Y-67340008D01*
X120842545Y-67430404D01*
X120957596Y-67545455D01*
X121047992Y-67680742D01*
X121110258Y-67831065D01*
X121142000Y-67990646D01*
X121142000Y-68153354D01*
X121110258Y-68312935D01*
X121047992Y-68463258D01*
X120957596Y-68598545D01*
X120842545Y-68713596D01*
X120707258Y-68803992D01*
X120556935Y-68866258D01*
X120397354Y-68898000D01*
X120234646Y-68898000D01*
X120075065Y-68866258D01*
X119924742Y-68803992D01*
X119789455Y-68713596D01*
X119674404Y-68598545D01*
X119584008Y-68463258D01*
X119521742Y-68312935D01*
X119490000Y-68153354D01*
X119490000Y-67990646D01*
X119521742Y-67831065D01*
X119584008Y-67680742D01*
X119674404Y-67545455D01*
X119789455Y-67430404D01*
X119924742Y-67340008D01*
X120075065Y-67277742D01*
X120234646Y-67246000D01*
X120397354Y-67246000D01*
X120556935Y-67277742D01*
X120556935Y-67277742D01*
G37*
G36*
X98038228Y-66451703D02*
G01*
X98193100Y-66515853D01*
X98332481Y-66608985D01*
X98451015Y-66727519D01*
X98544147Y-66866900D01*
X98608297Y-67021772D01*
X98641000Y-67186184D01*
X98641000Y-67353816D01*
X98608297Y-67518228D01*
X98544147Y-67673100D01*
X98451015Y-67812481D01*
X98332481Y-67931015D01*
X98193100Y-68024147D01*
X98038228Y-68088297D01*
X97873816Y-68121000D01*
X97706184Y-68121000D01*
X97541772Y-68088297D01*
X97386900Y-68024147D01*
X97247519Y-67931015D01*
X97128985Y-67812481D01*
X97035853Y-67673100D01*
X96971703Y-67518228D01*
X96939000Y-67353816D01*
X96939000Y-67186184D01*
X96971703Y-67021772D01*
X97035853Y-66866900D01*
X97128985Y-66727519D01*
X97247519Y-66608985D01*
X97386900Y-66515853D01*
X97541772Y-66451703D01*
X97706184Y-66419000D01*
X97873816Y-66419000D01*
X98038228Y-66451703D01*
X98038228Y-66451703D01*
G37*
G36*
X98641000Y-65621000D02*
G01*
X96939000Y-65621000D01*
X96939000Y-63919000D01*
X98641000Y-63919000D01*
X98641000Y-65621000D01*
X98641000Y-65621000D01*
G37*
G36*
X33801000Y-63011000D02*
G01*
X29699000Y-63011000D01*
X29699000Y-58909000D01*
X33801000Y-58909000D01*
X33801000Y-63011000D01*
X33801000Y-63011000D01*
G37*
G36*
X66567000Y-63011000D02*
G01*
X62465000Y-63011000D01*
X62465000Y-58909000D01*
X66567000Y-58909000D01*
X66567000Y-63011000D01*
X66567000Y-63011000D01*
G37*
G36*
X130272549Y-59704116D02*
G01*
X130383734Y-59726232D01*
X130593203Y-59812997D01*
X130781720Y-59938960D01*
X130942040Y-60099280D01*
X131068003Y-60287797D01*
X131154768Y-60497266D01*
X131199000Y-60719636D01*
X131199000Y-60946364D01*
X131154768Y-61168734D01*
X131068003Y-61378203D01*
X130942040Y-61566720D01*
X130781720Y-61727040D01*
X130593203Y-61853003D01*
X130383734Y-61939768D01*
X130272549Y-61961884D01*
X130161365Y-61984000D01*
X129934635Y-61984000D01*
X129823451Y-61961884D01*
X129712266Y-61939768D01*
X129502797Y-61853003D01*
X129314280Y-61727040D01*
X129153960Y-61566720D01*
X129027997Y-61378203D01*
X128941232Y-61168734D01*
X128897000Y-60946364D01*
X128897000Y-60719636D01*
X128941232Y-60497266D01*
X129027997Y-60287797D01*
X129153960Y-60099280D01*
X129314280Y-59938960D01*
X129502797Y-59812997D01*
X129712266Y-59726232D01*
X129823451Y-59704116D01*
X129934635Y-59682000D01*
X130161365Y-59682000D01*
X130272549Y-59704116D01*
X130272549Y-59704116D01*
G37*
G36*
X98038228Y-58831703D02*
G01*
X98193100Y-58895853D01*
X98332481Y-58988985D01*
X98451015Y-59107519D01*
X98544147Y-59246900D01*
X98608297Y-59401772D01*
X98641000Y-59566184D01*
X98641000Y-59733816D01*
X98608297Y-59898228D01*
X98544147Y-60053100D01*
X98451015Y-60192481D01*
X98332481Y-60311015D01*
X98193100Y-60404147D01*
X98038228Y-60468297D01*
X97873816Y-60501000D01*
X97706184Y-60501000D01*
X97541772Y-60468297D01*
X97386900Y-60404147D01*
X97247519Y-60311015D01*
X97128985Y-60192481D01*
X97035853Y-60053100D01*
X96971703Y-59898228D01*
X96939000Y-59733816D01*
X96939000Y-59566184D01*
X96971703Y-59401772D01*
X97035853Y-59246900D01*
X97128985Y-59107519D01*
X97247519Y-58988985D01*
X97386900Y-58895853D01*
X97541772Y-58831703D01*
X97706184Y-58799000D01*
X97873816Y-58799000D01*
X98038228Y-58831703D01*
X98038228Y-58831703D01*
G37*
G36*
X98641000Y-58001000D02*
G01*
X96939000Y-58001000D01*
X96939000Y-56299000D01*
X98641000Y-56299000D01*
X98641000Y-58001000D01*
X98641000Y-58001000D01*
G37*
G36*
X90085271Y-54740103D02*
G01*
X90141635Y-54745654D01*
X90358600Y-54811470D01*
X90358602Y-54811471D01*
X90558555Y-54918347D01*
X90733818Y-55062182D01*
X90877653Y-55237445D01*
X90950297Y-55373354D01*
X90984530Y-55437400D01*
X91050346Y-55654365D01*
X91072569Y-55880000D01*
X91050346Y-56105635D01*
X91014744Y-56223000D01*
X90984529Y-56322602D01*
X90877653Y-56522555D01*
X90733818Y-56697818D01*
X90558555Y-56841653D01*
X90358602Y-56948529D01*
X90358600Y-56948530D01*
X90141635Y-57014346D01*
X90085271Y-57019897D01*
X89972545Y-57031000D01*
X89859455Y-57031000D01*
X89746729Y-57019897D01*
X89690365Y-57014346D01*
X89473400Y-56948530D01*
X89473398Y-56948529D01*
X89273445Y-56841653D01*
X89098182Y-56697818D01*
X88954347Y-56522555D01*
X88847471Y-56322602D01*
X88817257Y-56223000D01*
X88781654Y-56105635D01*
X88759431Y-55880000D01*
X88781654Y-55654365D01*
X88847470Y-55437400D01*
X88881703Y-55373354D01*
X88954347Y-55237445D01*
X89098182Y-55062182D01*
X89273445Y-54918347D01*
X89473398Y-54811471D01*
X89473400Y-54811470D01*
X89690365Y-54745654D01*
X89746729Y-54740103D01*
X89859455Y-54729000D01*
X89972545Y-54729000D01*
X90085271Y-54740103D01*
X90085271Y-54740103D01*
G37*
G36*
X111672823Y-54533313D02*
G01*
X111803380Y-54572917D01*
X111819651Y-54577853D01*
X111833242Y-54581976D01*
X111900361Y-54617852D01*
X111981078Y-54660996D01*
X112110659Y-54767341D01*
X112217004Y-54896922D01*
X112217005Y-54896924D01*
X112296024Y-55044758D01*
X112344687Y-55205177D01*
X112361117Y-55372000D01*
X112344687Y-55538823D01*
X112296024Y-55699242D01*
X112255477Y-55775100D01*
X112217004Y-55847078D01*
X112110659Y-55976659D01*
X111981078Y-56083004D01*
X111981076Y-56083005D01*
X111833242Y-56162024D01*
X111672823Y-56210687D01*
X111547804Y-56223000D01*
X111464196Y-56223000D01*
X111339177Y-56210687D01*
X111178758Y-56162024D01*
X111030924Y-56083005D01*
X111030922Y-56083004D01*
X110901341Y-55976659D01*
X110794996Y-55847078D01*
X110756523Y-55775100D01*
X110715976Y-55699242D01*
X110667313Y-55538823D01*
X110650883Y-55372000D01*
X110667313Y-55205177D01*
X110715976Y-55044758D01*
X110794995Y-54896924D01*
X110794996Y-54896922D01*
X110901341Y-54767341D01*
X111030922Y-54660996D01*
X111111639Y-54617852D01*
X111178758Y-54581976D01*
X111192350Y-54577853D01*
X111208620Y-54572917D01*
X111339177Y-54533313D01*
X111464196Y-54521000D01*
X111547804Y-54521000D01*
X111672823Y-54533313D01*
X111672823Y-54533313D01*
G37*
G36*
X104134228Y-54553703D02*
G01*
X104289100Y-54617853D01*
X104428481Y-54710985D01*
X104547015Y-54829519D01*
X104640147Y-54968900D01*
X104704297Y-55123772D01*
X104737000Y-55288184D01*
X104737000Y-55455816D01*
X104704297Y-55620228D01*
X104640147Y-55775100D01*
X104547015Y-55914481D01*
X104428481Y-56033015D01*
X104289100Y-56126147D01*
X104134228Y-56190297D01*
X103969816Y-56223000D01*
X103802184Y-56223000D01*
X103637772Y-56190297D01*
X103482900Y-56126147D01*
X103343519Y-56033015D01*
X103224985Y-55914481D01*
X103131853Y-55775100D01*
X103067703Y-55620228D01*
X103035000Y-55455816D01*
X103035000Y-55288184D01*
X103067703Y-55123772D01*
X103131853Y-54968900D01*
X103224985Y-54829519D01*
X103343519Y-54710985D01*
X103482900Y-54617853D01*
X103637772Y-54553703D01*
X103802184Y-54521000D01*
X103969816Y-54521000D01*
X104134228Y-54553703D01*
X104134228Y-54553703D01*
G37*
G36*
X83814228Y-54513703D02*
G01*
X83969100Y-54577853D01*
X84108481Y-54670985D01*
X84227015Y-54789519D01*
X84320147Y-54928900D01*
X84384297Y-55083772D01*
X84417000Y-55248184D01*
X84417000Y-55415816D01*
X84384297Y-55580228D01*
X84320147Y-55735100D01*
X84227015Y-55874481D01*
X84108481Y-55993015D01*
X83969100Y-56086147D01*
X83814228Y-56150297D01*
X83649816Y-56183000D01*
X83482184Y-56183000D01*
X83317772Y-56150297D01*
X83162900Y-56086147D01*
X83023519Y-55993015D01*
X82904985Y-55874481D01*
X82811853Y-55735100D01*
X82747703Y-55580228D01*
X82715000Y-55415816D01*
X82715000Y-55248184D01*
X82747703Y-55083772D01*
X82811853Y-54928900D01*
X82904985Y-54789519D01*
X83023519Y-54670985D01*
X83162900Y-54577853D01*
X83317772Y-54513703D01*
X83482184Y-54481000D01*
X83649816Y-54481000D01*
X83814228Y-54513703D01*
X83814228Y-54513703D01*
G37*
G36*
X118056935Y-54497742D02*
G01*
X118207258Y-54560008D01*
X118342545Y-54650404D01*
X118457596Y-54765455D01*
X118547992Y-54900742D01*
X118610258Y-55051065D01*
X118642000Y-55210646D01*
X118642000Y-55373354D01*
X118610258Y-55532935D01*
X118547992Y-55683258D01*
X118457596Y-55818545D01*
X118342545Y-55933596D01*
X118207258Y-56023992D01*
X118056935Y-56086258D01*
X117897354Y-56118000D01*
X117734646Y-56118000D01*
X117575065Y-56086258D01*
X117424742Y-56023992D01*
X117289455Y-55933596D01*
X117174404Y-55818545D01*
X117084008Y-55683258D01*
X117021742Y-55532935D01*
X116990000Y-55373354D01*
X116990000Y-55210646D01*
X117021742Y-55051065D01*
X117084008Y-54900742D01*
X117174404Y-54765455D01*
X117289455Y-54650404D01*
X117424742Y-54560008D01*
X117575065Y-54497742D01*
X117734646Y-54466000D01*
X117897354Y-54466000D01*
X118056935Y-54497742D01*
X118056935Y-54497742D01*
G37*
G36*
X133516823Y-52501313D02*
G01*
X133677242Y-52549976D01*
X133809906Y-52620886D01*
X133825078Y-52628996D01*
X133954659Y-52735341D01*
X134061004Y-52864922D01*
X134061005Y-52864924D01*
X134140024Y-53012758D01*
X134188687Y-53173177D01*
X134205117Y-53340000D01*
X134188687Y-53506823D01*
X134140024Y-53667242D01*
X134131601Y-53683000D01*
X134061004Y-53815078D01*
X133954659Y-53944659D01*
X133825078Y-54051004D01*
X133825076Y-54051005D01*
X133677242Y-54130024D01*
X133516823Y-54178687D01*
X133391804Y-54191000D01*
X133308196Y-54191000D01*
X133183177Y-54178687D01*
X133022758Y-54130024D01*
X132874924Y-54051005D01*
X132874922Y-54051004D01*
X132745341Y-53944659D01*
X132638996Y-53815078D01*
X132568399Y-53683000D01*
X132559976Y-53667242D01*
X132511313Y-53506823D01*
X132494883Y-53340000D01*
X132511313Y-53173177D01*
X132559976Y-53012758D01*
X132638995Y-52864924D01*
X132638996Y-52864922D01*
X132745341Y-52735341D01*
X132874922Y-52628996D01*
X132890094Y-52620886D01*
X133022758Y-52549976D01*
X133183177Y-52501313D01*
X133308196Y-52489000D01*
X133391804Y-52489000D01*
X133516823Y-52501313D01*
X133516823Y-52501313D01*
G37*
G36*
X84417000Y-53683000D02*
G01*
X82715000Y-53683000D01*
X82715000Y-51981000D01*
X84417000Y-51981000D01*
X84417000Y-53683000D01*
X84417000Y-53683000D01*
G37*
G36*
X120556935Y-49497742D02*
G01*
X120707258Y-49560008D01*
X120842545Y-49650404D01*
X120957596Y-49765455D01*
X121047992Y-49900742D01*
X121110258Y-50051065D01*
X121142000Y-50210646D01*
X121142000Y-50373354D01*
X121110258Y-50532935D01*
X121047992Y-50683258D01*
X120957596Y-50818545D01*
X120842545Y-50933596D01*
X120707258Y-51023992D01*
X120556935Y-51086258D01*
X120397354Y-51118000D01*
X120234646Y-51118000D01*
X120075065Y-51086258D01*
X119924742Y-51023992D01*
X119789455Y-50933596D01*
X119674404Y-50818545D01*
X119584008Y-50683258D01*
X119521742Y-50532935D01*
X119490000Y-50373354D01*
X119490000Y-50210646D01*
X119521742Y-50051065D01*
X119584008Y-49900742D01*
X119674404Y-49765455D01*
X119789455Y-49650404D01*
X119924742Y-49560008D01*
X120075065Y-49497742D01*
X120234646Y-49466000D01*
X120397354Y-49466000D01*
X120556935Y-49497742D01*
X120556935Y-49497742D01*
G37*
G36*
X116142000Y-51118000D02*
G01*
X114490000Y-51118000D01*
X114490000Y-49466000D01*
X116142000Y-49466000D01*
X116142000Y-51118000D01*
X116142000Y-51118000D01*
G37*
G36*
X83735271Y-47120103D02*
G01*
X83791635Y-47125654D01*
X84008600Y-47191470D01*
X84008602Y-47191471D01*
X84208555Y-47298347D01*
X84383818Y-47442182D01*
X84527653Y-47617445D01*
X84634529Y-47817398D01*
X84700346Y-48034366D01*
X84722569Y-48260000D01*
X84700346Y-48485634D01*
X84634529Y-48702602D01*
X84527653Y-48902555D01*
X84383818Y-49077818D01*
X84208555Y-49221653D01*
X84008602Y-49328529D01*
X84008600Y-49328530D01*
X83791635Y-49394346D01*
X83735271Y-49399897D01*
X83622545Y-49411000D01*
X83509455Y-49411000D01*
X83396729Y-49399897D01*
X83340365Y-49394346D01*
X83123400Y-49328530D01*
X83123398Y-49328529D01*
X82923445Y-49221653D01*
X82748182Y-49077818D01*
X82604347Y-48902555D01*
X82497471Y-48702602D01*
X82431654Y-48485634D01*
X82409431Y-48260000D01*
X82431654Y-48034366D01*
X82497471Y-47817398D01*
X82604347Y-47617445D01*
X82748182Y-47442182D01*
X82923445Y-47298347D01*
X83123398Y-47191471D01*
X83123400Y-47191470D01*
X83340365Y-47125654D01*
X83396729Y-47120103D01*
X83509455Y-47109000D01*
X83622545Y-47109000D01*
X83735271Y-47120103D01*
X83735271Y-47120103D01*
G37*
G36*
X91067000Y-46871000D02*
G01*
X88765000Y-46871000D01*
X88765000Y-44569000D01*
X91067000Y-44569000D01*
X91067000Y-46871000D01*
X91067000Y-46871000D01*
G37*
G36*
X102050719Y-44556520D02*
G01*
X102218254Y-44607341D01*
X102239883Y-44613902D01*
X102332333Y-44663318D01*
X102414212Y-44707083D01*
X102567015Y-44832485D01*
X102692417Y-44985288D01*
X102785599Y-45159619D01*
X102842980Y-45348780D01*
X102842980Y-45348782D01*
X102855094Y-45471772D01*
X102857500Y-45496206D01*
X102857500Y-45689793D01*
X102842980Y-45837219D01*
X102816957Y-45923005D01*
X102785598Y-46026383D01*
X102736182Y-46118833D01*
X102692417Y-46200712D01*
X102567015Y-46353515D01*
X102414212Y-46478917D01*
X102239881Y-46572099D01*
X102050720Y-46629480D01*
X101854000Y-46648855D01*
X101657281Y-46629480D01*
X101468120Y-46572099D01*
X101293788Y-46478917D01*
X101140985Y-46353515D01*
X101015583Y-46200712D01*
X100922401Y-46026381D01*
X100865020Y-45837220D01*
X100850500Y-45689794D01*
X100850500Y-45496207D01*
X100865020Y-45348781D01*
X100922401Y-45159620D01*
X100922402Y-45159617D01*
X100983573Y-45045175D01*
X101015583Y-44985288D01*
X101140985Y-44832485D01*
X101293788Y-44707083D01*
X101468119Y-44613901D01*
X101657280Y-44556520D01*
X101854000Y-44537145D01*
X102050719Y-44556520D01*
X102050719Y-44556520D01*
G37*
G36*
X105860719Y-44556520D02*
G01*
X106028254Y-44607341D01*
X106049883Y-44613902D01*
X106142333Y-44663318D01*
X106224212Y-44707083D01*
X106377015Y-44832485D01*
X106502417Y-44985288D01*
X106595599Y-45159619D01*
X106652980Y-45348780D01*
X106652980Y-45348782D01*
X106665094Y-45471772D01*
X106667500Y-45496206D01*
X106667500Y-45689793D01*
X106652980Y-45837219D01*
X106626957Y-45923005D01*
X106595598Y-46026383D01*
X106546182Y-46118833D01*
X106502417Y-46200712D01*
X106377015Y-46353515D01*
X106224212Y-46478917D01*
X106049881Y-46572099D01*
X105860720Y-46629480D01*
X105664000Y-46648855D01*
X105467281Y-46629480D01*
X105278120Y-46572099D01*
X105103788Y-46478917D01*
X104950985Y-46353515D01*
X104825583Y-46200712D01*
X104732401Y-46026381D01*
X104675020Y-45837220D01*
X104660500Y-45689794D01*
X104660500Y-45496207D01*
X104675020Y-45348781D01*
X104732401Y-45159620D01*
X104732402Y-45159617D01*
X104793573Y-45045175D01*
X104825583Y-44985288D01*
X104950985Y-44832485D01*
X105103788Y-44707083D01*
X105278119Y-44613901D01*
X105467280Y-44556520D01*
X105664000Y-44537145D01*
X105860719Y-44556520D01*
X105860719Y-44556520D01*
G37*
G36*
X99047500Y-46644000D02*
G01*
X97040500Y-46644000D01*
X97040500Y-44542000D01*
X99047500Y-44542000D01*
X99047500Y-46644000D01*
X99047500Y-46644000D01*
G37*
G36*
X133598228Y-44901703D02*
G01*
X133753100Y-44965853D01*
X133892481Y-45058985D01*
X134011015Y-45177519D01*
X134104147Y-45316900D01*
X134168297Y-45471772D01*
X134201000Y-45636184D01*
X134201000Y-45803816D01*
X134168297Y-45968228D01*
X134104147Y-46123100D01*
X134011015Y-46262481D01*
X133892481Y-46381015D01*
X133753100Y-46474147D01*
X133598228Y-46538297D01*
X133433816Y-46571000D01*
X133266184Y-46571000D01*
X133101772Y-46538297D01*
X132946900Y-46474147D01*
X132807519Y-46381015D01*
X132688985Y-46262481D01*
X132595853Y-46123100D01*
X132531703Y-45968228D01*
X132499000Y-45803816D01*
X132499000Y-45636184D01*
X132531703Y-45471772D01*
X132595853Y-45316900D01*
X132688985Y-45177519D01*
X132807519Y-45058985D01*
X132946900Y-44965853D01*
X133101772Y-44901703D01*
X133266184Y-44869000D01*
X133433816Y-44869000D01*
X133598228Y-44901703D01*
X133598228Y-44901703D01*
G37*
G36*
X129534228Y-44393703D02*
G01*
X129689100Y-44457853D01*
X129828481Y-44550985D01*
X129947015Y-44669519D01*
X130040147Y-44808900D01*
X130104297Y-44963772D01*
X130137000Y-45128184D01*
X130137000Y-45295816D01*
X130104297Y-45460228D01*
X130040147Y-45615100D01*
X129947015Y-45754481D01*
X129828481Y-45873015D01*
X129689100Y-45966147D01*
X129534228Y-46030297D01*
X129369816Y-46063000D01*
X129202184Y-46063000D01*
X129037772Y-46030297D01*
X128882900Y-45966147D01*
X128743519Y-45873015D01*
X128624985Y-45754481D01*
X128531853Y-45615100D01*
X128467703Y-45460228D01*
X128435000Y-45295816D01*
X128435000Y-45128184D01*
X128467703Y-44963772D01*
X128531853Y-44808900D01*
X128624985Y-44669519D01*
X128743519Y-44550985D01*
X128882900Y-44457853D01*
X129037772Y-44393703D01*
X129202184Y-44361000D01*
X129369816Y-44361000D01*
X129534228Y-44393703D01*
X129534228Y-44393703D01*
G37*
G36*
X121832823Y-44373313D02*
G01*
X121993242Y-44421976D01*
X122060361Y-44457852D01*
X122141078Y-44500996D01*
X122270659Y-44607341D01*
X122377004Y-44736922D01*
X122377005Y-44736924D01*
X122456024Y-44884758D01*
X122504687Y-45045177D01*
X122521117Y-45212000D01*
X122504687Y-45378823D01*
X122456024Y-45539242D01*
X122415477Y-45615100D01*
X122377004Y-45687078D01*
X122270659Y-45816659D01*
X122141078Y-45923004D01*
X122141076Y-45923005D01*
X121993242Y-46002024D01*
X121832823Y-46050687D01*
X121707804Y-46063000D01*
X121624196Y-46063000D01*
X121499177Y-46050687D01*
X121338758Y-46002024D01*
X121190924Y-45923005D01*
X121190922Y-45923004D01*
X121061341Y-45816659D01*
X120954996Y-45687078D01*
X120916523Y-45615100D01*
X120875976Y-45539242D01*
X120827313Y-45378823D01*
X120810883Y-45212000D01*
X120827313Y-45045177D01*
X120875976Y-44884758D01*
X120954995Y-44736924D01*
X120954996Y-44736922D01*
X121061341Y-44607341D01*
X121190922Y-44500996D01*
X121271639Y-44457852D01*
X121338758Y-44421976D01*
X121499177Y-44373313D01*
X121624196Y-44361000D01*
X121707804Y-44361000D01*
X121832823Y-44373313D01*
X121832823Y-44373313D01*
G37*
G36*
X133574549Y-37733116D02*
G01*
X133685734Y-37755232D01*
X133895203Y-37841997D01*
X134083720Y-37967960D01*
X134244040Y-38128280D01*
X134370003Y-38316797D01*
X134456768Y-38526266D01*
X134501000Y-38748636D01*
X134501000Y-38975364D01*
X134456768Y-39197734D01*
X134370003Y-39407203D01*
X134244040Y-39595720D01*
X134083720Y-39756040D01*
X133895203Y-39882003D01*
X133685734Y-39968768D01*
X133574549Y-39990884D01*
X133463365Y-40013000D01*
X133236635Y-40013000D01*
X133125451Y-39990884D01*
X133014266Y-39968768D01*
X132804797Y-39882003D01*
X132616280Y-39756040D01*
X132455960Y-39595720D01*
X132329997Y-39407203D01*
X132243232Y-39197734D01*
X132199000Y-38975364D01*
X132199000Y-38748636D01*
X132243232Y-38526266D01*
X132329997Y-38316797D01*
X132455960Y-38128280D01*
X132616280Y-37967960D01*
X132804797Y-37841997D01*
X133014266Y-37755232D01*
X133125451Y-37733116D01*
X133236635Y-37711000D01*
X133463365Y-37711000D01*
X133574549Y-37733116D01*
X133574549Y-37733116D01*
G37*
G36*
X67837000Y-39897000D02*
G01*
X63735000Y-39897000D01*
X63735000Y-35795000D01*
X67837000Y-35795000D01*
X67837000Y-39897000D01*
X67837000Y-39897000D01*
G37*
G36*
X33801000Y-39897000D02*
G01*
X29699000Y-39897000D01*
X29699000Y-35795000D01*
X33801000Y-35795000D01*
X33801000Y-39897000D01*
X33801000Y-39897000D01*
G37*
G36*
X84717000Y-39251000D02*
G01*
X82415000Y-39251000D01*
X82415000Y-36949000D01*
X84717000Y-36949000D01*
X84717000Y-39251000D01*
X84717000Y-39251000D01*
G37*
G36*
X126581000Y-31331000D02*
G01*
X124879000Y-31331000D01*
X124879000Y-29629000D01*
X126581000Y-29629000D01*
X126581000Y-31331000D01*
X126581000Y-31331000D01*
G37*
G36*
X102030669Y-27140686D02*
G01*
X102207058Y-27158059D01*
X102546548Y-27261042D01*
X102546550Y-27261043D01*
X102859422Y-27428277D01*
X103133661Y-27653339D01*
X103358723Y-27927578D01*
X103431543Y-28063815D01*
X103525958Y-28240452D01*
X103628941Y-28579942D01*
X103663714Y-28933000D01*
X103628941Y-29286058D01*
X103582511Y-29439116D01*
X103525957Y-29625550D01*
X103358723Y-29938422D01*
X103133661Y-30212661D01*
X102859422Y-30437723D01*
X102546550Y-30604957D01*
X102546548Y-30604958D01*
X102207058Y-30707941D01*
X102030669Y-30725314D01*
X101942476Y-30734000D01*
X101765524Y-30734000D01*
X101677331Y-30725314D01*
X101500942Y-30707941D01*
X101161452Y-30604958D01*
X101161450Y-30604957D01*
X100848578Y-30437723D01*
X100574339Y-30212661D01*
X100349277Y-29938422D01*
X100182043Y-29625550D01*
X100125489Y-29439116D01*
X100079059Y-29286058D01*
X100044286Y-28933000D01*
X100079059Y-28579942D01*
X100182042Y-28240452D01*
X100276457Y-28063815D01*
X100349277Y-27927578D01*
X100574339Y-27653339D01*
X100848578Y-27428277D01*
X101161450Y-27261043D01*
X101161452Y-27261042D01*
X101500942Y-27158059D01*
X101677331Y-27140686D01*
X101765524Y-27132000D01*
X101942476Y-27132000D01*
X102030669Y-27140686D01*
X102030669Y-27140686D01*
G37*
G36*
X66384254Y-25873818D02*
G01*
X66757511Y-26028426D01*
X66757513Y-26028427D01*
X67093436Y-26252884D01*
X67379116Y-26538564D01*
X67603574Y-26874489D01*
X67758182Y-27247746D01*
X67837000Y-27643993D01*
X67837000Y-28048007D01*
X67758182Y-28444254D01*
X67611533Y-28798297D01*
X67603573Y-28817513D01*
X67379116Y-29153436D01*
X67093436Y-29439116D01*
X66757513Y-29663573D01*
X66757512Y-29663574D01*
X66757511Y-29663574D01*
X66384254Y-29818182D01*
X65988007Y-29897000D01*
X65583993Y-29897000D01*
X65187746Y-29818182D01*
X64814489Y-29663574D01*
X64814488Y-29663574D01*
X64814487Y-29663573D01*
X64478564Y-29439116D01*
X64192884Y-29153436D01*
X63968427Y-28817513D01*
X63960467Y-28798297D01*
X63813818Y-28444254D01*
X63735000Y-28048007D01*
X63735000Y-27643993D01*
X63813818Y-27247746D01*
X63968426Y-26874489D01*
X64192884Y-26538564D01*
X64478564Y-26252884D01*
X64814487Y-26028427D01*
X64814489Y-26028426D01*
X65187746Y-25873818D01*
X65583993Y-25795000D01*
X65988007Y-25795000D01*
X66384254Y-25873818D01*
X66384254Y-25873818D01*
G37*
G36*
X32348254Y-25873818D02*
G01*
X32721511Y-26028426D01*
X32721513Y-26028427D01*
X33057436Y-26252884D01*
X33343116Y-26538564D01*
X33567574Y-26874489D01*
X33722182Y-27247746D01*
X33801000Y-27643993D01*
X33801000Y-28048007D01*
X33722182Y-28444254D01*
X33575533Y-28798297D01*
X33567573Y-28817513D01*
X33343116Y-29153436D01*
X33057436Y-29439116D01*
X32721513Y-29663573D01*
X32721512Y-29663574D01*
X32721511Y-29663574D01*
X32348254Y-29818182D01*
X31952007Y-29897000D01*
X31547993Y-29897000D01*
X31151746Y-29818182D01*
X30778489Y-29663574D01*
X30778488Y-29663574D01*
X30778487Y-29663573D01*
X30442564Y-29439116D01*
X30156884Y-29153436D01*
X29932427Y-28817513D01*
X29924467Y-28798297D01*
X29777818Y-28444254D01*
X29699000Y-28048007D01*
X29699000Y-27643993D01*
X29777818Y-27247746D01*
X29932426Y-26874489D01*
X30156884Y-26538564D01*
X30442564Y-26252884D01*
X30778487Y-26028427D01*
X30778489Y-26028426D01*
X31151746Y-25873818D01*
X31547993Y-25795000D01*
X31952007Y-25795000D01*
X32348254Y-25873818D01*
X32348254Y-25873818D01*
G37*
G36*
X125978228Y-27161703D02*
G01*
X126133100Y-27225853D01*
X126272481Y-27318985D01*
X126391015Y-27437519D01*
X126484147Y-27576900D01*
X126548297Y-27731772D01*
X126581000Y-27896184D01*
X126581000Y-28063816D01*
X126548297Y-28228228D01*
X126484147Y-28383100D01*
X126391015Y-28522481D01*
X126272481Y-28641015D01*
X126133100Y-28734147D01*
X125978228Y-28798297D01*
X125813816Y-28831000D01*
X125646184Y-28831000D01*
X125481772Y-28798297D01*
X125326900Y-28734147D01*
X125187519Y-28641015D01*
X125068985Y-28522481D01*
X124975853Y-28383100D01*
X124911703Y-28228228D01*
X124879000Y-28063816D01*
X124879000Y-27896184D01*
X124911703Y-27731772D01*
X124975853Y-27576900D01*
X125068985Y-27437519D01*
X125187519Y-27318985D01*
X125326900Y-27225853D01*
X125481772Y-27161703D01*
X125646184Y-27129000D01*
X125813816Y-27129000D01*
X125978228Y-27161703D01*
X125978228Y-27161703D01*
G37*
G36*
X135655787Y-14365462D02*
G01*
X135655790Y-14365463D01*
X135655789Y-14365463D01*
X136302029Y-14633144D01*
X136883631Y-15021758D01*
X137378242Y-15516369D01*
X137766856Y-16097971D01*
X137766856Y-16097972D01*
X138034538Y-16744213D01*
X138171000Y-17430256D01*
X138171000Y-18129744D01*
X138034538Y-18815787D01*
X138034537Y-18815789D01*
X137766856Y-19462029D01*
X137378242Y-20043631D01*
X136883631Y-20538242D01*
X136302029Y-20926856D01*
X135845068Y-21116135D01*
X135655787Y-21194538D01*
X134969744Y-21331000D01*
X134270256Y-21331000D01*
X133584213Y-21194538D01*
X133394932Y-21116135D01*
X132937971Y-20926856D01*
X132356369Y-20538242D01*
X131861758Y-20043631D01*
X131473144Y-19462029D01*
X131205463Y-18815789D01*
X131205462Y-18815787D01*
X131069000Y-18129744D01*
X131069000Y-17430256D01*
X131205462Y-16744213D01*
X131473144Y-16097972D01*
X131473144Y-16097971D01*
X131861758Y-15516369D01*
X132356369Y-15021758D01*
X132937971Y-14633144D01*
X133584211Y-14365463D01*
X133584210Y-14365463D01*
X133584213Y-14365462D01*
X134270256Y-14229000D01*
X134969744Y-14229000D01*
X135655787Y-14365462D01*
X135655787Y-14365462D01*
G37*
G36*
X18688787Y-14365462D02*
G01*
X18688790Y-14365463D01*
X18688789Y-14365463D01*
X19335029Y-14633144D01*
X19916631Y-15021758D01*
X20411242Y-15516369D01*
X20799856Y-16097971D01*
X20799856Y-16097972D01*
X21067538Y-16744213D01*
X21204000Y-17430256D01*
X21204000Y-18129744D01*
X21067538Y-18815787D01*
X21067537Y-18815789D01*
X20799856Y-19462029D01*
X20411242Y-20043631D01*
X19916631Y-20538242D01*
X19335029Y-20926856D01*
X18878068Y-21116135D01*
X18688787Y-21194538D01*
X18002744Y-21331000D01*
X17303256Y-21331000D01*
X16617213Y-21194538D01*
X16427932Y-21116135D01*
X15970971Y-20926856D01*
X15389369Y-20538242D01*
X14894758Y-20043631D01*
X14506144Y-19462029D01*
X14238463Y-18815789D01*
X14238462Y-18815787D01*
X14102000Y-18129744D01*
X14102000Y-17430256D01*
X14238462Y-16744213D01*
X14506144Y-16097972D01*
X14506144Y-16097971D01*
X14894758Y-15516369D01*
X15389369Y-15021758D01*
X15970971Y-14633144D01*
X16617211Y-14365463D01*
X16617210Y-14365463D01*
X16617213Y-14365462D01*
X17303256Y-14229000D01*
X18002744Y-14229000D01*
X18688787Y-14365462D01*
X18688787Y-14365462D01*
G37*
M02*
