M48
; DRILL file {KiCad (5.1.2-1)-1} date Tuesday, October 06, 2020 at 03:05:45 PM
; FORMAT={-:-/ absolute / inch / decimal}
; #@! TF.CreationDate,2020-10-06T15:05:45-04:00
; #@! TF.GenerationSoftware,Kicad,Pcbnew,(5.1.2-1)-1
FMAT,2
INCH
T1C0.0315
T2C0.0394
T3C0.0433
T4C0.0551
T5C0.0787
T6C0.1378
T7C0.1772
%
G90
G05
T1
X5.25Y-1.8
X5.25Y-2.1
X4.09Y-2.68
X4.39Y-2.68
X3.44Y-2.98
X3.74Y-2.98
X3.29Y-2.72
X3.29Y-2.8184
X5.2Y-2.7
X5.2Y-3.0
X3.85Y-2.25
X3.85Y-2.3484
X3.85Y-2.55
X3.85Y-2.6484
X4.09Y-2.18
X4.39Y-2.18
X4.95Y-2.9
X4.95Y-2.9984
X3.29Y-2.08
X3.29Y-2.1784
X4.79Y-1.78
X5.09Y-1.78
X4.95Y-1.1016
X4.95Y-1.2
T2
X4.54Y-1.98
X4.6384Y-2.1769
X4.7369Y-1.98
X4.54Y-2.68
X4.6384Y-2.8769
X4.7369Y-2.68
T3
X0.75Y-3.55
X3.54Y-1.8
X3.54Y-2.2
X0.75Y-3.95
X5.2Y-3.2
X4.44Y-3.13
X4.44Y-3.53
X3.29Y-1.5
X3.29Y-1.9
X3.86Y-1.795
X4.01Y-1.795
X4.16Y-1.795
X5.25Y-1.53
X3.3Y-3.2
X3.3Y-3.6
X0.75Y-3.75
X3.75Y-3.3
X3.9Y-3.3
X4.05Y-3.3
T4
X1.3Y-3.45
X1.3Y-3.65
X1.3Y-3.85
X1.3Y-4.05
T5
X1.25Y-2.4
X1.25Y-2.7937
X2.59Y-1.0963
X2.59Y-1.49
X2.54Y-2.4
X2.54Y-2.7937
X1.25Y-1.0963
X1.25Y-1.49
T6
X4.01Y-1.1391
X3.9Y-3.9559
T7
X5.265Y-0.725
X5.2Y-4.215
X0.71Y-0.705
X0.755Y-4.265
T0
M30
